<?xml version="1.0" encoding="UTF-8" standalone="no"?>
<!DOCTYPE svg PUBLIC "-//W3C//DTD SVG 1.1//EN"
 "http://www.w3.org/Graphics/SVG/1.1/DTD/svg11.dtd">
<!-- Generated by graphviz version 2.43.0 (0)
 -->
<!-- Title: /jenkins/jenlib_workspaces_f9/bld_nightly&#45;haldls.YmxkX25pZ2h0bHktaGFsZGxzIzcxMQ.x/haldls/include/haldls/vx/arq.h Pages: 1 -->
<svg width="1110pt" height="203pt"
 viewBox="0.00 0.00 1109.58 203.00" xmlns="http://www.w3.org/2000/svg" xmlns:xlink="http://www.w3.org/1999/xlink">
<g id="graph0" class="graph" transform="scale(1 1) rotate(0) translate(4 199)">
<title>/jenkins/jenlib_workspaces_f9/bld_nightly&#45;haldls.YmxkX25pZ2h0bHktaGFsZGxzIzcxMQ.x/haldls/include/haldls/vx/arq.h</title>
<polygon fill="white" stroke="transparent" points="-4,4 -4,-199 1105.58,-199 1105.58,4 -4,4"/>
<!-- Node0 -->
<g id="node1" class="node">
<title>Node0</title>
<g id="a_node1"><a xlink:title=" ">
<polygon fill="#bfbfbf" stroke="black" points="606.95,-138.5 606.95,-194.5 785.19,-194.5 785.19,-138.5 606.95,-138.5"/>
<text text-anchor="start" x="614.95" y="-181.5" font-family="Helvetica,sans-Serif" font-size="10.00">/jenkins/jenlib_workspaces</text>
<text text-anchor="start" x="614.95" y="-169.5" font-family="Helvetica,sans-Serif" font-size="10.00">_f9/bld_nightly&#45;haldls.YmxkX25p</text>
<text text-anchor="start" x="614.95" y="-157.5" font-family="Helvetica,sans-Serif" font-size="10.00">Z2h0bHktaGFsZGxzIzcxMQ.x/haldls</text>
<text text-anchor="middle" x="696.07" y="-145.5" font-family="Helvetica,sans-Serif" font-size="10.00">/include/haldls/vx/arq.h</text>
</a>
</g>
</g>
<!-- Node1 -->
<g id="node2" class="node">
<title>Node1</title>
<g id="a_node2"><a xlink:title=" ">
<polygon fill="white" stroke="#bfbfbf" points="332.68,-75.5 332.68,-95.5 371.46,-95.5 371.46,-75.5 332.68,-75.5"/>
<text text-anchor="middle" x="352.07" y="-82.5" font-family="Helvetica,sans-Serif" font-size="10.00">array</text>
</a>
</g>
</g>
<!-- Node0&#45;&gt;Node1 -->
<g id="edge1" class="edge">
<title>Node0&#45;&gt;Node1</title>
<path fill="none" stroke="midnightblue" d="M606.8,-153.05C543.83,-142.88 458.04,-126.2 385.07,-102 383.13,-101.36 381.16,-100.63 379.19,-99.85"/>
<polygon fill="midnightblue" stroke="midnightblue" points="380.13,-96.44 369.57,-95.66 377.34,-102.86 380.13,-96.44"/>
</g>
<!-- Node2 -->
<g id="node3" class="node">
<title>Node2</title>
<g id="a_node3"><a xlink:title=" ">
<polygon fill="white" stroke="#bfbfbf" points="684.9,-6.5 684.9,-26.5 729.24,-26.5 729.24,-6.5 684.9,-6.5"/>
<text text-anchor="middle" x="707.07" y="-13.5" font-family="Helvetica,sans-Serif" font-size="10.00">iosfwd</text>
</a>
</g>
</g>
<!-- Node0&#45;&gt;Node2 -->
<g id="edge2" class="edge">
<title>Node0&#45;&gt;Node2</title>
<path fill="none" stroke="midnightblue" d="M682.45,-138.24C674.52,-118.78 667.31,-92.09 674.07,-69 677.74,-56.49 685.47,-44.13 692.54,-34.66"/>
<polygon fill="midnightblue" stroke="midnightblue" points="695.49,-36.57 698.95,-26.55 690,-32.23 695.49,-36.57"/>
</g>
<!-- Node3 -->
<g id="node4" class="node">
<title>Node3</title>
<g id="a_node4"><a xlink:title=" ">
<polygon fill="white" stroke="#bfbfbf" points="849.17,-75.5 849.17,-95.5 982.97,-95.5 982.97,-75.5 849.17,-75.5"/>
<text text-anchor="middle" x="916.07" y="-82.5" font-family="Helvetica,sans-Serif" font-size="10.00">halco/common/geometry.h</text>
</a>
</g>
</g>
<!-- Node0&#45;&gt;Node3 -->
<g id="edge3" class="edge">
<title>Node0&#45;&gt;Node3</title>
<path fill="none" stroke="midnightblue" d="M771.48,-138.42C808.8,-125.02 852.04,-109.49 881.45,-98.93"/>
<polygon fill="midnightblue" stroke="midnightblue" points="882.63,-102.23 890.86,-95.55 880.26,-95.64 882.63,-102.23"/>
</g>
<!-- Node4 -->
<g id="node5" class="node">
<title>Node4</title>
<g id="a_node5"><a xlink:title=" ">
<polygon fill="white" stroke="#bfbfbf" points="1000.56,-69.5 1000.56,-101.5 1101.58,-101.5 1101.58,-69.5 1000.56,-69.5"/>
<text text-anchor="start" x="1008.56" y="-88.5" font-family="Helvetica,sans-Serif" font-size="10.00">halco/hicann&#45;dls/vx</text>
<text text-anchor="middle" x="1051.07" y="-76.5" font-family="Helvetica,sans-Serif" font-size="10.00">/highspeed_link.h</text>
</a>
</g>
</g>
<!-- Node0&#45;&gt;Node4 -->
<g id="edge4" class="edge">
<title>Node0&#45;&gt;Node4</title>
<path fill="none" stroke="midnightblue" d="M785.36,-147.45C841.69,-135.8 916.2,-119.92 990.28,-102.38"/>
<polygon fill="midnightblue" stroke="midnightblue" points="991.34,-105.73 1000.26,-100.01 989.72,-98.92 991.34,-105.73"/>
</g>
<!-- Node5 -->
<g id="node6" class="node">
<title>Node5</title>
<g id="a_node6"><a xlink:href="cerealization_8h.html" target="_top" xlink:title=" ">
<polygon fill="white" stroke="black" points="683.4,-75.5 683.4,-95.5 792.75,-95.5 792.75,-75.5 683.4,-75.5"/>
<text text-anchor="middle" x="738.07" y="-82.5" font-family="Helvetica,sans-Serif" font-size="10.00">haldls/cerealization.h</text>
</a>
</g>
</g>
<!-- Node0&#45;&gt;Node5 -->
<g id="edge5" class="edge">
<title>Node0&#45;&gt;Node5</title>
<path fill="none" stroke="midnightblue" d="M710.53,-138.31C716.43,-127.2 723.11,-114.64 728.41,-104.67"/>
<polygon fill="midnightblue" stroke="midnightblue" points="731.57,-106.19 733.17,-95.71 725.39,-102.9 731.57,-106.19"/>
</g>
<!-- Node7 -->
<g id="node8" class="node">
<title>Node7</title>
<g id="a_node8"><a xlink:title=" ">
<polygon fill="white" stroke="#bfbfbf" points="927.57,-6.5 927.57,-26.5 1008.57,-26.5 1008.57,-6.5 927.57,-6.5"/>
<text text-anchor="middle" x="968.07" y="-13.5" font-family="Helvetica,sans-Serif" font-size="10.00">hate/visibility.h</text>
</a>
</g>
</g>
<!-- Node0&#45;&gt;Node7 -->
<g id="edge20" class="edge">
<title>Node0&#45;&gt;Node7</title>
<path fill="none" stroke="midnightblue" d="M745.23,-138.47C763.53,-127.78 784.18,-114.97 802.07,-102 820.18,-88.87 820.99,-80.67 840.07,-69 867.8,-52.05 902.08,-38.6 928.19,-29.7"/>
<polygon fill="midnightblue" stroke="midnightblue" points="929.38,-32.99 937.77,-26.52 927.17,-26.35 929.38,-32.99"/>
</g>
<!-- Node10 -->
<g id="node11" class="node">
<title>Node10</title>
<g id="a_node11"><a xlink:href="genpybind_8h.html" target="_top" xlink:title=" ">
<polygon fill="white" stroke="black" points="0,-6.5 0,-26.5 112.14,-26.5 112.14,-6.5 0,-6.5"/>
<text text-anchor="middle" x="56.07" y="-13.5" font-family="Helvetica,sans-Serif" font-size="10.00">haldls/vx/genpybind.h</text>
</a>
</g>
</g>
<!-- Node0&#45;&gt;Node10 -->
<g id="edge11" class="edge">
<title>Node0&#45;&gt;Node10</title>
<path fill="none" stroke="midnightblue" d="M606.82,-156.4C550.34,-147.96 477.11,-131.98 418.07,-102 398.13,-91.87 400.39,-78.36 380.07,-69 281.71,-23.69 245.87,-50.94 139.07,-33 130.66,-31.59 121.77,-30.01 113.08,-28.43"/>
<polygon fill="midnightblue" stroke="midnightblue" points="113.45,-24.94 102.99,-26.57 112.19,-31.82 113.45,-24.94"/>
</g>
<!-- Node11 -->
<g id="node12" class="node">
<title>Node11</title>
<g id="a_node12"><a xlink:href="traits_8h.html" target="_top" xlink:title=" ">
<polygon fill="white" stroke="black" points="427.23,-75.5 427.23,-95.5 514.91,-95.5 514.91,-75.5 427.23,-75.5"/>
<text text-anchor="middle" x="471.07" y="-82.5" font-family="Helvetica,sans-Serif" font-size="10.00">haldls/vx/traits.h</text>
</a>
</g>
</g>
<!-- Node0&#45;&gt;Node11 -->
<g id="edge13" class="edge">
<title>Node0&#45;&gt;Node11</title>
<path fill="none" stroke="midnightblue" d="M618.95,-138.42C580.78,-125.02 536.56,-109.49 506.48,-98.93"/>
<polygon fill="midnightblue" stroke="midnightblue" points="507.45,-95.56 496.86,-95.55 505.13,-102.17 507.45,-95.56"/>
</g>
<!-- Node5&#45;&gt;Node2 -->
<g id="edge9" class="edge">
<title>Node5&#45;&gt;Node2</title>
<path fill="none" stroke="midnightblue" d="M733.89,-75.46C729.25,-65.43 721.63,-48.96 715.69,-36.13"/>
<polygon fill="midnightblue" stroke="midnightblue" points="718.76,-34.43 711.38,-26.82 712.41,-37.37 718.76,-34.43"/>
</g>
<!-- Node6 -->
<g id="node7" class="node">
<title>Node6</title>
<g id="a_node7"><a xlink:title=" ">
<polygon fill="white" stroke="#bfbfbf" points="583.45,-6.5 583.45,-26.5 666.69,-26.5 666.69,-6.5 583.45,-6.5"/>
<text text-anchor="middle" x="625.07" y="-13.5" font-family="Helvetica,sans-Serif" font-size="10.00">hate/type_list.h</text>
</a>
</g>
</g>
<!-- Node5&#45;&gt;Node6 -->
<g id="edge6" class="edge">
<title>Node5&#45;&gt;Node6</title>
<path fill="none" stroke="midnightblue" d="M722.83,-75.46C703.96,-64.28 671.59,-45.08 649.3,-31.86"/>
<polygon fill="midnightblue" stroke="midnightblue" points="650.82,-28.7 640.43,-26.61 647.25,-34.72 650.82,-28.7"/>
</g>
<!-- Node5&#45;&gt;Node7 -->
<g id="edge7" class="edge">
<title>Node5&#45;&gt;Node7</title>
<path fill="none" stroke="midnightblue" d="M770.65,-75.41C806.76,-65.28 866.67,-48.32 918.07,-33 921.83,-31.88 925.75,-30.69 929.66,-29.5"/>
<polygon fill="midnightblue" stroke="midnightblue" points="930.75,-32.83 939.28,-26.54 928.7,-26.14 930.75,-32.83"/>
</g>
<!-- Node8 -->
<g id="node9" class="node">
<title>Node8</title>
<g id="a_node9"><a xlink:title=" ">
<polygon fill="white" stroke="#bfbfbf" points="747.62,-6.5 747.62,-26.5 792.52,-26.5 792.52,-6.5 747.62,-6.5"/>
<text text-anchor="middle" x="770.07" y="-13.5" font-family="Helvetica,sans-Serif" font-size="10.00">cstdint</text>
</a>
</g>
</g>
<!-- Node5&#45;&gt;Node8 -->
<g id="edge8" class="edge">
<title>Node5&#45;&gt;Node8</title>
<path fill="none" stroke="midnightblue" d="M742.39,-75.46C747.18,-65.43 755.05,-48.96 761.17,-36.13"/>
<polygon fill="midnightblue" stroke="midnightblue" points="764.47,-37.35 765.62,-26.82 758.15,-34.34 764.47,-37.35"/>
</g>
<!-- Node9 -->
<g id="node10" class="node">
<title>Node9</title>
<g id="a_node10"><a xlink:title=" ">
<polygon fill="white" stroke="#bfbfbf" points="810.95,-6.5 810.95,-26.5 909.19,-26.5 909.19,-6.5 810.95,-6.5"/>
<text text-anchor="middle" x="860.07" y="-13.5" font-family="Helvetica,sans-Serif" font-size="10.00">cereal/macros.hpp</text>
</a>
</g>
</g>
<!-- Node5&#45;&gt;Node9 -->
<g id="edge10" class="edge">
<title>Node5&#45;&gt;Node9</title>
<path fill="none" stroke="midnightblue" d="M754.52,-75.46C775.08,-64.18 810.48,-44.74 834.56,-31.51"/>
<polygon fill="midnightblue" stroke="midnightblue" points="836.41,-34.49 843.49,-26.61 833.04,-28.35 836.41,-34.49"/>
</g>
<!-- Node10&#45;&gt;Node10 -->
<g id="edge12" class="edge">
<title>Node10&#45;&gt;Node10</title>
<path fill="none" stroke="midnightblue" d="M79.97,-26.54C103.79,-32.26 130.14,-28.92 130.14,-16.5 130.14,-5.78 110.51,-1.82 89.81,-4.62"/>
<polygon fill="midnightblue" stroke="midnightblue" points="89.15,-1.18 79.97,-6.46 90.44,-8.06 89.15,-1.18"/>
</g>
<!-- Node11&#45;&gt;Node6 -->
<g id="edge17" class="edge">
<title>Node11&#45;&gt;Node6</title>
<path fill="none" stroke="midnightblue" d="M491.84,-75.46C518.36,-63.93 564.45,-43.87 594.86,-30.64"/>
<polygon fill="midnightblue" stroke="midnightblue" points="596.37,-33.81 604.14,-26.61 593.57,-27.39 596.37,-33.81"/>
</g>
<!-- Node11&#45;&gt;Node10 -->
<g id="edge16" class="edge">
<title>Node11&#45;&gt;Node10</title>
<path fill="none" stroke="midnightblue" d="M440.24,-75.46C431.51,-73.12 421.97,-70.76 413.07,-69 292.6,-45.09 260.37,-52.28 139.07,-33 130.34,-31.61 121.12,-30.02 112.12,-28.39"/>
<polygon fill="midnightblue" stroke="midnightblue" points="112.56,-24.91 102.09,-26.55 111.3,-31.8 112.56,-24.91"/>
</g>
<!-- Node12 -->
<g id="node13" class="node">
<title>Node12</title>
<g id="a_node13"><a xlink:title=" ">
<polygon fill="white" stroke="#bfbfbf" points="392.01,-6.5 392.01,-26.5 454.13,-26.5 454.13,-6.5 392.01,-6.5"/>
<text text-anchor="middle" x="423.07" y="-13.5" font-family="Helvetica,sans-Serif" font-size="10.00">type_traits</text>
</a>
</g>
</g>
<!-- Node11&#45;&gt;Node12 -->
<g id="edge14" class="edge">
<title>Node11&#45;&gt;Node12</title>
<path fill="none" stroke="midnightblue" d="M464.6,-75.46C457.2,-65.13 444.9,-47.97 435.61,-35"/>
<polygon fill="midnightblue" stroke="midnightblue" points="438.42,-32.91 429.75,-26.82 432.73,-36.99 438.42,-32.91"/>
</g>
<!-- Node13 -->
<g id="node14" class="node">
<title>Node13</title>
<g id="a_node14"><a xlink:title=" ">
<polygon fill="white" stroke="#bfbfbf" points="472.45,-0.5 472.45,-32.5 565.69,-32.5 565.69,-0.5 472.45,-0.5"/>
<text text-anchor="start" x="480.45" y="-19.5" font-family="Helvetica,sans-Serif" font-size="10.00">fisch/vx/container</text>
<text text-anchor="middle" x="519.07" y="-7.5" font-family="Helvetica,sans-Serif" font-size="10.00">_fwd.h</text>
</a>
</g>
</g>
<!-- Node11&#45;&gt;Node13 -->
<g id="edge15" class="edge">
<title>Node11&#45;&gt;Node13</title>
<path fill="none" stroke="midnightblue" d="M477.54,-75.46C483.89,-66.61 493.82,-52.75 502.38,-40.8"/>
<polygon fill="midnightblue" stroke="midnightblue" points="505.32,-42.7 508.3,-32.53 499.63,-38.62 505.32,-42.7"/>
</g>
<!-- Node14 -->
<g id="node15" class="node">
<title>Node14</title>
<g id="a_node15"><a xlink:title=" ">
<polygon fill="white" stroke="#bfbfbf" points="147.67,-0.5 147.67,-32.5 246.47,-32.5 246.47,-0.5 147.67,-0.5"/>
<text text-anchor="start" x="155.67" y="-19.5" font-family="Helvetica,sans-Serif" font-size="10.00">boost/utility/enable</text>
<text text-anchor="middle" x="197.07" y="-7.5" font-family="Helvetica,sans-Serif" font-size="10.00">_if.hpp</text>
</a>
</g>
</g>
<!-- Node11&#45;&gt;Node14 -->
<g id="edge18" class="edge">
<title>Node11&#45;&gt;Node14</title>
<path fill="none" stroke="midnightblue" d="M438,-75.44C429.86,-73.27 421.17,-71 413.07,-69 346.16,-52.44 326.64,-50.45 256.48,-33.3"/>
<polygon fill="midnightblue" stroke="midnightblue" points="257.26,-29.89 246.71,-30.9 255.59,-36.69 257.26,-29.89"/>
</g>
<!-- Node15 -->
<g id="node16" class="node">
<title>Node15</title>
<g id="a_node16"><a xlink:title=" ">
<polygon fill="white" stroke="#bfbfbf" points="264.12,-6.5 264.12,-26.5 374.03,-26.5 374.03,-6.5 264.12,-6.5"/>
<text text-anchor="middle" x="319.07" y="-13.5" font-family="Helvetica,sans-Serif" font-size="10.00">fisch/vx/container.def</text>
</a>
</g>
</g>
<!-- Node11&#45;&gt;Node15 -->
<g id="edge19" class="edge">
<title>Node11&#45;&gt;Node15</title>
<path fill="none" stroke="midnightblue" d="M450.57,-75.46C424.39,-63.93 378.9,-43.87 348.89,-30.64"/>
<polygon fill="midnightblue" stroke="midnightblue" points="350.29,-27.44 339.73,-26.61 347.47,-33.84 350.29,-27.44"/>
</g>
</g>
</svg>
