<?xml version="1.0" encoding="UTF-8" standalone="no"?>
<!DOCTYPE svg PUBLIC "-//W3C//DTD SVG 1.1//EN"
 "http://www.w3.org/Graphics/SVG/1.1/DTD/svg11.dtd">
<!-- Generated by graphviz version 2.43.0 (0)
 -->
<!-- Title: /jenkins/jenlib_workspaces_f9/bld_nightly&#45;haldls.YmxkX25pZ2h0bHktaGFsZGxzIzcxMQ.x/haldls/include/haldls/vx/block.h Pages: 1 -->
<!--zoomable 203 -->
<svg id="main" version="1.1" xmlns="http://www.w3.org/2000/svg" xmlns:xlink="http://www.w3.org/1999/xlink" xml:space="preserve" onload="init(evt)">
<style type="text/css"><![CDATA[
.edge:hover path { stroke: red; }
.edge:hover polygon { stroke: red; fill: red; }
]]></style>
<script type="text/javascript"><![CDATA[
var edges = document.getElementsByTagName('g');
if (edges && edges.length) {
  for (var i=0;i<edges.length;i++) {
    if (edges[i].id.substr(0,4)=='edge') {
      edges[i].setAttribute('class','edge');
    }
  }
}
]]></script>
        <defs>
                <circle id="rim" cx="0" cy="0" r="7"/>
                <circle id="rim2" cx="0" cy="0" r="3.5"/>
                <g id="zoomPlus">
                        <use xlink:href="#rim" fill="#404040">
                                <set attributeName="fill" to="#808080" begin="zoomplus.mouseover" end="zoomplus.mouseout"/>
                        </use>
                        <path d="M-4,0h8M0,-4v8" fill="none" stroke="white" stroke-width="1.5" pointer-events="none"/>
                </g>
                <g id="zoomMin">
                        <use xlink:href="#rim" fill="#404040">
                                <set attributeName="fill" to="#808080" begin="zoomminus.mouseover" end="zoomminus.mouseout"/>
                        </use>
                        <path d="M-4,0h8" fill="none" stroke="white" stroke-width="1.5" pointer-events="none"/>
                </g>
                <g id="dirArrow">
                        <path fill="none" stroke="white" stroke-width="1.5" d="M0,-3.0v7 M-2.5,-0.5L0,-3.0L2.5,-0.5"/>
                </g>
               <g id="resetDef">
                       <use xlink:href="#rim2" fill="#404040">
                               <set attributeName="fill" to="#808080" begin="reset.mouseover" end="reset.mouseout"/>
                       </use>
               </g>
        </defs>

<script type="text/javascript">
var viewWidth = 1166;
var viewHeight = 203;
var sectionId = 'dynsection-0';
</script>
<script xlink:href="svgpan.js"/>
<svg id="graph" class="graph">
<g id="viewport">
<title>/jenkins/jenlib_workspaces_f9/bld_nightly&#45;haldls.YmxkX25pZ2h0bHktaGFsZGxzIzcxMQ.x/haldls/include/haldls/vx/block.h</title>
<polygon fill="white" stroke="transparent" points="-4,4 -4,-199 1161.51,-199 1161.51,4 -4,4"/>
<!-- Node0 -->
<g id="node1" class="node">
<title>Node0</title>
<g id="a_node1"><a xlink:title=" ">
<polygon fill="#bfbfbf" stroke="black" points="420.27,-138.5 420.27,-194.5 598.51,-194.5 598.51,-138.5 420.27,-138.5"/>
<text text-anchor="start" x="428.27" y="-181.5" font-family="Helvetica,sans-Serif" font-size="10.00">/jenkins/jenlib_workspaces</text>
<text text-anchor="start" x="428.27" y="-169.5" font-family="Helvetica,sans-Serif" font-size="10.00">_f9/bld_nightly&#45;haldls.YmxkX25p</text>
<text text-anchor="start" x="428.27" y="-157.5" font-family="Helvetica,sans-Serif" font-size="10.00">Z2h0bHktaGFsZGxzIzcxMQ.x/haldls</text>
<text text-anchor="middle" x="509.39" y="-145.5" font-family="Helvetica,sans-Serif" font-size="10.00">/include/haldls/vx/block.h</text>
</a>
</g>
</g>
<!-- Node1 -->
<g id="node2" class="node">
<title>Node1</title>
<g id="a_node2"><a xlink:title=" ">
<polygon fill="white" stroke="#bfbfbf" points="0,-75.5 0,-95.5 38.78,-95.5 38.78,-75.5 0,-75.5"/>
<text text-anchor="middle" x="19.39" y="-82.5" font-family="Helvetica,sans-Serif" font-size="10.00">array</text>
</a>
</g>
</g>
<!-- Node0&#45;&gt;Node1 -->
<g id="edge1" class="edge">
<title>Node0&#45;&gt;Node1</title>
<path fill="none" stroke="midnightblue" d="M419.92,-162.91C325.2,-157.96 172.42,-143.59 47.39,-102 45.76,-101.46 44.11,-100.82 42.48,-100.12"/>
<polygon fill="midnightblue" stroke="midnightblue" points="43.96,-96.95 33.45,-95.61 40.84,-103.21 43.96,-96.95"/>
</g>
<!-- Node2 -->
<g id="node3" class="node">
<title>Node2</title>
<g id="a_node3"><a xlink:title=" ">
<polygon fill="white" stroke="#bfbfbf" points="56.33,-75.5 56.33,-95.5 108.45,-95.5 108.45,-75.5 56.33,-75.5"/>
<text text-anchor="middle" x="82.39" y="-82.5" font-family="Helvetica,sans-Serif" font-size="10.00">ostream</text>
</a>
</g>
</g>
<!-- Node0&#45;&gt;Node2 -->
<g id="edge2" class="edge">
<title>Node0&#45;&gt;Node2</title>
<path fill="none" stroke="midnightblue" d="M419.97,-157.61C339.56,-148.96 218.83,-132.13 117.39,-102 114.94,-101.27 112.43,-100.41 109.94,-99.48"/>
<polygon fill="midnightblue" stroke="midnightblue" points="111.16,-96.19 100.58,-95.61 108.49,-102.66 111.16,-96.19"/>
</g>
<!-- Node3 -->
<g id="node4" class="node">
<title>Node3</title>
<g id="a_node4"><a xlink:title=" ">
<polygon fill="white" stroke="#bfbfbf" points="126.76,-75.5 126.76,-95.5 250.01,-95.5 250.01,-75.5 126.76,-75.5"/>
<text text-anchor="middle" x="188.39" y="-82.5" font-family="Helvetica,sans-Serif" font-size="10.00">fisch/vx/omnibus_data.h</text>
</a>
</g>
</g>
<!-- Node0&#45;&gt;Node3 -->
<g id="edge3" class="edge">
<title>Node0&#45;&gt;Node3</title>
<path fill="none" stroke="midnightblue" d="M419.97,-143.49C359.87,-128.7 283.11,-109.81 234.84,-97.93"/>
<polygon fill="midnightblue" stroke="midnightblue" points="235.53,-94.5 224.98,-95.51 233.86,-101.29 235.53,-94.5"/>
</g>
<!-- Node4 -->
<g id="node5" class="node">
<title>Node4</title>
<g id="a_node5"><a xlink:title=" ">
<polygon fill="white" stroke="#bfbfbf" points="268.49,-75.5 268.49,-95.5 402.29,-95.5 402.29,-75.5 268.49,-75.5"/>
<text text-anchor="middle" x="335.39" y="-82.5" font-family="Helvetica,sans-Serif" font-size="10.00">halco/common/geometry.h</text>
</a>
</g>
</g>
<!-- Node0&#45;&gt;Node4 -->
<g id="edge4" class="edge">
<title>Node0&#45;&gt;Node4</title>
<path fill="none" stroke="midnightblue" d="M449.51,-138.31C420.78,-125.27 387.66,-110.23 364.53,-99.73"/>
<polygon fill="midnightblue" stroke="midnightblue" points="365.82,-96.47 355.27,-95.53 362.93,-102.85 365.82,-96.47"/>
</g>
<!-- Node5 -->
<g id="node6" class="node">
<title>Node5</title>
<g id="a_node6"><a xlink:title=" ">
<polygon fill="white" stroke="#bfbfbf" points="419.88,-69.5 419.88,-101.5 520.9,-101.5 520.9,-69.5 419.88,-69.5"/>
<text text-anchor="start" x="427.88" y="-88.5" font-family="Helvetica,sans-Serif" font-size="10.00">halco/hicann&#45;dls/vx</text>
<text text-anchor="middle" x="470.39" y="-76.5" font-family="Helvetica,sans-Serif" font-size="10.00">/omnibus.h</text>
</a>
</g>
</g>
<!-- Node0&#45;&gt;Node5 -->
<g id="edge5" class="edge">
<title>Node0&#45;&gt;Node5</title>
<path fill="none" stroke="midnightblue" d="M495.97,-138.31C491.55,-129.36 486.67,-119.48 482.36,-110.76"/>
<polygon fill="midnightblue" stroke="midnightblue" points="485.37,-108.94 477.81,-101.52 479.09,-112.04 485.37,-108.94"/>
</g>
<!-- Node6 -->
<g id="node7" class="node">
<title>Node6</title>
<g id="a_node7"><a xlink:href="cerealization_8h.html" target="_top" xlink:title=" ">
<polygon fill="white" stroke="black" points="820.71,-75.5 820.71,-95.5 930.06,-95.5 930.06,-75.5 820.71,-75.5"/>
<text text-anchor="middle" x="875.39" y="-82.5" font-family="Helvetica,sans-Serif" font-size="10.00">haldls/cerealization.h</text>
</a>
</g>
</g>
<!-- Node0&#45;&gt;Node6 -->
<g id="edge6" class="edge">
<title>Node0&#45;&gt;Node6</title>
<path fill="none" stroke="midnightblue" d="M598.92,-146.17C669.4,-130.96 765.15,-110.29 823.48,-97.7"/>
<polygon fill="midnightblue" stroke="midnightblue" points="824.54,-101.06 833.57,-95.53 823.06,-94.21 824.54,-101.06"/>
</g>
<!-- Node8 -->
<g id="node9" class="node">
<title>Node8</title>
<g id="a_node9"><a xlink:title=" ">
<polygon fill="white" stroke="#bfbfbf" points="834.88,-6.5 834.88,-26.5 915.89,-26.5 915.89,-6.5 834.88,-6.5"/>
<text text-anchor="middle" x="875.39" y="-13.5" font-family="Helvetica,sans-Serif" font-size="10.00">hate/visibility.h</text>
</a>
</g>
</g>
<!-- Node0&#45;&gt;Node8 -->
<g id="edge21" class="edge">
<title>Node0&#45;&gt;Node8</title>
<path fill="none" stroke="midnightblue" d="M581.05,-138.47C610.1,-127.37 643.92,-114.26 674.39,-102 735.25,-77.5 805.83,-47.45 845.07,-30.58"/>
<polygon fill="midnightblue" stroke="midnightblue" points="846.55,-33.76 854.35,-26.59 843.78,-27.33 846.55,-33.76"/>
</g>
<!-- Node12 -->
<g id="node13" class="node">
<title>Node12</title>
<g id="a_node13"><a xlink:href="genpybind_8h.html" target="_top" xlink:title=" ">
<polygon fill="white" stroke="black" points="150.32,-6.5 150.32,-26.5 262.46,-26.5 262.46,-6.5 150.32,-6.5"/>
<text text-anchor="middle" x="206.39" y="-13.5" font-family="Helvetica,sans-Serif" font-size="10.00">haldls/vx/genpybind.h</text>
</a>
</g>
</g>
<!-- Node0&#45;&gt;Node12 -->
<g id="edge12" class="edge">
<title>Node0&#45;&gt;Node12</title>
<path fill="none" stroke="midnightblue" d="M526.52,-138.3C537.47,-117.08 546.84,-88.09 530.39,-69 495.04,-27.98 342.79,-41.97 289.39,-33 280.97,-31.59 272.09,-30.01 263.39,-28.43"/>
<polygon fill="midnightblue" stroke="midnightblue" points="263.77,-24.94 253.3,-26.57 262.5,-31.82 263.77,-24.94"/>
</g>
<!-- Node13 -->
<g id="node14" class="node">
<title>Node13</title>
<g id="a_node14"><a xlink:href="traits_8h.html" target="_top" xlink:title=" ">
<polygon fill="white" stroke="black" points="577.55,-75.5 577.55,-95.5 665.23,-95.5 665.23,-75.5 577.55,-75.5"/>
<text text-anchor="middle" x="621.39" y="-82.5" font-family="Helvetica,sans-Serif" font-size="10.00">haldls/vx/traits.h</text>
</a>
</g>
</g>
<!-- Node0&#45;&gt;Node13 -->
<g id="edge14" class="edge">
<title>Node0&#45;&gt;Node13</title>
<path fill="none" stroke="midnightblue" d="M547.93,-138.31C565.43,-125.97 585.46,-111.84 600.18,-101.46"/>
<polygon fill="midnightblue" stroke="midnightblue" points="602.44,-104.15 608.59,-95.53 598.4,-98.43 602.44,-104.15"/>
</g>
<!-- Node18 -->
<g id="node19" class="node">
<title>Node18</title>
<g id="a_node19"><a xlink:title=" ">
<polygon fill="white" stroke="#bfbfbf" points="947.77,-75.5 947.77,-95.5 1051.01,-95.5 1051.01,-75.5 947.77,-75.5"/>
<text text-anchor="middle" x="999.39" y="-82.5" font-family="Helvetica,sans-Serif" font-size="10.00">hxcomm/vx/target.h</text>
</a>
</g>
</g>
<!-- Node0&#45;&gt;Node18 -->
<g id="edge22" class="edge">
<title>Node0&#45;&gt;Node18</title>
<path fill="none" stroke="midnightblue" d="M598.81,-155.11C686.12,-144.3 822.53,-125.65 939.39,-102 945.13,-100.84 951.14,-99.47 957.05,-98.03"/>
<polygon fill="midnightblue" stroke="midnightblue" points="957.99,-101.41 966.84,-95.58 956.29,-94.62 957.99,-101.41"/>
</g>
<!-- Node7 -->
<g id="node8" class="node">
<title>Node7</title>
<g id="a_node8"><a xlink:title=" ">
<polygon fill="white" stroke="#bfbfbf" points="733.77,-6.5 733.77,-26.5 817.01,-26.5 817.01,-6.5 733.77,-6.5"/>
<text text-anchor="middle" x="775.39" y="-13.5" font-family="Helvetica,sans-Serif" font-size="10.00">hate/type_list.h</text>
</a>
</g>
</g>
<!-- Node6&#45;&gt;Node7 -->
<g id="edge7" class="edge">
<title>Node6&#45;&gt;Node7</title>
<path fill="none" stroke="midnightblue" d="M861.9,-75.46C845.35,-64.38 817.06,-45.42 797.36,-32.22"/>
<polygon fill="midnightblue" stroke="midnightblue" points="799.24,-29.27 788.98,-26.61 795.34,-35.08 799.24,-29.27"/>
</g>
<!-- Node6&#45;&gt;Node8 -->
<g id="edge8" class="edge">
<title>Node6&#45;&gt;Node8</title>
<path fill="none" stroke="midnightblue" d="M875.39,-75.46C875.39,-65.63 875.39,-49.61 875.39,-36.9"/>
<polygon fill="midnightblue" stroke="midnightblue" points="878.89,-36.82 875.39,-26.82 871.89,-36.82 878.89,-36.82"/>
</g>
<!-- Node9 -->
<g id="node10" class="node">
<title>Node9</title>
<g id="a_node10"><a xlink:title=" ">
<polygon fill="white" stroke="#bfbfbf" points="933.94,-6.5 933.94,-26.5 978.84,-26.5 978.84,-6.5 933.94,-6.5"/>
<text text-anchor="middle" x="956.39" y="-13.5" font-family="Helvetica,sans-Serif" font-size="10.00">cstdint</text>
</a>
</g>
</g>
<!-- Node6&#45;&gt;Node9 -->
<g id="edge9" class="edge">
<title>Node6&#45;&gt;Node9</title>
<path fill="none" stroke="midnightblue" d="M886.31,-75.46C899.36,-64.67 921.4,-46.44 937.28,-33.3"/>
<polygon fill="midnightblue" stroke="midnightblue" points="939.9,-35.68 945.38,-26.61 935.44,-30.28 939.9,-35.68"/>
</g>
<!-- Node10 -->
<g id="node11" class="node">
<title>Node10</title>
<g id="a_node11"><a xlink:title=" ">
<polygon fill="white" stroke="#bfbfbf" points="997.22,-6.5 997.22,-26.5 1041.56,-26.5 1041.56,-6.5 997.22,-6.5"/>
<text text-anchor="middle" x="1019.39" y="-13.5" font-family="Helvetica,sans-Serif" font-size="10.00">iosfwd</text>
</a>
</g>
</g>
<!-- Node6&#45;&gt;Node10 -->
<g id="edge10" class="edge">
<title>Node6&#45;&gt;Node10</title>
<path fill="none" stroke="midnightblue" d="M895.68,-75.32C918.16,-65.11 955.45,-48.07 987.39,-33 988.75,-32.36 990.14,-31.7 991.54,-31.03"/>
<polygon fill="midnightblue" stroke="midnightblue" points="993.31,-34.06 1000.81,-26.58 990.28,-27.75 993.31,-34.06"/>
</g>
<!-- Node11 -->
<g id="node12" class="node">
<title>Node11</title>
<g id="a_node12"><a xlink:title=" ">
<polygon fill="white" stroke="#bfbfbf" points="1059.27,-6.5 1059.27,-26.5 1157.51,-26.5 1157.51,-6.5 1059.27,-6.5"/>
<text text-anchor="middle" x="1108.39" y="-13.5" font-family="Helvetica,sans-Serif" font-size="10.00">cereal/macros.hpp</text>
</a>
</g>
</g>
<!-- Node6&#45;&gt;Node11 -->
<g id="edge11" class="edge">
<title>Node6&#45;&gt;Node11</title>
<path fill="none" stroke="midnightblue" d="M906.81,-75.46C948.24,-63.55 1021.23,-42.56 1067.09,-29.38"/>
<polygon fill="midnightblue" stroke="midnightblue" points="1068.08,-32.73 1076.72,-26.61 1066.14,-26.01 1068.08,-32.73"/>
</g>
<!-- Node12&#45;&gt;Node12 -->
<g id="edge13" class="edge">
<title>Node12&#45;&gt;Node12</title>
<path fill="none" stroke="midnightblue" d="M230.28,-26.54C254.11,-32.26 280.46,-28.92 280.46,-16.5 280.46,-5.78 260.82,-1.82 240.12,-4.62"/>
<polygon fill="midnightblue" stroke="midnightblue" points="239.47,-1.18 230.28,-6.46 240.76,-8.06 239.47,-1.18"/>
</g>
<!-- Node13&#45;&gt;Node7 -->
<g id="edge18" class="edge">
<title>Node13&#45;&gt;Node7</title>
<path fill="none" stroke="midnightblue" d="M642.16,-75.46C668.68,-63.93 714.77,-43.87 745.18,-30.64"/>
<polygon fill="midnightblue" stroke="midnightblue" points="746.68,-33.81 754.46,-26.61 743.89,-27.39 746.68,-33.81"/>
</g>
<!-- Node13&#45;&gt;Node12 -->
<g id="edge17" class="edge">
<title>Node13&#45;&gt;Node12</title>
<path fill="none" stroke="midnightblue" d="M590.56,-75.46C581.83,-73.12 572.28,-70.76 563.39,-69 442.91,-45.09 410.69,-52.28 289.39,-33 280.66,-31.61 271.43,-30.02 262.44,-28.39"/>
<polygon fill="midnightblue" stroke="midnightblue" points="262.88,-24.91 252.41,-26.55 261.61,-31.8 262.88,-24.91"/>
</g>
<!-- Node14 -->
<g id="node15" class="node">
<title>Node14</title>
<g id="a_node15"><a xlink:title=" ">
<polygon fill="white" stroke="#bfbfbf" points="542.33,-6.5 542.33,-26.5 604.45,-26.5 604.45,-6.5 542.33,-6.5"/>
<text text-anchor="middle" x="573.39" y="-13.5" font-family="Helvetica,sans-Serif" font-size="10.00">type_traits</text>
</a>
</g>
</g>
<!-- Node13&#45;&gt;Node14 -->
<g id="edge15" class="edge">
<title>Node13&#45;&gt;Node14</title>
<path fill="none" stroke="midnightblue" d="M614.91,-75.46C607.51,-65.13 595.22,-47.97 585.93,-35"/>
<polygon fill="midnightblue" stroke="midnightblue" points="588.74,-32.91 580.07,-26.82 583.05,-36.99 588.74,-32.91"/>
</g>
<!-- Node15 -->
<g id="node16" class="node">
<title>Node15</title>
<g id="a_node16"><a xlink:title=" ">
<polygon fill="white" stroke="#bfbfbf" points="622.77,-0.5 622.77,-32.5 716.01,-32.5 716.01,-0.5 622.77,-0.5"/>
<text text-anchor="start" x="630.77" y="-19.5" font-family="Helvetica,sans-Serif" font-size="10.00">fisch/vx/container</text>
<text text-anchor="middle" x="669.39" y="-7.5" font-family="Helvetica,sans-Serif" font-size="10.00">_fwd.h</text>
</a>
</g>
</g>
<!-- Node13&#45;&gt;Node15 -->
<g id="edge16" class="edge">
<title>Node13&#45;&gt;Node15</title>
<path fill="none" stroke="midnightblue" d="M627.86,-75.46C634.2,-66.61 644.14,-52.75 652.7,-40.8"/>
<polygon fill="midnightblue" stroke="midnightblue" points="655.64,-42.7 658.62,-32.53 649.95,-38.62 655.64,-42.7"/>
</g>
<!-- Node16 -->
<g id="node17" class="node">
<title>Node16</title>
<g id="a_node17"><a xlink:title=" ">
<polygon fill="white" stroke="#bfbfbf" points="297.99,-0.5 297.99,-32.5 396.79,-32.5 396.79,-0.5 297.99,-0.5"/>
<text text-anchor="start" x="305.99" y="-19.5" font-family="Helvetica,sans-Serif" font-size="10.00">boost/utility/enable</text>
<text text-anchor="middle" x="347.39" y="-7.5" font-family="Helvetica,sans-Serif" font-size="10.00">_if.hpp</text>
</a>
</g>
</g>
<!-- Node13&#45;&gt;Node16 -->
<g id="edge19" class="edge">
<title>Node13&#45;&gt;Node16</title>
<path fill="none" stroke="midnightblue" d="M588.32,-75.44C580.18,-73.27 571.48,-71 563.39,-69 496.48,-52.44 476.96,-50.45 406.8,-33.3"/>
<polygon fill="midnightblue" stroke="midnightblue" points="407.58,-29.89 397.03,-30.9 405.9,-36.69 407.58,-29.89"/>
</g>
<!-- Node17 -->
<g id="node18" class="node">
<title>Node17</title>
<g id="a_node18"><a xlink:title=" ">
<polygon fill="white" stroke="#bfbfbf" points="414.43,-6.5 414.43,-26.5 524.34,-26.5 524.34,-6.5 414.43,-6.5"/>
<text text-anchor="middle" x="469.39" y="-13.5" font-family="Helvetica,sans-Serif" font-size="10.00">fisch/vx/container.def</text>
</a>
</g>
</g>
<!-- Node13&#45;&gt;Node17 -->
<g id="edge20" class="edge">
<title>Node13&#45;&gt;Node17</title>
<path fill="none" stroke="midnightblue" d="M600.89,-75.46C574.71,-63.93 529.22,-43.87 499.2,-30.64"/>
<polygon fill="midnightblue" stroke="midnightblue" points="500.61,-27.44 490.05,-26.61 497.79,-33.84 500.61,-27.44"/>
</g>
</g>
</svg>
        <g id="navigator" transform="translate(0 0)" fill="#404254">
                <rect fill="#f2f5e9" fill-opacity="0.5" stroke="#606060" stroke-width=".5" x="0" y="0" width="60" height="60"/>
                <use id="zoomplus" xlink:href="#zoomPlus" x="17" y="9" onmousedown="handleZoom(evt,'in')"/>
                <use id="zoomminus" xlink:href="#zoomMin" x="42" y="9" onmousedown="handleZoom(evt,'out')"/>
                <use id="reset" xlink:href="#resetDef" x="30" y="36" onmousedown="handleReset()"/>
                <g id="arrowUp" xlink:href="#dirArrow" transform="translate(30 24)" onmousedown="handlePan(0,-1)">
                  <use xlink:href="#rim" fill="#404040">
                        <set attributeName="fill" to="#808080" begin="arrowUp.mouseover" end="arrowUp.mouseout"/>
                  </use>
                  <path fill="none" stroke="white" stroke-width="1.5" d="M0,-3.0v7 M-2.5,-0.5L0,-3.0L2.5,-0.5"/>
                </g>
                <g id="arrowRight" xlink:href="#dirArrow" transform="rotate(90) translate(36 -43)" onmousedown="handlePan(1,0)">
                  <use xlink:href="#rim" fill="#404040">
                        <set attributeName="fill" to="#808080" begin="arrowRight.mouseover" end="arrowRight.mouseout"/>
                  </use>
                  <path fill="none" stroke="white" stroke-width="1.5" d="M0,-3.0v7 M-2.5,-0.5L0,-3.0L2.5,-0.5"/>
                </g>
                <g id="arrowDown" xlink:href="#dirArrow" transform="rotate(180) translate(-30 -48)" onmousedown="handlePan(0,1)">
                  <use xlink:href="#rim" fill="#404040">
                        <set attributeName="fill" to="#808080" begin="arrowDown.mouseover" end="arrowDown.mouseout"/>
                  </use>
                  <path fill="none" stroke="white" stroke-width="1.5" d="M0,-3.0v7 M-2.5,-0.5L0,-3.0L2.5,-0.5"/>
                </g>
                <g id="arrowLeft" xlink:href="#dirArrow" transform="rotate(270) translate(-36 17)" onmousedown="handlePan(-1,0)">
                  <use xlink:href="#rim" fill="#404040">
                        <set attributeName="fill" to="#808080" begin="arrowLeft.mouseover" end="arrowLeft.mouseout"/>
                  </use>
                  <path fill="none" stroke="white" stroke-width="1.5" d="M0,-3.0v7 M-2.5,-0.5L0,-3.0L2.5,-0.5"/>
                </g>
        </g>
        <svg viewBox="0 0 15 15" width="100%" height="30px" preserveAspectRatio="xMaxYMin meet">
         <g id="arrow_out" transform="scale(0.3 0.3)">
          <a xlink:href="block_8h__incl_org.svg" target="_base">
           <rect id="button" ry="5" rx="5" y="6" x="6" height="38" width="38"
                fill="#f2f5e9" fill-opacity="0.5" stroke="#606060" stroke-width="1.0"/>
           <path id="arrow"
             d="M 11.500037,31.436501 C 11.940474,20.09759 22.043105,11.32322 32.158766,21.979434 L 37.068811,17.246167 C 37.068811,17.246167 37.088388,32 37.088388,32 L 22.160133,31.978069 C 22.160133,31.978069 26.997745,27.140456 26.997745,27.140456 C 18.528582,18.264221 13.291696,25.230495 11.500037,31.436501 z"
             style="fill:#404040;"/>
          </a>
         </g>
        </svg>
</svg>
