<?xml version="1.0" encoding="UTF-8" standalone="no"?>
<!DOCTYPE svg PUBLIC "-//W3C//DTD SVG 1.1//EN"
 "http://www.w3.org/Graphics/SVG/1.1/DTD/svg11.dtd">
<!-- Generated by graphviz version 2.43.0 (0)
 -->
<!-- Title: /jenkins/jenlib_workspaces_f9/bld_nightly&#45;haldls.YmxkX25pZ2h0bHktaGFsZGxzIzcxMQ.x/haldls/include/haldls/vx/capmem.h Pages: 1 -->
<!--zoomable 203 -->
<svg id="main" version="1.1" xmlns="http://www.w3.org/2000/svg" xmlns:xlink="http://www.w3.org/1999/xlink" xml:space="preserve" onload="init(evt)">
<style type="text/css"><![CDATA[
.edge:hover path { stroke: red; }
.edge:hover polygon { stroke: red; fill: red; }
]]></style>
<script type="text/javascript"><![CDATA[
var edges = document.getElementsByTagName('g');
if (edges && edges.length) {
  for (var i=0;i<edges.length;i++) {
    if (edges[i].id.substr(0,4)=='edge') {
      edges[i].setAttribute('class','edge');
    }
  }
}
]]></script>
        <defs>
                <circle id="rim" cx="0" cy="0" r="7"/>
                <circle id="rim2" cx="0" cy="0" r="3.5"/>
                <g id="zoomPlus">
                        <use xlink:href="#rim" fill="#404040">
                                <set attributeName="fill" to="#808080" begin="zoomplus.mouseover" end="zoomplus.mouseout"/>
                        </use>
                        <path d="M-4,0h8M0,-4v8" fill="none" stroke="white" stroke-width="1.5" pointer-events="none"/>
                </g>
                <g id="zoomMin">
                        <use xlink:href="#rim" fill="#404040">
                                <set attributeName="fill" to="#808080" begin="zoomminus.mouseover" end="zoomminus.mouseout"/>
                        </use>
                        <path d="M-4,0h8" fill="none" stroke="white" stroke-width="1.5" pointer-events="none"/>
                </g>
                <g id="dirArrow">
                        <path fill="none" stroke="white" stroke-width="1.5" d="M0,-3.0v7 M-2.5,-0.5L0,-3.0L2.5,-0.5"/>
                </g>
               <g id="resetDef">
                       <use xlink:href="#rim2" fill="#404040">
                               <set attributeName="fill" to="#808080" begin="reset.mouseover" end="reset.mouseout"/>
                       </use>
               </g>
        </defs>

<script type="text/javascript">
var viewWidth = 1445;
var viewHeight = 203;
var sectionId = 'dynsection-0';
</script>
<script xlink:href="svgpan.js"/>
<svg id="graph" class="graph">
<g id="viewport">
<title>/jenkins/jenlib_workspaces_f9/bld_nightly&#45;haldls.YmxkX25pZ2h0bHktaGFsZGxzIzcxMQ.x/haldls/include/haldls/vx/capmem.h</title>
<polygon fill="white" stroke="transparent" points="-4,4 -4,-199 1441.07,-199 1441.07,4 -4,4"/>
<!-- Node0 -->
<g id="node1" class="node">
<title>Node0</title>
<g id="a_node1"><a xlink:title=" ">
<polygon fill="#bfbfbf" stroke="black" points="545.33,-138.5 545.33,-194.5 723.57,-194.5 723.57,-138.5 545.33,-138.5"/>
<text text-anchor="start" x="553.33" y="-181.5" font-family="Helvetica,sans-Serif" font-size="10.00">/jenkins/jenlib_workspaces</text>
<text text-anchor="start" x="553.33" y="-169.5" font-family="Helvetica,sans-Serif" font-size="10.00">_f9/bld_nightly&#45;haldls.YmxkX25p</text>
<text text-anchor="start" x="553.33" y="-157.5" font-family="Helvetica,sans-Serif" font-size="10.00">Z2h0bHktaGFsZGxzIzcxMQ.x/haldls</text>
<text text-anchor="middle" x="634.45" y="-145.5" font-family="Helvetica,sans-Serif" font-size="10.00">/include/haldls/vx/capmem.h</text>
</a>
</g>
</g>
<!-- Node1 -->
<g id="node2" class="node">
<title>Node1</title>
<g id="a_node2"><a xlink:title=" ">
<polygon fill="white" stroke="#bfbfbf" points="95.06,-75.5 95.06,-95.5 133.84,-95.5 133.84,-75.5 95.06,-75.5"/>
<text text-anchor="middle" x="114.45" y="-82.5" font-family="Helvetica,sans-Serif" font-size="10.00">array</text>
</a>
</g>
</g>
<!-- Node0&#45;&gt;Node1 -->
<g id="edge1" class="edge">
<title>Node0&#45;&gt;Node1</title>
<path fill="none" stroke="midnightblue" d="M545.22,-162.12C446.25,-156.49 282.69,-141.53 147.45,-102 145.14,-101.33 142.79,-100.51 140.47,-99.61"/>
<polygon fill="midnightblue" stroke="midnightblue" points="141.75,-96.35 131.18,-95.58 138.96,-102.77 141.75,-96.35"/>
</g>
<!-- Node2 -->
<g id="node3" class="node">
<title>Node2</title>
<g id="a_node3"><a xlink:title=" ">
<polygon fill="white" stroke="#bfbfbf" points="0,-6.5 0,-26.5 44.89,-26.5 44.89,-6.5 0,-6.5"/>
<text text-anchor="middle" x="22.45" y="-13.5" font-family="Helvetica,sans-Serif" font-size="10.00">cstdint</text>
</a>
</g>
</g>
<!-- Node0&#45;&gt;Node2 -->
<g id="edge2" class="edge">
<title>Node0&#45;&gt;Node2</title>
<path fill="none" stroke="midnightblue" d="M545.09,-159.9C430.37,-151.56 238.57,-133.39 175.45,-102 156.87,-92.77 159.72,-80.49 142.45,-69 107.26,-45.6 93.04,-50.22 54.45,-33 52.9,-32.31 51.31,-31.59 49.71,-30.85"/>
<polygon fill="midnightblue" stroke="midnightblue" points="51.17,-27.66 40.63,-26.55 48.17,-33.99 51.17,-27.66"/>
</g>
<!-- Node3 -->
<g id="node4" class="node">
<title>Node3</title>
<g id="a_node4"><a xlink:title=" ">
<polygon fill="white" stroke="#bfbfbf" points="63.28,-6.5 63.28,-26.5 107.61,-26.5 107.61,-6.5 63.28,-6.5"/>
<text text-anchor="middle" x="85.45" y="-13.5" font-family="Helvetica,sans-Serif" font-size="10.00">iosfwd</text>
</a>
</g>
</g>
<!-- Node0&#45;&gt;Node3 -->
<g id="edge3" class="edge">
<title>Node0&#45;&gt;Node3</title>
<path fill="none" stroke="midnightblue" d="M545.33,-164.63C458.63,-160.89 324.8,-147.34 218.45,-102 196.29,-92.55 195.5,-82.35 175.45,-69 154.64,-55.16 129.94,-41.18 111.68,-31.29"/>
<polygon fill="midnightblue" stroke="midnightblue" points="113.25,-28.16 102.78,-26.52 109.94,-34.33 113.25,-28.16"/>
</g>
<!-- Node4 -->
<g id="node5" class="node">
<title>Node4</title>
<g id="a_node5"><a xlink:title=" ">
<polygon fill="white" stroke="#bfbfbf" points="732.45,-75.5 732.45,-95.5 778.45,-95.5 778.45,-75.5 732.45,-75.5"/>
<text text-anchor="middle" x="755.45" y="-82.5" font-family="Helvetica,sans-Serif" font-size="10.00">variant</text>
</a>
</g>
</g>
<!-- Node0&#45;&gt;Node4 -->
<g id="edge4" class="edge">
<title>Node0&#45;&gt;Node4</title>
<path fill="none" stroke="midnightblue" d="M676.09,-138.31C695.18,-125.85 717.04,-111.57 732.99,-101.17"/>
<polygon fill="midnightblue" stroke="midnightblue" points="735.16,-103.93 741.62,-95.53 731.33,-98.06 735.16,-103.93"/>
</g>
<!-- Node5 -->
<g id="node6" class="node">
<title>Node5</title>
<g id="a_node6"><a xlink:title=" ">
<polygon fill="white" stroke="#bfbfbf" points="796.55,-75.5 796.55,-95.5 930.35,-95.5 930.35,-75.5 796.55,-75.5"/>
<text text-anchor="middle" x="863.45" y="-82.5" font-family="Helvetica,sans-Serif" font-size="10.00">halco/common/geometry.h</text>
</a>
</g>
</g>
<!-- Node0&#45;&gt;Node5 -->
<g id="edge5" class="edge">
<title>Node0&#45;&gt;Node5</title>
<path fill="none" stroke="midnightblue" d="M712.94,-138.42C751.79,-125.02 796.8,-109.49 827.4,-98.93"/>
<polygon fill="midnightblue" stroke="midnightblue" points="828.89,-102.12 837.2,-95.55 826.61,-95.51 828.89,-102.12"/>
</g>
<!-- Node6 -->
<g id="node7" class="node">
<title>Node6</title>
<g id="a_node7"><a xlink:title=" ">
<polygon fill="white" stroke="#bfbfbf" points="948.66,-75.5 948.66,-95.5 1070.23,-95.5 1070.23,-75.5 948.66,-75.5"/>
<text text-anchor="middle" x="1009.45" y="-82.5" font-family="Helvetica,sans-Serif" font-size="10.00">halco/common/iter_all.h</text>
</a>
</g>
</g>
<!-- Node0&#45;&gt;Node6 -->
<g id="edge6" class="edge">
<title>Node0&#45;&gt;Node6</title>
<path fill="none" stroke="midnightblue" d="M723.59,-147.25C784.45,-134.72 866.87,-117.59 939.45,-102 945.76,-100.64 952.38,-99.2 958.93,-97.76"/>
<polygon fill="midnightblue" stroke="midnightblue" points="960.11,-101.09 969.12,-95.52 958.6,-94.25 960.11,-101.09"/>
</g>
<!-- Node7 -->
<g id="node8" class="node">
<title>Node7</title>
<g id="a_node8"><a xlink:title=" ">
<polygon fill="white" stroke="#bfbfbf" points="1088.33,-69.5 1088.33,-101.5 1196.57,-101.5 1196.57,-69.5 1088.33,-69.5"/>
<text text-anchor="start" x="1096.33" y="-88.5" font-family="Helvetica,sans-Serif" font-size="10.00">halco/common/typed</text>
<text text-anchor="middle" x="1142.45" y="-76.5" font-family="Helvetica,sans-Serif" font-size="10.00">_heap_array.h</text>
</a>
</g>
</g>
<!-- Node0&#45;&gt;Node7 -->
<g id="edge7" class="edge">
<title>Node0&#45;&gt;Node7</title>
<path fill="none" stroke="midnightblue" d="M723.96,-155.38C811.84,-144.84 949.83,-126.68 1078.21,-102.13"/>
<polygon fill="midnightblue" stroke="midnightblue" points="1079.07,-105.53 1088.23,-100.2 1077.75,-98.66 1079.07,-105.53"/>
</g>
<!-- Node8 -->
<g id="node9" class="node">
<title>Node8</title>
<g id="a_node9"><a xlink:title=" ">
<polygon fill="white" stroke="#bfbfbf" points="1214.94,-69.5 1214.94,-101.5 1315.96,-101.5 1315.96,-69.5 1214.94,-69.5"/>
<text text-anchor="start" x="1222.94" y="-88.5" font-family="Helvetica,sans-Serif" font-size="10.00">halco/hicann&#45;dls/vx</text>
<text text-anchor="middle" x="1265.45" y="-76.5" font-family="Helvetica,sans-Serif" font-size="10.00">/capmem.h</text>
</a>
</g>
</g>
<!-- Node0&#45;&gt;Node8 -->
<g id="edge8" class="edge">
<title>Node0&#45;&gt;Node8</title>
<path fill="none" stroke="midnightblue" d="M724.04,-159.49C834.86,-151.18 1029.33,-133.68 1204.89,-101.93"/>
<polygon fill="midnightblue" stroke="midnightblue" points="1205.61,-105.36 1214.82,-100.12 1204.35,-98.47 1205.61,-105.36"/>
</g>
<!-- Node9 -->
<g id="node10" class="node">
<title>Node9</title>
<g id="a_node10"><a xlink:href="cerealization_8h.html" target="_top" xlink:title=" ">
<polygon fill="white" stroke="black" points="227.77,-75.5 227.77,-95.5 337.12,-95.5 337.12,-75.5 227.77,-75.5"/>
<text text-anchor="middle" x="282.45" y="-82.5" font-family="Helvetica,sans-Serif" font-size="10.00">haldls/cerealization.h</text>
</a>
</g>
</g>
<!-- Node0&#45;&gt;Node9 -->
<g id="edge9" class="edge">
<title>Node0&#45;&gt;Node9</title>
<path fill="none" stroke="midnightblue" d="M545.17,-145.46C477.87,-130.36 388.01,-110.19 332.74,-97.79"/>
<polygon fill="midnightblue" stroke="midnightblue" points="333.36,-94.34 322.84,-95.56 331.83,-101.17 333.36,-94.34"/>
</g>
<!-- Node11 -->
<g id="node12" class="node">
<title>Node11</title>
<g id="a_node12"><a xlink:title=" ">
<polygon fill="white" stroke="#bfbfbf" points="241.94,-6.5 241.94,-26.5 322.95,-26.5 322.95,-6.5 241.94,-6.5"/>
<text text-anchor="middle" x="282.45" y="-13.5" font-family="Helvetica,sans-Serif" font-size="10.00">hate/visibility.h</text>
</a>
</g>
</g>
<!-- Node0&#45;&gt;Node11 -->
<g id="edge28" class="edge">
<title>Node0&#45;&gt;Node11</title>
<path fill="none" stroke="midnightblue" d="M553.13,-138.35C522.83,-127.7 488.31,-114.94 457.45,-102 403.64,-79.43 342.68,-48.8 308.77,-31.29"/>
<polygon fill="midnightblue" stroke="midnightblue" points="310.05,-28.01 299.56,-26.51 306.82,-34.22 310.05,-28.01"/>
</g>
<!-- Node13 -->
<g id="node14" class="node">
<title>Node13</title>
<g id="a_node14"><a xlink:href="common_8h.html" target="_top" xlink:title=" ">
<polygon fill="white" stroke="black" points="466.27,-75.5 466.27,-95.5 570.62,-95.5 570.62,-75.5 466.27,-75.5"/>
<text text-anchor="middle" x="518.45" y="-82.5" font-family="Helvetica,sans-Serif" font-size="10.00">haldls/vx/common.h</text>
</a>
</g>
</g>
<!-- Node0&#45;&gt;Node13 -->
<g id="edge15" class="edge">
<title>Node0&#45;&gt;Node13</title>
<path fill="none" stroke="midnightblue" d="M594.53,-138.31C576.23,-125.85 555.26,-111.57 539.98,-101.17"/>
<polygon fill="midnightblue" stroke="midnightblue" points="541.94,-98.26 531.7,-95.53 538,-104.05 541.94,-98.26"/>
</g>
<!-- Node17 -->
<g id="node18" class="node">
<title>Node17</title>
<g id="a_node18"><a xlink:href="genpybind_8h.html" target="_top" xlink:title=" ">
<polygon fill="white" stroke="black" points="719.38,-6.5 719.38,-26.5 831.52,-26.5 831.52,-6.5 719.38,-6.5"/>
<text text-anchor="middle" x="775.45" y="-13.5" font-family="Helvetica,sans-Serif" font-size="10.00">haldls/vx/genpybind.h</text>
</a>
</g>
</g>
<!-- Node0&#45;&gt;Node17 -->
<g id="edge19" class="edge">
<title>Node0&#45;&gt;Node17</title>
<path fill="none" stroke="midnightblue" d="M619.65,-138.49C610.44,-117.66 602.86,-89.1 617.45,-69 624.36,-59.48 686.64,-41.17 730.91,-29.15"/>
<polygon fill="midnightblue" stroke="midnightblue" points="731.86,-32.52 740.61,-26.54 730.04,-25.76 731.86,-32.52"/>
</g>
<!-- Node18 -->
<g id="node19" class="node">
<title>Node18</title>
<g id="a_node19"><a xlink:href="traits_8h.html" target="_top" xlink:title=" ">
<polygon fill="white" stroke="black" points="626.61,-75.5 626.61,-95.5 714.29,-95.5 714.29,-75.5 626.61,-75.5"/>
<text text-anchor="middle" x="670.45" y="-82.5" font-family="Helvetica,sans-Serif" font-size="10.00">haldls/vx/traits.h</text>
</a>
</g>
</g>
<!-- Node0&#45;&gt;Node18 -->
<g id="edge21" class="edge">
<title>Node0&#45;&gt;Node18</title>
<path fill="none" stroke="midnightblue" d="M646.84,-138.31C651.85,-127.31 657.5,-114.9 662.02,-104.98"/>
<polygon fill="midnightblue" stroke="midnightblue" points="665.29,-106.27 666.25,-95.71 658.92,-103.36 665.29,-106.27"/>
</g>
<!-- Node22 -->
<g id="node23" class="node">
<title>Node22</title>
<g id="a_node23"><a xlink:title=" ">
<polygon fill="white" stroke="#bfbfbf" points="1333.83,-75.5 1333.83,-95.5 1437.07,-95.5 1437.07,-75.5 1333.83,-75.5"/>
<text text-anchor="middle" x="1385.45" y="-82.5" font-family="Helvetica,sans-Serif" font-size="10.00">hxcomm/vx/target.h</text>
</a>
</g>
</g>
<!-- Node0&#45;&gt;Node22 -->
<g id="edge29" class="edge">
<title>Node0&#45;&gt;Node22</title>
<path fill="none" stroke="midnightblue" d="M723.68,-161.9C855.92,-155.53 1111.36,-139.24 1325.45,-102 1331.71,-100.91 1338.27,-99.5 1344.67,-97.97"/>
<polygon fill="midnightblue" stroke="midnightblue" points="1345.66,-101.33 1354.51,-95.51 1343.96,-94.54 1345.66,-101.33"/>
</g>
<!-- Node9&#45;&gt;Node2 -->
<g id="edge12" class="edge">
<title>Node9&#45;&gt;Node2</title>
<path fill="none" stroke="midnightblue" d="M227.57,-75.75C180.76,-67.43 112.09,-53.17 54.45,-33 52.57,-32.34 50.65,-31.6 48.75,-30.82"/>
<polygon fill="midnightblue" stroke="midnightblue" points="49.97,-27.53 39.41,-26.61 47.09,-33.91 49.97,-27.53"/>
</g>
<!-- Node9&#45;&gt;Node3 -->
<g id="edge13" class="edge">
<title>Node9&#45;&gt;Node3</title>
<path fill="none" stroke="midnightblue" d="M247.54,-75.45C213.55,-66.23 160.68,-50.78 116.45,-33 114.84,-32.35 113.19,-31.65 111.55,-30.92"/>
<polygon fill="midnightblue" stroke="midnightblue" points="112.81,-27.65 102.27,-26.54 109.82,-33.98 112.81,-27.65"/>
</g>
<!-- Node10 -->
<g id="node11" class="node">
<title>Node10</title>
<g id="a_node11"><a xlink:title=" ">
<polygon fill="white" stroke="#bfbfbf" points="481.82,-6.5 481.82,-26.5 565.07,-26.5 565.07,-6.5 481.82,-6.5"/>
<text text-anchor="middle" x="523.45" y="-13.5" font-family="Helvetica,sans-Serif" font-size="10.00">hate/type_list.h</text>
</a>
</g>
</g>
<!-- Node9&#45;&gt;Node10 -->
<g id="edge10" class="edge">
<title>Node9&#45;&gt;Node10</title>
<path fill="none" stroke="midnightblue" d="M317.41,-75.49C355.79,-65.5 419.18,-48.72 473.45,-33 477.27,-31.89 481.24,-30.71 485.2,-29.51"/>
<polygon fill="midnightblue" stroke="midnightblue" points="486.41,-32.81 494.95,-26.54 484.36,-26.11 486.41,-32.81"/>
</g>
<!-- Node9&#45;&gt;Node11 -->
<g id="edge11" class="edge">
<title>Node9&#45;&gt;Node11</title>
<path fill="none" stroke="midnightblue" d="M282.45,-75.46C282.45,-65.63 282.45,-49.61 282.45,-36.9"/>
<polygon fill="midnightblue" stroke="midnightblue" points="285.95,-36.82 282.45,-26.82 278.95,-36.82 285.95,-36.82"/>
</g>
<!-- Node12 -->
<g id="node13" class="node">
<title>Node12</title>
<g id="a_node13"><a xlink:title=" ">
<polygon fill="white" stroke="#bfbfbf" points="125.33,-6.5 125.33,-26.5 223.57,-26.5 223.57,-6.5 125.33,-6.5"/>
<text text-anchor="middle" x="174.45" y="-13.5" font-family="Helvetica,sans-Serif" font-size="10.00">cereal/macros.hpp</text>
</a>
</g>
</g>
<!-- Node9&#45;&gt;Node12 -->
<g id="edge14" class="edge">
<title>Node9&#45;&gt;Node12</title>
<path fill="none" stroke="midnightblue" d="M267.88,-75.46C249.93,-64.33 219.18,-45.25 197.89,-32.04"/>
<polygon fill="midnightblue" stroke="midnightblue" points="199.47,-28.9 189.13,-26.61 195.78,-34.85 199.47,-28.9"/>
</g>
<!-- Node14 -->
<g id="node15" class="node">
<title>Node14</title>
<g id="a_node15"><a xlink:title=" ">
<polygon fill="white" stroke="#bfbfbf" points="639.39,-6.5 639.39,-26.5 701.51,-26.5 701.51,-6.5 639.39,-6.5"/>
<text text-anchor="middle" x="670.45" y="-13.5" font-family="Helvetica,sans-Serif" font-size="10.00">type_traits</text>
</a>
</g>
</g>
<!-- Node13&#45;&gt;Node14 -->
<g id="edge16" class="edge">
<title>Node13&#45;&gt;Node14</title>
<path fill="none" stroke="midnightblue" d="M538.95,-75.46C565.12,-63.93 610.62,-43.87 640.63,-30.64"/>
<polygon fill="midnightblue" stroke="midnightblue" points="642.05,-33.84 649.79,-26.61 639.23,-27.44 642.05,-33.84"/>
</g>
<!-- Node15 -->
<g id="node16" class="node">
<title>Node15</title>
<g id="a_node16"><a xlink:title=" ">
<polygon fill="white" stroke="#bfbfbf" points="583.06,-6.5 583.06,-26.5 621.83,-26.5 621.83,-6.5 583.06,-6.5"/>
<text text-anchor="middle" x="602.45" y="-13.5" font-family="Helvetica,sans-Serif" font-size="10.00">utility</text>
</a>
</g>
</g>
<!-- Node13&#45;&gt;Node15 -->
<g id="edge17" class="edge">
<title>Node13&#45;&gt;Node15</title>
<path fill="none" stroke="midnightblue" d="M529.78,-75.46C543.43,-64.57 566.59,-46.1 583.09,-32.94"/>
<polygon fill="midnightblue" stroke="midnightblue" points="585.39,-35.58 591.03,-26.61 581.03,-30.11 585.39,-35.58"/>
</g>
<!-- Node16 -->
<g id="node17" class="node">
<title>Node16</title>
<g id="a_node17"><a xlink:title=" ">
<polygon fill="white" stroke="#bfbfbf" points="340.82,-6.5 340.82,-26.5 464.07,-26.5 464.07,-6.5 340.82,-6.5"/>
<text text-anchor="middle" x="402.45" y="-13.5" font-family="Helvetica,sans-Serif" font-size="10.00">fisch/vx/omnibus_data.h</text>
</a>
</g>
</g>
<!-- Node13&#45;&gt;Node16 -->
<g id="edge18" class="edge">
<title>Node13&#45;&gt;Node16</title>
<path fill="none" stroke="midnightblue" d="M502.8,-75.46C483.34,-64.23 449.9,-44.91 427.01,-31.69"/>
<polygon fill="midnightblue" stroke="midnightblue" points="428.62,-28.58 418.21,-26.61 425.12,-34.64 428.62,-28.58"/>
</g>
<!-- Node17&#45;&gt;Node17 -->
<g id="edge20" class="edge">
<title>Node17&#45;&gt;Node17</title>
<path fill="none" stroke="midnightblue" d="M799.34,-26.54C823.17,-32.26 849.52,-28.92 849.52,-16.5 849.52,-5.78 829.88,-1.82 809.18,-4.62"/>
<polygon fill="midnightblue" stroke="midnightblue" points="808.53,-1.18 799.34,-6.46 809.82,-8.06 808.53,-1.18"/>
</g>
<!-- Node18&#45;&gt;Node10 -->
<g id="edge25" class="edge">
<title>Node18&#45;&gt;Node10</title>
<path fill="none" stroke="midnightblue" d="M650.62,-75.46C625.42,-63.98 581.69,-44.05 552.66,-30.82"/>
<polygon fill="midnightblue" stroke="midnightblue" points="553.98,-27.57 543.43,-26.61 551.08,-33.94 553.98,-27.57"/>
</g>
<!-- Node18&#45;&gt;Node14 -->
<g id="edge22" class="edge">
<title>Node18&#45;&gt;Node14</title>
<path fill="none" stroke="midnightblue" d="M670.45,-75.46C670.45,-65.63 670.45,-49.61 670.45,-36.9"/>
<polygon fill="midnightblue" stroke="midnightblue" points="673.95,-36.82 670.45,-26.82 666.95,-36.82 673.95,-36.82"/>
</g>
<!-- Node18&#45;&gt;Node17 -->
<g id="edge24" class="edge">
<title>Node18&#45;&gt;Node17</title>
<path fill="none" stroke="midnightblue" d="M684.61,-75.46C702.06,-64.33 731.96,-45.25 752.66,-32.04"/>
<polygon fill="midnightblue" stroke="midnightblue" points="754.63,-34.94 761.18,-26.61 750.86,-29.04 754.63,-34.94"/>
</g>
<!-- Node19 -->
<g id="node20" class="node">
<title>Node19</title>
<g id="a_node20"><a xlink:title=" ">
<polygon fill="white" stroke="#bfbfbf" points="867.83,-0.5 867.83,-32.5 961.07,-32.5 961.07,-0.5 867.83,-0.5"/>
<text text-anchor="start" x="875.83" y="-19.5" font-family="Helvetica,sans-Serif" font-size="10.00">fisch/vx/container</text>
<text text-anchor="middle" x="914.45" y="-7.5" font-family="Helvetica,sans-Serif" font-size="10.00">_fwd.h</text>
</a>
</g>
</g>
<!-- Node18&#45;&gt;Node19 -->
<g id="edge23" class="edge">
<title>Node18&#45;&gt;Node19</title>
<path fill="none" stroke="midnightblue" d="M700.96,-75.44C708.31,-73.3 716.15,-71.04 723.45,-69 780.33,-53.1 796.93,-49.61 857.95,-33.12"/>
<polygon fill="midnightblue" stroke="midnightblue" points="858.97,-36.47 867.71,-30.47 857.14,-29.71 858.97,-36.47"/>
</g>
<!-- Node20 -->
<g id="node21" class="node">
<title>Node20</title>
<g id="a_node21"><a xlink:title=" ">
<polygon fill="white" stroke="#bfbfbf" points="979.05,-0.5 979.05,-32.5 1077.85,-32.5 1077.85,-0.5 979.05,-0.5"/>
<text text-anchor="start" x="987.05" y="-19.5" font-family="Helvetica,sans-Serif" font-size="10.00">boost/utility/enable</text>
<text text-anchor="middle" x="1028.45" y="-7.5" font-family="Helvetica,sans-Serif" font-size="10.00">_if.hpp</text>
</a>
</g>
</g>
<!-- Node18&#45;&gt;Node20 -->
<g id="edge26" class="edge">
<title>Node18&#45;&gt;Node20</title>
<path fill="none" stroke="midnightblue" d="M698.59,-75.48C706.57,-73.14 715.3,-70.78 723.45,-69 828.66,-46.06 859.96,-54.8 968.79,-33.2"/>
<polygon fill="midnightblue" stroke="midnightblue" points="969.76,-36.57 978.86,-31.16 968.37,-29.71 969.76,-36.57"/>
</g>
<!-- Node21 -->
<g id="node22" class="node">
<title>Node21</title>
<g id="a_node22"><a xlink:title=" ">
<polygon fill="white" stroke="#bfbfbf" points="1095.49,-6.5 1095.49,-26.5 1205.4,-26.5 1205.4,-6.5 1095.49,-6.5"/>
<text text-anchor="middle" x="1150.45" y="-13.5" font-family="Helvetica,sans-Serif" font-size="10.00">fisch/vx/container.def</text>
</a>
</g>
</g>
<!-- Node18&#45;&gt;Node21 -->
<g id="edge27" class="edge">
<title>Node18&#45;&gt;Node21</title>
<path fill="none" stroke="midnightblue" d="M697.72,-75.47C705.91,-73.05 714.98,-70.64 723.45,-69 882.6,-38.11 926.61,-60.15 1086.45,-33 1093.19,-31.86 1100.27,-30.4 1107.17,-28.84"/>
<polygon fill="midnightblue" stroke="midnightblue" points="1108.15,-32.21 1117.08,-26.51 1106.55,-25.39 1108.15,-32.21"/>
</g>
</g>
</svg>
        <g id="navigator" transform="translate(0 0)" fill="#404254">
                <rect fill="#f2f5e9" fill-opacity="0.5" stroke="#606060" stroke-width=".5" x="0" y="0" width="60" height="60"/>
                <use id="zoomplus" xlink:href="#zoomPlus" x="17" y="9" onmousedown="handleZoom(evt,'in')"/>
                <use id="zoomminus" xlink:href="#zoomMin" x="42" y="9" onmousedown="handleZoom(evt,'out')"/>
                <use id="reset" xlink:href="#resetDef" x="30" y="36" onmousedown="handleReset()"/>
                <g id="arrowUp" xlink:href="#dirArrow" transform="translate(30 24)" onmousedown="handlePan(0,-1)">
                  <use xlink:href="#rim" fill="#404040">
                        <set attributeName="fill" to="#808080" begin="arrowUp.mouseover" end="arrowUp.mouseout"/>
                  </use>
                  <path fill="none" stroke="white" stroke-width="1.5" d="M0,-3.0v7 M-2.5,-0.5L0,-3.0L2.5,-0.5"/>
                </g>
                <g id="arrowRight" xlink:href="#dirArrow" transform="rotate(90) translate(36 -43)" onmousedown="handlePan(1,0)">
                  <use xlink:href="#rim" fill="#404040">
                        <set attributeName="fill" to="#808080" begin="arrowRight.mouseover" end="arrowRight.mouseout"/>
                  </use>
                  <path fill="none" stroke="white" stroke-width="1.5" d="M0,-3.0v7 M-2.5,-0.5L0,-3.0L2.5,-0.5"/>
                </g>
                <g id="arrowDown" xlink:href="#dirArrow" transform="rotate(180) translate(-30 -48)" onmousedown="handlePan(0,1)">
                  <use xlink:href="#rim" fill="#404040">
                        <set attributeName="fill" to="#808080" begin="arrowDown.mouseover" end="arrowDown.mouseout"/>
                  </use>
                  <path fill="none" stroke="white" stroke-width="1.5" d="M0,-3.0v7 M-2.5,-0.5L0,-3.0L2.5,-0.5"/>
                </g>
                <g id="arrowLeft" xlink:href="#dirArrow" transform="rotate(270) translate(-36 17)" onmousedown="handlePan(-1,0)">
                  <use xlink:href="#rim" fill="#404040">
                        <set attributeName="fill" to="#808080" begin="arrowLeft.mouseover" end="arrowLeft.mouseout"/>
                  </use>
                  <path fill="none" stroke="white" stroke-width="1.5" d="M0,-3.0v7 M-2.5,-0.5L0,-3.0L2.5,-0.5"/>
                </g>
        </g>
        <svg viewBox="0 0 15 15" width="100%" height="30px" preserveAspectRatio="xMaxYMin meet">
         <g id="arrow_out" transform="scale(0.3 0.3)">
          <a xlink:href="capmem_8h__incl_org.svg" target="_base">
           <rect id="button" ry="5" rx="5" y="6" x="6" height="38" width="38"
                fill="#f2f5e9" fill-opacity="0.5" stroke="#606060" stroke-width="1.0"/>
           <path id="arrow"
             d="M 11.500037,31.436501 C 11.940474,20.09759 22.043105,11.32322 32.158766,21.979434 L 37.068811,17.246167 C 37.068811,17.246167 37.088388,32 37.088388,32 L 22.160133,31.978069 C 22.160133,31.978069 26.997745,27.140456 26.997745,27.140456 C 18.528582,18.264221 13.291696,25.230495 11.500037,31.436501 z"
             style="fill:#404040;"/>
          </a>
         </g>
        </svg>
</svg>
