<?xml version="1.0" encoding="UTF-8" standalone="no"?>
<!DOCTYPE svg PUBLIC "-//W3C//DTD SVG 1.1//EN"
 "http://www.w3.org/Graphics/SVG/1.1/DTD/svg11.dtd">
<!-- Generated by graphviz version 2.43.0 (0)
 -->
<!-- Title: /jenkins/jenlib_workspaces_f9/bld_nightly&#45;haldls.YmxkX25pZ2h0bHktaGFsZGxzIzU5Nw.x/haldls/include/haldls/cerealization.h Pages: 1 -->
<svg width="841pt" height="134pt"
 viewBox="0.00 0.00 841.28 134.00" xmlns="http://www.w3.org/2000/svg" xmlns:xlink="http://www.w3.org/1999/xlink">
<g id="graph0" class="graph" transform="scale(1 1) rotate(0) translate(4 130)">
<title>/jenkins/jenlib_workspaces_f9/bld_nightly&#45;haldls.YmxkX25pZ2h0bHktaGFsZGxzIzU5Nw.x/haldls/include/haldls/cerealization.h</title>
<polygon fill="white" stroke="transparent" points="-4,4 -4,-130 837.28,-130 837.28,4 -4,4"/>
<!-- Node0 -->
<g id="node1" class="node">
<title>Node0</title>
<g id="a_node1"><a xlink:title=" ">
<polygon fill="#bfbfbf" stroke="black" points="333.1,-69.5 333.1,-125.5 512.45,-125.5 512.45,-69.5 333.1,-69.5"/>
<text text-anchor="start" x="341.1" y="-112.5" font-family="Helvetica,sans-Serif" font-size="10.00">/jenkins/jenlib_workspaces</text>
<text text-anchor="start" x="341.1" y="-100.5" font-family="Helvetica,sans-Serif" font-size="10.00">_f9/bld_nightly&#45;haldls.YmxkX25p</text>
<text text-anchor="start" x="341.1" y="-88.5" font-family="Helvetica,sans-Serif" font-size="10.00">Z2h0bHktaGFsZGxzIzU5Nw.x/haldls</text>
<text text-anchor="middle" x="422.78" y="-76.5" font-family="Helvetica,sans-Serif" font-size="10.00">/include/haldls/cerealization.h</text>
</a>
</g>
</g>
<!-- Node1 -->
<g id="node2" class="node">
<title>Node1</title>
<g id="a_node2"><a xlink:title=" ">
<polygon fill="white" stroke="#bfbfbf" points="0,-6.5 0,-26.5 51.55,-26.5 51.55,-6.5 0,-6.5"/>
<text text-anchor="middle" x="25.78" y="-13.5" font-family="Helvetica,sans-Serif" font-size="10.00">sstream</text>
</a>
</g>
</g>
<!-- Node0&#45;&gt;Node1 -->
<g id="edge1" class="edge">
<title>Node0&#45;&gt;Node1</title>
<path fill="none" stroke="midnightblue" d="M332.84,-86.9C258.72,-77.52 151.43,-60.57 60.78,-33 58.33,-32.26 55.83,-31.38 53.34,-30.44"/>
<polygon fill="midnightblue" stroke="midnightblue" points="54.56,-27.16 43.98,-26.57 51.88,-33.63 54.56,-27.16"/>
</g>
<!-- Node2 -->
<g id="node3" class="node">
<title>Node2</title>
<g id="a_node3"><a xlink:title=" ">
<polygon fill="white" stroke="#bfbfbf" points="69.43,-6.5 69.43,-26.5 202.12,-26.5 202.12,-6.5 69.43,-6.5"/>
<text text-anchor="middle" x="135.78" y="-13.5" font-family="Helvetica,sans-Serif" font-size="10.00">cereal/archives/binary.hpp</text>
</a>
</g>
</g>
<!-- Node0&#45;&gt;Node2 -->
<g id="edge2" class="edge">
<title>Node0&#45;&gt;Node2</title>
<path fill="none" stroke="midnightblue" d="M332.76,-71.72C281.23,-57.54 218.97,-40.4 178.43,-29.24"/>
<polygon fill="midnightblue" stroke="midnightblue" points="179.18,-25.82 168.61,-26.54 177.32,-32.57 179.18,-25.82"/>
</g>
<!-- Node3 -->
<g id="node4" class="node">
<title>Node3</title>
<g id="a_node4"><a xlink:title=" ">
<polygon fill="white" stroke="#bfbfbf" points="219.88,-6.5 219.88,-26.5 343.68,-26.5 343.68,-6.5 219.88,-6.5"/>
<text text-anchor="middle" x="281.78" y="-13.5" font-family="Helvetica,sans-Serif" font-size="10.00">cereal/archives/json.hpp</text>
</a>
</g>
</g>
<!-- Node0&#45;&gt;Node3 -->
<g id="edge3" class="edge">
<title>Node0&#45;&gt;Node3</title>
<path fill="none" stroke="midnightblue" d="M374.25,-69.31C351.49,-56.56 325.34,-41.9 306.66,-31.44"/>
<polygon fill="midnightblue" stroke="midnightblue" points="308.32,-28.36 297.89,-26.53 304.9,-34.47 308.32,-28.36"/>
</g>
<!-- Node4 -->
<g id="node5" class="node">
<title>Node4</title>
<g id="a_node5"><a xlink:title=" ">
<polygon fill="white" stroke="#bfbfbf" points="361.71,-0.5 361.71,-32.5 483.84,-32.5 483.84,-0.5 361.71,-0.5"/>
<text text-anchor="start" x="369.71" y="-19.5" font-family="Helvetica,sans-Serif" font-size="10.00">cereal/archives/portable</text>
<text text-anchor="middle" x="422.78" y="-7.5" font-family="Helvetica,sans-Serif" font-size="10.00">_binary.hpp</text>
</a>
</g>
</g>
<!-- Node0&#45;&gt;Node4 -->
<g id="edge4" class="edge">
<title>Node0&#45;&gt;Node4</title>
<path fill="none" stroke="midnightblue" d="M422.78,-69.31C422.78,-60.65 422.78,-51.11 422.78,-42.6"/>
<polygon fill="midnightblue" stroke="midnightblue" points="426.28,-42.52 422.78,-32.52 419.28,-42.52 426.28,-42.52"/>
</g>
<!-- Node5 -->
<g id="node6" class="node">
<title>Node5</title>
<g id="a_node6"><a xlink:title=" ">
<polygon fill="white" stroke="#bfbfbf" points="502.27,-6.5 502.27,-26.5 623.28,-26.5 623.28,-6.5 502.27,-6.5"/>
<text text-anchor="middle" x="562.78" y="-13.5" font-family="Helvetica,sans-Serif" font-size="10.00">cereal/archives/xml.hpp</text>
</a>
</g>
</g>
<!-- Node0&#45;&gt;Node5 -->
<g id="edge5" class="edge">
<title>Node0&#45;&gt;Node5</title>
<path fill="none" stroke="midnightblue" d="M470.96,-69.31C493.56,-56.56 519.53,-41.9 538.07,-31.44"/>
<polygon fill="midnightblue" stroke="midnightblue" points="539.79,-34.49 546.78,-26.53 536.35,-28.39 539.79,-34.49"/>
</g>
<!-- Node6 -->
<g id="node7" class="node">
<title>Node6</title>
<g id="a_node7"><a xlink:title=" ">
<polygon fill="white" stroke="#bfbfbf" points="641.43,-6.5 641.43,-26.5 734.12,-26.5 734.12,-6.5 641.43,-6.5"/>
<text text-anchor="middle" x="687.78" y="-13.5" font-family="Helvetica,sans-Serif" font-size="10.00">cereal/cereal.hpp</text>
</a>
</g>
</g>
<!-- Node0&#45;&gt;Node6 -->
<g id="edge6" class="edge">
<title>Node0&#45;&gt;Node6</title>
<path fill="none" stroke="midnightblue" d="M512.49,-69.75C558.28,-56.11 611.69,-40.18 647.41,-29.53"/>
<polygon fill="midnightblue" stroke="midnightblue" points="648.87,-32.75 657.45,-26.54 646.87,-26.04 648.87,-32.75"/>
</g>
<!-- Node7 -->
<g id="node8" class="node">
<title>Node7</title>
<g id="a_node8"><a xlink:title=" ">
<polygon fill="white" stroke="#bfbfbf" points="752.27,-6.5 752.27,-26.5 833.28,-26.5 833.28,-6.5 752.27,-6.5"/>
<text text-anchor="middle" x="792.78" y="-13.5" font-family="Helvetica,sans-Serif" font-size="10.00">hate/visibility.h</text>
</a>
</g>
</g>
<!-- Node0&#45;&gt;Node7 -->
<g id="edge7" class="edge">
<title>Node0&#45;&gt;Node7</title>
<path fill="none" stroke="midnightblue" d="M512.65,-81.26C577.1,-69.71 665.78,-52.52 742.78,-33 746.94,-31.94 751.27,-30.75 755.56,-29.51"/>
<polygon fill="midnightblue" stroke="midnightblue" points="756.84,-32.78 765.42,-26.55 754.83,-26.07 756.84,-32.78"/>
</g>
</g>
</svg>
