<?xml version="1.0" encoding="UTF-8" standalone="no"?>
<!DOCTYPE svg PUBLIC "-//W3C//DTD SVG 1.1//EN"
 "http://www.w3.org/Graphics/SVG/1.1/DTD/svg11.dtd">
<!-- Generated by graphviz version 2.43.0 (0)
 -->
<!-- Title: haldls::v2::AcausalCorrelationBlock Pages: 1 -->
<svg width="156pt" height="122pt"
 viewBox="0.00 0.00 156.24 122.00" xmlns="http://www.w3.org/2000/svg" xmlns:xlink="http://www.w3.org/1999/xlink">
<g id="graph0" class="graph" transform="scale(1 1) rotate(0) translate(4 118)">
<title>haldls::v2::AcausalCorrelationBlock</title>
<polygon fill="white" stroke="transparent" points="-4,4 -4,-118 152.24,-118 152.24,4 -4,4"/>
<!-- Node2 -->
<g id="node1" class="node">
<title>Node2</title>
<g id="a_node1"><a xlink:title="Container representing a block of acausal correlation values (read only).">
<polygon fill="#bfbfbf" stroke="black" points="0,-0.5 0,-32.5 148.24,-32.5 148.24,-0.5 0,-0.5"/>
<text text-anchor="start" x="8" y="-19.5" font-family="Helvetica,sans-Serif" font-size="10.00">haldls::v2::AcausalCorrelation</text>
<text text-anchor="middle" x="74.12" y="-7.5" font-family="Helvetica,sans-Serif" font-size="10.00">Block</text>
</a>
</g>
</g>
<!-- Node3 -->
<g id="node2" class="node">
<title>Node3</title>
<g id="a_node2"><a xlink:href="classhaldls_1_1v2_1_1detail_1_1CorrelationBlockBase.html" target="_top" xlink:title="Base class for a&#45;/causal correlation block Causal and acausal correlation identical besides address s...">
<polygon fill="white" stroke="black" points="3.05,-69.5 3.05,-113.5 145.19,-113.5 145.19,-69.5 3.05,-69.5"/>
<text text-anchor="start" x="11.05" y="-100.5" font-family="Helvetica,sans-Serif" font-size="10.00">haldls::v2::detail</text>
<text text-anchor="start" x="11.05" y="-88.5" font-family="Helvetica,sans-Serif" font-size="10.00">::CorrelationBlockBase</text>
<text text-anchor="middle" x="74.12" y="-76.5" font-family="Helvetica,sans-Serif" font-size="10.00">&lt; AcausalCorrelationBlock &gt;</text>
</a>
</g>
</g>
<!-- Node3&#45;&gt;Node2 -->
<g id="edge1" class="edge">
<title>Node3&#45;&gt;Node2</title>
<path fill="none" stroke="midnightblue" d="M74.12,-59.26C74.12,-50 74.12,-40.27 74.12,-32.54"/>
<polygon fill="midnightblue" stroke="midnightblue" points="70.62,-59.39 74.12,-69.39 77.62,-59.39 70.62,-59.39"/>
</g>
</g>
</svg>
