<?xml version="1.0" encoding="UTF-8" standalone="no"?>
<!DOCTYPE svg PUBLIC "-//W3C//DTD SVG 1.1//EN"
 "http://www.w3.org/Graphics/SVG/1.1/DTD/svg11.dtd">
<!-- Generated by graphviz version 2.43.0 (0)
 -->
<!-- Title: /jenkins/jenlib_workspaces_f9/bld_nightly&#45;haldls.YmxkX25pZ2h0bHktaGFsZGxzIzcxMQ.x/haldls/include/haldls/vx/common.h Pages: 1 -->
<svg width="268pt" height="122pt"
 viewBox="0.00 0.00 267.69 122.00" xmlns="http://www.w3.org/2000/svg" xmlns:xlink="http://www.w3.org/1999/xlink">
<g id="graph0" class="graph" transform="scale(1 1) rotate(0) translate(4 118)">
<title>/jenkins/jenlib_workspaces_f9/bld_nightly&#45;haldls.YmxkX25pZ2h0bHktaGFsZGxzIzcxMQ.x/haldls/include/haldls/vx/common.h</title>
<polygon fill="white" stroke="transparent" points="-4,4 -4,-118 263.69,-118 263.69,4 -4,4"/>
<!-- Node0 -->
<g id="node1" class="node">
<title>Node0</title>
<g id="a_node1"><a xlink:title=" ">
<polygon fill="#bfbfbf" stroke="black" points="9.94,-57.5 9.94,-113.5 188.18,-113.5 188.18,-57.5 9.94,-57.5"/>
<text text-anchor="start" x="17.94" y="-100.5" font-family="Helvetica,sans-Serif" font-size="10.00">/jenkins/jenlib_workspaces</text>
<text text-anchor="start" x="17.94" y="-88.5" font-family="Helvetica,sans-Serif" font-size="10.00">_f9/bld_nightly&#45;haldls.YmxkX25p</text>
<text text-anchor="start" x="17.94" y="-76.5" font-family="Helvetica,sans-Serif" font-size="10.00">Z2h0bHktaGFsZGxzIzcxMQ.x/haldls</text>
<text text-anchor="middle" x="99.06" y="-64.5" font-family="Helvetica,sans-Serif" font-size="10.00">/include/haldls/vx/common.h</text>
</a>
</g>
</g>
<!-- Node1 -->
<g id="node2" class="node">
<title>Node1</title>
<g id="a_node2"><a xlink:title=" ">
<polygon fill="white" stroke="#bfbfbf" points="0,-0.5 0,-20.5 62.12,-20.5 62.12,-0.5 0,-0.5"/>
<text text-anchor="middle" x="31.06" y="-7.5" font-family="Helvetica,sans-Serif" font-size="10.00">type_traits</text>
</a>
</g>
</g>
<!-- Node0&#45;&gt;Node1 -->
<g id="edge1" class="edge">
<title>Node0&#45;&gt;Node1</title>
<path fill="none" stroke="midnightblue" d="M73.74,-57.32C64.58,-47.49 54.53,-36.69 46.48,-28.05"/>
<polygon fill="midnightblue" stroke="midnightblue" points="48.84,-25.46 39.47,-20.52 43.72,-30.23 48.84,-25.46"/>
</g>
<!-- Node2 -->
<g id="node3" class="node">
<title>Node2</title>
<g id="a_node3"><a xlink:title=" ">
<polygon fill="white" stroke="#bfbfbf" points="79.67,-0.5 79.67,-20.5 118.45,-20.5 118.45,-0.5 79.67,-0.5"/>
<text text-anchor="middle" x="99.06" y="-7.5" font-family="Helvetica,sans-Serif" font-size="10.00">utility</text>
</a>
</g>
</g>
<!-- Node0&#45;&gt;Node2 -->
<g id="edge2" class="edge">
<title>Node0&#45;&gt;Node2</title>
<path fill="none" stroke="midnightblue" d="M99.06,-57.32C99.06,-48.5 99.06,-38.91 99.06,-30.79"/>
<polygon fill="midnightblue" stroke="midnightblue" points="102.56,-30.52 99.06,-20.52 95.56,-30.52 102.56,-30.52"/>
</g>
<!-- Node3 -->
<g id="node4" class="node">
<title>Node3</title>
<g id="a_node4"><a xlink:title=" ">
<polygon fill="white" stroke="#bfbfbf" points="136.43,-0.5 136.43,-20.5 259.69,-20.5 259.69,-0.5 136.43,-0.5"/>
<text text-anchor="middle" x="198.06" y="-7.5" font-family="Helvetica,sans-Serif" font-size="10.00">fisch/vx/omnibus_data.h</text>
</a>
</g>
</g>
<!-- Node0&#45;&gt;Node3 -->
<g id="edge3" class="edge">
<title>Node0&#45;&gt;Node3</title>
<path fill="none" stroke="midnightblue" d="M135.92,-57.32C150.08,-46.88 165.71,-35.35 177.76,-26.47"/>
<polygon fill="midnightblue" stroke="midnightblue" points="179.85,-29.28 185.82,-20.52 175.7,-23.64 179.85,-29.28"/>
</g>
</g>
</svg>
