<?xml version="1.0" encoding="UTF-8" standalone="no"?>
<!DOCTYPE svg PUBLIC "-//W3C//DTD SVG 1.1//EN"
 "http://www.w3.org/Graphics/SVG/1.1/DTD/svg11.dtd">
<!-- Generated by graphviz version 2.43.0 (0)
 -->
<!-- Title: /jenkins/jenlib_workspaces_f9/bld_nightly&#45;haldls.YmxkX25pZ2h0bHktaGFsZGxzIzQ5Nw.x/haldls/include/haldls/v2/dac.h Pages: 1 -->
<svg width="247pt" height="251pt"
 viewBox="0.00 0.00 246.91 251.00" xmlns="http://www.w3.org/2000/svg" xmlns:xlink="http://www.w3.org/1999/xlink">
<g id="graph0" class="graph" transform="scale(1 1) rotate(0) translate(4 247)">
<title>/jenkins/jenlib_workspaces_f9/bld_nightly&#45;haldls.YmxkX25pZ2h0bHktaGFsZGxzIzQ5Nw.x/haldls/include/haldls/v2/dac.h</title>
<polygon fill="white" stroke="transparent" points="-4,4 -4,-247 242.91,-247 242.91,4 -4,4"/>
<!-- Node10 -->
<g id="node1" class="node">
<title>Node10</title>
<g id="a_node1"><a xlink:title=" ">
<polygon fill="#bfbfbf" stroke="black" points="59,-186.5 59,-242.5 238.91,-242.5 238.91,-186.5 59,-186.5"/>
<text text-anchor="start" x="67" y="-229.5" font-family="Helvetica,sans-Serif" font-size="10.00">/jenkins/jenlib_workspaces</text>
<text text-anchor="start" x="67" y="-217.5" font-family="Helvetica,sans-Serif" font-size="10.00">_f9/bld_nightly&#45;haldls.YmxkX25p</text>
<text text-anchor="start" x="67" y="-205.5" font-family="Helvetica,sans-Serif" font-size="10.00">Z2h0bHktaGFsZGxzIzQ5Nw.x/haldls</text>
<text text-anchor="middle" x="148.95" y="-193.5" font-family="Helvetica,sans-Serif" font-size="10.00">/include/haldls/v2/dac.h</text>
</a>
</g>
</g>
<!-- Node11 -->
<g id="node2" class="node">
<title>Node11</title>
<g id="a_node2"><a xlink:href="board_8h.html" target="_top" xlink:title=" ">
<polygon fill="white" stroke="black" points="0,-93.5 0,-149.5 179.91,-149.5 179.91,-93.5 0,-93.5"/>
<text text-anchor="start" x="8" y="-136.5" font-family="Helvetica,sans-Serif" font-size="10.00">/jenkins/jenlib_workspaces</text>
<text text-anchor="start" x="8" y="-124.5" font-family="Helvetica,sans-Serif" font-size="10.00">_f9/bld_nightly&#45;haldls.YmxkX25p</text>
<text text-anchor="start" x="8" y="-112.5" font-family="Helvetica,sans-Serif" font-size="10.00">Z2h0bHktaGFsZGxzIzQ5Nw.x/haldls</text>
<text text-anchor="middle" x="89.95" y="-100.5" font-family="Helvetica,sans-Serif" font-size="10.00">/include/haldls/v2/board.h</text>
</a>
</g>
</g>
<!-- Node10&#45;&gt;Node11 -->
<g id="edge1" class="edge">
<title>Node10&#45;&gt;Node11</title>
<path fill="none" stroke="midnightblue" d="M125.65,-177.55C119.65,-168.31 113.3,-158.51 107.64,-149.78"/>
<polygon fill="midnightblue" stroke="midnightblue" points="122.87,-179.71 131.25,-186.2 128.75,-175.9 122.87,-179.71"/>
</g>
<!-- Node12 -->
<g id="node3" class="node">
<title>Node12</title>
<g id="a_node3"><a xlink:href="v2_2container_8h.html" target="_top" xlink:title=" ">
<polygon fill="white" stroke="black" points="59,-0.5 59,-56.5 238.91,-56.5 238.91,-0.5 59,-0.5"/>
<text text-anchor="start" x="67" y="-43.5" font-family="Helvetica,sans-Serif" font-size="10.00">/jenkins/jenlib_workspaces</text>
<text text-anchor="start" x="67" y="-31.5" font-family="Helvetica,sans-Serif" font-size="10.00">_f9/bld_nightly&#45;haldls.YmxkX25p</text>
<text text-anchor="start" x="67" y="-19.5" font-family="Helvetica,sans-Serif" font-size="10.00">Z2h0bHktaGFsZGxzIzQ5Nw.x/haldls</text>
<text text-anchor="middle" x="148.95" y="-7.5" font-family="Helvetica,sans-Serif" font-size="10.00">/include/haldls/v2/container.h</text>
</a>
</g>
</g>
<!-- Node10&#45;&gt;Node12 -->
<g id="edge3" class="edge">
<title>Node10&#45;&gt;Node12</title>
<path fill="none" stroke="midnightblue" d="M176.31,-177.73C181.51,-169.09 186.19,-159.57 188.95,-150 195.98,-125.66 195.98,-117.34 188.95,-93 185.23,-80.11 178.03,-67.31 170.75,-56.62"/>
<polygon fill="midnightblue" stroke="midnightblue" points="173.21,-176.08 170.75,-186.38 179.1,-179.86 173.21,-176.08"/>
</g>
<!-- Node11&#45;&gt;Node12 -->
<g id="edge2" class="edge">
<title>Node11&#45;&gt;Node12</title>
<path fill="none" stroke="midnightblue" d="M113.26,-84.55C119.25,-75.31 125.61,-65.51 131.26,-56.78"/>
<polygon fill="midnightblue" stroke="midnightblue" points="110.16,-82.9 107.65,-93.2 116.03,-86.71 110.16,-82.9"/>
</g>
</g>
</svg>
