<?xml version="1.0" encoding="UTF-8" standalone="no"?>
<!DOCTYPE svg PUBLIC "-//W3C//DTD SVG 1.1//EN"
 "http://www.w3.org/Graphics/SVG/1.1/DTD/svg11.dtd">
<!-- Generated by graphviz version 2.43.0 (0)
 -->
<!-- Title: /jenkins/jenlib_workspaces_f9/bld_nightly&#45;haldls.YmxkX25pZ2h0bHktaGFsZGxzIzcxMQ.x/haldls/include/haldls/vx Pages: 1 -->
<svg width="182pt" height="184pt"
 viewBox="0.00 0.00 182.00 184.00" xmlns="http://www.w3.org/2000/svg" xmlns:xlink="http://www.w3.org/1999/xlink">
<g id="graph0" class="graph" transform="scale(1 1) rotate(0) translate(4 180)">
<title>/jenkins/jenlib_workspaces_f9/bld_nightly&#45;haldls.YmxkX25pZ2h0bHktaGFsZGxzIzcxMQ.x/haldls/include/haldls/vx</title>
<polygon fill="white" stroke="transparent" points="-4,4 -4,-180 178,-180 178,4 -4,4"/>
<g id="clust1" class="cluster">
<title>clusterdir_b92cc810d8aff131b4dcaa4ff16fc2c6</title>
<g id="a_clust1"><a xlink:href="dir_b92cc810d8aff131b4dcaa4ff16fc2c6.html" target="_top" xlink:title="haldls">
<polygon fill="#ddddee" stroke="black" points="8,-8 8,-168 166,-168 166,-8 8,-8"/>
<text text-anchor="middle" x="87" y="-155" font-family="Helvetica,sans-Serif" font-size="10.00">haldls</text>
</a>
</g>
</g>
<g id="clust2" class="cluster">
<title>clusterdir_41e144568e9e6794ca92fdc739b02c8c</title>
<g id="a_clust2"><a xlink:href="dir_41e144568e9e6794ca92fdc739b02c8c.html" target="_top">
<polygon fill="#eeeeff" stroke="black" points="16,-16 16,-140 158,-140 158,-16 16,-16"/>
</a>
</g>
</g>
<!-- dir_41e144568e9e6794ca92fdc739b02c8c -->
<g id="node1" class="node">
<title>dir_41e144568e9e6794ca92fdc739b02c8c</title>
<text text-anchor="middle" x="123" y="-111" font-family="Helvetica,sans-Serif" font-size="10.00">vx</text>
</g>
<!-- dir_e7b7aba55d56fe4fac1bf72595eecb70 -->
<g id="node2" class="node">
<title>dir_e7b7aba55d56fe4fac1bf72595eecb70</title>
<g id="a_node2"><a xlink:href="dir_e7b7aba55d56fe4fac1bf72595eecb70.html" target="_top" xlink:title="v1">
<polygon fill="white" stroke="black" points="150,-60 96,-60 96,-24 150,-24 150,-60"/>
<text text-anchor="middle" x="123" y="-39" font-family="Helvetica,sans-Serif" font-size="10.00">v1</text>
</a>
</g>
</g>
<!-- dir_41e144568e9e6794ca92fdc739b02c8c&#45;&gt;dir_e7b7aba55d56fe4fac1bf72595eecb70 -->
<g id="edge1" class="edge">
<title>dir_41e144568e9e6794ca92fdc739b02c8c&#45;&gt;dir_e7b7aba55d56fe4fac1bf72595eecb70</title>
<path fill="none" stroke="black" d="M123,-95.7C123,-87.98 123,-78.71 123,-70.11"/>
<polygon fill="black" stroke="black" points="126.5,-70.1 123,-60.1 119.5,-70.1 126.5,-70.1"/>
<g id="a_edge1&#45;headlabel"><a xlink:href="dir_000003_000004.html" target="_top" xlink:title="1">
<text text-anchor="middle" x="129.34" y="-70.7" font-family="Helvetica,sans-Serif" font-size="10.00">1</text>
</a>
</g>
</g>
<!-- dir_8a86b85f940dc143cb9e730eba14749c -->
<g id="node3" class="node">
<title>dir_8a86b85f940dc143cb9e730eba14749c</title>
<g id="a_node3"><a xlink:href="dir_8a86b85f940dc143cb9e730eba14749c.html" target="_top" xlink:title="v2">
<polygon fill="white" stroke="black" points="78,-132 24,-132 24,-96 78,-96 78,-132"/>
<text text-anchor="middle" x="51" y="-111" font-family="Helvetica,sans-Serif" font-size="10.00">v2</text>
</a>
</g>
</g>
</g>
</svg>
