<?xml version="1.0" encoding="UTF-8" standalone="no"?>
<!DOCTYPE svg PUBLIC "-//W3C//DTD SVG 1.1//EN"
 "http://www.w3.org/Graphics/SVG/1.1/DTD/svg11.dtd">
<!-- Generated by graphviz version 2.43.0 (0)
 -->
<!-- Title: /jenkins/jenlib_workspaces_f9/bld_nightly&#45;haldls.YmxkX25pZ2h0bHktaGFsZGxzIzcxMQ.x/haldls/include/haldls/vx/i2c.h Pages: 1 -->
<svg width="1615pt" height="203pt"
 viewBox="0.00 0.00 1614.69 203.00" xmlns="http://www.w3.org/2000/svg" xmlns:xlink="http://www.w3.org/1999/xlink">
<g id="graph0" class="graph" transform="scale(1 1) rotate(0) translate(4 199)">
<title>/jenkins/jenlib_workspaces_f9/bld_nightly&#45;haldls.YmxkX25pZ2h0bHktaGFsZGxzIzcxMQ.x/haldls/include/haldls/vx/i2c.h</title>
<polygon fill="white" stroke="transparent" points="-4,4 -4,-199 1610.69,-199 1610.69,4 -4,4"/>
<!-- Node0 -->
<g id="node1" class="node">
<title>Node0</title>
<g id="a_node1"><a xlink:title=" ">
<polygon fill="#bfbfbf" stroke="black" points="778.95,-138.5 778.95,-194.5 957.19,-194.5 957.19,-138.5 778.95,-138.5"/>
<text text-anchor="start" x="786.95" y="-181.5" font-family="Helvetica,sans-Serif" font-size="10.00">/jenkins/jenlib_workspaces</text>
<text text-anchor="start" x="786.95" y="-169.5" font-family="Helvetica,sans-Serif" font-size="10.00">_f9/bld_nightly&#45;haldls.YmxkX25p</text>
<text text-anchor="start" x="786.95" y="-157.5" font-family="Helvetica,sans-Serif" font-size="10.00">Z2h0bHktaGFsZGxzIzcxMQ.x/haldls</text>
<text text-anchor="middle" x="868.07" y="-145.5" font-family="Helvetica,sans-Serif" font-size="10.00">/include/haldls/vx/i2c.h</text>
</a>
</g>
</g>
<!-- Node1 -->
<g id="node2" class="node">
<title>Node1</title>
<g id="a_node2"><a xlink:title=" ">
<polygon fill="white" stroke="#bfbfbf" points="332.68,-75.5 332.68,-95.5 371.46,-95.5 371.46,-75.5 332.68,-75.5"/>
<text text-anchor="middle" x="352.07" y="-82.5" font-family="Helvetica,sans-Serif" font-size="10.00">array</text>
</a>
</g>
</g>
<!-- Node0&#45;&gt;Node1 -->
<g id="edge1" class="edge">
<title>Node0&#45;&gt;Node1</title>
<path fill="none" stroke="midnightblue" d="M778.69,-161.98C680.44,-156.22 518.79,-141.16 385.07,-102 382.77,-101.32 380.42,-100.51 378.09,-99.61"/>
<polygon fill="midnightblue" stroke="midnightblue" points="379.37,-96.35 368.81,-95.58 376.59,-102.77 379.37,-96.35"/>
</g>
<!-- Node2 -->
<g id="node3" class="node">
<title>Node2</title>
<g id="a_node3"><a xlink:title=" ">
<polygon fill="white" stroke="#bfbfbf" points="684.9,-6.5 684.9,-26.5 729.24,-26.5 729.24,-6.5 684.9,-6.5"/>
<text text-anchor="middle" x="707.07" y="-13.5" font-family="Helvetica,sans-Serif" font-size="10.00">iosfwd</text>
</a>
</g>
</g>
<!-- Node0&#45;&gt;Node2 -->
<g id="edge2" class="edge">
<title>Node0&#45;&gt;Node2</title>
<path fill="none" stroke="midnightblue" d="M778.87,-159.11C740.11,-151.37 698.15,-135.21 674.07,-102 658.98,-81.18 676.56,-52.54 691.28,-34.53"/>
<polygon fill="midnightblue" stroke="midnightblue" points="694.23,-36.48 698.12,-26.62 688.93,-31.9 694.23,-36.48"/>
</g>
<!-- Node3 -->
<g id="node4" class="node">
<title>Node3</title>
<g id="a_node4"><a xlink:title=" ">
<polygon fill="white" stroke="#bfbfbf" points="848.69,-75.5 848.69,-95.5 887.45,-95.5 887.45,-75.5 848.69,-75.5"/>
<text text-anchor="middle" x="868.07" y="-82.5" font-family="Helvetica,sans-Serif" font-size="10.00">limits</text>
</a>
</g>
</g>
<!-- Node0&#45;&gt;Node3 -->
<g id="edge3" class="edge">
<title>Node0&#45;&gt;Node3</title>
<path fill="none" stroke="midnightblue" d="M868.07,-138.31C868.07,-127.66 868.07,-115.68 868.07,-105.93"/>
<polygon fill="midnightblue" stroke="midnightblue" points="871.57,-105.71 868.07,-95.71 864.57,-105.71 871.57,-105.71"/>
</g>
<!-- Node4 -->
<g id="node5" class="node">
<title>Node4</title>
<g id="a_node5"><a xlink:title=" ">
<polygon fill="white" stroke="#bfbfbf" points="905.45,-75.5 905.45,-95.5 1008.7,-95.5 1008.7,-75.5 905.45,-75.5"/>
<text text-anchor="middle" x="957.07" y="-82.5" font-family="Helvetica,sans-Serif" font-size="10.00">fisch/vx/constants.h</text>
</a>
</g>
</g>
<!-- Node0&#45;&gt;Node4 -->
<g id="edge4" class="edge">
<title>Node0&#45;&gt;Node4</title>
<path fill="none" stroke="midnightblue" d="M898.7,-138.31C912.13,-126.39 927.44,-112.8 939.01,-102.53"/>
<polygon fill="midnightblue" stroke="midnightblue" points="941.54,-104.97 946.69,-95.71 936.89,-99.74 941.54,-104.97"/>
</g>
<!-- Node5 -->
<g id="node6" class="node">
<title>Node5</title>
<g id="a_node6"><a xlink:title=" ">
<polygon fill="white" stroke="#bfbfbf" points="1027.17,-75.5 1027.17,-95.5 1160.97,-95.5 1160.97,-75.5 1027.17,-75.5"/>
<text text-anchor="middle" x="1094.07" y="-82.5" font-family="Helvetica,sans-Serif" font-size="10.00">halco/common/geometry.h</text>
</a>
</g>
</g>
<!-- Node0&#45;&gt;Node5 -->
<g id="edge5" class="edge">
<title>Node0&#45;&gt;Node5</title>
<path fill="none" stroke="midnightblue" d="M945.53,-138.42C983.88,-125.02 1028.3,-109.49 1058.5,-98.93"/>
<polygon fill="midnightblue" stroke="midnightblue" points="1059.88,-102.16 1068.17,-95.55 1057.57,-95.55 1059.88,-102.16"/>
</g>
<!-- Node6 -->
<g id="node7" class="node">
<title>Node6</title>
<g id="a_node7"><a xlink:title=" ">
<polygon fill="white" stroke="#bfbfbf" points="1178.56,-69.5 1178.56,-101.5 1279.58,-101.5 1279.58,-69.5 1178.56,-69.5"/>
<text text-anchor="start" x="1186.56" y="-88.5" font-family="Helvetica,sans-Serif" font-size="10.00">halco/hicann&#45;dls/vx</text>
<text text-anchor="middle" x="1229.07" y="-76.5" font-family="Helvetica,sans-Serif" font-size="10.00">/i2c.h</text>
</a>
</g>
</g>
<!-- Node0&#45;&gt;Node6 -->
<g id="edge6" class="edge">
<title>Node0&#45;&gt;Node6</title>
<path fill="none" stroke="midnightblue" d="M957.2,-147.97C1015,-136.32 1092.14,-120.23 1168.47,-102.33"/>
<polygon fill="midnightblue" stroke="midnightblue" points="1169.33,-105.72 1178.26,-100.02 1167.73,-98.91 1169.33,-105.72"/>
</g>
<!-- Node7 -->
<g id="node8" class="node">
<title>Node7</title>
<g id="a_node8"><a xlink:title=" ">
<polygon fill="white" stroke="#bfbfbf" points="1297.56,-69.5 1297.56,-101.5 1398.58,-101.5 1398.58,-69.5 1297.56,-69.5"/>
<text text-anchor="start" x="1305.56" y="-88.5" font-family="Helvetica,sans-Serif" font-size="10.00">halco/hicann&#45;dls/vx</text>
<text text-anchor="middle" x="1348.07" y="-76.5" font-family="Helvetica,sans-Serif" font-size="10.00">/xboard.h</text>
</a>
</g>
</g>
<!-- Node0&#45;&gt;Node7 -->
<g id="edge7" class="edge">
<title>Node0&#45;&gt;Node7</title>
<path fill="none" stroke="midnightblue" d="M957.26,-154.87C1040.48,-144.3 1168.2,-126.44 1287.28,-102.26"/>
<polygon fill="midnightblue" stroke="midnightblue" points="1288.21,-105.64 1297.3,-100.21 1286.81,-98.79 1288.21,-105.64"/>
</g>
<!-- Node8 -->
<g id="node9" class="node">
<title>Node8</title>
<g id="a_node9"><a xlink:href="cerealization_8h.html" target="_top" xlink:title=" ">
<polygon fill="white" stroke="black" points="683.4,-75.5 683.4,-95.5 792.75,-95.5 792.75,-75.5 683.4,-75.5"/>
<text text-anchor="middle" x="738.07" y="-82.5" font-family="Helvetica,sans-Serif" font-size="10.00">haldls/cerealization.h</text>
</a>
</g>
</g>
<!-- Node0&#45;&gt;Node8 -->
<g id="edge8" class="edge">
<title>Node0&#45;&gt;Node8</title>
<path fill="none" stroke="midnightblue" d="M823.33,-138.31C802.63,-125.73 778.89,-111.31 761.73,-100.87"/>
<polygon fill="midnightblue" stroke="midnightblue" points="763.29,-97.73 752.93,-95.53 759.65,-103.71 763.29,-97.73"/>
</g>
<!-- Node10 -->
<g id="node11" class="node">
<title>Node10</title>
<g id="a_node11"><a xlink:title=" ">
<polygon fill="white" stroke="#bfbfbf" points="927.57,-6.5 927.57,-26.5 1008.57,-26.5 1008.57,-6.5 927.57,-6.5"/>
<text text-anchor="middle" x="968.07" y="-13.5" font-family="Helvetica,sans-Serif" font-size="10.00">hate/visibility.h</text>
</a>
</g>
</g>
<!-- Node0&#45;&gt;Node10 -->
<g id="edge24" class="edge">
<title>Node0&#45;&gt;Node10</title>
<path fill="none" stroke="midnightblue" d="M848.61,-138.2C836.63,-117.75 826.01,-89.82 840.07,-69 845.51,-60.95 895.47,-42.42 931.33,-29.92"/>
<polygon fill="midnightblue" stroke="midnightblue" points="932.72,-33.15 941.02,-26.57 930.43,-26.53 932.72,-33.15"/>
</g>
<!-- Node13 -->
<g id="node14" class="node">
<title>Node13</title>
<g id="a_node14"><a xlink:href="genpybind_8h.html" target="_top" xlink:title=" ">
<polygon fill="white" stroke="black" points="0,-6.5 0,-26.5 112.14,-26.5 112.14,-6.5 0,-6.5"/>
<text text-anchor="middle" x="56.07" y="-13.5" font-family="Helvetica,sans-Serif" font-size="10.00">haldls/vx/genpybind.h</text>
</a>
</g>
</g>
<!-- Node0&#45;&gt;Node13 -->
<g id="edge14" class="edge">
<title>Node0&#45;&gt;Node13</title>
<path fill="none" stroke="midnightblue" d="M778.85,-158.93C666.51,-149.63 480.62,-130.51 418.07,-102 397.72,-92.72 400.39,-78.36 380.07,-69 281.71,-23.69 245.87,-50.94 139.07,-33 130.66,-31.59 121.77,-30.01 113.08,-28.43"/>
<polygon fill="midnightblue" stroke="midnightblue" points="113.45,-24.94 102.99,-26.57 112.19,-31.82 113.45,-24.94"/>
</g>
<!-- Node14 -->
<g id="node15" class="node">
<title>Node14</title>
<g id="a_node15"><a xlink:href="traits_8h.html" target="_top" xlink:title=" ">
<polygon fill="white" stroke="black" points="427.23,-75.5 427.23,-95.5 514.91,-95.5 514.91,-75.5 427.23,-75.5"/>
<text text-anchor="middle" x="471.07" y="-82.5" font-family="Helvetica,sans-Serif" font-size="10.00">haldls/vx/traits.h</text>
</a>
</g>
</g>
<!-- Node0&#45;&gt;Node14 -->
<g id="edge16" class="edge">
<title>Node0&#45;&gt;Node14</title>
<path fill="none" stroke="midnightblue" d="M778.48,-147.67C700.55,-132.16 590.18,-110.2 525.07,-97.25"/>
<polygon fill="midnightblue" stroke="midnightblue" points="525.52,-93.77 515.02,-95.25 524.15,-100.63 525.52,-93.77"/>
</g>
<!-- Node19 -->
<g id="node20" class="node">
<title>Node19</title>
<g id="a_node20"><a xlink:title=" ">
<polygon fill="white" stroke="#bfbfbf" points="1416.67,-75.5 1416.67,-95.5 1485.47,-95.5 1485.47,-75.5 1416.67,-75.5"/>
<text text-anchor="middle" x="1451.07" y="-82.5" font-family="Helvetica,sans-Serif" font-size="10.00">hate/math.h</text>
</a>
</g>
</g>
<!-- Node0&#45;&gt;Node19 -->
<g id="edge23" class="edge">
<title>Node0&#45;&gt;Node19</title>
<path fill="none" stroke="midnightblue" d="M957.55,-161.25C1065.55,-154.69 1252.11,-138.77 1408.07,-102 1411.76,-101.13 1415.58,-100.04 1419.34,-98.85"/>
<polygon fill="midnightblue" stroke="midnightblue" points="1420.72,-102.08 1429.05,-95.53 1418.45,-95.46 1420.72,-102.08"/>
</g>
<!-- Node20 -->
<g id="node21" class="node">
<title>Node20</title>
<g id="a_node21"><a xlink:title=" ">
<polygon fill="white" stroke="#bfbfbf" points="1503.45,-75.5 1503.45,-95.5 1606.69,-95.5 1606.69,-75.5 1503.45,-75.5"/>
<text text-anchor="middle" x="1555.07" y="-82.5" font-family="Helvetica,sans-Serif" font-size="10.00">hxcomm/vx/target.h</text>
</a>
</g>
</g>
<!-- Node0&#45;&gt;Node20 -->
<g id="edge25" class="edge">
<title>Node0&#45;&gt;Node20</title>
<path fill="none" stroke="midnightblue" d="M957.28,-160.61C1079.22,-152.98 1304.48,-135.51 1494.07,-102 1500.36,-100.89 1506.95,-99.48 1513.38,-97.96"/>
<polygon fill="midnightblue" stroke="midnightblue" points="1514.42,-101.31 1523.29,-95.52 1512.74,-94.51 1514.42,-101.31"/>
</g>
<!-- Node8&#45;&gt;Node2 -->
<g id="edge12" class="edge">
<title>Node8&#45;&gt;Node2</title>
<path fill="none" stroke="midnightblue" d="M733.89,-75.46C729.25,-65.43 721.63,-48.96 715.69,-36.13"/>
<polygon fill="midnightblue" stroke="midnightblue" points="718.76,-34.43 711.38,-26.82 712.41,-37.37 718.76,-34.43"/>
</g>
<!-- Node9 -->
<g id="node10" class="node">
<title>Node9</title>
<g id="a_node10"><a xlink:title=" ">
<polygon fill="white" stroke="#bfbfbf" points="583.45,-6.5 583.45,-26.5 666.69,-26.5 666.69,-6.5 583.45,-6.5"/>
<text text-anchor="middle" x="625.07" y="-13.5" font-family="Helvetica,sans-Serif" font-size="10.00">hate/type_list.h</text>
</a>
</g>
</g>
<!-- Node8&#45;&gt;Node9 -->
<g id="edge9" class="edge">
<title>Node8&#45;&gt;Node9</title>
<path fill="none" stroke="midnightblue" d="M722.83,-75.46C703.96,-64.28 671.59,-45.08 649.3,-31.86"/>
<polygon fill="midnightblue" stroke="midnightblue" points="650.82,-28.7 640.43,-26.61 647.25,-34.72 650.82,-28.7"/>
</g>
<!-- Node8&#45;&gt;Node10 -->
<g id="edge10" class="edge">
<title>Node8&#45;&gt;Node10</title>
<path fill="none" stroke="midnightblue" d="M770.65,-75.41C806.76,-65.28 866.67,-48.32 918.07,-33 921.83,-31.88 925.75,-30.69 929.66,-29.5"/>
<polygon fill="midnightblue" stroke="midnightblue" points="930.75,-32.83 939.28,-26.54 928.7,-26.14 930.75,-32.83"/>
</g>
<!-- Node11 -->
<g id="node12" class="node">
<title>Node11</title>
<g id="a_node12"><a xlink:title=" ">
<polygon fill="white" stroke="#bfbfbf" points="747.62,-6.5 747.62,-26.5 792.52,-26.5 792.52,-6.5 747.62,-6.5"/>
<text text-anchor="middle" x="770.07" y="-13.5" font-family="Helvetica,sans-Serif" font-size="10.00">cstdint</text>
</a>
</g>
</g>
<!-- Node8&#45;&gt;Node11 -->
<g id="edge11" class="edge">
<title>Node8&#45;&gt;Node11</title>
<path fill="none" stroke="midnightblue" d="M742.39,-75.46C747.18,-65.43 755.05,-48.96 761.17,-36.13"/>
<polygon fill="midnightblue" stroke="midnightblue" points="764.47,-37.35 765.62,-26.82 758.15,-34.34 764.47,-37.35"/>
</g>
<!-- Node12 -->
<g id="node13" class="node">
<title>Node12</title>
<g id="a_node13"><a xlink:title=" ">
<polygon fill="white" stroke="#bfbfbf" points="810.95,-6.5 810.95,-26.5 909.19,-26.5 909.19,-6.5 810.95,-6.5"/>
<text text-anchor="middle" x="860.07" y="-13.5" font-family="Helvetica,sans-Serif" font-size="10.00">cereal/macros.hpp</text>
</a>
</g>
</g>
<!-- Node8&#45;&gt;Node12 -->
<g id="edge13" class="edge">
<title>Node8&#45;&gt;Node12</title>
<path fill="none" stroke="midnightblue" d="M754.52,-75.46C775.08,-64.18 810.48,-44.74 834.56,-31.51"/>
<polygon fill="midnightblue" stroke="midnightblue" points="836.41,-34.49 843.49,-26.61 833.04,-28.35 836.41,-34.49"/>
</g>
<!-- Node13&#45;&gt;Node13 -->
<g id="edge15" class="edge">
<title>Node13&#45;&gt;Node13</title>
<path fill="none" stroke="midnightblue" d="M79.97,-26.54C103.79,-32.26 130.14,-28.92 130.14,-16.5 130.14,-5.78 110.51,-1.82 89.81,-4.62"/>
<polygon fill="midnightblue" stroke="midnightblue" points="89.15,-1.18 79.97,-6.46 90.44,-8.06 89.15,-1.18"/>
</g>
<!-- Node14&#45;&gt;Node9 -->
<g id="edge20" class="edge">
<title>Node14&#45;&gt;Node9</title>
<path fill="none" stroke="midnightblue" d="M491.84,-75.46C518.36,-63.93 564.45,-43.87 594.86,-30.64"/>
<polygon fill="midnightblue" stroke="midnightblue" points="596.37,-33.81 604.14,-26.61 593.57,-27.39 596.37,-33.81"/>
</g>
<!-- Node14&#45;&gt;Node13 -->
<g id="edge19" class="edge">
<title>Node14&#45;&gt;Node13</title>
<path fill="none" stroke="midnightblue" d="M440.24,-75.46C431.51,-73.12 421.97,-70.76 413.07,-69 292.6,-45.09 260.37,-52.28 139.07,-33 130.34,-31.61 121.12,-30.02 112.12,-28.39"/>
<polygon fill="midnightblue" stroke="midnightblue" points="112.56,-24.91 102.09,-26.55 111.3,-31.8 112.56,-24.91"/>
</g>
<!-- Node15 -->
<g id="node16" class="node">
<title>Node15</title>
<g id="a_node16"><a xlink:title=" ">
<polygon fill="white" stroke="#bfbfbf" points="392.01,-6.5 392.01,-26.5 454.13,-26.5 454.13,-6.5 392.01,-6.5"/>
<text text-anchor="middle" x="423.07" y="-13.5" font-family="Helvetica,sans-Serif" font-size="10.00">type_traits</text>
</a>
</g>
</g>
<!-- Node14&#45;&gt;Node15 -->
<g id="edge17" class="edge">
<title>Node14&#45;&gt;Node15</title>
<path fill="none" stroke="midnightblue" d="M464.6,-75.46C457.2,-65.13 444.9,-47.97 435.61,-35"/>
<polygon fill="midnightblue" stroke="midnightblue" points="438.42,-32.91 429.75,-26.82 432.73,-36.99 438.42,-32.91"/>
</g>
<!-- Node16 -->
<g id="node17" class="node">
<title>Node16</title>
<g id="a_node17"><a xlink:title=" ">
<polygon fill="white" stroke="#bfbfbf" points="472.45,-0.5 472.45,-32.5 565.69,-32.5 565.69,-0.5 472.45,-0.5"/>
<text text-anchor="start" x="480.45" y="-19.5" font-family="Helvetica,sans-Serif" font-size="10.00">fisch/vx/container</text>
<text text-anchor="middle" x="519.07" y="-7.5" font-family="Helvetica,sans-Serif" font-size="10.00">_fwd.h</text>
</a>
</g>
</g>
<!-- Node14&#45;&gt;Node16 -->
<g id="edge18" class="edge">
<title>Node14&#45;&gt;Node16</title>
<path fill="none" stroke="midnightblue" d="M477.54,-75.46C483.89,-66.61 493.82,-52.75 502.38,-40.8"/>
<polygon fill="midnightblue" stroke="midnightblue" points="505.32,-42.7 508.3,-32.53 499.63,-38.62 505.32,-42.7"/>
</g>
<!-- Node17 -->
<g id="node18" class="node">
<title>Node17</title>
<g id="a_node18"><a xlink:title=" ">
<polygon fill="white" stroke="#bfbfbf" points="147.67,-0.5 147.67,-32.5 246.47,-32.5 246.47,-0.5 147.67,-0.5"/>
<text text-anchor="start" x="155.67" y="-19.5" font-family="Helvetica,sans-Serif" font-size="10.00">boost/utility/enable</text>
<text text-anchor="middle" x="197.07" y="-7.5" font-family="Helvetica,sans-Serif" font-size="10.00">_if.hpp</text>
</a>
</g>
</g>
<!-- Node14&#45;&gt;Node17 -->
<g id="edge21" class="edge">
<title>Node14&#45;&gt;Node17</title>
<path fill="none" stroke="midnightblue" d="M438,-75.44C429.86,-73.27 421.17,-71 413.07,-69 346.16,-52.44 326.64,-50.45 256.48,-33.3"/>
<polygon fill="midnightblue" stroke="midnightblue" points="257.26,-29.89 246.71,-30.9 255.59,-36.69 257.26,-29.89"/>
</g>
<!-- Node18 -->
<g id="node19" class="node">
<title>Node18</title>
<g id="a_node19"><a xlink:title=" ">
<polygon fill="white" stroke="#bfbfbf" points="264.12,-6.5 264.12,-26.5 374.03,-26.5 374.03,-6.5 264.12,-6.5"/>
<text text-anchor="middle" x="319.07" y="-13.5" font-family="Helvetica,sans-Serif" font-size="10.00">fisch/vx/container.def</text>
</a>
</g>
</g>
<!-- Node14&#45;&gt;Node18 -->
<g id="edge22" class="edge">
<title>Node14&#45;&gt;Node18</title>
<path fill="none" stroke="midnightblue" d="M450.57,-75.46C424.39,-63.93 378.9,-43.87 348.89,-30.64"/>
<polygon fill="midnightblue" stroke="midnightblue" points="350.29,-27.44 339.73,-26.61 347.47,-33.84 350.29,-27.44"/>
</g>
</g>
</svg>
