<?xml version="1.0" encoding="UTF-8" standalone="no"?>
<!DOCTYPE svg PUBLIC "-//W3C//DTD SVG 1.1//EN"
 "http://www.w3.org/Graphics/SVG/1.1/DTD/svg11.dtd">
<!-- Generated by graphviz version 2.43.0 (0)
 -->
<!-- Title: Graphical Class Hierarchy Pages: 1 -->
<svg width="314pt" height="65pt"
 viewBox="0.00 0.00 314.10 65.00" xmlns="http://www.w3.org/2000/svg" xmlns:xlink="http://www.w3.org/1999/xlink">
<g id="graph0" class="graph" transform="scale(1 1) rotate(0) translate(4 61)">
<title>Graphical Class Hierarchy</title>
<polygon fill="white" stroke="transparent" points="-4,4 -4,-61 310.1,-61 310.1,4 -4,4"/>
<!-- Node0 -->
<g id="node1" class="node">
<title>Node0</title>
<g id="a_node1"><a xlink:href="structhaldls_1_1vx_1_1detail_1_1_backend_container_base.html" target="_top" xlink:title=" ">
<polygon fill="white" stroke="black" points="0,-0.5 0,-56.5 146.3,-56.5 146.3,-0.5 0,-0.5"/>
<text text-anchor="start" x="8" y="-43.5" font-family="Helvetica,sans-Serif" font-size="10.00">haldls::vx::detail</text>
<text text-anchor="start" x="8" y="-31.5" font-family="Helvetica,sans-Serif" font-size="10.00">::BackendContainerBase</text>
<text text-anchor="start" x="8" y="-19.5" font-family="Helvetica,sans-Serif" font-size="10.00">&lt; INA219Config, fisch</text>
<text text-anchor="middle" x="73.15" y="-7.5" font-family="Helvetica,sans-Serif" font-size="10.00">::vx::I2CINA219RwRegister &gt;</text>
</a>
</g>
</g>
<!-- Node1 -->
<g id="node2" class="node">
<title>Node1</title>
<g id="a_node2"><a xlink:href="structhaldls_1_1vx_1_1detail_1_1_backend_container_trait_3_01_i_n_a219_config_01_4.html" target="_top" xlink:title=" ">
<polygon fill="white" stroke="black" points="182.3,-6.5 182.3,-50.5 306.1,-50.5 306.1,-6.5 182.3,-6.5"/>
<text text-anchor="start" x="190.3" y="-37.5" font-family="Helvetica,sans-Serif" font-size="10.00">haldls::vx::detail</text>
<text text-anchor="start" x="190.3" y="-25.5" font-family="Helvetica,sans-Serif" font-size="10.00">::BackendContainerTrait</text>
<text text-anchor="middle" x="244.2" y="-13.5" font-family="Helvetica,sans-Serif" font-size="10.00">&lt; INA219Config &gt;</text>
</a>
</g>
</g>
<!-- Node0&#45;&gt;Node1 -->
<g id="edge1" class="edge">
<title>Node0&#45;&gt;Node1</title>
<path fill="none" stroke="midnightblue" d="M156.46,-28.5C165.12,-28.5 173.81,-28.5 182.16,-28.5"/>
<polygon fill="midnightblue" stroke="midnightblue" points="156.33,-25 146.33,-28.5 156.33,-32 156.33,-25"/>
</g>
</g>
</svg>
