<?xml version="1.0" encoding="UTF-8" standalone="no"?>
<!DOCTYPE svg PUBLIC "-//W3C//DTD SVG 1.1//EN"
 "http://www.w3.org/Graphics/SVG/1.1/DTD/svg11.dtd">
<!-- Generated by graphviz version 2.43.0 (0)
 -->
<!-- Title: Graphical Class Hierarchy Pages: 1 -->
<svg width="249pt" height="539pt"
 viewBox="0.00 0.00 249.37 539.00" xmlns="http://www.w3.org/2000/svg" xmlns:xlink="http://www.w3.org/1999/xlink">
<g id="graph0" class="graph" transform="scale(1 1) rotate(0) translate(4 535)">
<title>Graphical Class Hierarchy</title>
<polygon fill="white" stroke="transparent" points="-4,4 -4,-535 245.37,-535 245.37,4 -4,4"/>
<!-- Node235 -->
<g id="node1" class="node">
<title>Node235</title>
<g id="a_node1"><a xlink:title=" ">
<polygon fill="white" stroke="#bfbfbf" points="0,-249.5 0,-269.5 61.01,-269.5 61.01,-249.5 0,-249.5"/>
<text text-anchor="middle" x="30.51" y="-256.5" font-family="Helvetica,sans-Serif" font-size="10.00">BaseType</text>
</a>
</g>
</g>
<!-- Node0 -->
<g id="node2" class="node">
<title>Node0</title>
<g id="a_node2"><a xlink:href="structhaldls_1_1vx_1_1_hicann_a_r_q_status_1_1_read_count.html" target="_top" xlink:title="Number of words submitted to the ARQ from the Chip.">
<polygon fill="white" stroke="black" points="97.01,-498.5 97.01,-530.5 241.37,-530.5 241.37,-498.5 97.01,-498.5"/>
<text text-anchor="start" x="105.01" y="-517.5" font-family="Helvetica,sans-Serif" font-size="10.00">haldls::vx::HicannARQStatus</text>
<text text-anchor="middle" x="169.19" y="-505.5" font-family="Helvetica,sans-Serif" font-size="10.00">::ReadCount</text>
</a>
</g>
</g>
<!-- Node235&#45;&gt;Node0 -->
<g id="edge1" class="edge">
<title>Node235&#45;&gt;Node0</title>
<path fill="none" stroke="midnightblue" d="M31.38,-279.88C32.23,-324.05 40.46,-429.43 97.01,-489.5 100.25,-492.93 103.98,-495.89 108,-498.45"/>
<polygon fill="midnightblue" stroke="midnightblue" points="34.88,-279.78 31.3,-269.81 27.88,-279.84 34.88,-279.78"/>
</g>
<!-- Node237 -->
<g id="node3" class="node">
<title>Node237</title>
<g id="a_node3"><a xlink:href="structhaldls_1_1vx_1_1_hicann_a_r_q_status_1_1_rx_count.html" target="_top" xlink:title="Number of words sent from the ARQ from the Chip to the FPGA.">
<polygon fill="white" stroke="black" points="97.01,-447.5 97.01,-479.5 241.37,-479.5 241.37,-447.5 97.01,-447.5"/>
<text text-anchor="start" x="105.01" y="-466.5" font-family="Helvetica,sans-Serif" font-size="10.00">haldls::vx::HicannARQStatus</text>
<text text-anchor="middle" x="169.19" y="-454.5" font-family="Helvetica,sans-Serif" font-size="10.00">::RxCount</text>
</a>
</g>
</g>
<!-- Node235&#45;&gt;Node237 -->
<g id="edge2" class="edge">
<title>Node235&#45;&gt;Node237</title>
<path fill="none" stroke="midnightblue" d="M33.32,-279.55C37.67,-316.13 51.98,-394.05 97.01,-438.5 100.46,-441.9 104.4,-444.85 108.62,-447.39"/>
<polygon fill="midnightblue" stroke="midnightblue" points="36.8,-279.18 32.26,-269.6 29.84,-279.92 36.8,-279.18"/>
</g>
<!-- Node238 -->
<g id="node4" class="node">
<title>Node238</title>
<g id="a_node4"><a xlink:href="structhaldls_1_1vx_1_1_hicann_a_r_q_status_1_1_tx_count.html" target="_top" xlink:title="Number of words sent from the ARQ from the FPGA to the Chip.">
<polygon fill="white" stroke="black" points="97.01,-396.5 97.01,-428.5 241.37,-428.5 241.37,-396.5 97.01,-396.5"/>
<text text-anchor="start" x="105.01" y="-415.5" font-family="Helvetica,sans-Serif" font-size="10.00">haldls::vx::HicannARQStatus</text>
<text text-anchor="middle" x="169.19" y="-403.5" font-family="Helvetica,sans-Serif" font-size="10.00">::TxCount</text>
</a>
</g>
</g>
<!-- Node235&#45;&gt;Node238 -->
<g id="edge3" class="edge">
<title>Node235&#45;&gt;Node238</title>
<path fill="none" stroke="midnightblue" d="M36.68,-279.61C44.88,-307.62 63.48,-358.22 97.01,-387.5 100.96,-390.95 105.41,-393.93 110.11,-396.5"/>
<polygon fill="midnightblue" stroke="midnightblue" points="39.99,-278.46 33.95,-269.76 33.24,-280.33 39.99,-278.46"/>
</g>
<!-- Node239 -->
<g id="node5" class="node">
<title>Node239</title>
<g id="a_node5"><a xlink:href="structhaldls_1_1vx_1_1_hicann_a_r_q_status_1_1_write_count.html" target="_top" xlink:title="Number of words submitted to the ARQ from the FPGA.">
<polygon fill="white" stroke="black" points="97.01,-345.5 97.01,-377.5 241.37,-377.5 241.37,-345.5 97.01,-345.5"/>
<text text-anchor="start" x="105.01" y="-364.5" font-family="Helvetica,sans-Serif" font-size="10.00">haldls::vx::HicannARQStatus</text>
<text text-anchor="middle" x="169.19" y="-352.5" font-family="Helvetica,sans-Serif" font-size="10.00">::WriteCount</text>
</a>
</g>
</g>
<!-- Node235&#45;&gt;Node239 -->
<g id="edge4" class="edge">
<title>Node235&#45;&gt;Node239</title>
<path fill="none" stroke="midnightblue" d="M43.33,-278.44C55.03,-295.77 74.43,-320.99 97.01,-336.5 101.87,-339.84 107.22,-342.77 112.74,-345.35"/>
<polygon fill="midnightblue" stroke="midnightblue" points="46.05,-276.2 37.65,-269.74 40.19,-280.03 46.05,-276.2"/>
</g>
<!-- Node240 -->
<g id="node6" class="node">
<title>Node240</title>
<g id="a_node6"><a xlink:href="structhaldls_1_1vx_1_1_phy_status_1_1_c_r_c_error_count.html" target="_top" xlink:title="Number of CRC errors since last reset.">
<polygon fill="white" stroke="black" points="114.79,-294.5 114.79,-326.5 223.59,-326.5 223.59,-294.5 114.79,-294.5"/>
<text text-anchor="start" x="122.79" y="-313.5" font-family="Helvetica,sans-Serif" font-size="10.00">haldls::vx::PhyStatus</text>
<text text-anchor="middle" x="169.19" y="-301.5" font-family="Helvetica,sans-Serif" font-size="10.00">::CRCErrorCount</text>
</a>
</g>
</g>
<!-- Node235&#45;&gt;Node240 -->
<g id="edge5" class="edge">
<title>Node235&#45;&gt;Node240</title>
<path fill="none" stroke="midnightblue" d="M65.6,-273.33C75.68,-277.34 86.77,-281.67 97.01,-285.5 104.99,-288.48 113.5,-291.56 121.77,-294.5"/>
<polygon fill="midnightblue" stroke="midnightblue" points="66.89,-270.08 56.3,-269.61 64.29,-276.58 66.89,-270.08"/>
</g>
<!-- Node241 -->
<g id="node7" class="node">
<title>Node241</title>
<g id="a_node7"><a xlink:href="structhaldls_1_1vx_1_1_phy_status_1_1_online_time.html" target="_top" xlink:title="Online time in cycles since last reset.">
<polygon fill="white" stroke="black" points="114.79,-243.5 114.79,-275.5 223.59,-275.5 223.59,-243.5 114.79,-243.5"/>
<text text-anchor="start" x="122.79" y="-262.5" font-family="Helvetica,sans-Serif" font-size="10.00">haldls::vx::PhyStatus</text>
<text text-anchor="middle" x="169.19" y="-250.5" font-family="Helvetica,sans-Serif" font-size="10.00">::OnlineTime</text>
</a>
</g>
</g>
<!-- Node235&#45;&gt;Node241 -->
<g id="edge6" class="edge">
<title>Node235&#45;&gt;Node241</title>
<path fill="none" stroke="midnightblue" d="M71.54,-259.5C85.01,-259.5 100.27,-259.5 114.62,-259.5"/>
<polygon fill="midnightblue" stroke="midnightblue" points="71.17,-256 61.17,-259.5 71.17,-263 71.17,-256"/>
</g>
<!-- Node242 -->
<g id="node8" class="node">
<title>Node242</title>
<g id="a_node8"><a xlink:href="structhaldls_1_1vx_1_1_phy_status_1_1_rx_count.html" target="_top" xlink:title="Number of rx words from Chip since last reset.">
<polygon fill="white" stroke="black" points="114.79,-192.5 114.79,-224.5 223.59,-224.5 223.59,-192.5 114.79,-192.5"/>
<text text-anchor="start" x="122.79" y="-211.5" font-family="Helvetica,sans-Serif" font-size="10.00">haldls::vx::PhyStatus</text>
<text text-anchor="middle" x="169.19" y="-199.5" font-family="Helvetica,sans-Serif" font-size="10.00">::RxCount</text>
</a>
</g>
</g>
<!-- Node235&#45;&gt;Node242 -->
<g id="edge7" class="edge">
<title>Node235&#45;&gt;Node242</title>
<path fill="none" stroke="midnightblue" d="M67,-245.85C76.72,-242.14 87.26,-238.14 97.01,-234.5 105.64,-231.28 114.87,-227.87 123.73,-224.63"/>
<polygon fill="midnightblue" stroke="midnightblue" points="65.7,-242.6 57.61,-249.44 68.2,-249.13 65.7,-242.6"/>
</g>
<!-- Node243 -->
<g id="node9" class="node">
<title>Node243</title>
<g id="a_node9"><a xlink:href="structhaldls_1_1vx_1_1_phy_status_1_1_rx_dropped_count.html" target="_top" xlink:title="Number of dropped rx words.">
<polygon fill="white" stroke="black" points="114.79,-141.5 114.79,-173.5 223.59,-173.5 223.59,-141.5 114.79,-141.5"/>
<text text-anchor="start" x="122.79" y="-160.5" font-family="Helvetica,sans-Serif" font-size="10.00">haldls::vx::PhyStatus</text>
<text text-anchor="middle" x="169.19" y="-148.5" font-family="Helvetica,sans-Serif" font-size="10.00">::RxDroppedCount</text>
</a>
</g>
</g>
<!-- Node235&#45;&gt;Node243 -->
<g id="edge8" class="edge">
<title>Node235&#45;&gt;Node243</title>
<path fill="none" stroke="midnightblue" d="M43.43,-240.87C55.2,-223.82 74.65,-198.96 97.01,-183.5 102.43,-179.76 108.44,-176.49 114.61,-173.65"/>
<polygon fill="midnightblue" stroke="midnightblue" points="40.36,-239.17 37.71,-249.43 46.18,-243.06 40.36,-239.17"/>
</g>
<!-- Node244 -->
<g id="node10" class="node">
<title>Node244</title>
<g id="a_node10"><a xlink:href="structhaldls_1_1vx_1_1_phy_status_1_1_tx_count.html" target="_top" xlink:title="Number of tx words to Chip since last reset.">
<polygon fill="white" stroke="black" points="114.79,-90.5 114.79,-122.5 223.59,-122.5 223.59,-90.5 114.79,-90.5"/>
<text text-anchor="start" x="122.79" y="-109.5" font-family="Helvetica,sans-Serif" font-size="10.00">haldls::vx::PhyStatus</text>
<text text-anchor="middle" x="169.19" y="-97.5" font-family="Helvetica,sans-Serif" font-size="10.00">::TxCount</text>
</a>
</g>
</g>
<!-- Node235&#45;&gt;Node244 -->
<g id="edge9" class="edge">
<title>Node235&#45;&gt;Node244</title>
<path fill="none" stroke="midnightblue" d="M36.77,-239.6C45.09,-211.88 63.82,-161.75 97.01,-132.5 102.25,-127.89 108.36,-124.07 114.77,-120.92"/>
<polygon fill="midnightblue" stroke="midnightblue" points="33.37,-238.78 34,-249.35 40.1,-240.69 33.37,-238.78"/>
</g>
<!-- Node245 -->
<g id="node11" class="node">
<title>Node245</title>
<g id="a_node11"><a xlink:href="structhaldls_1_1vx_1_1_spike_label.html" target="_top" xlink:title=" ">
<polygon fill="white" stroke="black" points="112.85,-51.5 112.85,-71.5 225.54,-71.5 225.54,-51.5 112.85,-51.5"/>
<text text-anchor="middle" x="169.19" y="-58.5" font-family="Helvetica,sans-Serif" font-size="10.00">haldls::vx::SpikeLabel</text>
</a>
</g>
</g>
<!-- Node235&#45;&gt;Node245 -->
<g id="edge10" class="edge">
<title>Node235&#45;&gt;Node245</title>
<path fill="none" stroke="midnightblue" d="M33.09,-239.28C37.06,-202.44 50.77,-124.24 97.01,-81.5 101.54,-77.32 106.87,-74 112.54,-71.37"/>
<polygon fill="midnightblue" stroke="midnightblue" points="29.59,-239.02 32.14,-249.3 36.56,-239.68 29.59,-239.02"/>
</g>
<!-- Node246 -->
<g id="node12" class="node">
<title>Node246</title>
<g id="a_node12"><a xlink:href="structhaldls_1_1vx_1_1_timer_1_1_value.html" target="_top" xlink:title=" ">
<polygon fill="white" stroke="black" points="122.03,-0.5 122.03,-32.5 216.36,-32.5 216.36,-0.5 122.03,-0.5"/>
<text text-anchor="start" x="130.03" y="-19.5" font-family="Helvetica,sans-Serif" font-size="10.00">haldls::vx::Timer::</text>
<text text-anchor="middle" x="169.19" y="-7.5" font-family="Helvetica,sans-Serif" font-size="10.00">Value</text>
</a>
</g>
</g>
<!-- Node235&#45;&gt;Node246 -->
<g id="edge11" class="edge">
<title>Node235&#45;&gt;Node246</title>
<path fill="none" stroke="midnightblue" d="M31.86,-239.18C33.69,-196.92 43.8,-98.84 97.01,-42.5 103.79,-35.33 112.7,-30.13 121.92,-26.36"/>
<polygon fill="midnightblue" stroke="midnightblue" points="28.36,-239.21 31.54,-249.32 35.35,-239.43 28.36,-239.21"/>
</g>
</g>
</svg>
