<?xml version="1.0" encoding="UTF-8" standalone="no"?>
<!DOCTYPE svg PUBLIC "-//W3C//DTD SVG 1.1//EN"
 "http://www.w3.org/Graphics/SVG/1.1/DTD/svg11.dtd">
<!-- Generated by graphviz version 2.43.0 (0)
 -->
<!-- Title: /jenkins/jenlib_workspaces_f9/bld_nightly&#45;haldls.YmxkX25pZ2h0bHktaGFsZGxzIzcxMQ.x/haldls/include/haldls/vx/omnibus_constants.h Pages: 1 -->
<svg width="347pt" height="179pt"
 viewBox="0.00 0.00 347.07 179.00" xmlns="http://www.w3.org/2000/svg" xmlns:xlink="http://www.w3.org/1999/xlink">
<g id="graph0" class="graph" transform="scale(1 1) rotate(0) translate(4 175)">
<title>/jenkins/jenlib_workspaces_f9/bld_nightly&#45;haldls.YmxkX25pZ2h0bHktaGFsZGxzIzcxMQ.x/haldls/include/haldls/vx/omnibus_constants.h</title>
<polygon fill="white" stroke="transparent" points="-4,4 -4,-175 343.07,-175 343.07,4 -4,4"/>
<!-- Node0 -->
<g id="node1" class="node">
<title>Node0</title>
<g id="a_node1"><a xlink:title=" ">
<polygon fill="#bfbfbf" stroke="black" points="14.7,-114.5 14.7,-170.5 204.08,-170.5 204.08,-114.5 14.7,-114.5"/>
<text text-anchor="start" x="22.7" y="-157.5" font-family="Helvetica,sans-Serif" font-size="10.00">/jenkins/jenlib_workspaces</text>
<text text-anchor="start" x="22.7" y="-145.5" font-family="Helvetica,sans-Serif" font-size="10.00">_f9/bld_nightly&#45;haldls.YmxkX25p</text>
<text text-anchor="start" x="22.7" y="-133.5" font-family="Helvetica,sans-Serif" font-size="10.00">Z2h0bHktaGFsZGxzIzcxMQ.x/haldls</text>
<text text-anchor="middle" x="109.39" y="-121.5" font-family="Helvetica,sans-Serif" font-size="10.00">/include/haldls/vx/omnibus_constants.h</text>
</a>
</g>
</g>
<!-- Node1 -->
<g id="node2" class="node">
<title>Node1</title>
<g id="a_node2"><a xlink:title=" ">
<polygon fill="white" stroke="#bfbfbf" points="0,-57.5 0,-77.5 38.78,-77.5 38.78,-57.5 0,-57.5"/>
<text text-anchor="middle" x="19.39" y="-64.5" font-family="Helvetica,sans-Serif" font-size="10.00">array</text>
</a>
</g>
</g>
<!-- Node0&#45;&gt;Node1 -->
<g id="edge1" class="edge">
<title>Node0&#45;&gt;Node1</title>
<path fill="none" stroke="midnightblue" d="M75.88,-114.32C63.26,-104.08 49.35,-92.8 38.49,-83.99"/>
<polygon fill="midnightblue" stroke="midnightblue" points="40.49,-81.11 30.51,-77.52 36.08,-86.54 40.49,-81.11"/>
</g>
<!-- Node2 -->
<g id="node3" class="node">
<title>Node2</title>
<g id="a_node3"><a xlink:href="common_8h.html" target="_top" xlink:title=" ">
<polygon fill="white" stroke="black" points="57.22,-57.5 57.22,-77.5 161.56,-77.5 161.56,-57.5 57.22,-57.5"/>
<text text-anchor="middle" x="109.39" y="-64.5" font-family="Helvetica,sans-Serif" font-size="10.00">haldls/vx/common.h</text>
</a>
</g>
</g>
<!-- Node0&#45;&gt;Node2 -->
<g id="edge2" class="edge">
<title>Node0&#45;&gt;Node2</title>
<path fill="none" stroke="midnightblue" d="M109.39,-114.32C109.39,-105.5 109.39,-95.91 109.39,-87.79"/>
<polygon fill="midnightblue" stroke="midnightblue" points="112.89,-87.52 109.39,-77.52 105.89,-87.52 112.89,-87.52"/>
</g>
<!-- Node6 -->
<g id="node7" class="node">
<title>Node6</title>
<g id="a_node7"><a xlink:title=" ">
<polygon fill="white" stroke="#bfbfbf" points="179.7,-57.5 179.7,-77.5 339.07,-77.5 339.07,-57.5 179.7,-57.5"/>
<text text-anchor="middle" x="259.39" y="-64.5" font-family="Helvetica,sans-Serif" font-size="10.00">haldls/vx/omnibus_constants.tcc</text>
</a>
</g>
</g>
<!-- Node0&#45;&gt;Node6 -->
<g id="edge6" class="edge">
<title>Node0&#45;&gt;Node6</title>
<path fill="none" stroke="midnightblue" d="M165.24,-114.32C187.94,-103.27 213.15,-91 231.76,-81.95"/>
<polygon fill="midnightblue" stroke="midnightblue" points="233.38,-85.05 240.84,-77.52 230.32,-78.75 233.38,-85.05"/>
</g>
<!-- Node3 -->
<g id="node4" class="node">
<title>Node3</title>
<g id="a_node4"><a xlink:title=" ">
<polygon fill="white" stroke="#bfbfbf" points="10.33,-0.5 10.33,-20.5 72.45,-20.5 72.45,-0.5 10.33,-0.5"/>
<text text-anchor="middle" x="41.39" y="-7.5" font-family="Helvetica,sans-Serif" font-size="10.00">type_traits</text>
</a>
</g>
</g>
<!-- Node2&#45;&gt;Node3 -->
<g id="edge3" class="edge">
<title>Node2&#45;&gt;Node3</title>
<path fill="none" stroke="midnightblue" d="M98.16,-57.42C87.98,-49.19 72.77,-36.88 60.65,-27.08"/>
<polygon fill="midnightblue" stroke="midnightblue" points="62.84,-24.35 52.86,-20.78 58.43,-29.79 62.84,-24.35"/>
</g>
<!-- Node4 -->
<g id="node5" class="node">
<title>Node4</title>
<g id="a_node5"><a xlink:title=" ">
<polygon fill="white" stroke="#bfbfbf" points="90,-0.5 90,-20.5 128.78,-20.5 128.78,-0.5 90,-0.5"/>
<text text-anchor="middle" x="109.39" y="-7.5" font-family="Helvetica,sans-Serif" font-size="10.00">utility</text>
</a>
</g>
</g>
<!-- Node2&#45;&gt;Node4 -->
<g id="edge4" class="edge">
<title>Node2&#45;&gt;Node4</title>
<path fill="none" stroke="midnightblue" d="M109.39,-57.42C109.39,-50.22 109.39,-39.9 109.39,-30.86"/>
<polygon fill="midnightblue" stroke="midnightblue" points="112.89,-30.78 109.39,-20.78 105.89,-30.78 112.89,-30.78"/>
</g>
<!-- Node5 -->
<g id="node6" class="node">
<title>Node5</title>
<g id="a_node6"><a xlink:title=" ">
<polygon fill="white" stroke="#bfbfbf" points="146.76,-0.5 146.76,-20.5 270.01,-20.5 270.01,-0.5 146.76,-0.5"/>
<text text-anchor="middle" x="208.39" y="-7.5" font-family="Helvetica,sans-Serif" font-size="10.00">fisch/vx/omnibus_data.h</text>
</a>
</g>
</g>
<!-- Node2&#45;&gt;Node5 -->
<g id="edge5" class="edge">
<title>Node2&#45;&gt;Node5</title>
<path fill="none" stroke="midnightblue" d="M125.74,-57.42C141.36,-48.74 165.13,-35.53 183.17,-25.51"/>
<polygon fill="midnightblue" stroke="midnightblue" points="184.97,-28.51 192.02,-20.6 181.57,-22.39 184.97,-28.51"/>
</g>
</g>
</svg>
