<?xml version="1.0" encoding="UTF-8" standalone="no"?>
<!DOCTYPE svg PUBLIC "-//W3C//DTD SVG 1.1//EN"
 "http://www.w3.org/Graphics/SVG/1.1/DTD/svg11.dtd">
<!-- Generated by graphviz version 2.43.0 (0)
 -->
<!-- Title: /jenkins/jenlib_workspaces_f9/bld_nightly&#45;haldls.YmxkX25pZ2h0bHktaGFsZGxzIzcxMQ.x/haldls/include/haldls/vx/padi.h Pages: 1 -->
<!--zoomable 272 -->
<svg id="main" version="1.1" xmlns="http://www.w3.org/2000/svg" xmlns:xlink="http://www.w3.org/1999/xlink" xml:space="preserve" onload="init(evt)">
<style type="text/css"><![CDATA[
.edge:hover path { stroke: red; }
.edge:hover polygon { stroke: red; fill: red; }
]]></style>
<script type="text/javascript"><![CDATA[
var edges = document.getElementsByTagName('g');
if (edges && edges.length) {
  for (var i=0;i<edges.length;i++) {
    if (edges[i].id.substr(0,4)=='edge') {
      edges[i].setAttribute('class','edge');
    }
  }
}
]]></script>
        <defs>
                <circle id="rim" cx="0" cy="0" r="7"/>
                <circle id="rim2" cx="0" cy="0" r="3.5"/>
                <g id="zoomPlus">
                        <use xlink:href="#rim" fill="#404040">
                                <set attributeName="fill" to="#808080" begin="zoomplus.mouseover" end="zoomplus.mouseout"/>
                        </use>
                        <path d="M-4,0h8M0,-4v8" fill="none" stroke="white" stroke-width="1.5" pointer-events="none"/>
                </g>
                <g id="zoomMin">
                        <use xlink:href="#rim" fill="#404040">
                                <set attributeName="fill" to="#808080" begin="zoomminus.mouseover" end="zoomminus.mouseout"/>
                        </use>
                        <path d="M-4,0h8" fill="none" stroke="white" stroke-width="1.5" pointer-events="none"/>
                </g>
                <g id="dirArrow">
                        <path fill="none" stroke="white" stroke-width="1.5" d="M0,-3.0v7 M-2.5,-0.5L0,-3.0L2.5,-0.5"/>
                </g>
               <g id="resetDef">
                       <use xlink:href="#rim2" fill="#404040">
                               <set attributeName="fill" to="#808080" begin="reset.mouseover" end="reset.mouseout"/>
                       </use>
               </g>
        </defs>

<script type="text/javascript">
var viewWidth = 1732;
var viewHeight = 272;
var sectionId = 'dynsection-0';
</script>
<script xlink:href="svgpan.js"/>
<svg id="graph" class="graph">
<g id="viewport">
<title>/jenkins/jenlib_workspaces_f9/bld_nightly&#45;haldls.YmxkX25pZ2h0bHktaGFsZGxzIzcxMQ.x/haldls/include/haldls/vx/padi.h</title>
<polygon fill="white" stroke="transparent" points="-4,4 -4,-268 1727.69,-268 1727.69,4 -4,4"/>
<!-- Node0 -->
<g id="node1" class="node">
<title>Node0</title>
<g id="a_node1"><a xlink:title=" ">
<polygon fill="#bfbfbf" stroke="black" points="697.95,-207.5 697.95,-263.5 876.19,-263.5 876.19,-207.5 697.95,-207.5"/>
<text text-anchor="start" x="705.95" y="-250.5" font-family="Helvetica,sans-Serif" font-size="10.00">/jenkins/jenlib_workspaces</text>
<text text-anchor="start" x="705.95" y="-238.5" font-family="Helvetica,sans-Serif" font-size="10.00">_f9/bld_nightly&#45;haldls.YmxkX25p</text>
<text text-anchor="start" x="705.95" y="-226.5" font-family="Helvetica,sans-Serif" font-size="10.00">Z2h0bHktaGFsZGxzIzcxMQ.x/haldls</text>
<text text-anchor="middle" x="787.07" y="-214.5" font-family="Helvetica,sans-Serif" font-size="10.00">/include/haldls/vx/padi.h</text>
</a>
</g>
</g>
<!-- Node1 -->
<g id="node2" class="node">
<title>Node1</title>
<g id="a_node2"><a xlink:title=" ">
<polygon fill="white" stroke="#bfbfbf" points="382.68,-75.5 382.68,-95.5 421.46,-95.5 421.46,-75.5 382.68,-75.5"/>
<text text-anchor="middle" x="402.07" y="-82.5" font-family="Helvetica,sans-Serif" font-size="10.00">array</text>
</a>
</g>
</g>
<!-- Node0&#45;&gt;Node1 -->
<g id="edge1" class="edge">
<title>Node0&#45;&gt;Node1</title>
<path fill="none" stroke="midnightblue" d="M697.77,-217.29C651.23,-206.78 593.98,-191.4 545.07,-171 499.16,-151.85 450.19,-120.14 423.13,-101.49"/>
<polygon fill="midnightblue" stroke="midnightblue" points="425.04,-98.55 414.83,-95.71 421.04,-104.3 425.04,-98.55"/>
</g>
<!-- Node2 -->
<g id="node3" class="node">
<title>Node2</title>
<g id="a_node3"><a xlink:title=" ">
<polygon fill="white" stroke="#bfbfbf" points="605.9,-6.5 605.9,-26.5 650.24,-26.5 650.24,-6.5 605.9,-6.5"/>
<text text-anchor="middle" x="628.07" y="-13.5" font-family="Helvetica,sans-Serif" font-size="10.00">iosfwd</text>
</a>
</g>
</g>
<!-- Node0&#45;&gt;Node2 -->
<g id="edge2" class="edge">
<title>Node0&#45;&gt;Node2</title>
<path fill="none" stroke="midnightblue" d="M735.48,-207.36C698.37,-184.69 651.14,-148.59 629.07,-102 619.29,-81.35 621.04,-54.54 623.91,-36.72"/>
<polygon fill="midnightblue" stroke="midnightblue" points="627.39,-37.16 625.8,-26.68 620.51,-35.86 627.39,-37.16"/>
</g>
<!-- Node3 -->
<g id="node4" class="node">
<title>Node3</title>
<g id="a_node4"><a xlink:title=" ">
<polygon fill="white" stroke="#bfbfbf" points="1311.17,-75.5 1311.17,-95.5 1444.97,-95.5 1444.97,-75.5 1311.17,-75.5"/>
<text text-anchor="middle" x="1378.07" y="-82.5" font-family="Helvetica,sans-Serif" font-size="10.00">halco/common/geometry.h</text>
</a>
</g>
</g>
<!-- Node0&#45;&gt;Node3 -->
<g id="edge3" class="edge">
<title>Node0&#45;&gt;Node3</title>
<path fill="none" stroke="midnightblue" d="M876.51,-212.1C1004.29,-180.1 1234.43,-122.47 1332.17,-98"/>
<polygon fill="midnightblue" stroke="midnightblue" points="1333.19,-101.35 1342.04,-95.52 1331.49,-94.56 1333.19,-101.35"/>
</g>
<!-- Node4 -->
<g id="node5" class="node">
<title>Node4</title>
<g id="a_node5"><a xlink:title=" ">
<polygon fill="white" stroke="#bfbfbf" points="1501.56,-138.5 1501.56,-170.5 1602.58,-170.5 1602.58,-138.5 1501.56,-138.5"/>
<text text-anchor="start" x="1509.56" y="-157.5" font-family="Helvetica,sans-Serif" font-size="10.00">halco/hicann&#45;dls/vx</text>
<text text-anchor="middle" x="1552.07" y="-145.5" font-family="Helvetica,sans-Serif" font-size="10.00">/padi.h</text>
</a>
</g>
</g>
<!-- Node0&#45;&gt;Node4 -->
<g id="edge4" class="edge">
<title>Node0&#45;&gt;Node4</title>
<path fill="none" stroke="midnightblue" d="M876.26,-230.52C1009.79,-223.63 1269.26,-206.66 1487.07,-171 1488.54,-170.76 1490.02,-170.5 1491.51,-170.24"/>
<polygon fill="midnightblue" stroke="midnightblue" points="1492.32,-173.65 1501.47,-168.31 1490.99,-166.77 1492.32,-173.65"/>
</g>
<!-- Node5 -->
<g id="node6" class="node">
<title>Node5</title>
<g id="a_node6"><a xlink:href="cerealization_8h.html" target="_top" xlink:title=" ">
<polygon fill="white" stroke="black" points="659.4,-75.5 659.4,-95.5 768.75,-95.5 768.75,-75.5 659.4,-75.5"/>
<text text-anchor="middle" x="714.07" y="-82.5" font-family="Helvetica,sans-Serif" font-size="10.00">haldls/cerealization.h</text>
</a>
</g>
</g>
<!-- Node0&#45;&gt;Node5 -->
<g id="edge5" class="edge">
<title>Node0&#45;&gt;Node5</title>
<path fill="none" stroke="midnightblue" d="M773.68,-207.35C758.93,-177.44 735.62,-130.18 722.96,-104.52"/>
<polygon fill="midnightblue" stroke="midnightblue" points="726.09,-102.96 718.53,-95.54 719.81,-106.06 726.09,-102.96"/>
</g>
<!-- Node7 -->
<g id="node8" class="node">
<title>Node7</title>
<g id="a_node8"><a xlink:title=" ">
<polygon fill="white" stroke="#bfbfbf" points="1125.57,-6.5 1125.57,-26.5 1206.57,-26.5 1206.57,-6.5 1125.57,-6.5"/>
<text text-anchor="middle" x="1166.07" y="-13.5" font-family="Helvetica,sans-Serif" font-size="10.00">hate/visibility.h</text>
</a>
</g>
</g>
<!-- Node0&#45;&gt;Node7 -->
<g id="edge35" class="edge">
<title>Node0&#45;&gt;Node7</title>
<path fill="none" stroke="midnightblue" d="M876.27,-230.38C1040.91,-220.69 1382.31,-190.21 1454.07,-102 1463.33,-90.62 1463.49,-80.25 1454.07,-69 1424.37,-33.52 1291.09,-22.46 1216.69,-19.03"/>
<polygon fill="midnightblue" stroke="midnightblue" points="1216.75,-15.53 1206.6,-18.59 1216.44,-22.52 1216.75,-15.53"/>
</g>
<!-- Node10 -->
<g id="node11" class="node">
<title>Node10</title>
<g id="a_node11"><a xlink:href="genpybind_8h.html" target="_top" xlink:title=" ">
<polygon fill="white" stroke="black" points="0,-6.5 0,-26.5 112.14,-26.5 112.14,-6.5 0,-6.5"/>
<text text-anchor="middle" x="56.07" y="-13.5" font-family="Helvetica,sans-Serif" font-size="10.00">haldls/vx/genpybind.h</text>
</a>
</g>
</g>
<!-- Node0&#45;&gt;Node10 -->
<g id="edge11" class="edge">
<title>Node0&#45;&gt;Node10</title>
<path fill="none" stroke="midnightblue" d="M697.89,-219.45C636.41,-208.24 553.12,-191.38 481.07,-171 330.69,-128.47 157.01,-59.19 87.34,-30.53"/>
<polygon fill="midnightblue" stroke="midnightblue" points="88.41,-27.19 77.83,-26.61 85.74,-33.66 88.41,-27.19"/>
</g>
<!-- Node11 -->
<g id="node12" class="node">
<title>Node11</title>
<g id="a_node12"><a xlink:href="synapse_8h.html" target="_top" xlink:title=" ">
<polygon fill="white" stroke="black" points="765.45,-144.5 765.45,-164.5 868.7,-164.5 868.7,-144.5 765.45,-144.5"/>
<text text-anchor="middle" x="817.07" y="-151.5" font-family="Helvetica,sans-Serif" font-size="10.00">haldls/vx/synapse.h</text>
</a>
</g>
</g>
<!-- Node0&#45;&gt;Node11 -->
<g id="edge13" class="edge">
<title>Node0&#45;&gt;Node11</title>
<path fill="none" stroke="midnightblue" d="M797.4,-207.31C801.53,-196.43 806.19,-184.16 809.93,-174.3"/>
<polygon fill="midnightblue" stroke="midnightblue" points="813.29,-175.31 813.57,-164.71 806.75,-172.82 813.29,-175.31"/>
</g>
<!-- Node19 -->
<g id="node20" class="node">
<title>Node19</title>
<g id="a_node20"><a xlink:href="traits_8h.html" target="_top" xlink:title=" ">
<polygon fill="white" stroke="black" points="477.23,-75.5 477.23,-95.5 564.91,-95.5 564.91,-75.5 477.23,-75.5"/>
<text text-anchor="middle" x="521.07" y="-82.5" font-family="Helvetica,sans-Serif" font-size="10.00">haldls/vx/traits.h</text>
</a>
</g>
</g>
<!-- Node0&#45;&gt;Node19 -->
<g id="edge34" class="edge">
<title>Node0&#45;&gt;Node19</title>
<path fill="none" stroke="midnightblue" d="M697.86,-221C658.63,-211.76 613.7,-196.4 579.07,-171 555.6,-153.78 538.44,-124.06 529.11,-104.85"/>
<polygon fill="midnightblue" stroke="midnightblue" points="532.23,-103.25 524.85,-95.64 525.87,-106.19 532.23,-103.25"/>
</g>
<!-- Node23 -->
<g id="node24" class="node">
<title>Node23</title>
<g id="a_node24"><a xlink:title=" ">
<polygon fill="white" stroke="#bfbfbf" points="1620.45,-144.5 1620.45,-164.5 1723.69,-164.5 1723.69,-144.5 1620.45,-144.5"/>
<text text-anchor="middle" x="1672.07" y="-151.5" font-family="Helvetica,sans-Serif" font-size="10.00">hxcomm/vx/target.h</text>
</a>
</g>
</g>
<!-- Node0&#45;&gt;Node23 -->
<g id="edge36" class="edge">
<title>Node0&#45;&gt;Node23</title>
<path fill="none" stroke="midnightblue" d="M876.2,-232.77C1028.17,-228.68 1346.73,-215.13 1612.07,-171 1618.41,-169.95 1625.06,-168.54 1631.52,-167"/>
<polygon fill="midnightblue" stroke="midnightblue" points="1632.61,-170.34 1641.46,-164.51 1630.91,-163.55 1632.61,-170.34"/>
</g>
<!-- Node5&#45;&gt;Node2 -->
<g id="edge9" class="edge">
<title>Node5&#45;&gt;Node2</title>
<path fill="none" stroke="midnightblue" d="M702.47,-75.46C688.5,-64.57 664.79,-46.1 647.89,-32.94"/>
<polygon fill="midnightblue" stroke="midnightblue" points="649.8,-29.99 639.76,-26.61 645.5,-35.51 649.8,-29.99"/>
</g>
<!-- Node6 -->
<g id="node7" class="node">
<title>Node6</title>
<g id="a_node7"><a xlink:title=" ">
<polygon fill="white" stroke="#bfbfbf" points="504.45,-6.5 504.45,-26.5 587.69,-26.5 587.69,-6.5 504.45,-6.5"/>
<text text-anchor="middle" x="546.07" y="-13.5" font-family="Helvetica,sans-Serif" font-size="10.00">hate/type_list.h</text>
</a>
</g>
</g>
<!-- Node5&#45;&gt;Node6 -->
<g id="edge6" class="edge">
<title>Node5&#45;&gt;Node6</title>
<path fill="none" stroke="midnightblue" d="M691.41,-75.46C662.36,-63.88 611.76,-43.7 578.6,-30.47"/>
<polygon fill="midnightblue" stroke="midnightblue" points="579.49,-27.06 568.91,-26.61 576.9,-33.56 579.49,-27.06"/>
</g>
<!-- Node5&#45;&gt;Node7 -->
<g id="edge7" class="edge">
<title>Node5&#45;&gt;Node7</title>
<path fill="none" stroke="midnightblue" d="M747.78,-75.46C757.5,-73.09 768.16,-70.72 778.07,-69 927.36,-43.11 968.76,-64 1117.07,-33 1121.62,-32.05 1126.34,-30.85 1130.98,-29.53"/>
<polygon fill="midnightblue" stroke="midnightblue" points="1132.34,-32.77 1140.9,-26.53 1130.31,-26.07 1132.34,-32.77"/>
</g>
<!-- Node8 -->
<g id="node9" class="node">
<title>Node8</title>
<g id="a_node9"><a xlink:title=" ">
<polygon fill="white" stroke="#bfbfbf" points="784.62,-6.5 784.62,-26.5 829.52,-26.5 829.52,-6.5 784.62,-6.5"/>
<text text-anchor="middle" x="807.07" y="-13.5" font-family="Helvetica,sans-Serif" font-size="10.00">cstdint</text>
</a>
</g>
</g>
<!-- Node5&#45;&gt;Node8 -->
<g id="edge8" class="edge">
<title>Node5&#45;&gt;Node8</title>
<path fill="none" stroke="midnightblue" d="M726.61,-75.46C741.87,-64.47 767.84,-45.76 786.14,-32.58"/>
<polygon fill="midnightblue" stroke="midnightblue" points="788.36,-35.29 794.43,-26.61 784.27,-29.61 788.36,-35.29"/>
</g>
<!-- Node9 -->
<g id="node10" class="node">
<title>Node9</title>
<g id="a_node10"><a xlink:title=" ">
<polygon fill="white" stroke="#bfbfbf" points="667.95,-6.5 667.95,-26.5 766.19,-26.5 766.19,-6.5 667.95,-6.5"/>
<text text-anchor="middle" x="717.07" y="-13.5" font-family="Helvetica,sans-Serif" font-size="10.00">cereal/macros.hpp</text>
</a>
</g>
</g>
<!-- Node5&#45;&gt;Node9 -->
<g id="edge10" class="edge">
<title>Node5&#45;&gt;Node9</title>
<path fill="none" stroke="midnightblue" d="M714.48,-75.46C714.92,-65.63 715.63,-49.61 716.2,-36.9"/>
<polygon fill="midnightblue" stroke="midnightblue" points="719.7,-36.97 716.65,-26.82 712.71,-36.66 719.7,-36.97"/>
</g>
<!-- Node10&#45;&gt;Node10 -->
<g id="edge12" class="edge">
<title>Node10&#45;&gt;Node10</title>
<path fill="none" stroke="midnightblue" d="M79.97,-26.54C103.79,-32.26 130.14,-28.92 130.14,-16.5 130.14,-5.78 110.51,-1.82 89.81,-4.62"/>
<polygon fill="midnightblue" stroke="midnightblue" points="89.15,-1.18 79.97,-6.46 90.44,-8.06 89.15,-1.18"/>
</g>
<!-- Node11&#45;&gt;Node1 -->
<g id="edge14" class="edge">
<title>Node11&#45;&gt;Node1</title>
<path fill="none" stroke="midnightblue" d="M765.37,-151.51C690.95,-147.55 549.97,-135.86 435.07,-102 432.77,-101.32 430.42,-100.5 428.09,-99.6"/>
<polygon fill="midnightblue" stroke="midnightblue" points="429.38,-96.34 418.81,-95.57 426.59,-102.76 429.38,-96.34"/>
</g>
<!-- Node11&#45;&gt;Node2 -->
<g id="edge15" class="edge">
<title>Node11&#45;&gt;Node2</title>
<path fill="none" stroke="midnightblue" d="M765.32,-150.53C728.32,-145.66 679.96,-133.24 650.07,-102 633.33,-84.5 628.92,-55.94 627.96,-36.93"/>
<polygon fill="midnightblue" stroke="midnightblue" points="631.46,-36.68 627.74,-26.76 624.46,-36.84 631.46,-36.68"/>
</g>
<!-- Node11&#45;&gt;Node3 -->
<g id="edge16" class="edge">
<title>Node11&#45;&gt;Node3</title>
<path fill="none" stroke="midnightblue" d="M868.72,-149.7C957.74,-142.79 1145.67,-126.54 1303.07,-102 1311.2,-100.73 1319.77,-99.17 1328.11,-97.54"/>
<polygon fill="midnightblue" stroke="midnightblue" points="1329,-100.93 1338.11,-95.52 1327.62,-94.07 1329,-100.93"/>
</g>
<!-- Node11&#45;&gt;Node5 -->
<g id="edge20" class="edge">
<title>Node11&#45;&gt;Node5</title>
<path fill="none" stroke="midnightblue" d="M803.18,-144.46C786.13,-133.38 757,-114.42 736.7,-101.22"/>
<polygon fill="midnightblue" stroke="midnightblue" points="738.36,-98.13 728.07,-95.61 734.55,-103.99 738.36,-98.13"/>
</g>
<!-- Node11&#45;&gt;Node7 -->
<g id="edge33" class="edge">
<title>Node11&#45;&gt;Node7</title>
<path fill="none" stroke="midnightblue" d="M833.48,-144.36C850.59,-134.59 877.96,-118.3 900.07,-102 918.08,-88.73 918,-78.87 938.07,-69 1010.9,-33.21 1038.49,-53.27 1117.07,-33 1121.15,-31.95 1125.4,-30.75 1129.61,-29.51"/>
<polygon fill="midnightblue" stroke="midnightblue" points="1130.73,-32.83 1139.26,-26.55 1128.68,-26.13 1130.73,-32.83"/>
</g>
<!-- Node11&#45;&gt;Node10 -->
<g id="edge25" class="edge">
<title>Node11&#45;&gt;Node10</title>
<path fill="none" stroke="midnightblue" d="M765.34,-149.45C681.47,-142.28 519.97,-125.85 468.07,-102 447.75,-92.66 450.5,-78.1 430.07,-69 311.03,-15.97 267.85,-52.97 139.07,-33 130.14,-31.61 120.69,-30 111.49,-28.34"/>
<polygon fill="midnightblue" stroke="midnightblue" points="112.12,-24.89 101.65,-26.53 110.85,-31.78 112.12,-24.89"/>
</g>
<!-- Node12 -->
<g id="node13" class="node">
<title>Node12</title>
<g id="a_node13"><a xlink:title=" ">
<polygon fill="white" stroke="#bfbfbf" points="946.95,-69.5 946.95,-101.5 1055.19,-101.5 1055.19,-69.5 946.95,-69.5"/>
<text text-anchor="start" x="954.95" y="-88.5" font-family="Helvetica,sans-Serif" font-size="10.00">halco/common/typed</text>
<text text-anchor="middle" x="1001.07" y="-76.5" font-family="Helvetica,sans-Serif" font-size="10.00">_array.h</text>
</a>
</g>
</g>
<!-- Node11&#45;&gt;Node12 -->
<g id="edge17" class="edge">
<title>Node11&#45;&gt;Node12</title>
<path fill="none" stroke="midnightblue" d="M841.89,-144.46C869.5,-134.41 914.88,-117.89 950.13,-105.05"/>
<polygon fill="midnightblue" stroke="midnightblue" points="951.59,-108.24 959.79,-101.53 949.19,-101.67 951.59,-108.24"/>
</g>
<!-- Node13 -->
<g id="node14" class="node">
<title>Node13</title>
<g id="a_node14"><a xlink:title=" ">
<polygon fill="white" stroke="#bfbfbf" points="1073.56,-69.5 1073.56,-101.5 1174.58,-101.5 1174.58,-69.5 1073.56,-69.5"/>
<text text-anchor="start" x="1081.56" y="-88.5" font-family="Helvetica,sans-Serif" font-size="10.00">halco/hicann&#45;dls/vx</text>
<text text-anchor="middle" x="1124.07" y="-76.5" font-family="Helvetica,sans-Serif" font-size="10.00">/capmem.h</text>
</a>
</g>
</g>
<!-- Node11&#45;&gt;Node13 -->
<g id="edge18" class="edge">
<title>Node11&#45;&gt;Node13</title>
<path fill="none" stroke="midnightblue" d="M863.65,-144.47C911.28,-135.09 987.62,-119.62 1063.2,-102.14"/>
<polygon fill="midnightblue" stroke="midnightblue" points="1064.43,-105.45 1073.37,-99.78 1062.84,-98.63 1064.43,-105.45"/>
</g>
<!-- Node14 -->
<g id="node15" class="node">
<title>Node14</title>
<g id="a_node15"><a xlink:title=" ">
<polygon fill="white" stroke="#bfbfbf" points="1192.56,-69.5 1192.56,-101.5 1293.58,-101.5 1293.58,-69.5 1192.56,-69.5"/>
<text text-anchor="start" x="1200.56" y="-88.5" font-family="Helvetica,sans-Serif" font-size="10.00">halco/hicann&#45;dls/vx</text>
<text text-anchor="middle" x="1243.07" y="-76.5" font-family="Helvetica,sans-Serif" font-size="10.00">/synapse.h</text>
</a>
</g>
</g>
<!-- Node11&#45;&gt;Node14 -->
<g id="edge19" class="edge">
<title>Node11&#45;&gt;Node14</title>
<path fill="none" stroke="midnightblue" d="M868.75,-148.19C938.14,-140.62 1065.38,-125.26 1182.46,-102.2"/>
<polygon fill="midnightblue" stroke="midnightblue" points="1183.19,-105.63 1192.31,-100.24 1181.82,-98.76 1183.19,-105.63"/>
</g>
<!-- Node15 -->
<g id="node16" class="node">
<title>Node15</title>
<g id="a_node16"><a xlink:href="common_8h.html" target="_top" xlink:title=" ">
<polygon fill="white" stroke="black" points="786.9,-75.5 786.9,-95.5 891.24,-95.5 891.24,-75.5 786.9,-75.5"/>
<text text-anchor="middle" x="839.07" y="-82.5" font-family="Helvetica,sans-Serif" font-size="10.00">haldls/vx/common.h</text>
</a>
</g>
</g>
<!-- Node11&#45;&gt;Node15 -->
<g id="edge21" class="edge">
<title>Node11&#45;&gt;Node15</title>
<path fill="none" stroke="midnightblue" d="M820.04,-144.46C823.3,-134.53 828.63,-118.28 832.83,-105.52"/>
<polygon fill="midnightblue" stroke="midnightblue" points="836.22,-106.42 836.01,-95.82 829.57,-104.23 836.22,-106.42"/>
</g>
<!-- Node11&#45;&gt;Node19 -->
<g id="edge26" class="edge">
<title>Node11&#45;&gt;Node19</title>
<path fill="none" stroke="midnightblue" d="M777.15,-144.46C723.86,-132.4 629.45,-111.03 571.36,-97.88"/>
<polygon fill="midnightblue" stroke="midnightblue" points="571.83,-94.4 561.3,-95.61 570.28,-101.23 571.83,-94.4"/>
</g>
<!-- Node16 -->
<g id="node17" class="node">
<title>Node16</title>
<g id="a_node17"><a xlink:title=" ">
<polygon fill="white" stroke="#bfbfbf" points="848.01,-6.5 848.01,-26.5 910.13,-26.5 910.13,-6.5 848.01,-6.5"/>
<text text-anchor="middle" x="879.07" y="-13.5" font-family="Helvetica,sans-Serif" font-size="10.00">type_traits</text>
</a>
</g>
</g>
<!-- Node15&#45;&gt;Node16 -->
<g id="edge22" class="edge">
<title>Node15&#45;&gt;Node16</title>
<path fill="none" stroke="midnightblue" d="M844.47,-75.46C850.52,-65.33 860.49,-48.63 868.17,-35.75"/>
<polygon fill="midnightblue" stroke="midnightblue" points="871.38,-37.2 873.51,-26.82 865.37,-33.61 871.38,-37.2"/>
</g>
<!-- Node17 -->
<g id="node18" class="node">
<title>Node17</title>
<g id="a_node18"><a xlink:title=" ">
<polygon fill="white" stroke="#bfbfbf" points="927.68,-6.5 927.68,-26.5 966.46,-26.5 966.46,-6.5 927.68,-6.5"/>
<text text-anchor="middle" x="947.07" y="-13.5" font-family="Helvetica,sans-Serif" font-size="10.00">utility</text>
</a>
</g>
</g>
<!-- Node15&#45;&gt;Node17 -->
<g id="edge23" class="edge">
<title>Node15&#45;&gt;Node17</title>
<path fill="none" stroke="midnightblue" d="M853.64,-75.46C871.59,-64.33 902.34,-45.25 923.63,-32.04"/>
<polygon fill="midnightblue" stroke="midnightblue" points="925.74,-34.85 932.39,-26.61 922.05,-28.9 925.74,-34.85"/>
</g>
<!-- Node18 -->
<g id="node19" class="node">
<title>Node18</title>
<g id="a_node19"><a xlink:title=" ">
<polygon fill="white" stroke="#bfbfbf" points="984.45,-6.5 984.45,-26.5 1107.7,-26.5 1107.7,-6.5 984.45,-6.5"/>
<text text-anchor="middle" x="1046.07" y="-13.5" font-family="Helvetica,sans-Serif" font-size="10.00">fisch/vx/omnibus_data.h</text>
</a>
</g>
</g>
<!-- Node15&#45;&gt;Node18 -->
<g id="edge24" class="edge">
<title>Node15&#45;&gt;Node18</title>
<path fill="none" stroke="midnightblue" d="M866.99,-75.46C903.49,-63.65 967.56,-42.91 1008.35,-29.71"/>
<polygon fill="midnightblue" stroke="midnightblue" points="1009.5,-33.02 1017.94,-26.61 1007.34,-26.36 1009.5,-33.02"/>
</g>
<!-- Node19&#45;&gt;Node6 -->
<g id="edge30" class="edge">
<title>Node19&#45;&gt;Node6</title>
<path fill="none" stroke="midnightblue" d="M524.44,-75.46C528.15,-65.53 534.21,-49.28 538.98,-36.52"/>
<polygon fill="midnightblue" stroke="midnightblue" points="542.38,-37.42 542.59,-26.82 535.82,-34.97 542.38,-37.42"/>
</g>
<!-- Node19&#45;&gt;Node10 -->
<g id="edge29" class="edge">
<title>Node19&#45;&gt;Node10</title>
<path fill="none" stroke="midnightblue" d="M490.57,-75.43C481.76,-73.06 472.09,-70.7 463.07,-69 320.68,-42.22 282.38,-54.31 139.07,-33 130.02,-31.65 120.45,-30.04 111.15,-28.38"/>
<polygon fill="midnightblue" stroke="midnightblue" points="111.67,-24.91 101.2,-26.55 110.41,-31.8 111.67,-24.91"/>
</g>
<!-- Node19&#45;&gt;Node16 -->
<g id="edge27" class="edge">
<title>Node19&#45;&gt;Node16</title>
<path fill="none" stroke="midnightblue" d="M564.98,-78.48C639.43,-68.08 787.3,-46.57 838.07,-33 841.31,-32.14 844.64,-31.11 847.94,-30"/>
<polygon fill="midnightblue" stroke="midnightblue" points="849.4,-33.2 857.63,-26.53 847.04,-26.61 849.4,-33.2"/>
</g>
<!-- Node20 -->
<g id="node21" class="node">
<title>Node20</title>
<g id="a_node21"><a xlink:title=" ">
<polygon fill="white" stroke="#bfbfbf" points="276.45,-0.5 276.45,-32.5 369.69,-32.5 369.69,-0.5 276.45,-0.5"/>
<text text-anchor="start" x="284.45" y="-19.5" font-family="Helvetica,sans-Serif" font-size="10.00">fisch/vx/container</text>
<text text-anchor="middle" x="323.07" y="-7.5" font-family="Helvetica,sans-Serif" font-size="10.00">_fwd.h</text>
</a>
</g>
</g>
<!-- Node19&#45;&gt;Node20 -->
<g id="edge28" class="edge">
<title>Node19&#45;&gt;Node20</title>
<path fill="none" stroke="midnightblue" d="M494.37,-75.46C464.52,-65.37 415.4,-48.74 377.4,-35.88"/>
<polygon fill="midnightblue" stroke="midnightblue" points="378.09,-32.42 367.5,-32.53 375.85,-39.05 378.09,-32.42"/>
</g>
<!-- Node21 -->
<g id="node22" class="node">
<title>Node21</title>
<g id="a_node22"><a xlink:title=" ">
<polygon fill="white" stroke="#bfbfbf" points="387.67,-0.5 387.67,-32.5 486.47,-32.5 486.47,-0.5 387.67,-0.5"/>
<text text-anchor="start" x="395.67" y="-19.5" font-family="Helvetica,sans-Serif" font-size="10.00">boost/utility/enable</text>
<text text-anchor="middle" x="437.07" y="-7.5" font-family="Helvetica,sans-Serif" font-size="10.00">_if.hpp</text>
</a>
</g>
</g>
<!-- Node19&#45;&gt;Node21 -->
<g id="edge31" class="edge">
<title>Node19&#45;&gt;Node21</title>
<path fill="none" stroke="midnightblue" d="M509.74,-75.46C498.11,-66.18 479.56,-51.39 464.12,-39.07"/>
<polygon fill="midnightblue" stroke="midnightblue" points="465.92,-36.03 455.92,-32.53 461.55,-41.51 465.92,-36.03"/>
</g>
<!-- Node22 -->
<g id="node23" class="node">
<title>Node22</title>
<g id="a_node23"><a xlink:title=" ">
<polygon fill="white" stroke="#bfbfbf" points="148.12,-6.5 148.12,-26.5 258.03,-26.5 258.03,-6.5 148.12,-6.5"/>
<text text-anchor="middle" x="203.07" y="-13.5" font-family="Helvetica,sans-Serif" font-size="10.00">fisch/vx/container.def</text>
</a>
</g>
</g>
<!-- Node19&#45;&gt;Node22 -->
<g id="edge32" class="edge">
<title>Node19&#45;&gt;Node22</title>
<path fill="none" stroke="midnightblue" d="M488.97,-75.43C480.58,-73.2 471.51,-70.9 463.07,-69 376.66,-49.55 353.7,-51.43 267.07,-33 261.2,-31.75 255.04,-30.36 248.96,-28.94"/>
<polygon fill="midnightblue" stroke="midnightblue" points="249.41,-25.45 238.87,-26.54 247.79,-32.26 249.41,-25.45"/>
</g>
</g>
</svg>
        <g id="navigator" transform="translate(0 0)" fill="#404254">
                <rect fill="#f2f5e9" fill-opacity="0.5" stroke="#606060" stroke-width=".5" x="0" y="0" width="60" height="60"/>
                <use id="zoomplus" xlink:href="#zoomPlus" x="17" y="9" onmousedown="handleZoom(evt,'in')"/>
                <use id="zoomminus" xlink:href="#zoomMin" x="42" y="9" onmousedown="handleZoom(evt,'out')"/>
                <use id="reset" xlink:href="#resetDef" x="30" y="36" onmousedown="handleReset()"/>
                <g id="arrowUp" xlink:href="#dirArrow" transform="translate(30 24)" onmousedown="handlePan(0,-1)">
                  <use xlink:href="#rim" fill="#404040">
                        <set attributeName="fill" to="#808080" begin="arrowUp.mouseover" end="arrowUp.mouseout"/>
                  </use>
                  <path fill="none" stroke="white" stroke-width="1.5" d="M0,-3.0v7 M-2.5,-0.5L0,-3.0L2.5,-0.5"/>
                </g>
                <g id="arrowRight" xlink:href="#dirArrow" transform="rotate(90) translate(36 -43)" onmousedown="handlePan(1,0)">
                  <use xlink:href="#rim" fill="#404040">
                        <set attributeName="fill" to="#808080" begin="arrowRight.mouseover" end="arrowRight.mouseout"/>
                  </use>
                  <path fill="none" stroke="white" stroke-width="1.5" d="M0,-3.0v7 M-2.5,-0.5L0,-3.0L2.5,-0.5"/>
                </g>
                <g id="arrowDown" xlink:href="#dirArrow" transform="rotate(180) translate(-30 -48)" onmousedown="handlePan(0,1)">
                  <use xlink:href="#rim" fill="#404040">
                        <set attributeName="fill" to="#808080" begin="arrowDown.mouseover" end="arrowDown.mouseout"/>
                  </use>
                  <path fill="none" stroke="white" stroke-width="1.5" d="M0,-3.0v7 M-2.5,-0.5L0,-3.0L2.5,-0.5"/>
                </g>
                <g id="arrowLeft" xlink:href="#dirArrow" transform="rotate(270) translate(-36 17)" onmousedown="handlePan(-1,0)">
                  <use xlink:href="#rim" fill="#404040">
                        <set attributeName="fill" to="#808080" begin="arrowLeft.mouseover" end="arrowLeft.mouseout"/>
                  </use>
                  <path fill="none" stroke="white" stroke-width="1.5" d="M0,-3.0v7 M-2.5,-0.5L0,-3.0L2.5,-0.5"/>
                </g>
        </g>
        <svg viewBox="0 0 15 15" width="100%" height="30px" preserveAspectRatio="xMaxYMin meet">
         <g id="arrow_out" transform="scale(0.3 0.3)">
          <a xlink:href="padi_8h__incl_org.svg" target="_base">
           <rect id="button" ry="5" rx="5" y="6" x="6" height="38" width="38"
                fill="#f2f5e9" fill-opacity="0.5" stroke="#606060" stroke-width="1.0"/>
           <path id="arrow"
             d="M 11.500037,31.436501 C 11.940474,20.09759 22.043105,11.32322 32.158766,21.979434 L 37.068811,17.246167 C 37.068811,17.246167 37.088388,32 37.088388,32 L 22.160133,31.978069 C 22.160133,31.978069 26.997745,27.140456 26.997745,27.140456 C 18.528582,18.264221 13.291696,25.230495 11.500037,31.436501 z"
             style="fill:#404040;"/>
          </a>
         </g>
        </svg>
</svg>
