<?xml version="1.0" encoding="UTF-8" standalone="no"?>
<!DOCTYPE svg PUBLIC "-//W3C//DTD SVG 1.1//EN"
 "http://www.w3.org/Graphics/SVG/1.1/DTD/svg11.dtd">
<!-- Generated by graphviz version 2.43.0 (0)
 -->
<!-- Title: /jenkins/jenlib_workspaces_f9/bld_nightly&#45;haldls.YmxkX25pZ2h0bHktaGFsZGxzIzQ5Nw.x/haldls/include/haldls/v2/rate_counter.h Pages: 1 -->
<svg width="606pt" height="191pt"
 viewBox="0.00 0.00 606.47 191.00" xmlns="http://www.w3.org/2000/svg" xmlns:xlink="http://www.w3.org/1999/xlink">
<g id="graph0" class="graph" transform="scale(1 1) rotate(0) translate(4 187)">
<title>/jenkins/jenlib_workspaces_f9/bld_nightly&#45;haldls.YmxkX25pZ2h0bHktaGFsZGxzIzQ5Nw.x/haldls/include/haldls/v2/rate_counter.h</title>
<polygon fill="white" stroke="transparent" points="-4,4 -4,-187 602.47,-187 602.47,4 -4,4"/>
<!-- Node0 -->
<g id="node1" class="node">
<title>Node0</title>
<g id="a_node1"><a xlink:title=" ">
<polygon fill="#bfbfbf" stroke="black" points="196.17,-126.5 196.17,-182.5 376.08,-182.5 376.08,-126.5 196.17,-126.5"/>
<text text-anchor="start" x="204.17" y="-169.5" font-family="Helvetica,sans-Serif" font-size="10.00">/jenkins/jenlib_workspaces</text>
<text text-anchor="start" x="204.17" y="-157.5" font-family="Helvetica,sans-Serif" font-size="10.00">_f9/bld_nightly&#45;haldls.YmxkX25p</text>
<text text-anchor="start" x="204.17" y="-145.5" font-family="Helvetica,sans-Serif" font-size="10.00">Z2h0bHktaGFsZGxzIzQ5Nw.x/haldls</text>
<text text-anchor="middle" x="286.12" y="-133.5" font-family="Helvetica,sans-Serif" font-size="10.00">/include/haldls/v2/rate_counter.h</text>
</a>
</g>
</g>
<!-- Node1 -->
<g id="node2" class="node">
<title>Node1</title>
<g id="a_node2"><a xlink:title=" ">
<polygon fill="white" stroke="#bfbfbf" points="0,-57.5 0,-89.5 108.24,-89.5 108.24,-57.5 0,-57.5"/>
<text text-anchor="start" x="8" y="-76.5" font-family="Helvetica,sans-Serif" font-size="10.00">halco/common/typed</text>
<text text-anchor="middle" x="54.12" y="-64.5" font-family="Helvetica,sans-Serif" font-size="10.00">_array.h</text>
</a>
</g>
</g>
<!-- Node0&#45;&gt;Node1 -->
<g id="edge1" class="edge">
<title>Node0&#45;&gt;Node1</title>
<path fill="none" stroke="midnightblue" d="M206.61,-126.42C174.08,-115.35 137.29,-102.82 108,-92.85"/>
<polygon fill="midnightblue" stroke="midnightblue" points="108.97,-89.48 98.37,-89.57 106.71,-96.1 108.97,-89.48"/>
</g>
<!-- Node2 -->
<g id="node3" class="node">
<title>Node2</title>
<g id="a_node3"><a xlink:title=" ">
<polygon fill="white" stroke="#bfbfbf" points="126.34,-57.5 126.34,-89.5 227.91,-89.5 227.91,-57.5 126.34,-57.5"/>
<text text-anchor="start" x="134.34" y="-76.5" font-family="Helvetica,sans-Serif" font-size="10.00">halco/hicann&#45;dls/v2</text>
<text text-anchor="middle" x="177.12" y="-64.5" font-family="Helvetica,sans-Serif" font-size="10.00">/coordinates.h</text>
</a>
</g>
</g>
<!-- Node0&#45;&gt;Node2 -->
<g id="edge2" class="edge">
<title>Node0&#45;&gt;Node2</title>
<path fill="none" stroke="midnightblue" d="M248.61,-126.31C234.67,-116.21 219.08,-104.91 206.02,-95.45"/>
<polygon fill="midnightblue" stroke="midnightblue" points="208,-92.56 197.85,-89.52 203.9,-98.23 208,-92.56"/>
</g>
<!-- Node3 -->
<g id="node4" class="node">
<title>Node3</title>
<g id="a_node4"><a xlink:title=" ">
<polygon fill="white" stroke="#bfbfbf" points="245.62,-63.5 245.62,-83.5 326.63,-83.5 326.63,-63.5 245.62,-63.5"/>
<text text-anchor="middle" x="286.12" y="-70.5" font-family="Helvetica,sans-Serif" font-size="10.00">hate/visibility.h</text>
</a>
</g>
</g>
<!-- Node0&#45;&gt;Node3 -->
<g id="edge3" class="edge">
<title>Node0&#45;&gt;Node3</title>
<path fill="none" stroke="midnightblue" d="M286.12,-126.31C286.12,-115.66 286.12,-103.68 286.12,-93.93"/>
<polygon fill="midnightblue" stroke="midnightblue" points="289.62,-93.71 286.12,-83.71 282.62,-93.71 289.62,-93.71"/>
</g>
<!-- Node4 -->
<g id="node5" class="node">
<title>Node4</title>
<g id="a_node5"><a xlink:href="v2_2common_8h.html" target="_top" xlink:title=" ">
<polygon fill="white" stroke="black" points="344.67,-63.5 344.67,-83.5 449.57,-83.5 449.57,-63.5 344.67,-63.5"/>
<text text-anchor="middle" x="397.12" y="-70.5" font-family="Helvetica,sans-Serif" font-size="10.00">haldls/v2/common.h</text>
</a>
</g>
</g>
<!-- Node0&#45;&gt;Node4 -->
<g id="edge4" class="edge">
<title>Node0&#45;&gt;Node4</title>
<path fill="none" stroke="midnightblue" d="M324.32,-126.31C341.67,-113.97 361.52,-99.84 376.11,-89.46"/>
<polygon fill="midnightblue" stroke="midnightblue" points="378.32,-92.18 384.44,-83.53 374.26,-86.47 378.32,-92.18"/>
</g>
<!-- Node8 -->
<g id="node9" class="node">
<title>Node8</title>
<g id="a_node9"><a xlink:href="v2_2genpybind_8h.html" target="_top" xlink:title=" ">
<polygon fill="white" stroke="black" points="467.77,-63.5 467.77,-83.5 580.47,-83.5 580.47,-63.5 467.77,-63.5"/>
<text text-anchor="middle" x="524.12" y="-70.5" font-family="Helvetica,sans-Serif" font-size="10.00">haldls/v2/genpybind.h</text>
</a>
</g>
</g>
<!-- Node0&#45;&gt;Node8 -->
<g id="edge8" class="edge">
<title>Node0&#45;&gt;Node8</title>
<path fill="none" stroke="midnightblue" d="M367.7,-126.42C408.25,-112.96 455.26,-97.36 487.08,-86.8"/>
<polygon fill="midnightblue" stroke="midnightblue" points="488.46,-90.03 496.85,-83.55 486.25,-83.38 488.46,-90.03"/>
</g>
<!-- Node5 -->
<g id="node6" class="node">
<title>Node5</title>
<g id="a_node6"><a xlink:title=" ">
<polygon fill="white" stroke="#bfbfbf" points="302.68,-0.5 302.68,-20.5 347.57,-20.5 347.57,-0.5 302.68,-0.5"/>
<text text-anchor="middle" x="325.12" y="-7.5" font-family="Helvetica,sans-Serif" font-size="10.00">cstdint</text>
</a>
</g>
</g>
<!-- Node4&#45;&gt;Node5 -->
<g id="edge5" class="edge">
<title>Node4&#45;&gt;Node5</title>
<path fill="none" stroke="midnightblue" d="M386.5,-63.5C375.23,-53.95 357.2,-38.67 343.59,-27.15"/>
<polygon fill="midnightblue" stroke="midnightblue" points="345.68,-24.33 335.79,-20.54 341.16,-29.67 345.68,-24.33"/>
</g>
<!-- Node6 -->
<g id="node7" class="node">
<title>Node6</title>
<g id="a_node7"><a xlink:title=" ">
<polygon fill="white" stroke="#bfbfbf" points="366.06,-0.5 366.06,-20.5 428.18,-20.5 428.18,-0.5 366.06,-0.5"/>
<text text-anchor="middle" x="397.12" y="-7.5" font-family="Helvetica,sans-Serif" font-size="10.00">type_traits</text>
</a>
</g>
</g>
<!-- Node4&#45;&gt;Node6 -->
<g id="edge6" class="edge">
<title>Node4&#45;&gt;Node6</title>
<path fill="none" stroke="midnightblue" d="M397.12,-63.5C397.12,-54.94 397.12,-41.78 397.12,-30.85"/>
<polygon fill="midnightblue" stroke="midnightblue" points="400.62,-30.54 397.12,-20.54 393.62,-30.54 400.62,-30.54"/>
</g>
<!-- Node7 -->
<g id="node8" class="node">
<title>Node7</title>
<g id="a_node8"><a xlink:title=" ">
<polygon fill="white" stroke="#bfbfbf" points="445.74,-0.5 445.74,-20.5 484.51,-20.5 484.51,-0.5 445.74,-0.5"/>
<text text-anchor="middle" x="465.12" y="-7.5" font-family="Helvetica,sans-Serif" font-size="10.00">utility</text>
</a>
</g>
</g>
<!-- Node4&#45;&gt;Node7 -->
<g id="edge7" class="edge">
<title>Node4&#45;&gt;Node7</title>
<path fill="none" stroke="midnightblue" d="M407.16,-63.5C417.7,-54.04 434.51,-38.96 447.32,-27.47"/>
<polygon fill="midnightblue" stroke="midnightblue" points="449.94,-29.82 455.05,-20.54 445.27,-24.61 449.94,-29.82"/>
</g>
<!-- Node8&#45;&gt;Node8 -->
<g id="edge9" class="edge">
<title>Node8&#45;&gt;Node8</title>
<path fill="none" stroke="midnightblue" d="M552.74,-83.56C575.31,-87.45 598.47,-84.1 598.47,-73.5 598.47,-64.48 581.68,-60.71 562.75,-62.19"/>
<polygon fill="midnightblue" stroke="midnightblue" points="562.22,-58.73 552.74,-63.44 563.09,-65.67 562.22,-58.73"/>
</g>
</g>
</svg>
