<?xml version="1.0" encoding="UTF-8" standalone="no"?>
<!DOCTYPE svg PUBLIC "-//W3C//DTD SVG 1.1//EN"
 "http://www.w3.org/Graphics/SVG/1.1/DTD/svg11.dtd">
<!-- Generated by graphviz version 2.43.0 (0)
 -->
<!-- Title: /jenkins/jenlib_workspaces_f9/bld_nightly&#45;haldls.YmxkX25pZ2h0bHktaGFsZGxzIzcxMQ.x/haldls/include/haldls/vx/readout.h Pages: 1 -->
<svg width="1355pt" height="203pt"
 viewBox="0.00 0.00 1354.58 203.00" xmlns="http://www.w3.org/2000/svg" xmlns:xlink="http://www.w3.org/1999/xlink">
<g id="graph0" class="graph" transform="scale(1 1) rotate(0) translate(4 199)">
<title>/jenkins/jenlib_workspaces_f9/bld_nightly&#45;haldls.YmxkX25pZ2h0bHktaGFsZGxzIzcxMQ.x/haldls/include/haldls/vx/readout.h</title>
<polygon fill="white" stroke="transparent" points="-4,4 -4,-199 1350.58,-199 1350.58,4 -4,4"/>
<!-- Node0 -->
<g id="node1" class="node">
<title>Node0</title>
<g id="a_node1"><a xlink:title=" ">
<polygon fill="#bfbfbf" stroke="black" points="763.95,-138.5 763.95,-194.5 942.19,-194.5 942.19,-138.5 763.95,-138.5"/>
<text text-anchor="start" x="771.95" y="-181.5" font-family="Helvetica,sans-Serif" font-size="10.00">/jenkins/jenlib_workspaces</text>
<text text-anchor="start" x="771.95" y="-169.5" font-family="Helvetica,sans-Serif" font-size="10.00">_f9/bld_nightly&#45;haldls.YmxkX25p</text>
<text text-anchor="start" x="771.95" y="-157.5" font-family="Helvetica,sans-Serif" font-size="10.00">Z2h0bHktaGFsZGxzIzcxMQ.x/haldls</text>
<text text-anchor="middle" x="853.07" y="-145.5" font-family="Helvetica,sans-Serif" font-size="10.00">/include/haldls/vx/readout.h</text>
</a>
</g>
</g>
<!-- Node1 -->
<g id="node2" class="node">
<title>Node1</title>
<g id="a_node2"><a xlink:title=" ">
<polygon fill="white" stroke="#bfbfbf" points="684.9,-6.5 684.9,-26.5 729.24,-26.5 729.24,-6.5 684.9,-6.5"/>
<text text-anchor="middle" x="707.07" y="-13.5" font-family="Helvetica,sans-Serif" font-size="10.00">iosfwd</text>
</a>
</g>
</g>
<!-- Node0&#45;&gt;Node1 -->
<g id="edge1" class="edge">
<title>Node0&#45;&gt;Node1</title>
<path fill="none" stroke="midnightblue" d="M763.6,-145.76C741.08,-136.33 719.51,-122.44 706.07,-102 693.26,-82.52 696.74,-54.66 701.22,-36.33"/>
<polygon fill="midnightblue" stroke="midnightblue" points="704.64,-37.12 703.93,-26.55 697.89,-35.25 704.64,-37.12"/>
</g>
<!-- Node2 -->
<g id="node3" class="node">
<title>Node2</title>
<g id="a_node3"><a xlink:title=" ">
<polygon fill="white" stroke="#bfbfbf" points="880.95,-69.5 880.95,-101.5 989.19,-101.5 989.19,-69.5 880.95,-69.5"/>
<text text-anchor="start" x="888.95" y="-88.5" font-family="Helvetica,sans-Serif" font-size="10.00">halco/common/typed</text>
<text text-anchor="middle" x="935.07" y="-76.5" font-family="Helvetica,sans-Serif" font-size="10.00">_array.h</text>
</a>
</g>
</g>
<!-- Node0&#45;&gt;Node2 -->
<g id="edge2" class="edge">
<title>Node0&#45;&gt;Node2</title>
<path fill="none" stroke="midnightblue" d="M881.29,-138.31C891.38,-128.59 902.62,-117.77 912.2,-108.54"/>
<polygon fill="midnightblue" stroke="midnightblue" points="914.7,-110.98 919.48,-101.52 909.85,-105.94 914.7,-110.98"/>
</g>
<!-- Node3 -->
<g id="node4" class="node">
<title>Node3</title>
<g id="a_node4"><a xlink:title=" ">
<polygon fill="white" stroke="#bfbfbf" points="1007.56,-69.5 1007.56,-101.5 1108.58,-101.5 1108.58,-69.5 1007.56,-69.5"/>
<text text-anchor="start" x="1015.56" y="-88.5" font-family="Helvetica,sans-Serif" font-size="10.00">halco/hicann&#45;dls/vx</text>
<text text-anchor="middle" x="1058.07" y="-76.5" font-family="Helvetica,sans-Serif" font-size="10.00">/capmem.h</text>
</a>
</g>
</g>
<!-- Node0&#45;&gt;Node3 -->
<g id="edge3" class="edge">
<title>Node0&#45;&gt;Node3</title>
<path fill="none" stroke="midnightblue" d="M923.33,-138.42C951.7,-127.49 983.73,-115.15 1009.45,-105.24"/>
<polygon fill="midnightblue" stroke="midnightblue" points="1010.9,-108.43 1018.97,-101.57 1008.38,-101.9 1010.9,-108.43"/>
</g>
<!-- Node4 -->
<g id="node5" class="node">
<title>Node4</title>
<g id="a_node5"><a xlink:title=" ">
<polygon fill="white" stroke="#bfbfbf" points="1126.56,-69.5 1126.56,-101.5 1227.58,-101.5 1227.58,-69.5 1126.56,-69.5"/>
<text text-anchor="start" x="1134.56" y="-88.5" font-family="Helvetica,sans-Serif" font-size="10.00">halco/hicann&#45;dls/vx</text>
<text text-anchor="middle" x="1177.07" y="-76.5" font-family="Helvetica,sans-Serif" font-size="10.00">/chip.h</text>
</a>
</g>
</g>
<!-- Node0&#45;&gt;Node4 -->
<g id="edge4" class="edge">
<title>Node0&#45;&gt;Node4</title>
<path fill="none" stroke="midnightblue" d="M942.43,-144.6C991.35,-133.03 1053.29,-118.2 1116.77,-102.3"/>
<polygon fill="midnightblue" stroke="midnightblue" points="1117.71,-105.68 1126.56,-99.85 1116.01,-98.89 1117.71,-105.68"/>
</g>
<!-- Node5 -->
<g id="node6" class="node">
<title>Node5</title>
<g id="a_node6"><a xlink:title=" ">
<polygon fill="white" stroke="#bfbfbf" points="1245.56,-69.5 1245.56,-101.5 1346.58,-101.5 1346.58,-69.5 1245.56,-69.5"/>
<text text-anchor="start" x="1253.56" y="-88.5" font-family="Helvetica,sans-Serif" font-size="10.00">halco/hicann&#45;dls/vx</text>
<text text-anchor="middle" x="1296.07" y="-76.5" font-family="Helvetica,sans-Serif" font-size="10.00">/readout.h</text>
</a>
</g>
</g>
<!-- Node0&#45;&gt;Node5 -->
<g id="edge5" class="edge">
<title>Node0&#45;&gt;Node5</title>
<path fill="none" stroke="midnightblue" d="M942.36,-153.14C1018.1,-142.1 1129.78,-124.52 1235.42,-102.26"/>
<polygon fill="midnightblue" stroke="midnightblue" points="1236.24,-105.66 1245.29,-100.16 1234.79,-98.82 1236.24,-105.66"/>
</g>
<!-- Node6 -->
<g id="node7" class="node">
<title>Node6</title>
<g id="a_node7"><a xlink:href="cerealization_8h.html" target="_top" xlink:title=" ">
<polygon fill="white" stroke="black" points="715.4,-75.5 715.4,-95.5 824.75,-95.5 824.75,-75.5 715.4,-75.5"/>
<text text-anchor="middle" x="770.07" y="-82.5" font-family="Helvetica,sans-Serif" font-size="10.00">haldls/cerealization.h</text>
</a>
</g>
</g>
<!-- Node0&#45;&gt;Node6 -->
<g id="edge6" class="edge">
<title>Node0&#45;&gt;Node6</title>
<path fill="none" stroke="midnightblue" d="M824.51,-138.31C812.1,-126.5 797.98,-113.07 787.23,-102.83"/>
<polygon fill="midnightblue" stroke="midnightblue" points="789.41,-100.07 779.75,-95.71 784.58,-105.14 789.41,-100.07"/>
</g>
<!-- Node8 -->
<g id="node9" class="node">
<title>Node8</title>
<g id="a_node9"><a xlink:title=" ">
<polygon fill="white" stroke="#bfbfbf" points="927.57,-6.5 927.57,-26.5 1008.57,-26.5 1008.57,-6.5 927.57,-6.5"/>
<text text-anchor="middle" x="968.07" y="-13.5" font-family="Helvetica,sans-Serif" font-size="10.00">hate/visibility.h</text>
</a>
</g>
</g>
<!-- Node0&#45;&gt;Node8 -->
<g id="edge21" class="edge">
<title>Node0&#45;&gt;Node8</title>
<path fill="none" stroke="midnightblue" d="M852.37,-138.47C853.16,-117.62 857.26,-89.05 872.07,-69 885.6,-50.7 907.61,-38.23 927.15,-30.14"/>
<polygon fill="midnightblue" stroke="midnightblue" points="928.44,-33.4 936.49,-26.52 925.91,-26.87 928.44,-33.4"/>
</g>
<!-- Node11 -->
<g id="node12" class="node">
<title>Node11</title>
<g id="a_node12"><a xlink:href="genpybind_8h.html" target="_top" xlink:title=" ">
<polygon fill="white" stroke="black" points="0,-6.5 0,-26.5 112.14,-26.5 112.14,-6.5 0,-6.5"/>
<text text-anchor="middle" x="56.07" y="-13.5" font-family="Helvetica,sans-Serif" font-size="10.00">haldls/vx/genpybind.h</text>
</a>
</g>
</g>
<!-- Node0&#45;&gt;Node11 -->
<g id="edge12" class="edge">
<title>Node0&#45;&gt;Node11</title>
<path fill="none" stroke="midnightblue" d="M763.92,-157.34C666.55,-147.61 506.31,-129.16 370.07,-102 269.32,-81.91 153.15,-47.69 94.38,-29.57"/>
<polygon fill="midnightblue" stroke="midnightblue" points="95.36,-26.21 84.77,-26.6 93.29,-32.9 95.36,-26.21"/>
</g>
<!-- Node12 -->
<g id="node13" class="node">
<title>Node12</title>
<g id="a_node13"><a xlink:href="traits_8h.html" target="_top" xlink:title=" ">
<polygon fill="white" stroke="black" points="379.23,-75.5 379.23,-95.5 466.91,-95.5 466.91,-75.5 379.23,-75.5"/>
<text text-anchor="middle" x="423.07" y="-82.5" font-family="Helvetica,sans-Serif" font-size="10.00">haldls/vx/traits.h</text>
</a>
</g>
</g>
<!-- Node0&#45;&gt;Node12 -->
<g id="edge14" class="edge">
<title>Node0&#45;&gt;Node12</title>
<path fill="none" stroke="midnightblue" d="M763.71,-149.08C677.29,-133.21 549.14,-109.66 477.18,-96.44"/>
<polygon fill="midnightblue" stroke="midnightblue" points="477.45,-92.93 466.98,-94.57 476.18,-99.82 477.45,-92.93"/>
</g>
<!-- Node6&#45;&gt;Node1 -->
<g id="edge10" class="edge">
<title>Node6&#45;&gt;Node1</title>
<path fill="none" stroke="midnightblue" d="M761.58,-75.46C751.67,-64.93 735.1,-47.31 722.83,-34.26"/>
<polygon fill="midnightblue" stroke="midnightblue" points="725.24,-31.71 715.84,-26.82 720.14,-36.51 725.24,-31.71"/>
</g>
<!-- Node7 -->
<g id="node8" class="node">
<title>Node7</title>
<g id="a_node8"><a xlink:title=" ">
<polygon fill="white" stroke="#bfbfbf" points="583.45,-6.5 583.45,-26.5 666.69,-26.5 666.69,-6.5 583.45,-6.5"/>
<text text-anchor="middle" x="625.07" y="-13.5" font-family="Helvetica,sans-Serif" font-size="10.00">hate/type_list.h</text>
</a>
</g>
</g>
<!-- Node6&#45;&gt;Node7 -->
<g id="edge7" class="edge">
<title>Node6&#45;&gt;Node7</title>
<path fill="none" stroke="midnightblue" d="M750.52,-75.46C725.65,-63.98 682.52,-44.05 653.89,-30.82"/>
<polygon fill="midnightblue" stroke="midnightblue" points="655.33,-27.62 644.78,-26.61 652.39,-33.98 655.33,-27.62"/>
</g>
<!-- Node6&#45;&gt;Node8 -->
<g id="edge8" class="edge">
<title>Node6&#45;&gt;Node8</title>
<path fill="none" stroke="midnightblue" d="M796.77,-75.46C831.46,-63.73 892.19,-43.18 931.24,-29.96"/>
<polygon fill="midnightblue" stroke="midnightblue" points="932.81,-33.13 941.16,-26.61 930.56,-26.5 932.81,-33.13"/>
</g>
<!-- Node9 -->
<g id="node10" class="node">
<title>Node9</title>
<g id="a_node10"><a xlink:title=" ">
<polygon fill="white" stroke="#bfbfbf" points="747.62,-6.5 747.62,-26.5 792.52,-26.5 792.52,-6.5 747.62,-6.5"/>
<text text-anchor="middle" x="770.07" y="-13.5" font-family="Helvetica,sans-Serif" font-size="10.00">cstdint</text>
</a>
</g>
</g>
<!-- Node6&#45;&gt;Node9 -->
<g id="edge9" class="edge">
<title>Node6&#45;&gt;Node9</title>
<path fill="none" stroke="midnightblue" d="M770.07,-75.46C770.07,-65.63 770.07,-49.61 770.07,-36.9"/>
<polygon fill="midnightblue" stroke="midnightblue" points="773.57,-36.82 770.07,-26.82 766.57,-36.82 773.57,-36.82"/>
</g>
<!-- Node10 -->
<g id="node11" class="node">
<title>Node10</title>
<g id="a_node11"><a xlink:title=" ">
<polygon fill="white" stroke="#bfbfbf" points="810.95,-6.5 810.95,-26.5 909.19,-26.5 909.19,-6.5 810.95,-6.5"/>
<text text-anchor="middle" x="860.07" y="-13.5" font-family="Helvetica,sans-Serif" font-size="10.00">cereal/macros.hpp</text>
</a>
</g>
</g>
<!-- Node6&#45;&gt;Node10 -->
<g id="edge11" class="edge">
<title>Node6&#45;&gt;Node10</title>
<path fill="none" stroke="midnightblue" d="M782.21,-75.46C796.84,-64.57 821.65,-46.1 839.33,-32.94"/>
<polygon fill="midnightblue" stroke="midnightblue" points="841.91,-35.39 847.84,-26.61 837.73,-29.77 841.91,-35.39"/>
</g>
<!-- Node11&#45;&gt;Node11 -->
<g id="edge13" class="edge">
<title>Node11&#45;&gt;Node11</title>
<path fill="none" stroke="midnightblue" d="M79.97,-26.54C103.79,-32.26 130.14,-28.92 130.14,-16.5 130.14,-5.78 110.51,-1.82 89.81,-4.62"/>
<polygon fill="midnightblue" stroke="midnightblue" points="89.15,-1.18 79.97,-6.46 90.44,-8.06 89.15,-1.18"/>
</g>
<!-- Node12&#45;&gt;Node7 -->
<g id="edge18" class="edge">
<title>Node12&#45;&gt;Node7</title>
<path fill="none" stroke="midnightblue" d="M450.31,-75.46C485.86,-63.68 548.19,-43 588.01,-29.79"/>
<polygon fill="midnightblue" stroke="midnightblue" points="589.23,-33.08 597.62,-26.61 587.02,-26.43 589.23,-33.08"/>
</g>
<!-- Node12&#45;&gt;Node11 -->
<g id="edge17" class="edge">
<title>Node12&#45;&gt;Node11</title>
<path fill="none" stroke="midnightblue" d="M378.79,-76.54C322.9,-66.49 223.84,-48.6 139.07,-33 131.08,-31.53 122.65,-29.97 114.36,-28.42"/>
<polygon fill="midnightblue" stroke="midnightblue" points="114.81,-24.95 104.34,-26.56 113.53,-31.83 114.81,-24.95"/>
</g>
<!-- Node13 -->
<g id="node14" class="node">
<title>Node13</title>
<g id="a_node14"><a xlink:title=" ">
<polygon fill="white" stroke="#bfbfbf" points="392.01,-6.5 392.01,-26.5 454.13,-26.5 454.13,-6.5 392.01,-6.5"/>
<text text-anchor="middle" x="423.07" y="-13.5" font-family="Helvetica,sans-Serif" font-size="10.00">type_traits</text>
</a>
</g>
</g>
<!-- Node12&#45;&gt;Node13 -->
<g id="edge15" class="edge">
<title>Node12&#45;&gt;Node13</title>
<path fill="none" stroke="midnightblue" d="M423.07,-75.46C423.07,-65.63 423.07,-49.61 423.07,-36.9"/>
<polygon fill="midnightblue" stroke="midnightblue" points="426.57,-36.82 423.07,-26.82 419.57,-36.82 426.57,-36.82"/>
</g>
<!-- Node14 -->
<g id="node15" class="node">
<title>Node14</title>
<g id="a_node15"><a xlink:title=" ">
<polygon fill="white" stroke="#bfbfbf" points="472.45,-0.5 472.45,-32.5 565.69,-32.5 565.69,-0.5 472.45,-0.5"/>
<text text-anchor="start" x="480.45" y="-19.5" font-family="Helvetica,sans-Serif" font-size="10.00">fisch/vx/container</text>
<text text-anchor="middle" x="519.07" y="-7.5" font-family="Helvetica,sans-Serif" font-size="10.00">_fwd.h</text>
</a>
</g>
</g>
<!-- Node12&#45;&gt;Node14 -->
<g id="edge16" class="edge">
<title>Node12&#45;&gt;Node14</title>
<path fill="none" stroke="midnightblue" d="M436.02,-75.46C449.57,-66.01 471.3,-50.84 489.14,-38.39"/>
<polygon fill="midnightblue" stroke="midnightblue" points="491.33,-41.13 497.53,-32.53 487.33,-35.39 491.33,-41.13"/>
</g>
<!-- Node15 -->
<g id="node16" class="node">
<title>Node15</title>
<g id="a_node16"><a xlink:title=" ">
<polygon fill="white" stroke="#bfbfbf" points="147.67,-0.5 147.67,-32.5 246.47,-32.5 246.47,-0.5 147.67,-0.5"/>
<text text-anchor="start" x="155.67" y="-19.5" font-family="Helvetica,sans-Serif" font-size="10.00">boost/utility/enable</text>
<text text-anchor="middle" x="197.07" y="-7.5" font-family="Helvetica,sans-Serif" font-size="10.00">_if.hpp</text>
</a>
</g>
</g>
<!-- Node12&#45;&gt;Node15 -->
<g id="edge19" class="edge">
<title>Node12&#45;&gt;Node15</title>
<path fill="none" stroke="midnightblue" d="M392.59,-75.46C357.76,-65.14 299.91,-47.99 256.16,-35.02"/>
<polygon fill="midnightblue" stroke="midnightblue" points="257.07,-31.64 246.49,-32.15 255.08,-38.35 257.07,-31.64"/>
</g>
<!-- Node16 -->
<g id="node17" class="node">
<title>Node16</title>
<g id="a_node17"><a xlink:title=" ">
<polygon fill="white" stroke="#bfbfbf" points="264.12,-6.5 264.12,-26.5 374.03,-26.5 374.03,-6.5 264.12,-6.5"/>
<text text-anchor="middle" x="319.07" y="-13.5" font-family="Helvetica,sans-Serif" font-size="10.00">fisch/vx/container.def</text>
</a>
</g>
</g>
<!-- Node12&#45;&gt;Node16 -->
<g id="edge20" class="edge">
<title>Node12&#45;&gt;Node16</title>
<path fill="none" stroke="midnightblue" d="M409.05,-75.46C391.76,-64.33 362.15,-45.25 341.64,-32.04"/>
<polygon fill="midnightblue" stroke="midnightblue" points="343.51,-29.08 333.21,-26.61 339.72,-34.96 343.51,-29.08"/>
</g>
</g>
</svg>
