<?xml version="1.0" encoding="UTF-8" standalone="no"?>
<!DOCTYPE svg PUBLIC "-//W3C//DTD SVG 1.1//EN"
 "http://www.w3.org/Graphics/SVG/1.1/DTD/svg11.dtd">
<!-- Generated by graphviz version 2.43.0 (0)
 -->
<!-- Title: /jenkins/jenlib_workspaces_f9/bld_nightly&#45;haldls.YmxkX25pZ2h0bHktaGFsZGxzIzQ5Nw.x/haldls/include/haldls/v2/spike.h Pages: 1 -->
<svg width="677pt" height="248pt"
 viewBox="0.00 0.00 677.41 248.00" xmlns="http://www.w3.org/2000/svg" xmlns:xlink="http://www.w3.org/1999/xlink">
<g id="graph0" class="graph" transform="scale(1 1) rotate(0) translate(4 244)">
<title>/jenkins/jenlib_workspaces_f9/bld_nightly&#45;haldls.YmxkX25pZ2h0bHktaGFsZGxzIzQ5Nw.x/haldls/include/haldls/v2/spike.h</title>
<polygon fill="white" stroke="transparent" points="-4,4 -4,-244 673.41,-244 673.41,4 -4,4"/>
<!-- Node0 -->
<g id="node1" class="node">
<title>Node0</title>
<g id="a_node1"><a xlink:title=" ">
<polygon fill="#bfbfbf" stroke="black" points="180.1,-183.5 180.1,-239.5 360.01,-239.5 360.01,-183.5 180.1,-183.5"/>
<text text-anchor="start" x="188.1" y="-226.5" font-family="Helvetica,sans-Serif" font-size="10.00">/jenkins/jenlib_workspaces</text>
<text text-anchor="start" x="188.1" y="-214.5" font-family="Helvetica,sans-Serif" font-size="10.00">_f9/bld_nightly&#45;haldls.YmxkX25p</text>
<text text-anchor="start" x="188.1" y="-202.5" font-family="Helvetica,sans-Serif" font-size="10.00">Z2h0bHktaGFsZGxzIzQ5Nw.x/haldls</text>
<text text-anchor="middle" x="270.06" y="-190.5" font-family="Helvetica,sans-Serif" font-size="10.00">/include/haldls/v2/spike.h</text>
</a>
</g>
</g>
<!-- Node1 -->
<g id="node2" class="node">
<title>Node1</title>
<g id="a_node2"><a xlink:title=" ">
<polygon fill="white" stroke="#bfbfbf" points="0,-63.5 0,-83.5 52.11,-83.5 52.11,-63.5 0,-63.5"/>
<text text-anchor="middle" x="26.06" y="-70.5" font-family="Helvetica,sans-Serif" font-size="10.00">ostream</text>
</a>
</g>
</g>
<!-- Node0&#45;&gt;Node1 -->
<g id="edge1" class="edge">
<title>Node0&#45;&gt;Node1</title>
<path fill="none" stroke="midnightblue" d="M221.56,-183.47C170.22,-154.85 91.2,-110.81 51.16,-88.49"/>
<polygon fill="midnightblue" stroke="midnightblue" points="52.76,-85.38 42.32,-83.56 49.35,-91.49 52.76,-85.38"/>
</g>
<!-- Node2 -->
<g id="node3" class="node">
<title>Node2</title>
<g id="a_node3"><a xlink:title=" ">
<polygon fill="white" stroke="#bfbfbf" points="70.27,-57.5 70.27,-89.5 171.84,-89.5 171.84,-57.5 70.27,-57.5"/>
<text text-anchor="start" x="78.27" y="-76.5" font-family="Helvetica,sans-Serif" font-size="10.00">halco/hicann&#45;dls/v2</text>
<text text-anchor="middle" x="121.06" y="-64.5" font-family="Helvetica,sans-Serif" font-size="10.00">/coordinates.h</text>
</a>
</g>
</g>
<!-- Node0&#45;&gt;Node2 -->
<g id="edge2" class="edge">
<title>Node0&#45;&gt;Node2</title>
<path fill="none" stroke="midnightblue" d="M240.26,-183.31C212.4,-157.88 171.3,-120.36 145.37,-96.69"/>
<polygon fill="midnightblue" stroke="midnightblue" points="147.59,-93.98 137.84,-89.82 142.87,-99.15 147.59,-93.98"/>
</g>
<!-- Node3 -->
<g id="node4" class="node">
<title>Node3</title>
<g id="a_node4"><a xlink:title=" ">
<polygon fill="white" stroke="#bfbfbf" points="189.55,-63.5 189.55,-83.5 270.56,-83.5 270.56,-63.5 189.55,-63.5"/>
<text text-anchor="middle" x="230.06" y="-70.5" font-family="Helvetica,sans-Serif" font-size="10.00">hate/visibility.h</text>
</a>
</g>
</g>
<!-- Node0&#45;&gt;Node3 -->
<g id="edge3" class="edge">
<title>Node0&#45;&gt;Node3</title>
<path fill="none" stroke="midnightblue" d="M260.69,-183.43C256.91,-172.2 252.62,-159.02 249.06,-147 243.76,-129.1 238.43,-108.5 234.77,-93.84"/>
<polygon fill="midnightblue" stroke="midnightblue" points="238.12,-92.81 232.33,-83.94 231.33,-94.48 238.12,-92.81"/>
</g>
<!-- Node4 -->
<g id="node5" class="node">
<title>Node4</title>
<g id="a_node5"><a xlink:href="v2_2common_8h.html" target="_top" xlink:title=" ">
<polygon fill="white" stroke="black" points="415.6,-63.5 415.6,-83.5 520.51,-83.5 520.51,-63.5 415.6,-63.5"/>
<text text-anchor="middle" x="468.06" y="-70.5" font-family="Helvetica,sans-Serif" font-size="10.00">haldls/v2/common.h</text>
</a>
</g>
</g>
<!-- Node0&#45;&gt;Node4 -->
<g id="edge4" class="edge">
<title>Node0&#45;&gt;Node4</title>
<path fill="none" stroke="midnightblue" d="M314.8,-183.44C332.53,-172.45 352.96,-159.42 371.06,-147 398.56,-128.12 429.24,-104.79 448.59,-89.78"/>
<polygon fill="midnightblue" stroke="midnightblue" points="450.89,-92.42 456.63,-83.51 446.59,-86.9 450.89,-92.42"/>
</g>
<!-- Node8 -->
<g id="node9" class="node">
<title>Node8</title>
<g id="a_node9"><a xlink:href="v2_2synapse_8h.html" target="_top" xlink:title=" ">
<polygon fill="white" stroke="black" points="258.15,-126.5 258.15,-146.5 361.96,-146.5 361.96,-126.5 258.15,-126.5"/>
<text text-anchor="middle" x="310.06" y="-133.5" font-family="Helvetica,sans-Serif" font-size="10.00">haldls/v2/synapse.h</text>
</a>
</g>
</g>
<!-- Node0&#45;&gt;Node8 -->
<g id="edge8" class="edge">
<title>Node0&#45;&gt;Node8</title>
<path fill="none" stroke="midnightblue" d="M284.95,-183.32C290.06,-173.99 295.65,-163.8 300.25,-155.4"/>
<polygon fill="midnightblue" stroke="midnightblue" points="303.38,-156.98 305.11,-146.52 297.24,-153.61 303.38,-156.98"/>
</g>
<!-- Node10 -->
<g id="node11" class="node">
<title>Node10</title>
<g id="a_node11"><a xlink:href="v2_2genpybind_8h.html" target="_top" xlink:title=" ">
<polygon fill="white" stroke="black" points="538.71,-63.5 538.71,-83.5 651.41,-83.5 651.41,-63.5 538.71,-63.5"/>
<text text-anchor="middle" x="595.06" y="-70.5" font-family="Helvetica,sans-Serif" font-size="10.00">haldls/v2/genpybind.h</text>
</a>
</g>
</g>
<!-- Node0&#45;&gt;Node10 -->
<g id="edge16" class="edge">
<title>Node0&#45;&gt;Node10</title>
<path fill="none" stroke="midnightblue" d="M334.66,-183.47C404.04,-154.43 511.4,-109.51 563.95,-87.52"/>
<polygon fill="midnightblue" stroke="midnightblue" points="565.52,-90.65 573.4,-83.56 562.82,-84.2 565.52,-90.65"/>
</g>
<!-- Node5 -->
<g id="node6" class="node">
<title>Node5</title>
<g id="a_node6"><a xlink:title=" ">
<polygon fill="white" stroke="#bfbfbf" points="373.61,-0.5 373.61,-20.5 418.5,-20.5 418.5,-0.5 373.61,-0.5"/>
<text text-anchor="middle" x="396.06" y="-7.5" font-family="Helvetica,sans-Serif" font-size="10.00">cstdint</text>
</a>
</g>
</g>
<!-- Node4&#45;&gt;Node5 -->
<g id="edge5" class="edge">
<title>Node4&#45;&gt;Node5</title>
<path fill="none" stroke="midnightblue" d="M457.43,-63.5C446.16,-53.95 428.13,-38.67 414.53,-27.15"/>
<polygon fill="midnightblue" stroke="midnightblue" points="416.62,-24.33 406.72,-20.54 412.09,-29.67 416.62,-24.33"/>
</g>
<!-- Node6 -->
<g id="node7" class="node">
<title>Node6</title>
<g id="a_node7"><a xlink:title=" ">
<polygon fill="white" stroke="#bfbfbf" points="437,-0.5 437,-20.5 499.12,-20.5 499.12,-0.5 437,-0.5"/>
<text text-anchor="middle" x="468.06" y="-7.5" font-family="Helvetica,sans-Serif" font-size="10.00">type_traits</text>
</a>
</g>
</g>
<!-- Node4&#45;&gt;Node6 -->
<g id="edge6" class="edge">
<title>Node4&#45;&gt;Node6</title>
<path fill="none" stroke="midnightblue" d="M468.06,-63.5C468.06,-54.94 468.06,-41.78 468.06,-30.85"/>
<polygon fill="midnightblue" stroke="midnightblue" points="471.56,-30.54 468.06,-20.54 464.56,-30.54 471.56,-30.54"/>
</g>
<!-- Node7 -->
<g id="node8" class="node">
<title>Node7</title>
<g id="a_node8"><a xlink:title=" ">
<polygon fill="white" stroke="#bfbfbf" points="516.67,-0.5 516.67,-20.5 555.44,-20.5 555.44,-0.5 516.67,-0.5"/>
<text text-anchor="middle" x="536.06" y="-7.5" font-family="Helvetica,sans-Serif" font-size="10.00">utility</text>
</a>
</g>
</g>
<!-- Node4&#45;&gt;Node7 -->
<g id="edge7" class="edge">
<title>Node4&#45;&gt;Node7</title>
<path fill="none" stroke="midnightblue" d="M478.09,-63.5C488.64,-54.04 505.44,-38.96 518.25,-27.47"/>
<polygon fill="midnightblue" stroke="midnightblue" points="520.88,-29.82 525.98,-20.54 516.2,-24.61 520.88,-29.82"/>
</g>
<!-- Node8&#45;&gt;Node1 -->
<g id="edge9" class="edge">
<title>Node8&#45;&gt;Node1</title>
<path fill="none" stroke="midnightblue" d="M257.7,-129.59C206.71,-122.98 127.41,-110.44 61.06,-90 58.61,-89.25 56.11,-88.37 53.63,-87.42"/>
<polygon fill="midnightblue" stroke="midnightblue" points="54.85,-84.14 44.27,-83.54 52.17,-90.61 54.85,-84.14"/>
</g>
<!-- Node8&#45;&gt;Node2 -->
<g id="edge11" class="edge">
<title>Node8&#45;&gt;Node2</title>
<path fill="none" stroke="midnightblue" d="M282.17,-126.5C254.79,-117.66 212.22,-103.92 177.72,-92.79"/>
<polygon fill="midnightblue" stroke="midnightblue" points="178.35,-89.31 167.76,-89.57 176.2,-95.97 178.35,-89.31"/>
</g>
<!-- Node8&#45;&gt;Node3 -->
<g id="edge12" class="edge">
<title>Node8&#45;&gt;Node3</title>
<path fill="none" stroke="midnightblue" d="M298.25,-126.5C285.61,-116.86 265.32,-101.39 250.15,-89.82"/>
<polygon fill="midnightblue" stroke="midnightblue" points="251.98,-86.82 241.91,-83.54 247.74,-92.38 251.98,-86.82"/>
</g>
<!-- Node8&#45;&gt;Node4 -->
<g id="edge13" class="edge">
<title>Node8&#45;&gt;Node4</title>
<path fill="none" stroke="midnightblue" d="M333.37,-126.5C360.33,-116.09 404.88,-98.89 435.31,-87.14"/>
<polygon fill="midnightblue" stroke="midnightblue" points="436.58,-90.4 444.65,-83.54 434.06,-83.87 436.58,-90.4"/>
</g>
<!-- Node9 -->
<g id="node10" class="node">
<title>Node9</title>
<g id="a_node10"><a xlink:title=" ">
<polygon fill="white" stroke="#bfbfbf" points="288.93,-57.5 288.93,-89.5 397.18,-89.5 397.18,-57.5 288.93,-57.5"/>
<text text-anchor="start" x="296.93" y="-76.5" font-family="Helvetica,sans-Serif" font-size="10.00">halco/common/typed</text>
<text text-anchor="middle" x="343.06" y="-64.5" font-family="Helvetica,sans-Serif" font-size="10.00">_array.h</text>
</a>
</g>
</g>
<!-- Node8&#45;&gt;Node9 -->
<g id="edge10" class="edge">
<title>Node8&#45;&gt;Node9</title>
<path fill="none" stroke="midnightblue" d="M314.93,-126.5C318.89,-119.17 324.69,-108.46 329.99,-98.66"/>
<polygon fill="midnightblue" stroke="midnightblue" points="333.16,-100.15 334.84,-89.69 327,-96.82 333.16,-100.15"/>
</g>
<!-- Node8&#45;&gt;Node10 -->
<g id="edge14" class="edge">
<title>Node8&#45;&gt;Node10</title>
<path fill="none" stroke="midnightblue" d="M355.43,-126.43C399.77,-117.48 469.15,-103.26 529.06,-90 534.95,-88.7 541.12,-87.29 547.24,-85.88"/>
<polygon fill="midnightblue" stroke="midnightblue" points="548.45,-89.19 557.4,-83.52 546.87,-82.38 548.45,-89.19"/>
</g>
<!-- Node10&#45;&gt;Node10 -->
<g id="edge15" class="edge">
<title>Node10&#45;&gt;Node10</title>
<path fill="none" stroke="midnightblue" d="M623.67,-83.56C646.25,-87.45 669.41,-84.1 669.41,-73.5 669.41,-64.48 652.61,-60.71 633.68,-62.19"/>
<polygon fill="midnightblue" stroke="midnightblue" points="633.16,-58.73 623.67,-63.44 634.03,-65.67 633.16,-58.73"/>
</g>
</g>
</svg>
