<?xml version="1.0" encoding="UTF-8" standalone="no"?>
<!DOCTYPE svg PUBLIC "-//W3C//DTD SVG 1.1//EN"
 "http://www.w3.org/Graphics/SVG/1.1/DTD/svg11.dtd">
<!-- Generated by graphviz version 2.43.0 (0)
 -->
<!-- Title: /jenkins/jenlib_workspaces_f9/bld_nightly&#45;haldls.YmxkX25pZ2h0bHktaGFsZGxzIzcxMQ.x/haldls/include/haldls/vx/sram_controller.h Pages: 1 -->
<svg width="1215pt" height="191pt"
 viewBox="0.00 0.00 1214.50 191.00" xmlns="http://www.w3.org/2000/svg" xmlns:xlink="http://www.w3.org/1999/xlink">
<g id="graph0" class="graph" transform="scale(1 1) rotate(0) translate(4 187)">
<title>/jenkins/jenlib_workspaces_f9/bld_nightly&#45;haldls.YmxkX25pZ2h0bHktaGFsZGxzIzcxMQ.x/haldls/include/haldls/vx/sram_controller.h</title>
<polygon fill="white" stroke="transparent" points="-4,4 -4,-187 1210.5,-187 1210.5,4 -4,4"/>
<!-- Node0 -->
<g id="node1" class="node">
<title>Node0</title>
<g id="a_node1"><a xlink:title=" ">
<polygon fill="#bfbfbf" stroke="black" points="695.27,-126.5 695.27,-182.5 873.51,-182.5 873.51,-126.5 695.27,-126.5"/>
<text text-anchor="start" x="703.27" y="-169.5" font-family="Helvetica,sans-Serif" font-size="10.00">/jenkins/jenlib_workspaces</text>
<text text-anchor="start" x="703.27" y="-157.5" font-family="Helvetica,sans-Serif" font-size="10.00">_f9/bld_nightly&#45;haldls.YmxkX25p</text>
<text text-anchor="start" x="703.27" y="-145.5" font-family="Helvetica,sans-Serif" font-size="10.00">Z2h0bHktaGFsZGxzIzcxMQ.x/haldls</text>
<text text-anchor="middle" x="784.39" y="-133.5" font-family="Helvetica,sans-Serif" font-size="10.00">/include/haldls/vx/sram_controller.h</text>
</a>
</g>
</g>
<!-- Node1 -->
<g id="node2" class="node">
<title>Node1</title>
<g id="a_node2"><a xlink:href="cerealization_8h.html" target="_top" xlink:title=" ">
<polygon fill="white" stroke="black" points="869.71,-69.5 869.71,-89.5 979.06,-89.5 979.06,-69.5 869.71,-69.5"/>
<text text-anchor="middle" x="924.39" y="-76.5" font-family="Helvetica,sans-Serif" font-size="10.00">haldls/cerealization.h</text>
</a>
</g>
</g>
<!-- Node0&#45;&gt;Node1 -->
<g id="edge1" class="edge">
<title>Node0&#45;&gt;Node1</title>
<path fill="none" stroke="midnightblue" d="M836.52,-126.32C857.51,-115.37 880.8,-103.23 898.12,-94.2"/>
<polygon fill="midnightblue" stroke="midnightblue" points="899.83,-97.25 907.08,-89.52 896.59,-91.04 899.83,-97.25"/>
</g>
<!-- Node3 -->
<g id="node4" class="node">
<title>Node3</title>
<g id="a_node4"><a xlink:title=" ">
<polygon fill="white" stroke="#bfbfbf" points="883.88,-6.5 883.88,-26.5 964.89,-26.5 964.89,-6.5 883.88,-6.5"/>
<text text-anchor="middle" x="924.39" y="-13.5" font-family="Helvetica,sans-Serif" font-size="10.00">hate/visibility.h</text>
</a>
</g>
</g>
<!-- Node0&#45;&gt;Node3 -->
<g id="edge21" class="edge">
<title>Node0&#45;&gt;Node3</title>
<path fill="none" stroke="midnightblue" d="M806.96,-126.22C821.56,-109.14 841.33,-87.04 860.39,-69 874.02,-56.1 890.55,-42.85 903.4,-33.02"/>
<polygon fill="midnightblue" stroke="midnightblue" points="905.75,-35.63 911.62,-26.81 901.53,-30.04 905.75,-35.63"/>
</g>
<!-- Node7 -->
<g id="node8" class="node">
<title>Node7</title>
<g id="a_node8"><a xlink:href="common_8h.html" target="_top" xlink:title=" ">
<polygon fill="white" stroke="black" points="122.21,-69.5 122.21,-89.5 226.56,-89.5 226.56,-69.5 122.21,-69.5"/>
<text text-anchor="middle" x="174.39" y="-76.5" font-family="Helvetica,sans-Serif" font-size="10.00">haldls/vx/common.h</text>
</a>
</g>
</g>
<!-- Node0&#45;&gt;Node7 -->
<g id="edge7" class="edge">
<title>Node0&#45;&gt;Node7</title>
<path fill="none" stroke="midnightblue" d="M695.03,-142.81C569.85,-127.83 345.42,-100.97 236.75,-87.96"/>
<polygon fill="midnightblue" stroke="midnightblue" points="236.94,-84.46 226.6,-86.75 236.11,-91.41 236.94,-84.46"/>
</g>
<!-- Node11 -->
<g id="node12" class="node">
<title>Node11</title>
<g id="a_node12"><a xlink:href="genpybind_8h.html" target="_top" xlink:title=" ">
<polygon fill="white" stroke="black" points="634.32,-6.5 634.32,-26.5 746.46,-26.5 746.46,-6.5 634.32,-6.5"/>
<text text-anchor="middle" x="690.39" y="-13.5" font-family="Helvetica,sans-Serif" font-size="10.00">haldls/vx/genpybind.h</text>
</a>
</g>
</g>
<!-- Node0&#45;&gt;Node11 -->
<g id="edge11" class="edge">
<title>Node0&#45;&gt;Node11</title>
<path fill="none" stroke="midnightblue" d="M765.59,-126.31C746.85,-99.19 718.61,-58.34 702.6,-35.18"/>
<polygon fill="midnightblue" stroke="midnightblue" points="705.31,-32.93 696.74,-26.69 699.55,-36.91 705.31,-32.93"/>
</g>
<!-- Node12 -->
<g id="node13" class="node">
<title>Node12</title>
<g id="a_node13"><a xlink:href="traits_8h.html" target="_top" xlink:title=" ">
<polygon fill="white" stroke="black" points="517.55,-69.5 517.55,-89.5 605.22,-89.5 605.22,-69.5 517.55,-69.5"/>
<text text-anchor="middle" x="561.39" y="-76.5" font-family="Helvetica,sans-Serif" font-size="10.00">haldls/vx/traits.h</text>
</a>
</g>
</g>
<!-- Node0&#45;&gt;Node12 -->
<g id="edge13" class="edge">
<title>Node0&#45;&gt;Node12</title>
<path fill="none" stroke="midnightblue" d="M701.67,-126.42C666.34,-114.86 626.88,-101.94 598.83,-92.76"/>
<polygon fill="midnightblue" stroke="midnightblue" points="599.63,-89.34 589.04,-89.55 597.45,-95.99 599.63,-89.34"/>
</g>
<!-- Node16 -->
<g id="node17" class="node">
<title>Node16</title>
<g id="a_node17"><a xlink:title=" ">
<polygon fill="white" stroke="#bfbfbf" points="996.99,-69.5 996.99,-89.5 1065.79,-89.5 1065.79,-69.5 996.99,-69.5"/>
<text text-anchor="middle" x="1031.39" y="-76.5" font-family="Helvetica,sans-Serif" font-size="10.00">hate/math.h</text>
</a>
</g>
</g>
<!-- Node0&#45;&gt;Node16 -->
<g id="edge20" class="edge">
<title>Node0&#45;&gt;Node16</title>
<path fill="none" stroke="midnightblue" d="M873.56,-127.15C913.71,-115.28 959.12,-101.86 990.89,-92.47"/>
<polygon fill="midnightblue" stroke="midnightblue" points="992.1,-95.76 1000.7,-89.57 990.12,-89.05 992.1,-95.76"/>
</g>
<!-- Node2 -->
<g id="node3" class="node">
<title>Node2</title>
<g id="a_node3"><a xlink:title=" ">
<polygon fill="white" stroke="#bfbfbf" points="782.76,-6.5 782.76,-26.5 866.01,-26.5 866.01,-6.5 782.76,-6.5"/>
<text text-anchor="middle" x="824.39" y="-13.5" font-family="Helvetica,sans-Serif" font-size="10.00">hate/type_list.h</text>
</a>
</g>
</g>
<!-- Node1&#45;&gt;Node2 -->
<g id="edge2" class="edge">
<title>Node1&#45;&gt;Node2</title>
<path fill="none" stroke="midnightblue" d="M909.63,-69.5C893.38,-59.59 867.03,-43.51 847.93,-31.86"/>
<polygon fill="midnightblue" stroke="midnightblue" points="849.56,-28.76 839.2,-26.54 845.92,-34.73 849.56,-28.76"/>
</g>
<!-- Node1&#45;&gt;Node3 -->
<g id="edge3" class="edge">
<title>Node1&#45;&gt;Node3</title>
<path fill="none" stroke="midnightblue" d="M924.39,-69.5C924.39,-60.94 924.39,-47.78 924.39,-36.85"/>
<polygon fill="midnightblue" stroke="midnightblue" points="927.89,-36.54 924.39,-26.54 920.89,-36.54 927.89,-36.54"/>
</g>
<!-- Node4 -->
<g id="node5" class="node">
<title>Node4</title>
<g id="a_node5"><a xlink:title=" ">
<polygon fill="white" stroke="#bfbfbf" points="982.94,-6.5 982.94,-26.5 1027.83,-26.5 1027.83,-6.5 982.94,-6.5"/>
<text text-anchor="middle" x="1005.39" y="-13.5" font-family="Helvetica,sans-Serif" font-size="10.00">cstdint</text>
</a>
</g>
</g>
<!-- Node1&#45;&gt;Node4 -->
<g id="edge4" class="edge">
<title>Node1&#45;&gt;Node4</title>
<path fill="none" stroke="midnightblue" d="M936.34,-69.5C949.14,-59.86 969.69,-44.39 985.04,-32.82"/>
<polygon fill="midnightblue" stroke="midnightblue" points="987.5,-35.35 993.39,-26.54 983.29,-29.76 987.5,-35.35"/>
</g>
<!-- Node5 -->
<g id="node6" class="node">
<title>Node5</title>
<g id="a_node6"><a xlink:title=" ">
<polygon fill="white" stroke="#bfbfbf" points="1046.22,-6.5 1046.22,-26.5 1090.55,-26.5 1090.55,-6.5 1046.22,-6.5"/>
<text text-anchor="middle" x="1068.39" y="-13.5" font-family="Helvetica,sans-Serif" font-size="10.00">iosfwd</text>
</a>
</g>
</g>
<!-- Node1&#45;&gt;Node5 -->
<g id="edge5" class="edge">
<title>Node1&#45;&gt;Node5</title>
<path fill="none" stroke="midnightblue" d="M948.17,-69.36C970.98,-60.47 1006.28,-46.39 1036.39,-33 1037.94,-32.31 1039.53,-31.59 1041.12,-30.85"/>
<polygon fill="midnightblue" stroke="midnightblue" points="1042.66,-34 1050.21,-26.56 1039.67,-27.67 1042.66,-34"/>
</g>
<!-- Node6 -->
<g id="node7" class="node">
<title>Node6</title>
<g id="a_node7"><a xlink:title=" ">
<polygon fill="white" stroke="#bfbfbf" points="1108.27,-6.5 1108.27,-26.5 1206.5,-26.5 1206.5,-6.5 1108.27,-6.5"/>
<text text-anchor="middle" x="1157.39" y="-13.5" font-family="Helvetica,sans-Serif" font-size="10.00">cereal/macros.hpp</text>
</a>
</g>
</g>
<!-- Node1&#45;&gt;Node6 -->
<g id="edge6" class="edge">
<title>Node1&#45;&gt;Node6</title>
<path fill="none" stroke="midnightblue" d="M959.6,-69.42C994.95,-60.28 1050.97,-45.76 1099.39,-33 1104.05,-31.77 1108.93,-30.48 1113.79,-29.19"/>
<polygon fill="midnightblue" stroke="midnightblue" points="1114.9,-32.51 1123.66,-26.55 1113.1,-25.75 1114.9,-32.51"/>
</g>
<!-- Node8 -->
<g id="node9" class="node">
<title>Node8</title>
<g id="a_node9"><a xlink:title=" ">
<polygon fill="white" stroke="#bfbfbf" points="198.33,-6.5 198.33,-26.5 260.45,-26.5 260.45,-6.5 198.33,-6.5"/>
<text text-anchor="middle" x="229.39" y="-13.5" font-family="Helvetica,sans-Serif" font-size="10.00">type_traits</text>
</a>
</g>
</g>
<!-- Node7&#45;&gt;Node8 -->
<g id="edge8" class="edge">
<title>Node7&#45;&gt;Node8</title>
<path fill="none" stroke="midnightblue" d="M182.5,-69.5C190.87,-60.22 204.11,-45.53 214.39,-34.13"/>
<polygon fill="midnightblue" stroke="midnightblue" points="217.14,-36.31 221.24,-26.54 211.94,-31.62 217.14,-36.31"/>
</g>
<!-- Node9 -->
<g id="node10" class="node">
<title>Node9</title>
<g id="a_node10"><a xlink:title=" ">
<polygon fill="white" stroke="#bfbfbf" points="0,-6.5 0,-26.5 38.77,-26.5 38.77,-6.5 0,-6.5"/>
<text text-anchor="middle" x="19.39" y="-13.5" font-family="Helvetica,sans-Serif" font-size="10.00">utility</text>
</a>
</g>
</g>
<!-- Node7&#45;&gt;Node9 -->
<g id="edge9" class="edge">
<title>Node7&#45;&gt;Node9</title>
<path fill="none" stroke="midnightblue" d="M144.85,-69.42C118.77,-61.05 79.93,-47.72 47.39,-33 46.22,-32.47 45.04,-31.91 43.85,-31.33"/>
<polygon fill="midnightblue" stroke="midnightblue" points="45.34,-28.17 34.86,-26.65 42.1,-34.37 45.34,-28.17"/>
</g>
<!-- Node10 -->
<g id="node11" class="node">
<title>Node10</title>
<g id="a_node11"><a xlink:title=" ">
<polygon fill="white" stroke="#bfbfbf" points="56.76,-6.5 56.76,-26.5 180.01,-26.5 180.01,-6.5 56.76,-6.5"/>
<text text-anchor="middle" x="118.39" y="-13.5" font-family="Helvetica,sans-Serif" font-size="10.00">fisch/vx/omnibus_data.h</text>
</a>
</g>
</g>
<!-- Node7&#45;&gt;Node10 -->
<g id="edge10" class="edge">
<title>Node7&#45;&gt;Node10</title>
<path fill="none" stroke="midnightblue" d="M166.12,-69.5C157.6,-60.22 144.12,-45.53 133.66,-34.13"/>
<polygon fill="midnightblue" stroke="midnightblue" points="136.02,-31.54 126.68,-26.54 130.87,-36.27 136.02,-31.54"/>
</g>
<!-- Node11&#45;&gt;Node11 -->
<g id="edge12" class="edge">
<title>Node11&#45;&gt;Node11</title>
<path fill="none" stroke="midnightblue" d="M718.89,-26.56C741.38,-30.45 764.46,-27.1 764.46,-16.5 764.46,-7.48 747.72,-3.71 728.87,-5.19"/>
<polygon fill="midnightblue" stroke="midnightblue" points="728.38,-1.72 718.89,-6.44 729.25,-8.67 728.38,-1.72"/>
</g>
<!-- Node12&#45;&gt;Node2 -->
<g id="edge17" class="edge">
<title>Node12&#45;&gt;Node2</title>
<path fill="none" stroke="midnightblue" d="M605.49,-70.15C648.55,-61.74 715.81,-47.9 773.39,-33 777.57,-31.92 781.92,-30.71 786.25,-29.47"/>
<polygon fill="midnightblue" stroke="midnightblue" points="787.58,-32.72 796.18,-26.53 785.6,-26.01 787.58,-32.72"/>
</g>
<!-- Node12&#45;&gt;Node8 -->
<g id="edge14" class="edge">
<title>Node12&#45;&gt;Node8</title>
<path fill="none" stroke="midnightblue" d="M517.24,-74.61C459.52,-68.84 355.61,-56.13 269.39,-33 266.22,-32.15 262.96,-31.14 259.74,-30.04"/>
<polygon fill="midnightblue" stroke="midnightblue" points="260.87,-26.73 250.28,-26.57 258.46,-33.3 260.87,-26.73"/>
</g>
<!-- Node12&#45;&gt;Node11 -->
<g id="edge16" class="edge">
<title>Node12&#45;&gt;Node11</title>
<path fill="none" stroke="midnightblue" d="M580.42,-69.5C601.95,-59.32 637.24,-42.63 662.02,-30.91"/>
<polygon fill="midnightblue" stroke="midnightblue" points="663.73,-33.98 671.27,-26.54 660.74,-27.65 663.73,-33.98"/>
</g>
<!-- Node13 -->
<g id="node14" class="node">
<title>Node13</title>
<g id="a_node14"><a xlink:title=" ">
<polygon fill="white" stroke="#bfbfbf" points="278.77,-0.5 278.77,-32.5 372.01,-32.5 372.01,-0.5 278.77,-0.5"/>
<text text-anchor="start" x="286.77" y="-19.5" font-family="Helvetica,sans-Serif" font-size="10.00">fisch/vx/container</text>
<text text-anchor="middle" x="325.39" y="-7.5" font-family="Helvetica,sans-Serif" font-size="10.00">_fwd.h</text>
</a>
</g>
</g>
<!-- Node12&#45;&gt;Node13 -->
<g id="edge15" class="edge">
<title>Node12&#45;&gt;Node13</title>
<path fill="none" stroke="midnightblue" d="M524.44,-69.42C490.07,-60.91 437.19,-47.68 382.07,-33.15"/>
<polygon fill="midnightblue" stroke="midnightblue" points="382.68,-29.69 372.12,-30.52 380.89,-36.46 382.68,-29.69"/>
</g>
<!-- Node14 -->
<g id="node15" class="node">
<title>Node14</title>
<g id="a_node15"><a xlink:title=" ">
<polygon fill="white" stroke="#bfbfbf" points="389.99,-0.5 389.99,-32.5 488.79,-32.5 488.79,-0.5 389.99,-0.5"/>
<text text-anchor="start" x="397.99" y="-19.5" font-family="Helvetica,sans-Serif" font-size="10.00">boost/utility/enable</text>
<text text-anchor="middle" x="439.39" y="-7.5" font-family="Helvetica,sans-Serif" font-size="10.00">_if.hpp</text>
</a>
</g>
</g>
<!-- Node12&#45;&gt;Node14 -->
<g id="edge18" class="edge">
<title>Node12&#45;&gt;Node14</title>
<path fill="none" stroke="midnightblue" d="M543.39,-69.5C526.45,-61.03 500.52,-48.07 478.79,-37.2"/>
<polygon fill="midnightblue" stroke="midnightblue" points="480.28,-34.03 469.77,-32.69 477.15,-40.29 480.28,-34.03"/>
</g>
<!-- Node15 -->
<g id="node16" class="node">
<title>Node15</title>
<g id="a_node16"><a xlink:title=" ">
<polygon fill="white" stroke="#bfbfbf" points="506.43,-6.5 506.43,-26.5 616.34,-26.5 616.34,-6.5 506.43,-6.5"/>
<text text-anchor="middle" x="561.39" y="-13.5" font-family="Helvetica,sans-Serif" font-size="10.00">fisch/vx/container.def</text>
</a>
</g>
</g>
<!-- Node12&#45;&gt;Node15 -->
<g id="edge19" class="edge">
<title>Node12&#45;&gt;Node15</title>
<path fill="none" stroke="midnightblue" d="M561.39,-69.5C561.39,-60.94 561.39,-47.78 561.39,-36.85"/>
<polygon fill="midnightblue" stroke="midnightblue" points="564.89,-36.54 561.39,-26.54 557.89,-36.54 564.89,-36.54"/>
</g>
</g>
</svg>
