<?xml version="1.0" encoding="UTF-8" standalone="no"?>
<!DOCTYPE svg PUBLIC "-//W3C//DTD SVG 1.1//EN"
 "http://www.w3.org/Graphics/SVG/1.1/DTD/svg11.dtd">
<!-- Generated by graphviz version 2.43.0 (0)
 -->
<!-- Title: haldls::detail::BackendContainerTrait&lt; CapMemBlockConfig &gt; Pages: 1 -->
<svg width="380pt" height="65pt"
 viewBox="0.00 0.00 380.22 65.00" xmlns="http://www.w3.org/2000/svg" xmlns:xlink="http://www.w3.org/1999/xlink">
<g id="graph0" class="graph" transform="scale(1 1) rotate(0) translate(4 61)">
<title>haldls::detail::BackendContainerTrait&lt; CapMemBlockConfig &gt;</title>
<polygon fill="white" stroke="transparent" points="-4,4 -4,-61 376.22,-61 376.22,4 -4,4"/>
<!-- Node2 -->
<g id="node1" class="node">
<title>Node2</title>
<g id="a_node1"><a xlink:title=" ">
<polygon fill="#bfbfbf" stroke="black" points="212.85,-12.5 212.85,-44.5 372.22,-44.5 372.22,-12.5 212.85,-12.5"/>
<text text-anchor="start" x="220.85" y="-31.5" font-family="Helvetica,sans-Serif" font-size="10.00">haldls::detail::BackendContainer</text>
<text text-anchor="middle" x="292.54" y="-19.5" font-family="Helvetica,sans-Serif" font-size="10.00">Trait&lt; CapMemBlockConfig &gt;</text>
</a>
</g>
</g>
<!-- Node3 -->
<g id="node2" class="node">
<title>Node3</title>
<g id="a_node2"><a xlink:title=" ">
<polygon fill="white" stroke="#bfbfbf" points="0,-0.5 0,-56.5 176.85,-56.5 176.85,-0.5 0,-0.5"/>
<text text-anchor="start" x="8" y="-43.5" font-family="Helvetica,sans-Serif" font-size="10.00">BackendContainerBase</text>
<text text-anchor="start" x="8" y="-31.5" font-family="Helvetica,sans-Serif" font-size="10.00">&lt; CapMemBlockConfig,</text>
<text text-anchor="start" x="8" y="-19.5" font-family="Helvetica,sans-Serif" font-size="10.00"> fisch::vx::OmnibusChip,</text>
<text text-anchor="middle" x="88.43" y="-7.5" font-family="Helvetica,sans-Serif" font-size="10.00"> fisch::vx::OmnibusChipOverJTAG &gt;</text>
</a>
</g>
</g>
<!-- Node3&#45;&gt;Node2 -->
<g id="edge1" class="edge">
<title>Node3&#45;&gt;Node2</title>
<path fill="none" stroke="midnightblue" d="M187.03,-28.5C195.68,-28.5 204.37,-28.5 212.84,-28.5"/>
<polygon fill="midnightblue" stroke="midnightblue" points="186.9,-25 176.9,-28.5 186.9,-32 186.9,-25"/>
</g>
</g>
</svg>
