<?xml version="1.0" encoding="UTF-8" standalone="no"?>
<!DOCTYPE svg PUBLIC "-//W3C//DTD SVG 1.1//EN"
 "http://www.w3.org/Graphics/SVG/1.1/DTD/svg11.dtd">
<!-- Generated by graphviz version 2.43.0 (0)
 -->
<!-- Title: haldls::vx::detail::BackendContainerTrait&lt; v1::ReferenceGeneratorConfig &gt; Pages: 1 -->
<svg width="774pt" height="79pt"
 viewBox="0.00 0.00 774.44 78.50" xmlns="http://www.w3.org/2000/svg" xmlns:xlink="http://www.w3.org/1999/xlink">
<g id="graph0" class="graph" transform="scale(1 1) rotate(0) translate(4 74.5)">
<title>haldls::vx::detail::BackendContainerTrait&lt; v1::ReferenceGeneratorConfig &gt;</title>
<polygon fill="white" stroke="transparent" points="-4,4 -4,-74.5 770.44,-74.5 770.44,4 -4,4"/>
<!-- Node0 -->
<g id="node1" class="node">
<title>Node0</title>
<g id="a_node1"><a xlink:title=" ">
<polygon fill="#bfbfbf" stroke="black" points="597.06,-12.5 597.06,-56.5 766.44,-56.5 766.44,-12.5 597.06,-12.5"/>
<text text-anchor="start" x="605.06" y="-43.5" font-family="Helvetica,sans-Serif" font-size="10.00">haldls::vx::detail</text>
<text text-anchor="start" x="605.06" y="-31.5" font-family="Helvetica,sans-Serif" font-size="10.00">::BackendContainerTrait</text>
<text text-anchor="middle" x="681.75" y="-19.5" font-family="Helvetica,sans-Serif" font-size="10.00">&lt; v1::ReferenceGeneratorConfig &gt;</text>
</a>
</g>
</g>
<!-- Node1 -->
<g id="node2" class="node">
<title>Node1</title>
<g id="a_node2"><a xlink:href="structhaldls_1_1vx_1_1detail_1_1_backend_container_base.html" target="_top" xlink:title=" ">
<polygon fill="white" stroke="black" points="396.52,-0.5 396.52,-68.5 560.06,-68.5 560.06,-0.5 396.52,-0.5"/>
<text text-anchor="start" x="404.52" y="-55.5" font-family="Helvetica,sans-Serif" font-size="10.00">haldls::vx::detail</text>
<text text-anchor="start" x="404.52" y="-43.5" font-family="Helvetica,sans-Serif" font-size="10.00">::BackendContainerBase</text>
<text text-anchor="start" x="404.52" y="-31.5" font-family="Helvetica,sans-Serif" font-size="10.00">&lt; v1::ReferenceGeneratorConfig,</text>
<text text-anchor="start" x="404.52" y="-19.5" font-family="Helvetica,sans-Serif" font-size="10.00"> fisch::vx::Omnibus, fisch</text>
<text text-anchor="middle" x="478.29" y="-7.5" font-family="Helvetica,sans-Serif" font-size="10.00">::vx::OmnibusChipOverJTAG &gt;</text>
</a>
</g>
</g>
<!-- Node1&#45;&gt;Node0 -->
<g id="edge1" class="edge">
<title>Node1&#45;&gt;Node0</title>
<path fill="none" stroke="midnightblue" d="M570.11,-34.5C579.06,-34.5 588.11,-34.5 596.99,-34.5"/>
<polygon fill="midnightblue" stroke="midnightblue" points="570.07,-31 560.07,-34.5 570.07,-38 570.07,-31"/>
</g>
<!-- Node2 -->
<g id="node3" class="node">
<title>Node2</title>
<g id="a_node3"><a xlink:href="structhaldls_1_1vx_1_1detail_1_1_backend_container_base.html" target="_top" xlink:title="Backend container trait base.">
<polygon fill="white" stroke="black" points="0,-6.5 0,-62.5 199.66,-62.5 199.66,-6.5 0,-6.5"/>
<text text-anchor="start" x="8" y="-49.5" font-family="Helvetica,sans-Serif" font-size="10.00">haldls::vx::detail</text>
<text text-anchor="start" x="8" y="-37.5" font-family="Helvetica,sans-Serif" font-size="10.00">::BackendContainerBase</text>
<text text-anchor="start" x="8" y="-25.5" font-family="Helvetica,sans-Serif" font-size="10.00">&lt; ContainerT, DefaultBackend</text>
<text text-anchor="middle" x="99.83" y="-13.5" font-family="Helvetica,sans-Serif" font-size="10.00">Container, AdditionalBackendContainer &gt;</text>
</a>
</g>
</g>
<!-- Node2&#45;&gt;Node1 -->
<g id="edge2" class="edge">
<title>Node2&#45;&gt;Node1</title>
<path fill="none" stroke="orange" stroke-dasharray="5,2" d="M209.94,-34.5C269.51,-34.5 342.01,-34.5 396.47,-34.5"/>
<polygon fill="orange" stroke="orange" points="209.74,-31 199.74,-34.5 209.74,-38 209.74,-31"/>
<text text-anchor="start" x="217.66" y="-61.5" font-family="Helvetica,sans-Serif" font-size="10.00"> &lt; v1::ReferenceGenerator</text>
<text text-anchor="start" x="217.66" y="-49.5" font-family="Helvetica,sans-Serif" font-size="10.00">Config, fisch::vx::Omnibus,</text>
<text text-anchor="middle" x="298.09" y="-37.5" font-family="Helvetica,sans-Serif" font-size="10.00"> fisch::vx::OmnibusChipOverJTAG &gt;</text>
</g>
</g>
</svg>
