<?xml version="1.0" encoding="UTF-8" standalone="no"?>
<!DOCTYPE svg PUBLIC "-//W3C//DTD SVG 1.1//EN"
 "http://www.w3.org/Graphics/SVG/1.1/DTD/svg11.dtd">
<!-- Generated by graphviz version 2.43.0 (0)
 -->
<!-- Title: haldls::vx::detail::BackendContainerTrait&lt; PLLSelfTestStatus &gt; Pages: 1 -->
<svg width="685pt" height="73pt"
 viewBox="0.00 0.00 684.66 72.50" xmlns="http://www.w3.org/2000/svg" xmlns:xlink="http://www.w3.org/1999/xlink">
<g id="graph0" class="graph" transform="scale(1 1) rotate(0) translate(4 68.5)">
<title>haldls::vx::detail::BackendContainerTrait&lt; PLLSelfTestStatus &gt;</title>
<polygon fill="white" stroke="transparent" points="-4,4 -4,-68.5 680.66,-68.5 680.66,4 -4,4"/>
<!-- Node0 -->
<g id="node1" class="node">
<title>Node0</title>
<g id="a_node1"><a xlink:title=" ">
<polygon fill="#bfbfbf" stroke="black" points="552.86,-6.5 552.86,-50.5 676.66,-50.5 676.66,-6.5 552.86,-6.5"/>
<text text-anchor="start" x="560.86" y="-37.5" font-family="Helvetica,sans-Serif" font-size="10.00">haldls::vx::detail</text>
<text text-anchor="start" x="560.86" y="-25.5" font-family="Helvetica,sans-Serif" font-size="10.00">::BackendContainerTrait</text>
<text text-anchor="middle" x="614.76" y="-13.5" font-family="Helvetica,sans-Serif" font-size="10.00">&lt; PLLSelfTestStatus &gt;</text>
</a>
</g>
</g>
<!-- Node1 -->
<g id="node2" class="node">
<title>Node1</title>
<g id="a_node2"><a xlink:href="structhaldls_1_1vx_1_1detail_1_1BackendContainerBase.html" target="_top" xlink:title=" ">
<polygon fill="white" stroke="black" points="362.34,-0.5 362.34,-56.5 515.86,-56.5 515.86,-0.5 362.34,-0.5"/>
<text text-anchor="start" x="370.34" y="-43.5" font-family="Helvetica,sans-Serif" font-size="10.00">haldls::vx::detail</text>
<text text-anchor="start" x="370.34" y="-31.5" font-family="Helvetica,sans-Serif" font-size="10.00">::BackendContainerBase</text>
<text text-anchor="start" x="370.34" y="-19.5" font-family="Helvetica,sans-Serif" font-size="10.00">&lt; PLLSelfTestStatus, fisch</text>
<text text-anchor="middle" x="439.1" y="-7.5" font-family="Helvetica,sans-Serif" font-size="10.00">::vx::OmnibusChipOverJTAG &gt;</text>
</a>
</g>
</g>
<!-- Node1&#45;&gt;Node0 -->
<g id="edge1" class="edge">
<title>Node1&#45;&gt;Node0</title>
<path fill="none" stroke="midnightblue" d="M526.1,-28.5C535.04,-28.5 544,-28.5 552.6,-28.5"/>
<polygon fill="midnightblue" stroke="midnightblue" points="526.02,-25 516.02,-28.5 526.02,-32 526.02,-25"/>
</g>
<!-- Node2 -->
<g id="node3" class="node">
<title>Node2</title>
<g id="a_node3"><a xlink:href="structhaldls_1_1vx_1_1detail_1_1BackendContainerBase.html" target="_top" xlink:title="Backend container trait base.">
<polygon fill="white" stroke="black" points="0,-0.5 0,-56.5 199.66,-56.5 199.66,-0.5 0,-0.5"/>
<text text-anchor="start" x="8" y="-43.5" font-family="Helvetica,sans-Serif" font-size="10.00">haldls::vx::detail</text>
<text text-anchor="start" x="8" y="-31.5" font-family="Helvetica,sans-Serif" font-size="10.00">::BackendContainerBase</text>
<text text-anchor="start" x="8" y="-19.5" font-family="Helvetica,sans-Serif" font-size="10.00">&lt; ContainerT, DefaultBackend</text>
<text text-anchor="middle" x="99.83" y="-7.5" font-family="Helvetica,sans-Serif" font-size="10.00">Container, AdditionalBackendContainer &gt;</text>
</a>
</g>
</g>
<!-- Node2&#45;&gt;Node1 -->
<g id="edge2" class="edge">
<title>Node2&#45;&gt;Node1</title>
<path fill="none" stroke="orange" stroke-dasharray="5,2" d="M209.91,-28.5C259.65,-28.5 317.33,-28.5 362.25,-28.5"/>
<polygon fill="orange" stroke="orange" points="209.74,-25 199.74,-28.5 209.74,-32 209.74,-25"/>
<text text-anchor="start" x="217.66" y="-55.5" font-family="Helvetica,sans-Serif" font-size="10.00"> &lt; PLLSelfTestStatus,</text>
<text text-anchor="start" x="217.66" y="-43.5" font-family="Helvetica,sans-Serif" font-size="10.00"> fisch::vx::OmnibusChipOver</text>
<text text-anchor="middle" x="281" y="-31.5" font-family="Helvetica,sans-Serif" font-size="10.00">JTAG &gt;</text>
</g>
</g>
</svg>
