<?xml version="1.0" encoding="UTF-8" standalone="no"?>
<!DOCTYPE svg PUBLIC "-//W3C//DTD SVG 1.1//EN"
 "http://www.w3.org/Graphics/SVG/1.1/DTD/svg11.dtd">
<!-- Generated by graphviz version 2.43.0 (0)
 -->
<!-- Title: haldls::v2::CapMemConfig::PrescalePause Pages: 1 -->
<svg width="168pt" height="122pt"
 viewBox="0.00 0.00 167.64 122.00" xmlns="http://www.w3.org/2000/svg" xmlns:xlink="http://www.w3.org/1999/xlink">
<g id="graph0" class="graph" transform="scale(1 1) rotate(0) translate(4 118)">
<title>haldls::v2::CapMemConfig::PrescalePause</title>
<polygon fill="white" stroke="transparent" points="-4,4 -4,-118 163.64,-118 163.64,4 -4,4"/>
<!-- Node0 -->
<g id="node1" class="node">
<title>Node0</title>
<g id="a_node1"><a xlink:title=" ">
<polygon fill="#bfbfbf" stroke="black" points="13.2,-0.5 13.2,-32.5 146.44,-32.5 146.44,-0.5 13.2,-0.5"/>
<text text-anchor="start" x="21.2" y="-19.5" font-family="Helvetica,sans-Serif" font-size="10.00">haldls::v2::CapMemConfig</text>
<text text-anchor="middle" x="79.82" y="-7.5" font-family="Helvetica,sans-Serif" font-size="10.00">::PrescalePause</text>
</a>
</g>
</g>
<!-- Node1 -->
<g id="node2" class="node">
<title>Node1</title>
<g id="a_node2"><a xlink:title=" ">
<polygon fill="white" stroke="#bfbfbf" points="0,-69.5 0,-113.5 159.64,-113.5 159.64,-69.5 0,-69.5"/>
<text text-anchor="start" x="8" y="-100.5" font-family="Helvetica,sans-Serif" font-size="10.00">halco::common::detail</text>
<text text-anchor="start" x="8" y="-88.5" font-family="Helvetica,sans-Serif" font-size="10.00">::RantWrapper&lt; PrescalePause,</text>
<text text-anchor="middle" x="79.82" y="-76.5" font-family="Helvetica,sans-Serif" font-size="10.00"> uint_fast16_t, 6, 0 &gt;</text>
</a>
</g>
</g>
<!-- Node1&#45;&gt;Node0 -->
<g id="edge1" class="edge">
<title>Node1&#45;&gt;Node0</title>
<path fill="none" stroke="midnightblue" d="M79.82,-59.26C79.82,-50 79.82,-40.27 79.82,-32.54"/>
<polygon fill="midnightblue" stroke="midnightblue" points="76.32,-59.39 79.82,-69.39 83.32,-59.39 76.32,-59.39"/>
</g>
</g>
</svg>
