<?xml version="1.0" encoding="UTF-8" standalone="no"?>
<!DOCTYPE svg PUBLIC "-//W3C//DTD SVG 1.1//EN"
 "http://www.w3.org/Graphics/SVG/1.1/DTD/svg11.dtd">
<!-- Generated by graphviz version 2.43.0 (0)
 -->
<!-- Title: haldls::ReferenceGeneratorConfig::ResistorControl Pages: 1 -->
<svg width="169pt" height="122pt"
 viewBox="0.00 0.00 169.29 122.00" xmlns="http://www.w3.org/2000/svg" xmlns:xlink="http://www.w3.org/1999/xlink">
<g id="graph0" class="graph" transform="scale(1 1) rotate(0) translate(4 118)">
<title>haldls::ReferenceGeneratorConfig::ResistorControl</title>
<polygon fill="white" stroke="transparent" points="-4,4 -4,-118 165.29,-118 165.29,4 -4,4"/>
<!-- Node0 -->
<g id="node1" class="node">
<title>Node0</title>
<g id="a_node1"><a xlink:title=" ">
<polygon fill="#bfbfbf" stroke="black" points="11.24,-0.5 11.24,-32.5 150.05,-32.5 150.05,-0.5 11.24,-0.5"/>
<text text-anchor="start" x="19.24" y="-19.5" font-family="Helvetica,sans-Serif" font-size="10.00">haldls::ReferenceGenerator</text>
<text text-anchor="middle" x="80.65" y="-7.5" font-family="Helvetica,sans-Serif" font-size="10.00">Config::ResistorControl</text>
</a>
</g>
</g>
<!-- Node1 -->
<g id="node2" class="node">
<title>Node1</title>
<g id="a_node2"><a xlink:title=" ">
<polygon fill="white" stroke="#bfbfbf" points="0,-69.5 0,-113.5 161.29,-113.5 161.29,-69.5 0,-69.5"/>
<text text-anchor="start" x="8" y="-100.5" font-family="Helvetica,sans-Serif" font-size="10.00">halco::common::detail</text>
<text text-anchor="start" x="8" y="-88.5" font-family="Helvetica,sans-Serif" font-size="10.00">::RantWrapper&lt; ResistorControl,</text>
<text text-anchor="middle" x="80.65" y="-76.5" font-family="Helvetica,sans-Serif" font-size="10.00"> uint_fast8_t, 63, 0 &gt;</text>
</a>
</g>
</g>
<!-- Node1&#45;&gt;Node0 -->
<g id="edge1" class="edge">
<title>Node1&#45;&gt;Node0</title>
<path fill="none" stroke="midnightblue" d="M80.65,-59.26C80.65,-50 80.65,-40.27 80.65,-32.54"/>
<polygon fill="midnightblue" stroke="midnightblue" points="77.15,-59.39 80.65,-69.39 84.15,-59.39 77.15,-59.39"/>
</g>
</g>
</svg>
