<?xml version="1.0" encoding="UTF-8" standalone="no"?>
<!DOCTYPE svg PUBLIC "-//W3C//DTD SVG 1.1//EN"
 "http://www.w3.org/Graphics/SVG/1.1/DTD/svg11.dtd">
<!-- Generated by graphviz version 2.43.0 (0)
 -->
<!-- Title: haldls::vx::detail::BackendContainerTrait&lt; PollingOmnibusBlockConfig &gt; Pages: 1 -->
<svg width="726pt" height="65pt"
 viewBox="0.00 0.00 725.52 65.00" xmlns="http://www.w3.org/2000/svg" xmlns:xlink="http://www.w3.org/1999/xlink">
<g id="graph0" class="graph" transform="scale(1 1) rotate(0) translate(4 61)">
<title>haldls::vx::detail::BackendContainerTrait&lt; PollingOmnibusBlockConfig &gt;</title>
<polygon fill="white" stroke="transparent" points="-4,4 -4,-61 721.52,-61 721.52,4 -4,4"/>
<!-- Node0 -->
<g id="node1" class="node">
<title>Node0</title>
<g id="a_node1"><a xlink:title=" ">
<polygon fill="#bfbfbf" stroke="black" points="560.93,-6.5 560.93,-50.5 717.52,-50.5 717.52,-6.5 560.93,-6.5"/>
<text text-anchor="start" x="568.93" y="-37.5" font-family="Helvetica,sans-Serif" font-size="10.00">haldls::vx::detail</text>
<text text-anchor="start" x="568.93" y="-25.5" font-family="Helvetica,sans-Serif" font-size="10.00">::BackendContainerTrait</text>
<text text-anchor="middle" x="639.22" y="-13.5" font-family="Helvetica,sans-Serif" font-size="10.00">&lt; PollingOmnibusBlockConfig &gt;</text>
</a>
</g>
</g>
<!-- Node1 -->
<g id="node2" class="node">
<title>Node1</title>
<g id="a_node2"><a xlink:href="structhaldls_1_1vx_1_1detail_1_1_backend_container_base.html" target="_top" xlink:title=" ">
<polygon fill="white" stroke="black" points="373.19,-0.5 373.19,-56.5 523.93,-56.5 523.93,-0.5 373.19,-0.5"/>
<text text-anchor="start" x="381.19" y="-43.5" font-family="Helvetica,sans-Serif" font-size="10.00">haldls::vx::detail</text>
<text text-anchor="start" x="381.19" y="-31.5" font-family="Helvetica,sans-Serif" font-size="10.00">::BackendContainerBase</text>
<text text-anchor="start" x="381.19" y="-19.5" font-family="Helvetica,sans-Serif" font-size="10.00">&lt; PollingOmnibusBlockConfig,</text>
<text text-anchor="middle" x="448.56" y="-7.5" font-family="Helvetica,sans-Serif" font-size="10.00"> fisch::vx::Omnibus &gt;</text>
</a>
</g>
</g>
<!-- Node1&#45;&gt;Node0 -->
<g id="edge1" class="edge">
<title>Node1&#45;&gt;Node0</title>
<path fill="none" stroke="midnightblue" d="M534.38,-28.5C543.18,-28.5 552.08,-28.5 560.79,-28.5"/>
<polygon fill="midnightblue" stroke="midnightblue" points="534.12,-25 524.12,-28.5 534.12,-32 534.12,-25"/>
</g>
<!-- Node2 -->
<g id="node3" class="node">
<title>Node2</title>
<g id="a_node3"><a xlink:href="structhaldls_1_1vx_1_1detail_1_1_backend_container_base.html" target="_top" xlink:title="Backend container trait base.">
<polygon fill="white" stroke="black" points="0,-0.5 0,-56.5 199.66,-56.5 199.66,-0.5 0,-0.5"/>
<text text-anchor="start" x="8" y="-43.5" font-family="Helvetica,sans-Serif" font-size="10.00">haldls::vx::detail</text>
<text text-anchor="start" x="8" y="-31.5" font-family="Helvetica,sans-Serif" font-size="10.00">::BackendContainerBase</text>
<text text-anchor="start" x="8" y="-19.5" font-family="Helvetica,sans-Serif" font-size="10.00">&lt; ContainerT, DefaultBackend</text>
<text text-anchor="middle" x="99.83" y="-7.5" font-family="Helvetica,sans-Serif" font-size="10.00">Container, AdditionalBackendContainer &gt;</text>
</a>
</g>
</g>
<!-- Node2&#45;&gt;Node1 -->
<g id="edge2" class="edge">
<title>Node2&#45;&gt;Node1</title>
<path fill="none" stroke="orange" stroke-dasharray="5,2" d="M209.87,-28.5C262.99,-28.5 325.49,-28.5 373.07,-28.5"/>
<polygon fill="orange" stroke="orange" points="209.73,-25 199.73,-28.5 209.73,-32 209.73,-25"/>
<text text-anchor="start" x="217.66" y="-43.5" font-family="Helvetica,sans-Serif" font-size="10.00"> &lt; PollingOmnibusBlockConfig,</text>
<text text-anchor="middle" x="286.42" y="-31.5" font-family="Helvetica,sans-Serif" font-size="10.00"> fisch::vx::Omnibus &gt;</text>
</g>
</g>
</svg>
