<?xml version="1.0" encoding="UTF-8" standalone="no"?>
<!DOCTYPE svg PUBLIC "-//W3C//DTD SVG 1.1//EN"
 "http://www.w3.org/Graphics/SVG/1.1/DTD/svg11.dtd">
<!-- Generated by graphviz version 2.43.0 (0)
 -->
<!-- Title: haldls::vx::detail::BackendContainerTrait&lt; SpikePack2ToChip &gt; Pages: 1 -->
<svg width="678pt" height="65pt"
 viewBox="0.00 0.00 678.30 65.00" xmlns="http://www.w3.org/2000/svg" xmlns:xlink="http://www.w3.org/1999/xlink">
<g id="graph0" class="graph" transform="scale(1 1) rotate(0) translate(4 61)">
<title>haldls::vx::detail::BackendContainerTrait&lt; SpikePack2ToChip &gt;</title>
<polygon fill="white" stroke="transparent" points="-4,4 -4,-61 674.3,-61 674.3,4 -4,4"/>
<!-- Node0 -->
<g id="node1" class="node">
<title>Node0</title>
<g id="a_node1"><a xlink:title=" ">
<polygon fill="#bfbfbf" stroke="black" points="546.5,-6.5 546.5,-50.5 670.3,-50.5 670.3,-6.5 546.5,-6.5"/>
<text text-anchor="start" x="554.5" y="-37.5" font-family="Helvetica,sans-Serif" font-size="10.00">haldls::vx::detail</text>
<text text-anchor="start" x="554.5" y="-25.5" font-family="Helvetica,sans-Serif" font-size="10.00">::BackendContainerTrait</text>
<text text-anchor="middle" x="608.4" y="-13.5" font-family="Helvetica,sans-Serif" font-size="10.00">&lt; SpikePack2ToChip &gt;</text>
</a>
</g>
</g>
<!-- Node1 -->
<g id="node2" class="node">
<title>Node1</title>
<g id="a_node2"><a xlink:href="structhaldls_1_1vx_1_1detail_1_1_backend_container_base.html" target="_top" xlink:title=" ">
<polygon fill="white" stroke="black" points="373.75,-0.5 373.75,-56.5 509.5,-56.5 509.5,-0.5 373.75,-0.5"/>
<text text-anchor="start" x="381.75" y="-43.5" font-family="Helvetica,sans-Serif" font-size="10.00">haldls::vx::detail</text>
<text text-anchor="start" x="381.75" y="-31.5" font-family="Helvetica,sans-Serif" font-size="10.00">::BackendContainerBase</text>
<text text-anchor="start" x="381.75" y="-19.5" font-family="Helvetica,sans-Serif" font-size="10.00">&lt; SpikePack2ToChip, fisch</text>
<text text-anchor="middle" x="441.62" y="-7.5" font-family="Helvetica,sans-Serif" font-size="10.00">::vx::SpikePack2ToChip &gt;</text>
</a>
</g>
</g>
<!-- Node1&#45;&gt;Node0 -->
<g id="edge1" class="edge">
<title>Node1&#45;&gt;Node0</title>
<path fill="none" stroke="midnightblue" d="M519.67,-28.5C528.59,-28.5 537.6,-28.5 546.28,-28.5"/>
<polygon fill="midnightblue" stroke="midnightblue" points="519.65,-25 509.65,-28.5 519.65,-32 519.65,-25"/>
</g>
<!-- Node2 -->
<g id="node3" class="node">
<title>Node2</title>
<g id="a_node3"><a xlink:href="structhaldls_1_1vx_1_1detail_1_1_backend_container_base.html" target="_top" xlink:title="Backend container trait base.">
<polygon fill="white" stroke="black" points="0,-0.5 0,-56.5 199.66,-56.5 199.66,-0.5 0,-0.5"/>
<text text-anchor="start" x="8" y="-43.5" font-family="Helvetica,sans-Serif" font-size="10.00">haldls::vx::detail</text>
<text text-anchor="start" x="8" y="-31.5" font-family="Helvetica,sans-Serif" font-size="10.00">::BackendContainerBase</text>
<text text-anchor="start" x="8" y="-19.5" font-family="Helvetica,sans-Serif" font-size="10.00">&lt; ContainerT, DefaultBackend</text>
<text text-anchor="middle" x="99.83" y="-7.5" font-family="Helvetica,sans-Serif" font-size="10.00">Container, AdditionalBackendContainer &gt;</text>
</a>
</g>
</g>
<!-- Node2&#45;&gt;Node1 -->
<g id="edge2" class="edge">
<title>Node2&#45;&gt;Node1</title>
<path fill="none" stroke="orange" stroke-dasharray="5,2" d="M210.3,-28.5C264.05,-28.5 327.08,-28.5 373.6,-28.5"/>
<polygon fill="orange" stroke="orange" points="210.03,-25 200.03,-28.5 210.03,-32 210.03,-25"/>
<text text-anchor="start" x="217.66" y="-43.5" font-family="Helvetica,sans-Serif" font-size="10.00"> &lt; SpikePack2ToChip,</text>
<text text-anchor="middle" x="286.71" y="-31.5" font-family="Helvetica,sans-Serif" font-size="10.00"> fisch::vx::SpikePack2ToChip &gt;</text>
</g>
</g>
</svg>
