<?xml version="1.0" encoding="UTF-8" standalone="no"?>
<!DOCTYPE svg PUBLIC "-//W3C//DTD SVG 1.1//EN"
 "http://www.w3.org/Graphics/SVG/1.1/DTD/svg11.dtd">
<!-- Generated by graphviz version 2.43.0 (0)
 -->
<!-- Title: haldls::vx::FPGADeviceDNA::Value Pages: 1 -->
<svg width="304pt" height="65pt"
 viewBox="0.00 0.00 304.09 65.00" xmlns="http://www.w3.org/2000/svg" xmlns:xlink="http://www.w3.org/1999/xlink">
<g id="graph0" class="graph" transform="scale(1 1) rotate(0) translate(4 61)">
<title>haldls::vx::FPGADeviceDNA::Value</title>
<polygon fill="white" stroke="transparent" points="-4,4 -4,-61 300.09,-61 300.09,4 -4,4"/>
<!-- Node0 -->
<g id="node1" class="node">
<title>Node0</title>
<g id="a_node1"><a xlink:title="Identifier value type.">
<polygon fill="#bfbfbf" stroke="black" points="153.97,-12.5 153.97,-44.5 296.09,-44.5 296.09,-12.5 153.97,-12.5"/>
<text text-anchor="start" x="161.97" y="-31.5" font-family="Helvetica,sans-Serif" font-size="10.00">haldls::vx::FPGADeviceDNA</text>
<text text-anchor="middle" x="225.03" y="-19.5" font-family="Helvetica,sans-Serif" font-size="10.00">::Value</text>
</a>
</g>
</g>
<!-- Node1 -->
<g id="node2" class="node">
<title>Node1</title>
<g id="a_node2"><a xlink:title=" ">
<polygon fill="white" stroke="#bfbfbf" points="0,-0.5 0,-56.5 117.97,-56.5 117.97,-0.5 0,-0.5"/>
<text text-anchor="start" x="8" y="-43.5" font-family="Helvetica,sans-Serif" font-size="10.00">halco::common::detail</text>
<text text-anchor="start" x="8" y="-31.5" font-family="Helvetica,sans-Serif" font-size="10.00">::RantWrapper&lt; Value,</text>
<text text-anchor="start" x="8" y="-19.5" font-family="Helvetica,sans-Serif" font-size="10.00"> uint64_t, 0x1ff &#39;ffff</text>
<text text-anchor="middle" x="58.98" y="-7.5" font-family="Helvetica,sans-Serif" font-size="10.00"> &#39;ffff &#39;ffffull, 0 &gt;</text>
</a>
</g>
</g>
<!-- Node1&#45;&gt;Node0 -->
<g id="edge1" class="edge">
<title>Node1&#45;&gt;Node0</title>
<path fill="none" stroke="midnightblue" d="M128.41,-28.5C136.82,-28.5 145.41,-28.5 153.84,-28.5"/>
<polygon fill="midnightblue" stroke="midnightblue" points="128.28,-25 118.28,-28.5 128.28,-32 128.28,-25"/>
</g>
</g>
</svg>
