<?xml version="1.0" encoding="UTF-8" standalone="no"?>
<!DOCTYPE svg PUBLIC "-//W3C//DTD SVG 1.1//EN"
 "http://www.w3.org/Graphics/SVG/1.1/DTD/svg11.dtd">
<!-- Generated by graphviz version 2.43.0 (0)
 -->
<!-- Title: haldls::v2::DAC::Channel Pages: 1 -->
<svg width="138pt" height="110pt"
 viewBox="0.00 0.00 137.64 110.00" xmlns="http://www.w3.org/2000/svg" xmlns:xlink="http://www.w3.org/1999/xlink">
<g id="graph0" class="graph" transform="scale(1 1) rotate(0) translate(4 106)">
<title>haldls::v2::DAC::Channel</title>
<polygon fill="white" stroke="transparent" points="-4,4 -4,-106 133.64,-106 133.64,4 -4,4"/>
<!-- Node0 -->
<g id="node1" class="node">
<title>Node0</title>
<g id="a_node1"><a xlink:title=" ">
<polygon fill="#bfbfbf" stroke="black" points="0.97,-0.5 0.97,-20.5 128.66,-20.5 128.66,-0.5 0.97,-0.5"/>
<text text-anchor="middle" x="64.82" y="-7.5" font-family="Helvetica,sans-Serif" font-size="10.00">haldls::v2::DAC::Channel</text>
</a>
</g>
</g>
<!-- Node1 -->
<g id="node2" class="node">
<title>Node1</title>
<g id="a_node2"><a xlink:title=" ">
<polygon fill="white" stroke="#bfbfbf" points="0,-57.5 0,-101.5 129.64,-101.5 129.64,-57.5 0,-57.5"/>
<text text-anchor="start" x="8" y="-88.5" font-family="Helvetica,sans-Serif" font-size="10.00">halco::common::detail</text>
<text text-anchor="start" x="8" y="-76.5" font-family="Helvetica,sans-Serif" font-size="10.00">::RantWrapper&lt; Channel,</text>
<text text-anchor="middle" x="64.82" y="-64.5" font-family="Helvetica,sans-Serif" font-size="10.00"> uint_fast16_t, 7, 0 &gt;</text>
</a>
</g>
</g>
<!-- Node1&#45;&gt;Node0 -->
<g id="edge1" class="edge">
<title>Node1&#45;&gt;Node0</title>
<path fill="none" stroke="midnightblue" d="M64.82,-47.13C64.82,-37.54 64.82,-27.71 64.82,-20.82"/>
<polygon fill="midnightblue" stroke="midnightblue" points="61.32,-47.3 64.82,-57.3 68.32,-47.3 61.32,-47.3"/>
</g>
</g>
</svg>
