<?xml version="1.0" encoding="UTF-8" standalone="no"?>
<!DOCTYPE svg PUBLIC "-//W3C//DTD SVG 1.1//EN"
 "http://www.w3.org/Graphics/SVG/1.1/DTD/svg11.dtd">
<!-- Generated by graphviz version 2.43.0 (0)
 -->
<!-- Title: haldls::v2::CapMemConfig::PauseCounter Pages: 1 -->
<svg width="336pt" height="53pt"
 viewBox="0.00 0.00 336.33 53.00" xmlns="http://www.w3.org/2000/svg" xmlns:xlink="http://www.w3.org/1999/xlink">
<g id="graph0" class="graph" transform="scale(1 1) rotate(0) translate(4 49)">
<title>haldls::v2::CapMemConfig::PauseCounter</title>
<polygon fill="white" stroke="transparent" points="-4,4 -4,-49 332.33,-49 332.33,4 -4,4"/>
<!-- Node2 -->
<g id="node1" class="node">
<title>Node2</title>
<g id="a_node1"><a xlink:title=" ">
<polygon fill="#bfbfbf" stroke="black" points="195.09,-6.5 195.09,-38.5 328.33,-38.5 328.33,-6.5 195.09,-6.5"/>
<text text-anchor="start" x="203.09" y="-25.5" font-family="Helvetica,sans-Serif" font-size="10.00">haldls::v2::CapMemConfig</text>
<text text-anchor="middle" x="261.71" y="-13.5" font-family="Helvetica,sans-Serif" font-size="10.00">::PauseCounter</text>
</a>
</g>
</g>
<!-- Node3 -->
<g id="node2" class="node">
<title>Node3</title>
<g id="a_node2"><a xlink:title=" ">
<polygon fill="white" stroke="#bfbfbf" points="0,-0.5 0,-44.5 159.09,-44.5 159.09,-0.5 0,-0.5"/>
<text text-anchor="start" x="8" y="-31.5" font-family="Helvetica,sans-Serif" font-size="10.00">halco::common::detail</text>
<text text-anchor="start" x="8" y="-19.5" font-family="Helvetica,sans-Serif" font-size="10.00">:: RantWrapper&lt; PauseCounter,</text>
<text text-anchor="middle" x="79.55" y="-7.5" font-family="Helvetica,sans-Serif" font-size="10.00"> uint_fast32_t, 4294967295, 0 &gt;</text>
</a>
</g>
</g>
<!-- Node3&#45;&gt;Node2 -->
<g id="edge1" class="edge">
<title>Node3&#45;&gt;Node2</title>
<path fill="none" stroke="midnightblue" d="M169.42,-22.5C178.05,-22.5 186.7,-22.5 195.05,-22.5"/>
<polygon fill="midnightblue" stroke="midnightblue" points="169.31,-19 159.31,-22.5 169.31,-26 169.31,-19"/>
</g>
</g>
</svg>
