<?xml version="1.0" encoding="UTF-8" standalone="no"?>
<!DOCTYPE svg PUBLIC "-//W3C//DTD SVG 1.1//EN"
 "http://www.w3.org/Graphics/SVG/1.1/DTD/svg11.dtd">
<!-- Generated by graphviz version 2.43.0 (0)
 -->
<!-- Title: haldls::vx::v1::SynapseWeightQuad::Value Pages: 1 -->
<svg width="157pt" height="122pt"
 viewBox="0.00 0.00 157.37 122.00" xmlns="http://www.w3.org/2000/svg" xmlns:xlink="http://www.w3.org/1999/xlink">
<g id="graph0" class="graph" transform="scale(1 1) rotate(0) translate(4 118)">
<title>haldls::vx::v1::SynapseWeightQuad::Value</title>
<polygon fill="white" stroke="transparent" points="-4,4 -4,-118 153.37,-118 153.37,4 -4,4"/>
<!-- Node0 -->
<g id="node1" class="node">
<title>Node0</title>
<g id="a_node1"><a xlink:title=" ">
<polygon fill="#bfbfbf" stroke="black" points="0,-0.5 0,-32.5 149.37,-32.5 149.37,-0.5 0,-0.5"/>
<text text-anchor="start" x="8" y="-19.5" font-family="Helvetica,sans-Serif" font-size="10.00">haldls::vx::v1::SynapseWeight</text>
<text text-anchor="middle" x="74.68" y="-7.5" font-family="Helvetica,sans-Serif" font-size="10.00">Quad::Value</text>
</a>
</g>
</g>
<!-- Node1 -->
<g id="node2" class="node">
<title>Node1</title>
<g id="a_node2"><a xlink:title=" ">
<polygon fill="white" stroke="#bfbfbf" points="15.7,-69.5 15.7,-113.5 133.67,-113.5 133.67,-69.5 15.7,-69.5"/>
<text text-anchor="start" x="23.7" y="-100.5" font-family="Helvetica,sans-Serif" font-size="10.00">halco::common::detail</text>
<text text-anchor="start" x="23.7" y="-88.5" font-family="Helvetica,sans-Serif" font-size="10.00">::RantWrapper&lt; Value,</text>
<text text-anchor="middle" x="74.68" y="-76.5" font-family="Helvetica,sans-Serif" font-size="10.00"> uint8_t, 63, 0 &gt;</text>
</a>
</g>
</g>
<!-- Node1&#45;&gt;Node0 -->
<g id="edge1" class="edge">
<title>Node1&#45;&gt;Node0</title>
<path fill="none" stroke="midnightblue" d="M74.68,-59.26C74.68,-50 74.68,-40.27 74.68,-32.54"/>
<polygon fill="midnightblue" stroke="midnightblue" points="71.18,-59.39 74.68,-69.39 78.18,-59.39 71.18,-59.39"/>
</g>
</g>
</svg>
