<?xml version="1.0" encoding="UTF-8" standalone="no"?>
<!DOCTYPE svg PUBLIC "-//W3C//DTD SVG 1.1//EN"
 "http://www.w3.org/Graphics/SVG/1.1/DTD/svg11.dtd">
<!-- Generated by graphviz version 2.43.0 (0)
 -->
<!-- Title: haldls::v2::CapMemConfig::BoostB Pages: 1 -->
<svg width="141pt" height="122pt"
 viewBox="0.00 0.00 141.24 122.00" xmlns="http://www.w3.org/2000/svg" xmlns:xlink="http://www.w3.org/1999/xlink">
<g id="graph0" class="graph" transform="scale(1 1) rotate(0) translate(4 118)">
<title>haldls::v2::CapMemConfig::BoostB</title>
<polygon fill="white" stroke="transparent" points="-4,4 -4,-118 137.24,-118 137.24,4 -4,4"/>
<!-- Node2 -->
<g id="node1" class="node">
<title>Node2</title>
<g id="a_node1"><a xlink:title=" ">
<polygon fill="#bfbfbf" stroke="black" points="0,-0.5 0,-32.5 133.24,-32.5 133.24,-0.5 0,-0.5"/>
<text text-anchor="start" x="8" y="-19.5" font-family="Helvetica,sans-Serif" font-size="10.00">haldls::v2::CapMemConfig</text>
<text text-anchor="middle" x="66.62" y="-7.5" font-family="Helvetica,sans-Serif" font-size="10.00">::BoostB</text>
</a>
</g>
</g>
<!-- Node3 -->
<g id="node2" class="node">
<title>Node3</title>
<g id="a_node2"><a xlink:title=" ">
<polygon fill="white" stroke="#bfbfbf" points="2.06,-69.5 2.06,-113.5 131.18,-113.5 131.18,-69.5 2.06,-69.5"/>
<text text-anchor="start" x="10.06" y="-100.5" font-family="Helvetica,sans-Serif" font-size="10.00">halco::common::detail</text>
<text text-anchor="start" x="10.06" y="-88.5" font-family="Helvetica,sans-Serif" font-size="10.00">::RantWrapper&lt; BoostB,</text>
<text text-anchor="middle" x="66.62" y="-76.5" font-family="Helvetica,sans-Serif" font-size="10.00"> uint_fast16_t, 65535, 0 &gt;</text>
</a>
</g>
</g>
<!-- Node3&#45;&gt;Node2 -->
<g id="edge1" class="edge">
<title>Node3&#45;&gt;Node2</title>
<path fill="none" stroke="midnightblue" d="M66.62,-59.26C66.62,-50 66.62,-40.27 66.62,-32.54"/>
<polygon fill="midnightblue" stroke="midnightblue" points="63.12,-59.39 66.62,-69.39 70.12,-59.39 63.12,-59.39"/>
</g>
</g>
</svg>
