<?xml version="1.0" encoding="UTF-8" standalone="no"?>
<!DOCTYPE svg PUBLIC "-//W3C//DTD SVG 1.1//EN"
 "http://www.w3.org/Graphics/SVG/1.1/DTD/svg11.dtd">
<!-- Generated by graphviz version 2.43.0 (0)
 -->
<!-- Title: haldls::vx::v2::CADCSampleQuad::Value Pages: 1 -->
<svg width="150pt" height="122pt"
 viewBox="0.00 0.00 149.57 122.00" xmlns="http://www.w3.org/2000/svg" xmlns:xlink="http://www.w3.org/1999/xlink">
<g id="graph0" class="graph" transform="scale(1 1) rotate(0) translate(4 118)">
<title>haldls::vx::v2::CADCSampleQuad::Value</title>
<polygon fill="white" stroke="transparent" points="-4,4 -4,-118 145.57,-118 145.57,4 -4,4"/>
<!-- Node0 -->
<g id="node1" class="node">
<title>Node0</title>
<g id="a_node1"><a xlink:title="CADC measurement value (offset&#45;corrected, see CADCChannelConfig).">
<polygon fill="#bfbfbf" stroke="black" points="0,-0.5 0,-32.5 141.57,-32.5 141.57,-0.5 0,-0.5"/>
<text text-anchor="start" x="8" y="-19.5" font-family="Helvetica,sans-Serif" font-size="10.00">haldls::vx::v2::CADCSample</text>
<text text-anchor="middle" x="70.78" y="-7.5" font-family="Helvetica,sans-Serif" font-size="10.00">Quad::Value</text>
</a>
</g>
</g>
<!-- Node1 -->
<g id="node2" class="node">
<title>Node1</title>
<g id="a_node2"><a xlink:title=" ">
<polygon fill="white" stroke="#bfbfbf" points="11.79,-69.5 11.79,-113.5 129.78,-113.5 129.78,-69.5 11.79,-69.5"/>
<text text-anchor="start" x="19.79" y="-100.5" font-family="Helvetica,sans-Serif" font-size="10.00">halco::common::detail</text>
<text text-anchor="start" x="19.79" y="-88.5" font-family="Helvetica,sans-Serif" font-size="10.00">::RantWrapper&lt; Value,</text>
<text text-anchor="middle" x="70.78" y="-76.5" font-family="Helvetica,sans-Serif" font-size="10.00"> uint_fast16_t, 255, 0 &gt;</text>
</a>
</g>
</g>
<!-- Node1&#45;&gt;Node0 -->
<g id="edge1" class="edge">
<title>Node1&#45;&gt;Node0</title>
<path fill="none" stroke="midnightblue" d="M70.78,-59.26C70.78,-50 70.78,-40.27 70.78,-32.54"/>
<polygon fill="midnightblue" stroke="midnightblue" points="67.28,-59.39 70.78,-69.39 74.28,-59.39 67.28,-59.39"/>
</g>
</g>
</svg>
