<?xml version="1.0" encoding="UTF-8" standalone="no"?>
<!DOCTYPE svg PUBLIC "-//W3C//DTD SVG 1.1//EN"
 "http://www.w3.org/Graphics/SVG/1.1/DTD/svg11.dtd">
<!-- Generated by graphviz version 2.43.0 (0)
 -->
<!-- Title: haldls::vx::detail::BackendContainerTrait&lt; PollingOmnibusBlock &gt; Pages: 1 -->
<svg width="719pt" height="65pt"
 viewBox="0.00 0.00 719.40 65.00" xmlns="http://www.w3.org/2000/svg" xmlns:xlink="http://www.w3.org/1999/xlink">
<g id="graph0" class="graph" transform="scale(1 1) rotate(0) translate(4 61)">
<title>haldls::vx::detail::BackendContainerTrait&lt; PollingOmnibusBlock &gt;</title>
<polygon fill="white" stroke="transparent" points="-4,4 -4,-61 715.4,-61 715.4,4 -4,4"/>
<!-- Node0 -->
<g id="node1" class="node">
<title>Node0</title>
<g id="a_node1"><a xlink:title=" ">
<polygon fill="#bfbfbf" stroke="black" points="583.71,-6.5 583.71,-50.5 711.4,-50.5 711.4,-6.5 583.71,-6.5"/>
<text text-anchor="start" x="591.71" y="-37.5" font-family="Helvetica,sans-Serif" font-size="10.00">haldls::vx::detail</text>
<text text-anchor="start" x="591.71" y="-25.5" font-family="Helvetica,sans-Serif" font-size="10.00">::BackendContainerTrait</text>
<text text-anchor="middle" x="647.56" y="-13.5" font-family="Helvetica,sans-Serif" font-size="10.00">&lt; PollingOmnibusBlock &gt;</text>
</a>
</g>
</g>
<!-- Node1 -->
<g id="node2" class="node">
<title>Node1</title>
<g id="a_node2"><a xlink:href="structhaldls_1_1vx_1_1detail_1_1_backend_container_base.html" target="_top" xlink:title=" ">
<polygon fill="white" stroke="black" points="383.19,-0.5 383.19,-56.5 546.71,-56.5 546.71,-0.5 383.19,-0.5"/>
<text text-anchor="start" x="391.19" y="-43.5" font-family="Helvetica,sans-Serif" font-size="10.00">haldls::vx::detail</text>
<text text-anchor="start" x="391.19" y="-31.5" font-family="Helvetica,sans-Serif" font-size="10.00">::BackendContainerBase</text>
<text text-anchor="start" x="391.19" y="-19.5" font-family="Helvetica,sans-Serif" font-size="10.00">&lt; PollingOmnibusBlock,</text>
<text text-anchor="middle" x="464.95" y="-7.5" font-family="Helvetica,sans-Serif" font-size="10.00"> fisch::vx::PollingOmnibusBlock &gt;</text>
</a>
</g>
</g>
<!-- Node1&#45;&gt;Node0 -->
<g id="edge1" class="edge">
<title>Node1&#45;&gt;Node0</title>
<path fill="none" stroke="midnightblue" d="M556.87,-28.5C565.85,-28.5 574.83,-28.5 583.44,-28.5"/>
<polygon fill="midnightblue" stroke="midnightblue" points="556.74,-25 546.74,-28.5 556.74,-32 556.74,-25"/>
</g>
<!-- Node2 -->
<g id="node3" class="node">
<title>Node2</title>
<g id="a_node3"><a xlink:href="structhaldls_1_1vx_1_1detail_1_1_backend_container_base.html" target="_top" xlink:title="Backend container trait base.">
<polygon fill="white" stroke="black" points="0,-0.5 0,-56.5 199.66,-56.5 199.66,-0.5 0,-0.5"/>
<text text-anchor="start" x="8" y="-43.5" font-family="Helvetica,sans-Serif" font-size="10.00">haldls::vx::detail</text>
<text text-anchor="start" x="8" y="-31.5" font-family="Helvetica,sans-Serif" font-size="10.00">::BackendContainerBase</text>
<text text-anchor="start" x="8" y="-19.5" font-family="Helvetica,sans-Serif" font-size="10.00">&lt; ContainerT, DefaultBackend</text>
<text text-anchor="middle" x="99.83" y="-7.5" font-family="Helvetica,sans-Serif" font-size="10.00">Container, AdditionalBackendContainer &gt;</text>
</a>
</g>
</g>
<!-- Node2&#45;&gt;Node1 -->
<g id="edge2" class="edge">
<title>Node2&#45;&gt;Node1</title>
<path fill="none" stroke="orange" stroke-dasharray="5,2" d="M210.29,-28.5C265.79,-28.5 332.03,-28.5 382.9,-28.5"/>
<polygon fill="orange" stroke="orange" points="210.05,-25 200.05,-28.5 210.05,-32 210.05,-25"/>
<text text-anchor="start" x="217.66" y="-43.5" font-family="Helvetica,sans-Serif" font-size="10.00"> &lt; PollingOmnibusBlock,</text>
<text text-anchor="middle" x="291.42" y="-31.5" font-family="Helvetica,sans-Serif" font-size="10.00"> fisch::vx::PollingOmnibusBlock &gt;</text>
</g>
</g>
</svg>
