<?xml version="1.0" encoding="UTF-8" standalone="no"?>
<!DOCTYPE svg PUBLIC "-//W3C//DTD SVG 1.1//EN"
 "http://www.w3.org/Graphics/SVG/1.1/DTD/svg11.dtd">
<!-- Generated by graphviz version 2.43.0 (0)
 -->
<!-- Title: haldls::vx::detail::BackendContainerTrait&lt; JTAGIdCode &gt; Pages: 1 -->
<svg width="626pt" height="65pt"
 viewBox="0.00 0.00 626.36 65.00" xmlns="http://www.w3.org/2000/svg" xmlns:xlink="http://www.w3.org/1999/xlink">
<g id="graph0" class="graph" transform="scale(1 1) rotate(0) translate(4 61)">
<title>haldls::vx::detail::BackendContainerTrait&lt; JTAGIdCode &gt;</title>
<polygon fill="white" stroke="transparent" points="-4,4 -4,-61 622.36,-61 622.36,4 -4,4"/>
<!-- Node0 -->
<g id="node1" class="node">
<title>Node0</title>
<g id="a_node1"><a xlink:title=" ">
<polygon fill="#bfbfbf" stroke="black" points="494.56,-6.5 494.56,-50.5 618.36,-50.5 618.36,-6.5 494.56,-6.5"/>
<text text-anchor="start" x="502.56" y="-37.5" font-family="Helvetica,sans-Serif" font-size="10.00">haldls::vx::detail</text>
<text text-anchor="start" x="502.56" y="-25.5" font-family="Helvetica,sans-Serif" font-size="10.00">::BackendContainerTrait</text>
<text text-anchor="middle" x="556.46" y="-13.5" font-family="Helvetica,sans-Serif" font-size="10.00">&lt; JTAGIdCode &gt;</text>
</a>
</g>
</g>
<!-- Node1 -->
<g id="node2" class="node">
<title>Node1</title>
<g id="a_node2"><a xlink:href="structhaldls_1_1vx_1_1detail_1_1_backend_container_base.html" target="_top" xlink:title=" ">
<polygon fill="white" stroke="black" points="330.97,-0.5 330.97,-56.5 457.56,-56.5 457.56,-0.5 330.97,-0.5"/>
<text text-anchor="start" x="338.97" y="-43.5" font-family="Helvetica,sans-Serif" font-size="10.00">haldls::vx::detail</text>
<text text-anchor="start" x="338.97" y="-31.5" font-family="Helvetica,sans-Serif" font-size="10.00">::BackendContainerBase</text>
<text text-anchor="start" x="338.97" y="-19.5" font-family="Helvetica,sans-Serif" font-size="10.00">&lt; JTAGIdCode, fisch::vx</text>
<text text-anchor="middle" x="394.26" y="-7.5" font-family="Helvetica,sans-Serif" font-size="10.00">::JTAGIdCode &gt;</text>
</a>
</g>
</g>
<!-- Node1&#45;&gt;Node0 -->
<g id="edge1" class="edge">
<title>Node1&#45;&gt;Node0</title>
<path fill="none" stroke="midnightblue" d="M467.7,-28.5C476.67,-28.5 485.77,-28.5 494.55,-28.5"/>
<polygon fill="midnightblue" stroke="midnightblue" points="467.66,-25 457.66,-28.5 467.66,-32 467.66,-25"/>
</g>
<!-- Node2 -->
<g id="node3" class="node">
<title>Node2</title>
<g id="a_node3"><a xlink:href="structhaldls_1_1vx_1_1detail_1_1_backend_container_base.html" target="_top" xlink:title="Backend container trait base.">
<polygon fill="white" stroke="black" points="0,-0.5 0,-56.5 199.66,-56.5 199.66,-0.5 0,-0.5"/>
<text text-anchor="start" x="8" y="-43.5" font-family="Helvetica,sans-Serif" font-size="10.00">haldls::vx::detail</text>
<text text-anchor="start" x="8" y="-31.5" font-family="Helvetica,sans-Serif" font-size="10.00">::BackendContainerBase</text>
<text text-anchor="start" x="8" y="-19.5" font-family="Helvetica,sans-Serif" font-size="10.00">&lt; ContainerT, DefaultBackend</text>
<text text-anchor="middle" x="99.83" y="-7.5" font-family="Helvetica,sans-Serif" font-size="10.00">Container, AdditionalBackendContainer &gt;</text>
</a>
</g>
</g>
<!-- Node2&#45;&gt;Node1 -->
<g id="edge2" class="edge">
<title>Node2&#45;&gt;Node1</title>
<path fill="none" stroke="orange" stroke-dasharray="5,2" d="M210.08,-28.5C250.73,-28.5 295.47,-28.5 330.56,-28.5"/>
<polygon fill="orange" stroke="orange" points="209.83,-25 199.83,-28.5 209.83,-32 209.83,-25"/>
<text text-anchor="start" x="217.66" y="-43.5" font-family="Helvetica,sans-Serif" font-size="10.00"> &lt; JTAGIdCode, fisch</text>
<text text-anchor="middle" x="265.31" y="-31.5" font-family="Helvetica,sans-Serif" font-size="10.00">::vx::JTAGIdCode &gt;</text>
</g>
</g>
</svg>
