<?xml version="1.0" encoding="UTF-8" standalone="no"?>
<!DOCTYPE svg PUBLIC "-//W3C//DTD SVG 1.1//EN"
 "http://www.w3.org/Graphics/SVG/1.1/DTD/svg11.dtd">
<!-- Generated by graphviz version 2.43.0 (0)
 -->
<!-- Title: haldls::vx::detail::BackendContainerTrait&lt; ShiftRegister &gt; Pages: 1 -->
<svg width="634pt" height="65pt"
 viewBox="0.00 0.00 634.13 65.00" xmlns="http://www.w3.org/2000/svg" xmlns:xlink="http://www.w3.org/1999/xlink">
<g id="graph0" class="graph" transform="scale(1 1) rotate(0) translate(4 61)">
<title>haldls::vx::detail::BackendContainerTrait&lt; ShiftRegister &gt;</title>
<polygon fill="white" stroke="transparent" points="-4,4 -4,-61 630.13,-61 630.13,4 -4,4"/>
<!-- Node0 -->
<g id="node1" class="node">
<title>Node0</title>
<g id="a_node1"><a xlink:title=" ">
<polygon fill="#bfbfbf" stroke="black" points="502.33,-6.5 502.33,-50.5 626.13,-50.5 626.13,-6.5 502.33,-6.5"/>
<text text-anchor="start" x="510.33" y="-37.5" font-family="Helvetica,sans-Serif" font-size="10.00">haldls::vx::detail</text>
<text text-anchor="start" x="510.33" y="-25.5" font-family="Helvetica,sans-Serif" font-size="10.00">::BackendContainerTrait</text>
<text text-anchor="middle" x="564.23" y="-13.5" font-family="Helvetica,sans-Serif" font-size="10.00">&lt; ShiftRegister &gt;</text>
</a>
</g>
</g>
<!-- Node1 -->
<g id="node2" class="node">
<title>Node1</title>
<g id="a_node2"><a xlink:href="structhaldls_1_1vx_1_1detail_1_1BackendContainerBase.html" target="_top" xlink:title=" ">
<polygon fill="white" stroke="black" points="338.74,-0.5 338.74,-56.5 465.33,-56.5 465.33,-0.5 338.74,-0.5"/>
<text text-anchor="start" x="346.74" y="-43.5" font-family="Helvetica,sans-Serif" font-size="10.00">haldls::vx::detail</text>
<text text-anchor="start" x="346.74" y="-31.5" font-family="Helvetica,sans-Serif" font-size="10.00">::BackendContainerBase</text>
<text text-anchor="start" x="346.74" y="-19.5" font-family="Helvetica,sans-Serif" font-size="10.00">&lt; ShiftRegister, fisch</text>
<text text-anchor="middle" x="402.04" y="-7.5" font-family="Helvetica,sans-Serif" font-size="10.00">::vx::SPIShiftRegister &gt;</text>
</a>
</g>
</g>
<!-- Node1&#45;&gt;Node0 -->
<g id="edge1" class="edge">
<title>Node1&#45;&gt;Node0</title>
<path fill="none" stroke="midnightblue" d="M475.48,-28.5C484.45,-28.5 493.55,-28.5 502.32,-28.5"/>
<polygon fill="midnightblue" stroke="midnightblue" points="475.43,-25 465.43,-28.5 475.43,-32 475.43,-25"/>
</g>
<!-- Node2 -->
<g id="node3" class="node">
<title>Node2</title>
<g id="a_node3"><a xlink:href="structhaldls_1_1vx_1_1detail_1_1BackendContainerBase.html" target="_top" xlink:title="Backend container trait base.">
<polygon fill="white" stroke="black" points="0,-0.5 0,-56.5 199.66,-56.5 199.66,-0.5 0,-0.5"/>
<text text-anchor="start" x="8" y="-43.5" font-family="Helvetica,sans-Serif" font-size="10.00">haldls::vx::detail</text>
<text text-anchor="start" x="8" y="-31.5" font-family="Helvetica,sans-Serif" font-size="10.00">::BackendContainerBase</text>
<text text-anchor="start" x="8" y="-19.5" font-family="Helvetica,sans-Serif" font-size="10.00">&lt; ContainerT, DefaultBackend</text>
<text text-anchor="middle" x="99.83" y="-7.5" font-family="Helvetica,sans-Serif" font-size="10.00">Container, AdditionalBackendContainer &gt;</text>
</a>
</g>
</g>
<!-- Node2&#45;&gt;Node1 -->
<g id="edge2" class="edge">
<title>Node2&#45;&gt;Node1</title>
<path fill="none" stroke="orange" stroke-dasharray="5,2" d="M210.22,-28.5C253.32,-28.5 301.25,-28.5 338.3,-28.5"/>
<polygon fill="orange" stroke="orange" points="209.96,-25 199.96,-28.5 209.96,-32 209.96,-25"/>
<text text-anchor="start" x="217.66" y="-43.5" font-family="Helvetica,sans-Serif" font-size="10.00"> &lt; ShiftRegister, fisch</text>
<text text-anchor="middle" x="269.2" y="-31.5" font-family="Helvetica,sans-Serif" font-size="10.00">::vx::SPIShiftRegister &gt;</text>
</g>
</g>
</svg>
