<?xml version="1.0" encoding="UTF-8" standalone="no"?>
<!DOCTYPE svg PUBLIC "-//W3C//DTD SVG 1.1//EN"
 "http://www.w3.org/Graphics/SVG/1.1/DTD/svg11.dtd">
<!-- Generated by graphviz version 2.43.0 (0)
 -->
<!-- Title: haldls::vx::detail::BackendContainerTrait&lt; PerfTest &gt; Pages: 1 -->
<svg width="622pt" height="65pt"
 viewBox="0.00 0.00 622.46 65.00" xmlns="http://www.w3.org/2000/svg" xmlns:xlink="http://www.w3.org/1999/xlink">
<g id="graph0" class="graph" transform="scale(1 1) rotate(0) translate(4 61)">
<title>haldls::vx::detail::BackendContainerTrait&lt; PerfTest &gt;</title>
<polygon fill="white" stroke="transparent" points="-4,4 -4,-61 618.46,-61 618.46,4 -4,4"/>
<!-- Node0 -->
<g id="node1" class="node">
<title>Node0</title>
<g id="a_node1"><a xlink:title=" ">
<polygon fill="#bfbfbf" stroke="black" points="490.66,-6.5 490.66,-50.5 614.46,-50.5 614.46,-6.5 490.66,-6.5"/>
<text text-anchor="start" x="498.66" y="-37.5" font-family="Helvetica,sans-Serif" font-size="10.00">haldls::vx::detail</text>
<text text-anchor="start" x="498.66" y="-25.5" font-family="Helvetica,sans-Serif" font-size="10.00">::BackendContainerTrait</text>
<text text-anchor="middle" x="552.56" y="-13.5" font-family="Helvetica,sans-Serif" font-size="10.00">&lt; PerfTest &gt;</text>
</a>
</g>
</g>
<!-- Node1 -->
<g id="node2" class="node">
<title>Node1</title>
<g id="a_node2"><a xlink:href="structhaldls_1_1vx_1_1detail_1_1BackendContainerBase.html" target="_top" xlink:title=" ">
<polygon fill="white" stroke="black" points="327.07,-0.5 327.07,-56.5 453.66,-56.5 453.66,-0.5 327.07,-0.5"/>
<text text-anchor="start" x="335.07" y="-43.5" font-family="Helvetica,sans-Serif" font-size="10.00">haldls::vx::detail</text>
<text text-anchor="start" x="335.07" y="-31.5" font-family="Helvetica,sans-Serif" font-size="10.00">::BackendContainerBase</text>
<text text-anchor="start" x="335.07" y="-19.5" font-family="Helvetica,sans-Serif" font-size="10.00">&lt; PerfTest, fisch::vx</text>
<text text-anchor="middle" x="390.36" y="-7.5" font-family="Helvetica,sans-Serif" font-size="10.00">::OmnibusFPGA &gt;</text>
</a>
</g>
</g>
<!-- Node1&#45;&gt;Node0 -->
<g id="edge1" class="edge">
<title>Node1&#45;&gt;Node0</title>
<path fill="none" stroke="midnightblue" d="M463.81,-28.5C472.78,-28.5 481.88,-28.5 490.65,-28.5"/>
<polygon fill="midnightblue" stroke="midnightblue" points="463.76,-25 453.76,-28.5 463.76,-32 463.76,-25"/>
</g>
<!-- Node2 -->
<g id="node3" class="node">
<title>Node2</title>
<g id="a_node3"><a xlink:href="structhaldls_1_1vx_1_1detail_1_1BackendContainerBase.html" target="_top" xlink:title="Backend container trait base.">
<polygon fill="white" stroke="black" points="0,-0.5 0,-56.5 199.66,-56.5 199.66,-0.5 0,-0.5"/>
<text text-anchor="start" x="8" y="-43.5" font-family="Helvetica,sans-Serif" font-size="10.00">haldls::vx::detail</text>
<text text-anchor="start" x="8" y="-31.5" font-family="Helvetica,sans-Serif" font-size="10.00">::BackendContainerBase</text>
<text text-anchor="start" x="8" y="-19.5" font-family="Helvetica,sans-Serif" font-size="10.00">&lt; ContainerT, DefaultBackend</text>
<text text-anchor="middle" x="99.83" y="-7.5" font-family="Helvetica,sans-Serif" font-size="10.00">Container, AdditionalBackendContainer &gt;</text>
</a>
</g>
</g>
<!-- Node2&#45;&gt;Node1 -->
<g id="edge2" class="edge">
<title>Node2&#45;&gt;Node1</title>
<path fill="none" stroke="orange" stroke-dasharray="5,2" d="M209.94,-28.5C249.4,-28.5 292.61,-28.5 326.73,-28.5"/>
<polygon fill="orange" stroke="orange" points="209.72,-25 199.72,-28.5 209.72,-32 209.72,-25"/>
<text text-anchor="start" x="217.66" y="-43.5" font-family="Helvetica,sans-Serif" font-size="10.00"> &lt; PerfTest, fisch::</text>
<text text-anchor="middle" x="263.37" y="-31.5" font-family="Helvetica,sans-Serif" font-size="10.00">vx::OmnibusFPGA &gt;</text>
</g>
</g>
</svg>
