<?xml version="1.0" encoding="UTF-8" standalone="no"?>
<!DOCTYPE svg PUBLIC "-//W3C//DTD SVG 1.1//EN"
 "http://www.w3.org/Graphics/SVG/1.1/DTD/svg11.dtd">
<!-- Generated by graphviz version 2.43.0 (0)
 -->
<!-- Title: haldls::vx::detail::BackendContainerTrait&lt; ResetChip &gt; Pages: 1 -->
<svg width="615pt" height="65pt"
 viewBox="0.00 0.00 615.24 65.00" xmlns="http://www.w3.org/2000/svg" xmlns:xlink="http://www.w3.org/1999/xlink">
<g id="graph0" class="graph" transform="scale(1 1) rotate(0) translate(4 61)">
<title>haldls::vx::detail::BackendContainerTrait&lt; ResetChip &gt;</title>
<polygon fill="white" stroke="transparent" points="-4,4 -4,-61 611.24,-61 611.24,4 -4,4"/>
<!-- Node0 -->
<g id="node1" class="node">
<title>Node0</title>
<g id="a_node1"><a xlink:title=" ">
<polygon fill="#bfbfbf" stroke="black" points="483.44,-6.5 483.44,-50.5 607.24,-50.5 607.24,-6.5 483.44,-6.5"/>
<text text-anchor="start" x="491.44" y="-37.5" font-family="Helvetica,sans-Serif" font-size="10.00">haldls::vx::detail</text>
<text text-anchor="start" x="491.44" y="-25.5" font-family="Helvetica,sans-Serif" font-size="10.00">::BackendContainerTrait</text>
<text text-anchor="middle" x="545.34" y="-13.5" font-family="Helvetica,sans-Serif" font-size="10.00">&lt; ResetChip &gt;</text>
</a>
</g>
</g>
<!-- Node1 -->
<g id="node2" class="node">
<title>Node1</title>
<g id="a_node2"><a xlink:href="structhaldls_1_1vx_1_1detail_1_1BackendContainerBase.html" target="_top" xlink:title=" ">
<polygon fill="white" stroke="black" points="319.85,-0.5 319.85,-56.5 446.44,-56.5 446.44,-0.5 319.85,-0.5"/>
<text text-anchor="start" x="327.85" y="-43.5" font-family="Helvetica,sans-Serif" font-size="10.00">haldls::vx::detail</text>
<text text-anchor="start" x="327.85" y="-31.5" font-family="Helvetica,sans-Serif" font-size="10.00">::BackendContainerBase</text>
<text text-anchor="start" x="327.85" y="-19.5" font-family="Helvetica,sans-Serif" font-size="10.00">&lt; ResetChip, fisch::vx</text>
<text text-anchor="middle" x="383.14" y="-7.5" font-family="Helvetica,sans-Serif" font-size="10.00">::ResetChip &gt;</text>
</a>
</g>
</g>
<!-- Node1&#45;&gt;Node0 -->
<g id="edge1" class="edge">
<title>Node1&#45;&gt;Node0</title>
<path fill="none" stroke="midnightblue" d="M456.59,-28.5C465.56,-28.5 474.66,-28.5 483.43,-28.5"/>
<polygon fill="midnightblue" stroke="midnightblue" points="456.54,-25 446.54,-28.5 456.54,-32 456.54,-25"/>
</g>
<!-- Node2 -->
<g id="node3" class="node">
<title>Node2</title>
<g id="a_node3"><a xlink:href="structhaldls_1_1vx_1_1detail_1_1BackendContainerBase.html" target="_top" xlink:title="Backend container trait base.">
<polygon fill="white" stroke="black" points="0,-0.5 0,-56.5 199.66,-56.5 199.66,-0.5 0,-0.5"/>
<text text-anchor="start" x="8" y="-43.5" font-family="Helvetica,sans-Serif" font-size="10.00">haldls::vx::detail</text>
<text text-anchor="start" x="8" y="-31.5" font-family="Helvetica,sans-Serif" font-size="10.00">::BackendContainerBase</text>
<text text-anchor="start" x="8" y="-19.5" font-family="Helvetica,sans-Serif" font-size="10.00">&lt; ContainerT, DefaultBackend</text>
<text text-anchor="middle" x="99.83" y="-7.5" font-family="Helvetica,sans-Serif" font-size="10.00">Container, AdditionalBackendContainer &gt;</text>
</a>
</g>
</g>
<!-- Node2&#45;&gt;Node1 -->
<g id="edge2" class="edge">
<title>Node2&#45;&gt;Node1</title>
<path fill="none" stroke="orange" stroke-dasharray="5,2" d="M210.39,-28.5C247.49,-28.5 287.64,-28.5 319.78,-28.5"/>
<polygon fill="orange" stroke="orange" points="210.01,-25 200.01,-28.5 210.01,-32 210.01,-25"/>
<text text-anchor="start" x="217.66" y="-43.5" font-family="Helvetica,sans-Serif" font-size="10.00"> &lt; ResetChip, fisch</text>
<text text-anchor="middle" x="259.75" y="-31.5" font-family="Helvetica,sans-Serif" font-size="10.00">::vx::ResetChip &gt;</text>
</g>
</g>
</svg>
