<?xml version="1.0" encoding="UTF-8" standalone="no"?>
<!DOCTYPE svg PUBLIC "-//W3C//DTD SVG 1.1//EN"
 "http://www.w3.org/Graphics/SVG/1.1/DTD/svg11.dtd">
<!-- Generated by graphviz version 2.43.0 (0)
 -->
<!-- Title: /jenkins/jenlib_workspaces_f9/bld_nightly&#45;haldls.YmxkX25pZ2h0bHktaGFsZGxzIzcxMQ.x/haldls/include/haldls/vx/synapse_driver.h Pages: 1 -->
<svg width="1214pt" height="260pt"
 viewBox="0.00 0.00 1214.24 260.00" xmlns="http://www.w3.org/2000/svg" xmlns:xlink="http://www.w3.org/1999/xlink">
<g id="graph0" class="graph" transform="scale(1 1) rotate(0) translate(4 256)">
<title>/jenkins/jenlib_workspaces_f9/bld_nightly&#45;haldls.YmxkX25pZ2h0bHktaGFsZGxzIzcxMQ.x/haldls/include/haldls/vx/synapse_driver.h</title>
<polygon fill="white" stroke="transparent" points="-4,4 -4,-256 1210.24,-256 1210.24,4 -4,4"/>
<!-- Node0 -->
<g id="node1" class="node">
<title>Node0</title>
<g id="a_node1"><a xlink:title=" ">
<polygon fill="#bfbfbf" stroke="black" points="523.05,-195.5 523.05,-251.5 701.29,-251.5 701.29,-195.5 523.05,-195.5"/>
<text text-anchor="start" x="531.05" y="-238.5" font-family="Helvetica,sans-Serif" font-size="10.00">/jenkins/jenlib_workspaces</text>
<text text-anchor="start" x="531.05" y="-226.5" font-family="Helvetica,sans-Serif" font-size="10.00">_f9/bld_nightly&#45;haldls.YmxkX25p</text>
<text text-anchor="start" x="531.05" y="-214.5" font-family="Helvetica,sans-Serif" font-size="10.00">Z2h0bHktaGFsZGxzIzcxMQ.x/haldls</text>
<text text-anchor="middle" x="612.17" y="-202.5" font-family="Helvetica,sans-Serif" font-size="10.00">/include/haldls/vx/synapse_driver.h</text>
</a>
</g>
</g>
<!-- Node1 -->
<g id="node2" class="node">
<title>Node1</title>
<g id="a_node2"><a xlink:title=" ">
<polygon fill="white" stroke="#bfbfbf" points="122.78,-132.5 122.78,-152.5 161.56,-152.5 161.56,-132.5 122.78,-132.5"/>
<text text-anchor="middle" x="142.17" y="-139.5" font-family="Helvetica,sans-Serif" font-size="10.00">array</text>
</a>
</g>
</g>
<!-- Node0&#45;&gt;Node1 -->
<g id="edge1" class="edge">
<title>Node0&#45;&gt;Node1</title>
<path fill="none" stroke="midnightblue" d="M523.04,-217.26C433.54,-210.21 292.47,-194.22 175.17,-159 172.87,-158.31 170.52,-157.48 168.2,-156.57"/>
<polygon fill="midnightblue" stroke="midnightblue" points="169.48,-153.32 158.92,-152.53 166.69,-159.73 169.48,-153.32"/>
</g>
<!-- Node2 -->
<g id="node3" class="node">
<title>Node2</title>
<g id="a_node3"><a xlink:title=" ">
<polygon fill="white" stroke="#bfbfbf" points="0,-6.5 0,-26.5 44.34,-26.5 44.34,-6.5 0,-6.5"/>
<text text-anchor="middle" x="22.17" y="-13.5" font-family="Helvetica,sans-Serif" font-size="10.00">iosfwd</text>
</a>
</g>
</g>
<!-- Node0&#45;&gt;Node2 -->
<g id="edge2" class="edge">
<title>Node0&#45;&gt;Node2</title>
<path fill="none" stroke="midnightblue" d="M523.01,-210.79C459.89,-200.94 373.89,-184.35 301.17,-159 201.37,-124.22 92.08,-60.55 45.4,-32.01"/>
<polygon fill="midnightblue" stroke="midnightblue" points="47.01,-28.9 36.66,-26.64 43.34,-34.86 47.01,-28.9"/>
</g>
<!-- Node3 -->
<g id="node4" class="node">
<title>Node3</title>
<g id="a_node4"><a xlink:title=" ">
<polygon fill="white" stroke="#bfbfbf" points="771.27,-132.5 771.27,-152.5 905.07,-152.5 905.07,-132.5 771.27,-132.5"/>
<text text-anchor="middle" x="838.17" y="-139.5" font-family="Helvetica,sans-Serif" font-size="10.00">halco/common/geometry.h</text>
</a>
</g>
</g>
<!-- Node0&#45;&gt;Node3 -->
<g id="edge3" class="edge">
<title>Node0&#45;&gt;Node3</title>
<path fill="none" stroke="midnightblue" d="M689.63,-195.42C727.97,-182.02 772.39,-166.49 802.6,-155.93"/>
<polygon fill="midnightblue" stroke="midnightblue" points="803.98,-159.16 812.27,-152.55 801.67,-152.55 803.98,-159.16"/>
</g>
<!-- Node4 -->
<g id="node5" class="node">
<title>Node4</title>
<g id="a_node5"><a xlink:title=" ">
<polygon fill="white" stroke="#bfbfbf" points="922.66,-126.5 922.66,-158.5 1023.68,-158.5 1023.68,-126.5 922.66,-126.5"/>
<text text-anchor="start" x="930.66" y="-145.5" font-family="Helvetica,sans-Serif" font-size="10.00">halco/hicann&#45;dls/vx</text>
<text text-anchor="middle" x="973.17" y="-133.5" font-family="Helvetica,sans-Serif" font-size="10.00">/synapse_driver.h</text>
</a>
</g>
</g>
<!-- Node0&#45;&gt;Node4 -->
<g id="edge4" class="edge">
<title>Node0&#45;&gt;Node4</title>
<path fill="none" stroke="midnightblue" d="M701.29,-204.97C759.09,-193.32 836.23,-177.23 912.57,-159.33"/>
<polygon fill="midnightblue" stroke="midnightblue" points="913.43,-162.72 922.36,-157.02 911.82,-155.91 913.43,-162.72"/>
</g>
<!-- Node5 -->
<g id="node6" class="node">
<title>Node5</title>
<g id="a_node6"><a xlink:href="cerealization_8h.html" target="_top" xlink:title=" ">
<polygon fill="white" stroke="black" points="217.49,-69.5 217.49,-89.5 326.84,-89.5 326.84,-69.5 217.49,-69.5"/>
<text text-anchor="middle" x="272.17" y="-76.5" font-family="Helvetica,sans-Serif" font-size="10.00">haldls/cerealization.h</text>
</a>
</g>
</g>
<!-- Node0&#45;&gt;Node5 -->
<g id="edge5" class="edge">
<title>Node0&#45;&gt;Node5</title>
<path fill="none" stroke="midnightblue" d="M522.78,-215.49C467.29,-207.89 396.29,-192.04 341.17,-159 315.85,-143.83 294.85,-116.25 282.9,-98.15"/>
<polygon fill="midnightblue" stroke="midnightblue" points="285.83,-96.22 277.5,-89.67 279.92,-99.98 285.83,-96.22"/>
</g>
<!-- Node7 -->
<g id="node8" class="node">
<title>Node7</title>
<g id="a_node8"><a xlink:title=" ">
<polygon fill="white" stroke="#bfbfbf" points="241.66,-6.5 241.66,-26.5 322.67,-26.5 322.67,-6.5 241.66,-6.5"/>
<text text-anchor="middle" x="282.17" y="-13.5" font-family="Helvetica,sans-Serif" font-size="10.00">hate/visibility.h</text>
</a>
</g>
</g>
<!-- Node0&#45;&gt;Node7 -->
<g id="edge30" class="edge">
<title>Node0&#45;&gt;Node7</title>
<path fill="none" stroke="midnightblue" d="M553.67,-195.48C502.97,-170.95 428.62,-132.22 369.17,-90 343.82,-72 316.59,-48.57 299.48,-33.29"/>
<polygon fill="midnightblue" stroke="midnightblue" points="301.72,-30.6 291.94,-26.51 297.03,-35.8 301.72,-30.6"/>
</g>
<!-- Node10 -->
<g id="node11" class="node">
<title>Node10</title>
<g id="a_node11"><a xlink:href="genpybind_8h.html" target="_top" xlink:title=" ">
<polygon fill="white" stroke="black" points="1076.1,-6.5 1076.1,-26.5 1188.24,-26.5 1188.24,-6.5 1076.1,-6.5"/>
<text text-anchor="middle" x="1132.17" y="-13.5" font-family="Helvetica,sans-Serif" font-size="10.00">haldls/vx/genpybind.h</text>
</a>
</g>
</g>
<!-- Node0&#45;&gt;Node10 -->
<g id="edge11" class="edge">
<title>Node0&#45;&gt;Node10</title>
<path fill="none" stroke="midnightblue" d="M647.77,-195.42C677.16,-174.12 720.62,-144.98 762.17,-126 820.97,-99.14 1001.66,-51.05 1086.84,-29.05"/>
<polygon fill="midnightblue" stroke="midnightblue" points="1087.93,-32.39 1096.74,-26.5 1086.19,-25.61 1087.93,-32.39"/>
</g>
<!-- Node11 -->
<g id="node12" class="node">
<title>Node11</title>
<g id="a_node12"><a xlink:href="sram__controller_8h.html" target="_top" xlink:title=" ">
<polygon fill="white" stroke="black" points="492.72,-132.5 492.72,-152.5 627.62,-152.5 627.62,-132.5 492.72,-132.5"/>
<text text-anchor="middle" x="560.17" y="-139.5" font-family="Helvetica,sans-Serif" font-size="10.00">haldls/vx/sram_controller.h</text>
</a>
</g>
</g>
<!-- Node0&#45;&gt;Node11 -->
<g id="edge13" class="edge">
<title>Node0&#45;&gt;Node11</title>
<path fill="none" stroke="midnightblue" d="M594.27,-195.31C586.88,-184.08 578.52,-171.38 571.92,-161.36"/>
<polygon fill="midnightblue" stroke="midnightblue" points="574.65,-159.14 566.23,-152.71 568.81,-162.99 574.65,-159.14"/>
</g>
<!-- Node16 -->
<g id="node17" class="node">
<title>Node16</title>
<g id="a_node17"><a xlink:href="traits_8h.html" target="_top" xlink:title=" ">
<polygon fill="white" stroke="black" points="630.33,-69.5 630.33,-89.5 718.01,-89.5 718.01,-69.5 630.33,-69.5"/>
<text text-anchor="middle" x="674.17" y="-76.5" font-family="Helvetica,sans-Serif" font-size="10.00">haldls/vx/traits.h</text>
</a>
</g>
</g>
<!-- Node0&#45;&gt;Node16 -->
<g id="edge29" class="edge">
<title>Node0&#45;&gt;Node16</title>
<path fill="none" stroke="midnightblue" d="M623.98,-195.46C636.33,-167.15 655.4,-123.48 666.13,-98.92"/>
<polygon fill="midnightblue" stroke="midnightblue" points="669.37,-100.22 670.17,-89.66 662.96,-97.42 669.37,-100.22"/>
</g>
<!-- Node21 -->
<g id="node22" class="node">
<title>Node21</title>
<g id="a_node22"><a xlink:title=" ">
<polygon fill="white" stroke="#bfbfbf" points="1041.55,-132.5 1041.55,-152.5 1144.79,-152.5 1144.79,-132.5 1041.55,-132.5"/>
<text text-anchor="middle" x="1093.17" y="-139.5" font-family="Helvetica,sans-Serif" font-size="10.00">hxcomm/vx/target.h</text>
</a>
</g>
</g>
<!-- Node0&#45;&gt;Node21 -->
<g id="edge31" class="edge">
<title>Node0&#45;&gt;Node21</title>
<path fill="none" stroke="midnightblue" d="M701.34,-211.76C786.88,-200.83 919.46,-182.2 1033.17,-159 1038.91,-157.83 1044.92,-156.45 1050.83,-155.02"/>
<polygon fill="midnightblue" stroke="midnightblue" points="1051.77,-158.39 1060.61,-152.56 1050.06,-151.6 1051.77,-158.39"/>
</g>
<!-- Node5&#45;&gt;Node2 -->
<g id="edge9" class="edge">
<title>Node5&#45;&gt;Node2</title>
<path fill="none" stroke="midnightblue" d="M217.11,-71.11C172.17,-64.12 107.46,-51.85 53.17,-33 51.29,-32.35 49.38,-31.61 47.48,-30.81"/>
<polygon fill="midnightblue" stroke="midnightblue" points="48.78,-27.55 38.23,-26.52 45.83,-33.9 48.78,-27.55"/>
</g>
<!-- Node6 -->
<g id="node7" class="node">
<title>Node6</title>
<g id="a_node7"><a xlink:title=" ">
<polygon fill="white" stroke="#bfbfbf" points="340.54,-6.5 340.54,-26.5 423.79,-26.5 423.79,-6.5 340.54,-6.5"/>
<text text-anchor="middle" x="382.17" y="-13.5" font-family="Helvetica,sans-Serif" font-size="10.00">hate/type_list.h</text>
</a>
</g>
</g>
<!-- Node5&#45;&gt;Node6 -->
<g id="edge6" class="edge">
<title>Node5&#45;&gt;Node6</title>
<path fill="none" stroke="midnightblue" d="M288.4,-69.5C306.43,-59.5 335.78,-43.22 356.85,-31.54"/>
<polygon fill="midnightblue" stroke="midnightblue" points="358.82,-34.45 365.87,-26.54 355.43,-28.33 358.82,-34.45"/>
</g>
<!-- Node5&#45;&gt;Node7 -->
<g id="edge7" class="edge">
<title>Node5&#45;&gt;Node7</title>
<path fill="none" stroke="midnightblue" d="M273.64,-69.5C275.06,-60.85 277.25,-47.51 279.05,-36.5"/>
<polygon fill="midnightblue" stroke="midnightblue" points="282.52,-36.97 280.69,-26.54 275.61,-35.84 282.52,-36.97"/>
</g>
<!-- Node8 -->
<g id="node9" class="node">
<title>Node8</title>
<g id="a_node9"><a xlink:title=" ">
<polygon fill="white" stroke="#bfbfbf" points="178.72,-6.5 178.72,-26.5 223.62,-26.5 223.62,-6.5 178.72,-6.5"/>
<text text-anchor="middle" x="201.17" y="-13.5" font-family="Helvetica,sans-Serif" font-size="10.00">cstdint</text>
</a>
</g>
</g>
<!-- Node5&#45;&gt;Node8 -->
<g id="edge8" class="edge">
<title>Node5&#45;&gt;Node8</title>
<path fill="none" stroke="midnightblue" d="M261.69,-69.5C250.57,-59.95 232.8,-44.67 219.38,-33.15"/>
<polygon fill="midnightblue" stroke="midnightblue" points="221.55,-30.4 211.69,-26.54 216.99,-35.71 221.55,-30.4"/>
</g>
<!-- Node9 -->
<g id="node10" class="node">
<title>Node9</title>
<g id="a_node10"><a xlink:title=" ">
<polygon fill="white" stroke="#bfbfbf" points="62.05,-6.5 62.05,-26.5 160.29,-26.5 160.29,-6.5 62.05,-6.5"/>
<text text-anchor="middle" x="111.17" y="-13.5" font-family="Helvetica,sans-Serif" font-size="10.00">cereal/macros.hpp</text>
</a>
</g>
</g>
<!-- Node5&#45;&gt;Node9 -->
<g id="edge10" class="edge">
<title>Node5&#45;&gt;Node9</title>
<path fill="none" stroke="midnightblue" d="M248.41,-69.5C220.94,-59.09 175.54,-41.89 144.54,-30.14"/>
<polygon fill="midnightblue" stroke="midnightblue" points="145.61,-26.81 135.02,-26.54 143.13,-33.35 145.61,-26.81"/>
</g>
<!-- Node10&#45;&gt;Node10 -->
<g id="edge12" class="edge">
<title>Node10&#45;&gt;Node10</title>
<path fill="none" stroke="midnightblue" d="M1160.67,-26.56C1183.16,-30.45 1206.24,-27.1 1206.24,-16.5 1206.24,-7.48 1189.51,-3.71 1170.65,-5.19"/>
<polygon fill="midnightblue" stroke="midnightblue" points="1170.16,-1.72 1160.67,-6.44 1171.03,-8.67 1170.16,-1.72"/>
</g>
<!-- Node11&#45;&gt;Node5 -->
<g id="edge14" class="edge">
<title>Node11&#45;&gt;Node5</title>
<path fill="none" stroke="midnightblue" d="M517.67,-132.5C466.41,-121.64 380.23,-103.39 324.81,-91.65"/>
<polygon fill="midnightblue" stroke="midnightblue" points="325.35,-88.19 314.84,-89.54 323.89,-95.03 325.35,-88.19"/>
</g>
<!-- Node11&#45;&gt;Node7 -->
<g id="edge28" class="edge">
<title>Node11&#45;&gt;Node7</title>
<path fill="none" stroke="midnightblue" d="M529.24,-132.46C498.87,-123.19 451.51,-107.65 412.17,-90 373.32,-72.57 330.63,-47.54 305.13,-31.92"/>
<polygon fill="midnightblue" stroke="midnightblue" points="306.9,-28.9 296.55,-26.62 303.22,-34.85 306.9,-28.9"/>
</g>
<!-- Node11&#45;&gt;Node10 -->
<g id="edge19" class="edge">
<title>Node11&#45;&gt;Node10</title>
<path fill="none" stroke="midnightblue" d="M594.93,-132.48C629.09,-123.22 682.45,-107.69 727.17,-90 746.94,-82.18 749.77,-75.03 770.17,-69 897.68,-31.3 936.29,-56.46 1067.17,-33 1073.84,-31.8 1080.86,-30.35 1087.71,-28.81"/>
<polygon fill="midnightblue" stroke="midnightblue" points="1088.63,-32.19 1097.58,-26.52 1087.04,-25.37 1088.63,-32.19"/>
</g>
<!-- Node12 -->
<g id="node13" class="node">
<title>Node12</title>
<g id="a_node13"><a xlink:href="common_8h.html" target="_top" xlink:title=" ">
<polygon fill="white" stroke="black" points="507.99,-69.5 507.99,-89.5 612.34,-89.5 612.34,-69.5 507.99,-69.5"/>
<text text-anchor="middle" x="560.17" y="-76.5" font-family="Helvetica,sans-Serif" font-size="10.00">haldls/vx/common.h</text>
</a>
</g>
</g>
<!-- Node11&#45;&gt;Node12 -->
<g id="edge15" class="edge">
<title>Node11&#45;&gt;Node12</title>
<path fill="none" stroke="midnightblue" d="M560.17,-132.5C560.17,-123.94 560.17,-110.78 560.17,-99.85"/>
<polygon fill="midnightblue" stroke="midnightblue" points="563.67,-99.54 560.17,-89.54 556.67,-99.54 563.67,-99.54"/>
</g>
<!-- Node11&#45;&gt;Node16 -->
<g id="edge20" class="edge">
<title>Node11&#45;&gt;Node16</title>
<path fill="none" stroke="midnightblue" d="M576.99,-132.5C595.76,-122.45 626.37,-106.07 648.22,-94.38"/>
<polygon fill="midnightblue" stroke="midnightblue" points="650.11,-97.34 657.28,-89.54 646.81,-91.17 650.11,-97.34"/>
</g>
<!-- Node20 -->
<g id="node21" class="node">
<title>Node20</title>
<g id="a_node21"><a xlink:title=" ">
<polygon fill="white" stroke="#bfbfbf" points="420.77,-69.5 420.77,-89.5 489.57,-89.5 489.57,-69.5 420.77,-69.5"/>
<text text-anchor="middle" x="455.17" y="-76.5" font-family="Helvetica,sans-Serif" font-size="10.00">hate/math.h</text>
</a>
</g>
</g>
<!-- Node11&#45;&gt;Node20 -->
<g id="edge27" class="edge">
<title>Node11&#45;&gt;Node20</title>
<path fill="none" stroke="midnightblue" d="M544.67,-132.5C527.54,-122.54 499.69,-106.37 479.61,-94.7"/>
<polygon fill="midnightblue" stroke="midnightblue" points="481.13,-91.53 470.72,-89.54 477.61,-97.59 481.13,-91.53"/>
</g>
<!-- Node13 -->
<g id="node14" class="node">
<title>Node13</title>
<g id="a_node14"><a xlink:title=" ">
<polygon fill="white" stroke="#bfbfbf" points="640.11,-6.5 640.11,-26.5 702.23,-26.5 702.23,-6.5 640.11,-6.5"/>
<text text-anchor="middle" x="671.17" y="-13.5" font-family="Helvetica,sans-Serif" font-size="10.00">type_traits</text>
</a>
</g>
</g>
<!-- Node12&#45;&gt;Node13 -->
<g id="edge16" class="edge">
<title>Node12&#45;&gt;Node13</title>
<path fill="none" stroke="midnightblue" d="M576.55,-69.5C594.83,-59.45 624.63,-43.07 645.9,-31.38"/>
<polygon fill="midnightblue" stroke="midnightblue" points="647.64,-34.42 654.72,-26.54 644.27,-28.29 647.64,-34.42"/>
</g>
<!-- Node14 -->
<g id="node15" class="node">
<title>Node14</title>
<g id="a_node15"><a xlink:title=" ">
<polygon fill="white" stroke="#bfbfbf" points="441.78,-6.5 441.78,-26.5 480.55,-26.5 480.55,-6.5 441.78,-6.5"/>
<text text-anchor="middle" x="461.17" y="-13.5" font-family="Helvetica,sans-Serif" font-size="10.00">utility</text>
</a>
</g>
</g>
<!-- Node12&#45;&gt;Node14 -->
<g id="edge17" class="edge">
<title>Node12&#45;&gt;Node14</title>
<path fill="none" stroke="midnightblue" d="M545.56,-69.5C529.47,-59.59 503.39,-43.51 484.47,-31.86"/>
<polygon fill="midnightblue" stroke="midnightblue" points="486.18,-28.8 475.84,-26.54 482.51,-34.76 486.18,-28.8"/>
</g>
<!-- Node15 -->
<g id="node16" class="node">
<title>Node15</title>
<g id="a_node16"><a xlink:title=" ">
<polygon fill="white" stroke="#bfbfbf" points="498.54,-6.5 498.54,-26.5 621.79,-26.5 621.79,-6.5 498.54,-6.5"/>
<text text-anchor="middle" x="560.17" y="-13.5" font-family="Helvetica,sans-Serif" font-size="10.00">fisch/vx/omnibus_data.h</text>
</a>
</g>
</g>
<!-- Node12&#45;&gt;Node15 -->
<g id="edge18" class="edge">
<title>Node12&#45;&gt;Node15</title>
<path fill="none" stroke="midnightblue" d="M560.17,-69.5C560.17,-60.94 560.17,-47.78 560.17,-36.85"/>
<polygon fill="midnightblue" stroke="midnightblue" points="563.67,-36.54 560.17,-26.54 556.67,-36.54 563.67,-36.54"/>
</g>
<!-- Node16&#45;&gt;Node6 -->
<g id="edge24" class="edge">
<title>Node16&#45;&gt;Node6</title>
<path fill="none" stroke="midnightblue" d="M630.11,-70.45C565.85,-58.67 451.98,-37.62 433.17,-33 428.8,-31.93 424.26,-30.71 419.76,-29.43"/>
<polygon fill="midnightblue" stroke="midnightblue" points="420.66,-26.04 410.07,-26.58 418.68,-32.76 420.66,-26.04"/>
</g>
<!-- Node16&#45;&gt;Node10 -->
<g id="edge23" class="edge">
<title>Node16&#45;&gt;Node10</title>
<path fill="none" stroke="midnightblue" d="M718.15,-71.03C722.87,-70.31 727.62,-69.62 732.17,-69 880.56,-48.89 919.59,-58.42 1067.17,-33 1073.93,-31.84 1081.03,-30.38 1087.96,-28.84"/>
<polygon fill="midnightblue" stroke="midnightblue" points="1088.98,-32.19 1097.93,-26.53 1087.4,-25.37 1088.98,-32.19"/>
</g>
<!-- Node16&#45;&gt;Node13 -->
<g id="edge21" class="edge">
<title>Node16&#45;&gt;Node13</title>
<path fill="none" stroke="midnightblue" d="M673.72,-69.5C673.3,-60.94 672.66,-47.78 672.12,-36.85"/>
<polygon fill="midnightblue" stroke="midnightblue" points="675.6,-36.35 671.61,-26.54 668.61,-36.7 675.6,-36.35"/>
</g>
<!-- Node17 -->
<g id="node18" class="node">
<title>Node17</title>
<g id="a_node18"><a xlink:title=" ">
<polygon fill="white" stroke="#bfbfbf" points="720.55,-0.5 720.55,-32.5 813.79,-32.5 813.79,-0.5 720.55,-0.5"/>
<text text-anchor="start" x="728.55" y="-19.5" font-family="Helvetica,sans-Serif" font-size="10.00">fisch/vx/container</text>
<text text-anchor="middle" x="767.17" y="-7.5" font-family="Helvetica,sans-Serif" font-size="10.00">_fwd.h</text>
</a>
</g>
</g>
<!-- Node16&#45;&gt;Node17 -->
<g id="edge22" class="edge">
<title>Node16&#45;&gt;Node17</title>
<path fill="none" stroke="midnightblue" d="M687.89,-69.5C700.34,-61.33 719.16,-48.99 735.35,-38.37"/>
<polygon fill="midnightblue" stroke="midnightblue" points="737.56,-41.1 744.01,-32.69 733.73,-35.25 737.56,-41.1"/>
</g>
<!-- Node18 -->
<g id="node19" class="node">
<title>Node18</title>
<g id="a_node19"><a xlink:title=" ">
<polygon fill="white" stroke="#bfbfbf" points="831.77,-0.5 831.77,-32.5 930.57,-32.5 930.57,-0.5 831.77,-0.5"/>
<text text-anchor="start" x="839.77" y="-19.5" font-family="Helvetica,sans-Serif" font-size="10.00">boost/utility/enable</text>
<text text-anchor="middle" x="881.17" y="-7.5" font-family="Helvetica,sans-Serif" font-size="10.00">_if.hpp</text>
</a>
</g>
</g>
<!-- Node16&#45;&gt;Node18 -->
<g id="edge25" class="edge">
<title>Node16&#45;&gt;Node18</title>
<path fill="none" stroke="midnightblue" d="M704.71,-69.5C735.37,-60.46 783.41,-46.31 821.63,-35.04"/>
<polygon fill="midnightblue" stroke="midnightblue" points="823.02,-38.28 831.62,-32.1 821.04,-31.57 823.02,-38.28"/>
</g>
<!-- Node19 -->
<g id="node20" class="node">
<title>Node19</title>
<g id="a_node20"><a xlink:title=" ">
<polygon fill="white" stroke="#bfbfbf" points="948.21,-6.5 948.21,-26.5 1058.12,-26.5 1058.12,-6.5 948.21,-6.5"/>
<text text-anchor="middle" x="1003.17" y="-13.5" font-family="Helvetica,sans-Serif" font-size="10.00">fisch/vx/container.def</text>
</a>
</g>
</g>
<!-- Node16&#45;&gt;Node19 -->
<g id="edge26" class="edge">
<title>Node16&#45;&gt;Node19</title>
<path fill="none" stroke="midnightblue" d="M718.29,-71.09C788,-59.36 917.94,-37.39 939.17,-33 945.27,-31.74 951.67,-30.31 957.96,-28.85"/>
<polygon fill="midnightblue" stroke="midnightblue" points="958.8,-32.25 967.72,-26.54 957.18,-25.44 958.8,-32.25"/>
</g>
</g>
</svg>
