<?xml version="1.0" encoding="UTF-8" standalone="no"?>
<!DOCTYPE svg PUBLIC "-//W3C//DTD SVG 1.1//EN"
 "http://www.w3.org/Graphics/SVG/1.1/DTD/svg11.dtd">
<!-- Generated by graphviz version 2.43.0 (0)
 -->
<!-- Title: /jenkins/jenlib_workspaces_f9/bld_nightly&#45;haldls.YmxkX25pZ2h0bHktaGFsZGxzIzcxMQ.x/haldls/include/haldls/vx/synapse.h Pages: 1 -->
<svg width="1523pt" height="203pt"
 viewBox="0.00 0.00 1523.13 203.00" xmlns="http://www.w3.org/2000/svg" xmlns:xlink="http://www.w3.org/1999/xlink">
<g id="graph0" class="graph" transform="scale(1 1) rotate(0) translate(4 199)">
<title>/jenkins/jenlib_workspaces_f9/bld_nightly&#45;haldls.YmxkX25pZ2h0bHktaGFsZGxzIzcxMQ.x/haldls/include/haldls/vx/synapse.h</title>
<polygon fill="white" stroke="transparent" points="-4,4 -4,-199 1519.13,-199 1519.13,4 -4,4"/>
<!-- Node0 -->
<g id="node1" class="node">
<title>Node0</title>
<g id="a_node1"><a xlink:title=" ">
<polygon fill="#bfbfbf" stroke="black" points="816.51,-138.5 816.51,-194.5 994.75,-194.5 994.75,-138.5 816.51,-138.5"/>
<text text-anchor="start" x="824.51" y="-181.5" font-family="Helvetica,sans-Serif" font-size="10.00">/jenkins/jenlib_workspaces</text>
<text text-anchor="start" x="824.51" y="-169.5" font-family="Helvetica,sans-Serif" font-size="10.00">_f9/bld_nightly&#45;haldls.YmxkX25p</text>
<text text-anchor="start" x="824.51" y="-157.5" font-family="Helvetica,sans-Serif" font-size="10.00">Z2h0bHktaGFsZGxzIzcxMQ.x/haldls</text>
<text text-anchor="middle" x="905.63" y="-145.5" font-family="Helvetica,sans-Serif" font-size="10.00">/include/haldls/vx/synapse.h</text>
</a>
</g>
</g>
<!-- Node1 -->
<g id="node2" class="node">
<title>Node1</title>
<g id="a_node2"><a xlink:title=" ">
<polygon fill="white" stroke="#bfbfbf" points="119.24,-75.5 119.24,-95.5 158.01,-95.5 158.01,-75.5 119.24,-75.5"/>
<text text-anchor="middle" x="138.63" y="-82.5" font-family="Helvetica,sans-Serif" font-size="10.00">array</text>
</a>
</g>
</g>
<!-- Node0&#45;&gt;Node1 -->
<g id="edge1" class="edge">
<title>Node0&#45;&gt;Node1</title>
<path fill="none" stroke="midnightblue" d="M816.47,-162.32C647.51,-155.55 286.91,-137.38 167.63,-102 165.74,-101.44 163.83,-100.75 161.95,-99.97"/>
<polygon fill="midnightblue" stroke="midnightblue" points="163.41,-96.79 152.88,-95.59 160.36,-103.1 163.41,-96.79"/>
</g>
<!-- Node2 -->
<g id="node3" class="node">
<title>Node2</title>
<g id="a_node3"><a xlink:title=" ">
<polygon fill="white" stroke="#bfbfbf" points="883.46,-6.5 883.46,-26.5 927.79,-26.5 927.79,-6.5 883.46,-6.5"/>
<text text-anchor="middle" x="905.63" y="-13.5" font-family="Helvetica,sans-Serif" font-size="10.00">iosfwd</text>
</a>
</g>
</g>
<!-- Node0&#45;&gt;Node2 -->
<g id="edge2" class="edge">
<title>Node0&#45;&gt;Node2</title>
<path fill="none" stroke="midnightblue" d="M868.65,-138.35C857.85,-128.27 847.4,-115.87 841.63,-102 835.99,-88.46 835.29,-82.23 841.63,-69 849.26,-53.07 864.49,-40.5 878.17,-31.76"/>
<polygon fill="midnightblue" stroke="midnightblue" points="880.06,-34.71 886.85,-26.58 876.47,-28.7 880.06,-34.71"/>
</g>
<!-- Node3 -->
<g id="node4" class="node">
<title>Node3</title>
<g id="a_node4"><a xlink:title=" ">
<polygon fill="white" stroke="#bfbfbf" points="1016.73,-75.5 1016.73,-95.5 1150.53,-95.5 1150.53,-75.5 1016.73,-75.5"/>
<text text-anchor="middle" x="1083.63" y="-82.5" font-family="Helvetica,sans-Serif" font-size="10.00">halco/common/geometry.h</text>
</a>
</g>
</g>
<!-- Node0&#45;&gt;Node3 -->
<g id="edge3" class="edge">
<title>Node0&#45;&gt;Node3</title>
<path fill="none" stroke="midnightblue" d="M966.88,-138.31C996.4,-125.21 1030.45,-110.1 1054.13,-99.59"/>
<polygon fill="midnightblue" stroke="midnightblue" points="1055.57,-102.78 1063.29,-95.53 1052.73,-96.39 1055.57,-102.78"/>
</g>
<!-- Node4 -->
<g id="node5" class="node">
<title>Node4</title>
<g id="a_node5"><a xlink:title=" ">
<polygon fill="white" stroke="#bfbfbf" points="1168.5,-69.5 1168.5,-101.5 1276.75,-101.5 1276.75,-69.5 1168.5,-69.5"/>
<text text-anchor="start" x="1176.5" y="-88.5" font-family="Helvetica,sans-Serif" font-size="10.00">halco/common/typed</text>
<text text-anchor="middle" x="1222.63" y="-76.5" font-family="Helvetica,sans-Serif" font-size="10.00">_array.h</text>
</a>
</g>
</g>
<!-- Node0&#45;&gt;Node4 -->
<g id="edge4" class="edge">
<title>Node0&#45;&gt;Node4</title>
<path fill="none" stroke="midnightblue" d="M994.77,-143.28C1046.92,-130.29 1111.54,-114.18 1158.63,-102.45"/>
<polygon fill="midnightblue" stroke="midnightblue" points="1159.54,-105.83 1168.4,-100.01 1157.85,-99.04 1159.54,-105.83"/>
</g>
<!-- Node5 -->
<g id="node6" class="node">
<title>Node5</title>
<g id="a_node6"><a xlink:title=" ">
<polygon fill="white" stroke="#bfbfbf" points="1295.12,-69.5 1295.12,-101.5 1396.13,-101.5 1396.13,-69.5 1295.12,-69.5"/>
<text text-anchor="start" x="1303.12" y="-88.5" font-family="Helvetica,sans-Serif" font-size="10.00">halco/hicann&#45;dls/vx</text>
<text text-anchor="middle" x="1345.63" y="-76.5" font-family="Helvetica,sans-Serif" font-size="10.00">/capmem.h</text>
</a>
</g>
</g>
<!-- Node0&#45;&gt;Node5 -->
<g id="edge5" class="edge">
<title>Node0&#45;&gt;Node5</title>
<path fill="none" stroke="midnightblue" d="M995.1,-152.8C1070.03,-141.65 1179.93,-124.08 1285.12,-102"/>
<polygon fill="midnightblue" stroke="midnightblue" points="1285.9,-105.41 1294.96,-99.92 1284.45,-98.57 1285.9,-105.41"/>
</g>
<!-- Node6 -->
<g id="node7" class="node">
<title>Node6</title>
<g id="a_node7"><a xlink:title=" ">
<polygon fill="white" stroke="#bfbfbf" points="1414.12,-69.5 1414.12,-101.5 1515.13,-101.5 1515.13,-69.5 1414.12,-69.5"/>
<text text-anchor="start" x="1422.12" y="-88.5" font-family="Helvetica,sans-Serif" font-size="10.00">halco/hicann&#45;dls/vx</text>
<text text-anchor="middle" x="1464.63" y="-76.5" font-family="Helvetica,sans-Serif" font-size="10.00">/synapse.h</text>
</a>
</g>
</g>
<!-- Node0&#45;&gt;Node6 -->
<g id="edge6" class="edge">
<title>Node0&#45;&gt;Node6</title>
<path fill="none" stroke="midnightblue" d="M995.15,-157.69C1093.38,-148.31 1255.75,-130.45 1403.7,-102.24"/>
<polygon fill="midnightblue" stroke="midnightblue" points="1404.72,-105.61 1413.87,-100.28 1403.39,-98.74 1404.72,-105.61"/>
</g>
<!-- Node7 -->
<g id="node8" class="node">
<title>Node7</title>
<g id="a_node8"><a xlink:href="cerealization_8h.html" target="_top" xlink:title=" ">
<polygon fill="white" stroke="black" points="850.95,-75.5 850.95,-95.5 960.3,-95.5 960.3,-75.5 850.95,-75.5"/>
<text text-anchor="middle" x="905.63" y="-82.5" font-family="Helvetica,sans-Serif" font-size="10.00">haldls/cerealization.h</text>
</a>
</g>
</g>
<!-- Node0&#45;&gt;Node7 -->
<g id="edge7" class="edge">
<title>Node0&#45;&gt;Node7</title>
<path fill="none" stroke="midnightblue" d="M905.63,-138.31C905.63,-127.66 905.63,-115.68 905.63,-105.93"/>
<polygon fill="midnightblue" stroke="midnightblue" points="909.13,-105.71 905.63,-95.71 902.13,-105.71 909.13,-105.71"/>
</g>
<!-- Node9 -->
<g id="node10" class="node">
<title>Node9</title>
<g id="a_node10"><a xlink:title=" ">
<polygon fill="white" stroke="#bfbfbf" points="1126.12,-6.5 1126.12,-26.5 1207.13,-26.5 1207.13,-6.5 1126.12,-6.5"/>
<text text-anchor="middle" x="1166.63" y="-13.5" font-family="Helvetica,sans-Serif" font-size="10.00">hate/visibility.h</text>
</a>
</g>
</g>
<!-- Node0&#45;&gt;Node9 -->
<g id="edge26" class="edge">
<title>Node0&#45;&gt;Node9</title>
<path fill="none" stroke="midnightblue" d="M933.1,-138.31C960.31,-111.57 999.11,-74.05 1007.63,-69 1012.99,-65.82 1082.83,-43.69 1128.15,-29.5"/>
<polygon fill="midnightblue" stroke="midnightblue" points="1129.19,-32.84 1137.69,-26.51 1127.1,-26.15 1129.19,-32.84"/>
</g>
<!-- Node12 -->
<g id="node13" class="node">
<title>Node12</title>
<g id="a_node13"><a xlink:href="common_8h.html" target="_top" xlink:title=" ">
<polygon fill="white" stroke="black" points="176.45,-75.5 176.45,-95.5 280.8,-95.5 280.8,-75.5 176.45,-75.5"/>
<text text-anchor="middle" x="228.63" y="-82.5" font-family="Helvetica,sans-Serif" font-size="10.00">haldls/vx/common.h</text>
</a>
</g>
</g>
<!-- Node0&#45;&gt;Node12 -->
<g id="edge13" class="edge">
<title>Node0&#45;&gt;Node12</title>
<path fill="none" stroke="midnightblue" d="M816.42,-155.09C677.22,-138.85 411.79,-107.87 291.12,-93.79"/>
<polygon fill="midnightblue" stroke="midnightblue" points="291.29,-90.29 280.95,-92.61 290.47,-97.24 291.29,-90.29"/>
</g>
<!-- Node16 -->
<g id="node17" class="node">
<title>Node16</title>
<g id="a_node17"><a xlink:href="genpybind_8h.html" target="_top" xlink:title=" ">
<polygon fill="white" stroke="black" points="633.55,-6.5 633.55,-26.5 745.7,-26.5 745.7,-6.5 633.55,-6.5"/>
<text text-anchor="middle" x="689.63" y="-13.5" font-family="Helvetica,sans-Serif" font-size="10.00">haldls/vx/genpybind.h</text>
</a>
</g>
</g>
<!-- Node0&#45;&gt;Node16 -->
<g id="edge17" class="edge">
<title>Node0&#45;&gt;Node16</title>
<path fill="none" stroke="midnightblue" d="M866.01,-138.35C820.42,-107.12 747.23,-56.97 711.15,-32.25"/>
<polygon fill="midnightblue" stroke="midnightblue" points="713.05,-29.3 702.82,-26.54 709.09,-35.08 713.05,-29.3"/>
</g>
<!-- Node17 -->
<g id="node18" class="node">
<title>Node17</title>
<g id="a_node18"><a xlink:href="traits_8h.html" target="_top" xlink:title=" ">
<polygon fill="white" stroke="black" points="516.79,-75.5 516.79,-95.5 604.46,-95.5 604.46,-75.5 516.79,-75.5"/>
<text text-anchor="middle" x="560.63" y="-82.5" font-family="Helvetica,sans-Serif" font-size="10.00">haldls/vx/traits.h</text>
</a>
</g>
</g>
<!-- Node0&#45;&gt;Node17 -->
<g id="edge19" class="edge">
<title>Node0&#45;&gt;Node17</title>
<path fill="none" stroke="midnightblue" d="M816.33,-145.05C750.68,-130.02 663.89,-110.15 610.19,-97.85"/>
<polygon fill="midnightblue" stroke="midnightblue" points="610.77,-94.39 600.24,-95.57 609.2,-101.21 610.77,-94.39"/>
</g>
<!-- Node7&#45;&gt;Node2 -->
<g id="edge11" class="edge">
<title>Node7&#45;&gt;Node2</title>
<path fill="none" stroke="midnightblue" d="M905.63,-75.46C905.63,-65.63 905.63,-49.61 905.63,-36.9"/>
<polygon fill="midnightblue" stroke="midnightblue" points="909.13,-36.82 905.63,-26.82 902.13,-36.82 909.13,-36.82"/>
</g>
<!-- Node8 -->
<g id="node9" class="node">
<title>Node8</title>
<g id="a_node9"><a xlink:title=" ">
<polygon fill="white" stroke="#bfbfbf" points="782,-6.5 782,-26.5 865.25,-26.5 865.25,-6.5 782,-6.5"/>
<text text-anchor="middle" x="823.63" y="-13.5" font-family="Helvetica,sans-Serif" font-size="10.00">hate/type_list.h</text>
</a>
</g>
</g>
<!-- Node7&#45;&gt;Node8 -->
<g id="edge8" class="edge">
<title>Node7&#45;&gt;Node8</title>
<path fill="none" stroke="midnightblue" d="M894.57,-75.46C881.24,-64.57 858.63,-46.1 842.52,-32.94"/>
<polygon fill="midnightblue" stroke="midnightblue" points="844.73,-30.22 834.77,-26.61 840.3,-35.64 844.73,-30.22"/>
</g>
<!-- Node7&#45;&gt;Node9 -->
<g id="edge9" class="edge">
<title>Node7&#45;&gt;Node9</title>
<path fill="none" stroke="midnightblue" d="M945.87,-75.45C988.47,-65.69 1057.57,-49.34 1116.63,-33 1120.51,-31.93 1124.54,-30.76 1128.56,-29.57"/>
<polygon fill="midnightblue" stroke="midnightblue" points="1129.87,-32.83 1138.42,-26.57 1127.84,-26.13 1129.87,-32.83"/>
</g>
<!-- Node10 -->
<g id="node11" class="node">
<title>Node10</title>
<g id="a_node11"><a xlink:title=" ">
<polygon fill="white" stroke="#bfbfbf" points="946.18,-6.5 946.18,-26.5 991.07,-26.5 991.07,-6.5 946.18,-6.5"/>
<text text-anchor="middle" x="968.63" y="-13.5" font-family="Helvetica,sans-Serif" font-size="10.00">cstdint</text>
</a>
</g>
</g>
<!-- Node7&#45;&gt;Node10 -->
<g id="edge10" class="edge">
<title>Node7&#45;&gt;Node10</title>
<path fill="none" stroke="midnightblue" d="M914.12,-75.46C924.02,-64.93 940.59,-47.31 952.87,-34.26"/>
<polygon fill="midnightblue" stroke="midnightblue" points="955.56,-36.51 959.86,-26.82 950.46,-31.71 955.56,-36.51"/>
</g>
<!-- Node11 -->
<g id="node12" class="node">
<title>Node11</title>
<g id="a_node12"><a xlink:title=" ">
<polygon fill="white" stroke="#bfbfbf" points="1009.51,-6.5 1009.51,-26.5 1107.74,-26.5 1107.74,-6.5 1009.51,-6.5"/>
<text text-anchor="middle" x="1058.63" y="-13.5" font-family="Helvetica,sans-Serif" font-size="10.00">cereal/macros.hpp</text>
</a>
</g>
</g>
<!-- Node7&#45;&gt;Node11 -->
<g id="edge12" class="edge">
<title>Node7&#45;&gt;Node11</title>
<path fill="none" stroke="midnightblue" d="M926.26,-75.46C952.61,-63.93 998.4,-43.87 1028.61,-30.64"/>
<polygon fill="midnightblue" stroke="midnightblue" points="1030.07,-33.82 1037.83,-26.61 1027.27,-27.41 1030.07,-33.82"/>
</g>
<!-- Node13 -->
<g id="node14" class="node">
<title>Node13</title>
<g id="a_node14"><a xlink:title=" ">
<polygon fill="white" stroke="#bfbfbf" points="197.57,-6.5 197.57,-26.5 259.69,-26.5 259.69,-6.5 197.57,-6.5"/>
<text text-anchor="middle" x="228.63" y="-13.5" font-family="Helvetica,sans-Serif" font-size="10.00">type_traits</text>
</a>
</g>
</g>
<!-- Node12&#45;&gt;Node13 -->
<g id="edge14" class="edge">
<title>Node12&#45;&gt;Node13</title>
<path fill="none" stroke="midnightblue" d="M228.63,-75.46C228.63,-65.63 228.63,-49.61 228.63,-36.9"/>
<polygon fill="midnightblue" stroke="midnightblue" points="232.13,-36.82 228.63,-26.82 225.13,-36.82 232.13,-36.82"/>
</g>
<!-- Node14 -->
<g id="node15" class="node">
<title>Node14</title>
<g id="a_node15"><a xlink:title=" ">
<polygon fill="white" stroke="#bfbfbf" points="141.24,-6.5 141.24,-26.5 180.01,-26.5 180.01,-6.5 141.24,-6.5"/>
<text text-anchor="middle" x="160.63" y="-13.5" font-family="Helvetica,sans-Serif" font-size="10.00">utility</text>
</a>
</g>
</g>
<!-- Node12&#45;&gt;Node14 -->
<g id="edge15" class="edge">
<title>Node12&#45;&gt;Node14</title>
<path fill="none" stroke="midnightblue" d="M219.46,-75.46C208.67,-64.83 190.54,-46.98 177.26,-33.89"/>
<polygon fill="midnightblue" stroke="midnightblue" points="179.67,-31.35 170.09,-26.82 174.75,-36.33 179.67,-31.35"/>
</g>
<!-- Node15 -->
<g id="node16" class="node">
<title>Node15</title>
<g id="a_node16"><a xlink:title=" ">
<polygon fill="white" stroke="#bfbfbf" points="0,-6.5 0,-26.5 123.25,-26.5 123.25,-6.5 0,-6.5"/>
<text text-anchor="middle" x="61.63" y="-13.5" font-family="Helvetica,sans-Serif" font-size="10.00">fisch/vx/omnibus_data.h</text>
</a>
</g>
</g>
<!-- Node12&#45;&gt;Node15 -->
<g id="edge16" class="edge">
<title>Node12&#45;&gt;Node15</title>
<path fill="none" stroke="midnightblue" d="M206.1,-75.46C177.22,-63.88 126.93,-43.7 93.96,-30.47"/>
<polygon fill="midnightblue" stroke="midnightblue" points="94.91,-27.08 84.32,-26.61 92.3,-33.58 94.91,-27.08"/>
</g>
<!-- Node16&#45;&gt;Node16 -->
<g id="edge18" class="edge">
<title>Node16&#45;&gt;Node16</title>
<path fill="none" stroke="midnightblue" d="M713.52,-26.54C737.35,-32.26 763.7,-28.92 763.7,-16.5 763.7,-5.78 744.06,-1.82 723.36,-4.62"/>
<polygon fill="midnightblue" stroke="midnightblue" points="722.71,-1.18 713.52,-6.46 723.99,-8.06 722.71,-1.18"/>
</g>
<!-- Node17&#45;&gt;Node8 -->
<g id="edge23" class="edge">
<title>Node17&#45;&gt;Node8</title>
<path fill="none" stroke="midnightblue" d="M600.65,-75.49C643.41,-65.7 713.07,-49.27 772.63,-33 776.69,-31.89 780.93,-30.68 785.14,-29.45"/>
<polygon fill="midnightblue" stroke="midnightblue" points="786.26,-32.77 794.85,-26.56 784.27,-26.06 786.26,-32.77"/>
</g>
<!-- Node17&#45;&gt;Node13 -->
<g id="edge20" class="edge">
<title>Node17&#45;&gt;Node13</title>
<path fill="none" stroke="midnightblue" d="M516.5,-79.44C458.79,-72.21 354.9,-57.07 268.63,-33 265.64,-32.17 262.56,-31.19 259.51,-30.15"/>
<polygon fill="midnightblue" stroke="midnightblue" points="260.55,-26.8 249.95,-26.65 258.14,-33.38 260.55,-26.8"/>
</g>
<!-- Node17&#45;&gt;Node16 -->
<g id="edge22" class="edge">
<title>Node17&#45;&gt;Node16</title>
<path fill="none" stroke="midnightblue" d="M578.02,-75.46C599.85,-64.13 637.52,-44.56 662.99,-31.34"/>
<polygon fill="midnightblue" stroke="midnightblue" points="664.83,-34.32 672.09,-26.61 661.6,-28.11 664.83,-34.32"/>
</g>
<!-- Node18 -->
<g id="node19" class="node">
<title>Node18</title>
<g id="a_node19"><a xlink:title=" ">
<polygon fill="white" stroke="#bfbfbf" points="278.01,-0.5 278.01,-32.5 371.24,-32.5 371.24,-0.5 278.01,-0.5"/>
<text text-anchor="start" x="286.01" y="-19.5" font-family="Helvetica,sans-Serif" font-size="10.00">fisch/vx/container</text>
<text text-anchor="middle" x="324.63" y="-7.5" font-family="Helvetica,sans-Serif" font-size="10.00">_fwd.h</text>
</a>
</g>
</g>
<!-- Node17&#45;&gt;Node18 -->
<g id="edge21" class="edge">
<title>Node17&#45;&gt;Node18</title>
<path fill="none" stroke="midnightblue" d="M528.8,-75.46C491.05,-64.75 427.45,-46.69 381.24,-33.57"/>
<polygon fill="midnightblue" stroke="midnightblue" points="381.95,-30.14 371.37,-30.77 380.03,-36.87 381.95,-30.14"/>
</g>
<!-- Node19 -->
<g id="node20" class="node">
<title>Node19</title>
<g id="a_node20"><a xlink:title=" ">
<polygon fill="white" stroke="#bfbfbf" points="389.22,-0.5 389.22,-32.5 488.03,-32.5 488.03,-0.5 389.22,-0.5"/>
<text text-anchor="start" x="397.22" y="-19.5" font-family="Helvetica,sans-Serif" font-size="10.00">boost/utility/enable</text>
<text text-anchor="middle" x="438.63" y="-7.5" font-family="Helvetica,sans-Serif" font-size="10.00">_if.hpp</text>
</a>
</g>
</g>
<!-- Node17&#45;&gt;Node19 -->
<g id="edge24" class="edge">
<title>Node17&#45;&gt;Node19</title>
<path fill="none" stroke="midnightblue" d="M544.17,-75.46C526.49,-65.75 497.82,-50.01 474.82,-37.38"/>
<polygon fill="midnightblue" stroke="midnightblue" points="476.45,-34.28 466,-32.53 473.08,-40.42 476.45,-34.28"/>
</g>
<!-- Node20 -->
<g id="node21" class="node">
<title>Node20</title>
<g id="a_node21"><a xlink:title=" ">
<polygon fill="white" stroke="#bfbfbf" points="505.67,-6.5 505.67,-26.5 615.58,-26.5 615.58,-6.5 505.67,-6.5"/>
<text text-anchor="middle" x="560.63" y="-13.5" font-family="Helvetica,sans-Serif" font-size="10.00">fisch/vx/container.def</text>
</a>
</g>
</g>
<!-- Node17&#45;&gt;Node20 -->
<g id="edge25" class="edge">
<title>Node17&#45;&gt;Node20</title>
<path fill="none" stroke="midnightblue" d="M560.63,-75.46C560.63,-65.63 560.63,-49.61 560.63,-36.9"/>
<polygon fill="midnightblue" stroke="midnightblue" points="564.13,-36.82 560.63,-26.82 557.13,-36.82 564.13,-36.82"/>
</g>
</g>
</svg>
