<?xml version="1.0" encoding="UTF-8" standalone="no"?>
<!DOCTYPE svg PUBLIC "-//W3C//DTD SVG 1.1//EN"
 "http://www.w3.org/Graphics/SVG/1.1/DTD/svg11.dtd">
<!-- Generated by graphviz version 2.43.0 (0)
 -->
<!-- Title: /jenkins/jenlib_workspaces_f9/bld_nightly&#45;haldls.YmxkX25pZ2h0bHktaGFsZGxzIzcxMQ.x/haldls/include/haldls/vx/traits.h Pages: 1 -->
<svg width="676pt" height="134pt"
 viewBox="0.00 0.00 676.02 134.00" xmlns="http://www.w3.org/2000/svg" xmlns:xlink="http://www.w3.org/1999/xlink">
<g id="graph0" class="graph" transform="scale(1 1) rotate(0) translate(4 130)">
<title>/jenkins/jenlib_workspaces_f9/bld_nightly&#45;haldls.YmxkX25pZ2h0bHktaGFsZGxzIzcxMQ.x/haldls/include/haldls/vx/traits.h</title>
<polygon fill="white" stroke="transparent" points="-4,4 -4,-130 672.02,-130 672.02,4 -4,4"/>
<!-- Node0 -->
<g id="node1" class="node">
<title>Node0</title>
<g id="a_node1"><a xlink:title=" ">
<polygon fill="#bfbfbf" stroke="black" points="225.94,-69.5 225.94,-125.5 404.18,-125.5 404.18,-69.5 225.94,-69.5"/>
<text text-anchor="start" x="233.94" y="-112.5" font-family="Helvetica,sans-Serif" font-size="10.00">/jenkins/jenlib_workspaces</text>
<text text-anchor="start" x="233.94" y="-100.5" font-family="Helvetica,sans-Serif" font-size="10.00">_f9/bld_nightly&#45;haldls.YmxkX25p</text>
<text text-anchor="start" x="233.94" y="-88.5" font-family="Helvetica,sans-Serif" font-size="10.00">Z2h0bHktaGFsZGxzIzcxMQ.x/haldls</text>
<text text-anchor="middle" x="315.06" y="-76.5" font-family="Helvetica,sans-Serif" font-size="10.00">/include/haldls/vx/traits.h</text>
</a>
</g>
</g>
<!-- Node1 -->
<g id="node2" class="node">
<title>Node1</title>
<g id="a_node2"><a xlink:title=" ">
<polygon fill="white" stroke="#bfbfbf" points="0,-6.5 0,-26.5 62.12,-26.5 62.12,-6.5 0,-6.5"/>
<text text-anchor="middle" x="31.06" y="-13.5" font-family="Helvetica,sans-Serif" font-size="10.00">type_traits</text>
</a>
</g>
</g>
<!-- Node0&#45;&gt;Node1 -->
<g id="edge1" class="edge">
<title>Node0&#45;&gt;Node1</title>
<path fill="none" stroke="midnightblue" d="M225.69,-75.86C179.21,-64.47 121.67,-49.33 71.06,-33 68.34,-32.12 65.53,-31.16 62.72,-30.15"/>
<polygon fill="midnightblue" stroke="midnightblue" points="63.92,-26.86 53.32,-26.65 61.47,-33.42 63.92,-26.86"/>
</g>
<!-- Node2 -->
<g id="node3" class="node">
<title>Node2</title>
<g id="a_node3"><a xlink:title=" ">
<polygon fill="white" stroke="#bfbfbf" points="80.44,-0.5 80.44,-32.5 173.68,-32.5 173.68,-0.5 80.44,-0.5"/>
<text text-anchor="start" x="88.44" y="-19.5" font-family="Helvetica,sans-Serif" font-size="10.00">fisch/vx/container</text>
<text text-anchor="middle" x="127.06" y="-7.5" font-family="Helvetica,sans-Serif" font-size="10.00">_fwd.h</text>
</a>
</g>
</g>
<!-- Node0&#45;&gt;Node2 -->
<g id="edge2" class="edge">
<title>Node0&#45;&gt;Node2</title>
<path fill="none" stroke="midnightblue" d="M250.62,-69.42C224.84,-58.59 195.75,-46.36 172.28,-36.5"/>
<polygon fill="midnightblue" stroke="midnightblue" points="173.49,-33.22 162.92,-32.57 170.78,-39.67 173.49,-33.22"/>
</g>
<!-- Node3 -->
<g id="node4" class="node">
<title>Node3</title>
<g id="a_node4"><a xlink:href="genpybind_8h.html" target="_top" xlink:title=" ">
<polygon fill="white" stroke="black" points="191.99,-6.5 191.99,-26.5 304.13,-26.5 304.13,-6.5 191.99,-6.5"/>
<text text-anchor="middle" x="248.06" y="-13.5" font-family="Helvetica,sans-Serif" font-size="10.00">haldls/vx/genpybind.h</text>
</a>
</g>
</g>
<!-- Node0&#45;&gt;Node3 -->
<g id="edge3" class="edge">
<title>Node0&#45;&gt;Node3</title>
<path fill="none" stroke="midnightblue" d="M292,-69.31C282.18,-57.74 271.04,-44.59 262.43,-34.44"/>
<polygon fill="midnightblue" stroke="midnightblue" points="265.01,-32.08 255.88,-26.71 259.67,-36.6 265.01,-32.08"/>
</g>
<!-- Node4 -->
<g id="node5" class="node">
<title>Node4</title>
<g id="a_node5"><a xlink:title=" ">
<polygon fill="white" stroke="#bfbfbf" points="340.44,-6.5 340.44,-26.5 423.68,-26.5 423.68,-6.5 340.44,-6.5"/>
<text text-anchor="middle" x="382.06" y="-13.5" font-family="Helvetica,sans-Serif" font-size="10.00">hate/type_list.h</text>
</a>
</g>
</g>
<!-- Node0&#45;&gt;Node4 -->
<g id="edge5" class="edge">
<title>Node0&#45;&gt;Node4</title>
<path fill="none" stroke="midnightblue" d="M338.12,-69.31C347.94,-57.74 359.08,-44.59 367.69,-34.44"/>
<polygon fill="midnightblue" stroke="midnightblue" points="370.45,-36.6 374.25,-26.71 365.11,-32.08 370.45,-36.6"/>
</g>
<!-- Node5 -->
<g id="node6" class="node">
<title>Node5</title>
<g id="a_node6"><a xlink:title=" ">
<polygon fill="white" stroke="#bfbfbf" points="441.66,-0.5 441.66,-32.5 540.46,-32.5 540.46,-0.5 441.66,-0.5"/>
<text text-anchor="start" x="449.66" y="-19.5" font-family="Helvetica,sans-Serif" font-size="10.00">boost/utility/enable</text>
<text text-anchor="middle" x="491.06" y="-7.5" font-family="Helvetica,sans-Serif" font-size="10.00">_if.hpp</text>
</a>
</g>
</g>
<!-- Node0&#45;&gt;Node5 -->
<g id="edge6" class="edge">
<title>Node0&#45;&gt;Node5</title>
<path fill="none" stroke="midnightblue" d="M375.63,-69.31C399.54,-58.58 426.44,-46.5 448.26,-36.71"/>
<polygon fill="midnightblue" stroke="midnightblue" points="449.9,-39.81 457.59,-32.52 447.03,-33.43 449.9,-39.81"/>
</g>
<!-- Node6 -->
<g id="node7" class="node">
<title>Node6</title>
<g id="a_node7"><a xlink:title=" ">
<polygon fill="white" stroke="#bfbfbf" points="558.1,-6.5 558.1,-26.5 668.02,-26.5 668.02,-6.5 558.1,-6.5"/>
<text text-anchor="middle" x="613.06" y="-13.5" font-family="Helvetica,sans-Serif" font-size="10.00">fisch/vx/container.def</text>
</a>
</g>
</g>
<!-- Node0&#45;&gt;Node6 -->
<g id="edge7" class="edge">
<title>Node0&#45;&gt;Node6</title>
<path fill="none" stroke="midnightblue" d="M404.47,-72.8C458.91,-58.37 526.06,-40.56 569.21,-29.13"/>
<polygon fill="midnightblue" stroke="midnightblue" points="570.34,-32.45 579.11,-26.5 568.54,-25.68 570.34,-32.45"/>
</g>
<!-- Node3&#45;&gt;Node3 -->
<g id="edge4" class="edge">
<title>Node3&#45;&gt;Node3</title>
<path fill="none" stroke="midnightblue" d="M266.66,-26.62C291.69,-35.58 322.13,-32.2 322.13,-16.5 322.13,-2.82 299.03,1.5 276.53,-3.53"/>
<polygon fill="midnightblue" stroke="midnightblue" points="275.3,-0.24 266.66,-6.38 277.24,-6.97 275.3,-0.24"/>
</g>
</g>
</svg>
