<?xml version="1.0" encoding="UTF-8" standalone="no"?>
<!DOCTYPE svg PUBLIC "-//W3C//DTD SVG 1.1//EN"
 "http://www.w3.org/Graphics/SVG/1.1/DTD/svg11.dtd">
<!-- Generated by graphviz version 2.43.0 (0)
 -->
<!-- Title: /jenkins/jenlib_workspaces_f9/bld_nightly&#45;haldls.YmxkX25pZ2h0bHktaGFsZGxzIzcxMQ.x/haldls/include/haldls/vx/v1/sram_controller.h Pages: 1 -->
<!--zoomable 248 -->
<svg id="main" version="1.1" xmlns="http://www.w3.org/2000/svg" xmlns:xlink="http://www.w3.org/1999/xlink" xml:space="preserve" onload="init(evt)">
<style type="text/css"><![CDATA[
.edge:hover path { stroke: red; }
.edge:hover polygon { stroke: red; fill: red; }
]]></style>
<script type="text/javascript"><![CDATA[
var edges = document.getElementsByTagName('g');
if (edges && edges.length) {
  for (var i=0;i<edges.length;i++) {
    if (edges[i].id.substr(0,4)=='edge') {
      edges[i].setAttribute('class','edge');
    }
  }
}
]]></script>
        <defs>
                <circle id="rim" cx="0" cy="0" r="7"/>
                <circle id="rim2" cx="0" cy="0" r="3.5"/>
                <g id="zoomPlus">
                        <use xlink:href="#rim" fill="#404040">
                                <set attributeName="fill" to="#808080" begin="zoomplus.mouseover" end="zoomplus.mouseout"/>
                        </use>
                        <path d="M-4,0h8M0,-4v8" fill="none" stroke="white" stroke-width="1.5" pointer-events="none"/>
                </g>
                <g id="zoomMin">
                        <use xlink:href="#rim" fill="#404040">
                                <set attributeName="fill" to="#808080" begin="zoomminus.mouseover" end="zoomminus.mouseout"/>
                        </use>
                        <path d="M-4,0h8" fill="none" stroke="white" stroke-width="1.5" pointer-events="none"/>
                </g>
                <g id="dirArrow">
                        <path fill="none" stroke="white" stroke-width="1.5" d="M0,-3.0v7 M-2.5,-0.5L0,-3.0L2.5,-0.5"/>
                </g>
               <g id="resetDef">
                       <use xlink:href="#rim2" fill="#404040">
                               <set attributeName="fill" to="#808080" begin="reset.mouseover" end="reset.mouseout"/>
                       </use>
               </g>
        </defs>

<script type="text/javascript">
var viewWidth = 1215;
var viewHeight = 248;
var sectionId = 'dynsection-0';
</script>
<script xlink:href="svgpan.js"/>
<svg id="graph" class="graph">
<g id="viewport">
<title>/jenkins/jenlib_workspaces_f9/bld_nightly&#45;haldls.YmxkX25pZ2h0bHktaGFsZGxzIzcxMQ.x/haldls/include/haldls/vx/v1/sram_controller.h</title>
<polygon fill="white" stroke="transparent" points="-4,4 -4,-244 1210.57,-244 1210.57,4 -4,4"/>
<!-- Node0 -->
<g id="node1" class="node">
<title>Node0</title>
<g id="a_node1"><a xlink:title=" ">
<polygon fill="#bfbfbf" stroke="black" points="772.77,-183.5 772.77,-239.5 958.24,-239.5 958.24,-183.5 772.77,-183.5"/>
<text text-anchor="start" x="780.77" y="-226.5" font-family="Helvetica,sans-Serif" font-size="10.00">/jenkins/jenlib_workspaces</text>
<text text-anchor="start" x="780.77" y="-214.5" font-family="Helvetica,sans-Serif" font-size="10.00">_f9/bld_nightly&#45;haldls.YmxkX25p</text>
<text text-anchor="start" x="780.77" y="-202.5" font-family="Helvetica,sans-Serif" font-size="10.00">Z2h0bHktaGFsZGxzIzcxMQ.x/haldls</text>
<text text-anchor="middle" x="865.5" y="-190.5" font-family="Helvetica,sans-Serif" font-size="10.00">/include/haldls/vx/v1/sram_controller.h</text>
</a>
</g>
</g>
<!-- Node1 -->
<g id="node2" class="node">
<title>Node1</title>
<g id="a_node2"><a xlink:href="genpybind_8h.html" target="_top" xlink:title=" ">
<polygon fill="white" stroke="black" points="1076.43,-6.5 1076.43,-26.5 1188.57,-26.5 1188.57,-6.5 1076.43,-6.5"/>
<text text-anchor="middle" x="1132.5" y="-13.5" font-family="Helvetica,sans-Serif" font-size="10.00">haldls/vx/genpybind.h</text>
</a>
</g>
</g>
<!-- Node0&#45;&gt;Node1 -->
<g id="edge1" class="edge">
<title>Node0&#45;&gt;Node1</title>
<path fill="none" stroke="midnightblue" d="M902.91,-183.46C959.96,-142.22 1066.81,-64.98 1111.75,-32.5"/>
<polygon fill="midnightblue" stroke="midnightblue" points="1113.83,-35.32 1119.88,-26.62 1109.73,-29.65 1113.83,-35.32"/>
</g>
<!-- Node2 -->
<g id="node3" class="node">
<title>Node2</title>
<g id="a_node3"><a xlink:href="sram__controller_8h.html" target="_top" xlink:title=" ">
<polygon fill="white" stroke="black" points="700.05,-126.5 700.05,-146.5 834.95,-146.5 834.95,-126.5 700.05,-126.5"/>
<text text-anchor="middle" x="767.5" y="-133.5" font-family="Helvetica,sans-Serif" font-size="10.00">haldls/vx/sram_controller.h</text>
</a>
</g>
</g>
<!-- Node0&#45;&gt;Node2 -->
<g id="edge3" class="edge">
<title>Node0&#45;&gt;Node2</title>
<path fill="none" stroke="midnightblue" d="M829.01,-183.32C815.13,-172.98 799.82,-161.58 787.95,-152.73"/>
<polygon fill="midnightblue" stroke="midnightblue" points="789.73,-149.69 779.62,-146.52 785.55,-155.31 789.73,-149.69"/>
</g>
<!-- Node1&#45;&gt;Node1 -->
<g id="edge2" class="edge">
<title>Node1&#45;&gt;Node1</title>
<path fill="none" stroke="midnightblue" d="M1161.01,-26.56C1183.5,-30.45 1206.57,-27.1 1206.57,-16.5 1206.57,-7.48 1189.84,-3.71 1170.99,-5.19"/>
<polygon fill="midnightblue" stroke="midnightblue" points="1170.49,-1.72 1161.01,-6.44 1171.37,-8.67 1170.49,-1.72"/>
</g>
<!-- Node2&#45;&gt;Node1 -->
<g id="edge14" class="edge">
<title>Node2&#45;&gt;Node1</title>
<path fill="none" stroke="midnightblue" d="M795.54,-126.44C860.51,-105.43 1021.41,-53.42 1094.86,-29.67"/>
<polygon fill="midnightblue" stroke="midnightblue" points="1096.18,-32.92 1104.62,-26.51 1094.03,-26.26 1096.18,-32.92"/>
</g>
<!-- Node3 -->
<g id="node4" class="node">
<title>Node3</title>
<g id="a_node4"><a xlink:href="cerealization_8h.html" target="_top" xlink:title=" ">
<polygon fill="white" stroke="black" points="215.83,-69.5 215.83,-89.5 325.18,-89.5 325.18,-69.5 215.83,-69.5"/>
<text text-anchor="middle" x="270.5" y="-76.5" font-family="Helvetica,sans-Serif" font-size="10.00">haldls/cerealization.h</text>
</a>
</g>
</g>
<!-- Node2&#45;&gt;Node3 -->
<g id="edge4" class="edge">
<title>Node2&#45;&gt;Node3</title>
<path fill="none" stroke="midnightblue" d="M699.96,-128.03C604.06,-117.41 429.62,-98.11 335.27,-87.67"/>
<polygon fill="midnightblue" stroke="midnightblue" points="335.6,-84.18 325.28,-86.56 334.83,-91.14 335.6,-84.18"/>
</g>
<!-- Node5 -->
<g id="node6" class="node">
<title>Node5</title>
<g id="a_node6"><a xlink:title=" ">
<polygon fill="white" stroke="#bfbfbf" points="0,-6.5 0,-26.5 81.01,-26.5 81.01,-6.5 0,-6.5"/>
<text text-anchor="middle" x="40.5" y="-13.5" font-family="Helvetica,sans-Serif" font-size="10.00">hate/visibility.h</text>
</a>
</g>
</g>
<!-- Node2&#45;&gt;Node5 -->
<g id="edge23" class="edge">
<title>Node2&#45;&gt;Node5</title>
<path fill="none" stroke="midnightblue" d="M699.91,-132.81C571.78,-127.25 298.19,-113.06 206.5,-90 153.99,-76.79 97.02,-48.55 65.34,-31.48"/>
<polygon fill="midnightblue" stroke="midnightblue" points="66.81,-28.29 56.36,-26.57 63.46,-34.43 66.81,-28.29"/>
</g>
<!-- Node9 -->
<g id="node10" class="node">
<title>Node9</title>
<g id="a_node10"><a xlink:href="common_8h.html" target="_top" xlink:title=" ">
<polygon fill="white" stroke="black" points="576.33,-69.5 576.33,-89.5 680.68,-89.5 680.68,-69.5 576.33,-69.5"/>
<text text-anchor="middle" x="628.5" y="-76.5" font-family="Helvetica,sans-Serif" font-size="10.00">haldls/vx/common.h</text>
</a>
</g>
</g>
<!-- Node2&#45;&gt;Node9 -->
<g id="edge10" class="edge">
<title>Node2&#45;&gt;Node9</title>
<path fill="none" stroke="midnightblue" d="M744.55,-126.42C721.71,-117.38 686.47,-103.44 660.81,-93.28"/>
<polygon fill="midnightblue" stroke="midnightblue" points="662.08,-90.02 651.49,-89.6 659.5,-96.53 662.08,-90.02"/>
</g>
<!-- Node13 -->
<g id="node14" class="node">
<title>Node13</title>
<g id="a_node14"><a xlink:href="traits_8h.html" target="_top" xlink:title=" ">
<polygon fill="white" stroke="black" points="723.66,-69.5 723.66,-89.5 811.34,-89.5 811.34,-69.5 723.66,-69.5"/>
<text text-anchor="middle" x="767.5" y="-76.5" font-family="Helvetica,sans-Serif" font-size="10.00">haldls/vx/traits.h</text>
</a>
</g>
</g>
<!-- Node2&#45;&gt;Node13 -->
<g id="edge15" class="edge">
<title>Node2&#45;&gt;Node13</title>
<path fill="none" stroke="midnightblue" d="M767.5,-126.42C767.5,-119.22 767.5,-108.9 767.5,-99.86"/>
<polygon fill="midnightblue" stroke="midnightblue" points="771,-99.78 767.5,-89.78 764,-99.78 771,-99.78"/>
</g>
<!-- Node17 -->
<g id="node18" class="node">
<title>Node17</title>
<g id="a_node18"><a xlink:title=" ">
<polygon fill="white" stroke="#bfbfbf" points="829.1,-69.5 829.1,-89.5 897.9,-89.5 897.9,-69.5 829.1,-69.5"/>
<text text-anchor="middle" x="863.5" y="-76.5" font-family="Helvetica,sans-Serif" font-size="10.00">hate/math.h</text>
</a>
</g>
</g>
<!-- Node2&#45;&gt;Node17 -->
<g id="edge22" class="edge">
<title>Node2&#45;&gt;Node17</title>
<path fill="none" stroke="midnightblue" d="M783.36,-126.42C798.36,-117.82 821.13,-104.78 838.57,-94.78"/>
<polygon fill="midnightblue" stroke="midnightblue" points="840.69,-97.6 847.63,-89.6 837.21,-91.53 840.69,-97.6"/>
</g>
<!-- Node4 -->
<g id="node5" class="node">
<title>Node4</title>
<g id="a_node5"><a xlink:title=" ">
<polygon fill="white" stroke="#bfbfbf" points="341.88,-6.5 341.88,-26.5 425.13,-26.5 425.13,-6.5 341.88,-6.5"/>
<text text-anchor="middle" x="383.5" y="-13.5" font-family="Helvetica,sans-Serif" font-size="10.00">hate/type_list.h</text>
</a>
</g>
</g>
<!-- Node3&#45;&gt;Node4 -->
<g id="edge5" class="edge">
<title>Node3&#45;&gt;Node4</title>
<path fill="none" stroke="midnightblue" d="M287.18,-69.5C305.79,-59.45 336.13,-43.07 357.78,-31.38"/>
<polygon fill="midnightblue" stroke="midnightblue" points="359.62,-34.37 366.76,-26.54 356.3,-28.21 359.62,-34.37"/>
</g>
<!-- Node3&#45;&gt;Node5 -->
<g id="edge6" class="edge">
<title>Node3&#45;&gt;Node5</title>
<path fill="none" stroke="midnightblue" d="M232.42,-69.49C195.88,-60.71 139.22,-46.7 90.5,-33 86.63,-31.91 82.6,-30.73 78.58,-29.53"/>
<polygon fill="midnightblue" stroke="midnightblue" points="79.3,-26.1 68.72,-26.53 77.27,-32.79 79.3,-26.1"/>
</g>
<!-- Node6 -->
<g id="node7" class="node">
<title>Node6</title>
<g id="a_node7"><a xlink:title=" ">
<polygon fill="white" stroke="#bfbfbf" points="216.06,-6.5 216.06,-26.5 260.95,-26.5 260.95,-6.5 216.06,-6.5"/>
<text text-anchor="middle" x="238.5" y="-13.5" font-family="Helvetica,sans-Serif" font-size="10.00">cstdint</text>
</a>
</g>
</g>
<!-- Node3&#45;&gt;Node6 -->
<g id="edge7" class="edge">
<title>Node3&#45;&gt;Node6</title>
<path fill="none" stroke="midnightblue" d="M265.78,-69.5C261.1,-60.58 253.8,-46.67 247.93,-35.48"/>
<polygon fill="midnightblue" stroke="midnightblue" points="250.99,-33.77 243.24,-26.54 244.79,-37.02 250.99,-33.77"/>
</g>
<!-- Node7 -->
<g id="node8" class="node">
<title>Node7</title>
<g id="a_node8"><a xlink:title=" ">
<polygon fill="white" stroke="#bfbfbf" points="279.34,-6.5 279.34,-26.5 323.67,-26.5 323.67,-6.5 279.34,-6.5"/>
<text text-anchor="middle" x="301.5" y="-13.5" font-family="Helvetica,sans-Serif" font-size="10.00">iosfwd</text>
</a>
</g>
</g>
<!-- Node3&#45;&gt;Node7 -->
<g id="edge8" class="edge">
<title>Node3&#45;&gt;Node7</title>
<path fill="none" stroke="midnightblue" d="M275.08,-69.5C279.61,-60.58 286.68,-46.67 292.37,-35.48"/>
<polygon fill="midnightblue" stroke="midnightblue" points="295.5,-37.04 296.91,-26.54 289.26,-33.87 295.5,-37.04"/>
</g>
<!-- Node8 -->
<g id="node9" class="node">
<title>Node8</title>
<g id="a_node9"><a xlink:title=" ">
<polygon fill="white" stroke="#bfbfbf" points="99.38,-6.5 99.38,-26.5 197.62,-26.5 197.62,-6.5 99.38,-6.5"/>
<text text-anchor="middle" x="148.5" y="-13.5" font-family="Helvetica,sans-Serif" font-size="10.00">cereal/macros.hpp</text>
</a>
</g>
</g>
<!-- Node3&#45;&gt;Node8 -->
<g id="edge9" class="edge">
<title>Node3&#45;&gt;Node8</title>
<path fill="none" stroke="midnightblue" d="M252.5,-69.5C232.23,-59.36 199.06,-42.78 175.64,-31.07"/>
<polygon fill="midnightblue" stroke="midnightblue" points="177.09,-27.88 166.58,-26.54 173.96,-34.14 177.09,-27.88"/>
</g>
<!-- Node10 -->
<g id="node11" class="node">
<title>Node10</title>
<g id="a_node11"><a xlink:title=" ">
<polygon fill="white" stroke="#bfbfbf" points="640.44,-6.5 640.44,-26.5 702.56,-26.5 702.56,-6.5 640.44,-6.5"/>
<text text-anchor="middle" x="671.5" y="-13.5" font-family="Helvetica,sans-Serif" font-size="10.00">type_traits</text>
</a>
</g>
</g>
<!-- Node9&#45;&gt;Node10 -->
<g id="edge11" class="edge">
<title>Node9&#45;&gt;Node10</title>
<path fill="none" stroke="midnightblue" d="M634.85,-69.5C641.26,-60.4 651.34,-46.1 659.31,-34.8"/>
<polygon fill="midnightblue" stroke="midnightblue" points="662.23,-36.73 665.13,-26.54 656.51,-32.69 662.23,-36.73"/>
</g>
<!-- Node11 -->
<g id="node12" class="node">
<title>Node11</title>
<g id="a_node12"><a xlink:title=" ">
<polygon fill="white" stroke="#bfbfbf" points="584.12,-6.5 584.12,-26.5 622.89,-26.5 622.89,-6.5 584.12,-6.5"/>
<text text-anchor="middle" x="603.5" y="-13.5" font-family="Helvetica,sans-Serif" font-size="10.00">utility</text>
</a>
</g>
</g>
<!-- Node9&#45;&gt;Node11 -->
<g id="edge12" class="edge">
<title>Node9&#45;&gt;Node11</title>
<path fill="none" stroke="midnightblue" d="M624.81,-69.5C621.2,-60.67 615.57,-46.95 611.01,-35.82"/>
<polygon fill="midnightblue" stroke="midnightblue" points="614.24,-34.46 607.21,-26.54 607.76,-37.12 614.24,-34.46"/>
</g>
<!-- Node12 -->
<g id="node13" class="node">
<title>Node12</title>
<g id="a_node13"><a xlink:title=" ">
<polygon fill="white" stroke="#bfbfbf" points="442.88,-6.5 442.88,-26.5 566.13,-26.5 566.13,-6.5 442.88,-6.5"/>
<text text-anchor="middle" x="504.5" y="-13.5" font-family="Helvetica,sans-Serif" font-size="10.00">fisch/vx/omnibus_data.h</text>
</a>
</g>
</g>
<!-- Node9&#45;&gt;Node12 -->
<g id="edge13" class="edge">
<title>Node9&#45;&gt;Node12</title>
<path fill="none" stroke="midnightblue" d="M610.21,-69.5C589.6,-59.36 555.89,-42.78 532.09,-31.07"/>
<polygon fill="midnightblue" stroke="midnightblue" points="533.39,-27.81 522.87,-26.54 530.3,-34.09 533.39,-27.81"/>
</g>
<!-- Node13&#45;&gt;Node1 -->
<g id="edge18" class="edge">
<title>Node13&#45;&gt;Node1</title>
<path fill="none" stroke="midnightblue" d="M811.44,-70.51C814.51,-69.99 817.55,-69.48 820.5,-69 930.01,-51.21 958.55,-53.89 1067.5,-33 1073.86,-31.78 1080.53,-30.36 1087.08,-28.88"/>
<polygon fill="midnightblue" stroke="midnightblue" points="1088.26,-32.2 1097.21,-26.52 1086.67,-25.38 1088.26,-32.2"/>
</g>
<!-- Node13&#45;&gt;Node4 -->
<g id="edge19" class="edge">
<title>Node13&#45;&gt;Node4</title>
<path fill="none" stroke="midnightblue" d="M723.42,-72.91C639.19,-62.16 461.25,-39.15 433.5,-33 428.99,-32 424.29,-30.79 419.67,-29.48"/>
<polygon fill="midnightblue" stroke="midnightblue" points="420.34,-26.03 409.75,-26.53 418.34,-32.74 420.34,-26.03"/>
</g>
<!-- Node13&#45;&gt;Node10 -->
<g id="edge16" class="edge">
<title>Node13&#45;&gt;Node10</title>
<path fill="none" stroke="midnightblue" d="M753.34,-69.5C737.81,-59.63 712.67,-43.66 694.35,-32.02"/>
<polygon fill="midnightblue" stroke="midnightblue" points="696.04,-28.95 685.73,-26.54 692.29,-34.85 696.04,-28.95"/>
</g>
<!-- Node14 -->
<g id="node15" class="node">
<title>Node14</title>
<g id="a_node15"><a xlink:title=" ">
<polygon fill="white" stroke="#bfbfbf" points="720.88,-0.5 720.88,-32.5 814.12,-32.5 814.12,-0.5 720.88,-0.5"/>
<text text-anchor="start" x="728.88" y="-19.5" font-family="Helvetica,sans-Serif" font-size="10.00">fisch/vx/container</text>
<text text-anchor="middle" x="767.5" y="-7.5" font-family="Helvetica,sans-Serif" font-size="10.00">_fwd.h</text>
</a>
</g>
</g>
<!-- Node13&#45;&gt;Node14 -->
<g id="edge17" class="edge">
<title>Node13&#45;&gt;Node14</title>
<path fill="none" stroke="midnightblue" d="M767.5,-69.5C767.5,-62.47 767.5,-52.34 767.5,-42.88"/>
<polygon fill="midnightblue" stroke="midnightblue" points="771,-42.69 767.5,-32.69 764,-42.69 771,-42.69"/>
</g>
<!-- Node15 -->
<g id="node16" class="node">
<title>Node15</title>
<g id="a_node16"><a xlink:title=" ">
<polygon fill="white" stroke="#bfbfbf" points="832.1,-0.5 832.1,-32.5 930.9,-32.5 930.9,-0.5 832.1,-0.5"/>
<text text-anchor="start" x="840.1" y="-19.5" font-family="Helvetica,sans-Serif" font-size="10.00">boost/utility/enable</text>
<text text-anchor="middle" x="881.5" y="-7.5" font-family="Helvetica,sans-Serif" font-size="10.00">_if.hpp</text>
</a>
</g>
</g>
<!-- Node13&#45;&gt;Node15 -->
<g id="edge20" class="edge">
<title>Node13&#45;&gt;Node15</title>
<path fill="none" stroke="midnightblue" d="M784.32,-69.5C800.01,-61.11 823.95,-48.3 844.14,-37.49"/>
<polygon fill="midnightblue" stroke="midnightblue" points="845.95,-40.5 853.11,-32.69 842.64,-34.32 845.95,-40.5"/>
</g>
<!-- Node16 -->
<g id="node17" class="node">
<title>Node16</title>
<g id="a_node17"><a xlink:title=" ">
<polygon fill="white" stroke="#bfbfbf" points="948.55,-6.5 948.55,-26.5 1058.46,-26.5 1058.46,-6.5 948.55,-6.5"/>
<text text-anchor="middle" x="1003.5" y="-13.5" font-family="Helvetica,sans-Serif" font-size="10.00">fisch/vx/container.def</text>
</a>
</g>
</g>
<!-- Node13&#45;&gt;Node16 -->
<g id="edge21" class="edge">
<title>Node13&#45;&gt;Node16</title>
<path fill="none" stroke="midnightblue" d="M802.33,-69.5C843.81,-58.78 913.19,-40.84 958.66,-29.09"/>
<polygon fill="midnightblue" stroke="midnightblue" points="959.73,-32.43 968.54,-26.54 957.98,-25.65 959.73,-32.43"/>
</g>
</g>
</svg>
        <g id="navigator" transform="translate(0 0)" fill="#404254">
                <rect fill="#f2f5e9" fill-opacity="0.5" stroke="#606060" stroke-width=".5" x="0" y="0" width="60" height="60"/>
                <use id="zoomplus" xlink:href="#zoomPlus" x="17" y="9" onmousedown="handleZoom(evt,'in')"/>
                <use id="zoomminus" xlink:href="#zoomMin" x="42" y="9" onmousedown="handleZoom(evt,'out')"/>
                <use id="reset" xlink:href="#resetDef" x="30" y="36" onmousedown="handleReset()"/>
                <g id="arrowUp" xlink:href="#dirArrow" transform="translate(30 24)" onmousedown="handlePan(0,-1)">
                  <use xlink:href="#rim" fill="#404040">
                        <set attributeName="fill" to="#808080" begin="arrowUp.mouseover" end="arrowUp.mouseout"/>
                  </use>
                  <path fill="none" stroke="white" stroke-width="1.5" d="M0,-3.0v7 M-2.5,-0.5L0,-3.0L2.5,-0.5"/>
                </g>
                <g id="arrowRight" xlink:href="#dirArrow" transform="rotate(90) translate(36 -43)" onmousedown="handlePan(1,0)">
                  <use xlink:href="#rim" fill="#404040">
                        <set attributeName="fill" to="#808080" begin="arrowRight.mouseover" end="arrowRight.mouseout"/>
                  </use>
                  <path fill="none" stroke="white" stroke-width="1.5" d="M0,-3.0v7 M-2.5,-0.5L0,-3.0L2.5,-0.5"/>
                </g>
                <g id="arrowDown" xlink:href="#dirArrow" transform="rotate(180) translate(-30 -48)" onmousedown="handlePan(0,1)">
                  <use xlink:href="#rim" fill="#404040">
                        <set attributeName="fill" to="#808080" begin="arrowDown.mouseover" end="arrowDown.mouseout"/>
                  </use>
                  <path fill="none" stroke="white" stroke-width="1.5" d="M0,-3.0v7 M-2.5,-0.5L0,-3.0L2.5,-0.5"/>
                </g>
                <g id="arrowLeft" xlink:href="#dirArrow" transform="rotate(270) translate(-36 17)" onmousedown="handlePan(-1,0)">
                  <use xlink:href="#rim" fill="#404040">
                        <set attributeName="fill" to="#808080" begin="arrowLeft.mouseover" end="arrowLeft.mouseout"/>
                  </use>
                  <path fill="none" stroke="white" stroke-width="1.5" d="M0,-3.0v7 M-2.5,-0.5L0,-3.0L2.5,-0.5"/>
                </g>
        </g>
        <svg viewBox="0 0 15 15" width="100%" height="30px" preserveAspectRatio="xMaxYMin meet">
         <g id="arrow_out" transform="scale(0.3 0.3)">
          <a xlink:href="v1_2sram__controller_8h__incl_org.svg" target="_base">
           <rect id="button" ry="5" rx="5" y="6" x="6" height="38" width="38"
                fill="#f2f5e9" fill-opacity="0.5" stroke="#606060" stroke-width="1.0"/>
           <path id="arrow"
             d="M 11.500037,31.436501 C 11.940474,20.09759 22.043105,11.32322 32.158766,21.979434 L 37.068811,17.246167 C 37.068811,17.246167 37.088388,32 37.088388,32 L 22.160133,31.978069 C 22.160133,31.978069 26.997745,27.140456 26.997745,27.140456 C 18.528582,18.264221 13.291696,25.230495 11.500037,31.436501 z"
             style="fill:#404040;"/>
          </a>
         </g>
        </svg>
</svg>
