<?xml version="1.0" encoding="UTF-8" standalone="no"?>
<!DOCTYPE svg PUBLIC "-//W3C//DTD SVG 1.1//EN"
 "http://www.w3.org/Graphics/SVG/1.1/DTD/svg11.dtd">
<!-- Generated by graphviz version 2.43.0 (0)
 -->
<!-- Title: /jenkins/jenlib_workspaces_f9/bld_nightly&#45;haldls.YmxkX25pZ2h0bHktaGFsZGxzIzcxMQ.x/haldls/include/haldls/vx/v1/traits.h Pages: 1 -->
<svg width="675pt" height="191pt"
 viewBox="0.00 0.00 675.03 191.00" xmlns="http://www.w3.org/2000/svg" xmlns:xlink="http://www.w3.org/1999/xlink">
<g id="graph0" class="graph" transform="scale(1 1) rotate(0) translate(4 187)">
<title>/jenkins/jenlib_workspaces_f9/bld_nightly&#45;haldls.YmxkX25pZ2h0bHktaGFsZGxzIzcxMQ.x/haldls/include/haldls/vx/v1/traits.h</title>
<polygon fill="white" stroke="transparent" points="-4,4 -4,-187 671.03,-187 671.03,4 -4,4"/>
<!-- Node0 -->
<g id="node1" class="node">
<title>Node0</title>
<g id="a_node1"><a xlink:title=" ">
<polygon fill="#bfbfbf" stroke="black" points="76.95,-126.5 76.95,-182.5 255.19,-182.5 255.19,-126.5 76.95,-126.5"/>
<text text-anchor="start" x="84.95" y="-169.5" font-family="Helvetica,sans-Serif" font-size="10.00">/jenkins/jenlib_workspaces</text>
<text text-anchor="start" x="84.95" y="-157.5" font-family="Helvetica,sans-Serif" font-size="10.00">_f9/bld_nightly&#45;haldls.YmxkX25p</text>
<text text-anchor="start" x="84.95" y="-145.5" font-family="Helvetica,sans-Serif" font-size="10.00">Z2h0bHktaGFsZGxzIzcxMQ.x/haldls</text>
<text text-anchor="middle" x="166.07" y="-133.5" font-family="Helvetica,sans-Serif" font-size="10.00">/include/haldls/vx/v1/traits.h</text>
</a>
</g>
</g>
<!-- Node1 -->
<g id="node2" class="node">
<title>Node1</title>
<g id="a_node2"><a xlink:href="genpybind_8h.html" target="_top" xlink:title=" ">
<polygon fill="white" stroke="black" points="0,-6.5 0,-26.5 112.14,-26.5 112.14,-6.5 0,-6.5"/>
<text text-anchor="middle" x="56.07" y="-13.5" font-family="Helvetica,sans-Serif" font-size="10.00">haldls/vx/genpybind.h</text>
</a>
</g>
</g>
<!-- Node0&#45;&gt;Node1 -->
<g id="edge1" class="edge">
<title>Node0&#45;&gt;Node1</title>
<path fill="none" stroke="midnightblue" d="M144.08,-126.31C121.95,-98.95 88.51,-57.61 69.87,-34.56"/>
<polygon fill="midnightblue" stroke="midnightblue" points="72.52,-32.27 63.51,-26.69 67.07,-36.67 72.52,-32.27"/>
</g>
<!-- Node2 -->
<g id="node3" class="node">
<title>Node2</title>
<g id="a_node3"><a xlink:href="traits_8h.html" target="_top" xlink:title=" ">
<polygon fill="white" stroke="black" points="231.23,-69.5 231.23,-89.5 318.91,-89.5 318.91,-69.5 231.23,-69.5"/>
<text text-anchor="middle" x="275.07" y="-76.5" font-family="Helvetica,sans-Serif" font-size="10.00">haldls/vx/traits.h</text>
</a>
</g>
</g>
<!-- Node0&#45;&gt;Node2 -->
<g id="edge3" class="edge">
<title>Node0&#45;&gt;Node2</title>
<path fill="none" stroke="midnightblue" d="M206.66,-126.32C222.4,-115.78 239.79,-104.13 253.1,-95.21"/>
<polygon fill="midnightblue" stroke="midnightblue" points="255.24,-98 261.6,-89.52 251.34,-92.18 255.24,-98"/>
</g>
<!-- Node1&#45;&gt;Node1 -->
<g id="edge2" class="edge">
<title>Node1&#45;&gt;Node1</title>
<path fill="none" stroke="midnightblue" d="M84.58,-26.56C107.07,-30.45 130.14,-27.1 130.14,-16.5 130.14,-7.48 113.41,-3.71 94.55,-5.19"/>
<polygon fill="midnightblue" stroke="midnightblue" points="94.06,-1.72 84.58,-6.44 94.94,-8.67 94.06,-1.72"/>
</g>
<!-- Node2&#45;&gt;Node1 -->
<g id="edge6" class="edge">
<title>Node2&#45;&gt;Node1</title>
<path fill="none" stroke="midnightblue" d="M242.76,-69.5C204.42,-58.82 140.42,-40.99 98.22,-29.24"/>
<polygon fill="midnightblue" stroke="midnightblue" points="99.09,-25.85 88.52,-26.54 97.21,-32.59 99.09,-25.85"/>
</g>
<!-- Node3 -->
<g id="node4" class="node">
<title>Node3</title>
<g id="a_node4"><a xlink:title=" ">
<polygon fill="white" stroke="#bfbfbf" points="148.01,-6.5 148.01,-26.5 210.13,-26.5 210.13,-6.5 148.01,-6.5"/>
<text text-anchor="middle" x="179.07" y="-13.5" font-family="Helvetica,sans-Serif" font-size="10.00">type_traits</text>
</a>
</g>
</g>
<!-- Node2&#45;&gt;Node3 -->
<g id="edge4" class="edge">
<title>Node2&#45;&gt;Node3</title>
<path fill="none" stroke="midnightblue" d="M260.91,-69.5C245.38,-59.63 220.24,-43.66 201.92,-32.02"/>
<polygon fill="midnightblue" stroke="midnightblue" points="203.61,-28.95 193.29,-26.54 199.86,-34.85 203.61,-28.95"/>
</g>
<!-- Node4 -->
<g id="node5" class="node">
<title>Node4</title>
<g id="a_node5"><a xlink:title=" ">
<polygon fill="white" stroke="#bfbfbf" points="228.45,-0.5 228.45,-32.5 321.69,-32.5 321.69,-0.5 228.45,-0.5"/>
<text text-anchor="start" x="236.45" y="-19.5" font-family="Helvetica,sans-Serif" font-size="10.00">fisch/vx/container</text>
<text text-anchor="middle" x="275.07" y="-7.5" font-family="Helvetica,sans-Serif" font-size="10.00">_fwd.h</text>
</a>
</g>
</g>
<!-- Node2&#45;&gt;Node4 -->
<g id="edge5" class="edge">
<title>Node2&#45;&gt;Node4</title>
<path fill="none" stroke="midnightblue" d="M275.07,-69.5C275.07,-62.47 275.07,-52.34 275.07,-42.88"/>
<polygon fill="midnightblue" stroke="midnightblue" points="278.57,-42.69 275.07,-32.69 271.57,-42.69 278.57,-42.69"/>
</g>
<!-- Node5 -->
<g id="node6" class="node">
<title>Node5</title>
<g id="a_node6"><a xlink:title=" ">
<polygon fill="white" stroke="#bfbfbf" points="339.45,-6.5 339.45,-26.5 422.69,-26.5 422.69,-6.5 339.45,-6.5"/>
<text text-anchor="middle" x="381.07" y="-13.5" font-family="Helvetica,sans-Serif" font-size="10.00">hate/type_list.h</text>
</a>
</g>
</g>
<!-- Node2&#45;&gt;Node5 -->
<g id="edge7" class="edge">
<title>Node2&#45;&gt;Node5</title>
<path fill="none" stroke="midnightblue" d="M290.71,-69.5C308.09,-59.5 336.38,-43.22 356.67,-31.54"/>
<polygon fill="midnightblue" stroke="midnightblue" points="358.45,-34.56 365.37,-26.54 354.95,-28.49 358.45,-34.56"/>
</g>
<!-- Node6 -->
<g id="node7" class="node">
<title>Node6</title>
<g id="a_node7"><a xlink:title=" ">
<polygon fill="white" stroke="#bfbfbf" points="440.67,-0.5 440.67,-32.5 539.47,-32.5 539.47,-0.5 440.67,-0.5"/>
<text text-anchor="start" x="448.67" y="-19.5" font-family="Helvetica,sans-Serif" font-size="10.00">boost/utility/enable</text>
<text text-anchor="middle" x="490.07" y="-7.5" font-family="Helvetica,sans-Serif" font-size="10.00">_if.hpp</text>
</a>
</g>
</g>
<!-- Node2&#45;&gt;Node6 -->
<g id="edge8" class="edge">
<title>Node2&#45;&gt;Node6</title>
<path fill="none" stroke="midnightblue" d="M306.8,-69.5C339.38,-60.25 390.88,-45.64 431,-34.26"/>
<polygon fill="midnightblue" stroke="midnightblue" points="432.01,-37.61 440.67,-31.52 430.09,-30.88 432.01,-37.61"/>
</g>
<!-- Node7 -->
<g id="node8" class="node">
<title>Node7</title>
<g id="a_node8"><a xlink:title=" ">
<polygon fill="white" stroke="#bfbfbf" points="557.12,-6.5 557.12,-26.5 667.03,-26.5 667.03,-6.5 557.12,-6.5"/>
<text text-anchor="middle" x="612.07" y="-13.5" font-family="Helvetica,sans-Serif" font-size="10.00">fisch/vx/container.def</text>
</a>
</g>
</g>
<!-- Node2&#45;&gt;Node7 -->
<g id="edge9" class="edge">
<title>Node2&#45;&gt;Node7</title>
<path fill="none" stroke="midnightblue" d="M319.23,-72.15C373.36,-64.13 467.8,-49.39 548.07,-33 554.17,-31.75 560.57,-30.34 566.87,-28.88"/>
<polygon fill="midnightblue" stroke="midnightblue" points="567.7,-32.28 576.63,-26.57 566.09,-25.47 567.7,-32.28"/>
</g>
</g>
</svg>
