<?xml version="1.0" encoding="UTF-8" standalone="no"?>
<!DOCTYPE svg PUBLIC "-//W3C//DTD SVG 1.1//EN"
 "http://www.w3.org/Graphics/SVG/1.1/DTD/svg11.dtd">
<!-- Generated by graphviz version 2.43.0 (0)
 -->
<!-- Title: /jenkins/jenlib_workspaces_f9/bld_nightly&#45;haldls.YmxkX25pZ2h0bHktaGFsZGxzIzcxMQ.x/haldls/include/haldls/vx/v1/capmem.h Pages: 1 -->
<!--zoomable 272 -->
<svg id="main" version="1.1" xmlns="http://www.w3.org/2000/svg" xmlns:xlink="http://www.w3.org/1999/xlink" xml:space="preserve" onload="init(evt)">
<style type="text/css"><![CDATA[
.edge:hover path { stroke: red; }
.edge:hover polygon { stroke: red; fill: red; }
]]></style>
<script type="text/javascript"><![CDATA[
var edges = document.getElementsByTagName('g');
if (edges && edges.length) {
  for (var i=0;i<edges.length;i++) {
    if (edges[i].id.substr(0,4)=='edge') {
      edges[i].setAttribute('class','edge');
    }
  }
}
]]></script>
        <defs>
                <circle id="rim" cx="0" cy="0" r="7"/>
                <circle id="rim2" cx="0" cy="0" r="3.5"/>
                <g id="zoomPlus">
                        <use xlink:href="#rim" fill="#404040">
                                <set attributeName="fill" to="#808080" begin="zoomplus.mouseover" end="zoomplus.mouseout"/>
                        </use>
                        <path d="M-4,0h8M0,-4v8" fill="none" stroke="white" stroke-width="1.5" pointer-events="none"/>
                </g>
                <g id="zoomMin">
                        <use xlink:href="#rim" fill="#404040">
                                <set attributeName="fill" to="#808080" begin="zoomminus.mouseover" end="zoomminus.mouseout"/>
                        </use>
                        <path d="M-4,0h8" fill="none" stroke="white" stroke-width="1.5" pointer-events="none"/>
                </g>
                <g id="dirArrow">
                        <path fill="none" stroke="white" stroke-width="1.5" d="M0,-3.0v7 M-2.5,-0.5L0,-3.0L2.5,-0.5"/>
                </g>
               <g id="resetDef">
                       <use xlink:href="#rim2" fill="#404040">
                               <set attributeName="fill" to="#808080" begin="reset.mouseover" end="reset.mouseout"/>
                       </use>
               </g>
        </defs>

<script type="text/javascript">
var viewWidth = 1547;
var viewHeight = 272;
var sectionId = 'dynsection-0';
</script>
<script xlink:href="svgpan.js"/>
<svg id="graph" class="graph">
<g id="viewport">
<title>/jenkins/jenlib_workspaces_f9/bld_nightly&#45;haldls.YmxkX25pZ2h0bHktaGFsZGxzIzcxMQ.x/haldls/include/haldls/vx/v1/capmem.h</title>
<polygon fill="white" stroke="transparent" points="-4,4 -4,-268 1543.13,-268 1543.13,4 -4,4"/>
<!-- Node0 -->
<g id="node1" class="node">
<title>Node0</title>
<g id="a_node1"><a xlink:title=" ">
<polygon fill="#bfbfbf" stroke="black" points="554.38,-207.5 554.38,-263.5 732.62,-263.5 732.62,-207.5 554.38,-207.5"/>
<text text-anchor="start" x="562.38" y="-250.5" font-family="Helvetica,sans-Serif" font-size="10.00">/jenkins/jenlib_workspaces</text>
<text text-anchor="start" x="562.38" y="-238.5" font-family="Helvetica,sans-Serif" font-size="10.00">_f9/bld_nightly&#45;haldls.YmxkX25p</text>
<text text-anchor="start" x="562.38" y="-226.5" font-family="Helvetica,sans-Serif" font-size="10.00">Z2h0bHktaGFsZGxzIzcxMQ.x/haldls</text>
<text text-anchor="middle" x="643.5" y="-214.5" font-family="Helvetica,sans-Serif" font-size="10.00">/include/haldls/vx/v1/capmem.h</text>
</a>
</g>
</g>
<!-- Node1 -->
<g id="node2" class="node">
<title>Node1</title>
<g id="a_node2"><a xlink:title=" ">
<polygon fill="white" stroke="#bfbfbf" points="394.99,-138.5 394.99,-170.5 496.01,-170.5 496.01,-138.5 394.99,-138.5"/>
<text text-anchor="start" x="402.99" y="-157.5" font-family="Helvetica,sans-Serif" font-size="10.00">halco/hicann&#45;dls/vx</text>
<text text-anchor="middle" x="445.5" y="-145.5" font-family="Helvetica,sans-Serif" font-size="10.00">/v1/capmem.h</text>
</a>
</g>
</g>
<!-- Node0&#45;&gt;Node1 -->
<g id="edge1" class="edge">
<title>Node0&#45;&gt;Node1</title>
<path fill="none" stroke="midnightblue" d="M575.64,-207.42C548.36,-196.54 517.58,-184.26 492.8,-174.37"/>
<polygon fill="midnightblue" stroke="midnightblue" points="493.85,-171.02 483.27,-170.57 491.26,-177.52 493.85,-171.02"/>
</g>
<!-- Node2 -->
<g id="node3" class="node">
<title>Node2</title>
<g id="a_node3"><a xlink:title=" ">
<polygon fill="white" stroke="#bfbfbf" points="513.99,-138.5 513.99,-170.5 615.01,-170.5 615.01,-138.5 513.99,-138.5"/>
<text text-anchor="start" x="521.99" y="-157.5" font-family="Helvetica,sans-Serif" font-size="10.00">halco/hicann&#45;dls/vx</text>
<text text-anchor="middle" x="564.5" y="-145.5" font-family="Helvetica,sans-Serif" font-size="10.00">/v1/coordinates.h</text>
</a>
</g>
</g>
<!-- Node0&#45;&gt;Node2 -->
<g id="edge2" class="edge">
<title>Node0&#45;&gt;Node2</title>
<path fill="none" stroke="midnightblue" d="M616.32,-207.31C606.69,-197.69 595.98,-186.98 586.81,-177.81"/>
<polygon fill="midnightblue" stroke="midnightblue" points="589.07,-175.12 579.53,-170.52 584.12,-180.07 589.07,-175.12"/>
</g>
<!-- Node3 -->
<g id="node4" class="node">
<title>Node3</title>
<g id="a_node4"><a xlink:href="cerealization_8h.html" target="_top" xlink:title=" ">
<polygon fill="white" stroke="black" points="68.83,-75.5 68.83,-95.5 178.18,-95.5 178.18,-75.5 68.83,-75.5"/>
<text text-anchor="middle" x="123.5" y="-82.5" font-family="Helvetica,sans-Serif" font-size="10.00">haldls/cerealization.h</text>
</a>
</g>
</g>
<!-- Node0&#45;&gt;Node3 -->
<g id="edge3" class="edge">
<title>Node0&#45;&gt;Node3</title>
<path fill="none" stroke="midnightblue" d="M646.25,-207.35C646.84,-185.26 643.6,-155.07 624.5,-138 588.18,-105.54 235.6,-109.76 187.5,-102 180.68,-100.9 173.51,-99.45 166.53,-97.89"/>
<polygon fill="midnightblue" stroke="midnightblue" points="167.06,-94.42 156.52,-95.53 165.45,-101.23 167.06,-94.42"/>
</g>
<!-- Node9 -->
<g id="node10" class="node">
<title>Node9</title>
<g id="a_node10"><a xlink:href="capmem_8h.html" target="_top" xlink:title=" ">
<polygon fill="white" stroke="black" points="671.33,-144.5 671.33,-164.5 775.68,-164.5 775.68,-144.5 671.33,-144.5"/>
<text text-anchor="middle" x="723.5" y="-151.5" font-family="Helvetica,sans-Serif" font-size="10.00">haldls/vx/capmem.h</text>
</a>
</g>
</g>
<!-- Node0&#45;&gt;Node9 -->
<g id="edge9" class="edge">
<title>Node0&#45;&gt;Node9</title>
<path fill="none" stroke="midnightblue" d="M671.03,-207.31C682.99,-195.5 696.6,-182.07 706.96,-171.83"/>
<polygon fill="midnightblue" stroke="midnightblue" points="709.52,-174.23 714.17,-164.71 704.6,-169.25 709.52,-174.23"/>
</g>
<!-- Node20 -->
<g id="node21" class="node">
<title>Node20</title>
<g id="a_node21"><a xlink:href="genpybind_8h.html" target="_top" xlink:title=" ">
<polygon fill="white" stroke="black" points="1131.43,-6.5 1131.43,-26.5 1243.57,-26.5 1243.57,-6.5 1131.43,-6.5"/>
<text text-anchor="middle" x="1187.5" y="-13.5" font-family="Helvetica,sans-Serif" font-size="10.00">haldls/vx/genpybind.h</text>
</a>
</g>
</g>
<!-- Node0&#45;&gt;Node20 -->
<g id="edge34" class="edge">
<title>Node0&#45;&gt;Node20</title>
<path fill="none" stroke="midnightblue" d="M732.71,-224.31C868.36,-206.92 1116.93,-166.94 1175.5,-102 1191.36,-84.42 1192.1,-55.88 1190.41,-36.9"/>
<polygon fill="midnightblue" stroke="midnightblue" points="1193.86,-36.26 1189.2,-26.74 1186.91,-37.09 1193.86,-36.26"/>
</g>
<!-- Node4 -->
<g id="node5" class="node">
<title>Node4</title>
<g id="a_node5"><a xlink:title=" ">
<polygon fill="white" stroke="#bfbfbf" points="634.88,-6.5 634.88,-26.5 718.13,-26.5 718.13,-6.5 634.88,-6.5"/>
<text text-anchor="middle" x="676.5" y="-13.5" font-family="Helvetica,sans-Serif" font-size="10.00">hate/type_list.h</text>
</a>
</g>
</g>
<!-- Node3&#45;&gt;Node4 -->
<g id="edge4" class="edge">
<title>Node3&#45;&gt;Node4</title>
<path fill="none" stroke="midnightblue" d="M156.87,-75.5C166.68,-73.1 177.47,-70.71 187.5,-69 346.02,-42.01 387.67,-50.59 547.5,-33 572.89,-30.21 601.06,-26.85 624.58,-23.98"/>
<polygon fill="midnightblue" stroke="midnightblue" points="625.2,-27.43 634.7,-22.74 624.35,-20.48 625.2,-27.43"/>
</g>
<!-- Node5 -->
<g id="node6" class="node">
<title>Node5</title>
<g id="a_node6"><a xlink:title=" ">
<polygon fill="white" stroke="#bfbfbf" points="0,-6.5 0,-26.5 81.01,-26.5 81.01,-6.5 0,-6.5"/>
<text text-anchor="middle" x="40.5" y="-13.5" font-family="Helvetica,sans-Serif" font-size="10.00">hate/visibility.h</text>
</a>
</g>
</g>
<!-- Node3&#45;&gt;Node5 -->
<g id="edge5" class="edge">
<title>Node3&#45;&gt;Node5</title>
<path fill="none" stroke="midnightblue" d="M112.31,-75.46C98.82,-64.57 75.94,-46.1 59.63,-32.94"/>
<polygon fill="midnightblue" stroke="midnightblue" points="61.76,-30.16 51.78,-26.61 57.37,-35.61 61.76,-30.16"/>
</g>
<!-- Node6 -->
<g id="node7" class="node">
<title>Node6</title>
<g id="a_node7"><a xlink:title=" ">
<polygon fill="white" stroke="#bfbfbf" points="275.06,-6.5 275.06,-26.5 319.95,-26.5 319.95,-6.5 275.06,-6.5"/>
<text text-anchor="middle" x="297.5" y="-13.5" font-family="Helvetica,sans-Serif" font-size="10.00">cstdint</text>
</a>
</g>
</g>
<!-- Node3&#45;&gt;Node6 -->
<g id="edge6" class="edge">
<title>Node3&#45;&gt;Node6</title>
<path fill="none" stroke="midnightblue" d="M146.97,-75.46C177.53,-63.7 231.1,-43.07 265.4,-29.86"/>
<polygon fill="midnightblue" stroke="midnightblue" points="266.88,-33.04 274.96,-26.18 264.37,-26.51 266.88,-33.04"/>
</g>
<!-- Node7 -->
<g id="node8" class="node">
<title>Node7</title>
<g id="a_node8"><a xlink:title=" ">
<polygon fill="white" stroke="#bfbfbf" points="494.34,-6.5 494.34,-26.5 538.67,-26.5 538.67,-6.5 494.34,-6.5"/>
<text text-anchor="middle" x="516.5" y="-13.5" font-family="Helvetica,sans-Serif" font-size="10.00">iosfwd</text>
</a>
</g>
</g>
<!-- Node3&#45;&gt;Node7 -->
<g id="edge7" class="edge">
<title>Node3&#45;&gt;Node7</title>
<path fill="none" stroke="midnightblue" d="M158.6,-75.45C167.96,-73.19 178.08,-70.87 187.5,-69 295.33,-47.54 424.5,-29.55 483.81,-21.71"/>
<polygon fill="midnightblue" stroke="midnightblue" points="484.59,-25.14 494.05,-20.37 483.68,-18.2 484.59,-25.14"/>
</g>
<!-- Node8 -->
<g id="node9" class="node">
<title>Node8</title>
<g id="a_node9"><a xlink:title=" ">
<polygon fill="white" stroke="#bfbfbf" points="99.38,-6.5 99.38,-26.5 197.62,-26.5 197.62,-6.5 99.38,-6.5"/>
<text text-anchor="middle" x="148.5" y="-13.5" font-family="Helvetica,sans-Serif" font-size="10.00">cereal/macros.hpp</text>
</a>
</g>
</g>
<!-- Node3&#45;&gt;Node8 -->
<g id="edge8" class="edge">
<title>Node3&#45;&gt;Node8</title>
<path fill="none" stroke="midnightblue" d="M126.87,-75.46C130.58,-65.53 136.64,-49.28 141.41,-36.52"/>
<polygon fill="midnightblue" stroke="midnightblue" points="144.81,-37.42 145.02,-26.82 138.25,-34.97 144.81,-37.42"/>
</g>
<!-- Node9&#45;&gt;Node3 -->
<g id="edge18" class="edge">
<title>Node9&#45;&gt;Node3</title>
<path fill="none" stroke="midnightblue" d="M689.44,-144.44C679.24,-142.02 667.97,-139.62 657.5,-138 450.47,-105.96 394.43,-134.76 187.5,-102 180.68,-100.92 173.5,-99.48 166.53,-97.92"/>
<polygon fill="midnightblue" stroke="midnightblue" points="167.05,-94.45 156.52,-95.57 165.45,-101.26 167.05,-94.45"/>
</g>
<!-- Node9&#45;&gt;Node5 -->
<g id="edge32" class="edge">
<title>Node9&#45;&gt;Node5</title>
<path fill="none" stroke="midnightblue" d="M671.73,-144.48C656.55,-142.08 639.89,-139.69 624.5,-138 561.97,-131.13 107.35,-142.84 59.5,-102 40.96,-86.17 38.28,-56.48 38.81,-36.85"/>
<polygon fill="midnightblue" stroke="midnightblue" points="42.32,-36.82 39.4,-26.64 35.33,-36.42 42.32,-36.82"/>
</g>
<!-- Node9&#45;&gt;Node6 -->
<g id="edge11" class="edge">
<title>Node9&#45;&gt;Node6</title>
<path fill="none" stroke="midnightblue" d="M758.4,-144.42C804.53,-130.83 876.55,-103.1 845.5,-69 841.13,-64.19 447.89,-30.32 330.33,-20.29"/>
<polygon fill="midnightblue" stroke="midnightblue" points="330.41,-16.78 320.15,-19.42 329.81,-23.76 330.41,-16.78"/>
</g>
<!-- Node9&#45;&gt;Node7 -->
<g id="edge12" class="edge">
<title>Node9&#45;&gt;Node7</title>
<path fill="none" stroke="midnightblue" d="M775.71,-153.95C874.35,-153.13 1072.48,-142.63 1005.5,-69 976.96,-37.63 667.62,-37.99 625.5,-33 599.73,-29.95 570.63,-25.77 548.99,-22.53"/>
<polygon fill="midnightblue" stroke="midnightblue" points="549.42,-19.05 539.01,-21.01 548.37,-25.97 549.42,-19.05"/>
</g>
<!-- Node10 -->
<g id="node11" class="node">
<title>Node10</title>
<g id="a_node11"><a xlink:title=" ">
<polygon fill="white" stroke="#bfbfbf" points="196.11,-75.5 196.11,-95.5 234.89,-95.5 234.89,-75.5 196.11,-75.5"/>
<text text-anchor="middle" x="215.5" y="-82.5" font-family="Helvetica,sans-Serif" font-size="10.00">array</text>
</a>
</g>
</g>
<!-- Node9&#45;&gt;Node10 -->
<g id="edge10" class="edge">
<title>Node9&#45;&gt;Node10</title>
<path fill="none" stroke="midnightblue" d="M689.09,-144.43C678.98,-142.03 667.85,-139.66 657.5,-138 475.13,-108.81 420.16,-155.9 243.5,-102 241.82,-101.49 240.13,-100.86 238.45,-100.17"/>
<polygon fill="midnightblue" stroke="midnightblue" points="239.75,-96.9 229.23,-95.6 236.64,-103.17 239.75,-96.9"/>
</g>
<!-- Node11 -->
<g id="node12" class="node">
<title>Node11</title>
<g id="a_node12"><a xlink:title=" ">
<polygon fill="white" stroke="#bfbfbf" points="252.5,-75.5 252.5,-95.5 298.5,-95.5 298.5,-75.5 252.5,-75.5"/>
<text text-anchor="middle" x="275.5" y="-82.5" font-family="Helvetica,sans-Serif" font-size="10.00">variant</text>
</a>
</g>
</g>
<!-- Node9&#45;&gt;Node11 -->
<g id="edge13" class="edge">
<title>Node9&#45;&gt;Node11</title>
<path fill="none" stroke="midnightblue" d="M688.73,-144.45C678.71,-142.09 667.72,-139.72 657.5,-138 503.29,-112.07 457.93,-144.73 307.5,-102 305.2,-101.35 302.86,-100.53 300.54,-99.63"/>
<polygon fill="midnightblue" stroke="midnightblue" points="301.91,-96.4 291.35,-95.52 299.05,-102.79 301.91,-96.4"/>
</g>
<!-- Node12 -->
<g id="node13" class="node">
<title>Node12</title>
<g id="a_node13"><a xlink:title=" ">
<polygon fill="white" stroke="#bfbfbf" points="316.6,-75.5 316.6,-95.5 450.4,-95.5 450.4,-75.5 316.6,-75.5"/>
<text text-anchor="middle" x="383.5" y="-82.5" font-family="Helvetica,sans-Serif" font-size="10.00">halco/common/geometry.h</text>
</a>
</g>
</g>
<!-- Node9&#45;&gt;Node12 -->
<g id="edge14" class="edge">
<title>Node9&#45;&gt;Node12</title>
<path fill="none" stroke="midnightblue" d="M686.58,-144.48C677.12,-142.26 666.95,-139.97 657.5,-138 569.94,-119.77 547.33,-118.94 459.5,-102 452.15,-100.58 444.4,-99.05 436.78,-97.52"/>
<polygon fill="midnightblue" stroke="midnightblue" points="437.37,-94.06 426.88,-95.51 435.98,-100.93 437.37,-94.06"/>
</g>
<!-- Node13 -->
<g id="node14" class="node">
<title>Node13</title>
<g id="a_node14"><a xlink:title=" ">
<polygon fill="white" stroke="#bfbfbf" points="468.72,-75.5 468.72,-95.5 590.29,-95.5 590.29,-75.5 468.72,-75.5"/>
<text text-anchor="middle" x="529.5" y="-82.5" font-family="Helvetica,sans-Serif" font-size="10.00">halco/common/iter_all.h</text>
</a>
</g>
</g>
<!-- Node9&#45;&gt;Node13 -->
<g id="edge15" class="edge">
<title>Node9&#45;&gt;Node13</title>
<path fill="none" stroke="midnightblue" d="M697.34,-144.46C663.35,-132.73 603.85,-112.18 565.59,-98.96"/>
<polygon fill="midnightblue" stroke="midnightblue" points="566.47,-95.56 555.87,-95.61 564.18,-102.18 566.47,-95.56"/>
</g>
<!-- Node14 -->
<g id="node15" class="node">
<title>Node14</title>
<g id="a_node15"><a xlink:title=" ">
<polygon fill="white" stroke="#bfbfbf" points="608.38,-69.5 608.38,-101.5 716.63,-101.5 716.63,-69.5 608.38,-69.5"/>
<text text-anchor="start" x="616.38" y="-88.5" font-family="Helvetica,sans-Serif" font-size="10.00">halco/common/typed</text>
<text text-anchor="middle" x="662.5" y="-76.5" font-family="Helvetica,sans-Serif" font-size="10.00">_heap_array.h</text>
</a>
</g>
</g>
<!-- Node9&#45;&gt;Node14 -->
<g id="edge16" class="edge">
<title>Node9&#45;&gt;Node14</title>
<path fill="none" stroke="midnightblue" d="M715.28,-144.46C707.06,-135.44 694.1,-121.21 683.08,-109.1"/>
<polygon fill="midnightblue" stroke="midnightblue" points="685.51,-106.57 676.19,-101.53 680.33,-111.28 685.51,-106.57"/>
</g>
<!-- Node15 -->
<g id="node16" class="node">
<title>Node15</title>
<g id="a_node16"><a xlink:title=" ">
<polygon fill="white" stroke="#bfbfbf" points="734.99,-69.5 734.99,-101.5 836.01,-101.5 836.01,-69.5 734.99,-69.5"/>
<text text-anchor="start" x="742.99" y="-88.5" font-family="Helvetica,sans-Serif" font-size="10.00">halco/hicann&#45;dls/vx</text>
<text text-anchor="middle" x="785.5" y="-76.5" font-family="Helvetica,sans-Serif" font-size="10.00">/capmem.h</text>
</a>
</g>
</g>
<!-- Node9&#45;&gt;Node15 -->
<g id="edge17" class="edge">
<title>Node9&#45;&gt;Node15</title>
<path fill="none" stroke="midnightblue" d="M731.86,-144.46C740.22,-135.44 753.39,-121.21 764.59,-109.1"/>
<polygon fill="midnightblue" stroke="midnightblue" points="767.37,-111.25 771.59,-101.53 762.23,-106.5 767.37,-111.25"/>
</g>
<!-- Node16 -->
<g id="node17" class="node">
<title>Node16</title>
<g id="a_node17"><a xlink:href="common_8h.html" target="_top" xlink:title=" ">
<polygon fill="white" stroke="black" points="1292.33,-75.5 1292.33,-95.5 1396.68,-95.5 1396.68,-75.5 1292.33,-75.5"/>
<text text-anchor="middle" x="1344.5" y="-82.5" font-family="Helvetica,sans-Serif" font-size="10.00">haldls/vx/common.h</text>
</a>
</g>
</g>
<!-- Node9&#45;&gt;Node16 -->
<g id="edge19" class="edge">
<title>Node9&#45;&gt;Node16</title>
<path fill="none" stroke="midnightblue" d="M775.91,-147.85C889.82,-135.56 1159.54,-106.46 1282.04,-93.24"/>
<polygon fill="midnightblue" stroke="midnightblue" points="1282.45,-96.72 1292.01,-92.16 1281.7,-89.76 1282.45,-96.72"/>
</g>
<!-- Node9&#45;&gt;Node20 -->
<g id="edge23" class="edge">
<title>Node9&#45;&gt;Node20</title>
<path fill="none" stroke="midnightblue" d="M775.73,-153.44C876.11,-152.34 1091.22,-144.88 1149.5,-102 1170.61,-86.47 1180.25,-56.48 1184.46,-36.73"/>
<polygon fill="midnightblue" stroke="midnightblue" points="1187.93,-37.19 1186.32,-26.71 1181.05,-35.91 1187.93,-37.19"/>
</g>
<!-- Node21 -->
<g id="node22" class="node">
<title>Node21</title>
<g id="a_node22"><a xlink:href="traits_8h.html" target="_top" xlink:title=" ">
<polygon fill="white" stroke="black" points="1052.66,-75.5 1052.66,-95.5 1140.34,-95.5 1140.34,-75.5 1052.66,-75.5"/>
<text text-anchor="middle" x="1096.5" y="-82.5" font-family="Helvetica,sans-Serif" font-size="10.00">haldls/vx/traits.h</text>
</a>
</g>
</g>
<!-- Node9&#45;&gt;Node21 -->
<g id="edge25" class="edge">
<title>Node9&#45;&gt;Node21</title>
<path fill="none" stroke="midnightblue" d="M775.91,-146.55C838.67,-137.86 946.81,-121.7 1038.5,-102 1043.92,-100.84 1049.58,-99.49 1055.16,-98.08"/>
<polygon fill="midnightblue" stroke="midnightblue" points="1056.24,-101.42 1065.03,-95.52 1054.47,-94.65 1056.24,-101.42"/>
</g>
<!-- Node25 -->
<g id="node26" class="node">
<title>Node25</title>
<g id="a_node26"><a xlink:title=" ">
<polygon fill="white" stroke="#bfbfbf" points="892.88,-75.5 892.88,-95.5 996.12,-95.5 996.12,-75.5 892.88,-75.5"/>
<text text-anchor="middle" x="944.5" y="-82.5" font-family="Helvetica,sans-Serif" font-size="10.00">hxcomm/vx/target.h</text>
</a>
</g>
</g>
<!-- Node9&#45;&gt;Node25 -->
<g id="edge33" class="edge">
<title>Node9&#45;&gt;Node25</title>
<path fill="none" stroke="midnightblue" d="M753.31,-144.46C792.44,-132.6 861.26,-111.74 904.78,-98.54"/>
<polygon fill="midnightblue" stroke="midnightblue" points="905.91,-101.86 914.46,-95.61 903.88,-95.16 905.91,-101.86"/>
</g>
<!-- Node17 -->
<g id="node18" class="node">
<title>Node17</title>
<g id="a_node18"><a xlink:title=" ">
<polygon fill="white" stroke="#bfbfbf" points="1279.44,-6.5 1279.44,-26.5 1341.56,-26.5 1341.56,-6.5 1279.44,-6.5"/>
<text text-anchor="middle" x="1310.5" y="-13.5" font-family="Helvetica,sans-Serif" font-size="10.00">type_traits</text>
</a>
</g>
</g>
<!-- Node16&#45;&gt;Node17 -->
<g id="edge20" class="edge">
<title>Node16&#45;&gt;Node17</title>
<path fill="none" stroke="midnightblue" d="M1339.92,-75.46C1334.78,-65.33 1326.3,-48.63 1319.77,-35.75"/>
<polygon fill="midnightblue" stroke="midnightblue" points="1322.88,-34.16 1315.23,-26.82 1316.64,-37.32 1322.88,-34.16"/>
</g>
<!-- Node18 -->
<g id="node19" class="node">
<title>Node18</title>
<g id="a_node19"><a xlink:title=" ">
<polygon fill="white" stroke="#bfbfbf" points="1359.12,-6.5 1359.12,-26.5 1397.89,-26.5 1397.89,-6.5 1359.12,-6.5"/>
<text text-anchor="middle" x="1378.5" y="-13.5" font-family="Helvetica,sans-Serif" font-size="10.00">utility</text>
</a>
</g>
</g>
<!-- Node16&#45;&gt;Node18 -->
<g id="edge21" class="edge">
<title>Node16&#45;&gt;Node18</title>
<path fill="none" stroke="midnightblue" d="M1349.09,-75.46C1354.23,-65.33 1362.7,-48.63 1369.24,-35.75"/>
<polygon fill="midnightblue" stroke="midnightblue" points="1372.37,-37.32 1373.77,-26.82 1366.13,-34.16 1372.37,-37.32"/>
</g>
<!-- Node19 -->
<g id="node20" class="node">
<title>Node19</title>
<g id="a_node20"><a xlink:title=" ">
<polygon fill="white" stroke="#bfbfbf" points="1415.88,-6.5 1415.88,-26.5 1539.13,-26.5 1539.13,-6.5 1415.88,-6.5"/>
<text text-anchor="middle" x="1477.5" y="-13.5" font-family="Helvetica,sans-Serif" font-size="10.00">fisch/vx/omnibus_data.h</text>
</a>
</g>
</g>
<!-- Node16&#45;&gt;Node19 -->
<g id="edge22" class="edge">
<title>Node16&#45;&gt;Node19</title>
<path fill="none" stroke="midnightblue" d="M1362.44,-75.46C1385.05,-64.08 1424.12,-44.39 1450.38,-31.16"/>
<polygon fill="midnightblue" stroke="midnightblue" points="1452.07,-34.23 1459.43,-26.61 1448.92,-27.98 1452.07,-34.23"/>
</g>
<!-- Node20&#45;&gt;Node20 -->
<g id="edge24" class="edge">
<title>Node20&#45;&gt;Node20</title>
<path fill="none" stroke="midnightblue" d="M1211.4,-26.54C1235.23,-32.26 1261.57,-28.92 1261.57,-16.5 1261.57,-5.78 1241.94,-1.82 1221.24,-4.62"/>
<polygon fill="midnightblue" stroke="midnightblue" points="1220.59,-1.18 1211.4,-6.46 1221.87,-8.06 1220.59,-1.18"/>
</g>
<!-- Node21&#45;&gt;Node4 -->
<g id="edge29" class="edge">
<title>Node21&#45;&gt;Node4</title>
<path fill="none" stroke="midnightblue" d="M1065.67,-75.47C1056.94,-73.13 1047.4,-70.77 1038.5,-69 918.9,-45.21 887.06,-51.35 766.5,-33 754.26,-31.14 741.1,-28.97 728.74,-26.85"/>
<polygon fill="midnightblue" stroke="midnightblue" points="729.02,-23.35 718.57,-25.09 727.83,-30.25 729.02,-23.35"/>
</g>
<!-- Node21&#45;&gt;Node17 -->
<g id="edge26" class="edge">
<title>Node21&#45;&gt;Node17</title>
<path fill="none" stroke="midnightblue" d="M1130.12,-75.43C1165.35,-65.72 1222.2,-49.48 1270.5,-33 1273.21,-32.08 1276.01,-31.08 1278.81,-30.05"/>
<polygon fill="midnightblue" stroke="midnightblue" points="1280.07,-33.32 1288.2,-26.52 1277.6,-26.77 1280.07,-33.32"/>
</g>
<!-- Node21&#45;&gt;Node20 -->
<g id="edge28" class="edge">
<title>Node21&#45;&gt;Node20</title>
<path fill="none" stroke="midnightblue" d="M1108.78,-75.46C1123.7,-64.47 1149.12,-45.76 1167.02,-32.58"/>
<polygon fill="midnightblue" stroke="midnightblue" points="1169.16,-35.35 1175.13,-26.61 1165.01,-29.72 1169.16,-35.35"/>
</g>
<!-- Node22 -->
<g id="node23" class="node">
<title>Node22</title>
<g id="a_node23"><a xlink:title=" ">
<polygon fill="white" stroke="#bfbfbf" points="903.88,-0.5 903.88,-32.5 997.12,-32.5 997.12,-0.5 903.88,-0.5"/>
<text text-anchor="start" x="911.88" y="-19.5" font-family="Helvetica,sans-Serif" font-size="10.00">fisch/vx/container</text>
<text text-anchor="middle" x="950.5" y="-7.5" font-family="Helvetica,sans-Serif" font-size="10.00">_fwd.h</text>
</a>
</g>
</g>
<!-- Node21&#45;&gt;Node22 -->
<g id="edge27" class="edge">
<title>Node21&#45;&gt;Node22</title>
<path fill="none" stroke="midnightblue" d="M1076.81,-75.46C1055.27,-65.58 1020.12,-49.45 992.36,-36.71"/>
<polygon fill="midnightblue" stroke="midnightblue" points="993.81,-33.52 983.26,-32.53 990.89,-39.89 993.81,-33.52"/>
</g>
<!-- Node23 -->
<g id="node24" class="node">
<title>Node23</title>
<g id="a_node24"><a xlink:title=" ">
<polygon fill="white" stroke="#bfbfbf" points="1015.1,-0.5 1015.1,-32.5 1113.9,-32.5 1113.9,-0.5 1015.1,-0.5"/>
<text text-anchor="start" x="1023.1" y="-19.5" font-family="Helvetica,sans-Serif" font-size="10.00">boost/utility/enable</text>
<text text-anchor="middle" x="1064.5" y="-7.5" font-family="Helvetica,sans-Serif" font-size="10.00">_if.hpp</text>
</a>
</g>
</g>
<!-- Node21&#45;&gt;Node23 -->
<g id="edge30" class="edge">
<title>Node21&#45;&gt;Node23</title>
<path fill="none" stroke="midnightblue" d="M1092.19,-75.46C1088.08,-66.87 1081.72,-53.55 1076.13,-41.85"/>
<polygon fill="midnightblue" stroke="midnightblue" points="1079.15,-40.05 1071.68,-32.53 1072.83,-43.07 1079.15,-40.05"/>
</g>
<!-- Node24 -->
<g id="node25" class="node">
<title>Node24</title>
<g id="a_node25"><a xlink:title=" ">
<polygon fill="white" stroke="#bfbfbf" points="775.55,-6.5 775.55,-26.5 885.46,-26.5 885.46,-6.5 775.55,-6.5"/>
<text text-anchor="middle" x="830.5" y="-13.5" font-family="Helvetica,sans-Serif" font-size="10.00">fisch/vx/container.def</text>
</a>
</g>
</g>
<!-- Node21&#45;&gt;Node24 -->
<g id="edge31" class="edge">
<title>Node21&#45;&gt;Node24</title>
<path fill="none" stroke="midnightblue" d="M1063.1,-75.46C1055.05,-73.31 1046.48,-71.05 1038.5,-69 983.3,-54.79 919.67,-39.14 877.47,-28.87"/>
<polygon fill="midnightblue" stroke="midnightblue" points="878.3,-25.47 867.75,-26.5 876.64,-32.27 878.3,-25.47"/>
</g>
</g>
</svg>
        <g id="navigator" transform="translate(0 0)" fill="#404254">
                <rect fill="#f2f5e9" fill-opacity="0.5" stroke="#606060" stroke-width=".5" x="0" y="0" width="60" height="60"/>
                <use id="zoomplus" xlink:href="#zoomPlus" x="17" y="9" onmousedown="handleZoom(evt,'in')"/>
                <use id="zoomminus" xlink:href="#zoomMin" x="42" y="9" onmousedown="handleZoom(evt,'out')"/>
                <use id="reset" xlink:href="#resetDef" x="30" y="36" onmousedown="handleReset()"/>
                <g id="arrowUp" xlink:href="#dirArrow" transform="translate(30 24)" onmousedown="handlePan(0,-1)">
                  <use xlink:href="#rim" fill="#404040">
                        <set attributeName="fill" to="#808080" begin="arrowUp.mouseover" end="arrowUp.mouseout"/>
                  </use>
                  <path fill="none" stroke="white" stroke-width="1.5" d="M0,-3.0v7 M-2.5,-0.5L0,-3.0L2.5,-0.5"/>
                </g>
                <g id="arrowRight" xlink:href="#dirArrow" transform="rotate(90) translate(36 -43)" onmousedown="handlePan(1,0)">
                  <use xlink:href="#rim" fill="#404040">
                        <set attributeName="fill" to="#808080" begin="arrowRight.mouseover" end="arrowRight.mouseout"/>
                  </use>
                  <path fill="none" stroke="white" stroke-width="1.5" d="M0,-3.0v7 M-2.5,-0.5L0,-3.0L2.5,-0.5"/>
                </g>
                <g id="arrowDown" xlink:href="#dirArrow" transform="rotate(180) translate(-30 -48)" onmousedown="handlePan(0,1)">
                  <use xlink:href="#rim" fill="#404040">
                        <set attributeName="fill" to="#808080" begin="arrowDown.mouseover" end="arrowDown.mouseout"/>
                  </use>
                  <path fill="none" stroke="white" stroke-width="1.5" d="M0,-3.0v7 M-2.5,-0.5L0,-3.0L2.5,-0.5"/>
                </g>
                <g id="arrowLeft" xlink:href="#dirArrow" transform="rotate(270) translate(-36 17)" onmousedown="handlePan(-1,0)">
                  <use xlink:href="#rim" fill="#404040">
                        <set attributeName="fill" to="#808080" begin="arrowLeft.mouseover" end="arrowLeft.mouseout"/>
                  </use>
                  <path fill="none" stroke="white" stroke-width="1.5" d="M0,-3.0v7 M-2.5,-0.5L0,-3.0L2.5,-0.5"/>
                </g>
        </g>
        <svg viewBox="0 0 15 15" width="100%" height="30px" preserveAspectRatio="xMaxYMin meet">
         <g id="arrow_out" transform="scale(0.3 0.3)">
          <a xlink:href="v1_2capmem_8h__incl_org.svg" target="_base">
           <rect id="button" ry="5" rx="5" y="6" x="6" height="38" width="38"
                fill="#f2f5e9" fill-opacity="0.5" stroke="#606060" stroke-width="1.0"/>
           <path id="arrow"
             d="M 11.500037,31.436501 C 11.940474,20.09759 22.043105,11.32322 32.158766,21.979434 L 37.068811,17.246167 C 37.068811,17.246167 37.088388,32 37.088388,32 L 22.160133,31.978069 C 22.160133,31.978069 26.997745,27.140456 26.997745,27.140456 C 18.528582,18.264221 13.291696,25.230495 11.500037,31.436501 z"
             style="fill:#404040;"/>
          </a>
         </g>
        </svg>
</svg>
