<?xml version="1.0" encoding="UTF-8" standalone="no"?>
<!DOCTYPE svg PUBLIC "-//W3C//DTD SVG 1.1//EN"
 "http://www.w3.org/Graphics/SVG/1.1/DTD/svg11.dtd">
<!-- Generated by graphviz version 2.43.0 (0)
 -->
<!-- Title: /jenkins/jenlib_workspaces_f9/bld_nightly&#45;haldls.YmxkX25pZ2h0bHktaGFsZGxzIzcxMQ.x/haldls/include/haldls/vx/v1/common.h Pages: 1 -->
<svg width="307pt" height="179pt"
 viewBox="0.00 0.00 307.13 179.00" xmlns="http://www.w3.org/2000/svg" xmlns:xlink="http://www.w3.org/1999/xlink">
<g id="graph0" class="graph" transform="scale(1 1) rotate(0) translate(4 175)">
<title>/jenkins/jenlib_workspaces_f9/bld_nightly&#45;haldls.YmxkX25pZ2h0bHktaGFsZGxzIzcxMQ.x/haldls/include/haldls/vx/v1/common.h</title>
<polygon fill="white" stroke="transparent" points="-4,4 -4,-175 303.13,-175 303.13,4 -4,4"/>
<!-- Node0 -->
<g id="node1" class="node">
<title>Node0</title>
<g id="a_node1"><a xlink:title=" ">
<polygon fill="#bfbfbf" stroke="black" points="72.94,-114.5 72.94,-170.5 251.18,-170.5 251.18,-114.5 72.94,-114.5"/>
<text text-anchor="start" x="80.94" y="-157.5" font-family="Helvetica,sans-Serif" font-size="10.00">/jenkins/jenlib_workspaces</text>
<text text-anchor="start" x="80.94" y="-145.5" font-family="Helvetica,sans-Serif" font-size="10.00">_f9/bld_nightly&#45;haldls.YmxkX25p</text>
<text text-anchor="start" x="80.94" y="-133.5" font-family="Helvetica,sans-Serif" font-size="10.00">Z2h0bHktaGFsZGxzIzcxMQ.x/haldls</text>
<text text-anchor="middle" x="162.06" y="-121.5" font-family="Helvetica,sans-Serif" font-size="10.00">/include/haldls/vx/v1/common.h</text>
</a>
</g>
</g>
<!-- Node1 -->
<g id="node2" class="node">
<title>Node1</title>
<g id="a_node2"><a xlink:href="common_8h.html" target="_top" xlink:title=" ">
<polygon fill="white" stroke="black" points="46.89,-57.5 46.89,-77.5 151.23,-77.5 151.23,-57.5 46.89,-57.5"/>
<text text-anchor="middle" x="99.06" y="-64.5" font-family="Helvetica,sans-Serif" font-size="10.00">haldls/vx/common.h</text>
</a>
</g>
</g>
<!-- Node0&#45;&gt;Node1 -->
<g id="edge1" class="edge">
<title>Node0&#45;&gt;Node1</title>
<path fill="none" stroke="midnightblue" d="M138.6,-114.32C130.21,-104.59 120.99,-93.91 113.57,-85.32"/>
<polygon fill="midnightblue" stroke="midnightblue" points="116.03,-82.81 106.85,-77.52 110.73,-87.38 116.03,-82.81"/>
</g>
<!-- Node5 -->
<g id="node6" class="node">
<title>Node5</title>
<g id="a_node6"><a xlink:href="genpybind_8h.html" target="_top" xlink:title=" ">
<polygon fill="white" stroke="black" points="168.99,-57.5 168.99,-77.5 281.13,-77.5 281.13,-57.5 168.99,-57.5"/>
<text text-anchor="middle" x="225.06" y="-64.5" font-family="Helvetica,sans-Serif" font-size="10.00">haldls/vx/genpybind.h</text>
</a>
</g>
</g>
<!-- Node0&#45;&gt;Node5 -->
<g id="edge5" class="edge">
<title>Node0&#45;&gt;Node5</title>
<path fill="none" stroke="midnightblue" d="M185.52,-114.32C193.92,-104.59 203.13,-93.91 210.55,-85.32"/>
<polygon fill="midnightblue" stroke="midnightblue" points="213.39,-87.38 217.27,-77.52 208.09,-82.81 213.39,-87.38"/>
</g>
<!-- Node2 -->
<g id="node3" class="node">
<title>Node2</title>
<g id="a_node3"><a xlink:title=" ">
<polygon fill="white" stroke="#bfbfbf" points="0,-0.5 0,-20.5 62.12,-20.5 62.12,-0.5 0,-0.5"/>
<text text-anchor="middle" x="31.06" y="-7.5" font-family="Helvetica,sans-Serif" font-size="10.00">type_traits</text>
</a>
</g>
</g>
<!-- Node1&#45;&gt;Node2 -->
<g id="edge2" class="edge">
<title>Node1&#45;&gt;Node2</title>
<path fill="none" stroke="midnightblue" d="M87.83,-57.42C77.66,-49.19 62.44,-36.88 50.33,-27.08"/>
<polygon fill="midnightblue" stroke="midnightblue" points="52.51,-24.35 42.53,-20.78 48.11,-29.79 52.51,-24.35"/>
</g>
<!-- Node3 -->
<g id="node4" class="node">
<title>Node3</title>
<g id="a_node4"><a xlink:title=" ">
<polygon fill="white" stroke="#bfbfbf" points="79.67,-0.5 79.67,-20.5 118.45,-20.5 118.45,-0.5 79.67,-0.5"/>
<text text-anchor="middle" x="99.06" y="-7.5" font-family="Helvetica,sans-Serif" font-size="10.00">utility</text>
</a>
</g>
</g>
<!-- Node1&#45;&gt;Node3 -->
<g id="edge3" class="edge">
<title>Node1&#45;&gt;Node3</title>
<path fill="none" stroke="midnightblue" d="M99.06,-57.42C99.06,-50.22 99.06,-39.9 99.06,-30.86"/>
<polygon fill="midnightblue" stroke="midnightblue" points="102.56,-30.78 99.06,-20.78 95.56,-30.78 102.56,-30.78"/>
</g>
<!-- Node4 -->
<g id="node5" class="node">
<title>Node4</title>
<g id="a_node5"><a xlink:title=" ">
<polygon fill="white" stroke="#bfbfbf" points="136.43,-0.5 136.43,-20.5 259.69,-20.5 259.69,-0.5 136.43,-0.5"/>
<text text-anchor="middle" x="198.06" y="-7.5" font-family="Helvetica,sans-Serif" font-size="10.00">fisch/vx/omnibus_data.h</text>
</a>
</g>
</g>
<!-- Node1&#45;&gt;Node4 -->
<g id="edge4" class="edge">
<title>Node1&#45;&gt;Node4</title>
<path fill="none" stroke="midnightblue" d="M115.41,-57.42C131.03,-48.74 154.8,-35.53 172.85,-25.51"/>
<polygon fill="midnightblue" stroke="midnightblue" points="174.65,-28.51 181.69,-20.6 171.25,-22.39 174.65,-28.51"/>
</g>
<!-- Node5&#45;&gt;Node5 -->
<g id="edge6" class="edge">
<title>Node5&#45;&gt;Node5</title>
<path fill="none" stroke="midnightblue" d="M261.26,-77.53C281.03,-79.32 299.13,-75.98 299.13,-67.5 299.13,-60.55 286.95,-57.05 271.66,-57"/>
<polygon fill="midnightblue" stroke="midnightblue" points="271.1,-53.52 261.26,-57.47 271.41,-60.52 271.1,-53.52"/>
</g>
</g>
</svg>
