<?xml version="1.0" encoding="UTF-8" standalone="no"?>
<!DOCTYPE svg PUBLIC "-//W3C//DTD SVG 1.1//EN"
 "http://www.w3.org/Graphics/SVG/1.1/DTD/svg11.dtd">
<!-- Generated by graphviz version 2.43.0 (0)
 -->
<!-- Title: /jenkins/jenlib_workspaces_f9/bld_nightly&#45;haldls.YmxkX25pZ2h0bHktaGFsZGxzIzcxMQ.x/haldls/include/haldls/vx/v1/routing_crossbar.h Pages: 1 -->
<svg width="1233pt" height="260pt"
 viewBox="0.00 0.00 1233.46 260.00" xmlns="http://www.w3.org/2000/svg" xmlns:xlink="http://www.w3.org/1999/xlink">
<g id="graph0" class="graph" transform="scale(1 1) rotate(0) translate(4 256)">
<title>/jenkins/jenlib_workspaces_f9/bld_nightly&#45;haldls.YmxkX25pZ2h0bHktaGFsZGxzIzcxMQ.x/haldls/include/haldls/vx/v1/routing_crossbar.h</title>
<polygon fill="white" stroke="transparent" points="-4,4 -4,-256 1229.46,-256 1229.46,4 -4,4"/>
<!-- Node0 -->
<g id="node1" class="node">
<title>Node0</title>
<g id="a_node1"><a xlink:title=" ">
<polygon fill="#bfbfbf" stroke="black" points="237.55,-195.5 237.55,-251.5 428.59,-251.5 428.59,-195.5 237.55,-195.5"/>
<text text-anchor="start" x="245.55" y="-238.5" font-family="Helvetica,sans-Serif" font-size="10.00">/jenkins/jenlib_workspaces</text>
<text text-anchor="start" x="245.55" y="-226.5" font-family="Helvetica,sans-Serif" font-size="10.00">_f9/bld_nightly&#45;haldls.YmxkX25p</text>
<text text-anchor="start" x="245.55" y="-214.5" font-family="Helvetica,sans-Serif" font-size="10.00">Z2h0bHktaGFsZGxzIzcxMQ.x/haldls</text>
<text text-anchor="middle" x="333.07" y="-202.5" font-family="Helvetica,sans-Serif" font-size="10.00">/include/haldls/vx/v1/routing_crossbar.h</text>
</a>
</g>
</g>
<!-- Node1 -->
<g id="node2" class="node">
<title>Node1</title>
<g id="a_node2"><a xlink:href="genpybind_8h.html" target="_top" xlink:title=" ">
<polygon fill="white" stroke="black" points="0,-6.5 0,-26.5 112.14,-26.5 112.14,-6.5 0,-6.5"/>
<text text-anchor="middle" x="56.07" y="-13.5" font-family="Helvetica,sans-Serif" font-size="10.00">haldls/vx/genpybind.h</text>
</a>
</g>
</g>
<!-- Node0&#45;&gt;Node1 -->
<g id="edge1" class="edge">
<title>Node0&#45;&gt;Node1</title>
<path fill="none" stroke="midnightblue" d="M248.09,-195.49C198.29,-176.09 137.11,-145.59 95.07,-102 77.07,-83.33 66.31,-54.86 60.79,-36.21"/>
<polygon fill="midnightblue" stroke="midnightblue" points="64.15,-35.23 58.13,-26.52 57.4,-37.09 64.15,-35.23"/>
</g>
<!-- Node2 -->
<g id="node3" class="node">
<title>Node2</title>
<g id="a_node3"><a xlink:href="routing__crossbar_8h.html" target="_top" xlink:title=" ">
<polygon fill="white" stroke="black" points="555.84,-138.5 555.84,-158.5 696.31,-158.5 696.31,-138.5 555.84,-138.5"/>
<text text-anchor="middle" x="626.07" y="-145.5" font-family="Helvetica,sans-Serif" font-size="10.00">haldls/vx/routing_crossbar.h</text>
</a>
</g>
</g>
<!-- Node0&#45;&gt;Node2 -->
<g id="edge3" class="edge">
<title>Node0&#45;&gt;Node2</title>
<path fill="none" stroke="midnightblue" d="M428.61,-198.7C479.41,-186.04 539.55,-171.06 580,-160.98"/>
<polygon fill="midnightblue" stroke="midnightblue" points="580.99,-164.34 589.85,-158.53 579.3,-157.55 580.99,-164.34"/>
</g>
<!-- Node1&#45;&gt;Node1 -->
<g id="edge2" class="edge">
<title>Node1&#45;&gt;Node1</title>
<path fill="none" stroke="midnightblue" d="M79.97,-26.54C103.79,-32.26 130.14,-28.92 130.14,-16.5 130.14,-5.78 110.51,-1.82 89.81,-4.62"/>
<polygon fill="midnightblue" stroke="midnightblue" points="89.15,-1.18 79.97,-6.46 90.44,-8.06 89.15,-1.18"/>
</g>
<!-- Node2&#45;&gt;Node1 -->
<g id="edge16" class="edge">
<title>Node2&#45;&gt;Node1</title>
<path fill="none" stroke="midnightblue" d="M555.47,-146.5C439.77,-143.92 215.52,-134.73 144.07,-102 111.51,-87.08 83.57,-55 68.35,-34.94"/>
<polygon fill="midnightblue" stroke="midnightblue" points="71.02,-32.67 62.28,-26.68 65.38,-36.81 71.02,-32.67"/>
</g>
<!-- Node3 -->
<g id="node4" class="node">
<title>Node3</title>
<g id="a_node4"><a xlink:title=" ">
<polygon fill="white" stroke="#bfbfbf" points="1186.68,-75.5 1186.68,-95.5 1225.46,-95.5 1225.46,-75.5 1186.68,-75.5"/>
<text text-anchor="middle" x="1206.07" y="-82.5" font-family="Helvetica,sans-Serif" font-size="10.00">array</text>
</a>
</g>
</g>
<!-- Node2&#45;&gt;Node3 -->
<g id="edge4" class="edge">
<title>Node2&#45;&gt;Node3</title>
<path fill="none" stroke="midnightblue" d="M696.45,-144.75C823.25,-139.29 1085.03,-125.52 1173.07,-102 1175.53,-101.34 1178.04,-100.51 1180.51,-99.57"/>
<polygon fill="midnightblue" stroke="midnightblue" points="1181.93,-102.77 1189.72,-95.58 1179.15,-96.34 1181.93,-102.77"/>
</g>
<!-- Node4 -->
<g id="node5" class="node">
<title>Node4</title>
<g id="a_node5"><a xlink:title=" ">
<polygon fill="white" stroke="#bfbfbf" points="839.9,-6.5 839.9,-26.5 884.24,-26.5 884.24,-6.5 839.9,-6.5"/>
<text text-anchor="middle" x="862.07" y="-13.5" font-family="Helvetica,sans-Serif" font-size="10.00">iosfwd</text>
</a>
</g>
</g>
<!-- Node2&#45;&gt;Node4 -->
<g id="edge5" class="edge">
<title>Node2&#45;&gt;Node4</title>
<path fill="none" stroke="midnightblue" d="M555.83,-148.43C467.18,-147.92 322.13,-140.95 288.07,-102 278.42,-90.96 278.12,-79.78 288.07,-69 321.94,-32.3 686.39,-38.05 736.07,-33 767.92,-29.76 804.19,-25.21 829.61,-21.88"/>
<polygon fill="midnightblue" stroke="midnightblue" points="830.34,-25.31 839.8,-20.53 829.43,-18.37 830.34,-25.31"/>
</g>
<!-- Node5 -->
<g id="node6" class="node">
<title>Node5</title>
<g id="a_node6"><a xlink:title=" ">
<polygon fill="white" stroke="#bfbfbf" points="297.17,-75.5 297.17,-95.5 430.97,-95.5 430.97,-75.5 297.17,-75.5"/>
<text text-anchor="middle" x="364.07" y="-82.5" font-family="Helvetica,sans-Serif" font-size="10.00">halco/common/geometry.h</text>
</a>
</g>
</g>
<!-- Node2&#45;&gt;Node5 -->
<g id="edge6" class="edge">
<title>Node2&#45;&gt;Node5</title>
<path fill="none" stroke="midnightblue" d="M587.41,-138.5C541.07,-127.71 463.36,-109.62 412.91,-97.87"/>
<polygon fill="midnightblue" stroke="midnightblue" points="413.42,-94.4 402.89,-95.54 411.83,-101.21 413.42,-94.4"/>
</g>
<!-- Node6 -->
<g id="node7" class="node">
<title>Node6</title>
<g id="a_node7"><a xlink:title=" ">
<polygon fill="white" stroke="#bfbfbf" points="448.95,-69.5 448.95,-101.5 557.19,-101.5 557.19,-69.5 448.95,-69.5"/>
<text text-anchor="start" x="456.95" y="-88.5" font-family="Helvetica,sans-Serif" font-size="10.00">halco/common/typed</text>
<text text-anchor="middle" x="503.07" y="-76.5" font-family="Helvetica,sans-Serif" font-size="10.00">_array.h</text>
</a>
</g>
</g>
<!-- Node2&#45;&gt;Node6 -->
<g id="edge7" class="edge">
<title>Node2&#45;&gt;Node6</title>
<path fill="none" stroke="midnightblue" d="M607.92,-138.5C590.85,-130.03 564.7,-117.07 542.8,-106.2"/>
<polygon fill="midnightblue" stroke="midnightblue" points="544.22,-103 533.7,-101.69 541.11,-109.27 544.22,-103"/>
</g>
<!-- Node7 -->
<g id="node8" class="node">
<title>Node7</title>
<g id="a_node8"><a xlink:title=" ">
<polygon fill="white" stroke="#bfbfbf" points="575.56,-69.5 575.56,-101.5 676.58,-101.5 676.58,-69.5 575.56,-69.5"/>
<text text-anchor="start" x="583.56" y="-88.5" font-family="Helvetica,sans-Serif" font-size="10.00">halco/hicann&#45;dls/vx</text>
<text text-anchor="middle" x="626.07" y="-76.5" font-family="Helvetica,sans-Serif" font-size="10.00">/event.h</text>
</a>
</g>
</g>
<!-- Node2&#45;&gt;Node7 -->
<g id="edge8" class="edge">
<title>Node2&#45;&gt;Node7</title>
<path fill="none" stroke="midnightblue" d="M626.07,-138.5C626.07,-131.47 626.07,-121.34 626.07,-111.88"/>
<polygon fill="midnightblue" stroke="midnightblue" points="629.57,-111.69 626.07,-101.69 622.57,-111.69 629.57,-111.69"/>
</g>
<!-- Node8 -->
<g id="node9" class="node">
<title>Node8</title>
<g id="a_node9"><a xlink:title=" ">
<polygon fill="white" stroke="#bfbfbf" points="694.28,-69.5 694.28,-101.5 795.86,-101.5 795.86,-69.5 694.28,-69.5"/>
<text text-anchor="start" x="702.28" y="-88.5" font-family="Helvetica,sans-Serif" font-size="10.00">halco/hicann&#45;dls/vx</text>
<text text-anchor="middle" x="745.07" y="-76.5" font-family="Helvetica,sans-Serif" font-size="10.00">/routing_crossbar.h</text>
</a>
</g>
</g>
<!-- Node2&#45;&gt;Node8 -->
<g id="edge9" class="edge">
<title>Node2&#45;&gt;Node8</title>
<path fill="none" stroke="midnightblue" d="M643.63,-138.5C660.08,-130.07 685.22,-117.18 706.36,-106.35"/>
<polygon fill="midnightblue" stroke="midnightblue" points="708.13,-109.37 715.44,-101.69 704.94,-103.14 708.13,-109.37"/>
</g>
<!-- Node9 -->
<g id="node10" class="node">
<title>Node9</title>
<g id="a_node10"><a xlink:href="cerealization_8h.html" target="_top" xlink:title=" ">
<polygon fill="white" stroke="black" points="1021.4,-75.5 1021.4,-95.5 1130.75,-95.5 1130.75,-75.5 1021.4,-75.5"/>
<text text-anchor="middle" x="1076.07" y="-82.5" font-family="Helvetica,sans-Serif" font-size="10.00">haldls/cerealization.h</text>
</a>
</g>
</g>
<!-- Node2&#45;&gt;Node9 -->
<g id="edge10" class="edge">
<title>Node2&#45;&gt;Node9</title>
<path fill="none" stroke="midnightblue" d="M696.37,-141.88C774.22,-135.04 903.23,-121.89 1013.07,-102 1019.4,-100.85 1026.04,-99.45 1032.53,-97.96"/>
<polygon fill="midnightblue" stroke="midnightblue" points="1033.65,-101.29 1042.56,-95.56 1032.02,-94.48 1033.65,-101.29"/>
</g>
<!-- Node11 -->
<g id="node12" class="node">
<title>Node11</title>
<g id="a_node12"><a xlink:title=" ">
<polygon fill="white" stroke="#bfbfbf" points="1130.57,-6.5 1130.57,-26.5 1211.57,-26.5 1211.57,-6.5 1130.57,-6.5"/>
<text text-anchor="middle" x="1171.07" y="-13.5" font-family="Helvetica,sans-Serif" font-size="10.00">hate/visibility.h</text>
</a>
</g>
</g>
<!-- Node2&#45;&gt;Node11 -->
<g id="edge25" class="edge">
<title>Node2&#45;&gt;Node11</title>
<path fill="none" stroke="midnightblue" d="M696.36,-145.42C828.9,-140.9 1105.63,-128.39 1140.07,-102 1160.28,-86.52 1167.32,-56.51 1169.77,-36.75"/>
<polygon fill="midnightblue" stroke="midnightblue" points="1173.26,-37.01 1170.73,-26.72 1166.29,-36.35 1173.26,-37.01"/>
</g>
<!-- Node14 -->
<g id="node15" class="node">
<title>Node14</title>
<g id="a_node15"><a xlink:href="traits_8h.html" target="_top" xlink:title=" ">
<polygon fill="white" stroke="black" points="153.23,-75.5 153.23,-95.5 240.91,-95.5 240.91,-75.5 153.23,-75.5"/>
<text text-anchor="middle" x="197.07" y="-82.5" font-family="Helvetica,sans-Serif" font-size="10.00">haldls/vx/traits.h</text>
</a>
</g>
</g>
<!-- Node2&#45;&gt;Node14 -->
<g id="edge17" class="edge">
<title>Node2&#45;&gt;Node14</title>
<path fill="none" stroke="midnightblue" d="M555.53,-141.79C480.55,-135.04 358.75,-122.11 255.07,-102 249.3,-100.88 243.26,-99.5 237.35,-98.04"/>
<polygon fill="midnightblue" stroke="midnightblue" points="238.15,-94.63 227.59,-95.51 236.39,-101.4 238.15,-94.63"/>
</g>
<!-- Node19 -->
<g id="node20" class="node">
<title>Node19</title>
<g id="a_node20"><a xlink:title=" ">
<polygon fill="white" stroke="#bfbfbf" points="813.67,-75.5 813.67,-95.5 882.47,-95.5 882.47,-75.5 813.67,-75.5"/>
<text text-anchor="middle" x="848.07" y="-82.5" font-family="Helvetica,sans-Serif" font-size="10.00">hate/math.h</text>
</a>
</g>
</g>
<!-- Node2&#45;&gt;Node19 -->
<g id="edge24" class="edge">
<title>Node2&#45;&gt;Node19</title>
<path fill="none" stroke="midnightblue" d="M666.19,-138.48C702.67,-130 757.86,-116.47 805.07,-102 808.18,-101.05 811.4,-100 814.61,-98.92"/>
<polygon fill="midnightblue" stroke="midnightblue" points="815.81,-102.2 824.1,-95.6 813.51,-95.59 815.81,-102.2"/>
</g>
<!-- Node20 -->
<g id="node21" class="node">
<title>Node20</title>
<g id="a_node21"><a xlink:title=" ">
<polygon fill="white" stroke="#bfbfbf" points="900.45,-75.5 900.45,-95.5 1003.69,-95.5 1003.69,-75.5 900.45,-75.5"/>
<text text-anchor="middle" x="952.07" y="-82.5" font-family="Helvetica,sans-Serif" font-size="10.00">hxcomm/vx/target.h</text>
</a>
</g>
</g>
<!-- Node2&#45;&gt;Node20 -->
<g id="edge26" class="edge">
<title>Node2&#45;&gt;Node20</title>
<path fill="none" stroke="midnightblue" d="M686.85,-138.46C740.73,-130.11 821.44,-116.8 891.07,-102 896.82,-100.78 902.85,-99.38 908.79,-97.95"/>
<polygon fill="midnightblue" stroke="midnightblue" points="909.76,-101.31 918.62,-95.5 908.07,-94.52 909.76,-101.31"/>
</g>
<!-- Node9&#45;&gt;Node4 -->
<g id="edge14" class="edge">
<title>Node9&#45;&gt;Node4</title>
<path fill="none" stroke="midnightblue" d="M1047.21,-75.46C1007.26,-62.96 935.37,-40.45 893.91,-27.47"/>
<polygon fill="midnightblue" stroke="midnightblue" points="894.9,-24.11 884.31,-24.46 892.8,-30.79 894.9,-24.11"/>
</g>
<!-- Node10 -->
<g id="node11" class="node">
<title>Node10</title>
<g id="a_node11"><a xlink:title=" ">
<polygon fill="white" stroke="#bfbfbf" points="643.45,-6.5 643.45,-26.5 726.69,-26.5 726.69,-6.5 643.45,-6.5"/>
<text text-anchor="middle" x="685.07" y="-13.5" font-family="Helvetica,sans-Serif" font-size="10.00">hate/type_list.h</text>
</a>
</g>
</g>
<!-- Node9&#45;&gt;Node10 -->
<g id="edge11" class="edge">
<title>Node9&#45;&gt;Node10</title>
<path fill="none" stroke="midnightblue" d="M1041.53,-75.44C1032.32,-73.18 1022.35,-70.87 1013.07,-69 915.98,-49.47 801.48,-32.96 736.66,-24.21"/>
<polygon fill="midnightblue" stroke="midnightblue" points="737.07,-20.73 726.7,-22.87 736.14,-27.67 737.07,-20.73"/>
</g>
<!-- Node9&#45;&gt;Node11 -->
<g id="edge12" class="edge">
<title>Node9&#45;&gt;Node11</title>
<path fill="none" stroke="midnightblue" d="M1088.88,-75.46C1104.54,-64.42 1131.24,-45.59 1149.95,-32.4"/>
<polygon fill="midnightblue" stroke="midnightblue" points="1152,-35.23 1158.16,-26.61 1147.97,-29.51 1152,-35.23"/>
</g>
<!-- Node12 -->
<g id="node13" class="node">
<title>Node12</title>
<g id="a_node13"><a xlink:title=" ">
<polygon fill="white" stroke="#bfbfbf" points="950.62,-6.5 950.62,-26.5 995.52,-26.5 995.52,-6.5 950.62,-6.5"/>
<text text-anchor="middle" x="973.07" y="-13.5" font-family="Helvetica,sans-Serif" font-size="10.00">cstdint</text>
</a>
</g>
</g>
<!-- Node9&#45;&gt;Node12 -->
<g id="edge13" class="edge">
<title>Node9&#45;&gt;Node12</title>
<path fill="none" stroke="midnightblue" d="M1062.18,-75.46C1045.13,-64.38 1016,-45.42 995.7,-32.22"/>
<polygon fill="midnightblue" stroke="midnightblue" points="997.36,-29.13 987.07,-26.61 993.55,-34.99 997.36,-29.13"/>
</g>
<!-- Node13 -->
<g id="node14" class="node">
<title>Node13</title>
<g id="a_node14"><a xlink:title=" ">
<polygon fill="white" stroke="#bfbfbf" points="1013.95,-6.5 1013.95,-26.5 1112.19,-26.5 1112.19,-6.5 1013.95,-6.5"/>
<text text-anchor="middle" x="1063.07" y="-13.5" font-family="Helvetica,sans-Serif" font-size="10.00">cereal/macros.hpp</text>
</a>
</g>
</g>
<!-- Node9&#45;&gt;Node13 -->
<g id="edge15" class="edge">
<title>Node9&#45;&gt;Node13</title>
<path fill="none" stroke="midnightblue" d="M1074.32,-75.46C1072.41,-65.63 1069.3,-49.61 1066.84,-36.9"/>
<polygon fill="midnightblue" stroke="midnightblue" points="1070.22,-35.97 1064.88,-26.82 1063.35,-37.31 1070.22,-35.97"/>
</g>
<!-- Node14&#45;&gt;Node1 -->
<g id="edge20" class="edge">
<title>Node14&#45;&gt;Node1</title>
<path fill="none" stroke="midnightblue" d="M178.06,-75.46C153.98,-64.03 112.3,-44.22 84.46,-30.99"/>
<polygon fill="midnightblue" stroke="midnightblue" points="85.77,-27.74 75.24,-26.61 82.77,-34.06 85.77,-27.74"/>
</g>
<!-- Node14&#45;&gt;Node10 -->
<g id="edge21" class="edge">
<title>Node14&#45;&gt;Node10</title>
<path fill="none" stroke="midnightblue" d="M227.58,-75.43C236.39,-73.06 246.06,-70.7 255.07,-69 395.71,-42.45 433.09,-50.99 575.07,-33 594.12,-30.59 614.99,-27.71 633.38,-25.09"/>
<polygon fill="midnightblue" stroke="midnightblue" points="633.92,-28.55 643.32,-23.66 632.93,-21.62 633.92,-28.55"/>
</g>
<!-- Node15 -->
<g id="node16" class="node">
<title>Node15</title>
<g id="a_node16"><a xlink:title=" ">
<polygon fill="white" stroke="#bfbfbf" points="392.01,-6.5 392.01,-26.5 454.13,-26.5 454.13,-6.5 392.01,-6.5"/>
<text text-anchor="middle" x="423.07" y="-13.5" font-family="Helvetica,sans-Serif" font-size="10.00">type_traits</text>
</a>
</g>
</g>
<!-- Node14&#45;&gt;Node15 -->
<g id="edge18" class="edge">
<title>Node14&#45;&gt;Node15</title>
<path fill="none" stroke="midnightblue" d="M230.68,-75.39C280.21,-61.93 368.56,-37.81 383.07,-33 385.79,-32.1 388.59,-31.12 391.39,-30.11"/>
<polygon fill="midnightblue" stroke="midnightblue" points="392.65,-33.37 400.79,-26.59 390.2,-26.82 392.65,-33.37"/>
</g>
<!-- Node16 -->
<g id="node17" class="node">
<title>Node16</title>
<g id="a_node17"><a xlink:title=" ">
<polygon fill="white" stroke="#bfbfbf" points="472.45,-0.5 472.45,-32.5 565.69,-32.5 565.69,-0.5 472.45,-0.5"/>
<text text-anchor="start" x="480.45" y="-19.5" font-family="Helvetica,sans-Serif" font-size="10.00">fisch/vx/container</text>
<text text-anchor="middle" x="519.07" y="-7.5" font-family="Helvetica,sans-Serif" font-size="10.00">_fwd.h</text>
</a>
</g>
</g>
<!-- Node14&#45;&gt;Node16 -->
<g id="edge19" class="edge">
<title>Node14&#45;&gt;Node16</title>
<path fill="none" stroke="midnightblue" d="M228.86,-75.46C237.34,-73.19 246.52,-70.88 255.07,-69 343.66,-49.54 369.81,-53.26 462.61,-32.96"/>
<polygon fill="midnightblue" stroke="midnightblue" points="463.4,-36.37 472.41,-30.79 461.89,-29.54 463.4,-36.37"/>
</g>
<!-- Node17 -->
<g id="node18" class="node">
<title>Node17</title>
<g id="a_node18"><a xlink:title=" ">
<polygon fill="white" stroke="#bfbfbf" points="147.67,-0.5 147.67,-32.5 246.47,-32.5 246.47,-0.5 147.67,-0.5"/>
<text text-anchor="start" x="155.67" y="-19.5" font-family="Helvetica,sans-Serif" font-size="10.00">boost/utility/enable</text>
<text text-anchor="middle" x="197.07" y="-7.5" font-family="Helvetica,sans-Serif" font-size="10.00">_if.hpp</text>
</a>
</g>
</g>
<!-- Node14&#45;&gt;Node17 -->
<g id="edge22" class="edge">
<title>Node14&#45;&gt;Node17</title>
<path fill="none" stroke="midnightblue" d="M197.07,-75.46C197.07,-67.04 197.07,-54.08 197.07,-42.55"/>
<polygon fill="midnightblue" stroke="midnightblue" points="200.57,-42.53 197.07,-32.53 193.57,-42.53 200.57,-42.53"/>
</g>
<!-- Node18 -->
<g id="node19" class="node">
<title>Node18</title>
<g id="a_node19"><a xlink:title=" ">
<polygon fill="white" stroke="#bfbfbf" points="264.12,-6.5 264.12,-26.5 374.03,-26.5 374.03,-6.5 264.12,-6.5"/>
<text text-anchor="middle" x="319.07" y="-13.5" font-family="Helvetica,sans-Serif" font-size="10.00">fisch/vx/container.def</text>
</a>
</g>
</g>
<!-- Node14&#45;&gt;Node18 -->
<g id="edge23" class="edge">
<title>Node14&#45;&gt;Node18</title>
<path fill="none" stroke="midnightblue" d="M213.52,-75.46C234.08,-64.18 269.48,-44.74 293.56,-31.51"/>
<polygon fill="midnightblue" stroke="midnightblue" points="295.41,-34.49 302.49,-26.61 292.04,-28.35 295.41,-34.49"/>
</g>
</g>
</svg>
