<?xml version="1.0" encoding="UTF-8" standalone="no"?>
<!DOCTYPE svg PUBLIC "-//W3C//DTD SVG 1.1//EN"
 "http://www.w3.org/Graphics/SVG/1.1/DTD/svg11.dtd">
<!-- Generated by graphviz version 2.43.0 (0)
 -->
<!-- Title: /jenkins/jenlib_workspaces_f9/bld_nightly&#45;haldls.YmxkX25pZ2h0bHktaGFsZGxzIzcxMQ.x/haldls/include/haldls/vx/v1/cadc.h Pages: 1 -->
<!--zoomable 329 -->
<svg id="main" version="1.1" xmlns="http://www.w3.org/2000/svg" xmlns:xlink="http://www.w3.org/1999/xlink" xml:space="preserve" onload="init(evt)">
<style type="text/css"><![CDATA[
.edge:hover path { stroke: red; }
.edge:hover polygon { stroke: red; fill: red; }
]]></style>
<script type="text/javascript"><![CDATA[
var edges = document.getElementsByTagName('g');
if (edges && edges.length) {
  for (var i=0;i<edges.length;i++) {
    if (edges[i].id.substr(0,4)=='edge') {
      edges[i].setAttribute('class','edge');
    }
  }
}
]]></script>
        <defs>
                <circle id="rim" cx="0" cy="0" r="7"/>
                <circle id="rim2" cx="0" cy="0" r="3.5"/>
                <g id="zoomPlus">
                        <use xlink:href="#rim" fill="#404040">
                                <set attributeName="fill" to="#808080" begin="zoomplus.mouseover" end="zoomplus.mouseout"/>
                        </use>
                        <path d="M-4,0h8M0,-4v8" fill="none" stroke="white" stroke-width="1.5" pointer-events="none"/>
                </g>
                <g id="zoomMin">
                        <use xlink:href="#rim" fill="#404040">
                                <set attributeName="fill" to="#808080" begin="zoomminus.mouseover" end="zoomminus.mouseout"/>
                        </use>
                        <path d="M-4,0h8" fill="none" stroke="white" stroke-width="1.5" pointer-events="none"/>
                </g>
                <g id="dirArrow">
                        <path fill="none" stroke="white" stroke-width="1.5" d="M0,-3.0v7 M-2.5,-0.5L0,-3.0L2.5,-0.5"/>
                </g>
               <g id="resetDef">
                       <use xlink:href="#rim2" fill="#404040">
                               <set attributeName="fill" to="#808080" begin="reset.mouseover" end="reset.mouseout"/>
                       </use>
               </g>
        </defs>

<script type="text/javascript">
var viewWidth = 1244;
var viewHeight = 329;
var sectionId = 'dynsection-0';
</script>
<script xlink:href="svgpan.js"/>
<svg id="graph" class="graph">
<g id="viewport">
<title>/jenkins/jenlib_workspaces_f9/bld_nightly&#45;haldls.YmxkX25pZ2h0bHktaGFsZGxzIzcxMQ.x/haldls/include/haldls/vx/v1/cadc.h</title>
<polygon fill="white" stroke="transparent" points="-4,4 -4,-325 1240.19,-325 1240.19,4 -4,4"/>
<!-- Node0 -->
<g id="node1" class="node">
<title>Node0</title>
<g id="a_node1"><a xlink:title=" ">
<polygon fill="#bfbfbf" stroke="black" points="246,-264.5 246,-320.5 424.24,-320.5 424.24,-264.5 246,-264.5"/>
<text text-anchor="start" x="254" y="-307.5" font-family="Helvetica,sans-Serif" font-size="10.00">/jenkins/jenlib_workspaces</text>
<text text-anchor="start" x="254" y="-295.5" font-family="Helvetica,sans-Serif" font-size="10.00">_f9/bld_nightly&#45;haldls.YmxkX25p</text>
<text text-anchor="start" x="254" y="-283.5" font-family="Helvetica,sans-Serif" font-size="10.00">Z2h0bHktaGFsZGxzIzcxMQ.x/haldls</text>
<text text-anchor="middle" x="335.12" y="-271.5" font-family="Helvetica,sans-Serif" font-size="10.00">/include/haldls/vx/v1/cadc.h</text>
</a>
</g>
</g>
<!-- Node1 -->
<g id="node2" class="node">
<title>Node1</title>
<g id="a_node2"><a xlink:title=" ">
<polygon fill="white" stroke="#bfbfbf" points="0,-195.5 0,-227.5 108.24,-227.5 108.24,-195.5 0,-195.5"/>
<text text-anchor="start" x="8" y="-214.5" font-family="Helvetica,sans-Serif" font-size="10.00">halco/common/typed</text>
<text text-anchor="middle" x="54.12" y="-202.5" font-family="Helvetica,sans-Serif" font-size="10.00">_array.h</text>
</a>
</g>
</g>
<!-- Node0&#45;&gt;Node1 -->
<g id="edge1" class="edge">
<title>Node0&#45;&gt;Node1</title>
<path fill="none" stroke="midnightblue" d="M245.83,-266.4C204.08,-254.66 155.34,-240.96 117.46,-230.31"/>
<polygon fill="midnightblue" stroke="midnightblue" points="118.15,-226.86 107.57,-227.53 116.25,-233.6 118.15,-226.86"/>
</g>
<!-- Node2 -->
<g id="node3" class="node">
<title>Node2</title>
<g id="a_node3"><a xlink:title=" ">
<polygon fill="white" stroke="#bfbfbf" points="126.61,-195.5 126.61,-227.5 227.63,-227.5 227.63,-195.5 126.61,-195.5"/>
<text text-anchor="start" x="134.61" y="-214.5" font-family="Helvetica,sans-Serif" font-size="10.00">halco/hicann&#45;dls/vx</text>
<text text-anchor="middle" x="177.12" y="-202.5" font-family="Helvetica,sans-Serif" font-size="10.00">/v1/cadc.h</text>
</a>
</g>
</g>
<!-- Node0&#45;&gt;Node2 -->
<g id="edge2" class="edge">
<title>Node0&#45;&gt;Node2</title>
<path fill="none" stroke="midnightblue" d="M280.75,-264.31C259.58,-253.73 235.78,-241.83 216.34,-232.11"/>
<polygon fill="midnightblue" stroke="midnightblue" points="217.68,-228.87 207.17,-227.52 214.55,-235.13 217.68,-228.87"/>
</g>
<!-- Node3 -->
<g id="node4" class="node">
<title>Node3</title>
<g id="a_node4"><a xlink:title=" ">
<polygon fill="white" stroke="#bfbfbf" points="245.61,-195.5 245.61,-227.5 346.63,-227.5 346.63,-195.5 245.61,-195.5"/>
<text text-anchor="start" x="253.61" y="-214.5" font-family="Helvetica,sans-Serif" font-size="10.00">halco/hicann&#45;dls/vx</text>
<text text-anchor="middle" x="296.12" y="-202.5" font-family="Helvetica,sans-Serif" font-size="10.00">/v1/coordinates.h</text>
</a>
</g>
</g>
<!-- Node0&#45;&gt;Node3 -->
<g id="edge3" class="edge">
<title>Node0&#45;&gt;Node3</title>
<path fill="none" stroke="midnightblue" d="M321.7,-264.31C317.28,-255.36 312.4,-245.48 308.1,-236.76"/>
<polygon fill="midnightblue" stroke="midnightblue" points="311.1,-234.94 303.54,-227.52 304.83,-238.04 311.1,-234.94"/>
</g>
<!-- Node4 -->
<g id="node5" class="node">
<title>Node4</title>
<g id="a_node5"><a xlink:href="cerealization_8h.html" target="_top" xlink:title=" ">
<polygon fill="white" stroke="black" points="320.45,-69.5 320.45,-89.5 429.8,-89.5 429.8,-69.5 320.45,-69.5"/>
<text text-anchor="middle" x="375.12" y="-76.5" font-family="Helvetica,sans-Serif" font-size="10.00">haldls/cerealization.h</text>
</a>
</g>
</g>
<!-- Node0&#45;&gt;Node4 -->
<g id="edge4" class="edge">
<title>Node0&#45;&gt;Node4</title>
<path fill="none" stroke="midnightblue" d="M345.38,-264.32C349.24,-253.2 353.37,-240.11 356.12,-228 366.44,-182.64 371.65,-128.07 373.83,-99.72"/>
<polygon fill="midnightblue" stroke="midnightblue" points="377.33,-99.81 374.56,-89.58 370.35,-99.31 377.33,-99.81"/>
</g>
<!-- Node10 -->
<g id="node11" class="node">
<title>Node10</title>
<g id="a_node11"><a xlink:href="cadc_8h.html" target="_top" xlink:title=" ">
<polygon fill="white" stroke="black" points="681.56,-201.5 681.56,-221.5 768.69,-221.5 768.69,-201.5 681.56,-201.5"/>
<text text-anchor="middle" x="725.12" y="-208.5" font-family="Helvetica,sans-Serif" font-size="10.00">haldls/vx/cadc.h</text>
</a>
</g>
</g>
<!-- Node0&#45;&gt;Node10 -->
<g id="edge10" class="edge">
<title>Node0&#45;&gt;Node10</title>
<path fill="none" stroke="midnightblue" d="M424.6,-273.38C500.91,-257.92 608.08,-236.21 671.68,-223.33"/>
<polygon fill="midnightblue" stroke="midnightblue" points="672.4,-226.75 681.5,-221.34 671.01,-219.89 672.4,-226.75"/>
</g>
<!-- Node13 -->
<g id="node14" class="node">
<title>Node13</title>
<g id="a_node14"><a xlink:href="genpybind_8h.html" target="_top" xlink:title=" ">
<polygon fill="white" stroke="black" points="1106.05,-6.5 1106.05,-26.5 1218.19,-26.5 1218.19,-6.5 1106.05,-6.5"/>
<text text-anchor="middle" x="1162.12" y="-13.5" font-family="Helvetica,sans-Serif" font-size="10.00">haldls/vx/genpybind.h</text>
</a>
</g>
</g>
<!-- Node0&#45;&gt;Node13 -->
<g id="edge35" class="edge">
<title>Node0&#45;&gt;Node13</title>
<path fill="none" stroke="midnightblue" d="M424.57,-284.35C598.62,-269.04 975.26,-228.7 1083.12,-159 1127.3,-130.45 1149.09,-68.13 1157.62,-36.6"/>
<polygon fill="midnightblue" stroke="midnightblue" points="1161.03,-37.38 1160.11,-26.83 1154.25,-35.66 1161.03,-37.38"/>
</g>
<!-- Node5 -->
<g id="node6" class="node">
<title>Node5</title>
<g id="a_node6"><a xlink:title=" ">
<polygon fill="white" stroke="#bfbfbf" points="568.5,-6.5 568.5,-26.5 651.75,-26.5 651.75,-6.5 568.5,-6.5"/>
<text text-anchor="middle" x="610.12" y="-13.5" font-family="Helvetica,sans-Serif" font-size="10.00">hate/type_list.h</text>
</a>
</g>
</g>
<!-- Node4&#45;&gt;Node5 -->
<g id="edge5" class="edge">
<title>Node4&#45;&gt;Node5</title>
<path fill="none" stroke="midnightblue" d="M414.64,-69.5C452.21,-60.77 510.25,-46.85 560.12,-33 564,-31.92 568.04,-30.75 572.05,-29.56"/>
<polygon fill="midnightblue" stroke="midnightblue" points="573.36,-32.82 581.92,-26.57 571.33,-26.12 573.36,-32.82"/>
</g>
<!-- Node6 -->
<g id="node7" class="node">
<title>Node6</title>
<g id="a_node7"><a xlink:title=" ">
<polygon fill="white" stroke="#bfbfbf" points="469.62,-6.5 469.62,-26.5 550.63,-26.5 550.63,-6.5 469.62,-6.5"/>
<text text-anchor="middle" x="510.12" y="-13.5" font-family="Helvetica,sans-Serif" font-size="10.00">hate/visibility.h</text>
</a>
</g>
</g>
<!-- Node4&#45;&gt;Node6 -->
<g id="edge6" class="edge">
<title>Node4&#45;&gt;Node6</title>
<path fill="none" stroke="midnightblue" d="M395.04,-69.5C417.67,-59.27 454.83,-42.48 480.78,-30.76"/>
<polygon fill="midnightblue" stroke="midnightblue" points="482.45,-33.84 490.12,-26.54 479.57,-27.47 482.45,-33.84"/>
</g>
<!-- Node7 -->
<g id="node8" class="node">
<title>Node7</title>
<g id="a_node8"><a xlink:title=" ">
<polygon fill="white" stroke="#bfbfbf" points="145.68,-6.5 145.68,-26.5 190.57,-26.5 190.57,-6.5 145.68,-6.5"/>
<text text-anchor="middle" x="168.12" y="-13.5" font-family="Helvetica,sans-Serif" font-size="10.00">cstdint</text>
</a>
</g>
</g>
<!-- Node4&#45;&gt;Node7 -->
<g id="edge7" class="edge">
<title>Node4&#45;&gt;Node7</title>
<path fill="none" stroke="midnightblue" d="M330.51,-69.45C294.7,-61.58 243.43,-48.94 200.12,-33 198.25,-32.31 196.35,-31.55 194.45,-30.75"/>
<polygon fill="midnightblue" stroke="midnightblue" points="195.68,-27.46 185.12,-26.5 192.77,-33.83 195.68,-27.46"/>
</g>
<!-- Node8 -->
<g id="node9" class="node">
<title>Node8</title>
<g id="a_node9"><a xlink:title=" ">
<polygon fill="white" stroke="#bfbfbf" points="208.96,-6.5 208.96,-26.5 253.29,-26.5 253.29,-6.5 208.96,-6.5"/>
<text text-anchor="middle" x="231.12" y="-13.5" font-family="Helvetica,sans-Serif" font-size="10.00">iosfwd</text>
</a>
</g>
</g>
<!-- Node4&#45;&gt;Node8 -->
<g id="edge8" class="edge">
<title>Node4&#45;&gt;Node8</title>
<path fill="none" stroke="midnightblue" d="M351.34,-69.36C328.53,-60.47 293.23,-46.39 263.12,-33 261.57,-32.31 259.98,-31.59 258.39,-30.85"/>
<polygon fill="midnightblue" stroke="midnightblue" points="259.84,-27.67 249.3,-26.56 256.85,-34 259.84,-27.67"/>
</g>
<!-- Node9 -->
<g id="node10" class="node">
<title>Node9</title>
<g id="a_node10"><a xlink:title=" ">
<polygon fill="white" stroke="#bfbfbf" points="29,-6.5 29,-26.5 127.24,-26.5 127.24,-6.5 29,-6.5"/>
<text text-anchor="middle" x="78.12" y="-13.5" font-family="Helvetica,sans-Serif" font-size="10.00">cereal/macros.hpp</text>
</a>
</g>
</g>
<!-- Node4&#45;&gt;Node9 -->
<g id="edge9" class="edge">
<title>Node4&#45;&gt;Node9</title>
<path fill="none" stroke="midnightblue" d="M322.44,-69.49C274.07,-60.97 200.51,-47.37 137.12,-33 131.76,-31.79 126.16,-30.43 120.62,-29.03"/>
<polygon fill="midnightblue" stroke="midnightblue" points="121.35,-25.61 110.79,-26.51 119.61,-32.39 121.35,-25.61"/>
</g>
<!-- Node10&#45;&gt;Node4 -->
<g id="edge13" class="edge">
<title>Node10&#45;&gt;Node4</title>
<path fill="none" stroke="midnightblue" d="M681.38,-206.84C610.17,-200.23 473.02,-184.55 432.12,-159 408.98,-144.54 392.3,-116.95 383.17,-98.63"/>
<polygon fill="midnightblue" stroke="midnightblue" points="386.32,-97.1 378.89,-89.55 379.99,-100.09 386.32,-97.1"/>
</g>
<!-- Node10&#45;&gt;Node6 -->
<g id="edge33" class="edge">
<title>Node10&#45;&gt;Node6</title>
<path fill="none" stroke="midnightblue" d="M725.54,-201.25C726.12,-175.96 724.05,-105.12 685.12,-69 642.43,-29.38 614.89,-49.78 559.12,-33 555.54,-31.92 551.81,-30.78 548.08,-29.62"/>
<polygon fill="midnightblue" stroke="midnightblue" points="548.91,-26.22 538.32,-26.57 546.82,-32.9 548.91,-26.22"/>
</g>
<!-- Node11 -->
<g id="node12" class="node">
<title>Node11</title>
<g id="a_node12"><a xlink:title=" ">
<polygon fill="white" stroke="#bfbfbf" points="791.22,-132.5 791.22,-152.5 925.02,-152.5 925.02,-132.5 791.22,-132.5"/>
<text text-anchor="middle" x="858.12" y="-139.5" font-family="Helvetica,sans-Serif" font-size="10.00">halco/common/geometry.h</text>
</a>
</g>
</g>
<!-- Node10&#45;&gt;Node11 -->
<g id="edge11" class="edge">
<title>Node10&#45;&gt;Node11</title>
<path fill="none" stroke="midnightblue" d="M743.06,-201.46C765.67,-190.08 804.74,-170.39 831,-157.16"/>
<polygon fill="midnightblue" stroke="midnightblue" points="832.69,-160.23 840.04,-152.61 829.54,-153.98 832.69,-160.23"/>
</g>
<!-- Node12 -->
<g id="node13" class="node">
<title>Node12</title>
<g id="a_node13"><a xlink:title=" ">
<polygon fill="white" stroke="#bfbfbf" points="942.61,-126.5 942.61,-158.5 1043.63,-158.5 1043.63,-126.5 942.61,-126.5"/>
<text text-anchor="start" x="950.61" y="-145.5" font-family="Helvetica,sans-Serif" font-size="10.00">halco/hicann&#45;dls/vx</text>
<text text-anchor="middle" x="993.12" y="-133.5" font-family="Helvetica,sans-Serif" font-size="10.00">/cadc.h</text>
</a>
</g>
</g>
<!-- Node10&#45;&gt;Node12 -->
<g id="edge12" class="edge">
<title>Node10&#45;&gt;Node12</title>
<path fill="none" stroke="midnightblue" d="M762.54,-201.46C802.35,-191.81 867.44,-175.91 932.58,-159.38"/>
<polygon fill="midnightblue" stroke="midnightblue" points="933.78,-162.68 942.61,-156.83 932.05,-155.9 933.78,-162.68"/>
</g>
<!-- Node10&#45;&gt;Node13 -->
<g id="edge14" class="edge">
<title>Node10&#45;&gt;Node13</title>
<path fill="none" stroke="midnightblue" d="M768.97,-207.63C846.91,-201.88 1005.83,-187.03 1053.12,-159 1079.09,-143.61 1128.61,-69.78 1150.83,-35.31"/>
<polygon fill="midnightblue" stroke="midnightblue" points="1153.89,-37.02 1156.33,-26.71 1148,-33.25 1153.89,-37.02"/>
</g>
<!-- Node14 -->
<g id="node15" class="node">
<title>Node14</title>
<g id="a_node15"><a xlink:href="sram__controller_8h.html" target="_top" xlink:title=" ">
<polygon fill="white" stroke="black" points="562.67,-132.5 562.67,-152.5 697.57,-152.5 697.57,-132.5 562.67,-132.5"/>
<text text-anchor="middle" x="630.12" y="-139.5" font-family="Helvetica,sans-Serif" font-size="10.00">haldls/vx/sram_controller.h</text>
</a>
</g>
</g>
<!-- Node10&#45;&gt;Node14 -->
<g id="edge16" class="edge">
<title>Node10&#45;&gt;Node14</title>
<path fill="none" stroke="midnightblue" d="M712.31,-201.46C696.66,-190.42 669.96,-171.59 651.25,-158.4"/>
<polygon fill="midnightblue" stroke="midnightblue" points="653.22,-155.51 643.04,-152.61 649.19,-161.23 653.22,-155.51"/>
</g>
<!-- Node19 -->
<g id="node20" class="node">
<title>Node19</title>
<g id="a_node20"><a xlink:href="traits_8h.html" target="_top" xlink:title=" ">
<polygon fill="white" stroke="black" points="753.28,-69.5 753.28,-89.5 840.96,-89.5 840.96,-69.5 753.28,-69.5"/>
<text text-anchor="middle" x="797.12" y="-76.5" font-family="Helvetica,sans-Serif" font-size="10.00">haldls/vx/traits.h</text>
</a>
</g>
</g>
<!-- Node10&#45;&gt;Node19 -->
<g id="edge32" class="edge">
<title>Node10&#45;&gt;Node19</title>
<path fill="none" stroke="midnightblue" d="M730.3,-201.15C742.18,-179.69 771.58,-126.61 787.12,-98.55"/>
<polygon fill="midnightblue" stroke="midnightblue" points="790.21,-100.21 791.99,-89.76 784.08,-96.82 790.21,-100.21"/>
</g>
<!-- Node24 -->
<g id="node25" class="node">
<title>Node24</title>
<g id="a_node25"><a xlink:title=" ">
<polygon fill="white" stroke="#bfbfbf" points="441.5,-132.5 441.5,-152.5 544.74,-152.5 544.74,-132.5 441.5,-132.5"/>
<text text-anchor="middle" x="493.12" y="-139.5" font-family="Helvetica,sans-Serif" font-size="10.00">hxcomm/vx/target.h</text>
</a>
</g>
</g>
<!-- Node10&#45;&gt;Node24 -->
<g id="edge34" class="edge">
<title>Node10&#45;&gt;Node24</title>
<path fill="none" stroke="midnightblue" d="M693.83,-201.46C652.67,-189.58 580.21,-168.65 534.53,-155.46"/>
<polygon fill="midnightblue" stroke="midnightblue" points="535.23,-152.02 524.66,-152.61 533.29,-158.74 535.23,-152.02"/>
</g>
<!-- Node13&#45;&gt;Node13 -->
<g id="edge15" class="edge">
<title>Node13&#45;&gt;Node13</title>
<path fill="none" stroke="midnightblue" d="M1190.63,-26.56C1213.12,-30.45 1236.19,-27.1 1236.19,-16.5 1236.19,-7.48 1219.46,-3.71 1200.6,-5.19"/>
<polygon fill="midnightblue" stroke="midnightblue" points="1200.11,-1.72 1190.63,-6.44 1200.99,-8.67 1200.11,-1.72"/>
</g>
<!-- Node14&#45;&gt;Node4 -->
<g id="edge17" class="edge">
<title>Node14&#45;&gt;Node4</title>
<path fill="none" stroke="midnightblue" d="M592.5,-132.5C547.39,-121.71 471.76,-103.62 422.65,-91.87"/>
<polygon fill="midnightblue" stroke="midnightblue" points="423.44,-88.46 412.9,-89.54 421.81,-95.27 423.44,-88.46"/>
</g>
<!-- Node14&#45;&gt;Node6 -->
<g id="edge31" class="edge">
<title>Node14&#45;&gt;Node6</title>
<path fill="none" stroke="midnightblue" d="M621.25,-132.06C608.17,-118.17 582.91,-91.44 561.12,-69 549.64,-57.17 536.56,-43.97 526.52,-33.89"/>
<polygon fill="midnightblue" stroke="midnightblue" points="528.75,-31.17 519.21,-26.56 523.79,-36.11 528.75,-31.17"/>
</g>
<!-- Node14&#45;&gt;Node13 -->
<g id="edge22" class="edge">
<title>Node14&#45;&gt;Node13</title>
<path fill="none" stroke="midnightblue" d="M669.5,-132.43C749.9,-113.9 938.73,-70.29 1097.12,-33 1102.77,-31.67 1108.68,-30.27 1114.55,-28.88"/>
<polygon fill="midnightblue" stroke="midnightblue" points="1115.4,-32.27 1124.32,-26.55 1113.78,-25.46 1115.4,-32.27"/>
</g>
<!-- Node15 -->
<g id="node16" class="node">
<title>Node15</title>
<g id="a_node16"><a xlink:href="common_8h.html" target="_top" xlink:title=" ">
<polygon fill="white" stroke="black" points="447.95,-69.5 447.95,-89.5 552.3,-89.5 552.3,-69.5 447.95,-69.5"/>
<text text-anchor="middle" x="500.12" y="-76.5" font-family="Helvetica,sans-Serif" font-size="10.00">haldls/vx/common.h</text>
</a>
</g>
</g>
<!-- Node14&#45;&gt;Node15 -->
<g id="edge18" class="edge">
<title>Node14&#45;&gt;Node15</title>
<path fill="none" stroke="midnightblue" d="M610.94,-132.5C589.24,-122.32 553.68,-105.63 528.71,-93.91"/>
<polygon fill="midnightblue" stroke="midnightblue" points="529.92,-90.62 519.38,-89.54 526.95,-96.95 529.92,-90.62"/>
</g>
<!-- Node14&#45;&gt;Node19 -->
<g id="edge23" class="edge">
<title>Node14&#45;&gt;Node19</title>
<path fill="none" stroke="midnightblue" d="M654.76,-132.5C683.38,-122.05 730.75,-104.74 762.92,-92.99"/>
<polygon fill="midnightblue" stroke="midnightblue" points="764.19,-96.26 772.38,-89.54 761.79,-89.68 764.19,-96.26"/>
</g>
<!-- Node23 -->
<g id="node24" class="node">
<title>Node23</title>
<g id="a_node24"><a xlink:title=" ">
<polygon fill="white" stroke="#bfbfbf" points="607.72,-69.5 607.72,-89.5 676.52,-89.5 676.52,-69.5 607.72,-69.5"/>
<text text-anchor="middle" x="642.12" y="-76.5" font-family="Helvetica,sans-Serif" font-size="10.00">hate/math.h</text>
</a>
</g>
</g>
<!-- Node14&#45;&gt;Node23 -->
<g id="edge30" class="edge">
<title>Node14&#45;&gt;Node23</title>
<path fill="none" stroke="midnightblue" d="M631.89,-132.5C633.59,-123.85 636.22,-110.51 638.38,-99.5"/>
<polygon fill="midnightblue" stroke="midnightblue" points="641.85,-100.03 640.34,-89.54 634.98,-98.67 641.85,-100.03"/>
</g>
<!-- Node16 -->
<g id="node17" class="node">
<title>Node16</title>
<g id="a_node17"><a xlink:title=" ">
<polygon fill="white" stroke="#bfbfbf" points="670.06,-6.5 670.06,-26.5 732.18,-26.5 732.18,-6.5 670.06,-6.5"/>
<text text-anchor="middle" x="701.12" y="-13.5" font-family="Helvetica,sans-Serif" font-size="10.00">type_traits</text>
</a>
</g>
</g>
<!-- Node15&#45;&gt;Node16 -->
<g id="edge19" class="edge">
<title>Node15&#45;&gt;Node16</title>
<path fill="none" stroke="midnightblue" d="M535.91,-69.42C568.73,-60.85 618.56,-47.23 661.12,-33 663.84,-32.09 666.64,-31.11 669.44,-30.09"/>
<polygon fill="midnightblue" stroke="midnightblue" points="670.7,-33.36 678.83,-26.56 668.24,-26.8 670.7,-33.36"/>
</g>
<!-- Node17 -->
<g id="node18" class="node">
<title>Node17</title>
<g id="a_node18"><a xlink:title=" ">
<polygon fill="white" stroke="#bfbfbf" points="271.74,-6.5 271.74,-26.5 310.51,-26.5 310.51,-6.5 271.74,-6.5"/>
<text text-anchor="middle" x="291.12" y="-13.5" font-family="Helvetica,sans-Serif" font-size="10.00">utility</text>
</a>
</g>
</g>
<!-- Node15&#45;&gt;Node17 -->
<g id="edge20" class="edge">
<title>Node15&#45;&gt;Node17</title>
<path fill="none" stroke="midnightblue" d="M449.48,-69.44C412.57,-61.96 361.77,-49.83 319.12,-33 317.73,-32.45 316.33,-31.85 314.92,-31.21"/>
<polygon fill="midnightblue" stroke="midnightblue" points="316.39,-28.02 305.89,-26.61 313.21,-34.26 316.39,-28.02"/>
</g>
<!-- Node18 -->
<g id="node19" class="node">
<title>Node18</title>
<g id="a_node19"><a xlink:title=" ">
<polygon fill="white" stroke="#bfbfbf" points="328.5,-6.5 328.5,-26.5 451.75,-26.5 451.75,-6.5 328.5,-6.5"/>
<text text-anchor="middle" x="390.12" y="-13.5" font-family="Helvetica,sans-Serif" font-size="10.00">fisch/vx/omnibus_data.h</text>
</a>
</g>
</g>
<!-- Node15&#45;&gt;Node18 -->
<g id="edge21" class="edge">
<title>Node15&#45;&gt;Node18</title>
<path fill="none" stroke="midnightblue" d="M483.89,-69.5C465.86,-59.5 436.51,-43.22 415.44,-31.54"/>
<polygon fill="midnightblue" stroke="midnightblue" points="416.86,-28.33 406.42,-26.54 413.47,-34.45 416.86,-28.33"/>
</g>
<!-- Node19&#45;&gt;Node5 -->
<g id="edge27" class="edge">
<title>Node19&#45;&gt;Node5</title>
<path fill="none" stroke="midnightblue" d="M769.53,-69.5C737.21,-58.96 683.52,-41.44 647.49,-29.69"/>
<polygon fill="midnightblue" stroke="midnightblue" points="648.42,-26.31 637.83,-26.54 646.25,-32.97 648.42,-26.31"/>
</g>
<!-- Node19&#45;&gt;Node13 -->
<g id="edge26" class="edge">
<title>Node19&#45;&gt;Node13</title>
<path fill="none" stroke="midnightblue" d="M841.04,-73.01C899.67,-65.41 1006.63,-50.62 1097.12,-33 1103.4,-31.78 1109.99,-30.36 1116.46,-28.9"/>
<polygon fill="midnightblue" stroke="midnightblue" points="1117.53,-32.24 1126.48,-26.57 1115.95,-25.42 1117.53,-32.24"/>
</g>
<!-- Node19&#45;&gt;Node16 -->
<g id="edge24" class="edge">
<title>Node19&#45;&gt;Node16</title>
<path fill="none" stroke="midnightblue" d="M782.96,-69.5C767.43,-59.63 742.29,-43.66 723.97,-32.02"/>
<polygon fill="midnightblue" stroke="midnightblue" points="725.66,-28.95 715.35,-26.54 721.91,-34.85 725.66,-28.95"/>
</g>
<!-- Node20 -->
<g id="node21" class="node">
<title>Node20</title>
<g id="a_node21"><a xlink:title=" ">
<polygon fill="white" stroke="#bfbfbf" points="750.5,-0.5 750.5,-32.5 843.74,-32.5 843.74,-0.5 750.5,-0.5"/>
<text text-anchor="start" x="758.5" y="-19.5" font-family="Helvetica,sans-Serif" font-size="10.00">fisch/vx/container</text>
<text text-anchor="middle" x="797.12" y="-7.5" font-family="Helvetica,sans-Serif" font-size="10.00">_fwd.h</text>
</a>
</g>
</g>
<!-- Node19&#45;&gt;Node20 -->
<g id="edge25" class="edge">
<title>Node19&#45;&gt;Node20</title>
<path fill="none" stroke="midnightblue" d="M797.12,-69.5C797.12,-62.47 797.12,-52.34 797.12,-42.88"/>
<polygon fill="midnightblue" stroke="midnightblue" points="800.62,-42.69 797.12,-32.69 793.62,-42.69 800.62,-42.69"/>
</g>
<!-- Node21 -->
<g id="node22" class="node">
<title>Node21</title>
<g id="a_node22"><a xlink:title=" ">
<polygon fill="white" stroke="#bfbfbf" points="861.72,-0.5 861.72,-32.5 960.52,-32.5 960.52,-0.5 861.72,-0.5"/>
<text text-anchor="start" x="869.72" y="-19.5" font-family="Helvetica,sans-Serif" font-size="10.00">boost/utility/enable</text>
<text text-anchor="middle" x="911.12" y="-7.5" font-family="Helvetica,sans-Serif" font-size="10.00">_if.hpp</text>
</a>
</g>
</g>
<!-- Node19&#45;&gt;Node21 -->
<g id="edge28" class="edge">
<title>Node19&#45;&gt;Node21</title>
<path fill="none" stroke="midnightblue" d="M813.94,-69.5C829.63,-61.11 853.57,-48.3 873.76,-37.49"/>
<polygon fill="midnightblue" stroke="midnightblue" points="875.57,-40.5 882.73,-32.69 872.26,-34.32 875.57,-40.5"/>
</g>
<!-- Node22 -->
<g id="node23" class="node">
<title>Node22</title>
<g id="a_node23"><a xlink:title=" ">
<polygon fill="white" stroke="#bfbfbf" points="978.17,-6.5 978.17,-26.5 1088.08,-26.5 1088.08,-6.5 978.17,-6.5"/>
<text text-anchor="middle" x="1033.12" y="-13.5" font-family="Helvetica,sans-Serif" font-size="10.00">fisch/vx/container.def</text>
</a>
</g>
</g>
<!-- Node19&#45;&gt;Node22 -->
<g id="edge29" class="edge">
<title>Node19&#45;&gt;Node22</title>
<path fill="none" stroke="midnightblue" d="M831.95,-69.5C873.43,-58.78 942.81,-40.84 988.28,-29.09"/>
<polygon fill="midnightblue" stroke="midnightblue" points="989.35,-32.43 998.16,-26.54 987.6,-25.65 989.35,-32.43"/>
</g>
</g>
</svg>
        <g id="navigator" transform="translate(0 0)" fill="#404254">
                <rect fill="#f2f5e9" fill-opacity="0.5" stroke="#606060" stroke-width=".5" x="0" y="0" width="60" height="60"/>
                <use id="zoomplus" xlink:href="#zoomPlus" x="17" y="9" onmousedown="handleZoom(evt,'in')"/>
                <use id="zoomminus" xlink:href="#zoomMin" x="42" y="9" onmousedown="handleZoom(evt,'out')"/>
                <use id="reset" xlink:href="#resetDef" x="30" y="36" onmousedown="handleReset()"/>
                <g id="arrowUp" xlink:href="#dirArrow" transform="translate(30 24)" onmousedown="handlePan(0,-1)">
                  <use xlink:href="#rim" fill="#404040">
                        <set attributeName="fill" to="#808080" begin="arrowUp.mouseover" end="arrowUp.mouseout"/>
                  </use>
                  <path fill="none" stroke="white" stroke-width="1.5" d="M0,-3.0v7 M-2.5,-0.5L0,-3.0L2.5,-0.5"/>
                </g>
                <g id="arrowRight" xlink:href="#dirArrow" transform="rotate(90) translate(36 -43)" onmousedown="handlePan(1,0)">
                  <use xlink:href="#rim" fill="#404040">
                        <set attributeName="fill" to="#808080" begin="arrowRight.mouseover" end="arrowRight.mouseout"/>
                  </use>
                  <path fill="none" stroke="white" stroke-width="1.5" d="M0,-3.0v7 M-2.5,-0.5L0,-3.0L2.5,-0.5"/>
                </g>
                <g id="arrowDown" xlink:href="#dirArrow" transform="rotate(180) translate(-30 -48)" onmousedown="handlePan(0,1)">
                  <use xlink:href="#rim" fill="#404040">
                        <set attributeName="fill" to="#808080" begin="arrowDown.mouseover" end="arrowDown.mouseout"/>
                  </use>
                  <path fill="none" stroke="white" stroke-width="1.5" d="M0,-3.0v7 M-2.5,-0.5L0,-3.0L2.5,-0.5"/>
                </g>
                <g id="arrowLeft" xlink:href="#dirArrow" transform="rotate(270) translate(-36 17)" onmousedown="handlePan(-1,0)">
                  <use xlink:href="#rim" fill="#404040">
                        <set attributeName="fill" to="#808080" begin="arrowLeft.mouseover" end="arrowLeft.mouseout"/>
                  </use>
                  <path fill="none" stroke="white" stroke-width="1.5" d="M0,-3.0v7 M-2.5,-0.5L0,-3.0L2.5,-0.5"/>
                </g>
        </g>
        <svg viewBox="0 0 15 15" width="100%" height="30px" preserveAspectRatio="xMaxYMin meet">
         <g id="arrow_out" transform="scale(0.3 0.3)">
          <a xlink:href="v1_2cadc_8h__incl_org.svg" target="_base">
           <rect id="button" ry="5" rx="5" y="6" x="6" height="38" width="38"
                fill="#f2f5e9" fill-opacity="0.5" stroke="#606060" stroke-width="1.0"/>
           <path id="arrow"
             d="M 11.500037,31.436501 C 11.940474,20.09759 22.043105,11.32322 32.158766,21.979434 L 37.068811,17.246167 C 37.068811,17.246167 37.088388,32 37.088388,32 L 22.160133,31.978069 C 22.160133,31.978069 26.997745,27.140456 26.997745,27.140456 C 18.528582,18.264221 13.291696,25.230495 11.500037,31.436501 z"
             style="fill:#404040;"/>
          </a>
         </g>
        </svg>
</svg>
