<?xml version="1.0" encoding="UTF-8" standalone="no"?>
<!DOCTYPE svg PUBLIC "-//W3C//DTD SVG 1.1//EN"
 "http://www.w3.org/Graphics/SVG/1.1/DTD/svg11.dtd">
<!-- Generated by graphviz version 2.43.0 (0)
 -->
<!-- Title: /jenkins/jenlib_workspaces_f9/bld_nightly&#45;haldls.YmxkX25pZ2h0bHktaGFsZGxzIzcxMQ.x/haldls/include/haldls/vx/v1/event.h Pages: 1 -->
<svg width="1532pt" height="398pt"
 viewBox="0.00 0.00 1531.50 398.00" xmlns="http://www.w3.org/2000/svg" xmlns:xlink="http://www.w3.org/1999/xlink">
<g id="graph0" class="graph" transform="scale(1 1) rotate(0) translate(4 394)">
<title>/jenkins/jenlib_workspaces_f9/bld_nightly&#45;haldls.YmxkX25pZ2h0bHktaGFsZGxzIzcxMQ.x/haldls/include/haldls/vx/v1/event.h</title>
<polygon fill="white" stroke="transparent" points="-4,4 -4,-394 1527.5,-394 1527.5,4 -4,4"/>
<!-- Node0 -->
<g id="node1" class="node">
<title>Node0</title>
<g id="a_node1"><a xlink:title=" ">
<polygon fill="#bfbfbf" stroke="black" points="971.38,-333.5 971.38,-389.5 1149.62,-389.5 1149.62,-333.5 971.38,-333.5"/>
<text text-anchor="start" x="979.38" y="-376.5" font-family="Helvetica,sans-Serif" font-size="10.00">/jenkins/jenlib_workspaces</text>
<text text-anchor="start" x="979.38" y="-364.5" font-family="Helvetica,sans-Serif" font-size="10.00">_f9/bld_nightly&#45;haldls.YmxkX25p</text>
<text text-anchor="start" x="979.38" y="-352.5" font-family="Helvetica,sans-Serif" font-size="10.00">Z2h0bHktaGFsZGxzIzcxMQ.x/haldls</text>
<text text-anchor="middle" x="1060.5" y="-340.5" font-family="Helvetica,sans-Serif" font-size="10.00">/include/haldls/vx/v1/event.h</text>
</a>
</g>
</g>
<!-- Node1 -->
<g id="node2" class="node">
<title>Node1</title>
<g id="a_node2"><a xlink:href="event_8h.html" target="_top" xlink:title=" ">
<polygon fill="white" stroke="black" points="690.27,-276.5 690.27,-296.5 780.74,-296.5 780.74,-276.5 690.27,-276.5"/>
<text text-anchor="middle" x="735.5" y="-283.5" font-family="Helvetica,sans-Serif" font-size="10.00">haldls/vx/event.h</text>
</a>
</g>
</g>
<!-- Node0&#45;&gt;Node1 -->
<g id="edge1" class="edge">
<title>Node0&#45;&gt;Node1</title>
<path fill="none" stroke="midnightblue" d="M971.27,-340.46C911.49,-327.03 834.99,-309.85 785.62,-298.76"/>
<polygon fill="midnightblue" stroke="midnightblue" points="786.34,-295.33 775.82,-296.55 784.81,-302.16 786.34,-295.33"/>
</g>
<!-- Node12 -->
<g id="node13" class="node">
<title>Node12</title>
<g id="a_node13"><a xlink:href="genpybind_8h.html" target="_top" xlink:title=" ">
<polygon fill="white" stroke="black" points="1201.43,-6.5 1201.43,-26.5 1313.57,-26.5 1313.57,-6.5 1201.43,-6.5"/>
<text text-anchor="middle" x="1257.5" y="-13.5" font-family="Helvetica,sans-Serif" font-size="10.00">haldls/vx/genpybind.h</text>
</a>
</g>
</g>
<!-- Node0&#45;&gt;Node12 -->
<g id="edge66" class="edge">
<title>Node0&#45;&gt;Node12</title>
<path fill="none" stroke="midnightblue" d="M1149.77,-352.57C1284.32,-338.11 1523.5,-301.58 1523.5,-224.5 1523.5,-224.5 1523.5,-224.5 1523.5,-153.5 1523.5,-64.03 1402.72,-33.38 1323.93,-22.91"/>
<polygon fill="midnightblue" stroke="midnightblue" points="1323.95,-19.39 1313.59,-21.62 1323.08,-26.33 1323.95,-19.39"/>
</g>
<!-- Node2 -->
<g id="node3" class="node">
<title>Node2</title>
<g id="a_node3"><a xlink:title=" ">
<polygon fill="white" stroke="#bfbfbf" points="1373.05,-213.5 1373.05,-233.5 1457.96,-233.5 1457.96,-213.5 1373.05,-213.5"/>
<text text-anchor="middle" x="1415.5" y="-220.5" font-family="Helvetica,sans-Serif" font-size="10.00">fisch/vx/event.h</text>
</a>
</g>
</g>
<!-- Node1&#45;&gt;Node2 -->
<g id="edge2" class="edge">
<title>Node1&#45;&gt;Node2</title>
<path fill="none" stroke="midnightblue" d="M780.9,-285.24C884.34,-284 1145.18,-277.1 1359.5,-240 1365.3,-239 1371.36,-237.65 1377.26,-236.16"/>
<polygon fill="midnightblue" stroke="midnightblue" points="1378.22,-239.53 1386.97,-233.57 1376.41,-232.76 1378.22,-239.53"/>
</g>
<!-- Node3 -->
<g id="node4" class="node">
<title>Node3</title>
<g id="a_node4"><a xlink:title=" ">
<polygon fill="white" stroke="#bfbfbf" points="1285.6,-75.5 1285.6,-95.5 1419.4,-95.5 1419.4,-75.5 1285.6,-75.5"/>
<text text-anchor="middle" x="1352.5" y="-82.5" font-family="Helvetica,sans-Serif" font-size="10.00">halco/common/geometry.h</text>
</a>
</g>
</g>
<!-- Node1&#45;&gt;Node3 -->
<g id="edge3" class="edge">
<title>Node1&#45;&gt;Node3</title>
<path fill="none" stroke="midnightblue" d="M780.88,-280.32C897.44,-266.36 1204.17,-225.33 1289.5,-171 1315,-154.76 1333.83,-124.29 1343.97,-104.72"/>
<polygon fill="midnightblue" stroke="midnightblue" points="1347.18,-106.13 1348.48,-95.61 1340.91,-103.03 1347.18,-106.13"/>
</g>
<!-- Node4 -->
<g id="node5" class="node">
<title>Node4</title>
<g id="a_node5"><a xlink:title=" ">
<polygon fill="white" stroke="#bfbfbf" points="42.99,-207.5 42.99,-239.5 144.01,-239.5 144.01,-207.5 42.99,-207.5"/>
<text text-anchor="start" x="50.99" y="-226.5" font-family="Helvetica,sans-Serif" font-size="10.00">halco/hicann&#45;dls/vx</text>
<text text-anchor="middle" x="93.5" y="-214.5" font-family="Helvetica,sans-Serif" font-size="10.00">/event.h</text>
</a>
</g>
</g>
<!-- Node1&#45;&gt;Node4 -->
<g id="edge4" class="edge">
<title>Node1&#45;&gt;Node4</title>
<path fill="none" stroke="midnightblue" d="M690.18,-284.72C593.26,-282.45 358.68,-273.82 154.25,-240.12"/>
<polygon fill="midnightblue" stroke="midnightblue" points="154.67,-236.64 144.23,-238.44 153.51,-243.54 154.67,-236.64"/>
</g>
<!-- Node5 -->
<g id="node6" class="node">
<title>Node5</title>
<g id="a_node6"><a xlink:title=" ">
<polygon fill="white" stroke="#bfbfbf" points="162,-207.5 162,-239.5 263.01,-239.5 263.01,-207.5 162,-207.5"/>
<text text-anchor="start" x="170" y="-226.5" font-family="Helvetica,sans-Serif" font-size="10.00">halco/hicann&#45;dls/vx</text>
<text text-anchor="middle" x="212.5" y="-214.5" font-family="Helvetica,sans-Serif" font-size="10.00">/highspeed_link.h</text>
</a>
</g>
</g>
<!-- Node1&#45;&gt;Node5 -->
<g id="edge5" class="edge">
<title>Node1&#45;&gt;Node5</title>
<path fill="none" stroke="midnightblue" d="M690.05,-283.03C607.46,-278.08 427.42,-265.2 277.5,-240 276.04,-239.75 274.56,-239.49 273.06,-239.22"/>
<polygon fill="midnightblue" stroke="midnightblue" points="273.6,-235.76 263.11,-237.27 272.25,-242.63 273.6,-235.76"/>
</g>
<!-- Node6 -->
<g id="node7" class="node">
<title>Node6</title>
<g id="a_node7"><a xlink:href="cerealization_8h.html" target="_top" xlink:title=" ">
<polygon fill="white" stroke="black" points="156.83,-75.5 156.83,-95.5 266.18,-95.5 266.18,-75.5 156.83,-75.5"/>
<text text-anchor="middle" x="211.5" y="-82.5" font-family="Helvetica,sans-Serif" font-size="10.00">haldls/cerealization.h</text>
</a>
</g>
</g>
<!-- Node1&#45;&gt;Node6 -->
<g id="edge6" class="edge">
<title>Node1&#45;&gt;Node6</title>
<path fill="none" stroke="midnightblue" d="M690.19,-278.36C636.14,-269.75 543.09,-254.59 463.5,-240 453.86,-238.23 123.72,-178.58 117.5,-171 108.2,-159.66 110.03,-150.62 117.5,-138 128.46,-119.51 148.66,-107.22 167.53,-99.3"/>
<polygon fill="midnightblue" stroke="midnightblue" points="168.88,-102.53 176.94,-95.65 166.35,-96.01 168.88,-102.53"/>
</g>
<!-- Node8 -->
<g id="node9" class="node">
<title>Node8</title>
<g id="a_node9"><a xlink:title=" ">
<polygon fill="white" stroke="#bfbfbf" points="0,-6.5 0,-26.5 81.01,-26.5 81.01,-6.5 0,-6.5"/>
<text text-anchor="middle" x="40.5" y="-13.5" font-family="Helvetica,sans-Serif" font-size="10.00">hate/visibility.h</text>
</a>
</g>
</g>
<!-- Node1&#45;&gt;Node8 -->
<g id="edge65" class="edge">
<title>Node1&#45;&gt;Node8</title>
<path fill="none" stroke="midnightblue" d="M690.19,-286.06C541.95,-287.44 78.34,-287.84 33.5,-240 -19.61,-183.33 14.98,-78.51 32.31,-36.07"/>
<polygon fill="midnightblue" stroke="midnightblue" points="35.6,-37.26 36.28,-26.69 29.16,-34.53 35.6,-37.26"/>
</g>
<!-- Node1&#45;&gt;Node12 -->
<g id="edge12" class="edge">
<title>Node1&#45;&gt;Node12</title>
<path fill="none" stroke="midnightblue" d="M780.93,-284.37C936.99,-280.26 1442.95,-265.06 1466.5,-240 1497.19,-207.34 1545.1,-180.91 1445.5,-69 1429.17,-50.65 1370.91,-36.55 1323.52,-27.78"/>
<polygon fill="midnightblue" stroke="midnightblue" points="1324.05,-24.32 1313.59,-25.99 1322.81,-31.21 1324.05,-24.32"/>
</g>
<!-- Node13 -->
<g id="node14" class="node">
<title>Node13</title>
<g id="a_node14"><a xlink:href="neuron_8h.html" target="_top" xlink:title=" ">
<polygon fill="white" stroke="black" points="472.94,-213.5 472.94,-233.5 570.07,-233.5 570.07,-213.5 472.94,-213.5"/>
<text text-anchor="middle" x="521.5" y="-220.5" font-family="Helvetica,sans-Serif" font-size="10.00">haldls/vx/neuron.h</text>
</a>
</g>
</g>
<!-- Node1&#45;&gt;Node13 -->
<g id="edge14" class="edge">
<title>Node1&#45;&gt;Node13</title>
<path fill="none" stroke="midnightblue" d="M703.93,-276.5C666.55,-265.84 604.19,-248.07 562.95,-236.31"/>
<polygon fill="midnightblue" stroke="midnightblue" points="563.79,-232.91 553.21,-233.54 561.87,-239.64 563.79,-232.91"/>
</g>
<!-- Node22 -->
<g id="node23" class="node">
<title>Node22</title>
<g id="a_node23"><a xlink:href="traits_8h.html" target="_top" xlink:title=" ">
<polygon fill="white" stroke="black" points="522.66,-75.5 522.66,-95.5 610.34,-95.5 610.34,-75.5 522.66,-75.5"/>
<text text-anchor="middle" x="566.5" y="-82.5" font-family="Helvetica,sans-Serif" font-size="10.00">haldls/vx/traits.h</text>
</a>
</g>
</g>
<!-- Node1&#45;&gt;Node22 -->
<g id="edge64" class="edge">
<title>Node1&#45;&gt;Node22</title>
<path fill="none" stroke="midnightblue" d="M727.8,-276.43C701.52,-245.48 615.08,-143.7 580.74,-103.27"/>
<polygon fill="midnightblue" stroke="midnightblue" points="583.39,-100.98 574.25,-95.62 578.05,-105.51 583.39,-100.98"/>
</g>
<!-- Node28 -->
<g id="node29" class="node">
<title>Node28</title>
<g id="a_node29"><a xlink:href="padi_8h.html" target="_top" xlink:title=" ">
<polygon fill="white" stroke="black" points="830.05,-213.5 830.05,-233.5 914.96,-233.5 914.96,-213.5 830.05,-213.5"/>
<text text-anchor="middle" x="872.5" y="-220.5" font-family="Helvetica,sans-Serif" font-size="10.00">haldls/vx/padi.h</text>
</a>
</g>
</g>
<!-- Node1&#45;&gt;Node28 -->
<g id="edge41" class="edge">
<title>Node1&#45;&gt;Node28</title>
<path fill="none" stroke="midnightblue" d="M755.72,-276.5C778.69,-266.27 816.39,-249.48 842.72,-237.76"/>
<polygon fill="midnightblue" stroke="midnightblue" points="844.49,-240.8 852.21,-233.54 841.65,-234.41 844.49,-240.8"/>
</g>
<!-- Node30 -->
<g id="node31" class="node">
<title>Node30</title>
<g id="a_node31"><a xlink:href="synapse_8h.html" target="_top" xlink:title=" ">
<polygon fill="white" stroke="black" points="900.88,-144.5 900.88,-164.5 1004.13,-164.5 1004.13,-144.5 900.88,-144.5"/>
<text text-anchor="middle" x="952.5" y="-151.5" font-family="Helvetica,sans-Serif" font-size="10.00">haldls/vx/synapse.h</text>
</a>
</g>
</g>
<!-- Node1&#45;&gt;Node30 -->
<g id="edge63" class="edge">
<title>Node1&#45;&gt;Node30</title>
<path fill="none" stroke="midnightblue" d="M780.79,-279.61C829.53,-272.41 902.84,-258.83 923.5,-240 942,-223.15 948.7,-193.98 951.13,-174.71"/>
<polygon fill="midnightblue" stroke="midnightblue" points="954.62,-174.97 952.12,-164.67 947.65,-174.28 954.62,-174.97"/>
</g>
<!-- Node7 -->
<g id="node8" class="node">
<title>Node7</title>
<g id="a_node8"><a xlink:title=" ">
<polygon fill="white" stroke="#bfbfbf" points="340.88,-6.5 340.88,-26.5 424.13,-26.5 424.13,-6.5 340.88,-6.5"/>
<text text-anchor="middle" x="382.5" y="-13.5" font-family="Helvetica,sans-Serif" font-size="10.00">hate/type_list.h</text>
</a>
</g>
</g>
<!-- Node6&#45;&gt;Node7 -->
<g id="edge7" class="edge">
<title>Node6&#45;&gt;Node7</title>
<path fill="none" stroke="midnightblue" d="M234.56,-75.46C264.27,-63.83 316.08,-43.52 349.83,-30.3"/>
<polygon fill="midnightblue" stroke="midnightblue" points="351.23,-33.51 359.26,-26.61 348.67,-27 351.23,-33.51"/>
</g>
<!-- Node6&#45;&gt;Node8 -->
<g id="edge8" class="edge">
<title>Node6&#45;&gt;Node8</title>
<path fill="none" stroke="midnightblue" d="M188.44,-75.46C158.74,-63.83 106.92,-43.52 73.17,-30.3"/>
<polygon fill="midnightblue" stroke="midnightblue" points="74.33,-27 63.75,-26.61 71.78,-33.51 74.33,-27"/>
</g>
<!-- Node9 -->
<g id="node10" class="node">
<title>Node9</title>
<g id="a_node10"><a xlink:title=" ">
<polygon fill="white" stroke="#bfbfbf" points="99.06,-6.5 99.06,-26.5 143.95,-26.5 143.95,-6.5 99.06,-6.5"/>
<text text-anchor="middle" x="121.5" y="-13.5" font-family="Helvetica,sans-Serif" font-size="10.00">cstdint</text>
</a>
</g>
</g>
<!-- Node6&#45;&gt;Node9 -->
<g id="edge9" class="edge">
<title>Node6&#45;&gt;Node9</title>
<path fill="none" stroke="midnightblue" d="M199.37,-75.46C184.74,-64.57 159.92,-46.1 142.24,-32.94"/>
<polygon fill="midnightblue" stroke="midnightblue" points="143.85,-29.77 133.74,-26.61 139.67,-35.39 143.85,-29.77"/>
</g>
<!-- Node10 -->
<g id="node11" class="node">
<title>Node10</title>
<g id="a_node11"><a xlink:title=" ">
<polygon fill="white" stroke="#bfbfbf" points="278.34,-6.5 278.34,-26.5 322.67,-26.5 322.67,-6.5 278.34,-6.5"/>
<text text-anchor="middle" x="300.5" y="-13.5" font-family="Helvetica,sans-Serif" font-size="10.00">iosfwd</text>
</a>
</g>
</g>
<!-- Node6&#45;&gt;Node10 -->
<g id="edge10" class="edge">
<title>Node6&#45;&gt;Node10</title>
<path fill="none" stroke="midnightblue" d="M223.51,-75.46C237.97,-64.57 262.51,-46.1 279.99,-32.94"/>
<polygon fill="midnightblue" stroke="midnightblue" points="282.52,-35.42 288.41,-26.61 278.31,-29.82 282.52,-35.42"/>
</g>
<!-- Node11 -->
<g id="node12" class="node">
<title>Node11</title>
<g id="a_node12"><a xlink:title=" ">
<polygon fill="white" stroke="#bfbfbf" points="162.38,-6.5 162.38,-26.5 260.62,-26.5 260.62,-6.5 162.38,-6.5"/>
<text text-anchor="middle" x="211.5" y="-13.5" font-family="Helvetica,sans-Serif" font-size="10.00">cereal/macros.hpp</text>
</a>
</g>
</g>
<!-- Node6&#45;&gt;Node11 -->
<g id="edge11" class="edge">
<title>Node6&#45;&gt;Node11</title>
<path fill="none" stroke="midnightblue" d="M211.5,-75.46C211.5,-65.63 211.5,-49.61 211.5,-36.9"/>
<polygon fill="midnightblue" stroke="midnightblue" points="215,-36.82 211.5,-26.82 208,-36.82 215,-36.82"/>
</g>
<!-- Node12&#45;&gt;Node12 -->
<g id="edge13" class="edge">
<title>Node12&#45;&gt;Node12</title>
<path fill="none" stroke="midnightblue" d="M1281.4,-26.54C1305.23,-32.26 1331.57,-28.92 1331.57,-16.5 1331.57,-5.78 1311.94,-1.82 1291.24,-4.62"/>
<polygon fill="midnightblue" stroke="midnightblue" points="1290.59,-1.18 1281.4,-6.46 1291.87,-8.06 1290.59,-1.18"/>
</g>
<!-- Node13&#45;&gt;Node3 -->
<g id="edge17" class="edge">
<title>Node13&#45;&gt;Node3</title>
<path fill="none" stroke="midnightblue" d="M570.5,-219.44C693.21,-211.52 1007.01,-189.7 1050.5,-171 1071.05,-162.16 1068.4,-147.81 1088.5,-138 1090.85,-136.86 1218.59,-112.21 1295.5,-97.43"/>
<polygon fill="midnightblue" stroke="midnightblue" points="1296.38,-100.83 1305.54,-95.5 1295.06,-93.95 1296.38,-100.83"/>
</g>
<!-- Node13&#45;&gt;Node6 -->
<g id="edge20" class="edge">
<title>Node13&#45;&gt;Node6</title>
<path fill="none" stroke="midnightblue" d="M472.76,-221.44C421.45,-218.29 340.02,-207.35 280.5,-171 253.68,-154.62 232.63,-123.96 221.15,-104.43"/>
<polygon fill="midnightblue" stroke="midnightblue" points="224.13,-102.59 216.17,-95.6 218.04,-106.03 224.13,-102.59"/>
</g>
<!-- Node13&#45;&gt;Node8 -->
<g id="edge39" class="edge">
<title>Node13&#45;&gt;Node8</title>
<path fill="none" stroke="midnightblue" d="M472.81,-218.69C371.87,-210.46 146.73,-190.18 117.5,-171 70.25,-139.99 50.76,-70.74 43.82,-36.88"/>
<polygon fill="midnightblue" stroke="midnightblue" points="47.22,-36.04 41.93,-26.86 40.35,-37.34 47.22,-36.04"/>
</g>
<!-- Node13&#45;&gt;Node10 -->
<g id="edge16" class="edge">
<title>Node13&#45;&gt;Node10</title>
<path fill="none" stroke="midnightblue" d="M483.02,-213.39C433.06,-199.21 348.18,-166.52 313.5,-102 302.5,-81.53 300.09,-54.48 299.88,-36.56"/>
<polygon fill="midnightblue" stroke="midnightblue" points="303.38,-36.54 299.99,-26.5 296.38,-36.46 303.38,-36.54"/>
</g>
<!-- Node13&#45;&gt;Node12 -->
<g id="edge21" class="edge">
<title>Node13&#45;&gt;Node12</title>
<path fill="none" stroke="midnightblue" d="M570.15,-221.18C678.2,-217.66 934.86,-205.77 1013.5,-171 1033.66,-162.09 1030.75,-147.76 1050.5,-138 1126.78,-100.33 1177.39,-161.19 1238.5,-102 1255.93,-85.12 1258.94,-55.96 1258.78,-36.69"/>
<polygon fill="midnightblue" stroke="midnightblue" points="1262.27,-36.53 1258.4,-26.67 1255.28,-36.79 1262.27,-36.53"/>
</g>
<!-- Node14 -->
<g id="node15" class="node">
<title>Node14</title>
<g id="a_node15"><a xlink:title=" ">
<polygon fill="white" stroke="#bfbfbf" points="952.11,-75.5 952.11,-95.5 990.89,-95.5 990.89,-75.5 952.11,-75.5"/>
<text text-anchor="middle" x="971.5" y="-82.5" font-family="Helvetica,sans-Serif" font-size="10.00">array</text>
</a>
</g>
</g>
<!-- Node13&#45;&gt;Node14 -->
<g id="edge15" class="edge">
<title>Node13&#45;&gt;Node14</title>
<path fill="none" stroke="midnightblue" d="M547.14,-213.45C572.5,-204.11 612.11,-188.47 644.5,-171 667.61,-158.54 669.12,-147.75 693.5,-138 782.24,-102.51 811.83,-120.93 905.5,-102 917.52,-99.57 930.68,-96.55 942.06,-93.83"/>
<polygon fill="midnightblue" stroke="midnightblue" points="943.04,-97.19 951.94,-91.43 941.39,-90.39 943.04,-97.19"/>
</g>
<!-- Node15 -->
<g id="node16" class="node">
<title>Node15</title>
<g id="a_node16"><a xlink:title=" ">
<polygon fill="white" stroke="#bfbfbf" points="788.38,-69.5 788.38,-101.5 896.63,-101.5 896.63,-69.5 788.38,-69.5"/>
<text text-anchor="start" x="796.38" y="-88.5" font-family="Helvetica,sans-Serif" font-size="10.00">halco/common/typed</text>
<text text-anchor="middle" x="842.5" y="-76.5" font-family="Helvetica,sans-Serif" font-size="10.00">_array.h</text>
</a>
</g>
</g>
<!-- Node13&#45;&gt;Node15 -->
<g id="edge18" class="edge">
<title>Node13&#45;&gt;Node15</title>
<path fill="none" stroke="midnightblue" d="M533.9,-213.36C557.46,-196.36 610.8,-159.66 660.5,-138 681.73,-128.75 734.79,-114.06 778.18,-102.74"/>
<polygon fill="midnightblue" stroke="midnightblue" points="779.32,-106.06 788.12,-100.16 777.57,-99.28 779.32,-106.06"/>
</g>
<!-- Node16 -->
<g id="node17" class="node">
<title>Node16</title>
<g id="a_node17"><a xlink:title=" ">
<polygon fill="white" stroke="#bfbfbf" points="126.99,-138.5 126.99,-170.5 228.01,-170.5 228.01,-138.5 126.99,-138.5"/>
<text text-anchor="start" x="135" y="-157.5" font-family="Helvetica,sans-Serif" font-size="10.00">halco/hicann&#45;dls/vx</text>
<text text-anchor="middle" x="177.5" y="-145.5" font-family="Helvetica,sans-Serif" font-size="10.00">/neuron.h</text>
</a>
</g>
</g>
<!-- Node13&#45;&gt;Node16 -->
<g id="edge19" class="edge">
<title>Node13&#45;&gt;Node16</title>
<path fill="none" stroke="midnightblue" d="M472.72,-214.28C416.91,-204.69 322.86,-187.99 242.5,-171 241.05,-170.69 239.58,-170.38 238.09,-170.06"/>
<polygon fill="midnightblue" stroke="midnightblue" points="238.71,-166.61 228.19,-167.85 237.19,-173.44 238.71,-166.61"/>
</g>
<!-- Node17 -->
<g id="node18" class="node">
<title>Node17</title>
<g id="a_node18"><a xlink:href="sram__controller_8h.html" target="_top" xlink:title=" ">
<polygon fill="white" stroke="black" points="398.05,-144.5 398.05,-164.5 532.95,-164.5 532.95,-144.5 398.05,-144.5"/>
<text text-anchor="middle" x="465.5" y="-151.5" font-family="Helvetica,sans-Serif" font-size="10.00">haldls/vx/sram_controller.h</text>
</a>
</g>
</g>
<!-- Node13&#45;&gt;Node17 -->
<g id="edge22" class="edge">
<title>Node13&#45;&gt;Node17</title>
<path fill="none" stroke="midnightblue" d="M513.95,-213.46C505.23,-203.03 490.7,-185.64 479.82,-172.63"/>
<polygon fill="midnightblue" stroke="midnightblue" points="482.39,-170.25 473.3,-164.82 477.02,-174.74 482.39,-170.25"/>
</g>
<!-- Node13&#45;&gt;Node22 -->
<g id="edge38" class="edge">
<title>Node13&#45;&gt;Node22</title>
<path fill="none" stroke="midnightblue" d="M525.27,-213.47C529.48,-203.25 536.36,-186.07 541.5,-171 549.09,-148.79 556.56,-122.86 561.33,-105.64"/>
<polygon fill="midnightblue" stroke="midnightblue" points="564.78,-106.28 564.05,-95.71 558.03,-104.43 564.78,-106.28"/>
</g>
<!-- Node27 -->
<g id="node28" class="node">
<title>Node27</title>
<g id="a_node28"><a xlink:title=" ">
<polygon fill="white" stroke="#bfbfbf" points="702.88,-144.5 702.88,-164.5 806.12,-164.5 806.12,-144.5 702.88,-144.5"/>
<text text-anchor="middle" x="754.5" y="-151.5" font-family="Helvetica,sans-Serif" font-size="10.00">hxcomm/vx/target.h</text>
</a>
</g>
</g>
<!-- Node13&#45;&gt;Node27 -->
<g id="edge40" class="edge">
<title>Node13&#45;&gt;Node27</title>
<path fill="none" stroke="midnightblue" d="M552.93,-213.46C594.36,-201.55 667.35,-180.56 713.2,-167.38"/>
<polygon fill="midnightblue" stroke="midnightblue" points="714.19,-170.73 722.83,-164.61 712.26,-164.01 714.19,-170.73"/>
</g>
<!-- Node17&#45;&gt;Node6 -->
<g id="edge23" class="edge">
<title>Node17&#45;&gt;Node6</title>
<path fill="none" stroke="midnightblue" d="M431.25,-144.46C385.89,-132.5 305.84,-111.39 255.9,-98.21"/>
<polygon fill="midnightblue" stroke="midnightblue" points="256.59,-94.77 246.03,-95.61 254.8,-101.54 256.59,-94.77"/>
</g>
<!-- Node17&#45;&gt;Node8 -->
<g id="edge37" class="edge">
<title>Node17&#45;&gt;Node8</title>
<path fill="none" stroke="midnightblue" d="M398.35,-144.46C311.89,-132.54 170.03,-111.91 147.5,-102 145,-100.9 90.38,-57.37 60.17,-33.23"/>
<polygon fill="midnightblue" stroke="midnightblue" points="62.01,-30.22 52.01,-26.71 57.63,-35.69 62.01,-30.22"/>
</g>
<!-- Node17&#45;&gt;Node12 -->
<g id="edge28" class="edge">
<title>Node17&#45;&gt;Node12</title>
<path fill="none" stroke="midnightblue" d="M533.19,-145.02C602.68,-135.58 705.56,-119.35 741.5,-102 761.65,-92.27 759,-77.94 779.5,-69 798.1,-60.89 1064.32,-35.38 1191.19,-23.59"/>
<polygon fill="midnightblue" stroke="midnightblue" points="1191.54,-27.07 1201.18,-22.66 1190.9,-20.1 1191.54,-27.07"/>
</g>
<!-- Node18 -->
<g id="node19" class="node">
<title>Node18</title>
<g id="a_node19"><a xlink:href="common_8h.html" target="_top" xlink:title=" ">
<polygon fill="white" stroke="black" points="628.33,-75.5 628.33,-95.5 732.68,-95.5 732.68,-75.5 628.33,-75.5"/>
<text text-anchor="middle" x="680.5" y="-82.5" font-family="Helvetica,sans-Serif" font-size="10.00">haldls/vx/common.h</text>
</a>
</g>
</g>
<!-- Node17&#45;&gt;Node18 -->
<g id="edge24" class="edge">
<title>Node17&#45;&gt;Node18</title>
<path fill="none" stroke="midnightblue" d="M494.5,-144.46C532.49,-132.63 599.24,-111.83 641.59,-98.63"/>
<polygon fill="midnightblue" stroke="midnightblue" points="642.77,-101.92 651.28,-95.61 640.69,-95.24 642.77,-101.92"/>
</g>
<!-- Node17&#45;&gt;Node22 -->
<g id="edge29" class="edge">
<title>Node17&#45;&gt;Node22</title>
<path fill="none" stroke="midnightblue" d="M479.12,-144.46C495.84,-133.38 524.41,-114.42 544.31,-101.22"/>
<polygon fill="midnightblue" stroke="midnightblue" points="546.38,-104.05 552.77,-95.61 542.51,-98.22 546.38,-104.05"/>
</g>
<!-- Node26 -->
<g id="node27" class="node">
<title>Node26</title>
<g id="a_node27"><a xlink:title=" ">
<polygon fill="white" stroke="#bfbfbf" points="322.1,-75.5 322.1,-95.5 390.9,-95.5 390.9,-75.5 322.1,-75.5"/>
<text text-anchor="middle" x="356.5" y="-82.5" font-family="Helvetica,sans-Serif" font-size="10.00">hate/math.h</text>
</a>
</g>
</g>
<!-- Node17&#45;&gt;Node26 -->
<g id="edge36" class="edge">
<title>Node17&#45;&gt;Node26</title>
<path fill="none" stroke="midnightblue" d="M450.8,-144.46C432.6,-133.28 401.37,-114.08 379.87,-100.86"/>
<polygon fill="midnightblue" stroke="midnightblue" points="381.67,-97.86 371.32,-95.61 378,-103.83 381.67,-97.86"/>
</g>
<!-- Node19 -->
<g id="node20" class="node">
<title>Node19</title>
<g id="a_node20"><a xlink:title=" ">
<polygon fill="white" stroke="#bfbfbf" points="797.44,-6.5 797.44,-26.5 859.56,-26.5 859.56,-6.5 797.44,-6.5"/>
<text text-anchor="middle" x="828.5" y="-13.5" font-family="Helvetica,sans-Serif" font-size="10.00">type_traits</text>
</a>
</g>
</g>
<!-- Node18&#45;&gt;Node19 -->
<g id="edge25" class="edge">
<title>Node18&#45;&gt;Node19</title>
<path fill="none" stroke="midnightblue" d="M700.46,-75.46C725.84,-63.98 769.86,-44.05 799.09,-30.82"/>
<polygon fill="midnightblue" stroke="midnightblue" points="800.72,-33.92 808.39,-26.61 797.83,-27.54 800.72,-33.92"/>
</g>
<!-- Node20 -->
<g id="node21" class="node">
<title>Node20</title>
<g id="a_node21"><a xlink:title=" ">
<polygon fill="white" stroke="#bfbfbf" points="877.12,-6.5 877.12,-26.5 915.89,-26.5 915.89,-6.5 877.12,-6.5"/>
<text text-anchor="middle" x="896.5" y="-13.5" font-family="Helvetica,sans-Serif" font-size="10.00">utility</text>
</a>
</g>
</g>
<!-- Node18&#45;&gt;Node20 -->
<g id="edge26" class="edge">
<title>Node18&#45;&gt;Node20</title>
<path fill="none" stroke="midnightblue" d="M717.62,-75.45C764.18,-63.9 841.23,-44.1 868.5,-33 869.89,-32.44 871.29,-31.82 872.69,-31.17"/>
<polygon fill="midnightblue" stroke="midnightblue" points="874.41,-34.22 881.71,-26.54 871.22,-27.99 874.41,-34.22"/>
</g>
<!-- Node21 -->
<g id="node22" class="node">
<title>Node21</title>
<g id="a_node22"><a xlink:title=" ">
<polygon fill="white" stroke="#bfbfbf" points="933.88,-6.5 933.88,-26.5 1057.13,-26.5 1057.13,-6.5 933.88,-6.5"/>
<text text-anchor="middle" x="995.5" y="-13.5" font-family="Helvetica,sans-Serif" font-size="10.00">fisch/vx/omnibus_data.h</text>
</a>
</g>
</g>
<!-- Node18&#45;&gt;Node21 -->
<g id="edge27" class="edge">
<title>Node18&#45;&gt;Node21</title>
<path fill="none" stroke="midnightblue" d="M718.15,-75.44C727.41,-73.28 737.3,-71.01 746.5,-69 825.36,-51.77 845.52,-49.61 924.5,-33 931.06,-31.62 937.94,-30.15 944.75,-28.68"/>
<polygon fill="midnightblue" stroke="midnightblue" points="945.57,-32.08 954.6,-26.54 944.09,-25.24 945.57,-32.08"/>
</g>
<!-- Node22&#45;&gt;Node7 -->
<g id="edge33" class="edge">
<title>Node22&#45;&gt;Node7</title>
<path fill="none" stroke="midnightblue" d="M541.69,-75.46C509.59,-63.78 453.5,-43.35 417.19,-30.13"/>
<polygon fill="midnightblue" stroke="midnightblue" points="418.11,-26.74 407.51,-26.61 415.71,-33.32 418.11,-26.74"/>
</g>
<!-- Node22&#45;&gt;Node12 -->
<g id="edge32" class="edge">
<title>Node22&#45;&gt;Node12</title>
<path fill="none" stroke="midnightblue" d="M593.48,-75.46C601.75,-73 610.92,-70.58 619.5,-69 815.51,-32.84 867.84,-49.06 1066.5,-33 1107.88,-29.66 1154.29,-25.89 1191.01,-22.91"/>
<polygon fill="midnightblue" stroke="midnightblue" points="1191.41,-26.39 1201.09,-22.09 1190.84,-19.41 1191.41,-26.39"/>
</g>
<!-- Node22&#45;&gt;Node19 -->
<g id="edge30" class="edge">
<title>Node22&#45;&gt;Node19</title>
<path fill="none" stroke="midnightblue" d="M595.83,-75.5C603.5,-73.26 611.79,-70.95 619.5,-69 693.96,-50.21 714.91,-54.94 788.5,-33 791.48,-32.11 794.54,-31.11 797.59,-30.04"/>
<polygon fill="midnightblue" stroke="midnightblue" points="798.97,-33.26 807.13,-26.51 796.54,-26.69 798.97,-33.26"/>
</g>
<!-- Node23 -->
<g id="node24" class="node">
<title>Node23</title>
<g id="a_node24"><a xlink:title=" ">
<polygon fill="white" stroke="#bfbfbf" points="441.88,-0.5 441.88,-32.5 535.12,-32.5 535.12,-0.5 441.88,-0.5"/>
<text text-anchor="start" x="449.88" y="-19.5" font-family="Helvetica,sans-Serif" font-size="10.00">fisch/vx/container</text>
<text text-anchor="middle" x="488.5" y="-7.5" font-family="Helvetica,sans-Serif" font-size="10.00">_fwd.h</text>
</a>
</g>
</g>
<!-- Node22&#45;&gt;Node23 -->
<g id="edge31" class="edge">
<title>Node22&#45;&gt;Node23</title>
<path fill="none" stroke="midnightblue" d="M555.98,-75.46C545.18,-66.18 527.96,-51.39 513.62,-39.07"/>
<polygon fill="midnightblue" stroke="midnightblue" points="515.87,-36.39 506,-32.53 511.31,-41.7 515.87,-36.39"/>
</g>
<!-- Node24 -->
<g id="node25" class="node">
<title>Node24</title>
<g id="a_node25"><a xlink:title=" ">
<polygon fill="white" stroke="#bfbfbf" points="553.1,-0.5 553.1,-32.5 651.9,-32.5 651.9,-0.5 553.1,-0.5"/>
<text text-anchor="start" x="561.1" y="-19.5" font-family="Helvetica,sans-Serif" font-size="10.00">boost/utility/enable</text>
<text text-anchor="middle" x="602.5" y="-7.5" font-family="Helvetica,sans-Serif" font-size="10.00">_if.hpp</text>
</a>
</g>
</g>
<!-- Node22&#45;&gt;Node24 -->
<g id="edge34" class="edge">
<title>Node22&#45;&gt;Node24</title>
<path fill="none" stroke="midnightblue" d="M571.36,-75.46C576.02,-66.78 583.28,-53.28 589.61,-41.5"/>
<polygon fill="midnightblue" stroke="midnightblue" points="592.78,-43 594.43,-32.53 586.61,-39.69 592.78,-43"/>
</g>
<!-- Node25 -->
<g id="node26" class="node">
<title>Node25</title>
<g id="a_node26"><a xlink:title=" ">
<polygon fill="white" stroke="#bfbfbf" points="669.55,-6.5 669.55,-26.5 779.46,-26.5 779.46,-6.5 669.55,-6.5"/>
<text text-anchor="middle" x="724.5" y="-13.5" font-family="Helvetica,sans-Serif" font-size="10.00">fisch/vx/container.def</text>
</a>
</g>
</g>
<!-- Node22&#45;&gt;Node25 -->
<g id="edge35" class="edge">
<title>Node22&#45;&gt;Node25</title>
<path fill="none" stroke="midnightblue" d="M587.81,-75.46C615.02,-63.93 662.31,-43.87 693.51,-30.64"/>
<polygon fill="midnightblue" stroke="midnightblue" points="695.19,-33.73 703.03,-26.61 692.45,-27.29 695.19,-33.73"/>
</g>
<!-- Node28&#45;&gt;Node3 -->
<g id="edge44" class="edge">
<title>Node28&#45;&gt;Node3</title>
<path fill="none" stroke="midnightblue" d="M904.14,-213.47C958.42,-197.98 1072.78,-165.37 1169.5,-138 1217.69,-124.36 1273.04,-108.8 1310.14,-98.38"/>
<polygon fill="midnightblue" stroke="midnightblue" points="1311.42,-101.66 1320.1,-95.59 1309.53,-94.92 1311.42,-101.66"/>
</g>
<!-- Node28&#45;&gt;Node6 -->
<g id="edge46" class="edge">
<title>Node28&#45;&gt;Node6</title>
<path fill="none" stroke="midnightblue" d="M829.95,-220.91C727.39,-216.61 469.17,-202.86 389.5,-171 367.13,-162.06 367.53,-149.75 346.5,-138 316.47,-121.22 279.86,-107.64 252.35,-98.64"/>
<polygon fill="midnightblue" stroke="midnightblue" points="253.25,-95.25 242.66,-95.54 251.11,-101.92 253.25,-95.25"/>
</g>
<!-- Node28&#45;&gt;Node8 -->
<g id="edge61" class="edge">
<title>Node28&#45;&gt;Node8</title>
<path fill="none" stroke="midnightblue" d="M829.82,-221.16C739.72,-217.71 523.81,-206.17 346.5,-171 296.85,-161.15 286.16,-151.95 237.5,-138 178.64,-121.13 155.27,-136.25 104.5,-102 91.22,-93.04 66.4,-57.18 51.88,-35.15"/>
<polygon fill="midnightblue" stroke="midnightblue" points="54.75,-33.14 46.35,-26.68 48.88,-36.97 54.75,-33.14"/>
</g>
<!-- Node28&#45;&gt;Node10 -->
<g id="edge43" class="edge">
<title>Node28&#45;&gt;Node10</title>
<path fill="none" stroke="midnightblue" d="M869.38,-213.42C862.68,-195.48 845.1,-155.74 815.5,-138 681.76,-57.82 616.07,-146.11 466.5,-102 459.16,-99.83 371.71,-54.56 326.79,-31.2"/>
<polygon fill="midnightblue" stroke="midnightblue" points="328.38,-28.08 317.89,-26.57 325.14,-34.29 328.38,-28.08"/>
</g>
<!-- Node28&#45;&gt;Node12 -->
<g id="edge47" class="edge">
<title>Node28&#45;&gt;Node12</title>
<path fill="none" stroke="midnightblue" d="M915.04,-220.74C1035.53,-214.7 1373.92,-190.04 1428.5,-102 1456.34,-57.1 1383.09,-35.35 1323.92,-25.33"/>
<polygon fill="midnightblue" stroke="midnightblue" points="1324.24,-21.84 1313.81,-23.71 1323.13,-28.75 1324.24,-21.84"/>
</g>
<!-- Node28&#45;&gt;Node14 -->
<g id="edge42" class="edge">
<title>Node28&#45;&gt;Node14</title>
<path fill="none" stroke="midnightblue" d="M915.15,-219.56C948.02,-214.8 991.47,-202.5 1013.5,-171 1028.89,-149 1007.36,-120.53 989.88,-102.9"/>
<polygon fill="midnightblue" stroke="midnightblue" points="991.92,-100.01 982.27,-95.62 987.08,-105.06 991.92,-100.01"/>
</g>
<!-- Node28&#45;&gt;Node22 -->
<g id="edge60" class="edge">
<title>Node28&#45;&gt;Node22</title>
<path fill="none" stroke="midnightblue" d="M872.86,-213.48C873.01,-196.03 870.65,-157.62 848.5,-138 771.39,-69.68 720.04,-124.51 619.5,-102 614.73,-100.93 609.75,-99.67 604.83,-98.34"/>
<polygon fill="midnightblue" stroke="midnightblue" points="605.51,-94.89 594.93,-95.54 603.61,-101.63 605.51,-94.89"/>
</g>
<!-- Node28&#45;&gt;Node27 -->
<g id="edge62" class="edge">
<title>Node28&#45;&gt;Node27</title>
<path fill="none" stroke="midnightblue" d="M856.59,-213.46C836.8,-202.23 802.78,-182.91 779.49,-169.69"/>
<polygon fill="midnightblue" stroke="midnightblue" points="780.97,-166.5 770.54,-164.61 777.51,-172.59 780.97,-166.5"/>
</g>
<!-- Node29 -->
<g id="node30" class="node">
<title>Node29</title>
<g id="a_node30"><a xlink:title=" ">
<polygon fill="white" stroke="#bfbfbf" points="1178.99,-138.5 1178.99,-170.5 1280.01,-170.5 1280.01,-138.5 1178.99,-138.5"/>
<text text-anchor="start" x="1186.99" y="-157.5" font-family="Helvetica,sans-Serif" font-size="10.00">halco/hicann&#45;dls/vx</text>
<text text-anchor="middle" x="1229.5" y="-145.5" font-family="Helvetica,sans-Serif" font-size="10.00">/padi.h</text>
</a>
</g>
</g>
<!-- Node28&#45;&gt;Node29 -->
<g id="edge45" class="edge">
<title>Node28&#45;&gt;Node29</title>
<path fill="none" stroke="midnightblue" d="M915.21,-215.79C972.23,-206.63 1076.29,-189.28 1164.5,-171 1165.96,-170.7 1167.43,-170.39 1168.92,-170.07"/>
<polygon fill="midnightblue" stroke="midnightblue" points="1169.81,-173.46 1178.83,-167.89 1168.31,-166.62 1169.81,-173.46"/>
</g>
<!-- Node28&#45;&gt;Node30 -->
<g id="edge48" class="edge">
<title>Node28&#45;&gt;Node30</title>
<path fill="none" stroke="midnightblue" d="M883.29,-213.46C896.17,-202.67 917.95,-184.44 933.63,-171.3"/>
<polygon fill="midnightblue" stroke="midnightblue" points="936.21,-173.71 941.63,-164.61 931.72,-168.34 936.21,-173.71"/>
</g>
<!-- Node30&#45;&gt;Node3 -->
<g id="edge51" class="edge">
<title>Node30&#45;&gt;Node3</title>
<path fill="none" stroke="midnightblue" d="M1004.39,-144.81C1077.11,-132.63 1209.29,-110.49 1288.18,-97.27"/>
<polygon fill="midnightblue" stroke="midnightblue" points="1289.19,-100.65 1298.48,-95.55 1288.03,-93.75 1289.19,-100.65"/>
</g>
<!-- Node30&#45;&gt;Node6 -->
<g id="edge55" class="edge">
<title>Node30&#45;&gt;Node6</title>
<path fill="none" stroke="midnightblue" d="M900.84,-147.15C875.2,-144.12 843.75,-140.61 815.5,-138 592.77,-117.42 535.81,-126.82 313.5,-102 301.14,-100.62 287.98,-98.85 275.37,-97"/>
<polygon fill="midnightblue" stroke="midnightblue" points="275.8,-93.52 265.39,-95.5 274.76,-100.45 275.8,-93.52"/>
</g>
<!-- Node30&#45;&gt;Node8 -->
<g id="edge59" class="edge">
<title>Node30&#45;&gt;Node8</title>
<path fill="none" stroke="midnightblue" d="M900.8,-147.54C875.15,-144.62 843.7,-141.07 815.5,-138 662.24,-121.33 619.1,-143.05 470.5,-102 436.96,-92.73 432.99,-78.47 399.5,-69 266.46,-31.38 225.78,-61.59 90.5,-33 85.8,-32.01 80.91,-30.76 76.11,-29.42"/>
<polygon fill="midnightblue" stroke="midnightblue" points="77.06,-26.04 66.47,-26.55 75.06,-32.75 77.06,-26.04"/>
</g>
<!-- Node30&#45;&gt;Node10 -->
<g id="edge50" class="edge">
<title>Node30&#45;&gt;Node10</title>
<path fill="none" stroke="midnightblue" d="M900.72,-145.36C884.07,-142.85 865.52,-140.18 848.5,-138 699.97,-118.96 652.52,-157.66 513.5,-102 491.14,-93.05 492.15,-79.57 470.5,-69 413.15,-41.01 391.26,-55.39 331.5,-33 329.84,-32.38 328.14,-31.69 326.45,-30.96"/>
<polygon fill="midnightblue" stroke="midnightblue" points="327.49,-27.59 316.95,-26.53 324.53,-33.93 327.49,-27.59"/>
</g>
<!-- Node30&#45;&gt;Node12 -->
<g id="edge57" class="edge">
<title>Node30&#45;&gt;Node12</title>
<path fill="none" stroke="midnightblue" d="M947.66,-144.34C939.4,-127.33 925.17,-90.59 943.5,-69 959.35,-50.34 1103.75,-32.84 1191.12,-23.83"/>
<polygon fill="midnightblue" stroke="midnightblue" points="1191.62,-27.29 1201.21,-22.8 1190.91,-20.33 1191.62,-27.29"/>
</g>
<!-- Node30&#45;&gt;Node14 -->
<g id="edge49" class="edge">
<title>Node30&#45;&gt;Node14</title>
<path fill="none" stroke="midnightblue" d="M955.07,-144.46C957.88,-134.53 962.49,-118.28 966.11,-105.52"/>
<polygon fill="midnightblue" stroke="midnightblue" points="969.5,-106.4 968.86,-95.82 962.76,-104.49 969.5,-106.4"/>
</g>
<!-- Node30&#45;&gt;Node15 -->
<g id="edge52" class="edge">
<title>Node30&#45;&gt;Node15</title>
<path fill="none" stroke="midnightblue" d="M937.67,-144.46C921.93,-134.88 896.56,-119.42 875.97,-106.88"/>
<polygon fill="midnightblue" stroke="midnightblue" points="877.55,-103.75 867.18,-101.53 873.9,-109.72 877.55,-103.75"/>
</g>
<!-- Node30&#45;&gt;Node18 -->
<g id="edge56" class="edge">
<title>Node30&#45;&gt;Node18</title>
<path fill="none" stroke="midnightblue" d="M915.82,-144.46C867.05,-132.45 780.81,-111.21 727.38,-98.05"/>
<polygon fill="midnightblue" stroke="midnightblue" points="728.02,-94.6 717.47,-95.61 726.35,-101.4 728.02,-94.6"/>
</g>
<!-- Node30&#45;&gt;Node22 -->
<g id="edge58" class="edge">
<title>Node30&#45;&gt;Node22</title>
<path fill="none" stroke="midnightblue" d="M916.67,-144.42C906.92,-142.13 896.34,-139.81 886.5,-138 768.75,-116.29 736.63,-126.88 619.5,-102 614.47,-100.93 609.23,-99.63 604.07,-98.24"/>
<polygon fill="midnightblue" stroke="midnightblue" points="604.93,-94.85 594.36,-95.5 603.03,-101.59 604.93,-94.85"/>
</g>
<!-- Node31 -->
<g id="node32" class="node">
<title>Node31</title>
<g id="a_node32"><a xlink:title=" ">
<polygon fill="white" stroke="#bfbfbf" points="1008.99,-69.5 1008.99,-101.5 1110.01,-101.5 1110.01,-69.5 1008.99,-69.5"/>
<text text-anchor="start" x="1016.99" y="-88.5" font-family="Helvetica,sans-Serif" font-size="10.00">halco/hicann&#45;dls/vx</text>
<text text-anchor="middle" x="1059.5" y="-76.5" font-family="Helvetica,sans-Serif" font-size="10.00">/capmem.h</text>
</a>
</g>
</g>
<!-- Node30&#45;&gt;Node31 -->
<g id="edge53" class="edge">
<title>Node30&#45;&gt;Node31</title>
<path fill="none" stroke="midnightblue" d="M966.93,-144.46C982.24,-134.88 1006.92,-119.42 1026.95,-106.88"/>
<polygon fill="midnightblue" stroke="midnightblue" points="1028.88,-109.81 1035.49,-101.53 1025.16,-103.87 1028.88,-109.81"/>
</g>
<!-- Node32 -->
<g id="node33" class="node">
<title>Node32</title>
<g id="a_node33"><a xlink:title=" ">
<polygon fill="white" stroke="#bfbfbf" points="1127.99,-69.5 1127.99,-101.5 1229.01,-101.5 1229.01,-69.5 1127.99,-69.5"/>
<text text-anchor="start" x="1135.99" y="-88.5" font-family="Helvetica,sans-Serif" font-size="10.00">halco/hicann&#45;dls/vx</text>
<text text-anchor="middle" x="1178.5" y="-76.5" font-family="Helvetica,sans-Serif" font-size="10.00">/synapse.h</text>
</a>
</g>
</g>
<!-- Node30&#45;&gt;Node32 -->
<g id="edge54" class="edge">
<title>Node30&#45;&gt;Node32</title>
<path fill="none" stroke="midnightblue" d="M982.98,-144.46C1017.48,-134.24 1074.55,-117.32 1118.15,-104.39"/>
<polygon fill="midnightblue" stroke="midnightblue" points="1119.2,-107.73 1127.79,-101.53 1117.21,-101.02 1119.2,-107.73"/>
</g>
</g>
</svg>
