<?xml version="1.0" encoding="UTF-8" standalone="no"?>
<!DOCTYPE svg PUBLIC "-//W3C//DTD SVG 1.1//EN"
 "http://www.w3.org/Graphics/SVG/1.1/DTD/svg11.dtd">
<!-- Generated by graphviz version 2.43.0 (0)
 -->
<!-- Title: /jenkins/jenlib_workspaces_f9/bld_nightly&#45;haldls.YmxkX25pZ2h0bHktaGFsZGxzIzcxMQ.x/haldls/include/haldls/vx/v1/synapse_driver.h Pages: 1 -->
<svg width="1214pt" height="329pt"
 viewBox="0.00 0.00 1213.52 329.00" xmlns="http://www.w3.org/2000/svg" xmlns:xlink="http://www.w3.org/1999/xlink">
<g id="graph0" class="graph" transform="scale(1 1) rotate(0) translate(4 325)">
<title>/jenkins/jenlib_workspaces_f9/bld_nightly&#45;haldls.YmxkX25pZ2h0bHktaGFsZGxzIzcxMQ.x/haldls/include/haldls/vx/v1/synapse_driver.h</title>
<polygon fill="white" stroke="transparent" points="-4,4 -4,-325 1209.52,-325 1209.52,4 -4,4"/>
<!-- Node0 -->
<g id="node1" class="node">
<title>Node0</title>
<g id="a_node1"><a xlink:title=" ">
<polygon fill="#bfbfbf" stroke="black" points="242.26,-264.5 242.26,-320.5 426.63,-320.5 426.63,-264.5 242.26,-264.5"/>
<text text-anchor="start" x="250.26" y="-307.5" font-family="Helvetica,sans-Serif" font-size="10.00">/jenkins/jenlib_workspaces</text>
<text text-anchor="start" x="250.26" y="-295.5" font-family="Helvetica,sans-Serif" font-size="10.00">_f9/bld_nightly&#45;haldls.YmxkX25p</text>
<text text-anchor="start" x="250.26" y="-283.5" font-family="Helvetica,sans-Serif" font-size="10.00">Z2h0bHktaGFsZGxzIzcxMQ.x/haldls</text>
<text text-anchor="middle" x="334.45" y="-271.5" font-family="Helvetica,sans-Serif" font-size="10.00">/include/haldls/vx/v1/synapse_driver.h</text>
</a>
</g>
</g>
<!-- Node1 -->
<g id="node2" class="node">
<title>Node1</title>
<g id="a_node2"><a xlink:title=" ">
<polygon fill="white" stroke="#bfbfbf" points="30.32,-195.5 30.32,-227.5 138.57,-227.5 138.57,-195.5 30.32,-195.5"/>
<text text-anchor="start" x="38.32" y="-214.5" font-family="Helvetica,sans-Serif" font-size="10.00">halco/hicann&#45;dls/vx</text>
<text text-anchor="middle" x="84.45" y="-202.5" font-family="Helvetica,sans-Serif" font-size="10.00">/v1/synapse_driver.h</text>
</a>
</g>
</g>
<!-- Node0&#45;&gt;Node1 -->
<g id="edge1" class="edge">
<title>Node0&#45;&gt;Node1</title>
<path fill="none" stroke="midnightblue" d="M248.76,-264.42C213.41,-253.25 173.38,-240.6 141.69,-230.59"/>
<polygon fill="midnightblue" stroke="midnightblue" points="142.72,-227.24 132.13,-227.57 140.61,-233.92 142.72,-227.24"/>
</g>
<!-- Node2 -->
<g id="node3" class="node">
<title>Node2</title>
<g id="a_node3"><a xlink:href="cerealization_8h.html" target="_top" xlink:title=" ">
<polygon fill="white" stroke="black" points="183.77,-69.5 183.77,-89.5 293.12,-89.5 293.12,-69.5 183.77,-69.5"/>
<text text-anchor="middle" x="238.45" y="-76.5" font-family="Helvetica,sans-Serif" font-size="10.00">haldls/cerealization.h</text>
</a>
</g>
</g>
<!-- Node0&#45;&gt;Node2 -->
<g id="edge2" class="edge">
<title>Node0&#45;&gt;Node2</title>
<path fill="none" stroke="midnightblue" d="M286.66,-264.43C251.39,-241.47 206.08,-204.95 185.45,-159 179.44,-145.62 179.32,-139.33 185.45,-126 191.28,-113.31 202.6,-102.82 213.28,-95.13"/>
<polygon fill="midnightblue" stroke="midnightblue" points="215.23,-98.04 221.59,-89.57 211.34,-92.22 215.23,-98.04"/>
</g>
<!-- Node8 -->
<g id="node9" class="node">
<title>Node8</title>
<g id="a_node9"><a xlink:href="genpybind_8h.html" target="_top" xlink:title=" ">
<polygon fill="white" stroke="black" points="1075.38,-6.5 1075.38,-26.5 1187.52,-26.5 1187.52,-6.5 1075.38,-6.5"/>
<text text-anchor="middle" x="1131.45" y="-13.5" font-family="Helvetica,sans-Serif" font-size="10.00">haldls/vx/genpybind.h</text>
</a>
</g>
</g>
<!-- Node0&#45;&gt;Node8 -->
<g id="edge8" class="edge">
<title>Node0&#45;&gt;Node8</title>
<path fill="none" stroke="midnightblue" d="M426.81,-287.18C606.22,-276.94 992.71,-245.22 1089.45,-159 1124.73,-127.55 1130.97,-67.97 1131.71,-37.12"/>
<polygon fill="midnightblue" stroke="midnightblue" points="1135.21,-36.84 1131.77,-26.82 1128.21,-36.8 1135.21,-36.84"/>
</g>
<!-- Node9 -->
<g id="node10" class="node">
<title>Node9</title>
<g id="a_node10"><a xlink:href="synapse__driver_8h.html" target="_top" xlink:title=" ">
<polygon fill="white" stroke="black" points="444.55,-201.5 444.55,-221.5 578.35,-221.5 578.35,-201.5 444.55,-201.5"/>
<text text-anchor="middle" x="511.45" y="-208.5" font-family="Helvetica,sans-Serif" font-size="10.00">haldls/vx/synapse_driver.h</text>
</a>
</g>
</g>
<!-- Node0&#45;&gt;Node9 -->
<g id="edge10" class="edge">
<title>Node0&#45;&gt;Node9</title>
<path fill="none" stroke="midnightblue" d="M395.36,-264.31C424.59,-251.27 458.27,-236.23 481.8,-225.73"/>
<polygon fill="midnightblue" stroke="midnightblue" points="483.52,-228.8 491.22,-221.53 480.66,-222.41 483.52,-228.8"/>
</g>
<!-- Node3 -->
<g id="node4" class="node">
<title>Node3</title>
<g id="a_node4"><a xlink:title=" ">
<polygon fill="white" stroke="#bfbfbf" points="340.82,-6.5 340.82,-26.5 424.07,-26.5 424.07,-6.5 340.82,-6.5"/>
<text text-anchor="middle" x="382.45" y="-13.5" font-family="Helvetica,sans-Serif" font-size="10.00">hate/type_list.h</text>
</a>
</g>
</g>
<!-- Node2&#45;&gt;Node3 -->
<g id="edge3" class="edge">
<title>Node2&#45;&gt;Node3</title>
<path fill="none" stroke="midnightblue" d="M259.7,-69.5C284.05,-59.18 324.17,-42.19 351.88,-30.45"/>
<polygon fill="midnightblue" stroke="midnightblue" points="353.27,-33.66 361.11,-26.54 350.54,-27.22 353.27,-33.66"/>
</g>
<!-- Node4 -->
<g id="node5" class="node">
<title>Node4</title>
<g id="a_node5"><a xlink:title=" ">
<polygon fill="white" stroke="#bfbfbf" points="241.94,-6.5 241.94,-26.5 322.95,-26.5 322.95,-6.5 241.94,-6.5"/>
<text text-anchor="middle" x="282.45" y="-13.5" font-family="Helvetica,sans-Serif" font-size="10.00">hate/visibility.h</text>
</a>
</g>
</g>
<!-- Node2&#45;&gt;Node4 -->
<g id="edge4" class="edge">
<title>Node2&#45;&gt;Node4</title>
<path fill="none" stroke="midnightblue" d="M244.94,-69.5C251.5,-60.4 261.82,-46.1 269.97,-34.8"/>
<polygon fill="midnightblue" stroke="midnightblue" points="272.92,-36.7 275.93,-26.54 267.24,-32.6 272.92,-36.7"/>
</g>
<!-- Node5 -->
<g id="node6" class="node">
<title>Node5</title>
<g id="a_node6"><a xlink:title=" ">
<polygon fill="white" stroke="#bfbfbf" points="0,-6.5 0,-26.5 44.89,-26.5 44.89,-6.5 0,-6.5"/>
<text text-anchor="middle" x="22.45" y="-13.5" font-family="Helvetica,sans-Serif" font-size="10.00">cstdint</text>
</a>
</g>
</g>
<!-- Node2&#45;&gt;Node5 -->
<g id="edge5" class="edge">
<title>Node2&#45;&gt;Node5</title>
<path fill="none" stroke="midnightblue" d="M190.37,-69.48C152.76,-61.74 99.48,-49.27 54.45,-33 52.58,-32.32 50.67,-31.57 48.76,-30.77"/>
<polygon fill="midnightblue" stroke="midnightblue" points="49.99,-27.49 39.43,-26.54 47.09,-33.86 49.99,-27.49"/>
</g>
<!-- Node6 -->
<g id="node7" class="node">
<title>Node6</title>
<g id="a_node7"><a xlink:title=" ">
<polygon fill="white" stroke="#bfbfbf" points="179.28,-6.5 179.28,-26.5 223.61,-26.5 223.61,-6.5 179.28,-6.5"/>
<text text-anchor="middle" x="201.45" y="-13.5" font-family="Helvetica,sans-Serif" font-size="10.00">iosfwd</text>
</a>
</g>
</g>
<!-- Node2&#45;&gt;Node6 -->
<g id="edge6" class="edge">
<title>Node2&#45;&gt;Node6</title>
<path fill="none" stroke="midnightblue" d="M232.99,-69.5C227.52,-60.49 218.97,-46.39 212.15,-35.14"/>
<polygon fill="midnightblue" stroke="midnightblue" points="215.11,-33.27 206.93,-26.54 209.12,-36.9 215.11,-33.27"/>
</g>
<!-- Node7 -->
<g id="node8" class="node">
<title>Node7</title>
<g id="a_node8"><a xlink:title=" ">
<polygon fill="white" stroke="#bfbfbf" points="63.33,-6.5 63.33,-26.5 161.57,-26.5 161.57,-6.5 63.33,-6.5"/>
<text text-anchor="middle" x="112.45" y="-13.5" font-family="Helvetica,sans-Serif" font-size="10.00">cereal/macros.hpp</text>
</a>
</g>
</g>
<!-- Node2&#45;&gt;Node7 -->
<g id="edge7" class="edge">
<title>Node2&#45;&gt;Node7</title>
<path fill="none" stroke="midnightblue" d="M219.86,-69.5C198.83,-59.32 164.36,-42.63 140.16,-30.91"/>
<polygon fill="midnightblue" stroke="midnightblue" points="141.64,-27.74 131.12,-26.54 138.59,-34.05 141.64,-27.74"/>
</g>
<!-- Node8&#45;&gt;Node8 -->
<g id="edge9" class="edge">
<title>Node8&#45;&gt;Node8</title>
<path fill="none" stroke="midnightblue" d="M1159.95,-26.56C1182.44,-30.45 1205.52,-27.1 1205.52,-16.5 1205.52,-7.48 1188.79,-3.71 1169.93,-5.19"/>
<polygon fill="midnightblue" stroke="midnightblue" points="1169.44,-1.72 1159.95,-6.44 1170.31,-8.67 1169.44,-1.72"/>
</g>
<!-- Node9&#45;&gt;Node2 -->
<g id="edge15" class="edge">
<title>Node9&#45;&gt;Node2</title>
<path fill="none" stroke="midnightblue" d="M470.21,-201.49C436.73,-193.2 388.93,-179.14 350.45,-159 329.1,-147.83 327.07,-139.97 307.45,-126 292.44,-115.32 275.13,-103.9 261.61,-95.18"/>
<polygon fill="midnightblue" stroke="midnightblue" points="263.23,-92.07 252.92,-89.62 259.45,-97.96 263.23,-92.07"/>
</g>
<!-- Node9&#45;&gt;Node4 -->
<g id="edge34" class="edge">
<title>Node9&#45;&gt;Node4</title>
<path fill="none" stroke="midnightblue" d="M493.96,-201.41C477.5,-192.27 452.87,-176.97 435.45,-159 402.49,-125.01 413.11,-101.25 378.45,-69 360.48,-52.28 336.06,-39.28 316.35,-30.52"/>
<polygon fill="midnightblue" stroke="midnightblue" points="317.67,-27.28 307.1,-26.57 314.91,-33.72 317.67,-27.28"/>
</g>
<!-- Node9&#45;&gt;Node6 -->
<g id="edge12" class="edge">
<title>Node9&#45;&gt;Node6</title>
<path fill="none" stroke="midnightblue" d="M489.71,-201.47C468.28,-192.14 434.97,-176.52 408.45,-159 356.88,-124.94 353.88,-103.27 302.45,-69 299.04,-66.73 257.48,-45.7 228.75,-31.23"/>
<polygon fill="midnightblue" stroke="midnightblue" points="230.08,-27.97 219.57,-26.6 226.93,-34.23 230.08,-27.97"/>
</g>
<!-- Node9&#45;&gt;Node8 -->
<g id="edge16" class="edge">
<title>Node9&#45;&gt;Node8</title>
<path fill="none" stroke="midnightblue" d="M537.36,-201.41C582.77,-185.55 679.79,-152.06 762.45,-126 880.27,-88.86 1020.51,-48.74 1089.23,-29.34"/>
<polygon fill="midnightblue" stroke="midnightblue" points="1090.56,-32.6 1099.24,-26.52 1088.66,-25.86 1090.56,-32.6"/>
</g>
<!-- Node10 -->
<g id="node11" class="node">
<title>Node10</title>
<g id="a_node11"><a xlink:title=" ">
<polygon fill="white" stroke="#bfbfbf" points="771.06,-132.5 771.06,-152.5 809.84,-152.5 809.84,-132.5 771.06,-132.5"/>
<text text-anchor="middle" x="790.45" y="-139.5" font-family="Helvetica,sans-Serif" font-size="10.00">array</text>
</a>
</g>
</g>
<!-- Node9&#45;&gt;Node10 -->
<g id="edge11" class="edge">
<title>Node9&#45;&gt;Node10</title>
<path fill="none" stroke="midnightblue" d="M574.44,-201.46C624.78,-193.26 696.72,-179.31 757.45,-159 759.38,-158.35 761.36,-157.62 763.32,-156.84"/>
<polygon fill="midnightblue" stroke="midnightblue" points="765.18,-159.85 772.95,-152.64 762.38,-153.43 765.18,-159.85"/>
</g>
<!-- Node11 -->
<g id="node12" class="node">
<title>Node11</title>
<g id="a_node12"><a xlink:title=" ">
<polygon fill="white" stroke="#bfbfbf" points="827.55,-132.5 827.55,-152.5 961.35,-152.5 961.35,-132.5 827.55,-132.5"/>
<text text-anchor="middle" x="894.45" y="-139.5" font-family="Helvetica,sans-Serif" font-size="10.00">halco/common/geometry.h</text>
</a>
</g>
</g>
<!-- Node9&#45;&gt;Node11 -->
<g id="edge13" class="edge">
<title>Node9&#45;&gt;Node11</title>
<path fill="none" stroke="midnightblue" d="M568.98,-201.46C630.75,-191.62 731.71,-175.12 818.45,-159 825.9,-157.61 833.76,-156.09 841.47,-154.55"/>
<polygon fill="midnightblue" stroke="midnightblue" points="842.38,-157.94 851.49,-152.53 841,-151.08 842.38,-157.94"/>
</g>
<!-- Node12 -->
<g id="node13" class="node">
<title>Node12</title>
<g id="a_node13"><a xlink:title=" ">
<polygon fill="white" stroke="#bfbfbf" points="978.94,-126.5 978.94,-158.5 1079.96,-158.5 1079.96,-126.5 978.94,-126.5"/>
<text text-anchor="start" x="986.94" y="-145.5" font-family="Helvetica,sans-Serif" font-size="10.00">halco/hicann&#45;dls/vx</text>
<text text-anchor="middle" x="1029.45" y="-133.5" font-family="Helvetica,sans-Serif" font-size="10.00">/synapse_driver.h</text>
</a>
</g>
</g>
<!-- Node9&#45;&gt;Node12 -->
<g id="edge14" class="edge">
<title>Node9&#45;&gt;Node12</title>
<path fill="none" stroke="midnightblue" d="M578.41,-206.05C666.17,-199.53 824.96,-185.41 968.81,-159.16"/>
<polygon fill="midnightblue" stroke="midnightblue" points="969.51,-162.59 978.7,-157.33 968.23,-155.71 969.51,-162.59"/>
</g>
<!-- Node13 -->
<g id="node14" class="node">
<title>Node13</title>
<g id="a_node14"><a xlink:href="sram__controller_8h.html" target="_top" xlink:title=" ">
<polygon fill="white" stroke="black" points="444,-132.5 444,-152.5 578.9,-152.5 578.9,-132.5 444,-132.5"/>
<text text-anchor="middle" x="511.45" y="-139.5" font-family="Helvetica,sans-Serif" font-size="10.00">haldls/vx/sram_controller.h</text>
</a>
</g>
</g>
<!-- Node9&#45;&gt;Node13 -->
<g id="edge17" class="edge">
<title>Node9&#45;&gt;Node13</title>
<path fill="none" stroke="midnightblue" d="M511.45,-201.46C511.45,-191.63 511.45,-175.61 511.45,-162.9"/>
<polygon fill="midnightblue" stroke="midnightblue" points="514.95,-162.82 511.45,-152.82 507.95,-162.82 514.95,-162.82"/>
</g>
<!-- Node18 -->
<g id="node19" class="node">
<title>Node18</title>
<g id="a_node19"><a xlink:href="traits_8h.html" target="_top" xlink:title=" ">
<polygon fill="white" stroke="black" points="677.61,-69.5 677.61,-89.5 765.29,-89.5 765.29,-69.5 677.61,-69.5"/>
<text text-anchor="middle" x="721.45" y="-76.5" font-family="Helvetica,sans-Serif" font-size="10.00">haldls/vx/traits.h</text>
</a>
</g>
</g>
<!-- Node9&#45;&gt;Node18 -->
<g id="edge33" class="edge">
<title>Node9&#45;&gt;Node18</title>
<path fill="none" stroke="midnightblue" d="M526.21,-201.36C562.14,-179.12 654.33,-122.05 697.93,-95.06"/>
<polygon fill="midnightblue" stroke="midnightblue" points="700.04,-97.87 706.7,-89.63 696.35,-91.92 700.04,-97.87"/>
</g>
<!-- Node23 -->
<g id="node24" class="node">
<title>Node23</title>
<g id="a_node24"><a xlink:title=" ">
<polygon fill="white" stroke="#bfbfbf" points="194.83,-132.5 194.83,-152.5 298.07,-152.5 298.07,-132.5 194.83,-132.5"/>
<text text-anchor="middle" x="246.45" y="-139.5" font-family="Helvetica,sans-Serif" font-size="10.00">hxcomm/vx/target.h</text>
</a>
</g>
</g>
<!-- Node9&#45;&gt;Node23 -->
<g id="edge35" class="edge">
<title>Node9&#45;&gt;Node23</title>
<path fill="none" stroke="midnightblue" d="M475.71,-201.46C428.29,-189.48 344.53,-168.3 292.44,-155.13"/>
<polygon fill="midnightblue" stroke="midnightblue" points="293.02,-151.66 282.47,-152.61 291.3,-158.45 293.02,-151.66"/>
</g>
<!-- Node13&#45;&gt;Node2 -->
<g id="edge18" class="edge">
<title>Node13&#45;&gt;Node2</title>
<path fill="none" stroke="midnightblue" d="M471.17,-132.5C422.68,-121.66 341.23,-103.46 288.68,-91.72"/>
<polygon fill="midnightblue" stroke="midnightblue" points="289.42,-88.3 278.89,-89.54 287.89,-95.13 289.42,-88.3"/>
</g>
<!-- Node13&#45;&gt;Node4 -->
<g id="edge32" class="edge">
<title>Node13&#45;&gt;Node4</title>
<path fill="none" stroke="midnightblue" d="M501.58,-132.42C485.02,-117.56 450.14,-87.82 416.45,-69 399.12,-59.32 351.48,-41.75 317.96,-29.85"/>
<polygon fill="midnightblue" stroke="midnightblue" points="319.08,-26.54 308.49,-26.51 316.75,-33.14 319.08,-26.54"/>
</g>
<!-- Node13&#45;&gt;Node8 -->
<g id="edge23" class="edge">
<title>Node13&#45;&gt;Node8</title>
<path fill="none" stroke="midnightblue" d="M579.17,-133.2C633.04,-125.42 709.83,-111.69 774.45,-90 794.61,-83.23 797.12,-75.26 817.45,-69 924.31,-36.07 956.62,-53.99 1066.45,-33 1072.8,-31.79 1079.48,-30.36 1086.02,-28.88"/>
<polygon fill="midnightblue" stroke="midnightblue" points="1087.2,-32.2 1096.15,-26.53 1085.62,-25.39 1087.2,-32.2"/>
</g>
<!-- Node14 -->
<g id="node15" class="node">
<title>Node14</title>
<g id="a_node15"><a xlink:href="common_8h.html" target="_top" xlink:title=" ">
<polygon fill="white" stroke="black" points="555.27,-69.5 555.27,-89.5 659.62,-89.5 659.62,-69.5 555.27,-69.5"/>
<text text-anchor="middle" x="607.45" y="-76.5" font-family="Helvetica,sans-Serif" font-size="10.00">haldls/vx/common.h</text>
</a>
</g>
</g>
<!-- Node13&#45;&gt;Node14 -->
<g id="edge19" class="edge">
<title>Node13&#45;&gt;Node14</title>
<path fill="none" stroke="midnightblue" d="M525.61,-132.5C541.14,-122.63 566.28,-106.66 584.6,-95.02"/>
<polygon fill="midnightblue" stroke="midnightblue" points="586.66,-97.85 593.22,-89.54 582.91,-91.95 586.66,-97.85"/>
</g>
<!-- Node13&#45;&gt;Node18 -->
<g id="edge24" class="edge">
<title>Node13&#45;&gt;Node18</title>
<path fill="none" stroke="midnightblue" d="M542.43,-132.5C579.04,-121.87 640.05,-104.14 680.52,-92.39"/>
<polygon fill="midnightblue" stroke="midnightblue" points="681.71,-95.69 690.33,-89.54 679.75,-88.97 681.71,-95.69"/>
</g>
<!-- Node22 -->
<g id="node23" class="node">
<title>Node22</title>
<g id="a_node23"><a xlink:title=" ">
<polygon fill="white" stroke="#bfbfbf" points="468.05,-69.5 468.05,-89.5 536.85,-89.5 536.85,-69.5 468.05,-69.5"/>
<text text-anchor="middle" x="502.45" y="-76.5" font-family="Helvetica,sans-Serif" font-size="10.00">hate/math.h</text>
</a>
</g>
</g>
<!-- Node13&#45;&gt;Node22 -->
<g id="edge31" class="edge">
<title>Node13&#45;&gt;Node22</title>
<path fill="none" stroke="midnightblue" d="M510.12,-132.5C508.84,-123.85 506.87,-110.51 505.25,-99.5"/>
<polygon fill="midnightblue" stroke="midnightblue" points="508.7,-98.92 503.78,-89.54 501.78,-99.94 508.7,-98.92"/>
</g>
<!-- Node15 -->
<g id="node16" class="node">
<title>Node15</title>
<g id="a_node16"><a xlink:title=" ">
<polygon fill="white" stroke="#bfbfbf" points="639.39,-6.5 639.39,-26.5 701.51,-26.5 701.51,-6.5 639.39,-6.5"/>
<text text-anchor="middle" x="670.45" y="-13.5" font-family="Helvetica,sans-Serif" font-size="10.00">type_traits</text>
</a>
</g>
</g>
<!-- Node14&#45;&gt;Node15 -->
<g id="edge20" class="edge">
<title>Node14&#45;&gt;Node15</title>
<path fill="none" stroke="midnightblue" d="M616.74,-69.5C626.42,-60.13 641.79,-45.25 653.61,-33.8"/>
<polygon fill="midnightblue" stroke="midnightblue" points="656.36,-36.01 661.11,-26.54 651.49,-30.98 656.36,-36.01"/>
</g>
<!-- Node16 -->
<g id="node17" class="node">
<title>Node16</title>
<g id="a_node17"><a xlink:title=" ">
<polygon fill="white" stroke="#bfbfbf" points="583.06,-6.5 583.06,-26.5 621.83,-26.5 621.83,-6.5 583.06,-6.5"/>
<text text-anchor="middle" x="602.45" y="-13.5" font-family="Helvetica,sans-Serif" font-size="10.00">utility</text>
</a>
</g>
</g>
<!-- Node14&#45;&gt;Node16 -->
<g id="edge21" class="edge">
<title>Node14&#45;&gt;Node16</title>
<path fill="none" stroke="midnightblue" d="M606.71,-69.5C606.01,-60.94 604.93,-47.78 604.03,-36.85"/>
<polygon fill="midnightblue" stroke="midnightblue" points="607.49,-36.22 603.19,-26.54 600.52,-36.79 607.49,-36.22"/>
</g>
<!-- Node17 -->
<g id="node18" class="node">
<title>Node17</title>
<g id="a_node18"><a xlink:title=" ">
<polygon fill="white" stroke="#bfbfbf" points="441.82,-6.5 441.82,-26.5 565.07,-26.5 565.07,-6.5 441.82,-6.5"/>
<text text-anchor="middle" x="503.45" y="-13.5" font-family="Helvetica,sans-Serif" font-size="10.00">fisch/vx/omnibus_data.h</text>
</a>
</g>
</g>
<!-- Node14&#45;&gt;Node17 -->
<g id="edge22" class="edge">
<title>Node14&#45;&gt;Node17</title>
<path fill="none" stroke="midnightblue" d="M592.1,-69.5C575.13,-59.54 547.55,-43.37 527.66,-31.7"/>
<polygon fill="midnightblue" stroke="midnightblue" points="529.25,-28.58 518.86,-26.54 525.71,-34.62 529.25,-28.58"/>
</g>
<!-- Node18&#45;&gt;Node3 -->
<g id="edge28" class="edge">
<title>Node18&#45;&gt;Node3</title>
<path fill="none" stroke="midnightblue" d="M677.5,-70.53C674.44,-70.01 671.4,-69.49 668.45,-69 563.78,-51.64 535.85,-56.77 432.45,-33 427.99,-31.98 423.36,-30.76 418.79,-29.46"/>
<polygon fill="midnightblue" stroke="midnightblue" points="419.56,-26.03 408.97,-26.53 417.56,-32.74 419.56,-26.03"/>
</g>
<!-- Node18&#45;&gt;Node8 -->
<g id="edge27" class="edge">
<title>Node18&#45;&gt;Node8</title>
<path fill="none" stroke="midnightblue" d="M765.44,-71.12C770.16,-70.38 774.9,-69.66 779.45,-69 906.68,-50.61 939.96,-55.94 1066.45,-33 1073.04,-31.8 1079.97,-30.36 1086.75,-28.84"/>
<polygon fill="midnightblue" stroke="midnightblue" points="1087.56,-32.24 1096.51,-26.57 1085.98,-25.42 1087.56,-32.24"/>
</g>
<!-- Node18&#45;&gt;Node15 -->
<g id="edge25" class="edge">
<title>Node18&#45;&gt;Node15</title>
<path fill="none" stroke="midnightblue" d="M713.92,-69.5C706.24,-60.31 694.12,-45.82 684.63,-34.47"/>
<polygon fill="midnightblue" stroke="midnightblue" points="687.1,-31.96 678,-26.54 681.73,-36.45 687.1,-31.96"/>
</g>
<!-- Node19 -->
<g id="node20" class="node">
<title>Node19</title>
<g id="a_node20"><a xlink:title=" ">
<polygon fill="white" stroke="#bfbfbf" points="847.83,-0.5 847.83,-32.5 941.07,-32.5 941.07,-0.5 847.83,-0.5"/>
<text text-anchor="start" x="855.83" y="-19.5" font-family="Helvetica,sans-Serif" font-size="10.00">fisch/vx/container</text>
<text text-anchor="middle" x="894.45" y="-7.5" font-family="Helvetica,sans-Serif" font-size="10.00">_fwd.h</text>
</a>
</g>
</g>
<!-- Node18&#45;&gt;Node19 -->
<g id="edge26" class="edge">
<title>Node18&#45;&gt;Node19</title>
<path fill="none" stroke="midnightblue" d="M746.97,-69.5C771.93,-60.7 810.67,-47.04 842.18,-35.93"/>
<polygon fill="midnightblue" stroke="midnightblue" points="843.43,-39.2 851.7,-32.57 841.11,-32.6 843.43,-39.2"/>
</g>
<!-- Node20 -->
<g id="node21" class="node">
<title>Node20</title>
<g id="a_node21"><a xlink:title=" ">
<polygon fill="white" stroke="#bfbfbf" points="959.05,-0.5 959.05,-32.5 1057.85,-32.5 1057.85,-0.5 959.05,-0.5"/>
<text text-anchor="start" x="967.05" y="-19.5" font-family="Helvetica,sans-Serif" font-size="10.00">boost/utility/enable</text>
<text text-anchor="middle" x="1008.45" y="-7.5" font-family="Helvetica,sans-Serif" font-size="10.00">_if.hpp</text>
</a>
</g>
</g>
<!-- Node18&#45;&gt;Node20 -->
<g id="edge29" class="edge">
<title>Node18&#45;&gt;Node20</title>
<path fill="none" stroke="midnightblue" d="M765.53,-70.62C809.7,-62.53 879.84,-49.15 949.07,-33.25"/>
<polygon fill="midnightblue" stroke="midnightblue" points="949.87,-36.65 958.83,-30.99 948.29,-29.83 949.87,-36.65"/>
</g>
<!-- Node21 -->
<g id="node22" class="node">
<title>Node21</title>
<g id="a_node22"><a xlink:title=" ">
<polygon fill="white" stroke="#bfbfbf" points="719.49,-6.5 719.49,-26.5 829.4,-26.5 829.4,-6.5 719.49,-6.5"/>
<text text-anchor="middle" x="774.45" y="-13.5" font-family="Helvetica,sans-Serif" font-size="10.00">fisch/vx/container.def</text>
</a>
</g>
</g>
<!-- Node18&#45;&gt;Node21 -->
<g id="edge30" class="edge">
<title>Node18&#45;&gt;Node21</title>
<path fill="none" stroke="midnightblue" d="M729.27,-69.5C737.33,-60.22 750.09,-45.53 759.99,-34.13"/>
<polygon fill="midnightblue" stroke="midnightblue" points="762.68,-36.38 766.6,-26.54 757.39,-31.79 762.68,-36.38"/>
</g>
</g>
</svg>
