<?xml version="1.0" encoding="UTF-8" standalone="no"?>
<!DOCTYPE svg PUBLIC "-//W3C//DTD SVG 1.1//EN"
 "http://www.w3.org/Graphics/SVG/1.1/DTD/svg11.dtd">
<!-- Generated by graphviz version 2.43.0 (0)
 -->
<!-- Title: /jenkins/jenlib_workspaces_f9/bld_nightly&#45;haldls.YmxkX25pZ2h0bHktaGFsZGxzIzcxMQ.x/haldls/include/haldls/vx/v1/constants.h Pages: 1 -->
<!--zoomable 317 -->
<svg id="main" version="1.1" xmlns="http://www.w3.org/2000/svg" xmlns:xlink="http://www.w3.org/1999/xlink" xml:space="preserve" onload="init(evt)">
<style type="text/css"><![CDATA[
.edge:hover path { stroke: red; }
.edge:hover polygon { stroke: red; fill: red; }
]]></style>
<script type="text/javascript"><![CDATA[
var edges = document.getElementsByTagName('g');
if (edges && edges.length) {
  for (var i=0;i<edges.length;i++) {
    if (edges[i].id.substr(0,4)=='edge') {
      edges[i].setAttribute('class','edge');
    }
  }
}
]]></script>
        <defs>
                <circle id="rim" cx="0" cy="0" r="7"/>
                <circle id="rim2" cx="0" cy="0" r="3.5"/>
                <g id="zoomPlus">
                        <use xlink:href="#rim" fill="#404040">
                                <set attributeName="fill" to="#808080" begin="zoomplus.mouseover" end="zoomplus.mouseout"/>
                        </use>
                        <path d="M-4,0h8M0,-4v8" fill="none" stroke="white" stroke-width="1.5" pointer-events="none"/>
                </g>
                <g id="zoomMin">
                        <use xlink:href="#rim" fill="#404040">
                                <set attributeName="fill" to="#808080" begin="zoomminus.mouseover" end="zoomminus.mouseout"/>
                        </use>
                        <path d="M-4,0h8" fill="none" stroke="white" stroke-width="1.5" pointer-events="none"/>
                </g>
                <g id="dirArrow">
                        <path fill="none" stroke="white" stroke-width="1.5" d="M0,-3.0v7 M-2.5,-0.5L0,-3.0L2.5,-0.5"/>
                </g>
               <g id="resetDef">
                       <use xlink:href="#rim2" fill="#404040">
                               <set attributeName="fill" to="#808080" begin="reset.mouseover" end="reset.mouseout"/>
                       </use>
               </g>
        </defs>

<script type="text/javascript">
var viewWidth = 1211;
var viewHeight = 317;
var sectionId = 'dynsection-0';
</script>
<script xlink:href="svgpan.js"/>
<svg id="graph" class="graph">
<g id="viewport">
<title>/jenkins/jenlib_workspaces_f9/bld_nightly&#45;haldls.YmxkX25pZ2h0bHktaGFsZGxzIzcxMQ.x/haldls/include/haldls/vx/v1/constants.h</title>
<polygon fill="white" stroke="transparent" points="-4,4 -4,-313 1206.58,-313 1206.58,4 -4,4"/>
<!-- Node0 -->
<g id="node1" class="node">
<title>Node0</title>
<g id="a_node1"><a xlink:title=" ">
<polygon fill="#bfbfbf" stroke="black" points="7.95,-252.5 7.95,-308.5 186.19,-308.5 186.19,-252.5 7.95,-252.5"/>
<text text-anchor="start" x="15.95" y="-295.5" font-family="Helvetica,sans-Serif" font-size="10.00">/jenkins/jenlib_workspaces</text>
<text text-anchor="start" x="15.95" y="-283.5" font-family="Helvetica,sans-Serif" font-size="10.00">_f9/bld_nightly&#45;haldls.YmxkX25p</text>
<text text-anchor="start" x="15.95" y="-271.5" font-family="Helvetica,sans-Serif" font-size="10.00">Z2h0bHktaGFsZGxzIzcxMQ.x/haldls</text>
<text text-anchor="middle" x="97.07" y="-259.5" font-family="Helvetica,sans-Serif" font-size="10.00">/include/haldls/vx/v1/constants.h</text>
</a>
</g>
</g>
<!-- Node1 -->
<g id="node2" class="node">
<title>Node1</title>
<g id="a_node2"><a xlink:href="constants_8h.html" target="_top" xlink:title=" ">
<polygon fill="white" stroke="black" points="83.67,-195.5 83.67,-215.5 192.47,-215.5 192.47,-195.5 83.67,-195.5"/>
<text text-anchor="middle" x="138.07" y="-202.5" font-family="Helvetica,sans-Serif" font-size="10.00">haldls/vx/constants.h</text>
</a>
</g>
</g>
<!-- Node0&#45;&gt;Node1 -->
<g id="edge1" class="edge">
<title>Node0&#45;&gt;Node1</title>
<path fill="none" stroke="midnightblue" d="M112.34,-252.32C117.57,-242.99 123.3,-232.8 128.02,-224.4"/>
<polygon fill="midnightblue" stroke="midnightblue" points="131.16,-225.96 133,-215.52 125.05,-222.53 131.16,-225.96"/>
</g>
<!-- Node2 -->
<g id="node3" class="node">
<title>Node2</title>
<g id="a_node3"><a xlink:href="genpybind_8h.html" target="_top" xlink:title=" ">
<polygon fill="white" stroke="black" points="0,-6.5 0,-26.5 112.14,-26.5 112.14,-6.5 0,-6.5"/>
<text text-anchor="middle" x="56.07" y="-13.5" font-family="Helvetica,sans-Serif" font-size="10.00">haldls/vx/genpybind.h</text>
</a>
</g>
</g>
<!-- Node0&#45;&gt;Node2 -->
<g id="edge25" class="edge">
<title>Node0&#45;&gt;Node2</title>
<path fill="none" stroke="midnightblue" d="M86.09,-252.4C82.01,-241.29 77.73,-228.2 75.07,-216 60.98,-151.29 57.34,-72.45 56.4,-36.73"/>
<polygon fill="midnightblue" stroke="midnightblue" points="59.9,-36.64 56.18,-26.72 52.9,-36.8 59.9,-36.64"/>
</g>
<!-- Node1&#45;&gt;Node2 -->
<g id="edge2" class="edge">
<title>Node1&#45;&gt;Node2</title>
<path fill="none" stroke="midnightblue" d="M134.12,-195.48C121.43,-166.55 81.58,-75.66 64.25,-36.15"/>
<polygon fill="midnightblue" stroke="midnightblue" points="67.4,-34.62 60.18,-26.87 60.99,-37.43 67.4,-34.62"/>
</g>
<!-- Node3 -->
<g id="node4" class="node">
<title>Node3</title>
<g id="a_node4"><a xlink:href="timer_8h.html" target="_top" xlink:title=" ">
<polygon fill="white" stroke="black" points="652.96,-138.5 652.96,-158.5 741.18,-158.5 741.18,-138.5 652.96,-138.5"/>
<text text-anchor="middle" x="697.07" y="-145.5" font-family="Helvetica,sans-Serif" font-size="10.00">haldls/vx/timer.h</text>
</a>
</g>
</g>
<!-- Node1&#45;&gt;Node3 -->
<g id="edge4" class="edge">
<title>Node1&#45;&gt;Node3</title>
<path fill="none" stroke="midnightblue" d="M192.69,-199.13C299.7,-188.6 535.83,-165.36 642.67,-154.85"/>
<polygon fill="midnightblue" stroke="midnightblue" points="643.29,-158.31 652.9,-153.85 642.61,-151.34 643.29,-158.31"/>
</g>
<!-- Node2&#45;&gt;Node2 -->
<g id="edge3" class="edge">
<title>Node2&#45;&gt;Node2</title>
<path fill="none" stroke="midnightblue" d="M79.97,-26.54C103.79,-32.26 130.14,-28.92 130.14,-16.5 130.14,-5.78 110.51,-1.82 89.81,-4.62"/>
<polygon fill="midnightblue" stroke="midnightblue" points="89.15,-1.18 79.97,-6.46 90.44,-8.06 89.15,-1.18"/>
</g>
<!-- Node3&#45;&gt;Node2 -->
<g id="edge16" class="edge">
<title>Node3&#45;&gt;Node2</title>
<path fill="none" stroke="midnightblue" d="M652.77,-144.32C584.29,-138.87 448.84,-125.95 336.07,-102 245.78,-82.83 142.53,-48.28 90.26,-29.85"/>
<polygon fill="midnightblue" stroke="midnightblue" points="91.4,-26.54 80.8,-26.5 89.06,-33.14 91.4,-26.54"/>
</g>
<!-- Node4 -->
<g id="node5" class="node">
<title>Node4</title>
<g id="a_node5"><a xlink:title=" ">
<polygon fill="white" stroke="#bfbfbf" points="589.68,-75.5 589.68,-95.5 628.46,-95.5 628.46,-75.5 589.68,-75.5"/>
<text text-anchor="middle" x="609.07" y="-82.5" font-family="Helvetica,sans-Serif" font-size="10.00">array</text>
</a>
</g>
</g>
<!-- Node3&#45;&gt;Node4 -->
<g id="edge5" class="edge">
<title>Node3&#45;&gt;Node4</title>
<path fill="none" stroke="midnightblue" d="M684.09,-138.5C670.05,-128.77 647.44,-113.1 630.71,-101.5"/>
<polygon fill="midnightblue" stroke="midnightblue" points="632.32,-98.36 622.11,-95.54 628.33,-104.11 632.32,-98.36"/>
</g>
<!-- Node5 -->
<g id="node6" class="node">
<title>Node5</title>
<g id="a_node6"><a xlink:title=" ">
<polygon fill="white" stroke="#bfbfbf" points="685.9,-6.5 685.9,-26.5 730.24,-26.5 730.24,-6.5 685.9,-6.5"/>
<text text-anchor="middle" x="708.07" y="-13.5" font-family="Helvetica,sans-Serif" font-size="10.00">iosfwd</text>
</a>
</g>
</g>
<!-- Node3&#45;&gt;Node5 -->
<g id="edge6" class="edge">
<title>Node3&#45;&gt;Node5</title>
<path fill="none" stroke="midnightblue" d="M691.02,-138.2C685.63,-129.32 678.13,-115.34 675.07,-102 671.8,-87.7 670.95,-83.08 675.07,-69 678.74,-56.49 686.47,-44.13 693.54,-34.66"/>
<polygon fill="midnightblue" stroke="midnightblue" points="696.49,-36.57 699.95,-26.55 691,-32.23 696.49,-36.57"/>
</g>
<!-- Node6 -->
<g id="node7" class="node">
<title>Node6</title>
<g id="a_node7"><a xlink:title=" ">
<polygon fill="white" stroke="#bfbfbf" points="849.74,-75.5 849.74,-95.5 932.41,-95.5 932.41,-75.5 849.74,-75.5"/>
<text text-anchor="middle" x="891.07" y="-82.5" font-family="Helvetica,sans-Serif" font-size="10.00">fisch/vx/timer.h</text>
</a>
</g>
</g>
<!-- Node3&#45;&gt;Node6 -->
<g id="edge7" class="edge">
<title>Node3&#45;&gt;Node6</title>
<path fill="none" stroke="midnightblue" d="M725.7,-138.5C759.37,-127.91 815.4,-110.29 852.78,-98.54"/>
<polygon fill="midnightblue" stroke="midnightblue" points="853.84,-101.88 862.33,-95.54 851.74,-95.2 853.84,-101.88"/>
</g>
<!-- Node7 -->
<g id="node8" class="node">
<title>Node7</title>
<g id="a_node8"><a xlink:title=" ">
<polygon fill="white" stroke="#bfbfbf" points="950.17,-75.5 950.17,-95.5 1083.97,-95.5 1083.97,-75.5 950.17,-75.5"/>
<text text-anchor="middle" x="1017.07" y="-82.5" font-family="Helvetica,sans-Serif" font-size="10.00">halco/common/geometry.h</text>
</a>
</g>
</g>
<!-- Node3&#45;&gt;Node7 -->
<g id="edge8" class="edge">
<title>Node3&#45;&gt;Node7</title>
<path fill="none" stroke="midnightblue" d="M741.19,-139.5C790.1,-130.59 871.29,-115.62 941.07,-102 948.25,-100.6 955.8,-99.09 963.25,-97.59"/>
<polygon fill="midnightblue" stroke="midnightblue" points="964.18,-100.98 973.29,-95.56 962.8,-94.11 964.18,-100.98"/>
</g>
<!-- Node8 -->
<g id="node9" class="node">
<title>Node8</title>
<g id="a_node9"><a xlink:title=" ">
<polygon fill="white" stroke="#bfbfbf" points="1101.56,-69.5 1101.56,-101.5 1202.58,-101.5 1202.58,-69.5 1101.56,-69.5"/>
<text text-anchor="start" x="1109.56" y="-88.5" font-family="Helvetica,sans-Serif" font-size="10.00">halco/hicann&#45;dls/vx</text>
<text text-anchor="middle" x="1152.07" y="-76.5" font-family="Helvetica,sans-Serif" font-size="10.00">/timing.h</text>
</a>
</g>
</g>
<!-- Node3&#45;&gt;Node8 -->
<g id="edge9" class="edge">
<title>Node3&#45;&gt;Node8</title>
<path fill="none" stroke="midnightblue" d="M741.33,-144.48C813.05,-139.15 959.21,-126.4 1091.43,-102.16"/>
<polygon fill="midnightblue" stroke="midnightblue" points="1092.14,-105.59 1101.33,-100.32 1090.86,-98.71 1092.14,-105.59"/>
</g>
<!-- Node9 -->
<g id="node10" class="node">
<title>Node9</title>
<g id="a_node10"><a xlink:href="cerealization_8h.html" target="_top" xlink:title=" ">
<polygon fill="white" stroke="black" points="684.4,-75.5 684.4,-95.5 793.75,-95.5 793.75,-75.5 684.4,-75.5"/>
<text text-anchor="middle" x="739.07" y="-82.5" font-family="Helvetica,sans-Serif" font-size="10.00">haldls/cerealization.h</text>
</a>
</g>
</g>
<!-- Node3&#45;&gt;Node9 -->
<g id="edge10" class="edge">
<title>Node3&#45;&gt;Node9</title>
<path fill="none" stroke="midnightblue" d="M703.27,-138.5C709.53,-129.4 719.38,-115.1 727.16,-103.8"/>
<polygon fill="midnightblue" stroke="midnightblue" points="730.06,-105.76 732.85,-95.54 724.29,-101.79 730.06,-105.76"/>
</g>
<!-- Node11 -->
<g id="node12" class="node">
<title>Node11</title>
<g id="a_node12"><a xlink:title=" ">
<polygon fill="white" stroke="#bfbfbf" points="928.57,-6.5 928.57,-26.5 1009.57,-26.5 1009.57,-6.5 928.57,-6.5"/>
<text text-anchor="middle" x="969.07" y="-13.5" font-family="Helvetica,sans-Serif" font-size="10.00">hate/visibility.h</text>
</a>
</g>
</g>
<!-- Node3&#45;&gt;Node11 -->
<g id="edge24" class="edge">
<title>Node3&#45;&gt;Node11</title>
<path fill="none" stroke="midnightblue" d="M724.34,-138.45C746.46,-130.5 777.96,-117.75 803.07,-102 822.02,-90.11 821.99,-80.67 841.07,-69 868.8,-52.05 903.08,-38.6 929.19,-29.7"/>
<polygon fill="midnightblue" stroke="midnightblue" points="930.38,-32.99 938.77,-26.52 928.17,-26.35 930.38,-32.99"/>
</g>
<!-- Node14 -->
<g id="node15" class="node">
<title>Node14</title>
<g id="a_node15"><a xlink:href="traits_8h.html" target="_top" xlink:title=" ">
<polygon fill="white" stroke="black" points="345.23,-75.5 345.23,-95.5 432.91,-95.5 432.91,-75.5 345.23,-75.5"/>
<text text-anchor="middle" x="389.07" y="-82.5" font-family="Helvetica,sans-Serif" font-size="10.00">haldls/vx/traits.h</text>
</a>
</g>
</g>
<!-- Node3&#45;&gt;Node14 -->
<g id="edge17" class="edge">
<title>Node3&#45;&gt;Node14</title>
<path fill="none" stroke="midnightblue" d="M652.94,-138.76C597.59,-127.8 502.74,-109.01 443.1,-97.2"/>
<polygon fill="midnightblue" stroke="midnightblue" points="443.61,-93.73 433.12,-95.22 442.25,-100.6 443.61,-93.73"/>
</g>
<!-- Node9&#45;&gt;Node5 -->
<g id="edge14" class="edge">
<title>Node9&#45;&gt;Node5</title>
<path fill="none" stroke="midnightblue" d="M734.89,-75.46C730.25,-65.43 722.63,-48.96 716.69,-36.13"/>
<polygon fill="midnightblue" stroke="midnightblue" points="719.76,-34.43 712.38,-26.82 713.41,-37.37 719.76,-34.43"/>
</g>
<!-- Node10 -->
<g id="node11" class="node">
<title>Node10</title>
<g id="a_node11"><a xlink:title=" ">
<polygon fill="white" stroke="#bfbfbf" points="584.45,-6.5 584.45,-26.5 667.69,-26.5 667.69,-6.5 584.45,-6.5"/>
<text text-anchor="middle" x="626.07" y="-13.5" font-family="Helvetica,sans-Serif" font-size="10.00">hate/type_list.h</text>
</a>
</g>
</g>
<!-- Node9&#45;&gt;Node10 -->
<g id="edge11" class="edge">
<title>Node9&#45;&gt;Node10</title>
<path fill="none" stroke="midnightblue" d="M723.83,-75.46C704.96,-64.28 672.59,-45.08 650.3,-31.86"/>
<polygon fill="midnightblue" stroke="midnightblue" points="651.82,-28.7 641.43,-26.61 648.25,-34.72 651.82,-28.7"/>
</g>
<!-- Node9&#45;&gt;Node11 -->
<g id="edge12" class="edge">
<title>Node9&#45;&gt;Node11</title>
<path fill="none" stroke="midnightblue" d="M771.65,-75.41C807.76,-65.28 867.67,-48.32 919.07,-33 922.83,-31.88 926.75,-30.69 930.66,-29.5"/>
<polygon fill="midnightblue" stroke="midnightblue" points="931.75,-32.83 940.28,-26.54 929.7,-26.14 931.75,-32.83"/>
</g>
<!-- Node12 -->
<g id="node13" class="node">
<title>Node12</title>
<g id="a_node13"><a xlink:title=" ">
<polygon fill="white" stroke="#bfbfbf" points="748.62,-6.5 748.62,-26.5 793.52,-26.5 793.52,-6.5 748.62,-6.5"/>
<text text-anchor="middle" x="771.07" y="-13.5" font-family="Helvetica,sans-Serif" font-size="10.00">cstdint</text>
</a>
</g>
</g>
<!-- Node9&#45;&gt;Node12 -->
<g id="edge13" class="edge">
<title>Node9&#45;&gt;Node12</title>
<path fill="none" stroke="midnightblue" d="M743.39,-75.46C748.18,-65.43 756.05,-48.96 762.17,-36.13"/>
<polygon fill="midnightblue" stroke="midnightblue" points="765.47,-37.35 766.62,-26.82 759.15,-34.34 765.47,-37.35"/>
</g>
<!-- Node13 -->
<g id="node14" class="node">
<title>Node13</title>
<g id="a_node14"><a xlink:title=" ">
<polygon fill="white" stroke="#bfbfbf" points="811.95,-6.5 811.95,-26.5 910.19,-26.5 910.19,-6.5 811.95,-6.5"/>
<text text-anchor="middle" x="861.07" y="-13.5" font-family="Helvetica,sans-Serif" font-size="10.00">cereal/macros.hpp</text>
</a>
</g>
</g>
<!-- Node9&#45;&gt;Node13 -->
<g id="edge15" class="edge">
<title>Node9&#45;&gt;Node13</title>
<path fill="none" stroke="midnightblue" d="M755.52,-75.46C776.08,-64.18 811.48,-44.74 835.56,-31.51"/>
<polygon fill="midnightblue" stroke="midnightblue" points="837.41,-34.49 844.49,-26.61 834.04,-28.35 837.41,-34.49"/>
</g>
<!-- Node14&#45;&gt;Node2 -->
<g id="edge20" class="edge">
<title>Node14&#45;&gt;Node2</title>
<path fill="none" stroke="midnightblue" d="M345.2,-75.67C284.93,-63.55 176.56,-41.74 110.99,-28.55"/>
<polygon fill="midnightblue" stroke="midnightblue" points="111.34,-25.05 100.84,-26.51 109.96,-31.91 111.34,-25.05"/>
</g>
<!-- Node14&#45;&gt;Node10 -->
<g id="edge21" class="edge">
<title>Node14&#45;&gt;Node10</title>
<path fill="none" stroke="midnightblue" d="M422.74,-75.45C460.06,-65.35 521.98,-48.42 575.07,-33 578.91,-31.89 582.91,-30.71 586.9,-29.51"/>
<polygon fill="midnightblue" stroke="midnightblue" points="588.15,-32.79 596.71,-26.56 586.13,-26.09 588.15,-32.79"/>
</g>
<!-- Node15 -->
<g id="node16" class="node">
<title>Node15</title>
<g id="a_node16"><a xlink:title=" ">
<polygon fill="white" stroke="#bfbfbf" points="148.01,-6.5 148.01,-26.5 210.13,-26.5 210.13,-6.5 148.01,-6.5"/>
<text text-anchor="middle" x="179.07" y="-13.5" font-family="Helvetica,sans-Serif" font-size="10.00">type_traits</text>
</a>
</g>
</g>
<!-- Node14&#45;&gt;Node15 -->
<g id="edge18" class="edge">
<title>Node14&#45;&gt;Node15</title>
<path fill="none" stroke="midnightblue" d="M356.56,-75.44C322.18,-65.68 266.45,-49.33 219.07,-33 216.52,-32.12 213.89,-31.18 211.25,-30.21"/>
<polygon fill="midnightblue" stroke="midnightblue" points="212.4,-26.9 201.81,-26.65 209.93,-33.45 212.4,-26.9"/>
</g>
<!-- Node16 -->
<g id="node17" class="node">
<title>Node16</title>
<g id="a_node17"><a xlink:title=" ">
<polygon fill="white" stroke="#bfbfbf" points="228.45,-0.5 228.45,-32.5 321.69,-32.5 321.69,-0.5 228.45,-0.5"/>
<text text-anchor="start" x="236.45" y="-19.5" font-family="Helvetica,sans-Serif" font-size="10.00">fisch/vx/container</text>
<text text-anchor="middle" x="275.07" y="-7.5" font-family="Helvetica,sans-Serif" font-size="10.00">_fwd.h</text>
</a>
</g>
</g>
<!-- Node14&#45;&gt;Node16 -->
<g id="edge19" class="edge">
<title>Node14&#45;&gt;Node16</title>
<path fill="none" stroke="midnightblue" d="M373.7,-75.46C357.32,-65.84 330.86,-50.29 309.46,-37.71"/>
<polygon fill="midnightblue" stroke="midnightblue" points="311.05,-34.58 300.65,-32.53 307.5,-40.62 311.05,-34.58"/>
</g>
<!-- Node17 -->
<g id="node18" class="node">
<title>Node17</title>
<g id="a_node18"><a xlink:title=" ">
<polygon fill="white" stroke="#bfbfbf" points="339.67,-0.5 339.67,-32.5 438.47,-32.5 438.47,-0.5 339.67,-0.5"/>
<text text-anchor="start" x="347.67" y="-19.5" font-family="Helvetica,sans-Serif" font-size="10.00">boost/utility/enable</text>
<text text-anchor="middle" x="389.07" y="-7.5" font-family="Helvetica,sans-Serif" font-size="10.00">_if.hpp</text>
</a>
</g>
</g>
<!-- Node14&#45;&gt;Node17 -->
<g id="edge22" class="edge">
<title>Node14&#45;&gt;Node17</title>
<path fill="none" stroke="midnightblue" d="M389.07,-75.46C389.07,-67.04 389.07,-54.08 389.07,-42.55"/>
<polygon fill="midnightblue" stroke="midnightblue" points="392.57,-42.53 389.07,-32.53 385.57,-42.53 392.57,-42.53"/>
</g>
<!-- Node18 -->
<g id="node19" class="node">
<title>Node18</title>
<g id="a_node19"><a xlink:title=" ">
<polygon fill="white" stroke="#bfbfbf" points="456.12,-6.5 456.12,-26.5 566.03,-26.5 566.03,-6.5 456.12,-6.5"/>
<text text-anchor="middle" x="511.07" y="-13.5" font-family="Helvetica,sans-Serif" font-size="10.00">fisch/vx/container.def</text>
</a>
</g>
</g>
<!-- Node14&#45;&gt;Node18 -->
<g id="edge23" class="edge">
<title>Node14&#45;&gt;Node18</title>
<path fill="none" stroke="midnightblue" d="M405.52,-75.46C426.08,-64.18 461.48,-44.74 485.56,-31.51"/>
<polygon fill="midnightblue" stroke="midnightblue" points="487.41,-34.49 494.49,-26.61 484.04,-28.35 487.41,-34.49"/>
</g>
</g>
</svg>
        <g id="navigator" transform="translate(0 0)" fill="#404254">
                <rect fill="#f2f5e9" fill-opacity="0.5" stroke="#606060" stroke-width=".5" x="0" y="0" width="60" height="60"/>
                <use id="zoomplus" xlink:href="#zoomPlus" x="17" y="9" onmousedown="handleZoom(evt,'in')"/>
                <use id="zoomminus" xlink:href="#zoomMin" x="42" y="9" onmousedown="handleZoom(evt,'out')"/>
                <use id="reset" xlink:href="#resetDef" x="30" y="36" onmousedown="handleReset()"/>
                <g id="arrowUp" xlink:href="#dirArrow" transform="translate(30 24)" onmousedown="handlePan(0,-1)">
                  <use xlink:href="#rim" fill="#404040">
                        <set attributeName="fill" to="#808080" begin="arrowUp.mouseover" end="arrowUp.mouseout"/>
                  </use>
                  <path fill="none" stroke="white" stroke-width="1.5" d="M0,-3.0v7 M-2.5,-0.5L0,-3.0L2.5,-0.5"/>
                </g>
                <g id="arrowRight" xlink:href="#dirArrow" transform="rotate(90) translate(36 -43)" onmousedown="handlePan(1,0)">
                  <use xlink:href="#rim" fill="#404040">
                        <set attributeName="fill" to="#808080" begin="arrowRight.mouseover" end="arrowRight.mouseout"/>
                  </use>
                  <path fill="none" stroke="white" stroke-width="1.5" d="M0,-3.0v7 M-2.5,-0.5L0,-3.0L2.5,-0.5"/>
                </g>
                <g id="arrowDown" xlink:href="#dirArrow" transform="rotate(180) translate(-30 -48)" onmousedown="handlePan(0,1)">
                  <use xlink:href="#rim" fill="#404040">
                        <set attributeName="fill" to="#808080" begin="arrowDown.mouseover" end="arrowDown.mouseout"/>
                  </use>
                  <path fill="none" stroke="white" stroke-width="1.5" d="M0,-3.0v7 M-2.5,-0.5L0,-3.0L2.5,-0.5"/>
                </g>
                <g id="arrowLeft" xlink:href="#dirArrow" transform="rotate(270) translate(-36 17)" onmousedown="handlePan(-1,0)">
                  <use xlink:href="#rim" fill="#404040">
                        <set attributeName="fill" to="#808080" begin="arrowLeft.mouseover" end="arrowLeft.mouseout"/>
                  </use>
                  <path fill="none" stroke="white" stroke-width="1.5" d="M0,-3.0v7 M-2.5,-0.5L0,-3.0L2.5,-0.5"/>
                </g>
        </g>
        <svg viewBox="0 0 15 15" width="100%" height="30px" preserveAspectRatio="xMaxYMin meet">
         <g id="arrow_out" transform="scale(0.3 0.3)">
          <a xlink:href="v1_2constants_8h__incl_org.svg" target="_base">
           <rect id="button" ry="5" rx="5" y="6" x="6" height="38" width="38"
                fill="#f2f5e9" fill-opacity="0.5" stroke="#606060" stroke-width="1.0"/>
           <path id="arrow"
             d="M 11.500037,31.436501 C 11.940474,20.09759 22.043105,11.32322 32.158766,21.979434 L 37.068811,17.246167 C 37.068811,17.246167 37.088388,32 37.088388,32 L 22.160133,31.978069 C 22.160133,31.978069 26.997745,27.140456 26.997745,27.140456 C 18.528582,18.264221 13.291696,25.230495 11.500037,31.436501 z"
             style="fill:#404040;"/>
          </a>
         </g>
        </svg>
</svg>
