<?xml version="1.0" encoding="UTF-8" standalone="no"?>
<!DOCTYPE svg PUBLIC "-//W3C//DTD SVG 1.1//EN"
 "http://www.w3.org/Graphics/SVG/1.1/DTD/svg11.dtd">
<!-- Generated by graphviz version 2.43.0 (0)
 -->
<!-- Title: /jenkins/jenlib_workspaces_f9/bld_nightly&#45;haldls.YmxkX25pZ2h0bHktaGFsZGxzIzcxMQ.x/haldls/include/haldls/vx/v1/systime.h Pages: 1 -->
<svg width="1216pt" height="260pt"
 viewBox="0.00 0.00 1215.57 260.00" xmlns="http://www.w3.org/2000/svg" xmlns:xlink="http://www.w3.org/1999/xlink">
<g id="graph0" class="graph" transform="scale(1 1) rotate(0) translate(4 256)">
<title>/jenkins/jenlib_workspaces_f9/bld_nightly&#45;haldls.YmxkX25pZ2h0bHktaGFsZGxzIzcxMQ.x/haldls/include/haldls/vx/v1/systime.h</title>
<polygon fill="white" stroke="transparent" points="-4,4 -4,-256 1211.57,-256 1211.57,4 -4,4"/>
<!-- Node0 -->
<g id="node1" class="node">
<title>Node0</title>
<g id="a_node1"><a xlink:title=" ">
<polygon fill="#bfbfbf" stroke="black" points="236.95,-195.5 236.95,-251.5 415.19,-251.5 415.19,-195.5 236.95,-195.5"/>
<text text-anchor="start" x="244.95" y="-238.5" font-family="Helvetica,sans-Serif" font-size="10.00">/jenkins/jenlib_workspaces</text>
<text text-anchor="start" x="244.95" y="-226.5" font-family="Helvetica,sans-Serif" font-size="10.00">_f9/bld_nightly&#45;haldls.YmxkX25p</text>
<text text-anchor="start" x="244.95" y="-214.5" font-family="Helvetica,sans-Serif" font-size="10.00">Z2h0bHktaGFsZGxzIzcxMQ.x/haldls</text>
<text text-anchor="middle" x="326.07" y="-202.5" font-family="Helvetica,sans-Serif" font-size="10.00">/include/haldls/vx/v1/systime.h</text>
</a>
</g>
</g>
<!-- Node1 -->
<g id="node2" class="node">
<title>Node1</title>
<g id="a_node2"><a xlink:href="genpybind_8h.html" target="_top" xlink:title=" ">
<polygon fill="white" stroke="black" points="0,-6.5 0,-26.5 112.14,-26.5 112.14,-6.5 0,-6.5"/>
<text text-anchor="middle" x="56.07" y="-13.5" font-family="Helvetica,sans-Serif" font-size="10.00">haldls/vx/genpybind.h</text>
</a>
</g>
</g>
<!-- Node0&#45;&gt;Node1 -->
<g id="edge1" class="edge">
<title>Node0&#45;&gt;Node1</title>
<path fill="none" stroke="midnightblue" d="M290.5,-195.49C233.04,-151.86 121.66,-67.3 76.17,-32.76"/>
<polygon fill="midnightblue" stroke="midnightblue" points="78.06,-29.8 67.98,-26.54 73.83,-35.38 78.06,-29.8"/>
</g>
<!-- Node2 -->
<g id="node3" class="node">
<title>Node2</title>
<g id="a_node3"><a xlink:href="systime_8h.html" target="_top" xlink:title=" ">
<polygon fill="white" stroke="black" points="559.12,-138.5 559.12,-158.5 659.02,-158.5 659.02,-138.5 559.12,-138.5"/>
<text text-anchor="middle" x="609.07" y="-145.5" font-family="Helvetica,sans-Serif" font-size="10.00">haldls/vx/systime.h</text>
</a>
</g>
</g>
<!-- Node0&#45;&gt;Node2 -->
<g id="edge3" class="edge">
<title>Node0&#45;&gt;Node2</title>
<path fill="none" stroke="midnightblue" d="M415.23,-199.5C464.81,-186.71 524.38,-171.34 564.28,-161.05"/>
<polygon fill="midnightblue" stroke="midnightblue" points="565.18,-164.44 573.99,-158.55 563.43,-157.66 565.18,-164.44"/>
</g>
<!-- Node1&#45;&gt;Node1 -->
<g id="edge2" class="edge">
<title>Node1&#45;&gt;Node1</title>
<path fill="none" stroke="midnightblue" d="M79.97,-26.54C103.79,-32.26 130.14,-28.92 130.14,-16.5 130.14,-5.78 110.51,-1.82 89.81,-4.62"/>
<polygon fill="midnightblue" stroke="midnightblue" points="89.15,-1.18 79.97,-6.46 90.44,-8.06 89.15,-1.18"/>
</g>
<!-- Node2&#45;&gt;Node1 -->
<g id="edge17" class="edge">
<title>Node2&#45;&gt;Node1</title>
<path fill="none" stroke="midnightblue" d="M558.9,-143.41C515.68,-138.3 452.64,-126.94 403.07,-102 383.09,-91.94 385.34,-78.46 365.07,-69 272.9,-26 239.29,-50.34 139.07,-33 130.77,-31.56 122,-29.99 113.41,-28.41"/>
<polygon fill="midnightblue" stroke="midnightblue" points="113.91,-24.95 103.44,-26.57 112.63,-31.83 113.91,-24.95"/>
</g>
<!-- Node3 -->
<g id="node4" class="node">
<title>Node3</title>
<g id="a_node4"><a xlink:title=" ">
<polygon fill="white" stroke="#bfbfbf" points="317.68,-75.5 317.68,-95.5 356.46,-95.5 356.46,-75.5 317.68,-75.5"/>
<text text-anchor="middle" x="337.07" y="-82.5" font-family="Helvetica,sans-Serif" font-size="10.00">array</text>
</a>
</g>
</g>
<!-- Node2&#45;&gt;Node3 -->
<g id="edge4" class="edge">
<title>Node2&#45;&gt;Node3</title>
<path fill="none" stroke="midnightblue" d="M558.72,-141.65C509.71,-135.09 433.55,-122.59 370.07,-102 367.92,-101.3 365.72,-100.5 363.54,-99.63"/>
<polygon fill="midnightblue" stroke="midnightblue" points="364.77,-96.35 354.21,-95.54 361.97,-102.76 364.77,-96.35"/>
</g>
<!-- Node4 -->
<g id="node5" class="node">
<title>Node4</title>
<g id="a_node5"><a xlink:title=" ">
<polygon fill="white" stroke="#bfbfbf" points="883.9,-6.5 883.9,-26.5 928.24,-26.5 928.24,-6.5 883.9,-6.5"/>
<text text-anchor="middle" x="906.07" y="-13.5" font-family="Helvetica,sans-Serif" font-size="10.00">iosfwd</text>
</a>
</g>
</g>
<!-- Node2&#45;&gt;Node4 -->
<g id="edge5" class="edge">
<title>Node2&#45;&gt;Node4</title>
<path fill="none" stroke="midnightblue" d="M659.21,-140.22C696.55,-133.54 748.11,-121.65 790.07,-102 828.52,-84 867.17,-52.53 888.73,-33.49"/>
<polygon fill="midnightblue" stroke="midnightblue" points="891.27,-35.92 896.37,-26.63 886.59,-30.71 891.27,-35.92"/>
</g>
<!-- Node5 -->
<g id="node6" class="node">
<title>Node5</title>
<g id="a_node6"><a xlink:title=" ">
<polygon fill="white" stroke="#bfbfbf" points="679.56,-69.5 679.56,-101.5 780.58,-101.5 780.58,-69.5 679.56,-69.5"/>
<text text-anchor="start" x="687.56" y="-88.5" font-family="Helvetica,sans-Serif" font-size="10.00">halco/hicann&#45;dls/vx</text>
<text text-anchor="middle" x="730.07" y="-76.5" font-family="Helvetica,sans-Serif" font-size="10.00">/timing.h</text>
</a>
</g>
</g>
<!-- Node2&#45;&gt;Node5 -->
<g id="edge6" class="edge">
<title>Node2&#45;&gt;Node5</title>
<path fill="none" stroke="midnightblue" d="M626.93,-138.5C643.72,-130.03 669.44,-117.07 690.99,-106.2"/>
<polygon fill="midnightblue" stroke="midnightblue" points="692.58,-109.32 699.94,-101.69 689.43,-103.07 692.58,-109.32"/>
</g>
<!-- Node6 -->
<g id="node7" class="node">
<title>Node6</title>
<g id="a_node7"><a xlink:href="cerealization_8h.html" target="_top" xlink:title=" ">
<polygon fill="white" stroke="black" points="882.4,-75.5 882.4,-95.5 991.75,-95.5 991.75,-75.5 882.4,-75.5"/>
<text text-anchor="middle" x="937.07" y="-82.5" font-family="Helvetica,sans-Serif" font-size="10.00">haldls/cerealization.h</text>
</a>
</g>
</g>
<!-- Node2&#45;&gt;Node6 -->
<g id="edge7" class="edge">
<title>Node2&#45;&gt;Node6</title>
<path fill="none" stroke="midnightblue" d="M657.47,-138.5C716.21,-127.57 815.22,-109.16 878.29,-97.43"/>
<polygon fill="midnightblue" stroke="midnightblue" points="879.28,-100.81 888.48,-95.54 878,-93.93 879.28,-100.81"/>
</g>
<!-- Node8 -->
<g id="node9" class="node">
<title>Node8</title>
<g id="a_node9"><a xlink:title=" ">
<polygon fill="white" stroke="#bfbfbf" points="1126.57,-6.5 1126.57,-26.5 1207.57,-26.5 1207.57,-6.5 1126.57,-6.5"/>
<text text-anchor="middle" x="1167.07" y="-13.5" font-family="Helvetica,sans-Serif" font-size="10.00">hate/visibility.h</text>
</a>
</g>
</g>
<!-- Node2&#45;&gt;Node8 -->
<g id="edge25" class="edge">
<title>Node2&#45;&gt;Node8</title>
<path fill="none" stroke="midnightblue" d="M659.1,-147.31C734.74,-145.79 882.03,-137.94 1001.07,-102 1055.78,-85.48 1114.06,-51.5 1144.91,-32.04"/>
<polygon fill="midnightblue" stroke="midnightblue" points="1147.03,-34.84 1153.57,-26.5 1143.26,-28.94 1147.03,-34.84"/>
</g>
<!-- Node11 -->
<g id="node12" class="node">
<title>Node11</title>
<g id="a_node12"><a xlink:href="common_8h.html" target="_top" xlink:title=" ">
<polygon fill="white" stroke="black" points="556.9,-75.5 556.9,-95.5 661.24,-95.5 661.24,-75.5 556.9,-75.5"/>
<text text-anchor="middle" x="609.07" y="-82.5" font-family="Helvetica,sans-Serif" font-size="10.00">haldls/vx/common.h</text>
</a>
</g>
</g>
<!-- Node2&#45;&gt;Node11 -->
<g id="edge13" class="edge">
<title>Node2&#45;&gt;Node11</title>
<path fill="none" stroke="midnightblue" d="M609.07,-138.5C609.07,-129.94 609.07,-116.78 609.07,-105.85"/>
<polygon fill="midnightblue" stroke="midnightblue" points="612.57,-105.54 609.07,-95.54 605.57,-105.54 612.57,-105.54"/>
</g>
<!-- Node15 -->
<g id="node16" class="node">
<title>Node15</title>
<g id="a_node16"><a xlink:href="traits_8h.html" target="_top" xlink:title=" ">
<polygon fill="white" stroke="black" points="412.23,-75.5 412.23,-95.5 499.91,-95.5 499.91,-75.5 412.23,-75.5"/>
<text text-anchor="middle" x="456.07" y="-82.5" font-family="Helvetica,sans-Serif" font-size="10.00">haldls/vx/traits.h</text>
</a>
</g>
</g>
<!-- Node2&#45;&gt;Node15 -->
<g id="edge18" class="edge">
<title>Node2&#45;&gt;Node15</title>
<path fill="none" stroke="midnightblue" d="M586.5,-138.5C560.51,-128.14 517.62,-111.04 488.17,-99.3"/>
<polygon fill="midnightblue" stroke="midnightblue" points="489.32,-95.99 478.74,-95.54 486.73,-102.49 489.32,-95.99"/>
</g>
<!-- Node6&#45;&gt;Node4 -->
<g id="edge11" class="edge">
<title>Node6&#45;&gt;Node4</title>
<path fill="none" stroke="midnightblue" d="M932.89,-75.46C928.25,-65.43 920.63,-48.96 914.69,-36.13"/>
<polygon fill="midnightblue" stroke="midnightblue" points="917.76,-34.43 910.38,-26.82 911.41,-37.37 917.76,-34.43"/>
</g>
<!-- Node7 -->
<g id="node8" class="node">
<title>Node7</title>
<g id="a_node8"><a xlink:title=" ">
<polygon fill="white" stroke="#bfbfbf" points="584.45,-6.5 584.45,-26.5 667.69,-26.5 667.69,-6.5 584.45,-6.5"/>
<text text-anchor="middle" x="626.07" y="-13.5" font-family="Helvetica,sans-Serif" font-size="10.00">hate/type_list.h</text>
</a>
</g>
</g>
<!-- Node6&#45;&gt;Node7 -->
<g id="edge8" class="edge">
<title>Node6&#45;&gt;Node7</title>
<path fill="none" stroke="midnightblue" d="M882.46,-75.46C829.4,-66.27 746.71,-50.86 676.07,-33 671.91,-31.95 667.58,-30.75 663.29,-29.51"/>
<polygon fill="midnightblue" stroke="midnightblue" points="664.02,-26.08 653.43,-26.55 662,-32.78 664.02,-26.08"/>
</g>
<!-- Node6&#45;&gt;Node8 -->
<g id="edge9" class="edge">
<title>Node6&#45;&gt;Node8</title>
<path fill="none" stroke="midnightblue" d="M969.65,-75.41C1005.76,-65.28 1065.67,-48.32 1117.07,-33 1120.83,-31.88 1124.75,-30.69 1128.66,-29.5"/>
<polygon fill="midnightblue" stroke="midnightblue" points="1129.75,-32.83 1138.28,-26.54 1127.7,-26.14 1129.75,-32.83"/>
</g>
<!-- Node9 -->
<g id="node10" class="node">
<title>Node9</title>
<g id="a_node10"><a xlink:title=" ">
<polygon fill="white" stroke="#bfbfbf" points="946.62,-6.5 946.62,-26.5 991.52,-26.5 991.52,-6.5 946.62,-6.5"/>
<text text-anchor="middle" x="969.07" y="-13.5" font-family="Helvetica,sans-Serif" font-size="10.00">cstdint</text>
</a>
</g>
</g>
<!-- Node6&#45;&gt;Node9 -->
<g id="edge10" class="edge">
<title>Node6&#45;&gt;Node9</title>
<path fill="none" stroke="midnightblue" d="M941.39,-75.46C946.18,-65.43 954.05,-48.96 960.17,-36.13"/>
<polygon fill="midnightblue" stroke="midnightblue" points="963.47,-37.35 964.62,-26.82 957.15,-34.34 963.47,-37.35"/>
</g>
<!-- Node10 -->
<g id="node11" class="node">
<title>Node10</title>
<g id="a_node11"><a xlink:title=" ">
<polygon fill="white" stroke="#bfbfbf" points="1009.95,-6.5 1009.95,-26.5 1108.19,-26.5 1108.19,-6.5 1009.95,-6.5"/>
<text text-anchor="middle" x="1059.07" y="-13.5" font-family="Helvetica,sans-Serif" font-size="10.00">cereal/macros.hpp</text>
</a>
</g>
</g>
<!-- Node6&#45;&gt;Node10 -->
<g id="edge12" class="edge">
<title>Node6&#45;&gt;Node10</title>
<path fill="none" stroke="midnightblue" d="M953.52,-75.46C974.08,-64.18 1009.48,-44.74 1033.56,-31.51"/>
<polygon fill="midnightblue" stroke="midnightblue" points="1035.41,-34.49 1042.49,-26.61 1032.04,-28.35 1035.41,-34.49"/>
</g>
<!-- Node12 -->
<g id="node13" class="node">
<title>Node12</title>
<g id="a_node13"><a xlink:title=" ">
<polygon fill="white" stroke="#bfbfbf" points="504.01,-6.5 504.01,-26.5 566.13,-26.5 566.13,-6.5 504.01,-6.5"/>
<text text-anchor="middle" x="535.07" y="-13.5" font-family="Helvetica,sans-Serif" font-size="10.00">type_traits</text>
</a>
</g>
</g>
<!-- Node11&#45;&gt;Node12 -->
<g id="edge14" class="edge">
<title>Node11&#45;&gt;Node12</title>
<path fill="none" stroke="midnightblue" d="M599.09,-75.46C587.35,-64.83 567.63,-46.98 553.17,-33.89"/>
<polygon fill="midnightblue" stroke="midnightblue" points="555.13,-30.94 545.37,-26.82 550.43,-36.13 555.13,-30.94"/>
</g>
<!-- Node13 -->
<g id="node14" class="node">
<title>Node13</title>
<g id="a_node14"><a xlink:title=" ">
<polygon fill="white" stroke="#bfbfbf" points="826.68,-6.5 826.68,-26.5 865.46,-26.5 865.46,-6.5 826.68,-6.5"/>
<text text-anchor="middle" x="846.07" y="-13.5" font-family="Helvetica,sans-Serif" font-size="10.00">utility</text>
</a>
</g>
</g>
<!-- Node11&#45;&gt;Node13 -->
<g id="edge15" class="edge">
<title>Node11&#45;&gt;Node13</title>
<path fill="none" stroke="midnightblue" d="M644.54,-75.42C652.91,-73.3 661.8,-71.06 670.07,-69 735.77,-52.66 755.01,-57.61 818.07,-33 819.46,-32.46 820.87,-31.86 822.28,-31.22"/>
<polygon fill="midnightblue" stroke="midnightblue" points="823.98,-34.28 831.32,-26.63 820.82,-28.03 823.98,-34.28"/>
</g>
<!-- Node14 -->
<g id="node15" class="node">
<title>Node14</title>
<g id="a_node15"><a xlink:title=" ">
<polygon fill="white" stroke="#bfbfbf" points="685.45,-6.5 685.45,-26.5 808.7,-26.5 808.7,-6.5 685.45,-6.5"/>
<text text-anchor="middle" x="747.07" y="-13.5" font-family="Helvetica,sans-Serif" font-size="10.00">fisch/vx/omnibus_data.h</text>
</a>
</g>
</g>
<!-- Node11&#45;&gt;Node14 -->
<g id="edge16" class="edge">
<title>Node11&#45;&gt;Node14</title>
<path fill="none" stroke="midnightblue" d="M627.68,-75.46C651.24,-64.03 692.04,-44.22 719.29,-30.99"/>
<polygon fill="midnightblue" stroke="midnightblue" points="720.85,-34.12 728.31,-26.61 717.79,-27.83 720.85,-34.12"/>
</g>
<!-- Node15&#45;&gt;Node1 -->
<g id="edge21" class="edge">
<title>Node15&#45;&gt;Node1</title>
<path fill="none" stroke="midnightblue" d="M424.93,-75.42C416.29,-73.11 406.86,-70.78 398.07,-69 284.16,-45.95 253.78,-51.67 139.07,-33 130.45,-31.6 121.35,-30.01 112.45,-28.39"/>
<polygon fill="midnightblue" stroke="midnightblue" points="113,-24.94 102.54,-26.57 111.74,-31.82 113,-24.94"/>
</g>
<!-- Node15&#45;&gt;Node7 -->
<g id="edge22" class="edge">
<title>Node15&#45;&gt;Node7</title>
<path fill="none" stroke="midnightblue" d="M479,-75.46C508.53,-63.83 560.04,-43.52 593.59,-30.3"/>
<polygon fill="midnightblue" stroke="midnightblue" points="594.94,-33.53 602.96,-26.61 592.38,-27.02 594.94,-33.53"/>
</g>
<!-- Node15&#45;&gt;Node12 -->
<g id="edge19" class="edge">
<title>Node15&#45;&gt;Node12</title>
<path fill="none" stroke="midnightblue" d="M466.73,-75.46C479.45,-64.67 500.95,-46.44 516.44,-33.3"/>
<polygon fill="midnightblue" stroke="midnightblue" points="518.97,-35.74 524.33,-26.61 514.44,-30.41 518.97,-35.74"/>
</g>
<!-- Node16 -->
<g id="node17" class="node">
<title>Node16</title>
<g id="a_node17"><a xlink:title=" ">
<polygon fill="white" stroke="#bfbfbf" points="148.45,-0.5 148.45,-32.5 241.69,-32.5 241.69,-0.5 148.45,-0.5"/>
<text text-anchor="start" x="156.45" y="-19.5" font-family="Helvetica,sans-Serif" font-size="10.00">fisch/vx/container</text>
<text text-anchor="middle" x="195.07" y="-7.5" font-family="Helvetica,sans-Serif" font-size="10.00">_fwd.h</text>
</a>
</g>
</g>
<!-- Node15&#45;&gt;Node16 -->
<g id="edge20" class="edge">
<title>Node15&#45;&gt;Node16</title>
<path fill="none" stroke="midnightblue" d="M422.67,-75.45C414.63,-73.3 406.05,-71.04 398.07,-69 335.84,-53.07 317.76,-50.21 251.48,-33.06"/>
<polygon fill="midnightblue" stroke="midnightblue" points="252.35,-29.67 241.79,-30.54 250.59,-36.45 252.35,-29.67"/>
</g>
<!-- Node17 -->
<g id="node18" class="node">
<title>Node17</title>
<g id="a_node18"><a xlink:title=" ">
<polygon fill="white" stroke="#bfbfbf" points="259.67,-0.5 259.67,-32.5 358.47,-32.5 358.47,-0.5 259.67,-0.5"/>
<text text-anchor="start" x="267.67" y="-19.5" font-family="Helvetica,sans-Serif" font-size="10.00">boost/utility/enable</text>
<text text-anchor="middle" x="309.07" y="-7.5" font-family="Helvetica,sans-Serif" font-size="10.00">_if.hpp</text>
</a>
</g>
</g>
<!-- Node15&#45;&gt;Node17 -->
<g id="edge23" class="edge">
<title>Node15&#45;&gt;Node17</title>
<path fill="none" stroke="midnightblue" d="M436.25,-75.46C414.56,-65.58 379.17,-49.45 351.22,-36.71"/>
<polygon fill="midnightblue" stroke="midnightblue" points="352.61,-33.5 342.06,-32.53 349.7,-39.87 352.61,-33.5"/>
</g>
<!-- Node18 -->
<g id="node19" class="node">
<title>Node18</title>
<g id="a_node19"><a xlink:title=" ">
<polygon fill="white" stroke="#bfbfbf" points="376.12,-6.5 376.12,-26.5 486.03,-26.5 486.03,-6.5 376.12,-6.5"/>
<text text-anchor="middle" x="431.07" y="-13.5" font-family="Helvetica,sans-Serif" font-size="10.00">fisch/vx/container.def</text>
</a>
</g>
</g>
<!-- Node15&#45;&gt;Node18 -->
<g id="edge24" class="edge">
<title>Node15&#45;&gt;Node18</title>
<path fill="none" stroke="midnightblue" d="M452.7,-75.46C448.99,-65.53 442.93,-49.28 438.17,-36.52"/>
<polygon fill="midnightblue" stroke="midnightblue" points="441.33,-34.97 434.55,-26.82 434.77,-37.42 441.33,-34.97"/>
</g>
</g>
</svg>
