<?xml version="1.0" encoding="UTF-8" standalone="no"?>
<!DOCTYPE svg PUBLIC "-//W3C//DTD SVG 1.1//EN"
 "http://www.w3.org/Graphics/SVG/1.1/DTD/svg11.dtd">
<!-- Generated by graphviz version 2.43.0 (0)
 -->
<!-- Title: /jenkins/jenlib_workspaces_f9/bld_nightly&#45;haldls.YmxkX25pZ2h0bHktaGFsZGxzIzcxMQ.x/haldls/include/haldls/vx/v1/block.h Pages: 1 -->
<svg width="1347pt" height="260pt"
 viewBox="0.00 0.00 1346.86 260.00" xmlns="http://www.w3.org/2000/svg" xmlns:xlink="http://www.w3.org/1999/xlink">
<g id="graph0" class="graph" transform="scale(1 1) rotate(0) translate(4 256)">
<title>/jenkins/jenlib_workspaces_f9/bld_nightly&#45;haldls.YmxkX25pZ2h0bHktaGFsZGxzIzcxMQ.x/haldls/include/haldls/vx/v1/block.h</title>
<polygon fill="white" stroke="transparent" points="-4,4 -4,-256 1342.86,-256 1342.86,4 -4,4"/>
<!-- Node0 -->
<g id="node1" class="node">
<title>Node0</title>
<g id="a_node1"><a xlink:title=" ">
<polygon fill="#bfbfbf" stroke="black" points="635.78,-195.5 635.78,-251.5 814.02,-251.5 814.02,-195.5 635.78,-195.5"/>
<text text-anchor="start" x="643.78" y="-238.5" font-family="Helvetica,sans-Serif" font-size="10.00">/jenkins/jenlib_workspaces</text>
<text text-anchor="start" x="643.78" y="-226.5" font-family="Helvetica,sans-Serif" font-size="10.00">_f9/bld_nightly&#45;haldls.YmxkX25p</text>
<text text-anchor="start" x="643.78" y="-214.5" font-family="Helvetica,sans-Serif" font-size="10.00">Z2h0bHktaGFsZGxzIzcxMQ.x/haldls</text>
<text text-anchor="middle" x="724.9" y="-202.5" font-family="Helvetica,sans-Serif" font-size="10.00">/include/haldls/vx/v1/block.h</text>
</a>
</g>
</g>
<!-- Node1 -->
<g id="node2" class="node">
<title>Node1</title>
<g id="a_node2"><a xlink:href="block_8h.html" target="_top" xlink:title=" ">
<polygon fill="white" stroke="black" points="532.23,-138.5 532.23,-158.5 621.57,-158.5 621.57,-138.5 532.23,-138.5"/>
<text text-anchor="middle" x="576.9" y="-145.5" font-family="Helvetica,sans-Serif" font-size="10.00">haldls/vx/block.h</text>
</a>
</g>
</g>
<!-- Node0&#45;&gt;Node1 -->
<g id="edge1" class="edge">
<title>Node0&#45;&gt;Node1</title>
<path fill="none" stroke="midnightblue" d="M669.79,-195.32C647.5,-184.32 622.75,-172.12 604.41,-163.07"/>
<polygon fill="midnightblue" stroke="midnightblue" points="605.71,-159.81 595.2,-158.52 602.62,-166.09 605.71,-159.81"/>
</g>
<!-- Node13 -->
<g id="node14" class="node">
<title>Node13</title>
<g id="a_node14"><a xlink:href="genpybind_8h.html" target="_top" xlink:title=" ">
<polygon fill="white" stroke="black" points="772.83,-6.5 772.83,-26.5 884.97,-26.5 884.97,-6.5 772.83,-6.5"/>
<text text-anchor="middle" x="828.9" y="-13.5" font-family="Helvetica,sans-Serif" font-size="10.00">haldls/vx/genpybind.h</text>
</a>
</g>
</g>
<!-- Node0&#45;&gt;Node13 -->
<g id="edge24" class="edge">
<title>Node0&#45;&gt;Node13</title>
<path fill="none" stroke="midnightblue" d="M762.42,-195.31C789.09,-173.5 822.76,-140.27 837.9,-102 846.39,-80.53 841.14,-53.73 835.77,-36.14"/>
<polygon fill="midnightblue" stroke="midnightblue" points="839.04,-34.87 832.53,-26.51 832.4,-37.1 839.04,-34.87"/>
</g>
<!-- Node2 -->
<g id="node3" class="node">
<title>Node2</title>
<g id="a_node3"><a xlink:title=" ">
<polygon fill="white" stroke="#bfbfbf" points="557.51,-75.5 557.51,-95.5 596.29,-95.5 596.29,-75.5 557.51,-75.5"/>
<text text-anchor="middle" x="576.9" y="-82.5" font-family="Helvetica,sans-Serif" font-size="10.00">array</text>
</a>
</g>
</g>
<!-- Node1&#45;&gt;Node2 -->
<g id="edge2" class="edge">
<title>Node1&#45;&gt;Node2</title>
<path fill="none" stroke="midnightblue" d="M576.9,-138.5C576.9,-129.94 576.9,-116.78 576.9,-105.85"/>
<polygon fill="midnightblue" stroke="midnightblue" points="580.4,-105.54 576.9,-95.54 573.4,-105.54 580.4,-105.54"/>
</g>
<!-- Node3 -->
<g id="node4" class="node">
<title>Node3</title>
<g id="a_node4"><a xlink:title=" ">
<polygon fill="white" stroke="#bfbfbf" points="613.84,-75.5 613.84,-95.5 665.96,-95.5 665.96,-75.5 613.84,-75.5"/>
<text text-anchor="middle" x="639.9" y="-82.5" font-family="Helvetica,sans-Serif" font-size="10.00">ostream</text>
</a>
</g>
</g>
<!-- Node1&#45;&gt;Node3 -->
<g id="edge3" class="edge">
<title>Node1&#45;&gt;Node3</title>
<path fill="none" stroke="midnightblue" d="M586.2,-138.5C595.87,-129.13 611.24,-114.25 623.06,-102.8"/>
<polygon fill="midnightblue" stroke="midnightblue" points="625.82,-105.01 630.57,-95.54 620.95,-99.98 625.82,-105.01"/>
</g>
<!-- Node4 -->
<g id="node5" class="node">
<title>Node4</title>
<g id="a_node5"><a xlink:title=" ">
<polygon fill="white" stroke="#bfbfbf" points="684.27,-75.5 684.27,-95.5 807.53,-95.5 807.53,-75.5 684.27,-75.5"/>
<text text-anchor="middle" x="745.9" y="-82.5" font-family="Helvetica,sans-Serif" font-size="10.00">fisch/vx/omnibus_data.h</text>
</a>
</g>
</g>
<!-- Node1&#45;&gt;Node4 -->
<g id="edge4" class="edge">
<title>Node1&#45;&gt;Node4</title>
<path fill="none" stroke="midnightblue" d="M601.84,-138.5C630.79,-128.05 678.74,-110.74 711.29,-98.99"/>
<polygon fill="midnightblue" stroke="midnightblue" points="712.64,-102.22 720.86,-95.54 710.27,-95.64 712.64,-102.22"/>
</g>
<!-- Node5 -->
<g id="node6" class="node">
<title>Node5</title>
<g id="a_node6"><a xlink:title=" ">
<polygon fill="white" stroke="#bfbfbf" points="0,-75.5 0,-95.5 133.8,-95.5 133.8,-75.5 0,-75.5"/>
<text text-anchor="middle" x="66.9" y="-82.5" font-family="Helvetica,sans-Serif" font-size="10.00">halco/common/geometry.h</text>
</a>
</g>
</g>
<!-- Node1&#45;&gt;Node5 -->
<g id="edge5" class="edge">
<title>Node1&#45;&gt;Node5</title>
<path fill="none" stroke="midnightblue" d="M531.94,-144.28C452.78,-138.29 283.53,-123.99 141.9,-102 133.77,-100.74 125.2,-99.18 116.86,-97.55"/>
<polygon fill="midnightblue" stroke="midnightblue" points="117.35,-94.07 106.86,-95.53 115.97,-100.94 117.35,-94.07"/>
</g>
<!-- Node6 -->
<g id="node7" class="node">
<title>Node6</title>
<g id="a_node7"><a xlink:title=" ">
<polygon fill="white" stroke="#bfbfbf" points="151.39,-69.5 151.39,-101.5 252.41,-101.5 252.41,-69.5 151.39,-69.5"/>
<text text-anchor="start" x="159.39" y="-88.5" font-family="Helvetica,sans-Serif" font-size="10.00">halco/hicann&#45;dls/vx</text>
<text text-anchor="middle" x="201.9" y="-76.5" font-family="Helvetica,sans-Serif" font-size="10.00">/omnibus.h</text>
</a>
</g>
</g>
<!-- Node1&#45;&gt;Node6 -->
<g id="edge6" class="edge">
<title>Node1&#45;&gt;Node6</title>
<path fill="none" stroke="midnightblue" d="M532.03,-142.18C471.55,-134.72 360.65,-120.02 266.9,-102 265.44,-101.72 263.96,-101.43 262.48,-101.13"/>
<polygon fill="midnightblue" stroke="midnightblue" points="263.06,-97.67 252.55,-99.03 261.61,-104.52 263.06,-97.67"/>
</g>
<!-- Node7 -->
<g id="node8" class="node">
<title>Node7</title>
<g id="a_node8"><a xlink:href="cerealization_8h.html" target="_top" xlink:title=" ">
<polygon fill="white" stroke="black" points="309.22,-75.5 309.22,-95.5 418.58,-95.5 418.58,-75.5 309.22,-75.5"/>
<text text-anchor="middle" x="363.9" y="-82.5" font-family="Helvetica,sans-Serif" font-size="10.00">haldls/cerealization.h</text>
</a>
</g>
</g>
<!-- Node1&#45;&gt;Node7 -->
<g id="edge7" class="edge">
<title>Node1&#45;&gt;Node7</title>
<path fill="none" stroke="midnightblue" d="M545.47,-138.5C508.27,-127.84 446.2,-110.07 405.15,-98.31"/>
<polygon fill="midnightblue" stroke="midnightblue" points="406.04,-94.93 395.46,-95.54 404.11,-101.66 406.04,-94.93"/>
</g>
<!-- Node9 -->
<g id="node10" class="node">
<title>Node9</title>
<g id="a_node10"><a xlink:title=" ">
<polygon fill="white" stroke="#bfbfbf" points="240.4,-6.5 240.4,-26.5 321.4,-26.5 321.4,-6.5 240.4,-6.5"/>
<text text-anchor="middle" x="280.9" y="-13.5" font-family="Helvetica,sans-Serif" font-size="10.00">hate/visibility.h</text>
</a>
</g>
</g>
<!-- Node1&#45;&gt;Node9 -->
<g id="edge22" class="edge">
<title>Node1&#45;&gt;Node9</title>
<path fill="none" stroke="midnightblue" d="M532.08,-146.07C462.4,-142.89 332.65,-132.89 299.9,-102 282.25,-85.35 279.3,-56.13 279.53,-36.79"/>
<polygon fill="midnightblue" stroke="midnightblue" points="283.03,-36.85 279.95,-26.72 276.04,-36.56 283.03,-36.85"/>
</g>
<!-- Node1&#45;&gt;Node13 -->
<g id="edge13" class="edge">
<title>Node1&#45;&gt;Node13</title>
<path fill="none" stroke="midnightblue" d="M621.6,-145.1C683.5,-140.79 790.65,-129.49 816.9,-102 833.41,-84.71 833.87,-55.65 831.96,-36.53"/>
<polygon fill="midnightblue" stroke="midnightblue" points="835.43,-36.04 830.67,-26.58 828.49,-36.94 835.43,-36.04"/>
</g>
<!-- Node14 -->
<g id="node15" class="node">
<title>Node14</title>
<g id="a_node15"><a xlink:href="traits_8h.html" target="_top" xlink:title=" ">
<polygon fill="white" stroke="black" points="908.06,-75.5 908.06,-95.5 995.74,-95.5 995.74,-75.5 908.06,-75.5"/>
<text text-anchor="middle" x="951.9" y="-82.5" font-family="Helvetica,sans-Serif" font-size="10.00">haldls/vx/traits.h</text>
</a>
</g>
</g>
<!-- Node1&#45;&gt;Node14 -->
<g id="edge15" class="edge">
<title>Node1&#45;&gt;Node14</title>
<path fill="none" stroke="midnightblue" d="M621.76,-140.2C690.93,-128.95 823.37,-107.41 897.76,-95.31"/>
<polygon fill="midnightblue" stroke="midnightblue" points="898.55,-98.72 907.86,-93.66 897.43,-91.82 898.55,-98.72"/>
</g>
<!-- Node19 -->
<g id="node20" class="node">
<title>Node19</title>
<g id="a_node20"><a xlink:title=" ">
<polygon fill="white" stroke="#bfbfbf" points="436.28,-75.5 436.28,-95.5 539.52,-95.5 539.52,-75.5 436.28,-75.5"/>
<text text-anchor="middle" x="487.9" y="-82.5" font-family="Helvetica,sans-Serif" font-size="10.00">hxcomm/vx/target.h</text>
</a>
</g>
</g>
<!-- Node1&#45;&gt;Node19 -->
<g id="edge23" class="edge">
<title>Node1&#45;&gt;Node19</title>
<path fill="none" stroke="midnightblue" d="M563.77,-138.5C549.57,-128.77 526.7,-113.1 509.78,-101.5"/>
<polygon fill="midnightblue" stroke="midnightblue" points="511.31,-98.3 501.09,-95.54 507.36,-104.08 511.31,-98.3"/>
</g>
<!-- Node8 -->
<g id="node9" class="node">
<title>Node8</title>
<g id="a_node9"><a xlink:title=" ">
<polygon fill="white" stroke="#bfbfbf" points="629.28,-6.5 629.28,-26.5 712.52,-26.5 712.52,-6.5 629.28,-6.5"/>
<text text-anchor="middle" x="670.9" y="-13.5" font-family="Helvetica,sans-Serif" font-size="10.00">hate/type_list.h</text>
</a>
</g>
</g>
<!-- Node7&#45;&gt;Node8 -->
<g id="edge8" class="edge">
<title>Node7&#45;&gt;Node8</title>
<path fill="none" stroke="midnightblue" d="M399.83,-75.44C408.67,-73.27 418.12,-71.01 426.9,-69 493.04,-53.89 569.63,-37.98 619.1,-27.91"/>
<polygon fill="midnightblue" stroke="midnightblue" points="619.82,-31.34 628.93,-25.92 618.43,-24.48 619.82,-31.34"/>
</g>
<!-- Node7&#45;&gt;Node9 -->
<g id="edge9" class="edge">
<title>Node7&#45;&gt;Node9</title>
<path fill="none" stroke="midnightblue" d="M352.71,-75.46C339.22,-64.57 316.33,-46.1 300.03,-32.94"/>
<polygon fill="midnightblue" stroke="midnightblue" points="302.16,-30.16 292.18,-26.61 297.76,-35.61 302.16,-30.16"/>
</g>
<!-- Node10 -->
<g id="node11" class="node">
<title>Node10</title>
<g id="a_node11"><a xlink:title=" ">
<polygon fill="white" stroke="#bfbfbf" points="339.45,-6.5 339.45,-26.5 384.35,-26.5 384.35,-6.5 339.45,-6.5"/>
<text text-anchor="middle" x="361.9" y="-13.5" font-family="Helvetica,sans-Serif" font-size="10.00">cstdint</text>
</a>
</g>
</g>
<!-- Node7&#45;&gt;Node10 -->
<g id="edge10" class="edge">
<title>Node7&#45;&gt;Node10</title>
<path fill="none" stroke="midnightblue" d="M363.63,-75.46C363.34,-65.63 362.86,-49.61 362.48,-36.9"/>
<polygon fill="midnightblue" stroke="midnightblue" points="365.98,-36.71 362.18,-26.82 358.98,-36.92 365.98,-36.71"/>
</g>
<!-- Node11 -->
<g id="node12" class="node">
<title>Node11</title>
<g id="a_node12"><a xlink:title=" ">
<polygon fill="white" stroke="#bfbfbf" points="402.73,-6.5 402.73,-26.5 447.07,-26.5 447.07,-6.5 402.73,-6.5"/>
<text text-anchor="middle" x="424.9" y="-13.5" font-family="Helvetica,sans-Serif" font-size="10.00">iosfwd</text>
</a>
</g>
</g>
<!-- Node7&#45;&gt;Node11 -->
<g id="edge11" class="edge">
<title>Node7&#45;&gt;Node11</title>
<path fill="none" stroke="midnightblue" d="M372.13,-75.46C381.71,-64.93 397.76,-47.31 409.64,-34.26"/>
<polygon fill="midnightblue" stroke="midnightblue" points="412.27,-36.57 416.41,-26.82 407.09,-31.86 412.27,-36.57"/>
</g>
<!-- Node12 -->
<g id="node13" class="node">
<title>Node12</title>
<g id="a_node13"><a xlink:title=" ">
<polygon fill="white" stroke="#bfbfbf" points="464.78,-6.5 464.78,-26.5 563.02,-26.5 563.02,-6.5 464.78,-6.5"/>
<text text-anchor="middle" x="513.9" y="-13.5" font-family="Helvetica,sans-Serif" font-size="10.00">cereal/macros.hpp</text>
</a>
</g>
</g>
<!-- Node7&#45;&gt;Node12 -->
<g id="edge12" class="edge">
<title>Node7&#45;&gt;Node12</title>
<path fill="none" stroke="midnightblue" d="M384.13,-75.46C409.85,-63.98 454.47,-44.05 484.09,-30.82"/>
<polygon fill="midnightblue" stroke="midnightblue" points="485.81,-33.88 493.51,-26.61 482.95,-27.49 485.81,-33.88"/>
</g>
<!-- Node13&#45;&gt;Node13 -->
<g id="edge14" class="edge">
<title>Node13&#45;&gt;Node13</title>
<path fill="none" stroke="midnightblue" d="M852.8,-26.54C876.62,-32.26 902.97,-28.92 902.97,-16.5 902.97,-5.78 883.33,-1.82 862.64,-4.62"/>
<polygon fill="midnightblue" stroke="midnightblue" points="861.98,-1.18 852.8,-6.46 863.27,-8.06 861.98,-1.18"/>
</g>
<!-- Node14&#45;&gt;Node8 -->
<g id="edge19" class="edge">
<title>Node14&#45;&gt;Node8</title>
<path fill="none" stroke="midnightblue" d="M914,-75.46C863.51,-63.43 774.16,-42.12 718.98,-28.96"/>
<polygon fill="midnightblue" stroke="midnightblue" points="719.63,-25.52 709.09,-26.61 718.01,-32.33 719.63,-25.52"/>
</g>
<!-- Node14&#45;&gt;Node13 -->
<g id="edge18" class="edge">
<title>Node14&#45;&gt;Node13</title>
<path fill="none" stroke="midnightblue" d="M935.31,-75.46C914.59,-64.18 878.9,-44.74 854.62,-31.51"/>
<polygon fill="midnightblue" stroke="midnightblue" points="856.07,-28.32 845.62,-26.61 852.73,-34.46 856.07,-28.32"/>
</g>
<!-- Node15 -->
<g id="node16" class="node">
<title>Node15</title>
<g id="a_node16"><a xlink:title=" ">
<polygon fill="white" stroke="#bfbfbf" points="920.84,-6.5 920.84,-26.5 982.96,-26.5 982.96,-6.5 920.84,-6.5"/>
<text text-anchor="middle" x="951.9" y="-13.5" font-family="Helvetica,sans-Serif" font-size="10.00">type_traits</text>
</a>
</g>
</g>
<!-- Node14&#45;&gt;Node15 -->
<g id="edge16" class="edge">
<title>Node14&#45;&gt;Node15</title>
<path fill="none" stroke="midnightblue" d="M951.9,-75.46C951.9,-65.63 951.9,-49.61 951.9,-36.9"/>
<polygon fill="midnightblue" stroke="midnightblue" points="955.4,-36.82 951.9,-26.82 948.4,-36.82 955.4,-36.82"/>
</g>
<!-- Node16 -->
<g id="node17" class="node">
<title>Node16</title>
<g id="a_node17"><a xlink:title=" ">
<polygon fill="white" stroke="#bfbfbf" points="1001.28,-0.5 1001.28,-32.5 1094.52,-32.5 1094.52,-0.5 1001.28,-0.5"/>
<text text-anchor="start" x="1009.28" y="-19.5" font-family="Helvetica,sans-Serif" font-size="10.00">fisch/vx/container</text>
<text text-anchor="middle" x="1047.9" y="-7.5" font-family="Helvetica,sans-Serif" font-size="10.00">_fwd.h</text>
</a>
</g>
</g>
<!-- Node14&#45;&gt;Node16 -->
<g id="edge17" class="edge">
<title>Node14&#45;&gt;Node16</title>
<path fill="none" stroke="midnightblue" d="M964.85,-75.46C978.39,-66.01 1000.13,-50.84 1017.97,-38.39"/>
<polygon fill="midnightblue" stroke="midnightblue" points="1020.16,-41.13 1026.36,-32.53 1016.16,-35.39 1020.16,-41.13"/>
</g>
<!-- Node17 -->
<g id="node18" class="node">
<title>Node17</title>
<g id="a_node18"><a xlink:title=" ">
<polygon fill="white" stroke="#bfbfbf" points="1112.5,-0.5 1112.5,-32.5 1211.3,-32.5 1211.3,-0.5 1112.5,-0.5"/>
<text text-anchor="start" x="1120.5" y="-19.5" font-family="Helvetica,sans-Serif" font-size="10.00">boost/utility/enable</text>
<text text-anchor="middle" x="1161.9" y="-7.5" font-family="Helvetica,sans-Serif" font-size="10.00">_if.hpp</text>
</a>
</g>
</g>
<!-- Node14&#45;&gt;Node17 -->
<g id="edge20" class="edge">
<title>Node14&#45;&gt;Node17</title>
<path fill="none" stroke="midnightblue" d="M980.22,-75.46C1012.08,-65.3 1064.64,-48.53 1105.05,-35.64"/>
<polygon fill="midnightblue" stroke="midnightblue" points="1106.32,-38.91 1114.78,-32.53 1104.19,-32.24 1106.32,-38.91"/>
</g>
<!-- Node18 -->
<g id="node19" class="node">
<title>Node18</title>
<g id="a_node19"><a xlink:title=" ">
<polygon fill="white" stroke="#bfbfbf" points="1228.94,-6.5 1228.94,-26.5 1338.86,-26.5 1338.86,-6.5 1228.94,-6.5"/>
<text text-anchor="middle" x="1283.9" y="-13.5" font-family="Helvetica,sans-Serif" font-size="10.00">fisch/vx/container.def</text>
</a>
</g>
</g>
<!-- Node14&#45;&gt;Node18 -->
<g id="edge21" class="edge">
<title>Node14&#45;&gt;Node18</title>
<path fill="none" stroke="midnightblue" d="M996.14,-76.67C1049.38,-67.09 1141.42,-50.03 1219.9,-33 1225.7,-31.74 1231.77,-30.36 1237.78,-28.95"/>
<polygon fill="midnightblue" stroke="midnightblue" points="1238.84,-32.29 1247.75,-26.57 1237.21,-25.48 1238.84,-32.29"/>
</g>
</g>
</svg>
