<?xml version="1.0" encoding="UTF-8" standalone="no"?>
<!DOCTYPE svg PUBLIC "-//W3C//DTD SVG 1.1//EN"
 "http://www.w3.org/Graphics/SVG/1.1/DTD/svg11.dtd">
<!-- Generated by graphviz version 2.43.0 (0)
 -->
<!-- Title: /jenkins/jenlib_workspaces_f9/bld_nightly&#45;haldls.YmxkX25pZ2h0bHktaGFsZGxzIzcxMQ.x/haldls/include/haldls/vx/v1/padi.h Pages: 1 -->
<!--zoomable 329 -->
<svg id="main" version="1.1" xmlns="http://www.w3.org/2000/svg" xmlns:xlink="http://www.w3.org/1999/xlink" xml:space="preserve" onload="init(evt)">
<style type="text/css"><![CDATA[
.edge:hover path { stroke: red; }
.edge:hover polygon { stroke: red; fill: red; }
]]></style>
<script type="text/javascript"><![CDATA[
var edges = document.getElementsByTagName('g');
if (edges && edges.length) {
  for (var i=0;i<edges.length;i++) {
    if (edges[i].id.substr(0,4)=='edge') {
      edges[i].setAttribute('class','edge');
    }
  }
}
]]></script>
        <defs>
                <circle id="rim" cx="0" cy="0" r="7"/>
                <circle id="rim2" cx="0" cy="0" r="3.5"/>
                <g id="zoomPlus">
                        <use xlink:href="#rim" fill="#404040">
                                <set attributeName="fill" to="#808080" begin="zoomplus.mouseover" end="zoomplus.mouseout"/>
                        </use>
                        <path d="M-4,0h8M0,-4v8" fill="none" stroke="white" stroke-width="1.5" pointer-events="none"/>
                </g>
                <g id="zoomMin">
                        <use xlink:href="#rim" fill="#404040">
                                <set attributeName="fill" to="#808080" begin="zoomminus.mouseover" end="zoomminus.mouseout"/>
                        </use>
                        <path d="M-4,0h8" fill="none" stroke="white" stroke-width="1.5" pointer-events="none"/>
                </g>
                <g id="dirArrow">
                        <path fill="none" stroke="white" stroke-width="1.5" d="M0,-3.0v7 M-2.5,-0.5L0,-3.0L2.5,-0.5"/>
                </g>
               <g id="resetDef">
                       <use xlink:href="#rim2" fill="#404040">
                               <set attributeName="fill" to="#808080" begin="reset.mouseover" end="reset.mouseout"/>
                       </use>
               </g>
        </defs>

<script type="text/javascript">
var viewWidth = 1425;
var viewHeight = 329;
var sectionId = 'dynsection-0';
</script>
<script xlink:href="svgpan.js"/>
<svg id="graph" class="graph">
<g id="viewport">
<title>/jenkins/jenlib_workspaces_f9/bld_nightly&#45;haldls.YmxkX25pZ2h0bHktaGFsZGxzIzcxMQ.x/haldls/include/haldls/vx/v1/padi.h</title>
<polygon fill="white" stroke="transparent" points="-4,4 -4,-325 1420.73,-325 1420.73,4 -4,4"/>
<!-- Node0 -->
<g id="node1" class="node">
<title>Node0</title>
<g id="a_node1"><a xlink:title=" ">
<polygon fill="#bfbfbf" stroke="black" points="250.95,-264.5 250.95,-320.5 429.19,-320.5 429.19,-264.5 250.95,-264.5"/>
<text text-anchor="start" x="258.95" y="-307.5" font-family="Helvetica,sans-Serif" font-size="10.00">/jenkins/jenlib_workspaces</text>
<text text-anchor="start" x="258.95" y="-295.5" font-family="Helvetica,sans-Serif" font-size="10.00">_f9/bld_nightly&#45;haldls.YmxkX25p</text>
<text text-anchor="start" x="258.95" y="-283.5" font-family="Helvetica,sans-Serif" font-size="10.00">Z2h0bHktaGFsZGxzIzcxMQ.x/haldls</text>
<text text-anchor="middle" x="340.07" y="-271.5" font-family="Helvetica,sans-Serif" font-size="10.00">/include/haldls/vx/v1/padi.h</text>
</a>
</g>
</g>
<!-- Node1 -->
<g id="node2" class="node">
<title>Node1</title>
<g id="a_node2"><a xlink:href="genpybind_8h.html" target="_top" xlink:title=" ">
<polygon fill="white" stroke="black" points="0,-6.5 0,-26.5 112.14,-26.5 112.14,-6.5 0,-6.5"/>
<text text-anchor="middle" x="56.07" y="-13.5" font-family="Helvetica,sans-Serif" font-size="10.00">haldls/vx/genpybind.h</text>
</a>
</g>
</g>
<!-- Node0&#45;&gt;Node1 -->
<g id="edge1" class="edge">
<title>Node0&#45;&gt;Node1</title>
<path fill="none" stroke="midnightblue" d="M312.06,-264.48C253.59,-208.07 120.07,-79.25 72.93,-33.77"/>
<polygon fill="midnightblue" stroke="midnightblue" points="75.28,-31.17 65.65,-26.74 70.42,-36.2 75.28,-31.17"/>
</g>
<!-- Node2 -->
<g id="node3" class="node">
<title>Node2</title>
<g id="a_node3"><a xlink:href="padi_8h.html" target="_top" xlink:title=" ">
<polygon fill="white" stroke="black" points="631.62,-207.5 631.62,-227.5 716.52,-227.5 716.52,-207.5 631.62,-207.5"/>
<text text-anchor="middle" x="674.07" y="-214.5" font-family="Helvetica,sans-Serif" font-size="10.00">haldls/vx/padi.h</text>
</a>
</g>
</g>
<!-- Node0&#45;&gt;Node2 -->
<g id="edge3" class="edge">
<title>Node0&#45;&gt;Node2</title>
<path fill="none" stroke="midnightblue" d="M429.58,-271.94C491.35,-258.44 571.3,-240.96 622.65,-229.74"/>
<polygon fill="midnightblue" stroke="midnightblue" points="623.5,-233.14 632.52,-227.58 622,-226.3 623.5,-233.14"/>
</g>
<!-- Node1&#45;&gt;Node1 -->
<g id="edge2" class="edge">
<title>Node1&#45;&gt;Node1</title>
<path fill="none" stroke="midnightblue" d="M79.97,-26.54C103.79,-32.26 130.14,-28.92 130.14,-16.5 130.14,-5.78 110.51,-1.82 89.81,-4.62"/>
<polygon fill="midnightblue" stroke="midnightblue" points="89.15,-1.18 79.97,-6.46 90.44,-8.06 89.15,-1.18"/>
</g>
<!-- Node2&#45;&gt;Node1 -->
<g id="edge14" class="edge">
<title>Node2&#45;&gt;Node1</title>
<path fill="none" stroke="midnightblue" d="M631.23,-208.77C589.46,-200.82 524.31,-187.31 469.07,-171 322.93,-127.85 154.16,-58.91 86.46,-30.44"/>
<polygon fill="midnightblue" stroke="midnightblue" points="87.79,-27.21 77.22,-26.54 85.07,-33.66 87.79,-27.21"/>
</g>
<!-- Node3 -->
<g id="node4" class="node">
<title>Node3</title>
<g id="a_node4"><a xlink:title=" ">
<polygon fill="white" stroke="#bfbfbf" points="335.68,-75.5 335.68,-95.5 374.46,-95.5 374.46,-75.5 335.68,-75.5"/>
<text text-anchor="middle" x="355.07" y="-82.5" font-family="Helvetica,sans-Serif" font-size="10.00">array</text>
</a>
</g>
</g>
<!-- Node2&#45;&gt;Node3 -->
<g id="edge4" class="edge">
<title>Node2&#45;&gt;Node3</title>
<path fill="none" stroke="midnightblue" d="M648.94,-207.35C624.4,-198.35 586.03,-184.08 553.07,-171 479.19,-141.67 460.73,-134.24 388.07,-102 386.52,-101.31 384.93,-100.6 383.33,-99.87"/>
<polygon fill="midnightblue" stroke="midnightblue" points="384.75,-96.67 374.2,-95.66 381.81,-103.03 384.75,-96.67"/>
</g>
<!-- Node4 -->
<g id="node5" class="node">
<title>Node4</title>
<g id="a_node5"><a xlink:title=" ">
<polygon fill="white" stroke="#bfbfbf" points="864.9,-6.5 864.9,-26.5 909.24,-26.5 909.24,-6.5 864.9,-6.5"/>
<text text-anchor="middle" x="887.07" y="-13.5" font-family="Helvetica,sans-Serif" font-size="10.00">iosfwd</text>
</a>
</g>
</g>
<!-- Node2&#45;&gt;Node4 -->
<g id="edge5" class="edge">
<title>Node2&#45;&gt;Node4</title>
<path fill="none" stroke="midnightblue" d="M673.92,-207.18C674.05,-181.01 678.23,-106.31 720.07,-69 766.74,-27.38 797.58,-55.1 856.07,-33 857.74,-32.37 859.43,-31.68 861.12,-30.95"/>
<polygon fill="midnightblue" stroke="midnightblue" points="863.05,-33.92 870.62,-26.51 860.08,-27.58 863.05,-33.92"/>
</g>
<!-- Node5 -->
<g id="node6" class="node">
<title>Node5</title>
<g id="a_node6"><a xlink:title=" ">
<polygon fill="white" stroke="#bfbfbf" points="1265.17,-75.5 1265.17,-95.5 1398.97,-95.5 1398.97,-75.5 1265.17,-75.5"/>
<text text-anchor="middle" x="1332.07" y="-82.5" font-family="Helvetica,sans-Serif" font-size="10.00">halco/common/geometry.h</text>
</a>
</g>
</g>
<!-- Node2&#45;&gt;Node5 -->
<g id="edge6" class="edge">
<title>Node2&#45;&gt;Node5</title>
<path fill="none" stroke="midnightblue" d="M716.62,-207.53C745.6,-200.3 784.15,-188.44 815.07,-171 834.55,-160.01 832.5,-146.79 853.07,-138 1011.91,-70.11 1068.78,-124.36 1240.07,-102 1250.54,-100.63 1261.64,-98.96 1272.37,-97.22"/>
<polygon fill="midnightblue" stroke="midnightblue" points="1273.22,-100.63 1282.52,-95.54 1272.08,-93.72 1273.22,-100.63"/>
</g>
<!-- Node6 -->
<g id="node7" class="node">
<title>Node6</title>
<g id="a_node7"><a xlink:title=" ">
<polygon fill="white" stroke="#bfbfbf" points="862.56,-138.5 862.56,-170.5 963.58,-170.5 963.58,-138.5 862.56,-138.5"/>
<text text-anchor="start" x="870.56" y="-157.5" font-family="Helvetica,sans-Serif" font-size="10.00">halco/hicann&#45;dls/vx</text>
<text text-anchor="middle" x="913.07" y="-145.5" font-family="Helvetica,sans-Serif" font-size="10.00">/padi.h</text>
</a>
</g>
</g>
<!-- Node2&#45;&gt;Node6 -->
<g id="edge7" class="edge">
<title>Node2&#45;&gt;Node6</title>
<path fill="none" stroke="midnightblue" d="M709.34,-207.5C746.96,-197.9 807.24,-182.51 852.5,-170.96"/>
<polygon fill="midnightblue" stroke="midnightblue" points="853.37,-174.35 862.2,-168.48 851.64,-167.57 853.37,-174.35"/>
</g>
<!-- Node7 -->
<g id="node8" class="node">
<title>Node7</title>
<g id="a_node8"><a xlink:href="cerealization_8h.html" target="_top" xlink:title=" ">
<polygon fill="white" stroke="black" points="536.4,-75.5 536.4,-95.5 645.75,-95.5 645.75,-75.5 536.4,-75.5"/>
<text text-anchor="middle" x="591.07" y="-82.5" font-family="Helvetica,sans-Serif" font-size="10.00">haldls/cerealization.h</text>
</a>
</g>
</g>
<!-- Node2&#45;&gt;Node7 -->
<g id="edge8" class="edge">
<title>Node2&#45;&gt;Node7</title>
<path fill="none" stroke="midnightblue" d="M668.1,-207.15C654.4,-185.69 620.51,-132.61 602.6,-104.55"/>
<polygon fill="midnightblue" stroke="midnightblue" points="605.32,-102.31 596.99,-95.76 599.42,-106.08 605.32,-102.31"/>
</g>
<!-- Node9 -->
<g id="node10" class="node">
<title>Node9</title>
<g id="a_node10"><a xlink:title=" ">
<polygon fill="white" stroke="#bfbfbf" points="1196.57,-6.5 1196.57,-26.5 1277.57,-26.5 1277.57,-6.5 1196.57,-6.5"/>
<text text-anchor="middle" x="1237.07" y="-13.5" font-family="Helvetica,sans-Serif" font-size="10.00">hate/visibility.h</text>
</a>
</g>
</g>
<!-- Node2&#45;&gt;Node9 -->
<g id="edge37" class="edge">
<title>Node2&#45;&gt;Node9</title>
<path fill="none" stroke="midnightblue" d="M716.83,-216.94C860.39,-217.4 1320.99,-210.3 1408.07,-102 1444.53,-56.65 1350.38,-33.75 1287.73,-23.84"/>
<polygon fill="midnightblue" stroke="midnightblue" points="1288,-20.34 1277.59,-22.3 1286.96,-27.26 1288,-20.34"/>
</g>
<!-- Node12 -->
<g id="node13" class="node">
<title>Node12</title>
<g id="a_node13"><a xlink:href="synapse_8h.html" target="_top" xlink:title=" ">
<polygon fill="white" stroke="black" points="702.45,-144.5 702.45,-164.5 805.7,-164.5 805.7,-144.5 702.45,-144.5"/>
<text text-anchor="middle" x="754.07" y="-151.5" font-family="Helvetica,sans-Serif" font-size="10.00">haldls/vx/synapse.h</text>
</a>
</g>
</g>
<!-- Node2&#45;&gt;Node12 -->
<g id="edge15" class="edge">
<title>Node2&#45;&gt;Node12</title>
<path fill="none" stroke="midnightblue" d="M685.88,-207.5C698.52,-197.86 718.81,-182.39 733.98,-170.82"/>
<polygon fill="midnightblue" stroke="midnightblue" points="736.39,-173.38 742.22,-164.54 732.14,-167.82 736.39,-173.38"/>
</g>
<!-- Node20 -->
<g id="node21" class="node">
<title>Node20</title>
<g id="a_node21"><a xlink:href="traits_8h.html" target="_top" xlink:title=" ">
<polygon fill="white" stroke="black" points="430.23,-75.5 430.23,-95.5 517.91,-95.5 517.91,-75.5 430.23,-75.5"/>
<text text-anchor="middle" x="474.07" y="-82.5" font-family="Helvetica,sans-Serif" font-size="10.00">haldls/vx/traits.h</text>
</a>
</g>
</g>
<!-- Node2&#45;&gt;Node20 -->
<g id="edge36" class="edge">
<title>Node2&#45;&gt;Node20</title>
<path fill="none" stroke="midnightblue" d="M660.01,-207.36C625.87,-185.17 538.36,-128.29 496.73,-101.23"/>
<polygon fill="midnightblue" stroke="midnightblue" points="498.41,-98.15 488.12,-95.63 494.6,-104.02 498.41,-98.15"/>
</g>
<!-- Node24 -->
<g id="node25" class="node">
<title>Node24</title>
<g id="a_node25"><a xlink:title=" ">
<polygon fill="white" stroke="#bfbfbf" points="981.45,-144.5 981.45,-164.5 1084.69,-164.5 1084.69,-144.5 981.45,-144.5"/>
<text text-anchor="middle" x="1033.07" y="-151.5" font-family="Helvetica,sans-Serif" font-size="10.00">hxcomm/vx/target.h</text>
</a>
</g>
</g>
<!-- Node2&#45;&gt;Node24 -->
<g id="edge38" class="edge">
<title>Node2&#45;&gt;Node24</title>
<path fill="none" stroke="midnightblue" d="M716.9,-211.38C775.16,-204.09 882.54,-189.53 973.07,-171 978.81,-169.83 984.82,-168.45 990.73,-167.01"/>
<polygon fill="midnightblue" stroke="midnightblue" points="991.67,-170.38 1000.52,-164.55 989.96,-163.59 991.67,-170.38"/>
</g>
<!-- Node7&#45;&gt;Node4 -->
<g id="edge12" class="edge">
<title>Node7&#45;&gt;Node4</title>
<path fill="none" stroke="midnightblue" d="M630.06,-75.46C639.84,-73.27 650.33,-70.99 660.07,-69 746.85,-51.29 772.07,-61.08 856.07,-33 857.95,-32.37 859.87,-31.65 861.77,-30.86"/>
<polygon fill="midnightblue" stroke="midnightblue" points="863.41,-33.96 871.03,-26.6 860.48,-27.6 863.41,-33.96"/>
</g>
<!-- Node8 -->
<g id="node9" class="node">
<title>Node8</title>
<g id="a_node9"><a xlink:title=" ">
<polygon fill="white" stroke="#bfbfbf" points="504.45,-6.5 504.45,-26.5 587.69,-26.5 587.69,-6.5 504.45,-6.5"/>
<text text-anchor="middle" x="546.07" y="-13.5" font-family="Helvetica,sans-Serif" font-size="10.00">hate/type_list.h</text>
</a>
</g>
</g>
<!-- Node7&#45;&gt;Node8 -->
<g id="edge9" class="edge">
<title>Node7&#45;&gt;Node8</title>
<path fill="none" stroke="midnightblue" d="M585,-75.46C578.13,-65.23 566.76,-48.3 558.08,-35.38"/>
<polygon fill="midnightblue" stroke="midnightblue" points="560.81,-33.17 552.33,-26.82 555,-37.08 560.81,-33.17"/>
</g>
<!-- Node7&#45;&gt;Node9 -->
<g id="edge10" class="edge">
<title>Node7&#45;&gt;Node9</title>
<path fill="none" stroke="midnightblue" d="M645.9,-78.21C671.73,-75.3 702.97,-71.87 731.07,-69 902.48,-51.52 945.83,-52.04 1117.07,-33 1139.86,-30.47 1165.03,-27.28 1186.4,-24.45"/>
<polygon fill="midnightblue" stroke="midnightblue" points="1187.12,-27.89 1196.57,-23.1 1186.19,-20.95 1187.12,-27.89"/>
</g>
<!-- Node10 -->
<g id="node11" class="node">
<title>Node10</title>
<g id="a_node11"><a xlink:title=" ">
<polygon fill="white" stroke="#bfbfbf" points="605.62,-6.5 605.62,-26.5 650.52,-26.5 650.52,-6.5 605.62,-6.5"/>
<text text-anchor="middle" x="628.07" y="-13.5" font-family="Helvetica,sans-Serif" font-size="10.00">cstdint</text>
</a>
</g>
</g>
<!-- Node7&#45;&gt;Node10 -->
<g id="edge11" class="edge">
<title>Node7&#45;&gt;Node10</title>
<path fill="none" stroke="midnightblue" d="M596.06,-75.46C601.66,-65.33 610.88,-48.63 617.99,-35.75"/>
<polygon fill="midnightblue" stroke="midnightblue" points="621.15,-37.27 622.92,-26.82 615.03,-33.88 621.15,-37.27"/>
</g>
<!-- Node11 -->
<g id="node12" class="node">
<title>Node11</title>
<g id="a_node12"><a xlink:title=" ">
<polygon fill="white" stroke="#bfbfbf" points="748.95,-6.5 748.95,-26.5 847.19,-26.5 847.19,-6.5 748.95,-6.5"/>
<text text-anchor="middle" x="798.07" y="-13.5" font-family="Helvetica,sans-Serif" font-size="10.00">cereal/macros.hpp</text>
</a>
</g>
</g>
<!-- Node7&#45;&gt;Node11 -->
<g id="edge13" class="edge">
<title>Node7&#45;&gt;Node11</title>
<path fill="none" stroke="midnightblue" d="M618.99,-75.46C655.49,-63.65 719.56,-42.91 760.35,-29.71"/>
<polygon fill="midnightblue" stroke="midnightblue" points="761.5,-33.02 769.94,-26.61 759.34,-26.36 761.5,-33.02"/>
</g>
<!-- Node12&#45;&gt;Node1 -->
<g id="edge27" class="edge">
<title>Node12&#45;&gt;Node1</title>
<path fill="none" stroke="midnightblue" d="M702.18,-154.22C634.41,-153.25 513.55,-144.89 421.07,-102 400.78,-92.59 403.4,-78.34 383.07,-69 283.47,-23.22 247.19,-51.06 139.07,-33 130.46,-31.56 121.36,-29.95 112.46,-28.33"/>
<polygon fill="midnightblue" stroke="midnightblue" points="113.02,-24.87 102.55,-26.5 111.75,-31.76 113.02,-24.87"/>
</g>
<!-- Node12&#45;&gt;Node3 -->
<g id="edge16" class="edge">
<title>Node12&#45;&gt;Node3</title>
<path fill="none" stroke="midnightblue" d="M702.42,-151.09C630.59,-146.66 497.08,-134.46 388.07,-102 385.77,-101.31 383.42,-100.49 381.1,-99.59"/>
<polygon fill="midnightblue" stroke="midnightblue" points="382.38,-96.33 371.82,-95.55 379.59,-102.75 382.38,-96.33"/>
</g>
<!-- Node12&#45;&gt;Node4 -->
<g id="edge17" class="edge">
<title>Node12&#45;&gt;Node4</title>
<path fill="none" stroke="midnightblue" d="M747,-144.41C735.01,-127.82 713.61,-92.2 731.07,-69 765.84,-22.81 802.21,-54.02 856.07,-33 857.69,-32.37 859.34,-31.68 860.99,-30.96"/>
<polygon fill="midnightblue" stroke="midnightblue" points="862.71,-34.02 870.27,-26.6 859.73,-27.68 862.71,-34.02"/>
</g>
<!-- Node12&#45;&gt;Node5 -->
<g id="edge18" class="edge">
<title>Node12&#45;&gt;Node5</title>
<path fill="none" stroke="midnightblue" d="M788.14,-144.49C798.35,-142.06 809.61,-139.66 820.07,-138 1009.93,-107.94 1060.63,-128.1 1251.07,-102 1260.24,-100.74 1269.94,-99.13 1279.32,-97.43"/>
<polygon fill="midnightblue" stroke="midnightblue" points="1280.15,-100.83 1289.33,-95.55 1278.86,-93.95 1280.15,-100.83"/>
</g>
<!-- Node12&#45;&gt;Node7 -->
<g id="edge22" class="edge">
<title>Node12&#45;&gt;Node7</title>
<path fill="none" stroke="midnightblue" d="M732.09,-144.46C703.9,-132.88 654.81,-112.7 622.63,-99.47"/>
<polygon fill="midnightblue" stroke="midnightblue" points="623.81,-96.17 613.23,-95.61 621.15,-102.65 623.81,-96.17"/>
</g>
<!-- Node12&#45;&gt;Node9 -->
<g id="edge35" class="edge">
<title>Node12&#45;&gt;Node9</title>
<path fill="none" stroke="midnightblue" d="M788.49,-144.45C798.6,-142.06 809.73,-139.67 820.07,-138 907.74,-123.81 1151.3,-160.55 1218.07,-102 1236.41,-85.92 1239.14,-56.3 1238.67,-36.75"/>
<polygon fill="midnightblue" stroke="midnightblue" points="1242.16,-36.38 1238.13,-26.58 1235.17,-36.76 1242.16,-36.38"/>
</g>
<!-- Node13 -->
<g id="node14" class="node">
<title>Node13</title>
<g id="a_node14"><a xlink:title=" ">
<polygon fill="white" stroke="#bfbfbf" points="861.95,-69.5 861.95,-101.5 970.19,-101.5 970.19,-69.5 861.95,-69.5"/>
<text text-anchor="start" x="869.95" y="-88.5" font-family="Helvetica,sans-Serif" font-size="10.00">halco/common/typed</text>
<text text-anchor="middle" x="916.07" y="-76.5" font-family="Helvetica,sans-Serif" font-size="10.00">_array.h</text>
</a>
</g>
</g>
<!-- Node12&#45;&gt;Node13 -->
<g id="edge19" class="edge">
<title>Node12&#45;&gt;Node13</title>
<path fill="none" stroke="midnightblue" d="M775.92,-144.46C800.03,-134.49 839.5,-118.17 870.43,-105.38"/>
<polygon fill="midnightblue" stroke="midnightblue" points="871.82,-108.59 879.72,-101.53 869.14,-102.12 871.82,-108.59"/>
</g>
<!-- Node14 -->
<g id="node15" class="node">
<title>Node14</title>
<g id="a_node15"><a xlink:title=" ">
<polygon fill="white" stroke="#bfbfbf" points="988.56,-69.5 988.56,-101.5 1089.58,-101.5 1089.58,-69.5 988.56,-69.5"/>
<text text-anchor="start" x="996.56" y="-88.5" font-family="Helvetica,sans-Serif" font-size="10.00">halco/hicann&#45;dls/vx</text>
<text text-anchor="middle" x="1039.07" y="-76.5" font-family="Helvetica,sans-Serif" font-size="10.00">/capmem.h</text>
</a>
</g>
</g>
<!-- Node12&#45;&gt;Node14 -->
<g id="edge20" class="edge">
<title>Node12&#45;&gt;Node14</title>
<path fill="none" stroke="midnightblue" d="M792.45,-144.43C801.5,-142.31 811.13,-140.06 820.07,-138 887.64,-122.42 907.01,-119.32 978.42,-102.12"/>
<polygon fill="midnightblue" stroke="midnightblue" points="979.46,-105.47 988.36,-99.72 977.82,-98.66 979.46,-105.47"/>
</g>
<!-- Node15 -->
<g id="node16" class="node">
<title>Node15</title>
<g id="a_node16"><a xlink:title=" ">
<polygon fill="white" stroke="#bfbfbf" points="1107.56,-69.5 1107.56,-101.5 1208.58,-101.5 1208.58,-69.5 1107.56,-69.5"/>
<text text-anchor="start" x="1115.56" y="-88.5" font-family="Helvetica,sans-Serif" font-size="10.00">halco/hicann&#45;dls/vx</text>
<text text-anchor="middle" x="1158.07" y="-76.5" font-family="Helvetica,sans-Serif" font-size="10.00">/synapse.h</text>
</a>
</g>
</g>
<!-- Node12&#45;&gt;Node15 -->
<g id="edge21" class="edge">
<title>Node12&#45;&gt;Node15</title>
<path fill="none" stroke="midnightblue" d="M789.55,-144.46C799.4,-142.15 810.11,-139.81 820.07,-138 939.85,-116.27 974.54,-125.42 1097.16,-102.23"/>
<polygon fill="midnightblue" stroke="midnightblue" points="1098.16,-105.6 1107.32,-100.28 1096.84,-98.73 1098.16,-105.6"/>
</g>
<!-- Node16 -->
<g id="node17" class="node">
<title>Node16</title>
<g id="a_node17"><a xlink:href="common_8h.html" target="_top" xlink:title=" ">
<polygon fill="white" stroke="black" points="739.9,-75.5 739.9,-95.5 844.24,-95.5 844.24,-75.5 739.9,-75.5"/>
<text text-anchor="middle" x="792.07" y="-82.5" font-family="Helvetica,sans-Serif" font-size="10.00">haldls/vx/common.h</text>
</a>
</g>
</g>
<!-- Node12&#45;&gt;Node16 -->
<g id="edge23" class="edge">
<title>Node12&#45;&gt;Node16</title>
<path fill="none" stroke="midnightblue" d="M759.2,-144.46C764.94,-134.33 774.41,-117.63 781.72,-104.75"/>
<polygon fill="midnightblue" stroke="midnightblue" points="784.89,-106.25 786.78,-95.82 778.81,-102.79 784.89,-106.25"/>
</g>
<!-- Node12&#45;&gt;Node20 -->
<g id="edge28" class="edge">
<title>Node12&#45;&gt;Node20</title>
<path fill="none" stroke="midnightblue" d="M710.36,-144.42C664.51,-134.69 590.44,-118.44 527.07,-102 522.67,-100.86 518.09,-99.61 513.53,-98.33"/>
<polygon fill="midnightblue" stroke="midnightblue" points="514.27,-94.9 503.7,-95.51 512.35,-101.63 514.27,-94.9"/>
</g>
<!-- Node17 -->
<g id="node18" class="node">
<title>Node17</title>
<g id="a_node18"><a xlink:title=" ">
<polygon fill="white" stroke="#bfbfbf" points="669.01,-6.5 669.01,-26.5 731.13,-26.5 731.13,-6.5 669.01,-6.5"/>
<text text-anchor="middle" x="700.07" y="-13.5" font-family="Helvetica,sans-Serif" font-size="10.00">type_traits</text>
</a>
</g>
</g>
<!-- Node16&#45;&gt;Node17 -->
<g id="edge24" class="edge">
<title>Node16&#45;&gt;Node17</title>
<path fill="none" stroke="midnightblue" d="M779.66,-75.46C764.57,-64.47 738.88,-45.76 720.78,-32.58"/>
<polygon fill="midnightblue" stroke="midnightblue" points="722.72,-29.66 712.58,-26.61 718.6,-35.32 722.72,-29.66"/>
</g>
<!-- Node18 -->
<g id="node19" class="node">
<title>Node18</title>
<g id="a_node19"><a xlink:title=" ">
<polygon fill="white" stroke="#bfbfbf" points="927.68,-6.5 927.68,-26.5 966.46,-26.5 966.46,-6.5 927.68,-6.5"/>
<text text-anchor="middle" x="947.07" y="-13.5" font-family="Helvetica,sans-Serif" font-size="10.00">utility</text>
</a>
</g>
</g>
<!-- Node16&#45;&gt;Node18 -->
<g id="edge25" class="edge">
<title>Node16&#45;&gt;Node18</title>
<path fill="none" stroke="midnightblue" d="M816.55,-75.36C842.17,-65.58 883.43,-49.29 918.07,-33 919.23,-32.45 920.42,-31.88 921.61,-31.3"/>
<polygon fill="midnightblue" stroke="midnightblue" points="923.36,-34.33 930.66,-26.65 920.16,-28.1 923.36,-34.33"/>
</g>
<!-- Node19 -->
<g id="node20" class="node">
<title>Node19</title>
<g id="a_node20"><a xlink:title=" ">
<polygon fill="white" stroke="#bfbfbf" points="984.45,-6.5 984.45,-26.5 1107.7,-26.5 1107.7,-6.5 984.45,-6.5"/>
<text text-anchor="middle" x="1046.07" y="-13.5" font-family="Helvetica,sans-Serif" font-size="10.00">fisch/vx/omnibus_data.h</text>
</a>
</g>
</g>
<!-- Node16&#45;&gt;Node19 -->
<g id="edge26" class="edge">
<title>Node16&#45;&gt;Node19</title>
<path fill="none" stroke="midnightblue" d="M826.33,-75.46C871.68,-63.5 951.73,-42.39 1001.67,-29.21"/>
<polygon fill="midnightblue" stroke="midnightblue" points="1002.77,-32.54 1011.55,-26.61 1000.99,-25.77 1002.77,-32.54"/>
</g>
<!-- Node20&#45;&gt;Node1 -->
<g id="edge31" class="edge">
<title>Node20&#45;&gt;Node1</title>
<path fill="none" stroke="midnightblue" d="M443.24,-75.45C434.52,-73.11 424.97,-70.76 416.07,-69 294.28,-44.92 261.69,-52.4 139.07,-33 130.34,-31.62 121.12,-30.03 112.12,-28.4"/>
<polygon fill="midnightblue" stroke="midnightblue" points="112.56,-24.93 102.09,-26.56 111.29,-31.81 112.56,-24.93"/>
</g>
<!-- Node20&#45;&gt;Node8 -->
<g id="edge32" class="edge">
<title>Node20&#45;&gt;Node8</title>
<path fill="none" stroke="midnightblue" d="M483.78,-75.46C495.2,-64.83 514.39,-46.98 528.46,-33.89"/>
<polygon fill="midnightblue" stroke="midnightblue" points="531.12,-36.2 536.05,-26.82 526.35,-31.07 531.12,-36.2"/>
</g>
<!-- Node20&#45;&gt;Node17 -->
<g id="edge29" class="edge">
<title>Node20&#45;&gt;Node17</title>
<path fill="none" stroke="midnightblue" d="M504.59,-75.47C511.95,-73.32 519.78,-71.06 527.07,-69 585.59,-52.46 601.23,-51.77 659.07,-33 661.85,-32.1 664.72,-31.12 667.6,-30.1"/>
<polygon fill="midnightblue" stroke="midnightblue" points="669.03,-33.3 677.22,-26.58 666.63,-26.73 669.03,-33.3"/>
</g>
<!-- Node21 -->
<g id="node22" class="node">
<title>Node21</title>
<g id="a_node22"><a xlink:title=" ">
<polygon fill="white" stroke="#bfbfbf" points="276.45,-0.5 276.45,-32.5 369.69,-32.5 369.69,-0.5 276.45,-0.5"/>
<text text-anchor="start" x="284.45" y="-19.5" font-family="Helvetica,sans-Serif" font-size="10.00">fisch/vx/container</text>
<text text-anchor="middle" x="323.07" y="-7.5" font-family="Helvetica,sans-Serif" font-size="10.00">_fwd.h</text>
</a>
</g>
</g>
<!-- Node20&#45;&gt;Node21 -->
<g id="edge30" class="edge">
<title>Node20&#45;&gt;Node21</title>
<path fill="none" stroke="midnightblue" d="M453.71,-75.46C431.43,-65.58 395.07,-49.45 366.36,-36.71"/>
<polygon fill="midnightblue" stroke="midnightblue" points="367.51,-33.39 356.95,-32.53 364.67,-39.79 367.51,-33.39"/>
</g>
<!-- Node22 -->
<g id="node23" class="node">
<title>Node22</title>
<g id="a_node23"><a xlink:title=" ">
<polygon fill="white" stroke="#bfbfbf" points="387.67,-0.5 387.67,-32.5 486.47,-32.5 486.47,-0.5 387.67,-0.5"/>
<text text-anchor="start" x="395.67" y="-19.5" font-family="Helvetica,sans-Serif" font-size="10.00">boost/utility/enable</text>
<text text-anchor="middle" x="437.07" y="-7.5" font-family="Helvetica,sans-Serif" font-size="10.00">_if.hpp</text>
</a>
</g>
</g>
<!-- Node20&#45;&gt;Node22 -->
<g id="edge33" class="edge">
<title>Node20&#45;&gt;Node22</title>
<path fill="none" stroke="midnightblue" d="M469.08,-75.46C464.29,-66.78 456.83,-53.28 450.32,-41.5"/>
<polygon fill="midnightblue" stroke="midnightblue" points="453.27,-39.6 445.37,-32.53 447.14,-42.98 453.27,-39.6"/>
</g>
<!-- Node23 -->
<g id="node24" class="node">
<title>Node23</title>
<g id="a_node24"><a xlink:title=" ">
<polygon fill="white" stroke="#bfbfbf" points="148.12,-6.5 148.12,-26.5 258.03,-26.5 258.03,-6.5 148.12,-6.5"/>
<text text-anchor="middle" x="203.07" y="-13.5" font-family="Helvetica,sans-Serif" font-size="10.00">fisch/vx/container.def</text>
</a>
</g>
</g>
<!-- Node20&#45;&gt;Node23 -->
<g id="edge34" class="edge">
<title>Node20&#45;&gt;Node23</title>
<path fill="none" stroke="midnightblue" d="M440.68,-75.43C432.63,-73.28 424.05,-71.03 416.07,-69 350.05,-52.2 333.29,-49.02 267.07,-33 261.65,-31.69 255.98,-30.32 250.34,-28.95"/>
<polygon fill="midnightblue" stroke="midnightblue" points="250.84,-25.47 240.3,-26.52 249.19,-32.27 250.84,-25.47"/>
</g>
</g>
</svg>
        <g id="navigator" transform="translate(0 0)" fill="#404254">
                <rect fill="#f2f5e9" fill-opacity="0.5" stroke="#606060" stroke-width=".5" x="0" y="0" width="60" height="60"/>
                <use id="zoomplus" xlink:href="#zoomPlus" x="17" y="9" onmousedown="handleZoom(evt,'in')"/>
                <use id="zoomminus" xlink:href="#zoomMin" x="42" y="9" onmousedown="handleZoom(evt,'out')"/>
                <use id="reset" xlink:href="#resetDef" x="30" y="36" onmousedown="handleReset()"/>
                <g id="arrowUp" xlink:href="#dirArrow" transform="translate(30 24)" onmousedown="handlePan(0,-1)">
                  <use xlink:href="#rim" fill="#404040">
                        <set attributeName="fill" to="#808080" begin="arrowUp.mouseover" end="arrowUp.mouseout"/>
                  </use>
                  <path fill="none" stroke="white" stroke-width="1.5" d="M0,-3.0v7 M-2.5,-0.5L0,-3.0L2.5,-0.5"/>
                </g>
                <g id="arrowRight" xlink:href="#dirArrow" transform="rotate(90) translate(36 -43)" onmousedown="handlePan(1,0)">
                  <use xlink:href="#rim" fill="#404040">
                        <set attributeName="fill" to="#808080" begin="arrowRight.mouseover" end="arrowRight.mouseout"/>
                  </use>
                  <path fill="none" stroke="white" stroke-width="1.5" d="M0,-3.0v7 M-2.5,-0.5L0,-3.0L2.5,-0.5"/>
                </g>
                <g id="arrowDown" xlink:href="#dirArrow" transform="rotate(180) translate(-30 -48)" onmousedown="handlePan(0,1)">
                  <use xlink:href="#rim" fill="#404040">
                        <set attributeName="fill" to="#808080" begin="arrowDown.mouseover" end="arrowDown.mouseout"/>
                  </use>
                  <path fill="none" stroke="white" stroke-width="1.5" d="M0,-3.0v7 M-2.5,-0.5L0,-3.0L2.5,-0.5"/>
                </g>
                <g id="arrowLeft" xlink:href="#dirArrow" transform="rotate(270) translate(-36 17)" onmousedown="handlePan(-1,0)">
                  <use xlink:href="#rim" fill="#404040">
                        <set attributeName="fill" to="#808080" begin="arrowLeft.mouseover" end="arrowLeft.mouseout"/>
                  </use>
                  <path fill="none" stroke="white" stroke-width="1.5" d="M0,-3.0v7 M-2.5,-0.5L0,-3.0L2.5,-0.5"/>
                </g>
        </g>
        <svg viewBox="0 0 15 15" width="100%" height="30px" preserveAspectRatio="xMaxYMin meet">
         <g id="arrow_out" transform="scale(0.3 0.3)">
          <a xlink:href="v1_2padi_8h__incl_org.svg" target="_base">
           <rect id="button" ry="5" rx="5" y="6" x="6" height="38" width="38"
                fill="#f2f5e9" fill-opacity="0.5" stroke="#606060" stroke-width="1.0"/>
           <path id="arrow"
             d="M 11.500037,31.436501 C 11.940474,20.09759 22.043105,11.32322 32.158766,21.979434 L 37.068811,17.246167 C 37.068811,17.246167 37.088388,32 37.088388,32 L 22.160133,31.978069 C 22.160133,31.978069 26.997745,27.140456 26.997745,27.140456 C 18.528582,18.264221 13.291696,25.230495 11.500037,31.436501 z"
             style="fill:#404040;"/>
          </a>
         </g>
        </svg>
</svg>
