<?xml version="1.0" encoding="UTF-8" standalone="no"?>
<!DOCTYPE svg PUBLIC "-//W3C//DTD SVG 1.1//EN"
 "http://www.w3.org/Graphics/SVG/1.1/DTD/svg11.dtd">
<!-- Generated by graphviz version 2.43.0 (0)
 -->
<!-- Title: /jenkins/jenlib_workspaces_f9/bld_nightly&#45;haldls.YmxkX25pZ2h0bHktaGFsZGxzIzcxMQ.x/haldls/include/haldls/vx/v1/ppu.h Pages: 1 -->
<svg width="1402pt" height="260pt"
 viewBox="0.00 0.00 1402.46 260.00" xmlns="http://www.w3.org/2000/svg" xmlns:xlink="http://www.w3.org/1999/xlink">
<g id="graph0" class="graph" transform="scale(1 1) rotate(0) translate(4 256)">
<title>/jenkins/jenlib_workspaces_f9/bld_nightly&#45;haldls.YmxkX25pZ2h0bHktaGFsZGxzIzcxMQ.x/haldls/include/haldls/vx/v1/ppu.h</title>
<polygon fill="white" stroke="transparent" points="-4,4 -4,-256 1398.46,-256 1398.46,4 -4,4"/>
<!-- Node0 -->
<g id="node1" class="node">
<title>Node0</title>
<g id="a_node1"><a xlink:title=" ">
<polygon fill="#bfbfbf" stroke="black" points="262.95,-195.5 262.95,-251.5 441.19,-251.5 441.19,-195.5 262.95,-195.5"/>
<text text-anchor="start" x="270.95" y="-238.5" font-family="Helvetica,sans-Serif" font-size="10.00">/jenkins/jenlib_workspaces</text>
<text text-anchor="start" x="270.95" y="-226.5" font-family="Helvetica,sans-Serif" font-size="10.00">_f9/bld_nightly&#45;haldls.YmxkX25p</text>
<text text-anchor="start" x="270.95" y="-214.5" font-family="Helvetica,sans-Serif" font-size="10.00">Z2h0bHktaGFsZGxzIzcxMQ.x/haldls</text>
<text text-anchor="middle" x="352.07" y="-202.5" font-family="Helvetica,sans-Serif" font-size="10.00">/include/haldls/vx/v1/ppu.h</text>
</a>
</g>
</g>
<!-- Node1 -->
<g id="node2" class="node">
<title>Node1</title>
<g id="a_node2"><a xlink:href="genpybind_8h.html" target="_top" xlink:title=" ">
<polygon fill="white" stroke="black" points="0,-6.5 0,-26.5 112.14,-26.5 112.14,-6.5 0,-6.5"/>
<text text-anchor="middle" x="56.07" y="-13.5" font-family="Helvetica,sans-Serif" font-size="10.00">haldls/vx/genpybind.h</text>
</a>
</g>
</g>
<!-- Node0&#45;&gt;Node1 -->
<g id="edge1" class="edge">
<title>Node0&#45;&gt;Node1</title>
<path fill="none" stroke="midnightblue" d="M306.94,-195.5C268.11,-171.85 210.96,-136.05 163.07,-102 131.02,-79.22 95.51,-50.42 74.53,-33.01"/>
<polygon fill="midnightblue" stroke="midnightblue" points="76.65,-30.22 66.73,-26.51 72.17,-35.6 76.65,-30.22"/>
</g>
<!-- Node2 -->
<g id="node3" class="node">
<title>Node2</title>
<g id="a_node3"><a xlink:href="ppu_8h.html" target="_top" xlink:title=" ">
<polygon fill="white" stroke="black" points="678.73,-138.5 678.73,-158.5 761.42,-158.5 761.42,-138.5 678.73,-138.5"/>
<text text-anchor="middle" x="720.07" y="-145.5" font-family="Helvetica,sans-Serif" font-size="10.00">haldls/vx/ppu.h</text>
</a>
</g>
</g>
<!-- Node0&#45;&gt;Node2 -->
<g id="edge3" class="edge">
<title>Node0&#45;&gt;Node2</title>
<path fill="none" stroke="midnightblue" d="M441.62,-204.74C512.67,-190.64 609.5,-171.43 668.25,-159.78"/>
<polygon fill="midnightblue" stroke="midnightblue" points="669.28,-163.14 678.4,-157.77 667.91,-156.28 669.28,-163.14"/>
</g>
<!-- Node1&#45;&gt;Node1 -->
<g id="edge2" class="edge">
<title>Node1&#45;&gt;Node1</title>
<path fill="none" stroke="midnightblue" d="M79.97,-26.54C103.79,-32.26 130.14,-28.92 130.14,-16.5 130.14,-5.78 110.51,-1.82 89.81,-4.62"/>
<polygon fill="midnightblue" stroke="midnightblue" points="89.15,-1.18 79.97,-6.46 90.44,-8.06 89.15,-1.18"/>
</g>
<!-- Node2&#45;&gt;Node1 -->
<g id="edge22" class="edge">
<title>Node2&#45;&gt;Node1</title>
<path fill="none" stroke="midnightblue" d="M678.7,-147.59C596.74,-146.87 408.46,-140.71 256.07,-102 190.67,-85.39 118.95,-50.69 81.72,-31.33"/>
<polygon fill="midnightblue" stroke="midnightblue" points="83.07,-28.08 72.59,-26.52 79.81,-34.28 83.07,-28.08"/>
</g>
<!-- Node3 -->
<g id="node4" class="node">
<title>Node3</title>
<g id="a_node4"><a xlink:title=" ">
<polygon fill="white" stroke="#bfbfbf" points="1355.68,-75.5 1355.68,-95.5 1394.46,-95.5 1394.46,-75.5 1355.68,-75.5"/>
<text text-anchor="middle" x="1375.07" y="-82.5" font-family="Helvetica,sans-Serif" font-size="10.00">array</text>
</a>
</g>
</g>
<!-- Node2&#45;&gt;Node3 -->
<g id="edge4" class="edge">
<title>Node2&#45;&gt;Node3</title>
<path fill="none" stroke="midnightblue" d="M761.59,-146.43C882.34,-143.02 1231.83,-130.86 1342.07,-102 1344.54,-101.35 1347.04,-100.53 1349.51,-99.6"/>
<polygon fill="midnightblue" stroke="midnightblue" points="1350.94,-102.79 1358.73,-95.62 1348.16,-96.37 1350.94,-102.79"/>
</g>
<!-- Node4 -->
<g id="node5" class="node">
<title>Node4</title>
<g id="a_node5"><a xlink:title=" ">
<polygon fill="white" stroke="#bfbfbf" points="976.9,-6.5 976.9,-26.5 1021.24,-26.5 1021.24,-6.5 976.9,-6.5"/>
<text text-anchor="middle" x="999.07" y="-13.5" font-family="Helvetica,sans-Serif" font-size="10.00">iosfwd</text>
</a>
</g>
</g>
<!-- Node2&#45;&gt;Node4 -->
<g id="edge5" class="edge">
<title>Node2&#45;&gt;Node4</title>
<path fill="none" stroke="midnightblue" d="M691.28,-138.41C674.28,-131.38 654.16,-119.79 644.07,-102 636.84,-89.24 634.47,-80.09 644.07,-69 649.37,-62.88 880.04,-32.76 966.66,-21.63"/>
<polygon fill="midnightblue" stroke="midnightblue" points="967.24,-25.09 976.72,-20.34 966.35,-18.14 967.24,-25.09"/>
</g>
<!-- Node5 -->
<g id="node6" class="node">
<title>Node5</title>
<g id="a_node6"><a xlink:title=" ">
<polygon fill="white" stroke="#bfbfbf" points="653.17,-75.5 653.17,-95.5 786.97,-95.5 786.97,-75.5 653.17,-75.5"/>
<text text-anchor="middle" x="720.07" y="-82.5" font-family="Helvetica,sans-Serif" font-size="10.00">halco/common/geometry.h</text>
</a>
</g>
</g>
<!-- Node2&#45;&gt;Node5 -->
<g id="edge6" class="edge">
<title>Node2&#45;&gt;Node5</title>
<path fill="none" stroke="midnightblue" d="M720.07,-138.5C720.07,-129.94 720.07,-116.78 720.07,-105.85"/>
<polygon fill="midnightblue" stroke="midnightblue" points="723.57,-105.54 720.07,-95.54 716.57,-105.54 723.57,-105.54"/>
</g>
<!-- Node6 -->
<g id="node7" class="node">
<title>Node6</title>
<g id="a_node7"><a xlink:title=" ">
<polygon fill="white" stroke="#bfbfbf" points="805.29,-75.5 805.29,-95.5 926.86,-95.5 926.86,-75.5 805.29,-75.5"/>
<text text-anchor="middle" x="866.07" y="-82.5" font-family="Helvetica,sans-Serif" font-size="10.00">halco/common/iter_all.h</text>
</a>
</g>
</g>
<!-- Node2&#45;&gt;Node6 -->
<g id="edge7" class="edge">
<title>Node2&#45;&gt;Node6</title>
<path fill="none" stroke="midnightblue" d="M741.61,-138.5C766.31,-128.18 806.98,-111.19 835.07,-99.45"/>
<polygon fill="midnightblue" stroke="midnightblue" points="836.56,-102.62 844.44,-95.54 833.86,-96.16 836.56,-102.62"/>
</g>
<!-- Node7 -->
<g id="node8" class="node">
<title>Node7</title>
<g id="a_node8"><a xlink:title=" ">
<polygon fill="white" stroke="#bfbfbf" points="944.95,-69.5 944.95,-101.5 1053.19,-101.5 1053.19,-69.5 944.95,-69.5"/>
<text text-anchor="start" x="952.95" y="-88.5" font-family="Helvetica,sans-Serif" font-size="10.00">halco/common/typed</text>
<text text-anchor="middle" x="999.07" y="-76.5" font-family="Helvetica,sans-Serif" font-size="10.00">_heap_array.h</text>
</a>
</g>
</g>
<!-- Node2&#45;&gt;Node7 -->
<g id="edge8" class="edge">
<title>Node2&#45;&gt;Node7</title>
<path fill="none" stroke="midnightblue" d="M761.57,-139.19C803,-130.8 868.73,-117.22 934.65,-102.29"/>
<polygon fill="midnightblue" stroke="midnightblue" points="935.83,-105.61 944.8,-99.97 934.28,-98.78 935.83,-105.61"/>
</g>
<!-- Node8 -->
<g id="node9" class="node">
<title>Node8</title>
<g id="a_node9"><a xlink:title=" ">
<polygon fill="white" stroke="#bfbfbf" points="1071.56,-69.5 1071.56,-101.5 1172.58,-101.5 1172.58,-69.5 1071.56,-69.5"/>
<text text-anchor="start" x="1079.56" y="-88.5" font-family="Helvetica,sans-Serif" font-size="10.00">halco/hicann&#45;dls/vx</text>
<text text-anchor="middle" x="1122.07" y="-76.5" font-family="Helvetica,sans-Serif" font-size="10.00">/ppu.h</text>
</a>
</g>
</g>
<!-- Node2&#45;&gt;Node8 -->
<g id="edge9" class="edge">
<title>Node2&#45;&gt;Node8</title>
<path fill="none" stroke="midnightblue" d="M761.66,-143.6C824.47,-137.36 947.41,-123.75 1061.48,-101.97"/>
<polygon fill="midnightblue" stroke="midnightblue" points="1062.28,-105.38 1071.43,-100.04 1060.95,-98.5 1062.28,-105.38"/>
</g>
<!-- Node9 -->
<g id="node10" class="node">
<title>Node9</title>
<g id="a_node10"><a xlink:href="cerealization_8h.html" target="_top" xlink:title=" ">
<polygon fill="white" stroke="black" points="1190.4,-75.5 1190.4,-95.5 1299.75,-95.5 1299.75,-75.5 1190.4,-75.5"/>
<text text-anchor="middle" x="1245.07" y="-82.5" font-family="Helvetica,sans-Serif" font-size="10.00">haldls/cerealization.h</text>
</a>
</g>
</g>
<!-- Node2&#45;&gt;Node9 -->
<g id="edge10" class="edge">
<title>Node2&#45;&gt;Node9</title>
<path fill="none" stroke="midnightblue" d="M761.44,-145.42C842.59,-140.89 1028.16,-128.37 1182.07,-102 1188.71,-100.86 1195.68,-99.41 1202.48,-97.85"/>
<polygon fill="midnightblue" stroke="midnightblue" points="1203.32,-101.25 1212.23,-95.52 1201.7,-94.44 1203.32,-101.25"/>
</g>
<!-- Node11 -->
<g id="node12" class="node">
<title>Node11</title>
<g id="a_node12"><a xlink:title=" ">
<polygon fill="white" stroke="#bfbfbf" points="1299.57,-6.5 1299.57,-26.5 1380.57,-26.5 1380.57,-6.5 1299.57,-6.5"/>
<text text-anchor="middle" x="1340.07" y="-13.5" font-family="Helvetica,sans-Serif" font-size="10.00">hate/visibility.h</text>
</a>
</g>
</g>
<!-- Node2&#45;&gt;Node11 -->
<g id="edge30" class="edge">
<title>Node2&#45;&gt;Node11</title>
<path fill="none" stroke="midnightblue" d="M761.55,-146.85C888.47,-144.53 1265.63,-134.89 1309.07,-102 1329.37,-86.63 1336.39,-56.6 1338.81,-36.79"/>
<polygon fill="midnightblue" stroke="midnightblue" points="1342.3,-37.03 1339.75,-26.75 1335.33,-36.38 1342.3,-37.03"/>
</g>
<!-- Node14 -->
<g id="node15" class="node">
<title>Node14</title>
<g id="a_node15"><a xlink:href="common_8h.html" target="_top" xlink:title=" ">
<polygon fill="white" stroke="black" points="492.9,-75.5 492.9,-95.5 597.24,-95.5 597.24,-75.5 492.9,-75.5"/>
<text text-anchor="middle" x="545.07" y="-82.5" font-family="Helvetica,sans-Serif" font-size="10.00">haldls/vx/common.h</text>
</a>
</g>
</g>
<!-- Node2&#45;&gt;Node14 -->
<g id="edge16" class="edge">
<title>Node2&#45;&gt;Node14</title>
<path fill="none" stroke="midnightblue" d="M694.25,-138.5C664.14,-128 614.19,-110.59 580.47,-98.84"/>
<polygon fill="midnightblue" stroke="midnightblue" points="581.59,-95.52 571,-95.54 579.29,-102.13 581.59,-95.52"/>
</g>
<!-- Node18 -->
<g id="node19" class="node">
<title>Node18</title>
<g id="a_node19"><a xlink:href="coordinate__to__container_8h.html" target="_top" xlink:title=" ">
<polygon fill="white" stroke="black" points="370.89,-69.5 370.89,-101.5 475.25,-101.5 475.25,-69.5 370.89,-69.5"/>
<text text-anchor="start" x="378.89" y="-88.5" font-family="Helvetica,sans-Serif" font-size="10.00">haldls/vx/coordinate</text>
<text text-anchor="middle" x="423.07" y="-76.5" font-family="Helvetica,sans-Serif" font-size="10.00">_to_container.h</text>
</a>
</g>
</g>
<!-- Node2&#45;&gt;Node18 -->
<g id="edge20" class="edge">
<title>Node2&#45;&gt;Node18</title>
<path fill="none" stroke="midnightblue" d="M678.57,-140.26C633.34,-132.19 558.64,-118.39 485.16,-102.17"/>
<polygon fill="midnightblue" stroke="midnightblue" points="485.79,-98.73 475.27,-99.98 484.27,-105.56 485.79,-98.73"/>
</g>
<!-- Node19 -->
<g id="node20" class="node">
<title>Node19</title>
<g id="a_node20"><a xlink:href="traits_8h.html" target="_top" xlink:title=" ">
<polygon fill="white" stroke="black" points="265.23,-75.5 265.23,-95.5 352.91,-95.5 352.91,-75.5 265.23,-75.5"/>
<text text-anchor="middle" x="309.07" y="-82.5" font-family="Helvetica,sans-Serif" font-size="10.00">haldls/vx/traits.h</text>
</a>
</g>
</g>
<!-- Node2&#45;&gt;Node19 -->
<g id="edge23" class="edge">
<title>Node2&#45;&gt;Node19</title>
<path fill="none" stroke="midnightblue" d="M678.65,-144.38C611.6,-138.84 475.39,-125.62 362.07,-102 357.04,-100.95 351.79,-99.66 346.63,-98.28"/>
<polygon fill="midnightblue" stroke="midnightblue" points="347.49,-94.88 336.92,-95.54 345.59,-101.62 347.49,-94.88"/>
</g>
<!-- Node9&#45;&gt;Node4 -->
<g id="edge14" class="edge">
<title>Node9&#45;&gt;Node4</title>
<path fill="none" stroke="midnightblue" d="M1211.89,-75.46C1164.59,-62.58 1078.3,-39.08 1031.44,-26.32"/>
<polygon fill="midnightblue" stroke="midnightblue" points="1032.09,-22.87 1021.52,-23.61 1030.25,-29.62 1032.09,-22.87"/>
</g>
<!-- Node10 -->
<g id="node11" class="node">
<title>Node10</title>
<g id="a_node11"><a xlink:title=" ">
<polygon fill="white" stroke="#bfbfbf" points="584.45,-6.5 584.45,-26.5 667.69,-26.5 667.69,-6.5 584.45,-6.5"/>
<text text-anchor="middle" x="626.07" y="-13.5" font-family="Helvetica,sans-Serif" font-size="10.00">hate/type_list.h</text>
</a>
</g>
</g>
<!-- Node9&#45;&gt;Node10 -->
<g id="edge11" class="edge">
<title>Node9&#45;&gt;Node10</title>
<path fill="none" stroke="midnightblue" d="M1212.91,-75.47C1203.08,-73.01 1192.2,-70.59 1182.07,-69 959.36,-33.94 897.65,-74.65 676.07,-33 671.19,-32.08 666.12,-30.85 661.16,-29.48"/>
<polygon fill="midnightblue" stroke="midnightblue" points="661.81,-26.02 651.22,-26.53 659.81,-32.73 661.81,-26.02"/>
</g>
<!-- Node9&#45;&gt;Node11 -->
<g id="edge12" class="edge">
<title>Node9&#45;&gt;Node11</title>
<path fill="none" stroke="midnightblue" d="M1257.88,-75.46C1273.54,-64.42 1300.24,-45.59 1318.95,-32.4"/>
<polygon fill="midnightblue" stroke="midnightblue" points="1321,-35.23 1327.16,-26.61 1316.97,-29.51 1321,-35.23"/>
</g>
<!-- Node12 -->
<g id="node13" class="node">
<title>Node12</title>
<g id="a_node13"><a xlink:title=" ">
<polygon fill="white" stroke="#bfbfbf" points="1119.62,-6.5 1119.62,-26.5 1164.52,-26.5 1164.52,-6.5 1119.62,-6.5"/>
<text text-anchor="middle" x="1142.07" y="-13.5" font-family="Helvetica,sans-Serif" font-size="10.00">cstdint</text>
</a>
</g>
</g>
<!-- Node9&#45;&gt;Node12 -->
<g id="edge13" class="edge">
<title>Node9&#45;&gt;Node12</title>
<path fill="none" stroke="midnightblue" d="M1231.18,-75.46C1214.13,-64.38 1185,-45.42 1164.7,-32.22"/>
<polygon fill="midnightblue" stroke="midnightblue" points="1166.36,-29.13 1156.07,-26.61 1162.55,-34.99 1166.36,-29.13"/>
</g>
<!-- Node13 -->
<g id="node14" class="node">
<title>Node13</title>
<g id="a_node14"><a xlink:title=" ">
<polygon fill="white" stroke="#bfbfbf" points="1182.95,-6.5 1182.95,-26.5 1281.19,-26.5 1281.19,-6.5 1182.95,-6.5"/>
<text text-anchor="middle" x="1232.07" y="-13.5" font-family="Helvetica,sans-Serif" font-size="10.00">cereal/macros.hpp</text>
</a>
</g>
</g>
<!-- Node9&#45;&gt;Node13 -->
<g id="edge15" class="edge">
<title>Node9&#45;&gt;Node13</title>
<path fill="none" stroke="midnightblue" d="M1243.32,-75.46C1241.41,-65.63 1238.3,-49.61 1235.84,-36.9"/>
<polygon fill="midnightblue" stroke="midnightblue" points="1239.22,-35.97 1233.88,-26.82 1232.35,-37.31 1239.22,-35.97"/>
</g>
<!-- Node15 -->
<g id="node16" class="node">
<title>Node15</title>
<g id="a_node16"><a xlink:title=" ">
<polygon fill="white" stroke="#bfbfbf" points="504.01,-6.5 504.01,-26.5 566.13,-26.5 566.13,-6.5 504.01,-6.5"/>
<text text-anchor="middle" x="535.07" y="-13.5" font-family="Helvetica,sans-Serif" font-size="10.00">type_traits</text>
</a>
</g>
</g>
<!-- Node14&#45;&gt;Node15 -->
<g id="edge17" class="edge">
<title>Node14&#45;&gt;Node15</title>
<path fill="none" stroke="midnightblue" d="M543.72,-75.46C542.25,-65.63 539.86,-49.61 537.97,-36.9"/>
<polygon fill="midnightblue" stroke="midnightblue" points="541.4,-36.2 536.46,-26.82 534.48,-37.23 541.4,-36.2"/>
</g>
<!-- Node16 -->
<g id="node17" class="node">
<title>Node16</title>
<g id="a_node17"><a xlink:title=" ">
<polygon fill="white" stroke="#bfbfbf" points="826.68,-6.5 826.68,-26.5 865.46,-26.5 865.46,-6.5 826.68,-6.5"/>
<text text-anchor="middle" x="846.07" y="-13.5" font-family="Helvetica,sans-Serif" font-size="10.00">utility</text>
</a>
</g>
</g>
<!-- Node14&#45;&gt;Node16 -->
<g id="edge18" class="edge">
<title>Node14&#45;&gt;Node16</title>
<path fill="none" stroke="midnightblue" d="M581.99,-75.43C591.45,-73.22 601.62,-70.93 611.07,-69 702.56,-50.32 730,-64.04 818.07,-33 819.69,-32.43 821.33,-31.77 822.96,-31.05"/>
<polygon fill="midnightblue" stroke="midnightblue" points="824.62,-34.13 831.97,-26.5 821.46,-27.88 824.62,-34.13"/>
</g>
<!-- Node17 -->
<g id="node18" class="node">
<title>Node17</title>
<g id="a_node18"><a xlink:title=" ">
<polygon fill="white" stroke="#bfbfbf" points="685.45,-6.5 685.45,-26.5 808.7,-26.5 808.7,-6.5 685.45,-6.5"/>
<text text-anchor="middle" x="747.07" y="-13.5" font-family="Helvetica,sans-Serif" font-size="10.00">fisch/vx/omnibus_data.h</text>
</a>
</g>
</g>
<!-- Node14&#45;&gt;Node17 -->
<g id="edge19" class="edge">
<title>Node14&#45;&gt;Node17</title>
<path fill="none" stroke="midnightblue" d="M572.31,-75.46C607.86,-63.68 670.19,-43 710.01,-29.79"/>
<polygon fill="midnightblue" stroke="midnightblue" points="711.23,-33.08 719.62,-26.61 709.02,-26.43 711.23,-33.08"/>
</g>
<!-- Node18&#45;&gt;Node15 -->
<g id="edge21" class="edge">
<title>Node18&#45;&gt;Node15</title>
<path fill="none" stroke="midnightblue" d="M448.21,-69.46C467.08,-58.18 492.74,-42.82 511.28,-31.73"/>
<polygon fill="midnightblue" stroke="midnightblue" points="513.21,-34.66 520,-26.52 509.62,-28.65 513.21,-34.66"/>
</g>
<!-- Node19&#45;&gt;Node1 -->
<g id="edge26" class="edge">
<title>Node19&#45;&gt;Node1</title>
<path fill="none" stroke="midnightblue" d="M274.95,-75.46C229.78,-63.5 150.04,-42.39 100.29,-29.21"/>
<polygon fill="midnightblue" stroke="midnightblue" points="101.02,-25.78 90.46,-26.61 99.23,-32.55 101.02,-25.78"/>
</g>
<!-- Node19&#45;&gt;Node10 -->
<g id="edge27" class="edge">
<title>Node19&#45;&gt;Node10</title>
<path fill="none" stroke="midnightblue" d="M337.79,-75.44C345.62,-73.15 354.13,-70.83 362.07,-69 455.64,-47.49 481.62,-55 575.07,-33 579.55,-31.95 584.21,-30.72 588.82,-29.42"/>
<polygon fill="midnightblue" stroke="midnightblue" points="590.11,-32.69 598.72,-26.51 588.14,-25.97 590.11,-32.69"/>
</g>
<!-- Node19&#45;&gt;Node15 -->
<g id="edge24" class="edge">
<title>Node19&#45;&gt;Node15</title>
<path fill="none" stroke="midnightblue" d="M339.59,-75.46C346.94,-73.31 354.78,-71.05 362.07,-69 421.02,-52.4 436.88,-52.09 495.07,-33 497.79,-32.11 500.6,-31.13 503.4,-30.12"/>
<polygon fill="midnightblue" stroke="midnightblue" points="504.66,-33.39 512.8,-26.61 502.2,-26.83 504.66,-33.39"/>
</g>
<!-- Node20 -->
<g id="node21" class="node">
<title>Node20</title>
<g id="a_node21"><a xlink:title=" ">
<polygon fill="white" stroke="#bfbfbf" points="148.45,-0.5 148.45,-32.5 241.69,-32.5 241.69,-0.5 148.45,-0.5"/>
<text text-anchor="start" x="156.45" y="-19.5" font-family="Helvetica,sans-Serif" font-size="10.00">fisch/vx/container</text>
<text text-anchor="middle" x="195.07" y="-7.5" font-family="Helvetica,sans-Serif" font-size="10.00">_fwd.h</text>
</a>
</g>
</g>
<!-- Node19&#45;&gt;Node20 -->
<g id="edge25" class="edge">
<title>Node19&#45;&gt;Node20</title>
<path fill="none" stroke="midnightblue" d="M293.7,-75.46C277.32,-65.84 250.86,-50.29 229.46,-37.71"/>
<polygon fill="midnightblue" stroke="midnightblue" points="231.05,-34.58 220.65,-32.53 227.5,-40.62 231.05,-34.58"/>
</g>
<!-- Node21 -->
<g id="node22" class="node">
<title>Node21</title>
<g id="a_node22"><a xlink:title=" ">
<polygon fill="white" stroke="#bfbfbf" points="259.67,-0.5 259.67,-32.5 358.47,-32.5 358.47,-0.5 259.67,-0.5"/>
<text text-anchor="start" x="267.67" y="-19.5" font-family="Helvetica,sans-Serif" font-size="10.00">boost/utility/enable</text>
<text text-anchor="middle" x="309.07" y="-7.5" font-family="Helvetica,sans-Serif" font-size="10.00">_if.hpp</text>
</a>
</g>
</g>
<!-- Node19&#45;&gt;Node21 -->
<g id="edge28" class="edge">
<title>Node19&#45;&gt;Node21</title>
<path fill="none" stroke="midnightblue" d="M309.07,-75.46C309.07,-67.04 309.07,-54.08 309.07,-42.55"/>
<polygon fill="midnightblue" stroke="midnightblue" points="312.57,-42.53 309.07,-32.53 305.57,-42.53 312.57,-42.53"/>
</g>
<!-- Node22 -->
<g id="node23" class="node">
<title>Node22</title>
<g id="a_node23"><a xlink:title=" ">
<polygon fill="white" stroke="#bfbfbf" points="376.12,-6.5 376.12,-26.5 486.03,-26.5 486.03,-6.5 376.12,-6.5"/>
<text text-anchor="middle" x="431.07" y="-13.5" font-family="Helvetica,sans-Serif" font-size="10.00">fisch/vx/container.def</text>
</a>
</g>
</g>
<!-- Node19&#45;&gt;Node22 -->
<g id="edge29" class="edge">
<title>Node19&#45;&gt;Node22</title>
<path fill="none" stroke="midnightblue" d="M325.52,-75.46C346.08,-64.18 381.48,-44.74 405.56,-31.51"/>
<polygon fill="midnightblue" stroke="midnightblue" points="407.41,-34.49 414.49,-26.61 404.04,-28.35 407.41,-34.49"/>
</g>
</g>
</svg>
