<?xml version="1.0" encoding="UTF-8" standalone="no"?>
<!DOCTYPE svg PUBLIC "-//W3C//DTD SVG 1.1//EN"
 "http://www.w3.org/Graphics/SVG/1.1/DTD/svg11.dtd">
<!-- Generated by graphviz version 2.43.0 (0)
 -->
<!-- Title: /jenkins/jenlib_workspaces_f9/bld_nightly&#45;haldls.YmxkX25pZ2h0bHktaGFsZGxzIzcxMQ.x/haldls/include/haldls/vx/v1/background.h Pages: 1 -->
<svg width="1156pt" height="260pt"
 viewBox="0.00 0.00 1155.57 260.00" xmlns="http://www.w3.org/2000/svg" xmlns:xlink="http://www.w3.org/1999/xlink">
<g id="graph0" class="graph" transform="scale(1 1) rotate(0) translate(4 256)">
<title>/jenkins/jenlib_workspaces_f9/bld_nightly&#45;haldls.YmxkX25pZ2h0bHktaGFsZGxzIzcxMQ.x/haldls/include/haldls/vx/v1/background.h</title>
<polygon fill="white" stroke="transparent" points="-4,4 -4,-256 1151.57,-256 1151.57,4 -4,4"/>
<!-- Node0 -->
<g id="node1" class="node">
<title>Node0</title>
<g id="a_node1"><a xlink:title=" ">
<polygon fill="#bfbfbf" stroke="black" points="180.95,-195.5 180.95,-251.5 359.19,-251.5 359.19,-195.5 180.95,-195.5"/>
<text text-anchor="start" x="188.95" y="-238.5" font-family="Helvetica,sans-Serif" font-size="10.00">/jenkins/jenlib_workspaces</text>
<text text-anchor="start" x="188.95" y="-226.5" font-family="Helvetica,sans-Serif" font-size="10.00">_f9/bld_nightly&#45;haldls.YmxkX25p</text>
<text text-anchor="start" x="188.95" y="-214.5" font-family="Helvetica,sans-Serif" font-size="10.00">Z2h0bHktaGFsZGxzIzcxMQ.x/haldls</text>
<text text-anchor="middle" x="270.07" y="-202.5" font-family="Helvetica,sans-Serif" font-size="10.00">/include/haldls/vx/v1/background.h</text>
</a>
</g>
</g>
<!-- Node1 -->
<g id="node2" class="node">
<title>Node1</title>
<g id="a_node2"><a xlink:href="background_8h.html" target="_top" xlink:title=" ">
<polygon fill="white" stroke="black" points="498.95,-138.5 498.95,-158.5 617.2,-158.5 617.2,-138.5 498.95,-138.5"/>
<text text-anchor="middle" x="558.07" y="-145.5" font-family="Helvetica,sans-Serif" font-size="10.00">haldls/vx/background.h</text>
</a>
</g>
</g>
<!-- Node0&#45;&gt;Node1 -->
<g id="edge1" class="edge">
<title>Node0&#45;&gt;Node1</title>
<path fill="none" stroke="midnightblue" d="M359.22,-199.9C410.05,-187.02 471.58,-171.42 512.61,-161.02"/>
<polygon fill="midnightblue" stroke="midnightblue" points="513.49,-164.41 522.32,-158.56 511.77,-157.63 513.49,-164.41"/>
</g>
<!-- Node12 -->
<g id="node13" class="node">
<title>Node12</title>
<g id="a_node13"><a xlink:href="genpybind_8h.html" target="_top" xlink:title=" ">
<polygon fill="white" stroke="black" points="0,-6.5 0,-26.5 112.14,-26.5 112.14,-6.5 0,-6.5"/>
<text text-anchor="middle" x="56.07" y="-13.5" font-family="Helvetica,sans-Serif" font-size="10.00">haldls/vx/genpybind.h</text>
</a>
</g>
</g>
<!-- Node0&#45;&gt;Node12 -->
<g id="edge25" class="edge">
<title>Node0&#45;&gt;Node12</title>
<path fill="none" stroke="midnightblue" d="M216.14,-195.48C178.27,-174.29 128.58,-141.78 95.07,-102 78.53,-82.36 67.5,-54.54 61.51,-36.27"/>
<polygon fill="midnightblue" stroke="midnightblue" points="64.79,-35.03 58.49,-26.51 58.1,-37.1 64.79,-35.03"/>
</g>
<!-- Node2 -->
<g id="node3" class="node">
<title>Node2</title>
<g id="a_node3"><a xlink:title=" ">
<polygon fill="white" stroke="#bfbfbf" points="894.68,-75.5 894.68,-95.5 933.46,-95.5 933.46,-75.5 894.68,-75.5"/>
<text text-anchor="middle" x="914.07" y="-82.5" font-family="Helvetica,sans-Serif" font-size="10.00">array</text>
</a>
</g>
</g>
<!-- Node1&#45;&gt;Node2 -->
<g id="edge2" class="edge">
<title>Node1&#45;&gt;Node2</title>
<path fill="none" stroke="midnightblue" d="M617.31,-145.79C684.16,-142.38 795.4,-132.22 886.07,-102 887.7,-101.46 889.35,-100.82 890.98,-100.12"/>
<polygon fill="midnightblue" stroke="midnightblue" points="892.62,-103.21 900,-95.61 889.49,-96.95 892.62,-103.21"/>
</g>
<!-- Node3 -->
<g id="node4" class="node">
<title>Node3</title>
<g id="a_node4"><a xlink:title=" ">
<polygon fill="white" stroke="#bfbfbf" points="790.9,-6.5 790.9,-26.5 835.24,-26.5 835.24,-6.5 790.9,-6.5"/>
<text text-anchor="middle" x="813.07" y="-13.5" font-family="Helvetica,sans-Serif" font-size="10.00">iosfwd</text>
</a>
</g>
</g>
<!-- Node1&#45;&gt;Node3 -->
<g id="edge3" class="edge">
<title>Node1&#45;&gt;Node3</title>
<path fill="none" stroke="midnightblue" d="M498.67,-148.13C401.62,-147.28 225.79,-136.74 288.07,-69 320.37,-33.87 668.7,-38.77 716.07,-33 737.78,-30.36 762.09,-26.47 780.93,-23.25"/>
<polygon fill="midnightblue" stroke="midnightblue" points="781.54,-26.7 790.79,-21.54 780.34,-19.8 781.54,-26.7"/>
</g>
<!-- Node4 -->
<g id="node5" class="node">
<title>Node4</title>
<g id="a_node5"><a xlink:title=" ">
<polygon fill="white" stroke="#bfbfbf" points="297.17,-75.5 297.17,-95.5 430.97,-95.5 430.97,-75.5 297.17,-75.5"/>
<text text-anchor="middle" x="364.07" y="-82.5" font-family="Helvetica,sans-Serif" font-size="10.00">halco/common/geometry.h</text>
</a>
</g>
</g>
<!-- Node1&#45;&gt;Node4 -->
<g id="edge4" class="edge">
<title>Node1&#45;&gt;Node4</title>
<path fill="none" stroke="midnightblue" d="M529.45,-138.5C495.78,-127.91 439.74,-110.29 402.36,-98.54"/>
<polygon fill="midnightblue" stroke="midnightblue" points="403.4,-95.2 392.81,-95.54 401.3,-101.88 403.4,-95.2"/>
</g>
<!-- Node5 -->
<g id="node6" class="node">
<title>Node5</title>
<g id="a_node6"><a xlink:title=" ">
<polygon fill="white" stroke="#bfbfbf" points="448.56,-69.5 448.56,-101.5 549.58,-101.5 549.58,-69.5 448.56,-69.5"/>
<text text-anchor="start" x="456.56" y="-88.5" font-family="Helvetica,sans-Serif" font-size="10.00">halco/hicann&#45;dls/vx</text>
<text text-anchor="middle" x="499.07" y="-76.5" font-family="Helvetica,sans-Serif" font-size="10.00">/background.h</text>
</a>
</g>
</g>
<!-- Node1&#45;&gt;Node5 -->
<g id="edge5" class="edge">
<title>Node1&#45;&gt;Node5</title>
<path fill="none" stroke="midnightblue" d="M549.37,-138.5C541.91,-130.79 530.84,-119.35 520.98,-109.16"/>
<polygon fill="midnightblue" stroke="midnightblue" points="523.23,-106.45 513.76,-101.69 518.2,-111.31 523.23,-106.45"/>
</g>
<!-- Node6 -->
<g id="node7" class="node">
<title>Node6</title>
<g id="a_node7"><a xlink:title=" ">
<polygon fill="white" stroke="#bfbfbf" points="567.56,-69.5 567.56,-101.5 668.58,-101.5 668.58,-69.5 567.56,-69.5"/>
<text text-anchor="start" x="575.56" y="-88.5" font-family="Helvetica,sans-Serif" font-size="10.00">halco/hicann&#45;dls/vx</text>
<text text-anchor="middle" x="618.07" y="-76.5" font-family="Helvetica,sans-Serif" font-size="10.00">/event.h</text>
</a>
</g>
</g>
<!-- Node1&#45;&gt;Node6 -->
<g id="edge6" class="edge">
<title>Node1&#45;&gt;Node6</title>
<path fill="none" stroke="midnightblue" d="M566.92,-138.5C574.58,-130.71 585.99,-119.12 596.08,-108.86"/>
<polygon fill="midnightblue" stroke="midnightblue" points="598.61,-111.27 603.13,-101.69 593.62,-106.37 598.61,-111.27"/>
</g>
<!-- Node7 -->
<g id="node8" class="node">
<title>Node7</title>
<g id="a_node8"><a xlink:href="cerealization_8h.html" target="_top" xlink:title=" ">
<polygon fill="white" stroke="black" points="951.4,-75.5 951.4,-95.5 1060.75,-95.5 1060.75,-75.5 951.4,-75.5"/>
<text text-anchor="middle" x="1006.07" y="-82.5" font-family="Helvetica,sans-Serif" font-size="10.00">haldls/cerealization.h</text>
</a>
</g>
</g>
<!-- Node1&#45;&gt;Node7 -->
<g id="edge7" class="edge">
<title>Node1&#45;&gt;Node7</title>
<path fill="none" stroke="midnightblue" d="M617.27,-142.7C692.97,-136.06 827.93,-122.51 942.07,-102 948.5,-100.85 955.24,-99.44 961.84,-97.94"/>
<polygon fill="midnightblue" stroke="midnightblue" points="963.09,-101.24 972.02,-95.55 961.49,-94.43 963.09,-101.24"/>
</g>
<!-- Node9 -->
<g id="node10" class="node">
<title>Node9</title>
<g id="a_node10"><a xlink:title=" ">
<polygon fill="white" stroke="#bfbfbf" points="1066.57,-6.5 1066.57,-26.5 1147.57,-26.5 1147.57,-6.5 1066.57,-6.5"/>
<text text-anchor="middle" x="1107.07" y="-13.5" font-family="Helvetica,sans-Serif" font-size="10.00">hate/visibility.h</text>
</a>
</g>
</g>
<!-- Node1&#45;&gt;Node9 -->
<g id="edge23" class="edge">
<title>Node1&#45;&gt;Node9</title>
<path fill="none" stroke="midnightblue" d="M617.56,-145.59C744.64,-141.04 1034.02,-127.92 1070.07,-102 1091.37,-86.69 1100.56,-56.39 1104.42,-36.54"/>
<polygon fill="midnightblue" stroke="midnightblue" points="1107.9,-36.94 1106.09,-26.5 1100.99,-35.79 1107.9,-36.94"/>
</g>
<!-- Node1&#45;&gt;Node12 -->
<g id="edge13" class="edge">
<title>Node1&#45;&gt;Node12</title>
<path fill="none" stroke="midnightblue" d="M498.6,-145.65C399.54,-141.8 205.56,-130.75 144.07,-102 111.62,-86.83 83.65,-54.83 68.39,-34.86"/>
<polygon fill="midnightblue" stroke="midnightblue" points="71.07,-32.59 62.31,-26.63 65.44,-36.75 71.07,-32.59"/>
</g>
<!-- Node13 -->
<g id="node14" class="node">
<title>Node13</title>
<g id="a_node14"><a xlink:href="traits_8h.html" target="_top" xlink:title=" ">
<polygon fill="white" stroke="black" points="153.23,-75.5 153.23,-95.5 240.91,-95.5 240.91,-75.5 153.23,-75.5"/>
<text text-anchor="middle" x="197.07" y="-82.5" font-family="Helvetica,sans-Serif" font-size="10.00">haldls/vx/traits.h</text>
</a>
</g>
</g>
<!-- Node1&#45;&gt;Node13 -->
<g id="edge15" class="edge">
<title>Node1&#45;&gt;Node13</title>
<path fill="none" stroke="midnightblue" d="M498.79,-140.59C437.45,-132.98 339.05,-119.47 255.07,-102 249.59,-100.86 243.85,-99.51 238.2,-98.1"/>
<polygon fill="midnightblue" stroke="midnightblue" points="238.78,-94.63 228.22,-95.51 237.02,-101.41 238.78,-94.63"/>
</g>
<!-- Node18 -->
<g id="node19" class="node">
<title>Node18</title>
<g id="a_node19"><a xlink:title=" ">
<polygon fill="white" stroke="#bfbfbf" points="686.67,-75.5 686.67,-95.5 755.47,-95.5 755.47,-75.5 686.67,-75.5"/>
<text text-anchor="middle" x="721.07" y="-82.5" font-family="Helvetica,sans-Serif" font-size="10.00">hate/math.h</text>
</a>
</g>
</g>
<!-- Node1&#45;&gt;Node18 -->
<g id="edge22" class="edge">
<title>Node1&#45;&gt;Node18</title>
<path fill="none" stroke="midnightblue" d="M582.12,-138.5C609.93,-128.09 655.89,-110.89 687.28,-99.14"/>
<polygon fill="midnightblue" stroke="midnightblue" points="688.78,-102.32 696.92,-95.54 686.33,-95.76 688.78,-102.32"/>
</g>
<!-- Node19 -->
<g id="node20" class="node">
<title>Node19</title>
<g id="a_node20"><a xlink:title=" ">
<polygon fill="white" stroke="#bfbfbf" points="773.45,-75.5 773.45,-95.5 876.69,-95.5 876.69,-75.5 773.45,-75.5"/>
<text text-anchor="middle" x="825.07" y="-82.5" font-family="Helvetica,sans-Serif" font-size="10.00">hxcomm/vx/target.h</text>
</a>
</g>
</g>
<!-- Node1&#45;&gt;Node19 -->
<g id="edge24" class="edge">
<title>Node1&#45;&gt;Node19</title>
<path fill="none" stroke="midnightblue" d="M600.77,-138.48C642.49,-129.57 707.77,-115.37 764.07,-102 769.39,-100.74 774.95,-99.38 780.47,-98.01"/>
<polygon fill="midnightblue" stroke="midnightblue" points="781.43,-101.37 790.28,-95.54 779.73,-94.58 781.43,-101.37"/>
</g>
<!-- Node7&#45;&gt;Node3 -->
<g id="edge11" class="edge">
<title>Node7&#45;&gt;Node3</title>
<path fill="none" stroke="midnightblue" d="M980.04,-75.46C945,-63.3 882.7,-41.67 844.91,-28.55"/>
<polygon fill="midnightblue" stroke="midnightblue" points="846,-25.22 835.4,-25.25 843.7,-31.84 846,-25.22"/>
</g>
<!-- Node8 -->
<g id="node9" class="node">
<title>Node8</title>
<g id="a_node9"><a xlink:title=" ">
<polygon fill="white" stroke="#bfbfbf" points="623.45,-6.5 623.45,-26.5 706.69,-26.5 706.69,-6.5 623.45,-6.5"/>
<text text-anchor="middle" x="665.07" y="-13.5" font-family="Helvetica,sans-Serif" font-size="10.00">hate/type_list.h</text>
</a>
</g>
</g>
<!-- Node7&#45;&gt;Node8 -->
<g id="edge8" class="edge">
<title>Node7&#45;&gt;Node8</title>
<path fill="none" stroke="midnightblue" d="M970.27,-75.47C961.1,-73.26 951.24,-70.96 942.07,-69 863.94,-52.29 772.75,-35.94 716.97,-26.29"/>
<polygon fill="midnightblue" stroke="midnightblue" points="717.43,-22.82 706.98,-24.57 716.24,-29.72 717.43,-22.82"/>
</g>
<!-- Node7&#45;&gt;Node9 -->
<g id="edge9" class="edge">
<title>Node7&#45;&gt;Node9</title>
<path fill="none" stroke="midnightblue" d="M1019.69,-75.46C1036.41,-64.38 1064.98,-45.42 1084.88,-32.22"/>
<polygon fill="midnightblue" stroke="midnightblue" points="1086.95,-35.05 1093.34,-26.61 1083.08,-29.22 1086.95,-35.05"/>
</g>
<!-- Node10 -->
<g id="node11" class="node">
<title>Node10</title>
<g id="a_node11"><a xlink:title=" ">
<polygon fill="white" stroke="#bfbfbf" points="886.62,-6.5 886.62,-26.5 931.52,-26.5 931.52,-6.5 886.62,-6.5"/>
<text text-anchor="middle" x="909.07" y="-13.5" font-family="Helvetica,sans-Serif" font-size="10.00">cstdint</text>
</a>
</g>
</g>
<!-- Node7&#45;&gt;Node10 -->
<g id="edge10" class="edge">
<title>Node7&#45;&gt;Node10</title>
<path fill="none" stroke="midnightblue" d="M992.99,-75.46C977.01,-64.42 949.74,-45.59 930.64,-32.4"/>
<polygon fill="midnightblue" stroke="midnightblue" points="932.47,-29.41 922.26,-26.61 928.49,-35.17 932.47,-29.41"/>
</g>
<!-- Node11 -->
<g id="node12" class="node">
<title>Node11</title>
<g id="a_node12"><a xlink:title=" ">
<polygon fill="white" stroke="#bfbfbf" points="949.95,-6.5 949.95,-26.5 1048.19,-26.5 1048.19,-6.5 949.95,-6.5"/>
<text text-anchor="middle" x="999.07" y="-13.5" font-family="Helvetica,sans-Serif" font-size="10.00">cereal/macros.hpp</text>
</a>
</g>
</g>
<!-- Node7&#45;&gt;Node11 -->
<g id="edge12" class="edge">
<title>Node7&#45;&gt;Node11</title>
<path fill="none" stroke="midnightblue" d="M1005.13,-75.46C1004.1,-65.63 1002.43,-49.61 1001.1,-36.9"/>
<polygon fill="midnightblue" stroke="midnightblue" points="1004.57,-36.4 1000.05,-26.82 997.6,-37.13 1004.57,-36.4"/>
</g>
<!-- Node12&#45;&gt;Node12 -->
<g id="edge14" class="edge">
<title>Node12&#45;&gt;Node12</title>
<path fill="none" stroke="midnightblue" d="M79.97,-26.54C103.79,-32.26 130.14,-28.92 130.14,-16.5 130.14,-5.78 110.51,-1.82 89.81,-4.62"/>
<polygon fill="midnightblue" stroke="midnightblue" points="89.15,-1.18 79.97,-6.46 90.44,-8.06 89.15,-1.18"/>
</g>
<!-- Node13&#45;&gt;Node8 -->
<g id="edge19" class="edge">
<title>Node13&#45;&gt;Node8</title>
<path fill="none" stroke="midnightblue" d="M227.58,-75.43C236.39,-73.06 246.06,-70.7 255.07,-69 395.71,-42.45 433.38,-53.15 575.07,-33 587.33,-31.26 600.5,-29.13 612.86,-27.02"/>
<polygon fill="midnightblue" stroke="midnightblue" points="613.77,-30.42 623.03,-25.27 612.58,-23.52 613.77,-30.42"/>
</g>
<!-- Node13&#45;&gt;Node12 -->
<g id="edge18" class="edge">
<title>Node13&#45;&gt;Node12</title>
<path fill="none" stroke="midnightblue" d="M178.06,-75.46C153.98,-64.03 112.3,-44.22 84.46,-30.99"/>
<polygon fill="midnightblue" stroke="midnightblue" points="85.77,-27.74 75.24,-26.61 82.77,-34.06 85.77,-27.74"/>
</g>
<!-- Node14 -->
<g id="node15" class="node">
<title>Node14</title>
<g id="a_node15"><a xlink:title=" ">
<polygon fill="white" stroke="#bfbfbf" points="392.01,-6.5 392.01,-26.5 454.13,-26.5 454.13,-6.5 392.01,-6.5"/>
<text text-anchor="middle" x="423.07" y="-13.5" font-family="Helvetica,sans-Serif" font-size="10.00">type_traits</text>
</a>
</g>
</g>
<!-- Node13&#45;&gt;Node14 -->
<g id="edge16" class="edge">
<title>Node13&#45;&gt;Node14</title>
<path fill="none" stroke="midnightblue" d="M230.68,-75.39C280.21,-61.93 368.56,-37.81 383.07,-33 385.79,-32.1 388.59,-31.12 391.39,-30.11"/>
<polygon fill="midnightblue" stroke="midnightblue" points="392.65,-33.37 400.79,-26.59 390.2,-26.82 392.65,-33.37"/>
</g>
<!-- Node15 -->
<g id="node16" class="node">
<title>Node15</title>
<g id="a_node16"><a xlink:title=" ">
<polygon fill="white" stroke="#bfbfbf" points="472.45,-0.5 472.45,-32.5 565.69,-32.5 565.69,-0.5 472.45,-0.5"/>
<text text-anchor="start" x="480.45" y="-19.5" font-family="Helvetica,sans-Serif" font-size="10.00">fisch/vx/container</text>
<text text-anchor="middle" x="519.07" y="-7.5" font-family="Helvetica,sans-Serif" font-size="10.00">_fwd.h</text>
</a>
</g>
</g>
<!-- Node13&#45;&gt;Node15 -->
<g id="edge17" class="edge">
<title>Node13&#45;&gt;Node15</title>
<path fill="none" stroke="midnightblue" d="M228.86,-75.46C237.34,-73.19 246.52,-70.88 255.07,-69 343.66,-49.54 369.81,-53.26 462.61,-32.96"/>
<polygon fill="midnightblue" stroke="midnightblue" points="463.4,-36.37 472.41,-30.79 461.89,-29.54 463.4,-36.37"/>
</g>
<!-- Node16 -->
<g id="node17" class="node">
<title>Node16</title>
<g id="a_node17"><a xlink:title=" ">
<polygon fill="white" stroke="#bfbfbf" points="147.67,-0.5 147.67,-32.5 246.47,-32.5 246.47,-0.5 147.67,-0.5"/>
<text text-anchor="start" x="155.67" y="-19.5" font-family="Helvetica,sans-Serif" font-size="10.00">boost/utility/enable</text>
<text text-anchor="middle" x="197.07" y="-7.5" font-family="Helvetica,sans-Serif" font-size="10.00">_if.hpp</text>
</a>
</g>
</g>
<!-- Node13&#45;&gt;Node16 -->
<g id="edge20" class="edge">
<title>Node13&#45;&gt;Node16</title>
<path fill="none" stroke="midnightblue" d="M197.07,-75.46C197.07,-67.04 197.07,-54.08 197.07,-42.55"/>
<polygon fill="midnightblue" stroke="midnightblue" points="200.57,-42.53 197.07,-32.53 193.57,-42.53 200.57,-42.53"/>
</g>
<!-- Node17 -->
<g id="node18" class="node">
<title>Node17</title>
<g id="a_node18"><a xlink:title=" ">
<polygon fill="white" stroke="#bfbfbf" points="264.12,-6.5 264.12,-26.5 374.03,-26.5 374.03,-6.5 264.12,-6.5"/>
<text text-anchor="middle" x="319.07" y="-13.5" font-family="Helvetica,sans-Serif" font-size="10.00">fisch/vx/container.def</text>
</a>
</g>
</g>
<!-- Node13&#45;&gt;Node17 -->
<g id="edge21" class="edge">
<title>Node13&#45;&gt;Node17</title>
<path fill="none" stroke="midnightblue" d="M213.52,-75.46C234.08,-64.18 269.48,-44.74 293.56,-31.51"/>
<polygon fill="midnightblue" stroke="midnightblue" points="295.41,-34.49 302.49,-26.61 292.04,-28.35 295.41,-34.49"/>
</g>
</g>
</svg>
