<?xml version="1.0" encoding="UTF-8" standalone="no"?>
<!DOCTYPE svg PUBLIC "-//W3C//DTD SVG 1.1//EN"
 "http://www.w3.org/Graphics/SVG/1.1/DTD/svg11.dtd">
<!-- Generated by graphviz version 2.43.0 (0)
 -->
<!-- Title: /jenkins/jenlib_workspaces_f9/bld_nightly&#45;haldls.YmxkX25pZ2h0bHktaGFsZGxzIzcxMQ.x/haldls/include/haldls/vx/v1/spi.h Pages: 1 -->
<!--zoomable 260 -->
<svg id="main" version="1.1" xmlns="http://www.w3.org/2000/svg" xmlns:xlink="http://www.w3.org/1999/xlink" xml:space="preserve" onload="init(evt)">
<style type="text/css"><![CDATA[
.edge:hover path { stroke: red; }
.edge:hover polygon { stroke: red; fill: red; }
]]></style>
<script type="text/javascript"><![CDATA[
var edges = document.getElementsByTagName('g');
if (edges && edges.length) {
  for (var i=0;i<edges.length;i++) {
    if (edges[i].id.substr(0,4)=='edge') {
      edges[i].setAttribute('class','edge');
    }
  }
}
]]></script>
        <defs>
                <circle id="rim" cx="0" cy="0" r="7"/>
                <circle id="rim2" cx="0" cy="0" r="3.5"/>
                <g id="zoomPlus">
                        <use xlink:href="#rim" fill="#404040">
                                <set attributeName="fill" to="#808080" begin="zoomplus.mouseover" end="zoomplus.mouseout"/>
                        </use>
                        <path d="M-4,0h8M0,-4v8" fill="none" stroke="white" stroke-width="1.5" pointer-events="none"/>
                </g>
                <g id="zoomMin">
                        <use xlink:href="#rim" fill="#404040">
                                <set attributeName="fill" to="#808080" begin="zoomminus.mouseover" end="zoomminus.mouseout"/>
                        </use>
                        <path d="M-4,0h8" fill="none" stroke="white" stroke-width="1.5" pointer-events="none"/>
                </g>
                <g id="dirArrow">
                        <path fill="none" stroke="white" stroke-width="1.5" d="M0,-3.0v7 M-2.5,-0.5L0,-3.0L2.5,-0.5"/>
                </g>
               <g id="resetDef">
                       <use xlink:href="#rim2" fill="#404040">
                               <set attributeName="fill" to="#808080" begin="reset.mouseover" end="reset.mouseout"/>
                       </use>
               </g>
        </defs>

<script type="text/javascript">
var viewWidth = 1207;
var viewHeight = 260;
var sectionId = 'dynsection-0';
</script>
<script xlink:href="svgpan.js"/>
<svg id="graph" class="graph">
<g id="viewport">
<title>/jenkins/jenlib_workspaces_f9/bld_nightly&#45;haldls.YmxkX25pZ2h0bHktaGFsZGxzIzcxMQ.x/haldls/include/haldls/vx/v1/spi.h</title>
<polygon fill="white" stroke="transparent" points="-4,4 -4,-256 1202.57,-256 1202.57,4 -4,4"/>
<!-- Node0 -->
<g id="node1" class="node">
<title>Node0</title>
<g id="a_node1"><a xlink:title=" ">
<polygon fill="#bfbfbf" stroke="black" points="174.95,-195.5 174.95,-251.5 353.19,-251.5 353.19,-195.5 174.95,-195.5"/>
<text text-anchor="start" x="182.95" y="-238.5" font-family="Helvetica,sans-Serif" font-size="10.00">/jenkins/jenlib_workspaces</text>
<text text-anchor="start" x="182.95" y="-226.5" font-family="Helvetica,sans-Serif" font-size="10.00">_f9/bld_nightly&#45;haldls.YmxkX25p</text>
<text text-anchor="start" x="182.95" y="-214.5" font-family="Helvetica,sans-Serif" font-size="10.00">Z2h0bHktaGFsZGxzIzcxMQ.x/haldls</text>
<text text-anchor="middle" x="264.07" y="-202.5" font-family="Helvetica,sans-Serif" font-size="10.00">/include/haldls/vx/v1/spi.h</text>
</a>
</g>
</g>
<!-- Node1 -->
<g id="node2" class="node">
<title>Node1</title>
<g id="a_node2"><a xlink:href="genpybind_8h.html" target="_top" xlink:title=" ">
<polygon fill="white" stroke="black" points="0,-6.5 0,-26.5 112.14,-26.5 112.14,-6.5 0,-6.5"/>
<text text-anchor="middle" x="56.07" y="-13.5" font-family="Helvetica,sans-Serif" font-size="10.00">haldls/vx/genpybind.h</text>
</a>
</g>
</g>
<!-- Node0&#45;&gt;Node1 -->
<g id="edge1" class="edge">
<title>Node0&#45;&gt;Node1</title>
<path fill="none" stroke="midnightblue" d="M196.17,-195.34C155.04,-175.46 104.93,-144.52 75.07,-102 61.4,-82.54 57.37,-54.87 56.29,-36.56"/>
<polygon fill="midnightblue" stroke="midnightblue" points="59.78,-36.4 55.93,-26.53 52.79,-36.65 59.78,-36.4"/>
</g>
<!-- Node2 -->
<g id="node3" class="node">
<title>Node2</title>
<g id="a_node3"><a xlink:href="spi_8h.html" target="_top" xlink:title=" ">
<polygon fill="white" stroke="black" points="501.68,-138.5 501.68,-158.5 580.47,-158.5 580.47,-138.5 501.68,-138.5"/>
<text text-anchor="middle" x="541.07" y="-145.5" font-family="Helvetica,sans-Serif" font-size="10.00">haldls/vx/spi.h</text>
</a>
</g>
</g>
<!-- Node0&#45;&gt;Node2 -->
<g id="edge3" class="edge">
<title>Node0&#45;&gt;Node2</title>
<path fill="none" stroke="midnightblue" d="M353.24,-199C401.3,-186.34 458.47,-171.27 497.01,-161.11"/>
<polygon fill="midnightblue" stroke="midnightblue" points="498.1,-164.45 506.87,-158.51 496.31,-157.68 498.1,-164.45"/>
</g>
<!-- Node1&#45;&gt;Node1 -->
<g id="edge2" class="edge">
<title>Node1&#45;&gt;Node1</title>
<path fill="none" stroke="midnightblue" d="M79.97,-26.54C103.79,-32.26 130.14,-28.92 130.14,-16.5 130.14,-5.78 110.51,-1.82 89.81,-4.62"/>
<polygon fill="midnightblue" stroke="midnightblue" points="89.15,-1.18 79.97,-6.46 90.44,-8.06 89.15,-1.18"/>
</g>
<!-- Node2&#45;&gt;Node1 -->
<g id="edge17" class="edge">
<title>Node2&#45;&gt;Node1</title>
<path fill="none" stroke="midnightblue" d="M501.5,-145.58C418.27,-141.08 227.93,-128.17 169.07,-102 148.63,-92.91 148.76,-82.69 131.07,-69 114.1,-55.87 94.03,-42.18 78.92,-32.22"/>
<polygon fill="midnightblue" stroke="midnightblue" points="80.51,-29.08 70.23,-26.53 76.68,-34.93 80.51,-29.08"/>
</g>
<!-- Node3 -->
<g id="node4" class="node">
<title>Node3</title>
<g id="a_node4"><a xlink:title=" ">
<polygon fill="white" stroke="#bfbfbf" points="83.68,-75.5 83.68,-95.5 122.46,-95.5 122.46,-75.5 83.68,-75.5"/>
<text text-anchor="middle" x="103.07" y="-82.5" font-family="Helvetica,sans-Serif" font-size="10.00">array</text>
</a>
</g>
</g>
<!-- Node2&#45;&gt;Node3 -->
<g id="edge4" class="edge">
<title>Node2&#45;&gt;Node3</title>
<path fill="none" stroke="midnightblue" d="M501.44,-147.3C427.98,-146.01 266.29,-138.81 136.07,-102 133.76,-101.35 131.41,-100.55 129.08,-99.66"/>
<polygon fill="midnightblue" stroke="midnightblue" points="130.36,-96.4 119.79,-95.65 127.58,-102.82 130.36,-96.4"/>
</g>
<!-- Node4 -->
<g id="node5" class="node">
<title>Node4</title>
<g id="a_node5"><a xlink:title=" ">
<polygon fill="white" stroke="#bfbfbf" points="874.9,-6.5 874.9,-26.5 919.24,-26.5 919.24,-6.5 874.9,-6.5"/>
<text text-anchor="middle" x="897.07" y="-13.5" font-family="Helvetica,sans-Serif" font-size="10.00">iosfwd</text>
</a>
</g>
</g>
<!-- Node2&#45;&gt;Node4 -->
<g id="edge5" class="edge">
<title>Node2&#45;&gt;Node4</title>
<path fill="none" stroke="midnightblue" d="M580.5,-145.58C671.73,-140.74 891.27,-126.63 913.07,-102 929.25,-83.72 918.24,-54.32 908.17,-35.46"/>
<polygon fill="midnightblue" stroke="midnightblue" points="911.14,-33.62 903.13,-26.68 905.07,-37.1 911.14,-33.62"/>
</g>
<!-- Node5 -->
<g id="node6" class="node">
<title>Node5</title>
<g id="a_node6"><a xlink:title=" ">
<polygon fill="white" stroke="#bfbfbf" points="283.45,-75.5 283.45,-95.5 386.69,-95.5 386.69,-75.5 283.45,-75.5"/>
<text text-anchor="middle" x="335.07" y="-82.5" font-family="Helvetica,sans-Serif" font-size="10.00">fisch/vx/constants.h</text>
</a>
</g>
</g>
<!-- Node2&#45;&gt;Node5 -->
<g id="edge6" class="edge">
<title>Node2&#45;&gt;Node5</title>
<path fill="none" stroke="midnightblue" d="M510.68,-138.5C474.77,-127.87 414.92,-110.14 375.22,-98.39"/>
<polygon fill="midnightblue" stroke="midnightblue" points="376.17,-95.02 365.59,-95.54 374.19,-101.73 376.17,-95.02"/>
</g>
<!-- Node6 -->
<g id="node7" class="node">
<title>Node6</title>
<g id="a_node7"><a xlink:title=" ">
<polygon fill="white" stroke="#bfbfbf" points="405.17,-75.5 405.17,-95.5 538.97,-95.5 538.97,-75.5 405.17,-75.5"/>
<text text-anchor="middle" x="472.07" y="-82.5" font-family="Helvetica,sans-Serif" font-size="10.00">halco/common/geometry.h</text>
</a>
</g>
</g>
<!-- Node2&#45;&gt;Node6 -->
<g id="edge7" class="edge">
<title>Node2&#45;&gt;Node6</title>
<path fill="none" stroke="midnightblue" d="M530.89,-138.5C520.19,-129.04 503.14,-113.96 490.14,-102.47"/>
<polygon fill="midnightblue" stroke="midnightblue" points="492.1,-99.54 482.29,-95.54 487.47,-104.78 492.1,-99.54"/>
</g>
<!-- Node7 -->
<g id="node8" class="node">
<title>Node7</title>
<g id="a_node8"><a xlink:title=" ">
<polygon fill="white" stroke="#bfbfbf" points="556.95,-69.5 556.95,-101.5 665.19,-101.5 665.19,-69.5 556.95,-69.5"/>
<text text-anchor="start" x="564.95" y="-88.5" font-family="Helvetica,sans-Serif" font-size="10.00">halco/common/typed</text>
<text text-anchor="middle" x="611.07" y="-76.5" font-family="Helvetica,sans-Serif" font-size="10.00">_array.h</text>
</a>
</g>
</g>
<!-- Node2&#45;&gt;Node7 -->
<g id="edge8" class="edge">
<title>Node2&#45;&gt;Node7</title>
<path fill="none" stroke="midnightblue" d="M551.4,-138.5C560.42,-130.64 573.9,-118.9 585.76,-108.56"/>
<polygon fill="midnightblue" stroke="midnightblue" points="588.4,-110.9 593.64,-101.69 583.8,-105.62 588.4,-110.9"/>
</g>
<!-- Node8 -->
<g id="node9" class="node">
<title>Node8</title>
<g id="a_node9"><a xlink:title=" ">
<polygon fill="white" stroke="#bfbfbf" points="683.56,-69.5 683.56,-101.5 784.58,-101.5 784.58,-69.5 683.56,-69.5"/>
<text text-anchor="start" x="691.56" y="-88.5" font-family="Helvetica,sans-Serif" font-size="10.00">halco/hicann&#45;dls/vx</text>
<text text-anchor="middle" x="734.07" y="-76.5" font-family="Helvetica,sans-Serif" font-size="10.00">/dac.h</text>
</a>
</g>
</g>
<!-- Node2&#45;&gt;Node8 -->
<g id="edge9" class="edge">
<title>Node2&#45;&gt;Node8</title>
<path fill="none" stroke="midnightblue" d="M569.55,-138.5C597.63,-129.62 641.35,-115.81 676.67,-104.64"/>
<polygon fill="midnightblue" stroke="midnightblue" points="677.9,-107.92 686.38,-101.57 675.79,-101.25 677.9,-107.92"/>
</g>
<!-- Node9 -->
<g id="node10" class="node">
<title>Node9</title>
<g id="a_node10"><a xlink:title=" ">
<polygon fill="white" stroke="#bfbfbf" points="802.56,-69.5 802.56,-101.5 903.58,-101.5 903.58,-69.5 802.56,-69.5"/>
<text text-anchor="start" x="810.56" y="-88.5" font-family="Helvetica,sans-Serif" font-size="10.00">halco/hicann&#45;dls/vx</text>
<text text-anchor="middle" x="853.07" y="-76.5" font-family="Helvetica,sans-Serif" font-size="10.00">/xboard.h</text>
</a>
</g>
</g>
<!-- Node2&#45;&gt;Node9 -->
<g id="edge10" class="edge">
<title>Node2&#45;&gt;Node9</title>
<path fill="none" stroke="midnightblue" d="M580.7,-141.37C628.72,-133.72 712.27,-119.71 792.52,-102.26"/>
<polygon fill="midnightblue" stroke="midnightblue" points="793.27,-105.68 802.28,-100.11 791.77,-98.84 793.27,-105.68"/>
</g>
<!-- Node10 -->
<g id="node11" class="node">
<title>Node10</title>
<g id="a_node11"><a xlink:href="cerealization_8h.html" target="_top" xlink:title=" ">
<polygon fill="white" stroke="black" points="960.4,-75.5 960.4,-95.5 1069.75,-95.5 1069.75,-75.5 960.4,-75.5"/>
<text text-anchor="middle" x="1015.07" y="-82.5" font-family="Helvetica,sans-Serif" font-size="10.00">haldls/cerealization.h</text>
</a>
</g>
</g>
<!-- Node2&#45;&gt;Node10 -->
<g id="edge11" class="edge">
<title>Node2&#45;&gt;Node10</title>
<path fill="none" stroke="midnightblue" d="M580.65,-144.5C653.37,-138.66 812.97,-124.36 946.07,-102 953.31,-100.78 960.94,-99.29 968.37,-97.71"/>
<polygon fill="midnightblue" stroke="midnightblue" points="969.31,-101.09 978.33,-95.53 967.82,-94.25 969.31,-101.09"/>
</g>
<!-- Node12 -->
<g id="node13" class="node">
<title>Node12</title>
<g id="a_node13"><a xlink:title=" ">
<polygon fill="white" stroke="#bfbfbf" points="1117.57,-6.5 1117.57,-26.5 1198.57,-26.5 1198.57,-6.5 1117.57,-6.5"/>
<text text-anchor="middle" x="1158.07" y="-13.5" font-family="Helvetica,sans-Serif" font-size="10.00">hate/visibility.h</text>
</a>
</g>
</g>
<!-- Node2&#45;&gt;Node12 -->
<g id="edge25" class="edge">
<title>Node2&#45;&gt;Node12</title>
<path fill="none" stroke="midnightblue" d="M580.68,-147.79C689.57,-148.01 991.15,-144.65 1079.07,-102 1109.49,-87.24 1134.06,-55.36 1147.33,-35.25"/>
<polygon fill="midnightblue" stroke="midnightblue" points="1150.35,-37.01 1152.75,-26.7 1144.44,-33.26 1150.35,-37.01"/>
</g>
<!-- Node15 -->
<g id="node16" class="node">
<title>Node15</title>
<g id="a_node16"><a xlink:href="traits_8h.html" target="_top" xlink:title=" ">
<polygon fill="white" stroke="black" points="178.23,-75.5 178.23,-95.5 265.91,-95.5 265.91,-75.5 178.23,-75.5"/>
<text text-anchor="middle" x="222.07" y="-82.5" font-family="Helvetica,sans-Serif" font-size="10.00">haldls/vx/traits.h</text>
</a>
</g>
</g>
<!-- Node2&#45;&gt;Node15 -->
<g id="edge18" class="edge">
<title>Node2&#45;&gt;Node15</title>
<path fill="none" stroke="midnightblue" d="M501.41,-142.27C449.01,-135.01 353.98,-120.65 274.07,-102 269.44,-100.92 264.62,-99.66 259.85,-98.34"/>
<polygon fill="midnightblue" stroke="midnightblue" points="260.82,-94.98 250.24,-95.57 258.88,-101.7 260.82,-94.98"/>
</g>
<!-- Node10&#45;&gt;Node4 -->
<g id="edge15" class="edge">
<title>Node10&#45;&gt;Node4</title>
<path fill="none" stroke="midnightblue" d="M999.16,-75.46C979.36,-64.23 945.34,-44.91 922.06,-31.69"/>
<polygon fill="midnightblue" stroke="midnightblue" points="923.53,-28.5 913.11,-26.61 920.08,-34.59 923.53,-28.5"/>
</g>
<!-- Node11 -->
<g id="node12" class="node">
<title>Node11</title>
<g id="a_node12"><a xlink:title=" ">
<polygon fill="white" stroke="#bfbfbf" points="696.45,-6.5 696.45,-26.5 779.69,-26.5 779.69,-6.5 696.45,-6.5"/>
<text text-anchor="middle" x="738.07" y="-13.5" font-family="Helvetica,sans-Serif" font-size="10.00">hate/type_list.h</text>
</a>
</g>
</g>
<!-- Node10&#45;&gt;Node11 -->
<g id="edge12" class="edge">
<title>Node10&#45;&gt;Node11</title>
<path fill="none" stroke="midnightblue" d="M977.71,-75.46C927.94,-63.43 839.86,-42.12 785.47,-28.96"/>
<polygon fill="midnightblue" stroke="midnightblue" points="786.26,-25.56 775.72,-26.61 784.62,-32.36 786.26,-25.56"/>
</g>
<!-- Node10&#45;&gt;Node12 -->
<g id="edge13" class="edge">
<title>Node10&#45;&gt;Node12</title>
<path fill="none" stroke="midnightblue" d="M1034.36,-75.46C1058.77,-64.03 1101.04,-44.22 1129.28,-30.99"/>
<polygon fill="midnightblue" stroke="midnightblue" points="1131.06,-34.02 1138.63,-26.61 1128.09,-27.68 1131.06,-34.02"/>
</g>
<!-- Node13 -->
<g id="node14" class="node">
<title>Node13</title>
<g id="a_node14"><a xlink:title=" ">
<polygon fill="white" stroke="#bfbfbf" points="937.62,-6.5 937.62,-26.5 982.52,-26.5 982.52,-6.5 937.62,-6.5"/>
<text text-anchor="middle" x="960.07" y="-13.5" font-family="Helvetica,sans-Serif" font-size="10.00">cstdint</text>
</a>
</g>
</g>
<!-- Node10&#45;&gt;Node13 -->
<g id="edge14" class="edge">
<title>Node10&#45;&gt;Node13</title>
<path fill="none" stroke="midnightblue" d="M1007.65,-75.46C999.09,-65.03 984.82,-47.64 974.13,-34.63"/>
<polygon fill="midnightblue" stroke="midnightblue" points="976.77,-32.33 967.72,-26.82 971.36,-36.77 976.77,-32.33"/>
</g>
<!-- Node14 -->
<g id="node15" class="node">
<title>Node14</title>
<g id="a_node15"><a xlink:title=" ">
<polygon fill="white" stroke="#bfbfbf" points="1000.95,-6.5 1000.95,-26.5 1099.19,-26.5 1099.19,-6.5 1000.95,-6.5"/>
<text text-anchor="middle" x="1050.07" y="-13.5" font-family="Helvetica,sans-Serif" font-size="10.00">cereal/macros.hpp</text>
</a>
</g>
</g>
<!-- Node10&#45;&gt;Node14 -->
<g id="edge16" class="edge">
<title>Node10&#45;&gt;Node14</title>
<path fill="none" stroke="midnightblue" d="M1019.79,-75.46C1025.09,-65.33 1033.81,-48.63 1040.54,-35.75"/>
<polygon fill="midnightblue" stroke="midnightblue" points="1043.67,-37.31 1045.2,-26.82 1037.47,-34.07 1043.67,-37.31"/>
</g>
<!-- Node15&#45;&gt;Node1 -->
<g id="edge21" class="edge">
<title>Node15&#45;&gt;Node1</title>
<path fill="none" stroke="midnightblue" d="M199.68,-75.46C170.97,-63.88 120.98,-43.7 88.21,-30.47"/>
<polygon fill="midnightblue" stroke="midnightblue" points="89.22,-27.1 78.63,-26.61 86.6,-33.6 89.22,-27.1"/>
</g>
<!-- Node15&#45;&gt;Node11 -->
<g id="edge22" class="edge">
<title>Node15&#45;&gt;Node11</title>
<path fill="none" stroke="midnightblue" d="M249.1,-75.45C257.07,-73.05 265.85,-70.67 274.07,-69 313.69,-60.96 573.4,-34.17 686.07,-22.74"/>
<polygon fill="midnightblue" stroke="midnightblue" points="686.58,-26.21 696.18,-21.72 685.88,-19.24 686.58,-26.21"/>
</g>
<!-- Node16 -->
<g id="node17" class="node">
<title>Node16</title>
<g id="a_node17"><a xlink:title=" ">
<polygon fill="white" stroke="#bfbfbf" points="148.01,-6.5 148.01,-26.5 210.13,-26.5 210.13,-6.5 148.01,-6.5"/>
<text text-anchor="middle" x="179.07" y="-13.5" font-family="Helvetica,sans-Serif" font-size="10.00">type_traits</text>
</a>
</g>
</g>
<!-- Node15&#45;&gt;Node16 -->
<g id="edge19" class="edge">
<title>Node15&#45;&gt;Node16</title>
<path fill="none" stroke="midnightblue" d="M216.27,-75.46C209.71,-65.23 198.84,-48.3 190.54,-35.38"/>
<polygon fill="midnightblue" stroke="midnightblue" points="193.4,-33.35 185.05,-26.82 187.51,-37.13 193.4,-33.35"/>
</g>
<!-- Node17 -->
<g id="node18" class="node">
<title>Node17</title>
<g id="a_node18"><a xlink:title=" ">
<polygon fill="white" stroke="#bfbfbf" points="228.45,-0.5 228.45,-32.5 321.69,-32.5 321.69,-0.5 228.45,-0.5"/>
<text text-anchor="start" x="236.45" y="-19.5" font-family="Helvetica,sans-Serif" font-size="10.00">fisch/vx/container</text>
<text text-anchor="middle" x="275.07" y="-7.5" font-family="Helvetica,sans-Serif" font-size="10.00">_fwd.h</text>
</a>
</g>
</g>
<!-- Node15&#45;&gt;Node17 -->
<g id="edge20" class="edge">
<title>Node15&#45;&gt;Node17</title>
<path fill="none" stroke="midnightblue" d="M229.22,-75.46C236.29,-66.53 247.4,-52.48 256.92,-40.45"/>
<polygon fill="midnightblue" stroke="midnightblue" points="259.72,-42.55 263.18,-32.53 254.23,-38.2 259.72,-42.55"/>
</g>
<!-- Node18 -->
<g id="node19" class="node">
<title>Node18</title>
<g id="a_node19"><a xlink:title=" ">
<polygon fill="white" stroke="#bfbfbf" points="339.67,-0.5 339.67,-32.5 438.47,-32.5 438.47,-0.5 339.67,-0.5"/>
<text text-anchor="start" x="347.67" y="-19.5" font-family="Helvetica,sans-Serif" font-size="10.00">boost/utility/enable</text>
<text text-anchor="middle" x="389.07" y="-7.5" font-family="Helvetica,sans-Serif" font-size="10.00">_if.hpp</text>
</a>
</g>
</g>
<!-- Node15&#45;&gt;Node18 -->
<g id="edge23" class="edge">
<title>Node15&#45;&gt;Node18</title>
<path fill="none" stroke="midnightblue" d="M244.59,-75.46C269.44,-65.49 310.14,-49.17 342.02,-36.38"/>
<polygon fill="midnightblue" stroke="midnightblue" points="343.62,-39.51 351.6,-32.53 341.02,-33.01 343.62,-39.51"/>
</g>
<!-- Node19 -->
<g id="node20" class="node">
<title>Node19</title>
<g id="a_node20"><a xlink:title=" ">
<polygon fill="white" stroke="#bfbfbf" points="456.12,-6.5 456.12,-26.5 566.03,-26.5 566.03,-6.5 456.12,-6.5"/>
<text text-anchor="middle" x="511.07" y="-13.5" font-family="Helvetica,sans-Serif" font-size="10.00">fisch/vx/container.def</text>
</a>
</g>
</g>
<!-- Node15&#45;&gt;Node19 -->
<g id="edge24" class="edge">
<title>Node15&#45;&gt;Node19</title>
<path fill="none" stroke="midnightblue" d="M250.83,-75.45C258.36,-73.22 266.49,-70.91 274.07,-69 350.22,-49.77 370.45,-50.25 447.07,-33 452.79,-31.71 458.78,-30.32 464.71,-28.92"/>
<polygon fill="midnightblue" stroke="midnightblue" points="465.66,-32.29 474.57,-26.56 464.03,-25.48 465.66,-32.29"/>
</g>
</g>
</svg>
        <g id="navigator" transform="translate(0 0)" fill="#404254">
                <rect fill="#f2f5e9" fill-opacity="0.5" stroke="#606060" stroke-width=".5" x="0" y="0" width="60" height="60"/>
                <use id="zoomplus" xlink:href="#zoomPlus" x="17" y="9" onmousedown="handleZoom(evt,'in')"/>
                <use id="zoomminus" xlink:href="#zoomMin" x="42" y="9" onmousedown="handleZoom(evt,'out')"/>
                <use id="reset" xlink:href="#resetDef" x="30" y="36" onmousedown="handleReset()"/>
                <g id="arrowUp" xlink:href="#dirArrow" transform="translate(30 24)" onmousedown="handlePan(0,-1)">
                  <use xlink:href="#rim" fill="#404040">
                        <set attributeName="fill" to="#808080" begin="arrowUp.mouseover" end="arrowUp.mouseout"/>
                  </use>
                  <path fill="none" stroke="white" stroke-width="1.5" d="M0,-3.0v7 M-2.5,-0.5L0,-3.0L2.5,-0.5"/>
                </g>
                <g id="arrowRight" xlink:href="#dirArrow" transform="rotate(90) translate(36 -43)" onmousedown="handlePan(1,0)">
                  <use xlink:href="#rim" fill="#404040">
                        <set attributeName="fill" to="#808080" begin="arrowRight.mouseover" end="arrowRight.mouseout"/>
                  </use>
                  <path fill="none" stroke="white" stroke-width="1.5" d="M0,-3.0v7 M-2.5,-0.5L0,-3.0L2.5,-0.5"/>
                </g>
                <g id="arrowDown" xlink:href="#dirArrow" transform="rotate(180) translate(-30 -48)" onmousedown="handlePan(0,1)">
                  <use xlink:href="#rim" fill="#404040">
                        <set attributeName="fill" to="#808080" begin="arrowDown.mouseover" end="arrowDown.mouseout"/>
                  </use>
                  <path fill="none" stroke="white" stroke-width="1.5" d="M0,-3.0v7 M-2.5,-0.5L0,-3.0L2.5,-0.5"/>
                </g>
                <g id="arrowLeft" xlink:href="#dirArrow" transform="rotate(270) translate(-36 17)" onmousedown="handlePan(-1,0)">
                  <use xlink:href="#rim" fill="#404040">
                        <set attributeName="fill" to="#808080" begin="arrowLeft.mouseover" end="arrowLeft.mouseout"/>
                  </use>
                  <path fill="none" stroke="white" stroke-width="1.5" d="M0,-3.0v7 M-2.5,-0.5L0,-3.0L2.5,-0.5"/>
                </g>
        </g>
        <svg viewBox="0 0 15 15" width="100%" height="30px" preserveAspectRatio="xMaxYMin meet">
         <g id="arrow_out" transform="scale(0.3 0.3)">
          <a xlink:href="v1_2spi_8h__incl_org.svg" target="_base">
           <rect id="button" ry="5" rx="5" y="6" x="6" height="38" width="38"
                fill="#f2f5e9" fill-opacity="0.5" stroke="#606060" stroke-width="1.0"/>
           <path id="arrow"
             d="M 11.500037,31.436501 C 11.940474,20.09759 22.043105,11.32322 32.158766,21.979434 L 37.068811,17.246167 C 37.068811,17.246167 37.088388,32 37.088388,32 L 22.160133,31.978069 C 22.160133,31.978069 26.997745,27.140456 26.997745,27.140456 C 18.528582,18.264221 13.291696,25.230495 11.500037,31.436501 z"
             style="fill:#404040;"/>
          </a>
         </g>
        </svg>
</svg>
