<?xml version="1.0" encoding="UTF-8" standalone="no"?>
<!DOCTYPE svg PUBLIC "-//W3C//DTD SVG 1.1//EN"
 "http://www.w3.org/Graphics/SVG/1.1/DTD/svg11.dtd">
<!-- Generated by graphviz version 2.43.0 (0)
 -->
<!-- Title: /jenkins/jenlib_workspaces_f9/bld_nightly&#45;haldls.YmxkX25pZ2h0bHktaGFsZGxzIzcxMQ.x/haldls/include/haldls/vx/v1/capmem.h Pages: 1 -->
<svg width="420pt" height="437pt"
 viewBox="0.00 0.00 420.24 437.00" xmlns="http://www.w3.org/2000/svg" xmlns:xlink="http://www.w3.org/1999/xlink">
<g id="graph0" class="graph" transform="scale(1 1) rotate(0) translate(4 433)">
<title>/jenkins/jenlib_workspaces_f9/bld_nightly&#45;haldls.YmxkX25pZ2h0bHktaGFsZGxzIzcxMQ.x/haldls/include/haldls/vx/v1/capmem.h</title>
<polygon fill="white" stroke="transparent" points="-4,4 -4,-433 416.24,-433 416.24,4 -4,4"/>
<!-- Node26 -->
<g id="node1" class="node">
<title>Node26</title>
<g id="a_node1"><a xlink:title=" ">
<polygon fill="#bfbfbf" stroke="black" points="136,-372.5 136,-428.5 314.24,-428.5 314.24,-372.5 136,-372.5"/>
<text text-anchor="start" x="144" y="-415.5" font-family="Helvetica,sans-Serif" font-size="10.00">/jenkins/jenlib_workspaces</text>
<text text-anchor="start" x="144" y="-403.5" font-family="Helvetica,sans-Serif" font-size="10.00">_f9/bld_nightly&#45;haldls.YmxkX25p</text>
<text text-anchor="start" x="144" y="-391.5" font-family="Helvetica,sans-Serif" font-size="10.00">Z2h0bHktaGFsZGxzIzcxMQ.x/haldls</text>
<text text-anchor="middle" x="225.12" y="-379.5" font-family="Helvetica,sans-Serif" font-size="10.00">/include/haldls/vx/v1/capmem.h</text>
</a>
</g>
</g>
<!-- Node27 -->
<g id="node2" class="node">
<title>Node27</title>
<g id="a_node2"><a xlink:href="v1_2container_8h.html" target="_top" xlink:title=" ">
<polygon fill="white" stroke="black" points="38,-279.5 38,-335.5 216.24,-335.5 216.24,-279.5 38,-279.5"/>
<text text-anchor="start" x="46" y="-322.5" font-family="Helvetica,sans-Serif" font-size="10.00">/jenkins/jenlib_workspaces</text>
<text text-anchor="start" x="46" y="-310.5" font-family="Helvetica,sans-Serif" font-size="10.00">_f9/bld_nightly&#45;haldls.YmxkX25p</text>
<text text-anchor="start" x="46" y="-298.5" font-family="Helvetica,sans-Serif" font-size="10.00">Z2h0bHktaGFsZGxzIzcxMQ.x/haldls</text>
<text text-anchor="middle" x="127.12" y="-286.5" font-family="Helvetica,sans-Serif" font-size="10.00">/include/haldls/vx/v1/container.h</text>
</a>
</g>
</g>
<!-- Node26&#45;&gt;Node27 -->
<g id="edge1" class="edge">
<title>Node26&#45;&gt;Node27</title>
<path fill="none" stroke="midnightblue" d="M188.43,-365.44C177.83,-355.59 166.4,-344.97 156.31,-335.61"/>
<polygon fill="midnightblue" stroke="midnightblue" points="186.27,-368.2 195.98,-372.44 191.03,-363.07 186.27,-368.2"/>
</g>
<!-- Node32 -->
<g id="node7" class="node">
<title>Node32</title>
<g id="a_node7"><a xlink:href="neuron_8h.html" target="_top" xlink:title=" ">
<polygon fill="white" stroke="black" points="234,-279.5 234,-335.5 412.24,-335.5 412.24,-279.5 234,-279.5"/>
<text text-anchor="start" x="242" y="-322.5" font-family="Helvetica,sans-Serif" font-size="10.00">/jenkins/jenlib_workspaces</text>
<text text-anchor="start" x="242" y="-310.5" font-family="Helvetica,sans-Serif" font-size="10.00">_f9/bld_nightly&#45;haldls.YmxkX25p</text>
<text text-anchor="start" x="242" y="-298.5" font-family="Helvetica,sans-Serif" font-size="10.00">Z2h0bHktaGFsZGxzIzcxMQ.x/haldls</text>
<text text-anchor="middle" x="323.12" y="-286.5" font-family="Helvetica,sans-Serif" font-size="10.00">/include/lola/vx/v1/neuron.h</text>
</a>
</g>
</g>
<!-- Node26&#45;&gt;Node32 -->
<g id="edge6" class="edge">
<title>Node26&#45;&gt;Node32</title>
<path fill="none" stroke="midnightblue" d="M261.8,-365.44C272.41,-355.59 283.84,-344.97 293.92,-335.61"/>
<polygon fill="midnightblue" stroke="midnightblue" points="259.2,-363.07 254.26,-372.44 263.97,-368.2 259.2,-363.07"/>
</g>
<!-- Node28 -->
<g id="node3" class="node">
<title>Node28</title>
<g id="a_node3"><a xlink:href="is__readable_8h.html" target="_top" xlink:title=" ">
<polygon fill="white" stroke="black" points="215,-93.5 215,-149.5 393.24,-149.5 393.24,-93.5 215,-93.5"/>
<text text-anchor="start" x="223" y="-136.5" font-family="Helvetica,sans-Serif" font-size="10.00">/jenkins/jenlib_workspaces</text>
<text text-anchor="start" x="223" y="-124.5" font-family="Helvetica,sans-Serif" font-size="10.00">_f9/bld_nightly&#45;haldls.YmxkX25p</text>
<text text-anchor="start" x="223" y="-112.5" font-family="Helvetica,sans-Serif" font-size="10.00">Z2h0bHktaGFsZGxzIzcxMQ.x/haldls</text>
<text text-anchor="middle" x="304.12" y="-100.5" font-family="Helvetica,sans-Serif" font-size="10.00">/include/haldls/vx/is_readable.h</text>
</a>
</g>
</g>
<!-- Node27&#45;&gt;Node28 -->
<g id="edge2" class="edge">
<title>Node27&#45;&gt;Node28</title>
<path fill="none" stroke="midnightblue" d="M161.85,-271.87C170.42,-262.75 179.37,-252.73 187.12,-243 206.09,-219.18 204.57,-208.47 225.12,-186 237.11,-172.89 251.94,-160.24 265.5,-149.72"/>
<polygon fill="midnightblue" stroke="midnightblue" points="159.14,-269.64 154.76,-279.29 164.2,-274.47 159.14,-269.64"/>
</g>
<!-- Node30 -->
<g id="node5" class="node">
<title>Node30</title>
<g id="a_node5"><a xlink:href="v1_2haldls_8h.html" target="_top" xlink:title=" ">
<polygon fill="white" stroke="black" points="0,-186.5 0,-242.5 178.24,-242.5 178.24,-186.5 0,-186.5"/>
<text text-anchor="start" x="8" y="-229.5" font-family="Helvetica,sans-Serif" font-size="10.00">/jenkins/jenlib_workspaces</text>
<text text-anchor="start" x="8" y="-217.5" font-family="Helvetica,sans-Serif" font-size="10.00">_f9/bld_nightly&#45;haldls.YmxkX25p</text>
<text text-anchor="start" x="8" y="-205.5" font-family="Helvetica,sans-Serif" font-size="10.00">Z2h0bHktaGFsZGxzIzcxMQ.x/haldls</text>
<text text-anchor="middle" x="89.12" y="-193.5" font-family="Helvetica,sans-Serif" font-size="10.00">/include/haldls/vx/v1/haldls.h</text>
</a>
</g>
</g>
<!-- Node27&#45;&gt;Node30 -->
<g id="edge4" class="edge">
<title>Node27&#45;&gt;Node30</title>
<path fill="none" stroke="midnightblue" d="M111.75,-269.69C107.99,-260.7 104.04,-251.24 100.51,-242.78"/>
<polygon fill="midnightblue" stroke="midnightblue" points="108.63,-271.32 115.72,-279.2 115.09,-268.62 108.63,-271.32"/>
</g>
<!-- Node29 -->
<g id="node4" class="node">
<title>Node29</title>
<g id="a_node4"><a xlink:href="is__writereadable_8h.html" target="_top" xlink:title=" ">
<polygon fill="white" stroke="black" points="215,-0.5 215,-56.5 393.24,-56.5 393.24,-0.5 215,-0.5"/>
<text text-anchor="start" x="223" y="-43.5" font-family="Helvetica,sans-Serif" font-size="10.00">/jenkins/jenlib_workspaces</text>
<text text-anchor="start" x="223" y="-31.5" font-family="Helvetica,sans-Serif" font-size="10.00">_f9/bld_nightly&#45;haldls.YmxkX25p</text>
<text text-anchor="start" x="223" y="-19.5" font-family="Helvetica,sans-Serif" font-size="10.00">Z2h0bHktaGFsZGxzIzcxMQ.x/haldls</text>
<text text-anchor="middle" x="304.12" y="-7.5" font-family="Helvetica,sans-Serif" font-size="10.00">/include/haldls/vx/is_writereadable.h</text>
</a>
</g>
</g>
<!-- Node28&#45;&gt;Node29 -->
<g id="edge3" class="edge">
<title>Node28&#45;&gt;Node29</title>
<path fill="none" stroke="midnightblue" d="M304.12,-83.12C304.12,-74.3 304.12,-65.06 304.12,-56.78"/>
<polygon fill="midnightblue" stroke="midnightblue" points="300.62,-83.2 304.12,-93.2 307.62,-83.2 300.62,-83.2"/>
</g>
<!-- Node31 -->
<g id="node6" class="node">
<title>Node31</title>
<g id="a_node6"><a xlink:href="v1_2pyhaldls_8h.html" target="_top" xlink:title=" ">
<polygon fill="white" stroke="black" points="0,-93.5 0,-149.5 178.24,-149.5 178.24,-93.5 0,-93.5"/>
<text text-anchor="start" x="8" y="-136.5" font-family="Helvetica,sans-Serif" font-size="10.00">/jenkins/jenlib_workspaces</text>
<text text-anchor="start" x="8" y="-124.5" font-family="Helvetica,sans-Serif" font-size="10.00">_f9/bld_nightly&#45;haldls.YmxkX25p</text>
<text text-anchor="start" x="8" y="-112.5" font-family="Helvetica,sans-Serif" font-size="10.00">Z2h0bHktaGFsZGxzIzcxMQ.x/haldls</text>
<text text-anchor="middle" x="89.12" y="-100.5" font-family="Helvetica,sans-Serif" font-size="10.00">/include/haldls/vx/v1/pyhaldls.h</text>
</a>
</g>
</g>
<!-- Node30&#45;&gt;Node31 -->
<g id="edge5" class="edge">
<title>Node30&#45;&gt;Node31</title>
<path fill="none" stroke="midnightblue" d="M89.12,-176.12C89.12,-167.3 89.12,-158.06 89.12,-149.78"/>
<polygon fill="midnightblue" stroke="midnightblue" points="85.62,-176.2 89.12,-186.2 92.62,-176.2 85.62,-176.2"/>
</g>
<!-- Node33 -->
<g id="node8" class="node">
<title>Node33</title>
<g id="a_node8"><a xlink:href="container_8h.html" target="_top" xlink:title=" ">
<polygon fill="white" stroke="black" points="234,-186.5 234,-242.5 412.24,-242.5 412.24,-186.5 234,-186.5"/>
<text text-anchor="start" x="242" y="-229.5" font-family="Helvetica,sans-Serif" font-size="10.00">/jenkins/jenlib_workspaces</text>
<text text-anchor="start" x="242" y="-217.5" font-family="Helvetica,sans-Serif" font-size="10.00">_f9/bld_nightly&#45;haldls.YmxkX25p</text>
<text text-anchor="start" x="242" y="-205.5" font-family="Helvetica,sans-Serif" font-size="10.00">Z2h0bHktaGFsZGxzIzcxMQ.x/haldls</text>
<text text-anchor="middle" x="323.12" y="-193.5" font-family="Helvetica,sans-Serif" font-size="10.00">/include/lola/vx/v1/container.h</text>
</a>
</g>
</g>
<!-- Node32&#45;&gt;Node33 -->
<g id="edge7" class="edge">
<title>Node32&#45;&gt;Node33</title>
<path fill="none" stroke="midnightblue" d="M323.12,-269.12C323.12,-260.3 323.12,-251.06 323.12,-242.78"/>
<polygon fill="midnightblue" stroke="midnightblue" points="319.62,-269.2 323.12,-279.2 326.62,-269.2 319.62,-269.2"/>
</g>
<!-- Node33&#45;&gt;Node28 -->
<g id="edge8" class="edge">
<title>Node33&#45;&gt;Node28</title>
<path fill="none" stroke="midnightblue" d="M315.37,-176.41C313.51,-167.5 311.56,-158.15 309.82,-149.78"/>
<polygon fill="midnightblue" stroke="midnightblue" points="311.95,-177.12 317.42,-186.2 318.8,-175.69 311.95,-177.12"/>
</g>
</g>
</svg>
