<?xml version="1.0" encoding="UTF-8" standalone="no"?>
<!DOCTYPE svg PUBLIC "-//W3C//DTD SVG 1.1//EN"
 "http://www.w3.org/Graphics/SVG/1.1/DTD/svg11.dtd">
<!-- Generated by graphviz version 2.43.0 (0)
 -->
<!-- Title: /jenkins/jenlib_workspaces_f9/bld_nightly&#45;haldls.YmxkX25pZ2h0bHktaGFsZGxzIzcxMQ.x/haldls/include/haldls/vx/v2/barrier.h Pages: 1 -->
<svg width="244pt" height="251pt"
 viewBox="0.00 0.00 244.24 251.00" xmlns="http://www.w3.org/2000/svg" xmlns:xlink="http://www.w3.org/1999/xlink">
<g id="graph0" class="graph" transform="scale(1 1) rotate(0) translate(4 247)">
<title>/jenkins/jenlib_workspaces_f9/bld_nightly&#45;haldls.YmxkX25pZ2h0bHktaGFsZGxzIzcxMQ.x/haldls/include/haldls/vx/v2/barrier.h</title>
<polygon fill="white" stroke="transparent" points="-4,4 -4,-247 240.24,-247 240.24,4 -4,4"/>
<!-- Node14 -->
<g id="node1" class="node">
<title>Node14</title>
<g id="a_node1"><a xlink:title=" ">
<polygon fill="#bfbfbf" stroke="black" points="58,-186.5 58,-242.5 236.24,-242.5 236.24,-186.5 58,-186.5"/>
<text text-anchor="start" x="66" y="-229.5" font-family="Helvetica,sans-Serif" font-size="10.00">/jenkins/jenlib_workspaces</text>
<text text-anchor="start" x="66" y="-217.5" font-family="Helvetica,sans-Serif" font-size="10.00">_f9/bld_nightly&#45;haldls.YmxkX25p</text>
<text text-anchor="start" x="66" y="-205.5" font-family="Helvetica,sans-Serif" font-size="10.00">Z2h0bHktaGFsZGxzIzcxMQ.x/haldls</text>
<text text-anchor="middle" x="147.12" y="-193.5" font-family="Helvetica,sans-Serif" font-size="10.00">/include/haldls/vx/v2/barrier.h</text>
</a>
</g>
</g>
<!-- Node15 -->
<g id="node2" class="node">
<title>Node15</title>
<g id="a_node2"><a xlink:href="v2_2haldls_8h.html" target="_top" xlink:title=" ">
<polygon fill="white" stroke="black" points="0,-93.5 0,-149.5 178.24,-149.5 178.24,-93.5 0,-93.5"/>
<text text-anchor="start" x="8" y="-136.5" font-family="Helvetica,sans-Serif" font-size="10.00">/jenkins/jenlib_workspaces</text>
<text text-anchor="start" x="8" y="-124.5" font-family="Helvetica,sans-Serif" font-size="10.00">_f9/bld_nightly&#45;haldls.YmxkX25p</text>
<text text-anchor="start" x="8" y="-112.5" font-family="Helvetica,sans-Serif" font-size="10.00">Z2h0bHktaGFsZGxzIzcxMQ.x/haldls</text>
<text text-anchor="middle" x="89.12" y="-100.5" font-family="Helvetica,sans-Serif" font-size="10.00">/include/haldls/vx/v2/haldls.h</text>
</a>
</g>
</g>
<!-- Node14&#45;&gt;Node15 -->
<g id="edge1" class="edge">
<title>Node14&#45;&gt;Node15</title>
<path fill="none" stroke="midnightblue" d="M124.21,-177.55C118.32,-168.31 112.07,-158.51 106.51,-149.78"/>
<polygon fill="midnightblue" stroke="midnightblue" points="121.39,-179.65 129.72,-186.2 127.29,-175.88 121.39,-179.65"/>
</g>
<!-- Node16 -->
<g id="node3" class="node">
<title>Node16</title>
<g id="a_node3"><a xlink:href="v2_2pyhaldls_8h.html" target="_top" xlink:title=" ">
<polygon fill="white" stroke="black" points="58,-0.5 58,-56.5 236.24,-56.5 236.24,-0.5 58,-0.5"/>
<text text-anchor="start" x="66" y="-43.5" font-family="Helvetica,sans-Serif" font-size="10.00">/jenkins/jenlib_workspaces</text>
<text text-anchor="start" x="66" y="-31.5" font-family="Helvetica,sans-Serif" font-size="10.00">_f9/bld_nightly&#45;haldls.YmxkX25p</text>
<text text-anchor="start" x="66" y="-19.5" font-family="Helvetica,sans-Serif" font-size="10.00">Z2h0bHktaGFsZGxzIzcxMQ.x/haldls</text>
<text text-anchor="middle" x="147.12" y="-7.5" font-family="Helvetica,sans-Serif" font-size="10.00">/include/haldls/vx/v2/pyhaldls.h</text>
</a>
</g>
</g>
<!-- Node14&#45;&gt;Node16 -->
<g id="edge3" class="edge">
<title>Node14&#45;&gt;Node16</title>
<path fill="none" stroke="midnightblue" d="M174.47,-177.73C179.68,-169.09 184.36,-159.57 187.12,-150 194.15,-125.66 194.15,-117.34 187.12,-93 183.4,-80.11 176.19,-67.31 168.91,-56.62"/>
<polygon fill="midnightblue" stroke="midnightblue" points="171.37,-176.08 168.91,-186.38 177.26,-179.86 171.37,-176.08"/>
</g>
<!-- Node15&#45;&gt;Node16 -->
<g id="edge2" class="edge">
<title>Node15&#45;&gt;Node16</title>
<path fill="none" stroke="midnightblue" d="M112.03,-84.55C117.92,-75.31 124.17,-65.51 129.73,-56.78"/>
<polygon fill="midnightblue" stroke="midnightblue" points="108.94,-82.88 106.52,-93.2 114.85,-86.65 108.94,-82.88"/>
</g>
</g>
</svg>
