<?xml version="1.0" encoding="UTF-8" standalone="no"?>
<!DOCTYPE svg PUBLIC "-//W3C//DTD SVG 1.1//EN"
 "http://www.w3.org/Graphics/SVG/1.1/DTD/svg11.dtd">
<!-- Generated by graphviz version 2.43.0 (0)
 -->
<!-- Title: /jenkins/jenlib_workspaces_f9/bld_nightly&#45;haldls.YmxkX25pZ2h0bHktaGFsZGxzIzcxMQ.x/haldls/include/haldls/vx/v2/omnibus_constants.h Pages: 1 -->
<svg width="398pt" height="236pt"
 viewBox="0.00 0.00 398.07 236.00" xmlns="http://www.w3.org/2000/svg" xmlns:xlink="http://www.w3.org/1999/xlink">
<g id="graph0" class="graph" transform="scale(1 1) rotate(0) translate(4 232)">
<title>/jenkins/jenlib_workspaces_f9/bld_nightly&#45;haldls.YmxkX25pZ2h0bHktaGFsZGxzIzcxMQ.x/haldls/include/haldls/vx/v2/omnibus_constants.h</title>
<polygon fill="white" stroke="transparent" points="-4,4 -4,-232 394.07,-232 394.07,4 -4,4"/>
<!-- Node0 -->
<g id="node1" class="node">
<title>Node0</title>
<g id="a_node1"><a xlink:title=" ">
<polygon fill="#bfbfbf" stroke="black" points="8.03,-171.5 8.03,-227.5 210.75,-227.5 210.75,-171.5 8.03,-171.5"/>
<text text-anchor="start" x="16.03" y="-214.5" font-family="Helvetica,sans-Serif" font-size="10.00">/jenkins/jenlib_workspaces</text>
<text text-anchor="start" x="16.03" y="-202.5" font-family="Helvetica,sans-Serif" font-size="10.00">_f9/bld_nightly&#45;haldls.YmxkX25p</text>
<text text-anchor="start" x="16.03" y="-190.5" font-family="Helvetica,sans-Serif" font-size="10.00">Z2h0bHktaGFsZGxzIzcxMQ.x/haldls</text>
<text text-anchor="middle" x="109.39" y="-178.5" font-family="Helvetica,sans-Serif" font-size="10.00">/include/haldls/vx/v2/omnibus_constants.h</text>
</a>
</g>
</g>
<!-- Node1 -->
<g id="node2" class="node">
<title>Node1</title>
<g id="a_node2"><a xlink:title=" ">
<polygon fill="white" stroke="#bfbfbf" points="0,-114.5 0,-134.5 38.78,-134.5 38.78,-114.5 0,-114.5"/>
<text text-anchor="middle" x="19.39" y="-121.5" font-family="Helvetica,sans-Serif" font-size="10.00">array</text>
</a>
</g>
</g>
<!-- Node0&#45;&gt;Node1 -->
<g id="edge1" class="edge">
<title>Node0&#45;&gt;Node1</title>
<path fill="none" stroke="midnightblue" d="M75.88,-171.32C63.26,-161.08 49.35,-149.8 38.49,-140.99"/>
<polygon fill="midnightblue" stroke="midnightblue" points="40.49,-138.11 30.51,-134.52 36.08,-143.54 40.49,-138.11"/>
</g>
<!-- Node2 -->
<g id="node3" class="node">
<title>Node2</title>
<g id="a_node3"><a xlink:href="genpybind_8h.html" target="_top" xlink:title=" ">
<polygon fill="white" stroke="black" points="10.32,-57.5 10.32,-77.5 122.46,-77.5 122.46,-57.5 10.32,-57.5"/>
<text text-anchor="middle" x="66.39" y="-64.5" font-family="Helvetica,sans-Serif" font-size="10.00">haldls/vx/genpybind.h</text>
</a>
</g>
</g>
<!-- Node0&#45;&gt;Node2 -->
<g id="edge2" class="edge">
<title>Node0&#45;&gt;Node2</title>
<path fill="none" stroke="midnightblue" d="M98.61,-171.48C94.29,-160.27 89.39,-147.08 85.39,-135 80.14,-119.15 74.99,-100.9 71.37,-87.53"/>
<polygon fill="midnightblue" stroke="midnightblue" points="74.69,-86.37 68.73,-77.61 67.92,-88.17 74.69,-86.37"/>
</g>
<!-- Node3 -->
<g id="node4" class="node">
<title>Node3</title>
<g id="a_node4"><a xlink:href="v2_2common_8h.html" target="_top" xlink:title=" ">
<polygon fill="white" stroke="black" points="94.55,-114.5 94.55,-134.5 212.23,-134.5 212.23,-114.5 94.55,-114.5"/>
<text text-anchor="middle" x="153.39" y="-121.5" font-family="Helvetica,sans-Serif" font-size="10.00">haldls/vx/v2/common.h</text>
</a>
</g>
</g>
<!-- Node0&#45;&gt;Node3 -->
<g id="edge4" class="edge">
<title>Node0&#45;&gt;Node3</title>
<path fill="none" stroke="midnightblue" d="M125.77,-171.32C131.45,-161.89 137.67,-151.58 142.76,-143.13"/>
<polygon fill="midnightblue" stroke="midnightblue" points="145.78,-144.9 147.95,-134.52 139.79,-141.28 145.78,-144.9"/>
</g>
<!-- Node8 -->
<g id="node9" class="node">
<title>Node8</title>
<g id="a_node9"><a xlink:title=" ">
<polygon fill="white" stroke="#bfbfbf" points="230.7,-114.5 230.7,-134.5 390.07,-134.5 390.07,-114.5 230.7,-114.5"/>
<text text-anchor="middle" x="310.39" y="-121.5" font-family="Helvetica,sans-Serif" font-size="10.00">haldls/vx/omnibus_constants.tcc</text>
</a>
</g>
</g>
<!-- Node0&#45;&gt;Node8 -->
<g id="edge10" class="edge">
<title>Node0&#45;&gt;Node8</title>
<path fill="none" stroke="midnightblue" d="M183.95,-171.42C215.51,-159.96 250.74,-147.16 275.97,-138"/>
<polygon fill="midnightblue" stroke="midnightblue" points="277.26,-141.26 285.46,-134.55 274.87,-134.68 277.26,-141.26"/>
</g>
<!-- Node2&#45;&gt;Node2 -->
<g id="edge3" class="edge">
<title>Node2&#45;&gt;Node2</title>
<path fill="none" stroke="midnightblue" d="M102.59,-77.53C122.36,-79.32 140.46,-75.98 140.46,-67.5 140.46,-60.55 128.28,-57.05 112.99,-57"/>
<polygon fill="midnightblue" stroke="midnightblue" points="112.43,-53.52 102.59,-57.47 112.74,-60.52 112.43,-53.52"/>
</g>
<!-- Node3&#45;&gt;Node2 -->
<g id="edge9" class="edge">
<title>Node3&#45;&gt;Node2</title>
<path fill="none" stroke="midnightblue" d="M139.02,-114.42C125.55,-105.9 105.17,-93.02 89.42,-83.06"/>
<polygon fill="midnightblue" stroke="midnightblue" points="91.1,-79.98 80.78,-77.6 87.36,-85.9 91.1,-79.98"/>
</g>
<!-- Node4 -->
<g id="node5" class="node">
<title>Node4</title>
<g id="a_node5"><a xlink:href="common_8h.html" target="_top" xlink:title=" ">
<polygon fill="white" stroke="black" points="158.22,-57.5 158.22,-77.5 262.56,-77.5 262.56,-57.5 158.22,-57.5"/>
<text text-anchor="middle" x="210.39" y="-64.5" font-family="Helvetica,sans-Serif" font-size="10.00">haldls/vx/common.h</text>
</a>
</g>
</g>
<!-- Node3&#45;&gt;Node4 -->
<g id="edge5" class="edge">
<title>Node3&#45;&gt;Node4</title>
<path fill="none" stroke="midnightblue" d="M162.8,-114.42C171.08,-106.42 183.35,-94.59 193.35,-84.94"/>
<polygon fill="midnightblue" stroke="midnightblue" points="196.01,-87.24 200.77,-77.78 191.14,-82.2 196.01,-87.24"/>
</g>
<!-- Node5 -->
<g id="node6" class="node">
<title>Node5</title>
<g id="a_node6"><a xlink:title=" ">
<polygon fill="white" stroke="#bfbfbf" points="111.33,-0.5 111.33,-20.5 173.45,-20.5 173.45,-0.5 111.33,-0.5"/>
<text text-anchor="middle" x="142.39" y="-7.5" font-family="Helvetica,sans-Serif" font-size="10.00">type_traits</text>
</a>
</g>
</g>
<!-- Node4&#45;&gt;Node5 -->
<g id="edge6" class="edge">
<title>Node4&#45;&gt;Node5</title>
<path fill="none" stroke="midnightblue" d="M199.16,-57.42C188.98,-49.19 173.77,-36.88 161.65,-27.08"/>
<polygon fill="midnightblue" stroke="midnightblue" points="163.84,-24.35 153.86,-20.78 159.43,-29.79 163.84,-24.35"/>
</g>
<!-- Node6 -->
<g id="node7" class="node">
<title>Node6</title>
<g id="a_node7"><a xlink:title=" ">
<polygon fill="white" stroke="#bfbfbf" points="191,-0.5 191,-20.5 229.78,-20.5 229.78,-0.5 191,-0.5"/>
<text text-anchor="middle" x="210.39" y="-7.5" font-family="Helvetica,sans-Serif" font-size="10.00">utility</text>
</a>
</g>
</g>
<!-- Node4&#45;&gt;Node6 -->
<g id="edge7" class="edge">
<title>Node4&#45;&gt;Node6</title>
<path fill="none" stroke="midnightblue" d="M210.39,-57.42C210.39,-50.22 210.39,-39.9 210.39,-30.86"/>
<polygon fill="midnightblue" stroke="midnightblue" points="213.89,-30.78 210.39,-20.78 206.89,-30.78 213.89,-30.78"/>
</g>
<!-- Node7 -->
<g id="node8" class="node">
<title>Node7</title>
<g id="a_node8"><a xlink:title=" ">
<polygon fill="white" stroke="#bfbfbf" points="247.76,-0.5 247.76,-20.5 371.01,-20.5 371.01,-0.5 247.76,-0.5"/>
<text text-anchor="middle" x="309.39" y="-7.5" font-family="Helvetica,sans-Serif" font-size="10.00">fisch/vx/omnibus_data.h</text>
</a>
</g>
</g>
<!-- Node4&#45;&gt;Node7 -->
<g id="edge8" class="edge">
<title>Node4&#45;&gt;Node7</title>
<path fill="none" stroke="midnightblue" d="M226.74,-57.42C242.36,-48.74 266.13,-35.53 284.17,-25.51"/>
<polygon fill="midnightblue" stroke="midnightblue" points="285.97,-28.51 293.02,-20.6 282.57,-22.39 285.97,-28.51"/>
</g>
</g>
</svg>
