<?xml version="1.0" encoding="UTF-8" standalone="no"?>
<!DOCTYPE svg PUBLIC "-//W3C//DTD SVG 1.1//EN"
 "http://www.w3.org/Graphics/SVG/1.1/DTD/svg11.dtd">
<!-- Generated by graphviz version 2.43.0 (0)
 -->
<!-- Title: /jenkins/jenlib_workspaces_f9/bld_nightly&#45;haldls.YmxkX25pZ2h0bHktaGFsZGxzIzcxMQ.x/haldls/include/haldls/vx/v2/fpga.h Pages: 1 -->
<!--zoomable 260 -->
<svg id="main" version="1.1" xmlns="http://www.w3.org/2000/svg" xmlns:xlink="http://www.w3.org/1999/xlink" xml:space="preserve" onload="init(evt)">
<style type="text/css"><![CDATA[
.edge:hover path { stroke: red; }
.edge:hover polygon { stroke: red; fill: red; }
]]></style>
<script type="text/javascript"><![CDATA[
var edges = document.getElementsByTagName('g');
if (edges && edges.length) {
  for (var i=0;i<edges.length;i++) {
    if (edges[i].id.substr(0,4)=='edge') {
      edges[i].setAttribute('class','edge');
    }
  }
}
]]></script>
        <defs>
                <circle id="rim" cx="0" cy="0" r="7"/>
                <circle id="rim2" cx="0" cy="0" r="3.5"/>
                <g id="zoomPlus">
                        <use xlink:href="#rim" fill="#404040">
                                <set attributeName="fill" to="#808080" begin="zoomplus.mouseover" end="zoomplus.mouseout"/>
                        </use>
                        <path d="M-4,0h8M0,-4v8" fill="none" stroke="white" stroke-width="1.5" pointer-events="none"/>
                </g>
                <g id="zoomMin">
                        <use xlink:href="#rim" fill="#404040">
                                <set attributeName="fill" to="#808080" begin="zoomminus.mouseover" end="zoomminus.mouseout"/>
                        </use>
                        <path d="M-4,0h8" fill="none" stroke="white" stroke-width="1.5" pointer-events="none"/>
                </g>
                <g id="dirArrow">
                        <path fill="none" stroke="white" stroke-width="1.5" d="M0,-3.0v7 M-2.5,-0.5L0,-3.0L2.5,-0.5"/>
                </g>
               <g id="resetDef">
                       <use xlink:href="#rim2" fill="#404040">
                               <set attributeName="fill" to="#808080" begin="reset.mouseover" end="reset.mouseout"/>
                       </use>
               </g>
        </defs>

<script type="text/javascript">
var viewWidth = 1082;
var viewHeight = 260;
var sectionId = 'dynsection-0';
</script>
<script xlink:href="svgpan.js"/>
<svg id="graph" class="graph">
<g id="viewport">
<title>/jenkins/jenlib_workspaces_f9/bld_nightly&#45;haldls.YmxkX25pZ2h0bHktaGFsZGxzIzcxMQ.x/haldls/include/haldls/vx/v2/fpga.h</title>
<polygon fill="white" stroke="transparent" points="-4,4 -4,-256 1077.57,-256 1077.57,4 -4,4"/>
<!-- Node0 -->
<g id="node1" class="node">
<title>Node0</title>
<g id="a_node1"><a xlink:title=" ">
<polygon fill="#bfbfbf" stroke="black" points="405.05,-195.5 405.05,-251.5 583.29,-251.5 583.29,-195.5 405.05,-195.5"/>
<text text-anchor="start" x="413.05" y="-238.5" font-family="Helvetica,sans-Serif" font-size="10.00">/jenkins/jenlib_workspaces</text>
<text text-anchor="start" x="413.05" y="-226.5" font-family="Helvetica,sans-Serif" font-size="10.00">_f9/bld_nightly&#45;haldls.YmxkX25p</text>
<text text-anchor="start" x="413.05" y="-214.5" font-family="Helvetica,sans-Serif" font-size="10.00">Z2h0bHktaGFsZGxzIzcxMQ.x/haldls</text>
<text text-anchor="middle" x="494.17" y="-202.5" font-family="Helvetica,sans-Serif" font-size="10.00">/include/haldls/vx/v2/fpga.h</text>
</a>
</g>
</g>
<!-- Node1 -->
<g id="node2" class="node">
<title>Node1</title>
<g id="a_node2"><a xlink:href="fpga_8h.html" target="_top" xlink:title=" ">
<polygon fill="white" stroke="black" points="325.43,-138.5 325.43,-158.5 410.9,-158.5 410.9,-138.5 325.43,-138.5"/>
<text text-anchor="middle" x="368.17" y="-145.5" font-family="Helvetica,sans-Serif" font-size="10.00">haldls/vx/fpga.h</text>
</a>
</g>
</g>
<!-- Node0&#45;&gt;Node1 -->
<g id="edge1" class="edge">
<title>Node0&#45;&gt;Node1</title>
<path fill="none" stroke="midnightblue" d="M447.25,-195.32C428.71,-184.58 408.17,-172.68 392.68,-163.7"/>
<polygon fill="midnightblue" stroke="midnightblue" points="394.15,-160.51 383.74,-158.52 390.64,-166.57 394.15,-160.51"/>
</g>
<!-- Node11 -->
<g id="node12" class="node">
<title>Node11</title>
<g id="a_node12"><a xlink:href="genpybind_8h.html" target="_top" xlink:title=" ">
<polygon fill="white" stroke="black" points="507.1,-6.5 507.1,-26.5 619.24,-26.5 619.24,-6.5 507.1,-6.5"/>
<text text-anchor="middle" x="563.17" y="-13.5" font-family="Helvetica,sans-Serif" font-size="10.00">haldls/vx/genpybind.h</text>
</a>
</g>
</g>
<!-- Node0&#45;&gt;Node11 -->
<g id="edge22" class="edge">
<title>Node0&#45;&gt;Node11</title>
<path fill="none" stroke="midnightblue" d="M522.02,-195.26C543.09,-172.56 570.36,-138.2 582.17,-102 589.5,-79.53 580.67,-52.81 572.76,-35.52"/>
<polygon fill="midnightblue" stroke="midnightblue" points="575.89,-33.96 568.33,-26.53 569.61,-37.05 575.89,-33.96"/>
</g>
<!-- Node2 -->
<g id="node3" class="node">
<title>Node2</title>
<g id="a_node3"><a xlink:title=" ">
<polygon fill="white" stroke="#bfbfbf" points="206.78,-75.5 206.78,-95.5 245.56,-95.5 245.56,-75.5 206.78,-75.5"/>
<text text-anchor="middle" x="226.17" y="-82.5" font-family="Helvetica,sans-Serif" font-size="10.00">array</text>
</a>
</g>
</g>
<!-- Node1&#45;&gt;Node2 -->
<g id="edge2" class="edge">
<title>Node1&#45;&gt;Node2</title>
<path fill="none" stroke="midnightblue" d="M345.5,-138.37C323.37,-129.39 288.79,-115.13 259.17,-102 257.62,-101.31 256.03,-100.6 254.43,-99.87"/>
<polygon fill="midnightblue" stroke="midnightblue" points="255.84,-96.67 245.3,-95.66 252.91,-103.03 255.84,-96.67"/>
</g>
<!-- Node3 -->
<g id="node4" class="node">
<title>Node3</title>
<g id="a_node4"><a xlink:title=" ">
<polygon fill="white" stroke="#bfbfbf" points="0,-6.5 0,-26.5 44.34,-26.5 44.34,-6.5 0,-6.5"/>
<text text-anchor="middle" x="22.17" y="-13.5" font-family="Helvetica,sans-Serif" font-size="10.00">iosfwd</text>
</a>
</g>
</g>
<!-- Node1&#45;&gt;Node3 -->
<g id="edge3" class="edge">
<title>Node1&#45;&gt;Node3</title>
<path fill="none" stroke="midnightblue" d="M325.41,-145.51C253.16,-141.42 110.8,-129.97 70.17,-102 47.42,-86.34 34.14,-56.16 27.52,-36.43"/>
<polygon fill="midnightblue" stroke="midnightblue" points="30.81,-35.22 24.51,-26.7 24.12,-37.29 30.81,-35.22"/>
</g>
<!-- Node4 -->
<g id="node5" class="node">
<title>Node4</title>
<g id="a_node5"><a xlink:title=" ">
<polygon fill="white" stroke="#bfbfbf" points="301.27,-75.5 301.27,-95.5 435.07,-95.5 435.07,-75.5 301.27,-75.5"/>
<text text-anchor="middle" x="368.17" y="-82.5" font-family="Helvetica,sans-Serif" font-size="10.00">halco/common/geometry.h</text>
</a>
</g>
</g>
<!-- Node1&#45;&gt;Node4 -->
<g id="edge4" class="edge">
<title>Node1&#45;&gt;Node4</title>
<path fill="none" stroke="midnightblue" d="M368.17,-138.5C368.17,-129.94 368.17,-116.78 368.17,-105.85"/>
<polygon fill="midnightblue" stroke="midnightblue" points="371.67,-105.54 368.17,-95.54 364.67,-105.54 371.67,-105.54"/>
</g>
<!-- Node5 -->
<g id="node6" class="node">
<title>Node5</title>
<g id="a_node6"><a xlink:title=" ">
<polygon fill="white" stroke="#bfbfbf" points="452.66,-69.5 452.66,-101.5 553.68,-101.5 553.68,-69.5 452.66,-69.5"/>
<text text-anchor="start" x="460.66" y="-88.5" font-family="Helvetica,sans-Serif" font-size="10.00">halco/hicann&#45;dls/vx</text>
<text text-anchor="middle" x="503.17" y="-76.5" font-family="Helvetica,sans-Serif" font-size="10.00">/fpga.h</text>
</a>
</g>
</g>
<!-- Node1&#45;&gt;Node5 -->
<g id="edge5" class="edge">
<title>Node1&#45;&gt;Node5</title>
<path fill="none" stroke="midnightblue" d="M388.09,-138.5C407.06,-129.93 436.23,-116.74 460.46,-105.8"/>
<polygon fill="midnightblue" stroke="midnightblue" points="462.14,-108.88 469.81,-101.57 459.26,-102.5 462.14,-108.88"/>
</g>
<!-- Node6 -->
<g id="node7" class="node">
<title>Node6</title>
<g id="a_node7"><a xlink:href="cerealization_8h.html" target="_top" xlink:title=" ">
<polygon fill="white" stroke="black" points="79.49,-75.5 79.49,-95.5 188.84,-95.5 188.84,-75.5 79.49,-75.5"/>
<text text-anchor="middle" x="134.17" y="-82.5" font-family="Helvetica,sans-Serif" font-size="10.00">haldls/cerealization.h</text>
</a>
</g>
</g>
<!-- Node1&#45;&gt;Node6 -->
<g id="edge6" class="edge">
<title>Node1&#45;&gt;Node6</title>
<path fill="none" stroke="midnightblue" d="M333.64,-138.5C292.51,-127.78 223.71,-109.84 178.63,-98.09"/>
<polygon fill="midnightblue" stroke="midnightblue" points="179.4,-94.67 168.84,-95.54 177.63,-101.45 179.4,-94.67"/>
</g>
<!-- Node8 -->
<g id="node9" class="node">
<title>Node8</title>
<g id="a_node9"><a xlink:title=" ">
<polygon fill="white" stroke="#bfbfbf" points="242.66,-6.5 242.66,-26.5 323.67,-26.5 323.67,-6.5 242.66,-6.5"/>
<text text-anchor="middle" x="283.17" y="-13.5" font-family="Helvetica,sans-Serif" font-size="10.00">hate/visibility.h</text>
</a>
</g>
</g>
<!-- Node1&#45;&gt;Node8 -->
<g id="edge21" class="edge">
<title>Node1&#45;&gt;Node8</title>
<path fill="none" stroke="midnightblue" d="M341.15,-138.5C324.18,-131.36 303.43,-119.62 292.17,-102 279.67,-82.44 279.13,-55 280.58,-36.76"/>
<polygon fill="midnightblue" stroke="midnightblue" points="284.07,-37.06 281.64,-26.74 277.1,-36.32 284.07,-37.06"/>
</g>
<!-- Node1&#45;&gt;Node11 -->
<g id="edge12" class="edge">
<title>Node1&#45;&gt;Node11</title>
<path fill="none" stroke="midnightblue" d="M410.92,-143.63C462.47,-137.98 544.53,-125.49 563.17,-102 577.8,-83.56 574.09,-55.02 569.28,-36.3"/>
<polygon fill="midnightblue" stroke="midnightblue" points="572.6,-35.19 566.45,-26.57 565.88,-37.15 572.6,-35.19"/>
</g>
<!-- Node12 -->
<g id="node13" class="node">
<title>Node12</title>
<g id="a_node13"><a xlink:href="traits_8h.html" target="_top" xlink:title=" ">
<polygon fill="white" stroke="black" points="666.33,-75.5 666.33,-95.5 754.01,-95.5 754.01,-75.5 666.33,-75.5"/>
<text text-anchor="middle" x="710.17" y="-82.5" font-family="Helvetica,sans-Serif" font-size="10.00">haldls/vx/traits.h</text>
</a>
</g>
</g>
<!-- Node1&#45;&gt;Node12 -->
<g id="edge14" class="edge">
<title>Node1&#45;&gt;Node12</title>
<path fill="none" stroke="midnightblue" d="M411.14,-139.84C473.34,-128.74 588.41,-108.22 656.24,-96.12"/>
<polygon fill="midnightblue" stroke="midnightblue" points="657.07,-99.53 666.3,-94.33 655.84,-92.64 657.07,-99.53"/>
</g>
<!-- Node6&#45;&gt;Node3 -->
<g id="edge10" class="edge">
<title>Node6&#45;&gt;Node3</title>
<path fill="none" stroke="midnightblue" d="M119.06,-75.46C100.36,-64.28 68.27,-45.08 46.18,-31.86"/>
<polygon fill="midnightblue" stroke="midnightblue" points="47.77,-28.74 37.39,-26.61 44.18,-34.74 47.77,-28.74"/>
</g>
<!-- Node7 -->
<g id="node8" class="node">
<title>Node7</title>
<g id="a_node8"><a xlink:title=" ">
<polygon fill="white" stroke="#bfbfbf" points="373.54,-6.5 373.54,-26.5 456.79,-26.5 456.79,-6.5 373.54,-6.5"/>
<text text-anchor="middle" x="415.17" y="-13.5" font-family="Helvetica,sans-Serif" font-size="10.00">hate/type_list.h</text>
</a>
</g>
</g>
<!-- Node6&#45;&gt;Node7 -->
<g id="edge7" class="edge">
<title>Node6&#45;&gt;Node7</title>
<path fill="none" stroke="midnightblue" d="M171.39,-75.46C180.17,-73.33 189.5,-71.08 198.17,-69 256.15,-55.1 322.91,-39.28 366.89,-28.89"/>
<polygon fill="midnightblue" stroke="midnightblue" points="367.81,-32.27 376.74,-26.56 366.2,-25.46 367.81,-32.27"/>
</g>
<!-- Node6&#45;&gt;Node8 -->
<g id="edge8" class="edge">
<title>Node6&#45;&gt;Node8</title>
<path fill="none" stroke="midnightblue" d="M154.26,-75.46C179.81,-63.98 224.13,-44.05 253.56,-30.82"/>
<polygon fill="midnightblue" stroke="midnightblue" points="255.23,-33.9 262.92,-26.61 252.36,-27.52 255.23,-33.9"/>
</g>
<!-- Node9 -->
<g id="node10" class="node">
<title>Node9</title>
<g id="a_node10"><a xlink:title=" ">
<polygon fill="white" stroke="#bfbfbf" points="62.72,-6.5 62.72,-26.5 107.62,-26.5 107.62,-6.5 62.72,-6.5"/>
<text text-anchor="middle" x="85.17" y="-13.5" font-family="Helvetica,sans-Serif" font-size="10.00">cstdint</text>
</a>
</g>
</g>
<!-- Node6&#45;&gt;Node9 -->
<g id="edge9" class="edge">
<title>Node6&#45;&gt;Node9</title>
<path fill="none" stroke="midnightblue" d="M127.56,-75.46C120,-65.13 107.45,-47.97 97.97,-35"/>
<polygon fill="midnightblue" stroke="midnightblue" points="100.71,-32.83 91.99,-26.82 95.06,-36.96 100.71,-32.83"/>
</g>
<!-- Node10 -->
<g id="node11" class="node">
<title>Node10</title>
<g id="a_node11"><a xlink:title=" ">
<polygon fill="white" stroke="#bfbfbf" points="126.05,-6.5 126.05,-26.5 224.29,-26.5 224.29,-6.5 126.05,-6.5"/>
<text text-anchor="middle" x="175.17" y="-13.5" font-family="Helvetica,sans-Serif" font-size="10.00">cereal/macros.hpp</text>
</a>
</g>
</g>
<!-- Node6&#45;&gt;Node10 -->
<g id="edge11" class="edge">
<title>Node6&#45;&gt;Node10</title>
<path fill="none" stroke="midnightblue" d="M139.7,-75.46C145.96,-65.23 156.32,-48.3 164.23,-35.38"/>
<polygon fill="midnightblue" stroke="midnightblue" points="167.23,-37.18 169.46,-26.82 161.26,-33.53 167.23,-37.18"/>
</g>
<!-- Node11&#45;&gt;Node11 -->
<g id="edge13" class="edge">
<title>Node11&#45;&gt;Node11</title>
<path fill="none" stroke="midnightblue" d="M587.06,-26.54C610.89,-32.26 637.24,-28.92 637.24,-16.5 637.24,-5.78 617.6,-1.82 596.9,-4.62"/>
<polygon fill="midnightblue" stroke="midnightblue" points="596.25,-1.18 587.06,-6.46 597.54,-8.06 596.25,-1.18"/>
</g>
<!-- Node12&#45;&gt;Node7 -->
<g id="edge18" class="edge">
<title>Node12&#45;&gt;Node7</title>
<path fill="none" stroke="midnightblue" d="M670.38,-75.46C617.27,-63.4 523.18,-42.03 465.28,-28.88"/>
<polygon fill="midnightblue" stroke="midnightblue" points="465.79,-25.41 455.26,-26.61 464.24,-32.23 465.79,-25.41"/>
</g>
<!-- Node12&#45;&gt;Node11 -->
<g id="edge17" class="edge">
<title>Node12&#45;&gt;Node11</title>
<path fill="none" stroke="midnightblue" d="M690.34,-75.46C665.14,-63.98 621.41,-44.05 592.38,-30.82"/>
<polygon fill="midnightblue" stroke="midnightblue" points="593.7,-27.57 583.15,-26.61 590.8,-33.94 593.7,-27.57"/>
</g>
<!-- Node13 -->
<g id="node14" class="node">
<title>Node13</title>
<g id="a_node14"><a xlink:title=" ">
<polygon fill="white" stroke="#bfbfbf" points="783.11,-6.5 783.11,-26.5 845.23,-26.5 845.23,-6.5 783.11,-6.5"/>
<text text-anchor="middle" x="814.17" y="-13.5" font-family="Helvetica,sans-Serif" font-size="10.00">type_traits</text>
</a>
</g>
</g>
<!-- Node12&#45;&gt;Node13 -->
<g id="edge15" class="edge">
<title>Node12&#45;&gt;Node13</title>
<path fill="none" stroke="midnightblue" d="M724.19,-75.46C741.48,-64.33 771.09,-45.25 791.6,-32.04"/>
<polygon fill="midnightblue" stroke="midnightblue" points="793.52,-34.96 800.03,-26.61 789.73,-29.08 793.52,-34.96"/>
</g>
<!-- Node14 -->
<g id="node15" class="node">
<title>Node14</title>
<g id="a_node15"><a xlink:title=" ">
<polygon fill="white" stroke="#bfbfbf" points="863.55,-0.5 863.55,-32.5 956.79,-32.5 956.79,-0.5 863.55,-0.5"/>
<text text-anchor="start" x="871.55" y="-19.5" font-family="Helvetica,sans-Serif" font-size="10.00">fisch/vx/container</text>
<text text-anchor="middle" x="910.17" y="-7.5" font-family="Helvetica,sans-Serif" font-size="10.00">_fwd.h</text>
</a>
</g>
</g>
<!-- Node12&#45;&gt;Node14 -->
<g id="edge16" class="edge">
<title>Node12&#45;&gt;Node14</title>
<path fill="none" stroke="midnightblue" d="M737.14,-75.46C767.41,-65.32 817.32,-48.6 855.78,-35.72"/>
<polygon fill="midnightblue" stroke="midnightblue" points="856.92,-39.03 865.29,-32.53 854.7,-32.39 856.92,-39.03"/>
</g>
<!-- Node15 -->
<g id="node16" class="node">
<title>Node15</title>
<g id="a_node16"><a xlink:title=" ">
<polygon fill="white" stroke="#bfbfbf" points="974.77,-0.5 974.77,-32.5 1073.57,-32.5 1073.57,-0.5 974.77,-0.5"/>
<text text-anchor="start" x="982.77" y="-19.5" font-family="Helvetica,sans-Serif" font-size="10.00">boost/utility/enable</text>
<text text-anchor="middle" x="1024.17" y="-7.5" font-family="Helvetica,sans-Serif" font-size="10.00">_if.hpp</text>
</a>
</g>
</g>
<!-- Node12&#45;&gt;Node15 -->
<g id="edge19" class="edge">
<title>Node12&#45;&gt;Node15</title>
<path fill="none" stroke="midnightblue" d="M754.29,-76.49C803.35,-67.4 885.17,-51.66 964.4,-33.34"/>
<polygon fill="midnightblue" stroke="midnightblue" points="965.6,-36.66 974.54,-30.98 964.01,-29.84 965.6,-36.66"/>
</g>
<!-- Node16 -->
<g id="node17" class="node">
<title>Node16</title>
<g id="a_node17"><a xlink:title=" ">
<polygon fill="white" stroke="#bfbfbf" points="655.21,-6.5 655.21,-26.5 765.12,-26.5 765.12,-6.5 655.21,-6.5"/>
<text text-anchor="middle" x="710.17" y="-13.5" font-family="Helvetica,sans-Serif" font-size="10.00">fisch/vx/container.def</text>
</a>
</g>
</g>
<!-- Node12&#45;&gt;Node16 -->
<g id="edge20" class="edge">
<title>Node12&#45;&gt;Node16</title>
<path fill="none" stroke="midnightblue" d="M710.17,-75.46C710.17,-65.63 710.17,-49.61 710.17,-36.9"/>
<polygon fill="midnightblue" stroke="midnightblue" points="713.67,-36.82 710.17,-26.82 706.67,-36.82 713.67,-36.82"/>
</g>
</g>
</svg>
        <g id="navigator" transform="translate(0 0)" fill="#404254">
                <rect fill="#f2f5e9" fill-opacity="0.5" stroke="#606060" stroke-width=".5" x="0" y="0" width="60" height="60"/>
                <use id="zoomplus" xlink:href="#zoomPlus" x="17" y="9" onmousedown="handleZoom(evt,'in')"/>
                <use id="zoomminus" xlink:href="#zoomMin" x="42" y="9" onmousedown="handleZoom(evt,'out')"/>
                <use id="reset" xlink:href="#resetDef" x="30" y="36" onmousedown="handleReset()"/>
                <g id="arrowUp" xlink:href="#dirArrow" transform="translate(30 24)" onmousedown="handlePan(0,-1)">
                  <use xlink:href="#rim" fill="#404040">
                        <set attributeName="fill" to="#808080" begin="arrowUp.mouseover" end="arrowUp.mouseout"/>
                  </use>
                  <path fill="none" stroke="white" stroke-width="1.5" d="M0,-3.0v7 M-2.5,-0.5L0,-3.0L2.5,-0.5"/>
                </g>
                <g id="arrowRight" xlink:href="#dirArrow" transform="rotate(90) translate(36 -43)" onmousedown="handlePan(1,0)">
                  <use xlink:href="#rim" fill="#404040">
                        <set attributeName="fill" to="#808080" begin="arrowRight.mouseover" end="arrowRight.mouseout"/>
                  </use>
                  <path fill="none" stroke="white" stroke-width="1.5" d="M0,-3.0v7 M-2.5,-0.5L0,-3.0L2.5,-0.5"/>
                </g>
                <g id="arrowDown" xlink:href="#dirArrow" transform="rotate(180) translate(-30 -48)" onmousedown="handlePan(0,1)">
                  <use xlink:href="#rim" fill="#404040">
                        <set attributeName="fill" to="#808080" begin="arrowDown.mouseover" end="arrowDown.mouseout"/>
                  </use>
                  <path fill="none" stroke="white" stroke-width="1.5" d="M0,-3.0v7 M-2.5,-0.5L0,-3.0L2.5,-0.5"/>
                </g>
                <g id="arrowLeft" xlink:href="#dirArrow" transform="rotate(270) translate(-36 17)" onmousedown="handlePan(-1,0)">
                  <use xlink:href="#rim" fill="#404040">
                        <set attributeName="fill" to="#808080" begin="arrowLeft.mouseover" end="arrowLeft.mouseout"/>
                  </use>
                  <path fill="none" stroke="white" stroke-width="1.5" d="M0,-3.0v7 M-2.5,-0.5L0,-3.0L2.5,-0.5"/>
                </g>
        </g>
        <svg viewBox="0 0 15 15" width="100%" height="30px" preserveAspectRatio="xMaxYMin meet">
         <g id="arrow_out" transform="scale(0.3 0.3)">
          <a xlink:href="v2_2fpga_8h__incl_org.svg" target="_base">
           <rect id="button" ry="5" rx="5" y="6" x="6" height="38" width="38"
                fill="#f2f5e9" fill-opacity="0.5" stroke="#606060" stroke-width="1.0"/>
           <path id="arrow"
             d="M 11.500037,31.436501 C 11.940474,20.09759 22.043105,11.32322 32.158766,21.979434 L 37.068811,17.246167 C 37.068811,17.246167 37.088388,32 37.088388,32 L 22.160133,31.978069 C 22.160133,31.978069 26.997745,27.140456 26.997745,27.140456 C 18.528582,18.264221 13.291696,25.230495 11.500037,31.436501 z"
             style="fill:#404040;"/>
          </a>
         </g>
        </svg>
</svg>
