<?xml version="1.0" encoding="UTF-8" standalone="no"?>
<!DOCTYPE svg PUBLIC "-//W3C//DTD SVG 1.1//EN"
 "http://www.w3.org/Graphics/SVG/1.1/DTD/svg11.dtd">
<!-- Generated by graphviz version 2.43.0 (0)
 -->
<!-- Title: /jenkins/jenlib_workspaces_f9/bld_nightly&#45;haldls.YmxkX25pZ2h0bHktaGFsZGxzIzcxMQ.x/haldls/include/haldls/vx/v2/correlation.h Pages: 1 -->
<svg width="1016pt" height="260pt"
 viewBox="0.00 0.00 1016.19 260.00" xmlns="http://www.w3.org/2000/svg" xmlns:xlink="http://www.w3.org/1999/xlink">
<g id="graph0" class="graph" transform="scale(1 1) rotate(0) translate(4 256)">
<title>/jenkins/jenlib_workspaces_f9/bld_nightly&#45;haldls.YmxkX25pZ2h0bHktaGFsZGxzIzcxMQ.x/haldls/include/haldls/vx/v2/correlation.h</title>
<polygon fill="white" stroke="transparent" points="-4,4 -4,-256 1012.19,-256 1012.19,4 -4,4"/>
<!-- Node0 -->
<g id="node1" class="node">
<title>Node0</title>
<g id="a_node1"><a xlink:title=" ">
<polygon fill="#bfbfbf" stroke="black" points="90.95,-195.5 90.95,-251.5 269.19,-251.5 269.19,-195.5 90.95,-195.5"/>
<text text-anchor="start" x="98.95" y="-238.5" font-family="Helvetica,sans-Serif" font-size="10.00">/jenkins/jenlib_workspaces</text>
<text text-anchor="start" x="98.95" y="-226.5" font-family="Helvetica,sans-Serif" font-size="10.00">_f9/bld_nightly&#45;haldls.YmxkX25p</text>
<text text-anchor="start" x="98.95" y="-214.5" font-family="Helvetica,sans-Serif" font-size="10.00">Z2h0bHktaGFsZGxzIzcxMQ.x/haldls</text>
<text text-anchor="middle" x="180.07" y="-202.5" font-family="Helvetica,sans-Serif" font-size="10.00">/include/haldls/vx/v2/correlation.h</text>
</a>
</g>
</g>
<!-- Node1 -->
<g id="node2" class="node">
<title>Node1</title>
<g id="a_node2"><a xlink:href="correlation_8h.html" target="_top" xlink:title=" ">
<polygon fill="white" stroke="black" points="326.73,-138.5 326.73,-158.5 439.41,-158.5 439.41,-138.5 326.73,-138.5"/>
<text text-anchor="middle" x="383.07" y="-145.5" font-family="Helvetica,sans-Serif" font-size="10.00">haldls/vx/correlation.h</text>
</a>
</g>
</g>
<!-- Node0&#45;&gt;Node1 -->
<g id="edge1" class="edge">
<title>Node0&#45;&gt;Node1</title>
<path fill="none" stroke="midnightblue" d="M255.37,-195.42C287.25,-183.96 322.83,-171.16 348.31,-162"/>
<polygon fill="midnightblue" stroke="midnightblue" points="349.67,-165.23 357.9,-158.55 347.31,-158.64 349.67,-165.23"/>
</g>
<!-- Node10 -->
<g id="node11" class="node">
<title>Node10</title>
<g id="a_node11"><a xlink:href="genpybind_8h.html" target="_top" xlink:title=" ">
<polygon fill="white" stroke="black" points="0,-6.5 0,-26.5 112.14,-26.5 112.14,-6.5 0,-6.5"/>
<text text-anchor="middle" x="56.07" y="-13.5" font-family="Helvetica,sans-Serif" font-size="10.00">haldls/vx/genpybind.h</text>
</a>
</g>
</g>
<!-- Node0&#45;&gt;Node10 -->
<g id="edge21" class="edge">
<title>Node0&#45;&gt;Node10</title>
<path fill="none" stroke="midnightblue" d="M163.61,-195.28C137.83,-152.67 88.66,-71.38 66.9,-35.4"/>
<polygon fill="midnightblue" stroke="midnightblue" points="69.7,-33.27 61.53,-26.52 63.71,-36.89 69.7,-33.27"/>
</g>
<!-- Node2 -->
<g id="node3" class="node">
<title>Node2</title>
<g id="a_node3"><a xlink:title=" ">
<polygon fill="white" stroke="#bfbfbf" points="466.17,-75.5 466.17,-95.5 599.97,-95.5 599.97,-75.5 466.17,-75.5"/>
<text text-anchor="middle" x="533.07" y="-82.5" font-family="Helvetica,sans-Serif" font-size="10.00">halco/common/geometry.h</text>
</a>
</g>
</g>
<!-- Node1&#45;&gt;Node2 -->
<g id="edge2" class="edge">
<title>Node1&#45;&gt;Node2</title>
<path fill="none" stroke="midnightblue" d="M405.2,-138.5C430.57,-128.18 472.36,-111.19 501.23,-99.45"/>
<polygon fill="midnightblue" stroke="midnightblue" points="502.9,-102.55 510.85,-95.54 500.27,-96.06 502.9,-102.55"/>
</g>
<!-- Node3 -->
<g id="node4" class="node">
<title>Node3</title>
<g id="a_node4"><a xlink:title=" ">
<polygon fill="white" stroke="#bfbfbf" points="617.56,-69.5 617.56,-101.5 718.58,-101.5 718.58,-69.5 617.56,-69.5"/>
<text text-anchor="start" x="625.56" y="-88.5" font-family="Helvetica,sans-Serif" font-size="10.00">halco/hicann&#45;dls/vx</text>
<text text-anchor="middle" x="668.07" y="-76.5" font-family="Helvetica,sans-Serif" font-size="10.00">/correlation.h</text>
</a>
</g>
</g>
<!-- Node1&#45;&gt;Node3 -->
<g id="edge3" class="edge">
<title>Node1&#45;&gt;Node3</title>
<path fill="none" stroke="midnightblue" d="M432.18,-138.47C475.84,-130.24 541.63,-117.39 607.18,-102.38"/>
<polygon fill="midnightblue" stroke="midnightblue" points="608.31,-105.71 617.27,-100.05 606.74,-98.89 608.31,-105.71"/>
</g>
<!-- Node4 -->
<g id="node5" class="node">
<title>Node4</title>
<g id="a_node5"><a xlink:href="cerealization_8h.html" target="_top" xlink:title=" ">
<polygon fill="white" stroke="black" points="746.4,-75.5 746.4,-95.5 855.75,-95.5 855.75,-75.5 746.4,-75.5"/>
<text text-anchor="middle" x="801.07" y="-82.5" font-family="Helvetica,sans-Serif" font-size="10.00">haldls/cerealization.h</text>
</a>
</g>
</g>
<!-- Node1&#45;&gt;Node4 -->
<g id="edge4" class="edge">
<title>Node1&#45;&gt;Node4</title>
<path fill="none" stroke="midnightblue" d="M439.45,-141.43C507.93,-133.75 626.85,-119.39 728.07,-102 735.7,-100.69 743.75,-99.14 751.6,-97.55"/>
<polygon fill="midnightblue" stroke="midnightblue" points="752.32,-100.97 761.4,-95.51 750.9,-94.12 752.32,-100.97"/>
</g>
<!-- Node6 -->
<g id="node7" class="node">
<title>Node6</title>
<g id="a_node7"><a xlink:title=" ">
<polygon fill="white" stroke="#bfbfbf" points="685.57,-6.5 685.57,-26.5 766.57,-26.5 766.57,-6.5 685.57,-6.5"/>
<text text-anchor="middle" x="726.07" y="-13.5" font-family="Helvetica,sans-Serif" font-size="10.00">hate/visibility.h</text>
</a>
</g>
</g>
<!-- Node1&#45;&gt;Node6 -->
<g id="edge20" class="edge">
<title>Node1&#45;&gt;Node6</title>
<path fill="none" stroke="midnightblue" d="M377.62,-138.44C368.71,-122.33 353.66,-88.57 371.07,-69 416.57,-17.83 610.13,-47.39 677.07,-33 681.56,-32.04 686.22,-30.83 690.81,-29.53"/>
<polygon fill="midnightblue" stroke="midnightblue" points="692.08,-32.8 700.63,-26.55 690.05,-26.1 692.08,-32.8"/>
</g>
<!-- Node1&#45;&gt;Node10 -->
<g id="edge10" class="edge">
<title>Node1&#45;&gt;Node10</title>
<path fill="none" stroke="midnightblue" d="M345.26,-138.46C313.29,-130.34 266.5,-117.36 227.07,-102 173.43,-81.11 113.79,-49.63 81.03,-31.57"/>
<polygon fill="midnightblue" stroke="midnightblue" points="82.59,-28.43 72.15,-26.64 79.19,-34.55 82.59,-28.43"/>
</g>
<!-- Node11 -->
<g id="node12" class="node">
<title>Node11</title>
<g id="a_node12"><a xlink:href="traits_8h.html" target="_top" xlink:title=" ">
<polygon fill="white" stroke="black" points="236.23,-75.5 236.23,-95.5 323.91,-95.5 323.91,-75.5 236.23,-75.5"/>
<text text-anchor="middle" x="280.07" y="-82.5" font-family="Helvetica,sans-Serif" font-size="10.00">haldls/vx/traits.h</text>
</a>
</g>
</g>
<!-- Node1&#45;&gt;Node11 -->
<g id="edge12" class="edge">
<title>Node1&#45;&gt;Node11</title>
<path fill="none" stroke="midnightblue" d="M367.87,-138.5C351.06,-128.54 323.75,-112.37 304.05,-100.7"/>
<polygon fill="midnightblue" stroke="midnightblue" points="305.72,-97.62 295.33,-95.54 302.15,-103.64 305.72,-97.62"/>
</g>
<!-- Node16 -->
<g id="node17" class="node">
<title>Node16</title>
<g id="a_node17"><a xlink:title=" ">
<polygon fill="white" stroke="#bfbfbf" points="379.67,-75.5 379.67,-95.5 448.47,-95.5 448.47,-75.5 379.67,-75.5"/>
<text text-anchor="middle" x="414.07" y="-82.5" font-family="Helvetica,sans-Serif" font-size="10.00">hate/math.h</text>
</a>
</g>
</g>
<!-- Node1&#45;&gt;Node16 -->
<g id="edge19" class="edge">
<title>Node1&#45;&gt;Node16</title>
<path fill="none" stroke="midnightblue" d="M387.65,-138.5C392.18,-129.58 399.25,-115.67 404.94,-104.48"/>
<polygon fill="midnightblue" stroke="midnightblue" points="408.07,-106.04 409.48,-95.54 401.83,-102.87 408.07,-106.04"/>
</g>
<!-- Node5 -->
<g id="node6" class="node">
<title>Node5</title>
<g id="a_node6"><a xlink:title=" ">
<polygon fill="white" stroke="#bfbfbf" points="584.45,-6.5 584.45,-26.5 667.69,-26.5 667.69,-6.5 584.45,-6.5"/>
<text text-anchor="middle" x="626.07" y="-13.5" font-family="Helvetica,sans-Serif" font-size="10.00">hate/type_list.h</text>
</a>
</g>
</g>
<!-- Node4&#45;&gt;Node5 -->
<g id="edge5" class="edge">
<title>Node4&#45;&gt;Node5</title>
<path fill="none" stroke="midnightblue" d="M777.47,-75.46C747.07,-63.83 694.05,-43.52 659.51,-30.3"/>
<polygon fill="midnightblue" stroke="midnightblue" points="660.45,-26.91 649.86,-26.61 657.95,-33.45 660.45,-26.91"/>
</g>
<!-- Node4&#45;&gt;Node6 -->
<g id="edge6" class="edge">
<title>Node4&#45;&gt;Node6</title>
<path fill="none" stroke="midnightblue" d="M790.96,-75.46C778.95,-64.73 758.7,-46.64 744.01,-33.52"/>
<polygon fill="midnightblue" stroke="midnightblue" points="746.3,-30.87 736.51,-26.82 741.63,-36.1 746.3,-30.87"/>
</g>
<!-- Node7 -->
<g id="node8" class="node">
<title>Node7</title>
<g id="a_node8"><a xlink:title=" ">
<polygon fill="white" stroke="#bfbfbf" points="784.62,-6.5 784.62,-26.5 829.52,-26.5 829.52,-6.5 784.62,-6.5"/>
<text text-anchor="middle" x="807.07" y="-13.5" font-family="Helvetica,sans-Serif" font-size="10.00">cstdint</text>
</a>
</g>
</g>
<!-- Node4&#45;&gt;Node7 -->
<g id="edge7" class="edge">
<title>Node4&#45;&gt;Node7</title>
<path fill="none" stroke="midnightblue" d="M801.88,-75.46C802.76,-65.63 804.2,-49.61 805.33,-36.9"/>
<polygon fill="midnightblue" stroke="midnightblue" points="808.83,-37.1 806.24,-26.82 801.86,-36.47 808.83,-37.1"/>
</g>
<!-- Node8 -->
<g id="node9" class="node">
<title>Node8</title>
<g id="a_node9"><a xlink:title=" ">
<polygon fill="white" stroke="#bfbfbf" points="847.9,-6.5 847.9,-26.5 892.24,-26.5 892.24,-6.5 847.9,-6.5"/>
<text text-anchor="middle" x="870.07" y="-13.5" font-family="Helvetica,sans-Serif" font-size="10.00">iosfwd</text>
</a>
</g>
</g>
<!-- Node4&#45;&gt;Node8 -->
<g id="edge8" class="edge">
<title>Node4&#45;&gt;Node8</title>
<path fill="none" stroke="midnightblue" d="M810.38,-75.46C821.32,-64.83 839.71,-46.98 853.19,-33.89"/>
<polygon fill="midnightblue" stroke="midnightblue" points="855.73,-36.3 860.47,-26.82 850.86,-31.28 855.73,-36.3"/>
</g>
<!-- Node9 -->
<g id="node10" class="node">
<title>Node9</title>
<g id="a_node10"><a xlink:title=" ">
<polygon fill="white" stroke="#bfbfbf" points="909.95,-6.5 909.95,-26.5 1008.19,-26.5 1008.19,-6.5 909.95,-6.5"/>
<text text-anchor="middle" x="959.07" y="-13.5" font-family="Helvetica,sans-Serif" font-size="10.00">cereal/macros.hpp</text>
</a>
</g>
</g>
<!-- Node4&#45;&gt;Node9 -->
<g id="edge9" class="edge">
<title>Node4&#45;&gt;Node9</title>
<path fill="none" stroke="midnightblue" d="M822.38,-75.46C849.59,-63.93 896.88,-43.87 928.08,-30.64"/>
<polygon fill="midnightblue" stroke="midnightblue" points="929.76,-33.73 937.6,-26.61 927.02,-27.29 929.76,-33.73"/>
</g>
<!-- Node10&#45;&gt;Node10 -->
<g id="edge11" class="edge">
<title>Node10&#45;&gt;Node10</title>
<path fill="none" stroke="midnightblue" d="M79.97,-26.54C103.79,-32.26 130.14,-28.92 130.14,-16.5 130.14,-5.78 110.51,-1.82 89.81,-4.62"/>
<polygon fill="midnightblue" stroke="midnightblue" points="89.15,-1.18 79.97,-6.46 90.44,-8.06 89.15,-1.18"/>
</g>
<!-- Node11&#45;&gt;Node5 -->
<g id="edge16" class="edge">
<title>Node11&#45;&gt;Node5</title>
<path fill="none" stroke="midnightblue" d="M311.22,-75.5C319.87,-73.18 329.3,-70.83 338.07,-69 442.36,-47.21 471.17,-56.55 575.07,-33 579.73,-31.94 584.59,-30.68 589.37,-29.34"/>
<polygon fill="midnightblue" stroke="midnightblue" points="590.39,-32.69 599,-26.52 588.42,-25.97 590.39,-32.69"/>
</g>
<!-- Node11&#45;&gt;Node10 -->
<g id="edge15" class="edge">
<title>Node11&#45;&gt;Node10</title>
<path fill="none" stroke="midnightblue" d="M249.86,-75.46C210.2,-63.6 140.45,-42.74 96.33,-29.54"/>
<polygon fill="midnightblue" stroke="midnightblue" points="97.1,-26.12 86.52,-26.61 95.1,-32.83 97.1,-26.12"/>
</g>
<!-- Node12 -->
<g id="node13" class="node">
<title>Node12</title>
<g id="a_node13"><a xlink:title=" ">
<polygon fill="white" stroke="#bfbfbf" points="148.01,-6.5 148.01,-26.5 210.13,-26.5 210.13,-6.5 148.01,-6.5"/>
<text text-anchor="middle" x="179.07" y="-13.5" font-family="Helvetica,sans-Serif" font-size="10.00">type_traits</text>
</a>
</g>
</g>
<!-- Node11&#45;&gt;Node12 -->
<g id="edge13" class="edge">
<title>Node11&#45;&gt;Node12</title>
<path fill="none" stroke="midnightblue" d="M266.45,-75.46C249.73,-64.38 221.16,-45.42 201.26,-32.22"/>
<polygon fill="midnightblue" stroke="midnightblue" points="203.07,-29.22 192.8,-26.61 199.2,-35.05 203.07,-29.22"/>
</g>
<!-- Node13 -->
<g id="node14" class="node">
<title>Node13</title>
<g id="a_node14"><a xlink:title=" ">
<polygon fill="white" stroke="#bfbfbf" points="228.45,-0.5 228.45,-32.5 321.69,-32.5 321.69,-0.5 228.45,-0.5"/>
<text text-anchor="start" x="236.45" y="-19.5" font-family="Helvetica,sans-Serif" font-size="10.00">fisch/vx/container</text>
<text text-anchor="middle" x="275.07" y="-7.5" font-family="Helvetica,sans-Serif" font-size="10.00">_fwd.h</text>
</a>
</g>
</g>
<!-- Node11&#45;&gt;Node13 -->
<g id="edge14" class="edge">
<title>Node11&#45;&gt;Node13</title>
<path fill="none" stroke="midnightblue" d="M279.4,-75.46C278.77,-67.04 277.8,-54.08 276.94,-42.55"/>
<polygon fill="midnightblue" stroke="midnightblue" points="280.43,-42.25 276.19,-32.53 273.45,-42.77 280.43,-42.25"/>
</g>
<!-- Node14 -->
<g id="node15" class="node">
<title>Node14</title>
<g id="a_node15"><a xlink:title=" ">
<polygon fill="white" stroke="#bfbfbf" points="339.67,-0.5 339.67,-32.5 438.47,-32.5 438.47,-0.5 339.67,-0.5"/>
<text text-anchor="start" x="347.67" y="-19.5" font-family="Helvetica,sans-Serif" font-size="10.00">boost/utility/enable</text>
<text text-anchor="middle" x="389.07" y="-7.5" font-family="Helvetica,sans-Serif" font-size="10.00">_if.hpp</text>
</a>
</g>
</g>
<!-- Node11&#45;&gt;Node14 -->
<g id="edge17" class="edge">
<title>Node11&#45;&gt;Node14</title>
<path fill="none" stroke="midnightblue" d="M294.77,-75.46C310.36,-65.88 335.51,-50.42 355.91,-37.88"/>
<polygon fill="midnightblue" stroke="midnightblue" points="357.93,-40.75 364.61,-32.53 354.26,-34.79 357.93,-40.75"/>
</g>
<!-- Node15 -->
<g id="node16" class="node">
<title>Node15</title>
<g id="a_node16"><a xlink:title=" ">
<polygon fill="white" stroke="#bfbfbf" points="456.12,-6.5 456.12,-26.5 566.03,-26.5 566.03,-6.5 456.12,-6.5"/>
<text text-anchor="middle" x="511.07" y="-13.5" font-family="Helvetica,sans-Serif" font-size="10.00">fisch/vx/container.def</text>
</a>
</g>
</g>
<!-- Node11&#45;&gt;Node15 -->
<g id="edge18" class="edge">
<title>Node11&#45;&gt;Node15</title>
<path fill="none" stroke="midnightblue" d="M311.23,-75.46C352.21,-63.58 424.36,-42.65 469.84,-29.46"/>
<polygon fill="midnightblue" stroke="midnightblue" points="471.04,-32.75 479.67,-26.61 469.09,-26.03 471.04,-32.75"/>
</g>
</g>
</svg>
