<?xml version="1.0" encoding="UTF-8" standalone="no"?>
<!DOCTYPE svg PUBLIC "-//W3C//DTD SVG 1.1//EN"
 "http://www.w3.org/Graphics/SVG/1.1/DTD/svg11.dtd">
<!-- Generated by graphviz version 2.43.0 (0)
 -->
<!-- Title: /jenkins/jenlib_workspaces_f9/bld_nightly&#45;haldls.YmxkX25pZ2h0bHktaGFsZGxzIzcxMQ.x/haldls/include/haldls/vx/v2/barrier.h Pages: 1 -->
<!--zoomable 248 -->
<svg id="main" version="1.1" xmlns="http://www.w3.org/2000/svg" xmlns:xlink="http://www.w3.org/1999/xlink" xml:space="preserve" onload="init(evt)">
<style type="text/css"><![CDATA[
.edge:hover path { stroke: red; }
.edge:hover polygon { stroke: red; fill: red; }
]]></style>
<script type="text/javascript"><![CDATA[
var edges = document.getElementsByTagName('g');
if (edges && edges.length) {
  for (var i=0;i<edges.length;i++) {
    if (edges[i].id.substr(0,4)=='edge') {
      edges[i].setAttribute('class','edge');
    }
  }
}
]]></script>
        <defs>
                <circle id="rim" cx="0" cy="0" r="7"/>
                <circle id="rim2" cx="0" cy="0" r="3.5"/>
                <g id="zoomPlus">
                        <use xlink:href="#rim" fill="#404040">
                                <set attributeName="fill" to="#808080" begin="zoomplus.mouseover" end="zoomplus.mouseout"/>
                        </use>
                        <path d="M-4,0h8M0,-4v8" fill="none" stroke="white" stroke-width="1.5" pointer-events="none"/>
                </g>
                <g id="zoomMin">
                        <use xlink:href="#rim" fill="#404040">
                                <set attributeName="fill" to="#808080" begin="zoomminus.mouseover" end="zoomminus.mouseout"/>
                        </use>
                        <path d="M-4,0h8" fill="none" stroke="white" stroke-width="1.5" pointer-events="none"/>
                </g>
                <g id="dirArrow">
                        <path fill="none" stroke="white" stroke-width="1.5" d="M0,-3.0v7 M-2.5,-0.5L0,-3.0L2.5,-0.5"/>
                </g>
               <g id="resetDef">
                       <use xlink:href="#rim2" fill="#404040">
                               <set attributeName="fill" to="#808080" begin="reset.mouseover" end="reset.mouseout"/>
                       </use>
               </g>
        </defs>

<script type="text/javascript">
var viewWidth = 1017;
var viewHeight = 248;
var sectionId = 'dynsection-0';
</script>
<script xlink:href="svgpan.js"/>
<svg id="graph" class="graph">
<g id="viewport">
<title>/jenkins/jenlib_workspaces_f9/bld_nightly&#45;haldls.YmxkX25pZ2h0bHktaGFsZGxzIzcxMQ.x/haldls/include/haldls/vx/v2/barrier.h</title>
<polygon fill="white" stroke="transparent" points="-4,4 -4,-244 1012.57,-244 1012.57,4 -4,4"/>
<!-- Node0 -->
<g id="node1" class="node">
<title>Node0</title>
<g id="a_node1"><a xlink:title=" ">
<polygon fill="#bfbfbf" stroke="black" points="358.05,-183.5 358.05,-239.5 536.29,-239.5 536.29,-183.5 358.05,-183.5"/>
<text text-anchor="start" x="366.05" y="-226.5" font-family="Helvetica,sans-Serif" font-size="10.00">/jenkins/jenlib_workspaces</text>
<text text-anchor="start" x="366.05" y="-214.5" font-family="Helvetica,sans-Serif" font-size="10.00">_f9/bld_nightly&#45;haldls.YmxkX25p</text>
<text text-anchor="start" x="366.05" y="-202.5" font-family="Helvetica,sans-Serif" font-size="10.00">Z2h0bHktaGFsZGxzIzcxMQ.x/haldls</text>
<text text-anchor="middle" x="447.17" y="-190.5" font-family="Helvetica,sans-Serif" font-size="10.00">/include/haldls/vx/v2/barrier.h</text>
</a>
</g>
</g>
<!-- Node1 -->
<g id="node2" class="node">
<title>Node1</title>
<g id="a_node2"><a xlink:href="barrier_8h.html" target="_top" xlink:title=" ">
<polygon fill="white" stroke="black" points="362.72,-126.5 362.72,-146.5 457.61,-146.5 457.61,-126.5 362.72,-126.5"/>
<text text-anchor="middle" x="410.17" y="-133.5" font-family="Helvetica,sans-Serif" font-size="10.00">haldls/vx/barrier.h</text>
</a>
</g>
</g>
<!-- Node0&#45;&gt;Node1 -->
<g id="edge1" class="edge">
<title>Node0&#45;&gt;Node1</title>
<path fill="none" stroke="midnightblue" d="M433.39,-183.32C428.72,-174.1 423.61,-164.02 419.38,-155.68"/>
<polygon fill="midnightblue" stroke="midnightblue" points="422.38,-153.86 414.74,-146.52 416.14,-157.03 422.38,-153.86"/>
</g>
<!-- Node8 -->
<g id="node9" class="node">
<title>Node8</title>
<g id="a_node9"><a xlink:href="genpybind_8h.html" target="_top" xlink:title=" ">
<polygon fill="white" stroke="black" points="442.1,-6.5 442.1,-26.5 554.24,-26.5 554.24,-6.5 442.1,-6.5"/>
<text text-anchor="middle" x="498.17" y="-13.5" font-family="Helvetica,sans-Serif" font-size="10.00">haldls/vx/genpybind.h</text>
</a>
</g>
</g>
<!-- Node0&#45;&gt;Node8 -->
<g id="edge19" class="edge">
<title>Node0&#45;&gt;Node8</title>
<path fill="none" stroke="midnightblue" d="M455.59,-183.39C459,-172.16 462.89,-158.99 466.17,-147 476.85,-107.88 487.89,-61.7 493.8,-36.41"/>
<polygon fill="midnightblue" stroke="midnightblue" points="497.21,-37.18 496.07,-26.65 490.39,-35.59 497.21,-37.18"/>
</g>
<!-- Node2 -->
<g id="node3" class="node">
<title>Node2</title>
<g id="a_node3"><a xlink:title=" ">
<polygon fill="white" stroke="#bfbfbf" points="0,-6.5 0,-26.5 44.34,-26.5 44.34,-6.5 0,-6.5"/>
<text text-anchor="middle" x="22.17" y="-13.5" font-family="Helvetica,sans-Serif" font-size="10.00">iosfwd</text>
</a>
</g>
</g>
<!-- Node1&#45;&gt;Node2 -->
<g id="edge2" class="edge">
<title>Node1&#45;&gt;Node2</title>
<path fill="none" stroke="midnightblue" d="M362.49,-130.99C311.76,-125.23 229.68,-113.1 162.17,-90 118.62,-75.1 71.87,-48.49 44.92,-31.98"/>
<polygon fill="midnightblue" stroke="midnightblue" points="46.59,-28.9 36.25,-26.6 42.9,-34.85 46.59,-28.9"/>
</g>
<!-- Node3 -->
<g id="node4" class="node">
<title>Node3</title>
<g id="a_node4"><a xlink:href="cerealization_8h.html" target="_top" xlink:title=" ">
<polygon fill="white" stroke="black" points="171.49,-69.5 171.49,-89.5 280.84,-89.5 280.84,-69.5 171.49,-69.5"/>
<text text-anchor="middle" x="226.17" y="-76.5" font-family="Helvetica,sans-Serif" font-size="10.00">haldls/cerealization.h</text>
</a>
</g>
</g>
<!-- Node1&#45;&gt;Node3 -->
<g id="edge3" class="edge">
<title>Node1&#45;&gt;Node3</title>
<path fill="none" stroke="midnightblue" d="M379.78,-126.42C348.66,-117.12 300.13,-102.61 265.96,-92.39"/>
<polygon fill="midnightblue" stroke="midnightblue" points="266.87,-89.01 256.29,-89.5 264.87,-95.72 266.87,-89.01"/>
</g>
<!-- Node5 -->
<g id="node6" class="node">
<title>Node5</title>
<g id="a_node6"><a xlink:title=" ">
<polygon fill="white" stroke="#bfbfbf" points="241.66,-6.5 241.66,-26.5 322.67,-26.5 322.67,-6.5 241.66,-6.5"/>
<text text-anchor="middle" x="282.17" y="-13.5" font-family="Helvetica,sans-Serif" font-size="10.00">hate/visibility.h</text>
</a>
</g>
</g>
<!-- Node1&#45;&gt;Node5 -->
<g id="edge18" class="edge">
<title>Node1&#45;&gt;Node5</title>
<path fill="none" stroke="midnightblue" d="M400.12,-126.24C378.44,-106.25 327.01,-58.83 299.78,-33.73"/>
<polygon fill="midnightblue" stroke="midnightblue" points="301.89,-30.92 292.16,-26.72 297.14,-36.07 301.89,-30.92"/>
</g>
<!-- Node1&#45;&gt;Node8 -->
<g id="edge9" class="edge">
<title>Node1&#45;&gt;Node8</title>
<path fill="none" stroke="midnightblue" d="M417.07,-126.24C431.72,-106.6 466.13,-60.46 485.08,-35.05"/>
<polygon fill="midnightblue" stroke="midnightblue" points="488.12,-36.82 491.29,-26.72 482.51,-32.64 488.12,-36.82"/>
</g>
<!-- Node9 -->
<g id="node10" class="node">
<title>Node9</title>
<g id="a_node10"><a xlink:href="traits_8h.html" target="_top" xlink:title=" ">
<polygon fill="white" stroke="black" points="601.33,-69.5 601.33,-89.5 689.01,-89.5 689.01,-69.5 601.33,-69.5"/>
<text text-anchor="middle" x="645.17" y="-76.5" font-family="Helvetica,sans-Serif" font-size="10.00">haldls/vx/traits.h</text>
</a>
</g>
</g>
<!-- Node1&#45;&gt;Node9 -->
<g id="edge11" class="edge">
<title>Node1&#45;&gt;Node9</title>
<path fill="none" stroke="midnightblue" d="M448.71,-126.48C489.18,-117.01 552.91,-102.09 596.74,-91.83"/>
<polygon fill="midnightblue" stroke="midnightblue" points="597.66,-95.21 606.6,-89.53 596.07,-88.4 597.66,-95.21"/>
</g>
<!-- Node3&#45;&gt;Node2 -->
<g id="edge7" class="edge">
<title>Node3&#45;&gt;Node2</title>
<path fill="none" stroke="midnightblue" d="M181.66,-69.45C146.24,-61.63 95.74,-49.05 53.17,-33 51.5,-32.37 49.81,-31.68 48.12,-30.96"/>
<polygon fill="midnightblue" stroke="midnightblue" points="49.16,-27.58 38.62,-26.51 46.19,-33.92 49.16,-27.58"/>
</g>
<!-- Node4 -->
<g id="node5" class="node">
<title>Node4</title>
<g id="a_node5"><a xlink:title=" ">
<polygon fill="white" stroke="#bfbfbf" points="340.54,-6.5 340.54,-26.5 423.79,-26.5 423.79,-6.5 340.54,-6.5"/>
<text text-anchor="middle" x="382.17" y="-13.5" font-family="Helvetica,sans-Serif" font-size="10.00">hate/type_list.h</text>
</a>
</g>
</g>
<!-- Node3&#45;&gt;Node4 -->
<g id="edge4" class="edge">
<title>Node3&#45;&gt;Node4</title>
<path fill="none" stroke="midnightblue" d="M249.19,-69.5C275.68,-59.14 319.41,-42.04 349.44,-30.3"/>
<polygon fill="midnightblue" stroke="midnightblue" points="351.02,-33.44 359.05,-26.54 348.47,-26.92 351.02,-33.44"/>
</g>
<!-- Node3&#45;&gt;Node5 -->
<g id="edge5" class="edge">
<title>Node3&#45;&gt;Node5</title>
<path fill="none" stroke="midnightblue" d="M234.43,-69.5C242.95,-60.22 256.43,-45.53 266.9,-34.13"/>
<polygon fill="midnightblue" stroke="midnightblue" points="269.69,-36.27 273.87,-26.54 264.53,-31.54 269.69,-36.27"/>
</g>
<!-- Node6 -->
<g id="node7" class="node">
<title>Node6</title>
<g id="a_node7"><a xlink:title=" ">
<polygon fill="white" stroke="#bfbfbf" points="178.72,-6.5 178.72,-26.5 223.62,-26.5 223.62,-6.5 178.72,-6.5"/>
<text text-anchor="middle" x="201.17" y="-13.5" font-family="Helvetica,sans-Serif" font-size="10.00">cstdint</text>
</a>
</g>
</g>
<!-- Node3&#45;&gt;Node6 -->
<g id="edge6" class="edge">
<title>Node3&#45;&gt;Node6</title>
<path fill="none" stroke="midnightblue" d="M222.48,-69.5C218.86,-60.67 213.24,-46.95 208.67,-35.82"/>
<polygon fill="midnightblue" stroke="midnightblue" points="211.9,-34.46 204.87,-26.54 205.43,-37.12 211.9,-34.46"/>
</g>
<!-- Node7 -->
<g id="node8" class="node">
<title>Node7</title>
<g id="a_node8"><a xlink:title=" ">
<polygon fill="white" stroke="#bfbfbf" points="62.05,-6.5 62.05,-26.5 160.29,-26.5 160.29,-6.5 62.05,-6.5"/>
<text text-anchor="middle" x="111.17" y="-13.5" font-family="Helvetica,sans-Serif" font-size="10.00">cereal/macros.hpp</text>
</a>
</g>
</g>
<!-- Node3&#45;&gt;Node7 -->
<g id="edge8" class="edge">
<title>Node3&#45;&gt;Node7</title>
<path fill="none" stroke="midnightblue" d="M209.2,-69.5C190.17,-59.41 159.1,-42.93 137.05,-31.23"/>
<polygon fill="midnightblue" stroke="midnightblue" points="138.68,-28.13 128.21,-26.54 135.4,-34.32 138.68,-28.13"/>
</g>
<!-- Node8&#45;&gt;Node8 -->
<g id="edge10" class="edge">
<title>Node8&#45;&gt;Node8</title>
<path fill="none" stroke="midnightblue" d="M526.67,-26.56C549.16,-30.45 572.24,-27.1 572.24,-16.5 572.24,-7.48 555.51,-3.71 536.65,-5.19"/>
<polygon fill="midnightblue" stroke="midnightblue" points="536.16,-1.72 526.67,-6.44 537.03,-8.67 536.16,-1.72"/>
</g>
<!-- Node9&#45;&gt;Node4 -->
<g id="edge15" class="edge">
<title>Node9&#45;&gt;Node4</title>
<path fill="none" stroke="midnightblue" d="M601.07,-70.15C558.01,-61.74 490.75,-47.9 433.17,-33 428.98,-31.92 424.63,-30.71 420.31,-29.47"/>
<polygon fill="midnightblue" stroke="midnightblue" points="420.96,-26.01 410.37,-26.53 418.97,-32.72 420.96,-26.01"/>
</g>
<!-- Node9&#45;&gt;Node8 -->
<g id="edge14" class="edge">
<title>Node9&#45;&gt;Node8</title>
<path fill="none" stroke="midnightblue" d="M623.48,-69.5C598.62,-59.18 557.66,-42.19 529.38,-30.45"/>
<polygon fill="midnightblue" stroke="midnightblue" points="530.52,-27.14 519.95,-26.54 527.84,-33.6 530.52,-27.14"/>
</g>
<!-- Node10 -->
<g id="node11" class="node">
<title>Node10</title>
<g id="a_node11"><a xlink:title=" ">
<polygon fill="white" stroke="#bfbfbf" points="718.11,-6.5 718.11,-26.5 780.23,-26.5 780.23,-6.5 718.11,-6.5"/>
<text text-anchor="middle" x="749.17" y="-13.5" font-family="Helvetica,sans-Serif" font-size="10.00">type_traits</text>
</a>
</g>
</g>
<!-- Node9&#45;&gt;Node10 -->
<g id="edge12" class="edge">
<title>Node9&#45;&gt;Node10</title>
<path fill="none" stroke="midnightblue" d="M660.51,-69.5C677.49,-59.54 705.06,-43.37 724.96,-31.7"/>
<polygon fill="midnightblue" stroke="midnightblue" points="726.9,-34.62 733.76,-26.54 723.36,-28.58 726.9,-34.62"/>
</g>
<!-- Node11 -->
<g id="node12" class="node">
<title>Node11</title>
<g id="a_node12"><a xlink:title=" ">
<polygon fill="white" stroke="#bfbfbf" points="798.55,-0.5 798.55,-32.5 891.79,-32.5 891.79,-0.5 798.55,-0.5"/>
<text text-anchor="start" x="806.55" y="-19.5" font-family="Helvetica,sans-Serif" font-size="10.00">fisch/vx/container</text>
<text text-anchor="middle" x="845.17" y="-7.5" font-family="Helvetica,sans-Serif" font-size="10.00">_fwd.h</text>
</a>
</g>
</g>
<!-- Node9&#45;&gt;Node11 -->
<g id="edge13" class="edge">
<title>Node9&#45;&gt;Node11</title>
<path fill="none" stroke="midnightblue" d="M674.68,-69.5C704.6,-60.37 751.66,-46.02 788.76,-34.7"/>
<polygon fill="midnightblue" stroke="midnightblue" points="789.91,-38.01 798.45,-31.75 787.86,-31.32 789.91,-38.01"/>
</g>
<!-- Node12 -->
<g id="node13" class="node">
<title>Node12</title>
<g id="a_node13"><a xlink:title=" ">
<polygon fill="white" stroke="#bfbfbf" points="909.77,-0.5 909.77,-32.5 1008.57,-32.5 1008.57,-0.5 909.77,-0.5"/>
<text text-anchor="start" x="917.77" y="-19.5" font-family="Helvetica,sans-Serif" font-size="10.00">boost/utility/enable</text>
<text text-anchor="middle" x="959.17" y="-7.5" font-family="Helvetica,sans-Serif" font-size="10.00">_if.hpp</text>
</a>
</g>
</g>
<!-- Node9&#45;&gt;Node12 -->
<g id="edge16" class="edge">
<title>Node9&#45;&gt;Node12</title>
<path fill="none" stroke="midnightblue" d="M689.33,-71.82C738.44,-64.14 820.29,-50.56 899.43,-33.29"/>
<polygon fill="midnightblue" stroke="midnightblue" points="900.55,-36.63 909.56,-31.05 899.04,-29.79 900.55,-36.63"/>
</g>
<!-- Node13 -->
<g id="node14" class="node">
<title>Node13</title>
<g id="a_node14"><a xlink:title=" ">
<polygon fill="white" stroke="#bfbfbf" points="590.21,-6.5 590.21,-26.5 700.12,-26.5 700.12,-6.5 590.21,-6.5"/>
<text text-anchor="middle" x="645.17" y="-13.5" font-family="Helvetica,sans-Serif" font-size="10.00">fisch/vx/container.def</text>
</a>
</g>
</g>
<!-- Node9&#45;&gt;Node13 -->
<g id="edge17" class="edge">
<title>Node9&#45;&gt;Node13</title>
<path fill="none" stroke="midnightblue" d="M645.17,-69.5C645.17,-60.94 645.17,-47.78 645.17,-36.85"/>
<polygon fill="midnightblue" stroke="midnightblue" points="648.67,-36.54 645.17,-26.54 641.67,-36.54 648.67,-36.54"/>
</g>
</g>
</svg>
        <g id="navigator" transform="translate(0 0)" fill="#404254">
                <rect fill="#f2f5e9" fill-opacity="0.5" stroke="#606060" stroke-width=".5" x="0" y="0" width="60" height="60"/>
                <use id="zoomplus" xlink:href="#zoomPlus" x="17" y="9" onmousedown="handleZoom(evt,'in')"/>
                <use id="zoomminus" xlink:href="#zoomMin" x="42" y="9" onmousedown="handleZoom(evt,'out')"/>
                <use id="reset" xlink:href="#resetDef" x="30" y="36" onmousedown="handleReset()"/>
                <g id="arrowUp" xlink:href="#dirArrow" transform="translate(30 24)" onmousedown="handlePan(0,-1)">
                  <use xlink:href="#rim" fill="#404040">
                        <set attributeName="fill" to="#808080" begin="arrowUp.mouseover" end="arrowUp.mouseout"/>
                  </use>
                  <path fill="none" stroke="white" stroke-width="1.5" d="M0,-3.0v7 M-2.5,-0.5L0,-3.0L2.5,-0.5"/>
                </g>
                <g id="arrowRight" xlink:href="#dirArrow" transform="rotate(90) translate(36 -43)" onmousedown="handlePan(1,0)">
                  <use xlink:href="#rim" fill="#404040">
                        <set attributeName="fill" to="#808080" begin="arrowRight.mouseover" end="arrowRight.mouseout"/>
                  </use>
                  <path fill="none" stroke="white" stroke-width="1.5" d="M0,-3.0v7 M-2.5,-0.5L0,-3.0L2.5,-0.5"/>
                </g>
                <g id="arrowDown" xlink:href="#dirArrow" transform="rotate(180) translate(-30 -48)" onmousedown="handlePan(0,1)">
                  <use xlink:href="#rim" fill="#404040">
                        <set attributeName="fill" to="#808080" begin="arrowDown.mouseover" end="arrowDown.mouseout"/>
                  </use>
                  <path fill="none" stroke="white" stroke-width="1.5" d="M0,-3.0v7 M-2.5,-0.5L0,-3.0L2.5,-0.5"/>
                </g>
                <g id="arrowLeft" xlink:href="#dirArrow" transform="rotate(270) translate(-36 17)" onmousedown="handlePan(-1,0)">
                  <use xlink:href="#rim" fill="#404040">
                        <set attributeName="fill" to="#808080" begin="arrowLeft.mouseover" end="arrowLeft.mouseout"/>
                  </use>
                  <path fill="none" stroke="white" stroke-width="1.5" d="M0,-3.0v7 M-2.5,-0.5L0,-3.0L2.5,-0.5"/>
                </g>
        </g>
        <svg viewBox="0 0 15 15" width="100%" height="30px" preserveAspectRatio="xMaxYMin meet">
         <g id="arrow_out" transform="scale(0.3 0.3)">
          <a xlink:href="v2_2barrier_8h__incl_org.svg" target="_base">
           <rect id="button" ry="5" rx="5" y="6" x="6" height="38" width="38"
                fill="#f2f5e9" fill-opacity="0.5" stroke="#606060" stroke-width="1.0"/>
           <path id="arrow"
             d="M 11.500037,31.436501 C 11.940474,20.09759 22.043105,11.32322 32.158766,21.979434 L 37.068811,17.246167 C 37.068811,17.246167 37.088388,32 37.088388,32 L 22.160133,31.978069 C 22.160133,31.978069 26.997745,27.140456 26.997745,27.140456 C 18.528582,18.264221 13.291696,25.230495 11.500037,31.436501 z"
             style="fill:#404040;"/>
          </a>
         </g>
        </svg>
</svg>
