<?xml version="1.0" encoding="UTF-8" standalone="no"?>
<!DOCTYPE svg PUBLIC "-//W3C//DTD SVG 1.1//EN"
 "http://www.w3.org/Graphics/SVG/1.1/DTD/svg11.dtd">
<!-- Generated by graphviz version 2.43.0 (0)
 -->
<!-- Title: /jenkins/jenlib_workspaces_f9/bld_nightly&#45;haldls.YmxkX25pZ2h0bHktaGFsZGxzIzcxMQ.x/haldls/include/haldls/vx/v2/madc.h Pages: 1 -->
<!--zoomable 260 -->
<svg id="main" version="1.1" xmlns="http://www.w3.org/2000/svg" xmlns:xlink="http://www.w3.org/1999/xlink" xml:space="preserve" onload="init(evt)">
<style type="text/css"><![CDATA[
.edge:hover path { stroke: red; }
.edge:hover polygon { stroke: red; fill: red; }
]]></style>
<script type="text/javascript"><![CDATA[
var edges = document.getElementsByTagName('g');
if (edges && edges.length) {
  for (var i=0;i<edges.length;i++) {
    if (edges[i].id.substr(0,4)=='edge') {
      edges[i].setAttribute('class','edge');
    }
  }
}
]]></script>
        <defs>
                <circle id="rim" cx="0" cy="0" r="7"/>
                <circle id="rim2" cx="0" cy="0" r="3.5"/>
                <g id="zoomPlus">
                        <use xlink:href="#rim" fill="#404040">
                                <set attributeName="fill" to="#808080" begin="zoomplus.mouseover" end="zoomplus.mouseout"/>
                        </use>
                        <path d="M-4,0h8M0,-4v8" fill="none" stroke="white" stroke-width="1.5" pointer-events="none"/>
                </g>
                <g id="zoomMin">
                        <use xlink:href="#rim" fill="#404040">
                                <set attributeName="fill" to="#808080" begin="zoomminus.mouseover" end="zoomminus.mouseout"/>
                        </use>
                        <path d="M-4,0h8" fill="none" stroke="white" stroke-width="1.5" pointer-events="none"/>
                </g>
                <g id="dirArrow">
                        <path fill="none" stroke="white" stroke-width="1.5" d="M0,-3.0v7 M-2.5,-0.5L0,-3.0L2.5,-0.5"/>
                </g>
               <g id="resetDef">
                       <use xlink:href="#rim2" fill="#404040">
                               <set attributeName="fill" to="#808080" begin="reset.mouseover" end="reset.mouseout"/>
                       </use>
               </g>
        </defs>

<script type="text/javascript">
var viewWidth = 1172;
var viewHeight = 260;
var sectionId = 'dynsection-0';
</script>
<script xlink:href="svgpan.js"/>
<svg id="graph" class="graph">
<g id="viewport">
<title>/jenkins/jenlib_workspaces_f9/bld_nightly&#45;haldls.YmxkX25pZ2h0bHktaGFsZGxzIzcxMQ.x/haldls/include/haldls/vx/v2/madc.h</title>
<polygon fill="white" stroke="transparent" points="-4,4 -4,-256 1167.57,-256 1167.57,4 -4,4"/>
<!-- Node0 -->
<g id="node1" class="node">
<title>Node0</title>
<g id="a_node1"><a xlink:title=" ">
<polygon fill="#bfbfbf" stroke="black" points="168.95,-195.5 168.95,-251.5 347.19,-251.5 347.19,-195.5 168.95,-195.5"/>
<text text-anchor="start" x="176.95" y="-238.5" font-family="Helvetica,sans-Serif" font-size="10.00">/jenkins/jenlib_workspaces</text>
<text text-anchor="start" x="176.95" y="-226.5" font-family="Helvetica,sans-Serif" font-size="10.00">_f9/bld_nightly&#45;haldls.YmxkX25p</text>
<text text-anchor="start" x="176.95" y="-214.5" font-family="Helvetica,sans-Serif" font-size="10.00">Z2h0bHktaGFsZGxzIzcxMQ.x/haldls</text>
<text text-anchor="middle" x="258.07" y="-202.5" font-family="Helvetica,sans-Serif" font-size="10.00">/include/haldls/vx/v2/madc.h</text>
</a>
</g>
</g>
<!-- Node1 -->
<g id="node2" class="node">
<title>Node1</title>
<g id="a_node2"><a xlink:href="genpybind_8h.html" target="_top" xlink:title=" ">
<polygon fill="white" stroke="black" points="0,-6.5 0,-26.5 112.14,-26.5 112.14,-6.5 0,-6.5"/>
<text text-anchor="middle" x="56.07" y="-13.5" font-family="Helvetica,sans-Serif" font-size="10.00">haldls/vx/genpybind.h</text>
</a>
</g>
</g>
<!-- Node0&#45;&gt;Node1 -->
<g id="edge1" class="edge">
<title>Node0&#45;&gt;Node1</title>
<path fill="none" stroke="midnightblue" d="M193.64,-195.5C153.57,-175.44 104.27,-144.24 75.07,-102 61.55,-82.44 57.48,-54.79 56.35,-36.52"/>
<polygon fill="midnightblue" stroke="midnightblue" points="59.85,-36.37 55.97,-26.51 52.85,-36.63 59.85,-36.37"/>
</g>
<!-- Node2 -->
<g id="node3" class="node">
<title>Node2</title>
<g id="a_node3"><a xlink:href="madc_8h.html" target="_top" xlink:title=" ">
<polygon fill="white" stroke="black" points="474.84,-138.5 474.84,-158.5 565.3,-158.5 565.3,-138.5 474.84,-138.5"/>
<text text-anchor="middle" x="520.07" y="-145.5" font-family="Helvetica,sans-Serif" font-size="10.00">haldls/vx/madc.h</text>
</a>
</g>
</g>
<!-- Node0&#45;&gt;Node2 -->
<g id="edge3" class="edge">
<title>Node0&#45;&gt;Node2</title>
<path fill="none" stroke="midnightblue" d="M347.5,-197.58C391.62,-185.29 442.76,-171.04 477.85,-161.26"/>
<polygon fill="midnightblue" stroke="midnightblue" points="479.06,-164.56 487.75,-158.51 477.18,-157.82 479.06,-164.56"/>
</g>
<!-- Node1&#45;&gt;Node1 -->
<g id="edge2" class="edge">
<title>Node1&#45;&gt;Node1</title>
<path fill="none" stroke="midnightblue" d="M79.97,-26.54C103.79,-32.26 130.14,-28.92 130.14,-16.5 130.14,-5.78 110.51,-1.82 89.81,-4.62"/>
<polygon fill="midnightblue" stroke="midnightblue" points="89.15,-1.18 79.97,-6.46 90.44,-8.06 89.15,-1.18"/>
</g>
<!-- Node2&#45;&gt;Node1 -->
<g id="edge17" class="edge">
<title>Node2&#45;&gt;Node1</title>
<path fill="none" stroke="midnightblue" d="M474.68,-144.88C392.53,-139.6 222.75,-126.1 169.07,-102 148.67,-92.84 148.76,-82.69 131.07,-69 114.1,-55.87 94.03,-42.18 78.92,-32.22"/>
<polygon fill="midnightblue" stroke="midnightblue" points="80.51,-29.08 70.23,-26.53 76.68,-34.93 80.51,-29.08"/>
</g>
<!-- Node3 -->
<g id="node4" class="node">
<title>Node3</title>
<g id="a_node4"><a xlink:title=" ">
<polygon fill="white" stroke="#bfbfbf" points="83.68,-75.5 83.68,-95.5 122.46,-95.5 122.46,-75.5 83.68,-75.5"/>
<text text-anchor="middle" x="103.07" y="-82.5" font-family="Helvetica,sans-Serif" font-size="10.00">array</text>
</a>
</g>
</g>
<!-- Node2&#45;&gt;Node3 -->
<g id="edge4" class="edge">
<title>Node2&#45;&gt;Node3</title>
<path fill="none" stroke="midnightblue" d="M474.81,-146.8C402.05,-144.66 255.16,-136.05 136.07,-102 133.76,-101.34 131.41,-100.53 129.08,-99.64"/>
<polygon fill="midnightblue" stroke="midnightblue" points="130.36,-96.38 119.79,-95.62 127.58,-102.81 130.36,-96.38"/>
</g>
<!-- Node4 -->
<g id="node5" class="node">
<title>Node4</title>
<g id="a_node5"><a xlink:title=" ">
<polygon fill="white" stroke="#bfbfbf" points="839.9,-6.5 839.9,-26.5 884.24,-26.5 884.24,-6.5 839.9,-6.5"/>
<text text-anchor="middle" x="862.07" y="-13.5" font-family="Helvetica,sans-Serif" font-size="10.00">iosfwd</text>
</a>
</g>
</g>
<!-- Node2&#45;&gt;Node4 -->
<g id="edge5" class="edge">
<title>Node2&#45;&gt;Node4</title>
<path fill="none" stroke="midnightblue" d="M565.45,-145.03C657.18,-139.58 857.7,-125.12 878.07,-102 894.21,-83.68 883.21,-54.29 873.15,-35.45"/>
<polygon fill="midnightblue" stroke="midnightblue" points="876.13,-33.61 868.12,-26.67 870.05,-37.09 876.13,-33.61"/>
</g>
<!-- Node5 -->
<g id="node6" class="node">
<title>Node5</title>
<g id="a_node6"><a xlink:title=" ">
<polygon fill="white" stroke="#bfbfbf" points="283.95,-69.5 283.95,-101.5 392.19,-101.5 392.19,-69.5 283.95,-69.5"/>
<text text-anchor="start" x="291.95" y="-88.5" font-family="Helvetica,sans-Serif" font-size="10.00">halco/common/typed</text>
<text text-anchor="middle" x="338.07" y="-76.5" font-family="Helvetica,sans-Serif" font-size="10.00">_array.h</text>
</a>
</g>
</g>
<!-- Node2&#45;&gt;Node5 -->
<g id="edge6" class="edge">
<title>Node2&#45;&gt;Node5</title>
<path fill="none" stroke="midnightblue" d="M493.22,-138.5C466.85,-129.66 425.86,-115.92 392.63,-104.79"/>
<polygon fill="midnightblue" stroke="midnightblue" points="393.64,-101.43 383.04,-101.57 391.41,-108.07 393.64,-101.43"/>
</g>
<!-- Node6 -->
<g id="node7" class="node">
<title>Node6</title>
<g id="a_node7"><a xlink:title=" ">
<polygon fill="white" stroke="#bfbfbf" points="410.56,-69.5 410.56,-101.5 511.58,-101.5 511.58,-69.5 410.56,-69.5"/>
<text text-anchor="start" x="418.56" y="-88.5" font-family="Helvetica,sans-Serif" font-size="10.00">halco/hicann&#45;dls/vx</text>
<text text-anchor="middle" x="461.07" y="-76.5" font-family="Helvetica,sans-Serif" font-size="10.00">/chip.h</text>
</a>
</g>
</g>
<!-- Node2&#45;&gt;Node6 -->
<g id="edge7" class="edge">
<title>Node2&#45;&gt;Node6</title>
<path fill="none" stroke="midnightblue" d="M511.37,-138.5C503.91,-130.79 492.84,-119.35 482.98,-109.16"/>
<polygon fill="midnightblue" stroke="midnightblue" points="485.23,-106.45 475.76,-101.69 480.2,-111.31 485.23,-106.45"/>
</g>
<!-- Node7 -->
<g id="node8" class="node">
<title>Node7</title>
<g id="a_node8"><a xlink:title=" ">
<polygon fill="white" stroke="#bfbfbf" points="529.56,-69.5 529.56,-101.5 630.58,-101.5 630.58,-69.5 529.56,-69.5"/>
<text text-anchor="start" x="537.56" y="-88.5" font-family="Helvetica,sans-Serif" font-size="10.00">halco/hicann&#45;dls/vx</text>
<text text-anchor="middle" x="580.07" y="-76.5" font-family="Helvetica,sans-Serif" font-size="10.00">/madc.h</text>
</a>
</g>
</g>
<!-- Node2&#45;&gt;Node7 -->
<g id="edge8" class="edge">
<title>Node2&#45;&gt;Node7</title>
<path fill="none" stroke="midnightblue" d="M528.92,-138.5C536.58,-130.71 547.99,-119.12 558.08,-108.86"/>
<polygon fill="midnightblue" stroke="midnightblue" points="560.61,-111.27 565.13,-101.69 555.62,-106.37 560.61,-111.27"/>
</g>
<!-- Node8 -->
<g id="node9" class="node">
<title>Node8</title>
<g id="a_node9"><a xlink:title=" ">
<polygon fill="white" stroke="#bfbfbf" points="648.56,-69.5 648.56,-101.5 749.58,-101.5 749.58,-69.5 648.56,-69.5"/>
<text text-anchor="start" x="656.56" y="-88.5" font-family="Helvetica,sans-Serif" font-size="10.00">halco/hicann&#45;dls/vx</text>
<text text-anchor="middle" x="699.07" y="-76.5" font-family="Helvetica,sans-Serif" font-size="10.00">/readout.h</text>
</a>
</g>
</g>
<!-- Node2&#45;&gt;Node8 -->
<g id="edge9" class="edge">
<title>Node2&#45;&gt;Node8</title>
<path fill="none" stroke="midnightblue" d="M546.48,-138.5C572.31,-129.7 612.39,-116.04 644.99,-104.93"/>
<polygon fill="midnightblue" stroke="midnightblue" points="646.51,-108.11 654.84,-101.57 644.25,-101.49 646.51,-108.11"/>
</g>
<!-- Node9 -->
<g id="node10" class="node">
<title>Node9</title>
<g id="a_node10"><a xlink:title=" ">
<polygon fill="white" stroke="#bfbfbf" points="767.56,-69.5 767.56,-101.5 868.58,-101.5 868.58,-69.5 767.56,-69.5"/>
<text text-anchor="start" x="775.56" y="-88.5" font-family="Helvetica,sans-Serif" font-size="10.00">halco/hicann&#45;dls/vx</text>
<text text-anchor="middle" x="818.07" y="-76.5" font-family="Helvetica,sans-Serif" font-size="10.00">/synapse.h</text>
</a>
</g>
</g>
<!-- Node2&#45;&gt;Node9 -->
<g id="edge10" class="edge">
<title>Node2&#45;&gt;Node9</title>
<path fill="none" stroke="midnightblue" d="M565.64,-139.79C611.7,-131.77 685.16,-118.42 757.13,-102.36"/>
<polygon fill="midnightblue" stroke="midnightblue" points="758.29,-105.69 767.28,-100.08 756.75,-98.86 758.29,-105.69"/>
</g>
<!-- Node10 -->
<g id="node11" class="node">
<title>Node10</title>
<g id="a_node11"><a xlink:href="cerealization_8h.html" target="_top" xlink:title=" ">
<polygon fill="white" stroke="black" points="925.4,-75.5 925.4,-95.5 1034.75,-95.5 1034.75,-75.5 925.4,-75.5"/>
<text text-anchor="middle" x="980.07" y="-82.5" font-family="Helvetica,sans-Serif" font-size="10.00">haldls/cerealization.h</text>
</a>
</g>
</g>
<!-- Node2&#45;&gt;Node10 -->
<g id="edge11" class="edge">
<title>Node2&#45;&gt;Node10</title>
<path fill="none" stroke="midnightblue" d="M565.45,-143.78C638.55,-137.44 786.77,-123.13 911.07,-102 918.31,-100.77 925.93,-99.27 933.37,-97.69"/>
<polygon fill="midnightblue" stroke="midnightblue" points="934.31,-101.06 943.33,-95.51 932.81,-94.23 934.31,-101.06"/>
</g>
<!-- Node12 -->
<g id="node13" class="node">
<title>Node12</title>
<g id="a_node13"><a xlink:title=" ">
<polygon fill="white" stroke="#bfbfbf" points="1082.57,-6.5 1082.57,-26.5 1163.57,-26.5 1163.57,-6.5 1082.57,-6.5"/>
<text text-anchor="middle" x="1123.07" y="-13.5" font-family="Helvetica,sans-Serif" font-size="10.00">hate/visibility.h</text>
</a>
</g>
</g>
<!-- Node2&#45;&gt;Node12 -->
<g id="edge25" class="edge">
<title>Node2&#45;&gt;Node12</title>
<path fill="none" stroke="midnightblue" d="M565.37,-147.68C676.61,-147.46 960.22,-142.8 1044.07,-102 1074.47,-87.21 1099.05,-55.33 1112.32,-35.24"/>
<polygon fill="midnightblue" stroke="midnightblue" points="1115.34,-37.01 1117.75,-26.69 1109.43,-33.25 1115.34,-37.01"/>
</g>
<!-- Node15 -->
<g id="node16" class="node">
<title>Node15</title>
<g id="a_node16"><a xlink:href="traits_8h.html" target="_top" xlink:title=" ">
<polygon fill="white" stroke="black" points="178.23,-75.5 178.23,-95.5 265.91,-95.5 265.91,-75.5 178.23,-75.5"/>
<text text-anchor="middle" x="222.07" y="-82.5" font-family="Helvetica,sans-Serif" font-size="10.00">haldls/vx/traits.h</text>
</a>
</g>
</g>
<!-- Node2&#45;&gt;Node15 -->
<g id="edge18" class="edge">
<title>Node2&#45;&gt;Node15</title>
<path fill="none" stroke="midnightblue" d="M474.63,-140.47C425.22,-132.5 344.09,-118.46 275.07,-102 270.42,-100.89 265.57,-99.63 260.77,-98.31"/>
<polygon fill="midnightblue" stroke="midnightblue" points="261.66,-94.92 251.09,-95.56 259.75,-101.66 261.66,-94.92"/>
</g>
<!-- Node10&#45;&gt;Node4 -->
<g id="edge15" class="edge">
<title>Node10&#45;&gt;Node4</title>
<path fill="none" stroke="midnightblue" d="M964.16,-75.46C944.36,-64.23 910.34,-44.91 887.06,-31.69"/>
<polygon fill="midnightblue" stroke="midnightblue" points="888.53,-28.5 878.11,-26.61 885.08,-34.59 888.53,-28.5"/>
</g>
<!-- Node11 -->
<g id="node12" class="node">
<title>Node11</title>
<g id="a_node12"><a xlink:title=" ">
<polygon fill="white" stroke="#bfbfbf" points="679.45,-6.5 679.45,-26.5 762.69,-26.5 762.69,-6.5 679.45,-6.5"/>
<text text-anchor="middle" x="721.07" y="-13.5" font-family="Helvetica,sans-Serif" font-size="10.00">hate/type_list.h</text>
</a>
</g>
</g>
<!-- Node10&#45;&gt;Node11 -->
<g id="edge12" class="edge">
<title>Node10&#45;&gt;Node11</title>
<path fill="none" stroke="midnightblue" d="M945.14,-75.46C898.8,-63.48 816.93,-42.3 766.02,-29.13"/>
<polygon fill="midnightblue" stroke="midnightblue" points="766.83,-25.72 756.28,-26.61 765.08,-32.5 766.83,-25.72"/>
</g>
<!-- Node10&#45;&gt;Node12 -->
<g id="edge13" class="edge">
<title>Node10&#45;&gt;Node12</title>
<path fill="none" stroke="midnightblue" d="M999.36,-75.46C1023.77,-64.03 1066.04,-44.22 1094.28,-30.99"/>
<polygon fill="midnightblue" stroke="midnightblue" points="1096.06,-34.02 1103.63,-26.61 1093.09,-27.68 1096.06,-34.02"/>
</g>
<!-- Node13 -->
<g id="node14" class="node">
<title>Node13</title>
<g id="a_node14"><a xlink:title=" ">
<polygon fill="white" stroke="#bfbfbf" points="902.62,-6.5 902.62,-26.5 947.52,-26.5 947.52,-6.5 902.62,-6.5"/>
<text text-anchor="middle" x="925.07" y="-13.5" font-family="Helvetica,sans-Serif" font-size="10.00">cstdint</text>
</a>
</g>
</g>
<!-- Node10&#45;&gt;Node13 -->
<g id="edge14" class="edge">
<title>Node10&#45;&gt;Node13</title>
<path fill="none" stroke="midnightblue" d="M972.65,-75.46C964.09,-65.03 949.82,-47.64 939.13,-34.63"/>
<polygon fill="midnightblue" stroke="midnightblue" points="941.77,-32.33 932.72,-26.82 936.36,-36.77 941.77,-32.33"/>
</g>
<!-- Node14 -->
<g id="node15" class="node">
<title>Node14</title>
<g id="a_node15"><a xlink:title=" ">
<polygon fill="white" stroke="#bfbfbf" points="965.95,-6.5 965.95,-26.5 1064.19,-26.5 1064.19,-6.5 965.95,-6.5"/>
<text text-anchor="middle" x="1015.07" y="-13.5" font-family="Helvetica,sans-Serif" font-size="10.00">cereal/macros.hpp</text>
</a>
</g>
</g>
<!-- Node10&#45;&gt;Node14 -->
<g id="edge16" class="edge">
<title>Node10&#45;&gt;Node14</title>
<path fill="none" stroke="midnightblue" d="M984.79,-75.46C990.09,-65.33 998.81,-48.63 1005.54,-35.75"/>
<polygon fill="midnightblue" stroke="midnightblue" points="1008.67,-37.31 1010.2,-26.82 1002.47,-34.07 1008.67,-37.31"/>
</g>
<!-- Node15&#45;&gt;Node1 -->
<g id="edge21" class="edge">
<title>Node15&#45;&gt;Node1</title>
<path fill="none" stroke="midnightblue" d="M199.68,-75.46C170.97,-63.88 120.98,-43.7 88.21,-30.47"/>
<polygon fill="midnightblue" stroke="midnightblue" points="89.22,-27.1 78.63,-26.61 86.6,-33.6 89.22,-27.1"/>
</g>
<!-- Node15&#45;&gt;Node11 -->
<g id="edge22" class="edge">
<title>Node15&#45;&gt;Node11</title>
<path fill="none" stroke="midnightblue" d="M249.63,-75.48C257.76,-73.08 266.71,-70.69 275.07,-69 312.95,-61.33 559.88,-34.63 669.17,-22.99"/>
<polygon fill="midnightblue" stroke="midnightblue" points="669.73,-26.45 679.31,-21.91 668.99,-19.49 669.73,-26.45"/>
</g>
<!-- Node16 -->
<g id="node17" class="node">
<title>Node16</title>
<g id="a_node17"><a xlink:title=" ">
<polygon fill="white" stroke="#bfbfbf" points="148.01,-6.5 148.01,-26.5 210.13,-26.5 210.13,-6.5 148.01,-6.5"/>
<text text-anchor="middle" x="179.07" y="-13.5" font-family="Helvetica,sans-Serif" font-size="10.00">type_traits</text>
</a>
</g>
</g>
<!-- Node15&#45;&gt;Node16 -->
<g id="edge19" class="edge">
<title>Node15&#45;&gt;Node16</title>
<path fill="none" stroke="midnightblue" d="M216.27,-75.46C209.71,-65.23 198.84,-48.3 190.54,-35.38"/>
<polygon fill="midnightblue" stroke="midnightblue" points="193.4,-33.35 185.05,-26.82 187.51,-37.13 193.4,-33.35"/>
</g>
<!-- Node17 -->
<g id="node18" class="node">
<title>Node17</title>
<g id="a_node18"><a xlink:title=" ">
<polygon fill="white" stroke="#bfbfbf" points="228.45,-0.5 228.45,-32.5 321.69,-32.5 321.69,-0.5 228.45,-0.5"/>
<text text-anchor="start" x="236.45" y="-19.5" font-family="Helvetica,sans-Serif" font-size="10.00">fisch/vx/container</text>
<text text-anchor="middle" x="275.07" y="-7.5" font-family="Helvetica,sans-Serif" font-size="10.00">_fwd.h</text>
</a>
</g>
</g>
<!-- Node15&#45;&gt;Node17 -->
<g id="edge20" class="edge">
<title>Node15&#45;&gt;Node17</title>
<path fill="none" stroke="midnightblue" d="M229.22,-75.46C236.29,-66.53 247.4,-52.48 256.92,-40.45"/>
<polygon fill="midnightblue" stroke="midnightblue" points="259.72,-42.55 263.18,-32.53 254.23,-38.2 259.72,-42.55"/>
</g>
<!-- Node18 -->
<g id="node19" class="node">
<title>Node18</title>
<g id="a_node19"><a xlink:title=" ">
<polygon fill="white" stroke="#bfbfbf" points="339.67,-0.5 339.67,-32.5 438.47,-32.5 438.47,-0.5 339.67,-0.5"/>
<text text-anchor="start" x="347.67" y="-19.5" font-family="Helvetica,sans-Serif" font-size="10.00">boost/utility/enable</text>
<text text-anchor="middle" x="389.07" y="-7.5" font-family="Helvetica,sans-Serif" font-size="10.00">_if.hpp</text>
</a>
</g>
</g>
<!-- Node15&#45;&gt;Node18 -->
<g id="edge23" class="edge">
<title>Node15&#45;&gt;Node18</title>
<path fill="none" stroke="midnightblue" d="M244.59,-75.46C269.44,-65.49 310.14,-49.17 342.02,-36.38"/>
<polygon fill="midnightblue" stroke="midnightblue" points="343.62,-39.51 351.6,-32.53 341.02,-33.01 343.62,-39.51"/>
</g>
<!-- Node19 -->
<g id="node20" class="node">
<title>Node19</title>
<g id="a_node20"><a xlink:title=" ">
<polygon fill="white" stroke="#bfbfbf" points="456.12,-6.5 456.12,-26.5 566.03,-26.5 566.03,-6.5 456.12,-6.5"/>
<text text-anchor="middle" x="511.07" y="-13.5" font-family="Helvetica,sans-Serif" font-size="10.00">fisch/vx/container.def</text>
</a>
</g>
</g>
<!-- Node15&#45;&gt;Node19 -->
<g id="edge24" class="edge">
<title>Node15&#45;&gt;Node19</title>
<path fill="none" stroke="midnightblue" d="M251.4,-75.48C259.07,-73.24 267.35,-70.93 275.07,-69 350.83,-50.02 370.89,-50.19 447.07,-33 452.79,-31.71 458.78,-30.32 464.71,-28.91"/>
<polygon fill="midnightblue" stroke="midnightblue" points="465.66,-32.28 474.57,-26.55 464.03,-25.47 465.66,-32.28"/>
</g>
</g>
</svg>
        <g id="navigator" transform="translate(0 0)" fill="#404254">
                <rect fill="#f2f5e9" fill-opacity="0.5" stroke="#606060" stroke-width=".5" x="0" y="0" width="60" height="60"/>
                <use id="zoomplus" xlink:href="#zoomPlus" x="17" y="9" onmousedown="handleZoom(evt,'in')"/>
                <use id="zoomminus" xlink:href="#zoomMin" x="42" y="9" onmousedown="handleZoom(evt,'out')"/>
                <use id="reset" xlink:href="#resetDef" x="30" y="36" onmousedown="handleReset()"/>
                <g id="arrowUp" xlink:href="#dirArrow" transform="translate(30 24)" onmousedown="handlePan(0,-1)">
                  <use xlink:href="#rim" fill="#404040">
                        <set attributeName="fill" to="#808080" begin="arrowUp.mouseover" end="arrowUp.mouseout"/>
                  </use>
                  <path fill="none" stroke="white" stroke-width="1.5" d="M0,-3.0v7 M-2.5,-0.5L0,-3.0L2.5,-0.5"/>
                </g>
                <g id="arrowRight" xlink:href="#dirArrow" transform="rotate(90) translate(36 -43)" onmousedown="handlePan(1,0)">
                  <use xlink:href="#rim" fill="#404040">
                        <set attributeName="fill" to="#808080" begin="arrowRight.mouseover" end="arrowRight.mouseout"/>
                  </use>
                  <path fill="none" stroke="white" stroke-width="1.5" d="M0,-3.0v7 M-2.5,-0.5L0,-3.0L2.5,-0.5"/>
                </g>
                <g id="arrowDown" xlink:href="#dirArrow" transform="rotate(180) translate(-30 -48)" onmousedown="handlePan(0,1)">
                  <use xlink:href="#rim" fill="#404040">
                        <set attributeName="fill" to="#808080" begin="arrowDown.mouseover" end="arrowDown.mouseout"/>
                  </use>
                  <path fill="none" stroke="white" stroke-width="1.5" d="M0,-3.0v7 M-2.5,-0.5L0,-3.0L2.5,-0.5"/>
                </g>
                <g id="arrowLeft" xlink:href="#dirArrow" transform="rotate(270) translate(-36 17)" onmousedown="handlePan(-1,0)">
                  <use xlink:href="#rim" fill="#404040">
                        <set attributeName="fill" to="#808080" begin="arrowLeft.mouseover" end="arrowLeft.mouseout"/>
                  </use>
                  <path fill="none" stroke="white" stroke-width="1.5" d="M0,-3.0v7 M-2.5,-0.5L0,-3.0L2.5,-0.5"/>
                </g>
        </g>
        <svg viewBox="0 0 15 15" width="100%" height="30px" preserveAspectRatio="xMaxYMin meet">
         <g id="arrow_out" transform="scale(0.3 0.3)">
          <a xlink:href="v2_2madc_8h__incl_org.svg" target="_base">
           <rect id="button" ry="5" rx="5" y="6" x="6" height="38" width="38"
                fill="#f2f5e9" fill-opacity="0.5" stroke="#606060" stroke-width="1.0"/>
           <path id="arrow"
             d="M 11.500037,31.436501 C 11.940474,20.09759 22.043105,11.32322 32.158766,21.979434 L 37.068811,17.246167 C 37.068811,17.246167 37.088388,32 37.088388,32 L 22.160133,31.978069 C 22.160133,31.978069 26.997745,27.140456 26.997745,27.140456 C 18.528582,18.264221 13.291696,25.230495 11.500037,31.436501 z"
             style="fill:#404040;"/>
          </a>
         </g>
        </svg>
</svg>
