<?xml version="1.0" encoding="UTF-8" standalone="no"?>
<!DOCTYPE svg PUBLIC "-//W3C//DTD SVG 1.1//EN"
 "http://www.w3.org/Graphics/SVG/1.1/DTD/svg11.dtd">
<!-- Generated by graphviz version 2.43.0 (0)
 -->
<!-- Title: /jenkins/jenlib_workspaces_f9/bld_nightly&#45;haldls.YmxkX25pZ2h0bHktaGFsZGxzIzQ5Nw.x/haldls/include/haldls/v2/genpybind.h Pages: 1 -->
<!--zoomable 437 -->
<svg id="main" version="1.1" xmlns="http://www.w3.org/2000/svg" xmlns:xlink="http://www.w3.org/1999/xlink" xml:space="preserve" onload="init(evt)">
<style type="text/css"><![CDATA[
.edge:hover path { stroke: red; }
.edge:hover polygon { stroke: red; fill: red; }
]]></style>
<script type="text/javascript"><![CDATA[
var edges = document.getElementsByTagName('g');
if (edges && edges.length) {
  for (var i=0;i<edges.length;i++) {
    if (edges[i].id.substr(0,4)=='edge') {
      edges[i].setAttribute('class','edge');
    }
  }
}
]]></script>
        <defs>
                <circle id="rim" cx="0" cy="0" r="7"/>
                <circle id="rim2" cx="0" cy="0" r="3.5"/>
                <g id="zoomPlus">
                        <use xlink:href="#rim" fill="#404040">
                                <set attributeName="fill" to="#808080" begin="zoomplus.mouseover" end="zoomplus.mouseout"/>
                        </use>
                        <path d="M-4,0h8M0,-4v8" fill="none" stroke="white" stroke-width="1.5" pointer-events="none"/>
                </g>
                <g id="zoomMin">
                        <use xlink:href="#rim" fill="#404040">
                                <set attributeName="fill" to="#808080" begin="zoomminus.mouseover" end="zoomminus.mouseout"/>
                        </use>
                        <path d="M-4,0h8" fill="none" stroke="white" stroke-width="1.5" pointer-events="none"/>
                </g>
                <g id="dirArrow">
                        <path fill="none" stroke="white" stroke-width="1.5" d="M0,-3.0v7 M-2.5,-0.5L0,-3.0L2.5,-0.5"/>
                </g>
               <g id="resetDef">
                       <use xlink:href="#rim2" fill="#404040">
                               <set attributeName="fill" to="#808080" begin="reset.mouseover" end="reset.mouseout"/>
                       </use>
               </g>
        </defs>

<script type="text/javascript">
var viewWidth = 1910;
var viewHeight = 437;
var sectionId = 'dynsection-1';
</script>
<script xlink:href="svgpan.js"/>
<svg id="graph" class="graph">
<g id="viewport">
<title>/jenkins/jenlib_workspaces_f9/bld_nightly&#45;haldls.YmxkX25pZ2h0bHktaGFsZGxzIzQ5Nw.x/haldls/include/haldls/v2/genpybind.h</title>
<polygon fill="white" stroke="transparent" points="-4,4 -4,-433 1905.91,-433 1905.91,4 -4,4"/>
<!-- Node1 -->
<g id="node1" class="node">
<title>Node1</title>
<g id="a_node1"><a xlink:title=" ">
<polygon fill="#bfbfbf" stroke="black" points="635,-372.5 635,-428.5 814.91,-428.5 814.91,-372.5 635,-372.5"/>
<text text-anchor="start" x="643" y="-415.5" font-family="Helvetica,sans-Serif" font-size="10.00">/jenkins/jenlib_workspaces</text>
<text text-anchor="start" x="643" y="-403.5" font-family="Helvetica,sans-Serif" font-size="10.00">_f9/bld_nightly&#45;haldls.YmxkX25p</text>
<text text-anchor="start" x="643" y="-391.5" font-family="Helvetica,sans-Serif" font-size="10.00">Z2h0bHktaGFsZGxzIzQ5Nw.x/haldls</text>
<text text-anchor="middle" x="724.95" y="-379.5" font-family="Helvetica,sans-Serif" font-size="10.00">/include/haldls/v2/genpybind.h</text>
</a>
</g>
</g>
<!-- Node1&#45;&gt;Node1 -->
<g id="edge5" class="edge">
<title>Node1&#45;&gt;Node1</title>
<path fill="none" stroke="midnightblue" d="M824.76,-411.75C829.88,-408.97 832.91,-405.22 832.91,-400.5 832.91,-393.31 825.88,-388.37 815.12,-385.68"/>
<polygon fill="midnightblue" stroke="midnightblue" points="823.27,-408.57 815.12,-415.32 825.71,-415.13 823.27,-408.57"/>
</g>
<!-- Node2 -->
<g id="node2" class="node">
<title>Node2</title>
<g id="a_node2"><a xlink:href="dac_8h.html" target="_top" xlink:title=" ">
<polygon fill="white" stroke="black" points="0,-186.5 0,-242.5 179.91,-242.5 179.91,-186.5 0,-186.5"/>
<text text-anchor="start" x="8" y="-229.5" font-family="Helvetica,sans-Serif" font-size="10.00">/jenkins/jenlib_workspaces</text>
<text text-anchor="start" x="8" y="-217.5" font-family="Helvetica,sans-Serif" font-size="10.00">_f9/bld_nightly&#45;haldls.YmxkX25p</text>
<text text-anchor="start" x="8" y="-205.5" font-family="Helvetica,sans-Serif" font-size="10.00">Z2h0bHktaGFsZGxzIzQ5Nw.x/haldls</text>
<text text-anchor="middle" x="89.95" y="-193.5" font-family="Helvetica,sans-Serif" font-size="10.00">/include/haldls/v2/dac.h</text>
</a>
</g>
</g>
<!-- Node1&#45;&gt;Node2 -->
<g id="edge1" class="edge">
<title>Node1&#45;&gt;Node2</title>
<path fill="none" stroke="midnightblue" d="M624.67,-396.09C491.98,-390.13 266.4,-374.54 193.95,-336 153.94,-314.72 122.51,-271.25 105.09,-242.76"/>
<polygon fill="midnightblue" stroke="midnightblue" points="624.7,-399.6 634.84,-396.54 625.01,-392.6 624.7,-399.6"/>
</g>
<!-- Node3 -->
<g id="node3" class="node">
<title>Node3</title>
<g id="a_node3"><a xlink:href="board_8h.html" target="_top" xlink:title=" ">
<polygon fill="white" stroke="black" points="236,-93.5 236,-149.5 415.91,-149.5 415.91,-93.5 236,-93.5"/>
<text text-anchor="start" x="244" y="-136.5" font-family="Helvetica,sans-Serif" font-size="10.00">/jenkins/jenlib_workspaces</text>
<text text-anchor="start" x="244" y="-124.5" font-family="Helvetica,sans-Serif" font-size="10.00">_f9/bld_nightly&#45;haldls.YmxkX25p</text>
<text text-anchor="start" x="244" y="-112.5" font-family="Helvetica,sans-Serif" font-size="10.00">Z2h0bHktaGFsZGxzIzQ5Nw.x/haldls</text>
<text text-anchor="middle" x="325.95" y="-100.5" font-family="Helvetica,sans-Serif" font-size="10.00">/include/haldls/v2/board.h</text>
</a>
</g>
</g>
<!-- Node1&#45;&gt;Node3 -->
<g id="edge19" class="edge">
<title>Node1&#45;&gt;Node3</title>
<path fill="none" stroke="midnightblue" d="M624.51,-397.69C543.54,-392.85 428.5,-378.21 336.95,-336 261.88,-301.38 187.3,-258.54 226.95,-186 235.18,-170.95 248.67,-158.94 263.08,-149.59"/>
<polygon fill="midnightblue" stroke="midnightblue" points="624.53,-401.19 634.71,-398.25 624.92,-394.2 624.53,-401.19"/>
</g>
<!-- Node4 -->
<g id="node4" class="node">
<title>Node4</title>
<g id="a_node4"><a xlink:href="v2_2container_8h.html" target="_top" xlink:title=" ">
<polygon fill="white" stroke="black" points="784,-0.5 784,-56.5 963.91,-56.5 963.91,-0.5 784,-0.5"/>
<text text-anchor="start" x="792" y="-43.5" font-family="Helvetica,sans-Serif" font-size="10.00">/jenkins/jenlib_workspaces</text>
<text text-anchor="start" x="792" y="-31.5" font-family="Helvetica,sans-Serif" font-size="10.00">_f9/bld_nightly&#45;haldls.YmxkX25p</text>
<text text-anchor="start" x="792" y="-19.5" font-family="Helvetica,sans-Serif" font-size="10.00">Z2h0bHktaGFsZGxzIzQ5Nw.x/haldls</text>
<text text-anchor="middle" x="873.95" y="-7.5" font-family="Helvetica,sans-Serif" font-size="10.00">/include/haldls/v2/container.h</text>
</a>
</g>
</g>
<!-- Node1&#45;&gt;Node4 -->
<g id="edge39" class="edge">
<title>Node1&#45;&gt;Node4</title>
<path fill="none" stroke="midnightblue" d="M624.46,-392.74C543.06,-384.92 437.67,-368.67 410.95,-336 394.91,-316.39 402.68,-302.94 410.95,-279 428.12,-229.34 512.2,-120.53 556.95,-93 625.56,-50.8 716.85,-35.96 783.85,-31.06"/>
<polygon fill="midnightblue" stroke="midnightblue" points="624.48,-396.25 634.76,-393.69 625.13,-389.28 624.48,-396.25"/>
</g>
<!-- Node5 -->
<g id="node5" class="node">
<title>Node5</title>
<g id="a_node5"><a xlink:href="v2_2fpga_8h.html" target="_top" xlink:title=" ">
<polygon fill="white" stroke="black" points="236,-186.5 236,-242.5 415.91,-242.5 415.91,-186.5 236,-186.5"/>
<text text-anchor="start" x="244" y="-229.5" font-family="Helvetica,sans-Serif" font-size="10.00">/jenkins/jenlib_workspaces</text>
<text text-anchor="start" x="244" y="-217.5" font-family="Helvetica,sans-Serif" font-size="10.00">_f9/bld_nightly&#45;haldls.YmxkX25p</text>
<text text-anchor="start" x="244" y="-205.5" font-family="Helvetica,sans-Serif" font-size="10.00">Z2h0bHktaGFsZGxzIzQ5Nw.x/haldls</text>
<text text-anchor="middle" x="325.95" y="-193.5" font-family="Helvetica,sans-Serif" font-size="10.00">/include/haldls/v2/fpga.h</text>
</a>
</g>
</g>
<!-- Node1&#45;&gt;Node5 -->
<g id="edge6" class="edge">
<title>Node1&#45;&gt;Node5</title>
<path fill="none" stroke="midnightblue" d="M624.56,-391.62C535.99,-382.82 415.33,-365.74 377.95,-336 348.98,-312.94 335.84,-270.61 330.1,-242.75"/>
<polygon fill="midnightblue" stroke="midnightblue" points="624.36,-395.11 634.66,-392.6 625.04,-388.15 624.36,-395.11"/>
</g>
<!-- Node6 -->
<g id="node6" class="node">
<title>Node6</title>
<g id="a_node6"><a xlink:href="v2_2synapse_8h.html" target="_top" xlink:title=" ">
<polygon fill="white" stroke="black" points="420,-279.5 420,-335.5 599.91,-335.5 599.91,-279.5 420,-279.5"/>
<text text-anchor="start" x="428" y="-322.5" font-family="Helvetica,sans-Serif" font-size="10.00">/jenkins/jenlib_workspaces</text>
<text text-anchor="start" x="428" y="-310.5" font-family="Helvetica,sans-Serif" font-size="10.00">_f9/bld_nightly&#45;haldls.YmxkX25p</text>
<text text-anchor="start" x="428" y="-298.5" font-family="Helvetica,sans-Serif" font-size="10.00">Z2h0bHktaGFsZGxzIzQ5Nw.x/haldls</text>
<text text-anchor="middle" x="509.95" y="-286.5" font-family="Helvetica,sans-Serif" font-size="10.00">/include/haldls/v2/synapse.h</text>
</a>
</g>
</g>
<!-- Node1&#45;&gt;Node6 -->
<g id="edge8" class="edge">
<title>Node1&#45;&gt;Node6</title>
<path fill="none" stroke="midnightblue" d="M651.53,-368.42C626.35,-357.76 598.38,-345.93 574,-335.61"/>
<polygon fill="midnightblue" stroke="midnightblue" points="650.45,-371.77 661.03,-372.44 653.18,-365.32 650.45,-371.77"/>
</g>
<!-- Node7 -->
<g id="node7" class="node">
<title>Node7</title>
<g id="a_node7"><a xlink:href="chip_8h.html" target="_top" xlink:title=" ">
<polygon fill="white" stroke="black" points="968,-186.5 968,-242.5 1147.91,-242.5 1147.91,-186.5 968,-186.5"/>
<text text-anchor="start" x="976" y="-229.5" font-family="Helvetica,sans-Serif" font-size="10.00">/jenkins/jenlib_workspaces</text>
<text text-anchor="start" x="976" y="-217.5" font-family="Helvetica,sans-Serif" font-size="10.00">_f9/bld_nightly&#45;haldls.YmxkX25p</text>
<text text-anchor="start" x="976" y="-205.5" font-family="Helvetica,sans-Serif" font-size="10.00">Z2h0bHktaGFsZGxzIzQ5Nw.x/haldls</text>
<text text-anchor="middle" x="1057.95" y="-193.5" font-family="Helvetica,sans-Serif" font-size="10.00">/include/haldls/v2/chip.h</text>
</a>
</g>
</g>
<!-- Node1&#45;&gt;Node7 -->
<g id="edge26" class="edge">
<title>Node1&#45;&gt;Node7</title>
<path fill="none" stroke="midnightblue" d="M825.4,-395.56C919.01,-389.53 1048.87,-374.31 1080.95,-336 1102.83,-309.87 1088.38,-269.34 1074.46,-242.61"/>
<polygon fill="midnightblue" stroke="midnightblue" points="825.08,-392.08 815.32,-396.19 825.51,-399.06 825.08,-392.08"/>
</g>
<!-- Node8 -->
<g id="node8" class="node">
<title>Node8</title>
<g id="a_node8"><a xlink:href="playback_8h.html" target="_top" xlink:title=" ">
<polygon fill="white" stroke="black" points="666,-93.5 666,-149.5 845.91,-149.5 845.91,-93.5 666,-93.5"/>
<text text-anchor="start" x="674" y="-136.5" font-family="Helvetica,sans-Serif" font-size="10.00">/jenkins/jenlib_workspaces</text>
<text text-anchor="start" x="674" y="-124.5" font-family="Helvetica,sans-Serif" font-size="10.00">_f9/bld_nightly&#45;haldls.YmxkX25p</text>
<text text-anchor="start" x="674" y="-112.5" font-family="Helvetica,sans-Serif" font-size="10.00">Z2h0bHktaGFsZGxzIzQ5Nw.x/haldls</text>
<text text-anchor="middle" x="755.95" y="-100.5" font-family="Helvetica,sans-Serif" font-size="10.00">/include/haldls/v2/playback.h</text>
</a>
</g>
</g>
<!-- Node1&#45;&gt;Node8 -->
<g id="edge40" class="edge">
<title>Node1&#45;&gt;Node8</title>
<path fill="none" stroke="midnightblue" d="M698.31,-363.5C683.57,-338.88 670.83,-305.95 684.95,-279 698,-254.1 722,-266.8 736.95,-243 754.64,-214.84 757.78,-175.9 757.56,-149.99"/>
<polygon fill="midnightblue" stroke="midnightblue" points="695.48,-365.58 703.78,-372.16 701.4,-361.84 695.48,-365.58"/>
</g>
<!-- Node9 -->
<g id="node9" class="node">
<title>Node9</title>
<g id="a_node9"><a xlink:href="spike_8h.html" target="_top" xlink:title=" ">
<polygon fill="white" stroke="black" points="548,-186.5 548,-242.5 727.91,-242.5 727.91,-186.5 548,-186.5"/>
<text text-anchor="start" x="556" y="-229.5" font-family="Helvetica,sans-Serif" font-size="10.00">/jenkins/jenlib_workspaces</text>
<text text-anchor="start" x="556" y="-217.5" font-family="Helvetica,sans-Serif" font-size="10.00">_f9/bld_nightly&#45;haldls.YmxkX25p</text>
<text text-anchor="start" x="556" y="-205.5" font-family="Helvetica,sans-Serif" font-size="10.00">Z2h0bHktaGFsZGxzIzQ5Nw.x/haldls</text>
<text text-anchor="middle" x="637.95" y="-193.5" font-family="Helvetica,sans-Serif" font-size="10.00">/include/haldls/v2/spike.h</text>
</a>
</g>
</g>
<!-- Node1&#45;&gt;Node9 -->
<g id="edge41" class="edge">
<title>Node1&#45;&gt;Node9</title>
<path fill="none" stroke="midnightblue" d="M675.88,-365.86C666.52,-357.2 657.83,-347.14 651.95,-336 636.53,-306.75 634.76,-268.06 635.7,-242.5"/>
<polygon fill="midnightblue" stroke="midnightblue" points="673.65,-368.55 683.48,-372.49 678.25,-363.28 673.65,-368.55"/>
</g>
<!-- Node10 -->
<g id="node10" class="node">
<title>Node10</title>
<g id="a_node10"><a xlink:href="v2_2capmem_8h.html" target="_top" xlink:title=" ">
<polygon fill="white" stroke="black" points="694,-279.5 694,-335.5 873.91,-335.5 873.91,-279.5 694,-279.5"/>
<text text-anchor="start" x="702" y="-322.5" font-family="Helvetica,sans-Serif" font-size="10.00">/jenkins/jenlib_workspaces</text>
<text text-anchor="start" x="702" y="-310.5" font-family="Helvetica,sans-Serif" font-size="10.00">_f9/bld_nightly&#45;haldls.YmxkX25p</text>
<text text-anchor="start" x="702" y="-298.5" font-family="Helvetica,sans-Serif" font-size="10.00">Z2h0bHktaGFsZGxzIzQ5Nw.x/haldls</text>
<text text-anchor="middle" x="783.95" y="-286.5" font-family="Helvetica,sans-Serif" font-size="10.00">/include/haldls/v2/capmem.h</text>
</a>
</g>
</g>
<!-- Node1&#45;&gt;Node10 -->
<g id="edge20" class="edge">
<title>Node1&#45;&gt;Node10</title>
<path fill="none" stroke="midnightblue" d="M748.26,-363.55C754.25,-354.31 760.61,-344.51 766.26,-335.78"/>
<polygon fill="midnightblue" stroke="midnightblue" points="745.16,-361.9 742.65,-372.2 751.03,-365.71 745.16,-361.9"/>
</g>
<!-- Node11 -->
<g id="node11" class="node">
<title>Node11</title>
<g id="a_node11"><a xlink:href="v2_2correlation_8h.html" target="_top" xlink:title=" ">
<polygon fill="white" stroke="black" points="892,-279.5 892,-335.5 1071.91,-335.5 1071.91,-279.5 892,-279.5"/>
<text text-anchor="start" x="900" y="-322.5" font-family="Helvetica,sans-Serif" font-size="10.00">/jenkins/jenlib_workspaces</text>
<text text-anchor="start" x="900" y="-310.5" font-family="Helvetica,sans-Serif" font-size="10.00">_f9/bld_nightly&#45;haldls.YmxkX25p</text>
<text text-anchor="start" x="900" y="-298.5" font-family="Helvetica,sans-Serif" font-size="10.00">Z2h0bHktaGFsZGxzIzQ5Nw.x/haldls</text>
<text text-anchor="middle" x="981.95" y="-286.5" font-family="Helvetica,sans-Serif" font-size="10.00">/include/haldls/v2/correlation.h</text>
</a>
</g>
</g>
<!-- Node1&#45;&gt;Node11 -->
<g id="edge23" class="edge">
<title>Node1&#45;&gt;Node11</title>
<path fill="none" stroke="midnightblue" d="M811.14,-368.98C841.64,-358.18 875.74,-346.11 905.39,-335.61"/>
<polygon fill="midnightblue" stroke="midnightblue" points="809.62,-365.81 801.37,-372.44 811.96,-372.4 809.62,-365.81"/>
</g>
<!-- Node12 -->
<g id="node12" class="node">
<title>Node12</title>
<g id="a_node12"><a xlink:href="v2_2neuron_8h.html" target="_top" xlink:title=" ">
<polygon fill="white" stroke="black" points="1128,-279.5 1128,-335.5 1307.91,-335.5 1307.91,-279.5 1128,-279.5"/>
<text text-anchor="start" x="1136" y="-322.5" font-family="Helvetica,sans-Serif" font-size="10.00">/jenkins/jenlib_workspaces</text>
<text text-anchor="start" x="1136" y="-310.5" font-family="Helvetica,sans-Serif" font-size="10.00">_f9/bld_nightly&#45;haldls.YmxkX25p</text>
<text text-anchor="start" x="1136" y="-298.5" font-family="Helvetica,sans-Serif" font-size="10.00">Z2h0bHktaGFsZGxzIzQ5Nw.x/haldls</text>
<text text-anchor="middle" x="1217.95" y="-286.5" font-family="Helvetica,sans-Serif" font-size="10.00">/include/haldls/v2/neuron.h</text>
</a>
</g>
</g>
<!-- Node1&#45;&gt;Node12 -->
<g id="edge27" class="edge">
<title>Node1&#45;&gt;Node12</title>
<path fill="none" stroke="midnightblue" d="M824.96,-385.89C903.82,-374.51 1016.4,-356.81 1113.95,-336 1118.52,-335.03 1123.19,-333.98 1127.89,-332.89"/>
<polygon fill="midnightblue" stroke="midnightblue" points="824.43,-382.43 815.03,-387.32 825.42,-389.36 824.43,-382.43"/>
</g>
<!-- Node13 -->
<g id="node13" class="node">
<title>Node13</title>
<g id="a_node13"><a xlink:href="v2_2ppu_8h.html" target="_top" xlink:title=" ">
<polygon fill="white" stroke="black" points="1326,-279.5 1326,-335.5 1505.91,-335.5 1505.91,-279.5 1326,-279.5"/>
<text text-anchor="start" x="1334" y="-322.5" font-family="Helvetica,sans-Serif" font-size="10.00">/jenkins/jenlib_workspaces</text>
<text text-anchor="start" x="1334" y="-310.5" font-family="Helvetica,sans-Serif" font-size="10.00">_f9/bld_nightly&#45;haldls.YmxkX25p</text>
<text text-anchor="start" x="1334" y="-298.5" font-family="Helvetica,sans-Serif" font-size="10.00">Z2h0bHktaGFsZGxzIzQ5Nw.x/haldls</text>
<text text-anchor="middle" x="1415.95" y="-286.5" font-family="Helvetica,sans-Serif" font-size="10.00">/include/haldls/v2/ppu.h</text>
</a>
</g>
</g>
<!-- Node1&#45;&gt;Node13 -->
<g id="edge30" class="edge">
<title>Node1&#45;&gt;Node13</title>
<path fill="none" stroke="midnightblue" d="M825.27,-393.77C943.62,-385.86 1145.91,-368.7 1316.95,-336 1319.93,-335.43 1322.95,-334.82 1325.99,-334.16"/>
<polygon fill="midnightblue" stroke="midnightblue" points="824.89,-390.29 815.14,-394.44 825.35,-397.28 824.89,-390.29"/>
</g>
<!-- Node14 -->
<g id="node14" class="node">
<title>Node14</title>
<g id="a_node14"><a xlink:href="rate__counter_8h.html" target="_top" xlink:title=" ">
<polygon fill="white" stroke="black" points="1524,-279.5 1524,-335.5 1703.91,-335.5 1703.91,-279.5 1524,-279.5"/>
<text text-anchor="start" x="1532" y="-322.5" font-family="Helvetica,sans-Serif" font-size="10.00">/jenkins/jenlib_workspaces</text>
<text text-anchor="start" x="1532" y="-310.5" font-family="Helvetica,sans-Serif" font-size="10.00">_f9/bld_nightly&#45;haldls.YmxkX25p</text>
<text text-anchor="start" x="1532" y="-298.5" font-family="Helvetica,sans-Serif" font-size="10.00">Z2h0bHktaGFsZGxzIzQ5Nw.x/haldls</text>
<text text-anchor="middle" x="1613.95" y="-286.5" font-family="Helvetica,sans-Serif" font-size="10.00">/include/haldls/v2/rate_counter.h</text>
</a>
</g>
</g>
<!-- Node1&#45;&gt;Node14 -->
<g id="edge33" class="edge">
<title>Node1&#45;&gt;Node14</title>
<path fill="none" stroke="midnightblue" d="M825.28,-397.55C976.07,-393.25 1269.61,-379.52 1514.95,-336 1517.85,-335.49 1520.79,-334.92 1523.74,-334.32"/>
<polygon fill="midnightblue" stroke="midnightblue" points="825.01,-394.06 815.11,-397.83 825.2,-401.05 825.01,-394.06"/>
</g>
<!-- Node15 -->
<g id="node15" class="node">
<title>Node15</title>
<g id="a_node15"><a xlink:href="synapsedriver_8h.html" target="_top" xlink:title=" ">
<polygon fill="white" stroke="black" points="1722,-279.5 1722,-335.5 1901.91,-335.5 1901.91,-279.5 1722,-279.5"/>
<text text-anchor="start" x="1730" y="-322.5" font-family="Helvetica,sans-Serif" font-size="10.00">/jenkins/jenlib_workspaces</text>
<text text-anchor="start" x="1730" y="-310.5" font-family="Helvetica,sans-Serif" font-size="10.00">_f9/bld_nightly&#45;haldls.YmxkX25p</text>
<text text-anchor="start" x="1730" y="-298.5" font-family="Helvetica,sans-Serif" font-size="10.00">Z2h0bHktaGFsZGxzIzQ5Nw.x/haldls</text>
<text text-anchor="middle" x="1811.95" y="-286.5" font-family="Helvetica,sans-Serif" font-size="10.00">/include/haldls/v2/synapsedriver.h</text>
</a>
</g>
</g>
<!-- Node1&#45;&gt;Node15 -->
<g id="edge36" class="edge">
<title>Node1&#45;&gt;Node15</title>
<path fill="none" stroke="midnightblue" d="M825.46,-399.87C1004.95,-399.01 1391.89,-390.31 1712.95,-336 1715.86,-335.51 1718.79,-334.97 1721.75,-334.38"/>
<polygon fill="midnightblue" stroke="midnightblue" points="825.23,-396.37 815.24,-399.91 825.26,-403.37 825.23,-396.37"/>
</g>
<!-- Node2&#45;&gt;Node3 -->
<g id="edge2" class="edge">
<title>Node2&#45;&gt;Node3</title>
<path fill="none" stroke="midnightblue" d="M169.46,-182.84C197.38,-172.08 228.53,-160.06 255.65,-149.61"/>
<polygon fill="midnightblue" stroke="midnightblue" points="168.19,-179.58 160.12,-186.44 170.71,-186.11 168.19,-179.58"/>
</g>
<!-- Node2&#45;&gt;Node4 -->
<g id="edge4" class="edge">
<title>Node2&#45;&gt;Node4</title>
<path fill="none" stroke="midnightblue" d="M118.37,-178.57C143.63,-150.23 183.26,-111.97 226.95,-93 324.72,-50.55 630.41,-36.17 784,-31.55"/>
<polygon fill="midnightblue" stroke="midnightblue" points="115.58,-176.44 111.63,-186.28 120.85,-181.05 115.58,-176.44"/>
</g>
<!-- Node3&#45;&gt;Node4 -->
<g id="edge3" class="edge">
<title>Node3&#45;&gt;Node4</title>
<path fill="none" stroke="midnightblue" d="M426.07,-93.8C427.37,-93.53 428.67,-93.26 429.95,-93 551.48,-68.33 693.62,-49.78 783.71,-39.28"/>
<polygon fill="midnightblue" stroke="midnightblue" points="425.02,-90.45 415.99,-96 426.51,-97.29 425.02,-90.45"/>
</g>
<!-- Node5&#45;&gt;Node3 -->
<g id="edge7" class="edge">
<title>Node5&#45;&gt;Node3</title>
<path fill="none" stroke="midnightblue" d="M325.95,-176.12C325.95,-167.3 325.95,-158.06 325.95,-149.78"/>
<polygon fill="midnightblue" stroke="midnightblue" points="322.45,-176.2 325.95,-186.2 329.45,-176.2 322.45,-176.2"/>
</g>
<!-- Node6&#45;&gt;Node3 -->
<g id="edge10" class="edge">
<title>Node6&#45;&gt;Node3</title>
<path fill="none" stroke="midnightblue" d="M489.81,-270.69C474.28,-245.14 451.1,-211.02 424.95,-186 410.57,-172.24 392.78,-159.74 376.27,-149.55"/>
<polygon fill="midnightblue" stroke="midnightblue" points="486.84,-272.55 494.97,-279.34 492.85,-268.96 486.84,-272.55"/>
</g>
<!-- Node6&#45;&gt;Node4 -->
<g id="edge18" class="edge">
<title>Node6&#45;&gt;Node4</title>
<path fill="none" stroke="midnightblue" d="M513.67,-269.02C517.37,-244.22 524.66,-211.66 538.95,-186 567.24,-135.2 580.59,-122.05 630.95,-93 677.69,-66.04 736.03,-50.3 783.83,-41.24"/>
<polygon fill="midnightblue" stroke="midnightblue" points="510.17,-268.75 512.3,-279.13 517.11,-269.69 510.17,-268.75"/>
</g>
<!-- Node6&#45;&gt;Node5 -->
<g id="edge9" class="edge">
<title>Node6&#45;&gt;Node5</title>
<path fill="none" stroke="midnightblue" d="M446.26,-275C424.93,-264.45 401.36,-252.79 380.77,-242.61"/>
<polygon fill="midnightblue" stroke="midnightblue" points="444.73,-278.15 455.25,-279.44 447.83,-271.87 444.73,-278.15"/>
</g>
<!-- Node6&#45;&gt;Node7 -->
<g id="edge11" class="edge">
<title>Node6&#45;&gt;Node7</title>
<path fill="none" stroke="midnightblue" d="M610.15,-289.86C712.29,-272.9 869.29,-246.83 967.68,-230.49"/>
<polygon fill="midnightblue" stroke="midnightblue" points="609.43,-286.43 600.14,-291.52 610.58,-293.34 609.43,-286.43"/>
</g>
<!-- Node6&#45;&gt;Node9 -->
<g id="edge15" class="edge">
<title>Node6&#45;&gt;Node9</title>
<path fill="none" stroke="midnightblue" d="M556.26,-273.58C570.56,-263.41 586.14,-252.34 599.82,-242.61"/>
<polygon fill="midnightblue" stroke="midnightblue" points="554.13,-270.8 548.01,-279.44 558.19,-276.5 554.13,-270.8"/>
</g>
<!-- Node7&#45;&gt;Node4 -->
<g id="edge12" class="edge">
<title>Node7&#45;&gt;Node4</title>
<path fill="none" stroke="midnightblue" d="M1025.32,-179.14C1002.06,-154.83 969.9,-121.6 940.95,-93 928.75,-80.95 915.05,-67.88 903.23,-56.75"/>
<polygon fill="midnightblue" stroke="midnightblue" points="1022.81,-181.57 1032.25,-186.39 1027.87,-176.74 1022.81,-181.57"/>
</g>
<!-- Node7&#45;&gt;Node8 -->
<g id="edge13" class="edge">
<title>Node7&#45;&gt;Node8</title>
<path fill="none" stroke="midnightblue" d="M958.52,-183.54C922.11,-172.57 881.16,-160.23 845.66,-149.53"/>
<polygon fill="midnightblue" stroke="midnightblue" points="957.58,-186.91 968.16,-186.44 959.6,-180.21 957.58,-186.91"/>
</g>
<!-- Node8&#45;&gt;Node4 -->
<g id="edge14" class="edge">
<title>Node8&#45;&gt;Node4</title>
<path fill="none" stroke="midnightblue" d="M799.01,-87.29C812.09,-77.21 826.3,-66.25 838.8,-56.61"/>
<polygon fill="midnightblue" stroke="midnightblue" points="796.82,-84.56 791.04,-93.44 801.09,-90.11 796.82,-84.56"/>
</g>
<!-- Node9&#45;&gt;Node4 -->
<g id="edge17" class="edge">
<title>Node9&#45;&gt;Node4</title>
<path fill="none" stroke="midnightblue" d="M634.08,-176.36C633.44,-150.04 637.14,-115.54 656.95,-93 688.58,-57.04 739.34,-40.93 783.82,-33.92"/>
<polygon fill="midnightblue" stroke="midnightblue" points="630.59,-176.53 634.54,-186.36 637.58,-176.21 630.59,-176.53"/>
</g>
<!-- Node9&#45;&gt;Node8 -->
<g id="edge16" class="edge">
<title>Node9&#45;&gt;Node8</title>
<path fill="none" stroke="midnightblue" d="M681.01,-180.29C694.09,-170.21 708.3,-159.25 720.8,-149.61"/>
<polygon fill="midnightblue" stroke="midnightblue" points="678.82,-177.56 673.04,-186.44 683.09,-183.11 678.82,-177.56"/>
</g>
<!-- Node10&#45;&gt;Node4 -->
<g id="edge22" class="edge">
<title>Node10&#45;&gt;Node4</title>
<path fill="none" stroke="midnightblue" d="M803.79,-270.27C819.94,-239.22 842.11,-192.87 854.95,-150 864.32,-118.76 869.29,-81.5 871.77,-56.77"/>
<polygon fill="midnightblue" stroke="midnightblue" points="800.55,-268.91 798.98,-279.39 806.74,-272.17 800.55,-268.91"/>
</g>
<!-- Node10&#45;&gt;Node7 -->
<g id="edge21" class="edge">
<title>Node10&#45;&gt;Node7</title>
<path fill="none" stroke="midnightblue" d="M874.99,-276.26C907.73,-265.39 944.44,-253.2 976.33,-242.61"/>
<polygon fill="midnightblue" stroke="midnightblue" points="873.81,-272.97 865.42,-279.44 876.01,-279.61 873.81,-272.97"/>
</g>
<!-- Node11&#45;&gt;Node4 -->
<g id="edge25" class="edge">
<title>Node11&#45;&gt;Node4</title>
<path fill="none" stroke="midnightblue" d="M967.66,-269.85C945.68,-213.46 904.06,-106.71 884.55,-56.67"/>
<polygon fill="midnightblue" stroke="midnightblue" points="964.51,-271.39 971.4,-279.44 971.03,-268.85 964.51,-271.39"/>
</g>
<!-- Node11&#45;&gt;Node7 -->
<g id="edge24" class="edge">
<title>Node11&#45;&gt;Node7</title>
<path fill="none" stroke="midnightblue" d="M1011.26,-271.41C1019.19,-261.91 1027.65,-251.78 1035.17,-242.78"/>
<polygon fill="midnightblue" stroke="midnightblue" points="1008.48,-269.28 1004.76,-279.2 1013.85,-273.77 1008.48,-269.28"/>
</g>
<!-- Node12&#45;&gt;Node4 -->
<g id="edge29" class="edge">
<title>Node12&#45;&gt;Node4</title>
<path fill="none" stroke="midnightblue" d="M1205.97,-269.8C1196.07,-243.93 1179.9,-209.8 1156.95,-186 1098.5,-125.37 1011.39,-82.06 949.27,-56.59"/>
<polygon fill="midnightblue" stroke="midnightblue" points="1202.72,-271.1 1209.46,-279.27 1209.29,-268.68 1202.72,-271.1"/>
</g>
<!-- Node12&#45;&gt;Node7 -->
<g id="edge28" class="edge">
<title>Node12&#45;&gt;Node7</title>
<path fill="none" stroke="midnightblue" d="M1161.57,-274.43C1143.29,-264.04 1123.2,-252.61 1105.62,-242.61"/>
<polygon fill="midnightblue" stroke="midnightblue" points="1159.96,-277.54 1170.38,-279.44 1163.42,-271.46 1159.96,-277.54"/>
</g>
<!-- Node13&#45;&gt;Node4 -->
<g id="edge32" class="edge">
<title>Node13&#45;&gt;Node4</title>
<path fill="none" stroke="midnightblue" d="M1373.06,-273.02C1312.23,-226.92 1196,-143.82 1085.95,-93 1047.32,-75.16 1002.44,-60.87 963.94,-50.4"/>
<polygon fill="midnightblue" stroke="midnightblue" points="1371.2,-276 1381.27,-279.28 1375.44,-270.43 1371.2,-276"/>
</g>
<!-- Node13&#45;&gt;Node7 -->
<g id="edge31" class="edge">
<title>Node13&#45;&gt;Node7</title>
<path fill="none" stroke="midnightblue" d="M1316,-278.78C1254.59,-262.8 1195.37,-248.27 1148.02,-236.87"/>
<polygon fill="midnightblue" stroke="midnightblue" points="1315.32,-282.21 1325.88,-281.35 1317.08,-275.44 1315.32,-282.21"/>
</g>
<!-- Node14&#45;&gt;Node4 -->
<g id="edge35" class="edge">
<title>Node14&#45;&gt;Node4</title>
<path fill="none" stroke="midnightblue" d="M1555.33,-274.76C1468.83,-229.03 1300.92,-144.49 1149.95,-93 1089.22,-72.29 1018.69,-56.19 964.12,-45.39"/>
<polygon fill="midnightblue" stroke="midnightblue" points="1553.73,-277.87 1564.2,-279.46 1557,-271.69 1553.73,-277.87"/>
</g>
<!-- Node14&#45;&gt;Node7 -->
<g id="edge34" class="edge">
<title>Node14&#45;&gt;Node7</title>
<path fill="none" stroke="midnightblue" d="M1514.05,-278.92C1381.68,-251.96 1238.68,-234.26 1148.31,-224.47"/>
<polygon fill="midnightblue" stroke="midnightblue" points="1513.47,-282.37 1523.97,-280.96 1514.88,-275.51 1513.47,-282.37"/>
</g>
<!-- Node15&#45;&gt;Node4 -->
<g id="edge38" class="edge">
<title>Node15&#45;&gt;Node4</title>
<path fill="none" stroke="midnightblue" d="M1740.38,-275.31C1632.49,-229.39 1420.89,-143.57 1233.95,-93 1143.44,-68.51 1037.49,-51.14 964.07,-40.82"/>
<polygon fill="midnightblue" stroke="midnightblue" points="1739.29,-278.65 1749.86,-279.36 1742.04,-272.21 1739.29,-278.65"/>
</g>
<!-- Node15&#45;&gt;Node7 -->
<g id="edge37" class="edge">
<title>Node15&#45;&gt;Node7</title>
<path fill="none" stroke="midnightblue" d="M1711.63,-278.88C1505.65,-241.37 1273.07,-225.59 1148.17,-219.27"/>
<polygon fill="midnightblue" stroke="midnightblue" points="1711.26,-282.37 1721.73,-280.74 1712.53,-275.49 1711.26,-282.37"/>
</g>
</g>
</svg>
        <g id="navigator" transform="translate(0 0)" fill="#404254">
                <rect fill="#f2f5e9" fill-opacity="0.5" stroke="#606060" stroke-width=".5" x="0" y="0" width="60" height="60"/>
                <use id="zoomplus" xlink:href="#zoomPlus" x="17" y="9" onmousedown="handleZoom(evt,'in')"/>
                <use id="zoomminus" xlink:href="#zoomMin" x="42" y="9" onmousedown="handleZoom(evt,'out')"/>
                <use id="reset" xlink:href="#resetDef" x="30" y="36" onmousedown="handleReset()"/>
                <g id="arrowUp" xlink:href="#dirArrow" transform="translate(30 24)" onmousedown="handlePan(0,-1)">
                  <use xlink:href="#rim" fill="#404040">
                        <set attributeName="fill" to="#808080" begin="arrowUp.mouseover" end="arrowUp.mouseout"/>
                  </use>
                  <path fill="none" stroke="white" stroke-width="1.5" d="M0,-3.0v7 M-2.5,-0.5L0,-3.0L2.5,-0.5"/>
                </g>
                <g id="arrowRight" xlink:href="#dirArrow" transform="rotate(90) translate(36 -43)" onmousedown="handlePan(1,0)">
                  <use xlink:href="#rim" fill="#404040">
                        <set attributeName="fill" to="#808080" begin="arrowRight.mouseover" end="arrowRight.mouseout"/>
                  </use>
                  <path fill="none" stroke="white" stroke-width="1.5" d="M0,-3.0v7 M-2.5,-0.5L0,-3.0L2.5,-0.5"/>
                </g>
                <g id="arrowDown" xlink:href="#dirArrow" transform="rotate(180) translate(-30 -48)" onmousedown="handlePan(0,1)">
                  <use xlink:href="#rim" fill="#404040">
                        <set attributeName="fill" to="#808080" begin="arrowDown.mouseover" end="arrowDown.mouseout"/>
                  </use>
                  <path fill="none" stroke="white" stroke-width="1.5" d="M0,-3.0v7 M-2.5,-0.5L0,-3.0L2.5,-0.5"/>
                </g>
                <g id="arrowLeft" xlink:href="#dirArrow" transform="rotate(270) translate(-36 17)" onmousedown="handlePan(-1,0)">
                  <use xlink:href="#rim" fill="#404040">
                        <set attributeName="fill" to="#808080" begin="arrowLeft.mouseover" end="arrowLeft.mouseout"/>
                  </use>
                  <path fill="none" stroke="white" stroke-width="1.5" d="M0,-3.0v7 M-2.5,-0.5L0,-3.0L2.5,-0.5"/>
                </g>
        </g>
        <svg viewBox="0 0 15 15" width="100%" height="30px" preserveAspectRatio="xMaxYMin meet">
         <g id="arrow_out" transform="scale(0.3 0.3)">
          <a xlink:href="v2_2genpybind_8h__dep__incl_org.svg" target="_base">
           <rect id="button" ry="5" rx="5" y="6" x="6" height="38" width="38"
                fill="#f2f5e9" fill-opacity="0.5" stroke="#606060" stroke-width="1.0"/>
           <path id="arrow"
             d="M 11.500037,31.436501 C 11.940474,20.09759 22.043105,11.32322 32.158766,21.979434 L 37.068811,17.246167 C 37.068811,17.246167 37.088388,32 37.088388,32 L 22.160133,31.978069 C 22.160133,31.978069 26.997745,27.140456 26.997745,27.140456 C 18.528582,18.264221 13.291696,25.230495 11.500037,31.436501 z"
             style="fill:#404040;"/>
          </a>
         </g>
        </svg>
</svg>
