<?xml version="1.0" encoding="UTF-8" standalone="no"?>
<!DOCTYPE svg PUBLIC "-//W3C//DTD SVG 1.1//EN"
 "http://www.w3.org/Graphics/SVG/1.1/DTD/svg11.dtd">
<!-- Generated by graphviz version 2.43.0 (0)
 -->
<!-- Title: /jenkins/jenlib_workspaces_f9/bld_nightly&#45;haldls.YmxkX25pZ2h0bHktaGFsZGxzIzcxMQ.x/haldls/include/haldls/vx/v2/neuron.h Pages: 1 -->
<!--zoomable 329 -->
<svg id="main" version="1.1" xmlns="http://www.w3.org/2000/svg" xmlns:xlink="http://www.w3.org/1999/xlink" xml:space="preserve" onload="init(evt)">
<style type="text/css"><![CDATA[
.edge:hover path { stroke: red; }
.edge:hover polygon { stroke: red; fill: red; }
]]></style>
<script type="text/javascript"><![CDATA[
var edges = document.getElementsByTagName('g');
if (edges && edges.length) {
  for (var i=0;i<edges.length;i++) {
    if (edges[i].id.substr(0,4)=='edge') {
      edges[i].setAttribute('class','edge');
    }
  }
}
]]></script>
        <defs>
                <circle id="rim" cx="0" cy="0" r="7"/>
                <circle id="rim2" cx="0" cy="0" r="3.5"/>
                <g id="zoomPlus">
                        <use xlink:href="#rim" fill="#404040">
                                <set attributeName="fill" to="#808080" begin="zoomplus.mouseover" end="zoomplus.mouseout"/>
                        </use>
                        <path d="M-4,0h8M0,-4v8" fill="none" stroke="white" stroke-width="1.5" pointer-events="none"/>
                </g>
                <g id="zoomMin">
                        <use xlink:href="#rim" fill="#404040">
                                <set attributeName="fill" to="#808080" begin="zoomminus.mouseover" end="zoomminus.mouseout"/>
                        </use>
                        <path d="M-4,0h8" fill="none" stroke="white" stroke-width="1.5" pointer-events="none"/>
                </g>
                <g id="dirArrow">
                        <path fill="none" stroke="white" stroke-width="1.5" d="M0,-3.0v7 M-2.5,-0.5L0,-3.0L2.5,-0.5"/>
                </g>
               <g id="resetDef">
                       <use xlink:href="#rim2" fill="#404040">
                               <set attributeName="fill" to="#808080" begin="reset.mouseover" end="reset.mouseout"/>
                       </use>
               </g>
        </defs>

<script type="text/javascript">
var viewWidth = 1534;
var viewHeight = 329;
var sectionId = 'dynsection-0';
</script>
<script xlink:href="svgpan.js"/>
<svg id="graph" class="graph">
<g id="viewport">
<title>/jenkins/jenlib_workspaces_f9/bld_nightly&#45;haldls.YmxkX25pZ2h0bHktaGFsZGxzIzcxMQ.x/haldls/include/haldls/vx/v2/neuron.h</title>
<polygon fill="white" stroke="transparent" points="-4,4 -4,-325 1530.46,-325 1530.46,4 -4,4"/>
<!-- Node0 -->
<g id="node1" class="node">
<title>Node0</title>
<g id="a_node1"><a xlink:title=" ">
<polygon fill="#bfbfbf" stroke="black" points="159.39,-264.5 159.39,-320.5 337.63,-320.5 337.63,-264.5 159.39,-264.5"/>
<text text-anchor="start" x="167.39" y="-307.5" font-family="Helvetica,sans-Serif" font-size="10.00">/jenkins/jenlib_workspaces</text>
<text text-anchor="start" x="167.39" y="-295.5" font-family="Helvetica,sans-Serif" font-size="10.00">_f9/bld_nightly&#45;haldls.YmxkX25p</text>
<text text-anchor="start" x="167.39" y="-283.5" font-family="Helvetica,sans-Serif" font-size="10.00">Z2h0bHktaGFsZGxzIzcxMQ.x/haldls</text>
<text text-anchor="middle" x="248.51" y="-271.5" font-family="Helvetica,sans-Serif" font-size="10.00">/include/haldls/vx/v2/neuron.h</text>
</a>
</g>
</g>
<!-- Node1 -->
<g id="node2" class="node">
<title>Node1</title>
<g id="a_node2"><a xlink:title=" ">
<polygon fill="white" stroke="#bfbfbf" points="0,-195.5 0,-227.5 101.02,-227.5 101.02,-195.5 0,-195.5"/>
<text text-anchor="start" x="8" y="-214.5" font-family="Helvetica,sans-Serif" font-size="10.00">halco/hicann&#45;dls/vx</text>
<text text-anchor="middle" x="50.51" y="-202.5" font-family="Helvetica,sans-Serif" font-size="10.00">/v2/coordinates.h</text>
</a>
</g>
</g>
<!-- Node0&#45;&gt;Node1 -->
<g id="edge1" class="edge">
<title>Node0&#45;&gt;Node1</title>
<path fill="none" stroke="midnightblue" d="M180.64,-264.42C153.37,-253.54 122.58,-241.26 97.8,-231.37"/>
<polygon fill="midnightblue" stroke="midnightblue" points="98.86,-228.02 88.27,-227.57 96.26,-234.52 98.86,-228.02"/>
</g>
<!-- Node2 -->
<g id="node3" class="node">
<title>Node2</title>
<g id="a_node3"><a xlink:title=" ">
<polygon fill="white" stroke="#bfbfbf" points="119,-195.5 119,-227.5 220.02,-227.5 220.02,-195.5 119,-195.5"/>
<text text-anchor="start" x="127" y="-214.5" font-family="Helvetica,sans-Serif" font-size="10.00">halco/hicann&#45;dls/vx</text>
<text text-anchor="middle" x="169.51" y="-202.5" font-family="Helvetica,sans-Serif" font-size="10.00">/v2/neuron.h</text>
</a>
</g>
</g>
<!-- Node0&#45;&gt;Node2 -->
<g id="edge2" class="edge">
<title>Node0&#45;&gt;Node2</title>
<path fill="none" stroke="midnightblue" d="M221.32,-264.31C211.7,-254.69 200.99,-243.98 191.82,-234.81"/>
<polygon fill="midnightblue" stroke="midnightblue" points="194.08,-232.12 184.53,-227.52 189.13,-237.07 194.08,-232.12"/>
</g>
<!-- Node3 -->
<g id="node4" class="node">
<title>Node3</title>
<g id="a_node4"><a xlink:href="cerealization_8h.html" target="_top" xlink:title=" ">
<polygon fill="white" stroke="black" points="314.83,-69.5 314.83,-89.5 424.18,-89.5 424.18,-69.5 314.83,-69.5"/>
<text text-anchor="middle" x="369.51" y="-76.5" font-family="Helvetica,sans-Serif" font-size="10.00">haldls/cerealization.h</text>
</a>
</g>
</g>
<!-- Node0&#45;&gt;Node3 -->
<g id="edge3" class="edge">
<title>Node0&#45;&gt;Node3</title>
<path fill="none" stroke="midnightblue" d="M262.2,-264.38C279.18,-231.2 309.45,-173.6 338.51,-126 344.29,-116.53 351.2,-106.3 357.02,-97.94"/>
<polygon fill="midnightblue" stroke="midnightblue" points="359.91,-99.92 362.82,-89.73 354.19,-95.88 359.91,-99.92"/>
</g>
<!-- Node9 -->
<g id="node10" class="node">
<title>Node9</title>
<g id="a_node10"><a xlink:href="genpybind_8h.html" target="_top" xlink:title=" ">
<polygon fill="white" stroke="black" points="1040.44,-6.5 1040.44,-26.5 1152.58,-26.5 1152.58,-6.5 1040.44,-6.5"/>
<text text-anchor="middle" x="1096.51" y="-13.5" font-family="Helvetica,sans-Serif" font-size="10.00">haldls/vx/genpybind.h</text>
</a>
</g>
</g>
<!-- Node0&#45;&gt;Node9 -->
<g id="edge9" class="edge">
<title>Node0&#45;&gt;Node9</title>
<path fill="none" stroke="midnightblue" d="M337.86,-285.02C539.39,-269.39 1023.32,-225.9 1171.51,-159 1220.56,-136.86 1284.04,-112.61 1252.51,-69 1240.42,-52.27 1192.13,-38 1152.45,-28.75"/>
<polygon fill="midnightblue" stroke="midnightblue" points="1153.1,-25.31 1142.57,-26.51 1151.55,-32.13 1153.1,-25.31"/>
</g>
<!-- Node10 -->
<g id="node11" class="node">
<title>Node10</title>
<g id="a_node11"><a xlink:href="neuron_8h.html" target="_top" xlink:title=" ">
<polygon fill="white" stroke="black" points="533.94,-201.5 533.94,-221.5 631.08,-221.5 631.08,-201.5 533.94,-201.5"/>
<text text-anchor="middle" x="582.51" y="-208.5" font-family="Helvetica,sans-Serif" font-size="10.00">haldls/vx/neuron.h</text>
</a>
</g>
</g>
<!-- Node0&#45;&gt;Node10 -->
<g id="edge11" class="edge">
<title>Node0&#45;&gt;Node10</title>
<path fill="none" stroke="midnightblue" d="M338.01,-270.33C401.24,-255.38 483.5,-235.92 534.65,-223.82"/>
<polygon fill="midnightblue" stroke="midnightblue" points="535.52,-227.21 544.45,-221.5 533.91,-220.4 535.52,-227.21"/>
</g>
<!-- Node4 -->
<g id="node5" class="node">
<title>Node4</title>
<g id="a_node5"><a xlink:title=" ">
<polygon fill="white" stroke="#bfbfbf" points="630.88,-6.5 630.88,-26.5 714.13,-26.5 714.13,-6.5 630.88,-6.5"/>
<text text-anchor="middle" x="672.51" y="-13.5" font-family="Helvetica,sans-Serif" font-size="10.00">hate/type_list.h</text>
</a>
</g>
</g>
<!-- Node3&#45;&gt;Node4 -->
<g id="edge4" class="edge">
<title>Node3&#45;&gt;Node4</title>
<path fill="none" stroke="midnightblue" d="M414.22,-69.5C469.19,-58.43 562.33,-39.68 620.47,-27.98"/>
<polygon fill="midnightblue" stroke="midnightblue" points="621.43,-31.35 630.55,-25.95 620.05,-24.49 621.43,-31.35"/>
</g>
<!-- Node5 -->
<g id="node6" class="node">
<title>Node5</title>
<g id="a_node6"><a xlink:title=" ">
<polygon fill="white" stroke="#bfbfbf" points="500.01,-6.5 500.01,-26.5 581.01,-26.5 581.01,-6.5 500.01,-6.5"/>
<text text-anchor="middle" x="540.51" y="-13.5" font-family="Helvetica,sans-Serif" font-size="10.00">hate/visibility.h</text>
</a>
</g>
</g>
<!-- Node3&#45;&gt;Node5 -->
<g id="edge5" class="edge">
<title>Node3&#45;&gt;Node5</title>
<path fill="none" stroke="midnightblue" d="M394.74,-69.5C424.04,-59.05 472.55,-41.74 505.49,-29.99"/>
<polygon fill="midnightblue" stroke="midnightblue" points="506.93,-33.19 515.17,-26.54 504.58,-26.6 506.93,-33.19"/>
</g>
<!-- Node6 -->
<g id="node7" class="node">
<title>Node6</title>
<g id="a_node7"><a xlink:title=" ">
<polygon fill="white" stroke="#bfbfbf" points="437.06,-6.5 437.06,-26.5 481.96,-26.5 481.96,-6.5 437.06,-6.5"/>
<text text-anchor="middle" x="459.51" y="-13.5" font-family="Helvetica,sans-Serif" font-size="10.00">cstdint</text>
</a>
</g>
</g>
<!-- Node3&#45;&gt;Node6 -->
<g id="edge6" class="edge">
<title>Node3&#45;&gt;Node6</title>
<path fill="none" stroke="midnightblue" d="M382.79,-69.5C397.28,-59.68 420.7,-43.81 437.85,-32.18"/>
<polygon fill="midnightblue" stroke="midnightblue" points="439.86,-35.05 446.17,-26.54 435.93,-29.25 439.86,-35.05"/>
</g>
<!-- Node7 -->
<g id="node8" class="node">
<title>Node7</title>
<g id="a_node8"><a xlink:title=" ">
<polygon fill="white" stroke="#bfbfbf" points="258.34,-6.5 258.34,-26.5 302.68,-26.5 302.68,-6.5 258.34,-6.5"/>
<text text-anchor="middle" x="280.51" y="-13.5" font-family="Helvetica,sans-Serif" font-size="10.00">iosfwd</text>
</a>
</g>
</g>
<!-- Node3&#45;&gt;Node7 -->
<g id="edge7" class="edge">
<title>Node3&#45;&gt;Node7</title>
<path fill="none" stroke="midnightblue" d="M356.38,-69.5C342.18,-59.77 319.31,-44.1 302.39,-32.5"/>
<polygon fill="midnightblue" stroke="midnightblue" points="303.92,-29.3 293.69,-26.54 299.96,-35.08 303.92,-29.3"/>
</g>
<!-- Node8 -->
<g id="node9" class="node">
<title>Node8</title>
<g id="a_node9"><a xlink:title=" ">
<polygon fill="white" stroke="#bfbfbf" points="320.39,-6.5 320.39,-26.5 418.63,-26.5 418.63,-6.5 320.39,-6.5"/>
<text text-anchor="middle" x="369.51" y="-13.5" font-family="Helvetica,sans-Serif" font-size="10.00">cereal/macros.hpp</text>
</a>
</g>
</g>
<!-- Node3&#45;&gt;Node8 -->
<g id="edge8" class="edge">
<title>Node3&#45;&gt;Node8</title>
<path fill="none" stroke="midnightblue" d="M369.51,-69.5C369.51,-60.94 369.51,-47.78 369.51,-36.85"/>
<polygon fill="midnightblue" stroke="midnightblue" points="373.01,-36.54 369.51,-26.54 366.01,-36.54 373.01,-36.54"/>
</g>
<!-- Node9&#45;&gt;Node9 -->
<g id="edge10" class="edge">
<title>Node9&#45;&gt;Node9</title>
<path fill="none" stroke="midnightblue" d="M1125.01,-26.56C1147.5,-30.45 1170.58,-27.1 1170.58,-16.5 1170.58,-7.48 1153.85,-3.71 1134.99,-5.19"/>
<polygon fill="midnightblue" stroke="midnightblue" points="1134.5,-1.72 1125.01,-6.44 1135.37,-8.67 1134.5,-1.72"/>
</g>
<!-- Node10&#45;&gt;Node3 -->
<g id="edge17" class="edge">
<title>Node10&#45;&gt;Node3</title>
<path fill="none" stroke="midnightblue" d="M533.9,-206.82C472.29,-201.02 371.31,-187.37 348.51,-159 334.41,-141.47 346.03,-115.32 356.79,-98.09"/>
<polygon fill="midnightblue" stroke="midnightblue" points="359.85,-99.8 362.51,-89.55 354.04,-95.91 359.85,-99.8"/>
</g>
<!-- Node10&#45;&gt;Node5 -->
<g id="edge36" class="edge">
<title>Node10&#45;&gt;Node5</title>
<path fill="none" stroke="midnightblue" d="M533.68,-204.84C480.35,-197.53 400,-182.83 381.51,-159 372.52,-147.41 374.66,-138.97 381.51,-126 381.99,-125.09 474.99,-61.94 518.51,-32.41"/>
<polygon fill="midnightblue" stroke="midnightblue" points="520.69,-35.17 527,-26.66 516.76,-29.37 520.69,-35.17"/>
</g>
<!-- Node10&#45;&gt;Node7 -->
<g id="edge13" class="edge">
<title>Node10&#45;&gt;Node7</title>
<path fill="none" stroke="midnightblue" d="M533.89,-205.36C471.67,-197.93 368.33,-182.45 338.51,-159 299.66,-128.45 286.64,-67.52 282.43,-36.54"/>
<polygon fill="midnightblue" stroke="midnightblue" points="285.9,-36.1 281.24,-26.59 278.95,-36.93 285.9,-36.1"/>
</g>
<!-- Node10&#45;&gt;Node9 -->
<g id="edge18" class="edge">
<title>Node10&#45;&gt;Node9</title>
<path fill="none" stroke="midnightblue" d="M631.23,-209.38C755.51,-206.02 1076.76,-194 1108.51,-159 1139.32,-125.02 1119.01,-65.69 1105.61,-35.8"/>
<polygon fill="midnightblue" stroke="midnightblue" points="1108.68,-34.11 1101.25,-26.55 1102.34,-37.09 1108.68,-34.11"/>
</g>
<!-- Node11 -->
<g id="node12" class="node">
<title>Node11</title>
<g id="a_node12"><a xlink:title=" ">
<polygon fill="white" stroke="#bfbfbf" points="390.12,-132.5 390.12,-152.5 428.9,-152.5 428.9,-132.5 390.12,-132.5"/>
<text text-anchor="middle" x="409.51" y="-139.5" font-family="Helvetica,sans-Serif" font-size="10.00">array</text>
</a>
</g>
</g>
<!-- Node10&#45;&gt;Node11 -->
<g id="edge12" class="edge">
<title>Node10&#45;&gt;Node11</title>
<path fill="none" stroke="midnightblue" d="M552.51,-201.44C522.79,-192.09 476.23,-176.45 437.51,-159 436.34,-158.47 435.15,-157.92 433.97,-157.34"/>
<polygon fill="midnightblue" stroke="midnightblue" points="435.46,-154.17 424.97,-152.65 432.23,-160.38 435.46,-154.17"/>
</g>
<!-- Node12 -->
<g id="node13" class="node">
<title>Node12</title>
<g id="a_node13"><a xlink:title=" ">
<polygon fill="white" stroke="#bfbfbf" points="446.61,-132.5 446.61,-152.5 580.41,-152.5 580.41,-132.5 446.61,-132.5"/>
<text text-anchor="middle" x="513.51" y="-139.5" font-family="Helvetica,sans-Serif" font-size="10.00">halco/common/geometry.h</text>
</a>
</g>
</g>
<!-- Node10&#45;&gt;Node12 -->
<g id="edge14" class="edge">
<title>Node10&#45;&gt;Node12</title>
<path fill="none" stroke="midnightblue" d="M573.2,-201.46C562.26,-190.83 543.87,-172.98 530.39,-159.89"/>
<polygon fill="midnightblue" stroke="midnightblue" points="532.72,-157.28 523.11,-152.82 527.85,-162.3 532.72,-157.28"/>
</g>
<!-- Node13 -->
<g id="node14" class="node">
<title>Node13</title>
<g id="a_node14"><a xlink:title=" ">
<polygon fill="white" stroke="#bfbfbf" points="598.39,-126.5 598.39,-158.5 706.63,-158.5 706.63,-126.5 598.39,-126.5"/>
<text text-anchor="start" x="606.39" y="-145.5" font-family="Helvetica,sans-Serif" font-size="10.00">halco/common/typed</text>
<text text-anchor="middle" x="652.51" y="-133.5" font-family="Helvetica,sans-Serif" font-size="10.00">_array.h</text>
</a>
</g>
</g>
<!-- Node10&#45;&gt;Node13 -->
<g id="edge15" class="edge">
<title>Node10&#45;&gt;Node13</title>
<path fill="none" stroke="midnightblue" d="M591.95,-201.46C601.47,-192.35 616.53,-177.94 629.25,-165.76"/>
<polygon fill="midnightblue" stroke="midnightblue" points="632,-167.98 636.8,-158.53 627.16,-162.92 632,-167.98"/>
</g>
<!-- Node14 -->
<g id="node15" class="node">
<title>Node14</title>
<g id="a_node15"><a xlink:title=" ">
<polygon fill="white" stroke="#bfbfbf" points="725,-126.5 725,-158.5 826.02,-158.5 826.02,-126.5 725,-126.5"/>
<text text-anchor="start" x="733" y="-145.5" font-family="Helvetica,sans-Serif" font-size="10.00">halco/hicann&#45;dls/vx</text>
<text text-anchor="middle" x="775.51" y="-133.5" font-family="Helvetica,sans-Serif" font-size="10.00">/neuron.h</text>
</a>
</g>
</g>
<!-- Node10&#45;&gt;Node14 -->
<g id="edge16" class="edge">
<title>Node10&#45;&gt;Node14</title>
<path fill="none" stroke="midnightblue" d="M608.54,-201.46C637.63,-191.37 685.51,-174.74 722.55,-161.88"/>
<polygon fill="midnightblue" stroke="midnightblue" points="723.9,-165.12 732.2,-158.53 721.61,-158.51 723.9,-165.12"/>
</g>
<!-- Node15 -->
<g id="node16" class="node">
<title>Node15</title>
<g id="a_node16"><a xlink:href="sram__controller_8h.html" target="_top" xlink:title=" ">
<polygon fill="white" stroke="black" points="965.06,-132.5 965.06,-152.5 1099.96,-152.5 1099.96,-132.5 965.06,-132.5"/>
<text text-anchor="middle" x="1032.51" y="-139.5" font-family="Helvetica,sans-Serif" font-size="10.00">haldls/vx/sram_controller.h</text>
</a>
</g>
</g>
<!-- Node10&#45;&gt;Node15 -->
<g id="edge19" class="edge">
<title>Node10&#45;&gt;Node15</title>
<path fill="none" stroke="midnightblue" d="M631.37,-204.79C702.94,-196.2 840.37,-178.82 956.51,-159 964.44,-157.65 972.8,-156.08 980.97,-154.48"/>
<polygon fill="midnightblue" stroke="midnightblue" points="981.67,-157.91 990.79,-152.51 980.29,-151.04 981.67,-157.91"/>
</g>
<!-- Node20 -->
<g id="node21" class="node">
<title>Node20</title>
<g id="a_node21"><a xlink:href="traits_8h.html" target="_top" xlink:title=" ">
<polygon fill="white" stroke="black" points="1155.67,-69.5 1155.67,-89.5 1243.35,-89.5 1243.35,-69.5 1155.67,-69.5"/>
<text text-anchor="middle" x="1199.51" y="-76.5" font-family="Helvetica,sans-Serif" font-size="10.00">haldls/vx/traits.h</text>
</a>
</g>
</g>
<!-- Node10&#45;&gt;Node20 -->
<g id="edge35" class="edge">
<title>Node10&#45;&gt;Node20</title>
<path fill="none" stroke="midnightblue" d="M631.17,-211.03C750.61,-211.54 1054.8,-207.86 1141.51,-159 1165.55,-145.45 1182.47,-117.38 1191.61,-98.74"/>
<polygon fill="midnightblue" stroke="midnightblue" points="1194.86,-100.05 1195.88,-89.51 1188.5,-97.11 1194.86,-100.05"/>
</g>
<!-- Node25 -->
<g id="node26" class="node">
<title>Node25</title>
<g id="a_node26"><a xlink:title=" ">
<polygon fill="white" stroke="#bfbfbf" points="843.89,-132.5 843.89,-152.5 947.13,-152.5 947.13,-132.5 843.89,-132.5"/>
<text text-anchor="middle" x="895.51" y="-139.5" font-family="Helvetica,sans-Serif" font-size="10.00">hxcomm/vx/target.h</text>
</a>
</g>
</g>
<!-- Node10&#45;&gt;Node25 -->
<g id="edge37" class="edge">
<title>Node10&#45;&gt;Node25</title>
<path fill="none" stroke="midnightblue" d="M630.7,-201.46C681.72,-191.72 764.53,-175.38 835.51,-159 840.82,-157.78 846.37,-156.43 851.87,-155.06"/>
<polygon fill="midnightblue" stroke="midnightblue" points="852.8,-158.43 861.63,-152.58 851.08,-151.65 852.8,-158.43"/>
</g>
<!-- Node15&#45;&gt;Node3 -->
<g id="edge20" class="edge">
<title>Node15&#45;&gt;Node3</title>
<path fill="none" stroke="midnightblue" d="M992.83,-132.44C981.18,-130.04 968.38,-127.66 956.51,-126 767.98,-99.57 543.08,-87.52 434.52,-82.91"/>
<polygon fill="midnightblue" stroke="midnightblue" points="434.52,-79.4 424.38,-82.48 434.22,-86.4 434.52,-79.4"/>
</g>
<!-- Node15&#45;&gt;Node5 -->
<g id="edge34" class="edge">
<title>Node15&#45;&gt;Node5</title>
<path fill="none" stroke="midnightblue" d="M996.73,-132.48C909.06,-110.39 683.6,-53.56 586.32,-29.05"/>
<polygon fill="midnightblue" stroke="midnightblue" points="587.04,-25.62 576.49,-26.57 585.33,-32.41 587.04,-25.62"/>
</g>
<!-- Node15&#45;&gt;Node9 -->
<g id="edge25" class="edge">
<title>Node15&#45;&gt;Node9</title>
<path fill="none" stroke="midnightblue" d="M1028.01,-132.44C1021.59,-118.11 1011.68,-89.72 1022.51,-69 1031.27,-52.23 1048.26,-39.81 1063.76,-31.38"/>
<polygon fill="midnightblue" stroke="midnightblue" points="1065.78,-34.27 1073.12,-26.64 1062.62,-28.03 1065.78,-34.27"/>
</g>
<!-- Node16 -->
<g id="node17" class="node">
<title>Node16</title>
<g id="a_node17"><a xlink:href="common_8h.html" target="_top" xlink:title=" ">
<polygon fill="white" stroke="black" points="871.34,-69.5 871.34,-89.5 975.68,-89.5 975.68,-69.5 871.34,-69.5"/>
<text text-anchor="middle" x="923.51" y="-76.5" font-family="Helvetica,sans-Serif" font-size="10.00">haldls/vx/common.h</text>
</a>
</g>
</g>
<!-- Node15&#45;&gt;Node16 -->
<g id="edge21" class="edge">
<title>Node15&#45;&gt;Node16</title>
<path fill="none" stroke="midnightblue" d="M1016.42,-132.5C998.55,-122.5 969.47,-106.22 948.6,-94.54"/>
<polygon fill="midnightblue" stroke="midnightblue" points="950.09,-91.37 939.66,-89.54 946.67,-97.48 950.09,-91.37"/>
</g>
<!-- Node15&#45;&gt;Node20 -->
<g id="edge26" class="edge">
<title>Node15&#45;&gt;Node20</title>
<path fill="none" stroke="midnightblue" d="M1057.15,-132.5C1085.76,-122.05 1133.14,-104.74 1165.31,-92.99"/>
<polygon fill="midnightblue" stroke="midnightblue" points="1166.57,-96.26 1174.77,-89.54 1164.17,-89.68 1166.57,-96.26"/>
</g>
<!-- Node24 -->
<g id="node25" class="node">
<title>Node24</title>
<g id="a_node25"><a xlink:title=" ">
<polygon fill="white" stroke="#bfbfbf" points="1031.11,-69.5 1031.11,-89.5 1099.91,-89.5 1099.91,-69.5 1031.11,-69.5"/>
<text text-anchor="middle" x="1065.51" y="-76.5" font-family="Helvetica,sans-Serif" font-size="10.00">hate/math.h</text>
</a>
</g>
</g>
<!-- Node15&#45;&gt;Node24 -->
<g id="edge33" class="edge">
<title>Node15&#45;&gt;Node24</title>
<path fill="none" stroke="midnightblue" d="M1037.38,-132.5C1042.2,-123.58 1049.73,-109.67 1055.78,-98.48"/>
<polygon fill="midnightblue" stroke="midnightblue" points="1058.94,-100 1060.62,-89.54 1052.78,-96.67 1058.94,-100"/>
</g>
<!-- Node17 -->
<g id="node18" class="node">
<title>Node17</title>
<g id="a_node18"><a xlink:title=" ">
<polygon fill="white" stroke="#bfbfbf" points="960.45,-6.5 960.45,-26.5 1022.57,-26.5 1022.57,-6.5 960.45,-6.5"/>
<text text-anchor="middle" x="991.51" y="-13.5" font-family="Helvetica,sans-Serif" font-size="10.00">type_traits</text>
</a>
</g>
</g>
<!-- Node16&#45;&gt;Node17 -->
<g id="edge22" class="edge">
<title>Node16&#45;&gt;Node17</title>
<path fill="none" stroke="midnightblue" d="M933.54,-69.5C944.09,-60.04 960.89,-44.96 973.7,-33.47"/>
<polygon fill="midnightblue" stroke="midnightblue" points="976.33,-35.82 981.43,-26.54 971.65,-30.61 976.33,-35.82"/>
</g>
<!-- Node18 -->
<g id="node19" class="node">
<title>Node18</title>
<g id="a_node19"><a xlink:title=" ">
<polygon fill="white" stroke="#bfbfbf" points="904.12,-6.5 904.12,-26.5 942.89,-26.5 942.89,-6.5 904.12,-6.5"/>
<text text-anchor="middle" x="923.51" y="-13.5" font-family="Helvetica,sans-Serif" font-size="10.00">utility</text>
</a>
</g>
</g>
<!-- Node16&#45;&gt;Node18 -->
<g id="edge23" class="edge">
<title>Node16&#45;&gt;Node18</title>
<path fill="none" stroke="midnightblue" d="M923.51,-69.5C923.51,-60.94 923.51,-47.78 923.51,-36.85"/>
<polygon fill="midnightblue" stroke="midnightblue" points="927.01,-36.54 923.51,-26.54 920.01,-36.54 927.01,-36.54"/>
</g>
<!-- Node19 -->
<g id="node20" class="node">
<title>Node19</title>
<g id="a_node20"><a xlink:title=" ">
<polygon fill="white" stroke="#bfbfbf" points="762.88,-6.5 762.88,-26.5 886.13,-26.5 886.13,-6.5 762.88,-6.5"/>
<text text-anchor="middle" x="824.51" y="-13.5" font-family="Helvetica,sans-Serif" font-size="10.00">fisch/vx/omnibus_data.h</text>
</a>
</g>
</g>
<!-- Node16&#45;&gt;Node19 -->
<g id="edge24" class="edge">
<title>Node16&#45;&gt;Node19</title>
<path fill="none" stroke="midnightblue" d="M908.9,-69.5C892.81,-59.59 866.73,-43.51 847.81,-31.86"/>
<polygon fill="midnightblue" stroke="midnightblue" points="849.53,-28.8 839.18,-26.54 845.85,-34.76 849.53,-28.8"/>
</g>
<!-- Node20&#45;&gt;Node4 -->
<g id="edge30" class="edge">
<title>Node20&#45;&gt;Node4</title>
<path fill="none" stroke="midnightblue" d="M1155.54,-73.88C1140.61,-72.32 1123.84,-70.58 1108.51,-69 950.75,-52.77 910.43,-55.93 753.51,-33 744.04,-31.62 734.01,-29.9 724.33,-28.12"/>
<polygon fill="midnightblue" stroke="midnightblue" points="724.91,-24.67 714.43,-26.25 723.61,-31.54 724.91,-24.67"/>
</g>
<!-- Node20&#45;&gt;Node9 -->
<g id="edge29" class="edge">
<title>Node20&#45;&gt;Node9</title>
<path fill="none" stroke="midnightblue" d="M1184.31,-69.5C1167.5,-59.54 1140.19,-43.37 1120.48,-31.7"/>
<polygon fill="midnightblue" stroke="midnightblue" points="1122.16,-28.62 1111.77,-26.54 1118.59,-34.64 1122.16,-28.62"/>
</g>
<!-- Node20&#45;&gt;Node17 -->
<g id="edge27" class="edge">
<title>Node20&#45;&gt;Node17</title>
<path fill="none" stroke="midnightblue" d="M1161.81,-69.5C1127.54,-61.03 1075.72,-47.51 1031.51,-33 1028.79,-32.11 1025.98,-31.13 1023.18,-30.12"/>
<polygon fill="midnightblue" stroke="midnightblue" points="1024.38,-26.83 1013.78,-26.61 1021.92,-33.39 1024.38,-26.83"/>
</g>
<!-- Node21 -->
<g id="node22" class="node">
<title>Node21</title>
<g id="a_node22"><a xlink:title=" ">
<polygon fill="white" stroke="#bfbfbf" points="1188.89,-0.5 1188.89,-32.5 1282.13,-32.5 1282.13,-0.5 1188.89,-0.5"/>
<text text-anchor="start" x="1196.89" y="-19.5" font-family="Helvetica,sans-Serif" font-size="10.00">fisch/vx/container</text>
<text text-anchor="middle" x="1235.51" y="-7.5" font-family="Helvetica,sans-Serif" font-size="10.00">_fwd.h</text>
</a>
</g>
</g>
<!-- Node20&#45;&gt;Node21 -->
<g id="edge28" class="edge">
<title>Node20&#45;&gt;Node21</title>
<path fill="none" stroke="midnightblue" d="M1204.82,-69.5C1209.19,-62.09 1215.6,-51.24 1221.43,-41.36"/>
<polygon fill="midnightblue" stroke="midnightblue" points="1224.47,-43.08 1226.54,-32.69 1218.45,-39.52 1224.47,-43.08"/>
</g>
<!-- Node22 -->
<g id="node23" class="node">
<title>Node22</title>
<g id="a_node23"><a xlink:title=" ">
<polygon fill="white" stroke="#bfbfbf" points="1300.11,-0.5 1300.11,-32.5 1398.91,-32.5 1398.91,-0.5 1300.11,-0.5"/>
<text text-anchor="start" x="1308.11" y="-19.5" font-family="Helvetica,sans-Serif" font-size="10.00">boost/utility/enable</text>
<text text-anchor="middle" x="1349.51" y="-7.5" font-family="Helvetica,sans-Serif" font-size="10.00">_if.hpp</text>
</a>
</g>
</g>
<!-- Node20&#45;&gt;Node22 -->
<g id="edge31" class="edge">
<title>Node20&#45;&gt;Node22</title>
<path fill="none" stroke="midnightblue" d="M1221.64,-69.5C1243,-60.81 1276,-47.39 1303.12,-36.36"/>
<polygon fill="midnightblue" stroke="midnightblue" points="1304.5,-39.58 1312.44,-32.57 1301.86,-33.1 1304.5,-39.58"/>
</g>
<!-- Node23 -->
<g id="node24" class="node">
<title>Node23</title>
<g id="a_node24"><a xlink:title=" ">
<polygon fill="white" stroke="#bfbfbf" points="1416.55,-6.5 1416.55,-26.5 1526.46,-26.5 1526.46,-6.5 1416.55,-6.5"/>
<text text-anchor="middle" x="1471.51" y="-13.5" font-family="Helvetica,sans-Serif" font-size="10.00">fisch/vx/container.def</text>
</a>
</g>
</g>
<!-- Node20&#45;&gt;Node23 -->
<g id="edge32" class="edge">
<title>Node20&#45;&gt;Node23</title>
<path fill="none" stroke="midnightblue" d="M1242.19,-69.45C1284.29,-60.46 1350.41,-46.16 1407.51,-33 1413.15,-31.7 1419.06,-30.31 1424.91,-28.91"/>
<polygon fill="midnightblue" stroke="midnightblue" points="1425.75,-32.31 1434.65,-26.57 1424.11,-25.51 1425.75,-32.31"/>
</g>
</g>
</svg>
        <g id="navigator" transform="translate(0 0)" fill="#404254">
                <rect fill="#f2f5e9" fill-opacity="0.5" stroke="#606060" stroke-width=".5" x="0" y="0" width="60" height="60"/>
                <use id="zoomplus" xlink:href="#zoomPlus" x="17" y="9" onmousedown="handleZoom(evt,'in')"/>
                <use id="zoomminus" xlink:href="#zoomMin" x="42" y="9" onmousedown="handleZoom(evt,'out')"/>
                <use id="reset" xlink:href="#resetDef" x="30" y="36" onmousedown="handleReset()"/>
                <g id="arrowUp" xlink:href="#dirArrow" transform="translate(30 24)" onmousedown="handlePan(0,-1)">
                  <use xlink:href="#rim" fill="#404040">
                        <set attributeName="fill" to="#808080" begin="arrowUp.mouseover" end="arrowUp.mouseout"/>
                  </use>
                  <path fill="none" stroke="white" stroke-width="1.5" d="M0,-3.0v7 M-2.5,-0.5L0,-3.0L2.5,-0.5"/>
                </g>
                <g id="arrowRight" xlink:href="#dirArrow" transform="rotate(90) translate(36 -43)" onmousedown="handlePan(1,0)">
                  <use xlink:href="#rim" fill="#404040">
                        <set attributeName="fill" to="#808080" begin="arrowRight.mouseover" end="arrowRight.mouseout"/>
                  </use>
                  <path fill="none" stroke="white" stroke-width="1.5" d="M0,-3.0v7 M-2.5,-0.5L0,-3.0L2.5,-0.5"/>
                </g>
                <g id="arrowDown" xlink:href="#dirArrow" transform="rotate(180) translate(-30 -48)" onmousedown="handlePan(0,1)">
                  <use xlink:href="#rim" fill="#404040">
                        <set attributeName="fill" to="#808080" begin="arrowDown.mouseover" end="arrowDown.mouseout"/>
                  </use>
                  <path fill="none" stroke="white" stroke-width="1.5" d="M0,-3.0v7 M-2.5,-0.5L0,-3.0L2.5,-0.5"/>
                </g>
                <g id="arrowLeft" xlink:href="#dirArrow" transform="rotate(270) translate(-36 17)" onmousedown="handlePan(-1,0)">
                  <use xlink:href="#rim" fill="#404040">
                        <set attributeName="fill" to="#808080" begin="arrowLeft.mouseover" end="arrowLeft.mouseout"/>
                  </use>
                  <path fill="none" stroke="white" stroke-width="1.5" d="M0,-3.0v7 M-2.5,-0.5L0,-3.0L2.5,-0.5"/>
                </g>
        </g>
        <svg viewBox="0 0 15 15" width="100%" height="30px" preserveAspectRatio="xMaxYMin meet">
         <g id="arrow_out" transform="scale(0.3 0.3)">
          <a xlink:href="v2_2neuron_8h__incl_org.svg" target="_base">
           <rect id="button" ry="5" rx="5" y="6" x="6" height="38" width="38"
                fill="#f2f5e9" fill-opacity="0.5" stroke="#606060" stroke-width="1.0"/>
           <path id="arrow"
             d="M 11.500037,31.436501 C 11.940474,20.09759 22.043105,11.32322 32.158766,21.979434 L 37.068811,17.246167 C 37.068811,17.246167 37.088388,32 37.088388,32 L 22.160133,31.978069 C 22.160133,31.978069 26.997745,27.140456 26.997745,27.140456 C 18.528582,18.264221 13.291696,25.230495 11.500037,31.436501 z"
             style="fill:#404040;"/>
          </a>
         </g>
        </svg>
</svg>
