<?xml version="1.0" encoding="UTF-8" standalone="no"?>
<!DOCTYPE svg PUBLIC "-//W3C//DTD SVG 1.1//EN"
 "http://www.w3.org/Graphics/SVG/1.1/DTD/svg11.dtd">
<!-- Generated by graphviz version 2.43.0 (0)
 -->
<!-- Title: /jenkins/jenlib_workspaces_f9/bld_nightly&#45;haldls.YmxkX25pZ2h0bHktaGFsZGxzIzcxMQ.x/haldls/include/haldls/vx/v2/jtag.h Pages: 1 -->
<svg width="1017pt" height="260pt"
 viewBox="0.00 0.00 1017.46 260.00" xmlns="http://www.w3.org/2000/svg" xmlns:xlink="http://www.w3.org/1999/xlink">
<g id="graph0" class="graph" transform="scale(1 1) rotate(0) translate(4 256)">
<title>/jenkins/jenlib_workspaces_f9/bld_nightly&#45;haldls.YmxkX25pZ2h0bHktaGFsZGxzIzcxMQ.x/haldls/include/haldls/vx/v2/jtag.h</title>
<polygon fill="white" stroke="transparent" points="-4,4 -4,-256 1013.46,-256 1013.46,4 -4,4"/>
<!-- Node0 -->
<g id="node1" class="node">
<title>Node0</title>
<g id="a_node1"><a xlink:title=" ">
<polygon fill="#bfbfbf" stroke="black" points="165.95,-195.5 165.95,-251.5 344.19,-251.5 344.19,-195.5 165.95,-195.5"/>
<text text-anchor="start" x="173.95" y="-238.5" font-family="Helvetica,sans-Serif" font-size="10.00">/jenkins/jenlib_workspaces</text>
<text text-anchor="start" x="173.95" y="-226.5" font-family="Helvetica,sans-Serif" font-size="10.00">_f9/bld_nightly&#45;haldls.YmxkX25p</text>
<text text-anchor="start" x="173.95" y="-214.5" font-family="Helvetica,sans-Serif" font-size="10.00">Z2h0bHktaGFsZGxzIzcxMQ.x/haldls</text>
<text text-anchor="middle" x="255.07" y="-202.5" font-family="Helvetica,sans-Serif" font-size="10.00">/include/haldls/vx/v2/jtag.h</text>
</a>
</g>
</g>
<!-- Node1 -->
<g id="node2" class="node">
<title>Node1</title>
<g id="a_node2"><a xlink:href="genpybind_8h.html" target="_top" xlink:title=" ">
<polygon fill="white" stroke="black" points="0,-6.5 0,-26.5 112.14,-26.5 112.14,-6.5 0,-6.5"/>
<text text-anchor="middle" x="56.07" y="-13.5" font-family="Helvetica,sans-Serif" font-size="10.00">haldls/vx/genpybind.h</text>
</a>
</g>
</g>
<!-- Node0&#45;&gt;Node1 -->
<g id="edge1" class="edge">
<title>Node0&#45;&gt;Node1</title>
<path fill="none" stroke="midnightblue" d="M216.59,-195.3C185.92,-172.5 142.97,-137.97 111.07,-102 92.55,-81.12 75.76,-53.46 65.73,-35.58"/>
<polygon fill="midnightblue" stroke="midnightblue" points="68.77,-33.83 60.89,-26.75 62.63,-37.2 68.77,-33.83"/>
</g>
<!-- Node2 -->
<g id="node3" class="node">
<title>Node2</title>
<g id="a_node3"><a xlink:href="jtag_8h.html" target="_top" xlink:title=" ">
<polygon fill="white" stroke="black" points="438.01,-138.5 438.01,-158.5 520.13,-158.5 520.13,-138.5 438.01,-138.5"/>
<text text-anchor="middle" x="479.07" y="-145.5" font-family="Helvetica,sans-Serif" font-size="10.00">haldls/vx/jtag.h</text>
</a>
</g>
</g>
<!-- Node0&#45;&gt;Node2 -->
<g id="edge3" class="edge">
<title>Node0&#45;&gt;Node2</title>
<path fill="none" stroke="midnightblue" d="M338.16,-195.42C373.65,-183.86 413.29,-170.94 441.46,-161.76"/>
<polygon fill="midnightblue" stroke="midnightblue" points="442.87,-164.98 451.3,-158.55 440.7,-158.32 442.87,-164.98"/>
</g>
<!-- Node1&#45;&gt;Node1 -->
<g id="edge2" class="edge">
<title>Node1&#45;&gt;Node1</title>
<path fill="none" stroke="midnightblue" d="M79.97,-26.54C103.79,-32.26 130.14,-28.92 130.14,-16.5 130.14,-5.78 110.51,-1.82 89.81,-4.62"/>
<polygon fill="midnightblue" stroke="midnightblue" points="89.15,-1.18 79.97,-6.46 90.44,-8.06 89.15,-1.18"/>
</g>
<!-- Node2&#45;&gt;Node1 -->
<g id="edge16" class="edge">
<title>Node2&#45;&gt;Node1</title>
<path fill="none" stroke="midnightblue" d="M437.79,-148.03C376.18,-147.41 257.63,-140.68 166.07,-102 128.25,-86.02 92.01,-53.84 72.03,-34.13"/>
<polygon fill="midnightblue" stroke="midnightblue" points="74.25,-31.41 64.73,-26.77 69.28,-36.34 74.25,-31.41"/>
</g>
<!-- Node3 -->
<g id="node4" class="node">
<title>Node3</title>
<g id="a_node4"><a xlink:title=" ">
<polygon fill="white" stroke="#bfbfbf" points="970.68,-75.5 970.68,-95.5 1009.46,-95.5 1009.46,-75.5 970.68,-75.5"/>
<text text-anchor="middle" x="990.07" y="-82.5" font-family="Helvetica,sans-Serif" font-size="10.00">array</text>
</a>
</g>
</g>
<!-- Node2&#45;&gt;Node3 -->
<g id="edge4" class="edge">
<title>Node2&#45;&gt;Node3</title>
<path fill="none" stroke="midnightblue" d="M520.2,-148.28C604,-148.86 799.88,-145 957.07,-102 959.53,-101.33 962.03,-100.48 964.5,-99.54"/>
<polygon fill="midnightblue" stroke="midnightblue" points="965.93,-102.73 973.71,-95.54 963.14,-96.31 965.93,-102.73"/>
</g>
<!-- Node4 -->
<g id="node5" class="node">
<title>Node4</title>
<g id="a_node5"><a xlink:title=" ">
<polygon fill="white" stroke="#bfbfbf" points="684.9,-6.5 684.9,-26.5 729.24,-26.5 729.24,-6.5 684.9,-6.5"/>
<text text-anchor="middle" x="707.07" y="-13.5" font-family="Helvetica,sans-Serif" font-size="10.00">iosfwd</text>
</a>
</g>
</g>
<!-- Node2&#45;&gt;Node4 -->
<g id="edge5" class="edge">
<title>Node2&#45;&gt;Node4</title>
<path fill="none" stroke="midnightblue" d="M437.76,-142.93C375.75,-134.53 269.93,-113.28 310.07,-69 364.96,-8.45 597.55,-55.65 676.07,-33 678.23,-32.38 680.42,-31.6 682.59,-30.74"/>
<polygon fill="midnightblue" stroke="midnightblue" points="684.12,-33.89 691.75,-26.54 681.2,-27.53 684.12,-33.89"/>
</g>
<!-- Node5 -->
<g id="node6" class="node">
<title>Node5</title>
<g id="a_node6"><a xlink:title=" ">
<polygon fill="white" stroke="#bfbfbf" points="319.45,-75.5 319.45,-95.5 422.69,-95.5 422.69,-75.5 319.45,-75.5"/>
<text text-anchor="middle" x="371.07" y="-82.5" font-family="Helvetica,sans-Serif" font-size="10.00">fisch/vx/constants.h</text>
</a>
</g>
</g>
<!-- Node2&#45;&gt;Node5 -->
<g id="edge6" class="edge">
<title>Node2&#45;&gt;Node5</title>
<path fill="none" stroke="midnightblue" d="M463.14,-138.5C445.43,-128.5 416.61,-112.22 395.93,-100.54"/>
<polygon fill="midnightblue" stroke="midnightblue" points="397.5,-97.41 387.07,-95.54 394.06,-103.5 397.5,-97.41"/>
</g>
<!-- Node6 -->
<g id="node7" class="node">
<title>Node6</title>
<g id="a_node7"><a xlink:title=" ">
<polygon fill="white" stroke="#bfbfbf" points="440.79,-75.5 440.79,-95.5 517.36,-95.5 517.36,-75.5 440.79,-75.5"/>
<text text-anchor="middle" x="479.07" y="-82.5" font-family="Helvetica,sans-Serif" font-size="10.00">fisch/vx/jtag.h</text>
</a>
</g>
</g>
<!-- Node2&#45;&gt;Node6 -->
<g id="edge7" class="edge">
<title>Node2&#45;&gt;Node6</title>
<path fill="none" stroke="midnightblue" d="M479.07,-138.5C479.07,-129.94 479.07,-116.78 479.07,-105.85"/>
<polygon fill="midnightblue" stroke="midnightblue" points="482.57,-105.54 479.07,-95.54 475.57,-105.54 482.57,-105.54"/>
</g>
<!-- Node7 -->
<g id="node8" class="node">
<title>Node7</title>
<g id="a_node8"><a xlink:title=" ">
<polygon fill="white" stroke="#bfbfbf" points="535.17,-75.5 535.17,-95.5 668.97,-95.5 668.97,-75.5 535.17,-75.5"/>
<text text-anchor="middle" x="602.07" y="-82.5" font-family="Helvetica,sans-Serif" font-size="10.00">halco/common/geometry.h</text>
</a>
</g>
</g>
<!-- Node2&#45;&gt;Node7 -->
<g id="edge8" class="edge">
<title>Node2&#45;&gt;Node7</title>
<path fill="none" stroke="midnightblue" d="M497.22,-138.5C517.66,-128.36 551.1,-111.78 574.71,-100.07"/>
<polygon fill="midnightblue" stroke="midnightblue" points="576.44,-103.12 583.85,-95.54 573.33,-96.85 576.44,-103.12"/>
</g>
<!-- Node8 -->
<g id="node9" class="node">
<title>Node8</title>
<g id="a_node9"><a xlink:title=" ">
<polygon fill="white" stroke="#bfbfbf" points="686.56,-69.5 686.56,-101.5 787.58,-101.5 787.58,-69.5 686.56,-69.5"/>
<text text-anchor="start" x="694.56" y="-88.5" font-family="Helvetica,sans-Serif" font-size="10.00">halco/hicann&#45;dls/vx</text>
<text text-anchor="middle" x="737.07" y="-76.5" font-family="Helvetica,sans-Serif" font-size="10.00">/jtag.h</text>
</a>
</g>
</g>
<!-- Node2&#45;&gt;Node8 -->
<g id="edge9" class="edge">
<title>Node2&#45;&gt;Node8</title>
<path fill="none" stroke="midnightblue" d="M520.32,-138.47C558.51,-130.03 617.1,-116.84 676.35,-102.39"/>
<polygon fill="midnightblue" stroke="midnightblue" points="677.37,-105.74 686.25,-99.96 675.7,-98.94 677.37,-105.74"/>
</g>
<!-- Node9 -->
<g id="node10" class="node">
<title>Node9</title>
<g id="a_node10"><a xlink:href="cerealization_8h.html" target="_top" xlink:title=" ">
<polygon fill="white" stroke="black" points="805.4,-75.5 805.4,-95.5 914.75,-95.5 914.75,-75.5 805.4,-75.5"/>
<text text-anchor="middle" x="860.07" y="-82.5" font-family="Helvetica,sans-Serif" font-size="10.00">haldls/cerealization.h</text>
</a>
</g>
</g>
<!-- Node2&#45;&gt;Node9 -->
<g id="edge10" class="edge">
<title>Node2&#45;&gt;Node9</title>
<path fill="none" stroke="midnightblue" d="M520.2,-142.94C581.02,-135.89 698.39,-121.15 797.07,-102 803.24,-100.8 809.71,-99.39 816.06,-97.92"/>
<polygon fill="midnightblue" stroke="midnightblue" points="816.97,-101.3 825.88,-95.57 815.34,-94.49 816.97,-101.3"/>
</g>
<!-- Node11 -->
<g id="node12" class="node">
<title>Node11</title>
<g id="a_node12"><a xlink:title=" ">
<polygon fill="white" stroke="#bfbfbf" points="927.57,-6.5 927.57,-26.5 1008.57,-26.5 1008.57,-6.5 927.57,-6.5"/>
<text text-anchor="middle" x="968.07" y="-13.5" font-family="Helvetica,sans-Serif" font-size="10.00">hate/visibility.h</text>
</a>
</g>
</g>
<!-- Node2&#45;&gt;Node11 -->
<g id="edge24" class="edge">
<title>Node2&#45;&gt;Node11</title>
<path fill="none" stroke="midnightblue" d="M520.37,-148.15C617.85,-148.93 858.93,-146.21 924.07,-102 946.59,-86.72 958.34,-56.18 963.86,-36.3"/>
<polygon fill="midnightblue" stroke="midnightblue" points="967.27,-37.07 966.31,-26.52 960.48,-35.37 967.27,-37.07"/>
</g>
<!-- Node14 -->
<g id="node15" class="node">
<title>Node14</title>
<g id="a_node15"><a xlink:href="traits_8h.html" target="_top" xlink:title=" ">
<polygon fill="white" stroke="black" points="175.23,-75.5 175.23,-95.5 262.91,-95.5 262.91,-75.5 175.23,-75.5"/>
<text text-anchor="middle" x="219.07" y="-82.5" font-family="Helvetica,sans-Serif" font-size="10.00">haldls/vx/traits.h</text>
</a>
</g>
</g>
<!-- Node2&#45;&gt;Node14 -->
<g id="edge17" class="edge">
<title>Node2&#45;&gt;Node14</title>
<path fill="none" stroke="midnightblue" d="M437.95,-138.74C397.05,-129.9 332.57,-115.66 277.07,-102 272.14,-100.79 266.98,-99.47 261.86,-98.14"/>
<polygon fill="midnightblue" stroke="midnightblue" points="262.7,-94.74 252.14,-95.58 260.92,-101.51 262.7,-94.74"/>
</g>
<!-- Node9&#45;&gt;Node4 -->
<g id="edge14" class="edge">
<title>Node9&#45;&gt;Node4</title>
<path fill="none" stroke="midnightblue" d="M837.63,-75.33C813.23,-65.27 773.16,-48.5 739.07,-33 737.53,-32.3 735.94,-31.57 734.35,-30.82"/>
<polygon fill="midnightblue" stroke="midnightblue" points="735.81,-27.64 725.28,-26.51 732.8,-33.96 735.81,-27.64"/>
</g>
<!-- Node10 -->
<g id="node11" class="node">
<title>Node10</title>
<g id="a_node11"><a xlink:title=" ">
<polygon fill="white" stroke="#bfbfbf" points="583.45,-6.5 583.45,-26.5 666.69,-26.5 666.69,-6.5 583.45,-6.5"/>
<text text-anchor="middle" x="625.07" y="-13.5" font-family="Helvetica,sans-Serif" font-size="10.00">hate/type_list.h</text>
</a>
</g>
</g>
<!-- Node9&#45;&gt;Node10 -->
<g id="edge11" class="edge">
<title>Node9&#45;&gt;Node10</title>
<path fill="none" stroke="midnightblue" d="M826.77,-75.42C789.86,-65.3 728.61,-48.34 676.07,-33 672.23,-31.88 668.24,-30.7 664.25,-29.5"/>
<polygon fill="midnightblue" stroke="midnightblue" points="665.02,-26.08 654.43,-26.55 663,-32.78 665.02,-26.08"/>
</g>
<!-- Node9&#45;&gt;Node11 -->
<g id="edge12" class="edge">
<title>Node9&#45;&gt;Node11</title>
<path fill="none" stroke="midnightblue" d="M874.64,-75.46C892.59,-64.33 923.34,-45.25 944.63,-32.04"/>
<polygon fill="midnightblue" stroke="midnightblue" points="946.74,-34.85 953.39,-26.61 943.05,-28.9 946.74,-34.85"/>
</g>
<!-- Node12 -->
<g id="node13" class="node">
<title>Node12</title>
<g id="a_node13"><a xlink:title=" ">
<polygon fill="white" stroke="#bfbfbf" points="747.62,-6.5 747.62,-26.5 792.52,-26.5 792.52,-6.5 747.62,-6.5"/>
<text text-anchor="middle" x="770.07" y="-13.5" font-family="Helvetica,sans-Serif" font-size="10.00">cstdint</text>
</a>
</g>
</g>
<!-- Node9&#45;&gt;Node12 -->
<g id="edge13" class="edge">
<title>Node9&#45;&gt;Node12</title>
<path fill="none" stroke="midnightblue" d="M847.93,-75.46C833.31,-64.57 808.49,-46.1 790.81,-32.94"/>
<polygon fill="midnightblue" stroke="midnightblue" points="792.42,-29.77 782.3,-26.61 788.24,-35.39 792.42,-29.77"/>
</g>
<!-- Node13 -->
<g id="node14" class="node">
<title>Node13</title>
<g id="a_node14"><a xlink:title=" ">
<polygon fill="white" stroke="#bfbfbf" points="810.95,-6.5 810.95,-26.5 909.19,-26.5 909.19,-6.5 810.95,-6.5"/>
<text text-anchor="middle" x="860.07" y="-13.5" font-family="Helvetica,sans-Serif" font-size="10.00">cereal/macros.hpp</text>
</a>
</g>
</g>
<!-- Node9&#45;&gt;Node13 -->
<g id="edge15" class="edge">
<title>Node9&#45;&gt;Node13</title>
<path fill="none" stroke="midnightblue" d="M860.07,-75.46C860.07,-65.63 860.07,-49.61 860.07,-36.9"/>
<polygon fill="midnightblue" stroke="midnightblue" points="863.57,-36.82 860.07,-26.82 856.57,-36.82 863.57,-36.82"/>
</g>
<!-- Node14&#45;&gt;Node1 -->
<g id="edge20" class="edge">
<title>Node14&#45;&gt;Node1</title>
<path fill="none" stroke="midnightblue" d="M197.09,-75.46C168.9,-63.88 119.81,-43.7 87.63,-30.47"/>
<polygon fill="midnightblue" stroke="midnightblue" points="88.81,-27.17 78.23,-26.61 86.15,-33.65 88.81,-27.17"/>
</g>
<!-- Node14&#45;&gt;Node10 -->
<g id="edge21" class="edge">
<title>Node14&#45;&gt;Node10</title>
<path fill="none" stroke="midnightblue" d="M249.59,-75.48C258.4,-73.11 268.07,-70.74 277.07,-69 408.06,-43.72 444.61,-60.86 575.07,-33 579.77,-32 584.66,-30.75 589.46,-29.4"/>
<polygon fill="midnightblue" stroke="midnightblue" points="590.51,-32.73 599.1,-26.53 588.51,-26.02 590.51,-32.73"/>
</g>
<!-- Node15 -->
<g id="node16" class="node">
<title>Node15</title>
<g id="a_node16"><a xlink:title=" ">
<polygon fill="white" stroke="#bfbfbf" points="392.01,-6.5 392.01,-26.5 454.13,-26.5 454.13,-6.5 392.01,-6.5"/>
<text text-anchor="middle" x="423.07" y="-13.5" font-family="Helvetica,sans-Serif" font-size="10.00">type_traits</text>
</a>
</g>
</g>
<!-- Node14&#45;&gt;Node15 -->
<g id="edge18" class="edge">
<title>Node14&#45;&gt;Node15</title>
<path fill="none" stroke="midnightblue" d="M250.1,-75.42C283.23,-65.56 337.16,-49.08 383.07,-33 385.62,-32.11 388.25,-31.16 390.88,-30.18"/>
<polygon fill="midnightblue" stroke="midnightblue" points="392.21,-33.42 400.32,-26.61 389.73,-26.88 392.21,-33.42"/>
</g>
<!-- Node16 -->
<g id="node17" class="node">
<title>Node16</title>
<g id="a_node17"><a xlink:title=" ">
<polygon fill="white" stroke="#bfbfbf" points="472.45,-0.5 472.45,-32.5 565.69,-32.5 565.69,-0.5 472.45,-0.5"/>
<text text-anchor="start" x="480.45" y="-19.5" font-family="Helvetica,sans-Serif" font-size="10.00">fisch/vx/container</text>
<text text-anchor="middle" x="519.07" y="-7.5" font-family="Helvetica,sans-Serif" font-size="10.00">_fwd.h</text>
</a>
</g>
</g>
<!-- Node14&#45;&gt;Node16 -->
<g id="edge19" class="edge">
<title>Node14&#45;&gt;Node16</title>
<path fill="none" stroke="midnightblue" d="M251.18,-75.49C259.58,-73.25 268.64,-70.94 277.07,-69 356.08,-50.82 379.39,-52.12 462.51,-33.02"/>
<polygon fill="midnightblue" stroke="midnightblue" points="463.45,-36.39 472.39,-30.72 461.86,-29.58 463.45,-36.39"/>
</g>
<!-- Node17 -->
<g id="node18" class="node">
<title>Node17</title>
<g id="a_node18"><a xlink:title=" ">
<polygon fill="white" stroke="#bfbfbf" points="147.67,-0.5 147.67,-32.5 246.47,-32.5 246.47,-0.5 147.67,-0.5"/>
<text text-anchor="start" x="155.67" y="-19.5" font-family="Helvetica,sans-Serif" font-size="10.00">boost/utility/enable</text>
<text text-anchor="middle" x="197.07" y="-7.5" font-family="Helvetica,sans-Serif" font-size="10.00">_if.hpp</text>
</a>
</g>
</g>
<!-- Node14&#45;&gt;Node17 -->
<g id="edge22" class="edge">
<title>Node14&#45;&gt;Node17</title>
<path fill="none" stroke="midnightblue" d="M216.1,-75.46C213.31,-66.96 209,-53.82 205.18,-42.2"/>
<polygon fill="midnightblue" stroke="midnightblue" points="208.45,-40.94 202.01,-32.53 201.8,-43.13 208.45,-40.94"/>
</g>
<!-- Node18 -->
<g id="node19" class="node">
<title>Node18</title>
<g id="a_node19"><a xlink:title=" ">
<polygon fill="white" stroke="#bfbfbf" points="264.12,-6.5 264.12,-26.5 374.03,-26.5 374.03,-6.5 264.12,-6.5"/>
<text text-anchor="middle" x="319.07" y="-13.5" font-family="Helvetica,sans-Serif" font-size="10.00">fisch/vx/container.def</text>
</a>
</g>
</g>
<!-- Node14&#45;&gt;Node18 -->
<g id="edge23" class="edge">
<title>Node14&#45;&gt;Node18</title>
<path fill="none" stroke="midnightblue" d="M232.56,-75.46C249.11,-64.38 277.4,-45.42 297.1,-32.22"/>
<polygon fill="midnightblue" stroke="midnightblue" points="299.12,-35.08 305.48,-26.61 295.22,-29.27 299.12,-35.08"/>
</g>
</g>
</svg>
