<?xml version="1.0" encoding="UTF-8" standalone="no"?>
<!DOCTYPE svg PUBLIC "-//W3C//DTD SVG 1.1//EN"
 "http://www.w3.org/Graphics/SVG/1.1/DTD/svg11.dtd">
<!-- Generated by graphviz version 2.43.0 (0)
 -->
<!-- Title: /jenkins/jenlib_workspaces_f9/bld_nightly&#45;haldls.YmxkX25pZ2h0bHktaGFsZGxzIzcxMQ.x/haldls/include/haldls/vx/v2/pll.h Pages: 1 -->
<svg width="1018pt" height="260pt"
 viewBox="0.00 0.00 1017.57 260.00" xmlns="http://www.w3.org/2000/svg" xmlns:xlink="http://www.w3.org/1999/xlink">
<g id="graph0" class="graph" transform="scale(1 1) rotate(0) translate(4 256)">
<title>/jenkins/jenlib_workspaces_f9/bld_nightly&#45;haldls.YmxkX25pZ2h0bHktaGFsZGxzIzcxMQ.x/haldls/include/haldls/vx/v2/pll.h</title>
<polygon fill="white" stroke="transparent" points="-4,4 -4,-256 1013.57,-256 1013.57,4 -4,4"/>
<!-- Node0 -->
<g id="node1" class="node">
<title>Node0</title>
<g id="a_node1"><a xlink:title=" ">
<polygon fill="#bfbfbf" stroke="black" points="121.95,-195.5 121.95,-251.5 300.19,-251.5 300.19,-195.5 121.95,-195.5"/>
<text text-anchor="start" x="129.95" y="-238.5" font-family="Helvetica,sans-Serif" font-size="10.00">/jenkins/jenlib_workspaces</text>
<text text-anchor="start" x="129.95" y="-226.5" font-family="Helvetica,sans-Serif" font-size="10.00">_f9/bld_nightly&#45;haldls.YmxkX25p</text>
<text text-anchor="start" x="129.95" y="-214.5" font-family="Helvetica,sans-Serif" font-size="10.00">Z2h0bHktaGFsZGxzIzcxMQ.x/haldls</text>
<text text-anchor="middle" x="211.07" y="-202.5" font-family="Helvetica,sans-Serif" font-size="10.00">/include/haldls/vx/v2/pll.h</text>
</a>
</g>
</g>
<!-- Node1 -->
<g id="node2" class="node">
<title>Node1</title>
<g id="a_node2"><a xlink:href="genpybind_8h.html" target="_top" xlink:title=" ">
<polygon fill="white" stroke="black" points="0,-6.5 0,-26.5 112.14,-26.5 112.14,-6.5 0,-6.5"/>
<text text-anchor="middle" x="56.07" y="-13.5" font-family="Helvetica,sans-Serif" font-size="10.00">haldls/vx/genpybind.h</text>
</a>
</g>
</g>
<!-- Node0&#45;&gt;Node1 -->
<g id="edge1" class="edge">
<title>Node0&#45;&gt;Node1</title>
<path fill="none" stroke="midnightblue" d="M177.69,-195.44C151.38,-172.72 115.23,-138.23 91.07,-102 77.29,-81.32 67.27,-54.34 61.57,-36.5"/>
<polygon fill="midnightblue" stroke="midnightblue" points="64.85,-35.25 58.59,-26.7 58.16,-37.29 64.85,-35.25"/>
</g>
<!-- Node2 -->
<g id="node3" class="node">
<title>Node2</title>
<g id="a_node3"><a xlink:href="pll_8h.html" target="_top" xlink:title=" ">
<polygon fill="white" stroke="black" points="398.07,-138.5 398.07,-158.5 474.08,-158.5 474.08,-138.5 398.07,-138.5"/>
<text text-anchor="middle" x="436.07" y="-145.5" font-family="Helvetica,sans-Serif" font-size="10.00">haldls/vx/pll.h</text>
</a>
</g>
</g>
<!-- Node0&#45;&gt;Node2 -->
<g id="edge3" class="edge">
<title>Node0&#45;&gt;Node2</title>
<path fill="none" stroke="midnightblue" d="M294.53,-195.42C330.18,-183.86 369.99,-170.94 398.3,-161.76"/>
<polygon fill="midnightblue" stroke="midnightblue" points="399.74,-164.97 408.17,-158.55 397.58,-158.31 399.74,-164.97"/>
</g>
<!-- Node1&#45;&gt;Node1 -->
<g id="edge2" class="edge">
<title>Node1&#45;&gt;Node1</title>
<path fill="none" stroke="midnightblue" d="M79.97,-26.54C103.79,-32.26 130.14,-28.92 130.14,-16.5 130.14,-5.78 110.51,-1.82 89.81,-4.62"/>
<polygon fill="midnightblue" stroke="midnightblue" points="89.15,-1.18 79.97,-6.46 90.44,-8.06 89.15,-1.18"/>
</g>
<!-- Node2&#45;&gt;Node1 -->
<g id="edge15" class="edge">
<title>Node2&#45;&gt;Node1</title>
<path fill="none" stroke="midnightblue" d="M398.01,-146.8C347.11,-144.52 255.15,-135.61 185.07,-102 164.9,-92.33 165.34,-81.91 147.07,-69 126.74,-54.64 102.09,-40.89 83.57,-31.22"/>
<polygon fill="midnightblue" stroke="midnightblue" points="85,-28.01 74.5,-26.55 81.79,-34.24 85,-28.01"/>
</g>
<!-- Node3 -->
<g id="node4" class="node">
<title>Node3</title>
<g id="a_node4"><a xlink:title=" ">
<polygon fill="white" stroke="#bfbfbf" points="99.68,-75.5 99.68,-95.5 138.46,-95.5 138.46,-75.5 99.68,-75.5"/>
<text text-anchor="middle" x="119.07" y="-82.5" font-family="Helvetica,sans-Serif" font-size="10.00">array</text>
</a>
</g>
</g>
<!-- Node2&#45;&gt;Node3 -->
<g id="edge4" class="edge">
<title>Node2&#45;&gt;Node3</title>
<path fill="none" stroke="midnightblue" d="M397.63,-144.77C342.3,-140.08 237.49,-128.33 152.07,-102 149.91,-101.33 147.71,-100.55 145.52,-99.7"/>
<polygon fill="midnightblue" stroke="midnightblue" points="146.74,-96.41 136.18,-95.64 143.96,-102.84 146.74,-96.41"/>
</g>
<!-- Node4 -->
<g id="node5" class="node">
<title>Node4</title>
<g id="a_node5"><a xlink:title=" ">
<polygon fill="white" stroke="#bfbfbf" points="685.9,-6.5 685.9,-26.5 730.24,-26.5 730.24,-6.5 685.9,-6.5"/>
<text text-anchor="middle" x="708.07" y="-13.5" font-family="Helvetica,sans-Serif" font-size="10.00">iosfwd</text>
</a>
</g>
</g>
<!-- Node2&#45;&gt;Node4 -->
<g id="edge5" class="edge">
<title>Node2&#45;&gt;Node4</title>
<path fill="none" stroke="midnightblue" d="M474.23,-145.69C537.18,-141.89 658.85,-130.94 689.07,-102 706.59,-85.22 709.58,-56.03 709.39,-36.73"/>
<polygon fill="midnightblue" stroke="midnightblue" points="712.88,-36.54 708.99,-26.69 705.89,-36.82 712.88,-36.54"/>
</g>
<!-- Node5 -->
<g id="node6" class="node">
<title>Node5</title>
<g id="a_node6"><a xlink:title=" ">
<polygon fill="white" stroke="#bfbfbf" points="300.17,-75.5 300.17,-95.5 433.97,-95.5 433.97,-75.5 300.17,-75.5"/>
<text text-anchor="middle" x="367.07" y="-82.5" font-family="Helvetica,sans-Serif" font-size="10.00">halco/common/geometry.h</text>
</a>
</g>
</g>
<!-- Node2&#45;&gt;Node5 -->
<g id="edge6" class="edge">
<title>Node2&#45;&gt;Node5</title>
<path fill="none" stroke="midnightblue" d="M425.89,-138.5C415.19,-129.04 398.14,-113.96 385.14,-102.47"/>
<polygon fill="midnightblue" stroke="midnightblue" points="387.1,-99.54 377.29,-95.54 382.47,-104.78 387.1,-99.54"/>
</g>
<!-- Node6 -->
<g id="node7" class="node">
<title>Node6</title>
<g id="a_node7"><a xlink:title=" ">
<polygon fill="white" stroke="#bfbfbf" points="451.95,-69.5 451.95,-101.5 560.19,-101.5 560.19,-69.5 451.95,-69.5"/>
<text text-anchor="start" x="459.95" y="-88.5" font-family="Helvetica,sans-Serif" font-size="10.00">halco/common/typed</text>
<text text-anchor="middle" x="506.07" y="-76.5" font-family="Helvetica,sans-Serif" font-size="10.00">_array.h</text>
</a>
</g>
</g>
<!-- Node2&#45;&gt;Node6 -->
<g id="edge7" class="edge">
<title>Node2&#45;&gt;Node6</title>
<path fill="none" stroke="midnightblue" d="M446.4,-138.5C455.42,-130.64 468.9,-118.9 480.76,-108.56"/>
<polygon fill="midnightblue" stroke="midnightblue" points="483.4,-110.9 488.64,-101.69 478.8,-105.62 483.4,-110.9"/>
</g>
<!-- Node7 -->
<g id="node8" class="node">
<title>Node7</title>
<g id="a_node8"><a xlink:title=" ">
<polygon fill="white" stroke="#bfbfbf" points="578.56,-69.5 578.56,-101.5 679.58,-101.5 679.58,-69.5 578.56,-69.5"/>
<text text-anchor="start" x="586.56" y="-88.5" font-family="Helvetica,sans-Serif" font-size="10.00">halco/hicann&#45;dls/vx</text>
<text text-anchor="middle" x="629.07" y="-76.5" font-family="Helvetica,sans-Serif" font-size="10.00">/pll.h</text>
</a>
</g>
</g>
<!-- Node2&#45;&gt;Node7 -->
<g id="edge8" class="edge">
<title>Node2&#45;&gt;Node7</title>
<path fill="none" stroke="midnightblue" d="M464.55,-138.5C492.63,-129.62 536.35,-115.81 571.67,-104.64"/>
<polygon fill="midnightblue" stroke="midnightblue" points="572.9,-107.92 581.38,-101.57 570.79,-101.25 572.9,-107.92"/>
</g>
<!-- Node8 -->
<g id="node9" class="node">
<title>Node8</title>
<g id="a_node9"><a xlink:href="cerealization_8h.html" target="_top" xlink:title=" ">
<polygon fill="white" stroke="black" points="736.4,-75.5 736.4,-95.5 845.75,-95.5 845.75,-75.5 736.4,-75.5"/>
<text text-anchor="middle" x="791.07" y="-82.5" font-family="Helvetica,sans-Serif" font-size="10.00">haldls/cerealization.h</text>
</a>
</g>
</g>
<!-- Node2&#45;&gt;Node8 -->
<g id="edge9" class="edge">
<title>Node2&#45;&gt;Node8</title>
<path fill="none" stroke="midnightblue" d="M474.14,-142.23C529.07,-134.44 633.68,-118.94 722.07,-102 728.8,-100.71 735.86,-99.25 742.81,-97.75"/>
<polygon fill="midnightblue" stroke="midnightblue" points="743.83,-101.11 752.84,-95.54 742.32,-94.27 743.83,-101.11"/>
</g>
<!-- Node10 -->
<g id="node11" class="node">
<title>Node10</title>
<g id="a_node11"><a xlink:title=" ">
<polygon fill="white" stroke="#bfbfbf" points="928.57,-6.5 928.57,-26.5 1009.57,-26.5 1009.57,-6.5 928.57,-6.5"/>
<text text-anchor="middle" x="969.07" y="-13.5" font-family="Helvetica,sans-Serif" font-size="10.00">hate/visibility.h</text>
</a>
</g>
</g>
<!-- Node2&#45;&gt;Node10 -->
<g id="edge23" class="edge">
<title>Node2&#45;&gt;Node10</title>
<path fill="none" stroke="midnightblue" d="M474.28,-145.91C564.06,-141.75 786.08,-129 855.07,-102 894.57,-86.54 932.49,-53.66 953.1,-33.78"/>
<polygon fill="midnightblue" stroke="midnightblue" points="955.7,-36.14 960.36,-26.62 950.78,-31.16 955.7,-36.14"/>
</g>
<!-- Node13 -->
<g id="node14" class="node">
<title>Node13</title>
<g id="a_node14"><a xlink:href="traits_8h.html" target="_top" xlink:title=" ">
<polygon fill="white" stroke="black" points="194.23,-75.5 194.23,-95.5 281.91,-95.5 281.91,-75.5 194.23,-75.5"/>
<text text-anchor="middle" x="238.07" y="-82.5" font-family="Helvetica,sans-Serif" font-size="10.00">haldls/vx/traits.h</text>
</a>
</g>
</g>
<!-- Node2&#45;&gt;Node13 -->
<g id="edge16" class="edge">
<title>Node2&#45;&gt;Node13</title>
<path fill="none" stroke="midnightblue" d="M406.86,-138.5C372.49,-127.91 315.3,-110.29 277.15,-98.54"/>
<polygon fill="midnightblue" stroke="midnightblue" points="277.99,-95.14 267.41,-95.54 275.93,-101.83 277.99,-95.14"/>
</g>
<!-- Node8&#45;&gt;Node4 -->
<g id="edge13" class="edge">
<title>Node8&#45;&gt;Node4</title>
<path fill="none" stroke="midnightblue" d="M779.88,-75.46C766.39,-64.57 743.5,-46.1 727.2,-32.94"/>
<polygon fill="midnightblue" stroke="midnightblue" points="729.33,-30.16 719.35,-26.61 724.94,-35.61 729.33,-30.16"/>
</g>
<!-- Node9 -->
<g id="node10" class="node">
<title>Node9</title>
<g id="a_node10"><a xlink:title=" ">
<polygon fill="white" stroke="#bfbfbf" points="584.45,-6.5 584.45,-26.5 667.69,-26.5 667.69,-6.5 584.45,-6.5"/>
<text text-anchor="middle" x="626.07" y="-13.5" font-family="Helvetica,sans-Serif" font-size="10.00">hate/type_list.h</text>
</a>
</g>
</g>
<!-- Node8&#45;&gt;Node9 -->
<g id="edge10" class="edge">
<title>Node8&#45;&gt;Node9</title>
<path fill="none" stroke="midnightblue" d="M768.82,-75.46C740.28,-63.88 690.59,-43.7 658.02,-30.47"/>
<polygon fill="midnightblue" stroke="midnightblue" points="659.08,-27.13 648.5,-26.61 656.45,-33.61 659.08,-27.13"/>
</g>
<!-- Node8&#45;&gt;Node10 -->
<g id="edge11" class="edge">
<title>Node8&#45;&gt;Node10</title>
<path fill="none" stroke="midnightblue" d="M815.08,-75.46C846.13,-63.78 900.39,-43.35 935.51,-30.13"/>
<polygon fill="midnightblue" stroke="midnightblue" points="936.75,-33.41 944.88,-26.61 934.29,-26.85 936.75,-33.41"/>
</g>
<!-- Node11 -->
<g id="node12" class="node">
<title>Node11</title>
<g id="a_node12"><a xlink:title=" ">
<polygon fill="white" stroke="#bfbfbf" points="748.62,-6.5 748.62,-26.5 793.52,-26.5 793.52,-6.5 748.62,-6.5"/>
<text text-anchor="middle" x="771.07" y="-13.5" font-family="Helvetica,sans-Serif" font-size="10.00">cstdint</text>
</a>
</g>
</g>
<!-- Node8&#45;&gt;Node11 -->
<g id="edge12" class="edge">
<title>Node8&#45;&gt;Node11</title>
<path fill="none" stroke="midnightblue" d="M788.37,-75.46C785.41,-65.53 780.56,-49.28 776.75,-36.52"/>
<polygon fill="midnightblue" stroke="midnightblue" points="780.07,-35.4 773.85,-26.82 773.36,-37.41 780.07,-35.4"/>
</g>
<!-- Node12 -->
<g id="node13" class="node">
<title>Node12</title>
<g id="a_node13"><a xlink:title=" ">
<polygon fill="white" stroke="#bfbfbf" points="811.95,-6.5 811.95,-26.5 910.19,-26.5 910.19,-6.5 811.95,-6.5"/>
<text text-anchor="middle" x="861.07" y="-13.5" font-family="Helvetica,sans-Serif" font-size="10.00">cereal/macros.hpp</text>
</a>
</g>
</g>
<!-- Node8&#45;&gt;Node12 -->
<g id="edge14" class="edge">
<title>Node8&#45;&gt;Node12</title>
<path fill="none" stroke="midnightblue" d="M800.51,-75.46C811.62,-64.83 830.27,-46.98 843.95,-33.89"/>
<polygon fill="midnightblue" stroke="midnightblue" points="846.53,-36.27 851.33,-26.82 841.69,-31.21 846.53,-36.27"/>
</g>
<!-- Node13&#45;&gt;Node1 -->
<g id="edge19" class="edge">
<title>Node13&#45;&gt;Node1</title>
<path fill="none" stroke="midnightblue" d="M213.53,-75.46C181.78,-63.78 126.29,-43.35 90.38,-30.13"/>
<polygon fill="midnightblue" stroke="midnightblue" points="91.4,-26.78 80.81,-26.61 88.98,-33.35 91.4,-26.78"/>
</g>
<!-- Node13&#45;&gt;Node9 -->
<g id="edge20" class="edge">
<title>Node13&#45;&gt;Node9</title>
<path fill="none" stroke="midnightblue" d="M265.92,-75.46C273.97,-73.09 282.81,-70.72 291.07,-69 415.63,-43.06 450.65,-59.59 575.07,-33 579.8,-31.99 584.72,-30.75 589.56,-29.41"/>
<polygon fill="midnightblue" stroke="midnightblue" points="590.68,-32.73 599.3,-26.57 588.72,-26.01 590.68,-32.73"/>
</g>
<!-- Node14 -->
<g id="node15" class="node">
<title>Node14</title>
<g id="a_node15"><a xlink:title=" ">
<polygon fill="white" stroke="#bfbfbf" points="148.01,-6.5 148.01,-26.5 210.13,-26.5 210.13,-6.5 148.01,-6.5"/>
<text text-anchor="middle" x="179.07" y="-13.5" font-family="Helvetica,sans-Serif" font-size="10.00">type_traits</text>
</a>
</g>
</g>
<!-- Node13&#45;&gt;Node14 -->
<g id="edge17" class="edge">
<title>Node13&#45;&gt;Node14</title>
<path fill="none" stroke="midnightblue" d="M230.11,-75.46C220.93,-65.03 205.62,-47.64 194.15,-34.63"/>
<polygon fill="midnightblue" stroke="midnightblue" points="196.52,-32.01 187.28,-26.82 191.26,-36.64 196.52,-32.01"/>
</g>
<!-- Node15 -->
<g id="node16" class="node">
<title>Node15</title>
<g id="a_node16"><a xlink:title=" ">
<polygon fill="white" stroke="#bfbfbf" points="228.45,-0.5 228.45,-32.5 321.69,-32.5 321.69,-0.5 228.45,-0.5"/>
<text text-anchor="start" x="236.45" y="-19.5" font-family="Helvetica,sans-Serif" font-size="10.00">fisch/vx/container</text>
<text text-anchor="middle" x="275.07" y="-7.5" font-family="Helvetica,sans-Serif" font-size="10.00">_fwd.h</text>
</a>
</g>
</g>
<!-- Node13&#45;&gt;Node15 -->
<g id="edge18" class="edge">
<title>Node13&#45;&gt;Node15</title>
<path fill="none" stroke="midnightblue" d="M243.06,-75.46C247.86,-66.78 255.31,-53.28 261.82,-41.5"/>
<polygon fill="midnightblue" stroke="midnightblue" points="265,-42.98 266.77,-32.53 258.87,-39.6 265,-42.98"/>
</g>
<!-- Node16 -->
<g id="node17" class="node">
<title>Node16</title>
<g id="a_node17"><a xlink:title=" ">
<polygon fill="white" stroke="#bfbfbf" points="339.67,-0.5 339.67,-32.5 438.47,-32.5 438.47,-0.5 339.67,-0.5"/>
<text text-anchor="start" x="347.67" y="-19.5" font-family="Helvetica,sans-Serif" font-size="10.00">boost/utility/enable</text>
<text text-anchor="middle" x="389.07" y="-7.5" font-family="Helvetica,sans-Serif" font-size="10.00">_if.hpp</text>
</a>
</g>
</g>
<!-- Node13&#45;&gt;Node16 -->
<g id="edge21" class="edge">
<title>Node13&#45;&gt;Node16</title>
<path fill="none" stroke="midnightblue" d="M258.44,-75.46C280.71,-65.58 317.07,-49.45 345.78,-36.71"/>
<polygon fill="midnightblue" stroke="midnightblue" points="347.47,-39.79 355.19,-32.53 344.63,-33.39 347.47,-39.79"/>
</g>
<!-- Node17 -->
<g id="node18" class="node">
<title>Node17</title>
<g id="a_node18"><a xlink:title=" ">
<polygon fill="white" stroke="#bfbfbf" points="456.12,-6.5 456.12,-26.5 566.03,-26.5 566.03,-6.5 456.12,-6.5"/>
<text text-anchor="middle" x="511.07" y="-13.5" font-family="Helvetica,sans-Serif" font-size="10.00">fisch/vx/container.def</text>
</a>
</g>
</g>
<!-- Node13&#45;&gt;Node17 -->
<g id="edge22" class="edge">
<title>Node13&#45;&gt;Node17</title>
<path fill="none" stroke="midnightblue" d="M267.98,-75.43C275.49,-73.24 283.56,-70.96 291.07,-69 359.91,-51.01 377.83,-49.37 447.07,-33 452.7,-31.67 458.61,-30.26 464.46,-28.85"/>
<polygon fill="midnightblue" stroke="midnightblue" points="465.3,-32.25 474.2,-26.5 463.66,-25.44 465.3,-32.25"/>
</g>
</g>
</svg>
