<?xml version="1.0" encoding="UTF-8" standalone="no"?>
<!DOCTYPE svg PUBLIC "-//W3C//DTD SVG 1.1//EN"
 "http://www.w3.org/Graphics/SVG/1.1/DTD/svg11.dtd">
<!-- Generated by graphviz version 2.43.0 (0)
 -->
<!-- Title: /jenkins/jenlib_workspaces_f9/bld_nightly&#45;haldls.YmxkX25pZ2h0bHktaGFsZGxzIzQ5Nw.x/haldls/include/haldls/vx/capmem.h Pages: 1 -->
<svg width="386pt" height="251pt"
 viewBox="0.00 0.00 385.91 251.00" xmlns="http://www.w3.org/2000/svg" xmlns:xlink="http://www.w3.org/1999/xlink">
<g id="graph0" class="graph" transform="scale(1 1) rotate(0) translate(4 247)">
<title>/jenkins/jenlib_workspaces_f9/bld_nightly&#45;haldls.YmxkX25pZ2h0bHktaGFsZGxzIzQ5Nw.x/haldls/include/haldls/vx/capmem.h</title>
<polygon fill="white" stroke="transparent" points="-4,4 -4,-247 381.91,-247 381.91,4 -4,4"/>
<!-- Node21 -->
<g id="node1" class="node">
<title>Node21</title>
<g id="a_node1"><a xlink:title=" ">
<polygon fill="#bfbfbf" stroke="black" points="99,-186.5 99,-242.5 278.91,-242.5 278.91,-186.5 99,-186.5"/>
<text text-anchor="start" x="107" y="-229.5" font-family="Helvetica,sans-Serif" font-size="10.00">/jenkins/jenlib_workspaces</text>
<text text-anchor="start" x="107" y="-217.5" font-family="Helvetica,sans-Serif" font-size="10.00">_f9/bld_nightly&#45;haldls.YmxkX25p</text>
<text text-anchor="start" x="107" y="-205.5" font-family="Helvetica,sans-Serif" font-size="10.00">Z2h0bHktaGFsZGxzIzQ5Nw.x/haldls</text>
<text text-anchor="middle" x="188.95" y="-193.5" font-family="Helvetica,sans-Serif" font-size="10.00">/include/haldls/vx/capmem.h</text>
</a>
</g>
</g>
<!-- Node22 -->
<g id="node2" class="node">
<title>Node22</title>
<g id="a_node2"><a xlink:href="vx_2container_8h.html" target="_top" xlink:title=" ">
<polygon fill="white" stroke="black" points="99,-93.5 99,-149.5 278.91,-149.5 278.91,-93.5 99,-93.5"/>
<text text-anchor="start" x="107" y="-136.5" font-family="Helvetica,sans-Serif" font-size="10.00">/jenkins/jenlib_workspaces</text>
<text text-anchor="start" x="107" y="-124.5" font-family="Helvetica,sans-Serif" font-size="10.00">_f9/bld_nightly&#45;haldls.YmxkX25p</text>
<text text-anchor="start" x="107" y="-112.5" font-family="Helvetica,sans-Serif" font-size="10.00">Z2h0bHktaGFsZGxzIzQ5Nw.x/haldls</text>
<text text-anchor="middle" x="188.95" y="-100.5" font-family="Helvetica,sans-Serif" font-size="10.00">/include/haldls/vx/container.h</text>
</a>
</g>
</g>
<!-- Node21&#45;&gt;Node22 -->
<g id="edge1" class="edge">
<title>Node21&#45;&gt;Node22</title>
<path fill="none" stroke="midnightblue" d="M188.95,-176.12C188.95,-167.3 188.95,-158.06 188.95,-149.78"/>
<polygon fill="midnightblue" stroke="midnightblue" points="185.45,-176.2 188.95,-186.2 192.45,-176.2 185.45,-176.2"/>
</g>
<!-- Node23 -->
<g id="node3" class="node">
<title>Node23</title>
<g id="a_node3"><a xlink:href="haldls_8h.html" target="_top" xlink:title=" ">
<polygon fill="white" stroke="black" points="0,-0.5 0,-56.5 179.91,-56.5 179.91,-0.5 0,-0.5"/>
<text text-anchor="start" x="8" y="-43.5" font-family="Helvetica,sans-Serif" font-size="10.00">/jenkins/jenlib_workspaces</text>
<text text-anchor="start" x="8" y="-31.5" font-family="Helvetica,sans-Serif" font-size="10.00">_f9/bld_nightly&#45;haldls.YmxkX25p</text>
<text text-anchor="start" x="8" y="-19.5" font-family="Helvetica,sans-Serif" font-size="10.00">Z2h0bHktaGFsZGxzIzQ5Nw.x/haldls</text>
<text text-anchor="middle" x="89.95" y="-7.5" font-family="Helvetica,sans-Serif" font-size="10.00">/include/haldls/vx/haldls.h</text>
</a>
</g>
</g>
<!-- Node22&#45;&gt;Node23 -->
<g id="edge2" class="edge">
<title>Node22&#45;&gt;Node23</title>
<path fill="none" stroke="midnightblue" d="M151.89,-86.44C141.18,-76.59 129.63,-65.97 119.45,-56.61"/>
<polygon fill="midnightblue" stroke="midnightblue" points="149.79,-89.25 159.52,-93.44 154.52,-84.1 149.79,-89.25"/>
</g>
<!-- Node24 -->
<g id="node4" class="node">
<title>Node24</title>
<g id="a_node4"><a xlink:href="is__readable_8h.html" target="_top" xlink:title=" ">
<polygon fill="white" stroke="black" points="198,-0.5 198,-56.5 377.91,-56.5 377.91,-0.5 198,-0.5"/>
<text text-anchor="start" x="206" y="-43.5" font-family="Helvetica,sans-Serif" font-size="10.00">/jenkins/jenlib_workspaces</text>
<text text-anchor="start" x="206" y="-31.5" font-family="Helvetica,sans-Serif" font-size="10.00">_f9/bld_nightly&#45;haldls.YmxkX25p</text>
<text text-anchor="start" x="206" y="-19.5" font-family="Helvetica,sans-Serif" font-size="10.00">Z2h0bHktaGFsZGxzIzQ5Nw.x/haldls</text>
<text text-anchor="middle" x="287.95" y="-7.5" font-family="Helvetica,sans-Serif" font-size="10.00">/include/haldls/vx/is_readable.h</text>
</a>
</g>
</g>
<!-- Node22&#45;&gt;Node24 -->
<g id="edge3" class="edge">
<title>Node22&#45;&gt;Node24</title>
<path fill="none" stroke="midnightblue" d="M226.01,-86.44C236.73,-76.59 248.27,-65.97 258.46,-56.61"/>
<polygon fill="midnightblue" stroke="midnightblue" points="223.38,-84.1 218.39,-93.44 228.12,-89.25 223.38,-84.1"/>
</g>
</g>
</svg>
