<?xml version="1.0" encoding="UTF-8" standalone="no"?>
<!DOCTYPE svg PUBLIC "-//W3C//DTD SVG 1.1//EN"
 "http://www.w3.org/Graphics/SVG/1.1/DTD/svg11.dtd">
<!-- Generated by graphviz version 2.43.0 (0)
 -->
<!-- Title: /jenkins/jenlib_workspaces_f9/bld_nightly&#45;haldls.YmxkX25pZ2h0bHktaGFsZGxzIzQ5Nw.x/haldls/include/haldls/vx/common.h Pages: 1 -->
<!--zoomable 437 -->
<svg id="main" version="1.1" xmlns="http://www.w3.org/2000/svg" xmlns:xlink="http://www.w3.org/1999/xlink" xml:space="preserve" onload="init(evt)">
<style type="text/css"><![CDATA[
.edge:hover path { stroke: red; }
.edge:hover polygon { stroke: red; fill: red; }
]]></style>
<script type="text/javascript"><![CDATA[
var edges = document.getElementsByTagName('g');
if (edges && edges.length) {
  for (var i=0;i<edges.length;i++) {
    if (edges[i].id.substr(0,4)=='edge') {
      edges[i].setAttribute('class','edge');
    }
  }
}
]]></script>
        <defs>
                <circle id="rim" cx="0" cy="0" r="7"/>
                <circle id="rim2" cx="0" cy="0" r="3.5"/>
                <g id="zoomPlus">
                        <use xlink:href="#rim" fill="#404040">
                                <set attributeName="fill" to="#808080" begin="zoomplus.mouseover" end="zoomplus.mouseout"/>
                        </use>
                        <path d="M-4,0h8M0,-4v8" fill="none" stroke="white" stroke-width="1.5" pointer-events="none"/>
                </g>
                <g id="zoomMin">
                        <use xlink:href="#rim" fill="#404040">
                                <set attributeName="fill" to="#808080" begin="zoomminus.mouseover" end="zoomminus.mouseout"/>
                        </use>
                        <path d="M-4,0h8" fill="none" stroke="white" stroke-width="1.5" pointer-events="none"/>
                </g>
                <g id="dirArrow">
                        <path fill="none" stroke="white" stroke-width="1.5" d="M0,-3.0v7 M-2.5,-0.5L0,-3.0L2.5,-0.5"/>
                </g>
               <g id="resetDef">
                       <use xlink:href="#rim2" fill="#404040">
                               <set attributeName="fill" to="#808080" begin="reset.mouseover" end="reset.mouseout"/>
                       </use>
               </g>
        </defs>

<script type="text/javascript">
var viewWidth = 1420;
var viewHeight = 437;
var sectionId = 'dynsection-1';
</script>
<script xlink:href="svgpan.js"/>
<svg id="graph" class="graph">
<g id="viewport">
<title>/jenkins/jenlib_workspaces_f9/bld_nightly&#45;haldls.YmxkX25pZ2h0bHktaGFsZGxzIzQ5Nw.x/haldls/include/haldls/vx/common.h</title>
<polygon fill="white" stroke="transparent" points="-4,4 -4,-433 1415.64,-433 1415.64,4 -4,4"/>
<!-- Node4 -->
<g id="node1" class="node">
<title>Node4</title>
<g id="a_node1"><a xlink:title=" ">
<polygon fill="#bfbfbf" stroke="black" points="729,-372.5 729,-428.5 908.91,-428.5 908.91,-372.5 729,-372.5"/>
<text text-anchor="start" x="737" y="-415.5" font-family="Helvetica,sans-Serif" font-size="10.00">/jenkins/jenlib_workspaces</text>
<text text-anchor="start" x="737" y="-403.5" font-family="Helvetica,sans-Serif" font-size="10.00">_f9/bld_nightly&#45;haldls.YmxkX25p</text>
<text text-anchor="start" x="737" y="-391.5" font-family="Helvetica,sans-Serif" font-size="10.00">Z2h0bHktaGFsZGxzIzQ5Nw.x/haldls</text>
<text text-anchor="middle" x="818.95" y="-379.5" font-family="Helvetica,sans-Serif" font-size="10.00">/include/haldls/vx/common.h</text>
</a>
</g>
</g>
<!-- Node5 -->
<g id="node2" class="node">
<title>Node5</title>
<g id="a_node2"><a xlink:href="vx_2capmem_8h.html" target="_top" xlink:title=" ">
<polygon fill="white" stroke="black" points="0,-186.5 0,-242.5 179.91,-242.5 179.91,-186.5 0,-186.5"/>
<text text-anchor="start" x="8" y="-229.5" font-family="Helvetica,sans-Serif" font-size="10.00">/jenkins/jenlib_workspaces</text>
<text text-anchor="start" x="8" y="-217.5" font-family="Helvetica,sans-Serif" font-size="10.00">_f9/bld_nightly&#45;haldls.YmxkX25p</text>
<text text-anchor="start" x="8" y="-205.5" font-family="Helvetica,sans-Serif" font-size="10.00">Z2h0bHktaGFsZGxzIzQ5Nw.x/haldls</text>
<text text-anchor="middle" x="89.95" y="-193.5" font-family="Helvetica,sans-Serif" font-size="10.00">/include/haldls/vx/capmem.h</text>
</a>
</g>
</g>
<!-- Node4&#45;&gt;Node5 -->
<g id="edge1" class="edge">
<title>Node4&#45;&gt;Node5</title>
<path fill="none" stroke="midnightblue" d="M718.66,-392.72C587,-382.92 363.53,-363 285.95,-336 224.08,-314.47 161.05,-271.07 123.73,-242.66"/>
<polygon fill="midnightblue" stroke="midnightblue" points="718.52,-396.22 728.76,-393.46 719.04,-389.23 718.52,-396.22"/>
</g>
<!-- Node9 -->
<g id="node6" class="node">
<title>Node9</title>
<g id="a_node6"><a xlink:href="vx_2synapse_8h.html" target="_top" xlink:title=" ">
<polygon fill="white" stroke="black" points="552,-279.5 552,-335.5 731.91,-335.5 731.91,-279.5 552,-279.5"/>
<text text-anchor="start" x="560" y="-322.5" font-family="Helvetica,sans-Serif" font-size="10.00">/jenkins/jenlib_workspaces</text>
<text text-anchor="start" x="560" y="-310.5" font-family="Helvetica,sans-Serif" font-size="10.00">_f9/bld_nightly&#45;haldls.YmxkX25p</text>
<text text-anchor="start" x="560" y="-298.5" font-family="Helvetica,sans-Serif" font-size="10.00">Z2h0bHktaGFsZGxzIzQ5Nw.x/haldls</text>
<text text-anchor="middle" x="641.95" y="-286.5" font-family="Helvetica,sans-Serif" font-size="10.00">/include/haldls/vx/synapse.h</text>
</a>
</g>
</g>
<!-- Node4&#45;&gt;Node9 -->
<g id="edge5" class="edge">
<title>Node4&#45;&gt;Node9</title>
<path fill="none" stroke="midnightblue" d="M757.41,-367.86C736.96,-357.35 714.4,-345.75 694.68,-335.61"/>
<polygon fill="midnightblue" stroke="midnightblue" points="755.83,-370.98 766.33,-372.44 759.03,-364.76 755.83,-370.98"/>
</g>
<!-- Node12 -->
<g id="node9" class="node">
<title>Node12</title>
<g id="a_node9"><a xlink:href="synapse_8h.html" target="_top" xlink:title=" ">
<polygon fill="white" stroke="black" points="670,-186.5 670,-242.5 849.91,-242.5 849.91,-186.5 670,-186.5"/>
<text text-anchor="start" x="678" y="-229.5" font-family="Helvetica,sans-Serif" font-size="10.00">/jenkins/jenlib_workspaces</text>
<text text-anchor="start" x="678" y="-217.5" font-family="Helvetica,sans-Serif" font-size="10.00">_f9/bld_nightly&#45;haldls.YmxkX25p</text>
<text text-anchor="start" x="678" y="-205.5" font-family="Helvetica,sans-Serif" font-size="10.00">Z2h0bHktaGFsZGxzIzQ5Nw.x/haldls</text>
<text text-anchor="middle" x="759.95" y="-193.5" font-family="Helvetica,sans-Serif" font-size="10.00">/include/lola/vx/synapse.h</text>
</a>
</g>
</g>
<!-- Node4&#45;&gt;Node12 -->
<g id="edge24" class="edge">
<title>Node4&#45;&gt;Node12</title>
<path fill="none" stroke="midnightblue" d="M793.01,-363.89C787.64,-355.13 782.53,-345.51 778.95,-336 767.41,-305.27 762.88,-267.58 761.1,-242.62"/>
<polygon fill="midnightblue" stroke="midnightblue" points="790.09,-365.81 798.43,-372.34 795.98,-362.03 790.09,-365.81"/>
</g>
<!-- Node14 -->
<g id="node11" class="node">
<title>Node14</title>
<g id="a_node11"><a xlink:href="vx_2ppu_8h.html" target="_top" xlink:title=" ">
<polygon fill="white" stroke="black" points="788,-279.5 788,-335.5 967.91,-335.5 967.91,-279.5 788,-279.5"/>
<text text-anchor="start" x="796" y="-322.5" font-family="Helvetica,sans-Serif" font-size="10.00">/jenkins/jenlib_workspaces</text>
<text text-anchor="start" x="796" y="-310.5" font-family="Helvetica,sans-Serif" font-size="10.00">_f9/bld_nightly&#45;haldls.YmxkX25p</text>
<text text-anchor="start" x="796" y="-298.5" font-family="Helvetica,sans-Serif" font-size="10.00">Z2h0bHktaGFsZGxzIzQ5Nw.x/haldls</text>
<text text-anchor="middle" x="877.95" y="-286.5" font-family="Helvetica,sans-Serif" font-size="10.00">/include/haldls/vx/ppu.h</text>
</a>
</g>
</g>
<!-- Node4&#45;&gt;Node14 -->
<g id="edge14" class="edge">
<title>Node4&#45;&gt;Node14</title>
<path fill="none" stroke="midnightblue" d="M842.26,-363.55C848.25,-354.31 854.61,-344.51 860.26,-335.78"/>
<polygon fill="midnightblue" stroke="midnightblue" points="839.16,-361.9 836.65,-372.2 845.03,-365.71 839.16,-361.9"/>
</g>
<!-- Node16 -->
<g id="node13" class="node">
<title>Node16</title>
<g id="a_node13"><a xlink:href="systime_8h.html" target="_top" xlink:title=" ">
<polygon fill="white" stroke="black" points="295,-279.5 295,-335.5 474.91,-335.5 474.91,-279.5 295,-279.5"/>
<text text-anchor="start" x="303" y="-322.5" font-family="Helvetica,sans-Serif" font-size="10.00">/jenkins/jenlib_workspaces</text>
<text text-anchor="start" x="303" y="-310.5" font-family="Helvetica,sans-Serif" font-size="10.00">_f9/bld_nightly&#45;haldls.YmxkX25p</text>
<text text-anchor="start" x="303" y="-298.5" font-family="Helvetica,sans-Serif" font-size="10.00">Z2h0bHktaGFsZGxzIzQ5Nw.x/haldls</text>
<text text-anchor="middle" x="384.95" y="-286.5" font-family="Helvetica,sans-Serif" font-size="10.00">/include/haldls/vx/systime.h</text>
</a>
</g>
</g>
<!-- Node4&#45;&gt;Node16 -->
<g id="edge18" class="edge">
<title>Node4&#45;&gt;Node16</title>
<path fill="none" stroke="midnightblue" d="M718.56,-378.45C645.01,-363.03 546.04,-342.28 475.03,-327.39"/>
<polygon fill="midnightblue" stroke="midnightblue" points="718.26,-381.96 728.76,-380.59 719.7,-375.11 718.26,-381.96"/>
</g>
<!-- Node17 -->
<g id="node14" class="node">
<title>Node17</title>
<g id="a_node14"><a xlink:href="cadc_8h.html" target="_top" xlink:title=" ">
<polygon fill="white" stroke="black" points="1104,-186.5 1104,-242.5 1283.91,-242.5 1283.91,-186.5 1104,-186.5"/>
<text text-anchor="start" x="1112" y="-229.5" font-family="Helvetica,sans-Serif" font-size="10.00">/jenkins/jenlib_workspaces</text>
<text text-anchor="start" x="1112" y="-217.5" font-family="Helvetica,sans-Serif" font-size="10.00">_f9/bld_nightly&#45;haldls.YmxkX25p</text>
<text text-anchor="start" x="1112" y="-205.5" font-family="Helvetica,sans-Serif" font-size="10.00">Z2h0bHktaGFsZGxzIzQ5Nw.x/haldls</text>
<text text-anchor="middle" x="1193.95" y="-193.5" font-family="Helvetica,sans-Serif" font-size="10.00">/include/lola/vx/cadc.h</text>
</a>
</g>
</g>
<!-- Node4&#45;&gt;Node17 -->
<g id="edge20" class="edge">
<title>Node4&#45;&gt;Node17</title>
<path fill="none" stroke="midnightblue" d="M918.4,-370.13C939.05,-361.23 959.74,-349.99 976.95,-336 1000.58,-316.8 990.93,-297.71 1014.95,-279 1029.84,-267.4 1067.22,-253.47 1104,-241.62"/>
<polygon fill="midnightblue" stroke="midnightblue" points="916.82,-367 908.93,-374.06 919.51,-373.46 916.82,-367"/>
</g>
<!-- Node18 -->
<g id="node15" class="node">
<title>Node18</title>
<g id="a_node15"><a xlink:href="dac_8h.html" target="_top" xlink:title=" ">
<polygon fill="white" stroke="black" points="1024,-279.5 1024,-335.5 1203.91,-335.5 1203.91,-279.5 1024,-279.5"/>
<text text-anchor="start" x="1032" y="-322.5" font-family="Helvetica,sans-Serif" font-size="10.00">/jenkins/jenlib_workspaces</text>
<text text-anchor="start" x="1032" y="-310.5" font-family="Helvetica,sans-Serif" font-size="10.00">_f9/bld_nightly&#45;haldls.YmxkX25p</text>
<text text-anchor="start" x="1032" y="-298.5" font-family="Helvetica,sans-Serif" font-size="10.00">Z2h0bHktaGFsZGxzIzQ5Nw.x/haldls</text>
<text text-anchor="middle" x="1113.95" y="-286.5" font-family="Helvetica,sans-Serif" font-size="10.00">/include/lola/vx/dac.h</text>
</a>
</g>
</g>
<!-- Node4&#45;&gt;Node18 -->
<g id="edge22" class="edge">
<title>Node4&#45;&gt;Node18</title>
<path fill="none" stroke="midnightblue" d="M916.54,-369.4C951.99,-358.46 991.79,-346.18 1026.33,-335.53"/>
<polygon fill="midnightblue" stroke="midnightblue" points="915.19,-366.15 906.66,-372.44 917.25,-372.84 915.19,-366.15"/>
</g>
<!-- Node19 -->
<g id="node16" class="node">
<title>Node19</title>
<g id="a_node16"><a xlink:href="omnibus__constants_8h.html" target="_top" xlink:title=" ">
<polygon fill="white" stroke="black" points="1222.26,-279.5 1222.26,-335.5 1411.64,-335.5 1411.64,-279.5 1222.26,-279.5"/>
<text text-anchor="start" x="1230.26" y="-322.5" font-family="Helvetica,sans-Serif" font-size="10.00">/jenkins/jenlib_workspaces</text>
<text text-anchor="start" x="1230.26" y="-310.5" font-family="Helvetica,sans-Serif" font-size="10.00">_f9/bld_nightly&#45;haldls.YmxkX25p</text>
<text text-anchor="start" x="1230.26" y="-298.5" font-family="Helvetica,sans-Serif" font-size="10.00">Z2h0bHktaGFsZGxzIzQ5Nw.x/haldls</text>
<text text-anchor="middle" x="1316.95" y="-286.5" font-family="Helvetica,sans-Serif" font-size="10.00">/include/haldls/vx/omnibus_constants.h</text>
</a>
</g>
</g>
<!-- Node4&#45;&gt;Node19 -->
<g id="edge25" class="edge">
<title>Node4&#45;&gt;Node19</title>
<path fill="none" stroke="midnightblue" d="M919.07,-386.15C999.01,-374.82 1113.67,-357.07 1212.95,-336 1215.97,-335.36 1219.03,-334.69 1222.11,-333.99"/>
<polygon fill="midnightblue" stroke="midnightblue" points="918.42,-382.71 909.01,-387.57 919.4,-389.64 918.42,-382.71"/>
</g>
<!-- Node6 -->
<g id="node3" class="node">
<title>Node6</title>
<g id="a_node3"><a xlink:href="vx_2container_8h.html" target="_top" xlink:title=" ">
<polygon fill="white" stroke="black" points="434,-93.5 434,-149.5 613.91,-149.5 613.91,-93.5 434,-93.5"/>
<text text-anchor="start" x="442" y="-136.5" font-family="Helvetica,sans-Serif" font-size="10.00">/jenkins/jenlib_workspaces</text>
<text text-anchor="start" x="442" y="-124.5" font-family="Helvetica,sans-Serif" font-size="10.00">_f9/bld_nightly&#45;haldls.YmxkX25p</text>
<text text-anchor="start" x="442" y="-112.5" font-family="Helvetica,sans-Serif" font-size="10.00">Z2h0bHktaGFsZGxzIzQ5Nw.x/haldls</text>
<text text-anchor="middle" x="523.95" y="-100.5" font-family="Helvetica,sans-Serif" font-size="10.00">/include/haldls/vx/container.h</text>
</a>
</g>
</g>
<!-- Node5&#45;&gt;Node6 -->
<g id="edge2" class="edge">
<title>Node5&#45;&gt;Node6</title>
<path fill="none" stroke="midnightblue" d="M190.09,-186.89C191.38,-186.59 192.67,-186.29 193.95,-186 274.72,-167.57 367.42,-150.05 433.97,-138.1"/>
<polygon fill="midnightblue" stroke="midnightblue" points="188.97,-183.56 180.05,-189.27 190.59,-190.37 188.97,-183.56"/>
</g>
<!-- Node7 -->
<g id="node4" class="node">
<title>Node7</title>
<g id="a_node4"><a xlink:href="haldls_8h.html" target="_top" xlink:title=" ">
<polygon fill="white" stroke="black" points="434,-0.5 434,-56.5 613.91,-56.5 613.91,-0.5 434,-0.5"/>
<text text-anchor="start" x="442" y="-43.5" font-family="Helvetica,sans-Serif" font-size="10.00">/jenkins/jenlib_workspaces</text>
<text text-anchor="start" x="442" y="-31.5" font-family="Helvetica,sans-Serif" font-size="10.00">_f9/bld_nightly&#45;haldls.YmxkX25p</text>
<text text-anchor="start" x="442" y="-19.5" font-family="Helvetica,sans-Serif" font-size="10.00">Z2h0bHktaGFsZGxzIzQ5Nw.x/haldls</text>
<text text-anchor="middle" x="523.95" y="-7.5" font-family="Helvetica,sans-Serif" font-size="10.00">/include/haldls/vx/haldls.h</text>
</a>
</g>
</g>
<!-- Node6&#45;&gt;Node7 -->
<g id="edge3" class="edge">
<title>Node6&#45;&gt;Node7</title>
<path fill="none" stroke="midnightblue" d="M523.95,-83.12C523.95,-74.3 523.95,-65.06 523.95,-56.78"/>
<polygon fill="midnightblue" stroke="midnightblue" points="520.45,-83.2 523.95,-93.2 527.45,-83.2 520.45,-83.2"/>
</g>
<!-- Node8 -->
<g id="node5" class="node">
<title>Node8</title>
<g id="a_node5"><a xlink:href="is__readable_8h.html" target="_top" xlink:title=" ">
<polygon fill="white" stroke="black" points="769,-0.5 769,-56.5 948.91,-56.5 948.91,-0.5 769,-0.5"/>
<text text-anchor="start" x="777" y="-43.5" font-family="Helvetica,sans-Serif" font-size="10.00">/jenkins/jenlib_workspaces</text>
<text text-anchor="start" x="777" y="-31.5" font-family="Helvetica,sans-Serif" font-size="10.00">_f9/bld_nightly&#45;haldls.YmxkX25p</text>
<text text-anchor="start" x="777" y="-19.5" font-family="Helvetica,sans-Serif" font-size="10.00">Z2h0bHktaGFsZGxzIzQ5Nw.x/haldls</text>
<text text-anchor="middle" x="858.95" y="-7.5" font-family="Helvetica,sans-Serif" font-size="10.00">/include/haldls/vx/is_readable.h</text>
</a>
</g>
</g>
<!-- Node6&#45;&gt;Node8 -->
<g id="edge4" class="edge">
<title>Node6&#45;&gt;Node8</title>
<path fill="none" stroke="midnightblue" d="M623.86,-93.36C669.89,-80.86 724.11,-66.13 768.87,-53.97"/>
<polygon fill="midnightblue" stroke="midnightblue" points="622.9,-89.99 614.17,-95.99 624.74,-96.75 622.9,-89.99"/>
</g>
<!-- Node9&#45;&gt;Node6 -->
<g id="edge10" class="edge">
<title>Node9&#45;&gt;Node6</title>
<path fill="none" stroke="midnightblue" d="M643.75,-269.03C643.22,-243.7 638.96,-210.52 622.95,-186 613.24,-171.13 598.7,-159.03 583.72,-149.54"/>
<polygon fill="midnightblue" stroke="midnightblue" points="640.25,-269.37 643.77,-279.36 647.25,-269.35 640.25,-269.37"/>
</g>
<!-- Node10 -->
<g id="node7" class="node">
<title>Node10</title>
<g id="a_node7"><a xlink:href="event_8h.html" target="_top" xlink:title=" ">
<polygon fill="white" stroke="black" points="236,-186.5 236,-242.5 415.91,-242.5 415.91,-186.5 236,-186.5"/>
<text text-anchor="start" x="244" y="-229.5" font-family="Helvetica,sans-Serif" font-size="10.00">/jenkins/jenlib_workspaces</text>
<text text-anchor="start" x="244" y="-217.5" font-family="Helvetica,sans-Serif" font-size="10.00">_f9/bld_nightly&#45;haldls.YmxkX25p</text>
<text text-anchor="start" x="244" y="-205.5" font-family="Helvetica,sans-Serif" font-size="10.00">Z2h0bHktaGFsZGxzIzQ5Nw.x/haldls</text>
<text text-anchor="middle" x="325.95" y="-193.5" font-family="Helvetica,sans-Serif" font-size="10.00">/include/haldls/vx/event.h</text>
</a>
</g>
</g>
<!-- Node9&#45;&gt;Node10 -->
<g id="edge6" class="edge">
<title>Node9&#45;&gt;Node10</title>
<path fill="none" stroke="midnightblue" d="M542.21,-277.78C501.74,-266.12 455.35,-252.76 415.93,-241.41"/>
<polygon fill="midnightblue" stroke="midnightblue" points="541.24,-281.14 551.82,-280.54 543.18,-274.41 541.24,-281.14"/>
</g>
<!-- Node11 -->
<g id="node8" class="node">
<title>Node11</title>
<g id="a_node8"><a xlink:href="padi_8h.html" target="_top" xlink:title=" ">
<polygon fill="white" stroke="black" points="434,-186.5 434,-242.5 613.91,-242.5 613.91,-186.5 434,-186.5"/>
<text text-anchor="start" x="442" y="-229.5" font-family="Helvetica,sans-Serif" font-size="10.00">/jenkins/jenlib_workspaces</text>
<text text-anchor="start" x="442" y="-217.5" font-family="Helvetica,sans-Serif" font-size="10.00">_f9/bld_nightly&#45;haldls.YmxkX25p</text>
<text text-anchor="start" x="442" y="-205.5" font-family="Helvetica,sans-Serif" font-size="10.00">Z2h0bHktaGFsZGxzIzQ5Nw.x/haldls</text>
<text text-anchor="middle" x="523.95" y="-193.5" font-family="Helvetica,sans-Serif" font-size="10.00">/include/haldls/vx/padi.h</text>
</a>
</g>
</g>
<!-- Node9&#45;&gt;Node11 -->
<g id="edge8" class="edge">
<title>Node9&#45;&gt;Node11</title>
<path fill="none" stroke="midnightblue" d="M598.9,-273.29C585.81,-263.21 571.6,-252.25 559.11,-242.61"/>
<polygon fill="midnightblue" stroke="midnightblue" points="596.81,-276.11 606.87,-279.44 601.09,-270.56 596.81,-276.11"/>
</g>
<!-- Node9&#45;&gt;Node12 -->
<g id="edge11" class="edge">
<title>Node9&#45;&gt;Node12</title>
<path fill="none" stroke="midnightblue" d="M685.01,-273.29C698.09,-263.21 712.3,-252.25 724.8,-242.61"/>
<polygon fill="midnightblue" stroke="midnightblue" points="682.82,-270.56 677.04,-279.44 687.09,-276.11 682.82,-270.56"/>
</g>
<!-- Node10&#45;&gt;Node6 -->
<g id="edge7" class="edge">
<title>Node10&#45;&gt;Node6</title>
<path fill="none" stroke="midnightblue" d="M394.19,-182.14C417.22,-171.56 442.71,-159.84 464.97,-149.61"/>
<polygon fill="midnightblue" stroke="midnightblue" points="392.45,-179.09 384.82,-186.44 395.37,-185.45 392.45,-179.09"/>
</g>
<!-- Node11&#45;&gt;Node6 -->
<g id="edge9" class="edge">
<title>Node11&#45;&gt;Node6</title>
<path fill="none" stroke="midnightblue" d="M523.95,-176.12C523.95,-167.3 523.95,-158.06 523.95,-149.78"/>
<polygon fill="midnightblue" stroke="midnightblue" points="520.45,-176.2 523.95,-186.2 527.45,-176.2 520.45,-176.2"/>
</g>
<!-- Node13 -->
<g id="node10" class="node">
<title>Node13</title>
<g id="a_node10"><a xlink:href="container_8h.html" target="_top" xlink:title=" ">
<polygon fill="white" stroke="black" points="906,-93.5 906,-149.5 1085.91,-149.5 1085.91,-93.5 906,-93.5"/>
<text text-anchor="start" x="914" y="-136.5" font-family="Helvetica,sans-Serif" font-size="10.00">/jenkins/jenlib_workspaces</text>
<text text-anchor="start" x="914" y="-124.5" font-family="Helvetica,sans-Serif" font-size="10.00">_f9/bld_nightly&#45;haldls.YmxkX25p</text>
<text text-anchor="start" x="914" y="-112.5" font-family="Helvetica,sans-Serif" font-size="10.00">Z2h0bHktaGFsZGxzIzQ5Nw.x/haldls</text>
<text text-anchor="middle" x="995.95" y="-100.5" font-family="Helvetica,sans-Serif" font-size="10.00">/include/lola/vx/container.h</text>
</a>
</g>
</g>
<!-- Node12&#45;&gt;Node13 -->
<g id="edge12" class="edge">
<title>Node12&#45;&gt;Node13</title>
<path fill="none" stroke="midnightblue" d="M839.46,-182.84C867.38,-172.08 898.53,-160.06 925.65,-149.61"/>
<polygon fill="midnightblue" stroke="midnightblue" points="838.19,-179.58 830.12,-186.44 840.71,-186.11 838.19,-179.58"/>
</g>
<!-- Node13&#45;&gt;Node8 -->
<g id="edge13" class="edge">
<title>Node13&#45;&gt;Node8</title>
<path fill="none" stroke="midnightblue" d="M946.82,-87.86C931.4,-77.62 914.55,-66.43 899.77,-56.61"/>
<polygon fill="midnightblue" stroke="midnightblue" points="944.95,-90.83 955.22,-93.44 948.83,-84.99 944.95,-90.83"/>
</g>
<!-- Node14&#45;&gt;Node6 -->
<g id="edge15" class="edge">
<title>Node14&#45;&gt;Node6</title>
<path fill="none" stroke="midnightblue" d="M882.45,-269.26C883.47,-242.59 879.97,-207.68 858.95,-186 825.73,-151.73 701.45,-135.44 614,-128.08"/>
<polygon fill="midnightblue" stroke="midnightblue" points="878.94,-269.21 881.83,-279.4 885.93,-269.63 878.94,-269.21"/>
</g>
<!-- Node15 -->
<g id="node12" class="node">
<title>Node15</title>
<g id="a_node12"><a xlink:href="ppu_8h.html" target="_top" xlink:title=" ">
<polygon fill="white" stroke="black" points="906,-186.5 906,-242.5 1085.91,-242.5 1085.91,-186.5 906,-186.5"/>
<text text-anchor="start" x="914" y="-229.5" font-family="Helvetica,sans-Serif" font-size="10.00">/jenkins/jenlib_workspaces</text>
<text text-anchor="start" x="914" y="-217.5" font-family="Helvetica,sans-Serif" font-size="10.00">_f9/bld_nightly&#45;haldls.YmxkX25p</text>
<text text-anchor="start" x="914" y="-205.5" font-family="Helvetica,sans-Serif" font-size="10.00">Z2h0bHktaGFsZGxzIzQ5Nw.x/haldls</text>
<text text-anchor="middle" x="995.95" y="-193.5" font-family="Helvetica,sans-Serif" font-size="10.00">/include/lola/vx/ppu.h</text>
</a>
</g>
</g>
<!-- Node14&#45;&gt;Node15 -->
<g id="edge16" class="edge">
<title>Node14&#45;&gt;Node15</title>
<path fill="none" stroke="midnightblue" d="M921.01,-273.29C934.09,-263.21 948.3,-252.25 960.8,-242.61"/>
<polygon fill="midnightblue" stroke="midnightblue" points="918.82,-270.56 913.04,-279.44 923.09,-276.11 918.82,-270.56"/>
</g>
<!-- Node15&#45;&gt;Node13 -->
<g id="edge17" class="edge">
<title>Node15&#45;&gt;Node13</title>
<path fill="none" stroke="midnightblue" d="M995.95,-176.12C995.95,-167.3 995.95,-158.06 995.95,-149.78"/>
<polygon fill="midnightblue" stroke="midnightblue" points="992.45,-176.2 995.95,-186.2 999.45,-176.2 992.45,-176.2"/>
</g>
<!-- Node16&#45;&gt;Node6 -->
<g id="edge19" class="edge">
<title>Node16&#45;&gt;Node6</title>
<path fill="none" stroke="midnightblue" d="M285.24,-286.72C262.39,-277.32 240.77,-263.45 226.95,-243 212.77,-222.01 211.02,-205.7 226.95,-186 252.65,-154.23 356.11,-137.65 433.74,-129.52"/>
<polygon fill="midnightblue" stroke="midnightblue" points="284.15,-290.05 294.74,-290.35 286.65,-283.51 284.15,-290.05"/>
</g>
<!-- Node17&#45;&gt;Node13 -->
<g id="edge21" class="edge">
<title>Node17&#45;&gt;Node13</title>
<path fill="none" stroke="midnightblue" d="M1125.72,-182.14C1102.69,-171.56 1077.19,-159.84 1054.94,-149.61"/>
<polygon fill="midnightblue" stroke="midnightblue" points="1124.53,-185.45 1135.08,-186.44 1127.46,-179.09 1124.53,-185.45"/>
</g>
<!-- Node18&#45;&gt;Node13 -->
<g id="edge23" class="edge">
<title>Node18&#45;&gt;Node13</title>
<path fill="none" stroke="midnightblue" d="M1213.69,-276.45C1251.83,-263.96 1287.56,-250.63 1292.95,-243 1307.57,-222.31 1308.88,-205.7 1292.95,-186 1267.26,-154.23 1163.8,-137.65 1086.16,-129.52"/>
<polygon fill="midnightblue" stroke="midnightblue" points="1212.39,-273.19 1203.96,-279.6 1214.55,-279.85 1212.39,-273.19"/>
</g>
</g>
</svg>
        <g id="navigator" transform="translate(0 0)" fill="#404254">
                <rect fill="#f2f5e9" fill-opacity="0.5" stroke="#606060" stroke-width=".5" x="0" y="0" width="60" height="60"/>
                <use id="zoomplus" xlink:href="#zoomPlus" x="17" y="9" onmousedown="handleZoom(evt,'in')"/>
                <use id="zoomminus" xlink:href="#zoomMin" x="42" y="9" onmousedown="handleZoom(evt,'out')"/>
                <use id="reset" xlink:href="#resetDef" x="30" y="36" onmousedown="handleReset()"/>
                <g id="arrowUp" xlink:href="#dirArrow" transform="translate(30 24)" onmousedown="handlePan(0,-1)">
                  <use xlink:href="#rim" fill="#404040">
                        <set attributeName="fill" to="#808080" begin="arrowUp.mouseover" end="arrowUp.mouseout"/>
                  </use>
                  <path fill="none" stroke="white" stroke-width="1.5" d="M0,-3.0v7 M-2.5,-0.5L0,-3.0L2.5,-0.5"/>
                </g>
                <g id="arrowRight" xlink:href="#dirArrow" transform="rotate(90) translate(36 -43)" onmousedown="handlePan(1,0)">
                  <use xlink:href="#rim" fill="#404040">
                        <set attributeName="fill" to="#808080" begin="arrowRight.mouseover" end="arrowRight.mouseout"/>
                  </use>
                  <path fill="none" stroke="white" stroke-width="1.5" d="M0,-3.0v7 M-2.5,-0.5L0,-3.0L2.5,-0.5"/>
                </g>
                <g id="arrowDown" xlink:href="#dirArrow" transform="rotate(180) translate(-30 -48)" onmousedown="handlePan(0,1)">
                  <use xlink:href="#rim" fill="#404040">
                        <set attributeName="fill" to="#808080" begin="arrowDown.mouseover" end="arrowDown.mouseout"/>
                  </use>
                  <path fill="none" stroke="white" stroke-width="1.5" d="M0,-3.0v7 M-2.5,-0.5L0,-3.0L2.5,-0.5"/>
                </g>
                <g id="arrowLeft" xlink:href="#dirArrow" transform="rotate(270) translate(-36 17)" onmousedown="handlePan(-1,0)">
                  <use xlink:href="#rim" fill="#404040">
                        <set attributeName="fill" to="#808080" begin="arrowLeft.mouseover" end="arrowLeft.mouseout"/>
                  </use>
                  <path fill="none" stroke="white" stroke-width="1.5" d="M0,-3.0v7 M-2.5,-0.5L0,-3.0L2.5,-0.5"/>
                </g>
        </g>
        <svg viewBox="0 0 15 15" width="100%" height="30px" preserveAspectRatio="xMaxYMin meet">
         <g id="arrow_out" transform="scale(0.3 0.3)">
          <a xlink:href="vx_2common_8h__dep__incl_org.svg" target="_base">
           <rect id="button" ry="5" rx="5" y="6" x="6" height="38" width="38"
                fill="#f2f5e9" fill-opacity="0.5" stroke="#606060" stroke-width="1.0"/>
           <path id="arrow"
             d="M 11.500037,31.436501 C 11.940474,20.09759 22.043105,11.32322 32.158766,21.979434 L 37.068811,17.246167 C 37.068811,17.246167 37.088388,32 37.088388,32 L 22.160133,31.978069 C 22.160133,31.978069 26.997745,27.140456 26.997745,27.140456 C 18.528582,18.264221 13.291696,25.230495 11.500037,31.436501 z"
             style="fill:#404040;"/>
          </a>
         </g>
        </svg>
</svg>
