<?xml version="1.0" encoding="UTF-8" standalone="no"?>
<!DOCTYPE svg PUBLIC "-//W3C//DTD SVG 1.1//EN"
 "http://www.w3.org/Graphics/SVG/1.1/DTD/svg11.dtd">
<!-- Generated by graphviz version 2.43.0 (0)
 -->
<!-- Title: /jenkins/jenlib_workspaces_f9/bld_nightly&#45;haldls.YmxkX25pZ2h0bHktaGFsZGxzIzQ5Nw.x/haldls/include/haldls/vx/synapse.h Pages: 1 -->
<svg width="1399pt" height="203pt"
 viewBox="0.00 0.00 1399.01 203.00" xmlns="http://www.w3.org/2000/svg" xmlns:xlink="http://www.w3.org/1999/xlink">
<g id="graph0" class="graph" transform="scale(1 1) rotate(0) translate(4 199)">
<title>/jenkins/jenlib_workspaces_f9/bld_nightly&#45;haldls.YmxkX25pZ2h0bHktaGFsZGxzIzQ5Nw.x/haldls/include/haldls/vx/synapse.h</title>
<polygon fill="white" stroke="transparent" points="-4,4 -4,-199 1395.01,-199 1395.01,4 -4,4"/>
<!-- Node0 -->
<g id="node1" class="node">
<title>Node0</title>
<g id="a_node1"><a xlink:title=" ">
<polygon fill="#bfbfbf" stroke="black" points="484.43,-138.5 484.43,-194.5 664.34,-194.5 664.34,-138.5 484.43,-138.5"/>
<text text-anchor="start" x="492.43" y="-181.5" font-family="Helvetica,sans-Serif" font-size="10.00">/jenkins/jenlib_workspaces</text>
<text text-anchor="start" x="492.43" y="-169.5" font-family="Helvetica,sans-Serif" font-size="10.00">_f9/bld_nightly&#45;haldls.YmxkX25p</text>
<text text-anchor="start" x="492.43" y="-157.5" font-family="Helvetica,sans-Serif" font-size="10.00">Z2h0bHktaGFsZGxzIzQ5Nw.x/haldls</text>
<text text-anchor="middle" x="574.39" y="-145.5" font-family="Helvetica,sans-Serif" font-size="10.00">/include/haldls/vx/synapse.h</text>
</a>
</g>
</g>
<!-- Node1 -->
<g id="node2" class="node">
<title>Node1</title>
<g id="a_node2"><a xlink:title=" ">
<polygon fill="white" stroke="#bfbfbf" points="0,-75.5 0,-95.5 38.78,-95.5 38.78,-75.5 0,-75.5"/>
<text text-anchor="middle" x="19.39" y="-82.5" font-family="Helvetica,sans-Serif" font-size="10.00">array</text>
</a>
</g>
</g>
<!-- Node0&#45;&gt;Node1 -->
<g id="edge1" class="edge">
<title>Node0&#45;&gt;Node1</title>
<path fill="none" stroke="midnightblue" d="M484.03,-165.07C377.24,-162.21 195.36,-149.85 47.39,-102 45.75,-101.47 44.1,-100.84 42.47,-100.15"/>
<polygon fill="midnightblue" stroke="midnightblue" points="43.95,-96.98 33.44,-95.66 40.83,-103.25 43.95,-96.98"/>
</g>
<!-- Node2 -->
<g id="node3" class="node">
<title>Node2</title>
<g id="a_node3"><a xlink:title=" ">
<polygon fill="white" stroke="#bfbfbf" points="56.33,-75.5 56.33,-95.5 108.44,-95.5 108.44,-75.5 56.33,-75.5"/>
<text text-anchor="middle" x="82.39" y="-82.5" font-family="Helvetica,sans-Serif" font-size="10.00">ostream</text>
</a>
</g>
</g>
<!-- Node0&#45;&gt;Node2 -->
<g id="edge2" class="edge">
<title>Node0&#45;&gt;Node2</title>
<path fill="none" stroke="midnightblue" d="M484.4,-160.42C391.12,-153.43 241.81,-137.44 117.39,-102 114.78,-101.26 112.12,-100.36 109.48,-99.37"/>
<polygon fill="midnightblue" stroke="midnightblue" points="110.77,-96.12 100.2,-95.53 108.1,-102.59 110.77,-96.12"/>
</g>
<!-- Node3 -->
<g id="node4" class="node">
<title>Node3</title>
<g id="a_node4"><a xlink:title=" ">
<polygon fill="white" stroke="#bfbfbf" points="126.49,-75.5 126.49,-95.5 260.29,-95.5 260.29,-75.5 126.49,-75.5"/>
<text text-anchor="middle" x="193.39" y="-82.5" font-family="Helvetica,sans-Serif" font-size="10.00">halco/common/geometry.h</text>
</a>
</g>
</g>
<!-- Node0&#45;&gt;Node3 -->
<g id="edge3" class="edge">
<title>Node0&#45;&gt;Node3</title>
<path fill="none" stroke="midnightblue" d="M484.1,-146.78C410.2,-131.46 308.18,-110.3 246.72,-97.56"/>
<polygon fill="midnightblue" stroke="midnightblue" points="247.35,-94.11 236.85,-95.51 245.93,-100.97 247.35,-94.11"/>
</g>
<!-- Node4 -->
<g id="node5" class="node">
<title>Node4</title>
<g id="a_node5"><a xlink:title=" ">
<polygon fill="white" stroke="#bfbfbf" points="278.27,-69.5 278.27,-101.5 386.51,-101.5 386.51,-69.5 278.27,-69.5"/>
<text text-anchor="start" x="286.27" y="-88.5" font-family="Helvetica,sans-Serif" font-size="10.00">halco/common/typed</text>
<text text-anchor="middle" x="332.39" y="-76.5" font-family="Helvetica,sans-Serif" font-size="10.00">_array.h</text>
</a>
</g>
</g>
<!-- Node0&#45;&gt;Node4 -->
<g id="edge4" class="edge">
<title>Node0&#45;&gt;Node4</title>
<path fill="none" stroke="midnightblue" d="M491.44,-138.42C457.37,-127.3 418.81,-114.71 388.19,-104.72"/>
<polygon fill="midnightblue" stroke="midnightblue" points="389.14,-101.34 378.55,-101.57 386.97,-108 389.14,-101.34"/>
</g>
<!-- Node5 -->
<g id="node6" class="node">
<title>Node5</title>
<g id="a_node6"><a xlink:title=" ">
<polygon fill="white" stroke="#bfbfbf" points="404.88,-69.5 404.88,-101.5 505.9,-101.5 505.9,-69.5 404.88,-69.5"/>
<text text-anchor="start" x="412.88" y="-88.5" font-family="Helvetica,sans-Serif" font-size="10.00">halco/hicann&#45;dls/vx</text>
<text text-anchor="middle" x="455.39" y="-76.5" font-family="Helvetica,sans-Serif" font-size="10.00">/capmem.h</text>
</a>
</g>
</g>
<!-- Node0&#45;&gt;Node5 -->
<g id="edge5" class="edge">
<title>Node0&#45;&gt;Node5</title>
<path fill="none" stroke="midnightblue" d="M533.43,-138.31C518.07,-128.11 500.87,-116.69 486.53,-107.18"/>
<polygon fill="midnightblue" stroke="midnightblue" points="488.29,-104.14 478.02,-101.52 484.42,-109.97 488.29,-104.14"/>
</g>
<!-- Node6 -->
<g id="node7" class="node">
<title>Node6</title>
<g id="a_node7"><a xlink:title=" ">
<polygon fill="white" stroke="#bfbfbf" points="523.88,-69.5 523.88,-101.5 624.9,-101.5 624.9,-69.5 523.88,-69.5"/>
<text text-anchor="start" x="531.88" y="-88.5" font-family="Helvetica,sans-Serif" font-size="10.00">halco/hicann&#45;dls/vx</text>
<text text-anchor="middle" x="574.39" y="-76.5" font-family="Helvetica,sans-Serif" font-size="10.00">/switch_rows.h</text>
</a>
</g>
</g>
<!-- Node0&#45;&gt;Node6 -->
<g id="edge6" class="edge">
<title>Node0&#45;&gt;Node6</title>
<path fill="none" stroke="midnightblue" d="M574.39,-138.31C574.39,-129.65 574.39,-120.11 574.39,-111.6"/>
<polygon fill="midnightblue" stroke="midnightblue" points="577.89,-111.52 574.39,-101.52 570.89,-111.52 577.89,-111.52"/>
</g>
<!-- Node7 -->
<g id="node8" class="node">
<title>Node7</title>
<g id="a_node8"><a xlink:title=" ">
<polygon fill="white" stroke="#bfbfbf" points="642.88,-69.5 642.88,-101.5 743.9,-101.5 743.9,-69.5 642.88,-69.5"/>
<text text-anchor="start" x="650.88" y="-88.5" font-family="Helvetica,sans-Serif" font-size="10.00">halco/hicann&#45;dls/vx</text>
<text text-anchor="middle" x="693.39" y="-76.5" font-family="Helvetica,sans-Serif" font-size="10.00">/synapse.h</text>
</a>
</g>
</g>
<!-- Node0&#45;&gt;Node7 -->
<g id="edge7" class="edge">
<title>Node0&#45;&gt;Node7</title>
<path fill="none" stroke="midnightblue" d="M615.34,-138.31C630.71,-128.11 647.91,-116.69 662.24,-107.18"/>
<polygon fill="midnightblue" stroke="midnightblue" points="664.36,-109.97 670.76,-101.52 660.49,-104.14 664.36,-109.97"/>
</g>
<!-- Node8 -->
<g id="node9" class="node">
<title>Node8</title>
<g id="a_node9"><a xlink:href="vx_2common_8h.html" target="_top" xlink:title=" ">
<polygon fill="white" stroke="black" points="1144.21,-75.5 1144.21,-95.5 1248.56,-95.5 1248.56,-75.5 1144.21,-75.5"/>
<text text-anchor="middle" x="1196.39" y="-82.5" font-family="Helvetica,sans-Serif" font-size="10.00">haldls/vx/common.h</text>
</a>
</g>
</g>
<!-- Node0&#45;&gt;Node8 -->
<g id="edge8" class="edge">
<title>Node0&#45;&gt;Node8</title>
<path fill="none" stroke="midnightblue" d="M664.5,-154.05C792.48,-137.8 1023.62,-108.44 1134.18,-94.4"/>
<polygon fill="midnightblue" stroke="midnightblue" points="1134.7,-97.86 1144.18,-93.13 1133.82,-90.92 1134.7,-97.86"/>
</g>
<!-- Node12 -->
<g id="node13" class="node">
<title>Node12</title>
<g id="a_node13"><a xlink:href="vx_2genpybind_8h.html" target="_top" xlink:title=" ">
<polygon fill="white" stroke="black" points="322.32,-6.5 322.32,-26.5 434.46,-26.5 434.46,-6.5 322.32,-6.5"/>
<text text-anchor="middle" x="378.39" y="-13.5" font-family="Helvetica,sans-Serif" font-size="10.00">haldls/vx/genpybind.h</text>
</a>
</g>
</g>
<!-- Node0&#45;&gt;Node12 -->
<g id="edge12" class="edge">
<title>Node0&#45;&gt;Node12</title>
<path fill="none" stroke="midnightblue" d="M664.36,-148.67C724.73,-133.48 787.47,-107.55 753.39,-69 710.08,-20.02 526,-43.01 461.39,-33 452.45,-31.62 443,-30 433.81,-28.34"/>
<polygon fill="midnightblue" stroke="midnightblue" points="434.43,-24.9 423.96,-26.54 433.17,-31.78 434.43,-24.9"/>
</g>
<!-- Node13 -->
<g id="node14" class="node">
<title>Node13</title>
<g id="a_node14"><a xlink:href="traits_8h.html" target="_top" xlink:title=" ">
<polygon fill="white" stroke="black" points="800.55,-75.5 800.55,-95.5 888.23,-95.5 888.23,-75.5 800.55,-75.5"/>
<text text-anchor="middle" x="844.39" y="-82.5" font-family="Helvetica,sans-Serif" font-size="10.00">haldls/vx/traits.h</text>
</a>
</g>
</g>
<!-- Node0&#45;&gt;Node13 -->
<g id="edge14" class="edge">
<title>Node0&#45;&gt;Node13</title>
<path fill="none" stroke="midnightblue" d="M664.67,-139.08C711.75,-125.31 767.02,-109.14 803.71,-98.4"/>
<polygon fill="midnightblue" stroke="midnightblue" points="804.92,-101.69 813.54,-95.53 802.96,-94.98 804.92,-101.69"/>
</g>
<!-- Node18 -->
<g id="node19" class="node">
<title>Node18</title>
<g id="a_node19"><a xlink:title=" ">
<polygon fill="white" stroke="#bfbfbf" points="1031.88,-6.5 1031.88,-26.5 1112.89,-26.5 1112.89,-6.5 1031.88,-6.5"/>
<text text-anchor="middle" x="1072.39" y="-13.5" font-family="Helvetica,sans-Serif" font-size="10.00">hate/visibility.h</text>
</a>
</g>
</g>
<!-- Node0&#45;&gt;Node18 -->
<g id="edge23" class="edge">
<title>Node0&#45;&gt;Node18</title>
<path fill="none" stroke="midnightblue" d="M664.4,-154.11C730.09,-144.29 820.68,-127.59 897.39,-102 953.61,-83.25 1015.07,-50.44 1048.11,-31.7"/>
<polygon fill="midnightblue" stroke="midnightblue" points="1050.1,-34.6 1057.03,-26.59 1046.62,-28.53 1050.1,-34.6"/>
</g>
<!-- Node9 -->
<g id="node10" class="node">
<title>Node9</title>
<g id="a_node10"><a xlink:title=" ">
<polygon fill="white" stroke="#bfbfbf" points="1131.33,-6.5 1131.33,-26.5 1193.45,-26.5 1193.45,-6.5 1131.33,-6.5"/>
<text text-anchor="middle" x="1162.39" y="-13.5" font-family="Helvetica,sans-Serif" font-size="10.00">type_traits</text>
</a>
</g>
</g>
<!-- Node8&#45;&gt;Node9 -->
<g id="edge9" class="edge">
<title>Node8&#45;&gt;Node9</title>
<path fill="none" stroke="midnightblue" d="M1191.8,-75.46C1186.66,-65.33 1178.19,-48.63 1171.65,-35.75"/>
<polygon fill="midnightblue" stroke="midnightblue" points="1174.77,-34.16 1167.12,-26.82 1168.52,-37.32 1174.77,-34.16"/>
</g>
<!-- Node10 -->
<g id="node11" class="node">
<title>Node10</title>
<g id="a_node11"><a xlink:title=" ">
<polygon fill="white" stroke="#bfbfbf" points="1211,-6.5 1211,-26.5 1249.77,-26.5 1249.77,-6.5 1211,-6.5"/>
<text text-anchor="middle" x="1230.39" y="-13.5" font-family="Helvetica,sans-Serif" font-size="10.00">utility</text>
</a>
</g>
</g>
<!-- Node8&#45;&gt;Node10 -->
<g id="edge10" class="edge">
<title>Node8&#45;&gt;Node10</title>
<path fill="none" stroke="midnightblue" d="M1200.97,-75.46C1206.12,-65.33 1214.59,-48.63 1221.12,-35.75"/>
<polygon fill="midnightblue" stroke="midnightblue" points="1224.25,-37.32 1225.66,-26.82 1218.01,-34.16 1224.25,-37.32"/>
</g>
<!-- Node11 -->
<g id="node12" class="node">
<title>Node11</title>
<g id="a_node12"><a xlink:title=" ">
<polygon fill="white" stroke="#bfbfbf" points="1267.76,-6.5 1267.76,-26.5 1391.01,-26.5 1391.01,-6.5 1267.76,-6.5"/>
<text text-anchor="middle" x="1329.39" y="-13.5" font-family="Helvetica,sans-Serif" font-size="10.00">fisch/vx/omnibus_data.h</text>
</a>
</g>
</g>
<!-- Node8&#45;&gt;Node11 -->
<g id="edge11" class="edge">
<title>Node8&#45;&gt;Node11</title>
<path fill="none" stroke="midnightblue" d="M1214.32,-75.46C1236.93,-64.08 1276.01,-44.39 1302.27,-31.16"/>
<polygon fill="midnightblue" stroke="midnightblue" points="1303.95,-34.23 1311.31,-26.61 1300.8,-27.98 1303.95,-34.23"/>
</g>
<!-- Node12&#45;&gt;Node12 -->
<g id="edge13" class="edge">
<title>Node12&#45;&gt;Node12</title>
<path fill="none" stroke="midnightblue" d="M402.28,-26.54C426.11,-32.26 452.46,-28.92 452.46,-16.5 452.46,-5.78 432.82,-1.82 412.12,-4.62"/>
<polygon fill="midnightblue" stroke="midnightblue" points="411.47,-1.18 402.28,-6.46 412.76,-8.06 411.47,-1.18"/>
</g>
<!-- Node13&#45;&gt;Node9 -->
<g id="edge15" class="edge">
<title>Node13&#45;&gt;Node9</title>
<path fill="none" stroke="midnightblue" d="M888.3,-78.95C943.59,-71.37 1041.17,-56.04 1122.39,-33 1125.37,-32.15 1128.45,-31.17 1131.5,-30.12"/>
<polygon fill="midnightblue" stroke="midnightblue" points="1132.87,-33.35 1141.05,-26.61 1130.46,-26.78 1132.87,-33.35"/>
</g>
<!-- Node13&#45;&gt;Node12 -->
<g id="edge19" class="edge">
<title>Node13&#45;&gt;Node12</title>
<path fill="none" stroke="midnightblue" d="M813.88,-75.42C805.07,-73.05 795.4,-70.69 786.39,-69 643.56,-42.16 605.14,-54.35 461.39,-33 452.34,-31.66 442.77,-30.05 433.46,-28.38"/>
<polygon fill="midnightblue" stroke="midnightblue" points="433.98,-24.92 423.52,-26.56 432.72,-31.8 433.98,-24.92"/>
</g>
<!-- Node14 -->
<g id="node15" class="node">
<title>Node14</title>
<g id="a_node15"><a xlink:title=" ">
<polygon fill="white" stroke="#bfbfbf" points="470.04,-6.5 470.04,-26.5 562.74,-26.5 562.74,-6.5 470.04,-6.5"/>
<text text-anchor="middle" x="516.39" y="-13.5" font-family="Helvetica,sans-Serif" font-size="10.00">boost/variant.hpp</text>
</a>
</g>
</g>
<!-- Node13&#45;&gt;Node14 -->
<g id="edge16" class="edge">
<title>Node13&#45;&gt;Node14</title>
<path fill="none" stroke="midnightblue" d="M812.61,-75.42C804.13,-73.16 794.94,-70.86 786.39,-69 691.7,-48.47 665.93,-54.17 571.39,-33 566.37,-31.88 561.14,-30.57 555.97,-29.21"/>
<polygon fill="midnightblue" stroke="midnightblue" points="556.78,-25.8 546.21,-26.54 554.93,-32.55 556.78,-25.8"/>
</g>
<!-- Node15 -->
<g id="node16" class="node">
<title>Node15</title>
<g id="a_node16"><a xlink:title=" ">
<polygon fill="white" stroke="#bfbfbf" points="580.77,-0.5 580.77,-32.5 674.01,-32.5 674.01,-0.5 580.77,-0.5"/>
<text text-anchor="start" x="588.77" y="-19.5" font-family="Helvetica,sans-Serif" font-size="10.00">fisch/vx/container</text>
<text text-anchor="middle" x="627.39" y="-7.5" font-family="Helvetica,sans-Serif" font-size="10.00">_fwd.h</text>
</a>
</g>
</g>
<!-- Node13&#45;&gt;Node15 -->
<g id="edge17" class="edge">
<title>Node13&#45;&gt;Node15</title>
<path fill="none" stroke="midnightblue" d="M815.12,-75.46C781.53,-65.09 725.65,-47.84 683.58,-34.85"/>
<polygon fill="midnightblue" stroke="midnightblue" points="684.6,-31.5 674.01,-31.9 682.54,-38.19 684.6,-31.5"/>
</g>
<!-- Node16 -->
<g id="node17" class="node">
<title>Node16</title>
<g id="a_node17"><a xlink:title=" ">
<polygon fill="white" stroke="#bfbfbf" points="691.77,-0.5 691.77,-32.5 785.01,-32.5 785.01,-0.5 691.77,-0.5"/>
<text text-anchor="start" x="699.77" y="-19.5" font-family="Helvetica,sans-Serif" font-size="10.00">fisch/vx/container</text>
<text text-anchor="middle" x="738.39" y="-7.5" font-family="Helvetica,sans-Serif" font-size="10.00">_ticket.h</text>
</a>
</g>
</g>
<!-- Node13&#45;&gt;Node16 -->
<g id="edge18" class="edge">
<title>Node13&#45;&gt;Node16</title>
<path fill="none" stroke="midnightblue" d="M830.09,-75.46C814.93,-65.88 790.48,-50.42 770.63,-37.88"/>
<polygon fill="midnightblue" stroke="midnightblue" points="772.5,-34.92 762.17,-32.53 768.76,-40.84 772.5,-34.92"/>
</g>
<!-- Node17 -->
<g id="node18" class="node">
<title>Node17</title>
<g id="a_node18"><a xlink:title=" ">
<polygon fill="white" stroke="#bfbfbf" points="802.76,-6.5 802.76,-26.5 886.01,-26.5 886.01,-6.5 802.76,-6.5"/>
<text text-anchor="middle" x="844.39" y="-13.5" font-family="Helvetica,sans-Serif" font-size="10.00">hate/type_list.h</text>
</a>
</g>
</g>
<!-- Node13&#45;&gt;Node17 -->
<g id="edge20" class="edge">
<title>Node13&#45;&gt;Node17</title>
<path fill="none" stroke="midnightblue" d="M844.39,-75.46C844.39,-65.63 844.39,-49.61 844.39,-36.9"/>
<polygon fill="midnightblue" stroke="midnightblue" points="847.89,-36.82 844.39,-26.82 840.89,-36.82 847.89,-36.82"/>
</g>
<!-- Node13&#45;&gt;Node18 -->
<g id="edge21" class="edge">
<title>Node13&#45;&gt;Node18</title>
<path fill="none" stroke="midnightblue" d="M876.8,-75.45C912.71,-65.36 972.31,-48.42 1023.39,-33 1026.97,-31.92 1030.7,-30.77 1034.42,-29.62"/>
<polygon fill="midnightblue" stroke="midnightblue" points="1035.69,-32.89 1044.18,-26.56 1033.6,-26.21 1035.69,-32.89"/>
</g>
<!-- Node19 -->
<g id="node20" class="node">
<title>Node19</title>
<g id="a_node20"><a xlink:title=" ">
<polygon fill="white" stroke="#bfbfbf" points="904.43,-6.5 904.43,-26.5 1014.34,-26.5 1014.34,-6.5 904.43,-6.5"/>
<text text-anchor="middle" x="959.39" y="-13.5" font-family="Helvetica,sans-Serif" font-size="10.00">fisch/vx/container.def</text>
</a>
</g>
</g>
<!-- Node13&#45;&gt;Node19 -->
<g id="edge22" class="edge">
<title>Node13&#45;&gt;Node19</title>
<path fill="none" stroke="midnightblue" d="M859.9,-75.46C879.19,-64.23 912.34,-44.91 935.04,-31.69"/>
<polygon fill="midnightblue" stroke="midnightblue" points="936.88,-34.67 943.76,-26.61 933.35,-28.62 936.88,-34.67"/>
</g>
</g>
</svg>
