<?xml version="1.0" encoding="UTF-8" standalone="no"?>
<!DOCTYPE svg PUBLIC "-//W3C//DTD SVG 1.1//EN"
 "http://www.w3.org/Graphics/SVG/1.1/DTD/svg11.dtd">
<!-- Generated by graphviz version 2.43.0 (0)
 -->
<!-- Title: /jenkins/jenlib_workspaces_f9/bld_nightly&#45;haldls.YmxkX25pZ2h0bHktaGFsZGxzIzU5Nw.x/haldls/include/lola/vx/cadc.h Pages: 1 -->
<svg width="1228pt" height="134pt"
 viewBox="0.00 0.00 1228.21 134.00" xmlns="http://www.w3.org/2000/svg" xmlns:xlink="http://www.w3.org/1999/xlink">
<g id="graph0" class="graph" transform="scale(1 1) rotate(0) translate(4 130)">
<title>/jenkins/jenlib_workspaces_f9/bld_nightly&#45;haldls.YmxkX25pZ2h0bHktaGFsZGxzIzU5Nw.x/haldls/include/lola/vx/cadc.h</title>
<polygon fill="white" stroke="transparent" points="-4,4 -4,-130 1224.21,-130 1224.21,4 -4,4"/>
<!-- Node0 -->
<g id="node1" class="node">
<title>Node0</title>
<g id="a_node1"><a xlink:title=" ">
<polygon fill="#bfbfbf" stroke="black" points="563.69,-69.5 563.69,-125.5 743.04,-125.5 743.04,-69.5 563.69,-69.5"/>
<text text-anchor="start" x="571.69" y="-112.5" font-family="Helvetica,sans-Serif" font-size="10.00">/jenkins/jenlib_workspaces</text>
<text text-anchor="start" x="571.69" y="-100.5" font-family="Helvetica,sans-Serif" font-size="10.00">_f9/bld_nightly&#45;haldls.YmxkX25p</text>
<text text-anchor="start" x="571.69" y="-88.5" font-family="Helvetica,sans-Serif" font-size="10.00">Z2h0bHktaGFsZGxzIzU5Nw.x/haldls</text>
<text text-anchor="middle" x="653.36" y="-76.5" font-family="Helvetica,sans-Serif" font-size="10.00">/include/lola/vx/cadc.h</text>
</a>
</g>
</g>
<!-- Node1 -->
<g id="node2" class="node">
<title>Node1</title>
<g id="a_node2"><a xlink:title=" ">
<polygon fill="white" stroke="#bfbfbf" points="0,-6.5 0,-26.5 142.73,-26.5 142.73,-6.5 0,-6.5"/>
<text text-anchor="middle" x="71.36" y="-13.5" font-family="Helvetica,sans-Serif" font-size="10.00">boost/hana/adapt_struct.hpp</text>
</a>
</g>
</g>
<!-- Node0&#45;&gt;Node1 -->
<g id="edge1" class="edge">
<title>Node0&#45;&gt;Node1</title>
<path fill="none" stroke="midnightblue" d="M563.33,-86.91C462.67,-75.77 294.93,-55.96 151.36,-33 142.93,-31.65 134.02,-30.08 125.34,-28.46"/>
<polygon fill="midnightblue" stroke="midnightblue" points="125.76,-24.98 115.28,-26.55 124.46,-31.85 125.76,-24.98"/>
</g>
<!-- Node2 -->
<g id="node3" class="node">
<title>Node2</title>
<g id="a_node3"><a xlink:title=" ">
<polygon fill="white" stroke="#bfbfbf" points="160.58,-6.5 160.58,-26.5 282.15,-26.5 282.15,-6.5 160.58,-6.5"/>
<text text-anchor="middle" x="221.36" y="-13.5" font-family="Helvetica,sans-Serif" font-size="10.00">halco/common/iter_all.h</text>
</a>
</g>
</g>
<!-- Node0&#45;&gt;Node2 -->
<g id="edge2" class="edge">
<title>Node0&#45;&gt;Node2</title>
<path fill="none" stroke="midnightblue" d="M563.53,-81.88C490.15,-69.66 383.84,-51.34 291.36,-33 284.72,-31.68 277.74,-30.22 270.86,-28.75"/>
<polygon fill="midnightblue" stroke="midnightblue" points="271.43,-25.29 260.91,-26.58 269.94,-32.13 271.43,-25.29"/>
</g>
<!-- Node3 -->
<g id="node4" class="node">
<title>Node3</title>
<g id="a_node4"><a xlink:title=" ">
<polygon fill="white" stroke="#bfbfbf" points="300.24,-0.5 300.24,-32.5 408.49,-32.5 408.49,-0.5 300.24,-0.5"/>
<text text-anchor="start" x="308.24" y="-19.5" font-family="Helvetica,sans-Serif" font-size="10.00">halco/common/typed</text>
<text text-anchor="middle" x="354.36" y="-7.5" font-family="Helvetica,sans-Serif" font-size="10.00">_array.h</text>
</a>
</g>
</g>
<!-- Node0&#45;&gt;Node3 -->
<g id="edge3" class="edge">
<title>Node0&#45;&gt;Node3</title>
<path fill="none" stroke="midnightblue" d="M563.65,-72.8C516.99,-60.47 461.03,-45.68 418.72,-34.5"/>
<polygon fill="midnightblue" stroke="midnightblue" points="419.38,-31.06 408.82,-31.89 417.59,-37.83 419.38,-31.06"/>
</g>
<!-- Node4 -->
<g id="node5" class="node">
<title>Node4</title>
<g id="a_node5"><a xlink:title=" ">
<polygon fill="white" stroke="#bfbfbf" points="426.24,-0.5 426.24,-32.5 534.49,-32.5 534.49,-0.5 426.24,-0.5"/>
<text text-anchor="start" x="434.24" y="-19.5" font-family="Helvetica,sans-Serif" font-size="10.00">halco/common/typed</text>
<text text-anchor="middle" x="480.36" y="-7.5" font-family="Helvetica,sans-Serif" font-size="10.00">_heap_array.h</text>
</a>
</g>
</g>
<!-- Node0&#45;&gt;Node4 -->
<g id="edge4" class="edge">
<title>Node0&#45;&gt;Node4</title>
<path fill="none" stroke="midnightblue" d="M593.83,-69.31C570.33,-58.58 543.88,-46.5 522.43,-36.71"/>
<polygon fill="midnightblue" stroke="midnightblue" points="523.82,-33.5 513.27,-32.52 520.91,-39.86 523.82,-33.5"/>
</g>
<!-- Node5 -->
<g id="node6" class="node">
<title>Node5</title>
<g id="a_node6"><a xlink:title=" ">
<polygon fill="white" stroke="#bfbfbf" points="552.8,-6.5 552.8,-26.5 639.93,-26.5 639.93,-6.5 552.8,-6.5"/>
<text text-anchor="middle" x="596.36" y="-13.5" font-family="Helvetica,sans-Serif" font-size="10.00">haldls/vx/cadc.h</text>
</a>
</g>
</g>
<!-- Node0&#45;&gt;Node5 -->
<g id="edge5" class="edge">
<title>Node0&#45;&gt;Node5</title>
<path fill="none" stroke="midnightblue" d="M633.75,-69.31C625.56,-57.97 616.29,-45.12 609.03,-35.05"/>
<polygon fill="midnightblue" stroke="midnightblue" points="611.7,-32.78 603.01,-26.71 606.02,-36.87 611.7,-32.78"/>
</g>
<!-- Node6 -->
<g id="node7" class="node">
<title>Node6</title>
<g id="a_node7"><a xlink:title=" ">
<polygon fill="white" stroke="#bfbfbf" points="658.19,-6.5 658.19,-26.5 762.54,-26.5 762.54,-6.5 658.19,-6.5"/>
<text text-anchor="middle" x="710.36" y="-13.5" font-family="Helvetica,sans-Serif" font-size="10.00">haldls/vx/common.h</text>
</a>
</g>
</g>
<!-- Node0&#45;&gt;Node6 -->
<g id="edge6" class="edge">
<title>Node0&#45;&gt;Node6</title>
<path fill="none" stroke="midnightblue" d="M672.98,-69.31C681.16,-57.97 690.44,-45.12 697.7,-35.05"/>
<polygon fill="midnightblue" stroke="midnightblue" points="700.7,-36.87 703.71,-26.71 695.03,-32.78 700.7,-36.87"/>
</g>
<!-- Node7 -->
<g id="node8" class="node">
<title>Node7</title>
<g id="a_node8"><a xlink:title=" ">
<polygon fill="white" stroke="#bfbfbf" points="780.53,-6.5 780.53,-26.5 868.2,-26.5 868.2,-6.5 780.53,-6.5"/>
<text text-anchor="middle" x="824.36" y="-13.5" font-family="Helvetica,sans-Serif" font-size="10.00">haldls/vx/traits.h</text>
</a>
</g>
</g>
<!-- Node0&#45;&gt;Node7 -->
<g id="edge7" class="edge">
<title>Node0&#45;&gt;Node7</title>
<path fill="none" stroke="midnightblue" d="M712.21,-69.31C740.45,-56.27 772.99,-41.23 795.72,-30.73"/>
<polygon fill="midnightblue" stroke="midnightblue" points="797.21,-33.9 804.82,-26.53 794.28,-27.54 797.21,-33.9"/>
</g>
<!-- Node8 -->
<g id="node9" class="node">
<title>Node8</title>
<g id="a_node9"><a xlink:title=" ">
<polygon fill="white" stroke="#bfbfbf" points="885.86,-6.5 885.86,-26.5 966.87,-26.5 966.87,-6.5 885.86,-6.5"/>
<text text-anchor="middle" x="926.36" y="-13.5" font-family="Helvetica,sans-Serif" font-size="10.00">hate/visibility.h</text>
</a>
</g>
</g>
<!-- Node0&#45;&gt;Node8 -->
<g id="edge8" class="edge">
<title>Node0&#45;&gt;Node8</title>
<path fill="none" stroke="midnightblue" d="M743.19,-71.7C784.19,-60.21 833.32,-46.21 877.36,-33 880.95,-31.92 884.68,-30.79 888.4,-29.63"/>
<polygon fill="midnightblue" stroke="midnightblue" points="889.66,-32.9 898.16,-26.58 887.58,-26.22 889.66,-32.9"/>
</g>
<!-- Node9 -->
<g id="node10" class="node">
<title>Node9</title>
<g id="a_node10"><a xlink:href="genpybind_8h.html" target="_top" xlink:title=" ">
<polygon fill="white" stroke="black" points="984.57,-6.5 984.57,-26.5 1086.15,-26.5 1086.15,-6.5 984.57,-6.5"/>
<text text-anchor="middle" x="1035.36" y="-13.5" font-family="Helvetica,sans-Serif" font-size="10.00">lola/vx/genpybind.h</text>
</a>
</g>
</g>
<!-- Node0&#45;&gt;Node9 -->
<g id="edge9" class="edge">
<title>Node0&#45;&gt;Node9</title>
<path fill="none" stroke="midnightblue" d="M743.14,-80.41C808.13,-68.39 897.96,-50.99 976.36,-33 981.65,-31.79 987.19,-30.44 992.66,-29.06"/>
<polygon fill="midnightblue" stroke="midnightblue" points="993.56,-32.44 1002.38,-26.56 991.82,-25.66 993.56,-32.44"/>
</g>
<!-- Node10 -->
<g id="node11" class="node">
<title>Node10</title>
<g id="a_node11"><a xlink:title=" ">
<polygon fill="white" stroke="#bfbfbf" points="1122.52,-6.5 1122.52,-26.5 1220.21,-26.5 1220.21,-6.5 1122.52,-6.5"/>
<text text-anchor="middle" x="1171.36" y="-13.5" font-family="Helvetica,sans-Serif" font-size="10.00">pybind11/numpy.h</text>
</a>
</g>
</g>
<!-- Node0&#45;&gt;Node10 -->
<g id="edge11" class="edge">
<title>Node0&#45;&gt;Node10</title>
<path fill="none" stroke="midnightblue" d="M743.39,-87.41C836.53,-77.23 985.94,-58.72 1113.36,-33 1118.92,-31.88 1124.73,-30.53 1130.44,-29.11"/>
<polygon fill="midnightblue" stroke="midnightblue" points="1131.72,-32.4 1140.53,-26.5 1129.97,-25.62 1131.72,-32.4"/>
</g>
<!-- Node9&#45;&gt;Node9 -->
<g id="edge10" class="edge">
<title>Node9&#45;&gt;Node9</title>
<path fill="none" stroke="midnightblue" d="M1052.64,-26.62C1075.88,-35.58 1104.16,-32.2 1104.16,-16.5 1104.16,-2.94 1083.09,1.42 1062.37,-3.4"/>
<polygon fill="midnightblue" stroke="midnightblue" points="1061.17,-0.1 1052.64,-6.38 1063.22,-6.8 1061.17,-0.1"/>
</g>
</g>
</svg>
