<?xml version="1.0" encoding="UTF-8" standalone="no"?>
<!DOCTYPE svg PUBLIC "-//W3C//DTD SVG 1.1//EN"
 "http://www.w3.org/Graphics/SVG/1.1/DTD/svg11.dtd">
<!-- Generated by graphviz version 2.43.0 (0)
 -->
<!-- Title: /jenkins/jenlib_workspaces_f9/bld_nightly&#45;haldls.YmxkX25pZ2h0bHktaGFsZGxzIzcxMQ.x/haldls/include/lola/vx/cerealization.h Pages: 1 -->
<svg width="1200pt" height="530pt"
 viewBox="0.00 0.00 1200.24 530.00" xmlns="http://www.w3.org/2000/svg" xmlns:xlink="http://www.w3.org/1999/xlink">
<g id="graph0" class="graph" transform="scale(1 1) rotate(0) translate(4 526)">
<title>/jenkins/jenlib_workspaces_f9/bld_nightly&#45;haldls.YmxkX25pZ2h0bHktaGFsZGxzIzcxMQ.x/haldls/include/lola/vx/cerealization.h</title>
<polygon fill="white" stroke="transparent" points="-4,4 -4,-526 1196.24,-526 1196.24,4 -4,4"/>
<!-- Node4 -->
<g id="node1" class="node">
<title>Node4</title>
<g id="a_node1"><a xlink:title=" ">
<polygon fill="#bfbfbf" stroke="black" points="608,-465.5 608,-521.5 786.24,-521.5 786.24,-465.5 608,-465.5"/>
<text text-anchor="start" x="616" y="-508.5" font-family="Helvetica,sans-Serif" font-size="10.00">/jenkins/jenlib_workspaces</text>
<text text-anchor="start" x="616" y="-496.5" font-family="Helvetica,sans-Serif" font-size="10.00">_f9/bld_nightly&#45;haldls.YmxkX25p</text>
<text text-anchor="start" x="616" y="-484.5" font-family="Helvetica,sans-Serif" font-size="10.00">Z2h0bHktaGFsZGxzIzcxMQ.x/haldls</text>
<text text-anchor="middle" x="697.12" y="-472.5" font-family="Helvetica,sans-Serif" font-size="10.00">/include/lola/vx/cerealization.h</text>
</a>
</g>
</g>
<!-- Node5 -->
<g id="node2" class="node">
<title>Node5</title>
<g id="a_node2"><a xlink:href="dac_8h.html" target="_top" xlink:title=" ">
<polygon fill="white" stroke="black" points="706,-372.5 706,-428.5 884.24,-428.5 884.24,-372.5 706,-372.5"/>
<text text-anchor="start" x="714" y="-415.5" font-family="Helvetica,sans-Serif" font-size="10.00">/jenkins/jenlib_workspaces</text>
<text text-anchor="start" x="714" y="-403.5" font-family="Helvetica,sans-Serif" font-size="10.00">_f9/bld_nightly&#45;haldls.YmxkX25p</text>
<text text-anchor="start" x="714" y="-391.5" font-family="Helvetica,sans-Serif" font-size="10.00">Z2h0bHktaGFsZGxzIzcxMQ.x/haldls</text>
<text text-anchor="middle" x="795.12" y="-379.5" font-family="Helvetica,sans-Serif" font-size="10.00">/include/lola/vx/dac.h</text>
</a>
</g>
</g>
<!-- Node4&#45;&gt;Node5 -->
<g id="edge1" class="edge">
<title>Node4&#45;&gt;Node5</title>
<path fill="none" stroke="midnightblue" d="M733.8,-458.44C744.41,-448.59 755.84,-437.97 765.92,-428.61"/>
<polygon fill="midnightblue" stroke="midnightblue" points="731.2,-456.07 726.26,-465.44 735.97,-461.2 731.2,-456.07"/>
</g>
<!-- Node9 -->
<g id="node6" class="node">
<title>Node9</title>
<g id="a_node6"><a xlink:href="v1_2pylola_8h.html" target="_top" xlink:title=" ">
<polygon fill="white" stroke="black" points="0,-0.5 0,-56.5 178.24,-56.5 178.24,-0.5 0,-0.5"/>
<text text-anchor="start" x="8" y="-43.5" font-family="Helvetica,sans-Serif" font-size="10.00">/jenkins/jenlib_workspaces</text>
<text text-anchor="start" x="8" y="-31.5" font-family="Helvetica,sans-Serif" font-size="10.00">_f9/bld_nightly&#45;haldls.YmxkX25p</text>
<text text-anchor="start" x="8" y="-19.5" font-family="Helvetica,sans-Serif" font-size="10.00">Z2h0bHktaGFsZGxzIzcxMQ.x/haldls</text>
<text text-anchor="middle" x="89.12" y="-7.5" font-family="Helvetica,sans-Serif" font-size="10.00">/include/lola/vx/v1/pylola.h</text>
</a>
</g>
</g>
<!-- Node4&#45;&gt;Node9 -->
<g id="edge19" class="edge">
<title>Node4&#45;&gt;Node9</title>
<path fill="none" stroke="midnightblue" d="M597.7,-489.2C426.7,-482.59 91.38,-465.15 52.12,-429 12.07,-392.12 30.12,-362.94 30.12,-308.5 30.12,-308.5 30.12,-308.5 30.12,-213.5 30.12,-159.28 30.06,-143.76 49.12,-93 53.88,-80.31 61.38,-67.46 68.6,-56.66"/>
<polygon fill="midnightblue" stroke="midnightblue" points="597.59,-492.7 607.72,-489.59 597.86,-485.71 597.59,-492.7"/>
</g>
<!-- Node13 -->
<g id="node10" class="node">
<title>Node13</title>
<g id="a_node10"><a xlink:href="v2_2pylola_8h.html" target="_top" xlink:title=" ">
<polygon fill="white" stroke="black" points="1014,-0.5 1014,-56.5 1192.24,-56.5 1192.24,-0.5 1014,-0.5"/>
<text text-anchor="start" x="1022" y="-43.5" font-family="Helvetica,sans-Serif" font-size="10.00">/jenkins/jenlib_workspaces</text>
<text text-anchor="start" x="1022" y="-31.5" font-family="Helvetica,sans-Serif" font-size="10.00">_f9/bld_nightly&#45;haldls.YmxkX25p</text>
<text text-anchor="start" x="1022" y="-19.5" font-family="Helvetica,sans-Serif" font-size="10.00">Z2h0bHktaGFsZGxzIzcxMQ.x/haldls</text>
<text text-anchor="middle" x="1103.12" y="-7.5" font-family="Helvetica,sans-Serif" font-size="10.00">/include/lola/vx/v2/pylola.h</text>
</a>
</g>
</g>
<!-- Node4&#45;&gt;Node13 -->
<g id="edge24" class="edge">
<title>Node4&#45;&gt;Node13</title>
<path fill="none" stroke="midnightblue" d="M796.96,-491.44C912.64,-488.02 1093.51,-475.18 1141.12,-429 1180.14,-391.15 1162.12,-362.86 1162.12,-308.5 1162.12,-308.5 1162.12,-308.5 1162.12,-213.5 1162.12,-155.46 1135.17,-91.84 1117.7,-56.68"/>
<polygon fill="midnightblue" stroke="midnightblue" points="796.57,-487.95 786.67,-491.72 796.76,-494.95 796.57,-487.95"/>
</g>
<!-- Node14 -->
<g id="node11" class="node">
<title>Node14</title>
<g id="a_node11"><a xlink:href="ppu_8h.html" target="_top" xlink:title=" ">
<polygon fill="white" stroke="black" points="510,-372.5 510,-428.5 688.24,-428.5 688.24,-372.5 510,-372.5"/>
<text text-anchor="start" x="518" y="-415.5" font-family="Helvetica,sans-Serif" font-size="10.00">/jenkins/jenlib_workspaces</text>
<text text-anchor="start" x="518" y="-403.5" font-family="Helvetica,sans-Serif" font-size="10.00">_f9/bld_nightly&#45;haldls.YmxkX25p</text>
<text text-anchor="start" x="518" y="-391.5" font-family="Helvetica,sans-Serif" font-size="10.00">Z2h0bHktaGFsZGxzIzcxMQ.x/haldls</text>
<text text-anchor="middle" x="599.12" y="-379.5" font-family="Helvetica,sans-Serif" font-size="10.00">/include/lola/vx/ppu.h</text>
</a>
</g>
</g>
<!-- Node4&#45;&gt;Node14 -->
<g id="edge10" class="edge">
<title>Node4&#45;&gt;Node14</title>
<path fill="none" stroke="midnightblue" d="M660.43,-458.44C649.83,-448.59 638.4,-437.97 628.31,-428.61"/>
<polygon fill="midnightblue" stroke="midnightblue" points="658.27,-461.2 667.98,-465.44 663.03,-456.07 658.27,-461.2"/>
</g>
<!-- Node17 -->
<g id="node14" class="node">
<title>Node17</title>
<g id="a_node14"><a xlink:href="v1_2cadc_8h.html" target="_top" xlink:title=" ">
<polygon fill="white" stroke="black" points="61,-372.5 61,-428.5 239.24,-428.5 239.24,-372.5 61,-372.5"/>
<text text-anchor="start" x="69" y="-415.5" font-family="Helvetica,sans-Serif" font-size="10.00">/jenkins/jenlib_workspaces</text>
<text text-anchor="start" x="69" y="-403.5" font-family="Helvetica,sans-Serif" font-size="10.00">_f9/bld_nightly&#45;haldls.YmxkX25p</text>
<text text-anchor="start" x="69" y="-391.5" font-family="Helvetica,sans-Serif" font-size="10.00">Z2h0bHktaGFsZGxzIzcxMQ.x/haldls</text>
<text text-anchor="middle" x="150.12" y="-379.5" font-family="Helvetica,sans-Serif" font-size="10.00">/include/lola/vx/v1/cadc.h</text>
</a>
</g>
</g>
<!-- Node4&#45;&gt;Node17 -->
<g id="edge15" class="edge">
<title>Node4&#45;&gt;Node17</title>
<path fill="none" stroke="midnightblue" d="M597.96,-478.49C514.58,-466.4 392.33,-447.93 286.12,-429 270.94,-426.29 254.85,-423.22 239.26,-420.14"/>
<polygon fill="midnightblue" stroke="midnightblue" points="597.53,-481.97 607.93,-479.93 598.53,-475.04 597.53,-481.97"/>
</g>
<!-- Node18 -->
<g id="node15" class="node">
<title>Node18</title>
<g id="a_node15"><a xlink:href="v1_2synapse_8h.html" target="_top" xlink:title=" ">
<polygon fill="white" stroke="black" points="295,-372.5 295,-428.5 473.24,-428.5 473.24,-372.5 295,-372.5"/>
<text text-anchor="start" x="303" y="-415.5" font-family="Helvetica,sans-Serif" font-size="10.00">/jenkins/jenlib_workspaces</text>
<text text-anchor="start" x="303" y="-403.5" font-family="Helvetica,sans-Serif" font-size="10.00">_f9/bld_nightly&#45;haldls.YmxkX25p</text>
<text text-anchor="start" x="303" y="-391.5" font-family="Helvetica,sans-Serif" font-size="10.00">Z2h0bHktaGFsZGxzIzcxMQ.x/haldls</text>
<text text-anchor="middle" x="384.12" y="-379.5" font-family="Helvetica,sans-Serif" font-size="10.00">/include/lola/vx/v1/synapse.h</text>
</a>
</g>
</g>
<!-- Node4&#45;&gt;Node18 -->
<g id="edge17" class="edge">
<title>Node4&#45;&gt;Node18</title>
<path fill="none" stroke="midnightblue" d="M598.07,-463.7C558.05,-452.07 512.2,-438.74 473.24,-427.41"/>
<polygon fill="midnightblue" stroke="midnightblue" points="597.27,-467.11 607.84,-466.54 599.22,-460.39 597.27,-467.11"/>
</g>
<!-- Node19 -->
<g id="node16" class="node">
<title>Node19</title>
<g id="a_node16"><a xlink:href="v2_2cadc_8h.html" target="_top" xlink:title=" ">
<polygon fill="white" stroke="black" points="918,-279.5 918,-335.5 1096.24,-335.5 1096.24,-279.5 918,-279.5"/>
<text text-anchor="start" x="926" y="-322.5" font-family="Helvetica,sans-Serif" font-size="10.00">/jenkins/jenlib_workspaces</text>
<text text-anchor="start" x="926" y="-310.5" font-family="Helvetica,sans-Serif" font-size="10.00">_f9/bld_nightly&#45;haldls.YmxkX25p</text>
<text text-anchor="start" x="926" y="-298.5" font-family="Helvetica,sans-Serif" font-size="10.00">Z2h0bHktaGFsZGxzIzcxMQ.x/haldls</text>
<text text-anchor="middle" x="1007.12" y="-286.5" font-family="Helvetica,sans-Serif" font-size="10.00">/include/lola/vx/v2/cadc.h</text>
</a>
</g>
</g>
<!-- Node4&#45;&gt;Node19 -->
<g id="edge20" class="edge">
<title>Node4&#45;&gt;Node19</title>
<path fill="none" stroke="midnightblue" d="M796.3,-471.18C828.77,-461.45 863.96,-447.78 893.12,-429 921.95,-410.43 921.58,-396.94 945.12,-372 956.43,-360.01 969.12,-346.95 980.06,-335.81"/>
<polygon fill="midnightblue" stroke="midnightblue" points="794.95,-467.92 786.32,-474.07 796.9,-474.65 794.95,-467.92"/>
</g>
<!-- Node20 -->
<g id="node17" class="node">
<title>Node20</title>
<g id="a_node17"><a xlink:href="v2_2synapse_8h.html" target="_top" xlink:title=" ">
<polygon fill="white" stroke="black" points="954,-372.5 954,-428.5 1132.24,-428.5 1132.24,-372.5 954,-372.5"/>
<text text-anchor="start" x="962" y="-415.5" font-family="Helvetica,sans-Serif" font-size="10.00">/jenkins/jenlib_workspaces</text>
<text text-anchor="start" x="962" y="-403.5" font-family="Helvetica,sans-Serif" font-size="10.00">_f9/bld_nightly&#45;haldls.YmxkX25p</text>
<text text-anchor="start" x="962" y="-391.5" font-family="Helvetica,sans-Serif" font-size="10.00">Z2h0bHktaGFsZGxzIzcxMQ.x/haldls</text>
<text text-anchor="middle" x="1043.12" y="-379.5" font-family="Helvetica,sans-Serif" font-size="10.00">/include/lola/vx/v2/synapse.h</text>
</a>
</g>
</g>
<!-- Node4&#45;&gt;Node20 -->
<g id="edge22" class="edge">
<title>Node4&#45;&gt;Node20</title>
<path fill="none" stroke="midnightblue" d="M796.47,-466.37C846.13,-453.31 905.76,-437.63 953.94,-424.95"/>
<polygon fill="midnightblue" stroke="midnightblue" points="795.45,-463.02 786.67,-468.95 797.23,-469.79 795.45,-463.02"/>
</g>
<!-- Node6 -->
<g id="node3" class="node">
<title>Node6</title>
<g id="a_node3"><a xlink:href="v1_2dac_8h.html" target="_top" xlink:title=" ">
<polygon fill="white" stroke="black" points="330,-279.5 330,-335.5 508.24,-335.5 508.24,-279.5 330,-279.5"/>
<text text-anchor="start" x="338" y="-322.5" font-family="Helvetica,sans-Serif" font-size="10.00">/jenkins/jenlib_workspaces</text>
<text text-anchor="start" x="338" y="-310.5" font-family="Helvetica,sans-Serif" font-size="10.00">_f9/bld_nightly&#45;haldls.YmxkX25p</text>
<text text-anchor="start" x="338" y="-298.5" font-family="Helvetica,sans-Serif" font-size="10.00">Z2h0bHktaGFsZGxzIzcxMQ.x/haldls</text>
<text text-anchor="middle" x="419.12" y="-286.5" font-family="Helvetica,sans-Serif" font-size="10.00">/include/lola/vx/v1/dac.h</text>
</a>
</g>
</g>
<!-- Node5&#45;&gt;Node6 -->
<g id="edge2" class="edge">
<title>Node5&#45;&gt;Node6</title>
<path fill="none" stroke="midnightblue" d="M695.96,-371.8C616.03,-353.09 593.35,-354.29 517.12,-336 514.2,-335.3 511.23,-334.57 508.24,-333.82"/>
<polygon fill="midnightblue" stroke="midnightblue" points="695.46,-375.28 706,-374.18 697.07,-368.47 695.46,-375.28"/>
</g>
<!-- Node10 -->
<g id="node7" class="node">
<title>Node10</title>
<g id="a_node7"><a xlink:href="v2_2dac_8h.html" target="_top" xlink:title=" ">
<polygon fill="white" stroke="black" points="722,-279.5 722,-335.5 900.24,-335.5 900.24,-279.5 722,-279.5"/>
<text text-anchor="start" x="730" y="-322.5" font-family="Helvetica,sans-Serif" font-size="10.00">/jenkins/jenlib_workspaces</text>
<text text-anchor="start" x="730" y="-310.5" font-family="Helvetica,sans-Serif" font-size="10.00">_f9/bld_nightly&#45;haldls.YmxkX25p</text>
<text text-anchor="start" x="730" y="-298.5" font-family="Helvetica,sans-Serif" font-size="10.00">Z2h0bHktaGFsZGxzIzcxMQ.x/haldls</text>
<text text-anchor="middle" x="811.12" y="-286.5" font-family="Helvetica,sans-Serif" font-size="10.00">/include/lola/vx/v2/dac.h</text>
</a>
</g>
</g>
<!-- Node5&#45;&gt;Node10 -->
<g id="edge6" class="edge">
<title>Node5&#45;&gt;Node10</title>
<path fill="none" stroke="midnightblue" d="M801.69,-362.12C803.24,-353.3 804.87,-344.06 806.32,-335.78"/>
<polygon fill="midnightblue" stroke="midnightblue" points="798.2,-361.74 799.92,-372.2 805.1,-362.95 798.2,-361.74"/>
</g>
<!-- Node7 -->
<g id="node4" class="node">
<title>Node7</title>
<g id="a_node4"><a xlink:href="v1_2container_8h.html" target="_top" xlink:title=" ">
<polygon fill="white" stroke="black" points="58,-186.5 58,-242.5 236.24,-242.5 236.24,-186.5 58,-186.5"/>
<text text-anchor="start" x="66" y="-229.5" font-family="Helvetica,sans-Serif" font-size="10.00">/jenkins/jenlib_workspaces</text>
<text text-anchor="start" x="66" y="-217.5" font-family="Helvetica,sans-Serif" font-size="10.00">_f9/bld_nightly&#45;haldls.YmxkX25p</text>
<text text-anchor="start" x="66" y="-205.5" font-family="Helvetica,sans-Serif" font-size="10.00">Z2h0bHktaGFsZGxzIzcxMQ.x/haldls</text>
<text text-anchor="middle" x="147.12" y="-193.5" font-family="Helvetica,sans-Serif" font-size="10.00">/include/lola/vx/v1/container.h</text>
</a>
</g>
</g>
<!-- Node6&#45;&gt;Node7 -->
<g id="edge3" class="edge">
<title>Node6&#45;&gt;Node7</title>
<path fill="none" stroke="midnightblue" d="M328.74,-276.26C296.24,-265.39 259.81,-253.2 228.15,-242.61"/>
<polygon fill="midnightblue" stroke="midnightblue" points="327.65,-279.59 338.25,-279.44 329.87,-272.95 327.65,-279.59"/>
</g>
<!-- Node8 -->
<g id="node5" class="node">
<title>Node8</title>
<g id="a_node5"><a xlink:href="v1_2lola_8h.html" target="_top" xlink:title=" ">
<polygon fill="white" stroke="black" points="58,-93.5 58,-149.5 236.24,-149.5 236.24,-93.5 58,-93.5"/>
<text text-anchor="start" x="66" y="-136.5" font-family="Helvetica,sans-Serif" font-size="10.00">/jenkins/jenlib_workspaces</text>
<text text-anchor="start" x="66" y="-124.5" font-family="Helvetica,sans-Serif" font-size="10.00">_f9/bld_nightly&#45;haldls.YmxkX25p</text>
<text text-anchor="start" x="66" y="-112.5" font-family="Helvetica,sans-Serif" font-size="10.00">Z2h0bHktaGFsZGxzIzcxMQ.x/haldls</text>
<text text-anchor="middle" x="147.12" y="-100.5" font-family="Helvetica,sans-Serif" font-size="10.00">/include/lola/vx/v1/lola.h</text>
</a>
</g>
</g>
<!-- Node7&#45;&gt;Node8 -->
<g id="edge4" class="edge">
<title>Node7&#45;&gt;Node8</title>
<path fill="none" stroke="midnightblue" d="M147.12,-176.12C147.12,-167.3 147.12,-158.06 147.12,-149.78"/>
<polygon fill="midnightblue" stroke="midnightblue" points="143.62,-176.2 147.12,-186.2 150.62,-176.2 143.62,-176.2"/>
</g>
<!-- Node8&#45;&gt;Node9 -->
<g id="edge5" class="edge">
<title>Node8&#45;&gt;Node9</title>
<path fill="none" stroke="midnightblue" d="M124.21,-84.55C118.32,-75.31 112.07,-65.51 106.51,-56.78"/>
<polygon fill="midnightblue" stroke="midnightblue" points="121.39,-86.65 129.72,-93.2 127.29,-82.88 121.39,-86.65"/>
</g>
<!-- Node11 -->
<g id="node8" class="node">
<title>Node11</title>
<g id="a_node8"><a xlink:href="v2_2container_8h.html" target="_top" xlink:title=" ">
<polygon fill="white" stroke="black" points="918,-186.5 918,-242.5 1096.24,-242.5 1096.24,-186.5 918,-186.5"/>
<text text-anchor="start" x="926" y="-229.5" font-family="Helvetica,sans-Serif" font-size="10.00">/jenkins/jenlib_workspaces</text>
<text text-anchor="start" x="926" y="-217.5" font-family="Helvetica,sans-Serif" font-size="10.00">_f9/bld_nightly&#45;haldls.YmxkX25p</text>
<text text-anchor="start" x="926" y="-205.5" font-family="Helvetica,sans-Serif" font-size="10.00">Z2h0bHktaGFsZGxzIzcxMQ.x/haldls</text>
<text text-anchor="middle" x="1007.12" y="-193.5" font-family="Helvetica,sans-Serif" font-size="10.00">/include/lola/vx/v2/container.h</text>
</a>
</g>
</g>
<!-- Node10&#45;&gt;Node11 -->
<g id="edge7" class="edge">
<title>Node10&#45;&gt;Node11</title>
<path fill="none" stroke="midnightblue" d="M878.66,-275.14C901.46,-264.56 926.7,-252.84 948.73,-242.61"/>
<polygon fill="midnightblue" stroke="midnightblue" points="876.99,-272.06 869.39,-279.44 879.94,-278.41 876.99,-272.06"/>
</g>
<!-- Node12 -->
<g id="node9" class="node">
<title>Node12</title>
<g id="a_node9"><a xlink:href="v2_2lola_8h.html" target="_top" xlink:title=" ">
<polygon fill="white" stroke="black" points="937,-93.5 937,-149.5 1115.24,-149.5 1115.24,-93.5 937,-93.5"/>
<text text-anchor="start" x="945" y="-136.5" font-family="Helvetica,sans-Serif" font-size="10.00">/jenkins/jenlib_workspaces</text>
<text text-anchor="start" x="945" y="-124.5" font-family="Helvetica,sans-Serif" font-size="10.00">_f9/bld_nightly&#45;haldls.YmxkX25p</text>
<text text-anchor="start" x="945" y="-112.5" font-family="Helvetica,sans-Serif" font-size="10.00">Z2h0bHktaGFsZGxzIzcxMQ.x/haldls</text>
<text text-anchor="middle" x="1026.12" y="-100.5" font-family="Helvetica,sans-Serif" font-size="10.00">/include/lola/vx/v2/lola.h</text>
</a>
</g>
</g>
<!-- Node11&#45;&gt;Node12 -->
<g id="edge8" class="edge">
<title>Node11&#45;&gt;Node12</title>
<path fill="none" stroke="midnightblue" d="M1014.86,-176.41C1016.72,-167.5 1018.68,-158.15 1020.42,-149.78"/>
<polygon fill="midnightblue" stroke="midnightblue" points="1011.44,-175.69 1012.82,-186.2 1018.29,-177.12 1011.44,-175.69"/>
</g>
<!-- Node12&#45;&gt;Node13 -->
<g id="edge9" class="edge">
<title>Node12&#45;&gt;Node13</title>
<path fill="none" stroke="midnightblue" d="M1055.81,-85.41C1063.84,-75.91 1072.42,-65.78 1080.03,-56.78"/>
<polygon fill="midnightblue" stroke="midnightblue" points="1053.01,-83.3 1049.22,-93.2 1058.35,-87.82 1053.01,-83.3"/>
</g>
<!-- Node15 -->
<g id="node12" class="node">
<title>Node15</title>
<g id="a_node12"><a xlink:href="v1_2ppu_8h.html" target="_top" xlink:title=" ">
<polygon fill="white" stroke="black" points="134,-279.5 134,-335.5 312.24,-335.5 312.24,-279.5 134,-279.5"/>
<text text-anchor="start" x="142" y="-322.5" font-family="Helvetica,sans-Serif" font-size="10.00">/jenkins/jenlib_workspaces</text>
<text text-anchor="start" x="142" y="-310.5" font-family="Helvetica,sans-Serif" font-size="10.00">_f9/bld_nightly&#45;haldls.YmxkX25p</text>
<text text-anchor="start" x="142" y="-298.5" font-family="Helvetica,sans-Serif" font-size="10.00">Z2h0bHktaGFsZGxzIzcxMQ.x/haldls</text>
<text text-anchor="middle" x="223.12" y="-286.5" font-family="Helvetica,sans-Serif" font-size="10.00">/include/lola/vx/v1/ppu.h</text>
</a>
</g>
</g>
<!-- Node14&#45;&gt;Node15 -->
<g id="edge11" class="edge">
<title>Node14&#45;&gt;Node15</title>
<path fill="none" stroke="midnightblue" d="M499.68,-376.05C493.74,-374.67 487.85,-373.31 482.12,-372 410.65,-355.61 392.22,-353.91 321.12,-336 318.21,-335.27 315.25,-334.51 312.26,-333.73"/>
<polygon fill="midnightblue" stroke="midnightblue" points="499.18,-379.53 509.71,-378.38 500.76,-372.71 499.18,-379.53"/>
</g>
<!-- Node16 -->
<g id="node13" class="node">
<title>Node16</title>
<g id="a_node13"><a xlink:href="v2_2ppu_8h.html" target="_top" xlink:title=" ">
<polygon fill="white" stroke="black" points="526,-279.5 526,-335.5 704.24,-335.5 704.24,-279.5 526,-279.5"/>
<text text-anchor="start" x="534" y="-322.5" font-family="Helvetica,sans-Serif" font-size="10.00">/jenkins/jenlib_workspaces</text>
<text text-anchor="start" x="534" y="-310.5" font-family="Helvetica,sans-Serif" font-size="10.00">_f9/bld_nightly&#45;haldls.YmxkX25p</text>
<text text-anchor="start" x="534" y="-298.5" font-family="Helvetica,sans-Serif" font-size="10.00">Z2h0bHktaGFsZGxzIzcxMQ.x/haldls</text>
<text text-anchor="middle" x="615.12" y="-286.5" font-family="Helvetica,sans-Serif" font-size="10.00">/include/lola/vx/v2/ppu.h</text>
</a>
</g>
</g>
<!-- Node14&#45;&gt;Node16 -->
<g id="edge13" class="edge">
<title>Node14&#45;&gt;Node16</title>
<path fill="none" stroke="midnightblue" d="M605.69,-362.12C607.24,-353.3 608.87,-344.06 610.32,-335.78"/>
<polygon fill="midnightblue" stroke="midnightblue" points="602.2,-361.74 603.92,-372.2 609.1,-362.95 602.2,-361.74"/>
</g>
<!-- Node15&#45;&gt;Node7 -->
<g id="edge12" class="edge">
<title>Node15&#45;&gt;Node7</title>
<path fill="none" stroke="midnightblue" d="M193.81,-271.41C185.88,-261.91 177.42,-251.78 169.91,-242.78"/>
<polygon fill="midnightblue" stroke="midnightblue" points="191.22,-273.77 200.32,-279.2 196.59,-269.28 191.22,-273.77"/>
</g>
<!-- Node16&#45;&gt;Node11 -->
<g id="edge14" class="edge">
<title>Node16&#45;&gt;Node11</title>
<path fill="none" stroke="midnightblue" d="M714.2,-278.78C788.07,-260.63 861.78,-244.84 917.7,-233.34"/>
<polygon fill="midnightblue" stroke="midnightblue" points="713.12,-275.44 704.26,-281.24 714.8,-282.24 713.12,-275.44"/>
</g>
<!-- Node17&#45;&gt;Node7 -->
<g id="edge16" class="edge">
<title>Node17&#45;&gt;Node7</title>
<path fill="none" stroke="midnightblue" d="M110.22,-364.82C102.83,-356.22 96.17,-346.44 92.12,-336 82.96,-312.38 83.27,-302.74 92.12,-279 97.16,-265.47 106.53,-252.91 116.13,-242.59"/>
<polygon fill="midnightblue" stroke="midnightblue" points="107.82,-367.38 117.16,-372.38 112.97,-362.65 107.82,-367.38"/>
</g>
<!-- Node18&#45;&gt;Node7 -->
<g id="edge18" class="edge">
<title>Node18&#45;&gt;Node7</title>
<path fill="none" stroke="midnightblue" d="M284.83,-378.13C213.99,-362.4 130.34,-342.65 125.12,-336 104.18,-309.31 117.88,-269.1 131.17,-242.58"/>
<polygon fill="midnightblue" stroke="midnightblue" points="284.21,-381.57 294.73,-380.32 285.72,-374.74 284.21,-381.57"/>
</g>
<!-- Node19&#45;&gt;Node11 -->
<g id="edge21" class="edge">
<title>Node19&#45;&gt;Node11</title>
<path fill="none" stroke="midnightblue" d="M1007.12,-269.12C1007.12,-260.3 1007.12,-251.06 1007.12,-242.78"/>
<polygon fill="midnightblue" stroke="midnightblue" points="1003.62,-269.2 1007.12,-279.2 1010.62,-269.2 1003.62,-269.2"/>
</g>
<!-- Node20&#45;&gt;Node11 -->
<g id="edge23" class="edge">
<title>Node20&#45;&gt;Node11</title>
<path fill="none" stroke="midnightblue" d="M1085.73,-365.22C1093.63,-356.59 1100.76,-346.71 1105.12,-336 1114.67,-312.54 1117.22,-301.26 1105.12,-279 1096.94,-263.95 1083.48,-251.92 1069.12,-242.55"/>
<polygon fill="midnightblue" stroke="midnightblue" points="1083.13,-362.87 1078.64,-372.46 1088.13,-367.76 1083.13,-362.87"/>
</g>
</g>
</svg>
