<?xml version="1.0" encoding="UTF-8" standalone="no"?>
<!DOCTYPE svg PUBLIC "-//W3C//DTD SVG 1.1//EN"
 "http://www.w3.org/Graphics/SVG/1.1/DTD/svg11.dtd">
<!-- Generated by graphviz version 2.43.0 (0)
 -->
<!-- Title: lola::vx::v1::AtomicNeuron Pages: 1 -->
<!--zoomable 668 -->
<svg id="main" version="1.1" xmlns="http://www.w3.org/2000/svg" xmlns:xlink="http://www.w3.org/1999/xlink" xml:space="preserve" onload="init(evt)">
<style type="text/css"><![CDATA[
.edge:hover path { stroke: red; }
.edge:hover polygon { stroke: red; fill: red; }
]]></style>
<script type="text/javascript"><![CDATA[
var edges = document.getElementsByTagName('g');
if (edges && edges.length) {
  for (var i=0;i<edges.length;i++) {
    if (edges[i].id.substr(0,4)=='edge') {
      edges[i].setAttribute('class','edge');
    }
  }
}
]]></script>
        <defs>
                <circle id="rim" cx="0" cy="0" r="7"/>
                <circle id="rim2" cx="0" cy="0" r="3.5"/>
                <g id="zoomPlus">
                        <use xlink:href="#rim" fill="#404040">
                                <set attributeName="fill" to="#808080" begin="zoomplus.mouseover" end="zoomplus.mouseout"/>
                        </use>
                        <path d="M-4,0h8M0,-4v8" fill="none" stroke="white" stroke-width="1.5" pointer-events="none"/>
                </g>
                <g id="zoomMin">
                        <use xlink:href="#rim" fill="#404040">
                                <set attributeName="fill" to="#808080" begin="zoomminus.mouseover" end="zoomminus.mouseout"/>
                        </use>
                        <path d="M-4,0h8" fill="none" stroke="white" stroke-width="1.5" pointer-events="none"/>
                </g>
                <g id="dirArrow">
                        <path fill="none" stroke="white" stroke-width="1.5" d="M0,-3.0v7 M-2.5,-0.5L0,-3.0L2.5,-0.5"/>
                </g>
               <g id="resetDef">
                       <use xlink:href="#rim2" fill="#404040">
                               <set attributeName="fill" to="#808080" begin="reset.mouseover" end="reset.mouseout"/>
                       </use>
               </g>
        </defs>

<script type="text/javascript">
var viewWidth = 611;
var viewHeight = 668;
var sectionId = 'dynsection-0';
</script>
<script xlink:href="svgpan.js"/>
<svg id="graph" class="graph">
<g id="viewport">
<title>lola::vx::v1::AtomicNeuron</title>
<polygon fill="white" stroke="transparent" points="-4,4 -4,-664 606.86,-664 606.86,4 -4,4"/>
<!-- Node1 -->
<g id="node1" class="node">
<title>Node1</title>
<g id="a_node1"><a xlink:title="Configuration of digital and analog parameters for a single&#45;denmem neuron.">
<polygon fill="#bfbfbf" stroke="black" points="470.73,-286.5 470.73,-306.5 602.86,-306.5 602.86,-286.5 470.73,-286.5"/>
<text text-anchor="middle" x="536.8" y="-293.5" font-family="Helvetica,sans-Serif" font-size="10.00">lola::vx::v1::AtomicNeuron</text>
</a>
</g>
</g>
<!-- Node2 -->
<g id="node2" class="node">
<title>Node2</title>
<g id="a_node2"><a xlink:href="structlola_1_1vx_1_1v1_1_1_atomic_neuron_1_1_adaptation.html" target="_top" xlink:title=" ">
<polygon fill="white" stroke="black" points="193.13,-627.5 193.13,-659.5 325.26,-659.5 325.26,-627.5 193.13,-627.5"/>
<text text-anchor="start" x="201.13" y="-646.5" font-family="Helvetica,sans-Serif" font-size="10.00">lola::vx::v1::AtomicNeuron</text>
<text text-anchor="middle" x="259.2" y="-634.5" font-family="Helvetica,sans-Serif" font-size="10.00">::Adaptation</text>
</a>
</g>
</g>
<!-- Node2&#45;&gt;Node1 -->
<g id="edge1" class="edge">
<title>Node2&#45;&gt;Node1</title>
<path fill="none" stroke="#9a32cd" stroke-dasharray="5,2" d="M335.31,-640.98C375.04,-635.79 421.85,-622.93 452.73,-592.5 536.94,-509.52 537.61,-348.54 536.27,-306.66"/>
<polygon fill="#9a32cd" stroke="#9a32cd" points="334.9,-637.51 325.37,-642.15 335.71,-644.46 334.9,-637.51"/>
<text text-anchor="middle" x="398" y="-641.5" font-family="Helvetica,sans-Serif" font-size="10.00"> adaptation</text>
</g>
<!-- Node3 -->
<g id="node3" class="node">
<title>Node3</title>
<g id="a_node3"><a xlink:href="structlola_1_1vx_1_1v1_1_1_atomic_neuron_1_1_bayesian.html" target="_top" xlink:title=" ">
<polygon fill="white" stroke="black" points="193.13,-576.5 193.13,-608.5 325.26,-608.5 325.26,-576.5 193.13,-576.5"/>
<text text-anchor="start" x="201.13" y="-595.5" font-family="Helvetica,sans-Serif" font-size="10.00">lola::vx::v1::AtomicNeuron</text>
<text text-anchor="middle" x="259.2" y="-583.5" font-family="Helvetica,sans-Serif" font-size="10.00">::Bayesian</text>
</a>
</g>
</g>
<!-- Node3&#45;&gt;Node1 -->
<g id="edge2" class="edge">
<title>Node3&#45;&gt;Node1</title>
<path fill="none" stroke="#9a32cd" stroke-dasharray="5,2" d="M335.19,-580.46C374.66,-570.63 421.26,-552.96 452.73,-521.5 516.34,-457.91 531.75,-341.45 535.01,-306.61"/>
<polygon fill="#9a32cd" stroke="#9a32cd" points="334.24,-577.09 325.32,-582.8 335.86,-583.9 334.24,-577.09"/>
<text text-anchor="middle" x="398" y="-579.5" font-family="Helvetica,sans-Serif" font-size="10.00"> bayesian</text>
</g>
<!-- Node4 -->
<g id="node4" class="node">
<title>Node4</title>
<g id="a_node4"><a xlink:href="structlola_1_1vx_1_1v1_1_1_atomic_neuron_1_1_multicompartment.html" target="_top" xlink:title="Multicompartment configuration of connectivity to adjacent neurons.">
<polygon fill="white" stroke="black" points="193.13,-525.5 193.13,-557.5 325.26,-557.5 325.26,-525.5 193.13,-525.5"/>
<text text-anchor="start" x="201.13" y="-544.5" font-family="Helvetica,sans-Serif" font-size="10.00">lola::vx::v1::AtomicNeuron</text>
<text text-anchor="middle" x="259.2" y="-532.5" font-family="Helvetica,sans-Serif" font-size="10.00">::Multicompartment</text>
</a>
</g>
</g>
<!-- Node4&#45;&gt;Node1 -->
<g id="edge3" class="edge">
<title>Node4&#45;&gt;Node1</title>
<path fill="none" stroke="#9a32cd" stroke-dasharray="5,2" d="M315.7,-521.29C318.97,-519.75 322.18,-518.15 325.26,-516.5 386.57,-483.53 404.7,-475.89 452.73,-425.5 489.49,-386.94 519.51,-329.89 530.89,-306.78"/>
<polygon fill="#9a32cd" stroke="#9a32cd" points="314.07,-518.18 306.35,-525.44 316.91,-524.58 314.07,-518.18"/>
<text text-anchor="middle" x="398" y="-508.5" font-family="Helvetica,sans-Serif" font-size="10.00"> multicompartment</text>
</g>
<!-- Node5 -->
<g id="node5" class="node">
<title>Node5</title>
<g id="a_node5"><a xlink:href="structlola_1_1vx_1_1v1_1_1_atomic_neuron_1_1_event_routing.html" target="_top" xlink:title=" ">
<polygon fill="white" stroke="black" points="193.13,-408.5 193.13,-440.5 325.26,-440.5 325.26,-408.5 193.13,-408.5"/>
<text text-anchor="start" x="201.13" y="-427.5" font-family="Helvetica,sans-Serif" font-size="10.00">lola::vx::v1::AtomicNeuron</text>
<text text-anchor="middle" x="259.2" y="-415.5" font-family="Helvetica,sans-Serif" font-size="10.00">::EventRouting</text>
</a>
</g>
</g>
<!-- Node5&#45;&gt;Node1 -->
<g id="edge4" class="edge">
<title>Node5&#45;&gt;Node1</title>
<path fill="none" stroke="#9a32cd" stroke-dasharray="5,2" d="M335.74,-412.77C372.61,-404.94 416.67,-392.31 452.73,-372.5 484.6,-354.99 514.01,-322.81 527.71,-306.51"/>
<polygon fill="#9a32cd" stroke="#9a32cd" points="334.63,-409.43 325.54,-414.86 336.04,-416.29 334.63,-409.43"/>
<text text-anchor="middle" x="398" y="-412.5" font-family="Helvetica,sans-Serif" font-size="10.00"> event_routing</text>
</g>
<!-- Node5&#45;&gt;Node5 -->
<g id="edge5" class="edge">
<title>Node5&#45;&gt;Node5</title>
<path fill="none" stroke="#9a32cd" stroke-dasharray="5,2" d="M242.3,-451.08C244.54,-455.75 250.17,-459 259.2,-459 274.01,-459 279.68,-450.24 276.21,-440.83"/>
<polygon fill="#9a32cd" stroke="#9a32cd" points="245.8,-450.79 242.19,-440.83 238.8,-450.87 245.8,-450.79"/>
<text text-anchor="middle" x="259.2" y="-498" font-family="Helvetica,sans-Serif" font-size="10.00"> bypass_inh</text>
<text text-anchor="middle" x="259.2" y="-486" font-family="Helvetica,sans-Serif" font-size="10.00">bypass_exc</text>
<text text-anchor="middle" x="259.2" y="-474" font-family="Helvetica,sans-Serif" font-size="10.00">disabled</text>
<text text-anchor="middle" x="259.2" y="-462" font-family="Helvetica,sans-Serif" font-size="10.00">enabled</text>
</g>
<!-- Node6 -->
<g id="node6" class="node">
<title>Node6</title>
<g id="a_node6"><a xlink:href="structlola_1_1vx_1_1v1_1_1_atomic_neuron_1_1_exponential.html" target="_top" xlink:title=" ">
<polygon fill="white" stroke="black" points="193.13,-357.5 193.13,-389.5 325.26,-389.5 325.26,-357.5 193.13,-357.5"/>
<text text-anchor="start" x="201.13" y="-376.5" font-family="Helvetica,sans-Serif" font-size="10.00">lola::vx::v1::AtomicNeuron</text>
<text text-anchor="middle" x="259.2" y="-364.5" font-family="Helvetica,sans-Serif" font-size="10.00">::Exponential</text>
</a>
</g>
</g>
<!-- Node6&#45;&gt;Node1 -->
<g id="edge6" class="edge">
<title>Node6&#45;&gt;Node1</title>
<path fill="none" stroke="#9a32cd" stroke-dasharray="5,2" d="M335.38,-359.12C371.26,-351.54 414.57,-341.36 452.73,-329.5 473.63,-323 496.7,-313.65 513.22,-306.56"/>
<polygon fill="#9a32cd" stroke="#9a32cd" points="334.55,-355.71 325.47,-361.18 335.98,-362.57 334.55,-355.71"/>
<text text-anchor="middle" x="398" y="-359.5" font-family="Helvetica,sans-Serif" font-size="10.00"> exponential</text>
</g>
<!-- Node7 -->
<g id="node7" class="node">
<title>Node7</title>
<g id="a_node7"><a xlink:href="structlola_1_1vx_1_1v1_1_1_atomic_neuron_1_1_membrane_capacitance.html" target="_top" xlink:title=" ">
<polygon fill="white" stroke="black" points="193.13,-306.5 193.13,-338.5 325.26,-338.5 325.26,-306.5 193.13,-306.5"/>
<text text-anchor="start" x="201.13" y="-325.5" font-family="Helvetica,sans-Serif" font-size="10.00">lola::vx::v1::AtomicNeuron</text>
<text text-anchor="middle" x="259.2" y="-313.5" font-family="Helvetica,sans-Serif" font-size="10.00">::MembraneCapacitance</text>
</a>
</g>
</g>
<!-- Node7&#45;&gt;Node1 -->
<g id="edge7" class="edge">
<title>Node7&#45;&gt;Node1</title>
<path fill="none" stroke="#9a32cd" stroke-dasharray="5,2" d="M335.47,-315.4C377.73,-311.41 429.95,-306.49 470.48,-302.66"/>
<polygon fill="#9a32cd" stroke="#9a32cd" points="335.14,-311.91 325.51,-316.34 335.79,-318.88 335.14,-311.91"/>
<text text-anchor="middle" x="398" y="-316.5" font-family="Helvetica,sans-Serif" font-size="10.00"> membrane_capacitance</text>
</g>
<!-- Node8 -->
<g id="node8" class="node">
<title>Node8</title>
<g id="a_node8"><a xlink:href="structlola_1_1vx_1_1v1_1_1_atomic_neuron_1_1_synaptic_input.html" target="_top" xlink:title=" ">
<polygon fill="white" stroke="black" points="193.13,-255.5 193.13,-287.5 325.26,-287.5 325.26,-255.5 193.13,-255.5"/>
<text text-anchor="start" x="201.13" y="-274.5" font-family="Helvetica,sans-Serif" font-size="10.00">lola::vx::v1::AtomicNeuron</text>
<text text-anchor="middle" x="259.2" y="-262.5" font-family="Helvetica,sans-Serif" font-size="10.00">::SynapticInput</text>
</a>
</g>
</g>
<!-- Node8&#45;&gt;Node1 -->
<g id="edge8" class="edge">
<title>Node8&#45;&gt;Node1</title>
<path fill="none" stroke="#9a32cd" stroke-dasharray="5,2" d="M335.84,-269.8C371.45,-269.94 414.41,-271.45 452.73,-276.5 468.91,-278.63 486.52,-282.63 501.35,-286.49"/>
<polygon fill="#9a32cd" stroke="#9a32cd" points="335.52,-266.3 325.52,-269.8 335.52,-273.3 335.52,-266.3"/>
<text text-anchor="middle" x="398" y="-291.5" font-family="Helvetica,sans-Serif" font-size="10.00"> inhibitory_input</text>
<text text-anchor="middle" x="398" y="-279.5" font-family="Helvetica,sans-Serif" font-size="10.00">excitatory_input</text>
</g>
<!-- Node9 -->
<g id="node9" class="node">
<title>Node9</title>
<g id="a_node9"><a xlink:href="structlola_1_1vx_1_1v1_1_1_atomic_neuron_1_1_threshold.html" target="_top" xlink:title=" ">
<polygon fill="white" stroke="black" points="193.13,-204.5 193.13,-236.5 325.26,-236.5 325.26,-204.5 193.13,-204.5"/>
<text text-anchor="start" x="201.13" y="-223.5" font-family="Helvetica,sans-Serif" font-size="10.00">lola::vx::v1::AtomicNeuron</text>
<text text-anchor="middle" x="259.2" y="-211.5" font-family="Helvetica,sans-Serif" font-size="10.00">::Threshold</text>
</a>
</g>
</g>
<!-- Node9&#45;&gt;Node1 -->
<g id="edge9" class="edge">
<title>Node9&#45;&gt;Node1</title>
<path fill="none" stroke="#9a32cd" stroke-dasharray="5,2" d="M335.57,-227.96C371.67,-232.9 415.11,-240.88 452.73,-253.5 477.37,-261.76 503.65,-276.5 519.91,-286.38"/>
<polygon fill="#9a32cd" stroke="#9a32cd" points="335.97,-224.48 325.6,-226.64 335.06,-231.42 335.97,-224.48"/>
<text text-anchor="middle" x="398" y="-256.5" font-family="Helvetica,sans-Serif" font-size="10.00"> threshold</text>
</g>
<!-- Node10 -->
<g id="node10" class="node">
<title>Node10</title>
<g id="a_node10"><a xlink:href="structlola_1_1vx_1_1v1_1_1_atomic_neuron_1_1_readout.html" target="_top" xlink:title=" ">
<polygon fill="white" stroke="black" points="193.13,-153.5 193.13,-185.5 325.26,-185.5 325.26,-153.5 193.13,-153.5"/>
<text text-anchor="start" x="201.13" y="-172.5" font-family="Helvetica,sans-Serif" font-size="10.00">lola::vx::v1::AtomicNeuron</text>
<text text-anchor="middle" x="259.2" y="-160.5" font-family="Helvetica,sans-Serif" font-size="10.00">::Readout</text>
</a>
</g>
</g>
<!-- Node10&#45;&gt;Node1 -->
<g id="edge10" class="edge">
<title>Node10&#45;&gt;Node1</title>
<path fill="none" stroke="#9a32cd" stroke-dasharray="5,2" d="M335.7,-176.27C372.75,-182.04 416.98,-192.72 452.73,-212.5 486.83,-231.37 516.07,-268.5 528.88,-286.39"/>
<polygon fill="#9a32cd" stroke="#9a32cd" points="335.85,-172.75 325.45,-174.77 334.84,-179.68 335.85,-172.75"/>
<text text-anchor="middle" x="398" y="-215.5" font-family="Helvetica,sans-Serif" font-size="10.00"> readout</text>
</g>
<!-- Node11 -->
<g id="node11" class="node">
<title>Node11</title>
<g id="a_node11"><a xlink:href="structlola_1_1vx_1_1v1_1_1_atomic_neuron_1_1_leak_reset.html" target="_top" xlink:title=" ">
<polygon fill="white" stroke="black" points="193.13,-102.5 193.13,-134.5 325.26,-134.5 325.26,-102.5 193.13,-102.5"/>
<text text-anchor="start" x="201.13" y="-121.5" font-family="Helvetica,sans-Serif" font-size="10.00">lola::vx::v1::AtomicNeuron</text>
<text text-anchor="middle" x="259.2" y="-109.5" font-family="Helvetica,sans-Serif" font-size="10.00">::LeakReset</text>
</a>
</g>
</g>
<!-- Node11&#45;&gt;Node1 -->
<g id="edge11" class="edge">
<title>Node11&#45;&gt;Node1</title>
<path fill="none" stroke="#9a32cd" stroke-dasharray="5,2" d="M335.61,-121.61C373.66,-126.4 418.82,-137.31 452.73,-161.5 498.66,-194.25 524.3,-261.12 532.69,-286.46"/>
<polygon fill="#9a32cd" stroke="#9a32cd" points="335.93,-118.13 325.59,-120.47 335.13,-125.08 335.93,-118.13"/>
<text text-anchor="middle" x="398" y="-164.5" font-family="Helvetica,sans-Serif" font-size="10.00"> leak_reset</text>
</g>
<!-- Node12 -->
<g id="node12" class="node">
<title>Node12</title>
<g id="a_node12"><a xlink:href="structlola_1_1vx_1_1v1_1_1_atomic_neuron_1_1_leak_reset_1_1_leak.html" target="_top" xlink:title=" ">
<polygon fill="white" stroke="black" points="0,-127.5 0,-159.5 132.13,-159.5 132.13,-127.5 0,-127.5"/>
<text text-anchor="start" x="8" y="-146.5" font-family="Helvetica,sans-Serif" font-size="10.00">lola::vx::v1::AtomicNeuron</text>
<text text-anchor="middle" x="66.06" y="-134.5" font-family="Helvetica,sans-Serif" font-size="10.00">::LeakReset::Leak</text>
</a>
</g>
</g>
<!-- Node12&#45;&gt;Node11 -->
<g id="edge12" class="edge">
<title>Node12&#45;&gt;Node11</title>
<path fill="none" stroke="#9a32cd" stroke-dasharray="5,2" d="M142.55,-133.63C159.2,-131.45 176.71,-129.16 192.92,-127.04"/>
<polygon fill="#9a32cd" stroke="#9a32cd" points="141.77,-130.2 132.31,-134.97 142.68,-137.14 141.77,-130.2"/>
<text text-anchor="middle" x="162.63" y="-134.5" font-family="Helvetica,sans-Serif" font-size="10.00"> leak</text>
</g>
<!-- Node13 -->
<g id="node13" class="node">
<title>Node13</title>
<g id="a_node13"><a xlink:href="structlola_1_1vx_1_1v1_1_1_atomic_neuron_1_1_leak_reset_1_1_reset.html" target="_top" xlink:title=" ">
<polygon fill="white" stroke="black" points="0,-76.5 0,-108.5 132.13,-108.5 132.13,-76.5 0,-76.5"/>
<text text-anchor="start" x="8" y="-95.5" font-family="Helvetica,sans-Serif" font-size="10.00">lola::vx::v1::AtomicNeuron</text>
<text text-anchor="middle" x="66.06" y="-83.5" font-family="Helvetica,sans-Serif" font-size="10.00">::LeakReset::Reset</text>
</a>
</g>
</g>
<!-- Node13&#45;&gt;Node11 -->
<g id="edge13" class="edge">
<title>Node13&#45;&gt;Node11</title>
<path fill="none" stroke="#9a32cd" stroke-dasharray="5,2" d="M142.55,-102.77C159.2,-105.03 176.71,-107.42 192.92,-109.62"/>
<polygon fill="#9a32cd" stroke="#9a32cd" points="142.69,-99.25 132.31,-101.38 141.74,-106.19 142.69,-99.25"/>
<text text-anchor="middle" x="162.63" y="-109.5" font-family="Helvetica,sans-Serif" font-size="10.00"> reset</text>
</g>
<!-- Node14 -->
<g id="node14" class="node">
<title>Node14</title>
<g id="a_node14"><a xlink:href="structlola_1_1vx_1_1v1_1_1_atomic_neuron_1_1_constant_current.html" target="_top" xlink:title=" ">
<polygon fill="white" stroke="black" points="193.13,-51.5 193.13,-83.5 325.26,-83.5 325.26,-51.5 193.13,-51.5"/>
<text text-anchor="start" x="201.13" y="-70.5" font-family="Helvetica,sans-Serif" font-size="10.00">lola::vx::v1::AtomicNeuron</text>
<text text-anchor="middle" x="259.2" y="-58.5" font-family="Helvetica,sans-Serif" font-size="10.00">::ConstantCurrent</text>
</a>
</g>
</g>
<!-- Node14&#45;&gt;Node1 -->
<g id="edge14" class="edge">
<title>Node14&#45;&gt;Node1</title>
<path fill="none" stroke="#9a32cd" stroke-dasharray="5,2" d="M335.67,-66.8C374.37,-70.11 420.09,-80.15 452.73,-106.5 512.39,-154.67 530.28,-254.22 534.6,-286.3"/>
<polygon fill="#9a32cd" stroke="#9a32cd" points="335.7,-63.3 325.47,-66.07 335.2,-70.28 335.7,-63.3"/>
<text text-anchor="middle" x="398" y="-109.5" font-family="Helvetica,sans-Serif" font-size="10.00"> constant_current</text>
</g>
<!-- Node15 -->
<g id="node15" class="node">
<title>Node15</title>
<g id="a_node15"><a xlink:href="structlola_1_1vx_1_1v1_1_1_atomic_neuron_1_1_refractory_period.html" target="_top" xlink:title=" ">
<polygon fill="white" stroke="black" points="193.13,-0.5 193.13,-32.5 325.26,-32.5 325.26,-0.5 193.13,-0.5"/>
<text text-anchor="start" x="201.13" y="-19.5" font-family="Helvetica,sans-Serif" font-size="10.00">lola::vx::v1::AtomicNeuron</text>
<text text-anchor="middle" x="259.2" y="-7.5" font-family="Helvetica,sans-Serif" font-size="10.00">::RefractoryPeriod</text>
</a>
</g>
</g>
<!-- Node15&#45;&gt;Node1 -->
<g id="edge15" class="edge">
<title>Node15&#45;&gt;Node1</title>
<path fill="none" stroke="#9a32cd" stroke-dasharray="5,2" d="M335.62,-13.33C374.75,-15.6 420.88,-24.91 452.73,-52.5 526.64,-116.51 534.9,-249 535.73,-286.45"/>
<polygon fill="#9a32cd" stroke="#9a32cd" points="335.46,-9.82 325.32,-12.88 335.16,-16.81 335.46,-9.82"/>
<text text-anchor="middle" x="398" y="-55.5" font-family="Helvetica,sans-Serif" font-size="10.00"> refractory_period</text>
</g>
</g>
</svg>
        <g id="navigator" transform="translate(0 0)" fill="#404254">
                <rect fill="#f2f5e9" fill-opacity="0.5" stroke="#606060" stroke-width=".5" x="0" y="0" width="60" height="60"/>
                <use id="zoomplus" xlink:href="#zoomPlus" x="17" y="9" onmousedown="handleZoom(evt,'in')"/>
                <use id="zoomminus" xlink:href="#zoomMin" x="42" y="9" onmousedown="handleZoom(evt,'out')"/>
                <use id="reset" xlink:href="#resetDef" x="30" y="36" onmousedown="handleReset()"/>
                <g id="arrowUp" xlink:href="#dirArrow" transform="translate(30 24)" onmousedown="handlePan(0,-1)">
                  <use xlink:href="#rim" fill="#404040">
                        <set attributeName="fill" to="#808080" begin="arrowUp.mouseover" end="arrowUp.mouseout"/>
                  </use>
                  <path fill="none" stroke="white" stroke-width="1.5" d="M0,-3.0v7 M-2.5,-0.5L0,-3.0L2.5,-0.5"/>
                </g>
                <g id="arrowRight" xlink:href="#dirArrow" transform="rotate(90) translate(36 -43)" onmousedown="handlePan(1,0)">
                  <use xlink:href="#rim" fill="#404040">
                        <set attributeName="fill" to="#808080" begin="arrowRight.mouseover" end="arrowRight.mouseout"/>
                  </use>
                  <path fill="none" stroke="white" stroke-width="1.5" d="M0,-3.0v7 M-2.5,-0.5L0,-3.0L2.5,-0.5"/>
                </g>
                <g id="arrowDown" xlink:href="#dirArrow" transform="rotate(180) translate(-30 -48)" onmousedown="handlePan(0,1)">
                  <use xlink:href="#rim" fill="#404040">
                        <set attributeName="fill" to="#808080" begin="arrowDown.mouseover" end="arrowDown.mouseout"/>
                  </use>
                  <path fill="none" stroke="white" stroke-width="1.5" d="M0,-3.0v7 M-2.5,-0.5L0,-3.0L2.5,-0.5"/>
                </g>
                <g id="arrowLeft" xlink:href="#dirArrow" transform="rotate(270) translate(-36 17)" onmousedown="handlePan(-1,0)">
                  <use xlink:href="#rim" fill="#404040">
                        <set attributeName="fill" to="#808080" begin="arrowLeft.mouseover" end="arrowLeft.mouseout"/>
                  </use>
                  <path fill="none" stroke="white" stroke-width="1.5" d="M0,-3.0v7 M-2.5,-0.5L0,-3.0L2.5,-0.5"/>
                </g>
        </g>
        <svg viewBox="0 0 15 15" width="100%" height="30px" preserveAspectRatio="xMaxYMin meet">
         <g id="arrow_out" transform="scale(0.3 0.3)">
          <a xlink:href="classlola_1_1vx_1_1v1_1_1_atomic_neuron__coll__graph_org.svg" target="_base">
           <rect id="button" ry="5" rx="5" y="6" x="6" height="38" width="38"
                fill="#f2f5e9" fill-opacity="0.5" stroke="#606060" stroke-width="1.0"/>
           <path id="arrow"
             d="M 11.500037,31.436501 C 11.940474,20.09759 22.043105,11.32322 32.158766,21.979434 L 37.068811,17.246167 C 37.068811,17.246167 37.088388,32 37.088388,32 L 22.160133,31.978069 C 22.160133,31.978069 26.997745,27.140456 26.997745,27.140456 C 18.528582,18.264221 13.291696,25.230495 11.500037,31.436501 z"
             style="fill:#404040;"/>
          </a>
         </g>
        </svg>
</svg>
