<?xml version="1.0" encoding="UTF-8" standalone="no"?>
<!DOCTYPE svg PUBLIC "-//W3C//DTD SVG 1.1//EN"
 "http://www.w3.org/Graphics/SVG/1.1/DTD/svg11.dtd">
<!-- Generated by graphviz version 2.43.0 (0)
 -->
<!-- Title: lola::vx::v2::AtomicNeuron Pages: 1 -->
<svg width="418pt" height="719pt"
 viewBox="0.00 0.00 417.73 719.00" xmlns="http://www.w3.org/2000/svg" xmlns:xlink="http://www.w3.org/1999/xlink">
<g id="graph0" class="graph" transform="scale(1 1) rotate(0) translate(4 715)">
<title>lola::vx::v2::AtomicNeuron</title>
<polygon fill="white" stroke="transparent" points="-4,4 -4,-715 413.73,-715 413.73,4 -4,4"/>
<!-- Node1 -->
<g id="node1" class="node">
<title>Node1</title>
<g id="a_node1"><a xlink:title="Configuration of digital and analog parameters for a single&#45;denmem neuron.">
<polygon fill="#bfbfbf" stroke="black" points="277.6,-312.5 277.6,-332.5 409.73,-332.5 409.73,-312.5 277.6,-312.5"/>
<text text-anchor="middle" x="343.66" y="-319.5" font-family="Helvetica,sans-Serif" font-size="10.00">lola::vx::v2::AtomicNeuron</text>
</a>
</g>
</g>
<!-- Node2 -->
<g id="node2" class="node">
<title>Node2</title>
<g id="a_node2"><a xlink:href="structlola_1_1vx_1_1v2_1_1_atomic_neuron_1_1_refractory_period.html" target="_top" xlink:title=" ">
<polygon fill="white" stroke="black" points="0,-678.5 0,-710.5 132.13,-710.5 132.13,-678.5 0,-678.5"/>
<text text-anchor="start" x="8" y="-697.5" font-family="Helvetica,sans-Serif" font-size="10.00">lola::vx::v2::AtomicNeuron</text>
<text text-anchor="middle" x="66.06" y="-685.5" font-family="Helvetica,sans-Serif" font-size="10.00">::RefractoryPeriod</text>
</a>
</g>
</g>
<!-- Node2&#45;&gt;Node1 -->
<g id="edge1" class="edge">
<title>Node2&#45;&gt;Node1</title>
<path fill="none" stroke="#9a32cd" stroke-dasharray="5,2" d="M142.43,-697.03C182.11,-694.31 228.79,-684.09 259.6,-654.5 308.24,-607.79 335.93,-382.87 341.58,-332.52"/>
<polygon fill="#9a32cd" stroke="#9a32cd" points="142.04,-693.54 132.24,-697.57 142.42,-700.53 142.04,-693.54"/>
<text text-anchor="middle" x="204.86" y="-698.5" font-family="Helvetica,sans-Serif" font-size="10.00"> refractory_period</text>
</g>
<!-- Node3 -->
<g id="node3" class="node">
<title>Node3</title>
<g id="a_node3"><a xlink:href="structlola_1_1vx_1_1v2_1_1_atomic_neuron_1_1_reset.html" target="_top" xlink:title=" ">
<polygon fill="white" stroke="black" points="0,-627.5 0,-659.5 132.13,-659.5 132.13,-627.5 0,-627.5"/>
<text text-anchor="start" x="8" y="-646.5" font-family="Helvetica,sans-Serif" font-size="10.00">lola::vx::v2::AtomicNeuron</text>
<text text-anchor="middle" x="66.06" y="-634.5" font-family="Helvetica,sans-Serif" font-size="10.00">::Reset</text>
</a>
</g>
</g>
<!-- Node3&#45;&gt;Node1 -->
<g id="edge2" class="edge">
<title>Node3&#45;&gt;Node1</title>
<path fill="none" stroke="#9a32cd" stroke-dasharray="5,2" d="M142.57,-640.59C182.07,-635.24 228.53,-622.37 259.6,-592.5 337.39,-517.73 342.82,-372.07 342.81,-332.58"/>
<polygon fill="#9a32cd" stroke="#9a32cd" points="141.93,-637.14 132.43,-641.82 142.78,-644.09 141.93,-637.14"/>
<text text-anchor="middle" x="204.86" y="-641.5" font-family="Helvetica,sans-Serif" font-size="10.00"> reset</text>
</g>
<!-- Node4 -->
<g id="node4" class="node">
<title>Node4</title>
<g id="a_node4"><a xlink:href="structlola_1_1vx_1_1v2_1_1_atomic_neuron_1_1_bayesian.html" target="_top" xlink:title=" ">
<polygon fill="white" stroke="black" points="0,-576.5 0,-608.5 132.13,-608.5 132.13,-576.5 0,-576.5"/>
<text text-anchor="start" x="8" y="-595.5" font-family="Helvetica,sans-Serif" font-size="10.00">lola::vx::v2::AtomicNeuron</text>
<text text-anchor="middle" x="66.06" y="-583.5" font-family="Helvetica,sans-Serif" font-size="10.00">::Bayesian</text>
</a>
</g>
</g>
<!-- Node4&#45;&gt;Node1 -->
<g id="edge3" class="edge">
<title>Node4&#45;&gt;Node1</title>
<path fill="none" stroke="#9a32cd" stroke-dasharray="5,2" d="M141.98,-579.83C181.2,-569.81 227.59,-552.18 259.6,-521.5 317.16,-466.31 336.44,-365.2 341.29,-332.79"/>
<polygon fill="#9a32cd" stroke="#9a32cd" points="141.06,-576.45 132.17,-582.22 142.72,-583.25 141.06,-576.45"/>
<text text-anchor="middle" x="204.86" y="-579.5" font-family="Helvetica,sans-Serif" font-size="10.00"> bayesian</text>
</g>
<!-- Node5 -->
<g id="node5" class="node">
<title>Node5</title>
<g id="a_node5"><a xlink:href="structlola_1_1vx_1_1v2_1_1_atomic_neuron_1_1_multicompartment.html" target="_top" xlink:title="Multicompartment configuration of connectivity to adjacent neurons.">
<polygon fill="white" stroke="black" points="0,-525.5 0,-557.5 132.13,-557.5 132.13,-525.5 0,-525.5"/>
<text text-anchor="start" x="8" y="-544.5" font-family="Helvetica,sans-Serif" font-size="10.00">lola::vx::v2::AtomicNeuron</text>
<text text-anchor="middle" x="66.06" y="-532.5" font-family="Helvetica,sans-Serif" font-size="10.00">::Multicompartment</text>
</a>
</g>
</g>
<!-- Node5&#45;&gt;Node1 -->
<g id="edge4" class="edge">
<title>Node5&#45;&gt;Node1</title>
<path fill="none" stroke="#9a32cd" stroke-dasharray="5,2" d="M122.04,-521.43C125.49,-519.85 128.88,-518.2 132.13,-516.5 192.88,-484.65 209.64,-476.49 259.6,-429.5 292.83,-398.24 323.4,-352.91 336.26,-332.79"/>
<polygon fill="#9a32cd" stroke="#9a32cd" points="120.57,-518.26 112.81,-525.47 123.38,-524.67 120.57,-518.26"/>
<text text-anchor="middle" x="204.86" y="-508.5" font-family="Helvetica,sans-Serif" font-size="10.00"> multicompartment</text>
</g>
<!-- Node6 -->
<g id="node6" class="node">
<title>Node6</title>
<g id="a_node6"><a xlink:href="structlola_1_1vx_1_1v2_1_1_atomic_neuron_1_1_event_routing.html" target="_top" xlink:title=" ">
<polygon fill="white" stroke="black" points="0,-408.5 0,-440.5 132.13,-440.5 132.13,-408.5 0,-408.5"/>
<text text-anchor="start" x="8" y="-427.5" font-family="Helvetica,sans-Serif" font-size="10.00">lola::vx::v2::AtomicNeuron</text>
<text text-anchor="middle" x="66.06" y="-415.5" font-family="Helvetica,sans-Serif" font-size="10.00">::EventRouting</text>
</a>
</g>
</g>
<!-- Node6&#45;&gt;Node1 -->
<g id="edge5" class="edge">
<title>Node6&#45;&gt;Node1</title>
<path fill="none" stroke="#9a32cd" stroke-dasharray="5,2" d="M142.54,-415.39C179.02,-409.16 222.77,-398.96 259.6,-382.5 288.19,-369.73 316.73,-346.16 331.77,-332.67"/>
<polygon fill="#9a32cd" stroke="#9a32cd" points="141.76,-411.97 132.45,-417.04 142.89,-418.88 141.76,-411.97"/>
<text text-anchor="middle" x="204.86" y="-416.5" font-family="Helvetica,sans-Serif" font-size="10.00"> event_routing</text>
</g>
<!-- Node6&#45;&gt;Node6 -->
<g id="edge6" class="edge">
<title>Node6&#45;&gt;Node6</title>
<path fill="none" stroke="#9a32cd" stroke-dasharray="5,2" d="M41.78,-451.08C44.99,-455.75 53.09,-459 66.06,-459 87.36,-459 95.51,-450.24 90.52,-440.83"/>
<polygon fill="#9a32cd" stroke="#9a32cd" points="45.27,-450.77 41.61,-440.83 38.27,-450.88 45.27,-450.77"/>
<text text-anchor="middle" x="66.06" y="-498" font-family="Helvetica,sans-Serif" font-size="10.00"> bypass_inh</text>
<text text-anchor="middle" x="66.06" y="-486" font-family="Helvetica,sans-Serif" font-size="10.00">bypass_exc</text>
<text text-anchor="middle" x="66.06" y="-474" font-family="Helvetica,sans-Serif" font-size="10.00">disabled</text>
<text text-anchor="middle" x="66.06" y="-462" font-family="Helvetica,sans-Serif" font-size="10.00">enabled</text>
</g>
<!-- Node7 -->
<g id="node7" class="node">
<title>Node7</title>
<g id="a_node7"><a xlink:href="structlola_1_1vx_1_1v2_1_1_atomic_neuron_1_1_membrane_capacitance.html" target="_top" xlink:title=" ">
<polygon fill="white" stroke="black" points="0,-357.5 0,-389.5 132.13,-389.5 132.13,-357.5 0,-357.5"/>
<text text-anchor="start" x="8" y="-376.5" font-family="Helvetica,sans-Serif" font-size="10.00">lola::vx::v2::AtomicNeuron</text>
<text text-anchor="middle" x="66.06" y="-364.5" font-family="Helvetica,sans-Serif" font-size="10.00">::MembraneCapacitance</text>
</a>
</g>
</g>
<!-- Node7&#45;&gt;Node1 -->
<g id="edge7" class="edge">
<title>Node7&#45;&gt;Node1</title>
<path fill="none" stroke="#9a32cd" stroke-dasharray="5,2" d="M142.61,-368.11C178.37,-364.63 221.49,-359.1 259.6,-350.5 279.34,-346.04 300.99,-338.66 317.24,-332.59"/>
<polygon fill="#9a32cd" stroke="#9a32cd" points="141.88,-364.66 132.25,-369.08 142.53,-371.63 141.88,-364.66"/>
<text text-anchor="middle" x="204.86" y="-369.5" font-family="Helvetica,sans-Serif" font-size="10.00"> membrane_capacitance</text>
</g>
<!-- Node8 -->
<g id="node8" class="node">
<title>Node8</title>
<g id="a_node8"><a xlink:href="structlola_1_1vx_1_1v2_1_1_atomic_neuron_1_1_synaptic_input.html" target="_top" xlink:title=" ">
<polygon fill="white" stroke="black" points="0,-306.5 0,-338.5 132.13,-338.5 132.13,-306.5 0,-306.5"/>
<text text-anchor="start" x="8" y="-325.5" font-family="Helvetica,sans-Serif" font-size="10.00">lola::vx::v2::AtomicNeuron</text>
<text text-anchor="middle" x="66.06" y="-313.5" font-family="Helvetica,sans-Serif" font-size="10.00">::SynapticInput</text>
</a>
</g>
</g>
<!-- Node8&#45;&gt;Node1 -->
<g id="edge8" class="edge">
<title>Node8&#45;&gt;Node1</title>
<path fill="none" stroke="#9a32cd" stroke-dasharray="5,2" d="M142.61,-322.5C184.82,-322.5 236.9,-322.5 277.34,-322.5"/>
<polygon fill="#9a32cd" stroke="#9a32cd" points="142.38,-319 132.38,-322.5 142.38,-326 142.38,-319"/>
<text text-anchor="middle" x="204.86" y="-337.5" font-family="Helvetica,sans-Serif" font-size="10.00"> inhibitory_input</text>
<text text-anchor="middle" x="204.86" y="-325.5" font-family="Helvetica,sans-Serif" font-size="10.00">excitatory_input</text>
</g>
<!-- Node9 -->
<g id="node9" class="node">
<title>Node9</title>
<g id="a_node9"><a xlink:href="structlola_1_1vx_1_1v2_1_1_atomic_neuron_1_1_readout.html" target="_top" xlink:title=" ">
<polygon fill="white" stroke="black" points="0,-255.5 0,-287.5 132.13,-287.5 132.13,-255.5 0,-255.5"/>
<text text-anchor="start" x="8" y="-274.5" font-family="Helvetica,sans-Serif" font-size="10.00">lola::vx::v2::AtomicNeuron</text>
<text text-anchor="middle" x="66.06" y="-262.5" font-family="Helvetica,sans-Serif" font-size="10.00">::Readout</text>
</a>
</g>
</g>
<!-- Node9&#45;&gt;Node1 -->
<g id="edge9" class="edge">
<title>Node9&#45;&gt;Node1</title>
<path fill="none" stroke="#9a32cd" stroke-dasharray="5,2" d="M142,-284.93C177.64,-291.37 220.83,-299.24 259.6,-306.5 269.7,-308.39 280.49,-310.44 290.84,-312.43"/>
<polygon fill="#9a32cd" stroke="#9a32cd" points="142.62,-281.49 132.15,-283.16 141.37,-288.38 142.62,-281.49"/>
<text text-anchor="middle" x="204.86" y="-309.5" font-family="Helvetica,sans-Serif" font-size="10.00"> readout</text>
</g>
<!-- Node10 -->
<g id="node10" class="node">
<title>Node10</title>
<g id="a_node10"><a xlink:href="structlola_1_1vx_1_1v2_1_1_atomic_neuron_1_1_exponential.html" target="_top" xlink:title=" ">
<polygon fill="white" stroke="black" points="0,-204.5 0,-236.5 132.13,-236.5 132.13,-204.5 0,-204.5"/>
<text text-anchor="start" x="8" y="-223.5" font-family="Helvetica,sans-Serif" font-size="10.00">lola::vx::v2::AtomicNeuron</text>
<text text-anchor="middle" x="66.06" y="-211.5" font-family="Helvetica,sans-Serif" font-size="10.00">::Exponential</text>
</a>
</g>
</g>
<!-- Node10&#45;&gt;Node1 -->
<g id="edge10" class="edge">
<title>Node10&#45;&gt;Node1</title>
<path fill="none" stroke="#9a32cd" stroke-dasharray="5,2" d="M142.47,-234.48C178.75,-242.61 222.34,-254.45 259.6,-270.5 285.85,-281.81 313.42,-300.67 329.27,-312.3"/>
<polygon fill="#9a32cd" stroke="#9a32cd" points="142.95,-231.01 132.44,-232.29 141.46,-237.85 142.95,-231.01"/>
<text text-anchor="middle" x="204.86" y="-273.5" font-family="Helvetica,sans-Serif" font-size="10.00"> exponential</text>
</g>
<!-- Node11 -->
<g id="node11" class="node">
<title>Node11</title>
<g id="a_node11"><a xlink:href="structlola_1_1vx_1_1v2_1_1_atomic_neuron_1_1_constant_current.html" target="_top" xlink:title=" ">
<polygon fill="white" stroke="black" points="0,-153.5 0,-185.5 132.13,-185.5 132.13,-153.5 0,-153.5"/>
<text text-anchor="start" x="8" y="-172.5" font-family="Helvetica,sans-Serif" font-size="10.00">lola::vx::v2::AtomicNeuron</text>
<text text-anchor="middle" x="66.06" y="-160.5" font-family="Helvetica,sans-Serif" font-size="10.00">::ConstantCurrent</text>
</a>
</g>
</g>
<!-- Node11&#45;&gt;Node1 -->
<g id="edge11" class="edge">
<title>Node11&#45;&gt;Node1</title>
<path fill="none" stroke="#9a32cd" stroke-dasharray="5,2" d="M142.16,-178.21C179.72,-185.24 224.53,-197.86 259.6,-220.5 297.21,-244.77 325.92,-291.67 337.31,-312.32"/>
<polygon fill="#9a32cd" stroke="#9a32cd" points="142.73,-174.76 132.28,-176.46 141.51,-181.65 142.73,-174.76"/>
<text text-anchor="middle" x="204.86" y="-223.5" font-family="Helvetica,sans-Serif" font-size="10.00"> constant_current</text>
</g>
<!-- Node12 -->
<g id="node12" class="node">
<title>Node12</title>
<g id="a_node12"><a xlink:href="structlola_1_1vx_1_1v2_1_1_atomic_neuron_1_1_threshold.html" target="_top" xlink:title=" ">
<polygon fill="white" stroke="black" points="0,-102.5 0,-134.5 132.13,-134.5 132.13,-102.5 0,-102.5"/>
<text text-anchor="start" x="8" y="-121.5" font-family="Helvetica,sans-Serif" font-size="10.00">lola::vx::v2::AtomicNeuron</text>
<text text-anchor="middle" x="66.06" y="-109.5" font-family="Helvetica,sans-Serif" font-size="10.00">::Threshold</text>
</a>
</g>
</g>
<!-- Node12&#45;&gt;Node1 -->
<g id="edge12" class="edge">
<title>Node12&#45;&gt;Node1</title>
<path fill="none" stroke="#9a32cd" stroke-dasharray="5,2" d="M142.37,-121.9C180.81,-127.01 226.35,-138.66 259.6,-164.5 310.74,-204.24 333.74,-284.4 340.46,-312.5"/>
<polygon fill="#9a32cd" stroke="#9a32cd" points="142.59,-118.4 132.25,-120.68 141.75,-125.35 142.59,-118.4"/>
<text text-anchor="middle" x="204.86" y="-167.5" font-family="Helvetica,sans-Serif" font-size="10.00"> threshold</text>
</g>
<!-- Node13 -->
<g id="node13" class="node">
<title>Node13</title>
<g id="a_node13"><a xlink:href="structlola_1_1vx_1_1v2_1_1_atomic_neuron_1_1_adaptation.html" target="_top" xlink:title=" ">
<polygon fill="white" stroke="black" points="0,-51.5 0,-83.5 132.13,-83.5 132.13,-51.5 0,-51.5"/>
<text text-anchor="start" x="8" y="-70.5" font-family="Helvetica,sans-Serif" font-size="10.00">lola::vx::v2::AtomicNeuron</text>
<text text-anchor="middle" x="66.06" y="-58.5" font-family="Helvetica,sans-Serif" font-size="10.00">::Adaptation</text>
</a>
</g>
</g>
<!-- Node13&#45;&gt;Node1 -->
<g id="edge13" class="edge">
<title>Node13&#45;&gt;Node1</title>
<path fill="none" stroke="#9a32cd" stroke-dasharray="5,2" d="M142.59,-66.18C181.52,-69.28 227.44,-79.32 259.6,-106.5 325.88,-162.52 339.45,-277.78 342.07,-312.43"/>
<polygon fill="#9a32cd" stroke="#9a32cd" points="142.54,-62.67 132.33,-65.5 142.08,-69.65 142.54,-62.67"/>
<text text-anchor="middle" x="204.86" y="-109.5" font-family="Helvetica,sans-Serif" font-size="10.00"> adaptation</text>
</g>
<!-- Node14 -->
<g id="node14" class="node">
<title>Node14</title>
<g id="a_node14"><a xlink:href="structlola_1_1vx_1_1v2_1_1_atomic_neuron_1_1_leak.html" target="_top" xlink:title=" ">
<polygon fill="white" stroke="black" points="0,-0.5 0,-32.5 132.13,-32.5 132.13,-0.5 0,-0.5"/>
<text text-anchor="start" x="8" y="-19.5" font-family="Helvetica,sans-Serif" font-size="10.00">lola::vx::v2::AtomicNeuron</text>
<text text-anchor="middle" x="66.06" y="-7.5" font-family="Helvetica,sans-Serif" font-size="10.00">::Leak</text>
</a>
</g>
</g>
<!-- Node14&#45;&gt;Node1 -->
<g id="edge14" class="edge">
<title>Node14&#45;&gt;Node1</title>
<path fill="none" stroke="#9a32cd" stroke-dasharray="5,2" d="M142.53,-12.04C181.79,-13.73 228.04,-22.56 259.6,-50.5 341.12,-122.66 343.83,-272.31 343.02,-312.42"/>
<polygon fill="#9a32cd" stroke="#9a32cd" points="142.54,-8.54 132.45,-11.75 142.34,-15.53 142.54,-8.54"/>
<text text-anchor="middle" x="204.86" y="-53.5" font-family="Helvetica,sans-Serif" font-size="10.00"> leak</text>
</g>
</g>
</svg>
