<?xml version="1.0" encoding="UTF-8" standalone="no"?>
<!DOCTYPE svg PUBLIC "-//W3C//DTD SVG 1.1//EN"
 "http://www.w3.org/Graphics/SVG/1.1/DTD/svg11.dtd">
<!-- Generated by graphviz version 2.43.0 (0)
 -->
<!-- Title: /jenkins/jenlib_workspaces_f9/bld_nightly&#45;haldls.YmxkX25pZ2h0bHktaGFsZGxzIzcxMQ.x/haldls/include/lola/vx/genpybind.h Pages: 1 -->
<!--zoomable 530 -->
<svg id="main" version="1.1" xmlns="http://www.w3.org/2000/svg" xmlns:xlink="http://www.w3.org/1999/xlink" xml:space="preserve" onload="init(evt)">
<style type="text/css"><![CDATA[
.edge:hover path { stroke: red; }
.edge:hover polygon { stroke: red; fill: red; }
]]></style>
<script type="text/javascript"><![CDATA[
var edges = document.getElementsByTagName('g');
if (edges && edges.length) {
  for (var i=0;i<edges.length;i++) {
    if (edges[i].id.substr(0,4)=='edge') {
      edges[i].setAttribute('class','edge');
    }
  }
}
]]></script>
        <defs>
                <circle id="rim" cx="0" cy="0" r="7"/>
                <circle id="rim2" cx="0" cy="0" r="3.5"/>
                <g id="zoomPlus">
                        <use xlink:href="#rim" fill="#404040">
                                <set attributeName="fill" to="#808080" begin="zoomplus.mouseover" end="zoomplus.mouseout"/>
                        </use>
                        <path d="M-4,0h8M0,-4v8" fill="none" stroke="white" stroke-width="1.5" pointer-events="none"/>
                </g>
                <g id="zoomMin">
                        <use xlink:href="#rim" fill="#404040">
                                <set attributeName="fill" to="#808080" begin="zoomminus.mouseover" end="zoomminus.mouseout"/>
                        </use>
                        <path d="M-4,0h8" fill="none" stroke="white" stroke-width="1.5" pointer-events="none"/>
                </g>
                <g id="dirArrow">
                        <path fill="none" stroke="white" stroke-width="1.5" d="M0,-3.0v7 M-2.5,-0.5L0,-3.0L2.5,-0.5"/>
                </g>
               <g id="resetDef">
                       <use xlink:href="#rim2" fill="#404040">
                               <set attributeName="fill" to="#808080" begin="reset.mouseover" end="reset.mouseout"/>
                       </use>
               </g>
        </defs>

<script type="text/javascript">
var viewWidth = 1689;
var viewHeight = 530;
var sectionId = 'dynsection-1';
</script>
<script xlink:href="svgpan.js"/>
<svg id="graph" class="graph">
<g id="viewport">
<title>/jenkins/jenlib_workspaces_f9/bld_nightly&#45;haldls.YmxkX25pZ2h0bHktaGFsZGxzIzcxMQ.x/haldls/include/lola/vx/genpybind.h</title>
<polygon fill="white" stroke="transparent" points="-4,4 -4,-526 1685.12,-526 1685.12,4 -4,4"/>
<!-- Node1 -->
<g id="node1" class="node">
<title>Node1</title>
<g id="a_node1"><a xlink:title=" ">
<polygon fill="#bfbfbf" stroke="black" points="800,-465.5 800,-521.5 978.24,-521.5 978.24,-465.5 800,-465.5"/>
<text text-anchor="start" x="808" y="-508.5" font-family="Helvetica,sans-Serif" font-size="10.00">/jenkins/jenlib_workspaces</text>
<text text-anchor="start" x="808" y="-496.5" font-family="Helvetica,sans-Serif" font-size="10.00">_f9/bld_nightly&#45;haldls.YmxkX25p</text>
<text text-anchor="start" x="808" y="-484.5" font-family="Helvetica,sans-Serif" font-size="10.00">Z2h0bHktaGFsZGxzIzcxMQ.x/haldls</text>
<text text-anchor="middle" x="889.12" y="-472.5" font-family="Helvetica,sans-Serif" font-size="10.00">/include/lola/vx/genpybind.h</text>
</a>
</g>
</g>
<!-- Node1&#45;&gt;Node1 -->
<g id="edge10" class="edge">
<title>Node1&#45;&gt;Node1</title>
<path fill="none" stroke="midnightblue" d="M988.15,-504.75C993.23,-501.97 996.24,-498.22 996.24,-493.5 996.24,-486.31 989.26,-481.37 978.59,-478.68"/>
<polygon fill="midnightblue" stroke="midnightblue" points="986.73,-501.54 978.59,-508.32 989.18,-508.1 986.73,-501.54"/>
</g>
<!-- Node2 -->
<g id="node2" class="node">
<title>Node2</title>
<g id="a_node2"><a xlink:href="dac_8h.html" target="_top" xlink:title=" ">
<polygon fill="white" stroke="black" points="664,-372.5 664,-428.5 842.24,-428.5 842.24,-372.5 664,-372.5"/>
<text text-anchor="start" x="672" y="-415.5" font-family="Helvetica,sans-Serif" font-size="10.00">/jenkins/jenlib_workspaces</text>
<text text-anchor="start" x="672" y="-403.5" font-family="Helvetica,sans-Serif" font-size="10.00">_f9/bld_nightly&#45;haldls.YmxkX25p</text>
<text text-anchor="start" x="672" y="-391.5" font-family="Helvetica,sans-Serif" font-size="10.00">Z2h0bHktaGFsZGxzIzcxMQ.x/haldls</text>
<text text-anchor="middle" x="753.12" y="-379.5" font-family="Helvetica,sans-Serif" font-size="10.00">/include/lola/vx/dac.h</text>
</a>
</g>
</g>
<!-- Node1&#45;&gt;Node2 -->
<g id="edge1" class="edge">
<title>Node1&#45;&gt;Node2</title>
<path fill="none" stroke="midnightblue" d="M840.34,-459.86C825.03,-449.62 808.31,-438.43 793.63,-428.61"/>
<polygon fill="midnightblue" stroke="midnightblue" points="838.43,-462.79 848.68,-465.44 842.32,-456.97 838.43,-462.79"/>
</g>
<!-- Node3 -->
<g id="node3" class="node">
<title>Node3</title>
<g id="a_node3"><a xlink:href="v1_2dac_8h.html" target="_top" xlink:title=" ">
<polygon fill="white" stroke="black" points="465,-279.5 465,-335.5 643.24,-335.5 643.24,-279.5 465,-279.5"/>
<text text-anchor="start" x="473" y="-322.5" font-family="Helvetica,sans-Serif" font-size="10.00">/jenkins/jenlib_workspaces</text>
<text text-anchor="start" x="473" y="-310.5" font-family="Helvetica,sans-Serif" font-size="10.00">_f9/bld_nightly&#45;haldls.YmxkX25p</text>
<text text-anchor="start" x="473" y="-298.5" font-family="Helvetica,sans-Serif" font-size="10.00">Z2h0bHktaGFsZGxzIzcxMQ.x/haldls</text>
<text text-anchor="middle" x="554.12" y="-286.5" font-family="Helvetica,sans-Serif" font-size="10.00">/include/lola/vx/v1/dac.h</text>
</a>
</g>
</g>
<!-- Node1&#45;&gt;Node3 -->
<g id="edge18" class="edge">
<title>Node1&#45;&gt;Node3</title>
<path fill="none" stroke="midnightblue" d="M789.9,-481.63C745.46,-472.92 694.35,-457.23 655.12,-429 630.41,-411.21 636.38,-395.58 617.12,-372 606.81,-359.37 594.35,-346.42 583.25,-335.53"/>
<polygon fill="midnightblue" stroke="midnightblue" points="789.39,-485.09 799.86,-483.48 790.67,-478.21 789.39,-485.09"/>
</g>
<!-- Node6 -->
<g id="node6" class="node">
<title>Node6</title>
<g id="a_node6"><a xlink:href="v1_2pylola_8h.html" target="_top" xlink:title=" ">
<polygon fill="white" stroke="black" points="0,-0.5 0,-56.5 178.24,-56.5 178.24,-0.5 0,-0.5"/>
<text text-anchor="start" x="8" y="-43.5" font-family="Helvetica,sans-Serif" font-size="10.00">/jenkins/jenlib_workspaces</text>
<text text-anchor="start" x="8" y="-31.5" font-family="Helvetica,sans-Serif" font-size="10.00">_f9/bld_nightly&#45;haldls.YmxkX25p</text>
<text text-anchor="start" x="8" y="-19.5" font-family="Helvetica,sans-Serif" font-size="10.00">Z2h0bHktaGFsZGxzIzcxMQ.x/haldls</text>
<text text-anchor="middle" x="89.12" y="-7.5" font-family="Helvetica,sans-Serif" font-size="10.00">/include/lola/vx/v1/pylola.h</text>
</a>
</g>
</g>
<!-- Node1&#45;&gt;Node6 -->
<g id="edge24" class="edge">
<title>Node1&#45;&gt;Node6</title>
<path fill="none" stroke="midnightblue" d="M789.51,-491.97C574.96,-489.87 84.02,-479.54 29.12,-429 -10.77,-392.28 10.12,-362.72 10.12,-308.5 10.12,-308.5 10.12,-308.5 10.12,-213.5 10.12,-153.71 45.78,-91.2 69.18,-56.62"/>
<polygon fill="midnightblue" stroke="midnightblue" points="789.8,-495.47 799.83,-492.07 789.86,-488.47 789.8,-495.47"/>
</g>
<!-- Node7 -->
<g id="node7" class="node">
<title>Node7</title>
<g id="a_node7"><a xlink:href="v2_2dac_8h.html" target="_top" xlink:title=" ">
<polygon fill="white" stroke="black" points="699,-279.5 699,-335.5 877.24,-335.5 877.24,-279.5 699,-279.5"/>
<text text-anchor="start" x="707" y="-322.5" font-family="Helvetica,sans-Serif" font-size="10.00">/jenkins/jenlib_workspaces</text>
<text text-anchor="start" x="707" y="-310.5" font-family="Helvetica,sans-Serif" font-size="10.00">_f9/bld_nightly&#45;haldls.YmxkX25p</text>
<text text-anchor="start" x="707" y="-298.5" font-family="Helvetica,sans-Serif" font-size="10.00">Z2h0bHktaGFsZGxzIzcxMQ.x/haldls</text>
<text text-anchor="middle" x="788.12" y="-286.5" font-family="Helvetica,sans-Serif" font-size="10.00">/include/lola/vx/v2/dac.h</text>
</a>
</g>
</g>
<!-- Node1&#45;&gt;Node7 -->
<g id="edge27" class="edge">
<title>Node1&#45;&gt;Node7</title>
<path fill="none" stroke="midnightblue" d="M896,-454.99C898.66,-429.91 898.26,-397.05 884.12,-372 875.67,-357.03 862.06,-344.96 847.72,-335.52"/>
<polygon fill="midnightblue" stroke="midnightblue" points="892.49,-454.86 894.7,-465.22 899.44,-455.74 892.49,-454.86"/>
</g>
<!-- Node10 -->
<g id="node10" class="node">
<title>Node10</title>
<g id="a_node10"><a xlink:href="v2_2pylola_8h.html" target="_top" xlink:title=" ">
<polygon fill="white" stroke="black" points="836,-0.5 836,-56.5 1014.24,-56.5 1014.24,-0.5 836,-0.5"/>
<text text-anchor="start" x="844" y="-43.5" font-family="Helvetica,sans-Serif" font-size="10.00">/jenkins/jenlib_workspaces</text>
<text text-anchor="start" x="844" y="-31.5" font-family="Helvetica,sans-Serif" font-size="10.00">_f9/bld_nightly&#45;haldls.YmxkX25p</text>
<text text-anchor="start" x="844" y="-19.5" font-family="Helvetica,sans-Serif" font-size="10.00">Z2h0bHktaGFsZGxzIzcxMQ.x/haldls</text>
<text text-anchor="middle" x="925.12" y="-7.5" font-family="Helvetica,sans-Serif" font-size="10.00">/include/lola/vx/v2/pylola.h</text>
</a>
</g>
</g>
<!-- Node1&#45;&gt;Node10 -->
<g id="edge33" class="edge">
<title>Node1&#45;&gt;Node10</title>
<path fill="none" stroke="midnightblue" d="M886.95,-455.2C883.38,-428.33 874.23,-393.21 851.12,-372 797.1,-322.42 735.96,-393.22 690.12,-336 674.28,-316.23 680.78,-302.55 690.12,-279 729.4,-180 828.64,-97.46 884.79,-56.77"/>
<polygon fill="midnightblue" stroke="midnightblue" points="883.5,-455.86 888.1,-465.41 890.46,-455.08 883.5,-455.86"/>
</g>
<!-- Node11 -->
<g id="node11" class="node">
<title>Node11</title>
<g id="a_node11"><a xlink:href="ppu_8h.html" target="_top" xlink:title=" ">
<polygon fill="white" stroke="black" points="974,-372.5 974,-428.5 1152.24,-428.5 1152.24,-372.5 974,-372.5"/>
<text text-anchor="start" x="982" y="-415.5" font-family="Helvetica,sans-Serif" font-size="10.00">/jenkins/jenlib_workspaces</text>
<text text-anchor="start" x="982" y="-403.5" font-family="Helvetica,sans-Serif" font-size="10.00">_f9/bld_nightly&#45;haldls.YmxkX25p</text>
<text text-anchor="start" x="982" y="-391.5" font-family="Helvetica,sans-Serif" font-size="10.00">Z2h0bHktaGFsZGxzIzcxMQ.x/haldls</text>
<text text-anchor="middle" x="1063.12" y="-379.5" font-family="Helvetica,sans-Serif" font-size="10.00">/include/lola/vx/ppu.h</text>
</a>
</g>
</g>
<!-- Node1&#45;&gt;Node11 -->
<g id="edge11" class="edge">
<title>Node1&#45;&gt;Node11</title>
<path fill="none" stroke="midnightblue" d="M949.89,-460.72C969.92,-450.24 991.99,-438.7 1011.28,-428.61"/>
<polygon fill="midnightblue" stroke="midnightblue" points="948.09,-457.71 940.85,-465.44 951.34,-463.91 948.09,-457.71"/>
</g>
<!-- Node12 -->
<g id="node12" class="node">
<title>Node12</title>
<g id="a_node12"><a xlink:href="v1_2ppu_8h.html" target="_top" xlink:title=" ">
<polygon fill="white" stroke="black" points="895,-279.5 895,-335.5 1073.24,-335.5 1073.24,-279.5 895,-279.5"/>
<text text-anchor="start" x="903" y="-322.5" font-family="Helvetica,sans-Serif" font-size="10.00">/jenkins/jenlib_workspaces</text>
<text text-anchor="start" x="903" y="-310.5" font-family="Helvetica,sans-Serif" font-size="10.00">_f9/bld_nightly&#45;haldls.YmxkX25p</text>
<text text-anchor="start" x="903" y="-298.5" font-family="Helvetica,sans-Serif" font-size="10.00">Z2h0bHktaGFsZGxzIzcxMQ.x/haldls</text>
<text text-anchor="middle" x="984.12" y="-286.5" font-family="Helvetica,sans-Serif" font-size="10.00">/include/lola/vx/v1/ppu.h</text>
</a>
</g>
</g>
<!-- Node1&#45;&gt;Node12 -->
<g id="edge21" class="edge">
<title>Node1&#45;&gt;Node12</title>
<path fill="none" stroke="midnightblue" d="M907.96,-456.3C912.6,-447.38 917.54,-437.85 922.12,-429 938.65,-397.03 957.57,-360.23 970.12,-335.8"/>
<polygon fill="midnightblue" stroke="midnightblue" points="904.78,-454.83 903.27,-465.32 910.99,-458.06 904.78,-454.83"/>
</g>
<!-- Node13 -->
<g id="node13" class="node">
<title>Node13</title>
<g id="a_node13"><a xlink:href="v2_2ppu_8h.html" target="_top" xlink:title=" ">
<polygon fill="white" stroke="black" points="1091,-279.5 1091,-335.5 1269.24,-335.5 1269.24,-279.5 1091,-279.5"/>
<text text-anchor="start" x="1099" y="-322.5" font-family="Helvetica,sans-Serif" font-size="10.00">/jenkins/jenlib_workspaces</text>
<text text-anchor="start" x="1099" y="-310.5" font-family="Helvetica,sans-Serif" font-size="10.00">_f9/bld_nightly&#45;haldls.YmxkX25p</text>
<text text-anchor="start" x="1099" y="-298.5" font-family="Helvetica,sans-Serif" font-size="10.00">Z2h0bHktaGFsZGxzIzcxMQ.x/haldls</text>
<text text-anchor="middle" x="1180.12" y="-286.5" font-family="Helvetica,sans-Serif" font-size="10.00">/include/lola/vx/v2/ppu.h</text>
</a>
</g>
</g>
<!-- Node1&#45;&gt;Node13 -->
<g id="edge30" class="edge">
<title>Node1&#45;&gt;Node13</title>
<path fill="none" stroke="midnightblue" d="M988.66,-480.98C1056.32,-471.04 1137.64,-454.25 1161.12,-429 1184.33,-404.03 1185.86,-362.8 1183.8,-335.65"/>
<polygon fill="midnightblue" stroke="midnightblue" points="987.76,-477.58 978.36,-482.46 988.76,-484.5 987.76,-477.58"/>
</g>
<!-- Node14 -->
<g id="node14" class="node">
<title>Node14</title>
<g id="a_node14"><a xlink:href="v1_2cadc_8h.html" target="_top" xlink:title=" ">
<polygon fill="white" stroke="black" points="38,-372.5 38,-428.5 216.24,-428.5 216.24,-372.5 38,-372.5"/>
<text text-anchor="start" x="46" y="-415.5" font-family="Helvetica,sans-Serif" font-size="10.00">/jenkins/jenlib_workspaces</text>
<text text-anchor="start" x="46" y="-403.5" font-family="Helvetica,sans-Serif" font-size="10.00">_f9/bld_nightly&#45;haldls.YmxkX25p</text>
<text text-anchor="start" x="46" y="-391.5" font-family="Helvetica,sans-Serif" font-size="10.00">Z2h0bHktaGFsZGxzIzcxMQ.x/haldls</text>
<text text-anchor="middle" x="127.12" y="-379.5" font-family="Helvetica,sans-Serif" font-size="10.00">/include/lola/vx/v1/cadc.h</text>
</a>
</g>
</g>
<!-- Node1&#45;&gt;Node14 -->
<g id="edge16" class="edge">
<title>Node1&#45;&gt;Node14</title>
<path fill="none" stroke="midnightblue" d="M789.44,-488.51C658.87,-482.02 423.24,-465.97 225.12,-429 222.25,-428.47 219.35,-427.89 216.42,-427.27"/>
<polygon fill="midnightblue" stroke="midnightblue" points="789.65,-492.02 799.81,-489.01 789.99,-485.03 789.65,-492.02"/>
</g>
<!-- Node15 -->
<g id="node15" class="node">
<title>Node15</title>
<g id="a_node15"><a xlink:href="v1_2neuron_8h.html" target="_top" xlink:title=" ">
<polygon fill="white" stroke="black" points="234,-372.5 234,-428.5 412.24,-428.5 412.24,-372.5 234,-372.5"/>
<text text-anchor="start" x="242" y="-415.5" font-family="Helvetica,sans-Serif" font-size="10.00">/jenkins/jenlib_workspaces</text>
<text text-anchor="start" x="242" y="-403.5" font-family="Helvetica,sans-Serif" font-size="10.00">_f9/bld_nightly&#45;haldls.YmxkX25p</text>
<text text-anchor="start" x="242" y="-391.5" font-family="Helvetica,sans-Serif" font-size="10.00">Z2h0bHktaGFsZGxzIzcxMQ.x/haldls</text>
<text text-anchor="middle" x="323.12" y="-379.5" font-family="Helvetica,sans-Serif" font-size="10.00">/include/lola/vx/v1/neuron.h</text>
</a>
</g>
</g>
<!-- Node1&#45;&gt;Node15 -->
<g id="edge19" class="edge">
<title>Node1&#45;&gt;Node15</title>
<path fill="none" stroke="midnightblue" d="M789.45,-483.03C694.24,-473.03 547,-455.07 421.12,-429 418.26,-428.41 415.37,-427.78 412.45,-427.12"/>
<polygon fill="midnightblue" stroke="midnightblue" points="789.34,-486.53 799.65,-484.09 790.06,-479.57 789.34,-486.53"/>
</g>
<!-- Node16 -->
<g id="node16" class="node">
<title>Node16</title>
<g id="a_node16"><a xlink:href="v1_2synapse_8h.html" target="_top" xlink:title=" ">
<polygon fill="white" stroke="black" points="430,-372.5 430,-428.5 608.24,-428.5 608.24,-372.5 430,-372.5"/>
<text text-anchor="start" x="438" y="-415.5" font-family="Helvetica,sans-Serif" font-size="10.00">/jenkins/jenlib_workspaces</text>
<text text-anchor="start" x="438" y="-403.5" font-family="Helvetica,sans-Serif" font-size="10.00">_f9/bld_nightly&#45;haldls.YmxkX25p</text>
<text text-anchor="start" x="438" y="-391.5" font-family="Helvetica,sans-Serif" font-size="10.00">Z2h0bHktaGFsZGxzIzcxMQ.x/haldls</text>
<text text-anchor="middle" x="519.12" y="-379.5" font-family="Helvetica,sans-Serif" font-size="10.00">/include/lola/vx/v1/synapse.h</text>
</a>
</g>
</g>
<!-- Node1&#45;&gt;Node16 -->
<g id="edge22" class="edge">
<title>Node1&#45;&gt;Node16</title>
<path fill="none" stroke="midnightblue" d="M790.06,-469.62C739.69,-457.82 677.56,-442.99 622.12,-429 617.63,-427.87 613.04,-426.69 608.41,-425.5"/>
<polygon fill="midnightblue" stroke="midnightblue" points="789.44,-473.07 799.97,-471.94 791.03,-466.26 789.44,-473.07"/>
</g>
<!-- Node17 -->
<g id="node17" class="node">
<title>Node17</title>
<g id="a_node17"><a xlink:href="v2_2cadc_8h.html" target="_top" xlink:title=" ">
<polygon fill="white" stroke="black" points="1287,-279.5 1287,-335.5 1465.24,-335.5 1465.24,-279.5 1287,-279.5"/>
<text text-anchor="start" x="1295" y="-322.5" font-family="Helvetica,sans-Serif" font-size="10.00">/jenkins/jenlib_workspaces</text>
<text text-anchor="start" x="1295" y="-310.5" font-family="Helvetica,sans-Serif" font-size="10.00">_f9/bld_nightly&#45;haldls.YmxkX25p</text>
<text text-anchor="start" x="1295" y="-298.5" font-family="Helvetica,sans-Serif" font-size="10.00">Z2h0bHktaGFsZGxzIzcxMQ.x/haldls</text>
<text text-anchor="middle" x="1376.12" y="-286.5" font-family="Helvetica,sans-Serif" font-size="10.00">/include/lola/vx/v2/cadc.h</text>
</a>
</g>
</g>
<!-- Node1&#45;&gt;Node17 -->
<g id="edge25" class="edge">
<title>Node1&#45;&gt;Node17</title>
<path fill="none" stroke="midnightblue" d="M988.37,-480.28C1047.37,-470.84 1122.79,-454.88 1186.12,-429 1244.7,-405.06 1305.22,-363.17 1341.77,-335.63"/>
<polygon fill="midnightblue" stroke="midnightblue" points="987.64,-476.85 978.31,-481.86 988.73,-483.77 987.64,-476.85"/>
</g>
<!-- Node18 -->
<g id="node18" class="node">
<title>Node18</title>
<g id="a_node18"><a xlink:href="v2_2neuron_8h.html" target="_top" xlink:title=" ">
<polygon fill="white" stroke="black" points="1483,-279.5 1483,-335.5 1661.24,-335.5 1661.24,-279.5 1483,-279.5"/>
<text text-anchor="start" x="1491" y="-322.5" font-family="Helvetica,sans-Serif" font-size="10.00">/jenkins/jenlib_workspaces</text>
<text text-anchor="start" x="1491" y="-310.5" font-family="Helvetica,sans-Serif" font-size="10.00">_f9/bld_nightly&#45;haldls.YmxkX25p</text>
<text text-anchor="start" x="1491" y="-298.5" font-family="Helvetica,sans-Serif" font-size="10.00">Z2h0bHktaGFsZGxzIzcxMQ.x/haldls</text>
<text text-anchor="middle" x="1572.12" y="-286.5" font-family="Helvetica,sans-Serif" font-size="10.00">/include/lola/vx/v2/neuron.h</text>
</a>
</g>
</g>
<!-- Node1&#45;&gt;Node18 -->
<g id="edge28" class="edge">
<title>Node1&#45;&gt;Node18</title>
<path fill="none" stroke="midnightblue" d="M988.44,-480.14C1061.79,-469.8 1163.67,-452.86 1251.12,-429 1343.58,-403.77 1446.7,-362.62 1510.51,-335.54"/>
<polygon fill="midnightblue" stroke="midnightblue" points="987.7,-476.71 978.28,-481.56 988.67,-483.64 987.7,-476.71"/>
</g>
<!-- Node19 -->
<g id="node19" class="node">
<title>Node19</title>
<g id="a_node19"><a xlink:href="v2_2synapse_8h.html" target="_top" xlink:title=" ">
<polygon fill="white" stroke="black" points="1481,-372.5 1481,-428.5 1659.24,-428.5 1659.24,-372.5 1481,-372.5"/>
<text text-anchor="start" x="1489" y="-415.5" font-family="Helvetica,sans-Serif" font-size="10.00">/jenkins/jenlib_workspaces</text>
<text text-anchor="start" x="1489" y="-403.5" font-family="Helvetica,sans-Serif" font-size="10.00">_f9/bld_nightly&#45;haldls.YmxkX25p</text>
<text text-anchor="start" x="1489" y="-391.5" font-family="Helvetica,sans-Serif" font-size="10.00">Z2h0bHktaGFsZGxzIzcxMQ.x/haldls</text>
<text text-anchor="middle" x="1570.12" y="-379.5" font-family="Helvetica,sans-Serif" font-size="10.00">/include/lola/vx/v2/synapse.h</text>
</a>
</g>
</g>
<!-- Node1&#45;&gt;Node19 -->
<g id="edge31" class="edge">
<title>Node1&#45;&gt;Node19</title>
<path fill="none" stroke="midnightblue" d="M988.84,-482.98C1097.25,-472.12 1275.46,-452.74 1428.12,-429 1445.24,-426.34 1463.45,-423.11 1480.91,-419.82"/>
<polygon fill="midnightblue" stroke="midnightblue" points="988.17,-479.53 978.57,-484.01 988.87,-486.5 988.17,-479.53"/>
</g>
<!-- Node2&#45;&gt;Node3 -->
<g id="edge2" class="edge">
<title>Node2&#45;&gt;Node3</title>
<path fill="none" stroke="midnightblue" d="M684.85,-368.28C661.62,-357.66 635.87,-345.88 613.4,-335.61"/>
<polygon fill="midnightblue" stroke="midnightblue" points="683.4,-371.47 693.95,-372.44 686.31,-365.1 683.4,-371.47"/>
</g>
<!-- Node2&#45;&gt;Node7 -->
<g id="edge6" class="edge">
<title>Node2&#45;&gt;Node7</title>
<path fill="none" stroke="midnightblue" d="M767.27,-362.69C770.73,-353.7 774.37,-344.24 777.63,-335.78"/>
<polygon fill="midnightblue" stroke="midnightblue" points="763.94,-361.61 763.62,-372.2 770.48,-364.12 763.94,-361.61"/>
</g>
<!-- Node4 -->
<g id="node4" class="node">
<title>Node4</title>
<g id="a_node4"><a xlink:href="v1_2container_8h.html" target="_top" xlink:title=" ">
<polygon fill="white" stroke="black" points="291,-186.5 291,-242.5 469.24,-242.5 469.24,-186.5 291,-186.5"/>
<text text-anchor="start" x="299" y="-229.5" font-family="Helvetica,sans-Serif" font-size="10.00">/jenkins/jenlib_workspaces</text>
<text text-anchor="start" x="299" y="-217.5" font-family="Helvetica,sans-Serif" font-size="10.00">_f9/bld_nightly&#45;haldls.YmxkX25p</text>
<text text-anchor="start" x="299" y="-205.5" font-family="Helvetica,sans-Serif" font-size="10.00">Z2h0bHktaGFsZGxzIzcxMQ.x/haldls</text>
<text text-anchor="middle" x="380.12" y="-193.5" font-family="Helvetica,sans-Serif" font-size="10.00">/include/lola/vx/v1/container.h</text>
</a>
</g>
</g>
<!-- Node3&#45;&gt;Node4 -->
<g id="edge3" class="edge">
<title>Node3&#45;&gt;Node4</title>
<path fill="none" stroke="midnightblue" d="M493.34,-274.72C473.32,-264.24 451.25,-252.7 431.95,-242.61"/>
<polygon fill="midnightblue" stroke="midnightblue" points="491.9,-277.91 502.38,-279.44 495.15,-271.71 491.9,-277.91"/>
</g>
<!-- Node5 -->
<g id="node5" class="node">
<title>Node5</title>
<g id="a_node5"><a xlink:href="v1_2lola_8h.html" target="_top" xlink:title=" ">
<polygon fill="white" stroke="black" points="194,-93.5 194,-149.5 372.24,-149.5 372.24,-93.5 194,-93.5"/>
<text text-anchor="start" x="202" y="-136.5" font-family="Helvetica,sans-Serif" font-size="10.00">/jenkins/jenlib_workspaces</text>
<text text-anchor="start" x="202" y="-124.5" font-family="Helvetica,sans-Serif" font-size="10.00">_f9/bld_nightly&#45;haldls.YmxkX25p</text>
<text text-anchor="start" x="202" y="-112.5" font-family="Helvetica,sans-Serif" font-size="10.00">Z2h0bHktaGFsZGxzIzcxMQ.x/haldls</text>
<text text-anchor="middle" x="283.12" y="-100.5" font-family="Helvetica,sans-Serif" font-size="10.00">/include/lola/vx/v1/lola.h</text>
</a>
</g>
</g>
<!-- Node4&#45;&gt;Node5 -->
<g id="edge4" class="edge">
<title>Node4&#45;&gt;Node5</title>
<path fill="none" stroke="midnightblue" d="M343.81,-179.44C333.31,-169.59 322,-158.97 312.02,-149.61"/>
<polygon fill="midnightblue" stroke="midnightblue" points="341.59,-182.15 351.28,-186.44 346.38,-177.05 341.59,-182.15"/>
</g>
<!-- Node5&#45;&gt;Node6 -->
<g id="edge5" class="edge">
<title>Node5&#45;&gt;Node6</title>
<path fill="none" stroke="midnightblue" d="M216.26,-89.14C193.7,-78.56 168.72,-66.84 146.91,-56.61"/>
<polygon fill="midnightblue" stroke="midnightblue" points="214.9,-92.37 225.44,-93.44 217.87,-86.03 214.9,-92.37"/>
</g>
<!-- Node8 -->
<g id="node8" class="node">
<title>Node8</title>
<g id="a_node8"><a xlink:href="v2_2container_8h.html" target="_top" xlink:title=" ">
<polygon fill="white" stroke="black" points="1189,-186.5 1189,-242.5 1367.24,-242.5 1367.24,-186.5 1189,-186.5"/>
<text text-anchor="start" x="1197" y="-229.5" font-family="Helvetica,sans-Serif" font-size="10.00">/jenkins/jenlib_workspaces</text>
<text text-anchor="start" x="1197" y="-217.5" font-family="Helvetica,sans-Serif" font-size="10.00">_f9/bld_nightly&#45;haldls.YmxkX25p</text>
<text text-anchor="start" x="1197" y="-205.5" font-family="Helvetica,sans-Serif" font-size="10.00">Z2h0bHktaGFsZGxzIzcxMQ.x/haldls</text>
<text text-anchor="middle" x="1278.12" y="-193.5" font-family="Helvetica,sans-Serif" font-size="10.00">/include/lola/vx/v2/container.h</text>
</a>
</g>
</g>
<!-- Node7&#45;&gt;Node8 -->
<g id="edge7" class="edge">
<title>Node7&#45;&gt;Node8</title>
<path fill="none" stroke="midnightblue" d="M887.31,-278.82C996.12,-255.22 1111.36,-237.71 1188.83,-227.03"/>
<polygon fill="midnightblue" stroke="midnightblue" points="886.49,-275.42 877.47,-280.98 887.99,-282.26 886.49,-275.42"/>
</g>
<!-- Node9 -->
<g id="node9" class="node">
<title>Node9</title>
<g id="a_node9"><a xlink:href="v2_2lola_8h.html" target="_top" xlink:title=" ">
<polygon fill="white" stroke="black" points="1062,-93.5 1062,-149.5 1240.24,-149.5 1240.24,-93.5 1062,-93.5"/>
<text text-anchor="start" x="1070" y="-136.5" font-family="Helvetica,sans-Serif" font-size="10.00">/jenkins/jenlib_workspaces</text>
<text text-anchor="start" x="1070" y="-124.5" font-family="Helvetica,sans-Serif" font-size="10.00">_f9/bld_nightly&#45;haldls.YmxkX25p</text>
<text text-anchor="start" x="1070" y="-112.5" font-family="Helvetica,sans-Serif" font-size="10.00">Z2h0bHktaGFsZGxzIzcxMQ.x/haldls</text>
<text text-anchor="middle" x="1151.12" y="-100.5" font-family="Helvetica,sans-Serif" font-size="10.00">/include/lola/vx/v2/lola.h</text>
</a>
</g>
</g>
<!-- Node8&#45;&gt;Node9 -->
<g id="edge8" class="edge">
<title>Node8&#45;&gt;Node9</title>
<path fill="none" stroke="midnightblue" d="M1232.18,-180.58C1217.99,-170.41 1202.53,-159.34 1188.95,-149.61"/>
<polygon fill="midnightblue" stroke="midnightblue" points="1230.19,-183.46 1240.36,-186.44 1234.27,-177.77 1230.19,-183.46"/>
</g>
<!-- Node9&#45;&gt;Node10 -->
<g id="edge9" class="edge">
<title>Node9&#45;&gt;Node10</title>
<path fill="none" stroke="midnightblue" d="M1074.63,-89.7C1047.98,-78.97 1018.3,-67.02 992.45,-56.61"/>
<polygon fill="midnightblue" stroke="midnightblue" points="1073.34,-92.95 1083.92,-93.44 1075.95,-86.46 1073.34,-92.95"/>
</g>
<!-- Node11&#45;&gt;Node12 -->
<g id="edge12" class="edge">
<title>Node11&#45;&gt;Node12</title>
<path fill="none" stroke="midnightblue" d="M1032.66,-364.41C1024.41,-354.91 1015.62,-344.78 1007.8,-335.78"/>
<polygon fill="midnightblue" stroke="midnightblue" points="1030.22,-366.94 1039.42,-372.2 1035.5,-362.35 1030.22,-366.94"/>
</g>
<!-- Node11&#45;&gt;Node13 -->
<g id="edge14" class="edge">
<title>Node11&#45;&gt;Node13</title>
<path fill="none" stroke="midnightblue" d="M1105.81,-366.29C1118.78,-356.21 1132.87,-345.25 1145.26,-335.61"/>
<polygon fill="midnightblue" stroke="midnightblue" points="1103.65,-363.54 1097.91,-372.44 1107.95,-369.07 1103.65,-363.54"/>
</g>
<!-- Node12&#45;&gt;Node4 -->
<g id="edge13" class="edge">
<title>Node12&#45;&gt;Node4</title>
<path fill="none" stroke="midnightblue" d="M884.9,-278.86C734.32,-249.05 568.86,-231.55 469.43,-222.66"/>
<polygon fill="midnightblue" stroke="midnightblue" points="884.3,-282.31 894.79,-280.84 885.67,-275.45 884.3,-282.31"/>
</g>
<!-- Node13&#45;&gt;Node8 -->
<g id="edge15" class="edge">
<title>Node13&#45;&gt;Node8</title>
<path fill="none" stroke="midnightblue" d="M1216.8,-272.44C1227.41,-262.59 1238.84,-251.97 1248.92,-242.61"/>
<polygon fill="midnightblue" stroke="midnightblue" points="1214.2,-270.07 1209.26,-279.44 1218.97,-275.2 1214.2,-270.07"/>
</g>
<!-- Node14&#45;&gt;Node4 -->
<g id="edge17" class="edge">
<title>Node14&#45;&gt;Node4</title>
<path fill="none" stroke="midnightblue" d="M172.6,-366.43C221.2,-331.08 297.35,-275.7 342.63,-242.76"/>
<polygon fill="midnightblue" stroke="midnightblue" points="170.48,-363.64 164.45,-372.35 174.6,-369.3 170.48,-363.64"/>
</g>
<!-- Node15&#45;&gt;Node4 -->
<g id="edge20" class="edge">
<title>Node15&#45;&gt;Node4</title>
<path fill="none" stroke="midnightblue" d="M334.61,-362.4C345.58,-326.99 361.85,-274.47 371.67,-242.76"/>
<polygon fill="midnightblue" stroke="midnightblue" points="331.15,-361.76 331.53,-372.35 337.83,-363.83 331.15,-361.76"/>
</g>
<!-- Node16&#45;&gt;Node4 -->
<g id="edge23" class="edge">
<title>Node16&#45;&gt;Node4</title>
<path fill="none" stroke="midnightblue" d="M482.38,-365.2C473.37,-356.08 464.05,-345.97 456.12,-336 432.25,-306 409.42,-268.15 395.13,-242.96"/>
<polygon fill="midnightblue" stroke="midnightblue" points="479.94,-367.72 489.5,-372.29 484.88,-362.76 479.94,-367.72"/>
</g>
<!-- Node17&#45;&gt;Node8 -->
<g id="edge26" class="edge">
<title>Node17&#45;&gt;Node8</title>
<path fill="none" stroke="midnightblue" d="M1339.43,-272.44C1328.83,-262.59 1317.4,-251.97 1307.31,-242.61"/>
<polygon fill="midnightblue" stroke="midnightblue" points="1337.27,-275.2 1346.98,-279.44 1342.03,-270.07 1337.27,-275.2"/>
</g>
<!-- Node18&#45;&gt;Node8 -->
<g id="edge29" class="edge">
<title>Node18&#45;&gt;Node8</title>
<path fill="none" stroke="midnightblue" d="M1474.86,-276.4C1439.54,-265.46 1399.87,-253.18 1365.45,-242.53"/>
<polygon fill="midnightblue" stroke="midnightblue" points="1474.12,-279.83 1484.71,-279.44 1476.19,-273.14 1474.12,-279.83"/>
</g>
<!-- Node19&#45;&gt;Node8 -->
<g id="edge32" class="edge">
<title>Node19&#45;&gt;Node8</title>
<path fill="none" stroke="midnightblue" d="M1642.21,-366.59C1653.41,-358.24 1663.46,-348.11 1670.12,-336 1682.32,-313.8 1686.54,-298.29 1670.12,-279 1632.03,-234.24 1470.79,-220.94 1367.34,-217.04"/>
<polygon fill="midnightblue" stroke="midnightblue" points="1640.1,-363.79 1633.88,-372.36 1644.09,-369.54 1640.1,-363.79"/>
</g>
</g>
</svg>
        <g id="navigator" transform="translate(0 0)" fill="#404254">
                <rect fill="#f2f5e9" fill-opacity="0.5" stroke="#606060" stroke-width=".5" x="0" y="0" width="60" height="60"/>
                <use id="zoomplus" xlink:href="#zoomPlus" x="17" y="9" onmousedown="handleZoom(evt,'in')"/>
                <use id="zoomminus" xlink:href="#zoomMin" x="42" y="9" onmousedown="handleZoom(evt,'out')"/>
                <use id="reset" xlink:href="#resetDef" x="30" y="36" onmousedown="handleReset()"/>
                <g id="arrowUp" xlink:href="#dirArrow" transform="translate(30 24)" onmousedown="handlePan(0,-1)">
                  <use xlink:href="#rim" fill="#404040">
                        <set attributeName="fill" to="#808080" begin="arrowUp.mouseover" end="arrowUp.mouseout"/>
                  </use>
                  <path fill="none" stroke="white" stroke-width="1.5" d="M0,-3.0v7 M-2.5,-0.5L0,-3.0L2.5,-0.5"/>
                </g>
                <g id="arrowRight" xlink:href="#dirArrow" transform="rotate(90) translate(36 -43)" onmousedown="handlePan(1,0)">
                  <use xlink:href="#rim" fill="#404040">
                        <set attributeName="fill" to="#808080" begin="arrowRight.mouseover" end="arrowRight.mouseout"/>
                  </use>
                  <path fill="none" stroke="white" stroke-width="1.5" d="M0,-3.0v7 M-2.5,-0.5L0,-3.0L2.5,-0.5"/>
                </g>
                <g id="arrowDown" xlink:href="#dirArrow" transform="rotate(180) translate(-30 -48)" onmousedown="handlePan(0,1)">
                  <use xlink:href="#rim" fill="#404040">
                        <set attributeName="fill" to="#808080" begin="arrowDown.mouseover" end="arrowDown.mouseout"/>
                  </use>
                  <path fill="none" stroke="white" stroke-width="1.5" d="M0,-3.0v7 M-2.5,-0.5L0,-3.0L2.5,-0.5"/>
                </g>
                <g id="arrowLeft" xlink:href="#dirArrow" transform="rotate(270) translate(-36 17)" onmousedown="handlePan(-1,0)">
                  <use xlink:href="#rim" fill="#404040">
                        <set attributeName="fill" to="#808080" begin="arrowLeft.mouseover" end="arrowLeft.mouseout"/>
                  </use>
                  <path fill="none" stroke="white" stroke-width="1.5" d="M0,-3.0v7 M-2.5,-0.5L0,-3.0L2.5,-0.5"/>
                </g>
        </g>
        <svg viewBox="0 0 15 15" width="100%" height="30px" preserveAspectRatio="xMaxYMin meet">
         <g id="arrow_out" transform="scale(0.3 0.3)">
          <a xlink:href="genpybind_8h__dep__incl_org.svg" target="_base">
           <rect id="button" ry="5" rx="5" y="6" x="6" height="38" width="38"
                fill="#f2f5e9" fill-opacity="0.5" stroke="#606060" stroke-width="1.0"/>
           <path id="arrow"
             d="M 11.500037,31.436501 C 11.940474,20.09759 22.043105,11.32322 32.158766,21.979434 L 37.068811,17.246167 C 37.068811,17.246167 37.088388,32 37.088388,32 L 22.160133,31.978069 C 22.160133,31.978069 26.997745,27.140456 26.997745,27.140456 C 18.528582,18.264221 13.291696,25.230495 11.500037,31.436501 z"
             style="fill:#404040;"/>
          </a>
         </g>
        </svg>
</svg>
