<?xml version="1.0" encoding="UTF-8" standalone="no"?>
<!DOCTYPE svg PUBLIC "-//W3C//DTD SVG 1.1//EN"
 "http://www.w3.org/Graphics/SVG/1.1/DTD/svg11.dtd">
<!-- Generated by graphviz version 2.43.0 (0)
 -->
<!-- Title: /jenkins/jenlib_workspaces_f9/bld_nightly&#45;haldls.YmxkX25pZ2h0bHktaGFsZGxzIzU5Nw.x/haldls/include/lola/vx/neuron.h Pages: 1 -->
<svg width="187pt" height="344pt"
 viewBox="0.00 0.00 187.35 344.00" xmlns="http://www.w3.org/2000/svg" xmlns:xlink="http://www.w3.org/1999/xlink">
<g id="graph0" class="graph" transform="scale(1 1) rotate(0) translate(4 340)">
<title>/jenkins/jenlib_workspaces_f9/bld_nightly&#45;haldls.YmxkX25pZ2h0bHktaGFsZGxzIzU5Nw.x/haldls/include/lola/vx/neuron.h</title>
<polygon fill="white" stroke="transparent" points="-4,4 -4,-340 183.35,-340 183.35,4 -4,4"/>
<!-- Node6 -->
<g id="node1" class="node">
<title>Node6</title>
<g id="a_node1"><a xlink:title=" ">
<polygon fill="#bfbfbf" stroke="black" points="0,-279.5 0,-335.5 179.35,-335.5 179.35,-279.5 0,-279.5"/>
<text text-anchor="start" x="8" y="-322.5" font-family="Helvetica,sans-Serif" font-size="10.00">/jenkins/jenlib_workspaces</text>
<text text-anchor="start" x="8" y="-310.5" font-family="Helvetica,sans-Serif" font-size="10.00">_f9/bld_nightly&#45;haldls.YmxkX25p</text>
<text text-anchor="start" x="8" y="-298.5" font-family="Helvetica,sans-Serif" font-size="10.00">Z2h0bHktaGFsZGxzIzU5Nw.x/haldls</text>
<text text-anchor="middle" x="89.67" y="-286.5" font-family="Helvetica,sans-Serif" font-size="10.00">/include/lola/vx/neuron.h</text>
</a>
</g>
</g>
<!-- Node7 -->
<g id="node2" class="node">
<title>Node7</title>
<g id="a_node2"><a xlink:href="container_8h.html" target="_top" xlink:title=" ">
<polygon fill="white" stroke="black" points="0,-186.5 0,-242.5 179.35,-242.5 179.35,-186.5 0,-186.5"/>
<text text-anchor="start" x="8" y="-229.5" font-family="Helvetica,sans-Serif" font-size="10.00">/jenkins/jenlib_workspaces</text>
<text text-anchor="start" x="8" y="-217.5" font-family="Helvetica,sans-Serif" font-size="10.00">_f9/bld_nightly&#45;haldls.YmxkX25p</text>
<text text-anchor="start" x="8" y="-205.5" font-family="Helvetica,sans-Serif" font-size="10.00">Z2h0bHktaGFsZGxzIzU5Nw.x/haldls</text>
<text text-anchor="middle" x="89.67" y="-193.5" font-family="Helvetica,sans-Serif" font-size="10.00">/include/lola/vx/container.h</text>
</a>
</g>
</g>
<!-- Node6&#45;&gt;Node7 -->
<g id="edge1" class="edge">
<title>Node6&#45;&gt;Node7</title>
<path fill="none" stroke="midnightblue" d="M89.67,-269.12C89.67,-260.3 89.67,-251.06 89.67,-242.78"/>
<polygon fill="midnightblue" stroke="midnightblue" points="86.17,-269.2 89.67,-279.2 93.17,-269.2 86.17,-269.2"/>
</g>
<!-- Node8 -->
<g id="node3" class="node">
<title>Node8</title>
<g id="a_node3"><a xlink:href="lola_8h.html" target="_top" xlink:title=" ">
<polygon fill="white" stroke="black" points="0,-93.5 0,-149.5 179.35,-149.5 179.35,-93.5 0,-93.5"/>
<text text-anchor="start" x="8" y="-136.5" font-family="Helvetica,sans-Serif" font-size="10.00">/jenkins/jenlib_workspaces</text>
<text text-anchor="start" x="8" y="-124.5" font-family="Helvetica,sans-Serif" font-size="10.00">_f9/bld_nightly&#45;haldls.YmxkX25p</text>
<text text-anchor="start" x="8" y="-112.5" font-family="Helvetica,sans-Serif" font-size="10.00">Z2h0bHktaGFsZGxzIzU5Nw.x/haldls</text>
<text text-anchor="middle" x="89.67" y="-100.5" font-family="Helvetica,sans-Serif" font-size="10.00">/include/lola/vx/lola.h</text>
</a>
</g>
</g>
<!-- Node7&#45;&gt;Node8 -->
<g id="edge2" class="edge">
<title>Node7&#45;&gt;Node8</title>
<path fill="none" stroke="midnightblue" d="M89.67,-176.12C89.67,-167.3 89.67,-158.06 89.67,-149.78"/>
<polygon fill="midnightblue" stroke="midnightblue" points="86.17,-176.2 89.67,-186.2 93.17,-176.2 86.17,-176.2"/>
</g>
<!-- Node9 -->
<g id="node4" class="node">
<title>Node9</title>
<g id="a_node4"><a xlink:href="pylola_8h.html" target="_top" xlink:title=" ">
<polygon fill="white" stroke="black" points="0,-0.5 0,-56.5 179.35,-56.5 179.35,-0.5 0,-0.5"/>
<text text-anchor="start" x="8" y="-43.5" font-family="Helvetica,sans-Serif" font-size="10.00">/jenkins/jenlib_workspaces</text>
<text text-anchor="start" x="8" y="-31.5" font-family="Helvetica,sans-Serif" font-size="10.00">_f9/bld_nightly&#45;haldls.YmxkX25p</text>
<text text-anchor="start" x="8" y="-19.5" font-family="Helvetica,sans-Serif" font-size="10.00">Z2h0bHktaGFsZGxzIzU5Nw.x/haldls</text>
<text text-anchor="middle" x="89.67" y="-7.5" font-family="Helvetica,sans-Serif" font-size="10.00">/include/lola/vx/pylola.h</text>
</a>
</g>
</g>
<!-- Node8&#45;&gt;Node9 -->
<g id="edge3" class="edge">
<title>Node8&#45;&gt;Node9</title>
<path fill="none" stroke="midnightblue" d="M89.67,-83.12C89.67,-74.3 89.67,-65.06 89.67,-56.78"/>
<polygon fill="midnightblue" stroke="midnightblue" points="86.17,-83.2 89.67,-93.2 93.17,-83.2 86.17,-83.2"/>
</g>
</g>
</svg>
