<?xml version="1.0" encoding="UTF-8" standalone="no"?>
<!DOCTYPE svg PUBLIC "-//W3C//DTD SVG 1.1//EN"
 "http://www.w3.org/Graphics/SVG/1.1/DTD/svg11.dtd">
<!-- Generated by graphviz version 2.43.0 (0)
 -->
<!-- Title: /jenkins/jenlib_workspaces_f9/bld_nightly&#45;haldls.YmxkX25pZ2h0bHktaGFsZGxzIzcxMQ.x/haldls/include/lola/vx/ppu.h Pages: 1 -->
<svg width="1064pt" height="191pt"
 viewBox="0.00 0.00 1064.18 191.00" xmlns="http://www.w3.org/2000/svg" xmlns:xlink="http://www.w3.org/1999/xlink">
<g id="graph0" class="graph" transform="scale(1 1) rotate(0) translate(4 187)">
<title>/jenkins/jenlib_workspaces_f9/bld_nightly&#45;haldls.YmxkX25pZ2h0bHktaGFsZGxzIzcxMQ.x/haldls/include/lola/vx/ppu.h</title>
<polygon fill="white" stroke="transparent" points="-4,4 -4,-187 1060.18,-187 1060.18,4 -4,4"/>
<!-- Node0 -->
<g id="node1" class="node">
<title>Node0</title>
<g id="a_node1"><a xlink:title=" ">
<polygon fill="#bfbfbf" stroke="black" points="436.39,-126.5 436.39,-182.5 614.63,-182.5 614.63,-126.5 436.39,-126.5"/>
<text text-anchor="start" x="444.39" y="-169.5" font-family="Helvetica,sans-Serif" font-size="10.00">/jenkins/jenlib_workspaces</text>
<text text-anchor="start" x="444.39" y="-157.5" font-family="Helvetica,sans-Serif" font-size="10.00">_f9/bld_nightly&#45;haldls.YmxkX25p</text>
<text text-anchor="start" x="444.39" y="-145.5" font-family="Helvetica,sans-Serif" font-size="10.00">Z2h0bHktaGFsZGxzIzcxMQ.x/haldls</text>
<text text-anchor="middle" x="525.51" y="-133.5" font-family="Helvetica,sans-Serif" font-size="10.00">/include/lola/vx/ppu.h</text>
</a>
</g>
</g>
<!-- Node1 -->
<g id="node2" class="node">
<title>Node1</title>
<g id="a_node2"><a xlink:title=" ">
<polygon fill="white" stroke="#bfbfbf" points="0,-57.5 0,-89.5 101.02,-89.5 101.02,-57.5 0,-57.5"/>
<text text-anchor="start" x="8" y="-76.5" font-family="Helvetica,sans-Serif" font-size="10.00">halco/hicann&#45;dls/vx</text>
<text text-anchor="middle" x="50.51" y="-64.5" font-family="Helvetica,sans-Serif" font-size="10.00">/coordinates.h</text>
</a>
</g>
</g>
<!-- Node0&#45;&gt;Node1 -->
<g id="edge1" class="edge">
<title>Node0&#45;&gt;Node1</title>
<path fill="none" stroke="midnightblue" d="M436.16,-142.63C353.9,-131.99 228.38,-114.16 111.14,-90.23"/>
<polygon fill="midnightblue" stroke="midnightblue" points="111.78,-86.79 101.28,-88.2 110.36,-93.65 111.78,-86.79"/>
</g>
<!-- Node2 -->
<g id="node3" class="node">
<title>Node2</title>
<g id="a_node3"><a xlink:title=" ">
<polygon fill="white" stroke="#bfbfbf" points="118.83,-63.5 118.83,-83.5 228.18,-83.5 228.18,-63.5 118.83,-63.5"/>
<text text-anchor="middle" x="173.51" y="-70.5" font-family="Helvetica,sans-Serif" font-size="10.00">haldls/cerealization.h</text>
</a>
</g>
</g>
<!-- Node0&#45;&gt;Node2 -->
<g id="edge2" class="edge">
<title>Node0&#45;&gt;Node2</title>
<path fill="none" stroke="midnightblue" d="M436.2,-134.48C379.02,-122.15 303.3,-105.55 236.51,-90 231.02,-88.72 225.28,-87.35 219.58,-85.98"/>
<polygon fill="midnightblue" stroke="midnightblue" points="220,-82.47 209.45,-83.51 218.34,-89.28 220,-82.47"/>
</g>
<!-- Node3 -->
<g id="node4" class="node">
<title>Node3</title>
<g id="a_node4"><a xlink:title=" ">
<polygon fill="white" stroke="#bfbfbf" points="246,-63.5 246,-83.5 327.01,-83.5 327.01,-63.5 246,-63.5"/>
<text text-anchor="middle" x="286.51" y="-70.5" font-family="Helvetica,sans-Serif" font-size="10.00">hate/visibility.h</text>
</a>
</g>
</g>
<!-- Node0&#45;&gt;Node3 -->
<g id="edge3" class="edge">
<title>Node0&#45;&gt;Node3</title>
<path fill="none" stroke="midnightblue" d="M443.59,-126.42C402.87,-112.96 355.66,-97.36 323.71,-86.8"/>
<polygon fill="midnightblue" stroke="midnightblue" points="324.49,-83.37 313.9,-83.55 322.3,-90.02 324.49,-83.37"/>
</g>
<!-- Node4 -->
<g id="node5" class="node">
<title>Node4</title>
<g id="a_node5"><a xlink:href="cerealization_8h.html" target="_top" xlink:title=" ">
<polygon fill="white" stroke="black" points="344.72,-63.5 344.72,-83.5 456.29,-83.5 456.29,-63.5 344.72,-63.5"/>
<text text-anchor="middle" x="400.51" y="-70.5" font-family="Helvetica,sans-Serif" font-size="10.00">lola/vx/cerealization.h</text>
</a>
</g>
</g>
<!-- Node0&#45;&gt;Node4 -->
<g id="edge4" class="edge">
<title>Node0&#45;&gt;Node4</title>
<path fill="none" stroke="midnightblue" d="M482.49,-126.31C462.59,-113.73 439.76,-99.31 423.25,-88.87"/>
<polygon fill="midnightblue" stroke="midnightblue" points="425.12,-85.91 414.79,-83.53 421.38,-91.83 425.12,-85.91"/>
</g>
<!-- Node8 -->
<g id="node9" class="node">
<title>Node8</title>
<g id="a_node9"><a xlink:href="genpybind_8h.html" target="_top" xlink:title=" ">
<polygon fill="white" stroke="black" points="474.72,-63.5 474.72,-83.5 576.3,-83.5 576.3,-63.5 474.72,-63.5"/>
<text text-anchor="middle" x="525.51" y="-70.5" font-family="Helvetica,sans-Serif" font-size="10.00">lola/vx/genpybind.h</text>
</a>
</g>
</g>
<!-- Node0&#45;&gt;Node8 -->
<g id="edge8" class="edge">
<title>Node0&#45;&gt;Node8</title>
<path fill="none" stroke="midnightblue" d="M525.51,-126.31C525.51,-115.66 525.51,-103.68 525.51,-93.93"/>
<polygon fill="midnightblue" stroke="midnightblue" points="529.01,-93.71 525.51,-83.71 522.01,-93.71 529.01,-93.71"/>
</g>
<!-- Node9 -->
<g id="node10" class="node">
<title>Node9</title>
<g id="a_node10"><a xlink:title=" ">
<polygon fill="white" stroke="#bfbfbf" points="612.14,-63.5 612.14,-83.5 754.87,-83.5 754.87,-63.5 612.14,-63.5"/>
<text text-anchor="middle" x="683.51" y="-70.5" font-family="Helvetica,sans-Serif" font-size="10.00">boost/hana/adapt_struct.hpp</text>
</a>
</g>
</g>
<!-- Node0&#45;&gt;Node9 -->
<g id="edge10" class="edge">
<title>Node0&#45;&gt;Node9</title>
<path fill="none" stroke="midnightblue" d="M579.88,-126.31C605.74,-113.39 635.5,-98.5 656.48,-88.01"/>
<polygon fill="midnightblue" stroke="midnightblue" points="658.07,-91.13 665.45,-83.53 654.94,-84.87 658.07,-91.13"/>
</g>
<!-- Node10 -->
<g id="node11" class="node">
<title>Node10</title>
<g id="a_node11"><a xlink:title=" ">
<polygon fill="white" stroke="#bfbfbf" points="772.77,-63.5 772.77,-83.5 858.24,-83.5 858.24,-63.5 772.77,-63.5"/>
<text text-anchor="middle" x="815.51" y="-70.5" font-family="Helvetica,sans-Serif" font-size="10.00">haldls/vx/fpga.h</text>
</a>
</g>
</g>
<!-- Node0&#45;&gt;Node10 -->
<g id="edge11" class="edge">
<title>Node0&#45;&gt;Node10</title>
<path fill="none" stroke="midnightblue" d="M614.68,-130.36C659.43,-118.58 714.43,-103.86 763.51,-90 767.59,-88.85 771.84,-87.62 776.08,-86.38"/>
<polygon fill="midnightblue" stroke="midnightblue" points="777.25,-89.69 785.85,-83.5 775.27,-82.97 777.25,-89.69"/>
</g>
<!-- Node11 -->
<g id="node12" class="node">
<title>Node11</title>
<g id="a_node12"><a xlink:title=" ">
<polygon fill="white" stroke="#bfbfbf" points="876.16,-63.5 876.16,-83.5 958.85,-83.5 958.85,-63.5 876.16,-63.5"/>
<text text-anchor="middle" x="917.51" y="-70.5" font-family="Helvetica,sans-Serif" font-size="10.00">haldls/vx/ppu.h</text>
</a>
</g>
</g>
<!-- Node0&#45;&gt;Node11 -->
<g id="edge12" class="edge">
<title>Node0&#45;&gt;Node11</title>
<path fill="none" stroke="midnightblue" d="M614.69,-139.88C684.07,-128.58 782.5,-110.99 867.51,-90 871.84,-88.93 876.36,-87.7 880.82,-86.41"/>
<polygon fill="midnightblue" stroke="midnightblue" points="881.85,-89.75 890.42,-83.53 879.84,-83.05 881.85,-89.75"/>
</g>
<!-- Node12 -->
<g id="node13" class="node">
<title>Node12</title>
<g id="a_node13"><a xlink:title=" ">
<polygon fill="white" stroke="#bfbfbf" points="976.83,-63.5 976.83,-83.5 1056.18,-83.5 1056.18,-63.5 976.83,-63.5"/>
<text text-anchor="middle" x="1016.51" y="-70.5" font-family="Helvetica,sans-Serif" font-size="10.00">lola/vx/ppu.tcc</text>
</a>
</g>
</g>
<!-- Node0&#45;&gt;Node12 -->
<g id="edge13" class="edge">
<title>Node0&#45;&gt;Node12</title>
<path fill="none" stroke="midnightblue" d="M614.77,-145.01C704.6,-135.46 846.77,-117.57 967.51,-90 971.93,-88.99 976.53,-87.77 981.07,-86.46"/>
<polygon fill="midnightblue" stroke="midnightblue" points="982.24,-89.76 990.79,-83.51 980.2,-83.07 982.24,-89.76"/>
</g>
<!-- Node5 -->
<g id="node6" class="node">
<title>Node5</title>
<g id="a_node6"><a xlink:title=" ">
<polygon fill="white" stroke="#bfbfbf" points="277.45,-0.5 277.45,-20.5 339.57,-20.5 339.57,-0.5 277.45,-0.5"/>
<text text-anchor="middle" x="308.51" y="-7.5" font-family="Helvetica,sans-Serif" font-size="10.00">type_traits</text>
</a>
</g>
</g>
<!-- Node4&#45;&gt;Node5 -->
<g id="edge5" class="edge">
<title>Node4&#45;&gt;Node5</title>
<path fill="none" stroke="midnightblue" d="M386.93,-63.5C372.12,-53.68 348.18,-37.81 330.64,-26.18"/>
<polygon fill="midnightblue" stroke="midnightblue" points="332.41,-23.15 322.14,-20.54 328.54,-28.98 332.41,-23.15"/>
</g>
<!-- Node6 -->
<g id="node7" class="node">
<title>Node6</title>
<g id="a_node7"><a xlink:title=" ">
<polygon fill="white" stroke="#bfbfbf" points="358.04,-0.5 358.04,-20.5 442.97,-20.5 442.97,-0.5 358.04,-0.5"/>
<text text-anchor="middle" x="400.51" y="-7.5" font-family="Helvetica,sans-Serif" font-size="10.00">boost/hana.hpp</text>
</a>
</g>
</g>
<!-- Node4&#45;&gt;Node6 -->
<g id="edge6" class="edge">
<title>Node4&#45;&gt;Node6</title>
<path fill="none" stroke="midnightblue" d="M400.51,-63.5C400.51,-54.94 400.51,-41.78 400.51,-30.85"/>
<polygon fill="midnightblue" stroke="midnightblue" points="404.01,-30.54 400.51,-20.54 397.01,-30.54 404.01,-30.54"/>
</g>
<!-- Node7 -->
<g id="node8" class="node">
<title>Node7</title>
<g id="a_node8"><a xlink:title=" ">
<polygon fill="white" stroke="#bfbfbf" points="461.39,-0.5 461.39,-20.5 559.63,-20.5 559.63,-0.5 461.39,-0.5"/>
<text text-anchor="middle" x="510.51" y="-7.5" font-family="Helvetica,sans-Serif" font-size="10.00">cereal/macros.hpp</text>
</a>
</g>
</g>
<!-- Node4&#45;&gt;Node7 -->
<g id="edge7" class="edge">
<title>Node4&#45;&gt;Node7</title>
<path fill="none" stroke="midnightblue" d="M416.74,-63.5C434.77,-53.5 464.13,-37.22 485.19,-25.54"/>
<polygon fill="midnightblue" stroke="midnightblue" points="487.16,-28.45 494.21,-20.54 483.77,-22.33 487.16,-28.45"/>
</g>
<!-- Node8&#45;&gt;Node8 -->
<g id="edge9" class="edge">
<title>Node8&#45;&gt;Node8</title>
<path fill="none" stroke="midnightblue" d="M551.98,-83.56C572.87,-87.45 594.3,-84.1 594.3,-73.5 594.3,-64.64 579.32,-60.85 562.21,-62.11"/>
<polygon fill="midnightblue" stroke="midnightblue" points="561.45,-58.68 551.98,-63.44 562.35,-65.62 561.45,-58.68"/>
</g>
</g>
</svg>
