<?xml version="1.0" encoding="UTF-8" standalone="no"?>
<!DOCTYPE svg PUBLIC "-//W3C//DTD SVG 1.1//EN"
 "http://www.w3.org/Graphics/SVG/1.1/DTD/svg11.dtd">
<!-- Generated by graphviz version 2.43.0 (0)
 -->
<!-- Title: /jenkins/jenlib_workspaces_f9/bld_nightly&#45;haldls.YmxkX25pZ2h0bHktaGFsZGxzIzU5Nw.x/haldls/include/lola/vx/pylola.h Pages: 1 -->
<svg width="2133pt" height="353pt"
 viewBox="0.00 0.00 2132.96 353.00" xmlns="http://www.w3.org/2000/svg" xmlns:xlink="http://www.w3.org/1999/xlink">
<g id="graph0" class="graph" transform="scale(1 1) rotate(0) translate(4 349)">
<title>/jenkins/jenlib_workspaces_f9/bld_nightly&#45;haldls.YmxkX25pZ2h0bHktaGFsZGxzIzU5Nw.x/haldls/include/lola/vx/pylola.h</title>
<polygon fill="white" stroke="transparent" points="-4,4 -4,-349 2128.96,-349 2128.96,4 -4,4"/>
<!-- Node0 -->
<g id="node1" class="node">
<title>Node0</title>
<g id="a_node1"><a xlink:title=" ">
<polygon fill="#bfbfbf" stroke="black" points="1276.72,-288.5 1276.72,-344.5 1456.07,-344.5 1456.07,-288.5 1276.72,-288.5"/>
<text text-anchor="start" x="1284.72" y="-331.5" font-family="Helvetica,sans-Serif" font-size="10.00">/jenkins/jenlib_workspaces</text>
<text text-anchor="start" x="1284.72" y="-319.5" font-family="Helvetica,sans-Serif" font-size="10.00">_f9/bld_nightly&#45;haldls.YmxkX25p</text>
<text text-anchor="start" x="1284.72" y="-307.5" font-family="Helvetica,sans-Serif" font-size="10.00">Z2h0bHktaGFsZGxzIzU5Nw.x/haldls</text>
<text text-anchor="middle" x="1366.39" y="-295.5" font-family="Helvetica,sans-Serif" font-size="10.00">/include/lola/vx/pylola.h</text>
</a>
</g>
</g>
<!-- Node1 -->
<g id="node2" class="node">
<title>Node1</title>
<g id="a_node2"><a xlink:title=" ">
<polygon fill="white" stroke="#bfbfbf" points="1043.78,-231.5 1043.78,-251.5 1087.01,-251.5 1087.01,-231.5 1043.78,-231.5"/>
<text text-anchor="middle" x="1065.39" y="-238.5" font-family="Helvetica,sans-Serif" font-size="10.00">vector</text>
</a>
</g>
</g>
<!-- Node0&#45;&gt;Node1 -->
<g id="edge1" class="edge">
<title>Node0&#45;&gt;Node1</title>
<path fill="none" stroke="midnightblue" d="M1276.63,-295.96C1226.39,-284.65 1162.45,-269.64 1096.73,-251.96"/>
<polygon fill="midnightblue" stroke="midnightblue" points="1097.59,-248.56 1087.02,-249.33 1095.76,-255.32 1097.59,-248.56"/>
</g>
<!-- Node2 -->
<g id="node3" class="node">
<title>Node2</title>
<g id="a_node3"><a xlink:title=" ">
<polygon fill="white" stroke="#bfbfbf" points="1105.26,-231.5 1105.26,-251.5 1213.53,-251.5 1213.53,-231.5 1105.26,-231.5"/>
<text text-anchor="middle" x="1159.39" y="-238.5" font-family="Helvetica,sans-Serif" font-size="10.00">pybind11/pybind11.h</text>
</a>
</g>
</g>
<!-- Node0&#45;&gt;Node2 -->
<g id="edge2" class="edge">
<title>Node0&#45;&gt;Node2</title>
<path fill="none" stroke="midnightblue" d="M1289.61,-288.42C1257.11,-276.96 1220.83,-264.16 1194.84,-255"/>
<polygon fill="midnightblue" stroke="midnightblue" points="1195.66,-251.58 1185.06,-251.55 1193.33,-258.18 1195.66,-251.58"/>
</g>
<!-- Node3 -->
<g id="node4" class="node">
<title>Node3</title>
<g id="a_node4"><a xlink:href="genpybind_8h.html" target="_top" xlink:title=" ">
<polygon fill="white" stroke="black" points="1436.6,-6.5 1436.6,-26.5 1538.19,-26.5 1538.19,-6.5 1436.6,-6.5"/>
<text text-anchor="middle" x="1487.39" y="-13.5" font-family="Helvetica,sans-Serif" font-size="10.00">lola/vx/genpybind.h</text>
</a>
</g>
</g>
<!-- Node0&#45;&gt;Node3 -->
<g id="edge3" class="edge">
<title>Node0&#45;&gt;Node3</title>
<path fill="none" stroke="midnightblue" d="M1456.17,-304.99C1577.1,-288.77 1782.4,-253.27 1827.39,-195 1836.36,-183.39 1835.49,-174.23 1827.39,-162 1792.88,-109.83 1613.55,-53.26 1530.14,-29.29"/>
<polygon fill="midnightblue" stroke="midnightblue" points="1531.04,-25.91 1520.46,-26.53 1529.12,-32.64 1531.04,-25.91"/>
</g>
<!-- Node4 -->
<g id="node5" class="node">
<title>Node4</title>
<g id="a_node5"><a xlink:title=" ">
<polygon fill="white" stroke="#bfbfbf" points="1320.61,-231.5 1320.61,-251.5 1412.18,-251.5 1412.18,-231.5 1320.61,-231.5"/>
<text text-anchor="middle" x="1366.39" y="-238.5" font-family="Helvetica,sans-Serif" font-size="10.00">haldls/vx/pickle.h</text>
</a>
</g>
</g>
<!-- Node0&#45;&gt;Node4 -->
<g id="edge5" class="edge">
<title>Node0&#45;&gt;Node4</title>
<path fill="none" stroke="midnightblue" d="M1366.39,-288.32C1366.39,-279.5 1366.39,-269.91 1366.39,-261.79"/>
<polygon fill="midnightblue" stroke="midnightblue" points="1369.89,-261.52 1366.39,-251.52 1362.89,-261.52 1369.89,-261.52"/>
</g>
<!-- Node5 -->
<g id="node6" class="node">
<title>Node5</title>
<g id="a_node6"><a xlink:href="cerealization_8h.html" target="_top" xlink:title=" ">
<polygon fill="white" stroke="black" points="1430.61,-231.5 1430.61,-251.5 1542.18,-251.5 1542.18,-231.5 1430.61,-231.5"/>
<text text-anchor="middle" x="1486.39" y="-238.5" font-family="Helvetica,sans-Serif" font-size="10.00">lola/vx/cerealization.h</text>
</a>
</g>
</g>
<!-- Node0&#45;&gt;Node5 -->
<g id="edge6" class="edge">
<title>Node0&#45;&gt;Node5</title>
<path fill="none" stroke="midnightblue" d="M1411.08,-288.32C1428.57,-277.68 1447.92,-265.9 1462.63,-256.96"/>
<polygon fill="midnightblue" stroke="midnightblue" points="1464.84,-259.71 1471.56,-251.52 1461.2,-253.73 1464.84,-259.71"/>
</g>
<!-- Node13 -->
<g id="node14" class="node">
<title>Node13</title>
<g id="a_node14"><a xlink:href="lola_8h.html" target="_top" xlink:title=" ">
<polygon fill="white" stroke="black" points="1231.89,-231.5 1231.89,-251.5 1302.9,-251.5 1302.9,-231.5 1231.89,-231.5"/>
<text text-anchor="middle" x="1267.39" y="-238.5" font-family="Helvetica,sans-Serif" font-size="10.00">lola/vx/lola.h</text>
</a>
</g>
</g>
<!-- Node0&#45;&gt;Node13 -->
<g id="edge14" class="edge">
<title>Node0&#45;&gt;Node13</title>
<path fill="none" stroke="midnightblue" d="M1329.53,-288.32C1315.37,-277.88 1299.74,-266.35 1287.7,-257.47"/>
<polygon fill="midnightblue" stroke="midnightblue" points="1289.76,-254.64 1279.63,-251.52 1285.6,-260.28 1289.76,-254.64"/>
</g>
<!-- Node39 -->
<g id="node40" class="node">
<title>Node39</title>
<g id="a_node40"><a xlink:title=" ">
<polygon fill="white" stroke="#bfbfbf" points="1873.94,-231.5 1873.94,-251.5 1978.85,-251.5 1978.85,-231.5 1873.94,-231.5"/>
<text text-anchor="middle" x="1926.39" y="-238.5" font-family="Helvetica,sans-Serif" font-size="10.00">lola/vx/container.def</text>
</a>
</g>
</g>
<!-- Node0&#45;&gt;Node39 -->
<g id="edge62" class="edge">
<title>Node0&#45;&gt;Node39</title>
<path fill="none" stroke="midnightblue" d="M1456.14,-304.38C1555.17,-292.01 1719.24,-271.23 1860.39,-252 1861.48,-251.85 1862.58,-251.7 1863.69,-251.55"/>
<polygon fill="midnightblue" stroke="midnightblue" points="1864.39,-254.99 1873.81,-250.14 1863.42,-248.05 1864.39,-254.99"/>
</g>
<!-- Node3&#45;&gt;Node3 -->
<g id="edge4" class="edge">
<title>Node3&#45;&gt;Node3</title>
<path fill="none" stroke="midnightblue" d="M1504.67,-26.62C1527.91,-35.58 1556.19,-32.2 1556.19,-16.5 1556.19,-2.94 1535.12,1.42 1514.4,-3.4"/>
<polygon fill="midnightblue" stroke="midnightblue" points="1513.2,-0.1 1504.67,-6.38 1515.25,-6.8 1513.2,-0.1"/>
</g>
<!-- Node6 -->
<g id="node7" class="node">
<title>Node6</title>
<g id="a_node7"><a xlink:title=" ">
<polygon fill="white" stroke="#bfbfbf" points="1653.33,-168.5 1653.33,-188.5 1715.45,-188.5 1715.45,-168.5 1653.33,-168.5"/>
<text text-anchor="middle" x="1684.39" y="-175.5" font-family="Helvetica,sans-Serif" font-size="10.00">type_traits</text>
</a>
</g>
</g>
<!-- Node5&#45;&gt;Node6 -->
<g id="edge7" class="edge">
<title>Node5&#45;&gt;Node6</title>
<path fill="none" stroke="midnightblue" d="M1521.19,-231.44C1553.39,-222.83 1602.47,-209.13 1644.39,-195 1647.11,-194.09 1649.91,-193.1 1652.71,-192.08"/>
<polygon fill="midnightblue" stroke="midnightblue" points="1653.97,-195.34 1662.1,-188.54 1651.51,-188.79 1653.97,-195.34"/>
</g>
<!-- Node7 -->
<g id="node8" class="node">
<title>Node7</title>
<g id="a_node8"><a xlink:title=" ">
<polygon fill="white" stroke="#bfbfbf" points="1733.93,-168.5 1733.93,-188.5 1818.86,-188.5 1818.86,-168.5 1733.93,-168.5"/>
<text text-anchor="middle" x="1776.39" y="-175.5" font-family="Helvetica,sans-Serif" font-size="10.00">boost/hana.hpp</text>
</a>
</g>
</g>
<!-- Node5&#45;&gt;Node7 -->
<g id="edge8" class="edge">
<title>Node5&#45;&gt;Node7</title>
<path fill="none" stroke="midnightblue" d="M1542.04,-231.5C1590.49,-223.27 1662.48,-210.11 1724.39,-195 1728.84,-193.92 1733.47,-192.69 1738.05,-191.4"/>
<polygon fill="midnightblue" stroke="midnightblue" points="1739.29,-194.69 1747.93,-188.55 1737.35,-187.96 1739.29,-194.69"/>
</g>
<!-- Node8 -->
<g id="node9" class="node">
<title>Node8</title>
<g id="a_node9"><a xlink:title=" ">
<polygon fill="white" stroke="#bfbfbf" points="953.05,-168.5 953.05,-188.5 1045.74,-188.5 1045.74,-168.5 953.05,-168.5"/>
<text text-anchor="middle" x="999.39" y="-175.5" font-family="Helvetica,sans-Serif" font-size="10.00">cereal/cereal.hpp</text>
</a>
</g>
</g>
<!-- Node5&#45;&gt;Node8 -->
<g id="edge9" class="edge">
<title>Node5&#45;&gt;Node8</title>
<path fill="none" stroke="midnightblue" d="M1430.4,-232.14C1427.35,-231.74 1424.34,-231.36 1421.39,-231 1258.71,-211.14 1215.45,-225.35 1054.39,-195 1048.91,-193.97 1043.18,-192.64 1037.58,-191.2"/>
<polygon fill="midnightblue" stroke="midnightblue" points="1038.28,-187.76 1027.71,-188.51 1036.44,-194.52 1038.28,-187.76"/>
</g>
<!-- Node9 -->
<g id="node10" class="node">
<title>Node9</title>
<g id="a_node10"><a xlink:title=" ">
<polygon fill="white" stroke="#bfbfbf" points="1063.83,-162.5 1063.83,-194.5 1160.96,-194.5 1160.96,-162.5 1063.83,-162.5"/>
<text text-anchor="start" x="1071.83" y="-181.5" font-family="Helvetica,sans-Serif" font-size="10.00">cereal/types/boost</text>
<text text-anchor="middle" x="1112.39" y="-169.5" font-family="Helvetica,sans-Serif" font-size="10.00">_variant.hpp</text>
</a>
</g>
</g>
<!-- Node5&#45;&gt;Node9 -->
<g id="edge10" class="edge">
<title>Node5&#45;&gt;Node9</title>
<path fill="none" stroke="midnightblue" d="M1430.38,-232.3C1427.34,-231.86 1424.33,-231.42 1421.39,-231 1313.02,-215.31 1282.52,-217.45 1170.99,-194.97"/>
<polygon fill="midnightblue" stroke="midnightblue" points="1171.53,-191.51 1161.03,-192.95 1170.13,-198.37 1171.53,-191.51"/>
</g>
<!-- Node10 -->
<g id="node11" class="node">
<title>Node10</title>
<g id="a_node11"><a xlink:title=" ">
<polygon fill="white" stroke="#bfbfbf" points="1179.44,-162.5 1179.44,-194.5 1319.35,-194.5 1319.35,-162.5 1179.44,-162.5"/>
<text text-anchor="start" x="1187.44" y="-181.5" font-family="Helvetica,sans-Serif" font-size="10.00">halco/common/cerealization</text>
<text text-anchor="middle" x="1249.39" y="-169.5" font-family="Helvetica,sans-Serif" font-size="10.00">_geometry.h</text>
</a>
</g>
</g>
<!-- Node5&#45;&gt;Node10 -->
<g id="edge11" class="edge">
<title>Node5&#45;&gt;Node10</title>
<path fill="none" stroke="midnightblue" d="M1451.42,-231.5C1416.35,-222.47 1361.41,-208.33 1317.67,-197.07"/>
<polygon fill="midnightblue" stroke="midnightblue" points="1318.51,-193.68 1307.96,-194.57 1316.77,-200.45 1318.51,-193.68"/>
</g>
<!-- Node11 -->
<g id="node12" class="node">
<title>Node11</title>
<g id="a_node12"><a xlink:title=" ">
<polygon fill="white" stroke="#bfbfbf" points="1337.44,-162.5 1337.44,-194.5 1477.35,-194.5 1477.35,-162.5 1337.44,-162.5"/>
<text text-anchor="start" x="1345.44" y="-181.5" font-family="Helvetica,sans-Serif" font-size="10.00">halco/common/cerealization</text>
<text text-anchor="middle" x="1407.39" y="-169.5" font-family="Helvetica,sans-Serif" font-size="10.00">_typed_array.h</text>
</a>
</g>
</g>
<!-- Node5&#45;&gt;Node11 -->
<g id="edge12" class="edge">
<title>Node5&#45;&gt;Node11</title>
<path fill="none" stroke="midnightblue" d="M1474.74,-231.5C1464.36,-223.49 1448.76,-211.44 1435.19,-200.96"/>
<polygon fill="midnightblue" stroke="midnightblue" points="1437.12,-198.03 1427.07,-194.69 1432.84,-203.57 1437.12,-198.03"/>
</g>
<!-- Node12 -->
<g id="node13" class="node">
<title>Node12</title>
<g id="a_node13"><a xlink:title=" ">
<polygon fill="white" stroke="#bfbfbf" points="1495.44,-162.5 1495.44,-194.5 1635.35,-194.5 1635.35,-162.5 1495.44,-162.5"/>
<text text-anchor="start" x="1503.44" y="-181.5" font-family="Helvetica,sans-Serif" font-size="10.00">halco/common/cerealization</text>
<text text-anchor="middle" x="1565.39" y="-169.5" font-family="Helvetica,sans-Serif" font-size="10.00">_typed_heap_array.h</text>
</a>
</g>
</g>
<!-- Node5&#45;&gt;Node12 -->
<g id="edge13" class="edge">
<title>Node5&#45;&gt;Node12</title>
<path fill="none" stroke="midnightblue" d="M1498.05,-231.5C1508.43,-223.49 1524.03,-211.44 1537.6,-200.96"/>
<polygon fill="midnightblue" stroke="midnightblue" points="1539.94,-203.57 1545.72,-194.69 1535.67,-198.03 1539.94,-203.57"/>
</g>
<!-- Node14 -->
<g id="node15" class="node">
<title>Node14</title>
<g id="a_node15"><a xlink:href="container_8h.html" target="_top" xlink:title=" ">
<polygon fill="white" stroke="black" points="838.11,-168.5 838.11,-188.5 934.68,-188.5 934.68,-168.5 838.11,-168.5"/>
<text text-anchor="middle" x="886.39" y="-175.5" font-family="Helvetica,sans-Serif" font-size="10.00">lola/vx/container.h</text>
</a>
</g>
</g>
<!-- Node13&#45;&gt;Node14 -->
<g id="edge15" class="edge">
<title>Node13&#45;&gt;Node14</title>
<path fill="none" stroke="midnightblue" d="M1231.58,-232.67C1228.48,-232.08 1225.39,-231.51 1222.39,-231 1099.57,-210.12 1066.62,-219.14 944.39,-195 938.83,-193.9 933.02,-192.57 927.31,-191.16"/>
<polygon fill="midnightblue" stroke="midnightblue" points="927.78,-187.66 917.22,-188.55 926.03,-194.44 927.78,-187.66"/>
</g>
<!-- Node15 -->
<g id="node16" class="node">
<title>Node15</title>
<g id="a_node16"><a xlink:href="cadc_8h.html" target="_top" xlink:title=" ">
<polygon fill="white" stroke="black" points="745.11,-87.5 745.11,-107.5 821.68,-107.5 821.68,-87.5 745.11,-87.5"/>
<text text-anchor="middle" x="783.39" y="-94.5" font-family="Helvetica,sans-Serif" font-size="10.00">lola/vx/cadc.h</text>
</a>
</g>
</g>
<!-- Node14&#45;&gt;Node15 -->
<g id="edge16" class="edge">
<title>Node14&#45;&gt;Node15</title>
<path fill="none" stroke="midnightblue" d="M874.58,-168.44C857.21,-155.12 824.56,-130.07 803.41,-113.85"/>
<polygon fill="midnightblue" stroke="midnightblue" points="805.45,-111.01 795.39,-107.7 801.19,-116.56 805.45,-111.01"/>
</g>
<!-- Node16 -->
<g id="node17" class="node">
<title>Node16</title>
<g id="a_node17"><a xlink:title=" ">
<polygon fill="white" stroke="#bfbfbf" points="1056.03,-6.5 1056.03,-26.5 1198.76,-26.5 1198.76,-6.5 1056.03,-6.5"/>
<text text-anchor="middle" x="1127.39" y="-13.5" font-family="Helvetica,sans-Serif" font-size="10.00">boost/hana/adapt_struct.hpp</text>
</a>
</g>
</g>
<!-- Node14&#45;&gt;Node16 -->
<g id="edge43" class="edge">
<title>Node14&#45;&gt;Node16</title>
<path fill="none" stroke="midnightblue" d="M897.65,-168.31C909.31,-158.49 927.69,-142.17 941.39,-126 961.08,-102.77 955.32,-87.64 979.39,-69 1004.8,-49.33 1038.25,-36.85 1066.93,-29.11"/>
<polygon fill="midnightblue" stroke="midnightblue" points="1068.03,-32.44 1076.85,-26.57 1066.29,-25.66 1068.03,-32.44"/>
</g>
<!-- Node25 -->
<g id="node26" class="node">
<title>Node25</title>
<g id="a_node26"><a xlink:href="dac_8h.html" target="_top" xlink:title=" ">
<polygon fill="white" stroke="black" points="534.61,-87.5 534.61,-107.5 606.18,-107.5 606.18,-87.5 534.61,-87.5"/>
<text text-anchor="middle" x="570.39" y="-94.5" font-family="Helvetica,sans-Serif" font-size="10.00">lola/vx/dac.h</text>
</a>
</g>
</g>
<!-- Node14&#45;&gt;Node25 -->
<g id="edge27" class="edge">
<title>Node14&#45;&gt;Node25</title>
<path fill="none" stroke="midnightblue" d="M850.15,-168.44C792.29,-153.97 679.15,-125.69 615.92,-109.88"/>
<polygon fill="midnightblue" stroke="midnightblue" points="616.77,-106.49 606.22,-107.46 615.07,-113.28 616.77,-106.49"/>
</g>
<!-- Node28 -->
<g id="node29" class="node">
<title>Node28</title>
<g id="a_node29"><a xlink:href="neuron_8h.html" target="_top" xlink:title=" ">
<polygon fill="white" stroke="black" points="1874.11,-87.5 1874.11,-107.5 1960.68,-107.5 1960.68,-87.5 1874.11,-87.5"/>
<text text-anchor="middle" x="1917.39" y="-94.5" font-family="Helvetica,sans-Serif" font-size="10.00">lola/vx/neuron.h</text>
</a>
</g>
</g>
<!-- Node14&#45;&gt;Node28 -->
<g id="edge37" class="edge">
<title>Node14&#45;&gt;Node28</title>
<path fill="none" stroke="midnightblue" d="M915.66,-168.48C924.78,-166 934.93,-163.56 944.39,-162 955.84,-160.12 1661.77,-114.86 1863.88,-101.92"/>
<polygon fill="midnightblue" stroke="midnightblue" points="1864.2,-105.41 1873.95,-101.28 1863.75,-98.42 1864.2,-105.41"/>
</g>
<!-- Node32 -->
<g id="node33" class="node">
<title>Node32</title>
<g id="a_node33"><a xlink:title=" ">
<polygon fill="white" stroke="#bfbfbf" points="988.72,-69.5 988.72,-125.5 1168.07,-125.5 1168.07,-69.5 988.72,-69.5"/>
<text text-anchor="start" x="996.72" y="-112.5" font-family="Helvetica,sans-Serif" font-size="10.00">/jenkins/jenlib_workspaces</text>
<text text-anchor="start" x="996.72" y="-100.5" font-family="Helvetica,sans-Serif" font-size="10.00">_f9/bld_nightly&#45;haldls.YmxkX25p</text>
<text text-anchor="start" x="996.72" y="-88.5" font-family="Helvetica,sans-Serif" font-size="10.00">Z2h0bHktaGFsZGxzIzU5Nw.x/haldls</text>
<text text-anchor="middle" x="1078.39" y="-76.5" font-family="Helvetica,sans-Serif" font-size="10.00">/include/haldls/vx/common.h</text>
</a>
</g>
</g>
<!-- Node14&#45;&gt;Node32 -->
<g id="edge44" class="edge">
<title>Node14&#45;&gt;Node32</title>
<path fill="none" stroke="midnightblue" d="M908.42,-168.44C931.56,-158.92 969.25,-143.41 1003.26,-129.41"/>
<polygon fill="midnightblue" stroke="midnightblue" points="1004.83,-132.55 1012.74,-125.51 1002.16,-126.08 1004.83,-132.55"/>
</g>
<!-- Node33 -->
<g id="node34" class="node">
<title>Node33</title>
<g id="a_node34"><a xlink:title=" ">
<polygon fill="white" stroke="#bfbfbf" points="1185.72,-69.5 1185.72,-125.5 1365.07,-125.5 1365.07,-69.5 1185.72,-69.5"/>
<text text-anchor="start" x="1193.72" y="-112.5" font-family="Helvetica,sans-Serif" font-size="10.00">/jenkins/jenlib_workspaces</text>
<text text-anchor="start" x="1193.72" y="-100.5" font-family="Helvetica,sans-Serif" font-size="10.00">_f9/bld_nightly&#45;haldls.YmxkX25p</text>
<text text-anchor="start" x="1193.72" y="-88.5" font-family="Helvetica,sans-Serif" font-size="10.00">Z2h0bHktaGFsZGxzIzU5Nw.x/haldls</text>
<text text-anchor="middle" x="1275.39" y="-76.5" font-family="Helvetica,sans-Serif" font-size="10.00">/include/haldls/vx/neuron.h</text>
</a>
</g>
</g>
<!-- Node14&#45;&gt;Node33 -->
<g id="edge45" class="edge">
<title>Node14&#45;&gt;Node33</title>
<path fill="none" stroke="midnightblue" d="M917.85,-168.43C926.42,-166.14 935.72,-163.82 944.39,-162 1043.83,-141.09 1073.22,-147.75 1175.7,-126.27"/>
<polygon fill="midnightblue" stroke="midnightblue" points="1176.47,-129.68 1185.52,-124.17 1175.01,-122.84 1176.47,-129.68"/>
</g>
<!-- Node34 -->
<g id="node35" class="node">
<title>Node34</title>
<g id="a_node35"><a xlink:href="ppu_8h.html" target="_top" xlink:title=" ">
<polygon fill="white" stroke="black" points="1406.33,-87.5 1406.33,-107.5 1478.46,-107.5 1478.46,-87.5 1406.33,-87.5"/>
<text text-anchor="middle" x="1442.39" y="-94.5" font-family="Helvetica,sans-Serif" font-size="10.00">lola/vx/ppu.h</text>
</a>
</g>
</g>
<!-- Node14&#45;&gt;Node34 -->
<g id="edge46" class="edge">
<title>Node14&#45;&gt;Node34</title>
<path fill="none" stroke="midnightblue" d="M916.27,-168.43C925.24,-166 935.15,-163.61 944.39,-162 1133.33,-129.11 1187.84,-170.45 1374.39,-126 1388.27,-122.69 1403.03,-117.01 1415.24,-111.67"/>
<polygon fill="midnightblue" stroke="midnightblue" points="1416.75,-114.83 1424.42,-107.51 1413.86,-108.45 1416.75,-114.83"/>
</g>
<!-- Node37 -->
<g id="node38" class="node">
<title>Node37</title>
<g id="a_node38"><a xlink:href="synapse_8h.html" target="_top" xlink:title=" ">
<polygon fill="white" stroke="black" points="840.05,-87.5 840.05,-107.5 932.74,-107.5 932.74,-87.5 840.05,-87.5"/>
<text text-anchor="middle" x="886.39" y="-94.5" font-family="Helvetica,sans-Serif" font-size="10.00">lola/vx/synapse.h</text>
</a>
</g>
</g>
<!-- Node14&#45;&gt;Node37 -->
<g id="edge52" class="edge">
<title>Node14&#45;&gt;Node37</title>
<path fill="none" stroke="midnightblue" d="M886.39,-168.44C886.39,-156.31 886.39,-134.45 886.39,-118.39"/>
<polygon fill="midnightblue" stroke="midnightblue" points="889.89,-117.95 886.39,-107.95 882.89,-117.95 889.89,-117.95"/>
</g>
<!-- Node15&#45;&gt;Node3 -->
<g id="edge25" class="edge">
<title>Node15&#45;&gt;Node3</title>
<path fill="none" stroke="midnightblue" d="M795.7,-87.32C804.99,-80.94 818.33,-72.9 831.39,-69 1086.09,7.07 1165.91,-74.97 1428.39,-33 1434.71,-31.99 1441.33,-30.59 1447.75,-29.05"/>
<polygon fill="midnightblue" stroke="midnightblue" points="1448.8,-32.4 1457.62,-26.54 1447.07,-25.61 1448.8,-32.4"/>
</g>
<!-- Node15&#45;&gt;Node16 -->
<g id="edge17" class="edge">
<title>Node15&#45;&gt;Node16</title>
<path fill="none" stroke="midnightblue" d="M796.23,-87.46C805.56,-81.32 818.73,-73.52 831.39,-69 923.06,-36.3 951.61,-50.26 1047.39,-33 1055.31,-31.57 1063.66,-30.02 1071.86,-28.46"/>
<polygon fill="midnightblue" stroke="midnightblue" points="1072.58,-31.88 1081.74,-26.56 1071.26,-25.01 1072.58,-31.88"/>
</g>
<!-- Node17 -->
<g id="node18" class="node">
<title>Node17</title>
<g id="a_node18"><a xlink:title=" ">
<polygon fill="white" stroke="#bfbfbf" points="570.61,-6.5 570.61,-26.5 692.18,-26.5 692.18,-6.5 570.61,-6.5"/>
<text text-anchor="middle" x="631.39" y="-13.5" font-family="Helvetica,sans-Serif" font-size="10.00">halco/common/iter_all.h</text>
</a>
</g>
</g>
<!-- Node15&#45;&gt;Node17 -->
<g id="edge18" class="edge">
<title>Node15&#45;&gt;Node17</title>
<path fill="none" stroke="midnightblue" d="M765.96,-87.44C739.53,-73.7 689.12,-47.5 658.06,-31.36"/>
<polygon fill="midnightblue" stroke="midnightblue" points="659.58,-28.21 649.1,-26.7 656.35,-34.42 659.58,-28.21"/>
</g>
<!-- Node18 -->
<g id="node19" class="node">
<title>Node18</title>
<g id="a_node19"><a xlink:title=" ">
<polygon fill="white" stroke="#bfbfbf" points="216.27,-0.5 216.27,-32.5 324.52,-32.5 324.52,-0.5 216.27,-0.5"/>
<text text-anchor="start" x="224.27" y="-19.5" font-family="Helvetica,sans-Serif" font-size="10.00">halco/common/typed</text>
<text text-anchor="middle" x="270.39" y="-7.5" font-family="Helvetica,sans-Serif" font-size="10.00">_array.h</text>
</a>
</g>
</g>
<!-- Node15&#45;&gt;Node18 -->
<g id="edge19" class="edge">
<title>Node15&#45;&gt;Node18</title>
<path fill="none" stroke="midnightblue" d="M745.09,-89.83C711.08,-84.01 660,-75.5 615.39,-69 493.54,-51.25 459.33,-55.87 334.55,-33.09"/>
<polygon fill="midnightblue" stroke="midnightblue" points="335.07,-29.63 324.61,-31.25 333.8,-36.51 335.07,-29.63"/>
</g>
<!-- Node19 -->
<g id="node20" class="node">
<title>Node19</title>
<g id="a_node20"><a xlink:title=" ">
<polygon fill="white" stroke="#bfbfbf" points="930.27,-0.5 930.27,-32.5 1038.52,-32.5 1038.52,-0.5 930.27,-0.5"/>
<text text-anchor="start" x="938.27" y="-19.5" font-family="Helvetica,sans-Serif" font-size="10.00">halco/common/typed</text>
<text text-anchor="middle" x="984.39" y="-7.5" font-family="Helvetica,sans-Serif" font-size="10.00">_heap_array.h</text>
</a>
</g>
</g>
<!-- Node15&#45;&gt;Node19 -->
<g id="edge20" class="edge">
<title>Node15&#45;&gt;Node19</title>
<path fill="none" stroke="midnightblue" d="M797.71,-87.31C807.06,-81.56 819.66,-74.28 831.39,-69 860.32,-56 893.57,-44.43 921.67,-35.56"/>
<polygon fill="midnightblue" stroke="midnightblue" points="922.87,-38.86 931.37,-32.54 920.79,-32.17 922.87,-38.86"/>
</g>
<!-- Node20 -->
<g id="node21" class="node">
<title>Node20</title>
<g id="a_node21"><a xlink:title=" ">
<polygon fill="white" stroke="#bfbfbf" points="709.83,-6.5 709.83,-26.5 796.96,-26.5 796.96,-6.5 709.83,-6.5"/>
<text text-anchor="middle" x="753.39" y="-13.5" font-family="Helvetica,sans-Serif" font-size="10.00">haldls/vx/cadc.h</text>
</a>
</g>
</g>
<!-- Node15&#45;&gt;Node20 -->
<g id="edge21" class="edge">
<title>Node15&#45;&gt;Node20</title>
<path fill="none" stroke="midnightblue" d="M779.95,-87.44C775.26,-75.07 766.72,-52.6 760.6,-36.47"/>
<polygon fill="midnightblue" stroke="midnightblue" points="763.8,-35.05 756.98,-26.95 757.26,-37.54 763.8,-35.05"/>
</g>
<!-- Node21 -->
<g id="node22" class="node">
<title>Node21</title>
<g id="a_node22"><a xlink:title=" ">
<polygon fill="white" stroke="#bfbfbf" points="342.22,-6.5 342.22,-26.5 446.57,-26.5 446.57,-6.5 342.22,-6.5"/>
<text text-anchor="middle" x="394.39" y="-13.5" font-family="Helvetica,sans-Serif" font-size="10.00">haldls/vx/common.h</text>
</a>
</g>
</g>
<!-- Node15&#45;&gt;Node21 -->
<g id="edge22" class="edge">
<title>Node15&#45;&gt;Node21</title>
<path fill="none" stroke="midnightblue" d="M744.87,-89.78C683.42,-78.91 559.54,-56.29 455.39,-33 449.93,-31.78 444.21,-30.42 438.55,-29.04"/>
<polygon fill="midnightblue" stroke="midnightblue" points="439.06,-25.56 428.51,-26.54 437.37,-32.35 439.06,-25.56"/>
</g>
<!-- Node22 -->
<g id="node23" class="node">
<title>Node22</title>
<g id="a_node23"><a xlink:title=" ">
<polygon fill="white" stroke="#bfbfbf" points="464.56,-6.5 464.56,-26.5 552.23,-26.5 552.23,-6.5 464.56,-6.5"/>
<text text-anchor="middle" x="508.39" y="-13.5" font-family="Helvetica,sans-Serif" font-size="10.00">haldls/vx/traits.h</text>
</a>
</g>
</g>
<!-- Node15&#45;&gt;Node22 -->
<g id="edge23" class="edge">
<title>Node15&#45;&gt;Node22</title>
<path fill="none" stroke="midnightblue" d="M751.39,-87.41C708.23,-75.14 628.98,-52.55 561.39,-33 557.35,-31.83 553.14,-30.61 548.93,-29.38"/>
<polygon fill="midnightblue" stroke="midnightblue" points="549.79,-25.99 539.21,-26.55 547.83,-32.71 549.79,-25.99"/>
</g>
<!-- Node23 -->
<g id="node24" class="node">
<title>Node23</title>
<g id="a_node24"><a xlink:title=" ">
<polygon fill="white" stroke="#bfbfbf" points="1337.89,-6.5 1337.89,-26.5 1418.9,-26.5 1418.9,-6.5 1337.89,-6.5"/>
<text text-anchor="middle" x="1378.39" y="-13.5" font-family="Helvetica,sans-Serif" font-size="10.00">hate/visibility.h</text>
</a>
</g>
</g>
<!-- Node15&#45;&gt;Node23 -->
<g id="edge24" class="edge">
<title>Node15&#45;&gt;Node23</title>
<path fill="none" stroke="midnightblue" d="M795.71,-87.37C805.01,-81.01 818.35,-72.98 831.39,-69 1043.64,-4.22 1111.45,-74.75 1329.39,-33 1334.18,-32.08 1339.16,-30.85 1344.02,-29.48"/>
<polygon fill="midnightblue" stroke="midnightblue" points="1345.2,-32.78 1353.76,-26.53 1343.17,-26.08 1345.2,-32.78"/>
</g>
<!-- Node24 -->
<g id="node25" class="node">
<title>Node24</title>
<g id="a_node25"><a xlink:title=" ">
<polygon fill="white" stroke="#bfbfbf" points="814.55,-6.5 814.55,-26.5 912.24,-26.5 912.24,-6.5 814.55,-6.5"/>
<text text-anchor="middle" x="863.39" y="-13.5" font-family="Helvetica,sans-Serif" font-size="10.00">pybind11/numpy.h</text>
</a>
</g>
</g>
<!-- Node15&#45;&gt;Node24 -->
<g id="edge26" class="edge">
<title>Node15&#45;&gt;Node24</title>
<path fill="none" stroke="midnightblue" d="M792.57,-87.44C805.69,-74.48 830.04,-50.44 846.48,-34.2"/>
<polygon fill="midnightblue" stroke="midnightblue" points="849.17,-36.46 853.83,-26.95 844.25,-31.48 849.17,-36.46"/>
</g>
<!-- Node25&#45;&gt;Node3 -->
<g id="edge36" class="edge">
<title>Node25&#45;&gt;Node3</title>
<path fill="none" stroke="midnightblue" d="M606.5,-89.32C640.02,-82.94 691.38,-73.88 736.39,-69 1042.57,-35.78 1124.09,-80.37 1428.39,-33 1434.78,-32.01 1441.48,-30.6 1447.97,-29.05"/>
<polygon fill="midnightblue" stroke="midnightblue" points="1449.11,-32.37 1457.93,-26.51 1447.38,-25.59 1449.11,-32.37"/>
</g>
<!-- Node25&#45;&gt;Node16 -->
<g id="edge28" class="edge">
<title>Node25&#45;&gt;Node16</title>
<path fill="none" stroke="midnightblue" d="M606.26,-90.04C639.83,-84.11 691.41,-75.33 736.39,-69 874.18,-49.62 909.88,-54.25 1047.39,-33 1056.03,-31.67 1065.15,-30.07 1074.03,-28.42"/>
<polygon fill="midnightblue" stroke="midnightblue" points="1074.73,-31.85 1083.9,-26.55 1073.43,-24.98 1074.73,-31.85"/>
</g>
<!-- Node25&#45;&gt;Node17 -->
<g id="edge29" class="edge">
<title>Node25&#45;&gt;Node17</title>
<path fill="none" stroke="midnightblue" d="M577.39,-87.44C587.21,-74.72 605.29,-51.31 617.81,-35.1"/>
<polygon fill="midnightblue" stroke="midnightblue" points="620.76,-37 624.1,-26.95 615.22,-32.72 620.76,-37"/>
</g>
<!-- Node25&#45;&gt;Node18 -->
<g id="edge30" class="edge">
<title>Node25&#45;&gt;Node18</title>
<path fill="none" stroke="midnightblue" d="M535.98,-87.44C487,-74.54 396.28,-50.65 334.65,-34.42"/>
<polygon fill="midnightblue" stroke="midnightblue" points="335.2,-30.95 324.64,-31.78 333.41,-37.71 335.2,-30.95"/>
</g>
<!-- Node25&#45;&gt;Node21 -->
<g id="edge32" class="edge">
<title>Node25&#45;&gt;Node21</title>
<path fill="none" stroke="midnightblue" d="M550.21,-87.44C519.26,-73.55 459.91,-46.91 424.06,-30.82"/>
<polygon fill="midnightblue" stroke="midnightblue" points="425.18,-27.48 414.62,-26.58 422.31,-33.87 425.18,-27.48"/>
</g>
<!-- Node25&#45;&gt;Node22 -->
<g id="edge34" class="edge">
<title>Node25&#45;&gt;Node22</title>
<path fill="none" stroke="midnightblue" d="M563.28,-87.44C553.3,-74.72 534.93,-51.31 522.21,-35.1"/>
<polygon fill="midnightblue" stroke="midnightblue" points="524.73,-32.65 515.81,-26.95 519.23,-36.97 524.73,-32.65"/>
</g>
<!-- Node25&#45;&gt;Node23 -->
<g id="edge35" class="edge">
<title>Node25&#45;&gt;Node23</title>
<path fill="none" stroke="midnightblue" d="M606.19,-89.47C639.71,-83.15 691.26,-74.1 736.39,-69 998.77,-39.38 1069.79,-81.18 1329.39,-33 1334.24,-32.1 1339.27,-30.87 1344.19,-29.49"/>
<polygon fill="midnightblue" stroke="midnightblue" points="1345.46,-32.76 1354.02,-26.51 1343.43,-26.06 1345.46,-32.76"/>
</g>
<!-- Node26 -->
<g id="node27" class="node">
<title>Node26</title>
<g id="a_node27"><a xlink:title=" ">
<polygon fill="white" stroke="#bfbfbf" points="96.89,-0.5 96.89,-32.5 197.9,-32.5 197.9,-0.5 96.89,-0.5"/>
<text text-anchor="start" x="104.89" y="-19.5" font-family="Helvetica,sans-Serif" font-size="10.00">halco/hicann&#45;dls/vx</text>
<text text-anchor="middle" x="147.39" y="-7.5" font-family="Helvetica,sans-Serif" font-size="10.00">/dac.h</text>
</a>
</g>
</g>
<!-- Node25&#45;&gt;Node26 -->
<g id="edge31" class="edge">
<title>Node25&#45;&gt;Node26</title>
<path fill="none" stroke="midnightblue" d="M534.4,-91.18C470.65,-81.54 333.55,-59.87 207.86,-33"/>
<polygon fill="midnightblue" stroke="midnightblue" points="208.58,-29.58 198.07,-30.89 207.1,-36.42 208.58,-29.58"/>
</g>
<!-- Node27 -->
<g id="node28" class="node">
<title>Node27</title>
<g id="a_node28"><a xlink:title=" ">
<polygon fill="white" stroke="#bfbfbf" points="0,-6.5 0,-26.5 78.79,-26.5 78.79,-6.5 0,-6.5"/>
<text text-anchor="middle" x="39.39" y="-13.5" font-family="Helvetica,sans-Serif" font-size="10.00">haldls/vx/spi.h</text>
</a>
</g>
</g>
<!-- Node25&#45;&gt;Node27 -->
<g id="edge33" class="edge">
<title>Node25&#45;&gt;Node27</title>
<path fill="none" stroke="midnightblue" d="M534.56,-94.03C453.88,-87.97 252.21,-70.12 87.39,-33 83.17,-32.05 78.78,-30.88 74.45,-29.63"/>
<polygon fill="midnightblue" stroke="midnightblue" points="75.15,-26.18 64.57,-26.58 73.09,-32.87 75.15,-26.18"/>
</g>
<!-- Node28&#45;&gt;Node3 -->
<g id="edge41" class="edge">
<title>Node28&#45;&gt;Node3</title>
<path fill="none" stroke="midnightblue" d="M1901.98,-87.34C1890.82,-81.15 1875.16,-73.33 1860.39,-69 1733.23,-31.71 1695.23,-54.09 1564.39,-33 1556.26,-31.69 1547.67,-30.13 1539.3,-28.52"/>
<polygon fill="midnightblue" stroke="midnightblue" points="1539.74,-25.04 1529.25,-26.54 1538.38,-31.91 1539.74,-25.04"/>
</g>
<!-- Node28&#45;&gt;Node23 -->
<g id="edge40" class="edge">
<title>Node28&#45;&gt;Node23</title>
<path fill="none" stroke="midnightblue" d="M1874.02,-93.48C1788.01,-86.92 1590.09,-68.98 1427.39,-33 1422.96,-32.02 1418.36,-30.82 1413.82,-29.52"/>
<polygon fill="midnightblue" stroke="midnightblue" points="1414.69,-26.12 1404.1,-26.57 1412.66,-32.82 1414.69,-26.12"/>
</g>
<!-- Node29 -->
<g id="node30" class="node">
<title>Node29</title>
<g id="a_node30"><a xlink:title=" ">
<polygon fill="white" stroke="#bfbfbf" points="1905.22,-6.5 1905.22,-26.5 2009.57,-26.5 2009.57,-6.5 1905.22,-6.5"/>
<text text-anchor="middle" x="1957.39" y="-13.5" font-family="Helvetica,sans-Serif" font-size="10.00">haldls/vx/capmem.h</text>
</a>
</g>
</g>
<!-- Node28&#45;&gt;Node29 -->
<g id="edge38" class="edge">
<title>Node28&#45;&gt;Node29</title>
<path fill="none" stroke="midnightblue" d="M1921.98,-87.44C1928.3,-74.95 1939.84,-52.17 1948.02,-36.01"/>
<polygon fill="midnightblue" stroke="midnightblue" points="1951.22,-37.45 1952.61,-26.95 1944.97,-34.29 1951.22,-37.45"/>
</g>
<!-- Node30 -->
<g id="node31" class="node">
<title>Node30</title>
<g id="a_node31"><a xlink:title=" ">
<polygon fill="white" stroke="#bfbfbf" points="2027.83,-6.5 2027.83,-26.5 2124.96,-26.5 2124.96,-6.5 2027.83,-6.5"/>
<text text-anchor="middle" x="2076.39" y="-13.5" font-family="Helvetica,sans-Serif" font-size="10.00">haldls/vx/neuron.h</text>
</a>
</g>
</g>
<!-- Node28&#45;&gt;Node30 -->
<g id="edge39" class="edge">
<title>Node28&#45;&gt;Node30</title>
<path fill="none" stroke="midnightblue" d="M1935.63,-87.44C1963.4,-73.64 2016.46,-47.28 2048.92,-31.15"/>
<polygon fill="midnightblue" stroke="midnightblue" points="2050.48,-34.28 2057.88,-26.7 2047.37,-28.02 2050.48,-34.28"/>
</g>
<!-- Node31 -->
<g id="node32" class="node">
<title>Node31</title>
<g id="a_node32"><a xlink:title=" ">
<polygon fill="white" stroke="#bfbfbf" points="1793.5,-6.5 1793.5,-26.5 1887.29,-26.5 1887.29,-6.5 1793.5,-6.5"/>
<text text-anchor="middle" x="1840.39" y="-13.5" font-family="Helvetica,sans-Serif" font-size="10.00">lola/vx/neuron.tcc</text>
</a>
</g>
</g>
<!-- Node28&#45;&gt;Node31 -->
<g id="edge42" class="edge">
<title>Node28&#45;&gt;Node31</title>
<path fill="none" stroke="midnightblue" d="M1908.56,-87.44C1895.93,-74.48 1872.5,-50.44 1856.68,-34.2"/>
<polygon fill="midnightblue" stroke="midnightblue" points="1859.09,-31.66 1849.6,-26.95 1854.07,-36.55 1859.09,-31.66"/>
</g>
<!-- Node34&#45;&gt;Node3 -->
<g id="edge50" class="edge">
<title>Node34&#45;&gt;Node3</title>
<path fill="none" stroke="midnightblue" d="M1447.56,-87.44C1454.67,-74.95 1467.64,-52.17 1476.85,-36.01"/>
<polygon fill="midnightblue" stroke="midnightblue" points="1480.11,-37.37 1482.01,-26.95 1474.02,-33.9 1480.11,-37.37"/>
</g>
<!-- Node34&#45;&gt;Node16 -->
<g id="edge47" class="edge">
<title>Node34&#45;&gt;Node16</title>
<path fill="none" stroke="midnightblue" d="M1422.8,-87.49C1409.39,-81.59 1391.09,-74.07 1374.39,-69 1356.28,-63.5 1249.99,-41.94 1182.88,-28.52"/>
<polygon fill="midnightblue" stroke="midnightblue" points="1183.36,-25.05 1172.87,-26.52 1181.99,-31.91 1183.36,-25.05"/>
</g>
<!-- Node34&#45;&gt;Node23 -->
<g id="edge49" class="edge">
<title>Node34&#45;&gt;Node23</title>
<path fill="none" stroke="midnightblue" d="M1435.05,-87.44C1424.75,-74.72 1405.78,-51.31 1392.65,-35.1"/>
<polygon fill="midnightblue" stroke="midnightblue" points="1395.06,-32.51 1386.05,-26.95 1389.62,-36.92 1395.06,-32.51"/>
</g>
<!-- Node35 -->
<g id="node36" class="node">
<title>Node35</title>
<g id="a_node36"><a xlink:title=" ">
<polygon fill="white" stroke="#bfbfbf" points="1573.89,-0.5 1573.89,-32.5 1674.9,-32.5 1674.9,-0.5 1573.89,-0.5"/>
<text text-anchor="start" x="1581.89" y="-19.5" font-family="Helvetica,sans-Serif" font-size="10.00">halco/hicann&#45;dls/vx</text>
<text text-anchor="middle" x="1624.39" y="-7.5" font-family="Helvetica,sans-Serif" font-size="10.00">/coordinates.h</text>
</a>
</g>
</g>
<!-- Node34&#45;&gt;Node35 -->
<g id="edge48" class="edge">
<title>Node34&#45;&gt;Node35</title>
<path fill="none" stroke="midnightblue" d="M1463.27,-87.44C1491.64,-75.12 1543.08,-52.79 1580.22,-36.67"/>
<polygon fill="midnightblue" stroke="midnightblue" points="1582.03,-39.7 1589.81,-32.51 1579.24,-33.28 1582.03,-39.7"/>
</g>
<!-- Node36 -->
<g id="node37" class="node">
<title>Node36</title>
<g id="a_node37"><a xlink:title=" ">
<polygon fill="white" stroke="#bfbfbf" points="1693.05,-6.5 1693.05,-26.5 1775.74,-26.5 1775.74,-6.5 1693.05,-6.5"/>
<text text-anchor="middle" x="1734.39" y="-13.5" font-family="Helvetica,sans-Serif" font-size="10.00">haldls/vx/ppu.h</text>
</a>
</g>
</g>
<!-- Node34&#45;&gt;Node36 -->
<g id="edge51" class="edge">
<title>Node34&#45;&gt;Node36</title>
<path fill="none" stroke="midnightblue" d="M1478.61,-87.53C1526.05,-75.65 1611.73,-53.79 1684.39,-33 1688.22,-31.91 1692.19,-30.73 1696.16,-29.54"/>
<polygon fill="midnightblue" stroke="midnightblue" points="1697.36,-32.84 1705.9,-26.57 1695.32,-26.14 1697.36,-32.84"/>
</g>
<!-- Node37&#45;&gt;Node3 -->
<g id="edge60" class="edge">
<title>Node37&#45;&gt;Node3</title>
<path fill="none" stroke="midnightblue" d="M911.7,-87.46C930.21,-81.24 956.05,-73.34 979.39,-69 1176.22,-32.42 1231.03,-66.57 1428.39,-33 1434.63,-31.94 1441.17,-30.53 1447.52,-28.99"/>
<polygon fill="midnightblue" stroke="midnightblue" points="1448.47,-32.36 1457.3,-26.5 1446.75,-25.58 1448.47,-32.36"/>
</g>
<!-- Node37&#45;&gt;Node16 -->
<g id="edge53" class="edge">
<title>Node37&#45;&gt;Node16</title>
<path fill="none" stroke="midnightblue" d="M904.21,-87.47C915.99,-81.71 931.88,-74.35 946.39,-69 990.66,-52.67 1042.59,-38.37 1079.44,-29.01"/>
<polygon fill="midnightblue" stroke="midnightblue" points="1080.57,-32.34 1089.42,-26.51 1078.87,-25.55 1080.57,-32.34"/>
</g>
<!-- Node37&#45;&gt;Node17 -->
<g id="edge54" class="edge">
<title>Node37&#45;&gt;Node17</title>
<path fill="none" stroke="midnightblue" d="M870.12,-87.41C859.15,-81.56 844.21,-74.12 830.39,-69 803.08,-58.88 729.68,-40.72 680.07,-28.9"/>
<polygon fill="midnightblue" stroke="midnightblue" points="680.72,-25.45 670.18,-26.55 679.1,-32.26 680.72,-25.45"/>
</g>
<!-- Node37&#45;&gt;Node19 -->
<g id="edge55" class="edge">
<title>Node37&#45;&gt;Node19</title>
<path fill="none" stroke="midnightblue" d="M897.64,-87.44C912.15,-75.74 937.89,-54.99 957.57,-39.12"/>
<polygon fill="midnightblue" stroke="midnightblue" points="960,-41.66 965.59,-32.66 955.61,-36.21 960,-41.66"/>
</g>
<!-- Node37&#45;&gt;Node21 -->
<g id="edge56" class="edge">
<title>Node37&#45;&gt;Node21</title>
<path fill="none" stroke="midnightblue" d="M871.77,-87.49C860.8,-81.2 845.19,-73.19 830.39,-69 669.3,-23.36 620.35,-61.7 455.39,-33 449.11,-31.91 442.51,-30.5 436.08,-28.99"/>
<polygon fill="midnightblue" stroke="midnightblue" points="436.72,-25.54 426.17,-26.55 435.05,-32.34 436.72,-25.54"/>
</g>
<!-- Node37&#45;&gt;Node22 -->
<g id="edge58" class="edge">
<title>Node37&#45;&gt;Node22</title>
<path fill="none" stroke="midnightblue" d="M871.26,-87.39C860.29,-81.22 844.9,-73.41 830.39,-69 714.98,-33.96 679.4,-58 561.39,-33 556.37,-31.93 551.12,-30.64 545.96,-29.25"/>
<polygon fill="midnightblue" stroke="midnightblue" points="546.82,-25.85 536.25,-26.51 544.92,-32.59 546.82,-25.85"/>
</g>
<!-- Node37&#45;&gt;Node23 -->
<g id="edge59" class="edge">
<title>Node37&#45;&gt;Node23</title>
<path fill="none" stroke="midnightblue" d="M912.13,-87.49C930.62,-81.36 956.27,-73.57 979.39,-69 1132.81,-38.7 1176.27,-64.75 1329.39,-33 1333.94,-32.06 1338.66,-30.86 1343.3,-29.54"/>
<polygon fill="midnightblue" stroke="midnightblue" points="1344.66,-32.79 1353.22,-26.54 1342.64,-26.09 1344.66,-32.79"/>
</g>
<!-- Node37&#45;&gt;Node24 -->
<g id="edge61" class="edge">
<title>Node37&#45;&gt;Node24</title>
<path fill="none" stroke="midnightblue" d="M883.76,-87.44C880.19,-75.19 873.74,-53.03 869.05,-36.93"/>
<polygon fill="midnightblue" stroke="midnightblue" points="872.3,-35.57 866.14,-26.95 865.58,-37.53 872.3,-35.57"/>
</g>
<!-- Node38 -->
<g id="node39" class="node">
<title>Node38</title>
<g id="a_node39"><a xlink:title=" ">
<polygon fill="white" stroke="#bfbfbf" points="1216.77,-6.5 1216.77,-26.5 1320.02,-26.5 1320.02,-6.5 1216.77,-6.5"/>
<text text-anchor="middle" x="1268.39" y="-13.5" font-family="Helvetica,sans-Serif" font-size="10.00">haldls/vx/synapse.h</text>
</a>
</g>
</g>
<!-- Node37&#45;&gt;Node38 -->
<g id="edge57" class="edge">
<title>Node37&#45;&gt;Node38</title>
<path fill="none" stroke="midnightblue" d="M913.41,-87.49C931.84,-81.6 956.89,-74.08 979.39,-69 1079.46,-46.41 1106.91,-53.65 1207.39,-33 1213.22,-31.8 1219.33,-30.41 1225.34,-28.97"/>
<polygon fill="midnightblue" stroke="midnightblue" points="1226.42,-32.31 1235.28,-26.51 1224.73,-25.51 1226.42,-32.31"/>
</g>
</g>
</svg>
