<?xml version="1.0" encoding="UTF-8" standalone="no"?>
<!DOCTYPE svg PUBLIC "-//W3C//DTD SVG 1.1//EN"
 "http://www.w3.org/Graphics/SVG/1.1/DTD/svg11.dtd">
<!-- Generated by graphviz version 2.43.0 (0)
 -->
<!-- Title: haldls::vx::detail::BackendContainerTrait&lt; lola::vx::SynapseWeightRow &gt; Pages: 1 -->
<svg width="358pt" height="65pt"
 viewBox="0.00 0.00 358.01 65.00" xmlns="http://www.w3.org/2000/svg" xmlns:xlink="http://www.w3.org/1999/xlink">
<g id="graph0" class="graph" transform="scale(1 1) rotate(0) translate(4 61)">
<title>haldls::vx::detail::BackendContainerTrait&lt; lola::vx::SynapseWeightRow &gt;</title>
<polygon fill="white" stroke="transparent" points="-4,4 -4,-61 354.01,-61 354.01,4 -4,4"/>
<!-- Node0 -->
<g id="node1" class="node">
<title>Node0</title>
<g id="a_node1"><a xlink:title=" ">
<polygon fill="#bfbfbf" stroke="black" points="190.08,-6.5 190.08,-50.5 350.01,-50.5 350.01,-6.5 190.08,-6.5"/>
<text text-anchor="start" x="198.08" y="-37.5" font-family="Helvetica,sans-Serif" font-size="10.00">haldls::vx::detail</text>
<text text-anchor="start" x="198.08" y="-25.5" font-family="Helvetica,sans-Serif" font-size="10.00">::BackendContainerTrait</text>
<text text-anchor="middle" x="270.05" y="-13.5" font-family="Helvetica,sans-Serif" font-size="10.00">&lt; lola::vx::SynapseWeightRow &gt;</text>
</a>
</g>
</g>
<!-- Node1 -->
<g id="node2" class="node">
<title>Node1</title>
<g id="a_node2"><a xlink:title=" ">
<polygon fill="white" stroke="#bfbfbf" points="0,-0.5 0,-56.5 154.08,-56.5 154.08,-0.5 0,-0.5"/>
<text text-anchor="start" x="8" y="-43.5" font-family="Helvetica,sans-Serif" font-size="10.00">BackendContainerBase</text>
<text text-anchor="start" x="8" y="-31.5" font-family="Helvetica,sans-Serif" font-size="10.00">&lt; lola::vx::SynapseWeightRow,</text>
<text text-anchor="start" x="8" y="-19.5" font-family="Helvetica,sans-Serif" font-size="10.00"> fisch::vx::OmnibusChip, fisch</text>
<text text-anchor="middle" x="77.04" y="-7.5" font-family="Helvetica,sans-Serif" font-size="10.00">::vx::OmnibusChipOverJTAG &gt;</text>
</a>
</g>
</g>
<!-- Node1&#45;&gt;Node0 -->
<g id="edge1" class="edge">
<title>Node1&#45;&gt;Node0</title>
<path fill="none" stroke="midnightblue" d="M164.62,-28.5C173.09,-28.5 181.65,-28.5 190.04,-28.5"/>
<polygon fill="midnightblue" stroke="midnightblue" points="164.36,-25 154.36,-28.5 164.36,-32 164.36,-25"/>
</g>
</g>
</svg>
