<?xml version="1.0" encoding="UTF-8" standalone="no"?>
<!DOCTYPE svg PUBLIC "-//W3C//DTD SVG 1.1//EN"
 "http://www.w3.org/Graphics/SVG/1.1/DTD/svg11.dtd">
<!-- Generated by graphviz version 2.43.0 (0)
 -->
<!-- Title: lola::vx::AtomicNeuron::LeakReset Pages: 1 -->
<svg width="258pt" height="122pt"
 viewBox="0.00 0.00 258.01 122.00" xmlns="http://www.w3.org/2000/svg" xmlns:xlink="http://www.w3.org/1999/xlink">
<g id="graph0" class="graph" transform="scale(1 1) rotate(0) translate(4 118)">
<title>lola::vx::AtomicNeuron::LeakReset</title>
<polygon fill="white" stroke="transparent" points="-4,4 -4,-118 254.01,-118 254.01,4 -4,4"/>
<!-- Node1 -->
<g id="node1" class="node">
<title>Node1</title>
<g id="a_node1"><a xlink:title=" ">
<polygon fill="#bfbfbf" stroke="black" points="67,-0.5 67,-32.5 183.01,-32.5 183.01,-0.5 67,-0.5"/>
<text text-anchor="start" x="75" y="-19.5" font-family="Helvetica,sans-Serif" font-size="10.00">lola::vx::AtomicNeuron</text>
<text text-anchor="middle" x="125.01" y="-7.5" font-family="Helvetica,sans-Serif" font-size="10.00">::LeakReset</text>
</a>
</g>
</g>
<!-- Node2 -->
<g id="node2" class="node">
<title>Node2</title>
<g id="a_node2"><a xlink:href="structlola_1_1vx_1_1_atomic_neuron_1_1_leak_reset_1_1_reset.html" target="_top" xlink:title=" ">
<polygon fill="white" stroke="black" points="0,-81.5 0,-113.5 116.01,-113.5 116.01,-81.5 0,-81.5"/>
<text text-anchor="start" x="8" y="-100.5" font-family="Helvetica,sans-Serif" font-size="10.00">lola::vx::AtomicNeuron</text>
<text text-anchor="middle" x="58.01" y="-88.5" font-family="Helvetica,sans-Serif" font-size="10.00">::LeakReset::Reset</text>
</a>
</g>
</g>
<!-- Node2&#45;&gt;Node1 -->
<g id="edge1" class="edge">
<title>Node2&#45;&gt;Node1</title>
<path fill="none" stroke="#9a32cd" stroke-dasharray="5,2" d="M77.48,-73.53C88.63,-60.39 102.31,-44.26 112.13,-32.69"/>
<polygon fill="#9a32cd" stroke="#9a32cd" points="74.72,-71.38 70.92,-81.27 80.06,-75.91 74.72,-71.38"/>
<text text-anchor="middle" x="108.51" y="-54" font-family="Helvetica,sans-Serif" font-size="10.00"> reset</text>
</g>
<!-- Node3 -->
<g id="node3" class="node">
<title>Node3</title>
<g id="a_node3"><a xlink:href="structlola_1_1vx_1_1_atomic_neuron_1_1_leak_reset_1_1_leak.html" target="_top" xlink:title=" ">
<polygon fill="white" stroke="black" points="134,-81.5 134,-113.5 250.01,-113.5 250.01,-81.5 134,-81.5"/>
<text text-anchor="start" x="142" y="-100.5" font-family="Helvetica,sans-Serif" font-size="10.00">lola::vx::AtomicNeuron</text>
<text text-anchor="middle" x="192.01" y="-88.5" font-family="Helvetica,sans-Serif" font-size="10.00">::LeakReset::Leak</text>
</a>
</g>
</g>
<!-- Node3&#45;&gt;Node1 -->
<g id="edge2" class="edge">
<title>Node3&#45;&gt;Node1</title>
<path fill="none" stroke="#9a32cd" stroke-dasharray="5,2" d="M172.53,-73.53C161.38,-60.39 147.7,-44.26 137.88,-32.69"/>
<polygon fill="#9a32cd" stroke="#9a32cd" points="169.95,-75.91 179.09,-81.27 175.29,-71.38 169.95,-75.91"/>
<text text-anchor="middle" x="172.56" y="-54" font-family="Helvetica,sans-Serif" font-size="10.00"> leak</text>
</g>
</g>
</svg>
