<?xml version="1.0" encoding="UTF-8" standalone="no"?>
<!DOCTYPE svg PUBLIC "-//W3C//DTD SVG 1.1//EN"
 "http://www.w3.org/Graphics/SVG/1.1/DTD/svg11.dtd">
<!-- Generated by graphviz version 2.43.0 (0)
 -->
<!-- Title: haldls::vx::detail::BackendContainerTrait&lt; lola::vx::v2::SynapseCorrelationCalibMatrix &gt; Pages: 1 -->
<svg width="386pt" height="65pt"
 viewBox="0.00 0.00 386.05 65.00" xmlns="http://www.w3.org/2000/svg" xmlns:xlink="http://www.w3.org/1999/xlink">
<g id="graph0" class="graph" transform="scale(1 1) rotate(0) translate(4 61)">
<title>haldls::vx::detail::BackendContainerTrait&lt; lola::vx::v2::SynapseCorrelationCalibMatrix &gt;</title>
<polygon fill="white" stroke="transparent" points="-4,4 -4,-61 382.05,-61 382.05,4 -4,4"/>
<!-- Node2 -->
<g id="node1" class="node">
<title>Node2</title>
<g id="a_node1"><a xlink:title=" ">
<polygon fill="#bfbfbf" stroke="black" points="212.85,-0.5 212.85,-56.5 378.05,-56.5 378.05,-0.5 212.85,-0.5"/>
<text text-anchor="start" x="220.85" y="-43.5" font-family="Helvetica,sans-Serif" font-size="10.00">haldls::vx::detail</text>
<text text-anchor="start" x="220.85" y="-31.5" font-family="Helvetica,sans-Serif" font-size="10.00">::BackendContainerTrait</text>
<text text-anchor="start" x="220.85" y="-19.5" font-family="Helvetica,sans-Serif" font-size="10.00">&lt; lola::vx::v2::SynapseCorrelation</text>
<text text-anchor="middle" x="295.45" y="-7.5" font-family="Helvetica,sans-Serif" font-size="10.00">CalibMatrix &gt;</text>
</a>
</g>
</g>
<!-- Node3 -->
<g id="node2" class="node">
<title>Node3</title>
<g id="a_node2"><a xlink:title=" ">
<polygon fill="white" stroke="#bfbfbf" points="0,-0.5 0,-56.5 176.85,-56.5 176.85,-0.5 0,-0.5"/>
<text text-anchor="start" x="8" y="-43.5" font-family="Helvetica,sans-Serif" font-size="10.00">BackendContainerBase</text>
<text text-anchor="start" x="8" y="-31.5" font-family="Helvetica,sans-Serif" font-size="10.00">&lt; lola::vx::v2::SynapseCorrelation</text>
<text text-anchor="start" x="8" y="-19.5" font-family="Helvetica,sans-Serif" font-size="10.00">CalibMatrix, fisch::vx::Omnibus,</text>
<text text-anchor="middle" x="88.43" y="-7.5" font-family="Helvetica,sans-Serif" font-size="10.00"> fisch::vx::OmnibusChipOverJTAG &gt;</text>
</a>
</g>
</g>
<!-- Node3&#45;&gt;Node2 -->
<g id="edge1" class="edge">
<title>Node3&#45;&gt;Node2</title>
<path fill="none" stroke="midnightblue" d="M187.03,-28.5C195.63,-28.5 204.28,-28.5 212.73,-28.5"/>
<polygon fill="midnightblue" stroke="midnightblue" points="186.97,-25 176.97,-28.5 186.97,-32 186.97,-25"/>
</g>
</g>
</svg>
