<?xml version="1.0" encoding="UTF-8" standalone="no"?>
<!DOCTYPE svg PUBLIC "-//W3C//DTD SVG 1.1//EN"
 "http://www.w3.org/Graphics/SVG/1.1/DTD/svg11.dtd">
<!-- Generated by graphviz version 2.43.0 (0)
 -->
<!-- Title: haldls::vx::detail::BackendContainerTrait&lt; lola::vx::v2::CADCSamples &gt; Pages: 1 -->
<svg width="161pt" height="134pt"
 viewBox="0.00 0.00 161.24 134.00" xmlns="http://www.w3.org/2000/svg" xmlns:xlink="http://www.w3.org/1999/xlink">
<g id="graph0" class="graph" transform="scale(1 1) rotate(0) translate(4 130)">
<title>haldls::vx::detail::BackendContainerTrait&lt; lola::vx::v2::CADCSamples &gt;</title>
<polygon fill="white" stroke="transparent" points="-4,4 -4,-130 157.24,-130 157.24,4 -4,4"/>
<!-- Node0 -->
<g id="node1" class="node">
<title>Node0</title>
<g id="a_node1"><a xlink:title=" ">
<polygon fill="#bfbfbf" stroke="black" points="0,-0.5 0,-44.5 153.24,-44.5 153.24,-0.5 0,-0.5"/>
<text text-anchor="start" x="8" y="-31.5" font-family="Helvetica,sans-Serif" font-size="10.00">haldls::vx::detail</text>
<text text-anchor="start" x="8" y="-19.5" font-family="Helvetica,sans-Serif" font-size="10.00">::BackendContainerTrait</text>
<text text-anchor="middle" x="76.62" y="-7.5" font-family="Helvetica,sans-Serif" font-size="10.00">&lt; lola::vx::v2::CADCSamples &gt;</text>
</a>
</g>
</g>
<!-- Node1 -->
<g id="node2" class="node">
<title>Node1</title>
<g id="a_node2"><a xlink:title=" ">
<polygon fill="white" stroke="#bfbfbf" points="2.92,-81.5 2.92,-125.5 150.33,-125.5 150.33,-81.5 2.92,-81.5"/>
<text text-anchor="start" x="10.92" y="-112.5" font-family="Helvetica,sans-Serif" font-size="10.00">BackendContainerBase</text>
<text text-anchor="start" x="10.92" y="-100.5" font-family="Helvetica,sans-Serif" font-size="10.00">&lt; lola::vx::v2::CADCSamples,</text>
<text text-anchor="middle" x="76.62" y="-88.5" font-family="Helvetica,sans-Serif" font-size="10.00"> fisch::vx::Omnibus &gt;</text>
</a>
</g>
</g>
<!-- Node1&#45;&gt;Node0 -->
<g id="edge1" class="edge">
<title>Node1&#45;&gt;Node0</title>
<path fill="none" stroke="midnightblue" d="M76.62,-71.27C76.62,-62.37 76.62,-52.88 76.62,-44.73"/>
<polygon fill="midnightblue" stroke="midnightblue" points="73.12,-71.33 76.62,-81.33 80.12,-71.33 73.12,-71.33"/>
</g>
</g>
</svg>
