<?xml version="1.0" encoding="UTF-8" standalone="no"?>
<!DOCTYPE svg PUBLIC "-//W3C//DTD SVG 1.1//EN"
 "http://www.w3.org/Graphics/SVG/1.1/DTD/svg11.dtd">
<!-- Generated by graphviz version 2.43.0 (0)
 -->
<!-- Title: haldls::vx::detail::BackendContainerTrait&lt; lola::vx::CADCSamples &gt; Pages: 1 -->
<svg width="145pt" height="134pt"
 viewBox="0.00 0.00 145.13 134.00" xmlns="http://www.w3.org/2000/svg" xmlns:xlink="http://www.w3.org/1999/xlink">
<g id="graph0" class="graph" transform="scale(1 1) rotate(0) translate(4 130)">
<title>haldls::vx::detail::BackendContainerTrait&lt; lola::vx::CADCSamples &gt;</title>
<polygon fill="white" stroke="transparent" points="-4,4 -4,-130 141.13,-130 141.13,4 -4,4"/>
<!-- Node2 -->
<g id="node1" class="node">
<title>Node2</title>
<g id="a_node1"><a xlink:title=" ">
<polygon fill="#bfbfbf" stroke="black" points="0,-0.5 0,-44.5 137.13,-44.5 137.13,-0.5 0,-0.5"/>
<text text-anchor="start" x="8" y="-31.5" font-family="Helvetica,sans-Serif" font-size="10.00">haldls::vx::detail</text>
<text text-anchor="start" x="8" y="-19.5" font-family="Helvetica,sans-Serif" font-size="10.00">::BackendContainerTrait</text>
<text text-anchor="middle" x="68.56" y="-7.5" font-family="Helvetica,sans-Serif" font-size="10.00">&lt; lola::vx::CADCSamples &gt;</text>
</a>
</g>
</g>
<!-- Node3 -->
<g id="node2" class="node">
<title>Node3</title>
<g id="a_node2"><a xlink:title=" ">
<polygon fill="white" stroke="#bfbfbf" points="2.92,-81.5 2.92,-125.5 134.21,-125.5 134.21,-81.5 2.92,-81.5"/>
<text text-anchor="start" x="10.92" y="-112.5" font-family="Helvetica,sans-Serif" font-size="10.00">BackendContainerBase</text>
<text text-anchor="start" x="10.92" y="-100.5" font-family="Helvetica,sans-Serif" font-size="10.00">&lt; lola::vx::CADCSamples,</text>
<text text-anchor="middle" x="68.56" y="-88.5" font-family="Helvetica,sans-Serif" font-size="10.00"> fisch::vx::OmnibusChip &gt;</text>
</a>
</g>
</g>
<!-- Node3&#45;&gt;Node2 -->
<g id="edge1" class="edge">
<title>Node3&#45;&gt;Node2</title>
<path fill="none" stroke="midnightblue" d="M68.56,-71.27C68.56,-62.37 68.56,-52.88 68.56,-44.73"/>
<polygon fill="midnightblue" stroke="midnightblue" points="65.06,-71.33 68.56,-81.33 72.06,-71.33 65.06,-71.33"/>
</g>
</g>
</svg>
