<?xml version="1.0" encoding="UTF-8" standalone="no"?>
<!DOCTYPE svg PUBLIC "-//W3C//DTD SVG 1.1//EN"
 "http://www.w3.org/Graphics/SVG/1.1/DTD/svg11.dtd">
<!-- Generated by graphviz version 2.43.0 (0)
 -->
<!-- Title: /jenkins/jenlib_workspaces_f9/bld_nightly&#45;haldls.YmxkX25pZ2h0bHktaGFsZGxzIzU5Nw.x/haldls/include/lola/vx/synapse.h Pages: 1 -->
<svg width="1117pt" height="134pt"
 viewBox="0.00 0.00 1117.21 134.00" xmlns="http://www.w3.org/2000/svg" xmlns:xlink="http://www.w3.org/1999/xlink">
<g id="graph0" class="graph" transform="scale(1 1) rotate(0) translate(4 130)">
<title>/jenkins/jenlib_workspaces_f9/bld_nightly&#45;haldls.YmxkX25pZ2h0bHktaGFsZGxzIzU5Nw.x/haldls/include/lola/vx/synapse.h</title>
<polygon fill="white" stroke="transparent" points="-4,4 -4,-130 1113.21,-130 1113.21,4 -4,4"/>
<!-- Node0 -->
<g id="node1" class="node">
<title>Node0</title>
<g id="a_node1"><a xlink:title=" ">
<polygon fill="#bfbfbf" stroke="black" points="510.69,-69.5 510.69,-125.5 690.04,-125.5 690.04,-69.5 510.69,-69.5"/>
<text text-anchor="start" x="518.69" y="-112.5" font-family="Helvetica,sans-Serif" font-size="10.00">/jenkins/jenlib_workspaces</text>
<text text-anchor="start" x="518.69" y="-100.5" font-family="Helvetica,sans-Serif" font-size="10.00">_f9/bld_nightly&#45;haldls.YmxkX25p</text>
<text text-anchor="start" x="518.69" y="-88.5" font-family="Helvetica,sans-Serif" font-size="10.00">Z2h0bHktaGFsZGxzIzU5Nw.x/haldls</text>
<text text-anchor="middle" x="600.36" y="-76.5" font-family="Helvetica,sans-Serif" font-size="10.00">/include/lola/vx/synapse.h</text>
</a>
</g>
</g>
<!-- Node1 -->
<g id="node2" class="node">
<title>Node1</title>
<g id="a_node2"><a xlink:title=" ">
<polygon fill="white" stroke="#bfbfbf" points="0,-6.5 0,-26.5 142.73,-26.5 142.73,-6.5 0,-6.5"/>
<text text-anchor="middle" x="71.36" y="-13.5" font-family="Helvetica,sans-Serif" font-size="10.00">boost/hana/adapt_struct.hpp</text>
</a>
</g>
</g>
<!-- Node0&#45;&gt;Node1 -->
<g id="edge1" class="edge">
<title>Node0&#45;&gt;Node1</title>
<path fill="none" stroke="midnightblue" d="M510.28,-85.13C419.48,-73.35 275.4,-53.77 151.36,-33 143.04,-31.61 134.25,-30.02 125.67,-28.41"/>
<polygon fill="midnightblue" stroke="midnightblue" points="126.2,-24.95 115.72,-26.51 124.89,-31.82 126.2,-24.95"/>
</g>
<!-- Node2 -->
<g id="node3" class="node">
<title>Node2</title>
<g id="a_node3"><a xlink:title=" ">
<polygon fill="white" stroke="#bfbfbf" points="160.58,-6.5 160.58,-26.5 282.15,-26.5 282.15,-6.5 160.58,-6.5"/>
<text text-anchor="middle" x="221.36" y="-13.5" font-family="Helvetica,sans-Serif" font-size="10.00">halco/common/iter_all.h</text>
</a>
</g>
</g>
<!-- Node0&#45;&gt;Node2 -->
<g id="edge2" class="edge">
<title>Node0&#45;&gt;Node2</title>
<path fill="none" stroke="midnightblue" d="M510.37,-78.38C448.68,-65.87 365.01,-48.72 291.36,-33 285.05,-31.65 278.43,-30.22 271.87,-28.78"/>
<polygon fill="midnightblue" stroke="midnightblue" points="272.21,-25.27 261.69,-26.54 270.7,-32.11 272.21,-25.27"/>
</g>
<!-- Node3 -->
<g id="node4" class="node">
<title>Node3</title>
<g id="a_node4"><a xlink:title=" ">
<polygon fill="white" stroke="#bfbfbf" points="300.24,-0.5 300.24,-32.5 408.49,-32.5 408.49,-0.5 300.24,-0.5"/>
<text text-anchor="start" x="308.24" y="-19.5" font-family="Helvetica,sans-Serif" font-size="10.00">halco/common/typed</text>
<text text-anchor="middle" x="354.36" y="-7.5" font-family="Helvetica,sans-Serif" font-size="10.00">_heap_array.h</text>
</a>
</g>
</g>
<!-- Node0&#45;&gt;Node3 -->
<g id="edge3" class="edge">
<title>Node0&#45;&gt;Node3</title>
<path fill="none" stroke="midnightblue" d="M516.05,-69.42C481.41,-58.3 442.21,-45.71 411.09,-35.72"/>
<polygon fill="midnightblue" stroke="midnightblue" points="411.87,-32.29 401.28,-32.57 409.73,-38.96 411.87,-32.29"/>
</g>
<!-- Node4 -->
<g id="node5" class="node">
<title>Node4</title>
<g id="a_node5"><a xlink:title=" ">
<polygon fill="white" stroke="#bfbfbf" points="426.19,-6.5 426.19,-26.5 530.54,-26.5 530.54,-6.5 426.19,-6.5"/>
<text text-anchor="middle" x="478.36" y="-13.5" font-family="Helvetica,sans-Serif" font-size="10.00">haldls/vx/common.h</text>
</a>
</g>
</g>
<!-- Node0&#45;&gt;Node4 -->
<g id="edge4" class="edge">
<title>Node0&#45;&gt;Node4</title>
<path fill="none" stroke="midnightblue" d="M558.38,-69.31C539.13,-56.85 517.08,-42.57 501.01,-32.17"/>
<polygon fill="midnightblue" stroke="midnightblue" points="502.6,-29.02 492.3,-26.53 498.8,-34.9 502.6,-29.02"/>
</g>
<!-- Node5 -->
<g id="node6" class="node">
<title>Node5</title>
<g id="a_node6"><a xlink:title=" ">
<polygon fill="white" stroke="#bfbfbf" points="548.74,-6.5 548.74,-26.5 651.99,-26.5 651.99,-6.5 548.74,-6.5"/>
<text text-anchor="middle" x="600.36" y="-13.5" font-family="Helvetica,sans-Serif" font-size="10.00">haldls/vx/synapse.h</text>
</a>
</g>
</g>
<!-- Node0&#45;&gt;Node5 -->
<g id="edge5" class="edge">
<title>Node0&#45;&gt;Node5</title>
<path fill="none" stroke="midnightblue" d="M600.36,-69.31C600.36,-58.66 600.36,-46.68 600.36,-36.93"/>
<polygon fill="midnightblue" stroke="midnightblue" points="603.86,-36.71 600.36,-26.71 596.86,-36.71 603.86,-36.71"/>
</g>
<!-- Node6 -->
<g id="node7" class="node">
<title>Node6</title>
<g id="a_node7"><a xlink:title=" ">
<polygon fill="white" stroke="#bfbfbf" points="669.53,-6.5 669.53,-26.5 757.2,-26.5 757.2,-6.5 669.53,-6.5"/>
<text text-anchor="middle" x="713.36" y="-13.5" font-family="Helvetica,sans-Serif" font-size="10.00">haldls/vx/traits.h</text>
</a>
</g>
</g>
<!-- Node0&#45;&gt;Node6 -->
<g id="edge6" class="edge">
<title>Node0&#45;&gt;Node6</title>
<path fill="none" stroke="midnightblue" d="M639.25,-69.31C656.91,-56.97 677.12,-42.84 691.97,-32.46"/>
<polygon fill="midnightblue" stroke="midnightblue" points="694.26,-35.13 700.45,-26.53 690.25,-29.39 694.26,-35.13"/>
</g>
<!-- Node7 -->
<g id="node8" class="node">
<title>Node7</title>
<g id="a_node8"><a xlink:title=" ">
<polygon fill="white" stroke="#bfbfbf" points="774.86,-6.5 774.86,-26.5 855.87,-26.5 855.87,-6.5 774.86,-6.5"/>
<text text-anchor="middle" x="815.36" y="-13.5" font-family="Helvetica,sans-Serif" font-size="10.00">hate/visibility.h</text>
</a>
</g>
</g>
<!-- Node0&#45;&gt;Node7 -->
<g id="edge7" class="edge">
<title>Node0&#45;&gt;Node7</title>
<path fill="none" stroke="midnightblue" d="M674.05,-69.42C710.37,-56.08 752.42,-40.63 781.15,-30.07"/>
<polygon fill="midnightblue" stroke="midnightblue" points="782.54,-33.29 790.72,-26.55 780.13,-26.72 782.54,-33.29"/>
</g>
<!-- Node8 -->
<g id="node9" class="node">
<title>Node8</title>
<g id="a_node9"><a xlink:href="genpybind_8h.html" target="_top" xlink:title=" ">
<polygon fill="white" stroke="black" points="873.57,-6.5 873.57,-26.5 975.16,-26.5 975.16,-6.5 873.57,-6.5"/>
<text text-anchor="middle" x="924.36" y="-13.5" font-family="Helvetica,sans-Serif" font-size="10.00">lola/vx/genpybind.h</text>
</a>
</g>
</g>
<!-- Node0&#45;&gt;Node8 -->
<g id="edge8" class="edge">
<title>Node0&#45;&gt;Node8</title>
<path fill="none" stroke="midnightblue" d="M690.33,-75.45C741.67,-63.31 807.2,-47.61 865.36,-33 870.31,-31.76 875.48,-30.44 880.62,-29.11"/>
<polygon fill="midnightblue" stroke="midnightblue" points="881.59,-32.47 890.39,-26.56 879.83,-25.69 881.59,-32.47"/>
</g>
<!-- Node9 -->
<g id="node10" class="node">
<title>Node9</title>
<g id="a_node10"><a xlink:title=" ">
<polygon fill="white" stroke="#bfbfbf" points="1011.52,-6.5 1011.52,-26.5 1109.21,-26.5 1109.21,-6.5 1011.52,-6.5"/>
<text text-anchor="middle" x="1060.36" y="-13.5" font-family="Helvetica,sans-Serif" font-size="10.00">pybind11/numpy.h</text>
</a>
</g>
</g>
<!-- Node0&#45;&gt;Node9 -->
<g id="edge10" class="edge">
<title>Node0&#45;&gt;Node9</title>
<path fill="none" stroke="midnightblue" d="M690.27,-85.04C772.06,-73.96 895.92,-55.57 1002.36,-33 1007.78,-31.85 1013.45,-30.51 1019.03,-29.11"/>
<polygon fill="midnightblue" stroke="midnightblue" points="1020.1,-32.45 1028.9,-26.55 1018.34,-25.67 1020.1,-32.45"/>
</g>
<!-- Node8&#45;&gt;Node8 -->
<g id="edge9" class="edge">
<title>Node8&#45;&gt;Node8</title>
<path fill="none" stroke="midnightblue" d="M941.64,-26.62C964.88,-35.58 993.16,-32.2 993.16,-16.5 993.16,-2.94 972.09,1.42 951.37,-3.4"/>
<polygon fill="midnightblue" stroke="midnightblue" points="950.17,-0.1 941.64,-6.38 952.22,-6.8 950.17,-0.1"/>
</g>
</g>
</svg>
