<?xml version="1.0" encoding="UTF-8" standalone="no"?>
<!DOCTYPE svg PUBLIC "-//W3C//DTD SVG 1.1//EN"
 "http://www.w3.org/Graphics/SVG/1.1/DTD/svg11.dtd">
<!-- Generated by graphviz version 2.43.0 (0)
 -->
<!-- Title: /jenkins/jenlib_workspaces_f9/bld_nightly&#45;haldls.YmxkX25pZ2h0bHktaGFsZGxzIzcxMQ.x/haldls/include/lola/vx/v1/synapse.h Pages: 1 -->
<svg width="1515pt" height="191pt"
 viewBox="0.00 0.00 1514.63 191.00" xmlns="http://www.w3.org/2000/svg" xmlns:xlink="http://www.w3.org/1999/xlink">
<g id="graph0" class="graph" transform="scale(1 1) rotate(0) translate(4 187)">
<title>/jenkins/jenlib_workspaces_f9/bld_nightly&#45;haldls.YmxkX25pZ2h0bHktaGFsZGxzIzcxMQ.x/haldls/include/lola/vx/v1/synapse.h</title>
<polygon fill="white" stroke="transparent" points="-4,4 -4,-187 1510.63,-187 1510.63,4 -4,4"/>
<!-- Node0 -->
<g id="node1" class="node">
<title>Node0</title>
<g id="a_node1"><a xlink:title=" ">
<polygon fill="#bfbfbf" stroke="black" points="656.67,-126.5 656.67,-182.5 834.9,-182.5 834.9,-126.5 656.67,-126.5"/>
<text text-anchor="start" x="664.67" y="-169.5" font-family="Helvetica,sans-Serif" font-size="10.00">/jenkins/jenlib_workspaces</text>
<text text-anchor="start" x="664.67" y="-157.5" font-family="Helvetica,sans-Serif" font-size="10.00">_f9/bld_nightly&#45;haldls.YmxkX25p</text>
<text text-anchor="start" x="664.67" y="-145.5" font-family="Helvetica,sans-Serif" font-size="10.00">Z2h0bHktaGFsZGxzIzcxMQ.x/haldls</text>
<text text-anchor="middle" x="745.78" y="-133.5" font-family="Helvetica,sans-Serif" font-size="10.00">/include/lola/vx/v1/synapse.h</text>
</a>
</g>
</g>
<!-- Node1 -->
<g id="node2" class="node">
<title>Node1</title>
<g id="a_node2"><a xlink:title=" ">
<polygon fill="white" stroke="#bfbfbf" points="0,-63.5 0,-83.5 121.57,-83.5 121.57,-63.5 0,-63.5"/>
<text text-anchor="middle" x="60.78" y="-70.5" font-family="Helvetica,sans-Serif" font-size="10.00">halco/common/iter_all.h</text>
</a>
</g>
</g>
<!-- Node0&#45;&gt;Node1 -->
<g id="edge1" class="edge">
<title>Node0&#45;&gt;Node1</title>
<path fill="none" stroke="midnightblue" d="M656.5,-147.52C536.46,-138.74 316.61,-120.07 130.78,-90 123.27,-88.78 115.34,-87.26 107.64,-85.65"/>
<polygon fill="midnightblue" stroke="midnightblue" points="108.2,-82.19 97.69,-83.5 106.72,-89.04 108.2,-82.19"/>
</g>
<!-- Node2 -->
<g id="node3" class="node">
<title>Node2</title>
<g id="a_node3"><a xlink:title=" ">
<polygon fill="white" stroke="#bfbfbf" points="139.66,-57.5 139.66,-89.5 247.91,-89.5 247.91,-57.5 139.66,-57.5"/>
<text text-anchor="start" x="147.66" y="-76.5" font-family="Helvetica,sans-Serif" font-size="10.00">halco/common/typed</text>
<text text-anchor="middle" x="193.78" y="-64.5" font-family="Helvetica,sans-Serif" font-size="10.00">_array.h</text>
</a>
</g>
</g>
<!-- Node0&#45;&gt;Node2 -->
<g id="edge2" class="edge">
<title>Node0&#45;&gt;Node2</title>
<path fill="none" stroke="midnightblue" d="M656.53,-144.95C560.35,-135.04 402.69,-116.81 257.95,-90.1"/>
<polygon fill="midnightblue" stroke="midnightblue" points="258.47,-86.64 248,-88.25 257.19,-93.52 258.47,-86.64"/>
</g>
<!-- Node3 -->
<g id="node4" class="node">
<title>Node3</title>
<g id="a_node4"><a xlink:title=" ">
<polygon fill="white" stroke="#bfbfbf" points="265.66,-57.5 265.66,-89.5 373.91,-89.5 373.91,-57.5 265.66,-57.5"/>
<text text-anchor="start" x="273.66" y="-76.5" font-family="Helvetica,sans-Serif" font-size="10.00">halco/common/typed</text>
<text text-anchor="middle" x="319.78" y="-64.5" font-family="Helvetica,sans-Serif" font-size="10.00">_heap_array.h</text>
</a>
</g>
</g>
<!-- Node0&#45;&gt;Node3 -->
<g id="edge3" class="edge">
<title>Node0&#45;&gt;Node3</title>
<path fill="none" stroke="midnightblue" d="M656.33,-139.59C585.03,-128.1 482.47,-110.68 383.86,-90.15"/>
<polygon fill="midnightblue" stroke="midnightblue" points="384.53,-86.72 374.03,-88.09 383.1,-93.57 384.53,-86.72"/>
</g>
<!-- Node4 -->
<g id="node5" class="node">
<title>Node4</title>
<g id="a_node5"><a xlink:title=" ">
<polygon fill="white" stroke="#bfbfbf" points="392.11,-63.5 392.11,-83.5 501.46,-83.5 501.46,-63.5 392.11,-63.5"/>
<text text-anchor="middle" x="446.78" y="-70.5" font-family="Helvetica,sans-Serif" font-size="10.00">haldls/cerealization.h</text>
</a>
</g>
</g>
<!-- Node0&#45;&gt;Node4 -->
<g id="edge4" class="edge">
<title>Node0&#45;&gt;Node4</title>
<path fill="none" stroke="midnightblue" d="M656.48,-129.9C601.72,-115.44 534.03,-97.55 490.63,-86.08"/>
<polygon fill="midnightblue" stroke="midnightblue" points="491.51,-82.7 480.95,-83.53 489.72,-89.47 491.51,-82.7"/>
</g>
<!-- Node5 -->
<g id="node6" class="node">
<title>Node5</title>
<g id="a_node6"><a xlink:title=" ">
<polygon fill="white" stroke="#bfbfbf" points="519.61,-63.5 519.61,-83.5 623.96,-83.5 623.96,-63.5 519.61,-63.5"/>
<text text-anchor="middle" x="571.78" y="-70.5" font-family="Helvetica,sans-Serif" font-size="10.00">haldls/vx/common.h</text>
</a>
</g>
</g>
<!-- Node0&#45;&gt;Node5 -->
<g id="edge5" class="edge">
<title>Node0&#45;&gt;Node5</title>
<path fill="none" stroke="midnightblue" d="M685.9,-126.31C657.17,-113.27 624.06,-98.23 600.93,-87.73"/>
<polygon fill="midnightblue" stroke="midnightblue" points="602.22,-84.47 591.67,-83.53 599.33,-90.85 602.22,-84.47"/>
</g>
<!-- Node6 -->
<g id="node7" class="node">
<title>Node6</title>
<g id="a_node7"><a xlink:title=" ">
<polygon fill="white" stroke="#bfbfbf" points="641.95,-63.5 641.95,-83.5 729.62,-83.5 729.62,-63.5 641.95,-63.5"/>
<text text-anchor="middle" x="685.78" y="-70.5" font-family="Helvetica,sans-Serif" font-size="10.00">haldls/vx/traits.h</text>
</a>
</g>
</g>
<!-- Node0&#45;&gt;Node6 -->
<g id="edge6" class="edge">
<title>Node0&#45;&gt;Node6</title>
<path fill="none" stroke="midnightblue" d="M725.14,-126.31C716.43,-114.85 706.56,-101.85 698.88,-91.74"/>
<polygon fill="midnightblue" stroke="midnightblue" points="701.62,-89.56 692.78,-83.71 696.04,-93.79 701.62,-89.56"/>
</g>
<!-- Node7 -->
<g id="node8" class="node">
<title>Node7</title>
<g id="a_node8"><a xlink:title=" ">
<polygon fill="white" stroke="#bfbfbf" points="747.49,-63.5 747.49,-83.5 864.08,-83.5 864.08,-63.5 747.49,-63.5"/>
<text text-anchor="middle" x="805.78" y="-70.5" font-family="Helvetica,sans-Serif" font-size="10.00">haldls/vx/v1/synapse.h</text>
</a>
</g>
</g>
<!-- Node0&#45;&gt;Node7 -->
<g id="edge7" class="edge">
<title>Node0&#45;&gt;Node7</title>
<path fill="none" stroke="midnightblue" d="M766.43,-126.31C775.14,-114.85 785.01,-101.85 792.69,-91.74"/>
<polygon fill="midnightblue" stroke="midnightblue" points="795.53,-93.79 798.79,-83.71 789.95,-89.56 795.53,-93.79"/>
</g>
<!-- Node8 -->
<g id="node9" class="node">
<title>Node8</title>
<g id="a_node9"><a xlink:title=" ">
<polygon fill="white" stroke="#bfbfbf" points="882.28,-63.5 882.28,-83.5 963.29,-83.5 963.29,-63.5 882.28,-63.5"/>
<text text-anchor="middle" x="922.78" y="-70.5" font-family="Helvetica,sans-Serif" font-size="10.00">hate/visibility.h</text>
</a>
</g>
</g>
<!-- Node0&#45;&gt;Node8 -->
<g id="edge8" class="edge">
<title>Node0&#45;&gt;Node8</title>
<path fill="none" stroke="midnightblue" d="M806.7,-126.31C835.92,-113.27 869.61,-98.23 893.14,-87.73"/>
<polygon fill="midnightblue" stroke="midnightblue" points="894.85,-90.8 902.56,-83.53 892,-84.41 894.85,-90.8"/>
</g>
<!-- Node9 -->
<g id="node10" class="node">
<title>Node9</title>
<g id="a_node10"><a xlink:href="cerealization_8h.html" target="_top" xlink:title=" ">
<polygon fill="white" stroke="black" points="981,-63.5 981,-83.5 1092.57,-83.5 1092.57,-63.5 981,-63.5"/>
<text text-anchor="middle" x="1036.78" y="-70.5" font-family="Helvetica,sans-Serif" font-size="10.00">lola/vx/cerealization.h</text>
</a>
</g>
</g>
<!-- Node0&#45;&gt;Node9 -->
<g id="edge9" class="edge">
<title>Node0&#45;&gt;Node9</title>
<path fill="none" stroke="midnightblue" d="M835.07,-129.26C887.7,-114.97 951.93,-97.54 993.56,-86.23"/>
<polygon fill="midnightblue" stroke="midnightblue" points="994.64,-89.57 1003.38,-83.57 992.81,-82.81 994.64,-89.57"/>
</g>
<!-- Node13 -->
<g id="node14" class="node">
<title>Node13</title>
<g id="a_node14"><a xlink:href="genpybind_8h.html" target="_top" xlink:title=" ">
<polygon fill="white" stroke="black" points="1110.99,-63.5 1110.99,-83.5 1212.58,-83.5 1212.58,-63.5 1110.99,-63.5"/>
<text text-anchor="middle" x="1161.78" y="-70.5" font-family="Helvetica,sans-Serif" font-size="10.00">lola/vx/genpybind.h</text>
</a>
</g>
</g>
<!-- Node0&#45;&gt;Node13 -->
<g id="edge13" class="edge">
<title>Node0&#45;&gt;Node13</title>
<path fill="none" stroke="midnightblue" d="M835.03,-139.52C907.26,-127.74 1011.46,-109.69 1101.78,-90 1107.24,-88.81 1112.94,-87.47 1118.58,-86.08"/>
<polygon fill="midnightblue" stroke="midnightblue" points="1119.73,-89.4 1128.57,-83.56 1118.02,-82.61 1119.73,-89.4"/>
</g>
<!-- Node14 -->
<g id="node15" class="node">
<title>Node14</title>
<g id="a_node15"><a xlink:title=" ">
<polygon fill="white" stroke="#bfbfbf" points="1248.42,-63.5 1248.42,-83.5 1391.15,-83.5 1391.15,-63.5 1248.42,-63.5"/>
<text text-anchor="middle" x="1319.78" y="-70.5" font-family="Helvetica,sans-Serif" font-size="10.00">boost/hana/adapt_struct.hpp</text>
</a>
</g>
</g>
<!-- Node0&#45;&gt;Node14 -->
<g id="edge15" class="edge">
<title>Node0&#45;&gt;Node14</title>
<path fill="none" stroke="midnightblue" d="M835.27,-143.73C934.42,-132.5 1098.92,-112.68 1239.78,-90 1248.22,-88.64 1257.12,-87.06 1265.81,-85.44"/>
<polygon fill="midnightblue" stroke="midnightblue" points="1266.69,-88.84 1275.86,-83.53 1265.38,-81.96 1266.69,-88.84"/>
</g>
<!-- Node15 -->
<g id="node16" class="node">
<title>Node15</title>
<g id="a_node16"><a xlink:title=" ">
<polygon fill="white" stroke="#bfbfbf" points="1408.94,-63.5 1408.94,-83.5 1506.63,-83.5 1506.63,-63.5 1408.94,-63.5"/>
<text text-anchor="middle" x="1457.78" y="-70.5" font-family="Helvetica,sans-Serif" font-size="10.00">pybind11/numpy.h</text>
</a>
</g>
</g>
<!-- Node0&#45;&gt;Node15 -->
<g id="edge16" class="edge">
<title>Node0&#45;&gt;Node15</title>
<path fill="none" stroke="midnightblue" d="M835.01,-149.49C961.51,-142.75 1199.83,-126.17 1399.78,-90 1405.63,-88.94 1411.75,-87.59 1417.73,-86.12"/>
<polygon fill="midnightblue" stroke="midnightblue" points="1418.79,-89.46 1427.59,-83.57 1417.04,-82.68 1418.79,-89.46"/>
</g>
<!-- Node10 -->
<g id="node11" class="node">
<title>Node10</title>
<g id="a_node11"><a xlink:title=" ">
<polygon fill="white" stroke="#bfbfbf" points="913.72,-0.5 913.72,-20.5 975.85,-20.5 975.85,-0.5 913.72,-0.5"/>
<text text-anchor="middle" x="944.78" y="-7.5" font-family="Helvetica,sans-Serif" font-size="10.00">type_traits</text>
</a>
</g>
</g>
<!-- Node9&#45;&gt;Node10 -->
<g id="edge10" class="edge">
<title>Node9&#45;&gt;Node10</title>
<path fill="none" stroke="midnightblue" d="M1023.21,-63.5C1008.4,-53.68 984.46,-37.81 966.92,-26.18"/>
<polygon fill="midnightblue" stroke="midnightblue" points="968.68,-23.15 958.42,-20.54 964.82,-28.98 968.68,-23.15"/>
</g>
<!-- Node11 -->
<g id="node12" class="node">
<title>Node11</title>
<g id="a_node12"><a xlink:title=" ">
<polygon fill="white" stroke="#bfbfbf" points="994.32,-0.5 994.32,-20.5 1079.25,-20.5 1079.25,-0.5 994.32,-0.5"/>
<text text-anchor="middle" x="1036.78" y="-7.5" font-family="Helvetica,sans-Serif" font-size="10.00">boost/hana.hpp</text>
</a>
</g>
</g>
<!-- Node9&#45;&gt;Node11 -->
<g id="edge11" class="edge">
<title>Node9&#45;&gt;Node11</title>
<path fill="none" stroke="midnightblue" d="M1036.78,-63.5C1036.78,-54.94 1036.78,-41.78 1036.78,-30.85"/>
<polygon fill="midnightblue" stroke="midnightblue" points="1040.28,-30.54 1036.78,-20.54 1033.28,-30.54 1040.28,-30.54"/>
</g>
<!-- Node12 -->
<g id="node13" class="node">
<title>Node12</title>
<g id="a_node13"><a xlink:title=" ">
<polygon fill="white" stroke="#bfbfbf" points="1097.67,-0.5 1097.67,-20.5 1195.9,-20.5 1195.9,-0.5 1097.67,-0.5"/>
<text text-anchor="middle" x="1146.78" y="-7.5" font-family="Helvetica,sans-Serif" font-size="10.00">cereal/macros.hpp</text>
</a>
</g>
</g>
<!-- Node9&#45;&gt;Node12 -->
<g id="edge12" class="edge">
<title>Node9&#45;&gt;Node12</title>
<path fill="none" stroke="midnightblue" d="M1053.02,-63.5C1071.05,-53.5 1100.4,-37.22 1121.46,-25.54"/>
<polygon fill="midnightblue" stroke="midnightblue" points="1123.44,-28.45 1130.49,-20.54 1120.04,-22.33 1123.44,-28.45"/>
</g>
<!-- Node13&#45;&gt;Node13 -->
<g id="edge14" class="edge">
<title>Node13&#45;&gt;Node13</title>
<path fill="none" stroke="midnightblue" d="M1188.26,-83.56C1209.15,-87.45 1230.58,-84.1 1230.58,-73.5 1230.58,-64.64 1215.6,-60.85 1198.49,-62.11"/>
<polygon fill="midnightblue" stroke="midnightblue" points="1197.72,-58.68 1188.26,-63.44 1198.63,-65.62 1197.72,-58.68"/>
</g>
</g>
</svg>
