<?xml version="1.0" encoding="UTF-8" standalone="no"?>
<!DOCTYPE svg PUBLIC "-//W3C//DTD SVG 1.1//EN"
 "http://www.w3.org/Graphics/SVG/1.1/DTD/svg11.dtd">
<!-- Generated by graphviz version 2.43.0 (0)
 -->
<!-- Title: /jenkins/jenlib_workspaces_f9/bld_nightly&#45;haldls.YmxkX25pZ2h0bHktaGFsZGxzIzcxMQ.x/haldls/include/lola/vx/v1/lola.h Pages: 1 -->
<!--zoomable 398 -->
<svg id="main" version="1.1" xmlns="http://www.w3.org/2000/svg" xmlns:xlink="http://www.w3.org/1999/xlink" xml:space="preserve" onload="init(evt)">
<style type="text/css"><![CDATA[
.edge:hover path { stroke: red; }
.edge:hover polygon { stroke: red; fill: red; }
]]></style>
<script type="text/javascript"><![CDATA[
var edges = document.getElementsByTagName('g');
if (edges && edges.length) {
  for (var i=0;i<edges.length;i++) {
    if (edges[i].id.substr(0,4)=='edge') {
      edges[i].setAttribute('class','edge');
    }
  }
}
]]></script>
        <defs>
                <circle id="rim" cx="0" cy="0" r="7"/>
                <circle id="rim2" cx="0" cy="0" r="3.5"/>
                <g id="zoomPlus">
                        <use xlink:href="#rim" fill="#404040">
                                <set attributeName="fill" to="#808080" begin="zoomplus.mouseover" end="zoomplus.mouseout"/>
                        </use>
                        <path d="M-4,0h8M0,-4v8" fill="none" stroke="white" stroke-width="1.5" pointer-events="none"/>
                </g>
                <g id="zoomMin">
                        <use xlink:href="#rim" fill="#404040">
                                <set attributeName="fill" to="#808080" begin="zoomminus.mouseover" end="zoomminus.mouseout"/>
                        </use>
                        <path d="M-4,0h8" fill="none" stroke="white" stroke-width="1.5" pointer-events="none"/>
                </g>
                <g id="dirArrow">
                        <path fill="none" stroke="white" stroke-width="1.5" d="M0,-3.0v7 M-2.5,-0.5L0,-3.0L2.5,-0.5"/>
                </g>
               <g id="resetDef">
                       <use xlink:href="#rim2" fill="#404040">
                               <set attributeName="fill" to="#808080" begin="reset.mouseover" end="reset.mouseout"/>
                       </use>
               </g>
        </defs>

<script type="text/javascript">
var viewWidth = 2656;
var viewHeight = 398;
var sectionId = 'dynsection-0';
</script>
<script xlink:href="svgpan.js"/>
<svg id="graph" class="graph">
<g id="viewport">
<title>/jenkins/jenlib_workspaces_f9/bld_nightly&#45;haldls.YmxkX25pZ2h0bHktaGFsZGxzIzcxMQ.x/haldls/include/lola/vx/v1/lola.h</title>
<polygon fill="white" stroke="transparent" points="-4,4 -4,-394 2652.47,-394 2652.47,4 -4,4"/>
<!-- Node0 -->
<g id="node1" class="node">
<title>Node0</title>
<g id="a_node1"><a xlink:title=" ">
<polygon fill="#bfbfbf" stroke="black" points="1210.11,-333.5 1210.11,-389.5 1388.35,-389.5 1388.35,-333.5 1210.11,-333.5"/>
<text text-anchor="start" x="1218.11" y="-376.5" font-family="Helvetica,sans-Serif" font-size="10.00">/jenkins/jenlib_workspaces</text>
<text text-anchor="start" x="1218.11" y="-364.5" font-family="Helvetica,sans-Serif" font-size="10.00">_f9/bld_nightly&#45;haldls.YmxkX25p</text>
<text text-anchor="start" x="1218.11" y="-352.5" font-family="Helvetica,sans-Serif" font-size="10.00">Z2h0bHktaGFsZGxzIzcxMQ.x/haldls</text>
<text text-anchor="middle" x="1299.23" y="-340.5" font-family="Helvetica,sans-Serif" font-size="10.00">/include/lola/vx/v1/lola.h</text>
</a>
</g>
</g>
<!-- Node1 -->
<g id="node2" class="node">
<title>Node1</title>
<g id="a_node2"><a xlink:href="v1_2container_8h.html" target="_top" xlink:title=" ">
<polygon fill="white" stroke="black" points="1244.28,-276.5 1244.28,-296.5 1354.19,-296.5 1354.19,-276.5 1244.28,-276.5"/>
<text text-anchor="middle" x="1299.23" y="-283.5" font-family="Helvetica,sans-Serif" font-size="10.00">lola/vx/v1/container.h</text>
</a>
</g>
</g>
<!-- Node0&#45;&gt;Node1 -->
<g id="edge1" class="edge">
<title>Node0&#45;&gt;Node1</title>
<path fill="none" stroke="midnightblue" d="M1299.23,-333.32C1299.23,-324.5 1299.23,-314.91 1299.23,-306.79"/>
<polygon fill="midnightblue" stroke="midnightblue" points="1302.73,-306.52 1299.23,-296.52 1295.73,-306.52 1302.73,-306.52"/>
</g>
<!-- Node2 -->
<g id="node3" class="node">
<title>Node2</title>
<g id="a_node3"><a xlink:href="v1_2cadc_8h.html" target="_top" xlink:title=" ">
<polygon fill="white" stroke="black" points="783.28,-126.5 783.28,-146.5 873.19,-146.5 873.19,-126.5 783.28,-126.5"/>
<text text-anchor="middle" x="828.23" y="-133.5" font-family="Helvetica,sans-Serif" font-size="10.00">lola/vx/v1/cadc.h</text>
</a>
</g>
</g>
<!-- Node1&#45;&gt;Node2 -->
<g id="edge2" class="edge">
<title>Node1&#45;&gt;Node2</title>
<path fill="none" stroke="midnightblue" d="M1244.07,-283.85C1181.89,-280.49 1078.59,-270.38 995.23,-240 937.05,-218.79 877.18,-175.92 847.43,-152.92"/>
<polygon fill="midnightblue" stroke="midnightblue" points="849.56,-150.14 839.53,-146.72 845.24,-155.65 849.56,-150.14"/>
</g>
<!-- Node11 -->
<g id="node12" class="node">
<title>Node11</title>
<g id="a_node12"><a xlink:href="cerealization_8h.html" target="_top" xlink:title=" ">
<polygon fill="white" stroke="black" points="1115.45,-63.5 1115.45,-83.5 1227.02,-83.5 1227.02,-63.5 1115.45,-63.5"/>
<text text-anchor="middle" x="1171.23" y="-70.5" font-family="Helvetica,sans-Serif" font-size="10.00">lola/vx/cerealization.h</text>
</a>
</g>
</g>
<!-- Node1&#45;&gt;Node11 -->
<g id="edge43" class="edge">
<title>Node1&#45;&gt;Node11</title>
<path fill="none" stroke="midnightblue" d="M1243.85,-278.87C1197.09,-272 1135.39,-259.49 1120.23,-240 1089.09,-199.95 1105.94,-172.5 1126.23,-126 1132.1,-112.57 1142.77,-100.12 1152.25,-90.82"/>
<polygon fill="midnightblue" stroke="midnightblue" points="1154.85,-93.18 1159.8,-83.8 1150.09,-88.05 1154.85,-93.18"/>
</g>
<!-- Node16 -->
<g id="node17" class="node">
<title>Node16</title>
<g id="a_node17"><a xlink:title=" ">
<polygon fill="white" stroke="#bfbfbf" points="1460.87,-63.5 1460.87,-83.5 1603.6,-83.5 1603.6,-63.5 1460.87,-63.5"/>
<text text-anchor="middle" x="1532.23" y="-70.5" font-family="Helvetica,sans-Serif" font-size="10.00">boost/hana/adapt_struct.hpp</text>
</a>
</g>
</g>
<!-- Node1&#45;&gt;Node16 -->
<g id="edge39" class="edge">
<title>Node1&#45;&gt;Node16</title>
<path fill="none" stroke="midnightblue" d="M1287.87,-276.42C1278.44,-268.09 1265.72,-254.83 1260.23,-240 1251.44,-216.24 1246.02,-203.97 1260.23,-183 1286.5,-144.24 1415.78,-105.09 1486.24,-86.17"/>
<polygon fill="midnightblue" stroke="midnightblue" points="1487.42,-89.48 1496.19,-83.53 1485.62,-82.71 1487.42,-89.48"/>
</g>
<!-- Node18 -->
<g id="node19" class="node">
<title>Node18</title>
<g id="a_node19"><a xlink:href="v1_2dac_8h.html" target="_top" xlink:title=" ">
<polygon fill="white" stroke="black" points="1128.78,-201.5 1128.78,-221.5 1213.69,-221.5 1213.69,-201.5 1128.78,-201.5"/>
<text text-anchor="middle" x="1171.23" y="-208.5" font-family="Helvetica,sans-Serif" font-size="10.00">lola/vx/v1/dac.h</text>
</a>
</g>
</g>
<!-- Node1&#45;&gt;Node18 -->
<g id="edge19" class="edge">
<title>Node1&#45;&gt;Node18</title>
<path fill="none" stroke="midnightblue" d="M1283.28,-276.4C1261.44,-263.94 1221.99,-241.45 1196.21,-226.74"/>
<polygon fill="midnightblue" stroke="midnightblue" points="1197.81,-223.63 1187.39,-221.71 1194.34,-229.71 1197.81,-223.63"/>
</g>
<!-- Node22 -->
<g id="node23" class="node">
<title>Node22</title>
<g id="a_node23"><a xlink:href="v1_2neuron_8h.html" target="_top" xlink:title=" ">
<polygon fill="white" stroke="black" points="1957.28,-126.5 1957.28,-146.5 2057.19,-146.5 2057.19,-126.5 1957.28,-126.5"/>
<text text-anchor="middle" x="2007.23" y="-133.5" font-family="Helvetica,sans-Serif" font-size="10.00">lola/vx/v1/neuron.h</text>
</a>
</g>
</g>
<!-- Node1&#45;&gt;Node22 -->
<g id="edge33" class="edge">
<title>Node1&#45;&gt;Node22</title>
<path fill="none" stroke="midnightblue" d="M1354.26,-284.68C1502.54,-282.07 1902.61,-272.08 1952.23,-240 1981.66,-220.97 1996.46,-180.65 2002.95,-156.64"/>
<polygon fill="midnightblue" stroke="midnightblue" points="2006.43,-157.16 2005.43,-146.61 1999.63,-155.48 2006.43,-157.16"/>
</g>
<!-- Node26 -->
<g id="node27" class="node">
<title>Node26</title>
<g id="a_node27"><a xlink:title=" ">
<polygon fill="white" stroke="#bfbfbf" points="1269.11,-183.5 1269.11,-239.5 1447.35,-239.5 1447.35,-183.5 1269.11,-183.5"/>
<text text-anchor="start" x="1277.11" y="-226.5" font-family="Helvetica,sans-Serif" font-size="10.00">/jenkins/jenlib_workspaces</text>
<text text-anchor="start" x="1277.11" y="-214.5" font-family="Helvetica,sans-Serif" font-size="10.00">_f9/bld_nightly&#45;haldls.YmxkX25p</text>
<text text-anchor="start" x="1277.11" y="-202.5" font-family="Helvetica,sans-Serif" font-size="10.00">Z2h0bHktaGFsZGxzIzcxMQ.x/haldls</text>
<text text-anchor="middle" x="1358.23" y="-190.5" font-family="Helvetica,sans-Serif" font-size="10.00">/include/haldls/cerealization.h</text>
</a>
</g>
</g>
<!-- Node1&#45;&gt;Node26 -->
<g id="edge40" class="edge">
<title>Node1&#45;&gt;Node26</title>
<path fill="none" stroke="midnightblue" d="M1306.71,-276.25C1312.64,-268.92 1321.33,-258.17 1329.89,-247.57"/>
<polygon fill="midnightblue" stroke="midnightblue" points="1332.79,-249.54 1336.36,-239.57 1327.35,-245.14 1332.79,-249.54"/>
</g>
<!-- Node27 -->
<g id="node28" class="node">
<title>Node27</title>
<g id="a_node28"><a xlink:title=" ">
<polygon fill="white" stroke="#bfbfbf" points="1465.11,-183.5 1465.11,-239.5 1643.35,-239.5 1643.35,-183.5 1465.11,-183.5"/>
<text text-anchor="start" x="1473.11" y="-226.5" font-family="Helvetica,sans-Serif" font-size="10.00">/jenkins/jenlib_workspaces</text>
<text text-anchor="start" x="1473.11" y="-214.5" font-family="Helvetica,sans-Serif" font-size="10.00">_f9/bld_nightly&#45;haldls.YmxkX25p</text>
<text text-anchor="start" x="1473.11" y="-202.5" font-family="Helvetica,sans-Serif" font-size="10.00">Z2h0bHktaGFsZGxzIzcxMQ.x/haldls</text>
<text text-anchor="middle" x="1554.23" y="-190.5" font-family="Helvetica,sans-Serif" font-size="10.00">/include/haldls/vx/common.h</text>
</a>
</g>
</g>
<!-- Node1&#45;&gt;Node27 -->
<g id="edge41" class="edge">
<title>Node1&#45;&gt;Node27</title>
<path fill="none" stroke="midnightblue" d="M1330.76,-276.48C1361.86,-267.57 1411.03,-253.49 1455.35,-240.81"/>
<polygon fill="midnightblue" stroke="midnightblue" points="1456.37,-244.16 1465.02,-238.04 1454.44,-237.43 1456.37,-244.16"/>
</g>
<!-- Node28 -->
<g id="node29" class="node">
<title>Node28</title>
<g id="a_node29"><a xlink:title=" ">
<polygon fill="white" stroke="#bfbfbf" points="1661.11,-183.5 1661.11,-239.5 1839.35,-239.5 1839.35,-183.5 1661.11,-183.5"/>
<text text-anchor="start" x="1669.11" y="-226.5" font-family="Helvetica,sans-Serif" font-size="10.00">/jenkins/jenlib_workspaces</text>
<text text-anchor="start" x="1669.11" y="-214.5" font-family="Helvetica,sans-Serif" font-size="10.00">_f9/bld_nightly&#45;haldls.YmxkX25p</text>
<text text-anchor="start" x="1669.11" y="-202.5" font-family="Helvetica,sans-Serif" font-size="10.00">Z2h0bHktaGFsZGxzIzcxMQ.x/haldls</text>
<text text-anchor="middle" x="1750.23" y="-190.5" font-family="Helvetica,sans-Serif" font-size="10.00">/include/haldls/vx/neuron.h</text>
</a>
</g>
</g>
<!-- Node1&#45;&gt;Node28 -->
<g id="edge42" class="edge">
<title>Node1&#45;&gt;Node28</title>
<path fill="none" stroke="midnightblue" d="M1354.37,-280.9C1422.13,-274.68 1540.73,-262.01 1650.95,-240.15"/>
<polygon fill="midnightblue" stroke="midnightblue" points="1651.79,-243.55 1660.9,-238.14 1650.41,-236.69 1651.79,-243.55"/>
</g>
<!-- Node29 -->
<g id="node30" class="node">
<title>Node29</title>
<g id="a_node30"><a xlink:href="v1_2ppu_8h.html" target="_top" xlink:title=" ">
<polygon fill="white" stroke="black" points="1857.5,-201.5 1857.5,-221.5 1942.97,-221.5 1942.97,-201.5 1857.5,-201.5"/>
<text text-anchor="middle" x="1900.23" y="-208.5" font-family="Helvetica,sans-Serif" font-size="10.00">lola/vx/v1/ppu.h</text>
</a>
</g>
</g>
<!-- Node1&#45;&gt;Node29 -->
<g id="edge44" class="edge">
<title>Node1&#45;&gt;Node29</title>
<path fill="none" stroke="midnightblue" d="M1354.27,-283.74C1474.41,-279.45 1756.67,-266.78 1848.23,-240 1858.56,-236.98 1869.2,-231.78 1878.14,-226.72"/>
<polygon fill="midnightblue" stroke="midnightblue" points="1879.96,-229.71 1886.76,-221.58 1876.38,-223.69 1879.96,-229.71"/>
</g>
<!-- Node35 -->
<g id="node36" class="node">
<title>Node35</title>
<g id="a_node36"><a xlink:href="v1_2synapse_8h.html" target="_top" xlink:title=" ">
<polygon fill="white" stroke="black" points="891.22,-126.5 891.22,-146.5 997.25,-146.5 997.25,-126.5 891.22,-126.5"/>
<text text-anchor="middle" x="944.23" y="-133.5" font-family="Helvetica,sans-Serif" font-size="10.00">lola/vx/v1/synapse.h</text>
</a>
</g>
</g>
<!-- Node1&#45;&gt;Node35 -->
<g id="edge56" class="edge">
<title>Node1&#45;&gt;Node35</title>
<path fill="none" stroke="midnightblue" d="M1244.18,-279.96C1200.23,-274.07 1137.84,-262.39 1087.23,-240 1037.04,-217.79 986.86,-176.26 961.4,-153.47"/>
<polygon fill="midnightblue" stroke="midnightblue" points="963.5,-150.66 953.75,-146.52 958.79,-155.84 963.5,-150.66"/>
</g>
<!-- Node3 -->
<g id="node4" class="node">
<title>Node3</title>
<g id="a_node4"><a xlink:title=" ">
<polygon fill="white" stroke="#bfbfbf" points="722.45,-63.5 722.45,-83.5 844.02,-83.5 844.02,-63.5 722.45,-63.5"/>
<text text-anchor="middle" x="783.23" y="-70.5" font-family="Helvetica,sans-Serif" font-size="10.00">halco/common/iter_all.h</text>
</a>
</g>
</g>
<!-- Node2&#45;&gt;Node3 -->
<g id="edge3" class="edge">
<title>Node2&#45;&gt;Node3</title>
<path fill="none" stroke="midnightblue" d="M821.59,-126.5C814.88,-117.4 804.33,-103.1 796,-91.8"/>
<polygon fill="midnightblue" stroke="midnightblue" points="798.65,-89.51 789.9,-83.54 793.02,-93.66 798.65,-89.51"/>
</g>
<!-- Node4 -->
<g id="node5" class="node">
<title>Node4</title>
<g id="a_node5"><a xlink:title=" ">
<polygon fill="white" stroke="#bfbfbf" points="862.11,-57.5 862.11,-89.5 970.36,-89.5 970.36,-57.5 862.11,-57.5"/>
<text text-anchor="start" x="870.11" y="-76.5" font-family="Helvetica,sans-Serif" font-size="10.00">halco/common/typed</text>
<text text-anchor="middle" x="916.23" y="-64.5" font-family="Helvetica,sans-Serif" font-size="10.00">_array.h</text>
</a>
</g>
</g>
<!-- Node2&#45;&gt;Node4 -->
<g id="edge4" class="edge">
<title>Node2&#45;&gt;Node4</title>
<path fill="none" stroke="midnightblue" d="M841.22,-126.5C852.89,-118.41 870.48,-106.21 885.7,-95.67"/>
<polygon fill="midnightblue" stroke="midnightblue" points="888.09,-98.26 894.32,-89.69 884.11,-92.51 888.09,-98.26"/>
</g>
<!-- Node5 -->
<g id="node6" class="node">
<title>Node5</title>
<g id="a_node6"><a xlink:title=" ">
<polygon fill="white" stroke="#bfbfbf" points="234.11,-57.5 234.11,-89.5 342.36,-89.5 342.36,-57.5 234.11,-57.5"/>
<text text-anchor="start" x="242.11" y="-76.5" font-family="Helvetica,sans-Serif" font-size="10.00">halco/common/typed</text>
<text text-anchor="middle" x="288.23" y="-64.5" font-family="Helvetica,sans-Serif" font-size="10.00">_heap_array.h</text>
</a>
</g>
</g>
<!-- Node2&#45;&gt;Node5 -->
<g id="edge5" class="edge">
<title>Node2&#45;&gt;Node5</title>
<path fill="none" stroke="midnightblue" d="M783.23,-133.4C700.02,-129.05 516.43,-117.23 352.68,-90.09"/>
<polygon fill="midnightblue" stroke="midnightblue" points="352.87,-86.57 342.42,-88.37 351.71,-93.48 352.87,-86.57"/>
</g>
<!-- Node6 -->
<g id="node7" class="node">
<title>Node6</title>
<g id="a_node7"><a xlink:title=" ">
<polygon fill="white" stroke="#bfbfbf" points="988.56,-63.5 988.56,-83.5 1097.91,-83.5 1097.91,-63.5 988.56,-63.5"/>
<text text-anchor="middle" x="1043.23" y="-70.5" font-family="Helvetica,sans-Serif" font-size="10.00">haldls/cerealization.h</text>
</a>
</g>
</g>
<!-- Node2&#45;&gt;Node6 -->
<g id="edge6" class="edge">
<title>Node2&#45;&gt;Node6</title>
<path fill="none" stroke="midnightblue" d="M859.96,-126.5C897.51,-115.84 960.16,-98.07 1001.59,-86.31"/>
<polygon fill="midnightblue" stroke="midnightblue" points="1002.71,-89.63 1011.38,-83.54 1000.8,-82.9 1002.71,-89.63"/>
</g>
<!-- Node7 -->
<g id="node8" class="node">
<title>Node7</title>
<g id="a_node8"><a xlink:title=" ">
<polygon fill="white" stroke="#bfbfbf" points="360.06,-63.5 360.06,-83.5 464.41,-83.5 464.41,-63.5 360.06,-63.5"/>
<text text-anchor="middle" x="412.23" y="-70.5" font-family="Helvetica,sans-Serif" font-size="10.00">haldls/vx/common.h</text>
</a>
</g>
</g>
<!-- Node2&#45;&gt;Node7 -->
<g id="edge7" class="edge">
<title>Node2&#45;&gt;Node7</title>
<path fill="none" stroke="midnightblue" d="M783.13,-131.49C715.43,-125.07 583.71,-111.04 473.23,-90 467.25,-88.86 460.98,-87.48 454.84,-86.02"/>
<polygon fill="midnightblue" stroke="midnightblue" points="455.22,-82.52 444.68,-83.52 453.55,-89.31 455.22,-82.52"/>
</g>
<!-- Node8 -->
<g id="node9" class="node">
<title>Node8</title>
<g id="a_node9"><a xlink:title=" ">
<polygon fill="white" stroke="#bfbfbf" points="482.4,-63.5 482.4,-83.5 570.07,-83.5 570.07,-63.5 482.4,-63.5"/>
<text text-anchor="middle" x="526.23" y="-70.5" font-family="Helvetica,sans-Serif" font-size="10.00">haldls/vx/traits.h</text>
</a>
</g>
</g>
<!-- Node2&#45;&gt;Node8 -->
<g id="edge8" class="edge">
<title>Node2&#45;&gt;Node8</title>
<path fill="none" stroke="midnightblue" d="M782.96,-128.68C732.83,-120.79 649.79,-106.72 579.23,-90 574.58,-88.9 569.73,-87.64 564.93,-86.32"/>
<polygon fill="midnightblue" stroke="midnightblue" points="565.82,-82.93 555.25,-83.57 563.91,-89.67 565.82,-82.93"/>
</g>
<!-- Node9 -->
<g id="node10" class="node">
<title>Node9</title>
<g id="a_node10"><a xlink:title=" ">
<polygon fill="white" stroke="#bfbfbf" points="0,-63.5 0,-83.5 100.47,-83.5 100.47,-63.5 0,-63.5"/>
<text text-anchor="middle" x="50.23" y="-70.5" font-family="Helvetica,sans-Serif" font-size="10.00">haldls/vx/v1/cadc.h</text>
</a>
</g>
</g>
<!-- Node2&#45;&gt;Node9 -->
<g id="edge9" class="edge">
<title>Node2&#45;&gt;Node9</title>
<path fill="none" stroke="midnightblue" d="M782.89,-135.66C668.89,-135.42 361.44,-130.71 109.23,-90 102.92,-88.98 96.3,-87.58 89.88,-86.04"/>
<polygon fill="midnightblue" stroke="midnightblue" points="90.56,-82.6 80.01,-83.52 88.83,-89.38 90.56,-82.6"/>
</g>
<!-- Node10 -->
<g id="node11" class="node">
<title>Node10</title>
<g id="a_node11"><a xlink:title=" ">
<polygon fill="white" stroke="#bfbfbf" points="1621.73,-63.5 1621.73,-83.5 1702.74,-83.5 1702.74,-63.5 1621.73,-63.5"/>
<text text-anchor="middle" x="1662.23" y="-70.5" font-family="Helvetica,sans-Serif" font-size="10.00">hate/visibility.h</text>
</a>
</g>
</g>
<!-- Node2&#45;&gt;Node10 -->
<g id="edge10" class="edge">
<title>Node2&#45;&gt;Node10</title>
<path fill="none" stroke="midnightblue" d="M873.25,-127.15C876.29,-126.72 879.3,-126.33 882.23,-126 1205.05,-89.79 1292.35,-146.54 1612.23,-90 1617.31,-89.1 1622.58,-87.84 1627.72,-86.43"/>
<polygon fill="midnightblue" stroke="midnightblue" points="1628.77,-89.77 1637.36,-83.56 1626.77,-83.06 1628.77,-89.77"/>
</g>
<!-- Node2&#45;&gt;Node11 -->
<g id="edge11" class="edge">
<title>Node2&#45;&gt;Node11</title>
<path fill="none" stroke="midnightblue" d="M873.31,-127.52C876.33,-127 879.32,-126.49 882.23,-126 982.11,-109.23 1007.94,-109.93 1107.23,-90 1113.41,-88.76 1119.9,-87.33 1126.27,-85.86"/>
<polygon fill="midnightblue" stroke="midnightblue" points="1127.21,-89.24 1136.13,-83.53 1125.6,-82.43 1127.21,-89.24"/>
</g>
<!-- Node15 -->
<g id="node16" class="node">
<title>Node15</title>
<g id="a_node16"><a xlink:href="genpybind_8h.html" target="_top" xlink:title=" ">
<polygon fill="white" stroke="black" points="1720.44,-63.5 1720.44,-83.5 1822.03,-83.5 1822.03,-63.5 1720.44,-63.5"/>
<text text-anchor="middle" x="1771.23" y="-70.5" font-family="Helvetica,sans-Serif" font-size="10.00">lola/vx/genpybind.h</text>
</a>
</g>
</g>
<!-- Node2&#45;&gt;Node15 -->
<g id="edge15" class="edge">
<title>Node2&#45;&gt;Node15</title>
<path fill="none" stroke="midnightblue" d="M873.25,-127.13C876.29,-126.7 879.3,-126.32 882.23,-126 1249.29,-85.93 1347.15,-145.22 1712.23,-90 1718.62,-89.03 1725.32,-87.65 1731.82,-86.09"/>
<polygon fill="midnightblue" stroke="midnightblue" points="1732.95,-89.42 1741.78,-83.56 1731.23,-82.63 1732.95,-89.42"/>
</g>
<!-- Node2&#45;&gt;Node16 -->
<g id="edge17" class="edge">
<title>Node2&#45;&gt;Node16</title>
<path fill="none" stroke="midnightblue" d="M873.26,-127.19C876.29,-126.75 879.3,-126.35 882.23,-126 1133.85,-96 1199.85,-121.88 1451.23,-90 1460.72,-88.8 1470.77,-87.17 1480.45,-85.41"/>
<polygon fill="midnightblue" stroke="midnightblue" points="1481.17,-88.84 1490.35,-83.56 1479.88,-81.96 1481.17,-88.84"/>
</g>
<!-- Node17 -->
<g id="node18" class="node">
<title>Node17</title>
<g id="a_node18"><a xlink:title=" ">
<polygon fill="white" stroke="#bfbfbf" points="118.39,-63.5 118.39,-83.5 216.08,-83.5 216.08,-63.5 118.39,-63.5"/>
<text text-anchor="middle" x="167.23" y="-70.5" font-family="Helvetica,sans-Serif" font-size="10.00">pybind11/numpy.h</text>
</a>
</g>
</g>
<!-- Node2&#45;&gt;Node17 -->
<g id="edge18" class="edge">
<title>Node2&#45;&gt;Node17</title>
<path fill="none" stroke="midnightblue" d="M783.26,-134.95C682.58,-133.11 431.72,-125.07 225.23,-90 219.24,-88.98 212.97,-87.62 206.86,-86.13"/>
<polygon fill="midnightblue" stroke="midnightblue" points="207.36,-82.65 196.8,-83.54 205.61,-89.43 207.36,-82.65"/>
</g>
<!-- Node12 -->
<g id="node13" class="node">
<title>Node12</title>
<g id="a_node13"><a xlink:title=" ">
<polygon fill="white" stroke="#bfbfbf" points="1048.17,-0.5 1048.17,-20.5 1110.29,-20.5 1110.29,-0.5 1048.17,-0.5"/>
<text text-anchor="middle" x="1079.23" y="-7.5" font-family="Helvetica,sans-Serif" font-size="10.00">type_traits</text>
</a>
</g>
</g>
<!-- Node11&#45;&gt;Node12 -->
<g id="edge12" class="edge">
<title>Node11&#45;&gt;Node12</title>
<path fill="none" stroke="midnightblue" d="M1157.66,-63.5C1142.85,-53.68 1118.91,-37.81 1101.37,-26.18"/>
<polygon fill="midnightblue" stroke="midnightblue" points="1103.13,-23.15 1092.86,-20.54 1099.26,-28.98 1103.13,-23.15"/>
</g>
<!-- Node13 -->
<g id="node14" class="node">
<title>Node13</title>
<g id="a_node14"><a xlink:title=" ">
<polygon fill="white" stroke="#bfbfbf" points="1128.77,-0.5 1128.77,-20.5 1213.7,-20.5 1213.7,-0.5 1128.77,-0.5"/>
<text text-anchor="middle" x="1171.23" y="-7.5" font-family="Helvetica,sans-Serif" font-size="10.00">boost/hana.hpp</text>
</a>
</g>
</g>
<!-- Node11&#45;&gt;Node13 -->
<g id="edge13" class="edge">
<title>Node11&#45;&gt;Node13</title>
<path fill="none" stroke="midnightblue" d="M1171.23,-63.5C1171.23,-54.94 1171.23,-41.78 1171.23,-30.85"/>
<polygon fill="midnightblue" stroke="midnightblue" points="1174.73,-30.54 1171.23,-20.54 1167.73,-30.54 1174.73,-30.54"/>
</g>
<!-- Node14 -->
<g id="node15" class="node">
<title>Node14</title>
<g id="a_node15"><a xlink:title=" ">
<polygon fill="white" stroke="#bfbfbf" points="1232.12,-0.5 1232.12,-20.5 1330.35,-20.5 1330.35,-0.5 1232.12,-0.5"/>
<text text-anchor="middle" x="1281.23" y="-7.5" font-family="Helvetica,sans-Serif" font-size="10.00">cereal/macros.hpp</text>
</a>
</g>
</g>
<!-- Node11&#45;&gt;Node14 -->
<g id="edge14" class="edge">
<title>Node11&#45;&gt;Node14</title>
<path fill="none" stroke="midnightblue" d="M1187.46,-63.5C1205.5,-53.5 1234.85,-37.22 1255.91,-25.54"/>
<polygon fill="midnightblue" stroke="midnightblue" points="1257.89,-28.45 1264.94,-20.54 1254.49,-22.33 1257.89,-28.45"/>
</g>
<!-- Node15&#45;&gt;Node15 -->
<g id="edge16" class="edge">
<title>Node15&#45;&gt;Node15</title>
<path fill="none" stroke="midnightblue" d="M1797.71,-83.56C1818.59,-87.45 1840.03,-84.1 1840.03,-73.5 1840.03,-64.64 1825.05,-60.85 1807.93,-62.11"/>
<polygon fill="midnightblue" stroke="midnightblue" points="1807.17,-58.68 1797.71,-63.44 1808.08,-65.62 1807.17,-58.68"/>
</g>
<!-- Node18&#45;&gt;Node15 -->
<g id="edge32" class="edge">
<title>Node18&#45;&gt;Node15</title>
<path fill="none" stroke="midnightblue" d="M1198.31,-201.39C1215.84,-195.67 1239.24,-188.39 1260.23,-183 1458.89,-132 1512.53,-136.74 1712.23,-90 1717.52,-88.76 1723.05,-87.4 1728.52,-86.01"/>
<polygon fill="midnightblue" stroke="midnightblue" points="1729.43,-89.39 1738.23,-83.51 1727.68,-82.61 1729.43,-89.39"/>
</g>
<!-- Node19 -->
<g id="node20" class="node">
<title>Node19</title>
<g id="a_node20"><a xlink:href="dac_8h.html" target="_top" xlink:title=" ">
<polygon fill="white" stroke="black" points="1135.45,-126.5 1135.45,-146.5 1207.02,-146.5 1207.02,-126.5 1135.45,-126.5"/>
<text text-anchor="middle" x="1171.23" y="-133.5" font-family="Helvetica,sans-Serif" font-size="10.00">lola/vx/dac.h</text>
</a>
</g>
</g>
<!-- Node18&#45;&gt;Node19 -->
<g id="edge20" class="edge">
<title>Node18&#45;&gt;Node19</title>
<path fill="none" stroke="midnightblue" d="M1171.23,-201.25C1171.23,-190.24 1171.23,-171.52 1171.23,-157.2"/>
<polygon fill="midnightblue" stroke="midnightblue" points="1174.73,-156.9 1171.23,-146.9 1167.73,-156.9 1174.73,-156.9"/>
</g>
<!-- Node19&#45;&gt;Node3 -->
<g id="edge21" class="edge">
<title>Node19&#45;&gt;Node3</title>
<path fill="none" stroke="midnightblue" d="M1135.32,-131.26C1076.26,-124.09 955.02,-108.52 853.23,-90 846.16,-88.71 838.72,-87.22 831.43,-85.67"/>
<polygon fill="midnightblue" stroke="midnightblue" points="832.15,-82.25 821.64,-83.55 830.67,-89.09 832.15,-82.25"/>
</g>
<!-- Node19&#45;&gt;Node4 -->
<g id="edge22" class="edge">
<title>Node19&#45;&gt;Node4</title>
<path fill="none" stroke="midnightblue" d="M1135.12,-127.04C1098.54,-118.45 1040.09,-104.66 980.48,-90.29"/>
<polygon fill="midnightblue" stroke="midnightblue" points="981.06,-86.83 970.52,-87.89 979.42,-93.64 981.06,-86.83"/>
</g>
<!-- Node19&#45;&gt;Node6 -->
<g id="edge24" class="edge">
<title>Node19&#45;&gt;Node6</title>
<path fill="none" stroke="midnightblue" d="M1152.35,-126.5C1130.98,-116.32 1095.97,-99.63 1071.38,-87.91"/>
<polygon fill="midnightblue" stroke="midnightblue" points="1072.73,-84.68 1062.2,-83.54 1069.72,-91 1072.73,-84.68"/>
</g>
<!-- Node19&#45;&gt;Node7 -->
<g id="edge25" class="edge">
<title>Node19&#45;&gt;Node7</title>
<path fill="none" stroke="midnightblue" d="M1135.19,-133.34C996.88,-125 506.18,-95.21 473.23,-90 466.79,-88.98 460.03,-87.59 453.46,-86.06"/>
<polygon fill="midnightblue" stroke="midnightblue" points="453.9,-82.57 443.35,-83.58 452.23,-89.37 453.9,-82.57"/>
</g>
<!-- Node19&#45;&gt;Node8 -->
<g id="edge27" class="edge">
<title>Node19&#45;&gt;Node8</title>
<path fill="none" stroke="midnightblue" d="M1135.16,-133.17C1015.14,-125.34 633.8,-99.96 579.23,-90 574,-89.05 568.55,-87.78 563.22,-86.38"/>
<polygon fill="midnightblue" stroke="midnightblue" points="563.78,-82.9 553.21,-83.56 561.89,-89.64 563.78,-82.9"/>
</g>
<!-- Node19&#45;&gt;Node10 -->
<g id="edge28" class="edge">
<title>Node19&#45;&gt;Node10</title>
<path fill="none" stroke="midnightblue" d="M1207.04,-134.2C1282.61,-130.95 1463.68,-120.38 1612.23,-90 1616.99,-89.03 1621.94,-87.78 1626.8,-86.43"/>
<polygon fill="midnightblue" stroke="midnightblue" points="1627.95,-89.74 1636.54,-83.53 1625.95,-83.03 1627.95,-89.74"/>
</g>
<!-- Node19&#45;&gt;Node11 -->
<g id="edge29" class="edge">
<title>Node19&#45;&gt;Node11</title>
<path fill="none" stroke="midnightblue" d="M1171.23,-126.5C1171.23,-117.94 1171.23,-104.78 1171.23,-93.85"/>
<polygon fill="midnightblue" stroke="midnightblue" points="1174.73,-93.54 1171.23,-83.54 1167.73,-93.54 1174.73,-93.54"/>
</g>
<!-- Node19&#45;&gt;Node15 -->
<g id="edge30" class="edge">
<title>Node19&#45;&gt;Node15</title>
<path fill="none" stroke="midnightblue" d="M1207.27,-134.62C1294.54,-132.02 1523.9,-122.41 1712.23,-90 1718.25,-88.96 1724.55,-87.61 1730.7,-86.13"/>
<polygon fill="midnightblue" stroke="midnightblue" points="1732,-89.41 1740.83,-83.56 1730.28,-82.63 1732,-89.41"/>
</g>
<!-- Node19&#45;&gt;Node16 -->
<g id="edge31" class="edge">
<title>Node19&#45;&gt;Node16</title>
<path fill="none" stroke="midnightblue" d="M1207.07,-129.37C1213.77,-128.24 1220.71,-127.08 1227.23,-126 1326.72,-109.57 1351.93,-107.48 1451.23,-90 1459.44,-88.56 1468.11,-86.97 1476.6,-85.37"/>
<polygon fill="midnightblue" stroke="midnightblue" points="1477.27,-88.81 1486.44,-83.51 1475.97,-81.93 1477.27,-88.81"/>
</g>
<!-- Node20 -->
<g id="node21" class="node">
<title>Node20</title>
<g id="a_node21"><a xlink:title=" ">
<polygon fill="white" stroke="#bfbfbf" points="1244.73,-57.5 1244.73,-89.5 1345.74,-89.5 1345.74,-57.5 1244.73,-57.5"/>
<text text-anchor="start" x="1252.73" y="-76.5" font-family="Helvetica,sans-Serif" font-size="10.00">halco/hicann&#45;dls/vx</text>
<text text-anchor="middle" x="1295.23" y="-64.5" font-family="Helvetica,sans-Serif" font-size="10.00">/dac.h</text>
</a>
</g>
</g>
<!-- Node19&#45;&gt;Node20 -->
<g id="edge23" class="edge">
<title>Node19&#45;&gt;Node20</title>
<path fill="none" stroke="midnightblue" d="M1189.53,-126.5C1206.74,-118.03 1233.1,-105.07 1255.19,-94.2"/>
<polygon fill="midnightblue" stroke="midnightblue" points="1256.92,-97.25 1264.35,-89.69 1253.83,-90.96 1256.92,-97.25"/>
</g>
<!-- Node21 -->
<g id="node22" class="node">
<title>Node21</title>
<g id="a_node22"><a xlink:title=" ">
<polygon fill="white" stroke="#bfbfbf" points="1363.84,-63.5 1363.84,-83.5 1442.63,-83.5 1442.63,-63.5 1363.84,-63.5"/>
<text text-anchor="middle" x="1403.23" y="-70.5" font-family="Helvetica,sans-Serif" font-size="10.00">haldls/vx/spi.h</text>
</a>
</g>
</g>
<!-- Node19&#45;&gt;Node21 -->
<g id="edge26" class="edge">
<title>Node19&#45;&gt;Node21</title>
<path fill="none" stroke="midnightblue" d="M1207.05,-127.43C1244.27,-118.85 1304.12,-104.55 1355.23,-90 1359.01,-88.92 1362.94,-87.75 1366.84,-86.54"/>
<polygon fill="midnightblue" stroke="midnightblue" points="1367.94,-89.87 1376.42,-83.52 1365.83,-83.19 1367.94,-89.87"/>
</g>
<!-- Node22&#45;&gt;Node10 -->
<g id="edge36" class="edge">
<title>Node22&#45;&gt;Node10</title>
<path fill="none" stroke="midnightblue" d="M1957.11,-128.75C1885.34,-118.91 1756.93,-100.67 1711.23,-90 1706.86,-88.98 1702.32,-87.76 1697.84,-86.46"/>
<polygon fill="midnightblue" stroke="midnightblue" points="1698.81,-83.1 1688.22,-83.54 1696.77,-89.8 1698.81,-83.1"/>
</g>
<!-- Node22&#45;&gt;Node15 -->
<g id="edge37" class="edge">
<title>Node22&#45;&gt;Node15</title>
<path fill="none" stroke="midnightblue" d="M1972.41,-126.5C1930.93,-115.78 1861.54,-97.84 1816.08,-86.09"/>
<polygon fill="midnightblue" stroke="midnightblue" points="1816.76,-82.65 1806.2,-83.54 1815,-89.43 1816.76,-82.65"/>
</g>
<!-- Node23 -->
<g id="node24" class="node">
<title>Node23</title>
<g id="a_node24"><a xlink:title=" ">
<polygon fill="white" stroke="#bfbfbf" points="2402.39,-63.5 2402.39,-83.5 2520.08,-83.5 2520.08,-63.5 2402.39,-63.5"/>
<text text-anchor="middle" x="2461.23" y="-70.5" font-family="Helvetica,sans-Serif" font-size="10.00">haldls/vx/v1/capmem.h</text>
</a>
</g>
</g>
<!-- Node22&#45;&gt;Node23 -->
<g id="edge34" class="edge">
<title>Node22&#45;&gt;Node23</title>
<path fill="none" stroke="midnightblue" d="M2057.28,-131.39C2131.28,-124.92 2274.1,-110.89 2394.23,-90 2401.11,-88.8 2408.34,-87.35 2415.4,-85.81"/>
<polygon fill="midnightblue" stroke="midnightblue" points="2416.58,-89.13 2425.57,-83.52 2415.04,-82.3 2416.58,-89.13"/>
</g>
<!-- Node24 -->
<g id="node25" class="node">
<title>Node24</title>
<g id="a_node25"><a xlink:title=" ">
<polygon fill="white" stroke="#bfbfbf" points="2538,-63.5 2538,-83.5 2648.47,-83.5 2648.47,-63.5 2538,-63.5"/>
<text text-anchor="middle" x="2593.23" y="-70.5" font-family="Helvetica,sans-Serif" font-size="10.00">haldls/vx/v1/neuron.h</text>
</a>
</g>
</g>
<!-- Node22&#45;&gt;Node24 -->
<g id="edge35" class="edge">
<title>Node22&#45;&gt;Node24</title>
<path fill="none" stroke="midnightblue" d="M2057.21,-133.65C2150.51,-129.64 2357.32,-118.15 2529.23,-90 2536.06,-88.88 2543.23,-87.43 2550.2,-85.86"/>
<polygon fill="midnightblue" stroke="midnightblue" points="2551.28,-89.2 2560.21,-83.5 2549.67,-82.39 2551.28,-89.2"/>
</g>
<!-- Node25 -->
<g id="node26" class="node">
<title>Node25</title>
<g id="a_node26"><a xlink:title=" ">
<polygon fill="white" stroke="#bfbfbf" points="2277.67,-63.5 2277.67,-83.5 2384.8,-83.5 2384.8,-63.5 2277.67,-63.5"/>
<text text-anchor="middle" x="2331.23" y="-70.5" font-family="Helvetica,sans-Serif" font-size="10.00">lola/vx/v1/neuron.tcc</text>
</a>
</g>
</g>
<!-- Node22&#45;&gt;Node25 -->
<g id="edge38" class="edge">
<title>Node22&#45;&gt;Node25</title>
<path fill="none" stroke="midnightblue" d="M2057.67,-127.86C2110.58,-119.59 2196.06,-105.48 2269.23,-90 2275.01,-88.78 2281.05,-87.4 2287.02,-85.97"/>
<polygon fill="midnightblue" stroke="midnightblue" points="2288.02,-89.33 2296.9,-83.56 2286.36,-82.53 2288.02,-89.33"/>
</g>
<!-- Node29&#45;&gt;Node15 -->
<g id="edge45" class="edge">
<title>Node29&#45;&gt;Node15</title>
<path fill="none" stroke="midnightblue" d="M1890.12,-201.3C1876.94,-189.18 1853.29,-167.05 1834.23,-147 1816.75,-128.61 1797.8,-106.47 1785.3,-91.54"/>
<polygon fill="midnightblue" stroke="midnightblue" points="1787.83,-89.11 1778.74,-83.66 1782.45,-93.58 1787.83,-89.11"/>
</g>
<!-- Node30 -->
<g id="node31" class="node">
<title>Node30</title>
<g id="a_node31"><a xlink:href="ppu_8h.html" target="_top" xlink:title=" ">
<polygon fill="white" stroke="black" points="1843.17,-126.5 1843.17,-146.5 1915.3,-146.5 1915.3,-126.5 1843.17,-126.5"/>
<text text-anchor="middle" x="1879.23" y="-133.5" font-family="Helvetica,sans-Serif" font-size="10.00">lola/vx/ppu.h</text>
</a>
</g>
</g>
<!-- Node29&#45;&gt;Node30 -->
<g id="edge46" class="edge">
<title>Node29&#45;&gt;Node30</title>
<path fill="none" stroke="midnightblue" d="M1897.57,-201.25C1894.37,-190.13 1888.91,-171.14 1884.78,-156.78"/>
<polygon fill="midnightblue" stroke="midnightblue" points="1888.07,-155.54 1881.94,-146.9 1881.34,-157.48 1888.07,-155.54"/>
</g>
<!-- Node30&#45;&gt;Node6 -->
<g id="edge48" class="edge">
<title>Node30&#45;&gt;Node6</title>
<path fill="none" stroke="midnightblue" d="M1843.16,-135.71C1732.4,-135.84 1387.7,-132.54 1106.23,-90 1099.35,-88.96 1092.12,-87.52 1085.11,-85.93"/>
<polygon fill="midnightblue" stroke="midnightblue" points="1085.6,-82.45 1075.06,-83.53 1083.97,-89.26 1085.6,-82.45"/>
</g>
<!-- Node30&#45;&gt;Node10 -->
<g id="edge49" class="edge">
<title>Node30&#45;&gt;Node10</title>
<path fill="none" stroke="midnightblue" d="M1844.04,-126.43C1809.97,-117.53 1756.9,-103.4 1711.23,-90 1707.49,-88.9 1703.59,-87.72 1699.7,-86.53"/>
<polygon fill="midnightblue" stroke="midnightblue" points="1700.75,-83.19 1690.16,-83.56 1698.66,-89.87 1700.75,-83.19"/>
</g>
<!-- Node30&#45;&gt;Node11 -->
<g id="edge50" class="edge">
<title>Node30&#45;&gt;Node11</title>
<path fill="none" stroke="midnightblue" d="M1843.04,-135.06C1744.74,-133.4 1464.78,-125.65 1235.23,-90 1228.33,-88.93 1221.07,-87.48 1214.02,-85.91"/>
<polygon fill="midnightblue" stroke="midnightblue" points="1214.45,-82.41 1203.91,-83.53 1212.84,-89.22 1214.45,-82.41"/>
</g>
<!-- Node30&#45;&gt;Node15 -->
<g id="edge51" class="edge">
<title>Node30&#45;&gt;Node15</title>
<path fill="none" stroke="midnightblue" d="M1863.3,-126.5C1845.59,-116.5 1816.77,-100.22 1796.09,-88.54"/>
<polygon fill="midnightblue" stroke="midnightblue" points="1797.66,-85.41 1787.23,-83.54 1794.22,-91.5 1797.66,-85.41"/>
</g>
<!-- Node30&#45;&gt;Node16 -->
<g id="edge52" class="edge">
<title>Node30&#45;&gt;Node16</title>
<path fill="none" stroke="midnightblue" d="M1842.91,-129.58C1791.5,-121.13 1694.58,-104.99 1612.23,-90 1604.32,-88.56 1595.97,-86.99 1587.77,-85.43"/>
<polygon fill="midnightblue" stroke="midnightblue" points="1588.37,-81.98 1577.89,-83.53 1587.05,-88.85 1588.37,-81.98"/>
</g>
<!-- Node31 -->
<g id="node32" class="node">
<title>Node31</title>
<g id="a_node32"><a xlink:title=" ">
<polygon fill="white" stroke="#bfbfbf" points="2055.73,-57.5 2055.73,-89.5 2156.74,-89.5 2156.74,-57.5 2055.73,-57.5"/>
<text text-anchor="start" x="2063.73" y="-76.5" font-family="Helvetica,sans-Serif" font-size="10.00">halco/hicann&#45;dls/vx</text>
<text text-anchor="middle" x="2106.23" y="-64.5" font-family="Helvetica,sans-Serif" font-size="10.00">/coordinates.h</text>
</a>
</g>
</g>
<!-- Node30&#45;&gt;Node31 -->
<g id="edge47" class="edge">
<title>Node30&#45;&gt;Node31</title>
<path fill="none" stroke="midnightblue" d="M1912.73,-126.5C1947.62,-117.12 2003.05,-102.23 2045.66,-90.78"/>
<polygon fill="midnightblue" stroke="midnightblue" points="2046.62,-94.14 2055.37,-88.17 2044.8,-87.38 2046.62,-94.14"/>
</g>
<!-- Node32 -->
<g id="node33" class="node">
<title>Node32</title>
<g id="a_node33"><a xlink:title=" ">
<polygon fill="white" stroke="#bfbfbf" points="2174.5,-63.5 2174.5,-83.5 2259.97,-83.5 2259.97,-63.5 2174.5,-63.5"/>
<text text-anchor="middle" x="2217.23" y="-70.5" font-family="Helvetica,sans-Serif" font-size="10.00">haldls/vx/fpga.h</text>
</a>
</g>
</g>
<!-- Node30&#45;&gt;Node32 -->
<g id="edge53" class="edge">
<title>Node30&#45;&gt;Node32</title>
<path fill="none" stroke="midnightblue" d="M1915.49,-130.39C1981.56,-120.97 2119.1,-100.84 2166.23,-90 2170.72,-88.97 2175.38,-87.75 2179.99,-86.46"/>
<polygon fill="midnightblue" stroke="midnightblue" points="2181.28,-89.73 2189.89,-83.57 2179.31,-83.02 2181.28,-89.73"/>
</g>
<!-- Node33 -->
<g id="node34" class="node">
<title>Node33</title>
<g id="a_node34"><a xlink:title=" ">
<polygon fill="white" stroke="#bfbfbf" points="1857.89,-63.5 1857.89,-83.5 1940.58,-83.5 1940.58,-63.5 1857.89,-63.5"/>
<text text-anchor="middle" x="1899.23" y="-70.5" font-family="Helvetica,sans-Serif" font-size="10.00">haldls/vx/ppu.h</text>
</a>
</g>
</g>
<!-- Node30&#45;&gt;Node33 -->
<g id="edge54" class="edge">
<title>Node30&#45;&gt;Node33</title>
<path fill="none" stroke="midnightblue" d="M1882.18,-126.5C1885.05,-117.76 1889.49,-104.23 1893.12,-93.16"/>
<polygon fill="midnightblue" stroke="midnightblue" points="1896.48,-94.13 1896.27,-83.54 1889.83,-91.95 1896.48,-94.13"/>
</g>
<!-- Node34 -->
<g id="node35" class="node">
<title>Node34</title>
<g id="a_node35"><a xlink:title=" ">
<polygon fill="white" stroke="#bfbfbf" points="1958.56,-63.5 1958.56,-83.5 2037.91,-83.5 2037.91,-63.5 1958.56,-63.5"/>
<text text-anchor="middle" x="1998.23" y="-70.5" font-family="Helvetica,sans-Serif" font-size="10.00">lola/vx/ppu.tcc</text>
</a>
</g>
</g>
<!-- Node30&#45;&gt;Node34 -->
<g id="edge55" class="edge">
<title>Node30&#45;&gt;Node34</title>
<path fill="none" stroke="midnightblue" d="M1896.79,-126.5C1916.48,-116.41 1948.63,-99.93 1971.45,-88.23"/>
<polygon fill="midnightblue" stroke="midnightblue" points="1973.3,-91.21 1980.6,-83.54 1970.11,-84.98 1973.3,-91.21"/>
</g>
<!-- Node35&#45;&gt;Node3 -->
<g id="edge57" class="edge">
<title>Node35&#45;&gt;Node3</title>
<path fill="none" stroke="midnightblue" d="M920.48,-126.5C893.01,-116.09 847.61,-98.89 816.61,-87.14"/>
<polygon fill="midnightblue" stroke="midnightblue" points="817.68,-83.81 807.09,-83.54 815.2,-90.35 817.68,-83.81"/>
</g>
<!-- Node35&#45;&gt;Node4 -->
<g id="edge58" class="edge">
<title>Node35&#45;&gt;Node4</title>
<path fill="none" stroke="midnightblue" d="M940.1,-126.5C936.77,-119.24 931.92,-108.68 927.46,-98.97"/>
<polygon fill="midnightblue" stroke="midnightblue" points="930.56,-97.32 923.21,-89.69 924.2,-100.24 930.56,-97.32"/>
</g>
<!-- Node35&#45;&gt;Node5 -->
<g id="edge59" class="edge">
<title>Node35&#45;&gt;Node5</title>
<path fill="none" stroke="midnightblue" d="M891.17,-127.07C888.15,-126.68 885.16,-126.32 882.23,-126 650.45,-100.43 586.75,-125.66 352.6,-90.03"/>
<polygon fill="midnightblue" stroke="midnightblue" points="352.83,-86.53 342.41,-88.46 351.76,-93.45 352.83,-86.53"/>
</g>
<!-- Node35&#45;&gt;Node6 -->
<g id="edge60" class="edge">
<title>Node35&#45;&gt;Node6</title>
<path fill="none" stroke="midnightblue" d="M958.84,-126.5C974.93,-116.59 1001.01,-100.51 1019.93,-88.86"/>
<polygon fill="midnightblue" stroke="midnightblue" points="1021.89,-91.76 1028.57,-83.54 1018.22,-85.8 1021.89,-91.76"/>
</g>
<!-- Node35&#45;&gt;Node7 -->
<g id="edge61" class="edge">
<title>Node35&#45;&gt;Node7</title>
<path fill="none" stroke="midnightblue" d="M891.16,-127.14C888.15,-126.73 885.15,-126.35 882.23,-126 701.06,-104.17 653.14,-120.57 473.23,-90 466.87,-88.92 460.2,-87.51 453.69,-85.99"/>
<polygon fill="midnightblue" stroke="midnightblue" points="454.23,-82.51 443.69,-83.52 452.56,-89.31 454.23,-82.51"/>
</g>
<!-- Node35&#45;&gt;Node8 -->
<g id="edge62" class="edge">
<title>Node35&#45;&gt;Node8</title>
<path fill="none" stroke="midnightblue" d="M891.15,-127.25C888.14,-126.81 885.15,-126.4 882.23,-126 747.86,-107.73 712.11,-117.13 579.23,-90 574.14,-88.96 568.82,-87.66 563.61,-86.27"/>
<polygon fill="midnightblue" stroke="midnightblue" points="564.37,-82.85 553.8,-83.5 562.47,-89.59 564.37,-82.85"/>
</g>
<!-- Node35&#45;&gt;Node10 -->
<g id="edge64" class="edge">
<title>Node35&#45;&gt;Node10</title>
<path fill="none" stroke="midnightblue" d="M997.48,-132.59C1145.07,-124.41 1552.53,-101.13 1612.23,-90 1617.11,-89.09 1622.19,-87.86 1627.15,-86.5"/>
<polygon fill="midnightblue" stroke="midnightblue" points="1628.49,-89.75 1637.08,-83.55 1626.5,-83.04 1628.49,-89.75"/>
</g>
<!-- Node35&#45;&gt;Node11 -->
<g id="edge65" class="edge">
<title>Node35&#45;&gt;Node11</title>
<path fill="none" stroke="midnightblue" d="M977.73,-126.5C1017.54,-115.8 1084.09,-97.92 1127.82,-86.17"/>
<polygon fill="midnightblue" stroke="midnightblue" points="1128.85,-89.51 1137.6,-83.54 1127.04,-82.75 1128.85,-89.51"/>
</g>
<!-- Node35&#45;&gt;Node15 -->
<g id="edge66" class="edge">
<title>Node35&#45;&gt;Node15</title>
<path fill="none" stroke="midnightblue" d="M997.5,-132.63C1165.78,-123.54 1677.01,-95.61 1712.23,-90 1718.55,-88.99 1725.17,-87.6 1731.59,-86.06"/>
<polygon fill="midnightblue" stroke="midnightblue" points="1732.64,-89.4 1741.46,-83.55 1730.91,-82.62 1732.64,-89.4"/>
</g>
<!-- Node35&#45;&gt;Node16 -->
<g id="edge67" class="edge">
<title>Node35&#45;&gt;Node16</title>
<path fill="none" stroke="midnightblue" d="M997.35,-132.48C1089.87,-126.83 1286.48,-113.1 1451.23,-90 1460.4,-88.72 1470.1,-87.09 1479.48,-85.38"/>
<polygon fill="midnightblue" stroke="midnightblue" points="1480.3,-88.79 1489.49,-83.5 1479.01,-81.91 1480.3,-88.79"/>
</g>
<!-- Node35&#45;&gt;Node17 -->
<g id="edge68" class="edge">
<title>Node35&#45;&gt;Node17</title>
<path fill="none" stroke="midnightblue" d="M891.18,-127.02C888.16,-126.65 885.16,-126.3 882.23,-126 591.36,-95.82 514.03,-136 225.23,-90 219.02,-89.01 212.51,-87.63 206.19,-86.09"/>
<polygon fill="midnightblue" stroke="midnightblue" points="207.04,-82.69 196.49,-83.58 205.29,-89.47 207.04,-82.69"/>
</g>
<!-- Node36 -->
<g id="node37" class="node">
<title>Node36</title>
<g id="a_node37"><a xlink:title=" ">
<polygon fill="white" stroke="#bfbfbf" points="587.94,-63.5 587.94,-83.5 704.53,-83.5 704.53,-63.5 587.94,-63.5"/>
<text text-anchor="middle" x="646.23" y="-70.5" font-family="Helvetica,sans-Serif" font-size="10.00">haldls/vx/v1/synapse.h</text>
</a>
</g>
</g>
<!-- Node35&#45;&gt;Node36 -->
<g id="edge63" class="edge">
<title>Node35&#45;&gt;Node36</title>
<path fill="none" stroke="midnightblue" d="M895.91,-126.46C849.11,-117.59 776.18,-103.48 713.23,-90 707.1,-88.69 700.67,-87.26 694.32,-85.82"/>
<polygon fill="midnightblue" stroke="midnightblue" points="694.98,-82.39 684.45,-83.57 693.42,-89.21 694.98,-82.39"/>
</g>
</g>
</svg>
        <g id="navigator" transform="translate(0 0)" fill="#404254">
                <rect fill="#f2f5e9" fill-opacity="0.5" stroke="#606060" stroke-width=".5" x="0" y="0" width="60" height="60"/>
                <use id="zoomplus" xlink:href="#zoomPlus" x="17" y="9" onmousedown="handleZoom(evt,'in')"/>
                <use id="zoomminus" xlink:href="#zoomMin" x="42" y="9" onmousedown="handleZoom(evt,'out')"/>
                <use id="reset" xlink:href="#resetDef" x="30" y="36" onmousedown="handleReset()"/>
                <g id="arrowUp" xlink:href="#dirArrow" transform="translate(30 24)" onmousedown="handlePan(0,-1)">
                  <use xlink:href="#rim" fill="#404040">
                        <set attributeName="fill" to="#808080" begin="arrowUp.mouseover" end="arrowUp.mouseout"/>
                  </use>
                  <path fill="none" stroke="white" stroke-width="1.5" d="M0,-3.0v7 M-2.5,-0.5L0,-3.0L2.5,-0.5"/>
                </g>
                <g id="arrowRight" xlink:href="#dirArrow" transform="rotate(90) translate(36 -43)" onmousedown="handlePan(1,0)">
                  <use xlink:href="#rim" fill="#404040">
                        <set attributeName="fill" to="#808080" begin="arrowRight.mouseover" end="arrowRight.mouseout"/>
                  </use>
                  <path fill="none" stroke="white" stroke-width="1.5" d="M0,-3.0v7 M-2.5,-0.5L0,-3.0L2.5,-0.5"/>
                </g>
                <g id="arrowDown" xlink:href="#dirArrow" transform="rotate(180) translate(-30 -48)" onmousedown="handlePan(0,1)">
                  <use xlink:href="#rim" fill="#404040">
                        <set attributeName="fill" to="#808080" begin="arrowDown.mouseover" end="arrowDown.mouseout"/>
                  </use>
                  <path fill="none" stroke="white" stroke-width="1.5" d="M0,-3.0v7 M-2.5,-0.5L0,-3.0L2.5,-0.5"/>
                </g>
                <g id="arrowLeft" xlink:href="#dirArrow" transform="rotate(270) translate(-36 17)" onmousedown="handlePan(-1,0)">
                  <use xlink:href="#rim" fill="#404040">
                        <set attributeName="fill" to="#808080" begin="arrowLeft.mouseover" end="arrowLeft.mouseout"/>
                  </use>
                  <path fill="none" stroke="white" stroke-width="1.5" d="M0,-3.0v7 M-2.5,-0.5L0,-3.0L2.5,-0.5"/>
                </g>
        </g>
        <svg viewBox="0 0 15 15" width="100%" height="30px" preserveAspectRatio="xMaxYMin meet">
         <g id="arrow_out" transform="scale(0.3 0.3)">
          <a xlink:href="v1_2lola_8h__incl_org.svg" target="_base">
           <rect id="button" ry="5" rx="5" y="6" x="6" height="38" width="38"
                fill="#f2f5e9" fill-opacity="0.5" stroke="#606060" stroke-width="1.0"/>
           <path id="arrow"
             d="M 11.500037,31.436501 C 11.940474,20.09759 22.043105,11.32322 32.158766,21.979434 L 37.068811,17.246167 C 37.068811,17.246167 37.088388,32 37.088388,32 L 22.160133,31.978069 C 22.160133,31.978069 26.997745,27.140456 26.997745,27.140456 C 18.528582,18.264221 13.291696,25.230495 11.500037,31.436501 z"
             style="fill:#404040;"/>
          </a>
         </g>
        </svg>
</svg>
