<?xml version="1.0" encoding="UTF-8" standalone="no"?>
<!DOCTYPE svg PUBLIC "-//W3C//DTD SVG 1.1//EN"
 "http://www.w3.org/Graphics/SVG/1.1/DTD/svg11.dtd">
<!-- Generated by graphviz version 2.43.0 (0)
 -->
<!-- Title: /jenkins/jenlib_workspaces_f9/bld_nightly&#45;haldls.YmxkX25pZ2h0bHktaGFsZGxzIzcxMQ.x/haldls/include/lola/vx/v1/neuron.h Pages: 1 -->
<svg width="615pt" height="125pt"
 viewBox="0.00 0.00 615.41 125.43" xmlns="http://www.w3.org/2000/svg" xmlns:xlink="http://www.w3.org/1999/xlink">
<g id="graph0" class="graph" transform="scale(1 1) rotate(0) translate(4 121.43)">
<title>/jenkins/jenlib_workspaces_f9/bld_nightly&#45;haldls.YmxkX25pZ2h0bHktaGFsZGxzIzcxMQ.x/haldls/include/lola/vx/v1/neuron.h</title>
<polygon fill="white" stroke="transparent" points="-4,4 -4,-121.43 611.41,-121.43 611.41,4 -4,4"/>
<!-- Node0 -->
<g id="node1" class="node">
<title>Node0</title>
<g id="a_node1"><a xlink:title=" ">
<polygon fill="#bfbfbf" stroke="black" points="215.72,-60.93 215.72,-116.93 393.96,-116.93 393.96,-60.93 215.72,-60.93"/>
<text text-anchor="start" x="223.72" y="-103.93" font-family="Helvetica,sans-Serif" font-size="10.00">/jenkins/jenlib_workspaces</text>
<text text-anchor="start" x="223.72" y="-91.93" font-family="Helvetica,sans-Serif" font-size="10.00">_f9/bld_nightly&#45;haldls.YmxkX25p</text>
<text text-anchor="start" x="223.72" y="-79.93" font-family="Helvetica,sans-Serif" font-size="10.00">Z2h0bHktaGFsZGxzIzcxMQ.x/haldls</text>
<text text-anchor="middle" x="304.84" y="-67.93" font-family="Helvetica,sans-Serif" font-size="10.00">/include/lola/vx/v1/neuron.h</text>
</a>
</g>
</g>
<!-- Node1 -->
<g id="node2" class="node">
<title>Node1</title>
<g id="a_node2"><a xlink:title=" ">
<polygon fill="white" stroke="#bfbfbf" points="0,-3.93 0,-23.93 117.68,-23.93 117.68,-3.93 0,-3.93"/>
<text text-anchor="middle" x="58.84" y="-10.93" font-family="Helvetica,sans-Serif" font-size="10.00">haldls/vx/v1/capmem.h</text>
</a>
</g>
</g>
<!-- Node0&#45;&gt;Node1 -->
<g id="edge1" class="edge">
<title>Node0&#45;&gt;Node1</title>
<path fill="none" stroke="midnightblue" d="M215.68,-61.47C175.73,-49.61 130.61,-36.22 99.06,-26.86"/>
<polygon fill="midnightblue" stroke="midnightblue" points="99.9,-23.46 89.32,-23.97 97.91,-30.17 99.9,-23.46"/>
</g>
<!-- Node2 -->
<g id="node3" class="node">
<title>Node2</title>
<g id="a_node3"><a xlink:title=" ">
<polygon fill="white" stroke="#bfbfbf" points="135.61,-3.93 135.61,-23.93 246.08,-23.93 246.08,-3.93 135.61,-3.93"/>
<text text-anchor="middle" x="190.84" y="-10.93" font-family="Helvetica,sans-Serif" font-size="10.00">haldls/vx/v1/neuron.h</text>
</a>
</g>
</g>
<!-- Node0&#45;&gt;Node2 -->
<g id="edge2" class="edge">
<title>Node0&#45;&gt;Node2</title>
<path fill="none" stroke="midnightblue" d="M262.39,-60.74C245.78,-50.1 227.39,-38.33 213.42,-29.38"/>
<polygon fill="midnightblue" stroke="midnightblue" points="215.24,-26.39 204.93,-23.95 211.47,-32.29 215.24,-26.39"/>
</g>
<!-- Node3 -->
<g id="node4" class="node">
<title>Node3</title>
<g id="a_node4"><a xlink:title=" ">
<polygon fill="white" stroke="#bfbfbf" points="264.34,-3.93 264.34,-23.93 345.34,-23.93 345.34,-3.93 264.34,-3.93"/>
<text text-anchor="middle" x="304.84" y="-10.93" font-family="Helvetica,sans-Serif" font-size="10.00">hate/visibility.h</text>
</a>
</g>
</g>
<!-- Node0&#45;&gt;Node3 -->
<g id="edge3" class="edge">
<title>Node0&#45;&gt;Node3</title>
<path fill="none" stroke="midnightblue" d="M304.84,-60.74C304.84,-51.93 304.84,-42.33 304.84,-34.21"/>
<polygon fill="midnightblue" stroke="midnightblue" points="308.34,-33.95 304.84,-23.95 301.34,-33.95 308.34,-33.95"/>
</g>
<!-- Node4 -->
<g id="node5" class="node">
<title>Node4</title>
<g id="a_node5"><a xlink:href="genpybind_8h.html" target="_top" xlink:title=" ">
<polygon fill="white" stroke="black" points="363.05,-3.93 363.05,-23.93 464.63,-23.93 464.63,-3.93 363.05,-3.93"/>
<text text-anchor="middle" x="413.84" y="-10.93" font-family="Helvetica,sans-Serif" font-size="10.00">lola/vx/genpybind.h</text>
</a>
</g>
</g>
<!-- Node0&#45;&gt;Node4 -->
<g id="edge4" class="edge">
<title>Node0&#45;&gt;Node4</title>
<path fill="none" stroke="midnightblue" d="M345.43,-60.74C361.17,-50.2 378.56,-38.55 391.87,-29.64"/>
<polygon fill="midnightblue" stroke="midnightblue" points="394.01,-32.42 400.37,-23.95 390.11,-26.61 394.01,-32.42"/>
</g>
<!-- Node5 -->
<g id="node6" class="node">
<title>Node5</title>
<g id="a_node6"><a xlink:title=" ">
<polygon fill="white" stroke="#bfbfbf" points="500.27,-3.93 500.27,-23.93 607.41,-23.93 607.41,-3.93 500.27,-3.93"/>
<text text-anchor="middle" x="553.84" y="-10.93" font-family="Helvetica,sans-Serif" font-size="10.00">lola/vx/v1/neuron.tcc</text>
</a>
</g>
</g>
<!-- Node0&#45;&gt;Node5 -->
<g id="edge6" class="edge">
<title>Node0&#45;&gt;Node5</title>
<path fill="none" stroke="midnightblue" d="M394.03,-61.78C434.71,-49.85 480.86,-36.32 513.07,-26.88"/>
<polygon fill="midnightblue" stroke="midnightblue" points="514.4,-30.13 523.02,-23.96 512.44,-23.42 514.4,-30.13"/>
</g>
<!-- Node4&#45;&gt;Node4 -->
<g id="edge5" class="edge">
<title>Node4&#45;&gt;Node4</title>
<path fill="none" stroke="midnightblue" d="M433.21,-24C456.02,-31.37 482.63,-28.02 482.63,-13.93 482.63,-1.82 462.98,2.37 442.97,-1.38"/>
<polygon fill="midnightblue" stroke="midnightblue" points="442.04,2 433.21,-3.85 443.76,-4.79 442.04,2"/>
</g>
</g>
</svg>
