<?xml version="1.0" encoding="UTF-8" standalone="no"?>
<!DOCTYPE svg PUBLIC "-//W3C//DTD SVG 1.1//EN"
 "http://www.w3.org/Graphics/SVG/1.1/DTD/svg11.dtd">
<!-- Generated by graphviz version 2.43.0 (0)
 -->
<!-- Title: /jenkins/jenlib_workspaces_f9/bld_nightly&#45;haldls.YmxkX25pZ2h0bHktaGFsZGxzIzQ5Nw.x/haldls/include/lola/v2/genpybind.h Pages: 1 -->
<svg width="247pt" height="251pt"
 viewBox="0.00 0.00 246.91 251.00" xmlns="http://www.w3.org/2000/svg" xmlns:xlink="http://www.w3.org/1999/xlink">
<g id="graph0" class="graph" transform="scale(1 1) rotate(0) translate(4 247)">
<title>/jenkins/jenlib_workspaces_f9/bld_nightly&#45;haldls.YmxkX25pZ2h0bHktaGFsZGxzIzQ5Nw.x/haldls/include/lola/v2/genpybind.h</title>
<polygon fill="white" stroke="transparent" points="-4,4 -4,-247 242.91,-247 242.91,4 -4,4"/>
<!-- Node1 -->
<g id="node1" class="node">
<title>Node1</title>
<g id="a_node1"><a xlink:title=" ">
<polygon fill="#bfbfbf" stroke="black" points="0,-186.5 0,-242.5 179.91,-242.5 179.91,-186.5 0,-186.5"/>
<text text-anchor="start" x="8" y="-229.5" font-family="Helvetica,sans-Serif" font-size="10.00">/jenkins/jenlib_workspaces</text>
<text text-anchor="start" x="8" y="-217.5" font-family="Helvetica,sans-Serif" font-size="10.00">_f9/bld_nightly&#45;haldls.YmxkX25p</text>
<text text-anchor="start" x="8" y="-205.5" font-family="Helvetica,sans-Serif" font-size="10.00">Z2h0bHktaGFsZGxzIzQ5Nw.x/haldls</text>
<text text-anchor="middle" x="89.95" y="-193.5" font-family="Helvetica,sans-Serif" font-size="10.00">/include/lola/v2/genpybind.h</text>
</a>
</g>
</g>
<!-- Node1&#45;&gt;Node1 -->
<g id="edge1" class="edge">
<title>Node1&#45;&gt;Node1</title>
<path fill="none" stroke="midnightblue" d="M189.76,-225.75C194.88,-222.97 197.91,-219.22 197.91,-214.5 197.91,-207.31 190.88,-202.37 180.12,-199.68"/>
<polygon fill="midnightblue" stroke="midnightblue" points="188.27,-222.57 180.12,-229.32 190.71,-229.13 188.27,-222.57"/>
</g>
<!-- Node2 -->
<g id="node2" class="node">
<title>Node2</title>
<g id="a_node2"><a xlink:href="v2_2lola_8h.html" target="_top" xlink:title=" ">
<polygon fill="white" stroke="black" points="0,-0.5 0,-56.5 179.91,-56.5 179.91,-0.5 0,-0.5"/>
<text text-anchor="start" x="8" y="-43.5" font-family="Helvetica,sans-Serif" font-size="10.00">/jenkins/jenlib_workspaces</text>
<text text-anchor="start" x="8" y="-31.5" font-family="Helvetica,sans-Serif" font-size="10.00">_f9/bld_nightly&#45;haldls.YmxkX25p</text>
<text text-anchor="start" x="8" y="-19.5" font-family="Helvetica,sans-Serif" font-size="10.00">Z2h0bHktaGFsZGxzIzQ5Nw.x/haldls</text>
<text text-anchor="middle" x="89.95" y="-7.5" font-family="Helvetica,sans-Serif" font-size="10.00">/include/lola/v2/lola.h</text>
</a>
</g>
</g>
<!-- Node1&#45;&gt;Node2 -->
<g id="edge2" class="edge">
<title>Node1&#45;&gt;Node2</title>
<path fill="none" stroke="midnightblue" d="M62.6,-177.73C57.4,-169.09 52.72,-159.57 49.95,-150 42.93,-125.66 42.93,-117.34 49.95,-93 53.68,-80.11 60.88,-67.31 68.16,-56.62"/>
<polygon fill="midnightblue" stroke="midnightblue" points="59.81,-179.86 68.16,-186.38 65.7,-176.08 59.81,-179.86"/>
</g>
<!-- Node3 -->
<g id="node3" class="node">
<title>Node3</title>
<g id="a_node3"><a xlink:href="v2_2ppu_8h.html" target="_top" xlink:title=" ">
<polygon fill="white" stroke="black" points="59,-93.5 59,-149.5 238.91,-149.5 238.91,-93.5 59,-93.5"/>
<text text-anchor="start" x="67" y="-136.5" font-family="Helvetica,sans-Serif" font-size="10.00">/jenkins/jenlib_workspaces</text>
<text text-anchor="start" x="67" y="-124.5" font-family="Helvetica,sans-Serif" font-size="10.00">_f9/bld_nightly&#45;haldls.YmxkX25p</text>
<text text-anchor="start" x="67" y="-112.5" font-family="Helvetica,sans-Serif" font-size="10.00">Z2h0bHktaGFsZGxzIzQ5Nw.x/haldls</text>
<text text-anchor="middle" x="148.95" y="-100.5" font-family="Helvetica,sans-Serif" font-size="10.00">/include/lola/v2/ppu.h</text>
</a>
</g>
</g>
<!-- Node1&#45;&gt;Node3 -->
<g id="edge3" class="edge">
<title>Node1&#45;&gt;Node3</title>
<path fill="none" stroke="midnightblue" d="M113.26,-177.55C119.25,-168.31 125.61,-158.51 131.26,-149.78"/>
<polygon fill="midnightblue" stroke="midnightblue" points="110.16,-175.9 107.65,-186.2 116.03,-179.71 110.16,-175.9"/>
</g>
<!-- Node3&#45;&gt;Node2 -->
<g id="edge4" class="edge">
<title>Node3&#45;&gt;Node2</title>
<path fill="none" stroke="midnightblue" d="M125.65,-84.55C119.65,-75.31 113.3,-65.51 107.64,-56.78"/>
<polygon fill="midnightblue" stroke="midnightblue" points="122.87,-86.71 131.25,-93.2 128.75,-82.9 122.87,-86.71"/>
</g>
</g>
</svg>
