<?xml version="1.0" encoding="UTF-8" standalone="no"?>
<!DOCTYPE svg PUBLIC "-//W3C//DTD SVG 1.1//EN"
 "http://www.w3.org/Graphics/SVG/1.1/DTD/svg11.dtd">
<!-- Generated by graphviz version 2.43.0 (0)
 -->
<!-- Title: /jenkins/jenlib_workspaces_f9/bld_nightly&#45;haldls.YmxkX25pZ2h0bHktaGFsZGxzIzcxMQ.x/haldls/include/lola/vx/v2/cadc.h Pages: 1 -->
<svg width="1499pt" height="191pt"
 viewBox="0.00 0.00 1498.63 191.00" xmlns="http://www.w3.org/2000/svg" xmlns:xlink="http://www.w3.org/1999/xlink">
<g id="graph0" class="graph" transform="scale(1 1) rotate(0) translate(4 187)">
<title>/jenkins/jenlib_workspaces_f9/bld_nightly&#45;haldls.YmxkX25pZ2h0bHktaGFsZGxzIzcxMQ.x/haldls/include/lola/vx/v2/cadc.h</title>
<polygon fill="white" stroke="transparent" points="-4,4 -4,-187 1494.63,-187 1494.63,4 -4,4"/>
<!-- Node0 -->
<g id="node1" class="node">
<title>Node0</title>
<g id="a_node1"><a xlink:title=" ">
<polygon fill="#bfbfbf" stroke="black" points="652.67,-126.5 652.67,-182.5 830.9,-182.5 830.9,-126.5 652.67,-126.5"/>
<text text-anchor="start" x="660.67" y="-169.5" font-family="Helvetica,sans-Serif" font-size="10.00">/jenkins/jenlib_workspaces</text>
<text text-anchor="start" x="660.67" y="-157.5" font-family="Helvetica,sans-Serif" font-size="10.00">_f9/bld_nightly&#45;haldls.YmxkX25p</text>
<text text-anchor="start" x="660.67" y="-145.5" font-family="Helvetica,sans-Serif" font-size="10.00">Z2h0bHktaGFsZGxzIzcxMQ.x/haldls</text>
<text text-anchor="middle" x="741.78" y="-133.5" font-family="Helvetica,sans-Serif" font-size="10.00">/include/lola/vx/v2/cadc.h</text>
</a>
</g>
</g>
<!-- Node1 -->
<g id="node2" class="node">
<title>Node1</title>
<g id="a_node2"><a xlink:title=" ">
<polygon fill="white" stroke="#bfbfbf" points="0,-63.5 0,-83.5 121.57,-83.5 121.57,-63.5 0,-63.5"/>
<text text-anchor="middle" x="60.78" y="-70.5" font-family="Helvetica,sans-Serif" font-size="10.00">halco/common/iter_all.h</text>
</a>
</g>
</g>
<!-- Node0&#45;&gt;Node1 -->
<g id="edge1" class="edge">
<title>Node0&#45;&gt;Node1</title>
<path fill="none" stroke="midnightblue" d="M652.57,-147.44C533.2,-138.6 315.14,-119.89 130.78,-90 123.35,-88.79 115.52,-87.29 107.9,-85.7"/>
<polygon fill="midnightblue" stroke="midnightblue" points="108.56,-82.27 98.05,-83.58 107.09,-89.11 108.56,-82.27"/>
</g>
<!-- Node2 -->
<g id="node3" class="node">
<title>Node2</title>
<g id="a_node3"><a xlink:title=" ">
<polygon fill="white" stroke="#bfbfbf" points="139.66,-57.5 139.66,-89.5 247.91,-89.5 247.91,-57.5 139.66,-57.5"/>
<text text-anchor="start" x="147.66" y="-76.5" font-family="Helvetica,sans-Serif" font-size="10.00">halco/common/typed</text>
<text text-anchor="middle" x="193.78" y="-64.5" font-family="Helvetica,sans-Serif" font-size="10.00">_array.h</text>
</a>
</g>
</g>
<!-- Node0&#45;&gt;Node2 -->
<g id="edge2" class="edge">
<title>Node0&#45;&gt;Node2</title>
<path fill="none" stroke="midnightblue" d="M652.37,-144.8C556.89,-134.83 401.06,-116.6 257.85,-90.08"/>
<polygon fill="midnightblue" stroke="midnightblue" points="258.47,-86.64 248,-88.24 257.18,-93.52 258.47,-86.64"/>
</g>
<!-- Node3 -->
<g id="node4" class="node">
<title>Node3</title>
<g id="a_node4"><a xlink:title=" ">
<polygon fill="white" stroke="#bfbfbf" points="265.66,-57.5 265.66,-89.5 373.91,-89.5 373.91,-57.5 265.66,-57.5"/>
<text text-anchor="start" x="273.66" y="-76.5" font-family="Helvetica,sans-Serif" font-size="10.00">halco/common/typed</text>
<text text-anchor="middle" x="319.78" y="-64.5" font-family="Helvetica,sans-Serif" font-size="10.00">_heap_array.h</text>
</a>
</g>
</g>
<!-- Node0&#45;&gt;Node3 -->
<g id="edge3" class="edge">
<title>Node0&#45;&gt;Node3</title>
<path fill="none" stroke="midnightblue" d="M652.58,-139.41C582.17,-127.89 481.25,-110.53 384.03,-90.19"/>
<polygon fill="midnightblue" stroke="midnightblue" points="384.53,-86.72 374.03,-88.09 383.09,-93.57 384.53,-86.72"/>
</g>
<!-- Node4 -->
<g id="node5" class="node">
<title>Node4</title>
<g id="a_node5"><a xlink:title=" ">
<polygon fill="white" stroke="#bfbfbf" points="392.11,-63.5 392.11,-83.5 501.46,-83.5 501.46,-63.5 392.11,-63.5"/>
<text text-anchor="middle" x="446.78" y="-70.5" font-family="Helvetica,sans-Serif" font-size="10.00">haldls/cerealization.h</text>
</a>
</g>
</g>
<!-- Node0&#45;&gt;Node4 -->
<g id="edge4" class="edge">
<title>Node0&#45;&gt;Node4</title>
<path fill="none" stroke="midnightblue" d="M652.47,-129.58C598.78,-115.2 532.84,-97.54 490.33,-86.16"/>
<polygon fill="midnightblue" stroke="midnightblue" points="491.14,-82.75 480.57,-83.55 489.33,-89.52 491.14,-82.75"/>
</g>
<!-- Node5 -->
<g id="node6" class="node">
<title>Node5</title>
<g id="a_node6"><a xlink:title=" ">
<polygon fill="white" stroke="#bfbfbf" points="519.61,-63.5 519.61,-83.5 623.96,-83.5 623.96,-63.5 519.61,-63.5"/>
<text text-anchor="middle" x="571.78" y="-70.5" font-family="Helvetica,sans-Serif" font-size="10.00">haldls/vx/common.h</text>
</a>
</g>
</g>
<!-- Node0&#45;&gt;Node5 -->
<g id="edge5" class="edge">
<title>Node0&#45;&gt;Node5</title>
<path fill="none" stroke="midnightblue" d="M683.28,-126.31C655.34,-113.33 623.15,-98.37 600.56,-87.87"/>
<polygon fill="midnightblue" stroke="midnightblue" points="601.75,-84.57 591.21,-83.53 598.8,-90.92 601.75,-84.57"/>
</g>
<!-- Node6 -->
<g id="node7" class="node">
<title>Node6</title>
<g id="a_node7"><a xlink:title=" ">
<polygon fill="white" stroke="#bfbfbf" points="641.95,-63.5 641.95,-83.5 729.62,-83.5 729.62,-63.5 641.95,-63.5"/>
<text text-anchor="middle" x="685.78" y="-70.5" font-family="Helvetica,sans-Serif" font-size="10.00">haldls/vx/traits.h</text>
</a>
</g>
</g>
<!-- Node0&#45;&gt;Node6 -->
<g id="edge6" class="edge">
<title>Node0&#45;&gt;Node6</title>
<path fill="none" stroke="midnightblue" d="M722.51,-126.31C714.47,-114.97 705.36,-102.12 698.23,-92.05"/>
<polygon fill="midnightblue" stroke="midnightblue" points="700.95,-89.85 692.32,-83.71 695.24,-93.9 700.95,-89.85"/>
</g>
<!-- Node7 -->
<g id="node8" class="node">
<title>Node7</title>
<g id="a_node8"><a xlink:title=" ">
<polygon fill="white" stroke="#bfbfbf" points="747.55,-63.5 747.55,-83.5 848.02,-83.5 848.02,-63.5 747.55,-63.5"/>
<text text-anchor="middle" x="797.78" y="-70.5" font-family="Helvetica,sans-Serif" font-size="10.00">haldls/vx/v2/cadc.h</text>
</a>
</g>
</g>
<!-- Node0&#45;&gt;Node7 -->
<g id="edge7" class="edge">
<title>Node0&#45;&gt;Node7</title>
<path fill="none" stroke="midnightblue" d="M761.06,-126.31C769.1,-114.97 778.21,-102.12 785.34,-92.05"/>
<polygon fill="midnightblue" stroke="midnightblue" points="788.33,-93.9 791.25,-83.71 782.61,-89.85 788.33,-93.9"/>
</g>
<!-- Node8 -->
<g id="node9" class="node">
<title>Node8</title>
<g id="a_node9"><a xlink:title=" ">
<polygon fill="white" stroke="#bfbfbf" points="866.28,-63.5 866.28,-83.5 947.29,-83.5 947.29,-63.5 866.28,-63.5"/>
<text text-anchor="middle" x="906.78" y="-70.5" font-family="Helvetica,sans-Serif" font-size="10.00">hate/visibility.h</text>
</a>
</g>
</g>
<!-- Node0&#45;&gt;Node8 -->
<g id="edge8" class="edge">
<title>Node0&#45;&gt;Node8</title>
<path fill="none" stroke="midnightblue" d="M798.57,-126.31C825.69,-113.33 856.93,-98.37 878.85,-87.87"/>
<polygon fill="midnightblue" stroke="midnightblue" points="880.42,-91 887.93,-83.53 877.4,-84.69 880.42,-91"/>
</g>
<!-- Node9 -->
<g id="node10" class="node">
<title>Node9</title>
<g id="a_node10"><a xlink:href="cerealization_8h.html" target="_top" xlink:title=" ">
<polygon fill="white" stroke="black" points="965,-63.5 965,-83.5 1076.57,-83.5 1076.57,-63.5 965,-63.5"/>
<text text-anchor="middle" x="1020.78" y="-70.5" font-family="Helvetica,sans-Serif" font-size="10.00">lola/vx/cerealization.h</text>
</a>
</g>
</g>
<!-- Node0&#45;&gt;Node9 -->
<g id="edge9" class="edge">
<title>Node0&#45;&gt;Node9</title>
<path fill="none" stroke="midnightblue" d="M831.21,-128.18C880.81,-114.13 940.15,-97.33 979.07,-86.31"/>
<polygon fill="midnightblue" stroke="midnightblue" points="980.32,-89.6 988.99,-83.5 978.41,-82.86 980.32,-89.6"/>
</g>
<!-- Node13 -->
<g id="node14" class="node">
<title>Node13</title>
<g id="a_node14"><a xlink:href="genpybind_8h.html" target="_top" xlink:title=" ">
<polygon fill="white" stroke="black" points="1094.99,-63.5 1094.99,-83.5 1196.58,-83.5 1196.58,-63.5 1094.99,-63.5"/>
<text text-anchor="middle" x="1145.78" y="-70.5" font-family="Helvetica,sans-Serif" font-size="10.00">lola/vx/genpybind.h</text>
</a>
</g>
</g>
<!-- Node0&#45;&gt;Node13 -->
<g id="edge13" class="edge">
<title>Node0&#45;&gt;Node13</title>
<path fill="none" stroke="midnightblue" d="M831.23,-138.76C900.86,-126.86 999.8,-109.02 1085.78,-90 1091.23,-88.79 1096.94,-87.44 1102.57,-86.05"/>
<polygon fill="midnightblue" stroke="midnightblue" points="1103.72,-89.37 1112.56,-83.53 1102.01,-82.58 1103.72,-89.37"/>
</g>
<!-- Node14 -->
<g id="node15" class="node">
<title>Node14</title>
<g id="a_node15"><a xlink:title=" ">
<polygon fill="white" stroke="#bfbfbf" points="1232.42,-63.5 1232.42,-83.5 1375.15,-83.5 1375.15,-63.5 1232.42,-63.5"/>
<text text-anchor="middle" x="1303.78" y="-70.5" font-family="Helvetica,sans-Serif" font-size="10.00">boost/hana/adapt_struct.hpp</text>
</a>
</g>
</g>
<!-- Node0&#45;&gt;Node14 -->
<g id="edge15" class="edge">
<title>Node0&#45;&gt;Node14</title>
<path fill="none" stroke="midnightblue" d="M831.3,-143.35C928.26,-131.97 1087.37,-112.18 1223.78,-90 1232.22,-88.63 1241.12,-87.04 1249.8,-85.42"/>
<polygon fill="midnightblue" stroke="midnightblue" points="1250.69,-88.81 1259.86,-83.51 1249.38,-81.94 1250.69,-88.81"/>
</g>
<!-- Node15 -->
<g id="node16" class="node">
<title>Node15</title>
<g id="a_node16"><a xlink:title=" ">
<polygon fill="white" stroke="#bfbfbf" points="1392.94,-63.5 1392.94,-83.5 1490.63,-83.5 1490.63,-63.5 1392.94,-63.5"/>
<text text-anchor="middle" x="1441.78" y="-70.5" font-family="Helvetica,sans-Serif" font-size="10.00">pybind11/numpy.h</text>
</a>
</g>
</g>
<!-- Node0&#45;&gt;Node15 -->
<g id="edge16" class="edge">
<title>Node0&#45;&gt;Node15</title>
<path fill="none" stroke="midnightblue" d="M830.95,-149.27C955.52,-142.32 1188.33,-125.54 1383.78,-90 1389.63,-88.94 1395.75,-87.58 1401.73,-86.11"/>
<polygon fill="midnightblue" stroke="midnightblue" points="1402.78,-89.45 1411.59,-83.56 1401.03,-82.67 1402.78,-89.45"/>
</g>
<!-- Node10 -->
<g id="node11" class="node">
<title>Node10</title>
<g id="a_node11"><a xlink:title=" ">
<polygon fill="white" stroke="#bfbfbf" points="897.72,-0.5 897.72,-20.5 959.85,-20.5 959.85,-0.5 897.72,-0.5"/>
<text text-anchor="middle" x="928.78" y="-7.5" font-family="Helvetica,sans-Serif" font-size="10.00">type_traits</text>
</a>
</g>
</g>
<!-- Node9&#45;&gt;Node10 -->
<g id="edge10" class="edge">
<title>Node9&#45;&gt;Node10</title>
<path fill="none" stroke="midnightblue" d="M1007.21,-63.5C992.4,-53.68 968.46,-37.81 950.92,-26.18"/>
<polygon fill="midnightblue" stroke="midnightblue" points="952.68,-23.15 942.42,-20.54 948.82,-28.98 952.68,-23.15"/>
</g>
<!-- Node11 -->
<g id="node12" class="node">
<title>Node11</title>
<g id="a_node12"><a xlink:title=" ">
<polygon fill="white" stroke="#bfbfbf" points="978.32,-0.5 978.32,-20.5 1063.25,-20.5 1063.25,-0.5 978.32,-0.5"/>
<text text-anchor="middle" x="1020.78" y="-7.5" font-family="Helvetica,sans-Serif" font-size="10.00">boost/hana.hpp</text>
</a>
</g>
</g>
<!-- Node9&#45;&gt;Node11 -->
<g id="edge11" class="edge">
<title>Node9&#45;&gt;Node11</title>
<path fill="none" stroke="midnightblue" d="M1020.78,-63.5C1020.78,-54.94 1020.78,-41.78 1020.78,-30.85"/>
<polygon fill="midnightblue" stroke="midnightblue" points="1024.28,-30.54 1020.78,-20.54 1017.28,-30.54 1024.28,-30.54"/>
</g>
<!-- Node12 -->
<g id="node13" class="node">
<title>Node12</title>
<g id="a_node13"><a xlink:title=" ">
<polygon fill="white" stroke="#bfbfbf" points="1081.67,-0.5 1081.67,-20.5 1179.9,-20.5 1179.9,-0.5 1081.67,-0.5"/>
<text text-anchor="middle" x="1130.78" y="-7.5" font-family="Helvetica,sans-Serif" font-size="10.00">cereal/macros.hpp</text>
</a>
</g>
</g>
<!-- Node9&#45;&gt;Node12 -->
<g id="edge12" class="edge">
<title>Node9&#45;&gt;Node12</title>
<path fill="none" stroke="midnightblue" d="M1037.02,-63.5C1055.05,-53.5 1084.4,-37.22 1105.46,-25.54"/>
<polygon fill="midnightblue" stroke="midnightblue" points="1107.44,-28.45 1114.49,-20.54 1104.04,-22.33 1107.44,-28.45"/>
</g>
<!-- Node13&#45;&gt;Node13 -->
<g id="edge14" class="edge">
<title>Node13&#45;&gt;Node13</title>
<path fill="none" stroke="midnightblue" d="M1172.26,-83.56C1193.15,-87.45 1214.58,-84.1 1214.58,-73.5 1214.58,-64.64 1199.6,-60.85 1182.49,-62.11"/>
<polygon fill="midnightblue" stroke="midnightblue" points="1181.72,-58.68 1172.26,-63.44 1182.63,-65.62 1181.72,-58.68"/>
</g>
</g>
</svg>
