<?xml version="1.0" encoding="UTF-8" standalone="no"?>
<!DOCTYPE svg PUBLIC "-//W3C//DTD SVG 1.1//EN"
 "http://www.w3.org/Graphics/SVG/1.1/DTD/svg11.dtd">
<!-- Generated by graphviz version 2.43.0 (0)
 -->
<!-- Title: /jenkins/jenlib_workspaces_f9/bld_nightly&#45;haldls.YmxkX25pZ2h0bHktaGFsZGxzIzcxMQ.x/haldls/include/lola/vx/v2/pylola.h Pages: 1 -->
<svg width="2658pt" height="455pt"
 viewBox="0.00 0.00 2657.80 455.00" xmlns="http://www.w3.org/2000/svg" xmlns:xlink="http://www.w3.org/1999/xlink">
<g id="graph0" class="graph" transform="scale(1 1) rotate(0) translate(4 451)">
<title>/jenkins/jenlib_workspaces_f9/bld_nightly&#45;haldls.YmxkX25pZ2h0bHktaGFsZGxzIzcxMQ.x/haldls/include/lola/vx/v2/pylola.h</title>
<polygon fill="white" stroke="transparent" points="-4,4 -4,-451 2653.8,-451 2653.8,4 -4,4"/>
<!-- Node0 -->
<g id="node1" class="node">
<title>Node0</title>
<g id="a_node1"><a xlink:title=" ">
<polygon fill="#bfbfbf" stroke="black" points="1072.45,-390.5 1072.45,-446.5 1250.69,-446.5 1250.69,-390.5 1072.45,-390.5"/>
<text text-anchor="start" x="1080.45" y="-433.5" font-family="Helvetica,sans-Serif" font-size="10.00">/jenkins/jenlib_workspaces</text>
<text text-anchor="start" x="1080.45" y="-421.5" font-family="Helvetica,sans-Serif" font-size="10.00">_f9/bld_nightly&#45;haldls.YmxkX25p</text>
<text text-anchor="start" x="1080.45" y="-409.5" font-family="Helvetica,sans-Serif" font-size="10.00">Z2h0bHktaGFsZGxzIzcxMQ.x/haldls</text>
<text text-anchor="middle" x="1161.57" y="-397.5" font-family="Helvetica,sans-Serif" font-size="10.00">/include/lola/vx/v2/pylola.h</text>
</a>
</g>
</g>
<!-- Node1 -->
<g id="node2" class="node">
<title>Node1</title>
<g id="a_node2"><a xlink:title=" ">
<polygon fill="white" stroke="#bfbfbf" points="694.95,-333.5 694.95,-353.5 738.18,-353.5 738.18,-333.5 694.95,-333.5"/>
<text text-anchor="middle" x="716.57" y="-340.5" font-family="Helvetica,sans-Serif" font-size="10.00">vector</text>
</a>
</g>
</g>
<!-- Node0&#45;&gt;Node1 -->
<g id="edge1" class="edge">
<title>Node0&#45;&gt;Node1</title>
<path fill="none" stroke="midnightblue" d="M1072.43,-407.63C990.41,-397.67 865.39,-380.31 748.33,-353.89"/>
<polygon fill="midnightblue" stroke="midnightblue" points="749,-350.46 738.48,-351.64 747.45,-357.28 749,-350.46"/>
</g>
<!-- Node2 -->
<g id="node3" class="node">
<title>Node2</title>
<g id="a_node3"><a xlink:title=" ">
<polygon fill="white" stroke="#bfbfbf" points="756.44,-333.5 756.44,-353.5 864.7,-353.5 864.7,-333.5 756.44,-333.5"/>
<text text-anchor="middle" x="810.57" y="-340.5" font-family="Helvetica,sans-Serif" font-size="10.00">pybind11/pybind11.h</text>
</a>
</g>
</g>
<!-- Node0&#45;&gt;Node2 -->
<g id="edge2" class="edge">
<title>Node0&#45;&gt;Node2</title>
<path fill="none" stroke="midnightblue" d="M1072.09,-398.89C1006.31,-385.21 919.12,-367.08 863.91,-355.6"/>
<polygon fill="midnightblue" stroke="midnightblue" points="864.49,-352.14 853.99,-353.53 863.07,-358.99 864.49,-352.14"/>
</g>
<!-- Node3 -->
<g id="node4" class="node">
<title>Node3</title>
<g id="a_node4"><a xlink:title=" ">
<polygon fill="white" stroke="#bfbfbf" points="882.28,-333.5 882.28,-353.5 998.85,-353.5 998.85,-333.5 882.28,-333.5"/>
<text text-anchor="middle" x="940.57" y="-340.5" font-family="Helvetica,sans-Serif" font-size="10.00">haldls/cerealization.tcc</text>
</a>
</g>
</g>
<!-- Node0&#45;&gt;Node3 -->
<g id="edge3" class="edge">
<title>Node0&#45;&gt;Node3</title>
<path fill="none" stroke="midnightblue" d="M1079.59,-390.42C1044.58,-378.86 1005.47,-365.94 977.67,-356.76"/>
<polygon fill="midnightblue" stroke="midnightblue" points="978.56,-353.37 967.97,-353.55 976.37,-360.01 978.56,-353.37"/>
</g>
<!-- Node4 -->
<g id="node5" class="node">
<title>Node4</title>
<g id="a_node5"><a xlink:href="genpybind_8h.html" target="_top" xlink:title=" ">
<polygon fill="white" stroke="black" points="808.77,-63.5 808.77,-83.5 910.36,-83.5 910.36,-63.5 808.77,-63.5"/>
<text text-anchor="middle" x="859.57" y="-70.5" font-family="Helvetica,sans-Serif" font-size="10.00">lola/vx/genpybind.h</text>
</a>
</g>
</g>
<!-- Node0&#45;&gt;Node4 -->
<g id="edge4" class="edge">
<title>Node0&#45;&gt;Node4</title>
<path fill="none" stroke="midnightblue" d="M1133.32,-390.43C1098.23,-356.37 1037.08,-295.61 988.57,-240 943.43,-188.25 894.82,-122.98 872.33,-92.16"/>
<polygon fill="midnightblue" stroke="midnightblue" points="874.93,-89.78 866.22,-83.75 869.27,-93.9 874.93,-89.78"/>
</g>
<!-- Node5 -->
<g id="node6" class="node">
<title>Node5</title>
<g id="a_node6"><a xlink:title=" ">
<polygon fill="white" stroke="#bfbfbf" points="1163.89,-63.5 1163.89,-83.5 1273.24,-83.5 1273.24,-63.5 1163.89,-63.5"/>
<text text-anchor="middle" x="1218.57" y="-70.5" font-family="Helvetica,sans-Serif" font-size="10.00">haldls/cerealization.h</text>
</a>
</g>
</g>
<!-- Node0&#45;&gt;Node5 -->
<g id="edge6" class="edge">
<title>Node0&#45;&gt;Node5</title>
<path fill="none" stroke="midnightblue" d="M1161.57,-390.36C1161.57,-364.06 1161.57,-323.05 1161.57,-287.5 1161.57,-287.5 1161.57,-287.5 1161.57,-210.5 1161.57,-164.87 1189.2,-116.86 1205.98,-91.89"/>
<polygon fill="midnightblue" stroke="midnightblue" points="1208.98,-93.72 1211.8,-83.51 1203.23,-89.73 1208.98,-93.72"/>
</g>
<!-- Node6 -->
<g id="node7" class="node">
<title>Node6</title>
<g id="a_node7"><a xlink:title=" ">
<polygon fill="white" stroke="#bfbfbf" points="2099.78,-333.5 2099.78,-353.5 2191.35,-353.5 2191.35,-333.5 2099.78,-333.5"/>
<text text-anchor="middle" x="2145.57" y="-340.5" font-family="Helvetica,sans-Serif" font-size="10.00">haldls/vx/pickle.h</text>
</a>
</g>
</g>
<!-- Node0&#45;&gt;Node6 -->
<g id="edge7" class="edge">
<title>Node0&#45;&gt;Node6</title>
<path fill="none" stroke="midnightblue" d="M1251,-413.98C1416.25,-406.91 1780.4,-388.58 2085.57,-354 2086.86,-353.85 2088.18,-353.7 2089.5,-353.54"/>
<polygon fill="midnightblue" stroke="midnightblue" points="2090.31,-356.96 2099.76,-352.18 2089.39,-350.02 2090.31,-356.96"/>
</g>
<!-- Node7 -->
<g id="node8" class="node">
<title>Node7</title>
<g id="a_node8"><a xlink:href="cerealization_8h.html" target="_top" xlink:title=" ">
<polygon fill="white" stroke="black" points="2293.78,-63.5 2293.78,-83.5 2405.35,-83.5 2405.35,-63.5 2293.78,-63.5"/>
<text text-anchor="middle" x="2349.57" y="-70.5" font-family="Helvetica,sans-Serif" font-size="10.00">lola/vx/cerealization.h</text>
</a>
</g>
</g>
<!-- Node0&#45;&gt;Node7 -->
<g id="edge8" class="edge">
<title>Node0&#45;&gt;Node7</title>
<path fill="none" stroke="midnightblue" d="M1250.89,-414.02C1480.17,-403.91 2071.57,-369.84 2071.57,-287.5 2071.57,-287.5 2071.57,-287.5 2071.57,-210.5 2071.57,-159.14 2226.59,-108.65 2305.11,-86.37"/>
<polygon fill="midnightblue" stroke="midnightblue" points="2306.52,-89.61 2315.2,-83.54 2304.63,-82.87 2306.52,-89.61"/>
</g>
<!-- Node11 -->
<g id="node12" class="node">
<title>Node11</title>
<g id="a_node12"><a xlink:href="v2_2lola_8h.html" target="_top" xlink:title=" ">
<polygon fill="white" stroke="black" points="1296.39,-333.5 1296.39,-353.5 1380.74,-353.5 1380.74,-333.5 1296.39,-333.5"/>
<text text-anchor="middle" x="1338.57" y="-340.5" font-family="Helvetica,sans-Serif" font-size="10.00">lola/vx/v2/lola.h</text>
</a>
</g>
</g>
<!-- Node0&#45;&gt;Node11 -->
<g id="edge12" class="edge">
<title>Node0&#45;&gt;Node11</title>
<path fill="none" stroke="midnightblue" d="M1227.22,-390.42C1254.65,-379.11 1285.21,-366.5 1307.37,-357.37"/>
<polygon fill="midnightblue" stroke="midnightblue" points="1308.71,-360.6 1316.62,-353.55 1306.04,-354.13 1308.71,-360.6"/>
</g>
<!-- Node42 -->
<g id="node43" class="node">
<title>Node42</title>
<g id="a_node43"><a xlink:title=" ">
<polygon fill="white" stroke="#bfbfbf" points="2209.44,-333.5 2209.44,-353.5 2327.69,-353.5 2327.69,-333.5 2209.44,-333.5"/>
<text text-anchor="middle" x="2268.57" y="-340.5" font-family="Helvetica,sans-Serif" font-size="10.00">lola/vx/v2/container.def</text>
</a>
</g>
</g>
<!-- Node0&#45;&gt;Node42 -->
<g id="edge77" class="edge">
<title>Node0&#45;&gt;Node42</title>
<path fill="none" stroke="midnightblue" d="M1250.7,-414.39C1428.95,-407.66 1842.16,-389.5 2199.25,-354.06"/>
<polygon fill="midnightblue" stroke="midnightblue" points="2199.66,-357.54 2209.26,-353.06 2198.96,-350.57 2199.66,-357.54"/>
</g>
<!-- Node4&#45;&gt;Node4 -->
<g id="edge5" class="edge">
<title>Node4&#45;&gt;Node4</title>
<path fill="none" stroke="midnightblue" d="M886.04,-83.56C906.93,-87.45 928.36,-84.1 928.36,-73.5 928.36,-64.64 913.38,-60.85 896.27,-62.11"/>
<polygon fill="midnightblue" stroke="midnightblue" points="895.51,-58.68 886.04,-63.44 896.41,-65.62 895.51,-58.68"/>
</g>
<!-- Node8 -->
<g id="node9" class="node">
<title>Node8</title>
<g id="a_node9"><a xlink:title=" ">
<polygon fill="white" stroke="#bfbfbf" points="2226.51,-0.5 2226.51,-20.5 2288.63,-20.5 2288.63,-0.5 2226.51,-0.5"/>
<text text-anchor="middle" x="2257.57" y="-7.5" font-family="Helvetica,sans-Serif" font-size="10.00">type_traits</text>
</a>
</g>
</g>
<!-- Node7&#45;&gt;Node8 -->
<g id="edge9" class="edge">
<title>Node7&#45;&gt;Node8</title>
<path fill="none" stroke="midnightblue" d="M2335.99,-63.5C2321.18,-53.68 2297.24,-37.81 2279.7,-26.18"/>
<polygon fill="midnightblue" stroke="midnightblue" points="2281.47,-23.15 2271.2,-20.54 2277.6,-28.98 2281.47,-23.15"/>
</g>
<!-- Node9 -->
<g id="node10" class="node">
<title>Node9</title>
<g id="a_node10"><a xlink:title=" ">
<polygon fill="white" stroke="#bfbfbf" points="2307.1,-0.5 2307.1,-20.5 2392.03,-20.5 2392.03,-0.5 2307.1,-0.5"/>
<text text-anchor="middle" x="2349.57" y="-7.5" font-family="Helvetica,sans-Serif" font-size="10.00">boost/hana.hpp</text>
</a>
</g>
</g>
<!-- Node7&#45;&gt;Node9 -->
<g id="edge10" class="edge">
<title>Node7&#45;&gt;Node9</title>
<path fill="none" stroke="midnightblue" d="M2349.57,-63.5C2349.57,-54.94 2349.57,-41.78 2349.57,-30.85"/>
<polygon fill="midnightblue" stroke="midnightblue" points="2353.07,-30.54 2349.57,-20.54 2346.07,-30.54 2353.07,-30.54"/>
</g>
<!-- Node10 -->
<g id="node11" class="node">
<title>Node10</title>
<g id="a_node11"><a xlink:title=" ">
<polygon fill="white" stroke="#bfbfbf" points="2410.45,-0.5 2410.45,-20.5 2508.68,-20.5 2508.68,-0.5 2410.45,-0.5"/>
<text text-anchor="middle" x="2459.57" y="-7.5" font-family="Helvetica,sans-Serif" font-size="10.00">cereal/macros.hpp</text>
</a>
</g>
</g>
<!-- Node7&#45;&gt;Node10 -->
<g id="edge11" class="edge">
<title>Node7&#45;&gt;Node10</title>
<path fill="none" stroke="midnightblue" d="M2365.8,-63.5C2383.83,-53.5 2413.18,-37.22 2434.25,-25.54"/>
<polygon fill="midnightblue" stroke="midnightblue" points="2436.22,-28.45 2443.27,-20.54 2432.83,-22.33 2436.22,-28.45"/>
</g>
<!-- Node12 -->
<g id="node13" class="node">
<title>Node12</title>
<g id="a_node13"><a xlink:href="v2_2container_8h.html" target="_top" xlink:title=" ">
<polygon fill="white" stroke="black" points="1376.61,-276.5 1376.61,-296.5 1486.52,-296.5 1486.52,-276.5 1376.61,-276.5"/>
<text text-anchor="middle" x="1431.57" y="-283.5" font-family="Helvetica,sans-Serif" font-size="10.00">lola/vx/v2/container.h</text>
</a>
</g>
</g>
<!-- Node11&#45;&gt;Node12 -->
<g id="edge13" class="edge">
<title>Node11&#45;&gt;Node12</title>
<path fill="none" stroke="midnightblue" d="M1353.92,-333.42C1368.46,-324.82 1390.52,-311.78 1407.41,-301.78"/>
<polygon fill="midnightblue" stroke="midnightblue" points="1409.36,-304.7 1416.19,-296.6 1405.8,-298.67 1409.36,-304.7"/>
</g>
<!-- Node12&#45;&gt;Node7 -->
<g id="edge50" class="edge">
<title>Node12&#45;&gt;Node7</title>
<path fill="none" stroke="midnightblue" d="M1486.59,-286.2C1605.79,-286.85 1883.71,-283.49 1965.57,-240 2023.06,-209.45 2001.21,-158.61 2057.57,-126 2145.98,-74.84 2184.37,-109.86 2284.57,-90 2290.84,-88.76 2297.43,-87.33 2303.9,-85.86"/>
<polygon fill="midnightblue" stroke="midnightblue" points="2304.97,-89.2 2313.91,-83.52 2303.38,-82.38 2304.97,-89.2"/>
</g>
<!-- Node13 -->
<g id="node14" class="node">
<title>Node13</title>
<g id="a_node14"><a xlink:href="v2_2cadc_8h.html" target="_top" xlink:title=" ">
<polygon fill="white" stroke="black" points="1915.61,-126.5 1915.61,-146.5 2005.52,-146.5 2005.52,-126.5 1915.61,-126.5"/>
<text text-anchor="middle" x="1960.57" y="-133.5" font-family="Helvetica,sans-Serif" font-size="10.00">lola/vx/v2/cadc.h</text>
</a>
</g>
</g>
<!-- Node12&#45;&gt;Node13 -->
<g id="edge14" class="edge">
<title>Node12&#45;&gt;Node13</title>
<path fill="none" stroke="midnightblue" d="M1486.9,-284.25C1611.82,-280.9 1907.41,-269.89 1940.57,-240 1963.71,-219.13 1964.79,-180.08 1963.01,-156.67"/>
<polygon fill="midnightblue" stroke="midnightblue" points="1966.47,-156.18 1961.98,-146.58 1959.51,-156.89 1966.47,-156.18"/>
</g>
<!-- Node21 -->
<g id="node22" class="node">
<title>Node21</title>
<g id="a_node22"><a xlink:title=" ">
<polygon fill="white" stroke="#bfbfbf" points="1388.2,-63.5 1388.2,-83.5 1530.93,-83.5 1530.93,-63.5 1388.2,-63.5"/>
<text text-anchor="middle" x="1459.57" y="-70.5" font-family="Helvetica,sans-Serif" font-size="10.00">boost/hana/adapt_struct.hpp</text>
</a>
</g>
</g>
<!-- Node12&#45;&gt;Node21 -->
<g id="edge51" class="edge">
<title>Node12&#45;&gt;Node21</title>
<path fill="none" stroke="midnightblue" d="M1387.47,-276.44C1367.41,-269.88 1345.53,-258.74 1333.57,-240 1319.94,-218.65 1323.01,-206.03 1333.57,-183 1353.74,-139.01 1401.53,-106.1 1432.12,-88.63"/>
<polygon fill="midnightblue" stroke="midnightblue" points="1433.95,-91.61 1441,-83.71 1430.56,-85.49 1433.95,-91.61"/>
</g>
<!-- Node23 -->
<g id="node24" class="node">
<title>Node23</title>
<g id="a_node24"><a xlink:href="v2_2dac_8h.html" target="_top" xlink:title=" ">
<polygon fill="white" stroke="black" points="1202.11,-201.5 1202.11,-221.5 1287.02,-221.5 1287.02,-201.5 1202.11,-201.5"/>
<text text-anchor="middle" x="1244.57" y="-208.5" font-family="Helvetica,sans-Serif" font-size="10.00">lola/vx/v2/dac.h</text>
</a>
</g>
</g>
<!-- Node12&#45;&gt;Node23 -->
<g id="edge27" class="edge">
<title>Node12&#45;&gt;Node23</title>
<path fill="none" stroke="midnightblue" d="M1402.31,-276.47C1375.5,-267.93 1334.89,-254.33 1300.57,-240 1290.77,-235.91 1280.28,-230.93 1271.05,-226.33"/>
<polygon fill="midnightblue" stroke="midnightblue" points="1272.47,-223.13 1261.97,-221.73 1269.31,-229.37 1272.47,-223.13"/>
</g>
<!-- Node27 -->
<g id="node28" class="node">
<title>Node27</title>
<g id="a_node28"><a xlink:href="v2_2neuron_8h.html" target="_top" xlink:title=" ">
<polygon fill="white" stroke="black" points="558.61,-126.5 558.61,-146.5 658.52,-146.5 658.52,-126.5 558.61,-126.5"/>
<text text-anchor="middle" x="608.57" y="-133.5" font-family="Helvetica,sans-Serif" font-size="10.00">lola/vx/v2/neuron.h</text>
</a>
</g>
</g>
<!-- Node12&#45;&gt;Node27 -->
<g id="edge41" class="edge">
<title>Node12&#45;&gt;Node27</title>
<path fill="none" stroke="midnightblue" d="M1376.6,-282.71C1292.47,-277.79 1126.93,-265.59 988.57,-240 860.75,-216.36 713.06,-171.25 645.61,-149.64"/>
<polygon fill="midnightblue" stroke="midnightblue" points="646.46,-146.23 635.87,-146.5 644.32,-152.9 646.46,-146.23"/>
</g>
<!-- Node31 -->
<g id="node32" class="node">
<title>Node31</title>
<g id="a_node32"><a xlink:title=" ">
<polygon fill="white" stroke="#bfbfbf" points="1342.45,-183.5 1342.45,-239.5 1520.69,-239.5 1520.69,-183.5 1342.45,-183.5"/>
<text text-anchor="start" x="1350.45" y="-226.5" font-family="Helvetica,sans-Serif" font-size="10.00">/jenkins/jenlib_workspaces</text>
<text text-anchor="start" x="1350.45" y="-214.5" font-family="Helvetica,sans-Serif" font-size="10.00">_f9/bld_nightly&#45;haldls.YmxkX25p</text>
<text text-anchor="start" x="1350.45" y="-202.5" font-family="Helvetica,sans-Serif" font-size="10.00">Z2h0bHktaGFsZGxzIzcxMQ.x/haldls</text>
<text text-anchor="middle" x="1431.57" y="-190.5" font-family="Helvetica,sans-Serif" font-size="10.00">/include/haldls/cerealization.h</text>
</a>
</g>
</g>
<!-- Node12&#45;&gt;Node31 -->
<g id="edge47" class="edge">
<title>Node12&#45;&gt;Node31</title>
<path fill="none" stroke="midnightblue" d="M1431.57,-276.25C1431.57,-269.42 1431.57,-259.63 1431.57,-249.76"/>
<polygon fill="midnightblue" stroke="midnightblue" points="1435.07,-249.57 1431.57,-239.57 1428.07,-249.57 1435.07,-249.57"/>
</g>
<!-- Node32 -->
<g id="node33" class="node">
<title>Node32</title>
<g id="a_node33"><a xlink:title=" ">
<polygon fill="white" stroke="#bfbfbf" points="1538.45,-183.5 1538.45,-239.5 1716.69,-239.5 1716.69,-183.5 1538.45,-183.5"/>
<text text-anchor="start" x="1546.45" y="-226.5" font-family="Helvetica,sans-Serif" font-size="10.00">/jenkins/jenlib_workspaces</text>
<text text-anchor="start" x="1546.45" y="-214.5" font-family="Helvetica,sans-Serif" font-size="10.00">_f9/bld_nightly&#45;haldls.YmxkX25p</text>
<text text-anchor="start" x="1546.45" y="-202.5" font-family="Helvetica,sans-Serif" font-size="10.00">Z2h0bHktaGFsZGxzIzcxMQ.x/haldls</text>
<text text-anchor="middle" x="1627.57" y="-190.5" font-family="Helvetica,sans-Serif" font-size="10.00">/include/haldls/vx/common.h</text>
</a>
</g>
</g>
<!-- Node12&#45;&gt;Node32 -->
<g id="edge48" class="edge">
<title>Node12&#45;&gt;Node32</title>
<path fill="none" stroke="midnightblue" d="M1455.99,-276.4C1478.5,-268.02 1513.22,-255.09 1545.55,-243.05"/>
<polygon fill="midnightblue" stroke="midnightblue" points="1546.89,-246.28 1555.04,-239.51 1544.44,-239.72 1546.89,-246.28"/>
</g>
<!-- Node33 -->
<g id="node34" class="node">
<title>Node33</title>
<g id="a_node34"><a xlink:title=" ">
<polygon fill="white" stroke="#bfbfbf" points="1734.45,-183.5 1734.45,-239.5 1912.69,-239.5 1912.69,-183.5 1734.45,-183.5"/>
<text text-anchor="start" x="1742.45" y="-226.5" font-family="Helvetica,sans-Serif" font-size="10.00">/jenkins/jenlib_workspaces</text>
<text text-anchor="start" x="1742.45" y="-214.5" font-family="Helvetica,sans-Serif" font-size="10.00">_f9/bld_nightly&#45;haldls.YmxkX25p</text>
<text text-anchor="start" x="1742.45" y="-202.5" font-family="Helvetica,sans-Serif" font-size="10.00">Z2h0bHktaGFsZGxzIzcxMQ.x/haldls</text>
<text text-anchor="middle" x="1823.57" y="-190.5" font-family="Helvetica,sans-Serif" font-size="10.00">/include/haldls/vx/neuron.h</text>
</a>
</g>
</g>
<!-- Node12&#45;&gt;Node33 -->
<g id="edge49" class="edge">
<title>Node12&#45;&gt;Node33</title>
<path fill="none" stroke="midnightblue" d="M1486.66,-278.98C1543.86,-271.76 1636.08,-258.87 1724.31,-240.18"/>
<polygon fill="midnightblue" stroke="midnightblue" points="1725.18,-243.57 1734.22,-238.05 1723.71,-236.73 1725.18,-243.57"/>
</g>
<!-- Node34 -->
<g id="node35" class="node">
<title>Node34</title>
<g id="a_node35"><a xlink:href="v2_2ppu_8h.html" target="_top" xlink:title=" ">
<polygon fill="white" stroke="black" points="997.83,-201.5 997.83,-221.5 1083.3,-221.5 1083.3,-201.5 997.83,-201.5"/>
<text text-anchor="middle" x="1040.57" y="-208.5" font-family="Helvetica,sans-Serif" font-size="10.00">lola/vx/v2/ppu.h</text>
</a>
</g>
</g>
<!-- Node12&#45;&gt;Node34 -->
<g id="edge52" class="edge">
<title>Node12&#45;&gt;Node34</title>
<path fill="none" stroke="midnightblue" d="M1383.23,-276.48C1309.51,-262.71 1169.53,-236.58 1093.28,-222.34"/>
<polygon fill="midnightblue" stroke="midnightblue" points="1093.88,-218.89 1083.41,-220.5 1092.59,-225.77 1093.88,-218.89"/>
</g>
<!-- Node40 -->
<g id="node41" class="node">
<title>Node40</title>
<g id="a_node41"><a xlink:href="v2_2synapse_8h.html" target="_top" xlink:title=" ">
<polygon fill="white" stroke="black" points="1791.55,-126.5 1791.55,-146.5 1897.58,-146.5 1897.58,-126.5 1791.55,-126.5"/>
<text text-anchor="middle" x="1844.57" y="-133.5" font-family="Helvetica,sans-Serif" font-size="10.00">lola/vx/v2/synapse.h</text>
</a>
</g>
</g>
<!-- Node12&#45;&gt;Node40 -->
<g id="edge64" class="edge">
<title>Node12&#45;&gt;Node40</title>
<path fill="none" stroke="midnightblue" d="M1486.6,-284.47C1608.49,-281.63 1892.72,-271.65 1921.57,-240 1938.63,-221.28 1934.12,-205 1921.57,-183 1913.23,-168.4 1898.17,-158.01 1883.57,-150.88"/>
<polygon fill="midnightblue" stroke="midnightblue" points="1884.67,-147.54 1874.11,-146.65 1881.82,-153.93 1884.67,-147.54"/>
</g>
<!-- Node13&#45;&gt;Node4 -->
<g id="edge24" class="edge">
<title>Node13&#45;&gt;Node4</title>
<path fill="none" stroke="midnightblue" d="M1915.55,-127.11C1912.52,-126.69 1909.5,-126.31 1906.57,-126 1477.56,-80.52 1364.98,-140.73 936.57,-90 927.32,-88.9 917.52,-87.29 908.13,-85.51"/>
<polygon fill="midnightblue" stroke="midnightblue" points="908.64,-82.04 898.15,-83.54 907.28,-88.91 908.64,-82.04"/>
</g>
<!-- Node13&#45;&gt;Node5 -->
<g id="edge18" class="edge">
<title>Node13&#45;&gt;Node5</title>
<path fill="none" stroke="midnightblue" d="M1915.54,-127.17C1912.51,-126.74 1909.5,-126.34 1906.57,-126 1630.64,-93.88 1557.34,-130.86 1282.57,-90 1275.58,-88.96 1268.23,-87.52 1261.11,-85.93"/>
<polygon fill="midnightblue" stroke="midnightblue" points="1261.44,-82.41 1250.9,-83.53 1259.83,-89.23 1261.44,-82.41"/>
</g>
<!-- Node13&#45;&gt;Node7 -->
<g id="edge23" class="edge">
<title>Node13&#45;&gt;Node7</title>
<path fill="none" stroke="midnightblue" d="M2005.65,-128.12C2010.35,-127.39 2015.05,-126.67 2019.57,-126 2137.14,-108.55 2167.73,-111.81 2284.57,-90 2291.16,-88.77 2298.08,-87.31 2304.86,-85.78"/>
<polygon fill="midnightblue" stroke="midnightblue" points="2305.67,-89.18 2314.62,-83.51 2304.09,-82.36 2305.67,-89.18"/>
</g>
<!-- Node14 -->
<g id="node15" class="node">
<title>Node14</title>
<g id="a_node15"><a xlink:title=" ">
<polygon fill="white" stroke="#bfbfbf" points="1683.78,-63.5 1683.78,-83.5 1805.35,-83.5 1805.35,-63.5 1683.78,-63.5"/>
<text text-anchor="middle" x="1744.57" y="-70.5" font-family="Helvetica,sans-Serif" font-size="10.00">halco/common/iter_all.h</text>
</a>
</g>
</g>
<!-- Node13&#45;&gt;Node14 -->
<g id="edge15" class="edge">
<title>Node13&#45;&gt;Node14</title>
<path fill="none" stroke="midnightblue" d="M1928.7,-126.5C1890.97,-115.84 1828.02,-98.07 1786.4,-86.31"/>
<polygon fill="midnightblue" stroke="midnightblue" points="1787.14,-82.89 1776.57,-83.54 1785.24,-89.62 1787.14,-82.89"/>
</g>
<!-- Node15 -->
<g id="node16" class="node">
<title>Node15</title>
<g id="a_node16"><a xlink:title=" ">
<polygon fill="white" stroke="#bfbfbf" points="1823.44,-57.5 1823.44,-89.5 1931.69,-89.5 1931.69,-57.5 1823.44,-57.5"/>
<text text-anchor="start" x="1831.44" y="-76.5" font-family="Helvetica,sans-Serif" font-size="10.00">halco/common/typed</text>
<text text-anchor="middle" x="1877.57" y="-64.5" font-family="Helvetica,sans-Serif" font-size="10.00">_array.h</text>
</a>
</g>
</g>
<!-- Node13&#45;&gt;Node15 -->
<g id="edge16" class="edge">
<title>Node13&#45;&gt;Node15</title>
<path fill="none" stroke="midnightblue" d="M1948.32,-126.5C1937.31,-118.41 1920.72,-106.21 1906.37,-95.67"/>
<polygon fill="midnightblue" stroke="midnightblue" points="1908.37,-92.79 1898.24,-89.69 1904.22,-98.43 1908.37,-92.79"/>
</g>
<!-- Node16 -->
<g id="node17" class="node">
<title>Node16</title>
<g id="a_node17"><a xlink:title=" ">
<polygon fill="white" stroke="#bfbfbf" points="2423.44,-57.5 2423.44,-89.5 2531.69,-89.5 2531.69,-57.5 2423.44,-57.5"/>
<text text-anchor="start" x="2431.44" y="-76.5" font-family="Helvetica,sans-Serif" font-size="10.00">halco/common/typed</text>
<text text-anchor="middle" x="2477.57" y="-64.5" font-family="Helvetica,sans-Serif" font-size="10.00">_heap_array.h</text>
</a>
</g>
</g>
<!-- Node13&#45;&gt;Node16 -->
<g id="edge17" class="edge">
<title>Node13&#45;&gt;Node16</title>
<path fill="none" stroke="midnightblue" d="M2005.64,-133.1C2085.78,-128.37 2258.42,-116.12 2413.21,-90.08"/>
<polygon fill="midnightblue" stroke="midnightblue" points="2414.1,-93.48 2423.37,-88.35 2412.93,-86.58 2414.1,-93.48"/>
</g>
<!-- Node17 -->
<g id="node18" class="node">
<title>Node17</title>
<g id="a_node18"><a xlink:title=" ">
<polygon fill="white" stroke="#bfbfbf" points="1949.39,-63.5 1949.39,-83.5 2053.74,-83.5 2053.74,-63.5 1949.39,-63.5"/>
<text text-anchor="middle" x="2001.57" y="-70.5" font-family="Helvetica,sans-Serif" font-size="10.00">haldls/vx/common.h</text>
</a>
</g>
</g>
<!-- Node13&#45;&gt;Node17 -->
<g id="edge19" class="edge">
<title>Node13&#45;&gt;Node17</title>
<path fill="none" stroke="midnightblue" d="M1966.62,-126.5C1972.67,-117.49 1982.15,-103.39 1989.71,-92.14"/>
<polygon fill="midnightblue" stroke="midnightblue" points="1992.82,-93.79 1995.49,-83.54 1987.01,-89.88 1992.82,-93.79"/>
</g>
<!-- Node18 -->
<g id="node19" class="node">
<title>Node18</title>
<g id="a_node19"><a xlink:title=" ">
<polygon fill="white" stroke="#bfbfbf" points="2071.73,-63.5 2071.73,-83.5 2159.41,-83.5 2159.41,-63.5 2071.73,-63.5"/>
<text text-anchor="middle" x="2115.57" y="-70.5" font-family="Helvetica,sans-Serif" font-size="10.00">haldls/vx/traits.h</text>
</a>
</g>
</g>
<!-- Node13&#45;&gt;Node18 -->
<g id="edge20" class="edge">
<title>Node13&#45;&gt;Node18</title>
<path fill="none" stroke="midnightblue" d="M1983.44,-126.5C2009.77,-116.14 2053.21,-99.04 2083.05,-87.3"/>
<polygon fill="midnightblue" stroke="midnightblue" points="2084.58,-90.46 2092.6,-83.54 2082.02,-83.94 2084.58,-90.46"/>
</g>
<!-- Node19 -->
<g id="node20" class="node">
<title>Node19</title>
<g id="a_node20"><a xlink:title=" ">
<polygon fill="white" stroke="#bfbfbf" points="2549.33,-63.5 2549.33,-83.5 2649.8,-83.5 2649.8,-63.5 2549.33,-63.5"/>
<text text-anchor="middle" x="2599.57" y="-70.5" font-family="Helvetica,sans-Serif" font-size="10.00">haldls/vx/v2/cadc.h</text>
</a>
</g>
</g>
<!-- Node13&#45;&gt;Node19 -->
<g id="edge21" class="edge">
<title>Node13&#45;&gt;Node19</title>
<path fill="none" stroke="midnightblue" d="M2005.66,-134.7C2103.65,-132.36 2343.13,-123.4 2540.57,-90 2546.8,-88.94 2553.34,-87.54 2559.7,-86"/>
<polygon fill="midnightblue" stroke="midnightblue" points="2560.65,-89.37 2569.47,-83.51 2558.92,-82.59 2560.65,-89.37"/>
</g>
<!-- Node20 -->
<g id="node21" class="node">
<title>Node20</title>
<g id="a_node21"><a xlink:title=" ">
<polygon fill="white" stroke="#bfbfbf" points="946.06,-63.5 946.06,-83.5 1027.07,-83.5 1027.07,-63.5 946.06,-63.5"/>
<text text-anchor="middle" x="986.57" y="-70.5" font-family="Helvetica,sans-Serif" font-size="10.00">hate/visibility.h</text>
</a>
</g>
</g>
<!-- Node13&#45;&gt;Node20 -->
<g id="edge22" class="edge">
<title>Node13&#45;&gt;Node20</title>
<path fill="none" stroke="midnightblue" d="M1915.55,-127.12C1912.52,-126.7 1909.5,-126.32 1906.57,-126 1521.37,-84.34 1417.17,-157.01 1035.57,-90 1030.66,-89.14 1025.57,-87.92 1020.6,-86.53"/>
<polygon fill="midnightblue" stroke="midnightblue" points="1021.26,-83.07 1010.68,-83.52 1019.23,-89.77 1021.26,-83.07"/>
</g>
<!-- Node13&#45;&gt;Node21 -->
<g id="edge25" class="edge">
<title>Node13&#45;&gt;Node21</title>
<path fill="none" stroke="midnightblue" d="M1915.53,-127.31C1912.5,-126.84 1909.49,-126.4 1906.57,-126 1744.63,-103.82 1702.34,-113.38 1540.57,-90 1531.51,-88.69 1521.93,-87.07 1512.65,-85.37"/>
<polygon fill="midnightblue" stroke="midnightblue" points="1513.22,-81.92 1502.74,-83.52 1511.93,-88.8 1513.22,-81.92"/>
</g>
<!-- Node22 -->
<g id="node23" class="node">
<title>Node22</title>
<g id="a_node23"><a xlink:title=" ">
<polygon fill="white" stroke="#bfbfbf" points="2177.72,-63.5 2177.72,-83.5 2275.41,-83.5 2275.41,-63.5 2177.72,-63.5"/>
<text text-anchor="middle" x="2226.57" y="-70.5" font-family="Helvetica,sans-Serif" font-size="10.00">pybind11/numpy.h</text>
</a>
</g>
</g>
<!-- Node13&#45;&gt;Node22 -->
<g id="edge26" class="edge">
<title>Node13&#45;&gt;Node22</title>
<path fill="none" stroke="midnightblue" d="M2004.53,-126.49C2046.72,-117.71 2112.17,-103.7 2168.57,-90 2173.57,-88.79 2178.79,-87.46 2183.98,-86.12"/>
<polygon fill="midnightblue" stroke="midnightblue" points="2185.03,-89.46 2193.81,-83.53 2183.25,-82.69 2185.03,-89.46"/>
</g>
<!-- Node23&#45;&gt;Node4 -->
<g id="edge40" class="edge">
<title>Node23&#45;&gt;Node4</title>
<path fill="none" stroke="midnightblue" d="M1229.56,-201.3C1201.1,-184.2 1136.87,-147.34 1078.57,-126 1048.7,-115.07 968.2,-97.2 913.58,-85.65"/>
<polygon fill="midnightblue" stroke="midnightblue" points="914.2,-82.2 903.7,-83.57 912.76,-89.05 914.2,-82.2"/>
</g>
<!-- Node24 -->
<g id="node25" class="node">
<title>Node24</title>
<g id="a_node25"><a xlink:href="dac_8h.html" target="_top" xlink:title=" ">
<polygon fill="white" stroke="black" points="1227.78,-126.5 1227.78,-146.5 1299.35,-146.5 1299.35,-126.5 1227.78,-126.5"/>
<text text-anchor="middle" x="1263.57" y="-133.5" font-family="Helvetica,sans-Serif" font-size="10.00">lola/vx/dac.h</text>
</a>
</g>
</g>
<!-- Node23&#45;&gt;Node24 -->
<g id="edge28" class="edge">
<title>Node23&#45;&gt;Node24</title>
<path fill="none" stroke="midnightblue" d="M1246.97,-201.25C1249.87,-190.13 1254.81,-171.14 1258.55,-156.78"/>
<polygon fill="midnightblue" stroke="midnightblue" points="1261.99,-157.46 1261.12,-146.9 1255.21,-155.7 1261.99,-157.46"/>
</g>
<!-- Node24&#45;&gt;Node4 -->
<g id="edge38" class="edge">
<title>Node24&#45;&gt;Node4</title>
<path fill="none" stroke="midnightblue" d="M1227.56,-128.4C1222.86,-127.55 1218.1,-126.73 1213.57,-126 1090.98,-106.4 1059.05,-110.26 936.57,-90 928.53,-88.67 920.06,-87.12 911.78,-85.52"/>
<polygon fill="midnightblue" stroke="midnightblue" points="912.32,-82.06 901.83,-83.56 910.97,-88.93 912.32,-82.06"/>
</g>
<!-- Node24&#45;&gt;Node5 -->
<g id="edge32" class="edge">
<title>Node24&#45;&gt;Node5</title>
<path fill="none" stroke="midnightblue" d="M1256.93,-126.5C1250.21,-117.4 1239.67,-103.1 1231.33,-91.8"/>
<polygon fill="midnightblue" stroke="midnightblue" points="1233.99,-89.51 1225.23,-83.54 1228.35,-93.66 1233.99,-89.51"/>
</g>
<!-- Node24&#45;&gt;Node7 -->
<g id="edge37" class="edge">
<title>Node24&#45;&gt;Node7</title>
<path fill="none" stroke="midnightblue" d="M1299.53,-134.81C1457.2,-131.66 2088.32,-117.52 2284.57,-90 2291.91,-88.97 2299.64,-87.49 2307.11,-85.84"/>
<polygon fill="midnightblue" stroke="midnightblue" points="2308.12,-89.2 2317.06,-83.53 2306.53,-82.38 2308.12,-89.2"/>
</g>
<!-- Node24&#45;&gt;Node14 -->
<g id="edge29" class="edge">
<title>Node24&#45;&gt;Node14</title>
<path fill="none" stroke="midnightblue" d="M1299.48,-132.83C1371.13,-127.22 1536.81,-112.81 1674.57,-90 1682,-88.77 1689.82,-87.26 1697.44,-85.66"/>
<polygon fill="midnightblue" stroke="midnightblue" points="1698.26,-89.07 1707.29,-83.53 1696.78,-82.22 1698.26,-89.07"/>
</g>
<!-- Node24&#45;&gt;Node15 -->
<g id="edge30" class="edge">
<title>Node24&#45;&gt;Node15</title>
<path fill="none" stroke="midnightblue" d="M1299.58,-134.5C1386.43,-131.68 1614.29,-121.77 1813.33,-90.04"/>
<polygon fill="midnightblue" stroke="midnightblue" points="1814.07,-93.46 1823.38,-88.41 1812.95,-86.55 1814.07,-93.46"/>
</g>
<!-- Node24&#45;&gt;Node17 -->
<g id="edge33" class="edge">
<title>Node24&#45;&gt;Node17</title>
<path fill="none" stroke="midnightblue" d="M1299.42,-135.38C1400.77,-134.53 1697.72,-128.68 1940.57,-90 1947.01,-88.97 1953.77,-87.58 1960.34,-86.05"/>
<polygon fill="midnightblue" stroke="midnightblue" points="1961.57,-89.35 1970.45,-83.57 1959.9,-82.56 1961.57,-89.35"/>
</g>
<!-- Node24&#45;&gt;Node18 -->
<g id="edge35" class="edge">
<title>Node24&#45;&gt;Node18</title>
<path fill="none" stroke="midnightblue" d="M1299.42,-134.54C1434.5,-130.77 1912.64,-115.84 2062.57,-90 2068.06,-89.05 2073.79,-87.74 2079.37,-86.27"/>
<polygon fill="midnightblue" stroke="midnightblue" points="2080.48,-89.59 2089.15,-83.51 2078.58,-82.85 2080.48,-89.59"/>
</g>
<!-- Node24&#45;&gt;Node20 -->
<g id="edge36" class="edge">
<title>Node24&#45;&gt;Node20</title>
<path fill="none" stroke="midnightblue" d="M1227.74,-128.57C1168.29,-117.05 1053.94,-94.72 1035.57,-90 1031.48,-88.95 1027.24,-87.76 1023.03,-86.52"/>
<polygon fill="midnightblue" stroke="midnightblue" points="1023.96,-83.14 1013.37,-83.56 1021.91,-89.83 1023.96,-83.14"/>
</g>
<!-- Node24&#45;&gt;Node21 -->
<g id="edge39" class="edge">
<title>Node24&#45;&gt;Node21</title>
<path fill="none" stroke="midnightblue" d="M1292.49,-126.5C1326.5,-115.91 1383.12,-98.29 1420.88,-86.54"/>
<polygon fill="midnightblue" stroke="midnightblue" points="1422.02,-89.85 1430.53,-83.54 1419.94,-83.17 1422.02,-89.85"/>
</g>
<!-- Node25 -->
<g id="node26" class="node">
<title>Node25</title>
<g id="a_node26"><a xlink:title=" ">
<polygon fill="white" stroke="#bfbfbf" points="1045.06,-57.5 1045.06,-89.5 1146.08,-89.5 1146.08,-57.5 1045.06,-57.5"/>
<text text-anchor="start" x="1053.06" y="-76.5" font-family="Helvetica,sans-Serif" font-size="10.00">halco/hicann&#45;dls/vx</text>
<text text-anchor="middle" x="1095.57" y="-64.5" font-family="Helvetica,sans-Serif" font-size="10.00">/dac.h</text>
</a>
</g>
</g>
<!-- Node24&#45;&gt;Node25 -->
<g id="edge31" class="edge">
<title>Node24&#45;&gt;Node25</title>
<path fill="none" stroke="midnightblue" d="M1238.78,-126.5C1214.65,-117.74 1177.25,-104.16 1146.72,-93.07"/>
<polygon fill="midnightblue" stroke="midnightblue" points="1147.67,-89.7 1137.08,-89.57 1145.28,-96.28 1147.67,-89.7"/>
</g>
<!-- Node26 -->
<g id="node27" class="node">
<title>Node26</title>
<g id="a_node27"><a xlink:title=" ">
<polygon fill="white" stroke="#bfbfbf" points="1291.17,-63.5 1291.17,-83.5 1369.96,-83.5 1369.96,-63.5 1291.17,-63.5"/>
<text text-anchor="middle" x="1330.57" y="-70.5" font-family="Helvetica,sans-Serif" font-size="10.00">haldls/vx/spi.h</text>
</a>
</g>
</g>
<!-- Node24&#45;&gt;Node26 -->
<g id="edge34" class="edge">
<title>Node24&#45;&gt;Node26</title>
<path fill="none" stroke="midnightblue" d="M1273.45,-126.5C1283.84,-117.04 1300.4,-101.96 1313.02,-90.47"/>
<polygon fill="midnightblue" stroke="midnightblue" points="1315.6,-92.86 1320.64,-83.54 1310.89,-87.68 1315.6,-92.86"/>
</g>
<!-- Node27&#45;&gt;Node4 -->
<g id="edge45" class="edge">
<title>Node27&#45;&gt;Node4</title>
<path fill="none" stroke="midnightblue" d="M647.98,-126.45C686.84,-117.47 747.89,-103.16 800.57,-90 805.51,-88.76 810.69,-87.45 815.82,-86.12"/>
<polygon fill="midnightblue" stroke="midnightblue" points="816.8,-89.48 825.6,-83.57 815.04,-82.71 816.8,-89.48"/>
</g>
<!-- Node27&#45;&gt;Node20 -->
<g id="edge44" class="edge">
<title>Node27&#45;&gt;Node20</title>
<path fill="none" stroke="midnightblue" d="M658.64,-131.23C723.55,-125.09 839.98,-112.02 937.57,-90 941.99,-89 946.6,-87.79 951.13,-86.48"/>
<polygon fill="midnightblue" stroke="midnightblue" points="952.3,-89.79 960.85,-83.53 950.27,-83.09 952.3,-89.79"/>
</g>
<!-- Node28 -->
<g id="node29" class="node">
<title>Node28</title>
<g id="a_node29"><a xlink:title=" ">
<polygon fill="white" stroke="#bfbfbf" points="124.73,-63.5 124.73,-83.5 242.41,-83.5 242.41,-63.5 124.73,-63.5"/>
<text text-anchor="middle" x="183.57" y="-70.5" font-family="Helvetica,sans-Serif" font-size="10.00">haldls/vx/v2/capmem.h</text>
</a>
</g>
</g>
<!-- Node27&#45;&gt;Node28 -->
<g id="edge42" class="edge">
<title>Node27&#45;&gt;Node28</title>
<path fill="none" stroke="midnightblue" d="M558.37,-130.66C489.07,-123.62 360.31,-109.28 251.57,-90 244.68,-88.78 237.43,-87.32 230.35,-85.79"/>
<polygon fill="midnightblue" stroke="midnightblue" points="230.66,-82.27 220.14,-83.52 229.14,-89.11 230.66,-82.27"/>
</g>
<!-- Node29 -->
<g id="node30" class="node">
<title>Node29</title>
<g id="a_node30"><a xlink:title=" ">
<polygon fill="white" stroke="#bfbfbf" points="260.33,-63.5 260.33,-83.5 370.8,-83.5 370.8,-63.5 260.33,-63.5"/>
<text text-anchor="middle" x="315.57" y="-70.5" font-family="Helvetica,sans-Serif" font-size="10.00">haldls/vx/v2/neuron.h</text>
</a>
</g>
</g>
<!-- Node27&#45;&gt;Node29 -->
<g id="edge43" class="edge">
<title>Node27&#45;&gt;Node29</title>
<path fill="none" stroke="midnightblue" d="M560.2,-126.49C513.76,-117.7 441.71,-103.69 379.57,-90 373.77,-88.72 367.7,-87.33 361.7,-85.91"/>
<polygon fill="midnightblue" stroke="midnightblue" points="362.26,-82.45 351.72,-83.53 360.64,-89.26 362.26,-82.45"/>
</g>
<!-- Node30 -->
<g id="node31" class="node">
<title>Node30</title>
<g id="a_node31"><a xlink:title=" ">
<polygon fill="white" stroke="#bfbfbf" points="0,-63.5 0,-83.5 107.13,-83.5 107.13,-63.5 0,-63.5"/>
<text text-anchor="middle" x="53.57" y="-70.5" font-family="Helvetica,sans-Serif" font-size="10.00">lola/vx/v2/neuron.tcc</text>
</a>
</g>
</g>
<!-- Node27&#45;&gt;Node30 -->
<g id="edge46" class="edge">
<title>Node27&#45;&gt;Node30</title>
<path fill="none" stroke="midnightblue" d="M558.56,-133.41C469.13,-129.12 276.14,-117.32 115.57,-90 109.18,-88.91 102.48,-87.52 95.94,-86.01"/>
<polygon fill="midnightblue" stroke="midnightblue" points="96.41,-82.52 85.87,-83.57 94.76,-89.32 96.41,-82.52"/>
</g>
<!-- Node34&#45;&gt;Node4 -->
<g id="edge53" class="edge">
<title>Node34&#45;&gt;Node4</title>
<path fill="none" stroke="midnightblue" d="M1031.62,-201.5C1015.33,-185.34 979.37,-150.82 945.57,-126 926.51,-112.01 903.46,-98.37 886.02,-88.64"/>
<polygon fill="midnightblue" stroke="midnightblue" points="887.42,-85.42 876.98,-83.66 884.05,-91.55 887.42,-85.42"/>
</g>
<!-- Node35 -->
<g id="node36" class="node">
<title>Node35</title>
<g id="a_node36"><a xlink:href="ppu_8h.html" target="_top" xlink:title=" ">
<polygon fill="white" stroke="black" points="997.5,-126.5 997.5,-146.5 1069.63,-146.5 1069.63,-126.5 997.5,-126.5"/>
<text text-anchor="middle" x="1033.57" y="-133.5" font-family="Helvetica,sans-Serif" font-size="10.00">lola/vx/ppu.h</text>
</a>
</g>
</g>
<!-- Node34&#45;&gt;Node35 -->
<g id="edge54" class="edge">
<title>Node34&#45;&gt;Node35</title>
<path fill="none" stroke="midnightblue" d="M1039.68,-201.25C1038.62,-190.24 1036.83,-171.52 1035.46,-157.2"/>
<polygon fill="midnightblue" stroke="midnightblue" points="1038.91,-156.52 1034.47,-146.9 1031.94,-157.19 1038.91,-156.52"/>
</g>
<!-- Node35&#45;&gt;Node4 -->
<g id="edge59" class="edge">
<title>Node35&#45;&gt;Node4</title>
<path fill="none" stroke="midnightblue" d="M1007.89,-126.5C978.08,-116.05 928.72,-98.74 895.2,-86.99"/>
<polygon fill="midnightblue" stroke="midnightblue" points="895.94,-83.54 885.35,-83.54 893.63,-90.15 895.94,-83.54"/>
</g>
<!-- Node35&#45;&gt;Node5 -->
<g id="edge56" class="edge">
<title>Node35&#45;&gt;Node5</title>
<path fill="none" stroke="midnightblue" d="M1060.86,-126.5C1092.84,-115.96 1145.95,-98.44 1181.6,-86.69"/>
<polygon fill="midnightblue" stroke="midnightblue" points="1182.76,-89.99 1191.16,-83.54 1180.56,-83.35 1182.76,-89.99"/>
</g>
<!-- Node35&#45;&gt;Node7 -->
<g id="edge58" class="edge">
<title>Node35&#45;&gt;Node7</title>
<path fill="none" stroke="midnightblue" d="M1069.72,-133.46C1107,-131.39 1166.84,-128.2 1218.57,-126 1692.19,-105.84 1814.76,-153.3 2284.57,-90 2292.08,-88.99 2300,-87.48 2307.62,-85.8"/>
<polygon fill="midnightblue" stroke="midnightblue" points="2308.46,-89.2 2317.41,-83.52 2306.87,-82.38 2308.46,-89.2"/>
</g>
<!-- Node35&#45;&gt;Node20 -->
<g id="edge57" class="edge">
<title>Node35&#45;&gt;Node20</title>
<path fill="none" stroke="midnightblue" d="M1026.63,-126.5C1019.55,-117.31 1008.39,-102.82 999.64,-91.47"/>
<polygon fill="midnightblue" stroke="midnightblue" points="1002.41,-89.32 993.53,-83.54 996.86,-93.6 1002.41,-89.32"/>
</g>
<!-- Node35&#45;&gt;Node21 -->
<g id="edge60" class="edge">
<title>Node35&#45;&gt;Node21</title>
<path fill="none" stroke="midnightblue" d="M1069.93,-131.41C1132.94,-124.16 1266.44,-108.11 1378.57,-90 1387,-88.64 1395.9,-87.07 1404.59,-85.46"/>
<polygon fill="midnightblue" stroke="midnightblue" points="1405.48,-88.86 1414.66,-83.57 1404.19,-81.98 1405.48,-88.86"/>
</g>
<!-- Node36 -->
<g id="node37" class="node">
<title>Node36</title>
<g id="a_node37"><a xlink:title=" ">
<polygon fill="white" stroke="#bfbfbf" points="389.06,-57.5 389.06,-89.5 490.07,-89.5 490.07,-57.5 389.06,-57.5"/>
<text text-anchor="start" x="397.06" y="-76.5" font-family="Helvetica,sans-Serif" font-size="10.00">halco/hicann&#45;dls/vx</text>
<text text-anchor="middle" x="439.57" y="-64.5" font-family="Helvetica,sans-Serif" font-size="10.00">/coordinates.h</text>
</a>
</g>
</g>
<!-- Node35&#45;&gt;Node36 -->
<g id="edge55" class="edge">
<title>Node35&#45;&gt;Node36</title>
<path fill="none" stroke="midnightblue" d="M997.29,-134.56C911.99,-131.91 692.04,-122.39 500.27,-90.12"/>
<polygon fill="midnightblue" stroke="midnightblue" points="500.74,-86.65 490.29,-88.42 499.56,-93.55 500.74,-86.65"/>
</g>
<!-- Node37 -->
<g id="node38" class="node">
<title>Node37</title>
<g id="a_node38"><a xlink:title=" ">
<polygon fill="white" stroke="#bfbfbf" points="507.83,-63.5 507.83,-83.5 593.3,-83.5 593.3,-63.5 507.83,-63.5"/>
<text text-anchor="middle" x="550.57" y="-70.5" font-family="Helvetica,sans-Serif" font-size="10.00">haldls/vx/fpga.h</text>
</a>
</g>
</g>
<!-- Node35&#45;&gt;Node37 -->
<g id="edge61" class="edge">
<title>Node35&#45;&gt;Node37</title>
<path fill="none" stroke="midnightblue" d="M997.47,-133.94C923,-130.23 747.18,-118.93 602.57,-90 597.5,-88.99 592.22,-87.7 587.05,-86.29"/>
<polygon fill="midnightblue" stroke="midnightblue" points="587.9,-82.9 577.32,-83.5 585.96,-89.62 587.9,-82.9"/>
</g>
<!-- Node38 -->
<g id="node39" class="node">
<title>Node38</title>
<g id="a_node39"><a xlink:title=" ">
<polygon fill="white" stroke="#bfbfbf" points="611.22,-63.5 611.22,-83.5 693.91,-83.5 693.91,-63.5 611.22,-63.5"/>
<text text-anchor="middle" x="652.57" y="-70.5" font-family="Helvetica,sans-Serif" font-size="10.00">haldls/vx/ppu.h</text>
</a>
</g>
</g>
<!-- Node35&#45;&gt;Node38 -->
<g id="edge62" class="edge">
<title>Node35&#45;&gt;Node38</title>
<path fill="none" stroke="midnightblue" d="M997.47,-132.49C936.26,-126.96 808.46,-113.52 702.57,-90 698.05,-89 693.36,-87.78 688.73,-86.48"/>
<polygon fill="midnightblue" stroke="midnightblue" points="689.4,-83.02 678.82,-83.52 687.4,-89.73 689.4,-83.02"/>
</g>
<!-- Node39 -->
<g id="node40" class="node">
<title>Node39</title>
<g id="a_node40"><a xlink:title=" ">
<polygon fill="white" stroke="#bfbfbf" points="711.89,-63.5 711.89,-83.5 791.24,-83.5 791.24,-63.5 711.89,-63.5"/>
<text text-anchor="middle" x="751.57" y="-70.5" font-family="Helvetica,sans-Serif" font-size="10.00">lola/vx/ppu.tcc</text>
</a>
</g>
</g>
<!-- Node35&#45;&gt;Node39 -->
<g id="edge63" class="edge">
<title>Node35&#45;&gt;Node39</title>
<path fill="none" stroke="midnightblue" d="M997.19,-129.82C950.91,-122.28 868.7,-107.81 799.57,-90 795.51,-88.96 791.3,-87.76 787.13,-86.51"/>
<polygon fill="midnightblue" stroke="midnightblue" points="788.15,-83.16 777.56,-83.52 786.06,-89.84 788.15,-83.16"/>
</g>
<!-- Node40&#45;&gt;Node4 -->
<g id="edge74" class="edge">
<title>Node40&#45;&gt;Node4</title>
<path fill="none" stroke="midnightblue" d="M1791.36,-135.59C1651.02,-135.22 1259.4,-130.35 936.57,-90 927.43,-88.86 917.75,-87.24 908.45,-85.47"/>
<polygon fill="midnightblue" stroke="midnightblue" points="909.04,-82.02 898.55,-83.52 907.69,-88.89 909.04,-82.02"/>
</g>
<!-- Node40&#45;&gt;Node5 -->
<g id="edge68" class="edge">
<title>Node40&#45;&gt;Node5</title>
<path fill="none" stroke="midnightblue" d="M1791.55,-133.98C1691.48,-130.49 1468.14,-119.79 1282.57,-90 1275.74,-88.9 1268.57,-87.46 1261.6,-85.9"/>
<polygon fill="midnightblue" stroke="midnightblue" points="1262.12,-82.42 1251.58,-83.54 1260.52,-89.24 1262.12,-82.42"/>
</g>
<!-- Node40&#45;&gt;Node7 -->
<g id="edge73" class="edge">
<title>Node40&#45;&gt;Node7</title>
<path fill="none" stroke="midnightblue" d="M1897.64,-127.16C1900.66,-126.75 1903.65,-126.36 1906.57,-126 2074.04,-105.21 2118.09,-117.64 2284.57,-90 2291.41,-88.86 2298.6,-87.41 2305.61,-85.86"/>
<polygon fill="midnightblue" stroke="midnightblue" points="2306.72,-89.19 2315.68,-83.52 2305.14,-82.37 2306.72,-89.19"/>
</g>
<!-- Node40&#45;&gt;Node14 -->
<g id="edge65" class="edge">
<title>Node40&#45;&gt;Node14</title>
<path fill="none" stroke="midnightblue" d="M1829.81,-126.5C1813.56,-116.59 1787.21,-100.51 1768.11,-88.86"/>
<polygon fill="midnightblue" stroke="midnightblue" points="1769.74,-85.76 1759.38,-83.54 1766.1,-91.73 1769.74,-85.76"/>
</g>
<!-- Node40&#45;&gt;Node15 -->
<g id="edge66" class="edge">
<title>Node40&#45;&gt;Node15</title>
<path fill="none" stroke="midnightblue" d="M1849.44,-126.5C1853.4,-119.17 1859.2,-108.46 1864.5,-98.66"/>
<polygon fill="midnightblue" stroke="midnightblue" points="1867.67,-100.15 1869.35,-89.69 1861.51,-96.82 1867.67,-100.15"/>
</g>
<!-- Node40&#45;&gt;Node16 -->
<g id="edge67" class="edge">
<title>Node40&#45;&gt;Node16</title>
<path fill="none" stroke="midnightblue" d="M1897.63,-127.08C1900.65,-126.69 1903.65,-126.33 1906.57,-126 2128.21,-101.21 2189.19,-124.46 2413.29,-90.03"/>
<polygon fill="midnightblue" stroke="midnightblue" points="2414.05,-93.45 2423.39,-88.45 2412.97,-86.53 2414.05,-93.45"/>
</g>
<!-- Node40&#45;&gt;Node17 -->
<g id="edge69" class="edge">
<title>Node40&#45;&gt;Node17</title>
<path fill="none" stroke="midnightblue" d="M1867.73,-126.5C1894.4,-116.14 1938.41,-99.04 1968.63,-87.3"/>
<polygon fill="midnightblue" stroke="midnightblue" points="1970.25,-90.42 1978.31,-83.54 1967.72,-83.9 1970.25,-90.42"/>
</g>
<!-- Node40&#45;&gt;Node18 -->
<g id="edge70" class="edge">
<title>Node40&#45;&gt;Node18</title>
<path fill="none" stroke="midnightblue" d="M1893.3,-126.47C1937.65,-117.98 2004.81,-104.45 2062.57,-90 2067.03,-88.88 2071.68,-87.64 2076.29,-86.36"/>
<polygon fill="midnightblue" stroke="midnightblue" points="2077.59,-89.63 2086.24,-83.52 2075.67,-82.9 2077.59,-89.63"/>
</g>
<!-- Node40&#45;&gt;Node20 -->
<g id="edge72" class="edge">
<title>Node40&#45;&gt;Node20</title>
<path fill="none" stroke="midnightblue" d="M1791.34,-134.24C1635.39,-130.28 1181.37,-116.72 1035.57,-90 1030.72,-89.11 1025.69,-87.89 1020.77,-86.51"/>
<polygon fill="midnightblue" stroke="midnightblue" points="1021.52,-83.08 1010.94,-83.53 1019.49,-89.78 1021.52,-83.08"/>
</g>
<!-- Node40&#45;&gt;Node21 -->
<g id="edge75" class="edge">
<title>Node40&#45;&gt;Node21</title>
<path fill="none" stroke="midnightblue" d="M1791.47,-128.22C1730.71,-119.73 1628.29,-104.95 1540.57,-90 1532.25,-88.58 1523.47,-87 1514.88,-85.39"/>
<polygon fill="midnightblue" stroke="midnightblue" points="1515.39,-81.93 1504.92,-83.51 1514.1,-88.81 1515.39,-81.93"/>
</g>
<!-- Node40&#45;&gt;Node22 -->
<g id="edge76" class="edge">
<title>Node40&#45;&gt;Node22</title>
<path fill="none" stroke="midnightblue" d="M1897.66,-127.31C1900.67,-126.86 1903.66,-126.42 1906.57,-126 2022.88,-109.1 2053.34,-113.22 2168.57,-90 2174.12,-88.88 2179.94,-87.54 2185.64,-86.12"/>
<polygon fill="midnightblue" stroke="midnightblue" points="2186.93,-89.4 2195.73,-83.5 2185.17,-82.62 2186.93,-89.4"/>
</g>
<!-- Node41 -->
<g id="node42" class="node">
<title>Node41</title>
<g id="a_node42"><a xlink:title=" ">
<polygon fill="white" stroke="#bfbfbf" points="1549.27,-63.5 1549.27,-83.5 1665.86,-83.5 1665.86,-63.5 1549.27,-63.5"/>
<text text-anchor="middle" x="1607.57" y="-70.5" font-family="Helvetica,sans-Serif" font-size="10.00">haldls/vx/v2/synapse.h</text>
</a>
</g>
</g>
<!-- Node40&#45;&gt;Node41 -->
<g id="edge71" class="edge">
<title>Node40&#45;&gt;Node41</title>
<path fill="none" stroke="midnightblue" d="M1809.6,-126.5C1767.94,-115.78 1698.26,-97.84 1652.6,-86.09"/>
<polygon fill="midnightblue" stroke="midnightblue" points="1653.24,-82.64 1642.68,-83.54 1651.49,-89.42 1653.24,-82.64"/>
</g>
</g>
</svg>
