<?xml version="1.0" encoding="UTF-8" standalone="no"?>
<!DOCTYPE svg PUBLIC "-//W3C//DTD SVG 1.1//EN"
 "http://www.w3.org/Graphics/SVG/1.1/DTD/svg11.dtd">
<!-- Generated by graphviz version 2.43.0 (0)
 -->
<!-- Title: /jenkins/jenlib_workspaces_f9/bld_nightly&#45;haldls.YmxkX25pZ2h0bHktaGFsZGxzIzcxMQ.x/haldls/include/lola/vx/v2/ppu.h Pages: 1 -->
<!--zoomable 248 -->
<svg id="main" version="1.1" xmlns="http://www.w3.org/2000/svg" xmlns:xlink="http://www.w3.org/1999/xlink" xml:space="preserve" onload="init(evt)">
<style type="text/css"><![CDATA[
.edge:hover path { stroke: red; }
.edge:hover polygon { stroke: red; fill: red; }
]]></style>
<script type="text/javascript"><![CDATA[
var edges = document.getElementsByTagName('g');
if (edges && edges.length) {
  for (var i=0;i<edges.length;i++) {
    if (edges[i].id.substr(0,4)=='edge') {
      edges[i].setAttribute('class','edge');
    }
  }
}
]]></script>
        <defs>
                <circle id="rim" cx="0" cy="0" r="7"/>
                <circle id="rim2" cx="0" cy="0" r="3.5"/>
                <g id="zoomPlus">
                        <use xlink:href="#rim" fill="#404040">
                                <set attributeName="fill" to="#808080" begin="zoomplus.mouseover" end="zoomplus.mouseout"/>
                        </use>
                        <path d="M-4,0h8M0,-4v8" fill="none" stroke="white" stroke-width="1.5" pointer-events="none"/>
                </g>
                <g id="zoomMin">
                        <use xlink:href="#rim" fill="#404040">
                                <set attributeName="fill" to="#808080" begin="zoomminus.mouseover" end="zoomminus.mouseout"/>
                        </use>
                        <path d="M-4,0h8" fill="none" stroke="white" stroke-width="1.5" pointer-events="none"/>
                </g>
                <g id="dirArrow">
                        <path fill="none" stroke="white" stroke-width="1.5" d="M0,-3.0v7 M-2.5,-0.5L0,-3.0L2.5,-0.5"/>
                </g>
               <g id="resetDef">
                       <use xlink:href="#rim2" fill="#404040">
                               <set attributeName="fill" to="#808080" begin="reset.mouseover" end="reset.mouseout"/>
                       </use>
               </g>
        </defs>

<script type="text/javascript">
var viewWidth = 1063;
var viewHeight = 248;
var sectionId = 'dynsection-0';
</script>
<script xlink:href="svgpan.js"/>
<svg id="graph" class="graph">
<g id="viewport">
<title>/jenkins/jenlib_workspaces_f9/bld_nightly&#45;haldls.YmxkX25pZ2h0bHktaGFsZGxzIzcxMQ.x/haldls/include/lola/vx/v2/ppu.h</title>
<polygon fill="white" stroke="transparent" points="-4,4 -4,-244 1059.47,-244 1059.47,4 -4,4"/>
<!-- Node0 -->
<g id="node1" class="node">
<title>Node0</title>
<g id="a_node1"><a xlink:title=" ">
<polygon fill="#bfbfbf" stroke="black" points="205.67,-183.5 205.67,-239.5 383.91,-239.5 383.91,-183.5 205.67,-183.5"/>
<text text-anchor="start" x="213.67" y="-226.5" font-family="Helvetica,sans-Serif" font-size="10.00">/jenkins/jenlib_workspaces</text>
<text text-anchor="start" x="213.67" y="-214.5" font-family="Helvetica,sans-Serif" font-size="10.00">_f9/bld_nightly&#45;haldls.YmxkX25p</text>
<text text-anchor="start" x="213.67" y="-202.5" font-family="Helvetica,sans-Serif" font-size="10.00">Z2h0bHktaGFsZGxzIzcxMQ.x/haldls</text>
<text text-anchor="middle" x="294.79" y="-190.5" font-family="Helvetica,sans-Serif" font-size="10.00">/include/lola/vx/v2/ppu.h</text>
</a>
</g>
</g>
<!-- Node1 -->
<g id="node2" class="node">
<title>Node1</title>
<g id="a_node2"><a xlink:href="genpybind_8h.html" target="_top" xlink:title=" ">
<polygon fill="white" stroke="black" points="0,-63.5 0,-83.5 101.58,-83.5 101.58,-63.5 0,-63.5"/>
<text text-anchor="middle" x="50.79" y="-70.5" font-family="Helvetica,sans-Serif" font-size="10.00">lola/vx/genpybind.h</text>
</a>
</g>
</g>
<!-- Node0&#45;&gt;Node1 -->
<g id="edge1" class="edge">
<title>Node0&#45;&gt;Node1</title>
<path fill="none" stroke="midnightblue" d="M246.29,-183.47C194.96,-154.85 115.94,-110.81 75.9,-88.49"/>
<polygon fill="midnightblue" stroke="midnightblue" points="77.49,-85.38 67.05,-83.56 74.08,-91.49 77.49,-85.38"/>
</g>
<!-- Node2 -->
<g id="node3" class="node">
<title>Node2</title>
<g id="a_node3"><a xlink:href="ppu_8h.html" target="_top" xlink:title=" ">
<polygon fill="white" stroke="black" points="444.73,-126.5 444.73,-146.5 516.86,-146.5 516.86,-126.5 444.73,-126.5"/>
<text text-anchor="middle" x="480.79" y="-133.5" font-family="Helvetica,sans-Serif" font-size="10.00">lola/vx/ppu.h</text>
</a>
</g>
</g>
<!-- Node0&#45;&gt;Node2 -->
<g id="edge3" class="edge">
<title>Node0&#45;&gt;Node2</title>
<path fill="none" stroke="midnightblue" d="M363.79,-183.42C392.74,-172.06 425.01,-159.39 448.32,-150.24"/>
<polygon fill="midnightblue" stroke="midnightblue" points="449.7,-153.46 457.73,-146.55 447.14,-146.95 449.7,-153.46"/>
</g>
<!-- Node1&#45;&gt;Node1 -->
<g id="edge2" class="edge">
<title>Node1&#45;&gt;Node1</title>
<path fill="none" stroke="midnightblue" d="M77.27,-83.56C98.15,-87.45 119.58,-84.1 119.58,-73.5 119.58,-64.64 104.61,-60.85 87.49,-62.11"/>
<polygon fill="midnightblue" stroke="midnightblue" points="86.73,-58.68 77.27,-63.44 87.63,-65.62 86.73,-58.68"/>
</g>
<!-- Node2&#45;&gt;Node1 -->
<g id="edge11" class="edge">
<title>Node2&#45;&gt;Node1</title>
<path fill="none" stroke="midnightblue" d="M444.59,-131.69C380.51,-124.75 243.02,-109 127.79,-90 119.76,-88.68 111.28,-87.12 103.01,-85.53"/>
<polygon fill="midnightblue" stroke="midnightblue" points="103.54,-82.07 93.06,-83.57 102.19,-88.93 103.54,-82.07"/>
</g>
<!-- Node3 -->
<g id="node4" class="node">
<title>Node3</title>
<g id="a_node4"><a xlink:title=" ">
<polygon fill="white" stroke="#bfbfbf" points="137.28,-57.5 137.28,-89.5 238.3,-89.5 238.3,-57.5 137.28,-57.5"/>
<text text-anchor="start" x="145.28" y="-76.5" font-family="Helvetica,sans-Serif" font-size="10.00">halco/hicann&#45;dls/vx</text>
<text text-anchor="middle" x="187.79" y="-64.5" font-family="Helvetica,sans-Serif" font-size="10.00">/coordinates.h</text>
</a>
</g>
</g>
<!-- Node2&#45;&gt;Node3 -->
<g id="edge4" class="edge">
<title>Node2&#45;&gt;Node3</title>
<path fill="none" stroke="midnightblue" d="M444.56,-129.21C400.42,-121.38 323.38,-107.18 248.64,-90.35"/>
<polygon fill="midnightblue" stroke="midnightblue" points="249.12,-86.87 238.59,-88.07 247.57,-93.7 249.12,-86.87"/>
</g>
<!-- Node4 -->
<g id="node5" class="node">
<title>Node4</title>
<g id="a_node5"><a xlink:title=" ">
<polygon fill="white" stroke="#bfbfbf" points="256.12,-63.5 256.12,-83.5 365.47,-83.5 365.47,-63.5 256.12,-63.5"/>
<text text-anchor="middle" x="310.79" y="-70.5" font-family="Helvetica,sans-Serif" font-size="10.00">haldls/cerealization.h</text>
</a>
</g>
</g>
<!-- Node2&#45;&gt;Node4 -->
<g id="edge5" class="edge">
<title>Node2&#45;&gt;Node4</title>
<path fill="none" stroke="midnightblue" d="M455.71,-126.5C426.58,-116.05 378.35,-98.74 345.61,-86.99"/>
<polygon fill="midnightblue" stroke="midnightblue" points="346.57,-83.62 335.98,-83.54 344.21,-90.21 346.57,-83.62"/>
</g>
<!-- Node5 -->
<g id="node6" class="node">
<title>Node5</title>
<g id="a_node6"><a xlink:title=" ">
<polygon fill="white" stroke="#bfbfbf" points="383.29,-63.5 383.29,-83.5 464.3,-83.5 464.3,-63.5 383.29,-63.5"/>
<text text-anchor="middle" x="423.79" y="-70.5" font-family="Helvetica,sans-Serif" font-size="10.00">hate/visibility.h</text>
</a>
</g>
</g>
<!-- Node2&#45;&gt;Node5 -->
<g id="edge6" class="edge">
<title>Node2&#45;&gt;Node5</title>
<path fill="none" stroke="midnightblue" d="M472.38,-126.5C463.71,-117.22 449.99,-102.53 439.34,-91.13"/>
<polygon fill="midnightblue" stroke="midnightblue" points="441.62,-88.45 432.24,-83.54 436.51,-93.23 441.62,-88.45"/>
</g>
<!-- Node6 -->
<g id="node7" class="node">
<title>Node6</title>
<g id="a_node7"><a xlink:href="cerealization_8h.html" target="_top" xlink:title=" ">
<polygon fill="white" stroke="black" points="482.01,-63.5 482.01,-83.5 593.58,-83.5 593.58,-63.5 482.01,-63.5"/>
<text text-anchor="middle" x="537.79" y="-70.5" font-family="Helvetica,sans-Serif" font-size="10.00">lola/vx/cerealization.h</text>
</a>
</g>
</g>
<!-- Node2&#45;&gt;Node6 -->
<g id="edge7" class="edge">
<title>Node2&#45;&gt;Node6</title>
<path fill="none" stroke="midnightblue" d="M489.2,-126.5C497.87,-117.22 511.6,-102.53 522.25,-91.13"/>
<polygon fill="midnightblue" stroke="midnightblue" points="525.08,-93.23 529.35,-83.54 519.96,-88.45 525.08,-93.23"/>
</g>
<!-- Node10 -->
<g id="node11" class="node">
<title>Node10</title>
<g id="a_node11"><a xlink:title=" ">
<polygon fill="white" stroke="#bfbfbf" points="611.43,-63.5 611.43,-83.5 754.15,-83.5 754.15,-63.5 611.43,-63.5"/>
<text text-anchor="middle" x="682.79" y="-70.5" font-family="Helvetica,sans-Serif" font-size="10.00">boost/hana/adapt_struct.hpp</text>
</a>
</g>
</g>
<!-- Node2&#45;&gt;Node10 -->
<g id="edge12" class="edge">
<title>Node2&#45;&gt;Node10</title>
<path fill="none" stroke="midnightblue" d="M510.6,-126.5C545.66,-115.91 604,-98.29 642.92,-86.54"/>
<polygon fill="midnightblue" stroke="midnightblue" points="644.3,-89.78 652.86,-83.54 642.28,-83.08 644.3,-89.78"/>
</g>
<!-- Node11 -->
<g id="node12" class="node">
<title>Node11</title>
<g id="a_node12"><a xlink:title=" ">
<polygon fill="white" stroke="#bfbfbf" points="772.06,-63.5 772.06,-83.5 857.53,-83.5 857.53,-63.5 772.06,-63.5"/>
<text text-anchor="middle" x="814.79" y="-70.5" font-family="Helvetica,sans-Serif" font-size="10.00">haldls/vx/fpga.h</text>
</a>
</g>
</g>
<!-- Node2&#45;&gt;Node11 -->
<g id="edge13" class="edge">
<title>Node2&#45;&gt;Node11</title>
<path fill="none" stroke="midnightblue" d="M517.14,-131.17C571.13,-124.39 675.53,-109.96 762.79,-90 767.48,-88.93 772.37,-87.67 777.19,-86.33"/>
<polygon fill="midnightblue" stroke="midnightblue" points="778.26,-89.67 786.9,-83.54 776.32,-82.94 778.26,-89.67"/>
</g>
<!-- Node12 -->
<g id="node13" class="node">
<title>Node12</title>
<g id="a_node13"><a xlink:title=" ">
<polygon fill="white" stroke="#bfbfbf" points="875.45,-63.5 875.45,-83.5 958.14,-83.5 958.14,-63.5 875.45,-63.5"/>
<text text-anchor="middle" x="916.79" y="-70.5" font-family="Helvetica,sans-Serif" font-size="10.00">haldls/vx/ppu.h</text>
</a>
</g>
</g>
<!-- Node2&#45;&gt;Node12 -->
<g id="edge14" class="edge">
<title>Node2&#45;&gt;Node12</title>
<path fill="none" stroke="midnightblue" d="M517.07,-133.45C585.9,-129.06 739.89,-116.91 866.79,-90 871.49,-89 876.38,-87.76 881.18,-86.41"/>
<polygon fill="midnightblue" stroke="midnightblue" points="882.23,-89.75 890.82,-83.54 880.24,-83.04 882.23,-89.75"/>
</g>
<!-- Node13 -->
<g id="node14" class="node">
<title>Node13</title>
<g id="a_node14"><a xlink:title=" ">
<polygon fill="white" stroke="#bfbfbf" points="976.12,-63.5 976.12,-83.5 1055.47,-83.5 1055.47,-63.5 976.12,-63.5"/>
<text text-anchor="middle" x="1015.79" y="-70.5" font-family="Helvetica,sans-Serif" font-size="10.00">lola/vx/ppu.tcc</text>
</a>
</g>
</g>
<!-- Node2&#45;&gt;Node13 -->
<g id="edge15" class="edge">
<title>Node2&#45;&gt;Node13</title>
<path fill="none" stroke="midnightblue" d="M517.15,-134.73C598.5,-132.45 801.09,-123.56 966.79,-90 971.52,-89.04 976.43,-87.8 981.24,-86.43"/>
<polygon fill="midnightblue" stroke="midnightblue" points="982.33,-89.76 990.88,-83.51 980.3,-83.06 982.33,-89.76"/>
</g>
<!-- Node7 -->
<g id="node8" class="node">
<title>Node7</title>
<g id="a_node8"><a xlink:title=" ">
<polygon fill="white" stroke="#bfbfbf" points="414.73,-0.5 414.73,-20.5 476.85,-20.5 476.85,-0.5 414.73,-0.5"/>
<text text-anchor="middle" x="445.79" y="-7.5" font-family="Helvetica,sans-Serif" font-size="10.00">type_traits</text>
</a>
</g>
</g>
<!-- Node6&#45;&gt;Node7 -->
<g id="edge8" class="edge">
<title>Node6&#45;&gt;Node7</title>
<path fill="none" stroke="midnightblue" d="M524.22,-63.5C509.4,-53.68 485.47,-37.81 467.93,-26.18"/>
<polygon fill="midnightblue" stroke="midnightblue" points="469.69,-23.15 459.42,-20.54 465.82,-28.98 469.69,-23.15"/>
</g>
<!-- Node8 -->
<g id="node9" class="node">
<title>Node8</title>
<g id="a_node9"><a xlink:title=" ">
<polygon fill="white" stroke="#bfbfbf" points="495.33,-0.5 495.33,-20.5 580.26,-20.5 580.26,-0.5 495.33,-0.5"/>
<text text-anchor="middle" x="537.79" y="-7.5" font-family="Helvetica,sans-Serif" font-size="10.00">boost/hana.hpp</text>
</a>
</g>
</g>
<!-- Node6&#45;&gt;Node8 -->
<g id="edge9" class="edge">
<title>Node6&#45;&gt;Node8</title>
<path fill="none" stroke="midnightblue" d="M537.79,-63.5C537.79,-54.94 537.79,-41.78 537.79,-30.85"/>
<polygon fill="midnightblue" stroke="midnightblue" points="541.29,-30.54 537.79,-20.54 534.29,-30.54 541.29,-30.54"/>
</g>
<!-- Node9 -->
<g id="node10" class="node">
<title>Node9</title>
<g id="a_node10"><a xlink:title=" ">
<polygon fill="white" stroke="#bfbfbf" points="598.67,-0.5 598.67,-20.5 696.91,-20.5 696.91,-0.5 598.67,-0.5"/>
<text text-anchor="middle" x="647.79" y="-7.5" font-family="Helvetica,sans-Serif" font-size="10.00">cereal/macros.hpp</text>
</a>
</g>
</g>
<!-- Node6&#45;&gt;Node9 -->
<g id="edge10" class="edge">
<title>Node6&#45;&gt;Node9</title>
<path fill="none" stroke="midnightblue" d="M554.02,-63.5C572.06,-53.5 601.41,-37.22 622.47,-25.54"/>
<polygon fill="midnightblue" stroke="midnightblue" points="624.45,-28.45 631.49,-20.54 621.05,-22.33 624.45,-28.45"/>
</g>
</g>
</svg>
        <g id="navigator" transform="translate(0 0)" fill="#404254">
                <rect fill="#f2f5e9" fill-opacity="0.5" stroke="#606060" stroke-width=".5" x="0" y="0" width="60" height="60"/>
                <use id="zoomplus" xlink:href="#zoomPlus" x="17" y="9" onmousedown="handleZoom(evt,'in')"/>
                <use id="zoomminus" xlink:href="#zoomMin" x="42" y="9" onmousedown="handleZoom(evt,'out')"/>
                <use id="reset" xlink:href="#resetDef" x="30" y="36" onmousedown="handleReset()"/>
                <g id="arrowUp" xlink:href="#dirArrow" transform="translate(30 24)" onmousedown="handlePan(0,-1)">
                  <use xlink:href="#rim" fill="#404040">
                        <set attributeName="fill" to="#808080" begin="arrowUp.mouseover" end="arrowUp.mouseout"/>
                  </use>
                  <path fill="none" stroke="white" stroke-width="1.5" d="M0,-3.0v7 M-2.5,-0.5L0,-3.0L2.5,-0.5"/>
                </g>
                <g id="arrowRight" xlink:href="#dirArrow" transform="rotate(90) translate(36 -43)" onmousedown="handlePan(1,0)">
                  <use xlink:href="#rim" fill="#404040">
                        <set attributeName="fill" to="#808080" begin="arrowRight.mouseover" end="arrowRight.mouseout"/>
                  </use>
                  <path fill="none" stroke="white" stroke-width="1.5" d="M0,-3.0v7 M-2.5,-0.5L0,-3.0L2.5,-0.5"/>
                </g>
                <g id="arrowDown" xlink:href="#dirArrow" transform="rotate(180) translate(-30 -48)" onmousedown="handlePan(0,1)">
                  <use xlink:href="#rim" fill="#404040">
                        <set attributeName="fill" to="#808080" begin="arrowDown.mouseover" end="arrowDown.mouseout"/>
                  </use>
                  <path fill="none" stroke="white" stroke-width="1.5" d="M0,-3.0v7 M-2.5,-0.5L0,-3.0L2.5,-0.5"/>
                </g>
                <g id="arrowLeft" xlink:href="#dirArrow" transform="rotate(270) translate(-36 17)" onmousedown="handlePan(-1,0)">
                  <use xlink:href="#rim" fill="#404040">
                        <set attributeName="fill" to="#808080" begin="arrowLeft.mouseover" end="arrowLeft.mouseout"/>
                  </use>
                  <path fill="none" stroke="white" stroke-width="1.5" d="M0,-3.0v7 M-2.5,-0.5L0,-3.0L2.5,-0.5"/>
                </g>
        </g>
        <svg viewBox="0 0 15 15" width="100%" height="30px" preserveAspectRatio="xMaxYMin meet">
         <g id="arrow_out" transform="scale(0.3 0.3)">
          <a xlink:href="v2_2ppu_8h__incl_org.svg" target="_base">
           <rect id="button" ry="5" rx="5" y="6" x="6" height="38" width="38"
                fill="#f2f5e9" fill-opacity="0.5" stroke="#606060" stroke-width="1.0"/>
           <path id="arrow"
             d="M 11.500037,31.436501 C 11.940474,20.09759 22.043105,11.32322 32.158766,21.979434 L 37.068811,17.246167 C 37.068811,17.246167 37.088388,32 37.088388,32 L 22.160133,31.978069 C 22.160133,31.978069 26.997745,27.140456 26.997745,27.140456 C 18.528582,18.264221 13.291696,25.230495 11.500037,31.436501 z"
             style="fill:#404040;"/>
          </a>
         </g>
        </svg>
</svg>
