<?xml version="1.0" encoding="UTF-8" standalone="no"?>
<!DOCTYPE svg PUBLIC "-//W3C//DTD SVG 1.1//EN"
 "http://www.w3.org/Graphics/SVG/1.1/DTD/svg11.dtd">
<!-- Generated by graphviz version 2.43.0 (0)
 -->
<!-- Title: /jenkins/jenlib_workspaces_f9/bld_nightly&#45;haldls.YmxkX25pZ2h0bHktaGFsZGxzIzQ5Nw.x/haldls/include/lola/vx/ppu.h Pages: 1 -->
<svg width="607pt" height="134pt"
 viewBox="0.00 0.00 606.71 134.00" xmlns="http://www.w3.org/2000/svg" xmlns:xlink="http://www.w3.org/1999/xlink">
<g id="graph0" class="graph" transform="scale(1 1) rotate(0) translate(4 130)">
<title>/jenkins/jenlib_workspaces_f9/bld_nightly&#45;haldls.YmxkX25pZ2h0bHktaGFsZGxzIzQ5Nw.x/haldls/include/lola/vx/ppu.h</title>
<polygon fill="white" stroke="transparent" points="-4,4 -4,-130 602.71,-130 602.71,4 -4,4"/>
<!-- Node0 -->
<g id="node1" class="node">
<title>Node0</title>
<g id="a_node1"><a xlink:title=" ">
<polygon fill="#bfbfbf" stroke="black" points="230.41,-69.5 230.41,-125.5 410.32,-125.5 410.32,-69.5 230.41,-69.5"/>
<text text-anchor="start" x="238.41" y="-112.5" font-family="Helvetica,sans-Serif" font-size="10.00">/jenkins/jenlib_workspaces</text>
<text text-anchor="start" x="238.41" y="-100.5" font-family="Helvetica,sans-Serif" font-size="10.00">_f9/bld_nightly&#45;haldls.YmxkX25p</text>
<text text-anchor="start" x="238.41" y="-88.5" font-family="Helvetica,sans-Serif" font-size="10.00">Z2h0bHktaGFsZGxzIzQ5Nw.x/haldls</text>
<text text-anchor="middle" x="320.36" y="-76.5" font-family="Helvetica,sans-Serif" font-size="10.00">/include/lola/vx/ppu.h</text>
</a>
</g>
</g>
<!-- Node1 -->
<g id="node2" class="node">
<title>Node1</title>
<g id="a_node2"><a xlink:title=" ">
<polygon fill="white" stroke="#bfbfbf" points="0,-6.5 0,-26.5 142.73,-26.5 142.73,-6.5 0,-6.5"/>
<text text-anchor="middle" x="71.36" y="-13.5" font-family="Helvetica,sans-Serif" font-size="10.00">boost/hana/adapt_struct.hpp</text>
</a>
</g>
</g>
<!-- Node0&#45;&gt;Node1 -->
<g id="edge1" class="edge">
<title>Node0&#45;&gt;Node1</title>
<path fill="none" stroke="midnightblue" d="M235.02,-69.42C192.41,-55.9 142.98,-40.22 109.69,-29.66"/>
<polygon fill="midnightblue" stroke="midnightblue" points="110.49,-26.24 99.9,-26.55 108.37,-32.91 110.49,-26.24"/>
</g>
<!-- Node2 -->
<g id="node3" class="node">
<title>Node2</title>
<g id="a_node3"><a xlink:title=" ">
<polygon fill="white" stroke="#bfbfbf" points="160.86,-0.5 160.86,-32.5 261.87,-32.5 261.87,-0.5 160.86,-0.5"/>
<text text-anchor="start" x="168.86" y="-19.5" font-family="Helvetica,sans-Serif" font-size="10.00">halco/hicann&#45;dls/vx</text>
<text text-anchor="middle" x="211.36" y="-7.5" font-family="Helvetica,sans-Serif" font-size="10.00">/coordinates.h</text>
</a>
</g>
</g>
<!-- Node0&#45;&gt;Node2 -->
<g id="edge2" class="edge">
<title>Node0&#45;&gt;Node2</title>
<path fill="none" stroke="midnightblue" d="M282.85,-69.31C268.91,-59.21 253.32,-47.91 240.26,-38.45"/>
<polygon fill="midnightblue" stroke="midnightblue" points="242.24,-35.56 232.09,-32.52 238.14,-41.23 242.24,-35.56"/>
</g>
<!-- Node3 -->
<g id="node4" class="node">
<title>Node3</title>
<g id="a_node4"><a xlink:title=" ">
<polygon fill="white" stroke="#bfbfbf" points="279.86,-6.5 279.86,-26.5 360.87,-26.5 360.87,-6.5 279.86,-6.5"/>
<text text-anchor="middle" x="320.36" y="-13.5" font-family="Helvetica,sans-Serif" font-size="10.00">hate/visibility.h</text>
</a>
</g>
</g>
<!-- Node0&#45;&gt;Node3 -->
<g id="edge3" class="edge">
<title>Node0&#45;&gt;Node3</title>
<path fill="none" stroke="midnightblue" d="M320.36,-69.31C320.36,-58.66 320.36,-46.68 320.36,-36.93"/>
<polygon fill="midnightblue" stroke="midnightblue" points="323.86,-36.71 320.36,-26.71 316.86,-36.71 323.86,-36.71"/>
</g>
<!-- Node4 -->
<g id="node5" class="node">
<title>Node4</title>
<g id="a_node5"><a xlink:href="vx_2genpybind_8h.html" target="_top" xlink:title=" ">
<polygon fill="white" stroke="black" points="378.57,-6.5 378.57,-26.5 480.15,-26.5 480.15,-6.5 378.57,-6.5"/>
<text text-anchor="middle" x="429.36" y="-13.5" font-family="Helvetica,sans-Serif" font-size="10.00">lola/vx/genpybind.h</text>
</a>
</g>
</g>
<!-- Node0&#45;&gt;Node4 -->
<g id="edge4" class="edge">
<title>Node0&#45;&gt;Node4</title>
<path fill="none" stroke="midnightblue" d="M357.87,-69.31C374.91,-56.97 394.4,-42.84 408.72,-32.46"/>
<polygon fill="midnightblue" stroke="midnightblue" points="410.86,-35.23 416.91,-26.53 406.76,-29.56 410.86,-35.23"/>
</g>
<!-- Node5 -->
<g id="node6" class="node">
<title>Node5</title>
<g id="a_node6"><a xlink:title=" ">
<polygon fill="white" stroke="#bfbfbf" points="516.02,-6.5 516.02,-26.5 598.71,-26.5 598.71,-6.5 516.02,-6.5"/>
<text text-anchor="middle" x="557.36" y="-13.5" font-family="Helvetica,sans-Serif" font-size="10.00">haldls/vx/ppu.h</text>
</a>
</g>
</g>
<!-- Node0&#45;&gt;Node5 -->
<g id="edge6" class="edge">
<title>Node0&#45;&gt;Node5</title>
<path fill="none" stroke="midnightblue" d="M401.59,-69.42C441.98,-55.96 488.79,-40.36 520.47,-29.8"/>
<polygon fill="midnightblue" stroke="midnightblue" points="521.82,-33.04 530.2,-26.55 519.61,-26.4 521.82,-33.04"/>
</g>
<!-- Node4&#45;&gt;Node4 -->
<g id="edge5" class="edge">
<title>Node4&#45;&gt;Node4</title>
<path fill="none" stroke="midnightblue" d="M446.64,-26.62C469.88,-35.58 498.15,-32.2 498.15,-16.5 498.15,-2.94 477.09,1.42 456.37,-3.4"/>
<polygon fill="midnightblue" stroke="midnightblue" points="455.17,-0.1 446.64,-6.38 457.22,-6.8 455.17,-0.1"/>
</g>
</g>
</svg>
