<?xml version="1.0" encoding="UTF-8" standalone="no"?>
<!DOCTYPE svg PUBLIC "-//W3C//DTD SVG 1.1//EN"
 "http://www.w3.org/Graphics/SVG/1.1/DTD/svg11.dtd">
<!-- Generated by graphviz version 2.43.0 (0)
 -->
<!-- Title: /jenkins/jenlib_workspaces_f9/bld_nightly&#45;haldls.YmxkX25pZ2h0bHktaGFsZGxzIzQ5Nw.x/haldls/include/lola/vx/genpybind.h Pages: 1 -->
<svg width="806pt" height="344pt"
 viewBox="0.00 0.00 806.19 344.00" xmlns="http://www.w3.org/2000/svg" xmlns:xlink="http://www.w3.org/1999/xlink">
<g id="graph0" class="graph" transform="scale(1 1) rotate(0) translate(4 340)">
<title>/jenkins/jenlib_workspaces_f9/bld_nightly&#45;haldls.YmxkX25pZ2h0bHktaGFsZGxzIzQ5Nw.x/haldls/include/lola/vx/genpybind.h</title>
<polygon fill="white" stroke="transparent" points="-4,4 -4,-340 802.19,-340 802.19,4 -4,4"/>
<!-- Node1 -->
<g id="node1" class="node">
<title>Node1</title>
<g id="a_node1"><a xlink:title=" ">
<polygon fill="#bfbfbf" stroke="black" points="396,-279.5 396,-335.5 575.91,-335.5 575.91,-279.5 396,-279.5"/>
<text text-anchor="start" x="404" y="-322.5" font-family="Helvetica,sans-Serif" font-size="10.00">/jenkins/jenlib_workspaces</text>
<text text-anchor="start" x="404" y="-310.5" font-family="Helvetica,sans-Serif" font-size="10.00">_f9/bld_nightly&#45;haldls.YmxkX25p</text>
<text text-anchor="start" x="404" y="-298.5" font-family="Helvetica,sans-Serif" font-size="10.00">Z2h0bHktaGFsZGxzIzQ5Nw.x/haldls</text>
<text text-anchor="middle" x="485.95" y="-286.5" font-family="Helvetica,sans-Serif" font-size="10.00">/include/lola/vx/genpybind.h</text>
</a>
</g>
</g>
<!-- Node1&#45;&gt;Node1 -->
<g id="edge4" class="edge">
<title>Node1&#45;&gt;Node1</title>
<path fill="none" stroke="midnightblue" d="M585.76,-318.75C590.88,-315.97 593.91,-312.22 593.91,-307.5 593.91,-300.31 586.88,-295.37 576.12,-292.68"/>
<polygon fill="midnightblue" stroke="midnightblue" points="584.27,-315.57 576.12,-322.32 586.71,-322.13 584.27,-315.57"/>
</g>
<!-- Node2 -->
<g id="node2" class="node">
<title>Node2</title>
<g id="a_node2"><a xlink:href="cadc_8h.html" target="_top" xlink:title=" ">
<polygon fill="white" stroke="black" points="0,-186.5 0,-242.5 179.91,-242.5 179.91,-186.5 0,-186.5"/>
<text text-anchor="start" x="8" y="-229.5" font-family="Helvetica,sans-Serif" font-size="10.00">/jenkins/jenlib_workspaces</text>
<text text-anchor="start" x="8" y="-217.5" font-family="Helvetica,sans-Serif" font-size="10.00">_f9/bld_nightly&#45;haldls.YmxkX25p</text>
<text text-anchor="start" x="8" y="-205.5" font-family="Helvetica,sans-Serif" font-size="10.00">Z2h0bHktaGFsZGxzIzQ5Nw.x/haldls</text>
<text text-anchor="middle" x="89.95" y="-193.5" font-family="Helvetica,sans-Serif" font-size="10.00">/include/lola/vx/cadc.h</text>
</a>
</g>
</g>
<!-- Node1&#45;&gt;Node2 -->
<g id="edge1" class="edge">
<title>Node1&#45;&gt;Node2</title>
<path fill="none" stroke="midnightblue" d="M386.09,-286.71C328.3,-274.87 254.3,-259.05 188.95,-243 186.01,-242.28 183.02,-241.53 180,-240.76"/>
<polygon fill="midnightblue" stroke="midnightblue" points="385.46,-290.16 395.95,-288.73 386.86,-283.3 385.46,-290.16"/>
</g>
<!-- Node4 -->
<g id="node4" class="node">
<title>Node4</title>
<g id="a_node4"><a xlink:href="vx_2lola_8h.html" target="_top" xlink:title=" ">
<polygon fill="white" stroke="black" points="554,-0.5 554,-56.5 733.91,-56.5 733.91,-0.5 554,-0.5"/>
<text text-anchor="start" x="562" y="-43.5" font-family="Helvetica,sans-Serif" font-size="10.00">/jenkins/jenlib_workspaces</text>
<text text-anchor="start" x="562" y="-31.5" font-family="Helvetica,sans-Serif" font-size="10.00">_f9/bld_nightly&#45;haldls.YmxkX25p</text>
<text text-anchor="start" x="562" y="-19.5" font-family="Helvetica,sans-Serif" font-size="10.00">Z2h0bHktaGFsZGxzIzQ5Nw.x/haldls</text>
<text text-anchor="middle" x="643.95" y="-7.5" font-family="Helvetica,sans-Serif" font-size="10.00">/include/lola/vx/lola.h</text>
</a>
</g>
</g>
<!-- Node1&#45;&gt;Node4 -->
<g id="edge11" class="edge">
<title>Node1&#45;&gt;Node4</title>
<path fill="none" stroke="midnightblue" d="M586.31,-298.39C662.55,-289.9 758.36,-273.41 782.95,-243 833.71,-180.24 741.46,-98.46 684.3,-56.67"/>
<polygon fill="midnightblue" stroke="midnightblue" points="585.73,-294.93 576.16,-299.48 586.48,-301.89 585.73,-294.93"/>
</g>
<!-- Node5 -->
<g id="node5" class="node">
<title>Node5</title>
<g id="a_node5"><a xlink:href="dac_8h.html" target="_top" xlink:title=" ">
<polygon fill="white" stroke="black" points="198,-186.5 198,-242.5 377.91,-242.5 377.91,-186.5 198,-186.5"/>
<text text-anchor="start" x="206" y="-229.5" font-family="Helvetica,sans-Serif" font-size="10.00">/jenkins/jenlib_workspaces</text>
<text text-anchor="start" x="206" y="-217.5" font-family="Helvetica,sans-Serif" font-size="10.00">_f9/bld_nightly&#45;haldls.YmxkX25p</text>
<text text-anchor="start" x="206" y="-205.5" font-family="Helvetica,sans-Serif" font-size="10.00">Z2h0bHktaGFsZGxzIzQ5Nw.x/haldls</text>
<text text-anchor="middle" x="287.95" y="-193.5" font-family="Helvetica,sans-Serif" font-size="10.00">/include/lola/vx/dac.h</text>
</a>
</g>
</g>
<!-- Node1&#45;&gt;Node5 -->
<g id="edge5" class="edge">
<title>Node1&#45;&gt;Node5</title>
<path fill="none" stroke="midnightblue" d="M417.72,-275.14C394.69,-264.56 369.19,-252.84 346.94,-242.61"/>
<polygon fill="midnightblue" stroke="midnightblue" points="416.53,-278.45 427.08,-279.44 419.46,-272.09 416.53,-278.45"/>
</g>
<!-- Node6 -->
<g id="node6" class="node">
<title>Node6</title>
<g id="a_node6"><a xlink:href="vx_2ppu_8h.html" target="_top" xlink:title=" ">
<polygon fill="white" stroke="black" points="396,-186.5 396,-242.5 575.91,-242.5 575.91,-186.5 396,-186.5"/>
<text text-anchor="start" x="404" y="-229.5" font-family="Helvetica,sans-Serif" font-size="10.00">/jenkins/jenlib_workspaces</text>
<text text-anchor="start" x="404" y="-217.5" font-family="Helvetica,sans-Serif" font-size="10.00">_f9/bld_nightly&#45;haldls.YmxkX25p</text>
<text text-anchor="start" x="404" y="-205.5" font-family="Helvetica,sans-Serif" font-size="10.00">Z2h0bHktaGFsZGxzIzQ5Nw.x/haldls</text>
<text text-anchor="middle" x="485.95" y="-193.5" font-family="Helvetica,sans-Serif" font-size="10.00">/include/lola/vx/ppu.h</text>
</a>
</g>
</g>
<!-- Node1&#45;&gt;Node6 -->
<g id="edge7" class="edge">
<title>Node1&#45;&gt;Node6</title>
<path fill="none" stroke="midnightblue" d="M485.95,-269.12C485.95,-260.3 485.95,-251.06 485.95,-242.78"/>
<polygon fill="midnightblue" stroke="midnightblue" points="482.45,-269.2 485.95,-279.2 489.45,-269.2 482.45,-269.2"/>
</g>
<!-- Node7 -->
<g id="node7" class="node">
<title>Node7</title>
<g id="a_node7"><a xlink:href="synapse_8h.html" target="_top" xlink:title=" ">
<polygon fill="white" stroke="black" points="594,-186.5 594,-242.5 773.91,-242.5 773.91,-186.5 594,-186.5"/>
<text text-anchor="start" x="602" y="-229.5" font-family="Helvetica,sans-Serif" font-size="10.00">/jenkins/jenlib_workspaces</text>
<text text-anchor="start" x="602" y="-217.5" font-family="Helvetica,sans-Serif" font-size="10.00">_f9/bld_nightly&#45;haldls.YmxkX25p</text>
<text text-anchor="start" x="602" y="-205.5" font-family="Helvetica,sans-Serif" font-size="10.00">Z2h0bHktaGFsZGxzIzQ5Nw.x/haldls</text>
<text text-anchor="middle" x="683.95" y="-193.5" font-family="Helvetica,sans-Serif" font-size="10.00">/include/lola/vx/synapse.h</text>
</a>
</g>
</g>
<!-- Node1&#45;&gt;Node7 -->
<g id="edge9" class="edge">
<title>Node1&#45;&gt;Node7</title>
<path fill="none" stroke="midnightblue" d="M554.19,-275.14C577.22,-264.56 602.71,-252.84 624.97,-242.61"/>
<polygon fill="midnightblue" stroke="midnightblue" points="552.45,-272.09 544.82,-279.44 555.37,-278.45 552.45,-272.09"/>
</g>
<!-- Node3 -->
<g id="node3" class="node">
<title>Node3</title>
<g id="a_node3"><a xlink:href="container_8h.html" target="_top" xlink:title=" ">
<polygon fill="white" stroke="black" points="396,-93.5 396,-149.5 575.91,-149.5 575.91,-93.5 396,-93.5"/>
<text text-anchor="start" x="404" y="-136.5" font-family="Helvetica,sans-Serif" font-size="10.00">/jenkins/jenlib_workspaces</text>
<text text-anchor="start" x="404" y="-124.5" font-family="Helvetica,sans-Serif" font-size="10.00">_f9/bld_nightly&#45;haldls.YmxkX25p</text>
<text text-anchor="start" x="404" y="-112.5" font-family="Helvetica,sans-Serif" font-size="10.00">Z2h0bHktaGFsZGxzIzQ5Nw.x/haldls</text>
<text text-anchor="middle" x="485.95" y="-100.5" font-family="Helvetica,sans-Serif" font-size="10.00">/include/lola/vx/container.h</text>
</a>
</g>
</g>
<!-- Node2&#45;&gt;Node3 -->
<g id="edge2" class="edge">
<title>Node2&#45;&gt;Node3</title>
<path fill="none" stroke="midnightblue" d="M190.07,-185.78C264.82,-167.6 339.43,-151.78 395.95,-140.27"/>
<polygon fill="midnightblue" stroke="midnightblue" points="188.88,-182.46 180,-188.24 190.55,-189.26 188.88,-182.46"/>
</g>
<!-- Node3&#45;&gt;Node4 -->
<g id="edge3" class="edge">
<title>Node3&#45;&gt;Node4</title>
<path fill="none" stroke="midnightblue" d="M541.63,-88.43C559.68,-78.04 579.52,-66.61 596.88,-56.61"/>
<polygon fill="midnightblue" stroke="midnightblue" points="539.85,-85.42 532.93,-93.44 543.34,-91.49 539.85,-85.42"/>
</g>
<!-- Node5&#45;&gt;Node3 -->
<g id="edge6" class="edge">
<title>Node5&#45;&gt;Node3</title>
<path fill="none" stroke="midnightblue" d="M356.19,-182.14C379.22,-171.56 404.71,-159.84 426.97,-149.61"/>
<polygon fill="midnightblue" stroke="midnightblue" points="354.45,-179.09 346.82,-186.44 357.37,-185.45 354.45,-179.09"/>
</g>
<!-- Node6&#45;&gt;Node3 -->
<g id="edge8" class="edge">
<title>Node6&#45;&gt;Node3</title>
<path fill="none" stroke="midnightblue" d="M485.95,-176.12C485.95,-167.3 485.95,-158.06 485.95,-149.78"/>
<polygon fill="midnightblue" stroke="midnightblue" points="482.45,-176.2 485.95,-186.2 489.45,-176.2 482.45,-176.2"/>
</g>
<!-- Node7&#45;&gt;Node3 -->
<g id="edge10" class="edge">
<title>Node7&#45;&gt;Node3</title>
<path fill="none" stroke="midnightblue" d="M615.72,-182.14C592.69,-171.56 567.19,-159.84 544.94,-149.61"/>
<polygon fill="midnightblue" stroke="midnightblue" points="614.53,-185.45 625.08,-186.44 617.46,-179.09 614.53,-185.45"/>
</g>
</g>
</svg>
