<?xml version="1.0" encoding="UTF-8" standalone="no"?>
<!DOCTYPE svg PUBLIC "-//W3C//DTD SVG 1.1//EN"
 "http://www.w3.org/Graphics/SVG/1.1/DTD/svg11.dtd">
<!-- Generated by graphviz version 2.43.0 (0)
 -->
<!-- Title: /jenkins/jenlib_workspaces_f9/bld_nightly&#45;haldls.YmxkX25pZ2h0bHktaGFsZGxzIzQ5Nw.x/haldls/include/lola/vx/lola.h Pages: 1 -->
<!--zoomable 248 -->
<svg id="main" version="1.1" xmlns="http://www.w3.org/2000/svg" xmlns:xlink="http://www.w3.org/1999/xlink" xml:space="preserve" onload="init(evt)">
<style type="text/css"><![CDATA[
.edge:hover path { stroke: red; }
.edge:hover polygon { stroke: red; fill: red; }
]]></style>
<script type="text/javascript"><![CDATA[
var edges = document.getElementsByTagName('g');
if (edges && edges.length) {
  for (var i=0;i<edges.length;i++) {
    if (edges[i].id.substr(0,4)=='edge') {
      edges[i].setAttribute('class','edge');
    }
  }
}
]]></script>
        <defs>
                <circle id="rim" cx="0" cy="0" r="7"/>
                <circle id="rim2" cx="0" cy="0" r="3.5"/>
                <g id="zoomPlus">
                        <use xlink:href="#rim" fill="#404040">
                                <set attributeName="fill" to="#808080" begin="zoomplus.mouseover" end="zoomplus.mouseout"/>
                        </use>
                        <path d="M-4,0h8M0,-4v8" fill="none" stroke="white" stroke-width="1.5" pointer-events="none"/>
                </g>
                <g id="zoomMin">
                        <use xlink:href="#rim" fill="#404040">
                                <set attributeName="fill" to="#808080" begin="zoomminus.mouseover" end="zoomminus.mouseout"/>
                        </use>
                        <path d="M-4,0h8" fill="none" stroke="white" stroke-width="1.5" pointer-events="none"/>
                </g>
                <g id="dirArrow">
                        <path fill="none" stroke="white" stroke-width="1.5" d="M0,-3.0v7 M-2.5,-0.5L0,-3.0L2.5,-0.5"/>
                </g>
               <g id="resetDef">
                       <use xlink:href="#rim2" fill="#404040">
                               <set attributeName="fill" to="#808080" begin="reset.mouseover" end="reset.mouseout"/>
                       </use>
               </g>
        </defs>

<script type="text/javascript">
var viewWidth = 1784;
var viewHeight = 248;
var sectionId = 'dynsection-0';
</script>
<script xlink:href="svgpan.js"/>
<svg id="graph" class="graph">
<g id="viewport">
<title>/jenkins/jenlib_workspaces_f9/bld_nightly&#45;haldls.YmxkX25pZ2h0bHktaGFsZGxzIzQ5Nw.x/haldls/include/lola/vx/lola.h</title>
<polygon fill="white" stroke="transparent" points="-4,4 -4,-244 1779.9,-244 1779.9,4 -4,4"/>
<!-- Node0 -->
<g id="node1" class="node">
<title>Node0</title>
<g id="a_node1"><a xlink:title=" ">
<polygon fill="#bfbfbf" stroke="black" points="327.56,-183.5 327.56,-239.5 507.46,-239.5 507.46,-183.5 327.56,-183.5"/>
<text text-anchor="start" x="335.56" y="-226.5" font-family="Helvetica,sans-Serif" font-size="10.00">/jenkins/jenlib_workspaces</text>
<text text-anchor="start" x="335.56" y="-214.5" font-family="Helvetica,sans-Serif" font-size="10.00">_f9/bld_nightly&#45;haldls.YmxkX25p</text>
<text text-anchor="start" x="335.56" y="-202.5" font-family="Helvetica,sans-Serif" font-size="10.00">Z2h0bHktaGFsZGxzIzQ5Nw.x/haldls</text>
<text text-anchor="middle" x="417.51" y="-190.5" font-family="Helvetica,sans-Serif" font-size="10.00">/include/lola/vx/lola.h</text>
</a>
</g>
</g>
<!-- Node1 -->
<g id="node2" class="node">
<title>Node1</title>
<g id="a_node2"><a xlink:href="vx_2genpybind_8h.html" target="_top" xlink:title=" ">
<polygon fill="white" stroke="black" points="219.72,-6.5 219.72,-26.5 321.3,-26.5 321.3,-6.5 219.72,-6.5"/>
<text text-anchor="middle" x="270.51" y="-13.5" font-family="Helvetica,sans-Serif" font-size="10.00">lola/vx/genpybind.h</text>
</a>
</g>
</g>
<!-- Node0&#45;&gt;Node1 -->
<g id="edge1" class="edge">
<title>Node0&#45;&gt;Node1</title>
<path fill="none" stroke="midnightblue" d="M396.76,-183.26C366.09,-142.99 309.51,-68.71 283.82,-34.98"/>
<polygon fill="midnightblue" stroke="midnightblue" points="286.28,-32.44 277.44,-26.6 280.72,-36.68 286.28,-32.44"/>
</g>
<!-- Node2 -->
<g id="node3" class="node">
<title>Node2</title>
<g id="a_node3"><a xlink:href="container_8h.html" target="_top" xlink:title=" ">
<polygon fill="white" stroke="black" points="617.22,-126.5 617.22,-146.5 713.8,-146.5 713.8,-126.5 617.22,-126.5"/>
<text text-anchor="middle" x="665.51" y="-133.5" font-family="Helvetica,sans-Serif" font-size="10.00">lola/vx/container.h</text>
</a>
</g>
</g>
<!-- Node0&#45;&gt;Node2 -->
<g id="edge3" class="edge">
<title>Node0&#45;&gt;Node2</title>
<path fill="none" stroke="midnightblue" d="M507.74,-183.94C547.98,-172.09 593.36,-158.74 625.08,-149.4"/>
<polygon fill="midnightblue" stroke="midnightblue" points="626.27,-152.7 634.88,-146.52 624.3,-145.98 626.27,-152.7"/>
</g>
<!-- Node1&#45;&gt;Node1 -->
<g id="edge2" class="edge">
<title>Node1&#45;&gt;Node1</title>
<path fill="none" stroke="midnightblue" d="M296.98,-26.56C317.87,-30.45 339.3,-27.1 339.3,-16.5 339.3,-7.64 324.32,-3.85 307.21,-5.11"/>
<polygon fill="midnightblue" stroke="midnightblue" points="306.45,-1.68 296.98,-6.44 307.35,-8.62 306.45,-1.68"/>
</g>
<!-- Node3 -->
<g id="node4" class="node">
<title>Node3</title>
<g id="a_node4"><a xlink:href="cadc_8h.html" target="_top" xlink:title=" ">
<polygon fill="white" stroke="black" points="627.22,-69.5 627.22,-89.5 703.79,-89.5 703.79,-69.5 627.22,-69.5"/>
<text text-anchor="middle" x="665.51" y="-76.5" font-family="Helvetica,sans-Serif" font-size="10.00">lola/vx/cadc.h</text>
</a>
</g>
</g>
<!-- Node2&#45;&gt;Node3 -->
<g id="edge4" class="edge">
<title>Node2&#45;&gt;Node3</title>
<path fill="none" stroke="midnightblue" d="M665.51,-126.42C665.51,-119.22 665.51,-108.9 665.51,-99.86"/>
<polygon fill="midnightblue" stroke="midnightblue" points="669.01,-99.78 665.51,-89.78 662.01,-99.78 669.01,-99.78"/>
</g>
<!-- Node11 -->
<g id="node12" class="node">
<title>Node11</title>
<g id="a_node12"><a xlink:href="dac_8h.html" target="_top" xlink:title=" ">
<polygon fill="white" stroke="black" points="917.72,-69.5 917.72,-89.5 989.29,-89.5 989.29,-69.5 917.72,-69.5"/>
<text text-anchor="middle" x="953.51" y="-76.5" font-family="Helvetica,sans-Serif" font-size="10.00">lola/vx/dac.h</text>
</a>
</g>
</g>
<!-- Node2&#45;&gt;Node11 -->
<g id="edge13" class="edge">
<title>Node2&#45;&gt;Node11</title>
<path fill="none" stroke="midnightblue" d="M712.74,-126.48C766.71,-116.17 854.44,-99.42 907.77,-89.23"/>
<polygon fill="midnightblue" stroke="midnightblue" points="908.47,-92.66 917.64,-87.35 907.16,-85.79 908.47,-92.66"/>
</g>
<!-- Node15 -->
<g id="node16" class="node">
<title>Node15</title>
<g id="a_node16"><a xlink:href="vx_2ppu_8h.html" target="_top" xlink:title=" ">
<polygon fill="white" stroke="black" points="447.44,-69.5 447.44,-89.5 519.57,-89.5 519.57,-69.5 447.44,-69.5"/>
<text text-anchor="middle" x="483.51" y="-76.5" font-family="Helvetica,sans-Serif" font-size="10.00">lola/vx/ppu.h</text>
</a>
</g>
</g>
<!-- Node2&#45;&gt;Node15 -->
<g id="edge23" class="edge">
<title>Node2&#45;&gt;Node15</title>
<path fill="none" stroke="midnightblue" d="M635.45,-126.42C604.8,-117.15 557.08,-102.73 523.3,-92.53"/>
<polygon fill="midnightblue" stroke="midnightblue" points="523.89,-89.05 513.3,-89.5 521.86,-95.75 523.89,-89.05"/>
</g>
<!-- Node18 -->
<g id="node19" class="node">
<title>Node18</title>
<g id="a_node19"><a xlink:href="synapse_8h.html" target="_top" xlink:title=" ">
<polygon fill="white" stroke="black" points="724.16,-69.5 724.16,-89.5 816.85,-89.5 816.85,-69.5 724.16,-69.5"/>
<text text-anchor="middle" x="770.51" y="-76.5" font-family="Helvetica,sans-Serif" font-size="10.00">lola/vx/synapse.h</text>
</a>
</g>
</g>
<!-- Node2&#45;&gt;Node18 -->
<g id="edge29" class="edge">
<title>Node2&#45;&gt;Node18</title>
<path fill="none" stroke="midnightblue" d="M682.85,-126.42C699.49,-117.7 724.86,-104.41 744.03,-94.37"/>
<polygon fill="midnightblue" stroke="midnightblue" points="745.91,-97.34 753.14,-89.6 742.66,-91.14 745.91,-97.34"/>
</g>
<!-- Node3&#45;&gt;Node1 -->
<g id="edge11" class="edge">
<title>Node3&#45;&gt;Node1</title>
<path fill="none" stroke="midnightblue" d="M627.22,-73.73C567.37,-66.12 448.09,-50.31 347.51,-33 339.58,-31.64 331.21,-30.08 323.03,-28.49"/>
<polygon fill="midnightblue" stroke="midnightblue" points="323.68,-25.05 313.19,-26.54 322.32,-31.91 323.68,-25.05"/>
</g>
<!-- Node4 -->
<g id="node5" class="node">
<title>Node4</title>
<g id="a_node5"><a xlink:title=" ">
<polygon fill="white" stroke="#bfbfbf" points="462.15,-6.5 462.15,-26.5 604.87,-26.5 604.87,-6.5 462.15,-6.5"/>
<text text-anchor="middle" x="533.51" y="-13.5" font-family="Helvetica,sans-Serif" font-size="10.00">boost/hana/adapt_struct.hpp</text>
</a>
</g>
</g>
<!-- Node3&#45;&gt;Node4 -->
<g id="edge5" class="edge">
<title>Node3&#45;&gt;Node4</title>
<path fill="none" stroke="midnightblue" d="M646.03,-69.5C623.9,-59.27 587.57,-42.48 562.2,-30.76"/>
<polygon fill="midnightblue" stroke="midnightblue" points="563.61,-27.56 553.06,-26.54 560.67,-33.91 563.61,-27.56"/>
</g>
<!-- Node5 -->
<g id="node6" class="node">
<title>Node5</title>
<g id="a_node6"><a xlink:title=" ">
<polygon fill="white" stroke="#bfbfbf" points="837.39,-0.5 837.39,-32.5 945.63,-32.5 945.63,-0.5 837.39,-0.5"/>
<text text-anchor="start" x="845.39" y="-19.5" font-family="Helvetica,sans-Serif" font-size="10.00">halco/common/typed</text>
<text text-anchor="middle" x="891.51" y="-7.5" font-family="Helvetica,sans-Serif" font-size="10.00">_array.h</text>
</a>
</g>
</g>
<!-- Node3&#45;&gt;Node5 -->
<g id="edge6" class="edge">
<title>Node3&#45;&gt;Node5</title>
<path fill="none" stroke="midnightblue" d="M698.86,-69.5C732.5,-60.42 785.32,-46.16 827.15,-34.87"/>
<polygon fill="midnightblue" stroke="midnightblue" points="828.24,-38.2 836.98,-32.22 826.41,-31.44 828.24,-38.2"/>
</g>
<!-- Node6 -->
<g id="node7" class="node">
<title>Node6</title>
<g id="a_node7"><a xlink:title=" ">
<polygon fill="white" stroke="#bfbfbf" points="356.94,-6.5 356.94,-26.5 444.07,-26.5 444.07,-6.5 356.94,-6.5"/>
<text text-anchor="middle" x="400.51" y="-13.5" font-family="Helvetica,sans-Serif" font-size="10.00">haldls/vx/cadc.h</text>
</a>
</g>
</g>
<!-- Node3&#45;&gt;Node6 -->
<g id="edge7" class="edge">
<title>Node3&#45;&gt;Node6</title>
<path fill="none" stroke="midnightblue" d="M627.01,-71.12C584.38,-62.74 513.72,-48.24 453.51,-33 449.1,-31.88 444.51,-30.65 439.95,-29.38"/>
<polygon fill="midnightblue" stroke="midnightblue" points="440.69,-25.95 430.12,-26.57 438.77,-32.68 440.69,-25.95"/>
</g>
<!-- Node7 -->
<g id="node8" class="node">
<title>Node7</title>
<g id="a_node8"><a xlink:title=" ">
<polygon fill="white" stroke="#bfbfbf" points="963.34,-6.5 963.34,-26.5 1067.68,-26.5 1067.68,-6.5 963.34,-6.5"/>
<text text-anchor="middle" x="1015.51" y="-13.5" font-family="Helvetica,sans-Serif" font-size="10.00">haldls/vx/common.h</text>
</a>
</g>
</g>
<!-- Node3&#45;&gt;Node7 -->
<g id="edge8" class="edge">
<title>Node3&#45;&gt;Node7</title>
<path fill="none" stroke="midnightblue" d="M703.97,-71.04C707.86,-70.33 711.76,-69.64 715.51,-69 821.4,-50.97 849.21,-54.25 954.51,-33 960.34,-31.82 966.45,-30.45 972.46,-29.01"/>
<polygon fill="midnightblue" stroke="midnightblue" points="973.53,-32.34 982.4,-26.55 971.86,-25.55 973.53,-32.34"/>
</g>
<!-- Node8 -->
<g id="node9" class="node">
<title>Node8</title>
<g id="a_node9"><a xlink:title=" ">
<polygon fill="white" stroke="#bfbfbf" points="1085.67,-6.5 1085.67,-26.5 1173.35,-26.5 1173.35,-6.5 1085.67,-6.5"/>
<text text-anchor="middle" x="1129.51" y="-13.5" font-family="Helvetica,sans-Serif" font-size="10.00">haldls/vx/traits.h</text>
</a>
</g>
</g>
<!-- Node3&#45;&gt;Node8 -->
<g id="edge9" class="edge">
<title>Node3&#45;&gt;Node8</title>
<path fill="none" stroke="midnightblue" d="M703.94,-70.84C707.84,-70.17 711.75,-69.54 715.51,-69 875.09,-45.93 918.23,-63.76 1076.51,-33 1081.67,-32 1087.05,-30.71 1092.32,-29.31"/>
<polygon fill="midnightblue" stroke="midnightblue" points="1093.56,-32.6 1102.24,-26.52 1091.66,-25.86 1093.56,-32.6"/>
</g>
<!-- Node9 -->
<g id="node10" class="node">
<title>Node9</title>
<g id="a_node10"><a xlink:title=" ">
<polygon fill="white" stroke="#bfbfbf" points="623,-6.5 623,-26.5 704.01,-26.5 704.01,-6.5 623,-6.5"/>
<text text-anchor="middle" x="663.51" y="-13.5" font-family="Helvetica,sans-Serif" font-size="10.00">hate/visibility.h</text>
</a>
</g>
</g>
<!-- Node3&#45;&gt;Node9 -->
<g id="edge10" class="edge">
<title>Node3&#45;&gt;Node9</title>
<path fill="none" stroke="midnightblue" d="M665.21,-69.5C664.93,-60.94 664.5,-47.78 664.14,-36.85"/>
<polygon fill="midnightblue" stroke="midnightblue" points="667.63,-36.42 663.8,-26.54 660.63,-36.65 667.63,-36.42"/>
</g>
<!-- Node10 -->
<g id="node11" class="node">
<title>Node10</title>
<g id="a_node11"><a xlink:title=" ">
<polygon fill="white" stroke="#bfbfbf" points="721.66,-6.5 721.66,-26.5 819.36,-26.5 819.36,-6.5 721.66,-6.5"/>
<text text-anchor="middle" x="770.51" y="-13.5" font-family="Helvetica,sans-Serif" font-size="10.00">pybind11/numpy.h</text>
</a>
</g>
</g>
<!-- Node3&#45;&gt;Node10 -->
<g id="edge12" class="edge">
<title>Node3&#45;&gt;Node10</title>
<path fill="none" stroke="midnightblue" d="M681,-69.5C698.14,-59.54 725.98,-43.37 746.07,-31.7"/>
<polygon fill="midnightblue" stroke="midnightblue" points="748.06,-34.59 754.95,-26.54 744.55,-28.53 748.06,-34.59"/>
</g>
<!-- Node11&#45;&gt;Node1 -->
<g id="edge22" class="edge">
<title>Node11&#45;&gt;Node1</title>
<path fill="none" stroke="midnightblue" d="M917.44,-75.82C788.07,-66.21 354.62,-33.98 347.51,-33 338.77,-31.8 329.54,-30.21 320.61,-28.52"/>
<polygon fill="midnightblue" stroke="midnightblue" points="321.2,-25.07 310.71,-26.57 319.85,-31.93 321.2,-25.07"/>
</g>
<!-- Node11&#45;&gt;Node4 -->
<g id="edge14" class="edge">
<title>Node11&#45;&gt;Node4</title>
<path fill="none" stroke="midnightblue" d="M917.67,-74.4C855.57,-67.14 724,-51.08 613.51,-33 605.18,-31.64 596.39,-30.07 587.8,-28.46"/>
<polygon fill="midnightblue" stroke="midnightblue" points="588.33,-25 577.86,-26.57 587.03,-31.88 588.33,-25"/>
</g>
<!-- Node11&#45;&gt;Node5 -->
<g id="edge16" class="edge">
<title>Node11&#45;&gt;Node5</title>
<path fill="none" stroke="midnightblue" d="M944.36,-69.5C936.44,-61.71 924.66,-50.12 914.23,-39.86"/>
<polygon fill="midnightblue" stroke="midnightblue" points="916.53,-37.21 906.95,-32.69 911.62,-42.2 916.53,-37.21"/>
</g>
<!-- Node11&#45;&gt;Node7 -->
<g id="edge18" class="edge">
<title>Node11&#45;&gt;Node7</title>
<path fill="none" stroke="midnightblue" d="M962.66,-69.5C972.18,-60.13 987.3,-45.25 998.94,-33.8"/>
<polygon fill="midnightblue" stroke="midnightblue" points="1001.65,-36.05 1006.32,-26.54 996.74,-31.06 1001.65,-36.05"/>
</g>
<!-- Node11&#45;&gt;Node8 -->
<g id="edge20" class="edge">
<title>Node11&#45;&gt;Node8</title>
<path fill="none" stroke="midnightblue" d="M979.48,-69.5C1009.76,-59 1059.99,-41.59 1093.9,-29.84"/>
<polygon fill="midnightblue" stroke="midnightblue" points="1095.13,-33.12 1103.43,-26.54 1092.84,-26.51 1095.13,-33.12"/>
</g>
<!-- Node11&#45;&gt;Node9 -->
<g id="edge21" class="edge">
<title>Node11&#45;&gt;Node9</title>
<path fill="none" stroke="midnightblue" d="M917.69,-73.11C870.36,-65.68 784.56,-51.13 712.51,-33 708.37,-31.96 704.07,-30.77 699.81,-29.51"/>
<polygon fill="midnightblue" stroke="midnightblue" points="700.63,-26.11 690.04,-26.53 698.59,-32.8 700.63,-26.11"/>
</g>
<!-- Node12 -->
<g id="node13" class="node">
<title>Node12</title>
<g id="a_node13"><a xlink:title=" ">
<polygon fill="white" stroke="#bfbfbf" points="1438.72,-6.5 1438.72,-26.5 1560.29,-26.5 1560.29,-6.5 1438.72,-6.5"/>
<text text-anchor="middle" x="1499.51" y="-13.5" font-family="Helvetica,sans-Serif" font-size="10.00">halco/common/iter_all.h</text>
</a>
</g>
</g>
<!-- Node11&#45;&gt;Node12 -->
<g id="edge15" class="edge">
<title>Node11&#45;&gt;Node12</title>
<path fill="none" stroke="midnightblue" d="M989.31,-76.63C1068.98,-72.13 1266.82,-59.09 1430.51,-33 1437.93,-31.82 1445.74,-30.32 1453.34,-28.71"/>
<polygon fill="midnightblue" stroke="midnightblue" points="1454.13,-32.12 1463.15,-26.57 1452.63,-25.28 1454.13,-32.12"/>
</g>
<!-- Node13 -->
<g id="node14" class="node">
<title>Node13</title>
<g id="a_node14"><a xlink:title=" ">
<polygon fill="white" stroke="#bfbfbf" points="1578,-0.5 1578,-32.5 1679.02,-32.5 1679.02,-0.5 1578,-0.5"/>
<text text-anchor="start" x="1586" y="-19.5" font-family="Helvetica,sans-Serif" font-size="10.00">halco/hicann&#45;dls/vx</text>
<text text-anchor="middle" x="1628.51" y="-7.5" font-family="Helvetica,sans-Serif" font-size="10.00">/dac.h</text>
</a>
</g>
</g>
<!-- Node11&#45;&gt;Node13 -->
<g id="edge17" class="edge">
<title>Node11&#45;&gt;Node13</title>
<path fill="none" stroke="midnightblue" d="M989.54,-78.14C1083.48,-76.7 1343.58,-69.61 1567.81,-33.1"/>
<polygon fill="midnightblue" stroke="midnightblue" points="1568.49,-36.54 1577.79,-31.46 1567.35,-29.63 1568.49,-36.54"/>
</g>
<!-- Node14 -->
<g id="node15" class="node">
<title>Node14</title>
<g id="a_node15"><a xlink:title=" ">
<polygon fill="white" stroke="#bfbfbf" points="1697.11,-6.5 1697.11,-26.5 1775.9,-26.5 1775.9,-6.5 1697.11,-6.5"/>
<text text-anchor="middle" x="1736.51" y="-13.5" font-family="Helvetica,sans-Serif" font-size="10.00">haldls/vx/spi.h</text>
</a>
</g>
</g>
<!-- Node11&#45;&gt;Node14 -->
<g id="edge19" class="edge">
<title>Node11&#45;&gt;Node14</title>
<path fill="none" stroke="midnightblue" d="M989.55,-77.46C1117.87,-73.59 1552.06,-58.83 1688.51,-33 1693.08,-32.13 1697.83,-30.96 1702.48,-29.64"/>
<polygon fill="midnightblue" stroke="midnightblue" points="1703.87,-32.87 1712.4,-26.59 1701.81,-26.18 1703.87,-32.87"/>
</g>
<!-- Node15&#45;&gt;Node1 -->
<g id="edge27" class="edge">
<title>Node15&#45;&gt;Node1</title>
<path fill="none" stroke="midnightblue" d="M452.08,-69.5C414.88,-58.84 352.8,-41.07 311.76,-29.31"/>
<polygon fill="midnightblue" stroke="midnightblue" points="312.64,-25.93 302.07,-26.54 310.72,-32.66 312.64,-25.93"/>
</g>
<!-- Node15&#45;&gt;Node4 -->
<g id="edge24" class="edge">
<title>Node15&#45;&gt;Node4</title>
<path fill="none" stroke="midnightblue" d="M490.89,-69.5C498.42,-60.31 510.3,-45.82 519.6,-34.47"/>
<polygon fill="midnightblue" stroke="midnightblue" points="522.47,-36.49 526.1,-26.54 517.05,-32.05 522.47,-36.49"/>
</g>
<!-- Node15&#45;&gt;Node9 -->
<g id="edge26" class="edge">
<title>Node15&#45;&gt;Node9</title>
<path fill="none" stroke="midnightblue" d="M510.07,-69.5C541.04,-59 592.41,-41.59 627.09,-29.84"/>
<polygon fill="midnightblue" stroke="midnightblue" points="628.49,-33.06 636.84,-26.54 626.25,-26.43 628.49,-33.06"/>
</g>
<!-- Node16 -->
<g id="node17" class="node">
<title>Node16</title>
<g id="a_node17"><a xlink:title=" ">
<polygon fill="white" stroke="#bfbfbf" points="0,-0.5 0,-32.5 101.02,-32.5 101.02,-0.5 0,-0.5"/>
<text text-anchor="start" x="8" y="-19.5" font-family="Helvetica,sans-Serif" font-size="10.00">halco/hicann&#45;dls/vx</text>
<text text-anchor="middle" x="50.51" y="-7.5" font-family="Helvetica,sans-Serif" font-size="10.00">/coordinates.h</text>
</a>
</g>
</g>
<!-- Node15&#45;&gt;Node16 -->
<g id="edge25" class="edge">
<title>Node15&#45;&gt;Node16</title>
<path fill="none" stroke="midnightblue" d="M447.26,-75.67C382.01,-70.24 240.37,-56.88 111.21,-32.97"/>
<polygon fill="midnightblue" stroke="midnightblue" points="111.62,-29.48 101.14,-31.08 110.32,-36.36 111.62,-29.48"/>
</g>
<!-- Node17 -->
<g id="node18" class="node">
<title>Node17</title>
<g id="a_node18"><a xlink:title=" ">
<polygon fill="white" stroke="#bfbfbf" points="119.16,-6.5 119.16,-26.5 201.85,-26.5 201.85,-6.5 119.16,-6.5"/>
<text text-anchor="middle" x="160.51" y="-13.5" font-family="Helvetica,sans-Serif" font-size="10.00">haldls/vx/ppu.h</text>
</a>
</g>
</g>
<!-- Node15&#45;&gt;Node17 -->
<g id="edge28" class="edge">
<title>Node15&#45;&gt;Node17</title>
<path fill="none" stroke="midnightblue" d="M447.42,-74.07C394.88,-67.27 294.43,-52.9 210.51,-33 206.11,-31.96 201.54,-30.73 197.02,-29.44"/>
<polygon fill="midnightblue" stroke="midnightblue" points="197.89,-26.05 187.31,-26.54 195.89,-32.76 197.89,-26.05"/>
</g>
<!-- Node18&#45;&gt;Node1 -->
<g id="edge36" class="edge">
<title>Node18&#45;&gt;Node1</title>
<path fill="none" stroke="midnightblue" d="M724.01,-70.62C720.12,-70.04 716.25,-69.49 712.51,-69 550.88,-47.81 508.72,-57.11 347.51,-33 339.07,-31.74 330.17,-30.17 321.52,-28.52"/>
<polygon fill="midnightblue" stroke="midnightblue" points="322.02,-25.05 311.53,-26.55 320.67,-31.92 322.02,-25.05"/>
</g>
<!-- Node18&#45;&gt;Node4 -->
<g id="edge30" class="edge">
<title>Node18&#45;&gt;Node4</title>
<path fill="none" stroke="midnightblue" d="M735.54,-69.5C693.88,-58.78 624.2,-40.84 578.55,-29.09"/>
<polygon fill="midnightblue" stroke="midnightblue" points="579.18,-25.64 568.62,-26.54 577.43,-32.42 579.18,-25.64"/>
</g>
<!-- Node18&#45;&gt;Node7 -->
<g id="edge32" class="edge">
<title>Node18&#45;&gt;Node7</title>
<path fill="none" stroke="midnightblue" d="M807.53,-69.42C844.7,-60.28 903.6,-45.76 954.51,-33 959.55,-31.74 964.82,-30.41 970.06,-29.08"/>
<polygon fill="midnightblue" stroke="midnightblue" points="971.2,-32.4 980.04,-26.55 969.48,-25.62 971.2,-32.4"/>
</g>
<!-- Node18&#45;&gt;Node8 -->
<g id="edge34" class="edge">
<title>Node18&#45;&gt;Node8</title>
<path fill="none" stroke="midnightblue" d="M817.01,-73.59C877.29,-66.78 985.49,-52.98 1076.51,-33 1081.35,-31.94 1086.39,-30.67 1091.36,-29.33"/>
<polygon fill="midnightblue" stroke="midnightblue" points="1092.69,-32.59 1101.36,-26.51 1090.79,-25.86 1092.69,-32.59"/>
</g>
<!-- Node18&#45;&gt;Node9 -->
<g id="edge35" class="edge">
<title>Node18&#45;&gt;Node9</title>
<path fill="none" stroke="midnightblue" d="M754.72,-69.5C737.18,-59.5 708.63,-43.22 688.14,-31.54"/>
<polygon fill="midnightblue" stroke="midnightblue" points="689.78,-28.45 679.36,-26.54 686.31,-34.53 689.78,-28.45"/>
</g>
<!-- Node18&#45;&gt;Node10 -->
<g id="edge37" class="edge">
<title>Node18&#45;&gt;Node10</title>
<path fill="none" stroke="midnightblue" d="M770.51,-69.5C770.51,-60.94 770.51,-47.78 770.51,-36.85"/>
<polygon fill="midnightblue" stroke="midnightblue" points="774.01,-36.54 770.51,-26.54 767.01,-36.54 774.01,-36.54"/>
</g>
<!-- Node19 -->
<g id="node20" class="node">
<title>Node19</title>
<g id="a_node20"><a xlink:title=" ">
<polygon fill="white" stroke="#bfbfbf" points="1191.39,-0.5 1191.39,-32.5 1299.63,-32.5 1299.63,-0.5 1191.39,-0.5"/>
<text text-anchor="start" x="1199.39" y="-19.5" font-family="Helvetica,sans-Serif" font-size="10.00">halco/common/typed</text>
<text text-anchor="middle" x="1245.51" y="-7.5" font-family="Helvetica,sans-Serif" font-size="10.00">_heap_array.h</text>
</a>
</g>
</g>
<!-- Node18&#45;&gt;Node19 -->
<g id="edge31" class="edge">
<title>Node18&#45;&gt;Node19</title>
<path fill="none" stroke="midnightblue" d="M817.13,-75.35C891.99,-69.87 1043.74,-56.95 1181.42,-33.05"/>
<polygon fill="midnightblue" stroke="midnightblue" points="1182.07,-36.49 1191.31,-31.31 1180.85,-29.6 1182.07,-36.49"/>
</g>
<!-- Node20 -->
<g id="node21" class="node">
<title>Node20</title>
<g id="a_node21"><a xlink:title=" ">
<polygon fill="white" stroke="#bfbfbf" points="1317.88,-6.5 1317.88,-26.5 1421.13,-26.5 1421.13,-6.5 1317.88,-6.5"/>
<text text-anchor="middle" x="1369.51" y="-13.5" font-family="Helvetica,sans-Serif" font-size="10.00">haldls/vx/synapse.h</text>
</a>
</g>
</g>
<!-- Node18&#45;&gt;Node20 -->
<g id="edge33" class="edge">
<title>Node18&#45;&gt;Node20</title>
<path fill="none" stroke="midnightblue" d="M817.28,-74.99C939.22,-65.77 1260.73,-41.03 1308.51,-33 1314.87,-31.93 1321.55,-30.53 1328.05,-29.01"/>
<polygon fill="midnightblue" stroke="midnightblue" points="1329.18,-32.33 1338.06,-26.54 1327.51,-25.53 1329.18,-32.33"/>
</g>
</g>
</svg>
        <g id="navigator" transform="translate(0 0)" fill="#404254">
                <rect fill="#f2f5e9" fill-opacity="0.5" stroke="#606060" stroke-width=".5" x="0" y="0" width="60" height="60"/>
                <use id="zoomplus" xlink:href="#zoomPlus" x="17" y="9" onmousedown="handleZoom(evt,'in')"/>
                <use id="zoomminus" xlink:href="#zoomMin" x="42" y="9" onmousedown="handleZoom(evt,'out')"/>
                <use id="reset" xlink:href="#resetDef" x="30" y="36" onmousedown="handleReset()"/>
                <g id="arrowUp" xlink:href="#dirArrow" transform="translate(30 24)" onmousedown="handlePan(0,-1)">
                  <use xlink:href="#rim" fill="#404040">
                        <set attributeName="fill" to="#808080" begin="arrowUp.mouseover" end="arrowUp.mouseout"/>
                  </use>
                  <path fill="none" stroke="white" stroke-width="1.5" d="M0,-3.0v7 M-2.5,-0.5L0,-3.0L2.5,-0.5"/>
                </g>
                <g id="arrowRight" xlink:href="#dirArrow" transform="rotate(90) translate(36 -43)" onmousedown="handlePan(1,0)">
                  <use xlink:href="#rim" fill="#404040">
                        <set attributeName="fill" to="#808080" begin="arrowRight.mouseover" end="arrowRight.mouseout"/>
                  </use>
                  <path fill="none" stroke="white" stroke-width="1.5" d="M0,-3.0v7 M-2.5,-0.5L0,-3.0L2.5,-0.5"/>
                </g>
                <g id="arrowDown" xlink:href="#dirArrow" transform="rotate(180) translate(-30 -48)" onmousedown="handlePan(0,1)">
                  <use xlink:href="#rim" fill="#404040">
                        <set attributeName="fill" to="#808080" begin="arrowDown.mouseover" end="arrowDown.mouseout"/>
                  </use>
                  <path fill="none" stroke="white" stroke-width="1.5" d="M0,-3.0v7 M-2.5,-0.5L0,-3.0L2.5,-0.5"/>
                </g>
                <g id="arrowLeft" xlink:href="#dirArrow" transform="rotate(270) translate(-36 17)" onmousedown="handlePan(-1,0)">
                  <use xlink:href="#rim" fill="#404040">
                        <set attributeName="fill" to="#808080" begin="arrowLeft.mouseover" end="arrowLeft.mouseout"/>
                  </use>
                  <path fill="none" stroke="white" stroke-width="1.5" d="M0,-3.0v7 M-2.5,-0.5L0,-3.0L2.5,-0.5"/>
                </g>
        </g>
        <svg viewBox="0 0 15 15" width="100%" height="30px" preserveAspectRatio="xMaxYMin meet">
         <g id="arrow_out" transform="scale(0.3 0.3)">
          <a xlink:href="vx_2lola_8h__incl_org.svg" target="_base">
           <rect id="button" ry="5" rx="5" y="6" x="6" height="38" width="38"
                fill="#f2f5e9" fill-opacity="0.5" stroke="#606060" stroke-width="1.0"/>
           <path id="arrow"
             d="M 11.500037,31.436501 C 11.940474,20.09759 22.043105,11.32322 32.158766,21.979434 L 37.068811,17.246167 C 37.068811,17.246167 37.088388,32 37.088388,32 L 22.160133,31.978069 C 22.160133,31.978069 26.997745,27.140456 26.997745,27.140456 C 18.528582,18.264221 13.291696,25.230495 11.500037,31.436501 z"
             style="fill:#404040;"/>
          </a>
         </g>
        </svg>
</svg>
