<?xml version="1.0" encoding="UTF-8" standalone="no"?>
<!DOCTYPE svg PUBLIC "-//W3C//DTD SVG 1.1//EN"
 "http://www.w3.org/Graphics/SVG/1.1/DTD/svg11.dtd">
<!-- Generated by graphviz version 2.43.0 (0)
 -->
<!-- Title: stadls::vx::detail::InitGenerator Pages: 1 -->
<svg width="258pt" height="98pt"
 viewBox="0.00 0.00 257.74 98.00" xmlns="http://www.w3.org/2000/svg" xmlns:xlink="http://www.w3.org/1999/xlink">
<g id="graph0" class="graph" transform="scale(1 1) rotate(0) translate(4 94)">
<title>stadls::vx::detail::InitGenerator</title>
<polygon fill="white" stroke="transparent" points="-4,4 -4,-94 253.74,-94 253.74,4 -4,4"/>
<!-- Node0 -->
<g id="node1" class="node">
<title>Node0</title>
<g id="a_node1"><a xlink:title="Generator for an initialization of the xBoard and the chip up to allowing access to all digital setti...">
<polygon fill="#bfbfbf" stroke="black" points="75.61,-57.5 75.61,-89.5 162.73,-89.5 162.73,-57.5 75.61,-57.5"/>
<text text-anchor="start" x="83.61" y="-76.5" font-family="Helvetica,sans-Serif" font-size="10.00">stadls::vx::detail</text>
<text text-anchor="middle" x="119.17" y="-64.5" font-family="Helvetica,sans-Serif" font-size="10.00">::InitGenerator</text>
</a>
</g>
</g>
<!-- Node1 -->
<g id="node2" class="node">
<title>Node1</title>
<g id="a_node2"><a xlink:href="classstadls_1_1vx_1_1_digital_init.html" target="_top" xlink:title="Generator for initialization of the chip up to digital communication.">
<polygon fill="white" stroke="black" points="0,-0.5 0,-20.5 104.34,-20.5 104.34,-0.5 0,-0.5"/>
<text text-anchor="middle" x="52.17" y="-7.5" font-family="Helvetica,sans-Serif" font-size="10.00">stadls::vx::DigitalInit</text>
</a>
</g>
</g>
<!-- Node0&#45;&gt;Node1 -->
<g id="edge1" class="edge">
<title>Node0&#45;&gt;Node1</title>
<path fill="none" stroke="midnightblue" d="M95.07,-50.55C83.7,-40.21 70.77,-28.44 62.11,-20.55"/>
<polygon fill="midnightblue" stroke="midnightblue" points="92.86,-53.28 102.61,-57.42 97.57,-48.1 92.86,-53.28"/>
</g>
<!-- Node2 -->
<g id="node3" class="node">
<title>Node2</title>
<g id="a_node3"><a xlink:href="classstadls_1_1vx_1_1_experiment_init.html" target="_top" xlink:title="Generator for initialization required for typical experiments.">
<polygon fill="white" stroke="black" points="122.61,-0.5 122.61,-20.5 249.74,-20.5 249.74,-0.5 122.61,-0.5"/>
<text text-anchor="middle" x="186.17" y="-7.5" font-family="Helvetica,sans-Serif" font-size="10.00">stadls::vx::ExperimentInit</text>
</a>
</g>
</g>
<!-- Node0&#45;&gt;Node2 -->
<g id="edge2" class="edge">
<title>Node0&#45;&gt;Node2</title>
<path fill="none" stroke="midnightblue" d="M143.28,-50.55C154.64,-40.21 167.57,-28.44 176.23,-20.55"/>
<polygon fill="midnightblue" stroke="midnightblue" points="140.77,-48.1 135.73,-57.42 145.48,-53.28 140.77,-48.1"/>
</g>
</g>
</svg>
