<?xml version="1.0" encoding="UTF-8" standalone="no"?>
<!DOCTYPE svg PUBLIC "-//W3C//DTD SVG 1.1//EN"
 "http://www.w3.org/Graphics/SVG/1.1/DTD/svg11.dtd">
<!-- Generated by graphviz version 2.43.0 (0)
 -->
<!-- Title: stadls::vx::DigitalInit Pages: 1 -->
<svg width="160pt" height="180pt"
 viewBox="0.00 0.00 159.59 180.00" xmlns="http://www.w3.org/2000/svg" xmlns:xlink="http://www.w3.org/1999/xlink">
<g id="graph0" class="graph" transform="scale(1 1) rotate(0) translate(4 176)">
<title>stadls::vx::DigitalInit</title>
<polygon fill="white" stroke="transparent" points="-4,4 -4,-176 155.59,-176 155.59,4 -4,4"/>
<!-- Node2 -->
<g id="node1" class="node">
<title>Node2</title>
<g id="a_node1"><a xlink:title="Generator for initialization of the chip up to digital communication.">
<polygon fill="#bfbfbf" stroke="black" points="23.63,-0.5 23.63,-20.5 127.97,-20.5 127.97,-0.5 23.63,-0.5"/>
<text text-anchor="middle" x="75.8" y="-7.5" font-family="Helvetica,sans-Serif" font-size="10.00">stadls::vx::DigitalInit</text>
</a>
</g>
</g>
<!-- Node3 -->
<g id="node2" class="node">
<title>Node3</title>
<g id="a_node2"><a xlink:href="classstadls_1_1vx_1_1detail_1_1InitGenerator.html" target="_top" xlink:title="Generator for an initialization of the xBoard and the chip up to allowing access to all digital setti...">
<polygon fill="white" stroke="black" points="32.23,-58.5 32.23,-90.5 119.36,-90.5 119.36,-58.5 32.23,-58.5"/>
<text text-anchor="start" x="40.23" y="-77.5" font-family="Helvetica,sans-Serif" font-size="10.00">stadls::vx::detail</text>
<text text-anchor="middle" x="75.8" y="-65.5" font-family="Helvetica,sans-Serif" font-size="10.00">::InitGenerator</text>
</a>
</g>
</g>
<!-- Node3&#45;&gt;Node2 -->
<g id="edge1" class="edge">
<title>Node3&#45;&gt;Node2</title>
<path fill="none" stroke="midnightblue" d="M75.8,-48.42C75.8,-38.67 75.8,-28.11 75.8,-20.79"/>
<polygon fill="midnightblue" stroke="midnightblue" points="72.3,-48.49 75.8,-58.49 79.3,-48.49 72.3,-48.49"/>
</g>
<!-- Node4 -->
<g id="node3" class="node">
<title>Node4</title>
<g id="a_node3"><a xlink:href="structstadls_1_1vx_1_1detail_1_1InitGenerator_1_1HighspeedLink.html" target="_top" xlink:title=" ">
<polygon fill="white" stroke="black" points="0,-139.5 0,-171.5 151.59,-171.5 151.59,-139.5 0,-139.5"/>
<text text-anchor="start" x="8" y="-158.5" font-family="Helvetica,sans-Serif" font-size="10.00">stadls::vx::detail</text>
<text text-anchor="middle" x="75.8" y="-146.5" font-family="Helvetica,sans-Serif" font-size="10.00">::InitGenerator::HighspeedLink</text>
</a>
</g>
</g>
<!-- Node4&#45;&gt;Node3 -->
<g id="edge2" class="edge">
<title>Node4&#45;&gt;Node3</title>
<path fill="none" stroke="#9a32cd" stroke-dasharray="5,2" d="M75.8,-128.89C75.8,-116.28 75.8,-101.49 75.8,-90.69"/>
<polygon fill="#9a32cd" stroke="#9a32cd" points="72.3,-129.27 75.8,-139.27 79.3,-129.27 72.3,-129.27"/>
<text text-anchor="middle" x="110.53" y="-112" font-family="Helvetica,sans-Serif" font-size="10.00"> highspeed_link</text>
</g>
</g>
</svg>
