<?xml version="1.0" encoding="UTF-8" standalone="no"?>
<!DOCTYPE svg PUBLIC "-//W3C//DTD SVG 1.1//EN"
 "http://www.w3.org/Graphics/SVG/1.1/DTD/svg11.dtd">
<!-- Generated by graphviz version 2.43.0 (0)
 -->
<!-- Title: /jenkins/jenlib_workspaces_f9/bld_nightly&#45;haldls.YmxkX25pZ2h0bHktaGFsZGxzIzcxMQ.x/haldls/include/stadls/vx/decode.h Pages: 1 -->
<svg width="1106pt" height="191pt"
 viewBox="0.00 0.00 1105.77 191.00" xmlns="http://www.w3.org/2000/svg" xmlns:xlink="http://www.w3.org/1999/xlink">
<g id="graph0" class="graph" transform="scale(1 1) rotate(0) translate(4 187)">
<title>/jenkins/jenlib_workspaces_f9/bld_nightly&#45;haldls.YmxkX25pZ2h0bHktaGFsZGxzIzcxMQ.x/haldls/include/stadls/vx/decode.h</title>
<polygon fill="white" stroke="transparent" points="-4,4 -4,-187 1101.77,-187 1101.77,4 -4,4"/>
<!-- Node0 -->
<g id="node1" class="node">
<title>Node0</title>
<g id="a_node1"><a xlink:title=" ">
<polygon fill="#bfbfbf" stroke="black" points="352.26,-126.5 352.26,-182.5 530.5,-182.5 530.5,-126.5 352.26,-126.5"/>
<text text-anchor="start" x="360.26" y="-169.5" font-family="Helvetica,sans-Serif" font-size="10.00">/jenkins/jenlib_workspaces</text>
<text text-anchor="start" x="360.26" y="-157.5" font-family="Helvetica,sans-Serif" font-size="10.00">_f9/bld_nightly&#45;haldls.YmxkX25p</text>
<text text-anchor="start" x="360.26" y="-145.5" font-family="Helvetica,sans-Serif" font-size="10.00">Z2h0bHktaGFsZGxzIzcxMQ.x/haldls</text>
<text text-anchor="middle" x="441.38" y="-133.5" font-family="Helvetica,sans-Serif" font-size="10.00">/include/stadls/vx/decode.h</text>
</a>
</g>
</g>
<!-- Node1 -->
<g id="node2" class="node">
<title>Node1</title>
<g id="a_node2"><a xlink:title=" ">
<polygon fill="white" stroke="#bfbfbf" points="0,-63.5 0,-83.5 38.77,-83.5 38.77,-63.5 0,-63.5"/>
<text text-anchor="middle" x="19.38" y="-70.5" font-family="Helvetica,sans-Serif" font-size="10.00">limits</text>
</a>
</g>
</g>
<!-- Node0&#45;&gt;Node1 -->
<g id="edge1" class="edge">
<title>Node0&#45;&gt;Node1</title>
<path fill="none" stroke="midnightblue" d="M352.01,-147.92C270.72,-140.8 148.4,-124.9 47.38,-90 45.76,-89.44 44.12,-88.79 42.49,-88.07"/>
<polygon fill="midnightblue" stroke="midnightblue" points="43.98,-84.91 33.47,-83.54 40.83,-91.16 43.98,-84.91"/>
</g>
<!-- Node2 -->
<g id="node3" class="node">
<title>Node2</title>
<g id="a_node3"><a xlink:title=" ">
<polygon fill="white" stroke="#bfbfbf" points="56.44,-63.5 56.44,-83.5 106.33,-83.5 106.33,-63.5 56.44,-63.5"/>
<text text-anchor="middle" x="81.38" y="-70.5" font-family="Helvetica,sans-Serif" font-size="10.00">random</text>
</a>
</g>
</g>
<!-- Node0&#45;&gt;Node2 -->
<g id="edge2" class="edge">
<title>Node0&#45;&gt;Node2</title>
<path fill="none" stroke="midnightblue" d="M352.1,-141.91C285.78,-131.91 193.63,-115.07 115.38,-90 113.09,-89.27 110.75,-88.42 108.42,-87.51"/>
<polygon fill="midnightblue" stroke="midnightblue" points="109.64,-84.22 99.07,-83.51 106.89,-90.66 109.64,-84.22"/>
</g>
<!-- Node3 -->
<g id="node4" class="node">
<title>Node3</title>
<g id="a_node4"><a xlink:title=" ">
<polygon fill="white" stroke="#bfbfbf" points="124.6,-63.5 124.6,-83.5 226.17,-83.5 226.17,-63.5 124.6,-63.5"/>
<text text-anchor="middle" x="175.38" y="-70.5" font-family="Helvetica,sans-Serif" font-size="10.00">fisch/vx/container.h</text>
</a>
</g>
</g>
<!-- Node0&#45;&gt;Node3 -->
<g id="edge3" class="edge">
<title>Node0&#45;&gt;Node3</title>
<path fill="none" stroke="midnightblue" d="M352.07,-126.97C305.85,-113.25 251.72,-97.17 215.67,-86.46"/>
<polygon fill="midnightblue" stroke="midnightblue" points="216.59,-83.09 206,-83.59 214.59,-89.8 216.59,-83.09"/>
</g>
<!-- Node4 -->
<g id="node5" class="node">
<title>Node4</title>
<g id="a_node5"><a xlink:title=" ">
<polygon fill="white" stroke="#bfbfbf" points="244.44,-63.5 244.44,-83.5 314.33,-83.5 314.33,-63.5 244.44,-63.5"/>
<text text-anchor="middle" x="279.38" y="-70.5" font-family="Helvetica,sans-Serif" font-size="10.00">fisch/vx/fill.h</text>
</a>
</g>
</g>
<!-- Node0&#45;&gt;Node4 -->
<g id="edge4" class="edge">
<title>Node0&#45;&gt;Node4</title>
<path fill="none" stroke="midnightblue" d="M385.63,-126.31C359.12,-113.39 328.6,-98.5 307.1,-88.01"/>
<polygon fill="midnightblue" stroke="midnightblue" points="308.42,-84.76 297.89,-83.53 305.35,-91.06 308.42,-84.76"/>
</g>
<!-- Node5 -->
<g id="node6" class="node">
<title>Node5</title>
<g id="a_node6"><a xlink:title=" ">
<polygon fill="white" stroke="#bfbfbf" points="331.87,-57.5 331.87,-89.5 432.89,-89.5 432.89,-57.5 331.87,-57.5"/>
<text text-anchor="start" x="339.87" y="-76.5" font-family="Helvetica,sans-Serif" font-size="10.00">halco/hicann&#45;dls/vx</text>
<text text-anchor="middle" x="382.38" y="-64.5" font-family="Helvetica,sans-Serif" font-size="10.00">/capmem.h</text>
</a>
</g>
</g>
<!-- Node0&#45;&gt;Node5 -->
<g id="edge5" class="edge">
<title>Node0&#45;&gt;Node5</title>
<path fill="none" stroke="midnightblue" d="M421.08,-126.31C414.11,-116.98 406.37,-106.62 399.66,-97.64"/>
<polygon fill="midnightblue" stroke="midnightblue" points="402.39,-95.44 393.6,-89.52 396.78,-99.63 402.39,-95.44"/>
</g>
<!-- Node6 -->
<g id="node7" class="node">
<title>Node6</title>
<g id="a_node7"><a xlink:title=" ">
<polygon fill="white" stroke="#bfbfbf" points="450.87,-57.5 450.87,-89.5 551.89,-89.5 551.89,-57.5 450.87,-57.5"/>
<text text-anchor="start" x="458.87" y="-76.5" font-family="Helvetica,sans-Serif" font-size="10.00">halco/hicann&#45;dls/vx</text>
<text text-anchor="middle" x="501.38" y="-64.5" font-family="Helvetica,sans-Serif" font-size="10.00">/ppu.h</text>
</a>
</g>
</g>
<!-- Node0&#45;&gt;Node6 -->
<g id="edge6" class="edge">
<title>Node0&#45;&gt;Node6</title>
<path fill="none" stroke="midnightblue" d="M462.03,-126.31C469.12,-116.98 476.99,-106.62 483.81,-97.64"/>
<polygon fill="midnightblue" stroke="midnightblue" points="486.71,-99.61 489.97,-89.52 481.14,-95.37 486.71,-99.61"/>
</g>
<!-- Node7 -->
<g id="node8" class="node">
<title>Node7</title>
<g id="a_node8"><a xlink:title=" ">
<polygon fill="white" stroke="#bfbfbf" points="570.21,-63.5 570.21,-83.5 674.56,-83.5 674.56,-63.5 570.21,-63.5"/>
<text text-anchor="middle" x="622.38" y="-70.5" font-family="Helvetica,sans-Serif" font-size="10.00">haldls/vx/common.h</text>
</a>
</g>
</g>
<!-- Node0&#45;&gt;Node7 -->
<g id="edge7" class="edge">
<title>Node0&#45;&gt;Node7</title>
<path fill="none" stroke="midnightblue" d="M503.42,-126.42C533.46,-113.31 568.16,-98.17 592.3,-87.63"/>
<polygon fill="midnightblue" stroke="midnightblue" points="593.87,-90.76 601.64,-83.55 591.07,-84.35 593.87,-90.76"/>
</g>
<!-- Node8 -->
<g id="node9" class="node">
<title>Node8</title>
<g id="a_node9"><a xlink:title=" ">
<polygon fill="white" stroke="#bfbfbf" points="692.32,-63.5 692.32,-83.5 774.45,-83.5 774.45,-63.5 692.32,-63.5"/>
<text text-anchor="middle" x="733.38" y="-70.5" font-family="Helvetica,sans-Serif" font-size="10.00">haldls/vx/jtag.h</text>
</a>
</g>
</g>
<!-- Node0&#45;&gt;Node8 -->
<g id="edge8" class="edge">
<title>Node0&#45;&gt;Node8</title>
<path fill="none" stroke="midnightblue" d="M530.71,-131.06C576.49,-119.31 633.06,-104.39 683.38,-90 687.21,-88.91 691.18,-87.73 695.15,-86.54"/>
<polygon fill="midnightblue" stroke="midnightblue" points="696.35,-89.84 704.89,-83.57 694.3,-83.14 696.35,-89.84"/>
</g>
<!-- Node9 -->
<g id="node10" class="node">
<title>Node9</title>
<g id="a_node10"><a xlink:title=" ">
<polygon fill="white" stroke="#bfbfbf" points="792.54,-63.5 792.54,-83.5 880.22,-83.5 880.22,-63.5 792.54,-63.5"/>
<text text-anchor="middle" x="836.38" y="-70.5" font-family="Helvetica,sans-Serif" font-size="10.00">haldls/vx/traits.h</text>
</a>
</g>
</g>
<!-- Node0&#45;&gt;Node9 -->
<g id="edge9" class="edge">
<title>Node0&#45;&gt;Node9</title>
<path fill="none" stroke="midnightblue" d="M530.83,-139.43C600.14,-127.92 698.35,-110.27 783.38,-90 788.03,-88.89 792.88,-87.63 797.68,-86.31"/>
<polygon fill="midnightblue" stroke="midnightblue" points="798.7,-89.66 807.36,-83.56 796.79,-82.92 798.7,-89.66"/>
</g>
<!-- Node10 -->
<g id="node11" class="node">
<title>Node10</title>
<g id="a_node11"><a xlink:href="visitors_8h.html" target="_top" xlink:title=" ">
<polygon fill="white" stroke="black" points="898.21,-63.5 898.21,-83.5 982.55,-83.5 982.55,-63.5 898.21,-63.5"/>
<text text-anchor="middle" x="940.38" y="-70.5" font-family="Helvetica,sans-Serif" font-size="10.00">stadls/visitors.h</text>
</a>
</g>
</g>
<!-- Node0&#45;&gt;Node10 -->
<g id="edge10" class="edge">
<title>Node0&#45;&gt;Node10</title>
<path fill="none" stroke="midnightblue" d="M530.51,-144.96C621.44,-135.3 766.28,-117.26 889.38,-90 894.05,-88.97 898.91,-87.72 903.7,-86.39"/>
<polygon fill="midnightblue" stroke="midnightblue" points="904.71,-89.74 913.33,-83.57 902.75,-83.02 904.71,-89.74"/>
</g>
<!-- Node11 -->
<g id="node12" class="node">
<title>Node11</title>
<g id="a_node12"><a xlink:title=" ">
<polygon fill="white" stroke="#bfbfbf" points="784.83,-0.5 784.83,-20.5 841.94,-20.5 841.94,-0.5 784.83,-0.5"/>
<text text-anchor="middle" x="813.38" y="-7.5" font-family="Helvetica,sans-Serif" font-size="10.00">algorithm</text>
</a>
</g>
</g>
<!-- Node10&#45;&gt;Node11 -->
<g id="edge11" class="edge">
<title>Node10&#45;&gt;Node11</title>
<path fill="none" stroke="midnightblue" d="M921.64,-63.5C900.45,-53.32 865.71,-36.63 841.31,-24.91"/>
<polygon fill="midnightblue" stroke="midnightblue" points="842.73,-21.71 832.2,-20.54 839.7,-28.02 842.73,-21.71"/>
</g>
<!-- Node12 -->
<g id="node13" class="node">
<title>Node12</title>
<g id="a_node13"><a xlink:title=" ">
<polygon fill="white" stroke="#bfbfbf" points="859.99,-0.5 859.99,-20.5 898.77,-20.5 898.77,-0.5 859.99,-0.5"/>
<text text-anchor="middle" x="879.38" y="-7.5" font-family="Helvetica,sans-Serif" font-size="10.00">array</text>
</a>
</g>
</g>
<!-- Node10&#45;&gt;Node12 -->
<g id="edge12" class="edge">
<title>Node10&#45;&gt;Node12</title>
<path fill="none" stroke="midnightblue" d="M931.38,-63.5C922.01,-54.13 907.13,-39.25 895.69,-27.8"/>
<polygon fill="midnightblue" stroke="midnightblue" points="897.97,-25.13 888.42,-20.54 893.02,-30.08 897.97,-25.13"/>
</g>
<!-- Node13 -->
<g id="node14" class="node">
<title>Node13</title>
<g id="a_node14"><a xlink:title=" ">
<polygon fill="white" stroke="#bfbfbf" points="916.83,-0.5 916.83,-20.5 963.94,-20.5 963.94,-0.5 916.83,-0.5"/>
<text text-anchor="middle" x="940.38" y="-7.5" font-family="Helvetica,sans-Serif" font-size="10.00">iterator</text>
</a>
</g>
</g>
<!-- Node10&#45;&gt;Node13 -->
<g id="edge13" class="edge">
<title>Node10&#45;&gt;Node13</title>
<path fill="none" stroke="midnightblue" d="M940.38,-63.5C940.38,-54.94 940.38,-41.78 940.38,-30.85"/>
<polygon fill="midnightblue" stroke="midnightblue" points="943.88,-30.54 940.38,-20.54 936.88,-30.54 943.88,-30.54"/>
</g>
<!-- Node14 -->
<g id="node15" class="node">
<title>Node14</title>
<g id="a_node15"><a xlink:title=" ">
<polygon fill="white" stroke="#bfbfbf" points="981.99,-0.5 981.99,-20.5 1040.78,-20.5 1040.78,-0.5 981.99,-0.5"/>
<text text-anchor="middle" x="1011.38" y="-7.5" font-family="Helvetica,sans-Serif" font-size="10.00">stdexcept</text>
</a>
</g>
</g>
<!-- Node10&#45;&gt;Node14 -->
<g id="edge14" class="edge">
<title>Node10&#45;&gt;Node14</title>
<path fill="none" stroke="midnightblue" d="M950.86,-63.5C961.98,-53.95 979.75,-38.67 993.17,-27.15"/>
<polygon fill="midnightblue" stroke="midnightblue" points="995.56,-29.71 1000.86,-20.54 991,-24.4 995.56,-29.71"/>
</g>
<!-- Node15 -->
<g id="node16" class="node">
<title>Node15</title>
<g id="a_node16"><a xlink:title=" ">
<polygon fill="white" stroke="#bfbfbf" points="1059,-0.5 1059,-20.5 1097.77,-20.5 1097.77,-0.5 1059,-0.5"/>
<text text-anchor="middle" x="1078.38" y="-7.5" font-family="Helvetica,sans-Serif" font-size="10.00">utility</text>
</a>
</g>
</g>
<!-- Node10&#45;&gt;Node15 -->
<g id="edge15" class="edge">
<title>Node10&#45;&gt;Node15</title>
<path fill="none" stroke="midnightblue" d="M960.74,-63.5C984.25,-53.11 1023.07,-35.95 1049.65,-24.2"/>
<polygon fill="midnightblue" stroke="midnightblue" points="1051.1,-27.39 1058.83,-20.14 1048.27,-20.98 1051.1,-27.39"/>
</g>
</g>
</svg>
