<?xml version="1.0" encoding="UTF-8" standalone="no"?>
<!DOCTYPE svg PUBLIC "-//W3C//DTD SVG 1.1//EN"
 "http://www.w3.org/Graphics/SVG/1.1/DTD/svg11.dtd">
<!-- Generated by graphviz version 2.43.0 (0)
 -->
<!-- Title: /jenkins/jenlib_workspaces_f9/bld_nightly&#45;haldls.YmxkX25pZ2h0bHktaGFsZGxzIzcxMQ.x/haldls/include/stadls/vx/dumper.h Pages: 1 -->
<!--zoomable 752 -->
<svg id="main" version="1.1" xmlns="http://www.w3.org/2000/svg" xmlns:xlink="http://www.w3.org/1999/xlink" xml:space="preserve" onload="init(evt)">
<style type="text/css"><![CDATA[
.edge:hover path { stroke: red; }
.edge:hover polygon { stroke: red; fill: red; }
]]></style>
<script type="text/javascript"><![CDATA[
var edges = document.getElementsByTagName('g');
if (edges && edges.length) {
  for (var i=0;i<edges.length;i++) {
    if (edges[i].id.substr(0,4)=='edge') {
      edges[i].setAttribute('class','edge');
    }
  }
}
]]></script>
        <defs>
                <circle id="rim" cx="0" cy="0" r="7"/>
                <circle id="rim2" cx="0" cy="0" r="3.5"/>
                <g id="zoomPlus">
                        <use xlink:href="#rim" fill="#404040">
                                <set attributeName="fill" to="#808080" begin="zoomplus.mouseover" end="zoomplus.mouseout"/>
                        </use>
                        <path d="M-4,0h8M0,-4v8" fill="none" stroke="white" stroke-width="1.5" pointer-events="none"/>
                </g>
                <g id="zoomMin">
                        <use xlink:href="#rim" fill="#404040">
                                <set attributeName="fill" to="#808080" begin="zoomminus.mouseover" end="zoomminus.mouseout"/>
                        </use>
                        <path d="M-4,0h8" fill="none" stroke="white" stroke-width="1.5" pointer-events="none"/>
                </g>
                <g id="dirArrow">
                        <path fill="none" stroke="white" stroke-width="1.5" d="M0,-3.0v7 M-2.5,-0.5L0,-3.0L2.5,-0.5"/>
                </g>
               <g id="resetDef">
                       <use xlink:href="#rim2" fill="#404040">
                               <set attributeName="fill" to="#808080" begin="reset.mouseover" end="reset.mouseout"/>
                       </use>
               </g>
        </defs>

<script type="text/javascript">
var viewWidth = 683;
var viewHeight = 752;
var sectionId = 'dynsection-1';
</script>
<script xlink:href="svgpan.js"/>
<svg id="graph" class="graph">
<g id="viewport">
<title>/jenkins/jenlib_workspaces_f9/bld_nightly&#45;haldls.YmxkX25pZ2h0bHktaGFsZGxzIzcxMQ.x/haldls/include/stadls/vx/dumper.h</title>
<polygon fill="white" stroke="transparent" points="-4,4 -4,-748 679.43,-748 679.43,4 -4,4"/>
<!-- Node25 -->
<g id="node1" class="node">
<title>Node25</title>
<g id="a_node1"><a xlink:title=" ">
<polygon fill="#bfbfbf" stroke="black" points="234,-687.5 234,-743.5 412.24,-743.5 412.24,-687.5 234,-687.5"/>
<text text-anchor="start" x="242" y="-730.5" font-family="Helvetica,sans-Serif" font-size="10.00">/jenkins/jenlib_workspaces</text>
<text text-anchor="start" x="242" y="-718.5" font-family="Helvetica,sans-Serif" font-size="10.00">_f9/bld_nightly&#45;haldls.YmxkX25p</text>
<text text-anchor="start" x="242" y="-706.5" font-family="Helvetica,sans-Serif" font-size="10.00">Z2h0bHktaGFsZGxzIzcxMQ.x/haldls</text>
<text text-anchor="middle" x="323.12" y="-694.5" font-family="Helvetica,sans-Serif" font-size="10.00">/include/stadls/vx/dumper.h</text>
</a>
</g>
</g>
<!-- Node26 -->
<g id="node2" class="node">
<title>Node26</title>
<g id="a_node2"><a xlink:href="playback__program__builder_8h.html" target="_top" xlink:title=" ">
<polygon fill="white" stroke="black" points="234,-582.5 234,-650.5 412.24,-650.5 412.24,-582.5 234,-582.5"/>
<text text-anchor="start" x="242" y="-637.5" font-family="Helvetica,sans-Serif" font-size="10.00">/jenkins/jenlib_workspaces</text>
<text text-anchor="start" x="242" y="-625.5" font-family="Helvetica,sans-Serif" font-size="10.00">_f9/bld_nightly&#45;haldls.YmxkX25p</text>
<text text-anchor="start" x="242" y="-613.5" font-family="Helvetica,sans-Serif" font-size="10.00">Z2h0bHktaGFsZGxzIzcxMQ.x/haldls</text>
<text text-anchor="start" x="242" y="-601.5" font-family="Helvetica,sans-Serif" font-size="10.00">/include/stadls/vx/playback_program</text>
<text text-anchor="middle" x="323.12" y="-589.5" font-family="Helvetica,sans-Serif" font-size="10.00">_builder.h</text>
</a>
</g>
</g>
<!-- Node25&#45;&gt;Node26 -->
<g id="edge1" class="edge">
<title>Node25&#45;&gt;Node26</title>
<path fill="none" stroke="midnightblue" d="M323.12,-677.43C323.12,-668.6 323.12,-659.23 323.12,-650.59"/>
<polygon fill="midnightblue" stroke="midnightblue" points="319.62,-677.48 323.12,-687.48 326.62,-677.48 319.62,-677.48"/>
</g>
<!-- Node28 -->
<g id="node4" class="node">
<title>Node28</title>
<g id="a_node4"><a xlink:href="v1_2dumper_8h.html" target="_top" xlink:title=" ">
<polygon fill="white" stroke="black" points="0,-489.5 0,-545.5 178.24,-545.5 178.24,-489.5 0,-489.5"/>
<text text-anchor="start" x="8" y="-532.5" font-family="Helvetica,sans-Serif" font-size="10.00">/jenkins/jenlib_workspaces</text>
<text text-anchor="start" x="8" y="-520.5" font-family="Helvetica,sans-Serif" font-size="10.00">_f9/bld_nightly&#45;haldls.YmxkX25p</text>
<text text-anchor="start" x="8" y="-508.5" font-family="Helvetica,sans-Serif" font-size="10.00">Z2h0bHktaGFsZGxzIzcxMQ.x/haldls</text>
<text text-anchor="middle" x="89.12" y="-496.5" font-family="Helvetica,sans-Serif" font-size="10.00">/include/stadls/vx/v1/dumper.h</text>
</a>
</g>
</g>
<!-- Node25&#45;&gt;Node28 -->
<g id="edge25" class="edge">
<title>Node25&#45;&gt;Node28</title>
<path fill="none" stroke="midnightblue" d="M268.11,-681.57C253.72,-672.23 238.5,-661.68 225.12,-651 183.51,-617.79 140.28,-573.75 114.02,-545.76"/>
<polygon fill="midnightblue" stroke="midnightblue" points="266.63,-684.77 276.94,-687.21 270.4,-678.88 266.63,-684.77"/>
</g>
<!-- Node34 -->
<g id="node10" class="node">
<title>Node34</title>
<g id="a_node10"><a xlink:href="v2_2dumper_8h.html" target="_top" xlink:title=" ">
<polygon fill="white" stroke="black" points="468,-489.5 468,-545.5 646.24,-545.5 646.24,-489.5 468,-489.5"/>
<text text-anchor="start" x="476" y="-532.5" font-family="Helvetica,sans-Serif" font-size="10.00">/jenkins/jenlib_workspaces</text>
<text text-anchor="start" x="476" y="-520.5" font-family="Helvetica,sans-Serif" font-size="10.00">_f9/bld_nightly&#45;haldls.YmxkX25p</text>
<text text-anchor="start" x="476" y="-508.5" font-family="Helvetica,sans-Serif" font-size="10.00">Z2h0bHktaGFsZGxzIzcxMQ.x/haldls</text>
<text text-anchor="middle" x="557.12" y="-496.5" font-family="Helvetica,sans-Serif" font-size="10.00">/include/stadls/vx/v2/dumper.h</text>
</a>
</g>
</g>
<!-- Node25&#45;&gt;Node34 -->
<g id="edge26" class="edge">
<title>Node25&#45;&gt;Node34</title>
<path fill="none" stroke="midnightblue" d="M378.13,-681.57C392.51,-672.23 407.74,-661.68 421.12,-651 462.73,-617.79 505.96,-573.75 532.21,-545.76"/>
<polygon fill="midnightblue" stroke="midnightblue" points="375.84,-678.88 369.3,-687.21 379.61,-684.77 375.84,-678.88"/>
</g>
<!-- Node27 -->
<g id="node3" class="node">
<title>Node27</title>
<g id="a_node3"><a xlink:href="stadls_8h.html" target="_top" xlink:title=" ">
<polygon fill="white" stroke="black" points="234,-489.5 234,-545.5 412.24,-545.5 412.24,-489.5 234,-489.5"/>
<text text-anchor="start" x="242" y="-532.5" font-family="Helvetica,sans-Serif" font-size="10.00">/jenkins/jenlib_workspaces</text>
<text text-anchor="start" x="242" y="-520.5" font-family="Helvetica,sans-Serif" font-size="10.00">_f9/bld_nightly&#45;haldls.YmxkX25p</text>
<text text-anchor="start" x="242" y="-508.5" font-family="Helvetica,sans-Serif" font-size="10.00">Z2h0bHktaGFsZGxzIzcxMQ.x/haldls</text>
<text text-anchor="middle" x="323.12" y="-496.5" font-family="Helvetica,sans-Serif" font-size="10.00">/include/stadls/vx/stadls.h</text>
</a>
</g>
</g>
<!-- Node26&#45;&gt;Node27 -->
<g id="edge2" class="edge">
<title>Node26&#45;&gt;Node27</title>
<path fill="none" stroke="midnightblue" d="M323.12,-572.33C323.12,-563.27 323.12,-553.95 323.12,-545.67"/>
<polygon fill="midnightblue" stroke="midnightblue" points="319.62,-572.39 323.12,-582.39 326.62,-572.39 319.62,-572.39"/>
</g>
<!-- Node26&#45;&gt;Node28 -->
<g id="edge3" class="edge">
<title>Node26&#45;&gt;Node28</title>
<path fill="none" stroke="midnightblue" d="M233.97,-578.54C207.47,-567.56 178.95,-555.74 154.29,-545.51"/>
<polygon fill="midnightblue" stroke="midnightblue" points="232.67,-581.79 243.24,-582.39 235.35,-575.33 232.67,-581.79"/>
</g>
<!-- Node29 -->
<g id="node5" class="node">
<title>Node29</title>
<g id="a_node5"><a xlink:href="v1_2playback__program__builder_8h.html" target="_top" xlink:title=" ">
<polygon fill="white" stroke="black" points="98,-384.5 98,-452.5 276.24,-452.5 276.24,-384.5 98,-384.5"/>
<text text-anchor="start" x="106" y="-439.5" font-family="Helvetica,sans-Serif" font-size="10.00">/jenkins/jenlib_workspaces</text>
<text text-anchor="start" x="106" y="-427.5" font-family="Helvetica,sans-Serif" font-size="10.00">_f9/bld_nightly&#45;haldls.YmxkX25p</text>
<text text-anchor="start" x="106" y="-415.5" font-family="Helvetica,sans-Serif" font-size="10.00">Z2h0bHktaGFsZGxzIzcxMQ.x/haldls</text>
<text text-anchor="start" x="106" y="-403.5" font-family="Helvetica,sans-Serif" font-size="10.00">/include/stadls/vx/v1/playback</text>
<text text-anchor="middle" x="187.12" y="-391.5" font-family="Helvetica,sans-Serif" font-size="10.00">_program_builder.h</text>
</a>
</g>
</g>
<!-- Node26&#45;&gt;Node29 -->
<g id="edge13" class="edge">
<title>Node26&#45;&gt;Node29</title>
<path fill="none" stroke="midnightblue" d="M254.97,-576.27C243.8,-567.46 233.25,-557.31 225.12,-546 205.12,-518.16 195.52,-479.69 190.99,-452.51"/>
<polygon fill="midnightblue" stroke="midnightblue" points="253.09,-579.23 263.18,-582.44 257.29,-573.64 253.09,-579.23"/>
</g>
<!-- Node26&#45;&gt;Node34 -->
<g id="edge14" class="edge">
<title>Node26&#45;&gt;Node34</title>
<path fill="none" stroke="midnightblue" d="M412.27,-578.54C438.77,-567.56 467.29,-555.74 491.95,-545.51"/>
<polygon fill="midnightblue" stroke="midnightblue" points="410.89,-575.33 402.99,-582.39 413.57,-581.79 410.89,-575.33"/>
</g>
<!-- Node35 -->
<g id="node11" class="node">
<title>Node35</title>
<g id="a_node11"><a xlink:href="v2_2playback__program__builder_8h.html" target="_top" xlink:title=" ">
<polygon fill="white" stroke="black" points="360,-384.5 360,-452.5 538.24,-452.5 538.24,-384.5 360,-384.5"/>
<text text-anchor="start" x="368" y="-439.5" font-family="Helvetica,sans-Serif" font-size="10.00">/jenkins/jenlib_workspaces</text>
<text text-anchor="start" x="368" y="-427.5" font-family="Helvetica,sans-Serif" font-size="10.00">_f9/bld_nightly&#45;haldls.YmxkX25p</text>
<text text-anchor="start" x="368" y="-415.5" font-family="Helvetica,sans-Serif" font-size="10.00">Z2h0bHktaGFsZGxzIzcxMQ.x/haldls</text>
<text text-anchor="start" x="368" y="-403.5" font-family="Helvetica,sans-Serif" font-size="10.00">/include/stadls/vx/v2/playback</text>
<text text-anchor="middle" x="449.12" y="-391.5" font-family="Helvetica,sans-Serif" font-size="10.00">_program_builder.h</text>
</a>
</g>
</g>
<!-- Node26&#45;&gt;Node35 -->
<g id="edge24" class="edge">
<title>Node26&#45;&gt;Node35</title>
<path fill="none" stroke="midnightblue" d="M392.57,-576.26C403.44,-567.52 413.56,-557.4 421.12,-546 439.65,-518.07 446.1,-479.8 448.25,-452.69"/>
<polygon fill="midnightblue" stroke="midnightblue" points="390.37,-573.54 384.54,-582.39 394.62,-579.1 390.37,-573.54"/>
</g>
<!-- Node28&#45;&gt;Node29 -->
<g id="edge4" class="edge">
<title>Node28&#45;&gt;Node29</title>
<path fill="none" stroke="midnightblue" d="M123.68,-482.29C133.43,-472.65 144.01,-462.17 153.69,-452.59"/>
<polygon fill="midnightblue" stroke="midnightblue" points="121.06,-479.96 116.42,-489.48 125.99,-484.93 121.06,-479.96"/>
</g>
<!-- Node32 -->
<g id="node8" class="node">
<title>Node32</title>
<g id="a_node8"><a xlink:href="v1_2stadls_8h.html" target="_top" xlink:title=" ">
<polygon fill="white" stroke="black" points="77,-93.5 77,-149.5 255.24,-149.5 255.24,-93.5 77,-93.5"/>
<text text-anchor="start" x="85" y="-136.5" font-family="Helvetica,sans-Serif" font-size="10.00">/jenkins/jenlib_workspaces</text>
<text text-anchor="start" x="85" y="-124.5" font-family="Helvetica,sans-Serif" font-size="10.00">_f9/bld_nightly&#45;haldls.YmxkX25p</text>
<text text-anchor="start" x="85" y="-112.5" font-family="Helvetica,sans-Serif" font-size="10.00">Z2h0bHktaGFsZGxzIzcxMQ.x/haldls</text>
<text text-anchor="middle" x="166.12" y="-100.5" font-family="Helvetica,sans-Serif" font-size="10.00">/include/stadls/vx/v1/stadls.h</text>
</a>
</g>
</g>
<!-- Node28&#45;&gt;Node32 -->
<g id="edge12" class="edge">
<title>Node28&#45;&gt;Node32</title>
<path fill="none" stroke="midnightblue" d="M85.45,-478.79C80.82,-415.56 77.85,-285.33 119.12,-186 124.49,-173.08 133.04,-160.38 141.38,-149.77"/>
<polygon fill="midnightblue" stroke="midnightblue" points="81.99,-479.38 86.26,-489.07 88.96,-478.83 81.99,-479.38"/>
</g>
<!-- Node30 -->
<g id="node6" class="node">
<title>Node30</title>
<g id="a_node6"><a xlink:href="v1_2playback__generator_8h.html" target="_top" xlink:title=" ">
<polygon fill="white" stroke="black" points="205,-279.5 205,-347.5 383.24,-347.5 383.24,-279.5 205,-279.5"/>
<text text-anchor="start" x="213" y="-334.5" font-family="Helvetica,sans-Serif" font-size="10.00">/jenkins/jenlib_workspaces</text>
<text text-anchor="start" x="213" y="-322.5" font-family="Helvetica,sans-Serif" font-size="10.00">_f9/bld_nightly&#45;haldls.YmxkX25p</text>
<text text-anchor="start" x="213" y="-310.5" font-family="Helvetica,sans-Serif" font-size="10.00">Z2h0bHktaGFsZGxzIzcxMQ.x/haldls</text>
<text text-anchor="start" x="213" y="-298.5" font-family="Helvetica,sans-Serif" font-size="10.00">/include/stadls/vx/v1/playback</text>
<text text-anchor="middle" x="294.12" y="-286.5" font-family="Helvetica,sans-Serif" font-size="10.00">_generator.h</text>
</a>
</g>
</g>
<!-- Node29&#45;&gt;Node30 -->
<g id="edge5" class="edge">
<title>Node29&#45;&gt;Node30</title>
<path fill="none" stroke="midnightblue" d="M228.87,-377.31C239.09,-367.47 249.91,-357.06 259.74,-347.59"/>
<polygon fill="midnightblue" stroke="midnightblue" points="226.34,-374.89 221.56,-384.34 231.2,-379.93 226.34,-374.89"/>
</g>
<!-- Node31 -->
<g id="node7" class="node">
<title>Node31</title>
<g id="a_node7"><a xlink:href="v1_2init__generator_8h.html" target="_top" xlink:title=" ">
<polygon fill="white" stroke="black" points="136,-186.5 136,-242.5 314.24,-242.5 314.24,-186.5 136,-186.5"/>
<text text-anchor="start" x="144" y="-229.5" font-family="Helvetica,sans-Serif" font-size="10.00">/jenkins/jenlib_workspaces</text>
<text text-anchor="start" x="144" y="-217.5" font-family="Helvetica,sans-Serif" font-size="10.00">_f9/bld_nightly&#45;haldls.YmxkX25p</text>
<text text-anchor="start" x="144" y="-205.5" font-family="Helvetica,sans-Serif" font-size="10.00">Z2h0bHktaGFsZGxzIzcxMQ.x/haldls</text>
<text text-anchor="middle" x="225.12" y="-193.5" font-family="Helvetica,sans-Serif" font-size="10.00">/include/stadls/vx/v1/init_generator.h</text>
</a>
</g>
</g>
<!-- Node29&#45;&gt;Node31 -->
<g id="edge10" class="edge">
<title>Node29&#45;&gt;Node31</title>
<path fill="none" stroke="midnightblue" d="M185.93,-374.11C186.16,-346.49 188.27,-310.18 196.12,-279 199.26,-266.54 204.77,-253.51 210.15,-242.52"/>
<polygon fill="midnightblue" stroke="midnightblue" points="182.43,-374.24 185.93,-384.24 189.43,-374.24 182.43,-374.24"/>
</g>
<!-- Node29&#45;&gt;Node32 -->
<g id="edge11" class="edge">
<title>Node29&#45;&gt;Node32</title>
<path fill="none" stroke="midnightblue" d="M168.02,-374.91C153.55,-340.2 134.89,-289.5 127.12,-243 122.94,-218.01 120.23,-210.38 127.12,-186 130.74,-173.18 137.76,-160.39 144.86,-149.69"/>
<polygon fill="midnightblue" stroke="midnightblue" points="164.86,-376.42 171.98,-384.26 171.3,-373.69 164.86,-376.42"/>
</g>
<!-- Node30&#45;&gt;Node31 -->
<g id="edge6" class="edge">
<title>Node30&#45;&gt;Node31</title>
<path fill="none" stroke="midnightblue" d="M264.66,-271.08C257.82,-261.47 250.72,-251.48 244.45,-242.67"/>
<polygon fill="midnightblue" stroke="midnightblue" points="261.92,-273.27 270.57,-279.39 267.62,-269.21 261.92,-273.27"/>
</g>
<!-- Node30&#45;&gt;Node32 -->
<g id="edge9" class="edge">
<title>Node30&#45;&gt;Node32</title>
<path fill="none" stroke="midnightblue" d="M319.45,-269.99C331.43,-243.87 339.83,-210.79 323.12,-186 307.42,-162.72 281.59,-147.97 255.36,-138.63"/>
<polygon fill="midnightblue" stroke="midnightblue" points="316.16,-268.74 314.92,-279.26 322.45,-271.82 316.16,-268.74"/>
</g>
<!-- Node31&#45;&gt;Node32 -->
<g id="edge7" class="edge">
<title>Node31&#45;&gt;Node32</title>
<path fill="none" stroke="midnightblue" d="M201.81,-177.55C195.82,-168.31 189.47,-158.51 183.81,-149.78"/>
<polygon fill="midnightblue" stroke="midnightblue" points="199.04,-179.71 207.42,-186.2 204.91,-175.9 199.04,-179.71"/>
</g>
<!-- Node33 -->
<g id="node9" class="node">
<title>Node33</title>
<g id="a_node9"><a xlink:href="v1_2pystadls_8h.html" target="_top" xlink:title=" ">
<polygon fill="white" stroke="black" points="77,-0.5 77,-56.5 255.24,-56.5 255.24,-0.5 77,-0.5"/>
<text text-anchor="start" x="85" y="-43.5" font-family="Helvetica,sans-Serif" font-size="10.00">/jenkins/jenlib_workspaces</text>
<text text-anchor="start" x="85" y="-31.5" font-family="Helvetica,sans-Serif" font-size="10.00">_f9/bld_nightly&#45;haldls.YmxkX25p</text>
<text text-anchor="start" x="85" y="-19.5" font-family="Helvetica,sans-Serif" font-size="10.00">Z2h0bHktaGFsZGxzIzcxMQ.x/haldls</text>
<text text-anchor="middle" x="166.12" y="-7.5" font-family="Helvetica,sans-Serif" font-size="10.00">/include/stadls/vx/v1/pystadls.h</text>
</a>
</g>
</g>
<!-- Node32&#45;&gt;Node33 -->
<g id="edge8" class="edge">
<title>Node32&#45;&gt;Node33</title>
<path fill="none" stroke="midnightblue" d="M166.12,-83.12C166.12,-74.3 166.12,-65.06 166.12,-56.78"/>
<polygon fill="midnightblue" stroke="midnightblue" points="162.62,-83.2 166.12,-93.2 169.62,-83.2 162.62,-83.2"/>
</g>
<!-- Node34&#45;&gt;Node35 -->
<g id="edge15" class="edge">
<title>Node34&#45;&gt;Node35</title>
<path fill="none" stroke="midnightblue" d="M519.35,-482.58C508.52,-472.85 496.73,-462.26 485.96,-452.59"/>
<polygon fill="midnightblue" stroke="midnightblue" points="517.26,-485.4 527.03,-489.48 521.93,-480.19 517.26,-485.4"/>
</g>
<!-- Node38 -->
<g id="node14" class="node">
<title>Node38</title>
<g id="a_node14"><a xlink:href="v2_2stadls_8h.html" target="_top" xlink:title=" ">
<polygon fill="white" stroke="black" points="497,-93.5 497,-149.5 675.24,-149.5 675.24,-93.5 497,-93.5"/>
<text text-anchor="start" x="505" y="-136.5" font-family="Helvetica,sans-Serif" font-size="10.00">/jenkins/jenlib_workspaces</text>
<text text-anchor="start" x="505" y="-124.5" font-family="Helvetica,sans-Serif" font-size="10.00">_f9/bld_nightly&#45;haldls.YmxkX25p</text>
<text text-anchor="start" x="505" y="-112.5" font-family="Helvetica,sans-Serif" font-size="10.00">Z2h0bHktaGFsZGxzIzcxMQ.x/haldls</text>
<text text-anchor="middle" x="586.12" y="-100.5" font-family="Helvetica,sans-Serif" font-size="10.00">/include/stadls/vx/v2/stadls.h</text>
</a>
</g>
</g>
<!-- Node34&#45;&gt;Node38 -->
<g id="edge23" class="edge">
<title>Node34&#45;&gt;Node38</title>
<path fill="none" stroke="midnightblue" d="M587.71,-481.65C613.76,-449.48 649.27,-399.08 664.12,-348 684.4,-278.23 675.51,-250.53 642.12,-186 635.3,-172.81 625.14,-160.15 615.34,-149.65"/>
<polygon fill="midnightblue" stroke="midnightblue" points="584.96,-479.49 581.3,-489.43 590.36,-483.94 584.96,-479.49"/>
</g>
<!-- Node36 -->
<g id="node12" class="node">
<title>Node36</title>
<g id="a_node12"><a xlink:href="v2_2playback__generator_8h.html" target="_top" xlink:title=" ">
<polygon fill="white" stroke="black" points="477,-279.5 477,-347.5 655.24,-347.5 655.24,-279.5 477,-279.5"/>
<text text-anchor="start" x="485" y="-334.5" font-family="Helvetica,sans-Serif" font-size="10.00">/jenkins/jenlib_workspaces</text>
<text text-anchor="start" x="485" y="-322.5" font-family="Helvetica,sans-Serif" font-size="10.00">_f9/bld_nightly&#45;haldls.YmxkX25p</text>
<text text-anchor="start" x="485" y="-310.5" font-family="Helvetica,sans-Serif" font-size="10.00">Z2h0bHktaGFsZGxzIzcxMQ.x/haldls</text>
<text text-anchor="start" x="485" y="-298.5" font-family="Helvetica,sans-Serif" font-size="10.00">/include/stadls/vx/v2/playback</text>
<text text-anchor="middle" x="566.12" y="-286.5" font-family="Helvetica,sans-Serif" font-size="10.00">_generator.h</text>
</a>
</g>
</g>
<!-- Node35&#45;&gt;Node36 -->
<g id="edge16" class="edge">
<title>Node35&#45;&gt;Node36</title>
<path fill="none" stroke="midnightblue" d="M494.45,-377.59C505.72,-367.67 517.68,-357.15 528.53,-347.59"/>
<polygon fill="midnightblue" stroke="midnightblue" points="491.98,-375.11 486.78,-384.34 496.6,-380.36 491.98,-375.11"/>
</g>
<!-- Node37 -->
<g id="node13" class="node">
<title>Node37</title>
<g id="a_node13"><a xlink:href="v2_2init__generator_8h.html" target="_top" xlink:title=" ">
<polygon fill="white" stroke="black" points="439,-186.5 439,-242.5 617.24,-242.5 617.24,-186.5 439,-186.5"/>
<text text-anchor="start" x="447" y="-229.5" font-family="Helvetica,sans-Serif" font-size="10.00">/jenkins/jenlib_workspaces</text>
<text text-anchor="start" x="447" y="-217.5" font-family="Helvetica,sans-Serif" font-size="10.00">_f9/bld_nightly&#45;haldls.YmxkX25p</text>
<text text-anchor="start" x="447" y="-205.5" font-family="Helvetica,sans-Serif" font-size="10.00">Z2h0bHktaGFsZGxzIzcxMQ.x/haldls</text>
<text text-anchor="middle" x="528.12" y="-193.5" font-family="Helvetica,sans-Serif" font-size="10.00">/include/stadls/vx/v2/init_generator.h</text>
</a>
</g>
</g>
<!-- Node35&#45;&gt;Node37 -->
<g id="edge21" class="edge">
<title>Node35&#45;&gt;Node37</title>
<path fill="none" stroke="midnightblue" d="M448.33,-374.24C449.4,-345.9 453.88,-308.73 468.12,-279 474.61,-265.46 485.05,-252.89 495.42,-242.58"/>
<polygon fill="midnightblue" stroke="midnightblue" points="444.84,-374.17 448.08,-384.26 451.83,-374.35 444.84,-374.17"/>
</g>
<!-- Node35&#45;&gt;Node38 -->
<g id="edge22" class="edge">
<title>Node35&#45;&gt;Node38</title>
<path fill="none" stroke="midnightblue" d="M430.77,-374.83C412.49,-325.08 392.14,-242.47 430.12,-186 445.54,-163.07 470.83,-148.42 496.61,-139.05"/>
<polygon fill="midnightblue" stroke="midnightblue" points="427.55,-376.23 434.38,-384.33 434.1,-373.74 427.55,-376.23"/>
</g>
<!-- Node36&#45;&gt;Node37 -->
<g id="edge17" class="edge">
<title>Node36&#45;&gt;Node37</title>
<path fill="none" stroke="midnightblue" d="M549.44,-269.92C545.81,-260.67 542.08,-251.13 538.76,-242.67"/>
<polygon fill="midnightblue" stroke="midnightblue" points="546.24,-271.36 553.15,-279.39 552.76,-268.8 546.24,-271.36"/>
</g>
<!-- Node36&#45;&gt;Node38 -->
<g id="edge20" class="edge">
<title>Node36&#45;&gt;Node38</title>
<path fill="none" stroke="midnightblue" d="M609.51,-271.6C616.31,-262.87 622.33,-253.18 626.12,-243 634.95,-219.26 633.15,-210.34 626.12,-186 622.4,-173.11 615.19,-160.31 607.91,-149.62"/>
<polygon fill="midnightblue" stroke="midnightblue" points="606.78,-269.4 603.09,-279.34 612.17,-273.87 606.78,-269.4"/>
</g>
<!-- Node37&#45;&gt;Node38 -->
<g id="edge18" class="edge">
<title>Node37&#45;&gt;Node38</title>
<path fill="none" stroke="midnightblue" d="M551.03,-177.55C556.92,-168.31 563.17,-158.51 568.73,-149.78"/>
<polygon fill="midnightblue" stroke="midnightblue" points="547.94,-175.88 545.52,-186.2 553.85,-179.65 547.94,-175.88"/>
</g>
<!-- Node39 -->
<g id="node15" class="node">
<title>Node39</title>
<g id="a_node15"><a xlink:href="v2_2pystadls_8h.html" target="_top" xlink:title=" ">
<polygon fill="white" stroke="black" points="497,-0.5 497,-56.5 675.24,-56.5 675.24,-0.5 497,-0.5"/>
<text text-anchor="start" x="505" y="-43.5" font-family="Helvetica,sans-Serif" font-size="10.00">/jenkins/jenlib_workspaces</text>
<text text-anchor="start" x="505" y="-31.5" font-family="Helvetica,sans-Serif" font-size="10.00">_f9/bld_nightly&#45;haldls.YmxkX25p</text>
<text text-anchor="start" x="505" y="-19.5" font-family="Helvetica,sans-Serif" font-size="10.00">Z2h0bHktaGFsZGxzIzcxMQ.x/haldls</text>
<text text-anchor="middle" x="586.12" y="-7.5" font-family="Helvetica,sans-Serif" font-size="10.00">/include/stadls/vx/v2/pystadls.h</text>
</a>
</g>
</g>
<!-- Node38&#45;&gt;Node39 -->
<g id="edge19" class="edge">
<title>Node38&#45;&gt;Node39</title>
<path fill="none" stroke="midnightblue" d="M586.12,-83.12C586.12,-74.3 586.12,-65.06 586.12,-56.78"/>
<polygon fill="midnightblue" stroke="midnightblue" points="582.62,-83.2 586.12,-93.2 589.62,-83.2 582.62,-83.2"/>
</g>
</g>
</svg>
        <g id="navigator" transform="translate(0 0)" fill="#404254">
                <rect fill="#f2f5e9" fill-opacity="0.5" stroke="#606060" stroke-width=".5" x="0" y="0" width="60" height="60"/>
                <use id="zoomplus" xlink:href="#zoomPlus" x="17" y="9" onmousedown="handleZoom(evt,'in')"/>
                <use id="zoomminus" xlink:href="#zoomMin" x="42" y="9" onmousedown="handleZoom(evt,'out')"/>
                <use id="reset" xlink:href="#resetDef" x="30" y="36" onmousedown="handleReset()"/>
                <g id="arrowUp" xlink:href="#dirArrow" transform="translate(30 24)" onmousedown="handlePan(0,-1)">
                  <use xlink:href="#rim" fill="#404040">
                        <set attributeName="fill" to="#808080" begin="arrowUp.mouseover" end="arrowUp.mouseout"/>
                  </use>
                  <path fill="none" stroke="white" stroke-width="1.5" d="M0,-3.0v7 M-2.5,-0.5L0,-3.0L2.5,-0.5"/>
                </g>
                <g id="arrowRight" xlink:href="#dirArrow" transform="rotate(90) translate(36 -43)" onmousedown="handlePan(1,0)">
                  <use xlink:href="#rim" fill="#404040">
                        <set attributeName="fill" to="#808080" begin="arrowRight.mouseover" end="arrowRight.mouseout"/>
                  </use>
                  <path fill="none" stroke="white" stroke-width="1.5" d="M0,-3.0v7 M-2.5,-0.5L0,-3.0L2.5,-0.5"/>
                </g>
                <g id="arrowDown" xlink:href="#dirArrow" transform="rotate(180) translate(-30 -48)" onmousedown="handlePan(0,1)">
                  <use xlink:href="#rim" fill="#404040">
                        <set attributeName="fill" to="#808080" begin="arrowDown.mouseover" end="arrowDown.mouseout"/>
                  </use>
                  <path fill="none" stroke="white" stroke-width="1.5" d="M0,-3.0v7 M-2.5,-0.5L0,-3.0L2.5,-0.5"/>
                </g>
                <g id="arrowLeft" xlink:href="#dirArrow" transform="rotate(270) translate(-36 17)" onmousedown="handlePan(-1,0)">
                  <use xlink:href="#rim" fill="#404040">
                        <set attributeName="fill" to="#808080" begin="arrowLeft.mouseover" end="arrowLeft.mouseout"/>
                  </use>
                  <path fill="none" stroke="white" stroke-width="1.5" d="M0,-3.0v7 M-2.5,-0.5L0,-3.0L2.5,-0.5"/>
                </g>
        </g>
        <svg viewBox="0 0 15 15" width="100%" height="30px" preserveAspectRatio="xMaxYMin meet">
         <g id="arrow_out" transform="scale(0.3 0.3)">
          <a xlink:href="dumper_8h__dep__incl_org.svg" target="_base">
           <rect id="button" ry="5" rx="5" y="6" x="6" height="38" width="38"
                fill="#f2f5e9" fill-opacity="0.5" stroke="#606060" stroke-width="1.0"/>
           <path id="arrow"
             d="M 11.500037,31.436501 C 11.940474,20.09759 22.043105,11.32322 32.158766,21.979434 L 37.068811,17.246167 C 37.068811,17.246167 37.088388,32 37.088388,32 L 22.160133,31.978069 C 22.160133,31.978069 26.997745,27.140456 26.997745,27.140456 C 18.528582,18.264221 13.291696,25.230495 11.500037,31.436501 z"
             style="fill:#404040;"/>
          </a>
         </g>
        </svg>
</svg>
