<?xml version="1.0" encoding="UTF-8" standalone="no"?>
<!DOCTYPE svg PUBLIC "-//W3C//DTD SVG 1.1//EN"
 "http://www.w3.org/Graphics/SVG/1.1/DTD/svg11.dtd">
<!-- Generated by graphviz version 2.43.0 (0)
 -->
<!-- Title: /jenkins/jenlib_workspaces_f9/bld_nightly&#45;haldls.YmxkX25pZ2h0bHktaGFsZGxzIzU5Nw.x/haldls/include/stadls/vx/executor_backend.h Pages: 1 -->
<svg width="380pt" height="635pt"
 viewBox="0.00 0.00 379.59 635.00" xmlns="http://www.w3.org/2000/svg" xmlns:xlink="http://www.w3.org/1999/xlink">
<g id="graph0" class="graph" transform="scale(1 1) rotate(0) translate(4 631)">
<title>/jenkins/jenlib_workspaces_f9/bld_nightly&#45;haldls.YmxkX25pZ2h0bHktaGFsZGxzIzU5Nw.x/haldls/include/stadls/vx/executor_backend.h</title>
<polygon fill="white" stroke="transparent" points="-4,4 -4,-631 375.59,-631 375.59,4 -4,4"/>
<!-- Node2 -->
<g id="node1" class="node">
<title>Node2</title>
<g id="a_node1"><a xlink:title=" ">
<polygon fill="#bfbfbf" stroke="black" points="125.37,-570.5 125.37,-626.5 310.32,-626.5 310.32,-570.5 125.37,-570.5"/>
<text text-anchor="start" x="133.37" y="-613.5" font-family="Helvetica,sans-Serif" font-size="10.00">/jenkins/jenlib_workspaces</text>
<text text-anchor="start" x="133.37" y="-601.5" font-family="Helvetica,sans-Serif" font-size="10.00">_f9/bld_nightly&#45;haldls.YmxkX25p</text>
<text text-anchor="start" x="133.37" y="-589.5" font-family="Helvetica,sans-Serif" font-size="10.00">Z2h0bHktaGFsZGxzIzU5Nw.x/haldls</text>
<text text-anchor="middle" x="217.84" y="-577.5" font-family="Helvetica,sans-Serif" font-size="10.00">/include/stadls/vx/executor_backend.h</text>
</a>
</g>
</g>
<!-- Node3 -->
<g id="node2" class="node">
<title>Node3</title>
<g id="a_node2"><a xlink:href="playback__program__builder_8h.html" target="_top" xlink:title=" ">
<polygon fill="white" stroke="black" points="68.17,-372.5 68.17,-440.5 247.52,-440.5 247.52,-372.5 68.17,-372.5"/>
<text text-anchor="start" x="76.17" y="-427.5" font-family="Helvetica,sans-Serif" font-size="10.00">/jenkins/jenlib_workspaces</text>
<text text-anchor="start" x="76.17" y="-415.5" font-family="Helvetica,sans-Serif" font-size="10.00">_f9/bld_nightly&#45;haldls.YmxkX25p</text>
<text text-anchor="start" x="76.17" y="-403.5" font-family="Helvetica,sans-Serif" font-size="10.00">Z2h0bHktaGFsZGxzIzU5Nw.x/haldls</text>
<text text-anchor="start" x="76.17" y="-391.5" font-family="Helvetica,sans-Serif" font-size="10.00">/include/stadls/vx/playback_program</text>
<text text-anchor="middle" x="157.84" y="-379.5" font-family="Helvetica,sans-Serif" font-size="10.00">_builder.h</text>
</a>
</g>
</g>
<!-- Node2&#45;&gt;Node3 -->
<g id="edge1" class="edge">
<title>Node2&#45;&gt;Node3</title>
<path fill="none" stroke="midnightblue" d="M191.19,-561.98C185.68,-553.21 180.46,-543.58 176.84,-534 165.39,-503.67 160.82,-466.79 159.01,-440.7"/>
<polygon fill="midnightblue" stroke="midnightblue" points="188.33,-564 196.75,-570.43 194.18,-560.15 188.33,-564"/>
</g>
<!-- Node8 -->
<g id="node7" class="node">
<title>Node8</title>
<g id="a_node7"><a xlink:href="playback__program_8h.html" target="_top" xlink:title=" ">
<polygon fill="white" stroke="black" points="186.1,-477.5 186.1,-533.5 371.59,-533.5 371.59,-477.5 186.1,-477.5"/>
<text text-anchor="start" x="194.1" y="-520.5" font-family="Helvetica,sans-Serif" font-size="10.00">/jenkins/jenlib_workspaces</text>
<text text-anchor="start" x="194.1" y="-508.5" font-family="Helvetica,sans-Serif" font-size="10.00">_f9/bld_nightly&#45;haldls.YmxkX25p</text>
<text text-anchor="start" x="194.1" y="-496.5" font-family="Helvetica,sans-Serif" font-size="10.00">Z2h0bHktaGFsZGxzIzU5Nw.x/haldls</text>
<text text-anchor="middle" x="278.84" y="-484.5" font-family="Helvetica,sans-Serif" font-size="10.00">/include/stadls/vx/playback_program.h</text>
</a>
</g>
</g>
<!-- Node2&#45;&gt;Node8 -->
<g id="edge9" class="edge">
<title>Node2&#45;&gt;Node8</title>
<path fill="none" stroke="midnightblue" d="M241.75,-561.84C248,-552.51 254.65,-542.6 260.56,-533.78"/>
<polygon fill="midnightblue" stroke="midnightblue" points="238.81,-559.94 236.15,-570.2 244.62,-563.84 238.81,-559.94"/>
</g>
<!-- Node4 -->
<g id="node3" class="node">
<title>Node4</title>
<g id="a_node3"><a xlink:href="playback__generator_8h.html" target="_top" xlink:title=" ">
<polygon fill="white" stroke="black" points="21.32,-279.5 21.32,-335.5 212.37,-335.5 212.37,-279.5 21.32,-279.5"/>
<text text-anchor="start" x="29.32" y="-322.5" font-family="Helvetica,sans-Serif" font-size="10.00">/jenkins/jenlib_workspaces</text>
<text text-anchor="start" x="29.32" y="-310.5" font-family="Helvetica,sans-Serif" font-size="10.00">_f9/bld_nightly&#45;haldls.YmxkX25p</text>
<text text-anchor="start" x="29.32" y="-298.5" font-family="Helvetica,sans-Serif" font-size="10.00">Z2h0bHktaGFsZGxzIzU5Nw.x/haldls</text>
<text text-anchor="middle" x="116.84" y="-286.5" font-family="Helvetica,sans-Serif" font-size="10.00">/include/stadls/vx/playback_generator.h</text>
</a>
</g>
</g>
<!-- Node3&#45;&gt;Node4 -->
<g id="edge2" class="edge">
<title>Node3&#45;&gt;Node4</title>
<path fill="none" stroke="midnightblue" d="M139.84,-362.92C135.94,-353.67 131.9,-344.13 128.33,-335.67"/>
<polygon fill="midnightblue" stroke="midnightblue" points="136.73,-364.54 143.85,-372.39 143.18,-361.82 136.73,-364.54"/>
</g>
<!-- Node5 -->
<g id="node4" class="node">
<title>Node5</title>
<g id="a_node4"><a xlink:href="init__generator_8h.html" target="_top" xlink:title=" ">
<polygon fill="white" stroke="black" points="127.17,-186.5 127.17,-242.5 306.52,-242.5 306.52,-186.5 127.17,-186.5"/>
<text text-anchor="start" x="135.17" y="-229.5" font-family="Helvetica,sans-Serif" font-size="10.00">/jenkins/jenlib_workspaces</text>
<text text-anchor="start" x="135.17" y="-217.5" font-family="Helvetica,sans-Serif" font-size="10.00">_f9/bld_nightly&#45;haldls.YmxkX25p</text>
<text text-anchor="start" x="135.17" y="-205.5" font-family="Helvetica,sans-Serif" font-size="10.00">Z2h0bHktaGFsZGxzIzU5Nw.x/haldls</text>
<text text-anchor="middle" x="216.84" y="-193.5" font-family="Helvetica,sans-Serif" font-size="10.00">/include/stadls/vx/init_generator.h</text>
</a>
</g>
</g>
<!-- Node3&#45;&gt;Node5 -->
<g id="edge7" class="edge">
<title>Node3&#45;&gt;Node5</title>
<path fill="none" stroke="midnightblue" d="M204.33,-364.68C211.49,-355.98 217.83,-346.29 221.84,-336 233.64,-305.77 229.32,-267.97 224.08,-242.85"/>
<polygon fill="midnightblue" stroke="midnightblue" points="201.55,-362.54 197.58,-372.36 206.81,-367.16 201.55,-362.54"/>
</g>
<!-- Node6 -->
<g id="node5" class="node">
<title>Node6</title>
<g id="a_node5"><a xlink:href="stadls_8h.html" target="_top" xlink:title=" ">
<polygon fill="white" stroke="black" points="68.17,-93.5 68.17,-149.5 247.52,-149.5 247.52,-93.5 68.17,-93.5"/>
<text text-anchor="start" x="76.17" y="-136.5" font-family="Helvetica,sans-Serif" font-size="10.00">/jenkins/jenlib_workspaces</text>
<text text-anchor="start" x="76.17" y="-124.5" font-family="Helvetica,sans-Serif" font-size="10.00">_f9/bld_nightly&#45;haldls.YmxkX25p</text>
<text text-anchor="start" x="76.17" y="-112.5" font-family="Helvetica,sans-Serif" font-size="10.00">Z2h0bHktaGFsZGxzIzU5Nw.x/haldls</text>
<text text-anchor="middle" x="157.84" y="-100.5" font-family="Helvetica,sans-Serif" font-size="10.00">/include/stadls/vx/stadls.h</text>
</a>
</g>
</g>
<!-- Node3&#45;&gt;Node6 -->
<g id="edge8" class="edge">
<title>Node3&#45;&gt;Node6</title>
<path fill="none" stroke="midnightblue" d="M59.03,-377.14C40.32,-367.18 23.1,-353.83 11.84,-336 -31.31,-267.66 58.4,-189.87 115.47,-149.71"/>
<polygon fill="midnightblue" stroke="midnightblue" points="57.51,-380.29 68.02,-381.62 60.63,-374.03 57.51,-380.29"/>
</g>
<!-- Node4&#45;&gt;Node5 -->
<g id="edge3" class="edge">
<title>Node4&#45;&gt;Node5</title>
<path fill="none" stroke="midnightblue" d="M154.28,-272.44C165.1,-262.59 176.76,-251.97 187.05,-242.61"/>
<polygon fill="midnightblue" stroke="midnightblue" points="151.62,-270.12 146.58,-279.44 156.33,-275.3 151.62,-270.12"/>
</g>
<!-- Node4&#45;&gt;Node6 -->
<g id="edge6" class="edge">
<title>Node4&#45;&gt;Node6</title>
<path fill="none" stroke="midnightblue" d="M111.94,-268.89C110.05,-244.73 109.95,-212.93 117.84,-186 121.62,-173.12 128.83,-160.33 136.11,-149.63"/>
<polygon fill="midnightblue" stroke="midnightblue" points="108.48,-269.44 112.88,-279.08 115.45,-268.8 108.48,-269.44"/>
</g>
<!-- Node5&#45;&gt;Node6 -->
<g id="edge4" class="edge">
<title>Node5&#45;&gt;Node6</title>
<path fill="none" stroke="midnightblue" d="M193.54,-177.55C187.54,-168.31 181.19,-158.51 175.53,-149.78"/>
<polygon fill="midnightblue" stroke="midnightblue" points="190.77,-179.71 199.14,-186.2 196.64,-175.9 190.77,-179.71"/>
</g>
<!-- Node7 -->
<g id="node6" class="node">
<title>Node7</title>
<g id="a_node6"><a xlink:href="pystadls_8h.html" target="_top" xlink:title=" ">
<polygon fill="white" stroke="black" points="68.17,-0.5 68.17,-56.5 247.52,-56.5 247.52,-0.5 68.17,-0.5"/>
<text text-anchor="start" x="76.17" y="-43.5" font-family="Helvetica,sans-Serif" font-size="10.00">/jenkins/jenlib_workspaces</text>
<text text-anchor="start" x="76.17" y="-31.5" font-family="Helvetica,sans-Serif" font-size="10.00">_f9/bld_nightly&#45;haldls.YmxkX25p</text>
<text text-anchor="start" x="76.17" y="-19.5" font-family="Helvetica,sans-Serif" font-size="10.00">Z2h0bHktaGFsZGxzIzU5Nw.x/haldls</text>
<text text-anchor="middle" x="157.84" y="-7.5" font-family="Helvetica,sans-Serif" font-size="10.00">/include/stadls/vx/pystadls.h</text>
</a>
</g>
</g>
<!-- Node6&#45;&gt;Node7 -->
<g id="edge5" class="edge">
<title>Node6&#45;&gt;Node7</title>
<path fill="none" stroke="midnightblue" d="M157.84,-83.12C157.84,-74.3 157.84,-65.06 157.84,-56.78"/>
<polygon fill="midnightblue" stroke="midnightblue" points="154.34,-83.2 157.84,-93.2 161.34,-83.2 154.34,-83.2"/>
</g>
<!-- Node8&#45;&gt;Node3 -->
<g id="edge10" class="edge">
<title>Node8&#45;&gt;Node3</title>
<path fill="none" stroke="midnightblue" d="M237.23,-471.14C224.91,-461.26 211.42,-450.45 199.12,-440.59"/>
<polygon fill="midnightblue" stroke="midnightblue" points="235.15,-473.96 245.14,-477.48 239.53,-468.49 235.15,-473.96"/>
</g>
<!-- Node8&#45;&gt;Node5 -->
<g id="edge11" class="edge">
<title>Node8&#45;&gt;Node5</title>
<path fill="none" stroke="midnightblue" d="M274.26,-467.26C268.25,-422.19 256.36,-344.23 238.84,-279 235.61,-266.94 231.23,-253.87 227.24,-242.74"/>
<polygon fill="midnightblue" stroke="midnightblue" points="270.82,-467.98 275.59,-477.44 277.76,-467.07 270.82,-467.98"/>
</g>
<!-- Node8&#45;&gt;Node6 -->
<g id="edge12" class="edge">
<title>Node8&#45;&gt;Node6</title>
<path fill="none" stroke="midnightblue" d="M297.32,-468.19C326.61,-404.96 374.7,-273.08 315.84,-186 300.04,-162.61 274.03,-147.83 247.64,-138.5"/>
<polygon fill="midnightblue" stroke="midnightblue" points="294.09,-466.83 292.97,-477.37 300.41,-469.83 294.09,-466.83"/>
</g>
</g>
</svg>
