<?xml version="1.0" encoding="UTF-8" standalone="no"?>
<!DOCTYPE svg PUBLIC "-//W3C//DTD SVG 1.1//EN"
 "http://www.w3.org/Graphics/SVG/1.1/DTD/svg11.dtd">
<!-- Generated by graphviz version 2.43.0 (0)
 -->
<!-- Title: /jenkins/jenlib_workspaces_f9/bld_nightly&#45;haldls.YmxkX25pZ2h0bHktaGFsZGxzIzU5Nw.x/haldls/include/stadls/vx/executor_backend.h Pages: 1 -->
<svg width="193pt" height="125pt"
 viewBox="0.00 0.00 192.94 125.40" xmlns="http://www.w3.org/2000/svg" xmlns:xlink="http://www.w3.org/1999/xlink">
<g id="graph0" class="graph" transform="scale(1 1) rotate(0) translate(4 121.4)">
<title>/jenkins/jenlib_workspaces_f9/bld_nightly&#45;haldls.YmxkX25pZ2h0bHktaGFsZGxzIzU5Nw.x/haldls/include/stadls/vx/executor_backend.h</title>
<polygon fill="white" stroke="transparent" points="-4,4 -4,-121.4 188.94,-121.4 188.94,4 -4,4"/>
<!-- Node0 -->
<g id="node1" class="node">
<title>Node0</title>
<g id="a_node1"><a xlink:title=" ">
<polygon fill="#bfbfbf" stroke="black" points="0,-60.9 0,-116.9 184.94,-116.9 184.94,-60.9 0,-60.9"/>
<text text-anchor="start" x="8" y="-103.9" font-family="Helvetica,sans-Serif" font-size="10.00">/jenkins/jenlib_workspaces</text>
<text text-anchor="start" x="8" y="-91.9" font-family="Helvetica,sans-Serif" font-size="10.00">_f9/bld_nightly&#45;haldls.YmxkX25p</text>
<text text-anchor="start" x="8" y="-79.9" font-family="Helvetica,sans-Serif" font-size="10.00">Z2h0bHktaGFsZGxzIzU5Nw.x/haldls</text>
<text text-anchor="middle" x="92.47" y="-67.9" font-family="Helvetica,sans-Serif" font-size="10.00">/include/stadls/vx/executor_backend.h</text>
</a>
</g>
</g>
<!-- Node1 -->
<g id="node2" class="node">
<title>Node1</title>
<g id="a_node2"><a xlink:href="genpybind_8h.html" target="_top" xlink:title=" ">
<polygon fill="white" stroke="black" points="36.4,-3.9 36.4,-23.9 148.54,-23.9 148.54,-3.9 36.4,-3.9"/>
<text text-anchor="middle" x="92.47" y="-10.9" font-family="Helvetica,sans-Serif" font-size="10.00">stadls/vx/genpybind.h</text>
</a>
</g>
</g>
<!-- Node0&#45;&gt;Node1 -->
<g id="edge1" class="edge">
<title>Node0&#45;&gt;Node1</title>
<path fill="none" stroke="midnightblue" d="M92.47,-60.72C92.47,-51.9 92.47,-42.31 92.47,-34.19"/>
<polygon fill="midnightblue" stroke="midnightblue" points="95.97,-33.93 92.47,-23.93 88.97,-33.93 95.97,-33.93"/>
</g>
<!-- Node1&#45;&gt;Node1 -->
<g id="edge2" class="edge">
<title>Node1&#45;&gt;Node1</title>
<path fill="none" stroke="midnightblue" d="M113.32,-23.98C137.89,-31.35 166.54,-27.99 166.54,-13.9 166.54,-1.68 145,2.47 123.25,-1.46"/>
<polygon fill="midnightblue" stroke="midnightblue" points="122.24,1.9 113.32,-3.83 123.86,-4.91 122.24,1.9"/>
</g>
</g>
</svg>
