<?xml version="1.0" encoding="UTF-8" standalone="no"?>
<!DOCTYPE svg PUBLIC "-//W3C//DTD SVG 1.1//EN"
 "http://www.w3.org/Graphics/SVG/1.1/DTD/svg11.dtd">
<!-- Generated by graphviz version 2.43.0 (0)
 -->
<!-- Title: /jenkins/jenlib_workspaces_f9/bld_nightly&#45;haldls.YmxkX25pZ2h0bHktaGFsZGxzIzcxMQ.x/haldls/include/stadls/vx/genpybind.h Pages: 1 -->
<svg width="1558pt" height="1043pt"
 viewBox="0.00 0.00 1558.00 1043.00" xmlns="http://www.w3.org/2000/svg" xmlns:xlink="http://www.w3.org/1999/xlink">
<g id="graph0" class="graph" transform="scale(1 1) rotate(0) translate(4 1039)">
<title>/jenkins/jenlib_workspaces_f9/bld_nightly&#45;haldls.YmxkX25pZ2h0bHktaGFsZGxzIzcxMQ.x/haldls/include/stadls/vx/genpybind.h</title>
<polygon fill="white" stroke="transparent" points="-4,4 -4,-1039 1554,-1039 1554,4 -4,4"/>
<!-- Node1 -->
<g id="node1" class="node">
<title>Node1</title>
<g id="a_node1"><a xlink:title=" ">
<polygon fill="#bfbfbf" stroke="black" points="647.88,-978.5 647.88,-1034.5 826.12,-1034.5 826.12,-978.5 647.88,-978.5"/>
<text text-anchor="start" x="655.88" y="-1021.5" font-family="Helvetica,sans-Serif" font-size="10.00">/jenkins/jenlib_workspaces</text>
<text text-anchor="start" x="655.88" y="-1009.5" font-family="Helvetica,sans-Serif" font-size="10.00">_f9/bld_nightly&#45;haldls.YmxkX25p</text>
<text text-anchor="start" x="655.88" y="-997.5" font-family="Helvetica,sans-Serif" font-size="10.00">Z2h0bHktaGFsZGxzIzcxMQ.x/haldls</text>
<text text-anchor="middle" x="737" y="-985.5" font-family="Helvetica,sans-Serif" font-size="10.00">/include/stadls/vx/genpybind.h</text>
</a>
</g>
</g>
<!-- Node1&#45;&gt;Node1 -->
<g id="edge35" class="edge">
<title>Node1&#45;&gt;Node1</title>
<path fill="none" stroke="midnightblue" d="M836.03,-1017.75C841.12,-1014.97 844.12,-1011.22 844.12,-1006.5 844.12,-999.31 837.15,-994.37 826.47,-991.68"/>
<polygon fill="midnightblue" stroke="midnightblue" points="834.61,-1014.54 826.47,-1021.32 837.06,-1021.1 834.61,-1014.54"/>
</g>
<!-- Node2 -->
<g id="node2" class="node">
<title>Node2</title>
<g id="a_node2"><a xlink:href="playback__program_8h.html" target="_top" xlink:title=" ">
<polygon fill="white" stroke="black" points="754.26,-792.5 754.26,-848.5 939.74,-848.5 939.74,-792.5 754.26,-792.5"/>
<text text-anchor="start" x="762.26" y="-835.5" font-family="Helvetica,sans-Serif" font-size="10.00">/jenkins/jenlib_workspaces</text>
<text text-anchor="start" x="762.26" y="-823.5" font-family="Helvetica,sans-Serif" font-size="10.00">_f9/bld_nightly&#45;haldls.YmxkX25p</text>
<text text-anchor="start" x="762.26" y="-811.5" font-family="Helvetica,sans-Serif" font-size="10.00">Z2h0bHktaGFsZGxzIzcxMQ.x/haldls</text>
<text text-anchor="middle" x="847" y="-799.5" font-family="Helvetica,sans-Serif" font-size="10.00">/include/stadls/vx/playback_program.h</text>
</a>
</g>
</g>
<!-- Node1&#45;&gt;Node2 -->
<g id="edge1" class="edge">
<title>Node1&#45;&gt;Node2</title>
<path fill="none" stroke="midnightblue" d="M805.72,-972.55C817.18,-964.12 827.7,-953.98 835,-942 852.18,-913.82 852.8,-874.88 850.71,-848.98"/>
<polygon fill="midnightblue" stroke="midnightblue" points="803.5,-969.83 797.24,-978.38 807.47,-975.59 803.5,-969.83"/>
</g>
<!-- Node4 -->
<g id="node4" class="node">
<title>Node4</title>
<g id="a_node4"><a xlink:href="playback__program__builder_8h.html" target="_top" xlink:title=" ">
<polygon fill="white" stroke="black" points="840.88,-582.5 840.88,-650.5 1019.12,-650.5 1019.12,-582.5 840.88,-582.5"/>
<text text-anchor="start" x="848.88" y="-637.5" font-family="Helvetica,sans-Serif" font-size="10.00">/jenkins/jenlib_workspaces</text>
<text text-anchor="start" x="848.88" y="-625.5" font-family="Helvetica,sans-Serif" font-size="10.00">_f9/bld_nightly&#45;haldls.YmxkX25p</text>
<text text-anchor="start" x="848.88" y="-613.5" font-family="Helvetica,sans-Serif" font-size="10.00">Z2h0bHktaGFsZGxzIzcxMQ.x/haldls</text>
<text text-anchor="start" x="848.88" y="-601.5" font-family="Helvetica,sans-Serif" font-size="10.00">/include/stadls/vx/playback_program</text>
<text text-anchor="middle" x="930" y="-589.5" font-family="Helvetica,sans-Serif" font-size="10.00">_builder.h</text>
</a>
</g>
</g>
<!-- Node1&#45;&gt;Node4 -->
<g id="edge48" class="edge">
<title>Node1&#45;&gt;Node4</title>
<path fill="none" stroke="midnightblue" d="M814.63,-973.96C864.73,-948.68 924.89,-907.65 949,-849 976.21,-782.8 956.56,-697.11 941.94,-650.78"/>
<polygon fill="midnightblue" stroke="midnightblue" points="812.83,-970.94 805.4,-978.5 815.92,-977.23 812.83,-970.94"/>
</g>
<!-- Node6 -->
<g id="node6" class="node">
<title>Node6</title>
<g id="a_node6"><a xlink:href="v1_2dumper_8h.html" target="_top" xlink:title=" ">
<polygon fill="white" stroke="black" points="743.88,-489.5 743.88,-545.5 922.12,-545.5 922.12,-489.5 743.88,-489.5"/>
<text text-anchor="start" x="751.88" y="-532.5" font-family="Helvetica,sans-Serif" font-size="10.00">/jenkins/jenlib_workspaces</text>
<text text-anchor="start" x="751.88" y="-520.5" font-family="Helvetica,sans-Serif" font-size="10.00">_f9/bld_nightly&#45;haldls.YmxkX25p</text>
<text text-anchor="start" x="751.88" y="-508.5" font-family="Helvetica,sans-Serif" font-size="10.00">Z2h0bHktaGFsZGxzIzcxMQ.x/haldls</text>
<text text-anchor="middle" x="833" y="-496.5" font-family="Helvetica,sans-Serif" font-size="10.00">/include/stadls/vx/v1/dumper.h</text>
</a>
</g>
</g>
<!-- Node1&#45;&gt;Node6 -->
<g id="edge50" class="edge">
<title>Node1&#45;&gt;Node6</title>
<path fill="none" stroke="midnightblue" d="M669.22,-972.5C657.56,-964.04 646.73,-953.9 639,-942 609.46,-896.53 620,-875.72 620,-821.5 620,-821.5 620,-821.5 620,-720.5 620,-636.92 707.42,-577.53 770.25,-545.63"/>
<polygon fill="midnightblue" stroke="midnightblue" points="667.59,-975.62 677.82,-978.35 671.53,-969.83 667.59,-975.62"/>
</g>
<!-- Node7 -->
<g id="node7" class="node">
<title>Node7</title>
<g id="a_node7"><a xlink:href="v1_2playback__program__builder_8h.html" target="_top" xlink:title=" ">
<polygon fill="white" stroke="black" points="275.88,-384.5 275.88,-452.5 454.12,-452.5 454.12,-384.5 275.88,-384.5"/>
<text text-anchor="start" x="283.88" y="-439.5" font-family="Helvetica,sans-Serif" font-size="10.00">/jenkins/jenlib_workspaces</text>
<text text-anchor="start" x="283.88" y="-427.5" font-family="Helvetica,sans-Serif" font-size="10.00">_f9/bld_nightly&#45;haldls.YmxkX25p</text>
<text text-anchor="start" x="283.88" y="-415.5" font-family="Helvetica,sans-Serif" font-size="10.00">Z2h0bHktaGFsZGxzIzcxMQ.x/haldls</text>
<text text-anchor="start" x="283.88" y="-403.5" font-family="Helvetica,sans-Serif" font-size="10.00">/include/stadls/vx/v1/playback</text>
<text text-anchor="middle" x="365" y="-391.5" font-family="Helvetica,sans-Serif" font-size="10.00">_program_builder.h</text>
</a>
</g>
</g>
<!-- Node1&#45;&gt;Node7 -->
<g id="edge54" class="edge">
<title>Node1&#45;&gt;Node7</title>
<path fill="none" stroke="midnightblue" d="M637.56,-1001.89C529.19,-996.02 364.85,-980.83 317,-942 272.61,-905.98 272,-878.67 272,-821.5 272,-821.5 272,-821.5 272,-720.5 272,-658.37 273.72,-641.68 291,-582 304.54,-535.25 329.3,-484.72 346.43,-452.64"/>
<polygon fill="midnightblue" stroke="midnightblue" points="637.69,-1005.4 647.86,-1002.43 638.06,-998.41 637.69,-1005.4"/>
</g>
<!-- Node8 -->
<g id="node8" class="node">
<title>Node8</title>
<g id="a_node8"><a xlink:href="v1_2playback__generator_8h.html" target="_top" xlink:title=" ">
<polygon fill="white" stroke="black" points="158.88,-279.5 158.88,-347.5 337.12,-347.5 337.12,-279.5 158.88,-279.5"/>
<text text-anchor="start" x="166.88" y="-334.5" font-family="Helvetica,sans-Serif" font-size="10.00">/jenkins/jenlib_workspaces</text>
<text text-anchor="start" x="166.88" y="-322.5" font-family="Helvetica,sans-Serif" font-size="10.00">_f9/bld_nightly&#45;haldls.YmxkX25p</text>
<text text-anchor="start" x="166.88" y="-310.5" font-family="Helvetica,sans-Serif" font-size="10.00">Z2h0bHktaGFsZGxzIzcxMQ.x/haldls</text>
<text text-anchor="start" x="166.88" y="-298.5" font-family="Helvetica,sans-Serif" font-size="10.00">/include/stadls/vx/v1/playback</text>
<text text-anchor="middle" x="248" y="-286.5" font-family="Helvetica,sans-Serif" font-size="10.00">_generator.h</text>
</a>
</g>
</g>
<!-- Node1&#45;&gt;Node8 -->
<g id="edge53" class="edge">
<title>Node1&#45;&gt;Node8</title>
<path fill="none" stroke="midnightblue" d="M637.82,-1005.92C516.54,-1004.15 321.37,-993.13 273,-942 191.71,-856.06 230.27,-464.94 243.9,-347.77"/>
<polygon fill="midnightblue" stroke="midnightblue" points="637.83,-1009.42 647.87,-1006.05 637.92,-1002.42 637.83,-1009.42"/>
</g>
<!-- Node11 -->
<g id="node11" class="node">
<title>Node11</title>
<g id="a_node11"><a xlink:href="v1_2pystadls_8h.html" target="_top" xlink:title=" ">
<polygon fill="white" stroke="black" points="54.88,-0.5 54.88,-56.5 233.12,-56.5 233.12,-0.5 54.88,-0.5"/>
<text text-anchor="start" x="62.88" y="-43.5" font-family="Helvetica,sans-Serif" font-size="10.00">/jenkins/jenlib_workspaces</text>
<text text-anchor="start" x="62.88" y="-31.5" font-family="Helvetica,sans-Serif" font-size="10.00">_f9/bld_nightly&#45;haldls.YmxkX25p</text>
<text text-anchor="start" x="62.88" y="-19.5" font-family="Helvetica,sans-Serif" font-size="10.00">Z2h0bHktaGFsZGxzIzcxMQ.x/haldls</text>
<text text-anchor="middle" x="144" y="-7.5" font-family="Helvetica,sans-Serif" font-size="10.00">/include/stadls/vx/v1/pystadls.h</text>
</a>
</g>
</g>
<!-- Node1&#45;&gt;Node11 -->
<g id="edge56" class="edge">
<title>Node1&#45;&gt;Node11</title>
<path fill="none" stroke="midnightblue" d="M637.36,-1000.51C497.43,-992.46 250.44,-974.17 167,-942 81.6,-909.07 0,-913.03 0,-821.5 0,-821.5 0,-821.5 0,-213.5 0,-146.16 60.55,-88.79 103.12,-56.77"/>
<polygon fill="midnightblue" stroke="midnightblue" points="637.48,-1004.02 647.66,-1001.09 637.88,-997.03 637.48,-1004.02"/>
</g>
<!-- Node12 -->
<g id="node12" class="node">
<title>Node12</title>
<g id="a_node12"><a xlink:href="v2_2dumper_8h.html" target="_top" xlink:title=" ">
<polygon fill="white" stroke="black" points="1248.88,-489.5 1248.88,-545.5 1427.12,-545.5 1427.12,-489.5 1248.88,-489.5"/>
<text text-anchor="start" x="1256.88" y="-532.5" font-family="Helvetica,sans-Serif" font-size="10.00">/jenkins/jenlib_workspaces</text>
<text text-anchor="start" x="1256.88" y="-520.5" font-family="Helvetica,sans-Serif" font-size="10.00">_f9/bld_nightly&#45;haldls.YmxkX25p</text>
<text text-anchor="start" x="1256.88" y="-508.5" font-family="Helvetica,sans-Serif" font-size="10.00">Z2h0bHktaGFsZGxzIzcxMQ.x/haldls</text>
<text text-anchor="middle" x="1338" y="-496.5" font-family="Helvetica,sans-Serif" font-size="10.00">/include/stadls/vx/v2/dumper.h</text>
</a>
</g>
</g>
<!-- Node1&#45;&gt;Node12 -->
<g id="edge58" class="edge">
<title>Node1&#45;&gt;Node12</title>
<path fill="none" stroke="midnightblue" d="M836.47,-999.35C906.31,-992.11 1000.51,-976.34 1077,-942 1138.56,-914.36 1145.45,-892.54 1197,-849 1225.6,-824.85 1226.47,-810.52 1259,-792 1307.39,-764.46 1345.76,-800.67 1379,-756 1426.21,-692.55 1381.36,-593.34 1354.66,-545.75"/>
<polygon fill="midnightblue" stroke="midnightblue" points="835.96,-995.89 826.35,-1000.36 836.65,-1002.85 835.96,-995.89"/>
</g>
<!-- Node13 -->
<g id="node13" class="node">
<title>Node13</title>
<g id="a_node13"><a xlink:href="v2_2playback__program__builder_8h.html" target="_top" xlink:title=" ">
<polygon fill="white" stroke="black" points="1286.88,-384.5 1286.88,-452.5 1465.12,-452.5 1465.12,-384.5 1286.88,-384.5"/>
<text text-anchor="start" x="1294.88" y="-439.5" font-family="Helvetica,sans-Serif" font-size="10.00">/jenkins/jenlib_workspaces</text>
<text text-anchor="start" x="1294.88" y="-427.5" font-family="Helvetica,sans-Serif" font-size="10.00">_f9/bld_nightly&#45;haldls.YmxkX25p</text>
<text text-anchor="start" x="1294.88" y="-415.5" font-family="Helvetica,sans-Serif" font-size="10.00">Z2h0bHktaGFsZGxzIzcxMQ.x/haldls</text>
<text text-anchor="start" x="1294.88" y="-403.5" font-family="Helvetica,sans-Serif" font-size="10.00">/include/stadls/vx/v2/playback</text>
<text text-anchor="middle" x="1376" y="-391.5" font-family="Helvetica,sans-Serif" font-size="10.00">_program_builder.h</text>
</a>
</g>
</g>
<!-- Node1&#45;&gt;Node13 -->
<g id="edge62" class="edge">
<title>Node1&#45;&gt;Node13</title>
<path fill="none" stroke="midnightblue" d="M836.3,-999.34C974.08,-989.93 1215.71,-970.07 1299,-942 1388.49,-911.84 1474,-915.93 1474,-821.5 1474,-821.5 1474,-821.5 1474,-615.5 1474,-556.8 1464.25,-540.46 1436,-489 1428.94,-476.14 1419.21,-463.55 1409.63,-452.7"/>
<polygon fill="midnightblue" stroke="midnightblue" points="835.89,-995.86 826.15,-1000.03 836.37,-1002.84 835.89,-995.86"/>
</g>
<!-- Node14 -->
<g id="node14" class="node">
<title>Node14</title>
<g id="a_node14"><a xlink:href="v2_2playback__generator_8h.html" target="_top" xlink:title=" ">
<polygon fill="white" stroke="black" points="1305.88,-279.5 1305.88,-347.5 1484.12,-347.5 1484.12,-279.5 1305.88,-279.5"/>
<text text-anchor="start" x="1313.88" y="-334.5" font-family="Helvetica,sans-Serif" font-size="10.00">/jenkins/jenlib_workspaces</text>
<text text-anchor="start" x="1313.88" y="-322.5" font-family="Helvetica,sans-Serif" font-size="10.00">_f9/bld_nightly&#45;haldls.YmxkX25p</text>
<text text-anchor="start" x="1313.88" y="-310.5" font-family="Helvetica,sans-Serif" font-size="10.00">Z2h0bHktaGFsZGxzIzcxMQ.x/haldls</text>
<text text-anchor="start" x="1313.88" y="-298.5" font-family="Helvetica,sans-Serif" font-size="10.00">/include/stadls/vx/v2/playback</text>
<text text-anchor="middle" x="1395" y="-286.5" font-family="Helvetica,sans-Serif" font-size="10.00">_generator.h</text>
</a>
</g>
</g>
<!-- Node1&#45;&gt;Node14 -->
<g id="edge61" class="edge">
<title>Node1&#45;&gt;Node14</title>
<path fill="none" stroke="midnightblue" d="M836.3,-1003.65C993.64,-999.42 1292.22,-985.72 1388,-942 1457.91,-910.09 1512,-898.35 1512,-821.5 1512,-821.5 1512,-821.5 1512,-516.5 1512,-455.24 1506.76,-435.77 1474,-384 1465.5,-370.57 1453.65,-358.24 1441.72,-347.82"/>
<polygon fill="midnightblue" stroke="midnightblue" points="836.05,-1000.16 826.15,-1003.92 836.24,-1007.15 836.05,-1000.16"/>
</g>
<!-- Node17 -->
<g id="node17" class="node">
<title>Node17</title>
<g id="a_node17"><a xlink:href="v2_2pystadls_8h.html" target="_top" xlink:title=" ">
<polygon fill="white" stroke="black" points="1324.88,-0.5 1324.88,-56.5 1503.12,-56.5 1503.12,-0.5 1324.88,-0.5"/>
<text text-anchor="start" x="1332.88" y="-43.5" font-family="Helvetica,sans-Serif" font-size="10.00">/jenkins/jenlib_workspaces</text>
<text text-anchor="start" x="1332.88" y="-31.5" font-family="Helvetica,sans-Serif" font-size="10.00">_f9/bld_nightly&#45;haldls.YmxkX25p</text>
<text text-anchor="start" x="1332.88" y="-19.5" font-family="Helvetica,sans-Serif" font-size="10.00">Z2h0bHktaGFsZGxzIzcxMQ.x/haldls</text>
<text text-anchor="middle" x="1414" y="-7.5" font-family="Helvetica,sans-Serif" font-size="10.00">/include/stadls/vx/v2/pystadls.h</text>
</a>
</g>
</g>
<!-- Node1&#45;&gt;Node17 -->
<g id="edge64" class="edge">
<title>Node1&#45;&gt;Node17</title>
<path fill="none" stroke="midnightblue" d="M836.13,-1006.15C1007.02,-1005.73 1348.79,-997.68 1453,-942 1513.64,-909.6 1550,-890.25 1550,-821.5 1550,-821.5 1550,-821.5 1550,-213.5 1550,-147.16 1492.12,-89.07 1451.88,-56.7"/>
<polygon fill="midnightblue" stroke="midnightblue" points="836.12,-1002.65 826.12,-1006.17 836.13,-1009.65 836.12,-1002.65"/>
</g>
<!-- Node18 -->
<g id="node18" class="node">
<title>Node18</title>
<g id="a_node18"><a xlink:href="v1_2playback__program_8h.html" target="_top" xlink:title=" ">
<polygon fill="white" stroke="black" points="995.88,-687.5 995.88,-755.5 1174.12,-755.5 1174.12,-687.5 995.88,-687.5"/>
<text text-anchor="start" x="1003.88" y="-742.5" font-family="Helvetica,sans-Serif" font-size="10.00">/jenkins/jenlib_workspaces</text>
<text text-anchor="start" x="1003.88" y="-730.5" font-family="Helvetica,sans-Serif" font-size="10.00">_f9/bld_nightly&#45;haldls.YmxkX25p</text>
<text text-anchor="start" x="1003.88" y="-718.5" font-family="Helvetica,sans-Serif" font-size="10.00">Z2h0bHktaGFsZGxzIzcxMQ.x/haldls</text>
<text text-anchor="start" x="1003.88" y="-706.5" font-family="Helvetica,sans-Serif" font-size="10.00">/include/stadls/vx/v1/playback</text>
<text text-anchor="middle" x="1085" y="-694.5" font-family="Helvetica,sans-Serif" font-size="10.00">_program.h</text>
</a>
</g>
</g>
<!-- Node1&#45;&gt;Node18 -->
<g id="edge55" class="edge">
<title>Node1&#45;&gt;Node18</title>
<path fill="none" stroke="midnightblue" d="M836.07,-999.38C884.64,-991.86 941.28,-975.81 982,-942 1040.46,-893.47 1067.69,-804.25 1078.66,-755.85"/>
<polygon fill="midnightblue" stroke="midnightblue" points="835.55,-995.92 826.16,-1000.81 836.56,-1002.84 835.55,-995.92"/>
</g>
<!-- Node19 -->
<g id="node19" class="node">
<title>Node19</title>
<g id="a_node19"><a xlink:href="v2_2playback__program_8h.html" target="_top" xlink:title=" ">
<polygon fill="white" stroke="black" points="1191.88,-687.5 1191.88,-755.5 1370.12,-755.5 1370.12,-687.5 1191.88,-687.5"/>
<text text-anchor="start" x="1199.88" y="-742.5" font-family="Helvetica,sans-Serif" font-size="10.00">/jenkins/jenlib_workspaces</text>
<text text-anchor="start" x="1199.88" y="-730.5" font-family="Helvetica,sans-Serif" font-size="10.00">_f9/bld_nightly&#45;haldls.YmxkX25p</text>
<text text-anchor="start" x="1199.88" y="-718.5" font-family="Helvetica,sans-Serif" font-size="10.00">Z2h0bHktaGFsZGxzIzcxMQ.x/haldls</text>
<text text-anchor="start" x="1199.88" y="-706.5" font-family="Helvetica,sans-Serif" font-size="10.00">/include/stadls/vx/v2/playback</text>
<text text-anchor="middle" x="1281" y="-694.5" font-family="Helvetica,sans-Serif" font-size="10.00">_program.h</text>
</a>
</g>
</g>
<!-- Node1&#45;&gt;Node19 -->
<g id="edge63" class="edge">
<title>Node1&#45;&gt;Node19</title>
<path fill="none" stroke="midnightblue" d="M836.58,-994.68C892.13,-985.83 961.33,-970 1018,-942 1114.51,-894.32 1206.02,-804.34 1251.36,-755.7"/>
<polygon fill="midnightblue" stroke="midnightblue" points="835.72,-991.27 826.37,-996.25 836.79,-998.19 835.72,-991.27"/>
</g>
<!-- Node20 -->
<g id="node20" class="node">
<title>Node20</title>
<g id="a_node20"><a xlink:href="run__time__info_8h.html" target="_top" xlink:title=" ">
<polygon fill="white" stroke="black" points="375.88,-885.5 375.88,-941.5 554.12,-941.5 554.12,-885.5 375.88,-885.5"/>
<text text-anchor="start" x="383.88" y="-928.5" font-family="Helvetica,sans-Serif" font-size="10.00">/jenkins/jenlib_workspaces</text>
<text text-anchor="start" x="383.88" y="-916.5" font-family="Helvetica,sans-Serif" font-size="10.00">_f9/bld_nightly&#45;haldls.YmxkX25p</text>
<text text-anchor="start" x="383.88" y="-904.5" font-family="Helvetica,sans-Serif" font-size="10.00">Z2h0bHktaGFsZGxzIzcxMQ.x/haldls</text>
<text text-anchor="middle" x="465" y="-892.5" font-family="Helvetica,sans-Serif" font-size="10.00">/include/stadls/vx/run_time_info.h</text>
</a>
</g>
</g>
<!-- Node1&#45;&gt;Node20 -->
<g id="edge36" class="edge">
<title>Node1&#45;&gt;Node20</title>
<path fill="none" stroke="midnightblue" d="M646.63,-975.26C614.12,-964.39 577.69,-952.2 546.03,-941.61"/>
<polygon fill="midnightblue" stroke="midnightblue" points="645.53,-978.59 656.13,-978.44 647.75,-971.95 645.53,-978.59"/>
</g>
<!-- Node21 -->
<g id="node21" class="node">
<title>Node21</title>
<g id="a_node21"><a xlink:href="run_8h.html" target="_top" xlink:title=" ">
<polygon fill="white" stroke="black" points="337.88,-792.5 337.88,-848.5 516.12,-848.5 516.12,-792.5 337.88,-792.5"/>
<text text-anchor="start" x="345.88" y="-835.5" font-family="Helvetica,sans-Serif" font-size="10.00">/jenkins/jenlib_workspaces</text>
<text text-anchor="start" x="345.88" y="-823.5" font-family="Helvetica,sans-Serif" font-size="10.00">_f9/bld_nightly&#45;haldls.YmxkX25p</text>
<text text-anchor="start" x="345.88" y="-811.5" font-family="Helvetica,sans-Serif" font-size="10.00">Z2h0bHktaGFsZGxzIzcxMQ.x/haldls</text>
<text text-anchor="middle" x="427" y="-799.5" font-family="Helvetica,sans-Serif" font-size="10.00">/include/stadls/vx/run.h</text>
</a>
</g>
</g>
<!-- Node1&#45;&gt;Node21 -->
<g id="edge49" class="edge">
<title>Node1&#45;&gt;Node21</title>
<path fill="none" stroke="midnightblue" d="M637.33,-1002.41C539.77,-997.03 400.98,-982.31 367,-942 350.67,-922.63 357.64,-908.54 367,-885 372.44,-871.33 382.37,-858.9 392.61,-848.74"/>
<polygon fill="midnightblue" stroke="midnightblue" points="637.36,-1005.91 647.53,-1002.94 637.73,-998.92 637.36,-1005.91"/>
</g>
<!-- Node22 -->
<g id="node22" class="node">
<title>Node22</title>
<g id="a_node22"><a xlink:href="v1_2run_8h.html" target="_top" xlink:title=" ">
<polygon fill="white" stroke="black" points="27.88,-693.5 27.88,-749.5 206.12,-749.5 206.12,-693.5 27.88,-693.5"/>
<text text-anchor="start" x="35.88" y="-736.5" font-family="Helvetica,sans-Serif" font-size="10.00">/jenkins/jenlib_workspaces</text>
<text text-anchor="start" x="35.88" y="-724.5" font-family="Helvetica,sans-Serif" font-size="10.00">_f9/bld_nightly&#45;haldls.YmxkX25p</text>
<text text-anchor="start" x="35.88" y="-712.5" font-family="Helvetica,sans-Serif" font-size="10.00">Z2h0bHktaGFsZGxzIzcxMQ.x/haldls</text>
<text text-anchor="middle" x="117" y="-700.5" font-family="Helvetica,sans-Serif" font-size="10.00">/include/stadls/vx/v1/run.h</text>
</a>
</g>
</g>
<!-- Node1&#45;&gt;Node22 -->
<g id="edge57" class="edge">
<title>Node1&#45;&gt;Node22</title>
<path fill="none" stroke="midnightblue" d="M637.69,-1004.5C506.57,-1001.31 284.72,-988.9 220,-942 155.41,-895.19 130,-797.41 121.16,-749.76"/>
<polygon fill="midnightblue" stroke="midnightblue" points="637.67,-1008 647.75,-1004.73 637.83,-1001 637.67,-1008"/>
</g>
<!-- Node23 -->
<g id="node23" class="node">
<title>Node23</title>
<g id="a_node23"><a xlink:href="v2_2run_8h.html" target="_top" xlink:title=" ">
<polygon fill="white" stroke="black" points="413.88,-693.5 413.88,-749.5 592.12,-749.5 592.12,-693.5 413.88,-693.5"/>
<text text-anchor="start" x="421.88" y="-736.5" font-family="Helvetica,sans-Serif" font-size="10.00">/jenkins/jenlib_workspaces</text>
<text text-anchor="start" x="421.88" y="-724.5" font-family="Helvetica,sans-Serif" font-size="10.00">_f9/bld_nightly&#45;haldls.YmxkX25p</text>
<text text-anchor="start" x="421.88" y="-712.5" font-family="Helvetica,sans-Serif" font-size="10.00">Z2h0bHktaGFsZGxzIzcxMQ.x/haldls</text>
<text text-anchor="middle" x="503" y="-700.5" font-family="Helvetica,sans-Serif" font-size="10.00">/include/stadls/vx/v2/run.h</text>
</a>
</g>
</g>
<!-- Node1&#45;&gt;Node23 -->
<g id="edge65" class="edge">
<title>Node1&#45;&gt;Node23</title>
<path fill="none" stroke="midnightblue" d="M650.31,-973.9C634.24,-965.3 618.59,-954.75 606,-942 577.31,-912.95 532.95,-801.87 513.15,-749.78"/>
<polygon fill="midnightblue" stroke="midnightblue" points="648.76,-977.04 659.26,-978.48 651.95,-970.81 648.76,-977.04"/>
</g>
<!-- Node24 -->
<g id="node24" class="node">
<title>Node24</title>
<g id="a_node24"><a xlink:href="playback__generator_8h.html" target="_top" xlink:title=" ">
<polygon fill="white" stroke="black" points="300.48,-588.5 300.48,-644.5 491.52,-644.5 491.52,-588.5 300.48,-588.5"/>
<text text-anchor="start" x="308.48" y="-631.5" font-family="Helvetica,sans-Serif" font-size="10.00">/jenkins/jenlib_workspaces</text>
<text text-anchor="start" x="308.48" y="-619.5" font-family="Helvetica,sans-Serif" font-size="10.00">_f9/bld_nightly&#45;haldls.YmxkX25p</text>
<text text-anchor="start" x="308.48" y="-607.5" font-family="Helvetica,sans-Serif" font-size="10.00">Z2h0bHktaGFsZGxzIzcxMQ.x/haldls</text>
<text text-anchor="middle" x="396" y="-595.5" font-family="Helvetica,sans-Serif" font-size="10.00">/include/stadls/vx/playback_generator.h</text>
</a>
</g>
</g>
<!-- Node1&#45;&gt;Node24 -->
<g id="edge44" class="edge">
<title>Node1&#45;&gt;Node24</title>
<path fill="none" stroke="midnightblue" d="M637.59,-1001.01C538.25,-994.48 394.62,-978.81 354,-942 269.18,-865.14 343.91,-708.23 379.57,-644.91"/>
<polygon fill="midnightblue" stroke="midnightblue" points="637.46,-1004.51 647.66,-1001.65 637.9,-997.52 637.46,-1004.51"/>
</g>
<!-- Node25 -->
<g id="node25" class="node">
<title>Node25</title>
<g id="a_node25"><a xlink:href="v1_2dumperdone_8h.html" target="_top" xlink:title=" ">
<polygon fill="white" stroke="black" points="647.88,-885.5 647.88,-941.5 826.12,-941.5 826.12,-885.5 647.88,-885.5"/>
<text text-anchor="start" x="655.88" y="-928.5" font-family="Helvetica,sans-Serif" font-size="10.00">/jenkins/jenlib_workspaces</text>
<text text-anchor="start" x="655.88" y="-916.5" font-family="Helvetica,sans-Serif" font-size="10.00">_f9/bld_nightly&#45;haldls.YmxkX25p</text>
<text text-anchor="start" x="655.88" y="-904.5" font-family="Helvetica,sans-Serif" font-size="10.00">Z2h0bHktaGFsZGxzIzcxMQ.x/haldls</text>
<text text-anchor="middle" x="737" y="-892.5" font-family="Helvetica,sans-Serif" font-size="10.00">/include/stadls/vx/v1/dumperdone.h</text>
</a>
</g>
</g>
<!-- Node1&#45;&gt;Node25 -->
<g id="edge51" class="edge">
<title>Node1&#45;&gt;Node25</title>
<path fill="none" stroke="midnightblue" d="M737,-968.12C737,-959.3 737,-950.06 737,-941.78"/>
<polygon fill="midnightblue" stroke="midnightblue" points="733.5,-968.2 737,-978.2 740.5,-968.2 733.5,-968.2"/>
</g>
<!-- Node26 -->
<g id="node26" class="node">
<title>Node26</title>
<g id="a_node26"><a xlink:href="v2_2dumperdone_8h.html" target="_top" xlink:title=" ">
<polygon fill="white" stroke="black" points="1267.88,-792.5 1267.88,-848.5 1446.12,-848.5 1446.12,-792.5 1267.88,-792.5"/>
<text text-anchor="start" x="1275.88" y="-835.5" font-family="Helvetica,sans-Serif" font-size="10.00">/jenkins/jenlib_workspaces</text>
<text text-anchor="start" x="1275.88" y="-823.5" font-family="Helvetica,sans-Serif" font-size="10.00">_f9/bld_nightly&#45;haldls.YmxkX25p</text>
<text text-anchor="start" x="1275.88" y="-811.5" font-family="Helvetica,sans-Serif" font-size="10.00">Z2h0bHktaGFsZGxzIzcxMQ.x/haldls</text>
<text text-anchor="middle" x="1357" y="-799.5" font-family="Helvetica,sans-Serif" font-size="10.00">/include/stadls/vx/v2/dumperdone.h</text>
</a>
</g>
</g>
<!-- Node1&#45;&gt;Node26 -->
<g id="edge59" class="edge">
<title>Node1&#45;&gt;Node26</title>
<path fill="none" stroke="midnightblue" d="M836.67,-1001.79C966.16,-995.52 1183.95,-979.62 1254,-942 1293.76,-920.64 1324.85,-877.2 1342.06,-848.73"/>
<polygon fill="midnightblue" stroke="midnightblue" points="836.18,-998.31 826.35,-1002.28 836.51,-1005.3 836.18,-998.31"/>
</g>
<!-- Node3 -->
<g id="node3" class="node">
<title>Node3</title>
<g id="a_node3"><a xlink:href="dumper_8h.html" target="_top" xlink:title=" ">
<polygon fill="white" stroke="black" points="723.88,-693.5 723.88,-749.5 902.12,-749.5 902.12,-693.5 723.88,-693.5"/>
<text text-anchor="start" x="731.88" y="-736.5" font-family="Helvetica,sans-Serif" font-size="10.00">/jenkins/jenlib_workspaces</text>
<text text-anchor="start" x="731.88" y="-724.5" font-family="Helvetica,sans-Serif" font-size="10.00">_f9/bld_nightly&#45;haldls.YmxkX25p</text>
<text text-anchor="start" x="731.88" y="-712.5" font-family="Helvetica,sans-Serif" font-size="10.00">Z2h0bHktaGFsZGxzIzcxMQ.x/haldls</text>
<text text-anchor="middle" x="813" y="-700.5" font-family="Helvetica,sans-Serif" font-size="10.00">/include/stadls/vx/dumper.h</text>
</a>
</g>
</g>
<!-- Node2&#45;&gt;Node3 -->
<g id="edge2" class="edge">
<title>Node2&#45;&gt;Node3</title>
<path fill="none" stroke="midnightblue" d="M834.11,-782.72C830.27,-771.76 826.13,-759.95 822.54,-749.71"/>
<polygon fill="midnightblue" stroke="midnightblue" points="830.92,-784.2 837.53,-792.48 837.52,-781.89 830.92,-784.2"/>
</g>
<!-- Node2&#45;&gt;Node4 -->
<g id="edge29" class="edge">
<title>Node2&#45;&gt;Node4</title>
<path fill="none" stroke="midnightblue" d="M889.36,-785.45C897.77,-776.71 905.65,-766.72 911,-756 927.58,-722.77 931.13,-679.79 931.3,-650.58"/>
<polygon fill="midnightblue" stroke="midnightblue" points="886.89,-782.97 882.22,-792.48 891.8,-787.96 886.89,-782.97"/>
</g>
<!-- Node5 -->
<g id="node5" class="node">
<title>Node5</title>
<g id="a_node5"><a xlink:href="stadls_8h.html" target="_top" xlink:title=" ">
<polygon fill="white" stroke="black" points="547.88,-489.5 547.88,-545.5 726.12,-545.5 726.12,-489.5 547.88,-489.5"/>
<text text-anchor="start" x="555.88" y="-532.5" font-family="Helvetica,sans-Serif" font-size="10.00">/jenkins/jenlib_workspaces</text>
<text text-anchor="start" x="555.88" y="-520.5" font-family="Helvetica,sans-Serif" font-size="10.00">_f9/bld_nightly&#45;haldls.YmxkX25p</text>
<text text-anchor="start" x="555.88" y="-508.5" font-family="Helvetica,sans-Serif" font-size="10.00">Z2h0bHktaGFsZGxzIzcxMQ.x/haldls</text>
<text text-anchor="middle" x="637" y="-496.5" font-family="Helvetica,sans-Serif" font-size="10.00">/include/stadls/vx/stadls.h</text>
</a>
</g>
</g>
<!-- Node2&#45;&gt;Node5 -->
<g id="edge30" class="edge">
<title>Node2&#45;&gt;Node5</title>
<path fill="none" stroke="midnightblue" d="M755.68,-787.67C740.57,-779.23 726.21,-768.79 715,-756 660.78,-694.16 644.09,-593.74 639.08,-545.73"/>
<polygon fill="midnightblue" stroke="midnightblue" points="754.16,-790.83 764.63,-792.42 757.44,-784.64 754.16,-790.83"/>
</g>
<!-- Node2&#45;&gt;Node18 -->
<g id="edge31" class="edge">
<title>Node2&#45;&gt;Node18</title>
<path fill="none" stroke="midnightblue" d="M922.67,-788.66C948.52,-778.12 977.54,-766.3 1003.81,-755.59"/>
<polygon fill="midnightblue" stroke="midnightblue" points="921.24,-785.46 913.3,-792.48 923.88,-791.95 921.24,-785.46"/>
</g>
<!-- Node2&#45;&gt;Node19 -->
<g id="edge33" class="edge">
<title>Node2&#45;&gt;Node19</title>
<path fill="none" stroke="midnightblue" d="M949.91,-803.96C1016.85,-792.89 1105.75,-776.39 1183,-756 1185.87,-755.24 1188.77,-754.44 1191.7,-753.61"/>
<polygon fill="midnightblue" stroke="midnightblue" points="949.08,-800.55 939.78,-805.62 950.21,-807.46 949.08,-800.55"/>
</g>
<!-- Node3&#45;&gt;Node4 -->
<g id="edge3" class="edge">
<title>Node3&#45;&gt;Node4</title>
<path fill="none" stroke="midnightblue" d="M851.3,-686.78C864.49,-675.17 879.23,-662.19 892.37,-650.63"/>
<polygon fill="midnightblue" stroke="midnightblue" points="848.93,-684.2 843.74,-693.44 853.56,-689.46 848.93,-684.2"/>
</g>
<!-- Node3&#45;&gt;Node6 -->
<g id="edge27" class="edge">
<title>Node3&#45;&gt;Node6</title>
<path fill="none" stroke="midnightblue" d="M816.7,-683.14C820.65,-643.27 826.81,-581.07 830.31,-545.63"/>
<polygon fill="midnightblue" stroke="midnightblue" points="813.2,-682.96 815.7,-693.26 820.17,-683.65 813.2,-682.96"/>
</g>
<!-- Node3&#45;&gt;Node12 -->
<g id="edge28" class="edge">
<title>Node3&#45;&gt;Node12</title>
<path fill="none" stroke="midnightblue" d="M911.99,-690.58C948.68,-678.95 990.48,-665.05 1028,-651 1116.8,-617.75 1217.35,-573.52 1279.22,-545.53"/>
<polygon fill="midnightblue" stroke="midnightblue" points="910.76,-687.3 902.28,-693.65 912.87,-693.97 910.76,-687.3"/>
</g>
<!-- Node4&#45;&gt;Node5 -->
<g id="edge4" class="edge">
<title>Node4&#45;&gt;Node5</title>
<path fill="none" stroke="midnightblue" d="M830.85,-582.68C794.46,-570.63 753.69,-557.13 718.97,-545.64"/>
<polygon fill="midnightblue" stroke="midnightblue" points="829.9,-586.05 840.5,-585.87 832.1,-579.4 829.9,-586.05"/>
</g>
<!-- Node4&#45;&gt;Node6 -->
<g id="edge5" class="edge">
<title>Node4&#45;&gt;Node6</title>
<path fill="none" stroke="midnightblue" d="M889.74,-575.24C879.78,-565.28 869.34,-554.84 860.17,-545.67"/>
<polygon fill="midnightblue" stroke="midnightblue" points="887.34,-577.79 896.89,-582.39 892.29,-572.84 887.34,-577.79"/>
</g>
<!-- Node4&#45;&gt;Node7 -->
<g id="edge15" class="edge">
<title>Node4&#45;&gt;Node7</title>
<path fill="none" stroke="midnightblue" d="M943.6,-572.45C949.29,-545.28 950.68,-511.24 931,-489 899.98,-453.94 605.88,-432.75 454.34,-424.07"/>
<polygon fill="midnightblue" stroke="midnightblue" points="940.12,-571.95 941.24,-582.49 946.93,-573.55 940.12,-571.95"/>
</g>
<!-- Node4&#45;&gt;Node12 -->
<g id="edge16" class="edge">
<title>Node4&#45;&gt;Node12</title>
<path fill="none" stroke="midnightblue" d="M1029.15,-583.04C1030.44,-582.69 1031.72,-582.34 1033,-582 1104.87,-562.89 1187.53,-545.99 1248.65,-534.44"/>
<polygon fill="midnightblue" stroke="midnightblue" points="1027.83,-579.77 1019.15,-585.85 1029.72,-586.51 1027.83,-579.77"/>
</g>
<!-- Node4&#45;&gt;Node13 -->
<g id="edge26" class="edge">
<title>Node4&#45;&gt;Node13</title>
<path fill="none" stroke="midnightblue" d="M1014.5,-578.37C1096.98,-542.12 1221.3,-487.49 1300.54,-452.66"/>
<polygon fill="midnightblue" stroke="midnightblue" points="1012.9,-575.25 1005.15,-582.47 1015.72,-581.65 1012.9,-575.25"/>
</g>
<!-- Node6&#45;&gt;Node7 -->
<g id="edge6" class="edge">
<title>Node6&#45;&gt;Node7</title>
<path fill="none" stroke="midnightblue" d="M733.54,-488.83C615.87,-465.55 581.55,-478.9 468,-453 463.51,-451.98 458.93,-450.84 454.33,-449.63"/>
<polygon fill="midnightblue" stroke="midnightblue" points="733.17,-492.32 743.67,-490.88 734.56,-485.46 733.17,-492.32"/>
</g>
<!-- Node10 -->
<g id="node10" class="node">
<title>Node10</title>
<g id="a_node10"><a xlink:href="v1_2stadls_8h.html" target="_top" xlink:title=" ">
<polygon fill="white" stroke="black" points="217.88,-93.5 217.88,-149.5 396.12,-149.5 396.12,-93.5 217.88,-93.5"/>
<text text-anchor="start" x="225.88" y="-136.5" font-family="Helvetica,sans-Serif" font-size="10.00">/jenkins/jenlib_workspaces</text>
<text text-anchor="start" x="225.88" y="-124.5" font-family="Helvetica,sans-Serif" font-size="10.00">_f9/bld_nightly&#45;haldls.YmxkX25p</text>
<text text-anchor="start" x="225.88" y="-112.5" font-family="Helvetica,sans-Serif" font-size="10.00">Z2h0bHktaGFsZGxzIzcxMQ.x/haldls</text>
<text text-anchor="middle" x="307" y="-100.5" font-family="Helvetica,sans-Serif" font-size="10.00">/include/stadls/vx/v1/stadls.h</text>
</a>
</g>
</g>
<!-- Node6&#45;&gt;Node10 -->
<g id="edge14" class="edge">
<title>Node6&#45;&gt;Node10</title>
<path fill="none" stroke="midnightblue" d="M793.47,-482.65C706.97,-408.85 502.59,-236.07 427,-186 407.05,-172.79 384.06,-160.07 363.57,-149.53"/>
<polygon fill="midnightblue" stroke="midnightblue" points="791.34,-485.43 801.22,-489.26 795.89,-480.11 791.34,-485.43"/>
</g>
<!-- Node7&#45;&gt;Node8 -->
<g id="edge7" class="edge">
<title>Node7&#45;&gt;Node8</title>
<path fill="none" stroke="midnightblue" d="M319.67,-377.59C308.4,-367.67 296.44,-357.15 285.59,-347.59"/>
<polygon fill="midnightblue" stroke="midnightblue" points="317.52,-380.36 327.34,-384.34 322.14,-375.11 317.52,-380.36"/>
</g>
<!-- Node9 -->
<g id="node9" class="node">
<title>Node9</title>
<g id="a_node9"><a xlink:href="v1_2init__generator_8h.html" target="_top" xlink:title=" ">
<polygon fill="white" stroke="black" points="217.88,-186.5 217.88,-242.5 396.12,-242.5 396.12,-186.5 217.88,-186.5"/>
<text text-anchor="start" x="225.88" y="-229.5" font-family="Helvetica,sans-Serif" font-size="10.00">/jenkins/jenlib_workspaces</text>
<text text-anchor="start" x="225.88" y="-217.5" font-family="Helvetica,sans-Serif" font-size="10.00">_f9/bld_nightly&#45;haldls.YmxkX25p</text>
<text text-anchor="start" x="225.88" y="-205.5" font-family="Helvetica,sans-Serif" font-size="10.00">Z2h0bHktaGFsZGxzIzcxMQ.x/haldls</text>
<text text-anchor="middle" x="307" y="-193.5" font-family="Helvetica,sans-Serif" font-size="10.00">/include/stadls/vx/v1/init_generator.h</text>
</a>
</g>
</g>
<!-- Node7&#45;&gt;Node9 -->
<g id="edge12" class="edge">
<title>Node7&#45;&gt;Node9</title>
<path fill="none" stroke="midnightblue" d="M363.65,-374.19C361.67,-346.32 356.98,-309.7 346,-279 341.47,-266.33 334.18,-253.48 327.13,-242.68"/>
<polygon fill="midnightblue" stroke="midnightblue" points="360.17,-374.65 364.28,-384.41 367.15,-374.22 360.17,-374.65"/>
</g>
<!-- Node7&#45;&gt;Node10 -->
<g id="edge13" class="edge">
<title>Node7&#45;&gt;Node10</title>
<path fill="none" stroke="midnightblue" d="M387.8,-375.01C410.49,-326.46 437.6,-245.97 405,-186 396.82,-170.95 383.36,-158.92 369,-149.55"/>
<polygon fill="midnightblue" stroke="midnightblue" points="384.52,-373.75 383.34,-384.28 390.83,-376.79 384.52,-373.75"/>
</g>
<!-- Node8&#45;&gt;Node9 -->
<g id="edge8" class="edge">
<title>Node8&#45;&gt;Node9</title>
<path fill="none" stroke="midnightblue" d="M273.37,-270.79C279.16,-261.27 285.17,-251.4 290.47,-242.67"/>
<polygon fill="midnightblue" stroke="midnightblue" points="270.35,-269.03 268.14,-279.39 276.33,-272.66 270.35,-269.03"/>
</g>
<!-- Node8&#45;&gt;Node10 -->
<g id="edge11" class="edge">
<title>Node8&#45;&gt;Node10</title>
<path fill="none" stroke="midnightblue" d="M219.06,-270.68C205.25,-245.2 194.57,-212.55 209,-186 217.18,-170.95 230.64,-158.92 245,-149.55"/>
<polygon fill="midnightblue" stroke="midnightblue" points="216.03,-272.43 224.03,-279.37 222.1,-268.96 216.03,-272.43"/>
</g>
<!-- Node9&#45;&gt;Node10 -->
<g id="edge9" class="edge">
<title>Node9&#45;&gt;Node10</title>
<path fill="none" stroke="midnightblue" d="M307,-176.12C307,-167.3 307,-158.06 307,-149.78"/>
<polygon fill="midnightblue" stroke="midnightblue" points="303.5,-176.2 307,-186.2 310.5,-176.2 303.5,-176.2"/>
</g>
<!-- Node10&#45;&gt;Node11 -->
<g id="edge10" class="edge">
<title>Node10&#45;&gt;Node11</title>
<path fill="none" stroke="midnightblue" d="M249.56,-88.43C230.94,-78.04 210.47,-66.61 192.56,-56.61"/>
<polygon fill="midnightblue" stroke="midnightblue" points="248.1,-91.62 258.54,-93.44 251.51,-85.51 248.1,-91.62"/>
</g>
<!-- Node12&#45;&gt;Node13 -->
<g id="edge17" class="edge">
<title>Node12&#45;&gt;Node13</title>
<path fill="none" stroke="midnightblue" d="M1352.3,-480.01C1355.82,-471.01 1359.58,-461.42 1363.04,-452.59"/>
<polygon fill="midnightblue" stroke="midnightblue" points="1348.97,-478.89 1348.59,-489.48 1355.49,-481.45 1348.97,-478.89"/>
</g>
<!-- Node16 -->
<g id="node16" class="node">
<title>Node16</title>
<g id="a_node16"><a xlink:href="v2_2stadls_8h.html" target="_top" xlink:title=" ">
<polygon fill="white" stroke="black" points="1188.88,-93.5 1188.88,-149.5 1367.12,-149.5 1367.12,-93.5 1188.88,-93.5"/>
<text text-anchor="start" x="1196.88" y="-136.5" font-family="Helvetica,sans-Serif" font-size="10.00">/jenkins/jenlib_workspaces</text>
<text text-anchor="start" x="1196.88" y="-124.5" font-family="Helvetica,sans-Serif" font-size="10.00">_f9/bld_nightly&#45;haldls.YmxkX25p</text>
<text text-anchor="start" x="1196.88" y="-112.5" font-family="Helvetica,sans-Serif" font-size="10.00">Z2h0bHktaGFsZGxzIzcxMQ.x/haldls</text>
<text text-anchor="middle" x="1278" y="-100.5" font-family="Helvetica,sans-Serif" font-size="10.00">/include/stadls/vx/v2/stadls.h</text>
</a>
</g>
</g>
<!-- Node12&#45;&gt;Node16 -->
<g id="edge25" class="edge">
<title>Node12&#45;&gt;Node16</title>
<path fill="none" stroke="midnightblue" d="M1297.43,-482.1C1289.67,-473.43 1282.55,-463.56 1278,-453 1233.02,-348.67 1257.62,-208.02 1271.07,-149.64"/>
<polygon fill="midnightblue" stroke="midnightblue" points="1294.94,-484.56 1304.37,-489.39 1300.01,-479.73 1294.94,-484.56"/>
</g>
<!-- Node13&#45;&gt;Node14 -->
<g id="edge18" class="edge">
<title>Node13&#45;&gt;Node14</title>
<path fill="none" stroke="midnightblue" d="M1383.95,-374.43C1385.6,-365.46 1387.32,-356.14 1388.9,-347.59"/>
<polygon fill="midnightblue" stroke="midnightblue" points="1380.49,-373.87 1382.12,-384.34 1387.37,-375.14 1380.49,-373.87"/>
</g>
<!-- Node15 -->
<g id="node15" class="node">
<title>Node15</title>
<g id="a_node15"><a xlink:href="v2_2init__generator_8h.html" target="_top" xlink:title=" ">
<polygon fill="white" stroke="black" points="1343.88,-186.5 1343.88,-242.5 1522.12,-242.5 1522.12,-186.5 1343.88,-186.5"/>
<text text-anchor="start" x="1351.88" y="-229.5" font-family="Helvetica,sans-Serif" font-size="10.00">/jenkins/jenlib_workspaces</text>
<text text-anchor="start" x="1351.88" y="-217.5" font-family="Helvetica,sans-Serif" font-size="10.00">_f9/bld_nightly&#45;haldls.YmxkX25p</text>
<text text-anchor="start" x="1351.88" y="-205.5" font-family="Helvetica,sans-Serif" font-size="10.00">Z2h0bHktaGFsZGxzIzcxMQ.x/haldls</text>
<text text-anchor="middle" x="1433" y="-193.5" font-family="Helvetica,sans-Serif" font-size="10.00">/include/stadls/vx/v2/init_generator.h</text>
</a>
</g>
</g>
<!-- Node13&#45;&gt;Node15 -->
<g id="edge23" class="edge">
<title>Node13&#45;&gt;Node15</title>
<path fill="none" stroke="midnightblue" d="M1465.58,-378.43C1476.53,-369.97 1486.23,-359.9 1493,-348 1508.17,-321.35 1504.33,-307.5 1493,-279 1487.56,-265.33 1477.63,-252.9 1467.39,-242.74"/>
<polygon fill="midnightblue" stroke="midnightblue" points="1463.47,-375.63 1457.4,-384.31 1467.56,-381.31 1463.47,-375.63"/>
</g>
<!-- Node13&#45;&gt;Node16 -->
<g id="edge24" class="edge">
<title>Node13&#45;&gt;Node16</title>
<path fill="none" stroke="midnightblue" d="M1319.17,-377.43C1310.4,-368.72 1302.46,-358.83 1297,-348 1264.21,-282.91 1268.96,-193.75 1274.07,-149.58"/>
<polygon fill="midnightblue" stroke="midnightblue" points="1317,-380.19 1326.7,-384.46 1321.78,-375.08 1317,-380.19"/>
</g>
<!-- Node14&#45;&gt;Node15 -->
<g id="edge19" class="edge">
<title>Node14&#45;&gt;Node15</title>
<path fill="none" stroke="midnightblue" d="M1411.68,-269.92C1415.31,-260.67 1419.04,-251.13 1422.36,-242.67"/>
<polygon fill="midnightblue" stroke="midnightblue" points="1408.36,-268.8 1407.97,-279.39 1414.88,-271.36 1408.36,-268.8"/>
</g>
<!-- Node14&#45;&gt;Node16 -->
<g id="edge22" class="edge">
<title>Node14&#45;&gt;Node16</title>
<path fill="none" stroke="midnightblue" d="M1356.49,-271.57C1348.89,-262.51 1341.32,-252.71 1335,-243 1315.43,-212.94 1298.66,-175.1 1288.48,-149.93"/>
<polygon fill="midnightblue" stroke="midnightblue" points="1353.98,-274.01 1363.15,-279.32 1359.29,-269.45 1353.98,-274.01"/>
</g>
<!-- Node15&#45;&gt;Node16 -->
<g id="edge20" class="edge">
<title>Node15&#45;&gt;Node16</title>
<path fill="none" stroke="midnightblue" d="M1377.9,-181.15C1360.32,-170.83 1341.05,-159.52 1324.18,-149.61"/>
<polygon fill="midnightblue" stroke="midnightblue" points="1376.52,-184.4 1386.91,-186.44 1380.06,-178.36 1376.52,-184.4"/>
</g>
<!-- Node16&#45;&gt;Node17 -->
<g id="edge21" class="edge">
<title>Node16&#45;&gt;Node17</title>
<path fill="none" stroke="midnightblue" d="M1326.77,-87.86C1342.08,-77.62 1358.81,-66.43 1373.48,-56.61"/>
<polygon fill="midnightblue" stroke="midnightblue" points="1324.8,-84.97 1318.44,-93.44 1328.69,-90.79 1324.8,-84.97"/>
</g>
<!-- Node18&#45;&gt;Node10 -->
<g id="edge32" class="edge">
<title>Node18&#45;&gt;Node10</title>
<path fill="none" stroke="midnightblue" d="M1085,-677.1C1085,-636.19 1085,-573.18 1085,-518.5 1085,-518.5 1085,-518.5 1085,-312.5 1085,-172.07 600.6,-134.96 396.25,-125.55"/>
<polygon fill="midnightblue" stroke="midnightblue" points="1081.5,-677.26 1085,-687.26 1088.5,-677.26 1081.5,-677.26"/>
</g>
<!-- Node19&#45;&gt;Node16 -->
<g id="edge34" class="edge">
<title>Node19&#45;&gt;Node16</title>
<path fill="none" stroke="midnightblue" d="M1253.99,-678.54C1231.11,-638.92 1202,-577.02 1202,-518.5 1202,-518.5 1202,-518.5 1202,-312.5 1202,-250.86 1236.91,-185.5 1259.41,-149.77"/>
<polygon fill="midnightblue" stroke="midnightblue" points="1251.11,-680.55 1259.2,-687.38 1257.14,-676.99 1251.11,-680.55"/>
</g>
<!-- Node20&#45;&gt;Node2 -->
<g id="edge37" class="edge">
<title>Node20&#45;&gt;Node2</title>
<path fill="none" stroke="midnightblue" d="M564.57,-888.78C623.11,-874.84 696.65,-857.32 754.01,-843.65"/>
<polygon fill="midnightblue" stroke="midnightblue" points="563.48,-885.44 554.56,-891.16 565.1,-892.25 563.48,-885.44"/>
</g>
<!-- Node20&#45;&gt;Node21 -->
<g id="edge38" class="edge">
<title>Node20&#45;&gt;Node21</title>
<path fill="none" stroke="midnightblue" d="M449.63,-875.69C445.88,-866.7 441.92,-857.24 438.39,-848.78"/>
<polygon fill="midnightblue" stroke="midnightblue" points="446.52,-877.32 453.6,-885.2 452.98,-874.62 446.52,-877.32"/>
</g>
<!-- Node21&#45;&gt;Node5 -->
<g id="edge39" class="edge">
<title>Node21&#45;&gt;Node5</title>
<path fill="none" stroke="midnightblue" d="M407.79,-783.15C395.61,-754.62 385.49,-715.15 405,-687 430.96,-649.55 462.53,-675.42 501,-651 547.06,-621.76 590.41,-574.95 615.3,-545.51"/>
<polygon fill="midnightblue" stroke="midnightblue" points="404.65,-784.71 411.95,-792.38 411.03,-781.82 404.65,-784.71"/>
</g>
<!-- Node21&#45;&gt;Node22 -->
<g id="edge40" class="edge">
<title>Node21&#45;&gt;Node22</title>
<path fill="none" stroke="midnightblue" d="M330.98,-789.45C290.22,-776.7 243.08,-761.95 203.43,-749.54"/>
<polygon fill="midnightblue" stroke="midnightblue" points="330.06,-792.83 340.65,-792.48 332.15,-786.15 330.06,-792.83"/>
</g>
<!-- Node21&#45;&gt;Node23 -->
<g id="edge42" class="edge">
<title>Node21&#45;&gt;Node23</title>
<path fill="none" stroke="midnightblue" d="M454.51,-784.39C463.46,-772.97 473.25,-760.47 481.68,-749.71"/>
<polygon fill="midnightblue" stroke="midnightblue" points="451.58,-782.45 448.17,-792.48 457.09,-786.77 451.58,-782.45"/>
</g>
<!-- Node22&#45;&gt;Node10 -->
<g id="edge41" class="edge">
<title>Node22&#45;&gt;Node10</title>
<path fill="none" stroke="midnightblue" d="M119.07,-683.18C121.13,-642.65 124,-576 124,-518.5 124,-518.5 124,-518.5 124,-312.5 124,-247.14 152.7,-232.13 199,-186 213.33,-171.72 231.5,-159.44 248.83,-149.58"/>
<polygon fill="midnightblue" stroke="midnightblue" points="115.56,-683.22 118.54,-693.39 122.55,-683.59 115.56,-683.22"/>
</g>
<!-- Node23&#45;&gt;Node16 -->
<g id="edge43" class="edge">
<title>Node23&#45;&gt;Node16</title>
<path fill="none" stroke="midnightblue" d="M507.99,-683.5C513.01,-643.05 520,-576.29 520,-518.5 520,-518.5 520,-518.5 520,-312.5 520,-175.98 988.45,-136.69 1188.82,-126.12"/>
<polygon fill="midnightblue" stroke="midnightblue" points="504.51,-683.08 506.73,-693.44 511.46,-683.96 504.51,-683.08"/>
</g>
<!-- Node24&#45;&gt;Node5 -->
<g id="edge45" class="edge">
<title>Node24&#45;&gt;Node5</title>
<path fill="none" stroke="midnightblue" d="M472.66,-584.64C503.88,-572.08 539.64,-557.69 569.81,-545.54"/>
<polygon fill="midnightblue" stroke="midnightblue" points="471.1,-581.5 463.13,-588.48 473.72,-587.99 471.1,-581.5"/>
</g>
<!-- Node24&#45;&gt;Node8 -->
<g id="edge46" class="edge">
<title>Node24&#45;&gt;Node8</title>
<path fill="none" stroke="midnightblue" d="M359.32,-580.99C329.26,-550.4 288.33,-502.93 267,-453 252.51,-419.07 248.53,-376.61 247.69,-347.7"/>
<polygon fill="midnightblue" stroke="midnightblue" points="357.16,-583.79 366.71,-588.4 362.12,-578.85 357.16,-583.79"/>
</g>
<!-- Node24&#45;&gt;Node14 -->
<g id="edge47" class="edge">
<title>Node24&#45;&gt;Node14</title>
<path fill="none" stroke="midnightblue" d="M425.34,-580.92C452,-551.83 493.94,-511.48 539,-489 797.21,-360.21 1144.4,-326.47 1305.71,-317.63"/>
<polygon fill="midnightblue" stroke="midnightblue" points="422.67,-578.66 418.57,-588.43 427.87,-583.35 422.67,-578.66"/>
</g>
<!-- Node25&#45;&gt;Node6 -->
<g id="edge52" class="edge">
<title>Node25&#45;&gt;Node6</title>
<path fill="none" stroke="midnightblue" d="M724.66,-875.69C711.4,-830.27 694.76,-751.17 715,-687 732.78,-630.63 776.88,-576.72 805.85,-545.65"/>
<polygon fill="midnightblue" stroke="midnightblue" points="721.35,-876.84 727.59,-885.4 728.05,-874.82 721.35,-876.84"/>
</g>
<!-- Node26&#45;&gt;Node12 -->
<g id="edge60" class="edge">
<title>Node26&#45;&gt;Node12</title>
<path fill="none" stroke="midnightblue" d="M1394.65,-784.8C1401.74,-776.15 1408.14,-766.36 1412,-756 1439.02,-683.54 1444.29,-652.27 1412,-582 1405.43,-567.69 1393.86,-555.4 1381.8,-545.55"/>
<polygon fill="midnightblue" stroke="midnightblue" points="1391.94,-782.58 1387.99,-792.41 1397.21,-787.19 1391.94,-782.58"/>
</g>
</g>
</svg>
