<?xml version="1.0" encoding="UTF-8" standalone="no"?>
<!DOCTYPE svg PUBLIC "-//W3C//DTD SVG 1.1//EN"
 "http://www.w3.org/Graphics/SVG/1.1/DTD/svg11.dtd">
<!-- Generated by graphviz version 2.43.0 (0)
 -->
<!-- Title: /jenkins/jenlib_workspaces_f9/bld_nightly&#45;haldls.YmxkX25pZ2h0bHktaGFsZGxzIzU5Nw.x/haldls/include/stadls/vx/init_generator.h Pages: 1 -->
<svg width="2650pt" height="424pt"
 viewBox="0.00 0.00 2650.46 423.55" xmlns="http://www.w3.org/2000/svg" xmlns:xlink="http://www.w3.org/1999/xlink">
<g id="graph0" class="graph" transform="scale(1 1) rotate(0) translate(4 419.55)">
<title>/jenkins/jenlib_workspaces_f9/bld_nightly&#45;haldls.YmxkX25pZ2h0bHktaGFsZGxzIzU5Nw.x/haldls/include/stadls/vx/init_generator.h</title>
<polygon fill="white" stroke="transparent" points="-4,4 -4,-419.55 2646.46,-419.55 2646.46,4 -4,4"/>
<!-- Node0 -->
<g id="node1" class="node">
<title>Node0</title>
<g id="a_node1"><a xlink:title=" ">
<polygon fill="#bfbfbf" stroke="black" points="800.45,-359.05 800.45,-415.05 979.8,-415.05 979.8,-359.05 800.45,-359.05"/>
<text text-anchor="start" x="808.45" y="-402.05" font-family="Helvetica,sans-Serif" font-size="10.00">/jenkins/jenlib_workspaces</text>
<text text-anchor="start" x="808.45" y="-390.05" font-family="Helvetica,sans-Serif" font-size="10.00">_f9/bld_nightly&#45;haldls.YmxkX25p</text>
<text text-anchor="start" x="808.45" y="-378.05" font-family="Helvetica,sans-Serif" font-size="10.00">Z2h0bHktaGFsZGxzIzU5Nw.x/haldls</text>
<text text-anchor="middle" x="890.12" y="-366.05" font-family="Helvetica,sans-Serif" font-size="10.00">/include/stadls/vx/init_generator.h</text>
</a>
</g>
</g>
<!-- Node1 -->
<g id="node2" class="node">
<title>Node1</title>
<g id="a_node2"><a xlink:title=" ">
<polygon fill="white" stroke="#bfbfbf" points="0,-278.05 0,-310.05 108.24,-310.05 108.24,-278.05 0,-278.05"/>
<text text-anchor="start" x="8" y="-297.05" font-family="Helvetica,sans-Serif" font-size="10.00">halco/common/typed</text>
<text text-anchor="middle" x="54.12" y="-285.05" font-family="Helvetica,sans-Serif" font-size="10.00">_array.h</text>
</a>
</g>
</g>
<!-- Node0&#45;&gt;Node1 -->
<g id="edge1" class="edge">
<title>Node0&#45;&gt;Node1</title>
<path fill="none" stroke="midnightblue" d="M800.38,-382.39C625.32,-374.63 244.27,-354.58 117.12,-322.55 108.98,-320.5 100.55,-317.5 92.61,-314.22"/>
<polygon fill="midnightblue" stroke="midnightblue" points="93.78,-310.92 83.22,-310.14 90.99,-317.34 93.78,-310.92"/>
</g>
<!-- Node2 -->
<g id="node3" class="node">
<title>Node2</title>
<g id="a_node3"><a xlink:title=" ">
<polygon fill="white" stroke="#bfbfbf" points="126.61,-278.05 126.61,-310.05 227.63,-310.05 227.63,-278.05 126.61,-278.05"/>
<text text-anchor="start" x="134.61" y="-297.05" font-family="Helvetica,sans-Serif" font-size="10.00">halco/hicann&#45;dls/vx</text>
<text text-anchor="middle" x="177.12" y="-285.05" font-family="Helvetica,sans-Serif" font-size="10.00">/coordinates.h</text>
</a>
</g>
</g>
<!-- Node0&#45;&gt;Node2 -->
<g id="edge2" class="edge">
<title>Node0&#45;&gt;Node2</title>
<path fill="none" stroke="midnightblue" d="M800.26,-386.66C672.78,-385.44 433.15,-375.4 237.12,-322.55 229.42,-320.48 221.47,-317.5 213.98,-314.26"/>
<polygon fill="midnightblue" stroke="midnightblue" points="215.34,-311.03 204.78,-310.06 212.43,-317.4 215.34,-311.03"/>
</g>
<!-- Node3 -->
<g id="node4" class="node">
<title>Node3</title>
<g id="a_node4"><a xlink:title=" ">
<polygon fill="white" stroke="#bfbfbf" points="245.95,-284.05 245.95,-304.05 350.3,-304.05 350.3,-284.05 245.95,-284.05"/>
<text text-anchor="middle" x="298.12" y="-291.05" font-family="Helvetica,sans-Serif" font-size="10.00">haldls/vx/capmem.h</text>
</a>
</g>
</g>
<!-- Node0&#45;&gt;Node3 -->
<g id="edge3" class="edge">
<title>Node0&#45;&gt;Node3</title>
<path fill="none" stroke="midnightblue" d="M800.2,-383.6C693.28,-378.8 510.29,-364.6 359.12,-322.55 347.04,-319.19 334.3,-313.78 323.61,-308.63"/>
<polygon fill="midnightblue" stroke="midnightblue" points="324.95,-305.39 314.44,-304.06 321.82,-311.66 324.95,-305.39"/>
</g>
<!-- Node4 -->
<g id="node5" class="node">
<title>Node4</title>
<g id="a_node5"><a xlink:title=" ">
<polygon fill="white" stroke="#bfbfbf" points="368.06,-284.05 368.06,-304.05 450.19,-304.05 450.19,-284.05 368.06,-284.05"/>
<text text-anchor="middle" x="409.12" y="-291.05" font-family="Helvetica,sans-Serif" font-size="10.00">haldls/vx/jtag.h</text>
</a>
</g>
</g>
<!-- Node0&#45;&gt;Node4 -->
<g id="edge4" class="edge">
<title>Node0&#45;&gt;Node4</title>
<path fill="none" stroke="midnightblue" d="M800.05,-382.1C711.32,-376.06 572.92,-360.84 459.12,-322.55 449.57,-319.34 439.72,-314.34 431.31,-309.48"/>
<polygon fill="midnightblue" stroke="midnightblue" points="432.89,-306.34 422.52,-304.15 429.26,-312.33 432.89,-306.34"/>
</g>
<!-- Node5 -->
<g id="node6" class="node">
<title>Node5</title>
<g id="a_node6"><a xlink:title=" ">
<polygon fill="white" stroke="#bfbfbf" points="468.06,-284.05 468.06,-304.05 550.19,-304.05 550.19,-284.05 468.06,-284.05"/>
<text text-anchor="middle" x="509.12" y="-291.05" font-family="Helvetica,sans-Serif" font-size="10.00">haldls/vx/phy.h</text>
</a>
</g>
</g>
<!-- Node0&#45;&gt;Node5 -->
<g id="edge5" class="edge">
<title>Node0&#45;&gt;Node5</title>
<path fill="none" stroke="midnightblue" d="M800.3,-376.55C732.55,-367.55 638.11,-351.04 559.12,-322.55 549.78,-319.18 540.08,-314.23 531.75,-309.46"/>
<polygon fill="midnightblue" stroke="midnightblue" points="533.38,-306.36 523,-304.24 529.79,-312.37 533.38,-306.36"/>
</g>
<!-- Node6 -->
<g id="node7" class="node">
<title>Node6</title>
<g id="a_node7"><a xlink:title=" ">
<polygon fill="white" stroke="#bfbfbf" points="568.12,-284.05 568.12,-304.05 644.13,-304.05 644.13,-284.05 568.12,-284.05"/>
<text text-anchor="middle" x="606.12" y="-291.05" font-family="Helvetica,sans-Serif" font-size="10.00">haldls/vx/pll.h</text>
</a>
</g>
</g>
<!-- Node0&#45;&gt;Node6 -->
<g id="edge6" class="edge">
<title>Node0&#45;&gt;Node6</title>
<path fill="none" stroke="midnightblue" d="M800.18,-367.94C755.09,-357.37 700.19,-342.21 653.12,-322.55 644.69,-319.03 635.92,-314.25 628.27,-309.65"/>
<polygon fill="midnightblue" stroke="midnightblue" points="629.94,-306.57 619.6,-304.25 626.24,-312.51 629.94,-306.57"/>
</g>
<!-- Node7 -->
<g id="node8" class="node">
<title>Node7</title>
<g id="a_node8"><a xlink:title=" ">
<polygon fill="white" stroke="#bfbfbf" points="661.73,-284.05 661.73,-304.05 740.52,-304.05 740.52,-284.05 661.73,-284.05"/>
<text text-anchor="middle" x="701.12" y="-291.05" font-family="Helvetica,sans-Serif" font-size="10.00">haldls/vx/spi.h</text>
</a>
</g>
</g>
<!-- Node0&#45;&gt;Node7 -->
<g id="edge7" class="edge">
<title>Node0&#45;&gt;Node7</title>
<path fill="none" stroke="midnightblue" d="M826.68,-359.05C802.2,-348.22 774.11,-335.3 749.12,-322.55 741.09,-318.46 732.5,-313.67 724.84,-309.25"/>
<polygon fill="midnightblue" stroke="midnightblue" points="726.45,-306.13 716.05,-304.1 722.91,-312.17 726.45,-306.13"/>
</g>
<!-- Node8 -->
<g id="node9" class="node">
<title>Node8</title>
<g id="a_node9"><a xlink:title=" ">
<polygon fill="white" stroke="#bfbfbf" points="758.5,-284.05 758.5,-304.05 861.75,-304.05 861.75,-284.05 758.5,-284.05"/>
<text text-anchor="middle" x="810.12" y="-291.05" font-family="Helvetica,sans-Serif" font-size="10.00">haldls/vx/synapse.h</text>
</a>
</g>
</g>
<!-- Node0&#45;&gt;Node8 -->
<g id="edge8" class="edge">
<title>Node0&#45;&gt;Node8</title>
<path fill="none" stroke="midnightblue" d="M866.12,-358.75C852.83,-343.63 836.72,-325.31 825.2,-312.2"/>
<polygon fill="midnightblue" stroke="midnightblue" points="827.6,-309.63 818.36,-304.43 822.34,-314.25 827.6,-309.63"/>
</g>
<!-- Node9 -->
<g id="node10" class="node">
<title>Node9</title>
<g id="a_node10"><a xlink:title=" ">
<polygon fill="white" stroke="#bfbfbf" points="744.84,-203.05 744.84,-223.05 801.41,-223.05 801.41,-203.05 744.84,-203.05"/>
<text text-anchor="middle" x="773.12" y="-210.05" font-family="Helvetica,sans-Serif" font-size="10.00">hate/nil.h</text>
</a>
</g>
</g>
<!-- Node0&#45;&gt;Node9 -->
<g id="edge9" class="edge">
<title>Node0&#45;&gt;Node9</title>
<path fill="none" stroke="midnightblue" d="M892.45,-359.05C893.31,-332.78 890.73,-292.93 871.12,-265.55 862.69,-253.78 830.21,-238.01 804.92,-227.04"/>
<polygon fill="midnightblue" stroke="midnightblue" points="806.22,-223.79 795.65,-223.09 803.48,-230.23 806.22,-223.79"/>
</g>
<!-- Node10 -->
<g id="node11" class="node">
<title>Node10</title>
<g id="a_node11"><a xlink:title=" ">
<polygon fill="white" stroke="#bfbfbf" points="923.62,-65.05 923.62,-85.05 1004.63,-85.05 1004.63,-65.05 923.62,-65.05"/>
<text text-anchor="middle" x="964.12" y="-72.05" font-family="Helvetica,sans-Serif" font-size="10.00">hate/visibility.h</text>
</a>
</g>
</g>
<!-- Node0&#45;&gt;Node10 -->
<g id="edge10" class="edge">
<title>Node0&#45;&gt;Node10</title>
<path fill="none" stroke="midnightblue" d="M979.81,-361.21C997.75,-352.01 1014.37,-339.5 1025.12,-322.55 1064.87,-259.94 1007.31,-231.32 985.12,-160.55 978.19,-138.43 972.02,-112.48 968.2,-95.23"/>
<polygon fill="midnightblue" stroke="midnightblue" points="971.58,-94.31 966.03,-85.28 964.74,-95.8 971.58,-94.31"/>
</g>
<!-- Node11 -->
<g id="node12" class="node">
<title>Node11</title>
<g id="a_node12"><a xlink:href="genpybind_8h.html" target="_top" xlink:title=" ">
<polygon fill="white" stroke="black" points="1650.05,-2.05 1650.05,-22.05 1762.19,-22.05 1762.19,-2.05 1650.05,-2.05"/>
<text text-anchor="middle" x="1706.12" y="-9.05" font-family="Helvetica,sans-Serif" font-size="10.00">stadls/vx/genpybind.h</text>
</a>
</g>
</g>
<!-- Node0&#45;&gt;Node11 -->
<g id="edge11" class="edge">
<title>Node0&#45;&gt;Node11</title>
<path fill="none" stroke="midnightblue" d="M979.89,-377.73C1321.66,-345.15 2527.87,-221.63 2635.12,-91.55 2644.45,-80.24 2645.24,-69.17 2635.12,-58.55 2605.44,-27.38 1980.43,-16.57 1772.63,-13.83"/>
<polygon fill="midnightblue" stroke="midnightblue" points="1772.52,-10.32 1762.47,-13.69 1772.43,-17.32 1772.52,-10.32"/>
</g>
<!-- Node12 -->
<g id="node13" class="node">
<title>Node12</title>
<g id="a_node13"><a xlink:href="playback__generator_8h.html" target="_top" xlink:title=" ">
<polygon fill="white" stroke="black" points="918.56,-278.05 918.56,-310.05 1015.69,-310.05 1015.69,-278.05 918.56,-278.05"/>
<text text-anchor="start" x="926.56" y="-297.05" font-family="Helvetica,sans-Serif" font-size="10.00">stadls/vx/playback</text>
<text text-anchor="middle" x="967.12" y="-285.05" font-family="Helvetica,sans-Serif" font-size="10.00">_generator.h</text>
</a>
</g>
</g>
<!-- Node0&#45;&gt;Node12 -->
<g id="edge13" class="edge">
<title>Node0&#45;&gt;Node12</title>
<path fill="none" stroke="midnightblue" d="M913.23,-358.75C924.27,-345.69 937.34,-330.25 947.85,-317.83"/>
<polygon fill="midnightblue" stroke="midnightblue" points="950.54,-320.06 954.33,-310.17 945.2,-315.54 950.54,-320.06"/>
</g>
<!-- Node14 -->
<g id="node15" class="node">
<title>Node14</title>
<g id="a_node15"><a xlink:href="playback__program__builder_8h.html" target="_top" xlink:title=" ">
<polygon fill="white" stroke="black" points="1590.78,-197.05 1590.78,-229.05 1693.46,-229.05 1693.46,-197.05 1590.78,-197.05"/>
<text text-anchor="start" x="1598.78" y="-216.05" font-family="Helvetica,sans-Serif" font-size="10.00">stadls/vx/playback</text>
<text text-anchor="middle" x="1642.12" y="-204.05" font-family="Helvetica,sans-Serif" font-size="10.00">_program_builder.h</text>
</a>
</g>
</g>
<!-- Node0&#45;&gt;Node14 -->
<g id="edge55" class="edge">
<title>Node0&#45;&gt;Node14</title>
<path fill="none" stroke="midnightblue" d="M980.08,-365.48C1134.92,-330.06 1447.89,-258.48 1580.51,-228.15"/>
<polygon fill="midnightblue" stroke="midnightblue" points="1581.53,-231.5 1590.5,-225.86 1579.97,-224.68 1581.53,-231.5"/>
</g>
<!-- Node24 -->
<g id="node25" class="node">
<title>Node24</title>
<g id="a_node25"><a xlink:href="playback__program_8h.html" target="_top" xlink:title=" ">
<polygon fill="white" stroke="black" points="1940.56,-128.05 1940.56,-160.05 2037.69,-160.05 2037.69,-128.05 1940.56,-128.05"/>
<text text-anchor="start" x="1948.56" y="-147.05" font-family="Helvetica,sans-Serif" font-size="10.00">stadls/vx/playback</text>
<text text-anchor="middle" x="1989.12" y="-135.05" font-family="Helvetica,sans-Serif" font-size="10.00">_program.h</text>
</a>
</g>
</g>
<!-- Node0&#45;&gt;Node24 -->
<g id="edge54" class="edge">
<title>Node0&#45;&gt;Node24</title>
<path fill="none" stroke="midnightblue" d="M980.07,-374.18C1063.76,-362.67 1191.8,-343.85 1302.12,-322.55 1481.33,-287.96 1525.62,-276.01 1702.12,-229.55 1782.13,-208.49 1873.69,-180.93 1931.44,-163.1"/>
<polygon fill="midnightblue" stroke="midnightblue" points="1932.6,-166.41 1941.12,-160.11 1930.53,-159.72 1932.6,-166.41"/>
</g>
<!-- Node34 -->
<g id="node35" class="node">
<title>Node34</title>
<g id="a_node35"><a xlink:title=" ">
<polygon fill="white" stroke="#bfbfbf" points="2070.76,-284.05 2070.76,-304.05 2213.49,-304.05 2213.49,-284.05 2070.76,-284.05"/>
<text text-anchor="middle" x="2142.12" y="-291.05" font-family="Helvetica,sans-Serif" font-size="10.00">boost/hana/adapt_struct.hpp</text>
</a>
</g>
</g>
<!-- Node0&#45;&gt;Node34 -->
<g id="edge51" class="edge">
<title>Node0&#45;&gt;Node34</title>
<path fill="none" stroke="midnightblue" d="M980.18,-384.16C1216.6,-378.71 1850.9,-360.85 2057.12,-322.55 2074.89,-319.25 2094.08,-313.26 2109.73,-307.71"/>
<polygon fill="midnightblue" stroke="midnightblue" points="2111.26,-310.88 2119.45,-304.16 2108.86,-304.31 2111.26,-310.88"/>
</g>
<!-- Node35 -->
<g id="node36" class="node">
<title>Node35</title>
<g id="a_node36"><a xlink:title=" ">
<polygon fill="white" stroke="#bfbfbf" points="2231.45,-266.05 2231.45,-322.05 2410.8,-322.05 2410.8,-266.05 2231.45,-266.05"/>
<text text-anchor="start" x="2239.45" y="-309.05" font-family="Helvetica,sans-Serif" font-size="10.00">/jenkins/jenlib_workspaces</text>
<text text-anchor="start" x="2239.45" y="-297.05" font-family="Helvetica,sans-Serif" font-size="10.00">_f9/bld_nightly&#45;haldls.YmxkX25p</text>
<text text-anchor="start" x="2239.45" y="-285.05" font-family="Helvetica,sans-Serif" font-size="10.00">Z2h0bHktaGFsZGxzIzU5Nw.x/haldls</text>
<text text-anchor="middle" x="2321.12" y="-273.05" font-family="Helvetica,sans-Serif" font-size="10.00">/include/haldls/vx/common.h</text>
</a>
</g>
</g>
<!-- Node0&#45;&gt;Node35 -->
<g id="edge52" class="edge">
<title>Node0&#45;&gt;Node35</title>
<path fill="none" stroke="midnightblue" d="M979.98,-384.38C1235.25,-379.23 1962.45,-361.61 2221.09,-322.52"/>
<polygon fill="midnightblue" stroke="midnightblue" points="2221.86,-325.95 2231.2,-320.95 2220.78,-319.03 2221.86,-325.95"/>
</g>
<!-- Node36 -->
<g id="node37" class="node">
<title>Node36</title>
<g id="a_node37"><a xlink:title=" ">
<polygon fill="white" stroke="#bfbfbf" points="2428.45,-266.05 2428.45,-322.05 2607.8,-322.05 2607.8,-266.05 2428.45,-266.05"/>
<text text-anchor="start" x="2436.45" y="-309.05" font-family="Helvetica,sans-Serif" font-size="10.00">/jenkins/jenlib_workspaces</text>
<text text-anchor="start" x="2436.45" y="-297.05" font-family="Helvetica,sans-Serif" font-size="10.00">_f9/bld_nightly&#45;haldls.YmxkX25p</text>
<text text-anchor="start" x="2436.45" y="-285.05" font-family="Helvetica,sans-Serif" font-size="10.00">Z2h0bHktaGFsZGxzIzU5Nw.x/haldls</text>
<text text-anchor="middle" x="2518.12" y="-273.05" font-family="Helvetica,sans-Serif" font-size="10.00">/include/haldls/vx/neuron.h</text>
</a>
</g>
</g>
<!-- Node0&#45;&gt;Node36 -->
<g id="edge53" class="edge">
<title>Node0&#45;&gt;Node36</title>
<path fill="none" stroke="midnightblue" d="M979.95,-385.06C1260.74,-381.52 2120.4,-367.37 2418.38,-322.66"/>
<polygon fill="midnightblue" stroke="midnightblue" points="2418.97,-326.11 2428.32,-321.12 2417.9,-319.19 2418.97,-326.11"/>
</g>
<!-- Node11&#45;&gt;Node11 -->
<g id="edge12" class="edge">
<title>Node11&#45;&gt;Node11</title>
<path fill="none" stroke="midnightblue" d="M1734.63,-22.11C1757.12,-26 1780.19,-22.65 1780.19,-12.05 1780.19,-3.03 1763.46,0.74 1744.6,-0.74"/>
<polygon fill="midnightblue" stroke="midnightblue" points="1744.11,2.72 1734.63,-1.99 1744.99,-4.22 1744.11,2.72"/>
</g>
<!-- Node12&#45;&gt;Node9 -->
<g id="edge14" class="edge">
<title>Node12&#45;&gt;Node9</title>
<path fill="none" stroke="midnightblue" d="M933.22,-277.98C923.82,-273.88 913.6,-269.48 904.12,-265.55 871.1,-251.86 833.03,-236.99 806.47,-226.77"/>
<polygon fill="midnightblue" stroke="midnightblue" points="807.48,-223.41 796.89,-223.09 804.97,-229.95 807.48,-223.41"/>
</g>
<!-- Node12&#45;&gt;Node10 -->
<g id="edge16" class="edge">
<title>Node12&#45;&gt;Node10</title>
<path fill="none" stroke="midnightblue" d="M966.78,-277.85C966.1,-258.7 964.08,-224.87 958.12,-196.55 954.65,-180.05 948.82,-177.2 946.12,-160.55 943.77,-146.08 943.67,-142.01 946.12,-127.55 948.03,-116.31 952.13,-104.24 955.93,-94.62"/>
<polygon fill="midnightblue" stroke="midnightblue" points="959.2,-95.87 959.83,-85.29 952.74,-93.17 959.2,-95.87"/>
</g>
<!-- Node12&#45;&gt;Node11 -->
<g id="edge17" class="edge">
<title>Node12&#45;&gt;Node11</title>
<path fill="none" stroke="midnightblue" d="M929.31,-277.95C898.04,-264.6 857.34,-244.91 848.12,-229.55 812.58,-170.31 843.71,-105.8 914.12,-58.55 973.65,-18.61 1460.24,-13.54 1639.84,-13.04"/>
<polygon fill="midnightblue" stroke="midnightblue" points="1639.96,-16.54 1649.95,-13.02 1639.94,-9.54 1639.96,-16.54"/>
</g>
<!-- Node13 -->
<g id="node14" class="node">
<title>Node13</title>
<g id="a_node14"><a xlink:title=" ">
<polygon fill="white" stroke="#bfbfbf" points="856.78,-203.05 856.78,-223.05 949.47,-223.05 949.47,-203.05 856.78,-203.05"/>
<text text-anchor="middle" x="903.12" y="-210.05" font-family="Helvetica,sans-Serif" font-size="10.00">hate/type_traits.h</text>
</a>
</g>
</g>
<!-- Node12&#45;&gt;Node13 -->
<g id="edge15" class="edge">
<title>Node12&#45;&gt;Node13</title>
<path fill="none" stroke="midnightblue" d="M954.78,-277.82C943.95,-264.45 928.22,-245.03 916.97,-231.14"/>
<polygon fill="midnightblue" stroke="midnightblue" points="919.64,-228.88 910.62,-223.31 914.2,-233.28 919.64,-228.88"/>
</g>
<!-- Node12&#45;&gt;Node14 -->
<g id="edge18" class="edge">
<title>Node12&#45;&gt;Node14</title>
<path fill="none" stroke="midnightblue" d="M1015.94,-287.34C1136.36,-273.25 1447.43,-236.84 1580.38,-221.28"/>
<polygon fill="midnightblue" stroke="midnightblue" points="1580.88,-224.74 1590.4,-220.11 1580.06,-217.79 1580.88,-224.74"/>
</g>
<!-- Node14&#45;&gt;Node10 -->
<g id="edge26" class="edge">
<title>Node14&#45;&gt;Node10</title>
<path fill="none" stroke="midnightblue" d="M1590.53,-210.29C1450.54,-205.17 1070.75,-188.79 1022.12,-160.55 996.57,-145.72 979.76,-114.57 971.11,-94.52"/>
<polygon fill="midnightblue" stroke="midnightblue" points="974.33,-93.14 967.32,-85.19 967.84,-95.77 974.33,-93.14"/>
</g>
<!-- Node14&#45;&gt;Node11 -->
<g id="edge30" class="edge">
<title>Node14&#45;&gt;Node11</title>
<path fill="none" stroke="midnightblue" d="M1590.76,-211.42C1454.36,-209.21 1090.97,-199.68 1055.12,-160.55 1045.22,-149.74 1045.77,-138.85 1055.12,-127.55 1128.82,-38.57 1489.39,-18.73 1639.91,-14.31"/>
<polygon fill="midnightblue" stroke="midnightblue" points="1640.05,-17.81 1649.95,-14.03 1639.86,-10.81 1640.05,-17.81"/>
</g>
<!-- Node15 -->
<g id="node16" class="node">
<title>Node15</title>
<g id="a_node16"><a xlink:title=" ">
<polygon fill="white" stroke="#bfbfbf" points="1664.67,-65.05 1664.67,-85.05 1709.57,-85.05 1709.57,-65.05 1664.67,-65.05"/>
<text text-anchor="middle" x="1687.12" y="-72.05" font-family="Helvetica,sans-Serif" font-size="10.00">cstdint</text>
</a>
</g>
</g>
<!-- Node14&#45;&gt;Node15 -->
<g id="edge19" class="edge">
<title>Node14&#45;&gt;Node15</title>
<path fill="none" stroke="midnightblue" d="M1693.46,-206.09C1722.32,-199.82 1756.08,-186.96 1774.12,-160.55 1782.4,-148.44 1781.39,-140.29 1774.12,-127.55 1770.65,-121.47 1737.69,-102.95 1713.36,-89.87"/>
<polygon fill="midnightblue" stroke="midnightblue" points="1715.01,-86.78 1704.54,-85.16 1711.71,-92.96 1715.01,-86.78"/>
</g>
<!-- Node16 -->
<g id="node17" class="node">
<title>Node16</title>
<g id="a_node17"><a xlink:title=" ">
<polygon fill="white" stroke="#bfbfbf" points="1727.07,-65.05 1727.07,-85.05 1779.17,-85.05 1779.17,-65.05 1727.07,-65.05"/>
<text text-anchor="middle" x="1753.12" y="-72.05" font-family="Helvetica,sans-Serif" font-size="10.00">memory</text>
</a>
</g>
</g>
<!-- Node14&#45;&gt;Node16 -->
<g id="edge20" class="edge">
<title>Node14&#45;&gt;Node16</title>
<path fill="none" stroke="midnightblue" d="M1693.6,-208.82C1727.06,-203.73 1768.37,-191.15 1790.12,-160.55 1805.41,-139.05 1785.69,-110.22 1769.7,-92.4"/>
<polygon fill="midnightblue" stroke="midnightblue" points="1772.16,-89.92 1762.75,-85.06 1767.08,-94.73 1772.16,-89.92"/>
</g>
<!-- Node17 -->
<g id="node18" class="node">
<title>Node17</title>
<g id="a_node18"><a xlink:title=" ">
<polygon fill="white" stroke="#bfbfbf" points="1797.62,-65.05 1797.62,-85.05 1848.63,-85.05 1848.63,-65.05 1797.62,-65.05"/>
<text text-anchor="middle" x="1823.12" y="-72.05" font-family="Helvetica,sans-Serif" font-size="10.00">optional</text>
</a>
</g>
</g>
<!-- Node14&#45;&gt;Node17 -->
<g id="edge21" class="edge">
<title>Node14&#45;&gt;Node17</title>
<path fill="none" stroke="midnightblue" d="M1693.48,-209.3C1730.09,-204.55 1777.68,-192.17 1806.12,-160.55 1822.11,-142.78 1824.76,-114.28 1824.5,-95.37"/>
<polygon fill="midnightblue" stroke="midnightblue" points="1827.99,-95.09 1824.07,-85.25 1821,-95.39 1827.99,-95.09"/>
</g>
<!-- Node18 -->
<g id="node19" class="node">
<title>Node18</title>
<g id="a_node19"><a xlink:title=" ">
<polygon fill="white" stroke="#bfbfbf" points="1866.9,-65.05 1866.9,-85.05 1907.35,-85.05 1907.35,-65.05 1866.9,-65.05"/>
<text text-anchor="middle" x="1887.12" y="-72.05" font-family="Helvetica,sans-Serif" font-size="10.00">string</text>
</a>
</g>
</g>
<!-- Node14&#45;&gt;Node18 -->
<g id="edge22" class="edge">
<title>Node14&#45;&gt;Node18</title>
<path fill="none" stroke="midnightblue" d="M1693.59,-207.14C1733.1,-201.26 1787.43,-188.44 1827.12,-160.55 1851.21,-143.63 1869.01,-113.83 1878.73,-94.52"/>
<polygon fill="midnightblue" stroke="midnightblue" points="1882,-95.79 1883.17,-85.26 1875.69,-92.76 1882,-95.79"/>
</g>
<!-- Node19 -->
<g id="node20" class="node">
<title>Node19</title>
<g id="a_node20"><a xlink:title=" ">
<polygon fill="white" stroke="#bfbfbf" points="2582.51,-65.05 2582.51,-85.05 2625.74,-85.05 2625.74,-65.05 2582.51,-65.05"/>
<text text-anchor="middle" x="2604.12" y="-72.05" font-family="Helvetica,sans-Serif" font-size="10.00">vector</text>
</a>
</g>
</g>
<!-- Node14&#45;&gt;Node19 -->
<g id="edge23" class="edge">
<title>Node14&#45;&gt;Node19</title>
<path fill="none" stroke="midnightblue" d="M1693.6,-205.57C1770.53,-195.87 1920.06,-176.96 2047.12,-160.55 2280.96,-130.35 2347.67,-160.56 2573.12,-91.55 2575.06,-90.96 2577.03,-90.25 2578.99,-89.47"/>
<polygon fill="midnightblue" stroke="midnightblue" points="2580.81,-92.49 2588.45,-85.15 2577.9,-86.12 2580.81,-92.49"/>
</g>
<!-- Node20 -->
<g id="node21" class="node">
<title>Node20</title>
<g id="a_node21"><a xlink:title=" ">
<polygon fill="white" stroke="#bfbfbf" points="1541.95,-65.05 1541.95,-85.05 1646.3,-85.05 1646.3,-65.05 1541.95,-65.05"/>
<text text-anchor="middle" x="1594.12" y="-72.05" font-family="Helvetica,sans-Serif" font-size="10.00">haldls/vx/common.h</text>
</a>
</g>
</g>
<!-- Node14&#45;&gt;Node20 -->
<g id="edge24" class="edge">
<title>Node14&#45;&gt;Node20</title>
<path fill="none" stroke="midnightblue" d="M1691.26,-196.98C1708.56,-189.05 1726.16,-177.36 1736.12,-160.55 1743.6,-147.93 1744.54,-139.56 1736.12,-127.55 1730,-118.82 1674.3,-100.38 1634.51,-88.11"/>
<polygon fill="midnightblue" stroke="midnightblue" points="1635.36,-84.71 1624.78,-85.13 1633.32,-91.4 1635.36,-84.71"/>
</g>
<!-- Node21 -->
<g id="node22" class="node">
<title>Node21</title>
<g id="a_node22"><a xlink:title=" ">
<polygon fill="white" stroke="#bfbfbf" points="1064.56,-134.05 1064.56,-154.05 1171.69,-154.05 1171.69,-134.05 1064.56,-134.05"/>
<text text-anchor="middle" x="1118.12" y="-141.05" font-family="Helvetica,sans-Serif" font-size="10.00">haldls/vx/container.h</text>
</a>
</g>
</g>
<!-- Node14&#45;&gt;Node21 -->
<g id="edge25" class="edge">
<title>Node14&#45;&gt;Node21</title>
<path fill="none" stroke="midnightblue" d="M1590.65,-208.5C1505.13,-202.1 1328.59,-186.82 1181.12,-160.55 1174.72,-159.41 1168,-158 1161.43,-156.49"/>
<polygon fill="midnightblue" stroke="midnightblue" points="1161.84,-152.99 1151.3,-154.07 1160.21,-159.8 1161.84,-152.99"/>
</g>
<!-- Node22 -->
<g id="node23" class="node">
<title>Node22</title>
<g id="a_node23"><a xlink:title=" ">
<polygon fill="white" stroke="#bfbfbf" points="1189.84,-134.05 1189.84,-154.05 1286.41,-154.05 1286.41,-134.05 1189.84,-134.05"/>
<text text-anchor="middle" x="1238.12" y="-141.05" font-family="Helvetica,sans-Serif" font-size="10.00">lola/vx/container.h</text>
</a>
</g>
</g>
<!-- Node14&#45;&gt;Node22 -->
<g id="edge27" class="edge">
<title>Node14&#45;&gt;Node22</title>
<path fill="none" stroke="midnightblue" d="M1590.64,-206.34C1522.58,-198.35 1399.14,-182.33 1295.12,-160.55 1289.73,-159.42 1284.08,-158.08 1278.54,-156.67"/>
<polygon fill="midnightblue" stroke="midnightblue" points="1279.29,-153.25 1268.73,-154.09 1277.5,-160.02 1279.29,-153.25"/>
</g>
<!-- Node23 -->
<g id="node24" class="node">
<title>Node23</title>
<g id="a_node24"><a xlink:href="executor__backend_8h.html" target="_top" xlink:title=" ">
<polygon fill="white" stroke="black" points="1428.11,-59.05 1428.11,-91.05 1524.13,-91.05 1524.13,-59.05 1428.11,-59.05"/>
<text text-anchor="start" x="1436.11" y="-78.05" font-family="Helvetica,sans-Serif" font-size="10.00">stadls/vx/executor</text>
<text text-anchor="middle" x="1476.12" y="-66.05" font-family="Helvetica,sans-Serif" font-size="10.00">_backend.h</text>
</a>
</g>
</g>
<!-- Node14&#45;&gt;Node23 -->
<g id="edge28" class="edge">
<title>Node14&#45;&gt;Node23</title>
<path fill="none" stroke="midnightblue" d="M1666.01,-197.03C1690.39,-179.83 1722.15,-151.03 1703.12,-127.55 1656.49,-70.01 1612,-106.41 1534.41,-91.55"/>
<polygon fill="midnightblue" stroke="midnightblue" points="1534.79,-88.05 1524.27,-89.35 1533.31,-94.89 1534.79,-88.05"/>
</g>
<!-- Node14&#45;&gt;Node24 -->
<g id="edge31" class="edge">
<title>Node14&#45;&gt;Node24</title>
<path fill="none" stroke="midnightblue" d="M1693.62,-203.7C1750.66,-194.22 1845.26,-177.81 1926.12,-160.55 1927.57,-160.24 1929.03,-159.93 1930.51,-159.6"/>
<polygon fill="midnightblue" stroke="midnightblue" points="1931.37,-162.99 1940.35,-157.37 1929.83,-156.17 1931.37,-162.99"/>
</g>
<!-- Node31 -->
<g id="node32" class="node">
<title>Node31</title>
<g id="a_node32"><a xlink:title=" ">
<polygon fill="white" stroke="#bfbfbf" points="1303.95,-128.05 1303.95,-160.05 1438.3,-160.05 1438.3,-128.05 1303.95,-128.05"/>
<text text-anchor="start" x="1311.95" y="-147.05" font-family="Helvetica,sans-Serif" font-size="10.00">fisch/vx/playback_program</text>
<text text-anchor="middle" x="1371.12" y="-135.05" font-family="Helvetica,sans-Serif" font-size="10.00">_builder.h</text>
</a>
</g>
</g>
<!-- Node14&#45;&gt;Node31 -->
<g id="edge48" class="edge">
<title>Node14&#45;&gt;Node31</title>
<path fill="none" stroke="midnightblue" d="M1590.51,-199.29C1548.36,-188.87 1488.35,-174.04 1441.75,-162.51"/>
<polygon fill="midnightblue" stroke="midnightblue" points="1442.56,-159.11 1432.02,-160.11 1440.88,-165.91 1442.56,-159.11"/>
</g>
<!-- Node32 -->
<g id="node33" class="node">
<title>Node32</title>
<g id="a_node33"><a xlink:title=" ">
<polygon fill="white" stroke="#bfbfbf" points="1456.39,-134.05 1456.39,-154.05 1571.86,-154.05 1571.86,-134.05 1456.39,-134.05"/>
<text text-anchor="middle" x="1514.12" y="-141.05" font-family="Helvetica,sans-Serif" font-size="10.00">haldls/vx/container.def</text>
</a>
</g>
</g>
<!-- Node14&#45;&gt;Node32 -->
<g id="edge49" class="edge">
<title>Node14&#45;&gt;Node32</title>
<path fill="none" stroke="midnightblue" d="M1613.4,-197.02C1591.54,-185.57 1561.69,-169.95 1540.45,-158.83"/>
<polygon fill="midnightblue" stroke="midnightblue" points="1541.83,-155.61 1531.35,-154.07 1538.59,-161.81 1541.83,-155.61"/>
</g>
<!-- Node33 -->
<g id="node34" class="node">
<title>Node33</title>
<g id="a_node34"><a xlink:title=" ">
<polygon fill="white" stroke="#bfbfbf" points="1589.67,-134.05 1589.67,-154.05 1694.58,-154.05 1694.58,-134.05 1589.67,-134.05"/>
<text text-anchor="middle" x="1642.12" y="-141.05" font-family="Helvetica,sans-Serif" font-size="10.00">lola/vx/container.def</text>
</a>
</g>
</g>
<!-- Node14&#45;&gt;Node33 -->
<g id="edge50" class="edge">
<title>Node14&#45;&gt;Node33</title>
<path fill="none" stroke="midnightblue" d="M1642.12,-196.85C1642.12,-187.21 1642.12,-174.65 1642.12,-164.32"/>
<polygon fill="midnightblue" stroke="midnightblue" points="1645.62,-164.22 1642.12,-154.22 1638.62,-164.22 1645.62,-164.22"/>
</g>
<!-- Node23&#45;&gt;Node11 -->
<g id="edge29" class="edge">
<title>Node23&#45;&gt;Node11</title>
<path fill="none" stroke="midnightblue" d="M1524.32,-60.92C1527.3,-60.11 1530.25,-59.32 1533.12,-58.55 1576.68,-46.9 1626.46,-33.83 1661.41,-24.7"/>
<polygon fill="midnightblue" stroke="midnightblue" points="1662.52,-28.03 1671.31,-22.12 1660.75,-21.26 1662.52,-28.03"/>
</g>
<!-- Node24&#45;&gt;Node10 -->
<g id="edge40" class="edge">
<title>Node24&#45;&gt;Node10</title>
<path fill="none" stroke="midnightblue" d="M1940.37,-139.87C1768.25,-128.61 1189.97,-90.82 1014.82,-79.37"/>
<polygon fill="midnightblue" stroke="midnightblue" points="1015.05,-75.87 1004.84,-78.71 1014.59,-82.86 1015.05,-75.87"/>
</g>
<!-- Node24&#45;&gt;Node11 -->
<g id="edge42" class="edge">
<title>Node24&#45;&gt;Node11</title>
<path fill="none" stroke="midnightblue" d="M1980.38,-127.9C1968.43,-108.62 1945.13,-75.77 1916.12,-58.55 1872.47,-32.63 1815.88,-21.41 1772.45,-16.59"/>
<polygon fill="midnightblue" stroke="midnightblue" points="1772.58,-13.08 1762.27,-15.55 1771.86,-20.05 1772.58,-13.08"/>
</g>
<!-- Node24&#45;&gt;Node15 -->
<g id="edge32" class="edge">
<title>Node24&#45;&gt;Node15</title>
<path fill="none" stroke="midnightblue" d="M1940.12,-137.86C1885.03,-131.09 1793.44,-116.99 1718.12,-91.55 1716.24,-90.92 1714.33,-90.19 1712.43,-89.4"/>
<polygon fill="midnightblue" stroke="midnightblue" points="1713.72,-86.14 1703.17,-85.13 1710.78,-92.5 1713.72,-86.14"/>
</g>
<!-- Node24&#45;&gt;Node16 -->
<g id="edge33" class="edge">
<title>Node24&#45;&gt;Node16</title>
<path fill="none" stroke="midnightblue" d="M1940.54,-132.98C1899.41,-123.9 1839.17,-109.26 1788.12,-91.55 1785.98,-90.81 1783.79,-89.99 1781.59,-89.12"/>
<polygon fill="midnightblue" stroke="midnightblue" points="1782.72,-85.8 1772.15,-85.16 1780.02,-92.26 1782.72,-85.8"/>
</g>
<!-- Node24&#45;&gt;Node17 -->
<g id="edge34" class="edge">
<title>Node24&#45;&gt;Node17</title>
<path fill="none" stroke="midnightblue" d="M1949.68,-128.05C1923.59,-118 1888.68,-104.32 1858.12,-91.55 1856.33,-90.8 1854.49,-90.02 1852.63,-89.23"/>
<polygon fill="midnightblue" stroke="midnightblue" points="1853.98,-86 1843.42,-85.21 1851.19,-92.42 1853.98,-86"/>
</g>
<!-- Node24&#45;&gt;Node18 -->
<g id="edge35" class="edge">
<title>Node24&#45;&gt;Node18</title>
<path fill="none" stroke="midnightblue" d="M1966.23,-128.02C1949.28,-116.88 1926.31,-101.79 1909.49,-90.74"/>
<polygon fill="midnightblue" stroke="midnightblue" points="1911.13,-87.64 1900.85,-85.07 1907.29,-93.49 1911.13,-87.64"/>
</g>
<!-- Node24&#45;&gt;Node19 -->
<g id="edge36" class="edge">
<title>Node24&#45;&gt;Node19</title>
<path fill="none" stroke="midnightblue" d="M2037.91,-141.1C2159.4,-135.86 2472.86,-119.93 2573.12,-91.55 2575.29,-90.94 2577.48,-90.18 2579.65,-89.32"/>
<polygon fill="midnightblue" stroke="midnightblue" points="2581.17,-92.47 2588.81,-85.13 2578.26,-86.1 2581.17,-92.47"/>
</g>
<!-- Node24&#45;&gt;Node20 -->
<g id="edge38" class="edge">
<title>Node24&#45;&gt;Node20</title>
<path fill="none" stroke="midnightblue" d="M1940.35,-136.93C1875.24,-128.44 1756.47,-111.81 1656.12,-91.55 1650.2,-90.36 1643.99,-88.97 1637.89,-87.52"/>
<polygon fill="midnightblue" stroke="midnightblue" points="1638.33,-84.03 1627.78,-85.06 1636.67,-90.83 1638.33,-84.03"/>
</g>
<!-- Node24&#45;&gt;Node23 -->
<g id="edge41" class="edge">
<title>Node24&#45;&gt;Node23</title>
<path fill="none" stroke="midnightblue" d="M1940.5,-140.01C1858.53,-134.36 1687.59,-120.28 1534.28,-91.59"/>
<polygon fill="midnightblue" stroke="midnightblue" points="1534.68,-88.11 1524.2,-89.68 1533.38,-94.99 1534.68,-88.11"/>
</g>
<!-- Node25 -->
<g id="node26" class="node">
<title>Node25</title>
<g id="a_node26"><a xlink:title=" ">
<polygon fill="white" stroke="#bfbfbf" points="2082.78,-65.05 2082.78,-85.05 2225.47,-85.05 2225.47,-65.05 2082.78,-65.05"/>
<text text-anchor="middle" x="2154.12" y="-72.05" font-family="Helvetica,sans-Serif" font-size="10.00">fisch/vx/playback_program.h</text>
</a>
</g>
</g>
<!-- Node24&#45;&gt;Node25 -->
<g id="edge37" class="edge">
<title>Node24&#45;&gt;Node25</title>
<path fill="none" stroke="midnightblue" d="M2026.15,-128.02C2055.09,-116.26 2094.89,-100.1 2122.38,-88.94"/>
<polygon fill="midnightblue" stroke="midnightblue" points="2123.97,-92.08 2131.91,-85.07 2121.33,-85.59 2123.97,-92.08"/>
</g>
<!-- Node26 -->
<g id="node27" class="node">
<title>Node26</title>
<g id="a_node27"><a xlink:title=" ">
<polygon fill="white" stroke="#bfbfbf" points="2243.89,-65.05 2243.89,-85.05 2334.36,-85.05 2334.36,-65.05 2243.89,-65.05"/>
<text text-anchor="middle" x="2289.12" y="-72.05" font-family="Helvetica,sans-Serif" font-size="10.00">haldls/vx/event.h</text>
</a>
</g>
</g>
<!-- Node24&#45;&gt;Node26 -->
<g id="edge39" class="edge">
<title>Node24&#45;&gt;Node26</title>
<path fill="none" stroke="midnightblue" d="M2038.15,-133.76C2087.77,-124.12 2166.59,-108.15 2234.12,-91.55 2238.81,-90.4 2243.71,-89.13 2248.56,-87.82"/>
<polygon fill="midnightblue" stroke="midnightblue" points="2249.67,-91.14 2258.39,-85.11 2247.81,-84.39 2249.67,-91.14"/>
</g>
<!-- Node27 -->
<g id="node28" class="node">
<title>Node27</title>
<g id="a_node28"><a xlink:href="run__time__info_8h.html" target="_top" xlink:title=" ">
<polygon fill="white" stroke="black" points="2467.84,-59.05 2467.84,-91.05 2564.41,-91.05 2564.41,-59.05 2467.84,-59.05"/>
<text text-anchor="start" x="2475.84" y="-78.05" font-family="Helvetica,sans-Serif" font-size="10.00">stadls/vx/run_time</text>
<text text-anchor="middle" x="2516.12" y="-66.05" font-family="Helvetica,sans-Serif" font-size="10.00">_info.h</text>
</a>
</g>
</g>
<!-- Node24&#45;&gt;Node27 -->
<g id="edge43" class="edge">
<title>Node24&#45;&gt;Node27</title>
<path fill="none" stroke="midnightblue" d="M2037.87,-140.23C2121.88,-134.82 2299.42,-120.99 2457.81,-91.63"/>
<polygon fill="midnightblue" stroke="midnightblue" points="2458.55,-95.05 2467.73,-89.76 2457.26,-88.17 2458.55,-95.05"/>
</g>
<!-- Node29 -->
<g id="node30" class="node">
<title>Node29</title>
<g id="a_node30"><a xlink:title=" ">
<polygon fill="white" stroke="#bfbfbf" points="2352.27,-65.05 2352.27,-85.05 2449.97,-85.05 2449.97,-65.05 2352.27,-65.05"/>
<text text-anchor="middle" x="2401.12" y="-72.05" font-family="Helvetica,sans-Serif" font-size="10.00">pybind11/numpy.h</text>
</a>
</g>
</g>
<!-- Node24&#45;&gt;Node29 -->
<g id="edge46" class="edge">
<title>Node24&#45;&gt;Node29</title>
<path fill="none" stroke="midnightblue" d="M2037.82,-137.79C2106.36,-129.97 2234.99,-113.79 2343.12,-91.55 2348.61,-90.42 2354.35,-89.09 2359.99,-87.68"/>
<polygon fill="midnightblue" stroke="midnightblue" points="2361.17,-90.99 2369.98,-85.09 2359.42,-84.21 2361.17,-90.99"/>
</g>
<!-- Node30 -->
<g id="node31" class="node">
<title>Node30</title>
<g id="a_node31"><a xlink:title=" ">
<polygon fill="white" stroke="#bfbfbf" points="1963.05,-65.05 1963.05,-85.05 2065.19,-85.05 2065.19,-65.05 1963.05,-65.05"/>
<text text-anchor="middle" x="2014.12" y="-72.05" font-family="Helvetica,sans-Serif" font-size="10.00">pybind11/stl_bind.h</text>
</a>
</g>
</g>
<!-- Node24&#45;&gt;Node30 -->
<g id="edge47" class="edge">
<title>Node24&#45;&gt;Node30</title>
<path fill="none" stroke="midnightblue" d="M1994.8,-127.85C1998.47,-118 2003.28,-105.12 2007.18,-94.66"/>
<polygon fill="midnightblue" stroke="midnightblue" points="2010.49,-95.81 2010.7,-85.22 2003.93,-93.36 2010.49,-95.81"/>
</g>
<!-- Node27&#45;&gt;Node11 -->
<g id="edge45" class="edge">
<title>Node27&#45;&gt;Node11</title>
<path fill="none" stroke="midnightblue" d="M2467.76,-60.18C2464.85,-59.57 2461.96,-59.02 2459.12,-58.55 2208.1,-17.29 1904.5,-12.45 1772.62,-12.51"/>
<polygon fill="midnightblue" stroke="midnightblue" points="1772.29,-9.01 1762.29,-12.53 1772.3,-16.01 1772.29,-9.01"/>
</g>
<!-- Node28 -->
<g id="node29" class="node">
<title>Node28</title>
<g id="a_node29"><a xlink:title=" ">
<polygon fill="white" stroke="#bfbfbf" points="2455.61,-2.05 2455.61,-22.05 2576.63,-22.05 2576.63,-2.05 2455.61,-2.05"/>
<text text-anchor="middle" x="2516.12" y="-9.05" font-family="Helvetica,sans-Serif" font-size="10.00">fisch/vx/run_time_info.h</text>
</a>
</g>
</g>
<!-- Node27&#45;&gt;Node28 -->
<g id="edge44" class="edge">
<title>Node27&#45;&gt;Node28</title>
<path fill="none" stroke="midnightblue" d="M2516.12,-58.97C2516.12,-50.93 2516.12,-40.94 2516.12,-32.33"/>
<polygon fill="midnightblue" stroke="midnightblue" points="2519.62,-32.1 2516.12,-22.1 2512.62,-32.1 2519.62,-32.1"/>
</g>
</g>
</svg>
