<?xml version="1.0" encoding="UTF-8" standalone="no"?>
<!DOCTYPE svg PUBLIC "-//W3C//DTD SVG 1.1//EN"
 "http://www.w3.org/Graphics/SVG/1.1/DTD/svg11.dtd">
<!-- Generated by graphviz version 2.43.0 (0)
 -->
<!-- Title: /jenkins/jenlib_workspaces_f9/bld_nightly&#45;haldls.YmxkX25pZ2h0bHktaGFsZGxzIzQ5Nw.x/haldls/include/stadls/v2/io.h Pages: 1 -->
<!--zoomable 179 -->
<svg id="main" version="1.1" xmlns="http://www.w3.org/2000/svg" xmlns:xlink="http://www.w3.org/1999/xlink" xml:space="preserve" onload="init(evt)">
<style type="text/css"><![CDATA[
.edge:hover path { stroke: red; }
.edge:hover polygon { stroke: red; fill: red; }
]]></style>
<script type="text/javascript"><![CDATA[
var edges = document.getElementsByTagName('g');
if (edges && edges.length) {
  for (var i=0;i<edges.length;i++) {
    if (edges[i].id.substr(0,4)=='edge') {
      edges[i].setAttribute('class','edge');
    }
  }
}
]]></script>
        <defs>
                <circle id="rim" cx="0" cy="0" r="7"/>
                <circle id="rim2" cx="0" cy="0" r="3.5"/>
                <g id="zoomPlus">
                        <use xlink:href="#rim" fill="#404040">
                                <set attributeName="fill" to="#808080" begin="zoomplus.mouseover" end="zoomplus.mouseout"/>
                        </use>
                        <path d="M-4,0h8M0,-4v8" fill="none" stroke="white" stroke-width="1.5" pointer-events="none"/>
                </g>
                <g id="zoomMin">
                        <use xlink:href="#rim" fill="#404040">
                                <set attributeName="fill" to="#808080" begin="zoomminus.mouseover" end="zoomminus.mouseout"/>
                        </use>
                        <path d="M-4,0h8" fill="none" stroke="white" stroke-width="1.5" pointer-events="none"/>
                </g>
                <g id="dirArrow">
                        <path fill="none" stroke="white" stroke-width="1.5" d="M0,-3.0v7 M-2.5,-0.5L0,-3.0L2.5,-0.5"/>
                </g>
               <g id="resetDef">
                       <use xlink:href="#rim2" fill="#404040">
                               <set attributeName="fill" to="#808080" begin="reset.mouseover" end="reset.mouseout"/>
                       </use>
               </g>
        </defs>

<script type="text/javascript">
var viewWidth = 1209;
var viewHeight = 179;
var sectionId = 'dynsection-0';
</script>
<script xlink:href="svgpan.js"/>
<svg id="graph" class="graph">
<g id="viewport">
<title>/jenkins/jenlib_workspaces_f9/bld_nightly&#45;haldls.YmxkX25pZ2h0bHktaGFsZGxzIzQ5Nw.x/haldls/include/stadls/v2/io.h</title>
<polygon fill="white" stroke="transparent" points="-4,4 -4,-175.01 1205.2,-175.01 1205.2,4 -4,4"/>
<!-- Node0 -->
<g id="node1" class="node">
<title>Node0</title>
<g id="a_node1"><a xlink:title=" ">
<polygon fill="#bfbfbf" stroke="black" points="386.4,-114.51 386.4,-170.51 566.3,-170.51 566.3,-114.51 386.4,-114.51"/>
<text text-anchor="start" x="394.4" y="-157.51" font-family="Helvetica,sans-Serif" font-size="10.00">/jenkins/jenlib_workspaces</text>
<text text-anchor="start" x="394.4" y="-145.51" font-family="Helvetica,sans-Serif" font-size="10.00">_f9/bld_nightly&#45;haldls.YmxkX25p</text>
<text text-anchor="start" x="394.4" y="-133.51" font-family="Helvetica,sans-Serif" font-size="10.00">Z2h0bHktaGFsZGxzIzQ5Nw.x/haldls</text>
<text text-anchor="middle" x="476.35" y="-121.51" font-family="Helvetica,sans-Serif" font-size="10.00">/include/stadls/v2/io.h</text>
</a>
</g>
</g>
<!-- Node1 -->
<g id="node2" class="node">
<title>Node1</title>
<g id="a_node2"><a xlink:href="v2_2genpybind_8h.html" target="_top" xlink:title=" ">
<polygon fill="white" stroke="black" points="0,-0.51 0,-20.51 112.7,-20.51 112.7,-0.51 0,-0.51"/>
<text text-anchor="middle" x="56.35" y="-7.51" font-family="Helvetica,sans-Serif" font-size="10.00">stadls/v2/genpybind.h</text>
</a>
</g>
</g>
<!-- Node0&#45;&gt;Node1 -->
<g id="edge1" class="edge">
<title>Node0&#45;&gt;Node1</title>
<path fill="none" stroke="midnightblue" d="M389.07,-114.49C298.77,-86.54 161.83,-44.16 95.33,-23.57"/>
<polygon fill="midnightblue" stroke="midnightblue" points="96.25,-20.2 85.66,-20.58 94.18,-26.88 96.25,-20.2"/>
</g>
<!-- Node2 -->
<g id="node3" class="node">
<title>Node2</title>
<g id="a_node3"><a xlink:href="experiment_8h.html" target="_top" xlink:title=" ">
<polygon fill="white" stroke="black" points="439.46,-57.51 439.46,-77.51 513.25,-77.51 513.25,-57.51 439.46,-57.51"/>
<text text-anchor="middle" x="476.35" y="-64.51" font-family="Helvetica,sans-Serif" font-size="10.00">experiment.h</text>
</a>
</g>
</g>
<!-- Node0&#45;&gt;Node2 -->
<g id="edge3" class="edge">
<title>Node0&#45;&gt;Node2</title>
<path fill="none" stroke="midnightblue" d="M476.35,-114.33C476.35,-105.51 476.35,-95.92 476.35,-87.8"/>
<polygon fill="midnightblue" stroke="midnightblue" points="479.85,-87.53 476.35,-77.53 472.85,-87.53 479.85,-87.53"/>
</g>
<!-- Node11 -->
<g id="node12" class="node">
<title>Node11</title>
<g id="a_node12"><a xlink:href="local__board__control_8h.html" target="_top" xlink:title=" ">
<polygon fill="white" stroke="black" points="543.56,-57.51 543.56,-77.51 655.14,-77.51 655.14,-57.51 543.56,-57.51"/>
<text text-anchor="middle" x="599.35" y="-64.51" font-family="Helvetica,sans-Serif" font-size="10.00">local_board_control.h</text>
</a>
</g>
</g>
<!-- Node0&#45;&gt;Node11 -->
<g id="edge13" class="edge">
<title>Node0&#45;&gt;Node11</title>
<path fill="none" stroke="midnightblue" d="M522.15,-114.33C540.25,-103.58 560.3,-91.69 575.42,-82.71"/>
<polygon fill="midnightblue" stroke="midnightblue" points="577.33,-85.65 584.15,-77.53 573.76,-79.63 577.33,-85.65"/>
</g>
<!-- Node1&#45;&gt;Node1 -->
<g id="edge2" class="edge">
<title>Node1&#45;&gt;Node1</title>
<path fill="none" stroke="midnightblue" d="M92.69,-20.54C112.53,-22.33 130.7,-18.99 130.7,-10.51 130.7,-3.49 118.24,0.01 102.69,-0.01"/>
<polygon fill="midnightblue" stroke="midnightblue" points="102.52,3.49 92.69,-0.48 102.85,-3.51 102.52,3.49"/>
</g>
<!-- Node2&#45;&gt;Node1 -->
<g id="edge12" class="edge">
<title>Node2&#45;&gt;Node1</title>
<path fill="none" stroke="midnightblue" d="M439.45,-61.68C368.52,-52.39 212.27,-31.93 122.78,-20.21"/>
<polygon fill="midnightblue" stroke="midnightblue" points="123.11,-16.72 112.74,-18.89 122.2,-23.66 123.11,-16.72"/>
</g>
<!-- Node3 -->
<g id="node4" class="node">
<title>Node3</title>
<g id="a_node4"><a xlink:title=" ">
<polygon fill="white" stroke="#bfbfbf" points="770.3,-0.51 770.3,-20.51 822.4,-20.51 822.4,-0.51 770.3,-0.51"/>
<text text-anchor="middle" x="796.35" y="-7.51" font-family="Helvetica,sans-Serif" font-size="10.00">memory</text>
</a>
</g>
</g>
<!-- Node2&#45;&gt;Node3 -->
<g id="edge4" class="edge">
<title>Node2&#45;&gt;Node3</title>
<path fill="none" stroke="midnightblue" d="M513.48,-60.4C520.41,-59.27 527.6,-58.1 534.35,-57.01 632.05,-41.26 659.76,-42.33 760.11,-21.1"/>
<polygon fill="midnightblue" stroke="midnightblue" points="761.01,-24.49 770.05,-18.97 759.54,-17.64 761.01,-24.49"/>
</g>
<!-- Node4 -->
<g id="node5" class="node">
<title>Node4</title>
<g id="a_node5"><a xlink:title=" ">
<polygon fill="white" stroke="#bfbfbf" points="840.13,-0.51 840.13,-20.51 880.57,-20.51 880.57,-0.51 840.13,-0.51"/>
<text text-anchor="middle" x="860.35" y="-7.51" font-family="Helvetica,sans-Serif" font-size="10.00">string</text>
</a>
</g>
</g>
<!-- Node2&#45;&gt;Node4 -->
<g id="edge5" class="edge">
<title>Node2&#45;&gt;Node4</title>
<path fill="none" stroke="midnightblue" d="M513.45,-60.2C520.39,-59.08 527.58,-57.97 534.35,-57.01 662.78,-38.72 699.76,-49.3 829.94,-20.96"/>
<polygon fill="midnightblue" stroke="midnightblue" points="830.89,-24.34 839.89,-18.76 829.37,-17.5 830.89,-24.34"/>
</g>
<!-- Node5 -->
<g id="node6" class="node">
<title>Node5</title>
<g id="a_node6"><a xlink:title=" ">
<polygon fill="white" stroke="#bfbfbf" points="148.74,-0.51 148.74,-20.51 191.96,-20.51 191.96,-0.51 148.74,-0.51"/>
<text text-anchor="middle" x="170.35" y="-7.51" font-family="Helvetica,sans-Serif" font-size="10.00">vector</text>
</a>
</g>
</g>
<!-- Node2&#45;&gt;Node5 -->
<g id="edge6" class="edge">
<title>Node2&#45;&gt;Node5</title>
<path fill="none" stroke="midnightblue" d="M439.12,-61.95C387.83,-55.33 292.45,-41.76 202.12,-20.93"/>
<polygon fill="midnightblue" stroke="midnightblue" points="202.8,-17.49 192.27,-18.62 201.21,-24.31 202.8,-17.49"/>
</g>
<!-- Node6 -->
<g id="node7" class="node">
<title>Node6</title>
<g id="a_node7"><a xlink:title=" ">
<polygon fill="white" stroke="#bfbfbf" points="210.28,-0.51 210.28,-20.51 302.42,-20.51 302.42,-0.51 210.28,-0.51"/>
<text text-anchor="middle" x="256.35" y="-7.51" font-family="Helvetica,sans-Serif" font-size="10.00">haldls/v2/board.h</text>
</a>
</g>
</g>
<!-- Node2&#45;&gt;Node6 -->
<g id="edge7" class="edge">
<title>Node2&#45;&gt;Node6</title>
<path fill="none" stroke="midnightblue" d="M440.02,-57.43C402.25,-47.99 343.04,-33.18 302.1,-22.95"/>
<polygon fill="midnightblue" stroke="midnightblue" points="302.92,-19.54 292.37,-20.51 301.22,-26.33 302.92,-19.54"/>
</g>
<!-- Node7 -->
<g id="node8" class="node">
<title>Node7</title>
<g id="a_node8"><a xlink:title=" ">
<polygon fill="white" stroke="#bfbfbf" points="320.9,-0.51 320.9,-20.51 405.81,-20.51 405.81,-0.51 320.9,-0.51"/>
<text text-anchor="middle" x="363.35" y="-7.51" font-family="Helvetica,sans-Serif" font-size="10.00">haldls/v2/chip.h</text>
</a>
</g>
</g>
<!-- Node2&#45;&gt;Node7 -->
<g id="edge8" class="edge">
<title>Node2&#45;&gt;Node7</title>
<path fill="none" stroke="midnightblue" d="M457.69,-57.43C439.62,-48.63 411.98,-35.18 391.28,-25.11"/>
<polygon fill="midnightblue" stroke="midnightblue" points="392.56,-21.83 382.04,-20.61 389.5,-28.13 392.56,-21.83"/>
</g>
<!-- Node8 -->
<g id="node9" class="node">
<title>Node8</title>
<g id="a_node9"><a xlink:title=" ">
<polygon fill="white" stroke="#bfbfbf" points="423.9,-0.51 423.9,-20.51 528.8,-20.51 528.8,-0.51 423.9,-0.51"/>
<text text-anchor="middle" x="476.35" y="-7.51" font-family="Helvetica,sans-Serif" font-size="10.00">haldls/v2/common.h</text>
</a>
</g>
</g>
<!-- Node2&#45;&gt;Node8 -->
<g id="edge9" class="edge">
<title>Node2&#45;&gt;Node8</title>
<path fill="none" stroke="midnightblue" d="M476.35,-57.43C476.35,-50.23 476.35,-39.91 476.35,-30.87"/>
<polygon fill="midnightblue" stroke="midnightblue" points="479.85,-30.79 476.35,-20.79 472.85,-30.79 479.85,-30.79"/>
</g>
<!-- Node9 -->
<g id="node10" class="node">
<title>Node9</title>
<g id="a_node10"><a xlink:title=" ">
<polygon fill="white" stroke="#bfbfbf" points="546.34,-0.51 546.34,-20.51 652.36,-20.51 652.36,-0.51 546.34,-0.51"/>
<text text-anchor="middle" x="599.35" y="-7.51" font-family="Helvetica,sans-Serif" font-size="10.00">haldls/v2/playback.h</text>
</a>
</g>
</g>
<!-- Node2&#45;&gt;Node9 -->
<g id="edge10" class="edge">
<title>Node2&#45;&gt;Node9</title>
<path fill="none" stroke="midnightblue" d="M496.66,-57.43C516.6,-48.51 547.24,-34.81 569.86,-24.7"/>
<polygon fill="midnightblue" stroke="midnightblue" points="571.31,-27.88 579.01,-20.61 568.45,-21.49 571.31,-27.88"/>
</g>
<!-- Node10 -->
<g id="node11" class="node">
<title>Node10</title>
<g id="a_node11"><a xlink:title=" ">
<polygon fill="white" stroke="#bfbfbf" points="670.85,-0.51 670.85,-20.51 751.85,-20.51 751.85,-0.51 670.85,-0.51"/>
<text text-anchor="middle" x="711.35" y="-7.51" font-family="Helvetica,sans-Serif" font-size="10.00">hate/visibility.h</text>
</a>
</g>
</g>
<!-- Node2&#45;&gt;Node10 -->
<g id="edge11" class="edge">
<title>Node2&#45;&gt;Node10</title>
<path fill="none" stroke="midnightblue" d="M513.33,-57.86C553.62,-48.43 618.25,-33.3 662.65,-22.91"/>
<polygon fill="midnightblue" stroke="midnightblue" points="663.7,-26.26 672.64,-20.57 662.1,-19.44 663.7,-26.26"/>
</g>
<!-- Node11&#45;&gt;Node1 -->
<g id="edge24" class="edge">
<title>Node11&#45;&gt;Node1</title>
<path fill="none" stroke="midnightblue" d="M543.44,-59.42C536.34,-58.58 529.18,-57.75 522.35,-57.01 352.38,-38.54 309.4,-38.73 139.35,-21.01 134.03,-20.46 128.52,-19.86 122.99,-19.26"/>
<polygon fill="midnightblue" stroke="midnightblue" points="123.36,-15.78 113.04,-18.15 122.59,-22.73 123.36,-15.78"/>
</g>
<!-- Node11&#45;&gt;Node3 -->
<g id="edge15" class="edge">
<title>Node11&#45;&gt;Node3</title>
<path fill="none" stroke="midnightblue" d="M631.88,-57.43C667.24,-47.56 723.6,-31.82 760.29,-21.58"/>
<polygon fill="midnightblue" stroke="midnightblue" points="761.39,-24.9 770.08,-18.84 759.51,-18.16 761.39,-24.9"/>
</g>
<!-- Node11&#45;&gt;Node4 -->
<g id="edge16" class="edge">
<title>Node11&#45;&gt;Node4</title>
<path fill="none" stroke="midnightblue" d="M655.57,-57.48C700.52,-49.81 765.27,-37.74 829.9,-21.16"/>
<polygon fill="midnightblue" stroke="midnightblue" points="831.05,-24.48 839.85,-18.57 829.29,-17.7 831.05,-24.48"/>
</g>
<!-- Node11&#45;&gt;Node5 -->
<g id="edge17" class="edge">
<title>Node11&#45;&gt;Node5</title>
<path fill="none" stroke="midnightblue" d="M543.43,-59.54C536.33,-58.67 529.17,-57.81 522.35,-57.01 382.98,-40.6 343.67,-49.73 202.16,-20.82"/>
<polygon fill="midnightblue" stroke="midnightblue" points="202.74,-17.37 192.24,-18.77 201.32,-24.22 202.74,-17.37"/>
</g>
<!-- Node11&#45;&gt;Node6 -->
<g id="edge18" class="edge">
<title>Node11&#45;&gt;Node6</title>
<path fill="none" stroke="midnightblue" d="M543.5,-57.84C487.79,-49.15 399.48,-35.26 312.53,-21.02"/>
<polygon fill="midnightblue" stroke="midnightblue" points="312.92,-17.54 302.49,-19.38 311.79,-24.45 312.92,-17.54"/>
</g>
<!-- Node11&#45;&gt;Node7 -->
<g id="edge19" class="edge">
<title>Node11&#45;&gt;Node7</title>
<path fill="none" stroke="midnightblue" d="M560.65,-57.49C520,-48.02 456.01,-33.1 411.98,-22.84"/>
<polygon fill="midnightblue" stroke="midnightblue" points="412.61,-19.4 402.08,-20.54 411.02,-26.21 412.61,-19.4"/>
</g>
<!-- Node11&#45;&gt;Node8 -->
<g id="edge20" class="edge">
<title>Node11&#45;&gt;Node8</title>
<path fill="none" stroke="midnightblue" d="M579.04,-57.43C559.1,-48.51 528.47,-34.81 505.84,-24.7"/>
<polygon fill="midnightblue" stroke="midnightblue" points="507.25,-21.49 496.69,-20.61 504.39,-27.88 507.25,-21.49"/>
</g>
<!-- Node11&#45;&gt;Node9 -->
<g id="edge21" class="edge">
<title>Node11&#45;&gt;Node9</title>
<path fill="none" stroke="midnightblue" d="M599.35,-57.43C599.35,-50.23 599.35,-39.91 599.35,-30.87"/>
<polygon fill="midnightblue" stroke="midnightblue" points="602.85,-30.79 599.35,-20.79 595.85,-30.79 602.85,-30.79"/>
</g>
<!-- Node11&#45;&gt;Node10 -->
<g id="edge22" class="edge">
<title>Node11&#45;&gt;Node10</title>
<path fill="none" stroke="midnightblue" d="M617.85,-57.43C635.76,-48.63 663.15,-35.18 683.67,-25.11"/>
<polygon fill="midnightblue" stroke="midnightblue" points="685.4,-28.15 692.83,-20.61 682.31,-21.87 685.4,-28.15"/>
</g>
<!-- Node12 -->
<g id="node13" class="node">
<title>Node12</title>
<g id="a_node13"><a xlink:title=" ">
<polygon fill="white" stroke="#bfbfbf" points="899.07,-0.51 899.07,-20.51 945.63,-20.51 945.63,-0.51 899.07,-0.51"/>
<text text-anchor="middle" x="922.35" y="-7.51" font-family="Helvetica,sans-Serif" font-size="10.00">chrono</text>
</a>
</g>
</g>
<!-- Node11&#45;&gt;Node12 -->
<g id="edge14" class="edge">
<title>Node11&#45;&gt;Node12</title>
<path fill="none" stroke="midnightblue" d="M655.33,-59.83C711.9,-52.61 801.95,-39.83 889.21,-20.79"/>
<polygon fill="midnightblue" stroke="midnightblue" points="890,-24.2 899.01,-18.62 888.49,-17.36 890,-24.2"/>
</g>
<!-- Node13 -->
<g id="node14" class="node">
<title>Node13</title>
<g id="a_node14"><a xlink:title=" ">
<polygon fill="white" stroke="#bfbfbf" points="963.56,-0.51 963.56,-20.51 1045.14,-20.51 1045.14,-0.51 963.56,-0.51"/>
<text text-anchor="middle" x="1004.35" y="-7.51" font-family="Helvetica,sans-Serif" font-size="10.00">hate/optional.h</text>
</a>
</g>
</g>
<!-- Node11&#45;&gt;Node13 -->
<g id="edge23" class="edge">
<title>Node11&#45;&gt;Node13</title>
<path fill="none" stroke="midnightblue" d="M655.15,-60.41C723.14,-52.75 841.75,-38.62 953.37,-21.08"/>
<polygon fill="midnightblue" stroke="midnightblue" points="954.13,-24.51 963.46,-19.49 953.03,-17.59 954.13,-24.51"/>
</g>
<!-- Node14 -->
<g id="node15" class="node">
<title>Node14</title>
<g id="a_node15"><a xlink:title=" ">
<polygon fill="white" stroke="#bfbfbf" points="1063.5,-0.51 1063.5,-20.51 1201.2,-20.51 1201.2,-0.51 1063.5,-0.51"/>
<text text-anchor="middle" x="1132.35" y="-7.51" font-family="Helvetica,sans-Serif" font-size="10.00">haldls/v2/ocp_container.def</text>
</a>
</g>
</g>
<!-- Node11&#45;&gt;Node14 -->
<g id="edge25" class="edge">
<title>Node11&#45;&gt;Node14</title>
<path fill="none" stroke="midnightblue" d="M655.43,-61.29C739.43,-53.39 903.18,-37.66 1053.14,-21.12"/>
<polygon fill="midnightblue" stroke="midnightblue" points="1053.9,-24.56 1063.46,-19.98 1053.13,-17.6 1053.9,-24.56"/>
</g>
</g>
</svg>
        <g id="navigator" transform="translate(0 0)" fill="#404254">
                <rect fill="#f2f5e9" fill-opacity="0.5" stroke="#606060" stroke-width=".5" x="0" y="0" width="60" height="60"/>
                <use id="zoomplus" xlink:href="#zoomPlus" x="17" y="9" onmousedown="handleZoom(evt,'in')"/>
                <use id="zoomminus" xlink:href="#zoomMin" x="42" y="9" onmousedown="handleZoom(evt,'out')"/>
                <use id="reset" xlink:href="#resetDef" x="30" y="36" onmousedown="handleReset()"/>
                <g id="arrowUp" xlink:href="#dirArrow" transform="translate(30 24)" onmousedown="handlePan(0,-1)">
                  <use xlink:href="#rim" fill="#404040">
                        <set attributeName="fill" to="#808080" begin="arrowUp.mouseover" end="arrowUp.mouseout"/>
                  </use>
                  <path fill="none" stroke="white" stroke-width="1.5" d="M0,-3.0v7 M-2.5,-0.5L0,-3.0L2.5,-0.5"/>
                </g>
                <g id="arrowRight" xlink:href="#dirArrow" transform="rotate(90) translate(36 -43)" onmousedown="handlePan(1,0)">
                  <use xlink:href="#rim" fill="#404040">
                        <set attributeName="fill" to="#808080" begin="arrowRight.mouseover" end="arrowRight.mouseout"/>
                  </use>
                  <path fill="none" stroke="white" stroke-width="1.5" d="M0,-3.0v7 M-2.5,-0.5L0,-3.0L2.5,-0.5"/>
                </g>
                <g id="arrowDown" xlink:href="#dirArrow" transform="rotate(180) translate(-30 -48)" onmousedown="handlePan(0,1)">
                  <use xlink:href="#rim" fill="#404040">
                        <set attributeName="fill" to="#808080" begin="arrowDown.mouseover" end="arrowDown.mouseout"/>
                  </use>
                  <path fill="none" stroke="white" stroke-width="1.5" d="M0,-3.0v7 M-2.5,-0.5L0,-3.0L2.5,-0.5"/>
                </g>
                <g id="arrowLeft" xlink:href="#dirArrow" transform="rotate(270) translate(-36 17)" onmousedown="handlePan(-1,0)">
                  <use xlink:href="#rim" fill="#404040">
                        <set attributeName="fill" to="#808080" begin="arrowLeft.mouseover" end="arrowLeft.mouseout"/>
                  </use>
                  <path fill="none" stroke="white" stroke-width="1.5" d="M0,-3.0v7 M-2.5,-0.5L0,-3.0L2.5,-0.5"/>
                </g>
        </g>
        <svg viewBox="0 0 15 15" width="100%" height="30px" preserveAspectRatio="xMaxYMin meet">
         <g id="arrow_out" transform="scale(0.3 0.3)">
          <a xlink:href="io_8h__incl_org.svg" target="_base">
           <rect id="button" ry="5" rx="5" y="6" x="6" height="38" width="38"
                fill="#f2f5e9" fill-opacity="0.5" stroke="#606060" stroke-width="1.0"/>
           <path id="arrow"
             d="M 11.500037,31.436501 C 11.940474,20.09759 22.043105,11.32322 32.158766,21.979434 L 37.068811,17.246167 C 37.068811,17.246167 37.088388,32 37.088388,32 L 22.160133,31.978069 C 22.160133,31.978069 26.997745,27.140456 26.997745,27.140456 C 18.528582,18.264221 13.291696,25.230495 11.500037,31.436501 z"
             style="fill:#404040;"/>
          </a>
         </g>
        </svg>
</svg>
