<?xml version="1.0" encoding="UTF-8" standalone="no"?>
<!DOCTYPE svg PUBLIC "-//W3C//DTD SVG 1.1//EN"
 "http://www.w3.org/Graphics/SVG/1.1/DTD/svg11.dtd">
<!-- Generated by graphviz version 2.43.0 (0)
 -->
<!-- Title: /jenkins/jenlib_workspaces_f9/bld_nightly&#45;haldls.YmxkX25pZ2h0bHktaGFsZGxzIzcxMQ.x/haldls/include/stadls/vx/playback_program_builder.h Pages: 1 -->
<svg width="1737pt" height="331pt"
 viewBox="0.00 0.00 1736.79 330.55" xmlns="http://www.w3.org/2000/svg" xmlns:xlink="http://www.w3.org/1999/xlink">
<g id="graph0" class="graph" transform="scale(1 1) rotate(0) translate(4 326.55)">
<title>/jenkins/jenlib_workspaces_f9/bld_nightly&#45;haldls.YmxkX25pZ2h0bHktaGFsZGxzIzcxMQ.x/haldls/include/stadls/vx/playback_program_builder.h</title>
<polygon fill="white" stroke="transparent" points="-4,4 -4,-326.55 1732.79,-326.55 1732.79,4 -4,4"/>
<!-- Node0 -->
<g id="node1" class="node">
<title>Node0</title>
<g id="a_node1"><a xlink:title=" ">
<polygon fill="#bfbfbf" stroke="black" points="235.05,-254.05 235.05,-322.05 413.29,-322.05 413.29,-254.05 235.05,-254.05"/>
<text text-anchor="start" x="243.05" y="-309.05" font-family="Helvetica,sans-Serif" font-size="10.00">/jenkins/jenlib_workspaces</text>
<text text-anchor="start" x="243.05" y="-297.05" font-family="Helvetica,sans-Serif" font-size="10.00">_f9/bld_nightly&#45;haldls.YmxkX25p</text>
<text text-anchor="start" x="243.05" y="-285.05" font-family="Helvetica,sans-Serif" font-size="10.00">Z2h0bHktaGFsZGxzIzcxMQ.x/haldls</text>
<text text-anchor="start" x="243.05" y="-273.05" font-family="Helvetica,sans-Serif" font-size="10.00">/include/stadls/vx/playback_program</text>
<text text-anchor="middle" x="324.17" y="-261.05" font-family="Helvetica,sans-Serif" font-size="10.00">_builder.h</text>
</a>
</g>
</g>
<!-- Node1 -->
<g id="node2" class="node">
<title>Node1</title>
<g id="a_node2"><a xlink:title=" ">
<polygon fill="white" stroke="#bfbfbf" points="0,-197.05 0,-217.05 44.34,-217.05 44.34,-197.05 0,-197.05"/>
<text text-anchor="middle" x="22.17" y="-204.05" font-family="Helvetica,sans-Serif" font-size="10.00">iosfwd</text>
</a>
</g>
</g>
<!-- Node0&#45;&gt;Node1 -->
<g id="edge1" class="edge">
<title>Node0&#45;&gt;Node1</title>
<path fill="none" stroke="midnightblue" d="M234.88,-263.78C183.24,-250.31 117.03,-233.01 58.17,-217.55 56.94,-217.23 55.68,-216.9 54.42,-216.57"/>
<polygon fill="midnightblue" stroke="midnightblue" points="55.2,-213.15 44.63,-213.99 53.41,-219.92 55.2,-213.15"/>
</g>
<!-- Node2 -->
<g id="node3" class="node">
<title>Node2</title>
<g id="a_node3"><a xlink:title=" ">
<polygon fill="white" stroke="#bfbfbf" points="100.12,-65.05 100.12,-85.05 152.22,-85.05 152.22,-65.05 100.12,-65.05"/>
<text text-anchor="middle" x="126.17" y="-72.05" font-family="Helvetica,sans-Serif" font-size="10.00">memory</text>
</a>
</g>
</g>
<!-- Node0&#45;&gt;Node2 -->
<g id="edge2" class="edge">
<title>Node0&#45;&gt;Node2</title>
<path fill="none" stroke="midnightblue" d="M286.23,-253.97C273.8,-242.72 260.13,-229.87 248.17,-217.55 206.57,-174.72 161.71,-120.32 139.8,-93.14"/>
<polygon fill="midnightblue" stroke="midnightblue" points="142.51,-90.93 133.52,-85.32 137.05,-95.31 142.51,-90.93"/>
</g>
<!-- Node3 -->
<g id="node4" class="node">
<title>Node3</title>
<g id="a_node4"><a xlink:title=" ">
<polygon fill="white" stroke="#bfbfbf" points="1029.93,-197.05 1029.93,-217.05 1110.4,-217.05 1110.4,-197.05 1029.93,-197.05"/>
<text text-anchor="middle" x="1070.17" y="-204.05" font-family="Helvetica,sans-Serif" font-size="10.00">unordered_set</text>
</a>
</g>
</g>
<!-- Node0&#45;&gt;Node3 -->
<g id="edge3" class="edge">
<title>Node0&#45;&gt;Node3</title>
<path fill="none" stroke="midnightblue" d="M413.45,-280.21C545.51,-269.61 800.57,-247.3 1016.17,-217.55 1017.28,-217.4 1018.4,-217.24 1019.52,-217.08"/>
<polygon fill="midnightblue" stroke="midnightblue" points="1020.47,-220.47 1029.82,-215.49 1019.4,-213.55 1020.47,-220.47"/>
</g>
<!-- Node4 -->
<g id="node5" class="node">
<title>Node4</title>
<g id="a_node5"><a xlink:title=" ">
<polygon fill="white" stroke="#bfbfbf" points="273.66,-128.05 273.66,-160.05 374.68,-160.05 374.68,-128.05 273.66,-128.05"/>
<text text-anchor="start" x="281.66" y="-147.05" font-family="Helvetica,sans-Serif" font-size="10.00">halco/hicann&#45;dls/vx</text>
<text text-anchor="middle" x="324.17" y="-135.05" font-family="Helvetica,sans-Serif" font-size="10.00">/barrier.h</text>
</a>
</g>
</g>
<!-- Node0&#45;&gt;Node4 -->
<g id="edge4" class="edge">
<title>Node0&#45;&gt;Node4</title>
<path fill="none" stroke="midnightblue" d="M324.17,-253.76C324.17,-228.28 324.17,-193.68 324.17,-170.42"/>
<polygon fill="midnightblue" stroke="midnightblue" points="327.67,-170.3 324.17,-160.3 320.67,-170.3 327.67,-170.3"/>
</g>
<!-- Node5 -->
<g id="node6" class="node">
<title>Node5</title>
<g id="a_node6"><a xlink:title=" ">
<polygon fill="white" stroke="#bfbfbf" points="879.72,-134.05 879.72,-154.05 974.61,-154.05 974.61,-134.05 879.72,-134.05"/>
<text text-anchor="middle" x="927.17" y="-141.05" font-family="Helvetica,sans-Serif" font-size="10.00">haldls/vx/barrier.h</text>
</a>
</g>
</g>
<!-- Node0&#45;&gt;Node5 -->
<g id="edge5" class="edge">
<title>Node0&#45;&gt;Node5</title>
<path fill="none" stroke="midnightblue" d="M413.37,-268.38C477.42,-254.78 565.76,-235.66 643.17,-217.55 744.87,-193.77 770.16,-187.15 871.17,-160.55 875.74,-159.35 880.52,-158.06 885.28,-156.77"/>
<polygon fill="midnightblue" stroke="midnightblue" points="886.21,-160.14 894.93,-154.12 884.36,-153.39 886.21,-160.14"/>
</g>
<!-- Node6 -->
<g id="node7" class="node">
<title>Node6</title>
<g id="a_node7"><a xlink:title=" ">
<polygon fill="white" stroke="#bfbfbf" points="169.99,-65.05 169.99,-85.05 274.34,-85.05 274.34,-65.05 169.99,-65.05"/>
<text text-anchor="middle" x="222.17" y="-72.05" font-family="Helvetica,sans-Serif" font-size="10.00">haldls/vx/common.h</text>
</a>
</g>
</g>
<!-- Node0&#45;&gt;Node6 -->
<g id="edge6" class="edge">
<title>Node0&#45;&gt;Node6</title>
<path fill="none" stroke="midnightblue" d="M288.29,-253.84C278.33,-243.07 268.31,-230.54 261.17,-217.55 239.05,-177.32 228.75,-123.63 224.58,-95.35"/>
<polygon fill="midnightblue" stroke="midnightblue" points="228.02,-94.65 223.2,-85.21 221.08,-95.59 228.02,-94.65"/>
</g>
<!-- Node7 -->
<g id="node8" class="node">
<title>Node7</title>
<g id="a_node8"><a xlink:title=" ">
<polygon fill="white" stroke="#bfbfbf" points="292.66,-65.05 292.66,-85.05 373.67,-85.05 373.67,-65.05 292.66,-65.05"/>
<text text-anchor="middle" x="333.17" y="-72.05" font-family="Helvetica,sans-Serif" font-size="10.00">hate/visibility.h</text>
</a>
</g>
</g>
<!-- Node0&#45;&gt;Node7 -->
<g id="edge7" class="edge">
<title>Node0&#45;&gt;Node7</title>
<path fill="none" stroke="midnightblue" d="M295.77,-253.82C271.33,-220.95 243.08,-169.6 264.17,-127.55 272.44,-111.06 288.76,-98.51 303.46,-89.92"/>
<polygon fill="midnightblue" stroke="midnightblue" points="305.21,-92.95 312.31,-85.09 301.86,-86.81 305.21,-92.95"/>
</g>
<!-- Node8 -->
<g id="node9" class="node">
<title>Node8</title>
<g id="a_node9"><a xlink:title=" ">
<polygon fill="white" stroke="#bfbfbf" points="1625.55,-65.05 1625.55,-85.05 1728.79,-85.05 1728.79,-65.05 1625.55,-65.05"/>
<text text-anchor="middle" x="1677.17" y="-72.05" font-family="Helvetica,sans-Serif" font-size="10.00">hxcomm/vx/target.h</text>
</a>
</g>
</g>
<!-- Node0&#45;&gt;Node8 -->
<g id="edge8" class="edge">
<title>Node0&#45;&gt;Node8</title>
<path fill="none" stroke="midnightblue" d="M413.59,-276.61C624.27,-251.33 1167.84,-182.2 1616.17,-91.55 1622,-90.37 1628.11,-88.99 1634.12,-87.55"/>
<polygon fill="midnightblue" stroke="midnightblue" points="1635.19,-90.89 1644.06,-85.1 1633.51,-84.1 1635.19,-90.89"/>
</g>
<!-- Node9 -->
<g id="node10" class="node">
<title>Node9</title>
<g id="a_node10"><a xlink:href="dumper_8h.html" target="_top" xlink:title=" ">
<polygon fill="white" stroke="black" points="488.21,-197.05 488.21,-217.05 588.12,-217.05 588.12,-197.05 488.21,-197.05"/>
<text text-anchor="middle" x="538.17" y="-204.05" font-family="Helvetica,sans-Serif" font-size="10.00">stadls/vx/dumper.h</text>
</a>
</g>
</g>
<!-- Node0&#45;&gt;Node9 -->
<g id="edge9" class="edge">
<title>Node0&#45;&gt;Node9</title>
<path fill="none" stroke="midnightblue" d="M413.37,-254.12C445.43,-242.29 479.67,-229.65 504.17,-220.6"/>
<polygon fill="midnightblue" stroke="midnightblue" points="505.53,-223.83 513.7,-217.08 503.11,-217.26 505.53,-223.83"/>
</g>
<!-- Node13 -->
<g id="node14" class="node">
<title>Node13</title>
<g id="a_node14"><a xlink:href="playback__program_8h.html" target="_top" xlink:title=" ">
<polygon fill="white" stroke="black" points="764.6,-128.05 764.6,-160.05 861.73,-160.05 861.73,-128.05 764.6,-128.05"/>
<text text-anchor="start" x="772.6" y="-147.05" font-family="Helvetica,sans-Serif" font-size="10.00">stadls/vx/playback</text>
<text text-anchor="middle" x="813.17" y="-135.05" font-family="Helvetica,sans-Serif" font-size="10.00">_program.h</text>
</a>
</g>
</g>
<!-- Node0&#45;&gt;Node13 -->
<g id="edge38" class="edge">
<title>Node0&#45;&gt;Node13</title>
<path fill="none" stroke="midnightblue" d="M413.46,-266.1C467,-253.1 536.3,-235.49 597.17,-217.55 653.96,-200.82 718.18,-178.87 761.73,-163.52"/>
<polygon fill="midnightblue" stroke="midnightblue" points="762.98,-166.79 771.25,-160.16 760.65,-160.19 762.98,-166.79"/>
</g>
<!-- Node23 -->
<g id="node24" class="node">
<title>Node23</title>
<g id="a_node24"><a xlink:href="genpybind_8h.html" target="_top" xlink:title=" ">
<polygon fill="white" stroke="black" points="509.1,-2.05 509.1,-22.05 621.24,-22.05 621.24,-2.05 509.1,-2.05"/>
<text text-anchor="middle" x="565.17" y="-9.05" font-family="Helvetica,sans-Serif" font-size="10.00">stadls/vx/genpybind.h</text>
</a>
</g>
</g>
<!-- Node0&#45;&gt;Node23 -->
<g id="edge37" class="edge">
<title>Node0&#45;&gt;Node23</title>
<path fill="none" stroke="midnightblue" d="M246.97,-254.01C155.96,-210.63 24.97,-131.41 91.17,-58.55 118.04,-28.98 374.62,-18.13 498.66,-14.58"/>
<polygon fill="midnightblue" stroke="midnightblue" points="498.9,-18.08 508.8,-14.3 498.7,-11.08 498.9,-18.08"/>
</g>
<!-- Node9&#45;&gt;Node4 -->
<g id="edge10" class="edge">
<title>Node9&#45;&gt;Node4</title>
<path fill="none" stroke="midnightblue" d="M506.59,-197.05C474.65,-187.95 424.47,-173.64 384.81,-162.34"/>
<polygon fill="midnightblue" stroke="midnightblue" points="385.55,-158.91 374.98,-159.54 383.63,-165.64 385.55,-158.91"/>
</g>
<!-- Node9&#45;&gt;Node5 -->
<g id="edge12" class="edge">
<title>Node9&#45;&gt;Node5</title>
<path fill="none" stroke="midnightblue" d="M588.17,-201.34C653.62,-194.68 771.72,-181.01 871.17,-160.55 876.54,-159.45 882.16,-158.11 887.67,-156.69"/>
<polygon fill="midnightblue" stroke="midnightblue" points="888.66,-160.05 897.41,-154.09 886.85,-153.29 888.66,-160.05"/>
</g>
<!-- Node9&#45;&gt;Node7 -->
<g id="edge15" class="edge">
<title>Node9&#45;&gt;Node7</title>
<path fill="none" stroke="midnightblue" d="M505.57,-196.99C481.4,-189.41 448.27,-177.16 422.17,-160.55 414.05,-155.39 373.1,-115.46 349.67,-92.39"/>
<polygon fill="midnightblue" stroke="midnightblue" points="352.05,-89.82 342.48,-85.28 347.13,-94.8 352.05,-89.82"/>
</g>
<!-- Node10 -->
<g id="node11" class="node">
<title>Node10</title>
<g id="a_node11"><a xlink:title=" ">
<polygon fill="white" stroke="#bfbfbf" points="431.66,-128.05 431.66,-160.05 532.68,-160.05 532.68,-128.05 431.66,-128.05"/>
<text text-anchor="start" x="439.66" y="-147.05" font-family="Helvetica,sans-Serif" font-size="10.00">halco/hicann&#45;dls/vx</text>
<text text-anchor="middle" x="482.17" y="-135.05" font-family="Helvetica,sans-Serif" font-size="10.00">/omnibus.h</text>
</a>
</g>
</g>
<!-- Node9&#45;&gt;Node10 -->
<g id="edge11" class="edge">
<title>Node9&#45;&gt;Node10</title>
<path fill="none" stroke="midnightblue" d="M529.9,-197.05C522.83,-189.34 512.32,-177.9 502.97,-167.71"/>
<polygon fill="midnightblue" stroke="midnightblue" points="505.45,-165.24 496.11,-160.24 500.3,-169.98 505.45,-165.24"/>
</g>
<!-- Node11 -->
<g id="node12" class="node">
<title>Node11</title>
<g id="a_node12"><a xlink:title=" ">
<polygon fill="white" stroke="#bfbfbf" points="550.49,-134.05 550.49,-154.05 639.84,-154.05 639.84,-134.05 550.49,-134.05"/>
<text text-anchor="middle" x="595.17" y="-141.05" font-family="Helvetica,sans-Serif" font-size="10.00">haldls/vx/block.h</text>
</a>
</g>
</g>
<!-- Node9&#45;&gt;Node11 -->
<g id="edge13" class="edge">
<title>Node9&#45;&gt;Node11</title>
<path fill="none" stroke="midnightblue" d="M546.58,-197.05C555.25,-187.77 568.97,-173.09 579.62,-161.69"/>
<polygon fill="midnightblue" stroke="midnightblue" points="582.45,-163.79 586.72,-154.09 577.34,-159.01 582.45,-163.79"/>
</g>
<!-- Node12 -->
<g id="node13" class="node">
<title>Node12</title>
<g id="a_node13"><a xlink:title=" ">
<polygon fill="white" stroke="#bfbfbf" points="658.05,-134.05 658.05,-154.05 746.28,-154.05 746.28,-134.05 658.05,-134.05"/>
<text text-anchor="middle" x="702.17" y="-141.05" font-family="Helvetica,sans-Serif" font-size="10.00">haldls/vx/timer.h</text>
</a>
</g>
</g>
<!-- Node9&#45;&gt;Node12 -->
<g id="edge14" class="edge">
<title>Node9&#45;&gt;Node12</title>
<path fill="none" stroke="midnightblue" d="M562.37,-197.05C590.35,-186.64 636.59,-169.44 668.17,-157.7"/>
<polygon fill="midnightblue" stroke="midnightblue" points="669.72,-160.86 677.87,-154.09 667.28,-154.3 669.72,-160.86"/>
</g>
<!-- Node9&#45;&gt;Node13 -->
<g id="edge16" class="edge">
<title>Node9&#45;&gt;Node13</title>
<path fill="none" stroke="midnightblue" d="M584.89,-197.02C626.8,-188.75 690.19,-175.81 754.56,-160.63"/>
<polygon fill="midnightblue" stroke="midnightblue" points="755.56,-163.99 764.48,-158.27 753.94,-157.18 755.56,-163.99"/>
</g>
<!-- Node13&#45;&gt;Node2 -->
<g id="edge18" class="edge">
<title>Node13&#45;&gt;Node2</title>
<path fill="none" stroke="midnightblue" d="M764.59,-129.31C761.41,-128.65 758.25,-128.05 755.17,-127.55 494.1,-85.2 418.15,-154.09 161.17,-91.55 158.48,-90.9 155.73,-90.04 153.03,-89.08"/>
<polygon fill="midnightblue" stroke="midnightblue" points="154.12,-85.74 143.54,-85.21 151.48,-92.22 154.12,-85.74"/>
</g>
<!-- Node13&#45;&gt;Node6 -->
<g id="edge25" class="edge">
<title>Node13&#45;&gt;Node6</title>
<path fill="none" stroke="midnightblue" d="M764.58,-129.37C761.41,-128.69 758.25,-128.08 755.17,-127.55 547.76,-92.24 490.78,-125.59 283.17,-91.55 276.73,-90.5 269.97,-89.09 263.4,-87.55"/>
<polygon fill="midnightblue" stroke="midnightblue" points="263.84,-84.06 253.29,-85.06 262.17,-90.85 263.84,-84.06"/>
</g>
<!-- Node13&#45;&gt;Node7 -->
<g id="edge28" class="edge">
<title>Node13&#45;&gt;Node7</title>
<path fill="none" stroke="midnightblue" d="M764.56,-129.44C761.4,-128.75 758.24,-128.11 755.17,-127.55 591.27,-97.95 545.35,-124.85 382.17,-91.55 377.62,-90.62 372.89,-89.43 368.26,-88.12"/>
<polygon fill="midnightblue" stroke="midnightblue" points="368.92,-84.67 358.33,-85.13 366.89,-91.37 368.92,-84.67"/>
</g>
<!-- Node13&#45;&gt;Node8 -->
<g id="edge29" class="edge">
<title>Node13&#45;&gt;Node8</title>
<path fill="none" stroke="midnightblue" d="M861.74,-129.27C864.92,-128.62 868.08,-128.03 871.17,-127.55 1198.71,-76.47 1288.32,-140.62 1616.17,-91.55 1622.92,-90.54 1630.01,-89.1 1636.87,-87.5"/>
<polygon fill="midnightblue" stroke="midnightblue" points="1637.82,-90.87 1646.69,-85.07 1636.14,-84.07 1637.82,-90.87"/>
</g>
<!-- Node14 -->
<g id="node15" class="node">
<title>Node14</title>
<g id="a_node15"><a xlink:title=" ">
<polygon fill="white" stroke="#bfbfbf" points="492.72,-65.05 492.72,-85.05 537.62,-85.05 537.62,-65.05 492.72,-65.05"/>
<text text-anchor="middle" x="515.17" y="-72.05" font-family="Helvetica,sans-Serif" font-size="10.00">cstdint</text>
</a>
</g>
</g>
<!-- Node13&#45;&gt;Node14 -->
<g id="edge17" class="edge">
<title>Node13&#45;&gt;Node14</title>
<path fill="none" stroke="midnightblue" d="M764.51,-129.72C761.35,-128.96 758.22,-128.23 755.17,-127.55 665.28,-107.65 639.37,-117.93 551.17,-91.55 548.57,-90.77 545.9,-89.86 543.26,-88.88"/>
<polygon fill="midnightblue" stroke="midnightblue" points="544.5,-85.61 533.92,-85.1 541.88,-92.09 544.5,-85.61"/>
</g>
<!-- Node15 -->
<g id="node16" class="node">
<title>Node15</title>
<g id="a_node16"><a xlink:title=" ">
<polygon fill="white" stroke="#bfbfbf" points="829.66,-65.05 829.66,-85.05 880.67,-85.05 880.67,-65.05 829.66,-65.05"/>
<text text-anchor="middle" x="855.17" y="-72.05" font-family="Helvetica,sans-Serif" font-size="10.00">optional</text>
</a>
</g>
</g>
<!-- Node13&#45;&gt;Node15 -->
<g id="edge19" class="edge">
<title>Node13&#45;&gt;Node15</title>
<path fill="none" stroke="midnightblue" d="M822.7,-127.85C829,-117.8 837.29,-104.58 843.91,-94.01"/>
<polygon fill="midnightblue" stroke="midnightblue" points="847.08,-95.55 849.42,-85.22 841.15,-91.83 847.08,-95.55"/>
</g>
<!-- Node16 -->
<g id="node17" class="node">
<title>Node16</title>
<g id="a_node17"><a xlink:title=" ">
<polygon fill="white" stroke="#bfbfbf" points="898.95,-65.05 898.95,-85.05 939.39,-85.05 939.39,-65.05 898.95,-65.05"/>
<text text-anchor="middle" x="919.17" y="-72.05" font-family="Helvetica,sans-Serif" font-size="10.00">string</text>
</a>
</g>
</g>
<!-- Node13&#45;&gt;Node16 -->
<g id="edge20" class="edge">
<title>Node13&#45;&gt;Node16</title>
<path fill="none" stroke="midnightblue" d="M836.96,-128.02C854.73,-116.78 878.89,-101.51 896.41,-90.44"/>
<polygon fill="midnightblue" stroke="midnightblue" points="898.32,-93.37 904.9,-85.07 894.58,-87.45 898.32,-93.37"/>
</g>
<!-- Node17 -->
<g id="node18" class="node">
<title>Node17</title>
<g id="a_node18"><a xlink:title=" ">
<polygon fill="white" stroke="#bfbfbf" points="1072.55,-65.05 1072.55,-85.05 1115.78,-85.05 1115.78,-65.05 1072.55,-65.05"/>
<text text-anchor="middle" x="1094.17" y="-72.05" font-family="Helvetica,sans-Serif" font-size="10.00">vector</text>
</a>
</g>
</g>
<!-- Node13&#45;&gt;Node17 -->
<g id="edge21" class="edge">
<title>Node13&#45;&gt;Node17</title>
<path fill="none" stroke="midnightblue" d="M861.84,-129.76C864.99,-128.99 868.12,-128.24 871.17,-127.55 955.83,-108.33 980.88,-119.23 1063.17,-91.55 1065.05,-90.92 1066.96,-90.19 1068.86,-89.4"/>
<polygon fill="midnightblue" stroke="midnightblue" points="1070.51,-92.5 1078.12,-85.14 1067.58,-86.14 1070.51,-92.5"/>
</g>
<!-- Node18 -->
<g id="node19" class="node">
<title>Node18</title>
<g id="a_node19"><a xlink:title=" ">
<polygon fill="white" stroke="#bfbfbf" points="1133.82,-65.05 1133.82,-85.05 1226.52,-85.05 1226.52,-65.05 1133.82,-65.05"/>
<text text-anchor="middle" x="1180.17" y="-72.05" font-family="Helvetica,sans-Serif" font-size="10.00">boost/variant.hpp</text>
</a>
</g>
</g>
<!-- Node13&#45;&gt;Node18 -->
<g id="edge22" class="edge">
<title>Node13&#45;&gt;Node18</title>
<path fill="none" stroke="midnightblue" d="M861.8,-129.6C864.96,-128.87 868.1,-128.18 871.17,-127.55 982.89,-104.79 1013.6,-115.07 1125.17,-91.55 1130.31,-90.47 1135.69,-89.17 1140.97,-87.79"/>
<polygon fill="midnightblue" stroke="midnightblue" points="1142.22,-91.08 1150.95,-85.07 1140.38,-84.32 1142.22,-91.08"/>
</g>
<!-- Node19 -->
<g id="node20" class="node">
<title>Node19</title>
<g id="a_node20"><a xlink:title=" ">
<polygon fill="white" stroke="#bfbfbf" points="1244.55,-59.05 1244.55,-91.05 1337.79,-91.05 1337.79,-59.05 1244.55,-59.05"/>
<text text-anchor="start" x="1252.55" y="-78.05" font-family="Helvetica,sans-Serif" font-size="10.00">fisch/vx/container</text>
<text text-anchor="middle" x="1291.17" y="-66.05" font-family="Helvetica,sans-Serif" font-size="10.00">_ticket.h</text>
</a>
</g>
</g>
<!-- Node13&#45;&gt;Node19 -->
<g id="edge23" class="edge">
<title>Node13&#45;&gt;Node19</title>
<path fill="none" stroke="midnightblue" d="M861.77,-129.45C864.94,-128.75 868.09,-128.11 871.17,-127.55 1027.83,-99.07 1073.49,-120.43 1234.01,-91.55"/>
<polygon fill="midnightblue" stroke="midnightblue" points="1235.05,-94.92 1244.25,-89.67 1233.78,-88.03 1235.05,-94.92"/>
</g>
<!-- Node20 -->
<g id="node21" class="node">
<title>Node20</title>
<g id="a_node21"><a xlink:title=" ">
<polygon fill="white" stroke="#bfbfbf" points="1355.82,-65.05 1355.82,-85.05 1498.51,-85.05 1498.51,-65.05 1355.82,-65.05"/>
<text text-anchor="middle" x="1427.17" y="-72.05" font-family="Helvetica,sans-Serif" font-size="10.00">fisch/vx/playback_program.h</text>
</a>
</g>
</g>
<!-- Node13&#45;&gt;Node20 -->
<g id="edge24" class="edge">
<title>Node13&#45;&gt;Node20</title>
<path fill="none" stroke="midnightblue" d="M861.76,-129.37C864.93,-128.69 868.08,-128.08 871.17,-127.55 1080.33,-92.01 1136.89,-119.78 1347.17,-91.55 1356.33,-90.32 1366.03,-88.71 1375.4,-86.99"/>
<polygon fill="midnightblue" stroke="midnightblue" points="1376.21,-90.4 1385.38,-85.1 1374.91,-83.52 1376.21,-90.4"/>
</g>
<!-- Node21 -->
<g id="node22" class="node">
<title>Node21</title>
<g id="a_node22"><a xlink:title=" ">
<polygon fill="white" stroke="#bfbfbf" points="1516.93,-65.05 1516.93,-85.05 1607.4,-85.05 1607.4,-65.05 1516.93,-65.05"/>
<text text-anchor="middle" x="1562.17" y="-72.05" font-family="Helvetica,sans-Serif" font-size="10.00">haldls/vx/event.h</text>
</a>
</g>
</g>
<!-- Node13&#45;&gt;Node21 -->
<g id="edge26" class="edge">
<title>Node13&#45;&gt;Node21</title>
<path fill="none" stroke="midnightblue" d="M861.75,-129.3C864.92,-128.64 868.08,-128.05 871.17,-127.55 1150.72,-82.77 1227.92,-138.23 1507.17,-91.55 1512.79,-90.61 1518.67,-89.31 1524.39,-87.86"/>
<polygon fill="midnightblue" stroke="midnightblue" points="1525.72,-91.13 1534.46,-85.13 1523.89,-84.37 1525.72,-91.13"/>
</g>
<!-- Node22 -->
<g id="node23" class="node">
<title>Node22</title>
<g id="a_node23"><a xlink:title=" ">
<polygon fill="white" stroke="#bfbfbf" points="391.54,-65.05 391.54,-85.05 474.79,-85.05 474.79,-65.05 391.54,-65.05"/>
<text text-anchor="middle" x="433.17" y="-72.05" font-family="Helvetica,sans-Serif" font-size="10.00">hate/type_list.h</text>
</a>
</g>
</g>
<!-- Node13&#45;&gt;Node22 -->
<g id="edge27" class="edge">
<title>Node13&#45;&gt;Node22</title>
<path fill="none" stroke="midnightblue" d="M764.54,-129.57C761.38,-128.84 758.23,-128.16 755.17,-127.55 636.01,-103.82 602.91,-117.3 484.17,-91.55 479.44,-90.53 474.52,-89.28 469.68,-87.93"/>
<polygon fill="midnightblue" stroke="midnightblue" points="470.53,-84.53 459.95,-85.09 468.57,-91.25 470.53,-84.53"/>
</g>
<!-- Node13&#45;&gt;Node23 -->
<g id="edge30" class="edge">
<title>Node13&#45;&gt;Node23</title>
<path fill="none" stroke="midnightblue" d="M764.48,-129.84C761.33,-129.05 758.21,-128.28 755.17,-127.55 679.62,-109.52 639.9,-145.64 584.17,-91.55 568.33,-76.18 564.78,-50.03 564.4,-32.17"/>
<polygon fill="midnightblue" stroke="midnightblue" points="567.9,-32.09 564.5,-22.06 560.9,-32.02 567.9,-32.09"/>
</g>
<!-- Node24 -->
<g id="node25" class="node">
<title>Node24</title>
<g id="a_node25"><a xlink:href="run__time__info_8h.html" target="_top" xlink:title=" ">
<polygon fill="white" stroke="black" points="957.88,-59.05 957.88,-91.05 1054.45,-91.05 1054.45,-59.05 957.88,-59.05"/>
<text text-anchor="start" x="965.88" y="-78.05" font-family="Helvetica,sans-Serif" font-size="10.00">stadls/vx/run_time</text>
<text text-anchor="middle" x="1006.17" y="-66.05" font-family="Helvetica,sans-Serif" font-size="10.00">_info.h</text>
</a>
</g>
</g>
<!-- Node13&#45;&gt;Node24 -->
<g id="edge32" class="edge">
<title>Node13&#45;&gt;Node24</title>
<path fill="none" stroke="midnightblue" d="M856.48,-128.02C885.06,-118.09 922.7,-105.03 953.08,-94.48"/>
<polygon fill="midnightblue" stroke="midnightblue" points="954.37,-97.74 962.67,-91.15 952.07,-91.13 954.37,-97.74"/>
</g>
<!-- Node26 -->
<g id="node27" class="node">
<title>Node26</title>
<g id="a_node27"><a xlink:title=" ">
<polygon fill="white" stroke="#bfbfbf" points="593.32,-65.05 593.32,-85.05 691.02,-85.05 691.02,-65.05 593.32,-65.05"/>
<text text-anchor="middle" x="642.17" y="-72.05" font-family="Helvetica,sans-Serif" font-size="10.00">pybind11/numpy.h</text>
</a>
</g>
</g>
<!-- Node13&#45;&gt;Node26 -->
<g id="edge35" class="edge">
<title>Node13&#45;&gt;Node26</title>
<path fill="none" stroke="midnightblue" d="M774.79,-128.02C744.67,-116.21 703.19,-99.96 674.69,-88.79"/>
<polygon fill="midnightblue" stroke="midnightblue" points="675.77,-85.46 665.18,-85.07 673.22,-91.98 675.77,-85.46"/>
</g>
<!-- Node27 -->
<g id="node28" class="node">
<title>Node27</title>
<g id="a_node28"><a xlink:title=" ">
<polygon fill="white" stroke="#bfbfbf" points="709.1,-65.05 709.1,-85.05 811.24,-85.05 811.24,-65.05 709.1,-65.05"/>
<text text-anchor="middle" x="760.17" y="-72.05" font-family="Helvetica,sans-Serif" font-size="10.00">pybind11/stl_bind.h</text>
</a>
</g>
</g>
<!-- Node13&#45;&gt;Node27 -->
<g id="edge36" class="edge">
<title>Node13&#45;&gt;Node27</title>
<path fill="none" stroke="midnightblue" d="M801.14,-127.85C793.03,-117.59 782.31,-104.04 773.86,-93.37"/>
<polygon fill="midnightblue" stroke="midnightblue" points="776.37,-90.89 767.42,-85.22 770.88,-95.23 776.37,-90.89"/>
</g>
<!-- Node23&#45;&gt;Node23 -->
<g id="edge31" class="edge">
<title>Node23&#45;&gt;Node23</title>
<path fill="none" stroke="midnightblue" d="M593.67,-22.11C616.16,-26 639.24,-22.65 639.24,-12.05 639.24,-3.03 622.51,0.74 603.65,-0.74"/>
<polygon fill="midnightblue" stroke="midnightblue" points="603.16,2.72 593.67,-1.99 604.03,-4.22 603.16,2.72"/>
</g>
<!-- Node24&#45;&gt;Node23 -->
<g id="edge34" class="edge">
<title>Node24&#45;&gt;Node23</title>
<path fill="none" stroke="midnightblue" d="M957.87,-60.59C954.6,-59.85 951.34,-59.16 948.17,-58.55 838.03,-37.41 708.08,-24.45 631.37,-18.03"/>
<polygon fill="midnightblue" stroke="midnightblue" points="631.62,-14.53 621.37,-17.2 631.05,-21.51 631.62,-14.53"/>
</g>
<!-- Node25 -->
<g id="node26" class="node">
<title>Node25</title>
<g id="a_node26"><a xlink:title=" ">
<polygon fill="white" stroke="#bfbfbf" points="945.66,-2.05 945.66,-22.05 1066.68,-22.05 1066.68,-2.05 945.66,-2.05"/>
<text text-anchor="middle" x="1006.17" y="-9.05" font-family="Helvetica,sans-Serif" font-size="10.00">fisch/vx/run_time_info.h</text>
</a>
</g>
</g>
<!-- Node24&#45;&gt;Node25 -->
<g id="edge33" class="edge">
<title>Node24&#45;&gt;Node25</title>
<path fill="none" stroke="midnightblue" d="M1006.17,-58.97C1006.17,-50.93 1006.17,-40.94 1006.17,-32.33"/>
<polygon fill="midnightblue" stroke="midnightblue" points="1009.67,-32.1 1006.17,-22.1 1002.67,-32.1 1009.67,-32.1"/>
</g>
</g>
</svg>
