<?xml version="1.0" encoding="UTF-8" standalone="no"?>
<!DOCTYPE svg PUBLIC "-//W3C//DTD SVG 1.1//EN"
 "http://www.w3.org/Graphics/SVG/1.1/DTD/svg11.dtd">
<!-- Generated by graphviz version 2.43.0 (0)
 -->
<!-- Title: /jenkins/jenlib_workspaces_f9/bld_nightly&#45;haldls.YmxkX25pZ2h0bHktaGFsZGxzIzcxMQ.x/haldls/include/stadls/vx/playback_program.h Pages: 1 -->
<svg width="1636pt" height="193pt"
 viewBox="0.00 0.00 1635.52 192.55" xmlns="http://www.w3.org/2000/svg" xmlns:xlink="http://www.w3.org/1999/xlink">
<g id="graph0" class="graph" transform="scale(1 1) rotate(0) translate(4 188.55)">
<title>/jenkins/jenlib_workspaces_f9/bld_nightly&#45;haldls.YmxkX25pZ2h0bHktaGFsZGxzIzcxMQ.x/haldls/include/stadls/vx/playback_program.h</title>
<polygon fill="white" stroke="transparent" points="-4,4 -4,-188.55 1631.52,-188.55 1631.52,4 -4,4"/>
<!-- Node0 -->
<g id="node1" class="node">
<title>Node0</title>
<g id="a_node1"><a xlink:title=" ">
<polygon fill="#bfbfbf" stroke="black" points="664.71,-128.05 664.71,-184.05 850.19,-184.05 850.19,-128.05 664.71,-128.05"/>
<text text-anchor="start" x="672.71" y="-171.05" font-family="Helvetica,sans-Serif" font-size="10.00">/jenkins/jenlib_workspaces</text>
<text text-anchor="start" x="672.71" y="-159.05" font-family="Helvetica,sans-Serif" font-size="10.00">_f9/bld_nightly&#45;haldls.YmxkX25p</text>
<text text-anchor="start" x="672.71" y="-147.05" font-family="Helvetica,sans-Serif" font-size="10.00">Z2h0bHktaGFsZGxzIzcxMQ.x/haldls</text>
<text text-anchor="middle" x="757.45" y="-135.05" font-family="Helvetica,sans-Serif" font-size="10.00">/include/stadls/vx/playback_program.h</text>
</a>
</g>
</g>
<!-- Node1 -->
<g id="node2" class="node">
<title>Node1</title>
<g id="a_node2"><a xlink:title=" ">
<polygon fill="white" stroke="#bfbfbf" points="0,-65.05 0,-85.05 44.89,-85.05 44.89,-65.05 0,-65.05"/>
<text text-anchor="middle" x="22.45" y="-72.05" font-family="Helvetica,sans-Serif" font-size="10.00">cstdint</text>
</a>
</g>
</g>
<!-- Node0&#45;&gt;Node1 -->
<g id="edge1" class="edge">
<title>Node0&#45;&gt;Node1</title>
<path fill="none" stroke="midnightblue" d="M664.53,-150.97C500.38,-143.04 165.81,-123.47 53.45,-91.55 51.28,-90.94 49.09,-90.17 46.92,-89.31"/>
<polygon fill="midnightblue" stroke="midnightblue" points="48.31,-86.1 37.76,-85.12 45.4,-92.46 48.31,-86.1"/>
</g>
<!-- Node2 -->
<g id="node3" class="node">
<title>Node2</title>
<g id="a_node3"><a xlink:title=" ">
<polygon fill="white" stroke="#bfbfbf" points="62.39,-65.05 62.39,-85.05 114.5,-85.05 114.5,-65.05 62.39,-65.05"/>
<text text-anchor="middle" x="88.45" y="-72.05" font-family="Helvetica,sans-Serif" font-size="10.00">memory</text>
</a>
</g>
</g>
<!-- Node0&#45;&gt;Node2 -->
<g id="edge2" class="edge">
<title>Node0&#45;&gt;Node2</title>
<path fill="none" stroke="midnightblue" d="M664.48,-154.88C539.45,-152.59 311.14,-141.15 123.45,-91.55 120.77,-90.84 118.03,-89.96 115.33,-88.96"/>
<polygon fill="midnightblue" stroke="midnightblue" points="116.44,-85.63 105.86,-85.06 113.77,-92.11 116.44,-85.63"/>
</g>
<!-- Node3 -->
<g id="node4" class="node">
<title>Node3</title>
<g id="a_node4"><a xlink:title=" ">
<polygon fill="white" stroke="#bfbfbf" points="132.94,-65.05 132.94,-85.05 183.95,-85.05 183.95,-65.05 132.94,-65.05"/>
<text text-anchor="middle" x="158.45" y="-72.05" font-family="Helvetica,sans-Serif" font-size="10.00">optional</text>
</a>
</g>
</g>
<!-- Node0&#45;&gt;Node3 -->
<g id="edge3" class="edge">
<title>Node0&#45;&gt;Node3</title>
<path fill="none" stroke="midnightblue" d="M664.5,-153.21C551.37,-149.02 355.37,-135.41 193.45,-91.55 190.83,-90.84 188.16,-89.97 185.52,-89"/>
<polygon fill="midnightblue" stroke="midnightblue" points="186.81,-85.74 176.23,-85.18 184.15,-92.22 186.81,-85.74"/>
</g>
<!-- Node4 -->
<g id="node5" class="node">
<title>Node4</title>
<g id="a_node5"><a xlink:title=" ">
<polygon fill="white" stroke="#bfbfbf" points="202.22,-65.05 202.22,-85.05 242.67,-85.05 242.67,-65.05 202.22,-65.05"/>
<text text-anchor="middle" x="222.45" y="-72.05" font-family="Helvetica,sans-Serif" font-size="10.00">string</text>
</a>
</g>
</g>
<!-- Node0&#45;&gt;Node4 -->
<g id="edge4" class="edge">
<title>Node0&#45;&gt;Node4</title>
<path fill="none" stroke="midnightblue" d="M664.33,-153.48C561.14,-149.44 390.88,-135.88 251.45,-91.55 249.76,-91.02 248.06,-90.39 246.38,-89.69"/>
<polygon fill="midnightblue" stroke="midnightblue" points="247.57,-86.38 237.04,-85.19 244.53,-92.68 247.57,-86.38"/>
</g>
<!-- Node5 -->
<g id="node6" class="node">
<title>Node5</title>
<g id="a_node6"><a xlink:title=" ">
<polygon fill="white" stroke="#bfbfbf" points="260.83,-65.05 260.83,-85.05 304.06,-85.05 304.06,-65.05 260.83,-65.05"/>
<text text-anchor="middle" x="282.45" y="-72.05" font-family="Helvetica,sans-Serif" font-size="10.00">vector</text>
</a>
</g>
</g>
<!-- Node0&#45;&gt;Node5 -->
<g id="edge5" class="edge">
<title>Node0&#45;&gt;Node5</title>
<path fill="none" stroke="midnightblue" d="M664.56,-150.45C573.38,-143.93 431.25,-128.36 313.45,-91.55 311.51,-90.95 309.54,-90.23 307.59,-89.45"/>
<polygon fill="midnightblue" stroke="midnightblue" points="308.68,-86.09 298.13,-85.11 305.76,-92.46 308.68,-86.09"/>
</g>
<!-- Node6 -->
<g id="node7" class="node">
<title>Node6</title>
<g id="a_node7"><a xlink:title=" ">
<polygon fill="white" stroke="#bfbfbf" points="322.1,-65.05 322.1,-85.05 414.8,-85.05 414.8,-65.05 322.1,-65.05"/>
<text text-anchor="middle" x="368.45" y="-72.05" font-family="Helvetica,sans-Serif" font-size="10.00">boost/variant.hpp</text>
</a>
</g>
</g>
<!-- Node0&#45;&gt;Node6 -->
<g id="edge6" class="edge">
<title>Node0&#45;&gt;Node6</title>
<path fill="none" stroke="midnightblue" d="M664.49,-139.61C597.22,-127.89 504.31,-110.6 423.45,-91.55 418.5,-90.39 413.34,-89.07 408.24,-87.71"/>
<polygon fill="midnightblue" stroke="midnightblue" points="409.15,-84.33 398.58,-85.05 407.3,-91.08 409.15,-84.33"/>
</g>
<!-- Node7 -->
<g id="node8" class="node">
<title>Node7</title>
<g id="a_node8"><a xlink:title=" ">
<polygon fill="white" stroke="#bfbfbf" points="432.83,-59.05 432.83,-91.05 526.07,-91.05 526.07,-59.05 432.83,-59.05"/>
<text text-anchor="start" x="440.83" y="-78.05" font-family="Helvetica,sans-Serif" font-size="10.00">fisch/vx/container</text>
<text text-anchor="middle" x="479.45" y="-66.05" font-family="Helvetica,sans-Serif" font-size="10.00">_ticket.h</text>
</a>
</g>
</g>
<!-- Node0&#45;&gt;Node7 -->
<g id="edge7" class="edge">
<title>Node0&#45;&gt;Node7</title>
<path fill="none" stroke="midnightblue" d="M664.49,-128.64C622.07,-116.58 573.2,-102.7 536.34,-92.22"/>
<polygon fill="midnightblue" stroke="midnightblue" points="536.86,-88.73 526.28,-89.36 534.94,-95.46 536.86,-88.73"/>
</g>
<!-- Node8 -->
<g id="node9" class="node">
<title>Node8</title>
<g id="a_node9"><a xlink:title=" ">
<polygon fill="white" stroke="#bfbfbf" points="544.1,-65.05 544.1,-85.05 686.79,-85.05 686.79,-65.05 544.1,-65.05"/>
<text text-anchor="middle" x="615.45" y="-72.05" font-family="Helvetica,sans-Serif" font-size="10.00">fisch/vx/playback_program.h</text>
</a>
</g>
</g>
<!-- Node0&#45;&gt;Node8 -->
<g id="edge8" class="edge">
<title>Node0&#45;&gt;Node8</title>
<path fill="none" stroke="midnightblue" d="M708.58,-127.87C685.66,-115.11 659.31,-100.46 640.51,-89.99"/>
<polygon fill="midnightblue" stroke="midnightblue" points="642.11,-86.88 631.67,-85.08 638.71,-93 642.11,-86.88"/>
</g>
<!-- Node9 -->
<g id="node10" class="node">
<title>Node9</title>
<g id="a_node10"><a xlink:title=" ">
<polygon fill="white" stroke="#bfbfbf" points="705.27,-65.05 705.27,-85.05 809.62,-85.05 809.62,-65.05 705.27,-65.05"/>
<text text-anchor="middle" x="757.45" y="-72.05" font-family="Helvetica,sans-Serif" font-size="10.00">haldls/vx/common.h</text>
</a>
</g>
</g>
<!-- Node0&#45;&gt;Node9 -->
<g id="edge9" class="edge">
<title>Node0&#45;&gt;Node9</title>
<path fill="none" stroke="midnightblue" d="M757.45,-127.87C757.45,-117.21 757.45,-105.24 757.45,-95.48"/>
<polygon fill="midnightblue" stroke="midnightblue" points="760.95,-95.27 757.45,-85.27 753.95,-95.27 760.95,-95.27"/>
</g>
<!-- Node10 -->
<g id="node11" class="node">
<title>Node10</title>
<g id="a_node11"><a xlink:title=" ">
<polygon fill="white" stroke="#bfbfbf" points="827.21,-65.05 827.21,-85.05 917.68,-85.05 917.68,-65.05 827.21,-65.05"/>
<text text-anchor="middle" x="872.45" y="-72.05" font-family="Helvetica,sans-Serif" font-size="10.00">haldls/vx/event.h</text>
</a>
</g>
</g>
<!-- Node0&#45;&gt;Node10 -->
<g id="edge10" class="edge">
<title>Node0&#45;&gt;Node10</title>
<path fill="none" stroke="midnightblue" d="M797.02,-127.87C814.99,-115.52 835.56,-101.39 850.67,-91.01"/>
<polygon fill="midnightblue" stroke="midnightblue" points="853.05,-93.63 859.31,-85.08 849.08,-87.86 853.05,-93.63"/>
</g>
<!-- Node11 -->
<g id="node12" class="node">
<title>Node11</title>
<g id="a_node12"><a xlink:title=" ">
<polygon fill="white" stroke="#bfbfbf" points="935.82,-65.05 935.82,-85.05 1019.07,-85.05 1019.07,-65.05 935.82,-65.05"/>
<text text-anchor="middle" x="977.45" y="-72.05" font-family="Helvetica,sans-Serif" font-size="10.00">hate/type_list.h</text>
</a>
</g>
</g>
<!-- Node0&#45;&gt;Node11 -->
<g id="edge11" class="edge">
<title>Node0&#45;&gt;Node11</title>
<path fill="none" stroke="midnightblue" d="M832.85,-127.98C870.18,-114.57 913.42,-99.04 942.82,-88.49"/>
<polygon fill="midnightblue" stroke="midnightblue" points="944,-91.78 952.23,-85.11 941.64,-85.19 944,-91.78"/>
</g>
<!-- Node12 -->
<g id="node13" class="node">
<title>Node12</title>
<g id="a_node13"><a xlink:title=" ">
<polygon fill="white" stroke="#bfbfbf" points="1036.94,-65.05 1036.94,-85.05 1117.95,-85.05 1117.95,-65.05 1036.94,-65.05"/>
<text text-anchor="middle" x="1077.45" y="-72.05" font-family="Helvetica,sans-Serif" font-size="10.00">hate/visibility.h</text>
</a>
</g>
</g>
<!-- Node0&#45;&gt;Node12 -->
<g id="edge12" class="edge">
<title>Node0&#45;&gt;Node12</title>
<path fill="none" stroke="midnightblue" d="M850.39,-135.11C902.91,-123.39 969.62,-107.72 1028.45,-91.55 1032.31,-90.49 1036.32,-89.33 1040.31,-88.13"/>
<polygon fill="midnightblue" stroke="midnightblue" points="1041.56,-91.4 1050.09,-85.11 1039.5,-84.71 1041.56,-91.4"/>
</g>
<!-- Node13 -->
<g id="node14" class="node">
<title>Node13</title>
<g id="a_node14"><a xlink:title=" ">
<polygon fill="white" stroke="#bfbfbf" points="1135.83,-65.05 1135.83,-85.05 1239.07,-85.05 1239.07,-65.05 1135.83,-65.05"/>
<text text-anchor="middle" x="1187.45" y="-72.05" font-family="Helvetica,sans-Serif" font-size="10.00">hxcomm/vx/target.h</text>
</a>
</g>
</g>
<!-- Node0&#45;&gt;Node13 -->
<g id="edge13" class="edge">
<title>Node0&#45;&gt;Node13</title>
<path fill="none" stroke="midnightblue" d="M850.23,-141.31C925.31,-129.67 1033.61,-111.69 1127.45,-91.55 1132.97,-90.37 1138.75,-89.02 1144.45,-87.62"/>
<polygon fill="midnightblue" stroke="midnightblue" points="1145.71,-90.91 1154.55,-85.07 1144,-84.12 1145.71,-90.91"/>
</g>
<!-- Node14 -->
<g id="node15" class="node">
<title>Node14</title>
<g id="a_node15"><a xlink:href="genpybind_8h.html" target="_top" xlink:title=" ">
<polygon fill="white" stroke="black" points="1211.38,-2.05 1211.38,-22.05 1323.52,-22.05 1323.52,-2.05 1211.38,-2.05"/>
<text text-anchor="middle" x="1267.45" y="-9.05" font-family="Helvetica,sans-Serif" font-size="10.00">stadls/vx/genpybind.h</text>
</a>
</g>
</g>
<!-- Node0&#45;&gt;Node14 -->
<g id="edge14" class="edge">
<title>Node0&#45;&gt;Node14</title>
<path fill="none" stroke="midnightblue" d="M850.29,-155.19C976.06,-153.39 1191.45,-142.66 1248.45,-91.55 1264.88,-76.82 1268.29,-50.52 1268.48,-32.45"/>
<polygon fill="midnightblue" stroke="midnightblue" points="1271.97,-32.13 1268.25,-22.21 1264.97,-32.28 1271.97,-32.13"/>
</g>
<!-- Node15 -->
<g id="node16" class="node">
<title>Node15</title>
<g id="a_node16"><a xlink:href="run__time__info_8h.html" target="_top" xlink:title=" ">
<polygon fill="white" stroke="black" points="1295.16,-59.05 1295.16,-91.05 1391.73,-91.05 1391.73,-59.05 1295.16,-59.05"/>
<text text-anchor="start" x="1303.16" y="-78.05" font-family="Helvetica,sans-Serif" font-size="10.00">stadls/vx/run_time</text>
<text text-anchor="middle" x="1343.45" y="-66.05" font-family="Helvetica,sans-Serif" font-size="10.00">_info.h</text>
</a>
</g>
</g>
<!-- Node0&#45;&gt;Node15 -->
<g id="edge16" class="edge">
<title>Node0&#45;&gt;Node15</title>
<path fill="none" stroke="midnightblue" d="M850.26,-147.32C955.41,-137.75 1131.64,-119.24 1281.45,-91.55 1282.54,-91.35 1283.64,-91.14 1284.75,-90.92"/>
<polygon fill="midnightblue" stroke="midnightblue" points="1285.77,-94.29 1294.84,-88.81 1284.33,-87.44 1285.77,-94.29"/>
</g>
<!-- Node17 -->
<g id="node18" class="node">
<title>Node17</title>
<g id="a_node18"><a xlink:title=" ">
<polygon fill="white" stroke="#bfbfbf" points="1409.6,-65.05 1409.6,-85.05 1507.3,-85.05 1507.3,-65.05 1409.6,-65.05"/>
<text text-anchor="middle" x="1458.45" y="-72.05" font-family="Helvetica,sans-Serif" font-size="10.00">pybind11/numpy.h</text>
</a>
</g>
</g>
<!-- Node0&#45;&gt;Node17 -->
<g id="edge19" class="edge">
<title>Node0&#45;&gt;Node17</title>
<path fill="none" stroke="midnightblue" d="M850.21,-150.64C975.78,-143.58 1206.48,-126.81 1400.45,-91.55 1406.29,-90.49 1412.41,-89.13 1418.39,-87.66"/>
<polygon fill="midnightblue" stroke="midnightblue" points="1419.45,-91.01 1428.26,-85.12 1417.7,-84.23 1419.45,-91.01"/>
</g>
<!-- Node18 -->
<g id="node19" class="node">
<title>Node18</title>
<g id="a_node19"><a xlink:title=" ">
<polygon fill="white" stroke="#bfbfbf" points="1525.38,-65.05 1525.38,-85.05 1627.52,-85.05 1627.52,-65.05 1525.38,-65.05"/>
<text text-anchor="middle" x="1576.45" y="-72.05" font-family="Helvetica,sans-Serif" font-size="10.00">pybind11/stl_bind.h</text>
</a>
</g>
</g>
<!-- Node0&#45;&gt;Node18 -->
<g id="edge20" class="edge">
<title>Node0&#45;&gt;Node18</title>
<path fill="none" stroke="midnightblue" d="M850.38,-152.34C994.1,-147.01 1278.53,-131.94 1516.45,-91.55 1522.71,-90.49 1529.28,-89.09 1535.68,-87.57"/>
<polygon fill="midnightblue" stroke="midnightblue" points="1536.67,-90.93 1545.52,-85.11 1534.97,-84.14 1536.67,-90.93"/>
</g>
<!-- Node14&#45;&gt;Node14 -->
<g id="edge15" class="edge">
<title>Node14&#45;&gt;Node14</title>
<path fill="none" stroke="midnightblue" d="M1295.95,-22.11C1318.44,-26 1341.52,-22.65 1341.52,-12.05 1341.52,-3.03 1324.79,0.74 1305.93,-0.74"/>
<polygon fill="midnightblue" stroke="midnightblue" points="1305.44,2.72 1295.95,-1.99 1306.31,-4.22 1305.44,2.72"/>
</g>
<!-- Node15&#45;&gt;Node14 -->
<g id="edge18" class="edge">
<title>Node15&#45;&gt;Node14</title>
<path fill="none" stroke="midnightblue" d="M1324.66,-58.97C1313.06,-49.66 1298.21,-37.75 1286.55,-28.39"/>
<polygon fill="midnightblue" stroke="midnightblue" points="1288.71,-25.63 1278.72,-22.1 1284.33,-31.09 1288.71,-25.63"/>
</g>
<!-- Node16 -->
<g id="node17" class="node">
<title>Node16</title>
<g id="a_node17"><a xlink:title=" ">
<polygon fill="white" stroke="#bfbfbf" points="1359.94,-2.05 1359.94,-22.05 1480.96,-22.05 1480.96,-2.05 1359.94,-2.05"/>
<text text-anchor="middle" x="1420.45" y="-9.05" font-family="Helvetica,sans-Serif" font-size="10.00">fisch/vx/run_time_info.h</text>
</a>
</g>
</g>
<!-- Node15&#45;&gt;Node16 -->
<g id="edge17" class="edge">
<title>Node15&#45;&gt;Node16</title>
<path fill="none" stroke="midnightblue" d="M1362.48,-58.97C1374.24,-49.66 1389.28,-37.75 1401.09,-28.39"/>
<polygon fill="midnightblue" stroke="midnightblue" points="1403.36,-31.05 1409.03,-22.1 1399.02,-25.56 1403.36,-31.05"/>
</g>
</g>
</svg>
