<?xml version="1.0" encoding="UTF-8" standalone="no"?>
<!DOCTYPE svg PUBLIC "-//W3C//DTD SVG 1.1//EN"
 "http://www.w3.org/Graphics/SVG/1.1/DTD/svg11.dtd">
<!-- Generated by graphviz version 2.43.0 (0)
 -->
<!-- Title: /jenkins/jenlib_workspaces_f9/bld_nightly&#45;haldls.YmxkX25pZ2h0bHktaGFsZGxzIzcxMQ.x/haldls/include/stadls/vx/playback_program_builder.h Pages: 1 -->
<svg width="673pt" height="659pt"
 viewBox="0.00 0.00 673.24 659.00" xmlns="http://www.w3.org/2000/svg" xmlns:xlink="http://www.w3.org/1999/xlink">
<g id="graph0" class="graph" transform="scale(1 1) rotate(0) translate(4 655)">
<title>/jenkins/jenlib_workspaces_f9/bld_nightly&#45;haldls.YmxkX25pZ2h0bHktaGFsZGxzIzcxMQ.x/haldls/include/stadls/vx/playback_program_builder.h</title>
<polygon fill="white" stroke="transparent" points="-4,4 -4,-655 669.24,-655 669.24,4 -4,4"/>
<!-- Node28 -->
<g id="node1" class="node">
<title>Node28</title>
<g id="a_node1"><a xlink:title=" ">
<polygon fill="#bfbfbf" stroke="black" points="234,-582.5 234,-650.5 412.24,-650.5 412.24,-582.5 234,-582.5"/>
<text text-anchor="start" x="242" y="-637.5" font-family="Helvetica,sans-Serif" font-size="10.00">/jenkins/jenlib_workspaces</text>
<text text-anchor="start" x="242" y="-625.5" font-family="Helvetica,sans-Serif" font-size="10.00">_f9/bld_nightly&#45;haldls.YmxkX25p</text>
<text text-anchor="start" x="242" y="-613.5" font-family="Helvetica,sans-Serif" font-size="10.00">Z2h0bHktaGFsZGxzIzcxMQ.x/haldls</text>
<text text-anchor="start" x="242" y="-601.5" font-family="Helvetica,sans-Serif" font-size="10.00">/include/stadls/vx/playback_program</text>
<text text-anchor="middle" x="323.12" y="-589.5" font-family="Helvetica,sans-Serif" font-size="10.00">_builder.h</text>
</a>
</g>
</g>
<!-- Node29 -->
<g id="node2" class="node">
<title>Node29</title>
<g id="a_node2"><a xlink:href="stadls_8h.html" target="_top" xlink:title=" ">
<polygon fill="white" stroke="black" points="0,-489.5 0,-545.5 178.24,-545.5 178.24,-489.5 0,-489.5"/>
<text text-anchor="start" x="8" y="-532.5" font-family="Helvetica,sans-Serif" font-size="10.00">/jenkins/jenlib_workspaces</text>
<text text-anchor="start" x="8" y="-520.5" font-family="Helvetica,sans-Serif" font-size="10.00">_f9/bld_nightly&#45;haldls.YmxkX25p</text>
<text text-anchor="start" x="8" y="-508.5" font-family="Helvetica,sans-Serif" font-size="10.00">Z2h0bHktaGFsZGxzIzcxMQ.x/haldls</text>
<text text-anchor="middle" x="89.12" y="-496.5" font-family="Helvetica,sans-Serif" font-size="10.00">/include/stadls/vx/stadls.h</text>
</a>
</g>
</g>
<!-- Node28&#45;&gt;Node29 -->
<g id="edge1" class="edge">
<title>Node28&#45;&gt;Node29</title>
<path fill="none" stroke="midnightblue" d="M233.97,-578.54C207.47,-567.56 178.95,-555.74 154.29,-545.51"/>
<polygon fill="midnightblue" stroke="midnightblue" points="232.67,-581.79 243.24,-582.39 235.35,-575.33 232.67,-581.79"/>
</g>
<!-- Node30 -->
<g id="node3" class="node">
<title>Node30</title>
<g id="a_node3"><a xlink:href="v1_2dumper_8h.html" target="_top" xlink:title=" ">
<polygon fill="white" stroke="black" points="234,-489.5 234,-545.5 412.24,-545.5 412.24,-489.5 234,-489.5"/>
<text text-anchor="start" x="242" y="-532.5" font-family="Helvetica,sans-Serif" font-size="10.00">/jenkins/jenlib_workspaces</text>
<text text-anchor="start" x="242" y="-520.5" font-family="Helvetica,sans-Serif" font-size="10.00">_f9/bld_nightly&#45;haldls.YmxkX25p</text>
<text text-anchor="start" x="242" y="-508.5" font-family="Helvetica,sans-Serif" font-size="10.00">Z2h0bHktaGFsZGxzIzcxMQ.x/haldls</text>
<text text-anchor="middle" x="323.12" y="-496.5" font-family="Helvetica,sans-Serif" font-size="10.00">/include/stadls/vx/v1/dumper.h</text>
</a>
</g>
</g>
<!-- Node28&#45;&gt;Node30 -->
<g id="edge2" class="edge">
<title>Node28&#45;&gt;Node30</title>
<path fill="none" stroke="midnightblue" d="M323.12,-572.33C323.12,-563.27 323.12,-553.95 323.12,-545.67"/>
<polygon fill="midnightblue" stroke="midnightblue" points="319.62,-572.39 323.12,-582.39 326.62,-572.39 319.62,-572.39"/>
</g>
<!-- Node31 -->
<g id="node4" class="node">
<title>Node31</title>
<g id="a_node4"><a xlink:href="v1_2playback__program__builder_8h.html" target="_top" xlink:title=" ">
<polygon fill="white" stroke="black" points="117,-384.5 117,-452.5 295.24,-452.5 295.24,-384.5 117,-384.5"/>
<text text-anchor="start" x="125" y="-439.5" font-family="Helvetica,sans-Serif" font-size="10.00">/jenkins/jenlib_workspaces</text>
<text text-anchor="start" x="125" y="-427.5" font-family="Helvetica,sans-Serif" font-size="10.00">_f9/bld_nightly&#45;haldls.YmxkX25p</text>
<text text-anchor="start" x="125" y="-415.5" font-family="Helvetica,sans-Serif" font-size="10.00">Z2h0bHktaGFsZGxzIzcxMQ.x/haldls</text>
<text text-anchor="start" x="125" y="-403.5" font-family="Helvetica,sans-Serif" font-size="10.00">/include/stadls/vx/v1/playback</text>
<text text-anchor="middle" x="206.12" y="-391.5" font-family="Helvetica,sans-Serif" font-size="10.00">_program_builder.h</text>
</a>
</g>
</g>
<!-- Node28&#45;&gt;Node31 -->
<g id="edge12" class="edge">
<title>Node28&#45;&gt;Node31</title>
<path fill="none" stroke="midnightblue" d="M252.31,-576.11C241.78,-567.45 232.13,-557.4 225.12,-546 207.78,-517.82 204.19,-479.59 204.22,-452.55"/>
<polygon fill="midnightblue" stroke="midnightblue" points="250.45,-579.1 260.5,-582.46 254.74,-573.56 250.45,-579.1"/>
</g>
<!-- Node36 -->
<g id="node9" class="node">
<title>Node36</title>
<g id="a_node9"><a xlink:href="v2_2dumper_8h.html" target="_top" xlink:title=" ">
<polygon fill="white" stroke="black" points="468,-489.5 468,-545.5 646.24,-545.5 646.24,-489.5 468,-489.5"/>
<text text-anchor="start" x="476" y="-532.5" font-family="Helvetica,sans-Serif" font-size="10.00">/jenkins/jenlib_workspaces</text>
<text text-anchor="start" x="476" y="-520.5" font-family="Helvetica,sans-Serif" font-size="10.00">_f9/bld_nightly&#45;haldls.YmxkX25p</text>
<text text-anchor="start" x="476" y="-508.5" font-family="Helvetica,sans-Serif" font-size="10.00">Z2h0bHktaGFsZGxzIzcxMQ.x/haldls</text>
<text text-anchor="middle" x="557.12" y="-496.5" font-family="Helvetica,sans-Serif" font-size="10.00">/include/stadls/vx/v2/dumper.h</text>
</a>
</g>
</g>
<!-- Node28&#45;&gt;Node36 -->
<g id="edge13" class="edge">
<title>Node28&#45;&gt;Node36</title>
<path fill="none" stroke="midnightblue" d="M412.27,-578.54C438.77,-567.56 467.29,-555.74 491.95,-545.51"/>
<polygon fill="midnightblue" stroke="midnightblue" points="410.89,-575.33 402.99,-582.39 413.57,-581.79 410.89,-575.33"/>
</g>
<!-- Node37 -->
<g id="node10" class="node">
<title>Node37</title>
<g id="a_node10"><a xlink:href="v2_2playback__program__builder_8h.html" target="_top" xlink:title=" ">
<polygon fill="white" stroke="black" points="389,-384.5 389,-452.5 567.24,-452.5 567.24,-384.5 389,-384.5"/>
<text text-anchor="start" x="397" y="-439.5" font-family="Helvetica,sans-Serif" font-size="10.00">/jenkins/jenlib_workspaces</text>
<text text-anchor="start" x="397" y="-427.5" font-family="Helvetica,sans-Serif" font-size="10.00">_f9/bld_nightly&#45;haldls.YmxkX25p</text>
<text text-anchor="start" x="397" y="-415.5" font-family="Helvetica,sans-Serif" font-size="10.00">Z2h0bHktaGFsZGxzIzcxMQ.x/haldls</text>
<text text-anchor="start" x="397" y="-403.5" font-family="Helvetica,sans-Serif" font-size="10.00">/include/stadls/vx/v2/playback</text>
<text text-anchor="middle" x="478.12" y="-391.5" font-family="Helvetica,sans-Serif" font-size="10.00">_program_builder.h</text>
</a>
</g>
</g>
<!-- Node28&#45;&gt;Node37 -->
<g id="edge23" class="edge">
<title>Node28&#45;&gt;Node37</title>
<path fill="none" stroke="midnightblue" d="M388.72,-576.4C400.48,-567.42 411.91,-557.19 421.12,-546 444,-518.19 459.6,-479.72 468.61,-452.53"/>
<polygon fill="midnightblue" stroke="midnightblue" points="386.53,-573.66 380.55,-582.4 390.68,-579.3 386.53,-573.66"/>
</g>
<!-- Node30&#45;&gt;Node31 -->
<g id="edge3" class="edge">
<title>Node30&#45;&gt;Node31</title>
<path fill="none" stroke="midnightblue" d="M282.54,-482.86C270.72,-473.06 257.81,-462.36 246.03,-452.59"/>
<polygon fill="midnightblue" stroke="midnightblue" points="280.6,-485.79 290.53,-489.48 285.06,-480.4 280.6,-485.79"/>
</g>
<!-- Node34 -->
<g id="node7" class="node">
<title>Node34</title>
<g id="a_node7"><a xlink:href="v1_2stadls_8h.html" target="_top" xlink:title=" ">
<polygon fill="white" stroke="black" points="177,-93.5 177,-149.5 355.24,-149.5 355.24,-93.5 177,-93.5"/>
<text text-anchor="start" x="185" y="-136.5" font-family="Helvetica,sans-Serif" font-size="10.00">/jenkins/jenlib_workspaces</text>
<text text-anchor="start" x="185" y="-124.5" font-family="Helvetica,sans-Serif" font-size="10.00">_f9/bld_nightly&#45;haldls.YmxkX25p</text>
<text text-anchor="start" x="185" y="-112.5" font-family="Helvetica,sans-Serif" font-size="10.00">Z2h0bHktaGFsZGxzIzcxMQ.x/haldls</text>
<text text-anchor="middle" x="266.12" y="-100.5" font-family="Helvetica,sans-Serif" font-size="10.00">/include/stadls/vx/v1/stadls.h</text>
</a>
</g>
</g>
<!-- Node30&#45;&gt;Node34 -->
<g id="edge11" class="edge">
<title>Node30&#45;&gt;Node34</title>
<path fill="none" stroke="midnightblue" d="M323.48,-479.42C323.25,-417.62 319.28,-290.06 293.12,-186 290.02,-173.68 284.86,-160.68 279.88,-149.67"/>
<polygon fill="midnightblue" stroke="midnightblue" points="319.98,-479.47 323.48,-489.47 326.98,-479.47 319.98,-479.47"/>
</g>
<!-- Node32 -->
<g id="node5" class="node">
<title>Node32</title>
<g id="a_node5"><a xlink:href="v1_2playback__generator_8h.html" target="_top" xlink:title=" ">
<polygon fill="white" stroke="black" points="79,-279.5 79,-347.5 257.24,-347.5 257.24,-279.5 79,-279.5"/>
<text text-anchor="start" x="87" y="-334.5" font-family="Helvetica,sans-Serif" font-size="10.00">/jenkins/jenlib_workspaces</text>
<text text-anchor="start" x="87" y="-322.5" font-family="Helvetica,sans-Serif" font-size="10.00">_f9/bld_nightly&#45;haldls.YmxkX25p</text>
<text text-anchor="start" x="87" y="-310.5" font-family="Helvetica,sans-Serif" font-size="10.00">Z2h0bHktaGFsZGxzIzcxMQ.x/haldls</text>
<text text-anchor="start" x="87" y="-298.5" font-family="Helvetica,sans-Serif" font-size="10.00">/include/stadls/vx/v1/playback</text>
<text text-anchor="middle" x="168.12" y="-286.5" font-family="Helvetica,sans-Serif" font-size="10.00">_generator.h</text>
</a>
</g>
</g>
<!-- Node31&#45;&gt;Node32 -->
<g id="edge4" class="edge">
<title>Node31&#45;&gt;Node32</title>
<path fill="none" stroke="midnightblue" d="M190.33,-374.71C186.99,-365.66 183.51,-356.23 180.33,-347.59"/>
<polygon fill="midnightblue" stroke="midnightblue" points="187.14,-376.17 193.89,-384.34 193.71,-373.75 187.14,-376.17"/>
</g>
<!-- Node33 -->
<g id="node6" class="node">
<title>Node33</title>
<g id="a_node6"><a xlink:href="v1_2init__generator_8h.html" target="_top" xlink:title=" ">
<polygon fill="white" stroke="black" points="41,-186.5 41,-242.5 219.24,-242.5 219.24,-186.5 41,-186.5"/>
<text text-anchor="start" x="49" y="-229.5" font-family="Helvetica,sans-Serif" font-size="10.00">/jenkins/jenlib_workspaces</text>
<text text-anchor="start" x="49" y="-217.5" font-family="Helvetica,sans-Serif" font-size="10.00">_f9/bld_nightly&#45;haldls.YmxkX25p</text>
<text text-anchor="start" x="49" y="-205.5" font-family="Helvetica,sans-Serif" font-size="10.00">Z2h0bHktaGFsZGxzIzcxMQ.x/haldls</text>
<text text-anchor="middle" x="130.12" y="-193.5" font-family="Helvetica,sans-Serif" font-size="10.00">/include/stadls/vx/v1/init_generator.h</text>
</a>
</g>
</g>
<!-- Node31&#45;&gt;Node33 -->
<g id="edge9" class="edge">
<title>Node31&#45;&gt;Node33</title>
<path fill="none" stroke="midnightblue" d="M107.7,-384.16C92.73,-374.79 79.26,-362.94 70.12,-348 54.11,-321.84 58.79,-307.5 70.12,-279 75.56,-265.33 85.49,-252.9 95.73,-242.74"/>
<polygon fill="midnightblue" stroke="midnightblue" points="106.26,-387.37 116.66,-389.39 109.79,-381.33 106.26,-387.37"/>
</g>
<!-- Node31&#45;&gt;Node34 -->
<g id="edge10" class="edge">
<title>Node31&#45;&gt;Node34</title>
<path fill="none" stroke="midnightblue" d="M249.51,-376.6C256.31,-367.87 262.33,-358.18 266.12,-348 291.3,-280.3 280.18,-193.06 272.01,-149.6"/>
<polygon fill="midnightblue" stroke="midnightblue" points="246.78,-374.4 243.09,-384.34 252.17,-378.87 246.78,-374.4"/>
</g>
<!-- Node32&#45;&gt;Node33 -->
<g id="edge5" class="edge">
<title>Node32&#45;&gt;Node33</title>
<path fill="none" stroke="midnightblue" d="M151.44,-269.92C147.81,-260.67 144.08,-251.13 140.76,-242.67"/>
<polygon fill="midnightblue" stroke="midnightblue" points="148.24,-271.36 155.15,-279.39 154.76,-268.8 148.24,-271.36"/>
</g>
<!-- Node32&#45;&gt;Node34 -->
<g id="edge8" class="edge">
<title>Node32&#45;&gt;Node34</title>
<path fill="none" stroke="midnightblue" d="M208.15,-271.62C215.5,-262.67 222.59,-252.91 228.12,-243 244.79,-213.12 255.25,-174.91 260.88,-149.62"/>
<polygon fill="midnightblue" stroke="midnightblue" points="205.47,-269.36 201.65,-279.24 210.8,-273.9 205.47,-269.36"/>
</g>
<!-- Node33&#45;&gt;Node34 -->
<g id="edge6" class="edge">
<title>Node33&#45;&gt;Node34</title>
<path fill="none" stroke="midnightblue" d="M178.89,-180.86C194.2,-170.62 210.93,-159.43 225.6,-149.61"/>
<polygon fill="midnightblue" stroke="midnightblue" points="176.92,-177.97 170.56,-186.44 180.81,-183.79 176.92,-177.97"/>
</g>
<!-- Node35 -->
<g id="node8" class="node">
<title>Node35</title>
<g id="a_node8"><a xlink:href="v1_2pystadls_8h.html" target="_top" xlink:title=" ">
<polygon fill="white" stroke="black" points="177,-0.5 177,-56.5 355.24,-56.5 355.24,-0.5 177,-0.5"/>
<text text-anchor="start" x="185" y="-43.5" font-family="Helvetica,sans-Serif" font-size="10.00">/jenkins/jenlib_workspaces</text>
<text text-anchor="start" x="185" y="-31.5" font-family="Helvetica,sans-Serif" font-size="10.00">_f9/bld_nightly&#45;haldls.YmxkX25p</text>
<text text-anchor="start" x="185" y="-19.5" font-family="Helvetica,sans-Serif" font-size="10.00">Z2h0bHktaGFsZGxzIzcxMQ.x/haldls</text>
<text text-anchor="middle" x="266.12" y="-7.5" font-family="Helvetica,sans-Serif" font-size="10.00">/include/stadls/vx/v1/pystadls.h</text>
</a>
</g>
</g>
<!-- Node34&#45;&gt;Node35 -->
<g id="edge7" class="edge">
<title>Node34&#45;&gt;Node35</title>
<path fill="none" stroke="midnightblue" d="M266.12,-83.12C266.12,-74.3 266.12,-65.06 266.12,-56.78"/>
<polygon fill="midnightblue" stroke="midnightblue" points="262.62,-83.2 266.12,-93.2 269.62,-83.2 262.62,-83.2"/>
</g>
<!-- Node36&#45;&gt;Node37 -->
<g id="edge14" class="edge">
<title>Node36&#45;&gt;Node37</title>
<path fill="none" stroke="midnightblue" d="M528.8,-481.72C521.07,-472.24 512.72,-461.98 505.07,-452.59"/>
<polygon fill="midnightblue" stroke="midnightblue" points="526.08,-483.94 535.11,-489.48 531.51,-479.52 526.08,-483.94"/>
</g>
<!-- Node40 -->
<g id="node13" class="node">
<title>Node40</title>
<g id="a_node13"><a xlink:href="v2_2stadls_8h.html" target="_top" xlink:title=" ">
<polygon fill="white" stroke="black" points="487,-93.5 487,-149.5 665.24,-149.5 665.24,-93.5 487,-93.5"/>
<text text-anchor="start" x="495" y="-136.5" font-family="Helvetica,sans-Serif" font-size="10.00">/jenkins/jenlib_workspaces</text>
<text text-anchor="start" x="495" y="-124.5" font-family="Helvetica,sans-Serif" font-size="10.00">_f9/bld_nightly&#45;haldls.YmxkX25p</text>
<text text-anchor="start" x="495" y="-112.5" font-family="Helvetica,sans-Serif" font-size="10.00">Z2h0bHktaGFsZGxzIzcxMQ.x/haldls</text>
<text text-anchor="middle" x="576.12" y="-100.5" font-family="Helvetica,sans-Serif" font-size="10.00">/include/stadls/vx/v2/stadls.h</text>
</a>
</g>
</g>
<!-- Node36&#45;&gt;Node40 -->
<g id="edge22" class="edge">
<title>Node36&#45;&gt;Node40</title>
<path fill="none" stroke="midnightblue" d="M571.69,-479.61C593.96,-418.17 631.44,-291.25 607.12,-186 604.22,-173.45 598.48,-160.51 592.72,-149.62"/>
<polygon fill="midnightblue" stroke="midnightblue" points="568.31,-478.65 568.13,-489.24 574.88,-481.08 568.31,-478.65"/>
</g>
<!-- Node38 -->
<g id="node11" class="node">
<title>Node38</title>
<g id="a_node11"><a xlink:href="v2_2playback__generator_8h.html" target="_top" xlink:title=" ">
<polygon fill="white" stroke="black" points="389,-279.5 389,-347.5 567.24,-347.5 567.24,-279.5 389,-279.5"/>
<text text-anchor="start" x="397" y="-334.5" font-family="Helvetica,sans-Serif" font-size="10.00">/jenkins/jenlib_workspaces</text>
<text text-anchor="start" x="397" y="-322.5" font-family="Helvetica,sans-Serif" font-size="10.00">_f9/bld_nightly&#45;haldls.YmxkX25p</text>
<text text-anchor="start" x="397" y="-310.5" font-family="Helvetica,sans-Serif" font-size="10.00">Z2h0bHktaGFsZGxzIzcxMQ.x/haldls</text>
<text text-anchor="start" x="397" y="-298.5" font-family="Helvetica,sans-Serif" font-size="10.00">/include/stadls/vx/v2/playback</text>
<text text-anchor="middle" x="478.12" y="-286.5" font-family="Helvetica,sans-Serif" font-size="10.00">_generator.h</text>
</a>
</g>
</g>
<!-- Node37&#45;&gt;Node38 -->
<g id="edge15" class="edge">
<title>Node37&#45;&gt;Node38</title>
<path fill="none" stroke="midnightblue" d="M478.12,-374.14C478.12,-365.26 478.12,-356.04 478.12,-347.59"/>
<polygon fill="midnightblue" stroke="midnightblue" points="474.62,-374.34 478.12,-384.34 481.62,-374.34 474.62,-374.34"/>
</g>
<!-- Node39 -->
<g id="node12" class="node">
<title>Node39</title>
<g id="a_node12"><a xlink:href="v2_2init__generator_8h.html" target="_top" xlink:title=" ">
<polygon fill="white" stroke="black" points="351,-186.5 351,-242.5 529.24,-242.5 529.24,-186.5 351,-186.5"/>
<text text-anchor="start" x="359" y="-229.5" font-family="Helvetica,sans-Serif" font-size="10.00">/jenkins/jenlib_workspaces</text>
<text text-anchor="start" x="359" y="-217.5" font-family="Helvetica,sans-Serif" font-size="10.00">_f9/bld_nightly&#45;haldls.YmxkX25p</text>
<text text-anchor="start" x="359" y="-205.5" font-family="Helvetica,sans-Serif" font-size="10.00">Z2h0bHktaGFsZGxzIzcxMQ.x/haldls</text>
<text text-anchor="middle" x="440.12" y="-193.5" font-family="Helvetica,sans-Serif" font-size="10.00">/include/stadls/vx/v2/init_generator.h</text>
</a>
</g>
</g>
<!-- Node37&#45;&gt;Node39 -->
<g id="edge20" class="edge">
<title>Node37&#45;&gt;Node39</title>
<path fill="none" stroke="midnightblue" d="M404.88,-378.11C394.91,-369.54 386.07,-359.52 380.12,-348 366.04,-320.76 368.79,-307.5 380.12,-279 385.56,-265.33 395.49,-252.9 405.73,-242.74"/>
<polygon fill="midnightblue" stroke="midnightblue" points="402.71,-380.86 412.7,-384.39 407.09,-375.4 402.71,-380.86"/>
</g>
<!-- Node37&#45;&gt;Node40 -->
<g id="edge21" class="edge">
<title>Node37&#45;&gt;Node40</title>
<path fill="none" stroke="midnightblue" d="M551.36,-378.11C561.33,-369.54 570.17,-359.52 576.12,-348 609.46,-283.48 594.48,-194.06 583.7,-149.71"/>
<polygon fill="midnightblue" stroke="midnightblue" points="549.15,-375.4 543.54,-384.39 553.53,-380.86 549.15,-375.4"/>
</g>
<!-- Node38&#45;&gt;Node39 -->
<g id="edge16" class="edge">
<title>Node38&#45;&gt;Node39</title>
<path fill="none" stroke="midnightblue" d="M461.44,-269.92C457.81,-260.67 454.08,-251.13 450.76,-242.67"/>
<polygon fill="midnightblue" stroke="midnightblue" points="458.24,-271.36 465.15,-279.39 464.76,-268.8 458.24,-271.36"/>
</g>
<!-- Node38&#45;&gt;Node40 -->
<g id="edge19" class="edge">
<title>Node38&#45;&gt;Node40</title>
<path fill="none" stroke="midnightblue" d="M518.15,-271.62C525.5,-262.67 532.59,-252.91 538.12,-243 554.79,-213.12 565.25,-174.91 570.88,-149.62"/>
<polygon fill="midnightblue" stroke="midnightblue" points="515.47,-269.36 511.65,-279.24 520.8,-273.9 515.47,-269.36"/>
</g>
<!-- Node39&#45;&gt;Node40 -->
<g id="edge17" class="edge">
<title>Node39&#45;&gt;Node40</title>
<path fill="none" stroke="midnightblue" d="M488.89,-180.86C504.2,-170.62 520.93,-159.43 535.6,-149.61"/>
<polygon fill="midnightblue" stroke="midnightblue" points="486.92,-177.97 480.56,-186.44 490.81,-183.79 486.92,-177.97"/>
</g>
<!-- Node41 -->
<g id="node14" class="node">
<title>Node41</title>
<g id="a_node14"><a xlink:href="v2_2pystadls_8h.html" target="_top" xlink:title=" ">
<polygon fill="white" stroke="black" points="487,-0.5 487,-56.5 665.24,-56.5 665.24,-0.5 487,-0.5"/>
<text text-anchor="start" x="495" y="-43.5" font-family="Helvetica,sans-Serif" font-size="10.00">/jenkins/jenlib_workspaces</text>
<text text-anchor="start" x="495" y="-31.5" font-family="Helvetica,sans-Serif" font-size="10.00">_f9/bld_nightly&#45;haldls.YmxkX25p</text>
<text text-anchor="start" x="495" y="-19.5" font-family="Helvetica,sans-Serif" font-size="10.00">Z2h0bHktaGFsZGxzIzcxMQ.x/haldls</text>
<text text-anchor="middle" x="576.12" y="-7.5" font-family="Helvetica,sans-Serif" font-size="10.00">/include/stadls/vx/v2/pystadls.h</text>
</a>
</g>
</g>
<!-- Node40&#45;&gt;Node41 -->
<g id="edge18" class="edge">
<title>Node40&#45;&gt;Node41</title>
<path fill="none" stroke="midnightblue" d="M576.12,-83.12C576.12,-74.3 576.12,-65.06 576.12,-56.78"/>
<polygon fill="midnightblue" stroke="midnightblue" points="572.62,-83.2 576.12,-93.2 579.62,-83.2 572.62,-83.2"/>
</g>
</g>
</svg>
