<?xml version="1.0" encoding="UTF-8" standalone="no"?>
<!DOCTYPE svg PUBLIC "-//W3C//DTD SVG 1.1//EN"
 "http://www.w3.org/Graphics/SVG/1.1/DTD/svg11.dtd">
<!-- Generated by graphviz version 2.43.0 (0)
 -->
<!-- Title: /jenkins/jenlib_workspaces_f9/bld_nightly&#45;haldls.YmxkX25pZ2h0bHktaGFsZGxzIzQ5Nw.x/haldls/include/stadls/vx/playback_program_executor.h Pages: 1 -->
<svg width="308pt" height="139pt"
 viewBox="0.00 0.00 308.12 138.58" xmlns="http://www.w3.org/2000/svg" xmlns:xlink="http://www.w3.org/1999/xlink">
<g id="graph0" class="graph" transform="scale(1 1) rotate(0) translate(4 134.58)">
<title>/jenkins/jenlib_workspaces_f9/bld_nightly&#45;haldls.YmxkX25pZ2h0bHktaGFsZGxzIzQ5Nw.x/haldls/include/stadls/vx/playback_program_executor.h</title>
<polygon fill="white" stroke="transparent" points="-4,4 -4,-134.58 304.12,-134.58 304.12,4 -4,4"/>
<!-- Node0 -->
<g id="node1" class="node">
<title>Node0</title>
<g id="a_node1"><a xlink:title=" ">
<polygon fill="#bfbfbf" stroke="black" points="21.1,-62.08 21.1,-130.08 201.01,-130.08 201.01,-62.08 21.1,-62.08"/>
<text text-anchor="start" x="29.1" y="-117.08" font-family="Helvetica,sans-Serif" font-size="10.00">/jenkins/jenlib_workspaces</text>
<text text-anchor="start" x="29.1" y="-105.08" font-family="Helvetica,sans-Serif" font-size="10.00">_f9/bld_nightly&#45;haldls.YmxkX25p</text>
<text text-anchor="start" x="29.1" y="-93.08" font-family="Helvetica,sans-Serif" font-size="10.00">Z2h0bHktaGFsZGxzIzQ5Nw.x/haldls</text>
<text text-anchor="start" x="29.1" y="-81.08" font-family="Helvetica,sans-Serif" font-size="10.00">/include/stadls/vx/playback_program</text>
<text text-anchor="middle" x="111.05" y="-69.08" font-family="Helvetica,sans-Serif" font-size="10.00">_executor.h</text>
</a>
</g>
</g>
<!-- Node1 -->
<g id="node2" class="node">
<title>Node1</title>
<g id="a_node2"><a xlink:title=" ">
<polygon fill="white" stroke="#bfbfbf" points="0,-5.08 0,-25.08 52.1,-25.08 52.1,-5.08 0,-5.08"/>
<text text-anchor="middle" x="26.05" y="-12.08" font-family="Helvetica,sans-Serif" font-size="10.00">memory</text>
</a>
</g>
</g>
<!-- Node0&#45;&gt;Node1 -->
<g id="edge1" class="edge">
<title>Node0&#45;&gt;Node1</title>
<path fill="none" stroke="midnightblue" d="M75.5,-62.03C64.38,-51.7 52.61,-40.76 43.34,-32.15"/>
<polygon fill="midnightblue" stroke="midnightblue" points="45.63,-29.5 35.92,-25.25 40.86,-34.62 45.63,-29.5"/>
</g>
<!-- Node2 -->
<g id="node3" class="node">
<title>Node2</title>
<g id="a_node3"><a xlink:title=" ">
<polygon fill="white" stroke="#bfbfbf" points="70.55,-5.08 70.55,-25.08 151.56,-25.08 151.56,-5.08 70.55,-5.08"/>
<text text-anchor="middle" x="111.05" y="-12.08" font-family="Helvetica,sans-Serif" font-size="10.00">hate/visibility.h</text>
</a>
</g>
</g>
<!-- Node0&#45;&gt;Node2 -->
<g id="edge2" class="edge">
<title>Node0&#45;&gt;Node2</title>
<path fill="none" stroke="midnightblue" d="M111.05,-62.03C111.05,-52.95 111.05,-43.4 111.05,-35.38"/>
<polygon fill="midnightblue" stroke="midnightblue" points="114.55,-35.25 111.05,-25.25 107.55,-35.25 114.55,-35.25"/>
</g>
<!-- Node3 -->
<g id="node4" class="node">
<title>Node3</title>
<g id="a_node4"><a xlink:href="vx_2genpybind_8h.html" target="_top" xlink:title=" ">
<polygon fill="white" stroke="black" points="169.98,-5.08 169.98,-25.08 282.12,-25.08 282.12,-5.08 169.98,-5.08"/>
<text text-anchor="middle" x="226.05" y="-12.08" font-family="Helvetica,sans-Serif" font-size="10.00">stadls/vx/genpybind.h</text>
</a>
</g>
</g>
<!-- Node0&#45;&gt;Node3 -->
<g id="edge3" class="edge">
<title>Node0&#45;&gt;Node3</title>
<path fill="none" stroke="midnightblue" d="M159.16,-62.03C174.91,-51.21 191.62,-39.73 204.41,-30.95"/>
<polygon fill="midnightblue" stroke="midnightblue" points="206.69,-33.63 212.95,-25.08 202.72,-27.86 206.69,-33.63"/>
</g>
<!-- Node3&#45;&gt;Node3 -->
<g id="edge4" class="edge">
<title>Node3&#45;&gt;Node3</title>
<path fill="none" stroke="midnightblue" d="M244.65,-25.2C269.68,-34.16 300.12,-30.78 300.12,-15.08 300.12,-1.4 277.02,2.92 254.52,-2.11"/>
<polygon fill="midnightblue" stroke="midnightblue" points="253.29,1.18 244.65,-4.96 255.23,-5.55 253.29,1.18"/>
</g>
</g>
</svg>
