<?xml version="1.0" encoding="UTF-8" standalone="no"?>
<!DOCTYPE svg PUBLIC "-//W3C//DTD SVG 1.1//EN"
 "http://www.w3.org/Graphics/SVG/1.1/DTD/svg11.dtd">
<!-- Generated by graphviz version 2.43.0 (0)
 -->
<!-- Title: /jenkins/jenlib_workspaces_f9/bld_nightly&#45;haldls.YmxkX25pZ2h0bHktaGFsZGxzIzcxMQ.x/haldls/include/stadls/vx/playback_program.h Pages: 1 -->
<svg width="815pt" height="857pt"
 viewBox="0.00 0.00 815.24 857.00" xmlns="http://www.w3.org/2000/svg" xmlns:xlink="http://www.w3.org/1999/xlink">
<g id="graph0" class="graph" transform="scale(1 1) rotate(0) translate(4 853)">
<title>/jenkins/jenlib_workspaces_f9/bld_nightly&#45;haldls.YmxkX25pZ2h0bHktaGFsZGxzIzcxMQ.x/haldls/include/stadls/vx/playback_program.h</title>
<polygon fill="white" stroke="transparent" points="-4,4 -4,-853 811.24,-853 811.24,4 -4,4"/>
<!-- Node19 -->
<g id="node1" class="node">
<title>Node19</title>
<g id="a_node1"><a xlink:title=" ">
<polygon fill="#bfbfbf" stroke="black" points="355.38,-792.5 355.38,-848.5 540.86,-848.5 540.86,-792.5 355.38,-792.5"/>
<text text-anchor="start" x="363.38" y="-835.5" font-family="Helvetica,sans-Serif" font-size="10.00">/jenkins/jenlib_workspaces</text>
<text text-anchor="start" x="363.38" y="-823.5" font-family="Helvetica,sans-Serif" font-size="10.00">_f9/bld_nightly&#45;haldls.YmxkX25p</text>
<text text-anchor="start" x="363.38" y="-811.5" font-family="Helvetica,sans-Serif" font-size="10.00">Z2h0bHktaGFsZGxzIzcxMQ.x/haldls</text>
<text text-anchor="middle" x="448.12" y="-799.5" font-family="Helvetica,sans-Serif" font-size="10.00">/include/stadls/vx/playback_program.h</text>
</a>
</g>
</g>
<!-- Node20 -->
<g id="node2" class="node">
<title>Node20</title>
<g id="a_node2"><a xlink:href="dumper_8h.html" target="_top" xlink:title=" ">
<polygon fill="white" stroke="black" points="242,-693.5 242,-749.5 420.24,-749.5 420.24,-693.5 242,-693.5"/>
<text text-anchor="start" x="250" y="-736.5" font-family="Helvetica,sans-Serif" font-size="10.00">/jenkins/jenlib_workspaces</text>
<text text-anchor="start" x="250" y="-724.5" font-family="Helvetica,sans-Serif" font-size="10.00">_f9/bld_nightly&#45;haldls.YmxkX25p</text>
<text text-anchor="start" x="250" y="-712.5" font-family="Helvetica,sans-Serif" font-size="10.00">Z2h0bHktaGFsZGxzIzcxMQ.x/haldls</text>
<text text-anchor="middle" x="331.12" y="-700.5" font-family="Helvetica,sans-Serif" font-size="10.00">/include/stadls/vx/dumper.h</text>
</a>
</g>
</g>
<!-- Node19&#45;&gt;Node20 -->
<g id="edge1" class="edge">
<title>Node19&#45;&gt;Node20</title>
<path fill="none" stroke="midnightblue" d="M407.77,-786.05C393.46,-774.19 377.55,-760.99 363.94,-749.71"/>
<polygon fill="midnightblue" stroke="midnightblue" points="405.6,-788.79 415.53,-792.48 410.06,-783.4 405.6,-788.79"/>
</g>
<!-- Node21 -->
<g id="node3" class="node">
<title>Node21</title>
<g id="a_node3"><a xlink:href="playback__program__builder_8h.html" target="_top" xlink:title=" ">
<polygon fill="white" stroke="black" points="359,-582.5 359,-650.5 537.24,-650.5 537.24,-582.5 359,-582.5"/>
<text text-anchor="start" x="367" y="-637.5" font-family="Helvetica,sans-Serif" font-size="10.00">/jenkins/jenlib_workspaces</text>
<text text-anchor="start" x="367" y="-625.5" font-family="Helvetica,sans-Serif" font-size="10.00">_f9/bld_nightly&#45;haldls.YmxkX25p</text>
<text text-anchor="start" x="367" y="-613.5" font-family="Helvetica,sans-Serif" font-size="10.00">Z2h0bHktaGFsZGxzIzcxMQ.x/haldls</text>
<text text-anchor="start" x="367" y="-601.5" font-family="Helvetica,sans-Serif" font-size="10.00">/include/stadls/vx/playback_program</text>
<text text-anchor="middle" x="448.12" y="-589.5" font-family="Helvetica,sans-Serif" font-size="10.00">_builder.h</text>
</a>
</g>
</g>
<!-- Node19&#45;&gt;Node21 -->
<g id="edge28" class="edge">
<title>Node19&#45;&gt;Node21</title>
<path fill="none" stroke="midnightblue" d="M448.12,-782.19C448.12,-744.5 448.12,-686.81 448.12,-650.67"/>
<polygon fill="midnightblue" stroke="midnightblue" points="444.62,-782.26 448.12,-792.26 451.62,-782.26 444.62,-782.26"/>
</g>
<!-- Node22 -->
<g id="node4" class="node">
<title>Node22</title>
<g id="a_node4"><a xlink:href="stadls_8h.html" target="_top" xlink:title=" ">
<polygon fill="white" stroke="black" points="527,-489.5 527,-545.5 705.24,-545.5 705.24,-489.5 527,-489.5"/>
<text text-anchor="start" x="535" y="-532.5" font-family="Helvetica,sans-Serif" font-size="10.00">/jenkins/jenlib_workspaces</text>
<text text-anchor="start" x="535" y="-520.5" font-family="Helvetica,sans-Serif" font-size="10.00">_f9/bld_nightly&#45;haldls.YmxkX25p</text>
<text text-anchor="start" x="535" y="-508.5" font-family="Helvetica,sans-Serif" font-size="10.00">Z2h0bHktaGFsZGxzIzcxMQ.x/haldls</text>
<text text-anchor="middle" x="616.12" y="-496.5" font-family="Helvetica,sans-Serif" font-size="10.00">/include/stadls/vx/stadls.h</text>
</a>
</g>
</g>
<!-- Node19&#45;&gt;Node22 -->
<g id="edge29" class="edge">
<title>Node19&#45;&gt;Node22</title>
<path fill="none" stroke="midnightblue" d="M469.55,-783.62C489.7,-749.67 520.5,-697.18 546.12,-651 566.18,-614.83 588.33,-572.47 602.23,-545.57"/>
<polygon fill="midnightblue" stroke="midnightblue" points="466.52,-781.88 464.42,-792.26 472.54,-785.45 466.52,-781.88"/>
</g>
<!-- Node35 -->
<g id="node17" class="node">
<title>Node35</title>
<g id="a_node17"><a xlink:href="v1_2playback__program_8h.html" target="_top" xlink:title=" ">
<polygon fill="white" stroke="black" points="0,-582.5 0,-650.5 178.24,-650.5 178.24,-582.5 0,-582.5"/>
<text text-anchor="start" x="8" y="-637.5" font-family="Helvetica,sans-Serif" font-size="10.00">/jenkins/jenlib_workspaces</text>
<text text-anchor="start" x="8" y="-625.5" font-family="Helvetica,sans-Serif" font-size="10.00">_f9/bld_nightly&#45;haldls.YmxkX25p</text>
<text text-anchor="start" x="8" y="-613.5" font-family="Helvetica,sans-Serif" font-size="10.00">Z2h0bHktaGFsZGxzIzcxMQ.x/haldls</text>
<text text-anchor="start" x="8" y="-601.5" font-family="Helvetica,sans-Serif" font-size="10.00">/include/stadls/vx/v1/playback</text>
<text text-anchor="middle" x="89.12" y="-589.5" font-family="Helvetica,sans-Serif" font-size="10.00">_program.h</text>
</a>
</g>
</g>
<!-- Node19&#45;&gt;Node35 -->
<g id="edge30" class="edge">
<title>Node19&#45;&gt;Node35</title>
<path fill="none" stroke="midnightblue" d="M345.46,-799.84C308.46,-790.06 267.4,-775.93 233.12,-756 185.74,-728.46 141.99,-682.16 115.44,-650.74"/>
<polygon fill="midnightblue" stroke="midnightblue" points="344.72,-803.26 355.28,-802.36 346.46,-796.48 344.72,-803.26"/>
</g>
<!-- Node36 -->
<g id="node18" class="node">
<title>Node36</title>
<g id="a_node18"><a xlink:href="v2_2playback__program_8h.html" target="_top" xlink:title=" ">
<polygon fill="white" stroke="black" points="629,-687.5 629,-755.5 807.24,-755.5 807.24,-687.5 629,-687.5"/>
<text text-anchor="start" x="637" y="-742.5" font-family="Helvetica,sans-Serif" font-size="10.00">/jenkins/jenlib_workspaces</text>
<text text-anchor="start" x="637" y="-730.5" font-family="Helvetica,sans-Serif" font-size="10.00">_f9/bld_nightly&#45;haldls.YmxkX25p</text>
<text text-anchor="start" x="637" y="-718.5" font-family="Helvetica,sans-Serif" font-size="10.00">Z2h0bHktaGFsZGxzIzcxMQ.x/haldls</text>
<text text-anchor="start" x="637" y="-706.5" font-family="Helvetica,sans-Serif" font-size="10.00">/include/stadls/vx/v2/playback</text>
<text text-anchor="middle" x="718.12" y="-694.5" font-family="Helvetica,sans-Serif" font-size="10.00">_program.h</text>
</a>
</g>
</g>
<!-- Node19&#45;&gt;Node36 -->
<g id="edge32" class="edge">
<title>Node19&#45;&gt;Node36</title>
<path fill="none" stroke="midnightblue" d="M533.09,-788.97C563.6,-778.01 598.09,-765.62 628.96,-754.53"/>
<polygon fill="midnightblue" stroke="midnightblue" points="531.56,-785.81 523.33,-792.48 533.92,-792.39 531.56,-785.81"/>
</g>
<!-- Node20&#45;&gt;Node21 -->
<g id="edge2" class="edge">
<title>Node20&#45;&gt;Node21</title>
<path fill="none" stroke="midnightblue" d="M369.42,-686.78C382.61,-675.17 397.35,-662.19 410.49,-650.63"/>
<polygon fill="midnightblue" stroke="midnightblue" points="367.05,-684.2 361.86,-693.44 371.68,-689.46 367.05,-684.2"/>
</g>
<!-- Node23 -->
<g id="node5" class="node">
<title>Node23</title>
<g id="a_node5"><a xlink:href="v1_2dumper_8h.html" target="_top" xlink:title=" ">
<polygon fill="white" stroke="black" points="59,-489.5 59,-545.5 237.24,-545.5 237.24,-489.5 59,-489.5"/>
<text text-anchor="start" x="67" y="-532.5" font-family="Helvetica,sans-Serif" font-size="10.00">/jenkins/jenlib_workspaces</text>
<text text-anchor="start" x="67" y="-520.5" font-family="Helvetica,sans-Serif" font-size="10.00">_f9/bld_nightly&#45;haldls.YmxkX25p</text>
<text text-anchor="start" x="67" y="-508.5" font-family="Helvetica,sans-Serif" font-size="10.00">Z2h0bHktaGFsZGxzIzcxMQ.x/haldls</text>
<text text-anchor="middle" x="148.12" y="-496.5" font-family="Helvetica,sans-Serif" font-size="10.00">/include/stadls/vx/v1/dumper.h</text>
</a>
</g>
</g>
<!-- Node20&#45;&gt;Node23 -->
<g id="edge26" class="edge">
<title>Node20&#45;&gt;Node23</title>
<path fill="none" stroke="midnightblue" d="M299.55,-685.65C263.56,-645.93 205.48,-581.82 172.7,-545.63"/>
<polygon fill="midnightblue" stroke="midnightblue" points="297.13,-688.2 306.44,-693.26 302.32,-683.5 297.13,-688.2"/>
</g>
<!-- Node29 -->
<g id="node11" class="node">
<title>Node29</title>
<g id="a_node11"><a xlink:href="v2_2dumper_8h.html" target="_top" xlink:title=" ">
<polygon fill="white" stroke="black" points="293,-489.5 293,-545.5 471.24,-545.5 471.24,-489.5 293,-489.5"/>
<text text-anchor="start" x="301" y="-532.5" font-family="Helvetica,sans-Serif" font-size="10.00">/jenkins/jenlib_workspaces</text>
<text text-anchor="start" x="301" y="-520.5" font-family="Helvetica,sans-Serif" font-size="10.00">_f9/bld_nightly&#45;haldls.YmxkX25p</text>
<text text-anchor="start" x="301" y="-508.5" font-family="Helvetica,sans-Serif" font-size="10.00">Z2h0bHktaGFsZGxzIzcxMQ.x/haldls</text>
<text text-anchor="middle" x="382.12" y="-496.5" font-family="Helvetica,sans-Serif" font-size="10.00">/include/stadls/vx/v2/dumper.h</text>
</a>
</g>
</g>
<!-- Node20&#45;&gt;Node29 -->
<g id="edge27" class="edge">
<title>Node20&#45;&gt;Node29</title>
<path fill="none" stroke="midnightblue" d="M332.9,-683.12C335.05,-654.83 339.76,-615.29 350.12,-582 353.97,-569.62 360.04,-556.72 365.87,-545.8"/>
<polygon fill="midnightblue" stroke="midnightblue" points="329.39,-683.16 332.2,-693.38 336.37,-683.64 329.39,-683.16"/>
</g>
<!-- Node21&#45;&gt;Node22 -->
<g id="edge3" class="edge">
<title>Node21&#45;&gt;Node22</title>
<path fill="none" stroke="midnightblue" d="M514.38,-577.24C532.75,-566.63 552.32,-555.34 569.33,-545.51"/>
<polygon fill="midnightblue" stroke="midnightblue" points="512.38,-574.36 505.47,-582.39 515.88,-580.42 512.38,-574.36"/>
</g>
<!-- Node21&#45;&gt;Node23 -->
<g id="edge4" class="edge">
<title>Node21&#45;&gt;Node23</title>
<path fill="none" stroke="midnightblue" d="M349.37,-583.57C311.34,-571.27 268.31,-557.36 231.84,-545.57"/>
<polygon fill="midnightblue" stroke="midnightblue" points="348.33,-586.91 358.92,-586.66 350.48,-580.25 348.33,-586.91"/>
</g>
<!-- Node24 -->
<g id="node6" class="node">
<title>Node24</title>
<g id="a_node6"><a xlink:href="v1_2playback__program__builder_8h.html" target="_top" xlink:title=" ">
<polygon fill="white" stroke="black" points="137,-384.5 137,-452.5 315.24,-452.5 315.24,-384.5 137,-384.5"/>
<text text-anchor="start" x="145" y="-439.5" font-family="Helvetica,sans-Serif" font-size="10.00">/jenkins/jenlib_workspaces</text>
<text text-anchor="start" x="145" y="-427.5" font-family="Helvetica,sans-Serif" font-size="10.00">_f9/bld_nightly&#45;haldls.YmxkX25p</text>
<text text-anchor="start" x="145" y="-415.5" font-family="Helvetica,sans-Serif" font-size="10.00">Z2h0bHktaGFsZGxzIzcxMQ.x/haldls</text>
<text text-anchor="start" x="145" y="-403.5" font-family="Helvetica,sans-Serif" font-size="10.00">/include/stadls/vx/v1/playback</text>
<text text-anchor="middle" x="226.12" y="-391.5" font-family="Helvetica,sans-Serif" font-size="10.00">_program_builder.h</text>
</a>
</g>
</g>
<!-- Node21&#45;&gt;Node24 -->
<g id="edge14" class="edge">
<title>Node21&#45;&gt;Node24</title>
<path fill="none" stroke="midnightblue" d="M349.49,-587.51C325.98,-577.33 302.43,-563.78 284.12,-546 257.78,-520.41 242.27,-480.61 234.02,-452.5"/>
<polygon fill="midnightblue" stroke="midnightblue" points="348.26,-590.79 358.84,-591.39 350.95,-584.33 348.26,-590.79"/>
</g>
<!-- Node21&#45;&gt;Node29 -->
<g id="edge15" class="edge">
<title>Node21&#45;&gt;Node29</title>
<path fill="none" stroke="midnightblue" d="M419.94,-574.08C413.4,-564.47 406.6,-554.48 400.61,-545.67"/>
<polygon fill="midnightblue" stroke="midnightblue" points="417.07,-576.09 425.59,-582.39 422.86,-572.15 417.07,-576.09"/>
</g>
<!-- Node30 -->
<g id="node12" class="node">
<title>Node30</title>
<g id="a_node12"><a xlink:href="v2_2playback__program__builder_8h.html" target="_top" xlink:title=" ">
<polygon fill="white" stroke="black" points="410,-384.5 410,-452.5 588.24,-452.5 588.24,-384.5 410,-384.5"/>
<text text-anchor="start" x="418" y="-439.5" font-family="Helvetica,sans-Serif" font-size="10.00">/jenkins/jenlib_workspaces</text>
<text text-anchor="start" x="418" y="-427.5" font-family="Helvetica,sans-Serif" font-size="10.00">_f9/bld_nightly&#45;haldls.YmxkX25p</text>
<text text-anchor="start" x="418" y="-415.5" font-family="Helvetica,sans-Serif" font-size="10.00">Z2h0bHktaGFsZGxzIzcxMQ.x/haldls</text>
<text text-anchor="start" x="418" y="-403.5" font-family="Helvetica,sans-Serif" font-size="10.00">/include/stadls/vx/v2/playback</text>
<text text-anchor="middle" x="499.12" y="-391.5" font-family="Helvetica,sans-Serif" font-size="10.00">_program_builder.h</text>
</a>
</g>
</g>
<!-- Node21&#45;&gt;Node30 -->
<g id="edge25" class="edge">
<title>Node21&#45;&gt;Node30</title>
<path fill="none" stroke="midnightblue" d="M469.95,-573.04C473.81,-564.27 477.44,-554.97 480.12,-546 489.37,-515.04 494.24,-478.41 496.72,-452.55"/>
<polygon fill="midnightblue" stroke="midnightblue" points="466.69,-571.76 465.72,-582.31 473.06,-574.67 466.69,-571.76"/>
</g>
<!-- Node23&#45;&gt;Node24 -->
<g id="edge5" class="edge">
<title>Node23&#45;&gt;Node24</title>
<path fill="none" stroke="midnightblue" d="M176.31,-481.44C183.88,-472.03 192.03,-461.89 199.51,-452.59"/>
<polygon fill="midnightblue" stroke="midnightblue" points="173.39,-479.49 169.85,-489.48 178.84,-483.88 173.39,-479.49"/>
</g>
<!-- Node27 -->
<g id="node9" class="node">
<title>Node27</title>
<g id="a_node9"><a xlink:href="v1_2stadls_8h.html" target="_top" xlink:title=" ">
<polygon fill="white" stroke="black" points="20,-93.5 20,-149.5 198.24,-149.5 198.24,-93.5 20,-93.5"/>
<text text-anchor="start" x="28" y="-136.5" font-family="Helvetica,sans-Serif" font-size="10.00">/jenkins/jenlib_workspaces</text>
<text text-anchor="start" x="28" y="-124.5" font-family="Helvetica,sans-Serif" font-size="10.00">_f9/bld_nightly&#45;haldls.YmxkX25p</text>
<text text-anchor="start" x="28" y="-112.5" font-family="Helvetica,sans-Serif" font-size="10.00">Z2h0bHktaGFsZGxzIzcxMQ.x/haldls</text>
<text text-anchor="middle" x="109.12" y="-100.5" font-family="Helvetica,sans-Serif" font-size="10.00">/include/stadls/vx/v1/stadls.h</text>
</a>
</g>
</g>
<!-- Node23&#45;&gt;Node27 -->
<g id="edge13" class="edge">
<title>Node23&#45;&gt;Node27</title>
<path fill="none" stroke="midnightblue" d="M136.14,-479.84C133.4,-471.08 130.57,-461.73 128.12,-453 115.11,-406.72 109.3,-395.54 102.12,-348 95.14,-301.78 97.45,-289.72 96.12,-243 95.4,-217.68 93.57,-211.2 96.12,-186 97.34,-173.91 99.85,-160.72 102.34,-149.51"/>
<polygon fill="midnightblue" stroke="midnightblue" points="132.82,-480.94 139.18,-489.42 139.5,-478.83 132.82,-480.94"/>
</g>
<!-- Node25 -->
<g id="node7" class="node">
<title>Node25</title>
<g id="a_node7"><a xlink:href="v1_2playback__generator_8h.html" target="_top" xlink:title=" ">
<polygon fill="white" stroke="black" points="137,-279.5 137,-347.5 315.24,-347.5 315.24,-279.5 137,-279.5"/>
<text text-anchor="start" x="145" y="-334.5" font-family="Helvetica,sans-Serif" font-size="10.00">/jenkins/jenlib_workspaces</text>
<text text-anchor="start" x="145" y="-322.5" font-family="Helvetica,sans-Serif" font-size="10.00">_f9/bld_nightly&#45;haldls.YmxkX25p</text>
<text text-anchor="start" x="145" y="-310.5" font-family="Helvetica,sans-Serif" font-size="10.00">Z2h0bHktaGFsZGxzIzcxMQ.x/haldls</text>
<text text-anchor="start" x="145" y="-298.5" font-family="Helvetica,sans-Serif" font-size="10.00">/include/stadls/vx/v1/playback</text>
<text text-anchor="middle" x="226.12" y="-286.5" font-family="Helvetica,sans-Serif" font-size="10.00">_generator.h</text>
</a>
</g>
</g>
<!-- Node24&#45;&gt;Node25 -->
<g id="edge6" class="edge">
<title>Node24&#45;&gt;Node25</title>
<path fill="none" stroke="midnightblue" d="M226.12,-374.14C226.12,-365.26 226.12,-356.04 226.12,-347.59"/>
<polygon fill="midnightblue" stroke="midnightblue" points="222.62,-374.34 226.12,-384.34 229.62,-374.34 222.62,-374.34"/>
</g>
<!-- Node26 -->
<g id="node8" class="node">
<title>Node26</title>
<g id="a_node8"><a xlink:href="v1_2init__generator_8h.html" target="_top" xlink:title=" ">
<polygon fill="white" stroke="black" points="175,-186.5 175,-242.5 353.24,-242.5 353.24,-186.5 175,-186.5"/>
<text text-anchor="start" x="183" y="-229.5" font-family="Helvetica,sans-Serif" font-size="10.00">/jenkins/jenlib_workspaces</text>
<text text-anchor="start" x="183" y="-217.5" font-family="Helvetica,sans-Serif" font-size="10.00">_f9/bld_nightly&#45;haldls.YmxkX25p</text>
<text text-anchor="start" x="183" y="-205.5" font-family="Helvetica,sans-Serif" font-size="10.00">Z2h0bHktaGFsZGxzIzcxMQ.x/haldls</text>
<text text-anchor="middle" x="264.12" y="-193.5" font-family="Helvetica,sans-Serif" font-size="10.00">/include/stadls/vx/v1/init_generator.h</text>
</a>
</g>
</g>
<!-- Node24&#45;&gt;Node26 -->
<g id="edge11" class="edge">
<title>Node24&#45;&gt;Node26</title>
<path fill="none" stroke="midnightblue" d="M299.36,-378.11C309.33,-369.54 318.17,-359.52 324.12,-348 338.2,-320.76 335.45,-307.5 324.12,-279 318.68,-265.33 308.75,-252.9 298.51,-242.74"/>
<polygon fill="midnightblue" stroke="midnightblue" points="297.15,-375.4 291.54,-384.39 301.53,-380.86 297.15,-375.4"/>
</g>
<!-- Node24&#45;&gt;Node27 -->
<g id="edge12" class="edge">
<title>Node24&#45;&gt;Node27</title>
<path fill="none" stroke="midnightblue" d="M154.29,-378.16C143.99,-369.53 134.67,-359.47 128.12,-348 91.87,-284.55 98.27,-194.26 104.47,-149.63"/>
<polygon fill="midnightblue" stroke="midnightblue" points="152.31,-381.05 162.33,-384.48 156.63,-375.55 152.31,-381.05"/>
</g>
<!-- Node25&#45;&gt;Node26 -->
<g id="edge7" class="edge">
<title>Node25&#45;&gt;Node26</title>
<path fill="none" stroke="midnightblue" d="M242.8,-269.92C246.42,-260.67 250.16,-251.13 253.48,-242.67"/>
<polygon fill="midnightblue" stroke="midnightblue" points="239.48,-268.8 239.09,-279.39 246,-271.36 239.48,-268.8"/>
</g>
<!-- Node25&#45;&gt;Node27 -->
<g id="edge10" class="edge">
<title>Node25&#45;&gt;Node27</title>
<path fill="none" stroke="midnightblue" d="M187.61,-271.57C180.01,-262.51 172.44,-252.71 166.12,-243 146.55,-212.94 129.78,-175.1 119.6,-149.93"/>
<polygon fill="midnightblue" stroke="midnightblue" points="185.1,-274.01 194.27,-279.32 190.4,-269.45 185.1,-274.01"/>
</g>
<!-- Node26&#45;&gt;Node27 -->
<g id="edge8" class="edge">
<title>Node26&#45;&gt;Node27</title>
<path fill="none" stroke="midnightblue" d="M209.02,-181.15C191.44,-170.83 172.17,-159.52 155.29,-149.61"/>
<polygon fill="midnightblue" stroke="midnightblue" points="207.64,-184.4 218.03,-186.44 211.18,-178.36 207.64,-184.4"/>
</g>
<!-- Node28 -->
<g id="node10" class="node">
<title>Node28</title>
<g id="a_node10"><a xlink:href="v1_2pystadls_8h.html" target="_top" xlink:title=" ">
<polygon fill="white" stroke="black" points="20,-0.5 20,-56.5 198.24,-56.5 198.24,-0.5 20,-0.5"/>
<text text-anchor="start" x="28" y="-43.5" font-family="Helvetica,sans-Serif" font-size="10.00">/jenkins/jenlib_workspaces</text>
<text text-anchor="start" x="28" y="-31.5" font-family="Helvetica,sans-Serif" font-size="10.00">_f9/bld_nightly&#45;haldls.YmxkX25p</text>
<text text-anchor="start" x="28" y="-19.5" font-family="Helvetica,sans-Serif" font-size="10.00">Z2h0bHktaGFsZGxzIzcxMQ.x/haldls</text>
<text text-anchor="middle" x="109.12" y="-7.5" font-family="Helvetica,sans-Serif" font-size="10.00">/include/stadls/vx/v1/pystadls.h</text>
</a>
</g>
</g>
<!-- Node27&#45;&gt;Node28 -->
<g id="edge9" class="edge">
<title>Node27&#45;&gt;Node28</title>
<path fill="none" stroke="midnightblue" d="M109.12,-83.12C109.12,-74.3 109.12,-65.06 109.12,-56.78"/>
<polygon fill="midnightblue" stroke="midnightblue" points="105.62,-83.2 109.12,-93.2 112.62,-83.2 105.62,-83.2"/>
</g>
<!-- Node29&#45;&gt;Node30 -->
<g id="edge16" class="edge">
<title>Node29&#45;&gt;Node30</title>
<path fill="none" stroke="midnightblue" d="M422.7,-482.86C434.52,-473.06 447.42,-462.36 459.21,-452.59"/>
<polygon fill="midnightblue" stroke="midnightblue" points="420.17,-480.4 414.71,-489.48 424.64,-485.79 420.17,-480.4"/>
</g>
<!-- Node33 -->
<g id="node15" class="node">
<title>Node33</title>
<g id="a_node15"><a xlink:href="v2_2stadls_8h.html" target="_top" xlink:title=" ">
<polygon fill="white" stroke="black" points="527,-93.5 527,-149.5 705.24,-149.5 705.24,-93.5 527,-93.5"/>
<text text-anchor="start" x="535" y="-136.5" font-family="Helvetica,sans-Serif" font-size="10.00">/jenkins/jenlib_workspaces</text>
<text text-anchor="start" x="535" y="-124.5" font-family="Helvetica,sans-Serif" font-size="10.00">_f9/bld_nightly&#45;haldls.YmxkX25p</text>
<text text-anchor="start" x="535" y="-112.5" font-family="Helvetica,sans-Serif" font-size="10.00">Z2h0bHktaGFsZGxzIzcxMQ.x/haldls</text>
<text text-anchor="middle" x="616.12" y="-100.5" font-family="Helvetica,sans-Serif" font-size="10.00">/include/stadls/vx/v2/stadls.h</text>
</a>
</g>
</g>
<!-- Node29&#45;&gt;Node33 -->
<g id="edge24" class="edge">
<title>Node29&#45;&gt;Node33</title>
<path fill="none" stroke="midnightblue" d="M371.81,-479.32C355.74,-412.64 333.15,-271.7 401.12,-186 417.29,-165.61 475.25,-149.19 526.92,-138.16"/>
<polygon fill="midnightblue" stroke="midnightblue" points="368.5,-480.51 374.31,-489.36 375.29,-478.81 368.5,-480.51"/>
</g>
<!-- Node31 -->
<g id="node13" class="node">
<title>Node31</title>
<g id="a_node13"><a xlink:href="v2_2playback__generator_8h.html" target="_top" xlink:title=" ">
<polygon fill="white" stroke="black" points="448,-279.5 448,-347.5 626.24,-347.5 626.24,-279.5 448,-279.5"/>
<text text-anchor="start" x="456" y="-334.5" font-family="Helvetica,sans-Serif" font-size="10.00">/jenkins/jenlib_workspaces</text>
<text text-anchor="start" x="456" y="-322.5" font-family="Helvetica,sans-Serif" font-size="10.00">_f9/bld_nightly&#45;haldls.YmxkX25p</text>
<text text-anchor="start" x="456" y="-310.5" font-family="Helvetica,sans-Serif" font-size="10.00">Z2h0bHktaGFsZGxzIzcxMQ.x/haldls</text>
<text text-anchor="start" x="456" y="-298.5" font-family="Helvetica,sans-Serif" font-size="10.00">/include/stadls/vx/v2/playback</text>
<text text-anchor="middle" x="537.12" y="-286.5" font-family="Helvetica,sans-Serif" font-size="10.00">_generator.h</text>
</a>
</g>
</g>
<!-- Node30&#45;&gt;Node31 -->
<g id="edge17" class="edge">
<title>Node30&#45;&gt;Node31</title>
<path fill="none" stroke="midnightblue" d="M514.9,-374.71C518.25,-365.66 521.72,-356.23 524.91,-347.59"/>
<polygon fill="midnightblue" stroke="midnightblue" points="511.53,-373.75 511.35,-384.34 518.1,-376.17 511.53,-373.75"/>
</g>
<!-- Node32 -->
<g id="node14" class="node">
<title>Node32</title>
<g id="a_node14"><a xlink:href="v2_2init__generator_8h.html" target="_top" xlink:title=" ">
<polygon fill="white" stroke="black" points="410,-186.5 410,-242.5 588.24,-242.5 588.24,-186.5 410,-186.5"/>
<text text-anchor="start" x="418" y="-229.5" font-family="Helvetica,sans-Serif" font-size="10.00">/jenkins/jenlib_workspaces</text>
<text text-anchor="start" x="418" y="-217.5" font-family="Helvetica,sans-Serif" font-size="10.00">_f9/bld_nightly&#45;haldls.YmxkX25p</text>
<text text-anchor="start" x="418" y="-205.5" font-family="Helvetica,sans-Serif" font-size="10.00">Z2h0bHktaGFsZGxzIzcxMQ.x/haldls</text>
<text text-anchor="middle" x="499.12" y="-193.5" font-family="Helvetica,sans-Serif" font-size="10.00">/include/stadls/vx/v2/init_generator.h</text>
</a>
</g>
</g>
<!-- Node30&#45;&gt;Node32 -->
<g id="edge22" class="edge">
<title>Node30&#45;&gt;Node32</title>
<path fill="none" stroke="midnightblue" d="M455.73,-376.6C448.93,-367.87 442.91,-358.18 439.12,-348 428.43,-319.26 427.79,-307.5 439.12,-279 444.56,-265.33 454.49,-252.9 464.73,-242.74"/>
<polygon fill="midnightblue" stroke="midnightblue" points="453.07,-378.87 462.15,-384.34 458.45,-374.4 453.07,-378.87"/>
</g>
<!-- Node30&#45;&gt;Node33 -->
<g id="edge23" class="edge">
<title>Node30&#45;&gt;Node33</title>
<path fill="none" stroke="midnightblue" d="M597.54,-384.16C612.5,-374.79 625.98,-362.94 635.12,-348 673.37,-285.5 645.8,-194.38 628.02,-149.52"/>
<polygon fill="midnightblue" stroke="midnightblue" points="595.45,-381.33 588.58,-389.39 598.98,-387.37 595.45,-381.33"/>
</g>
<!-- Node31&#45;&gt;Node32 -->
<g id="edge18" class="edge">
<title>Node31&#45;&gt;Node32</title>
<path fill="none" stroke="midnightblue" d="M520.44,-269.92C516.81,-260.67 513.08,-251.13 509.76,-242.67"/>
<polygon fill="midnightblue" stroke="midnightblue" points="517.24,-271.36 524.15,-279.39 523.76,-268.8 517.24,-271.36"/>
</g>
<!-- Node31&#45;&gt;Node33 -->
<g id="edge21" class="edge">
<title>Node31&#45;&gt;Node33</title>
<path fill="none" stroke="midnightblue" d="M579.01,-271.36C586.02,-262.6 592.5,-252.96 597.12,-243 611.02,-213.03 615.03,-174.84 616.05,-149.58"/>
<polygon fill="midnightblue" stroke="midnightblue" points="576.22,-269.24 572.47,-279.15 581.58,-273.74 576.22,-269.24"/>
</g>
<!-- Node32&#45;&gt;Node33 -->
<g id="edge19" class="edge">
<title>Node32&#45;&gt;Node33</title>
<path fill="none" stroke="midnightblue" d="M541.81,-180.29C554.78,-170.21 568.87,-159.25 581.26,-149.61"/>
<polygon fill="midnightblue" stroke="midnightblue" points="539.65,-177.54 533.91,-186.44 543.95,-183.07 539.65,-177.54"/>
</g>
<!-- Node34 -->
<g id="node16" class="node">
<title>Node34</title>
<g id="a_node16"><a xlink:href="v2_2pystadls_8h.html" target="_top" xlink:title=" ">
<polygon fill="white" stroke="black" points="527,-0.5 527,-56.5 705.24,-56.5 705.24,-0.5 527,-0.5"/>
<text text-anchor="start" x="535" y="-43.5" font-family="Helvetica,sans-Serif" font-size="10.00">/jenkins/jenlib_workspaces</text>
<text text-anchor="start" x="535" y="-31.5" font-family="Helvetica,sans-Serif" font-size="10.00">_f9/bld_nightly&#45;haldls.YmxkX25p</text>
<text text-anchor="start" x="535" y="-19.5" font-family="Helvetica,sans-Serif" font-size="10.00">Z2h0bHktaGFsZGxzIzcxMQ.x/haldls</text>
<text text-anchor="middle" x="616.12" y="-7.5" font-family="Helvetica,sans-Serif" font-size="10.00">/include/stadls/vx/v2/pystadls.h</text>
</a>
</g>
</g>
<!-- Node33&#45;&gt;Node34 -->
<g id="edge20" class="edge">
<title>Node33&#45;&gt;Node34</title>
<path fill="none" stroke="midnightblue" d="M616.12,-83.12C616.12,-74.3 616.12,-65.06 616.12,-56.78"/>
<polygon fill="midnightblue" stroke="midnightblue" points="612.62,-83.2 616.12,-93.2 619.62,-83.2 612.62,-83.2"/>
</g>
<!-- Node35&#45;&gt;Node27 -->
<g id="edge31" class="edge">
<title>Node35&#45;&gt;Node27</title>
<path fill="none" stroke="midnightblue" d="M62.35,-573.45C57.66,-564.65 53.28,-555.23 50.12,-546 31.68,-492.22 31.12,-476.35 31.12,-419.5 31.12,-419.5 31.12,-419.5 31.12,-312.5 31.12,-250.63 66.95,-185.35 90.04,-149.7"/>
<polygon fill="midnightblue" stroke="midnightblue" points="59.38,-575.32 67.3,-582.36 65.5,-571.92 59.38,-575.32"/>
</g>
<!-- Node36&#45;&gt;Node33 -->
<g id="edge33" class="edge">
<title>Node36&#45;&gt;Node33</title>
<path fill="none" stroke="midnightblue" d="M723.2,-677.17C727.55,-636.31 733.12,-573.33 733.12,-518.5 733.12,-518.5 733.12,-518.5 733.12,-312.5 733.12,-246.26 680.92,-183.74 646.25,-149.52"/>
<polygon fill="midnightblue" stroke="midnightblue" points="719.7,-676.99 722.1,-687.31 726.66,-677.75 719.7,-676.99"/>
</g>
</g>
</svg>
