<?xml version="1.0" encoding="UTF-8" standalone="no"?>
<!DOCTYPE svg PUBLIC "-//W3C//DTD SVG 1.1//EN"
 "http://www.w3.org/Graphics/SVG/1.1/DTD/svg11.dtd">
<!-- Generated by graphviz version 2.43.0 (0)
 -->
<!-- Title: /jenkins/jenlib_workspaces_f9/bld_nightly&#45;haldls.YmxkX25pZ2h0bHktaGFsZGxzIzcxMQ.x/haldls/include/stadls/vx/run.h Pages: 1 -->
<svg width="831pt" height="218pt"
 viewBox="0.00 0.00 830.74 218.40" xmlns="http://www.w3.org/2000/svg" xmlns:xlink="http://www.w3.org/1999/xlink">
<g id="graph0" class="graph" transform="scale(1 1) rotate(0) translate(4 214.4)">
<title>/jenkins/jenlib_workspaces_f9/bld_nightly&#45;haldls.YmxkX25pZ2h0bHktaGFsZGxzIzcxMQ.x/haldls/include/stadls/vx/run.h</title>
<polygon fill="white" stroke="transparent" points="-4,4 -4,-214.4 826.74,-214.4 826.74,4 -4,4"/>
<!-- Node0 -->
<g id="node1" class="node">
<title>Node0</title>
<g id="a_node1"><a xlink:title=" ">
<polygon fill="#bfbfbf" stroke="black" points="327.95,-153.9 327.95,-209.9 506.19,-209.9 506.19,-153.9 327.95,-153.9"/>
<text text-anchor="start" x="335.95" y="-196.9" font-family="Helvetica,sans-Serif" font-size="10.00">/jenkins/jenlib_workspaces</text>
<text text-anchor="start" x="335.95" y="-184.9" font-family="Helvetica,sans-Serif" font-size="10.00">_f9/bld_nightly&#45;haldls.YmxkX25p</text>
<text text-anchor="start" x="335.95" y="-172.9" font-family="Helvetica,sans-Serif" font-size="10.00">Z2h0bHktaGFsZGxzIzcxMQ.x/haldls</text>
<text text-anchor="middle" x="417.07" y="-160.9" font-family="Helvetica,sans-Serif" font-size="10.00">/include/stadls/vx/run.h</text>
</a>
</g>
</g>
<!-- Node1 -->
<g id="node2" class="node">
<title>Node1</title>
<g id="a_node2"><a xlink:href="genpybind_8h.html" target="_top" xlink:title=" ">
<polygon fill="white" stroke="black" points="0,-3.9 0,-23.9 112.14,-23.9 112.14,-3.9 0,-3.9"/>
<text text-anchor="middle" x="56.07" y="-10.9" font-family="Helvetica,sans-Serif" font-size="10.00">stadls/vx/genpybind.h</text>
</a>
</g>
</g>
<!-- Node0&#45;&gt;Node1 -->
<g id="edge1" class="edge">
<title>Node0&#45;&gt;Node1</title>
<path fill="none" stroke="midnightblue" d="M327.83,-175.6C238.61,-168.39 109.82,-152.16 75.07,-117.4 53.19,-95.51 52.06,-57.13 53.73,-34.05"/>
<polygon fill="midnightblue" stroke="midnightblue" points="57.21,-34.39 54.69,-24.1 50.25,-33.71 57.21,-34.39"/>
</g>
<!-- Node2 -->
<g id="node3" class="node">
<title>Node2</title>
<g id="a_node3"><a xlink:href="run__time__info_8h.html" target="_top" xlink:title=" ">
<polygon fill="white" stroke="black" points="83.79,-72.9 83.79,-104.9 180.36,-104.9 180.36,-72.9 83.79,-72.9"/>
<text text-anchor="start" x="91.79" y="-91.9" font-family="Helvetica,sans-Serif" font-size="10.00">stadls/vx/run_time</text>
<text text-anchor="middle" x="132.07" y="-79.9" font-family="Helvetica,sans-Serif" font-size="10.00">_info.h</text>
</a>
</g>
</g>
<!-- Node0&#45;&gt;Node2 -->
<g id="edge3" class="edge">
<title>Node0&#45;&gt;Node2</title>
<path fill="none" stroke="midnightblue" d="M327.92,-160C285.33,-149.02 233.96,-134.33 189.07,-117.4 182.72,-115.01 176.11,-112.16 169.74,-109.23"/>
<polygon fill="midnightblue" stroke="midnightblue" points="171.17,-106.03 160.63,-104.91 168.17,-112.36 171.17,-106.03"/>
</g>
<!-- Node4 -->
<g id="node5" class="node">
<title>Node4</title>
<g id="a_node5"><a xlink:title=" ">
<polygon fill="white" stroke="#bfbfbf" points="198.23,-78.9 198.23,-98.9 285.91,-98.9 285.91,-78.9 198.23,-78.9"/>
<text text-anchor="middle" x="242.07" y="-85.9" font-family="Helvetica,sans-Serif" font-size="10.00">stadls/vx/run.tcc</text>
</a>
</g>
</g>
<!-- Node0&#45;&gt;Node4 -->
<g id="edge6" class="edge">
<title>Node0&#45;&gt;Node4</title>
<path fill="none" stroke="midnightblue" d="M365.04,-153.85C333.41,-137.4 294.35,-117.08 268.85,-103.83"/>
<polygon fill="midnightblue" stroke="midnightblue" points="270.27,-100.62 259.79,-99.11 267.04,-106.83 270.27,-100.62"/>
</g>
<!-- Node5 -->
<g id="node6" class="node">
<title>Node5</title>
<g id="a_node6"><a xlink:title=" ">
<polygon fill="white" stroke="#bfbfbf" points="303.63,-72.9 303.63,-104.9 418.51,-104.9 418.51,-72.9 303.63,-72.9"/>
<text text-anchor="start" x="311.63" y="-91.9" font-family="Helvetica,sans-Serif" font-size="10.00">hxcomm/common/visit</text>
<text text-anchor="middle" x="361.07" y="-79.9" font-family="Helvetica,sans-Serif" font-size="10.00">_connection.h</text>
</a>
</g>
</g>
<!-- Node0&#45;&gt;Node5 -->
<g id="edge7" class="edge">
<title>Node0&#45;&gt;Node5</title>
<path fill="none" stroke="midnightblue" d="M400.27,-153.6C392.47,-140.92 383.27,-125.98 375.75,-113.75"/>
<polygon fill="midnightblue" stroke="midnightblue" points="378.6,-111.7 370.37,-105.02 372.63,-115.37 378.6,-111.7"/>
</g>
<!-- Node6 -->
<g id="node7" class="node">
<title>Node6</title>
<g id="a_node7"><a xlink:title=" ">
<polygon fill="white" stroke="#bfbfbf" points="436.62,-78.9 436.62,-98.9 511.52,-98.9 511.52,-78.9 436.62,-78.9"/>
<text text-anchor="middle" x="474.07" y="-85.9" font-family="Helvetica,sans-Serif" font-size="10.00">fisch/vx/run.h</text>
</a>
</g>
</g>
<!-- Node0&#45;&gt;Node6 -->
<g id="edge8" class="edge">
<title>Node0&#45;&gt;Node6</title>
<path fill="none" stroke="midnightblue" d="M434.17,-153.6C443.46,-138.77 454.68,-120.85 462.86,-107.8"/>
<polygon fill="midnightblue" stroke="midnightblue" points="465.86,-109.61 468.2,-99.28 459.93,-105.89 465.86,-109.61"/>
</g>
<!-- Node7 -->
<g id="node8" class="node">
<title>Node7</title>
<g id="a_node8"><a xlink:title=" ">
<polygon fill="white" stroke="#bfbfbf" points="529.33,-60.9 529.33,-116.9 714.81,-116.9 714.81,-60.9 529.33,-60.9"/>
<text text-anchor="start" x="537.33" y="-103.9" font-family="Helvetica,sans-Serif" font-size="10.00">/jenkins/jenlib_workspaces</text>
<text text-anchor="start" x="537.33" y="-91.9" font-family="Helvetica,sans-Serif" font-size="10.00">_f9/bld_nightly&#45;haldls.YmxkX25p</text>
<text text-anchor="start" x="537.33" y="-79.9" font-family="Helvetica,sans-Serif" font-size="10.00">Z2h0bHktaGFsZGxzIzcxMQ.x/haldls</text>
<text text-anchor="middle" x="622.07" y="-67.9" font-family="Helvetica,sans-Serif" font-size="10.00">/include/stadls/vx/playback_program.h</text>
</a>
</g>
</g>
<!-- Node0&#45;&gt;Node7 -->
<g id="edge9" class="edge">
<title>Node0&#45;&gt;Node7</title>
<path fill="none" stroke="midnightblue" d="M478.02,-153.85C501.15,-143.58 527.68,-131.8 551.62,-121.18"/>
<polygon fill="midnightblue" stroke="midnightblue" points="553.28,-124.27 561,-117.01 550.44,-117.87 553.28,-124.27"/>
</g>
<!-- Node8 -->
<g id="node9" class="node">
<title>Node8</title>
<g id="a_node9"><a xlink:title=" ">
<polygon fill="white" stroke="#bfbfbf" points="732.46,-78.9 732.46,-98.9 775.68,-98.9 775.68,-78.9 732.46,-78.9"/>
<text text-anchor="middle" x="754.07" y="-85.9" font-family="Helvetica,sans-Serif" font-size="10.00">vector</text>
</a>
</g>
</g>
<!-- Node0&#45;&gt;Node8 -->
<g id="edge10" class="edge">
<title>Node0&#45;&gt;Node8</title>
<path fill="none" stroke="midnightblue" d="M506.25,-175.1C569.87,-168.02 655.88,-152.3 724.07,-117.4 729.58,-114.59 734.82,-110.48 739.34,-106.3"/>
<polygon fill="midnightblue" stroke="midnightblue" points="742.07,-108.52 746.6,-98.95 737.08,-103.61 742.07,-108.52"/>
</g>
<!-- Node9 -->
<g id="node10" class="node">
<title>Node9</title>
<g id="a_node10"><a xlink:title=" ">
<polygon fill="white" stroke="#bfbfbf" points="793.4,-78.9 793.4,-98.9 822.74,-98.9 822.74,-78.9 793.4,-78.9"/>
<text text-anchor="middle" x="808.07" y="-85.9" font-family="Helvetica,sans-Serif" font-size="10.00">set</text>
</a>
</g>
</g>
<!-- Node0&#45;&gt;Node9 -->
<g id="edge11" class="edge">
<title>Node0&#45;&gt;Node9</title>
<path fill="none" stroke="midnightblue" d="M506.37,-172.61C599.67,-162.7 738.79,-144.06 785.07,-117.4 789.44,-114.89 793.34,-111.21 796.64,-107.37"/>
<polygon fill="midnightblue" stroke="midnightblue" points="799.67,-109.16 802.84,-99.05 794.06,-104.98 799.67,-109.16"/>
</g>
<!-- Node1&#45;&gt;Node1 -->
<g id="edge2" class="edge">
<title>Node1&#45;&gt;Node1</title>
<path fill="none" stroke="midnightblue" d="M76.93,-23.98C101.49,-31.35 130.14,-27.99 130.14,-13.9 130.14,-1.68 108.6,2.47 86.85,-1.46"/>
<polygon fill="midnightblue" stroke="midnightblue" points="85.84,1.9 76.93,-3.83 87.47,-4.91 85.84,1.9"/>
</g>
<!-- Node2&#45;&gt;Node1 -->
<g id="edge5" class="edge">
<title>Node2&#45;&gt;Node1</title>
<path fill="none" stroke="midnightblue" d="M116.32,-72.78C103.65,-60.6 85.88,-43.53 72.92,-31.08"/>
<polygon fill="midnightblue" stroke="midnightblue" points="75.2,-28.42 65.56,-24.02 70.35,-33.47 75.2,-28.42"/>
</g>
<!-- Node3 -->
<g id="node4" class="node">
<title>Node3</title>
<g id="a_node4"><a xlink:title=" ">
<polygon fill="white" stroke="#bfbfbf" points="148.56,-3.9 148.56,-23.9 269.58,-23.9 269.58,-3.9 148.56,-3.9"/>
<text text-anchor="middle" x="209.07" y="-10.9" font-family="Helvetica,sans-Serif" font-size="10.00">fisch/vx/run_time_info.h</text>
</a>
</g>
</g>
<!-- Node2&#45;&gt;Node3 -->
<g id="edge4" class="edge">
<title>Node2&#45;&gt;Node3</title>
<path fill="none" stroke="midnightblue" d="M148.03,-72.78C160.87,-60.6 178.87,-43.53 192,-31.08"/>
<polygon fill="midnightblue" stroke="midnightblue" points="194.61,-33.44 199.46,-24.02 189.79,-28.36 194.61,-33.44"/>
</g>
</g>
</svg>
