<?xml version="1.0" encoding="UTF-8" standalone="no"?>
<!DOCTYPE svg PUBLIC "-//W3C//DTD SVG 1.1//EN"
 "http://www.w3.org/Graphics/SVG/1.1/DTD/svg11.dtd">
<!-- Generated by graphviz version 2.43.0 (0)
 -->
<!-- Title: /jenkins/jenlib_workspaces_f9/bld_nightly&#45;haldls.YmxkX25pZ2h0bHktaGFsZGxzIzcxMQ.x/haldls/include/stadls/vx/run_time_info.h Pages: 1 -->
<!--zoomable 950 -->
<svg id="main" version="1.1" xmlns="http://www.w3.org/2000/svg" xmlns:xlink="http://www.w3.org/1999/xlink" xml:space="preserve" onload="init(evt)">
<style type="text/css"><![CDATA[
.edge:hover path { stroke: red; }
.edge:hover polygon { stroke: red; fill: red; }
]]></style>
<script type="text/javascript"><![CDATA[
var edges = document.getElementsByTagName('g');
if (edges && edges.length) {
  for (var i=0;i<edges.length;i++) {
    if (edges[i].id.substr(0,4)=='edge') {
      edges[i].setAttribute('class','edge');
    }
  }
}
]]></script>
        <defs>
                <circle id="rim" cx="0" cy="0" r="7"/>
                <circle id="rim2" cx="0" cy="0" r="3.5"/>
                <g id="zoomPlus">
                        <use xlink:href="#rim" fill="#404040">
                                <set attributeName="fill" to="#808080" begin="zoomplus.mouseover" end="zoomplus.mouseout"/>
                        </use>
                        <path d="M-4,0h8M0,-4v8" fill="none" stroke="white" stroke-width="1.5" pointer-events="none"/>
                </g>
                <g id="zoomMin">
                        <use xlink:href="#rim" fill="#404040">
                                <set attributeName="fill" to="#808080" begin="zoomminus.mouseover" end="zoomminus.mouseout"/>
                        </use>
                        <path d="M-4,0h8" fill="none" stroke="white" stroke-width="1.5" pointer-events="none"/>
                </g>
                <g id="dirArrow">
                        <path fill="none" stroke="white" stroke-width="1.5" d="M0,-3.0v7 M-2.5,-0.5L0,-3.0L2.5,-0.5"/>
                </g>
               <g id="resetDef">
                       <use xlink:href="#rim2" fill="#404040">
                               <set attributeName="fill" to="#808080" begin="reset.mouseover" end="reset.mouseout"/>
                       </use>
               </g>
        </defs>

<script type="text/javascript">
var viewWidth = 1045;
var viewHeight = 950;
var sectionId = 'dynsection-1';
</script>
<script xlink:href="svgpan.js"/>
<svg id="graph" class="graph">
<g id="viewport">
<title>/jenkins/jenlib_workspaces_f9/bld_nightly&#45;haldls.YmxkX25pZ2h0bHktaGFsZGxzIzcxMQ.x/haldls/include/stadls/vx/run_time_info.h</title>
<polygon fill="white" stroke="transparent" points="-4,4 -4,-946 1041.24,-946 1041.24,4 -4,4"/>
<!-- Node3 -->
<g id="node1" class="node">
<title>Node3</title>
<g id="a_node1"><a xlink:title=" ">
<polygon fill="#bfbfbf" stroke="black" points="371,-885.5 371,-941.5 549.24,-941.5 549.24,-885.5 371,-885.5"/>
<text text-anchor="start" x="379" y="-928.5" font-family="Helvetica,sans-Serif" font-size="10.00">/jenkins/jenlib_workspaces</text>
<text text-anchor="start" x="379" y="-916.5" font-family="Helvetica,sans-Serif" font-size="10.00">_f9/bld_nightly&#45;haldls.YmxkX25p</text>
<text text-anchor="start" x="379" y="-904.5" font-family="Helvetica,sans-Serif" font-size="10.00">Z2h0bHktaGFsZGxzIzcxMQ.x/haldls</text>
<text text-anchor="middle" x="460.12" y="-892.5" font-family="Helvetica,sans-Serif" font-size="10.00">/include/stadls/vx/run_time_info.h</text>
</a>
</g>
</g>
<!-- Node4 -->
<g id="node2" class="node">
<title>Node4</title>
<g id="a_node2"><a xlink:href="playback__program_8h.html" target="_top" xlink:title=" ">
<polygon fill="white" stroke="black" points="398.38,-792.5 398.38,-848.5 583.86,-848.5 583.86,-792.5 398.38,-792.5"/>
<text text-anchor="start" x="406.38" y="-835.5" font-family="Helvetica,sans-Serif" font-size="10.00">/jenkins/jenlib_workspaces</text>
<text text-anchor="start" x="406.38" y="-823.5" font-family="Helvetica,sans-Serif" font-size="10.00">_f9/bld_nightly&#45;haldls.YmxkX25p</text>
<text text-anchor="start" x="406.38" y="-811.5" font-family="Helvetica,sans-Serif" font-size="10.00">Z2h0bHktaGFsZGxzIzcxMQ.x/haldls</text>
<text text-anchor="middle" x="491.12" y="-799.5" font-family="Helvetica,sans-Serif" font-size="10.00">/include/stadls/vx/playback_program.h</text>
</a>
</g>
</g>
<!-- Node3&#45;&gt;Node4 -->
<g id="edge1" class="edge">
<title>Node3&#45;&gt;Node4</title>
<path fill="none" stroke="midnightblue" d="M472.66,-875.69C475.72,-866.7 478.94,-857.24 481.82,-848.78"/>
<polygon fill="midnightblue" stroke="midnightblue" points="469.33,-874.6 469.42,-885.2 475.96,-876.86 469.33,-874.6"/>
</g>
<!-- Node22 -->
<g id="node20" class="node">
<title>Node22</title>
<g id="a_node20"><a xlink:href="run_8h.html" target="_top" xlink:title=" ">
<polygon fill="white" stroke="black" points="234,-588.5 234,-644.5 412.24,-644.5 412.24,-588.5 234,-588.5"/>
<text text-anchor="start" x="242" y="-631.5" font-family="Helvetica,sans-Serif" font-size="10.00">/jenkins/jenlib_workspaces</text>
<text text-anchor="start" x="242" y="-619.5" font-family="Helvetica,sans-Serif" font-size="10.00">_f9/bld_nightly&#45;haldls.YmxkX25p</text>
<text text-anchor="start" x="242" y="-607.5" font-family="Helvetica,sans-Serif" font-size="10.00">Z2h0bHktaGFsZGxzIzcxMQ.x/haldls</text>
<text text-anchor="middle" x="323.12" y="-595.5" font-family="Helvetica,sans-Serif" font-size="10.00">/include/stadls/vx/run.h</text>
</a>
</g>
</g>
<!-- Node3&#45;&gt;Node22 -->
<g id="edge35" class="edge">
<title>Node3&#45;&gt;Node22</title>
<path fill="none" stroke="midnightblue" d="M414.56,-878.72C405.07,-869.92 395.91,-859.84 389.12,-849 347.76,-782.94 331.63,-690.27 325.93,-644.82"/>
<polygon fill="midnightblue" stroke="midnightblue" points="412.39,-881.48 422.2,-885.49 417.03,-876.24 412.39,-881.48"/>
</g>
<!-- Node5 -->
<g id="node3" class="node">
<title>Node5</title>
<g id="a_node3"><a xlink:href="dumper_8h.html" target="_top" xlink:title=" ">
<polygon fill="white" stroke="black" points="585,-693.5 585,-749.5 763.24,-749.5 763.24,-693.5 585,-693.5"/>
<text text-anchor="start" x="593" y="-736.5" font-family="Helvetica,sans-Serif" font-size="10.00">/jenkins/jenlib_workspaces</text>
<text text-anchor="start" x="593" y="-724.5" font-family="Helvetica,sans-Serif" font-size="10.00">_f9/bld_nightly&#45;haldls.YmxkX25p</text>
<text text-anchor="start" x="593" y="-712.5" font-family="Helvetica,sans-Serif" font-size="10.00">Z2h0bHktaGFsZGxzIzcxMQ.x/haldls</text>
<text text-anchor="middle" x="674.12" y="-700.5" font-family="Helvetica,sans-Serif" font-size="10.00">/include/stadls/vx/dumper.h</text>
</a>
</g>
</g>
<!-- Node4&#45;&gt;Node5 -->
<g id="edge2" class="edge">
<title>Node4&#45;&gt;Node5</title>
<path fill="none" stroke="midnightblue" d="M551.18,-787.67C574.44,-775.34 600.78,-761.37 623.1,-749.54"/>
<polygon fill="midnightblue" stroke="midnightblue" points="549.29,-784.7 542.09,-792.48 552.57,-790.89 549.29,-784.7"/>
</g>
<!-- Node6 -->
<g id="node4" class="node">
<title>Node6</title>
<g id="a_node4"><a xlink:href="playback__program__builder_8h.html" target="_top" xlink:title=" ">
<polygon fill="white" stroke="black" points="468,-582.5 468,-650.5 646.24,-650.5 646.24,-582.5 468,-582.5"/>
<text text-anchor="start" x="476" y="-637.5" font-family="Helvetica,sans-Serif" font-size="10.00">/jenkins/jenlib_workspaces</text>
<text text-anchor="start" x="476" y="-625.5" font-family="Helvetica,sans-Serif" font-size="10.00">_f9/bld_nightly&#45;haldls.YmxkX25p</text>
<text text-anchor="start" x="476" y="-613.5" font-family="Helvetica,sans-Serif" font-size="10.00">Z2h0bHktaGFsZGxzIzcxMQ.x/haldls</text>
<text text-anchor="start" x="476" y="-601.5" font-family="Helvetica,sans-Serif" font-size="10.00">/include/stadls/vx/playback_program</text>
<text text-anchor="middle" x="557.12" y="-589.5" font-family="Helvetica,sans-Serif" font-size="10.00">_builder.h</text>
</a>
</g>
</g>
<!-- Node4&#45;&gt;Node6 -->
<g id="edge29" class="edge">
<title>Node4&#45;&gt;Node6</title>
<path fill="none" stroke="midnightblue" d="M503.15,-782.67C515.46,-744.99 534.42,-686.97 546.28,-650.67"/>
<polygon fill="midnightblue" stroke="midnightblue" points="499.8,-781.66 500.02,-792.26 506.45,-783.84 499.8,-781.66"/>
</g>
<!-- Node7 -->
<g id="node5" class="node">
<title>Node7</title>
<g id="a_node5"><a xlink:href="stadls_8h.html" target="_top" xlink:title=" ">
<polygon fill="white" stroke="black" points="351,-489.5 351,-545.5 529.24,-545.5 529.24,-489.5 351,-489.5"/>
<text text-anchor="start" x="359" y="-532.5" font-family="Helvetica,sans-Serif" font-size="10.00">/jenkins/jenlib_workspaces</text>
<text text-anchor="start" x="359" y="-520.5" font-family="Helvetica,sans-Serif" font-size="10.00">_f9/bld_nightly&#45;haldls.YmxkX25p</text>
<text text-anchor="start" x="359" y="-508.5" font-family="Helvetica,sans-Serif" font-size="10.00">Z2h0bHktaGFsZGxzIzcxMQ.x/haldls</text>
<text text-anchor="middle" x="440.12" y="-496.5" font-family="Helvetica,sans-Serif" font-size="10.00">/include/stadls/vx/stadls.h</text>
</a>
</g>
</g>
<!-- Node4&#45;&gt;Node7 -->
<g id="edge30" class="edge">
<title>Node4&#45;&gt;Node7</title>
<path fill="none" stroke="midnightblue" d="M483.58,-782.45C476.77,-748.37 466.68,-696.38 459.12,-651 453.07,-614.67 447.23,-572.53 443.65,-545.71"/>
<polygon fill="midnightblue" stroke="midnightblue" points="480.19,-783.31 485.59,-792.43 487.05,-781.93 480.19,-783.31"/>
</g>
<!-- Node20 -->
<g id="node18" class="node">
<title>Node20</title>
<g id="a_node18"><a xlink:href="v1_2playback__program_8h.html" target="_top" xlink:title=" ">
<polygon fill="white" stroke="black" points="0,-582.5 0,-650.5 178.24,-650.5 178.24,-582.5 0,-582.5"/>
<text text-anchor="start" x="8" y="-637.5" font-family="Helvetica,sans-Serif" font-size="10.00">/jenkins/jenlib_workspaces</text>
<text text-anchor="start" x="8" y="-625.5" font-family="Helvetica,sans-Serif" font-size="10.00">_f9/bld_nightly&#45;haldls.YmxkX25p</text>
<text text-anchor="start" x="8" y="-613.5" font-family="Helvetica,sans-Serif" font-size="10.00">Z2h0bHktaGFsZGxzIzcxMQ.x/haldls</text>
<text text-anchor="start" x="8" y="-601.5" font-family="Helvetica,sans-Serif" font-size="10.00">/include/stadls/vx/v1/playback</text>
<text text-anchor="middle" x="89.12" y="-589.5" font-family="Helvetica,sans-Serif" font-size="10.00">_program.h</text>
</a>
</g>
</g>
<!-- Node4&#45;&gt;Node20 -->
<g id="edge31" class="edge">
<title>Node4&#45;&gt;Node20</title>
<path fill="none" stroke="midnightblue" d="M428.05,-787.81C353.64,-750.42 230.52,-688.55 154.94,-650.57"/>
<polygon fill="midnightblue" stroke="midnightblue" points="426.81,-791.1 437.32,-792.47 429.96,-784.85 426.81,-791.1"/>
</g>
<!-- Node21 -->
<g id="node19" class="node">
<title>Node21</title>
<g id="a_node19"><a xlink:href="v2_2playback__program_8h.html" target="_top" xlink:title=" ">
<polygon fill="white" stroke="black" points="859,-687.5 859,-755.5 1037.24,-755.5 1037.24,-687.5 859,-687.5"/>
<text text-anchor="start" x="867" y="-742.5" font-family="Helvetica,sans-Serif" font-size="10.00">/jenkins/jenlib_workspaces</text>
<text text-anchor="start" x="867" y="-730.5" font-family="Helvetica,sans-Serif" font-size="10.00">_f9/bld_nightly&#45;haldls.YmxkX25p</text>
<text text-anchor="start" x="867" y="-718.5" font-family="Helvetica,sans-Serif" font-size="10.00">Z2h0bHktaGFsZGxzIzcxMQ.x/haldls</text>
<text text-anchor="start" x="867" y="-706.5" font-family="Helvetica,sans-Serif" font-size="10.00">/include/stadls/vx/v2/playback</text>
<text text-anchor="middle" x="948.12" y="-694.5" font-family="Helvetica,sans-Serif" font-size="10.00">_program.h</text>
</a>
</g>
</g>
<!-- Node4&#45;&gt;Node21 -->
<g id="edge33" class="edge">
<title>Node4&#45;&gt;Node21</title>
<path fill="none" stroke="midnightblue" d="M593.93,-797.68C673.64,-780.76 782.97,-757.55 858.99,-741.42"/>
<polygon fill="midnightblue" stroke="midnightblue" points="592.93,-794.31 583.88,-799.81 594.38,-801.16 592.93,-794.31"/>
</g>
<!-- Node5&#45;&gt;Node6 -->
<g id="edge3" class="edge">
<title>Node5&#45;&gt;Node6</title>
<path fill="none" stroke="midnightblue" d="M635.82,-686.78C622.63,-675.17 607.89,-662.19 594.75,-650.63"/>
<polygon fill="midnightblue" stroke="midnightblue" points="633.56,-689.46 643.38,-693.44 638.19,-684.2 633.56,-689.46"/>
</g>
<!-- Node8 -->
<g id="node6" class="node">
<title>Node8</title>
<g id="a_node6"><a xlink:href="v1_2dumper_8h.html" target="_top" xlink:title=" ">
<polygon fill="white" stroke="black" points="585,-489.5 585,-545.5 763.24,-545.5 763.24,-489.5 585,-489.5"/>
<text text-anchor="start" x="593" y="-532.5" font-family="Helvetica,sans-Serif" font-size="10.00">/jenkins/jenlib_workspaces</text>
<text text-anchor="start" x="593" y="-520.5" font-family="Helvetica,sans-Serif" font-size="10.00">_f9/bld_nightly&#45;haldls.YmxkX25p</text>
<text text-anchor="start" x="593" y="-508.5" font-family="Helvetica,sans-Serif" font-size="10.00">Z2h0bHktaGFsZGxzIzcxMQ.x/haldls</text>
<text text-anchor="middle" x="674.12" y="-496.5" font-family="Helvetica,sans-Serif" font-size="10.00">/include/stadls/vx/v1/dumper.h</text>
</a>
</g>
</g>
<!-- Node5&#45;&gt;Node8 -->
<g id="edge27" class="edge">
<title>Node5&#45;&gt;Node8</title>
<path fill="none" stroke="midnightblue" d="M674.12,-683.14C674.12,-643.27 674.12,-581.07 674.12,-545.63"/>
<polygon fill="midnightblue" stroke="midnightblue" points="670.62,-683.26 674.12,-693.26 677.62,-683.26 670.62,-683.26"/>
</g>
<!-- Node14 -->
<g id="node12" class="node">
<title>Node14</title>
<g id="a_node12"><a xlink:href="v2_2dumper_8h.html" target="_top" xlink:title=" ">
<polygon fill="white" stroke="black" points="819,-489.5 819,-545.5 997.24,-545.5 997.24,-489.5 819,-489.5"/>
<text text-anchor="start" x="827" y="-532.5" font-family="Helvetica,sans-Serif" font-size="10.00">/jenkins/jenlib_workspaces</text>
<text text-anchor="start" x="827" y="-520.5" font-family="Helvetica,sans-Serif" font-size="10.00">_f9/bld_nightly&#45;haldls.YmxkX25p</text>
<text text-anchor="start" x="827" y="-508.5" font-family="Helvetica,sans-Serif" font-size="10.00">Z2h0bHktaGFsZGxzIzcxMQ.x/haldls</text>
<text text-anchor="middle" x="908.12" y="-496.5" font-family="Helvetica,sans-Serif" font-size="10.00">/include/stadls/vx/v2/dumper.h</text>
</a>
</g>
</g>
<!-- Node5&#45;&gt;Node14 -->
<g id="edge28" class="edge">
<title>Node5&#45;&gt;Node14</title>
<path fill="none" stroke="midnightblue" d="M713.34,-686.64C759.27,-647 834.42,-582.12 876.69,-545.63"/>
<polygon fill="midnightblue" stroke="midnightblue" points="710.96,-684.07 705.68,-693.26 715.53,-689.37 710.96,-684.07"/>
</g>
<!-- Node6&#45;&gt;Node7 -->
<g id="edge4" class="edge">
<title>Node6&#45;&gt;Node7</title>
<path fill="none" stroke="midnightblue" d="M509.26,-575.82C497.04,-565.69 484.17,-555.02 472.89,-545.67"/>
<polygon fill="midnightblue" stroke="midnightblue" points="507.25,-578.7 517.18,-582.39 511.72,-573.31 507.25,-578.7"/>
</g>
<!-- Node6&#45;&gt;Node8 -->
<g id="edge5" class="edge">
<title>Node6&#45;&gt;Node8</title>
<path fill="none" stroke="midnightblue" d="M604.98,-575.82C617.2,-565.69 630.07,-555.02 641.35,-545.67"/>
<polygon fill="midnightblue" stroke="midnightblue" points="602.52,-573.31 597.06,-582.39 606.99,-578.7 602.52,-573.31"/>
</g>
<!-- Node9 -->
<g id="node7" class="node">
<title>Node9</title>
<g id="a_node7"><a xlink:href="v1_2playback__program__builder_8h.html" target="_top" xlink:title=" ">
<polygon fill="white" stroke="black" points="275,-384.5 275,-452.5 453.24,-452.5 453.24,-384.5 275,-384.5"/>
<text text-anchor="start" x="283" y="-439.5" font-family="Helvetica,sans-Serif" font-size="10.00">/jenkins/jenlib_workspaces</text>
<text text-anchor="start" x="283" y="-427.5" font-family="Helvetica,sans-Serif" font-size="10.00">_f9/bld_nightly&#45;haldls.YmxkX25p</text>
<text text-anchor="start" x="283" y="-415.5" font-family="Helvetica,sans-Serif" font-size="10.00">Z2h0bHktaGFsZGxzIzcxMQ.x/haldls</text>
<text text-anchor="start" x="283" y="-403.5" font-family="Helvetica,sans-Serif" font-size="10.00">/include/stadls/vx/v1/playback</text>
<text text-anchor="middle" x="364.12" y="-391.5" font-family="Helvetica,sans-Serif" font-size="10.00">_program_builder.h</text>
</a>
</g>
</g>
<!-- Node6&#45;&gt;Node9 -->
<g id="edge15" class="edge">
<title>Node6&#45;&gt;Node9</title>
<path fill="none" stroke="midnightblue" d="M560.88,-572.17C560.89,-545.54 556.5,-512.21 538.12,-489 532.03,-481.32 493.13,-465.47 453.64,-450.84"/>
<polygon fill="midnightblue" stroke="midnightblue" points="557.37,-572.31 560.66,-582.38 564.37,-572.46 557.37,-572.31"/>
</g>
<!-- Node6&#45;&gt;Node14 -->
<g id="edge16" class="edge">
<title>Node6&#45;&gt;Node14</title>
<path fill="none" stroke="midnightblue" d="M656.34,-588.08C707.42,-573.96 769.22,-556.89 818.8,-543.18"/>
<polygon fill="midnightblue" stroke="midnightblue" points="655.31,-584.73 646.6,-590.77 657.17,-591.48 655.31,-584.73"/>
</g>
<!-- Node15 -->
<g id="node13" class="node">
<title>Node15</title>
<g id="a_node13"><a xlink:href="v2_2playback__program__builder_8h.html" target="_top" xlink:title=" ">
<polygon fill="white" stroke="black" points="743,-384.5 743,-452.5 921.24,-452.5 921.24,-384.5 743,-384.5"/>
<text text-anchor="start" x="751" y="-439.5" font-family="Helvetica,sans-Serif" font-size="10.00">/jenkins/jenlib_workspaces</text>
<text text-anchor="start" x="751" y="-427.5" font-family="Helvetica,sans-Serif" font-size="10.00">_f9/bld_nightly&#45;haldls.YmxkX25p</text>
<text text-anchor="start" x="751" y="-415.5" font-family="Helvetica,sans-Serif" font-size="10.00">Z2h0bHktaGFsZGxzIzcxMQ.x/haldls</text>
<text text-anchor="start" x="751" y="-403.5" font-family="Helvetica,sans-Serif" font-size="10.00">/include/stadls/vx/v2/playback</text>
<text text-anchor="middle" x="832.12" y="-391.5" font-family="Helvetica,sans-Serif" font-size="10.00">_program_builder.h</text>
</a>
</g>
</g>
<!-- Node6&#45;&gt;Node15 -->
<g id="edge26" class="edge">
<title>Node6&#45;&gt;Node15</title>
<path fill="none" stroke="midnightblue" d="M656.07,-601.1C695.85,-591.14 739.84,-574.33 772.12,-546 786.96,-532.97 807.14,-485.51 819.89,-452.58"/>
<polygon fill="midnightblue" stroke="midnightblue" points="655.24,-597.7 646.33,-603.42 656.87,-604.51 655.24,-597.7"/>
</g>
<!-- Node8&#45;&gt;Node9 -->
<g id="edge6" class="edge">
<title>Node8&#45;&gt;Node9</title>
<path fill="none" stroke="midnightblue" d="M574.87,-486.43C540.69,-475.97 502.19,-464.08 467.12,-453 462.64,-451.58 458.05,-450.12 453.41,-448.64"/>
<polygon fill="midnightblue" stroke="midnightblue" points="574.28,-489.9 584.86,-489.48 576.32,-483.21 574.28,-489.9"/>
</g>
<!-- Node12 -->
<g id="node10" class="node">
<title>Node12</title>
<g id="a_node10"><a xlink:href="v1_2stadls_8h.html" target="_top" xlink:title=" ">
<polygon fill="white" stroke="black" points="175,-93.5 175,-149.5 353.24,-149.5 353.24,-93.5 175,-93.5"/>
<text text-anchor="start" x="183" y="-136.5" font-family="Helvetica,sans-Serif" font-size="10.00">/jenkins/jenlib_workspaces</text>
<text text-anchor="start" x="183" y="-124.5" font-family="Helvetica,sans-Serif" font-size="10.00">_f9/bld_nightly&#45;haldls.YmxkX25p</text>
<text text-anchor="start" x="183" y="-112.5" font-family="Helvetica,sans-Serif" font-size="10.00">Z2h0bHktaGFsZGxzIzcxMQ.x/haldls</text>
<text text-anchor="middle" x="264.12" y="-100.5" font-family="Helvetica,sans-Serif" font-size="10.00">/include/stadls/vx/v1/stadls.h</text>
</a>
</g>
</g>
<!-- Node8&#45;&gt;Node12 -->
<g id="edge14" class="edge">
<title>Node8&#45;&gt;Node12</title>
<path fill="none" stroke="midnightblue" d="M629.86,-483.09C591.09,-451.84 535.55,-401.99 500.12,-348 457.91,-283.68 493.85,-240.07 439.12,-186 415.9,-163.06 383.76,-148.33 353.36,-138.91"/>
<polygon fill="midnightblue" stroke="midnightblue" points="627.87,-485.98 637.87,-489.47 632.23,-480.5 627.87,-485.98"/>
</g>
<!-- Node10 -->
<g id="node8" class="node">
<title>Node10</title>
<g id="a_node8"><a xlink:href="v1_2playback__generator_8h.html" target="_top" xlink:title=" ">
<polygon fill="white" stroke="black" points="275,-279.5 275,-347.5 453.24,-347.5 453.24,-279.5 275,-279.5"/>
<text text-anchor="start" x="283" y="-334.5" font-family="Helvetica,sans-Serif" font-size="10.00">/jenkins/jenlib_workspaces</text>
<text text-anchor="start" x="283" y="-322.5" font-family="Helvetica,sans-Serif" font-size="10.00">_f9/bld_nightly&#45;haldls.YmxkX25p</text>
<text text-anchor="start" x="283" y="-310.5" font-family="Helvetica,sans-Serif" font-size="10.00">Z2h0bHktaGFsZGxzIzcxMQ.x/haldls</text>
<text text-anchor="start" x="283" y="-298.5" font-family="Helvetica,sans-Serif" font-size="10.00">/include/stadls/vx/v1/playback</text>
<text text-anchor="middle" x="364.12" y="-286.5" font-family="Helvetica,sans-Serif" font-size="10.00">_generator.h</text>
</a>
</g>
</g>
<!-- Node9&#45;&gt;Node10 -->
<g id="edge7" class="edge">
<title>Node9&#45;&gt;Node10</title>
<path fill="none" stroke="midnightblue" d="M364.12,-374.14C364.12,-365.26 364.12,-356.04 364.12,-347.59"/>
<polygon fill="midnightblue" stroke="midnightblue" points="360.62,-374.34 364.12,-384.34 367.62,-374.34 360.62,-374.34"/>
</g>
<!-- Node11 -->
<g id="node9" class="node">
<title>Node11</title>
<g id="a_node9"><a xlink:href="v1_2init__generator_8h.html" target="_top" xlink:title=" ">
<polygon fill="white" stroke="black" points="234,-186.5 234,-242.5 412.24,-242.5 412.24,-186.5 234,-186.5"/>
<text text-anchor="start" x="242" y="-229.5" font-family="Helvetica,sans-Serif" font-size="10.00">/jenkins/jenlib_workspaces</text>
<text text-anchor="start" x="242" y="-217.5" font-family="Helvetica,sans-Serif" font-size="10.00">_f9/bld_nightly&#45;haldls.YmxkX25p</text>
<text text-anchor="start" x="242" y="-205.5" font-family="Helvetica,sans-Serif" font-size="10.00">Z2h0bHktaGFsZGxzIzcxMQ.x/haldls</text>
<text text-anchor="middle" x="323.12" y="-193.5" font-family="Helvetica,sans-Serif" font-size="10.00">/include/stadls/vx/v1/init_generator.h</text>
</a>
</g>
</g>
<!-- Node9&#45;&gt;Node11 -->
<g id="edge12" class="edge">
<title>Node9&#45;&gt;Node11</title>
<path fill="none" stroke="midnightblue" d="M290.88,-378.11C280.91,-369.54 272.07,-359.52 266.12,-348 252.04,-320.76 255.15,-307.64 266.12,-279 271.31,-265.44 280.88,-252.96 290.72,-242.71"/>
<polygon fill="midnightblue" stroke="midnightblue" points="288.71,-380.86 298.7,-384.39 293.09,-375.4 288.71,-380.86"/>
</g>
<!-- Node9&#45;&gt;Node12 -->
<g id="edge13" class="edge">
<title>Node9&#45;&gt;Node12</title>
<path fill="none" stroke="midnightblue" d="M285.15,-378.69C273.09,-369.96 261.79,-359.74 253.12,-348 209.72,-289.22 205.25,-256.31 225.12,-186 228.74,-173.18 235.76,-160.39 242.86,-149.69"/>
<polygon fill="midnightblue" stroke="midnightblue" points="283.38,-381.72 293.61,-384.49 287.34,-375.95 283.38,-381.72"/>
</g>
<!-- Node10&#45;&gt;Node11 -->
<g id="edge8" class="edge">
<title>Node10&#45;&gt;Node11</title>
<path fill="none" stroke="midnightblue" d="M346.12,-269.92C342.21,-260.67 338.18,-251.13 334.6,-242.67"/>
<polygon fill="midnightblue" stroke="midnightblue" points="343.01,-271.54 350.12,-279.39 349.45,-268.82 343.01,-271.54"/>
</g>
<!-- Node10&#45;&gt;Node12 -->
<g id="edge11" class="edge">
<title>Node10&#45;&gt;Node12</title>
<path fill="none" stroke="midnightblue" d="M405.35,-271.35C411.81,-262.64 417.54,-253.02 421.12,-243 429.65,-219.15 435.28,-207 421.12,-186 405.42,-162.72 379.59,-147.97 353.36,-138.63"/>
<polygon fill="midnightblue" stroke="midnightblue" points="402.43,-269.4 398.97,-279.41 407.92,-273.74 402.43,-269.4"/>
</g>
<!-- Node11&#45;&gt;Node12 -->
<g id="edge9" class="edge">
<title>Node11&#45;&gt;Node12</title>
<path fill="none" stroke="midnightblue" d="M299.81,-177.55C293.82,-168.31 287.47,-158.51 281.81,-149.78"/>
<polygon fill="midnightblue" stroke="midnightblue" points="297.04,-179.71 305.42,-186.2 302.91,-175.9 297.04,-179.71"/>
</g>
<!-- Node13 -->
<g id="node11" class="node">
<title>Node13</title>
<g id="a_node11"><a xlink:href="v1_2pystadls_8h.html" target="_top" xlink:title=" ">
<polygon fill="white" stroke="black" points="175,-0.5 175,-56.5 353.24,-56.5 353.24,-0.5 175,-0.5"/>
<text text-anchor="start" x="183" y="-43.5" font-family="Helvetica,sans-Serif" font-size="10.00">/jenkins/jenlib_workspaces</text>
<text text-anchor="start" x="183" y="-31.5" font-family="Helvetica,sans-Serif" font-size="10.00">_f9/bld_nightly&#45;haldls.YmxkX25p</text>
<text text-anchor="start" x="183" y="-19.5" font-family="Helvetica,sans-Serif" font-size="10.00">Z2h0bHktaGFsZGxzIzcxMQ.x/haldls</text>
<text text-anchor="middle" x="264.12" y="-7.5" font-family="Helvetica,sans-Serif" font-size="10.00">/include/stadls/vx/v1/pystadls.h</text>
</a>
</g>
</g>
<!-- Node12&#45;&gt;Node13 -->
<g id="edge10" class="edge">
<title>Node12&#45;&gt;Node13</title>
<path fill="none" stroke="midnightblue" d="M264.12,-83.12C264.12,-74.3 264.12,-65.06 264.12,-56.78"/>
<polygon fill="midnightblue" stroke="midnightblue" points="260.62,-83.2 264.12,-93.2 267.62,-83.2 260.62,-83.2"/>
</g>
<!-- Node14&#45;&gt;Node15 -->
<g id="edge17" class="edge">
<title>Node14&#45;&gt;Node15</title>
<path fill="none" stroke="midnightblue" d="M880.65,-481.44C873.28,-472.03 865.33,-461.89 858.04,-452.59"/>
<polygon fill="midnightblue" stroke="midnightblue" points="878.03,-483.77 886.95,-489.48 883.54,-479.45 878.03,-483.77"/>
</g>
<!-- Node18 -->
<g id="node16" class="node">
<title>Node18</title>
<g id="a_node16"><a xlink:href="v2_2stadls_8h.html" target="_top" xlink:title=" ">
<polygon fill="white" stroke="black" points="841,-93.5 841,-149.5 1019.24,-149.5 1019.24,-93.5 841,-93.5"/>
<text text-anchor="start" x="849" y="-136.5" font-family="Helvetica,sans-Serif" font-size="10.00">/jenkins/jenlib_workspaces</text>
<text text-anchor="start" x="849" y="-124.5" font-family="Helvetica,sans-Serif" font-size="10.00">_f9/bld_nightly&#45;haldls.YmxkX25p</text>
<text text-anchor="start" x="849" y="-112.5" font-family="Helvetica,sans-Serif" font-size="10.00">Z2h0bHktaGFsZGxzIzcxMQ.x/haldls</text>
<text text-anchor="middle" x="930.12" y="-100.5" font-family="Helvetica,sans-Serif" font-size="10.00">/include/stadls/vx/v2/stadls.h</text>
</a>
</g>
</g>
<!-- Node14&#45;&gt;Node18 -->
<g id="edge25" class="edge">
<title>Node14&#45;&gt;Node18</title>
<path fill="none" stroke="midnightblue" d="M921.69,-479.71C924.67,-471.01 927.66,-461.73 930.12,-453 955.7,-362.19 957.53,-337.28 961.12,-243 962.08,-217.68 966.82,-210.68 961.12,-186 958.22,-173.45 952.48,-160.51 946.72,-149.62"/>
<polygon fill="midnightblue" stroke="midnightblue" points="918.36,-478.62 918.36,-489.22 924.97,-480.93 918.36,-478.62"/>
</g>
<!-- Node16 -->
<g id="node14" class="node">
<title>Node16</title>
<g id="a_node14"><a xlink:href="v2_2playback__generator_8h.html" target="_top" xlink:title=" ">
<polygon fill="white" stroke="black" points="743,-279.5 743,-347.5 921.24,-347.5 921.24,-279.5 743,-279.5"/>
<text text-anchor="start" x="751" y="-334.5" font-family="Helvetica,sans-Serif" font-size="10.00">/jenkins/jenlib_workspaces</text>
<text text-anchor="start" x="751" y="-322.5" font-family="Helvetica,sans-Serif" font-size="10.00">_f9/bld_nightly&#45;haldls.YmxkX25p</text>
<text text-anchor="start" x="751" y="-310.5" font-family="Helvetica,sans-Serif" font-size="10.00">Z2h0bHktaGFsZGxzIzcxMQ.x/haldls</text>
<text text-anchor="start" x="751" y="-298.5" font-family="Helvetica,sans-Serif" font-size="10.00">/include/stadls/vx/v2/playback</text>
<text text-anchor="middle" x="832.12" y="-286.5" font-family="Helvetica,sans-Serif" font-size="10.00">_generator.h</text>
</a>
</g>
</g>
<!-- Node15&#45;&gt;Node16 -->
<g id="edge18" class="edge">
<title>Node15&#45;&gt;Node16</title>
<path fill="none" stroke="midnightblue" d="M832.12,-374.14C832.12,-365.26 832.12,-356.04 832.12,-347.59"/>
<polygon fill="midnightblue" stroke="midnightblue" points="828.62,-374.34 832.12,-384.34 835.62,-374.34 828.62,-374.34"/>
</g>
<!-- Node17 -->
<g id="node15" class="node">
<title>Node17</title>
<g id="a_node15"><a xlink:href="v2_2init__generator_8h.html" target="_top" xlink:title=" ">
<polygon fill="white" stroke="black" points="705,-186.5 705,-242.5 883.24,-242.5 883.24,-186.5 705,-186.5"/>
<text text-anchor="start" x="713" y="-229.5" font-family="Helvetica,sans-Serif" font-size="10.00">/jenkins/jenlib_workspaces</text>
<text text-anchor="start" x="713" y="-217.5" font-family="Helvetica,sans-Serif" font-size="10.00">_f9/bld_nightly&#45;haldls.YmxkX25p</text>
<text text-anchor="start" x="713" y="-205.5" font-family="Helvetica,sans-Serif" font-size="10.00">Z2h0bHktaGFsZGxzIzcxMQ.x/haldls</text>
<text text-anchor="middle" x="794.12" y="-193.5" font-family="Helvetica,sans-Serif" font-size="10.00">/include/stadls/vx/v2/init_generator.h</text>
</a>
</g>
</g>
<!-- Node15&#45;&gt;Node17 -->
<g id="edge23" class="edge">
<title>Node15&#45;&gt;Node17</title>
<path fill="none" stroke="midnightblue" d="M758.88,-378.11C748.91,-369.54 740.07,-359.52 734.12,-348 720.04,-320.76 722.79,-307.5 734.12,-279 739.56,-265.33 749.49,-252.9 759.73,-242.74"/>
<polygon fill="midnightblue" stroke="midnightblue" points="756.71,-380.86 766.7,-384.39 761.09,-375.4 756.71,-380.86"/>
</g>
<!-- Node15&#45;&gt;Node18 -->
<g id="edge24" class="edge">
<title>Node15&#45;&gt;Node18</title>
<path fill="none" stroke="midnightblue" d="M905.36,-378.11C915.33,-369.54 924.17,-359.52 930.12,-348 963.46,-283.48 948.48,-194.06 937.7,-149.71"/>
<polygon fill="midnightblue" stroke="midnightblue" points="903.15,-375.4 897.54,-384.39 907.53,-380.86 903.15,-375.4"/>
</g>
<!-- Node16&#45;&gt;Node17 -->
<g id="edge19" class="edge">
<title>Node16&#45;&gt;Node17</title>
<path fill="none" stroke="midnightblue" d="M815.44,-269.92C811.81,-260.67 808.08,-251.13 804.76,-242.67"/>
<polygon fill="midnightblue" stroke="midnightblue" points="812.24,-271.36 819.15,-279.39 818.76,-268.8 812.24,-271.36"/>
</g>
<!-- Node16&#45;&gt;Node18 -->
<g id="edge22" class="edge">
<title>Node16&#45;&gt;Node18</title>
<path fill="none" stroke="midnightblue" d="M872.15,-271.62C879.5,-262.67 886.59,-252.91 892.12,-243 908.79,-213.12 919.25,-174.91 924.88,-149.62"/>
<polygon fill="midnightblue" stroke="midnightblue" points="869.47,-269.36 865.65,-279.24 874.8,-273.9 869.47,-269.36"/>
</g>
<!-- Node17&#45;&gt;Node18 -->
<g id="edge20" class="edge">
<title>Node17&#45;&gt;Node18</title>
<path fill="none" stroke="midnightblue" d="M842.89,-180.86C858.2,-170.62 874.93,-159.43 889.6,-149.61"/>
<polygon fill="midnightblue" stroke="midnightblue" points="840.92,-177.97 834.56,-186.44 844.81,-183.79 840.92,-177.97"/>
</g>
<!-- Node19 -->
<g id="node17" class="node">
<title>Node19</title>
<g id="a_node17"><a xlink:href="v2_2pystadls_8h.html" target="_top" xlink:title=" ">
<polygon fill="white" stroke="black" points="841,-0.5 841,-56.5 1019.24,-56.5 1019.24,-0.5 841,-0.5"/>
<text text-anchor="start" x="849" y="-43.5" font-family="Helvetica,sans-Serif" font-size="10.00">/jenkins/jenlib_workspaces</text>
<text text-anchor="start" x="849" y="-31.5" font-family="Helvetica,sans-Serif" font-size="10.00">_f9/bld_nightly&#45;haldls.YmxkX25p</text>
<text text-anchor="start" x="849" y="-19.5" font-family="Helvetica,sans-Serif" font-size="10.00">Z2h0bHktaGFsZGxzIzcxMQ.x/haldls</text>
<text text-anchor="middle" x="930.12" y="-7.5" font-family="Helvetica,sans-Serif" font-size="10.00">/include/stadls/vx/v2/pystadls.h</text>
</a>
</g>
</g>
<!-- Node18&#45;&gt;Node19 -->
<g id="edge21" class="edge">
<title>Node18&#45;&gt;Node19</title>
<path fill="none" stroke="midnightblue" d="M930.12,-83.12C930.12,-74.3 930.12,-65.06 930.12,-56.78"/>
<polygon fill="midnightblue" stroke="midnightblue" points="926.62,-83.2 930.12,-93.2 933.62,-83.2 926.62,-83.2"/>
</g>
<!-- Node20&#45;&gt;Node12 -->
<g id="edge32" class="edge">
<title>Node20&#45;&gt;Node12</title>
<path fill="none" stroke="midnightblue" d="M75.85,-572.44C64.89,-533.03 51.12,-472.91 51.12,-419.5 51.12,-419.5 51.12,-419.5 51.12,-312.5 51.12,-233.59 133.54,-179.33 195.85,-149.59"/>
<polygon fill="midnightblue" stroke="midnightblue" points="72.53,-573.58 78.63,-582.24 79.27,-571.66 72.53,-573.58"/>
</g>
<!-- Node21&#45;&gt;Node18 -->
<g id="edge34" class="edge">
<title>Node21&#45;&gt;Node18</title>
<path fill="none" stroke="midnightblue" d="M974.45,-678.45C996.75,-638.77 1025.12,-576.82 1025.12,-518.5 1025.12,-518.5 1025.12,-518.5 1025.12,-312.5 1025.12,-248.88 981.98,-184.73 953.85,-149.65"/>
<polygon fill="midnightblue" stroke="midnightblue" points="971.31,-676.89 969.36,-687.31 977.38,-680.38 971.31,-676.89"/>
</g>
<!-- Node22&#45;&gt;Node7 -->
<g id="edge36" class="edge">
<title>Node22&#45;&gt;Node7</title>
<path fill="none" stroke="midnightblue" d="M363.47,-582.05C377.78,-570.19 393.69,-556.99 407.3,-545.71"/>
<polygon fill="midnightblue" stroke="midnightblue" points="361.17,-579.4 355.71,-588.48 365.64,-584.79 361.17,-579.4"/>
</g>
<!-- Node23 -->
<g id="node21" class="node">
<title>Node23</title>
<g id="a_node21"><a xlink:href="v1_2run_8h.html" target="_top" xlink:title=" ">
<polygon fill="white" stroke="black" points="79,-390.5 79,-446.5 257.24,-446.5 257.24,-390.5 79,-390.5"/>
<text text-anchor="start" x="87" y="-433.5" font-family="Helvetica,sans-Serif" font-size="10.00">/jenkins/jenlib_workspaces</text>
<text text-anchor="start" x="87" y="-421.5" font-family="Helvetica,sans-Serif" font-size="10.00">_f9/bld_nightly&#45;haldls.YmxkX25p</text>
<text text-anchor="start" x="87" y="-409.5" font-family="Helvetica,sans-Serif" font-size="10.00">Z2h0bHktaGFsZGxzIzcxMQ.x/haldls</text>
<text text-anchor="middle" x="168.12" y="-397.5" font-family="Helvetica,sans-Serif" font-size="10.00">/include/stadls/vx/v1/run.h</text>
</a>
</g>
</g>
<!-- Node22&#45;&gt;Node23 -->
<g id="edge37" class="edge">
<title>Node22&#45;&gt;Node23</title>
<path fill="none" stroke="midnightblue" d="M294.99,-579.93C264.62,-541.53 216.93,-481.22 189.49,-446.52"/>
<polygon fill="midnightblue" stroke="midnightblue" points="292.62,-582.57 301.57,-588.25 298.11,-578.23 292.62,-582.57"/>
</g>
<!-- Node24 -->
<g id="node22" class="node">
<title>Node24</title>
<g id="a_node22"><a xlink:href="v2_2run_8h.html" target="_top" xlink:title=" ">
<polygon fill="white" stroke="black" points="509,-285.5 509,-341.5 687.24,-341.5 687.24,-285.5 509,-285.5"/>
<text text-anchor="start" x="517" y="-328.5" font-family="Helvetica,sans-Serif" font-size="10.00">/jenkins/jenlib_workspaces</text>
<text text-anchor="start" x="517" y="-316.5" font-family="Helvetica,sans-Serif" font-size="10.00">_f9/bld_nightly&#45;haldls.YmxkX25p</text>
<text text-anchor="start" x="517" y="-304.5" font-family="Helvetica,sans-Serif" font-size="10.00">Z2h0bHktaGFsZGxzIzcxMQ.x/haldls</text>
<text text-anchor="middle" x="598.12" y="-292.5" font-family="Helvetica,sans-Serif" font-size="10.00">/include/stadls/vx/v2/run.h</text>
</a>
</g>
</g>
<!-- Node22&#45;&gt;Node24 -->
<g id="edge39" class="edge">
<title>Node22&#45;&gt;Node24</title>
<path fill="none" stroke="midnightblue" d="M318.83,-578.23C317.75,-550.44 321.09,-513.25 342.12,-489 378.59,-446.93 414.45,-481.77 462.12,-453 510.74,-423.66 554.27,-372.94 578.35,-341.7"/>
<polygon fill="midnightblue" stroke="midnightblue" points="315.35,-578.6 319.43,-588.38 322.33,-578.19 315.35,-578.6"/>
</g>
<!-- Node23&#45;&gt;Node12 -->
<g id="edge38" class="edge">
<title>Node23&#45;&gt;Node12</title>
<path fill="none" stroke="midnightblue" d="M163.98,-380.19C160.4,-332.39 160.04,-248.28 192.12,-186 199.37,-171.92 211.15,-159.55 223.11,-149.55"/>
<polygon fill="midnightblue" stroke="midnightblue" points="160.51,-380.72 164.83,-390.39 167.49,-380.13 160.51,-380.72"/>
</g>
<!-- Node24&#45;&gt;Node18 -->
<g id="edge40" class="edge">
<title>Node24&#45;&gt;Node18</title>
<path fill="none" stroke="midnightblue" d="M617.32,-276.39C634.34,-247.76 661.82,-208.89 696.12,-186 739.1,-157.32 794.66,-141.55 840.86,-132.9"/>
<polygon fill="midnightblue" stroke="midnightblue" points="614.14,-274.88 612.16,-285.29 620.2,-278.39 614.14,-274.88"/>
</g>
</g>
</svg>
        <g id="navigator" transform="translate(0 0)" fill="#404254">
                <rect fill="#f2f5e9" fill-opacity="0.5" stroke="#606060" stroke-width=".5" x="0" y="0" width="60" height="60"/>
                <use id="zoomplus" xlink:href="#zoomPlus" x="17" y="9" onmousedown="handleZoom(evt,'in')"/>
                <use id="zoomminus" xlink:href="#zoomMin" x="42" y="9" onmousedown="handleZoom(evt,'out')"/>
                <use id="reset" xlink:href="#resetDef" x="30" y="36" onmousedown="handleReset()"/>
                <g id="arrowUp" xlink:href="#dirArrow" transform="translate(30 24)" onmousedown="handlePan(0,-1)">
                  <use xlink:href="#rim" fill="#404040">
                        <set attributeName="fill" to="#808080" begin="arrowUp.mouseover" end="arrowUp.mouseout"/>
                  </use>
                  <path fill="none" stroke="white" stroke-width="1.5" d="M0,-3.0v7 M-2.5,-0.5L0,-3.0L2.5,-0.5"/>
                </g>
                <g id="arrowRight" xlink:href="#dirArrow" transform="rotate(90) translate(36 -43)" onmousedown="handlePan(1,0)">
                  <use xlink:href="#rim" fill="#404040">
                        <set attributeName="fill" to="#808080" begin="arrowRight.mouseover" end="arrowRight.mouseout"/>
                  </use>
                  <path fill="none" stroke="white" stroke-width="1.5" d="M0,-3.0v7 M-2.5,-0.5L0,-3.0L2.5,-0.5"/>
                </g>
                <g id="arrowDown" xlink:href="#dirArrow" transform="rotate(180) translate(-30 -48)" onmousedown="handlePan(0,1)">
                  <use xlink:href="#rim" fill="#404040">
                        <set attributeName="fill" to="#808080" begin="arrowDown.mouseover" end="arrowDown.mouseout"/>
                  </use>
                  <path fill="none" stroke="white" stroke-width="1.5" d="M0,-3.0v7 M-2.5,-0.5L0,-3.0L2.5,-0.5"/>
                </g>
                <g id="arrowLeft" xlink:href="#dirArrow" transform="rotate(270) translate(-36 17)" onmousedown="handlePan(-1,0)">
                  <use xlink:href="#rim" fill="#404040">
                        <set attributeName="fill" to="#808080" begin="arrowLeft.mouseover" end="arrowLeft.mouseout"/>
                  </use>
                  <path fill="none" stroke="white" stroke-width="1.5" d="M0,-3.0v7 M-2.5,-0.5L0,-3.0L2.5,-0.5"/>
                </g>
        </g>
        <svg viewBox="0 0 15 15" width="100%" height="30px" preserveAspectRatio="xMaxYMin meet">
         <g id="arrow_out" transform="scale(0.3 0.3)">
          <a xlink:href="run__time__info_8h__dep__incl_org.svg" target="_base">
           <rect id="button" ry="5" rx="5" y="6" x="6" height="38" width="38"
                fill="#f2f5e9" fill-opacity="0.5" stroke="#606060" stroke-width="1.0"/>
           <path id="arrow"
             d="M 11.500037,31.436501 C 11.940474,20.09759 22.043105,11.32322 32.158766,21.979434 L 37.068811,17.246167 C 37.068811,17.246167 37.088388,32 37.088388,32 L 22.160133,31.978069 C 22.160133,31.978069 26.997745,27.140456 26.997745,27.140456 C 18.528582,18.264221 13.291696,25.230495 11.500037,31.436501 z"
             style="fill:#404040;"/>
          </a>
         </g>
        </svg>
</svg>
