<?xml version="1.0" encoding="UTF-8" standalone="no"?>
<!DOCTYPE svg PUBLIC "-//W3C//DTD SVG 1.1//EN"
 "http://www.w3.org/Graphics/SVG/1.1/DTD/svg11.dtd">
<!-- Generated by graphviz version 2.43.0 (0)
 -->
<!-- Title: /jenkins/jenlib_workspaces_f9/bld_nightly&#45;haldls.YmxkX25pZ2h0bHktaGFsZGxzIzcxMQ.x/haldls/include/stadls/vx/run.h Pages: 1 -->
<svg width="578pt" height="344pt"
 viewBox="0.00 0.00 578.24 344.00" xmlns="http://www.w3.org/2000/svg" xmlns:xlink="http://www.w3.org/1999/xlink">
<g id="graph0" class="graph" transform="scale(1 1) rotate(0) translate(4 340)">
<title>/jenkins/jenlib_workspaces_f9/bld_nightly&#45;haldls.YmxkX25pZ2h0bHktaGFsZGxzIzcxMQ.x/haldls/include/stadls/vx/run.h</title>
<polygon fill="white" stroke="transparent" points="-4,4 -4,-340 574.24,-340 574.24,4 -4,4"/>
<!-- Node10 -->
<g id="node1" class="node">
<title>Node10</title>
<g id="a_node1"><a xlink:title=" ">
<polygon fill="#bfbfbf" stroke="black" points="196,-279.5 196,-335.5 374.24,-335.5 374.24,-279.5 196,-279.5"/>
<text text-anchor="start" x="204" y="-322.5" font-family="Helvetica,sans-Serif" font-size="10.00">/jenkins/jenlib_workspaces</text>
<text text-anchor="start" x="204" y="-310.5" font-family="Helvetica,sans-Serif" font-size="10.00">_f9/bld_nightly&#45;haldls.YmxkX25p</text>
<text text-anchor="start" x="204" y="-298.5" font-family="Helvetica,sans-Serif" font-size="10.00">Z2h0bHktaGFsZGxzIzcxMQ.x/haldls</text>
<text text-anchor="middle" x="285.12" y="-286.5" font-family="Helvetica,sans-Serif" font-size="10.00">/include/stadls/vx/run.h</text>
</a>
</g>
</g>
<!-- Node11 -->
<g id="node2" class="node">
<title>Node11</title>
<g id="a_node2"><a xlink:href="stadls_8h.html" target="_top" xlink:title=" ">
<polygon fill="white" stroke="black" points="0,-186.5 0,-242.5 178.24,-242.5 178.24,-186.5 0,-186.5"/>
<text text-anchor="start" x="8" y="-229.5" font-family="Helvetica,sans-Serif" font-size="10.00">/jenkins/jenlib_workspaces</text>
<text text-anchor="start" x="8" y="-217.5" font-family="Helvetica,sans-Serif" font-size="10.00">_f9/bld_nightly&#45;haldls.YmxkX25p</text>
<text text-anchor="start" x="8" y="-205.5" font-family="Helvetica,sans-Serif" font-size="10.00">Z2h0bHktaGFsZGxzIzcxMQ.x/haldls</text>
<text text-anchor="middle" x="89.12" y="-193.5" font-family="Helvetica,sans-Serif" font-size="10.00">/include/stadls/vx/stadls.h</text>
</a>
</g>
</g>
<!-- Node10&#45;&gt;Node11 -->
<g id="edge1" class="edge">
<title>Node10&#45;&gt;Node11</title>
<path fill="none" stroke="midnightblue" d="M217.57,-275.14C194.78,-264.56 169.54,-252.84 147.51,-242.61"/>
<polygon fill="midnightblue" stroke="midnightblue" points="216.3,-278.41 226.84,-279.44 219.25,-272.06 216.3,-278.41"/>
</g>
<!-- Node12 -->
<g id="node3" class="node">
<title>Node12</title>
<g id="a_node3"><a xlink:href="v1_2run_8h.html" target="_top" xlink:title=" ">
<polygon fill="white" stroke="black" points="196,-186.5 196,-242.5 374.24,-242.5 374.24,-186.5 196,-186.5"/>
<text text-anchor="start" x="204" y="-229.5" font-family="Helvetica,sans-Serif" font-size="10.00">/jenkins/jenlib_workspaces</text>
<text text-anchor="start" x="204" y="-217.5" font-family="Helvetica,sans-Serif" font-size="10.00">_f9/bld_nightly&#45;haldls.YmxkX25p</text>
<text text-anchor="start" x="204" y="-205.5" font-family="Helvetica,sans-Serif" font-size="10.00">Z2h0bHktaGFsZGxzIzcxMQ.x/haldls</text>
<text text-anchor="middle" x="285.12" y="-193.5" font-family="Helvetica,sans-Serif" font-size="10.00">/include/stadls/vx/v1/run.h</text>
</a>
</g>
</g>
<!-- Node10&#45;&gt;Node12 -->
<g id="edge2" class="edge">
<title>Node10&#45;&gt;Node12</title>
<path fill="none" stroke="midnightblue" d="M285.12,-269.12C285.12,-260.3 285.12,-251.06 285.12,-242.78"/>
<polygon fill="midnightblue" stroke="midnightblue" points="281.62,-269.2 285.12,-279.2 288.62,-269.2 281.62,-269.2"/>
</g>
<!-- Node15 -->
<g id="node6" class="node">
<title>Node15</title>
<g id="a_node6"><a xlink:href="v2_2run_8h.html" target="_top" xlink:title=" ">
<polygon fill="white" stroke="black" points="392,-186.5 392,-242.5 570.24,-242.5 570.24,-186.5 392,-186.5"/>
<text text-anchor="start" x="400" y="-229.5" font-family="Helvetica,sans-Serif" font-size="10.00">/jenkins/jenlib_workspaces</text>
<text text-anchor="start" x="400" y="-217.5" font-family="Helvetica,sans-Serif" font-size="10.00">_f9/bld_nightly&#45;haldls.YmxkX25p</text>
<text text-anchor="start" x="400" y="-205.5" font-family="Helvetica,sans-Serif" font-size="10.00">Z2h0bHktaGFsZGxzIzcxMQ.x/haldls</text>
<text text-anchor="middle" x="481.12" y="-193.5" font-family="Helvetica,sans-Serif" font-size="10.00">/include/stadls/vx/v2/run.h</text>
</a>
</g>
</g>
<!-- Node10&#45;&gt;Node15 -->
<g id="edge5" class="edge">
<title>Node10&#45;&gt;Node15</title>
<path fill="none" stroke="midnightblue" d="M352.66,-275.14C375.46,-264.56 400.7,-252.84 422.73,-242.61"/>
<polygon fill="midnightblue" stroke="midnightblue" points="350.99,-272.06 343.39,-279.44 353.94,-278.41 350.99,-272.06"/>
</g>
<!-- Node13 -->
<g id="node4" class="node">
<title>Node13</title>
<g id="a_node4"><a xlink:href="v1_2stadls_8h.html" target="_top" xlink:title=" ">
<polygon fill="white" stroke="black" points="196,-93.5 196,-149.5 374.24,-149.5 374.24,-93.5 196,-93.5"/>
<text text-anchor="start" x="204" y="-136.5" font-family="Helvetica,sans-Serif" font-size="10.00">/jenkins/jenlib_workspaces</text>
<text text-anchor="start" x="204" y="-124.5" font-family="Helvetica,sans-Serif" font-size="10.00">_f9/bld_nightly&#45;haldls.YmxkX25p</text>
<text text-anchor="start" x="204" y="-112.5" font-family="Helvetica,sans-Serif" font-size="10.00">Z2h0bHktaGFsZGxzIzcxMQ.x/haldls</text>
<text text-anchor="middle" x="285.12" y="-100.5" font-family="Helvetica,sans-Serif" font-size="10.00">/include/stadls/vx/v1/stadls.h</text>
</a>
</g>
</g>
<!-- Node12&#45;&gt;Node13 -->
<g id="edge3" class="edge">
<title>Node12&#45;&gt;Node13</title>
<path fill="none" stroke="midnightblue" d="M285.12,-176.12C285.12,-167.3 285.12,-158.06 285.12,-149.78"/>
<polygon fill="midnightblue" stroke="midnightblue" points="281.62,-176.2 285.12,-186.2 288.62,-176.2 281.62,-176.2"/>
</g>
<!-- Node14 -->
<g id="node5" class="node">
<title>Node14</title>
<g id="a_node5"><a xlink:href="v1_2pystadls_8h.html" target="_top" xlink:title=" ">
<polygon fill="white" stroke="black" points="196,-0.5 196,-56.5 374.24,-56.5 374.24,-0.5 196,-0.5"/>
<text text-anchor="start" x="204" y="-43.5" font-family="Helvetica,sans-Serif" font-size="10.00">/jenkins/jenlib_workspaces</text>
<text text-anchor="start" x="204" y="-31.5" font-family="Helvetica,sans-Serif" font-size="10.00">_f9/bld_nightly&#45;haldls.YmxkX25p</text>
<text text-anchor="start" x="204" y="-19.5" font-family="Helvetica,sans-Serif" font-size="10.00">Z2h0bHktaGFsZGxzIzcxMQ.x/haldls</text>
<text text-anchor="middle" x="285.12" y="-7.5" font-family="Helvetica,sans-Serif" font-size="10.00">/include/stadls/vx/v1/pystadls.h</text>
</a>
</g>
</g>
<!-- Node13&#45;&gt;Node14 -->
<g id="edge4" class="edge">
<title>Node13&#45;&gt;Node14</title>
<path fill="none" stroke="midnightblue" d="M285.12,-83.12C285.12,-74.3 285.12,-65.06 285.12,-56.78"/>
<polygon fill="midnightblue" stroke="midnightblue" points="281.62,-83.2 285.12,-93.2 288.62,-83.2 281.62,-83.2"/>
</g>
<!-- Node16 -->
<g id="node7" class="node">
<title>Node16</title>
<g id="a_node7"><a xlink:href="v2_2stadls_8h.html" target="_top" xlink:title=" ">
<polygon fill="white" stroke="black" points="392,-93.5 392,-149.5 570.24,-149.5 570.24,-93.5 392,-93.5"/>
<text text-anchor="start" x="400" y="-136.5" font-family="Helvetica,sans-Serif" font-size="10.00">/jenkins/jenlib_workspaces</text>
<text text-anchor="start" x="400" y="-124.5" font-family="Helvetica,sans-Serif" font-size="10.00">_f9/bld_nightly&#45;haldls.YmxkX25p</text>
<text text-anchor="start" x="400" y="-112.5" font-family="Helvetica,sans-Serif" font-size="10.00">Z2h0bHktaGFsZGxzIzcxMQ.x/haldls</text>
<text text-anchor="middle" x="481.12" y="-100.5" font-family="Helvetica,sans-Serif" font-size="10.00">/include/stadls/vx/v2/stadls.h</text>
</a>
</g>
</g>
<!-- Node15&#45;&gt;Node16 -->
<g id="edge6" class="edge">
<title>Node15&#45;&gt;Node16</title>
<path fill="none" stroke="midnightblue" d="M481.12,-176.12C481.12,-167.3 481.12,-158.06 481.12,-149.78"/>
<polygon fill="midnightblue" stroke="midnightblue" points="477.62,-176.2 481.12,-186.2 484.62,-176.2 477.62,-176.2"/>
</g>
<!-- Node17 -->
<g id="node8" class="node">
<title>Node17</title>
<g id="a_node8"><a xlink:href="v2_2pystadls_8h.html" target="_top" xlink:title=" ">
<polygon fill="white" stroke="black" points="392,-0.5 392,-56.5 570.24,-56.5 570.24,-0.5 392,-0.5"/>
<text text-anchor="start" x="400" y="-43.5" font-family="Helvetica,sans-Serif" font-size="10.00">/jenkins/jenlib_workspaces</text>
<text text-anchor="start" x="400" y="-31.5" font-family="Helvetica,sans-Serif" font-size="10.00">_f9/bld_nightly&#45;haldls.YmxkX25p</text>
<text text-anchor="start" x="400" y="-19.5" font-family="Helvetica,sans-Serif" font-size="10.00">Z2h0bHktaGFsZGxzIzcxMQ.x/haldls</text>
<text text-anchor="middle" x="481.12" y="-7.5" font-family="Helvetica,sans-Serif" font-size="10.00">/include/stadls/vx/v2/pystadls.h</text>
</a>
</g>
</g>
<!-- Node16&#45;&gt;Node17 -->
<g id="edge7" class="edge">
<title>Node16&#45;&gt;Node17</title>
<path fill="none" stroke="midnightblue" d="M481.12,-83.12C481.12,-74.3 481.12,-65.06 481.12,-56.78"/>
<polygon fill="midnightblue" stroke="midnightblue" points="477.62,-83.2 481.12,-93.2 484.62,-83.2 477.62,-83.2"/>
</g>
</g>
</svg>
