<?xml version="1.0" encoding="UTF-8" standalone="no"?>
<!DOCTYPE svg PUBLIC "-//W3C//DTD SVG 1.1//EN"
 "http://www.w3.org/Graphics/SVG/1.1/DTD/svg11.dtd">
<!-- Generated by graphviz version 2.43.0 (0)
 -->
<!-- Title: /jenkins/jenlib_workspaces_f9/bld_nightly&#45;haldls.YmxkX25pZ2h0bHktaGFsZGxzIzcxMQ.x/haldls/include/stadls/vx/stadls.h Pages: 1 -->
<!--zoomable 388 -->
<svg id="main" version="1.1" xmlns="http://www.w3.org/2000/svg" xmlns:xlink="http://www.w3.org/1999/xlink" xml:space="preserve" onload="init(evt)">
<style type="text/css"><![CDATA[
.edge:hover path { stroke: red; }
.edge:hover polygon { stroke: red; fill: red; }
]]></style>
<script type="text/javascript"><![CDATA[
var edges = document.getElementsByTagName('g');
if (edges && edges.length) {
  for (var i=0;i<edges.length;i++) {
    if (edges[i].id.substr(0,4)=='edge') {
      edges[i].setAttribute('class','edge');
    }
  }
}
]]></script>
        <defs>
                <circle id="rim" cx="0" cy="0" r="7"/>
                <circle id="rim2" cx="0" cy="0" r="3.5"/>
                <g id="zoomPlus">
                        <use xlink:href="#rim" fill="#404040">
                                <set attributeName="fill" to="#808080" begin="zoomplus.mouseover" end="zoomplus.mouseout"/>
                        </use>
                        <path d="M-4,0h8M0,-4v8" fill="none" stroke="white" stroke-width="1.5" pointer-events="none"/>
                </g>
                <g id="zoomMin">
                        <use xlink:href="#rim" fill="#404040">
                                <set attributeName="fill" to="#808080" begin="zoomminus.mouseover" end="zoomminus.mouseout"/>
                        </use>
                        <path d="M-4,0h8" fill="none" stroke="white" stroke-width="1.5" pointer-events="none"/>
                </g>
                <g id="dirArrow">
                        <path fill="none" stroke="white" stroke-width="1.5" d="M0,-3.0v7 M-2.5,-0.5L0,-3.0L2.5,-0.5"/>
                </g>
               <g id="resetDef">
                       <use xlink:href="#rim2" fill="#404040">
                               <set attributeName="fill" to="#808080" begin="reset.mouseover" end="reset.mouseout"/>
                       </use>
               </g>
        </defs>

<script type="text/javascript">
var viewWidth = 2093;
var viewHeight = 388;
var sectionId = 'dynsection-0';
</script>
<script xlink:href="svgpan.js"/>
<svg id="graph" class="graph">
<g id="viewport">
<title>/jenkins/jenlib_workspaces_f9/bld_nightly&#45;haldls.YmxkX25pZ2h0bHktaGFsZGxzIzcxMQ.x/haldls/include/stadls/vx/stadls.h</title>
<polygon fill="white" stroke="transparent" points="-4,4 -4,-383.55 2089.12,-383.55 2089.12,4 -4,4"/>
<!-- Node0 -->
<g id="node1" class="node">
<title>Node0</title>
<g id="a_node1"><a xlink:title=" ">
<polygon fill="#bfbfbf" stroke="black" points="403.17,-323.05 403.17,-379.05 581.4,-379.05 581.4,-323.05 403.17,-323.05"/>
<text text-anchor="start" x="411.17" y="-366.05" font-family="Helvetica,sans-Serif" font-size="10.00">/jenkins/jenlib_workspaces</text>
<text text-anchor="start" x="411.17" y="-354.05" font-family="Helvetica,sans-Serif" font-size="10.00">_f9/bld_nightly&#45;haldls.YmxkX25p</text>
<text text-anchor="start" x="411.17" y="-342.05" font-family="Helvetica,sans-Serif" font-size="10.00">Z2h0bHktaGFsZGxzIzcxMQ.x/haldls</text>
<text text-anchor="middle" x="492.29" y="-330.05" font-family="Helvetica,sans-Serif" font-size="10.00">/include/stadls/vx/stadls.h</text>
</a>
</g>
</g>
<!-- Node1 -->
<g id="node2" class="node">
<title>Node1</title>
<g id="a_node2"><a xlink:href="constants_8h.html" target="_top" xlink:title=" ">
<polygon fill="white" stroke="black" points="38.88,-260.05 38.88,-280.05 147.69,-280.05 147.69,-260.05 38.88,-260.05"/>
<text text-anchor="middle" x="93.29" y="-267.05" font-family="Helvetica,sans-Serif" font-size="10.00">stadls/vx/constants.h</text>
</a>
</g>
</g>
<!-- Node0&#45;&gt;Node1 -->
<g id="edge1" class="edge">
<title>Node0&#45;&gt;Node1</title>
<path fill="none" stroke="midnightblue" d="M402.88,-334.52C335.03,-322.41 239.53,-304.65 156.29,-286.55 150.5,-285.3 144.44,-283.9 138.46,-282.48"/>
<polygon fill="midnightblue" stroke="midnightblue" points="139.07,-279.03 128.53,-280.08 137.42,-285.83 139.07,-279.03"/>
</g>
<!-- Node3 -->
<g id="node4" class="node">
<title>Node3</title>
<g id="a_node4"><a xlink:title=" ">
<polygon fill="white" stroke="#bfbfbf" points="165.72,-260.05 165.72,-280.05 292.85,-280.05 292.85,-260.05 165.72,-260.05"/>
<text text-anchor="middle" x="229.29" y="-267.05" font-family="Helvetica,sans-Serif" font-size="10.00">stadls/vx/init_generator.h</text>
</a>
</g>
</g>
<!-- Node0&#45;&gt;Node3 -->
<g id="edge3" class="edge">
<title>Node0&#45;&gt;Node3</title>
<path fill="none" stroke="midnightblue" d="M402.88,-323.2C357.47,-309.56 304.59,-293.67 269.23,-283.05"/>
<polygon fill="midnightblue" stroke="midnightblue" points="269.88,-279.59 259.29,-280.07 267.86,-286.3 269.88,-279.59"/>
</g>
<!-- Node4 -->
<g id="node5" class="node">
<title>Node4</title>
<g id="a_node5"><a xlink:href="playback__generator_8h.html" target="_top" xlink:title=" ">
<polygon fill="white" stroke="black" points="212.72,-128.05 212.72,-160.05 309.85,-160.05 309.85,-128.05 212.72,-128.05"/>
<text text-anchor="start" x="220.72" y="-147.05" font-family="Helvetica,sans-Serif" font-size="10.00">stadls/vx/playback</text>
<text text-anchor="middle" x="261.29" y="-135.05" font-family="Helvetica,sans-Serif" font-size="10.00">_generator.h</text>
</a>
</g>
</g>
<!-- Node0&#45;&gt;Node4 -->
<g id="edge4" class="edge">
<title>Node0&#45;&gt;Node4</title>
<path fill="none" stroke="midnightblue" d="M461.61,-322.83C415.26,-281.7 328.29,-204.52 285.85,-166.85"/>
<polygon fill="midnightblue" stroke="midnightblue" points="288.02,-164.1 278.22,-160.08 283.38,-169.34 288.02,-164.1"/>
</g>
<!-- Node10 -->
<g id="node11" class="node">
<title>Node10</title>
<g id="a_node11"><a xlink:href="playback__program_8h.html" target="_top" xlink:title=" ">
<polygon fill="white" stroke="black" points="1142.72,-128.05 1142.72,-160.05 1239.85,-160.05 1239.85,-128.05 1142.72,-128.05"/>
<text text-anchor="start" x="1150.72" y="-147.05" font-family="Helvetica,sans-Serif" font-size="10.00">stadls/vx/playback</text>
<text text-anchor="middle" x="1191.29" y="-135.05" font-family="Helvetica,sans-Serif" font-size="10.00">_program.h</text>
</a>
</g>
</g>
<!-- Node0&#45;&gt;Node10 -->
<g id="edge11" class="edge">
<title>Node0&#45;&gt;Node10</title>
<path fill="none" stroke="midnightblue" d="M581.55,-342.16C741.32,-326.46 1067.77,-286.72 1156.29,-217.55 1171.28,-205.83 1180.23,-186.07 1185.32,-170.13"/>
<polygon fill="midnightblue" stroke="midnightblue" points="1188.73,-170.91 1188.13,-160.34 1182,-168.98 1188.73,-170.91"/>
</g>
<!-- Node27 -->
<g id="node28" class="node">
<title>Node27</title>
<g id="a_node28"><a xlink:href="playback__program__builder_8h.html" target="_top" xlink:title=" ">
<polygon fill="white" stroke="black" points="713.94,-254.05 713.94,-286.05 816.63,-286.05 816.63,-254.05 713.94,-254.05"/>
<text text-anchor="start" x="721.94" y="-273.05" font-family="Helvetica,sans-Serif" font-size="10.00">stadls/vx/playback</text>
<text text-anchor="middle" x="765.29" y="-261.05" font-family="Helvetica,sans-Serif" font-size="10.00">_program_builder.h</text>
</a>
</g>
</g>
<!-- Node0&#45;&gt;Node27 -->
<g id="edge31" class="edge">
<title>Node0&#45;&gt;Node27</title>
<path fill="none" stroke="midnightblue" d="M581.68,-324.18C621.62,-312.63 667.69,-299.29 703.7,-288.87"/>
<polygon fill="midnightblue" stroke="midnightblue" points="704.94,-292.16 713.57,-286.02 702.99,-285.44 704.94,-292.16"/>
</g>
<!-- Node36 -->
<g id="node37" class="node">
<title>Node36</title>
<g id="a_node37"><a xlink:href="run_8h.html" target="_top" xlink:title=" ">
<polygon fill="white" stroke="black" points="1778.06,-197.05 1778.06,-217.05 1858.51,-217.05 1858.51,-197.05 1778.06,-197.05"/>
<text text-anchor="middle" x="1818.29" y="-204.05" font-family="Helvetica,sans-Serif" font-size="10.00">stadls/vx/run.h</text>
</a>
</g>
</g>
<!-- Node0&#45;&gt;Node36 -->
<g id="edge50" class="edge">
<title>Node0&#45;&gt;Node36</title>
<path fill="none" stroke="midnightblue" d="M581.47,-343.2C716.42,-332.58 980.51,-310.83 1204.29,-286.55 1413.92,-263.81 1662.91,-229.81 1767.77,-215.18"/>
<polygon fill="midnightblue" stroke="midnightblue" points="1768.34,-218.63 1777.76,-213.78 1767.37,-211.7 1768.34,-218.63"/>
</g>
<!-- Node2 -->
<g id="node3" class="node">
<title>Node2</title>
<g id="a_node3"><a xlink:title=" ">
<polygon fill="white" stroke="#bfbfbf" points="41.66,-197.05 41.66,-217.05 144.91,-217.05 144.91,-197.05 41.66,-197.05"/>
<text text-anchor="middle" x="93.29" y="-204.05" font-family="Helvetica,sans-Serif" font-size="10.00">fisch/vx/constants.h</text>
</a>
</g>
</g>
<!-- Node1&#45;&gt;Node2 -->
<g id="edge2" class="edge">
<title>Node1&#45;&gt;Node2</title>
<path fill="none" stroke="midnightblue" d="M93.29,-260.05C93.29,-251.49 93.29,-238.34 93.29,-227.4"/>
<polygon fill="midnightblue" stroke="midnightblue" points="96.79,-227.09 93.29,-217.09 89.79,-227.09 96.79,-227.09"/>
</g>
<!-- Node5 -->
<g id="node6" class="node">
<title>Node5</title>
<g id="a_node6"><a xlink:title=" ">
<polygon fill="white" stroke="#bfbfbf" points="185.15,-65.05 185.15,-85.05 293.42,-85.05 293.42,-65.05 185.15,-65.05"/>
<text text-anchor="middle" x="239.29" y="-72.05" font-family="Helvetica,sans-Serif" font-size="10.00">pybind11/pybind11.h</text>
</a>
</g>
</g>
<!-- Node4&#45;&gt;Node5 -->
<g id="edge5" class="edge">
<title>Node4&#45;&gt;Node5</title>
<path fill="none" stroke="midnightblue" d="M256.29,-127.85C253.09,-118.11 248.92,-105.39 245.5,-94.99"/>
<polygon fill="midnightblue" stroke="midnightblue" points="248.74,-93.63 242.29,-85.22 242.09,-95.81 248.74,-93.63"/>
</g>
<!-- Node6 -->
<g id="node7" class="node">
<title>Node6</title>
<g id="a_node7"><a xlink:title=" ">
<polygon fill="white" stroke="#bfbfbf" points="0,-65.05 0,-85.05 56.57,-85.05 56.57,-65.05 0,-65.05"/>
<text text-anchor="middle" x="28.29" y="-72.05" font-family="Helvetica,sans-Serif" font-size="10.00">hate/nil.h</text>
</a>
</g>
</g>
<!-- Node4&#45;&gt;Node6 -->
<g id="edge6" class="edge">
<title>Node4&#45;&gt;Node6</title>
<path fill="none" stroke="midnightblue" d="M212.69,-132.06C172.93,-122.63 115.43,-107.99 66.29,-91.55 63.71,-90.69 61.07,-89.75 58.42,-88.76"/>
<polygon fill="midnightblue" stroke="midnightblue" points="59.6,-85.46 49.01,-85.07 57.04,-91.98 59.6,-85.46"/>
</g>
<!-- Node7 -->
<g id="node8" class="node">
<title>Node7</title>
<g id="a_node8"><a xlink:title=" ">
<polygon fill="white" stroke="#bfbfbf" points="74.94,-65.05 74.94,-85.05 167.63,-85.05 167.63,-65.05 74.94,-65.05"/>
<text text-anchor="middle" x="121.29" y="-72.05" font-family="Helvetica,sans-Serif" font-size="10.00">hate/type_traits.h</text>
</a>
</g>
</g>
<!-- Node4&#45;&gt;Node7 -->
<g id="edge7" class="edge">
<title>Node4&#45;&gt;Node7</title>
<path fill="none" stroke="midnightblue" d="M229.87,-128.02C205.74,-116.47 172.72,-100.67 149.45,-89.53"/>
<polygon fill="midnightblue" stroke="midnightblue" points="150.66,-86.23 140.13,-85.07 147.64,-92.54 150.66,-86.23"/>
</g>
<!-- Node8 -->
<g id="node9" class="node">
<title>Node8</title>
<g id="a_node9"><a xlink:title=" ">
<polygon fill="white" stroke="#bfbfbf" points="387.78,-65.05 387.78,-85.05 468.79,-85.05 468.79,-65.05 387.78,-65.05"/>
<text text-anchor="middle" x="428.29" y="-72.05" font-family="Helvetica,sans-Serif" font-size="10.00">hate/visibility.h</text>
</a>
</g>
</g>
<!-- Node4&#45;&gt;Node8 -->
<g id="edge8" class="edge">
<title>Node4&#45;&gt;Node8</title>
<path fill="none" stroke="midnightblue" d="M298.76,-128.02C328.05,-116.26 368.33,-100.1 396.16,-88.94"/>
<polygon fill="midnightblue" stroke="midnightblue" points="397.83,-92.04 405.81,-85.07 395.22,-85.55 397.83,-92.04"/>
</g>
<!-- Node9 -->
<g id="node10" class="node">
<title>Node9</title>
<g id="a_node10"><a xlink:href="genpybind_8h.html" target="_top" xlink:title=" ">
<polygon fill="white" stroke="black" points="1775.21,-2.05 1775.21,-22.05 1887.36,-22.05 1887.36,-2.05 1775.21,-2.05"/>
<text text-anchor="middle" x="1831.29" y="-9.05" font-family="Helvetica,sans-Serif" font-size="10.00">stadls/vx/genpybind.h</text>
</a>
</g>
</g>
<!-- Node4&#45;&gt;Node9 -->
<g id="edge9" class="edge">
<title>Node4&#45;&gt;Node9</title>
<path fill="none" stroke="midnightblue" d="M273.96,-127.83C292.85,-105.59 328.02,-66.05 345.29,-58.55 411.14,-29.97 1485.06,-16.7 1764.99,-13.72"/>
<polygon fill="midnightblue" stroke="midnightblue" points="1765.04,-17.22 1775,-13.61 1764.96,-10.22 1765.04,-17.22"/>
</g>
<!-- Node9&#45;&gt;Node9 -->
<g id="edge10" class="edge">
<title>Node9&#45;&gt;Node9</title>
<path fill="none" stroke="midnightblue" d="M1859.79,-22.11C1882.28,-26 1905.36,-22.65 1905.36,-12.05 1905.36,-3.03 1888.62,0.74 1869.77,-0.74"/>
<polygon fill="midnightblue" stroke="midnightblue" points="1869.28,2.72 1859.79,-1.99 1870.15,-4.22 1869.28,2.72"/>
</g>
<!-- Node10&#45;&gt;Node8 -->
<g id="edge23" class="edge">
<title>Node10&#45;&gt;Node8</title>
<path fill="none" stroke="midnightblue" d="M1142.66,-136.8C1117.25,-133.69 1085.63,-130.07 1057.29,-127.55 800.47,-104.73 731.89,-138.05 478.29,-91.55 473.4,-90.66 468.33,-89.44 463.36,-88.07"/>
<polygon fill="midnightblue" stroke="midnightblue" points="464.01,-84.62 453.43,-85.13 462.02,-91.33 464.01,-84.62"/>
</g>
<!-- Node10&#45;&gt;Node9 -->
<g id="edge25" class="edge">
<title>Node10&#45;&gt;Node9</title>
<path fill="none" stroke="midnightblue" d="M1240.05,-142.24C1378.9,-139.48 1769.14,-128.49 1812.29,-91.55 1829.13,-77.13 1832.41,-50.56 1832.46,-32.36"/>
<polygon fill="midnightblue" stroke="midnightblue" points="1835.96,-32.19 1832.17,-22.3 1828.96,-32.39 1835.96,-32.19"/>
</g>
<!-- Node11 -->
<g id="node12" class="node">
<title>Node11</title>
<g id="a_node12"><a xlink:title=" ">
<polygon fill="white" stroke="#bfbfbf" points="1688.84,-65.05 1688.84,-85.05 1733.73,-85.05 1733.73,-65.05 1688.84,-65.05"/>
<text text-anchor="middle" x="1711.29" y="-72.05" font-family="Helvetica,sans-Serif" font-size="10.00">cstdint</text>
</a>
</g>
</g>
<!-- Node10&#45;&gt;Node11 -->
<g id="edge12" class="edge">
<title>Node10&#45;&gt;Node11</title>
<path fill="none" stroke="midnightblue" d="M1240.13,-143.41C1329.2,-142.87 1523.23,-136.11 1679.29,-91.55 1681.59,-90.89 1683.93,-90.08 1686.24,-89.17"/>
<polygon fill="midnightblue" stroke="midnightblue" points="1687.73,-92.34 1695.44,-85.07 1684.88,-85.95 1687.73,-92.34"/>
</g>
<!-- Node12 -->
<g id="node13" class="node">
<title>Node12</title>
<g id="a_node13"><a xlink:title=" ">
<polygon fill="white" stroke="#bfbfbf" points="731.23,-65.05 731.23,-85.05 783.34,-85.05 783.34,-65.05 731.23,-65.05"/>
<text text-anchor="middle" x="757.29" y="-72.05" font-family="Helvetica,sans-Serif" font-size="10.00">memory</text>
</a>
</g>
</g>
<!-- Node10&#45;&gt;Node12 -->
<g id="edge13" class="edge">
<title>Node10&#45;&gt;Node12</title>
<path fill="none" stroke="midnightblue" d="M1142.58,-130.38C1137.77,-129.34 1132.94,-128.37 1128.29,-127.55 980.36,-101.55 937.35,-130.43 792.29,-91.55 789.67,-90.85 787,-89.98 784.35,-89.01"/>
<polygon fill="midnightblue" stroke="midnightblue" points="785.64,-85.76 775.06,-85.2 782.99,-92.23 785.64,-85.76"/>
</g>
<!-- Node13 -->
<g id="node14" class="node">
<title>Node13</title>
<g id="a_node14"><a xlink:title=" ">
<polygon fill="white" stroke="#bfbfbf" points="1751.78,-65.05 1751.78,-85.05 1802.79,-85.05 1802.79,-65.05 1751.78,-65.05"/>
<text text-anchor="middle" x="1777.29" y="-72.05" font-family="Helvetica,sans-Serif" font-size="10.00">optional</text>
</a>
</g>
</g>
<!-- Node10&#45;&gt;Node13 -->
<g id="edge14" class="edge">
<title>Node10&#45;&gt;Node13</title>
<path fill="none" stroke="midnightblue" d="M1240.1,-143.73C1337.34,-143.93 1561.46,-138.7 1742.29,-91.55 1744.97,-90.85 1747.7,-89.97 1750.4,-88.98"/>
<polygon fill="midnightblue" stroke="midnightblue" points="1751.96,-92.13 1759.88,-85.09 1749.3,-85.65 1751.96,-92.13"/>
</g>
<!-- Node14 -->
<g id="node15" class="node">
<title>Node14</title>
<g id="a_node15"><a xlink:title=" ">
<polygon fill="white" stroke="#bfbfbf" points="801.06,-65.05 801.06,-85.05 841.51,-85.05 841.51,-65.05 801.06,-65.05"/>
<text text-anchor="middle" x="821.29" y="-72.05" font-family="Helvetica,sans-Serif" font-size="10.00">string</text>
</a>
</g>
</g>
<!-- Node10&#45;&gt;Node14 -->
<g id="edge15" class="edge">
<title>Node10&#45;&gt;Node14</title>
<path fill="none" stroke="midnightblue" d="M1142.56,-130.49C1137.75,-129.43 1132.93,-128.42 1128.29,-127.55 1006.26,-104.69 969.77,-128.6 851.29,-91.55 849.4,-90.96 847.48,-90.26 845.59,-89.48"/>
<polygon fill="midnightblue" stroke="midnightblue" points="846.96,-86.26 836.42,-85.17 843.98,-92.59 846.96,-86.26"/>
</g>
<!-- Node15 -->
<g id="node16" class="node">
<title>Node15</title>
<g id="a_node16"><a xlink:title=" ">
<polygon fill="white" stroke="#bfbfbf" points="1859.67,-65.05 1859.67,-85.05 1902.9,-85.05 1902.9,-65.05 1859.67,-65.05"/>
<text text-anchor="middle" x="1881.29" y="-72.05" font-family="Helvetica,sans-Serif" font-size="10.00">vector</text>
</a>
</g>
</g>
<!-- Node10&#45;&gt;Node15 -->
<g id="edge16" class="edge">
<title>Node10&#45;&gt;Node15</title>
<path fill="none" stroke="midnightblue" d="M1239.99,-141.28C1371.29,-136.18 1730.44,-119.97 1845.29,-91.55 1848.13,-90.85 1851.04,-89.94 1853.91,-88.92"/>
<polygon fill="midnightblue" stroke="midnightblue" points="1855.39,-92.1 1863.37,-85.13 1852.79,-85.6 1855.39,-92.1"/>
</g>
<!-- Node16 -->
<g id="node17" class="node">
<title>Node16</title>
<g id="a_node17"><a xlink:title=" ">
<polygon fill="white" stroke="#bfbfbf" points="859.94,-65.05 859.94,-85.05 952.63,-85.05 952.63,-65.05 859.94,-65.05"/>
<text text-anchor="middle" x="906.29" y="-72.05" font-family="Helvetica,sans-Serif" font-size="10.00">boost/variant.hpp</text>
</a>
</g>
</g>
<!-- Node10&#45;&gt;Node16 -->
<g id="edge17" class="edge">
<title>Node10&#45;&gt;Node16</title>
<path fill="none" stroke="midnightblue" d="M1142.48,-130.9C1137.69,-129.75 1132.89,-128.62 1128.29,-127.55 1054.3,-110.48 1034.97,-109.86 961.29,-91.55 956.6,-90.39 951.7,-89.11 946.85,-87.79"/>
<polygon fill="midnightblue" stroke="midnightblue" points="947.6,-84.37 937.03,-85.08 945.74,-91.12 947.6,-84.37"/>
</g>
<!-- Node17 -->
<g id="node18" class="node">
<title>Node17</title>
<g id="a_node18"><a xlink:title=" ">
<polygon fill="white" stroke="#bfbfbf" points="970.67,-59.05 970.67,-91.05 1063.9,-91.05 1063.9,-59.05 970.67,-59.05"/>
<text text-anchor="start" x="978.67" y="-78.05" font-family="Helvetica,sans-Serif" font-size="10.00">fisch/vx/container</text>
<text text-anchor="middle" x="1017.29" y="-66.05" font-family="Helvetica,sans-Serif" font-size="10.00">_ticket.h</text>
</a>
</g>
</g>
<!-- Node10&#45;&gt;Node17 -->
<g id="edge18" class="edge">
<title>Node10&#45;&gt;Node17</title>
<path fill="none" stroke="midnightblue" d="M1152.24,-128.02C1126.69,-118.18 1093.13,-105.26 1065.86,-94.76"/>
<polygon fill="midnightblue" stroke="midnightblue" points="1067.09,-91.48 1056.5,-91.15 1064.58,-98.01 1067.09,-91.48"/>
</g>
<!-- Node18 -->
<g id="node19" class="node">
<title>Node18</title>
<g id="a_node19"><a xlink:title=" ">
<polygon fill="white" stroke="#bfbfbf" points="1081.94,-65.05 1081.94,-85.05 1224.63,-85.05 1224.63,-65.05 1081.94,-65.05"/>
<text text-anchor="middle" x="1153.29" y="-72.05" font-family="Helvetica,sans-Serif" font-size="10.00">fisch/vx/playback_program.h</text>
</a>
</g>
</g>
<!-- Node10&#45;&gt;Node18 -->
<g id="edge19" class="edge">
<title>Node10&#45;&gt;Node18</title>
<path fill="none" stroke="midnightblue" d="M1182.66,-127.85C1176.96,-117.8 1169.46,-104.58 1163.47,-94.01"/>
<polygon fill="midnightblue" stroke="midnightblue" points="1166.46,-92.19 1158.48,-85.22 1160.37,-95.64 1166.46,-92.19"/>
</g>
<!-- Node19 -->
<g id="node20" class="node">
<title>Node19</title>
<g id="a_node20"><a xlink:title=" ">
<polygon fill="white" stroke="#bfbfbf" points="487.11,-65.05 487.11,-85.05 591.46,-85.05 591.46,-65.05 487.11,-65.05"/>
<text text-anchor="middle" x="539.29" y="-72.05" font-family="Helvetica,sans-Serif" font-size="10.00">haldls/vx/common.h</text>
</a>
</g>
</g>
<!-- Node10&#45;&gt;Node19 -->
<g id="edge20" class="edge">
<title>Node10&#45;&gt;Node19</title>
<path fill="none" stroke="midnightblue" d="M1142.64,-136.99C1117.23,-133.94 1085.61,-130.3 1057.29,-127.55 854.5,-107.84 801.3,-124.76 600.29,-91.55 593.92,-90.5 587.24,-89.11 580.74,-87.59"/>
<polygon fill="midnightblue" stroke="midnightblue" points="581.28,-84.12 570.73,-85.13 579.6,-90.92 581.28,-84.12"/>
</g>
<!-- Node20 -->
<g id="node21" class="node">
<title>Node20</title>
<g id="a_node21"><a xlink:title=" ">
<polygon fill="white" stroke="#bfbfbf" points="1243.05,-65.05 1243.05,-85.05 1333.52,-85.05 1333.52,-65.05 1243.05,-65.05"/>
<text text-anchor="middle" x="1288.29" y="-72.05" font-family="Helvetica,sans-Serif" font-size="10.00">haldls/vx/event.h</text>
</a>
</g>
</g>
<!-- Node10&#45;&gt;Node20 -->
<g id="edge21" class="edge">
<title>Node10&#45;&gt;Node20</title>
<path fill="none" stroke="midnightblue" d="M1213.3,-127.85C1229.18,-116.88 1250.54,-102.12 1266.4,-91.17"/>
<polygon fill="midnightblue" stroke="midnightblue" points="1268.78,-93.78 1275.02,-85.22 1264.8,-88.02 1268.78,-93.78"/>
</g>
<!-- Node21 -->
<g id="node22" class="node">
<title>Node21</title>
<g id="a_node22"><a xlink:title=" ">
<polygon fill="white" stroke="#bfbfbf" points="1351.66,-65.05 1351.66,-85.05 1434.91,-85.05 1434.91,-65.05 1351.66,-65.05"/>
<text text-anchor="middle" x="1393.29" y="-72.05" font-family="Helvetica,sans-Serif" font-size="10.00">hate/type_list.h</text>
</a>
</g>
</g>
<!-- Node10&#45;&gt;Node21 -->
<g id="edge22" class="edge">
<title>Node10&#45;&gt;Node21</title>
<path fill="none" stroke="midnightblue" d="M1236.62,-128.02C1272.67,-116.06 1322.48,-99.54 1356.19,-88.36"/>
<polygon fill="midnightblue" stroke="midnightblue" points="1357.71,-91.54 1366.1,-85.07 1355.5,-84.9 1357.71,-91.54"/>
</g>
<!-- Node22 -->
<g id="node23" class="node">
<title>Node22</title>
<g id="a_node23"><a xlink:title=" ">
<polygon fill="white" stroke="#bfbfbf" points="609.67,-65.05 609.67,-85.05 712.9,-85.05 712.9,-65.05 609.67,-65.05"/>
<text text-anchor="middle" x="661.29" y="-72.05" font-family="Helvetica,sans-Serif" font-size="10.00">hxcomm/vx/target.h</text>
</a>
</g>
</g>
<!-- Node10&#45;&gt;Node22 -->
<g id="edge24" class="edge">
<title>Node10&#45;&gt;Node22</title>
<path fill="none" stroke="midnightblue" d="M1142.56,-135.02C1125.99,-132.44 1107.36,-129.7 1090.29,-127.55 927.23,-107.08 884.16,-119.87 722.29,-91.55 716,-90.45 709.41,-89.05 702.97,-87.53"/>
<polygon fill="midnightblue" stroke="midnightblue" points="703.61,-84.09 693.06,-85.1 701.94,-90.88 703.61,-84.09"/>
</g>
<!-- Node23 -->
<g id="node24" class="node">
<title>Node23</title>
<g id="a_node24"><a xlink:href="run__time__info_8h.html" target="_top" xlink:title=" ">
<polygon fill="white" stroke="black" points="1959,-59.05 1959,-91.05 2055.57,-91.05 2055.57,-59.05 1959,-59.05"/>
<text text-anchor="start" x="1967" y="-78.05" font-family="Helvetica,sans-Serif" font-size="10.00">stadls/vx/run_time</text>
<text text-anchor="middle" x="2007.29" y="-66.05" font-family="Helvetica,sans-Serif" font-size="10.00">_info.h</text>
</a>
</g>
</g>
<!-- Node10&#45;&gt;Node23 -->
<g id="edge26" class="edge">
<title>Node10&#45;&gt;Node23</title>
<path fill="none" stroke="midnightblue" d="M1239.95,-141.1C1356.41,-136.09 1660.2,-121.06 1912.29,-91.55 1924.09,-90.17 1936.66,-88.36 1948.66,-86.47"/>
<polygon fill="midnightblue" stroke="midnightblue" points="1949.27,-89.92 1958.59,-84.87 1948.16,-83.01 1949.27,-89.92"/>
</g>
<!-- Node25 -->
<g id="node26" class="node">
<title>Node25</title>
<g id="a_node26"><a xlink:title=" ">
<polygon fill="white" stroke="#bfbfbf" points="1452.44,-65.05 1452.44,-85.05 1550.13,-85.05 1550.13,-65.05 1452.44,-65.05"/>
<text text-anchor="middle" x="1501.29" y="-72.05" font-family="Helvetica,sans-Serif" font-size="10.00">pybind11/numpy.h</text>
</a>
</g>
</g>
<!-- Node10&#45;&gt;Node25 -->
<g id="edge29" class="edge">
<title>Node10&#45;&gt;Node25</title>
<path fill="none" stroke="midnightblue" d="M1239.99,-134.11C1291.09,-124.5 1373.63,-108.33 1444.29,-91.55 1449.27,-90.37 1454.48,-89.06 1459.64,-87.71"/>
<polygon fill="midnightblue" stroke="midnightblue" points="1460.66,-91.06 1469.42,-85.11 1458.86,-84.3 1460.66,-91.06"/>
</g>
<!-- Node26 -->
<g id="node27" class="node">
<title>Node26</title>
<g id="a_node27"><a xlink:title=" ">
<polygon fill="white" stroke="#bfbfbf" points="1568.21,-65.05 1568.21,-85.05 1670.36,-85.05 1670.36,-65.05 1568.21,-65.05"/>
<text text-anchor="middle" x="1619.29" y="-72.05" font-family="Helvetica,sans-Serif" font-size="10.00">pybind11/stl_bind.h</text>
</a>
</g>
</g>
<!-- Node10&#45;&gt;Node26 -->
<g id="edge30" class="edge">
<title>Node10&#45;&gt;Node26</title>
<path fill="none" stroke="midnightblue" d="M1240.1,-138.01C1310.85,-130.3 1445.86,-114.06 1559.29,-91.55 1565.1,-90.4 1571.19,-89.02 1577.17,-87.58"/>
<polygon fill="midnightblue" stroke="midnightblue" points="1578.21,-90.92 1587.06,-85.1 1576.5,-84.13 1578.21,-90.92"/>
</g>
<!-- Node23&#45;&gt;Node9 -->
<g id="edge28" class="edge">
<title>Node23&#45;&gt;Node9</title>
<path fill="none" stroke="midnightblue" d="M1963.78,-58.97C1934.04,-48.67 1895.11,-35.17 1867.15,-25.48"/>
<polygon fill="midnightblue" stroke="midnightblue" points="1867.98,-22.07 1857.38,-22.1 1865.69,-28.68 1867.98,-22.07"/>
</g>
<!-- Node24 -->
<g id="node25" class="node">
<title>Node24</title>
<g id="a_node25"><a xlink:title=" ">
<polygon fill="white" stroke="#bfbfbf" points="1946.78,-2.05 1946.78,-22.05 2067.8,-22.05 2067.8,-2.05 1946.78,-2.05"/>
<text text-anchor="middle" x="2007.29" y="-9.05" font-family="Helvetica,sans-Serif" font-size="10.00">fisch/vx/run_time_info.h</text>
</a>
</g>
</g>
<!-- Node23&#45;&gt;Node24 -->
<g id="edge27" class="edge">
<title>Node23&#45;&gt;Node24</title>
<path fill="none" stroke="midnightblue" d="M2007.29,-58.97C2007.29,-50.93 2007.29,-40.94 2007.29,-32.33"/>
<polygon fill="midnightblue" stroke="midnightblue" points="2010.79,-32.1 2007.29,-22.1 2003.79,-32.1 2010.79,-32.1"/>
</g>
<!-- Node27&#45;&gt;Node8 -->
<g id="edge38" class="edge">
<title>Node27&#45;&gt;Node8</title>
<path fill="none" stroke="midnightblue" d="M713.75,-264.27C643.56,-256.97 522.36,-241.34 485.29,-217.55 443.59,-190.81 432.4,-127.61 429.39,-95.51"/>
<polygon fill="midnightblue" stroke="midnightblue" points="432.85,-94.92 428.61,-85.21 425.87,-95.44 432.85,-94.92"/>
</g>
<!-- Node27&#45;&gt;Node9 -->
<g id="edge48" class="edge">
<title>Node27&#45;&gt;Node9</title>
<path fill="none" stroke="midnightblue" d="M713.81,-265.35C638.06,-259.08 501.15,-244.36 460.29,-217.55 393.8,-173.94 322.95,-115.65 378.29,-58.55 402.72,-33.34 1483.48,-17.57 1764.88,-13.89"/>
<polygon fill="midnightblue" stroke="midnightblue" points="1764.99,-17.38 1774.94,-13.75 1764.9,-10.38 1764.99,-17.38"/>
</g>
<!-- Node27&#45;&gt;Node10 -->
<g id="edge49" class="edge">
<title>Node27&#45;&gt;Node10</title>
<path fill="none" stroke="midnightblue" d="M816.7,-266.18C903.68,-260.59 1075.58,-246.22 1128.29,-217.55 1149.05,-206.26 1166.13,-185.24 1177.25,-168.74"/>
<polygon fill="midnightblue" stroke="midnightblue" points="1180.33,-170.42 1182.79,-160.12 1174.44,-166.63 1180.33,-170.42"/>
</g>
<!-- Node27&#45;&gt;Node12 -->
<g id="edge33" class="edge">
<title>Node27&#45;&gt;Node12</title>
<path fill="none" stroke="midnightblue" d="M816.82,-268.68C899.43,-266.86 1055.74,-258.01 1090.29,-217.55 1116.26,-187.14 1116.82,-157.48 1090.29,-127.55 1046.04,-77.64 856.6,-109.25 792.29,-91.55 789.67,-90.83 787,-89.95 784.36,-88.97"/>
<polygon fill="midnightblue" stroke="midnightblue" points="785.65,-85.72 775.07,-85.15 782.99,-92.19 785.65,-85.72"/>
</g>
<!-- Node27&#45;&gt;Node19 -->
<g id="edge37" class="edge">
<title>Node27&#45;&gt;Node19</title>
<path fill="none" stroke="midnightblue" d="M713.89,-268.16C641.99,-263.8 513.56,-244.01 454.29,-160.55 445.79,-148.59 447.09,-140.33 454.29,-127.55 464.36,-109.67 483.43,-97.28 500.95,-89.15"/>
<polygon fill="midnightblue" stroke="midnightblue" points="502.66,-92.23 510.47,-85.06 499.9,-85.8 502.66,-92.23"/>
</g>
<!-- Node27&#45;&gt;Node22 -->
<g id="edge39" class="edge">
<title>Node27&#45;&gt;Node22</title>
<path fill="none" stroke="midnightblue" d="M816.87,-263.07C919.09,-249.3 1131.35,-210.01 1057.29,-127.55 1007.25,-71.85 795.98,-104.81 722.29,-91.55 716.07,-90.44 709.56,-89.03 703.2,-87.53"/>
<polygon fill="midnightblue" stroke="midnightblue" points="703.94,-84.11 693.39,-85.12 702.26,-90.91 703.94,-84.11"/>
</g>
<!-- Node28 -->
<g id="node29" class="node">
<title>Node28</title>
<g id="a_node29"><a xlink:title=" ">
<polygon fill="white" stroke="#bfbfbf" points="788.12,-197.05 788.12,-217.05 832.45,-217.05 832.45,-197.05 788.12,-197.05"/>
<text text-anchor="middle" x="810.29" y="-204.05" font-family="Helvetica,sans-Serif" font-size="10.00">iosfwd</text>
</a>
</g>
</g>
<!-- Node27&#45;&gt;Node28 -->
<g id="edge32" class="edge">
<title>Node27&#45;&gt;Node28</title>
<path fill="none" stroke="midnightblue" d="M776.41,-253.97C782.81,-245.29 790.88,-234.35 797.54,-225.33"/>
<polygon fill="midnightblue" stroke="midnightblue" points="800.49,-227.22 803.61,-217.1 794.86,-223.07 800.49,-227.22"/>
</g>
<!-- Node29 -->
<g id="node30" class="node">
<title>Node29</title>
<g id="a_node30"><a xlink:title=" ">
<polygon fill="white" stroke="#bfbfbf" points="888.05,-197.05 888.05,-217.05 968.52,-217.05 968.52,-197.05 888.05,-197.05"/>
<text text-anchor="middle" x="928.29" y="-204.05" font-family="Helvetica,sans-Serif" font-size="10.00">unordered_set</text>
</a>
</g>
</g>
<!-- Node27&#45;&gt;Node29 -->
<g id="edge34" class="edge">
<title>Node27&#45;&gt;Node29</title>
<path fill="none" stroke="midnightblue" d="M805.58,-253.97C833,-243.71 868.86,-230.29 894.73,-220.61"/>
<polygon fill="midnightblue" stroke="midnightblue" points="895.97,-223.88 904.11,-217.1 893.52,-217.33 895.97,-223.88"/>
</g>
<!-- Node30 -->
<g id="node31" class="node">
<title>Node30</title>
<g id="a_node31"><a xlink:title=" ">
<polygon fill="white" stroke="#bfbfbf" points="946.78,-128.05 946.78,-160.05 1047.79,-160.05 1047.79,-128.05 946.78,-128.05"/>
<text text-anchor="start" x="954.78" y="-147.05" font-family="Helvetica,sans-Serif" font-size="10.00">halco/hicann&#45;dls/vx</text>
<text text-anchor="middle" x="997.29" y="-135.05" font-family="Helvetica,sans-Serif" font-size="10.00">/barrier.h</text>
</a>
</g>
</g>
<!-- Node27&#45;&gt;Node30 -->
<g id="edge35" class="edge">
<title>Node27&#45;&gt;Node30</title>
<path fill="none" stroke="midnightblue" d="M786.96,-253.84C809.45,-238.39 845.95,-214.29 879.29,-196.55 901.8,-184.57 927.69,-173.04 949.47,-163.93"/>
<polygon fill="midnightblue" stroke="midnightblue" points="950.94,-167.11 958.85,-160.06 948.27,-160.65 950.94,-167.11"/>
</g>
<!-- Node31 -->
<g id="node32" class="node">
<title>Node31</title>
<g id="a_node32"><a xlink:title=" ">
<polygon fill="white" stroke="#bfbfbf" points="462.84,-134.05 462.84,-154.05 557.73,-154.05 557.73,-134.05 462.84,-134.05"/>
<text text-anchor="middle" x="510.29" y="-141.05" font-family="Helvetica,sans-Serif" font-size="10.00">haldls/vx/barrier.h</text>
</a>
</g>
</g>
<!-- Node27&#45;&gt;Node31 -->
<g id="edge36" class="edge">
<title>Node27&#45;&gt;Node31</title>
<path fill="none" stroke="midnightblue" d="M734.27,-253.97C684.11,-229.58 585.94,-181.84 537.99,-158.52"/>
<polygon fill="midnightblue" stroke="midnightblue" points="539.35,-155.29 528.82,-154.07 536.28,-161.59 539.35,-155.29"/>
</g>
<!-- Node32 -->
<g id="node33" class="node">
<title>Node32</title>
<g id="a_node33"><a xlink:href="dumper_8h.html" target="_top" xlink:title=" ">
<polygon fill="white" stroke="black" points="670.33,-197.05 670.33,-217.05 770.24,-217.05 770.24,-197.05 670.33,-197.05"/>
<text text-anchor="middle" x="720.29" y="-204.05" font-family="Helvetica,sans-Serif" font-size="10.00">stadls/vx/dumper.h</text>
</a>
</g>
</g>
<!-- Node27&#45;&gt;Node32 -->
<g id="edge40" class="edge">
<title>Node27&#45;&gt;Node32</title>
<path fill="none" stroke="midnightblue" d="M754.16,-253.97C747.76,-245.29 739.69,-234.35 733.03,-225.33"/>
<polygon fill="midnightblue" stroke="midnightblue" points="735.71,-223.07 726.96,-217.1 730.08,-227.22 735.71,-223.07"/>
</g>
<!-- Node32&#45;&gt;Node8 -->
<g id="edge46" class="edge">
<title>Node32&#45;&gt;Node8</title>
<path fill="none" stroke="midnightblue" d="M688.91,-196.97C664.77,-189.24 631.12,-176.8 604.29,-160.55 585.15,-148.97 585.51,-138.98 566.29,-127.55 548.93,-117.24 500.47,-100.05 465.89,-88.4"/>
<polygon fill="midnightblue" stroke="midnightblue" points="466.7,-84.98 456.1,-85.12 464.47,-91.61 466.7,-84.98"/>
</g>
<!-- Node32&#45;&gt;Node10 -->
<g id="edge47" class="edge">
<title>Node32&#45;&gt;Node10</title>
<path fill="none" stroke="midnightblue" d="M770.48,-197.85C773.46,-197.4 776.41,-196.96 779.29,-196.55 904.77,-178.61 1052.27,-161.02 1132.32,-151.76"/>
<polygon fill="midnightblue" stroke="midnightblue" points="1133.16,-155.19 1142.69,-150.56 1132.36,-148.23 1133.16,-155.19"/>
</g>
<!-- Node32&#45;&gt;Node30 -->
<g id="edge41" class="edge">
<title>Node32&#45;&gt;Node30</title>
<path fill="none" stroke="midnightblue" d="M766.56,-196.99C808.44,-188.65 872.04,-175.62 936.63,-160.65"/>
<polygon fill="midnightblue" stroke="midnightblue" points="937.64,-164 946.59,-158.32 936.05,-157.19 937.64,-164"/>
</g>
<!-- Node32&#45;&gt;Node31 -->
<g id="edge43" class="edge">
<title>Node32&#45;&gt;Node31</title>
<path fill="none" stroke="midnightblue" d="M689.3,-197.05C652.7,-186.42 591.68,-168.7 551.22,-156.94"/>
<polygon fill="midnightblue" stroke="midnightblue" points="551.98,-153.52 541.4,-154.09 550.03,-160.24 551.98,-153.52"/>
</g>
<!-- Node33 -->
<g id="node34" class="node">
<title>Node33</title>
<g id="a_node34"><a xlink:title=" ">
<polygon fill="white" stroke="#bfbfbf" points="613.78,-128.05 613.78,-160.05 714.79,-160.05 714.79,-128.05 613.78,-128.05"/>
<text text-anchor="start" x="621.78" y="-147.05" font-family="Helvetica,sans-Serif" font-size="10.00">halco/hicann&#45;dls/vx</text>
<text text-anchor="middle" x="664.29" y="-135.05" font-family="Helvetica,sans-Serif" font-size="10.00">/omnibus.h</text>
</a>
</g>
</g>
<!-- Node32&#45;&gt;Node33 -->
<g id="edge42" class="edge">
<title>Node32&#45;&gt;Node33</title>
<path fill="none" stroke="midnightblue" d="M712.02,-197.05C704.94,-189.34 694.44,-177.9 685.08,-167.71"/>
<polygon fill="midnightblue" stroke="midnightblue" points="687.57,-165.24 678.23,-160.24 682.42,-169.98 687.57,-165.24"/>
</g>
<!-- Node34 -->
<g id="node35" class="node">
<title>Node34</title>
<g id="a_node35"><a xlink:title=" ">
<polygon fill="white" stroke="#bfbfbf" points="732.61,-134.05 732.61,-154.05 821.96,-154.05 821.96,-134.05 732.61,-134.05"/>
<text text-anchor="middle" x="777.29" y="-141.05" font-family="Helvetica,sans-Serif" font-size="10.00">haldls/vx/block.h</text>
</a>
</g>
</g>
<!-- Node32&#45;&gt;Node34 -->
<g id="edge44" class="edge">
<title>Node32&#45;&gt;Node34</title>
<path fill="none" stroke="midnightblue" d="M728.7,-197.05C737.37,-187.77 751.09,-173.09 761.74,-161.69"/>
<polygon fill="midnightblue" stroke="midnightblue" points="764.57,-163.79 768.84,-154.09 759.46,-159.01 764.57,-163.79"/>
</g>
<!-- Node35 -->
<g id="node36" class="node">
<title>Node35</title>
<g id="a_node36"><a xlink:title=" ">
<polygon fill="white" stroke="#bfbfbf" points="840.17,-134.05 840.17,-154.05 928.4,-154.05 928.4,-134.05 840.17,-134.05"/>
<text text-anchor="middle" x="884.29" y="-141.05" font-family="Helvetica,sans-Serif" font-size="10.00">haldls/vx/timer.h</text>
</a>
</g>
</g>
<!-- Node32&#45;&gt;Node35 -->
<g id="edge45" class="edge">
<title>Node32&#45;&gt;Node35</title>
<path fill="none" stroke="midnightblue" d="M744.48,-197.05C772.46,-186.64 818.71,-169.44 850.29,-157.7"/>
<polygon fill="midnightblue" stroke="midnightblue" points="851.83,-160.86 859.99,-154.09 849.39,-154.3 851.83,-160.86"/>
</g>
<!-- Node36&#45;&gt;Node9 -->
<g id="edge51" class="edge">
<title>Node36&#45;&gt;Node9</title>
<path fill="none" stroke="midnightblue" d="M1858.93,-197.11C1878.64,-190.51 1900.54,-179.29 1912.29,-160.55 1936.37,-122.14 1935.18,-97.68 1912.29,-58.55 1903.51,-43.57 1887.8,-33.14 1872.52,-26.08"/>
<polygon fill="midnightblue" stroke="midnightblue" points="1873.71,-22.79 1863.14,-22.12 1870.99,-29.23 1873.71,-22.79"/>
</g>
<!-- Node36&#45;&gt;Node10 -->
<g id="edge56" class="edge">
<title>Node36&#45;&gt;Node10</title>
<path fill="none" stroke="midnightblue" d="M1777.63,-202.1C1669.81,-191.61 1376.22,-163.04 1250.12,-150.78"/>
<polygon fill="midnightblue" stroke="midnightblue" points="1250.18,-147.27 1239.89,-149.78 1249.5,-154.23 1250.18,-147.27"/>
</g>
<!-- Node36&#45;&gt;Node15 -->
<g id="edge57" class="edge">
<title>Node36&#45;&gt;Node15</title>
<path fill="none" stroke="midnightblue" d="M1777.9,-202.66C1713.4,-195.73 1598.35,-176.26 1639.29,-127.55 1699.08,-56.4 1756.22,-118.11 1845.29,-91.55 1847.89,-90.78 1850.55,-89.87 1853.19,-88.88"/>
<polygon fill="midnightblue" stroke="midnightblue" points="1854.58,-92.1 1862.54,-85.11 1851.95,-85.61 1854.58,-92.1"/>
</g>
<!-- Node36&#45;&gt;Node23 -->
<g id="edge52" class="edge">
<title>Node36&#45;&gt;Node23</title>
<path fill="none" stroke="midnightblue" d="M1858.72,-198.06C1885.25,-191.33 1919.66,-179.67 1945.29,-160.55 1966.74,-144.54 1984.02,-119.02 1994.83,-100.21"/>
<polygon fill="midnightblue" stroke="midnightblue" points="1997.96,-101.78 1999.74,-91.33 1991.84,-98.39 1997.96,-101.78"/>
</g>
<!-- Node37 -->
<g id="node38" class="node">
<title>Node37</title>
<g id="a_node38"><a xlink:title=" ">
<polygon fill="white" stroke="#bfbfbf" points="1997.45,-134.05 1997.45,-154.05 2085.12,-154.05 2085.12,-134.05 1997.45,-134.05"/>
<text text-anchor="middle" x="2041.29" y="-141.05" font-family="Helvetica,sans-Serif" font-size="10.00">stadls/vx/run.tcc</text>
</a>
</g>
</g>
<!-- Node36&#45;&gt;Node37 -->
<g id="edge53" class="edge">
<title>Node36&#45;&gt;Node37</title>
<path fill="none" stroke="midnightblue" d="M1851.19,-197.05C1890.22,-186.37 1955.4,-168.55 1998.37,-156.79"/>
<polygon fill="midnightblue" stroke="midnightblue" points="1999.52,-160.1 2008.25,-154.09 1997.68,-153.35 1999.52,-160.1"/>
</g>
<!-- Node38 -->
<g id="node39" class="node">
<title>Node38</title>
<g id="a_node39"><a xlink:title=" ">
<polygon fill="white" stroke="#bfbfbf" points="1647.84,-128.05 1647.84,-160.05 1762.73,-160.05 1762.73,-128.05 1647.84,-128.05"/>
<text text-anchor="start" x="1655.84" y="-147.05" font-family="Helvetica,sans-Serif" font-size="10.00">hxcomm/common/visit</text>
<text text-anchor="middle" x="1705.29" y="-135.05" font-family="Helvetica,sans-Serif" font-size="10.00">_connection.h</text>
</a>
</g>
</g>
<!-- Node36&#45;&gt;Node38 -->
<g id="edge54" class="edge">
<title>Node36&#45;&gt;Node38</title>
<path fill="none" stroke="midnightblue" d="M1801.61,-197.05C1786.07,-188.66 1762.34,-175.85 1742.32,-165.04"/>
<polygon fill="midnightblue" stroke="midnightblue" points="1743.89,-161.91 1733.43,-160.24 1740.56,-168.07 1743.89,-161.91"/>
</g>
<!-- Node39 -->
<g id="node40" class="node">
<title>Node39</title>
<g id="a_node40"><a xlink:title=" ">
<polygon fill="white" stroke="#bfbfbf" points="1780.84,-134.05 1780.84,-154.05 1855.74,-154.05 1855.74,-134.05 1780.84,-134.05"/>
<text text-anchor="middle" x="1818.29" y="-141.05" font-family="Helvetica,sans-Serif" font-size="10.00">fisch/vx/run.h</text>
</a>
</g>
</g>
<!-- Node36&#45;&gt;Node39 -->
<g id="edge55" class="edge">
<title>Node36&#45;&gt;Node39</title>
<path fill="none" stroke="midnightblue" d="M1818.29,-197.05C1818.29,-188.49 1818.29,-175.34 1818.29,-164.4"/>
<polygon fill="midnightblue" stroke="midnightblue" points="1821.79,-164.09 1818.29,-154.09 1814.79,-164.09 1821.79,-164.09"/>
</g>
<!-- Node40 -->
<g id="node41" class="node">
<title>Node40</title>
<g id="a_node41"><a xlink:title=" ">
<polygon fill="white" stroke="#bfbfbf" points="1873.62,-134.05 1873.62,-154.05 1902.95,-154.05 1902.95,-134.05 1873.62,-134.05"/>
<text text-anchor="middle" x="1888.29" y="-141.05" font-family="Helvetica,sans-Serif" font-size="10.00">set</text>
</a>
</g>
</g>
<!-- Node36&#45;&gt;Node40 -->
<g id="edge58" class="edge">
<title>Node36&#45;&gt;Node40</title>
<path fill="none" stroke="midnightblue" d="M1828.61,-197.05C1839.57,-187.5 1857.1,-172.23 1870.33,-160.7"/>
<polygon fill="midnightblue" stroke="midnightblue" points="1872.67,-163.3 1877.91,-154.09 1868.08,-158.02 1872.67,-163.3"/>
</g>
</g>
</svg>
        <g id="navigator" transform="translate(0 0)" fill="#404254">
                <rect fill="#f2f5e9" fill-opacity="0.5" stroke="#606060" stroke-width=".5" x="0" y="0" width="60" height="60"/>
                <use id="zoomplus" xlink:href="#zoomPlus" x="17" y="9" onmousedown="handleZoom(evt,'in')"/>
                <use id="zoomminus" xlink:href="#zoomMin" x="42" y="9" onmousedown="handleZoom(evt,'out')"/>
                <use id="reset" xlink:href="#resetDef" x="30" y="36" onmousedown="handleReset()"/>
                <g id="arrowUp" xlink:href="#dirArrow" transform="translate(30 24)" onmousedown="handlePan(0,-1)">
                  <use xlink:href="#rim" fill="#404040">
                        <set attributeName="fill" to="#808080" begin="arrowUp.mouseover" end="arrowUp.mouseout"/>
                  </use>
                  <path fill="none" stroke="white" stroke-width="1.5" d="M0,-3.0v7 M-2.5,-0.5L0,-3.0L2.5,-0.5"/>
                </g>
                <g id="arrowRight" xlink:href="#dirArrow" transform="rotate(90) translate(36 -43)" onmousedown="handlePan(1,0)">
                  <use xlink:href="#rim" fill="#404040">
                        <set attributeName="fill" to="#808080" begin="arrowRight.mouseover" end="arrowRight.mouseout"/>
                  </use>
                  <path fill="none" stroke="white" stroke-width="1.5" d="M0,-3.0v7 M-2.5,-0.5L0,-3.0L2.5,-0.5"/>
                </g>
                <g id="arrowDown" xlink:href="#dirArrow" transform="rotate(180) translate(-30 -48)" onmousedown="handlePan(0,1)">
                  <use xlink:href="#rim" fill="#404040">
                        <set attributeName="fill" to="#808080" begin="arrowDown.mouseover" end="arrowDown.mouseout"/>
                  </use>
                  <path fill="none" stroke="white" stroke-width="1.5" d="M0,-3.0v7 M-2.5,-0.5L0,-3.0L2.5,-0.5"/>
                </g>
                <g id="arrowLeft" xlink:href="#dirArrow" transform="rotate(270) translate(-36 17)" onmousedown="handlePan(-1,0)">
                  <use xlink:href="#rim" fill="#404040">
                        <set attributeName="fill" to="#808080" begin="arrowLeft.mouseover" end="arrowLeft.mouseout"/>
                  </use>
                  <path fill="none" stroke="white" stroke-width="1.5" d="M0,-3.0v7 M-2.5,-0.5L0,-3.0L2.5,-0.5"/>
                </g>
        </g>
        <svg viewBox="0 0 15 15" width="100%" height="30px" preserveAspectRatio="xMaxYMin meet">
         <g id="arrow_out" transform="scale(0.3 0.3)">
          <a xlink:href="stadls_8h__incl_org.svg" target="_base">
           <rect id="button" ry="5" rx="5" y="6" x="6" height="38" width="38"
                fill="#f2f5e9" fill-opacity="0.5" stroke="#606060" stroke-width="1.0"/>
           <path id="arrow"
             d="M 11.500037,31.436501 C 11.940474,20.09759 22.043105,11.32322 32.158766,21.979434 L 37.068811,17.246167 C 37.068811,17.246167 37.088388,32 37.088388,32 L 22.160133,31.978069 C 22.160133,31.978069 26.997745,27.140456 26.997745,27.140456 C 18.528582,18.264221 13.291696,25.230495 11.500037,31.436501 z"
             style="fill:#404040;"/>
          </a>
         </g>
        </svg>
</svg>
