<?xml version="1.0" encoding="UTF-8" standalone="no"?>
<!DOCTYPE svg PUBLIC "-//W3C//DTD SVG 1.1//EN"
 "http://www.w3.org/Graphics/SVG/1.1/DTD/svg11.dtd">
<!-- Generated by graphviz version 2.43.0 (0)
 -->
<!-- Title: stadls::vx::PlaybackGeneratorReturn&lt; Result &gt; Pages: 1 -->
<svg width="157pt" height="122pt"
 viewBox="0.00 0.00 156.81 122.00" xmlns="http://www.w3.org/2000/svg" xmlns:xlink="http://www.w3.org/1999/xlink">
<g id="graph0" class="graph" transform="scale(1 1) rotate(0) translate(4 118)">
<title>stadls::vx::PlaybackGeneratorReturn&lt; Result &gt;</title>
<polygon fill="white" stroke="transparent" points="-4,4 -4,-118 152.81,-118 152.81,4 -4,4"/>
<!-- Node1 -->
<g id="node1" class="node">
<title>Node1</title>
<g id="a_node1"><a xlink:title="Return type of generate() call on playback sequence.">
<polygon fill="#bfbfbf" stroke="black" points="0,-0.5 0,-32.5 148.81,-32.5 148.81,-0.5 0,-0.5"/>
<text text-anchor="start" x="8" y="-19.5" font-family="Helvetica,sans-Serif" font-size="10.00">stadls::vx::PlaybackGenerator</text>
<text text-anchor="middle" x="74.4" y="-7.5" font-family="Helvetica,sans-Serif" font-size="10.00">Return&lt; Result &gt;</text>
</a>
</g>
</g>
<!-- Node2 -->
<g id="node2" class="node">
<title>Node2</title>
<g id="a_node2"><a xlink:href="classstadls_1_1vx_1_1PlaybackProgramBuilder.html" target="_top" xlink:title="Sequential PlaybackProgram builder.">
<polygon fill="white" stroke="black" points="3.34,-81.5 3.34,-113.5 145.47,-113.5 145.47,-81.5 3.34,-81.5"/>
<text text-anchor="start" x="11.34" y="-100.5" font-family="Helvetica,sans-Serif" font-size="10.00">stadls::vx::PlaybackProgram</text>
<text text-anchor="middle" x="74.4" y="-88.5" font-family="Helvetica,sans-Serif" font-size="10.00">Builder</text>
</a>
</g>
</g>
<!-- Node2&#45;&gt;Node1 -->
<g id="edge1" class="edge">
<title>Node2&#45;&gt;Node1</title>
<path fill="none" stroke="#9a32cd" stroke-dasharray="5,2" d="M74.4,-70.89C74.4,-58.28 74.4,-43.49 74.4,-32.69"/>
<polygon fill="#9a32cd" stroke="#9a32cd" points="70.9,-71.27 74.4,-81.27 77.9,-71.27 70.9,-71.27"/>
<text text-anchor="middle" x="90.79" y="-54" font-family="Helvetica,sans-Serif" font-size="10.00"> builder</text>
</g>
</g>
</svg>
