<?xml version="1.0" encoding="UTF-8" standalone="no"?>
<!DOCTYPE svg PUBLIC "-//W3C//DTD SVG 1.1//EN"
 "http://www.w3.org/Graphics/SVG/1.1/DTD/svg11.dtd">
<!-- Generated by graphviz version 2.43.0 (0)
 -->
<!-- Title: /jenkins/jenlib_workspaces_f9/bld_nightly&#45;haldls.YmxkX25pZ2h0bHktaGFsZGxzIzcxMQ.x/haldls/include/stadls/vx/v1/run.h Pages: 1 -->
<!--zoomable 275 -->
<svg id="main" version="1.1" xmlns="http://www.w3.org/2000/svg" xmlns:xlink="http://www.w3.org/1999/xlink" xml:space="preserve" onload="init(evt)">
<style type="text/css"><![CDATA[
.edge:hover path { stroke: red; }
.edge:hover polygon { stroke: red; fill: red; }
]]></style>
<script type="text/javascript"><![CDATA[
var edges = document.getElementsByTagName('g');
if (edges && edges.length) {
  for (var i=0;i<edges.length;i++) {
    if (edges[i].id.substr(0,4)=='edge') {
      edges[i].setAttribute('class','edge');
    }
  }
}
]]></script>
        <defs>
                <circle id="rim" cx="0" cy="0" r="7"/>
                <circle id="rim2" cx="0" cy="0" r="3.5"/>
                <g id="zoomPlus">
                        <use xlink:href="#rim" fill="#404040">
                                <set attributeName="fill" to="#808080" begin="zoomplus.mouseover" end="zoomplus.mouseout"/>
                        </use>
                        <path d="M-4,0h8M0,-4v8" fill="none" stroke="white" stroke-width="1.5" pointer-events="none"/>
                </g>
                <g id="zoomMin">
                        <use xlink:href="#rim" fill="#404040">
                                <set attributeName="fill" to="#808080" begin="zoomminus.mouseover" end="zoomminus.mouseout"/>
                        </use>
                        <path d="M-4,0h8" fill="none" stroke="white" stroke-width="1.5" pointer-events="none"/>
                </g>
                <g id="dirArrow">
                        <path fill="none" stroke="white" stroke-width="1.5" d="M0,-3.0v7 M-2.5,-0.5L0,-3.0L2.5,-0.5"/>
                </g>
               <g id="resetDef">
                       <use xlink:href="#rim2" fill="#404040">
                               <set attributeName="fill" to="#808080" begin="reset.mouseover" end="reset.mouseout"/>
                       </use>
               </g>
        </defs>

<script type="text/javascript">
var viewWidth = 850;
var viewHeight = 275;
var sectionId = 'dynsection-0';
</script>
<script xlink:href="svgpan.js"/>
<svg id="graph" class="graph">
<g id="viewport">
<title>/jenkins/jenlib_workspaces_f9/bld_nightly&#45;haldls.YmxkX25pZ2h0bHktaGFsZGxzIzcxMQ.x/haldls/include/stadls/vx/v1/run.h</title>
<polygon fill="white" stroke="transparent" points="-4,4 -4,-271.4 845.74,-271.4 845.74,4 -4,4"/>
<!-- Node0 -->
<g id="node1" class="node">
<title>Node0</title>
<g id="a_node1"><a xlink:title=" ">
<polygon fill="#bfbfbf" stroke="black" points="118.95,-210.9 118.95,-266.9 297.19,-266.9 297.19,-210.9 118.95,-210.9"/>
<text text-anchor="start" x="126.95" y="-253.9" font-family="Helvetica,sans-Serif" font-size="10.00">/jenkins/jenlib_workspaces</text>
<text text-anchor="start" x="126.95" y="-241.9" font-family="Helvetica,sans-Serif" font-size="10.00">_f9/bld_nightly&#45;haldls.YmxkX25p</text>
<text text-anchor="start" x="126.95" y="-229.9" font-family="Helvetica,sans-Serif" font-size="10.00">Z2h0bHktaGFsZGxzIzcxMQ.x/haldls</text>
<text text-anchor="middle" x="208.07" y="-217.9" font-family="Helvetica,sans-Serif" font-size="10.00">/include/stadls/vx/v1/run.h</text>
</a>
</g>
</g>
<!-- Node1 -->
<g id="node2" class="node">
<title>Node1</title>
<g id="a_node2"><a xlink:href="genpybind_8h.html" target="_top" xlink:title=" ">
<polygon fill="white" stroke="black" points="0,-3.9 0,-23.9 112.14,-23.9 112.14,-3.9 0,-3.9"/>
<text text-anchor="middle" x="56.07" y="-10.9" font-family="Helvetica,sans-Serif" font-size="10.00">stadls/vx/genpybind.h</text>
</a>
</g>
</g>
<!-- Node0&#45;&gt;Node1 -->
<g id="edge1" class="edge">
<title>Node0&#45;&gt;Node1</title>
<path fill="none" stroke="midnightblue" d="M154.43,-210.84C120.1,-190.33 78.33,-158.62 58.07,-117.4 44.97,-90.74 48.1,-55.27 51.87,-33.82"/>
<polygon fill="midnightblue" stroke="midnightblue" points="55.31,-34.48 53.81,-23.99 48.44,-33.12 55.31,-34.48"/>
</g>
<!-- Node2 -->
<g id="node3" class="node">
<title>Node2</title>
<g id="a_node3"><a xlink:href="run_8h.html" target="_top" xlink:title=" ">
<polygon fill="white" stroke="black" points="339.84,-153.9 339.84,-173.9 420.3,-173.9 420.3,-153.9 339.84,-153.9"/>
<text text-anchor="middle" x="380.07" y="-160.9" font-family="Helvetica,sans-Serif" font-size="10.00">stadls/vx/run.h</text>
</a>
</g>
</g>
<!-- Node0&#45;&gt;Node2 -->
<g id="edge3" class="edge">
<title>Node0&#45;&gt;Node2</title>
<path fill="none" stroke="midnightblue" d="M272.12,-210.72C298.62,-199.47 328.11,-186.96 349.56,-177.85"/>
<polygon fill="midnightblue" stroke="midnightblue" points="350.97,-181.06 358.81,-173.93 348.24,-174.61 350.97,-181.06"/>
</g>
<!-- Node1&#45;&gt;Node1 -->
<g id="edge2" class="edge">
<title>Node1&#45;&gt;Node1</title>
<path fill="none" stroke="midnightblue" d="M76.93,-23.98C101.49,-31.35 130.14,-27.99 130.14,-13.9 130.14,-1.68 108.6,2.47 86.85,-1.46"/>
<polygon fill="midnightblue" stroke="midnightblue" points="85.84,1.9 76.93,-3.83 87.47,-4.91 85.84,1.9"/>
</g>
<!-- Node2&#45;&gt;Node1 -->
<g id="edge4" class="edge">
<title>Node2&#45;&gt;Node1</title>
<path fill="none" stroke="midnightblue" d="M339.66,-161.4C269.92,-158.03 130.91,-147.61 94.07,-117.4 68.85,-96.72 60.36,-57.61 57.51,-34.13"/>
<polygon fill="midnightblue" stroke="midnightblue" points="60.98,-33.62 56.52,-24.02 54.01,-34.31 60.98,-33.62"/>
</g>
<!-- Node3 -->
<g id="node4" class="node">
<title>Node3</title>
<g id="a_node4"><a xlink:href="run__time__info_8h.html" target="_top" xlink:title=" ">
<polygon fill="white" stroke="black" points="102.79,-72.9 102.79,-104.9 199.36,-104.9 199.36,-72.9 102.79,-72.9"/>
<text text-anchor="start" x="110.79" y="-91.9" font-family="Helvetica,sans-Serif" font-size="10.00">stadls/vx/run_time</text>
<text text-anchor="middle" x="151.07" y="-79.9" font-family="Helvetica,sans-Serif" font-size="10.00">_info.h</text>
</a>
</g>
</g>
<!-- Node2&#45;&gt;Node3 -->
<g id="edge5" class="edge">
<title>Node2&#45;&gt;Node3</title>
<path fill="none" stroke="midnightblue" d="M339.78,-154.53C304.49,-146.67 252.11,-133.68 208.07,-117.4 201.7,-115.05 195.08,-112.23 188.71,-109.3"/>
<polygon fill="midnightblue" stroke="midnightblue" points="190.14,-106.11 179.6,-104.98 187.14,-112.43 190.14,-106.11"/>
</g>
<!-- Node5 -->
<g id="node6" class="node">
<title>Node5</title>
<g id="a_node6"><a xlink:title=" ">
<polygon fill="white" stroke="#bfbfbf" points="217.23,-78.9 217.23,-98.9 304.91,-98.9 304.91,-78.9 217.23,-78.9"/>
<text text-anchor="middle" x="261.07" y="-85.9" font-family="Helvetica,sans-Serif" font-size="10.00">stadls/vx/run.tcc</text>
</a>
</g>
</g>
<!-- Node2&#45;&gt;Node5 -->
<g id="edge8" class="edge">
<title>Node2&#45;&gt;Node5</title>
<path fill="none" stroke="midnightblue" d="M365,-153.66C344.79,-141.26 308.7,-119.12 284.82,-104.47"/>
<polygon fill="midnightblue" stroke="midnightblue" points="286.38,-101.32 276.02,-99.07 282.71,-107.28 286.38,-101.32"/>
</g>
<!-- Node6 -->
<g id="node7" class="node">
<title>Node6</title>
<g id="a_node7"><a xlink:title=" ">
<polygon fill="white" stroke="#bfbfbf" points="322.63,-72.9 322.63,-104.9 437.51,-104.9 437.51,-72.9 322.63,-72.9"/>
<text text-anchor="start" x="330.63" y="-91.9" font-family="Helvetica,sans-Serif" font-size="10.00">hxcomm/common/visit</text>
<text text-anchor="middle" x="380.07" y="-79.9" font-family="Helvetica,sans-Serif" font-size="10.00">_connection.h</text>
</a>
</g>
</g>
<!-- Node2&#45;&gt;Node6 -->
<g id="edge9" class="edge">
<title>Node2&#45;&gt;Node6</title>
<path fill="none" stroke="midnightblue" d="M380.07,-153.66C380.07,-144.03 380.07,-128.53 380.07,-115.22"/>
<polygon fill="midnightblue" stroke="midnightblue" points="383.57,-115.17 380.07,-105.17 376.57,-115.17 383.57,-115.17"/>
</g>
<!-- Node7 -->
<g id="node8" class="node">
<title>Node7</title>
<g id="a_node8"><a xlink:title=" ">
<polygon fill="white" stroke="#bfbfbf" points="455.62,-78.9 455.62,-98.9 530.52,-98.9 530.52,-78.9 455.62,-78.9"/>
<text text-anchor="middle" x="493.07" y="-85.9" font-family="Helvetica,sans-Serif" font-size="10.00">fisch/vx/run.h</text>
</a>
</g>
</g>
<!-- Node2&#45;&gt;Node7 -->
<g id="edge10" class="edge">
<title>Node2&#45;&gt;Node7</title>
<path fill="none" stroke="midnightblue" d="M394.38,-153.66C413.49,-141.31 447.54,-119.31 470.22,-104.66"/>
<polygon fill="midnightblue" stroke="midnightblue" points="472.38,-107.44 478.88,-99.07 468.58,-101.56 472.38,-107.44"/>
</g>
<!-- Node8 -->
<g id="node9" class="node">
<title>Node8</title>
<g id="a_node9"><a xlink:title=" ">
<polygon fill="white" stroke="#bfbfbf" points="548.33,-60.9 548.33,-116.9 733.81,-116.9 733.81,-60.9 548.33,-60.9"/>
<text text-anchor="start" x="556.33" y="-103.9" font-family="Helvetica,sans-Serif" font-size="10.00">/jenkins/jenlib_workspaces</text>
<text text-anchor="start" x="556.33" y="-91.9" font-family="Helvetica,sans-Serif" font-size="10.00">_f9/bld_nightly&#45;haldls.YmxkX25p</text>
<text text-anchor="start" x="556.33" y="-79.9" font-family="Helvetica,sans-Serif" font-size="10.00">Z2h0bHktaGFsZGxzIzcxMQ.x/haldls</text>
<text text-anchor="middle" x="641.07" y="-67.9" font-family="Helvetica,sans-Serif" font-size="10.00">/include/stadls/vx/playback_program.h</text>
</a>
</g>
</g>
<!-- Node2&#45;&gt;Node8 -->
<g id="edge11" class="edge">
<title>Node2&#45;&gt;Node8</title>
<path fill="none" stroke="midnightblue" d="M412.34,-153.88C443.85,-145.06 493.5,-131.18 538.5,-118.59"/>
<polygon fill="midnightblue" stroke="midnightblue" points="539.64,-121.91 548.32,-115.84 537.75,-115.17 539.64,-121.91"/>
</g>
<!-- Node9 -->
<g id="node10" class="node">
<title>Node9</title>
<g id="a_node10"><a xlink:title=" ">
<polygon fill="white" stroke="#bfbfbf" points="751.46,-78.9 751.46,-98.9 794.68,-98.9 794.68,-78.9 751.46,-78.9"/>
<text text-anchor="middle" x="773.07" y="-85.9" font-family="Helvetica,sans-Serif" font-size="10.00">vector</text>
</a>
</g>
</g>
<!-- Node2&#45;&gt;Node9 -->
<g id="edge12" class="edge">
<title>Node2&#45;&gt;Node9</title>
<path fill="none" stroke="midnightblue" d="M420.61,-160.92C502.87,-156.39 686.44,-143.6 743.07,-117.4 748.68,-114.81 753.96,-110.77 758.48,-106.59"/>
<polygon fill="midnightblue" stroke="midnightblue" points="761.24,-108.77 765.7,-99.17 756.22,-103.89 761.24,-108.77"/>
</g>
<!-- Node10 -->
<g id="node11" class="node">
<title>Node10</title>
<g id="a_node11"><a xlink:title=" ">
<polygon fill="white" stroke="#bfbfbf" points="812.4,-78.9 812.4,-98.9 841.74,-98.9 841.74,-78.9 812.4,-78.9"/>
<text text-anchor="middle" x="827.07" y="-85.9" font-family="Helvetica,sans-Serif" font-size="10.00">set</text>
</a>
</g>
</g>
<!-- Node2&#45;&gt;Node10 -->
<g id="edge13" class="edge">
<title>Node2&#45;&gt;Node10</title>
<path fill="none" stroke="midnightblue" d="M420.59,-162.37C513.37,-160.55 738.28,-152.54 804.07,-117.4 808.7,-114.93 812.78,-111.1 816.16,-107.08"/>
<polygon fill="midnightblue" stroke="midnightblue" points="819.04,-109.07 822.09,-98.93 813.38,-104.96 819.04,-109.07"/>
</g>
<!-- Node3&#45;&gt;Node1 -->
<g id="edge7" class="edge">
<title>Node3&#45;&gt;Node1</title>
<path fill="none" stroke="midnightblue" d="M131.39,-72.78C115.25,-60.37 92.49,-42.89 76.22,-30.39"/>
<polygon fill="midnightblue" stroke="midnightblue" points="78,-27.34 67.94,-24.02 73.73,-32.89 78,-27.34"/>
</g>
<!-- Node4 -->
<g id="node5" class="node">
<title>Node4</title>
<g id="a_node5"><a xlink:title=" ">
<polygon fill="white" stroke="#bfbfbf" points="148.56,-3.9 148.56,-23.9 269.58,-23.9 269.58,-3.9 148.56,-3.9"/>
<text text-anchor="middle" x="209.07" y="-10.9" font-family="Helvetica,sans-Serif" font-size="10.00">fisch/vx/run_time_info.h</text>
</a>
</g>
</g>
<!-- Node3&#45;&gt;Node4 -->
<g id="edge6" class="edge">
<title>Node3&#45;&gt;Node4</title>
<path fill="none" stroke="midnightblue" d="M163.09,-72.78C172.49,-60.95 185.56,-44.49 195.37,-32.15"/>
<polygon fill="midnightblue" stroke="midnightblue" points="198.35,-34.03 201.83,-24.02 192.87,-29.67 198.35,-34.03"/>
</g>
</g>
</svg>
        <g id="navigator" transform="translate(0 0)" fill="#404254">
                <rect fill="#f2f5e9" fill-opacity="0.5" stroke="#606060" stroke-width=".5" x="0" y="0" width="60" height="60"/>
                <use id="zoomplus" xlink:href="#zoomPlus" x="17" y="9" onmousedown="handleZoom(evt,'in')"/>
                <use id="zoomminus" xlink:href="#zoomMin" x="42" y="9" onmousedown="handleZoom(evt,'out')"/>
                <use id="reset" xlink:href="#resetDef" x="30" y="36" onmousedown="handleReset()"/>
                <g id="arrowUp" xlink:href="#dirArrow" transform="translate(30 24)" onmousedown="handlePan(0,-1)">
                  <use xlink:href="#rim" fill="#404040">
                        <set attributeName="fill" to="#808080" begin="arrowUp.mouseover" end="arrowUp.mouseout"/>
                  </use>
                  <path fill="none" stroke="white" stroke-width="1.5" d="M0,-3.0v7 M-2.5,-0.5L0,-3.0L2.5,-0.5"/>
                </g>
                <g id="arrowRight" xlink:href="#dirArrow" transform="rotate(90) translate(36 -43)" onmousedown="handlePan(1,0)">
                  <use xlink:href="#rim" fill="#404040">
                        <set attributeName="fill" to="#808080" begin="arrowRight.mouseover" end="arrowRight.mouseout"/>
                  </use>
                  <path fill="none" stroke="white" stroke-width="1.5" d="M0,-3.0v7 M-2.5,-0.5L0,-3.0L2.5,-0.5"/>
                </g>
                <g id="arrowDown" xlink:href="#dirArrow" transform="rotate(180) translate(-30 -48)" onmousedown="handlePan(0,1)">
                  <use xlink:href="#rim" fill="#404040">
                        <set attributeName="fill" to="#808080" begin="arrowDown.mouseover" end="arrowDown.mouseout"/>
                  </use>
                  <path fill="none" stroke="white" stroke-width="1.5" d="M0,-3.0v7 M-2.5,-0.5L0,-3.0L2.5,-0.5"/>
                </g>
                <g id="arrowLeft" xlink:href="#dirArrow" transform="rotate(270) translate(-36 17)" onmousedown="handlePan(-1,0)">
                  <use xlink:href="#rim" fill="#404040">
                        <set attributeName="fill" to="#808080" begin="arrowLeft.mouseover" end="arrowLeft.mouseout"/>
                  </use>
                  <path fill="none" stroke="white" stroke-width="1.5" d="M0,-3.0v7 M-2.5,-0.5L0,-3.0L2.5,-0.5"/>
                </g>
        </g>
        <svg viewBox="0 0 15 15" width="100%" height="30px" preserveAspectRatio="xMaxYMin meet">
         <g id="arrow_out" transform="scale(0.3 0.3)">
          <a xlink:href="v1_2run_8h__incl_org.svg" target="_base">
           <rect id="button" ry="5" rx="5" y="6" x="6" height="38" width="38"
                fill="#f2f5e9" fill-opacity="0.5" stroke="#606060" stroke-width="1.0"/>
           <path id="arrow"
             d="M 11.500037,31.436501 C 11.940474,20.09759 22.043105,11.32322 32.158766,21.979434 L 37.068811,17.246167 C 37.068811,17.246167 37.088388,32 37.088388,32 L 22.160133,31.978069 C 22.160133,31.978069 26.997745,27.140456 26.997745,27.140456 C 18.528582,18.264221 13.291696,25.230495 11.500037,31.436501 z"
             style="fill:#404040;"/>
          </a>
         </g>
        </svg>
</svg>
