<?xml version="1.0" encoding="UTF-8" standalone="no"?>
<!DOCTYPE svg PUBLIC "-//W3C//DTD SVG 1.1//EN"
 "http://www.w3.org/Graphics/SVG/1.1/DTD/svg11.dtd">
<!-- Generated by graphviz version 2.43.0 (0)
 -->
<!-- Title: /jenkins/jenlib_workspaces_f9/bld_nightly&#45;haldls.YmxkX25pZ2h0bHktaGFsZGxzIzcxMQ.x/haldls/include/stadls/vx/v1/playback_program_builder.h Pages: 1 -->
<svg width="303pt" height="461pt"
 viewBox="0.00 0.00 303.24 461.00" xmlns="http://www.w3.org/2000/svg" xmlns:xlink="http://www.w3.org/1999/xlink">
<g id="graph0" class="graph" transform="scale(1 1) rotate(0) translate(4 457)">
<title>/jenkins/jenlib_workspaces_f9/bld_nightly&#45;haldls.YmxkX25pZ2h0bHktaGFsZGxzIzcxMQ.x/haldls/include/stadls/vx/v1/playback_program_builder.h</title>
<polygon fill="white" stroke="transparent" points="-4,4 -4,-457 299.24,-457 299.24,4 -4,4"/>
<!-- Node44 -->
<g id="node1" class="node">
<title>Node44</title>
<g id="a_node1"><a xlink:title=" ">
<polygon fill="#bfbfbf" stroke="black" points="77,-384.5 77,-452.5 255.24,-452.5 255.24,-384.5 77,-384.5"/>
<text text-anchor="start" x="85" y="-439.5" font-family="Helvetica,sans-Serif" font-size="10.00">/jenkins/jenlib_workspaces</text>
<text text-anchor="start" x="85" y="-427.5" font-family="Helvetica,sans-Serif" font-size="10.00">_f9/bld_nightly&#45;haldls.YmxkX25p</text>
<text text-anchor="start" x="85" y="-415.5" font-family="Helvetica,sans-Serif" font-size="10.00">Z2h0bHktaGFsZGxzIzcxMQ.x/haldls</text>
<text text-anchor="start" x="85" y="-403.5" font-family="Helvetica,sans-Serif" font-size="10.00">/include/stadls/vx/v1/playback</text>
<text text-anchor="middle" x="166.12" y="-391.5" font-family="Helvetica,sans-Serif" font-size="10.00">_program_builder.h</text>
</a>
</g>
</g>
<!-- Node45 -->
<g id="node2" class="node">
<title>Node45</title>
<g id="a_node2"><a xlink:href="v1_2playback__generator_8h.html" target="_top" xlink:title=" ">
<polygon fill="white" stroke="black" points="77,-279.5 77,-347.5 255.24,-347.5 255.24,-279.5 77,-279.5"/>
<text text-anchor="start" x="85" y="-334.5" font-family="Helvetica,sans-Serif" font-size="10.00">/jenkins/jenlib_workspaces</text>
<text text-anchor="start" x="85" y="-322.5" font-family="Helvetica,sans-Serif" font-size="10.00">_f9/bld_nightly&#45;haldls.YmxkX25p</text>
<text text-anchor="start" x="85" y="-310.5" font-family="Helvetica,sans-Serif" font-size="10.00">Z2h0bHktaGFsZGxzIzcxMQ.x/haldls</text>
<text text-anchor="start" x="85" y="-298.5" font-family="Helvetica,sans-Serif" font-size="10.00">/include/stadls/vx/v1/playback</text>
<text text-anchor="middle" x="166.12" y="-286.5" font-family="Helvetica,sans-Serif" font-size="10.00">_generator.h</text>
</a>
</g>
</g>
<!-- Node44&#45;&gt;Node45 -->
<g id="edge1" class="edge">
<title>Node44&#45;&gt;Node45</title>
<path fill="none" stroke="midnightblue" d="M166.12,-374.14C166.12,-365.26 166.12,-356.04 166.12,-347.59"/>
<polygon fill="midnightblue" stroke="midnightblue" points="162.62,-374.34 166.12,-384.34 169.62,-374.34 162.62,-374.34"/>
</g>
<!-- Node46 -->
<g id="node3" class="node">
<title>Node46</title>
<g id="a_node3"><a xlink:href="v1_2init__generator_8h.html" target="_top" xlink:title=" ">
<polygon fill="white" stroke="black" points="0,-186.5 0,-242.5 178.24,-242.5 178.24,-186.5 0,-186.5"/>
<text text-anchor="start" x="8" y="-229.5" font-family="Helvetica,sans-Serif" font-size="10.00">/jenkins/jenlib_workspaces</text>
<text text-anchor="start" x="8" y="-217.5" font-family="Helvetica,sans-Serif" font-size="10.00">_f9/bld_nightly&#45;haldls.YmxkX25p</text>
<text text-anchor="start" x="8" y="-205.5" font-family="Helvetica,sans-Serif" font-size="10.00">Z2h0bHktaGFsZGxzIzcxMQ.x/haldls</text>
<text text-anchor="middle" x="89.12" y="-193.5" font-family="Helvetica,sans-Serif" font-size="10.00">/include/stadls/vx/v1/init_generator.h</text>
</a>
</g>
</g>
<!-- Node44&#45;&gt;Node46 -->
<g id="edge6" class="edge">
<title>Node44&#45;&gt;Node46</title>
<path fill="none" stroke="midnightblue" d="M92.88,-378.11C82.91,-369.54 74.07,-359.52 68.12,-348 50.85,-314.58 63.73,-270.6 75.59,-242.68"/>
<polygon fill="midnightblue" stroke="midnightblue" points="90.71,-380.86 100.7,-384.39 95.09,-375.4 90.71,-380.86"/>
</g>
<!-- Node47 -->
<g id="node4" class="node">
<title>Node47</title>
<g id="a_node4"><a xlink:href="v1_2stadls_8h.html" target="_top" xlink:title=" ">
<polygon fill="white" stroke="black" points="117,-93.5 117,-149.5 295.24,-149.5 295.24,-93.5 117,-93.5"/>
<text text-anchor="start" x="125" y="-136.5" font-family="Helvetica,sans-Serif" font-size="10.00">/jenkins/jenlib_workspaces</text>
<text text-anchor="start" x="125" y="-124.5" font-family="Helvetica,sans-Serif" font-size="10.00">_f9/bld_nightly&#45;haldls.YmxkX25p</text>
<text text-anchor="start" x="125" y="-112.5" font-family="Helvetica,sans-Serif" font-size="10.00">Z2h0bHktaGFsZGxzIzcxMQ.x/haldls</text>
<text text-anchor="middle" x="206.12" y="-100.5" font-family="Helvetica,sans-Serif" font-size="10.00">/include/stadls/vx/v1/stadls.h</text>
</a>
</g>
</g>
<!-- Node44&#45;&gt;Node47 -->
<g id="edge7" class="edge">
<title>Node44&#45;&gt;Node47</title>
<path fill="none" stroke="midnightblue" d="M239.36,-378.11C249.33,-369.54 258.17,-359.52 264.12,-348 298.45,-281.56 252.87,-193.38 224.95,-149.58"/>
<polygon fill="midnightblue" stroke="midnightblue" points="237.15,-375.4 231.54,-384.39 241.53,-380.86 237.15,-375.4"/>
</g>
<!-- Node45&#45;&gt;Node46 -->
<g id="edge2" class="edge">
<title>Node45&#45;&gt;Node46</title>
<path fill="none" stroke="midnightblue" d="M133.47,-271.37C125.77,-261.67 117.75,-251.57 110.69,-242.67"/>
<polygon fill="midnightblue" stroke="midnightblue" points="130.88,-273.73 139.84,-279.39 136.36,-269.38 130.88,-273.73"/>
</g>
<!-- Node45&#45;&gt;Node47 -->
<g id="edge5" class="edge">
<title>Node45&#45;&gt;Node47</title>
<path fill="none" stroke="midnightblue" d="M180.1,-269.55C182.66,-260.82 185.14,-251.66 187.12,-243 194.39,-211.21 199.79,-174.06 202.94,-149.5"/>
<polygon fill="midnightblue" stroke="midnightblue" points="176.73,-268.58 177.2,-279.17 183.44,-270.6 176.73,-268.58"/>
</g>
<!-- Node46&#45;&gt;Node47 -->
<g id="edge3" class="edge">
<title>Node46&#45;&gt;Node47</title>
<path fill="none" stroke="midnightblue" d="M131.81,-180.29C144.78,-170.21 158.87,-159.25 171.26,-149.61"/>
<polygon fill="midnightblue" stroke="midnightblue" points="129.65,-177.54 123.91,-186.44 133.95,-183.07 129.65,-177.54"/>
</g>
<!-- Node48 -->
<g id="node5" class="node">
<title>Node48</title>
<g id="a_node5"><a xlink:href="v1_2pystadls_8h.html" target="_top" xlink:title=" ">
<polygon fill="white" stroke="black" points="117,-0.5 117,-56.5 295.24,-56.5 295.24,-0.5 117,-0.5"/>
<text text-anchor="start" x="125" y="-43.5" font-family="Helvetica,sans-Serif" font-size="10.00">/jenkins/jenlib_workspaces</text>
<text text-anchor="start" x="125" y="-31.5" font-family="Helvetica,sans-Serif" font-size="10.00">_f9/bld_nightly&#45;haldls.YmxkX25p</text>
<text text-anchor="start" x="125" y="-19.5" font-family="Helvetica,sans-Serif" font-size="10.00">Z2h0bHktaGFsZGxzIzcxMQ.x/haldls</text>
<text text-anchor="middle" x="206.12" y="-7.5" font-family="Helvetica,sans-Serif" font-size="10.00">/include/stadls/vx/v1/pystadls.h</text>
</a>
</g>
</g>
<!-- Node47&#45;&gt;Node48 -->
<g id="edge4" class="edge">
<title>Node47&#45;&gt;Node48</title>
<path fill="none" stroke="midnightblue" d="M206.12,-83.12C206.12,-74.3 206.12,-65.06 206.12,-56.78"/>
<polygon fill="midnightblue" stroke="midnightblue" points="202.62,-83.2 206.12,-93.2 209.62,-83.2 202.62,-83.2"/>
</g>
</g>
</svg>
