<?xml version="1.0" encoding="UTF-8" standalone="no"?>
<!DOCTYPE svg PUBLIC "-//W3C//DTD SVG 1.1//EN"
 "http://www.w3.org/Graphics/SVG/1.1/DTD/svg11.dtd">
<!-- Generated by graphviz version 2.43.0 (0)
 -->
<!-- Title: /jenkins/jenlib_workspaces_f9/bld_nightly&#45;haldls.YmxkX25pZ2h0bHktaGFsZGxzIzcxMQ.x/haldls/include/stadls/vx/v1/decode.h Pages: 1 -->
<svg width="1106pt" height="248pt"
 viewBox="0.00 0.00 1105.77 248.00" xmlns="http://www.w3.org/2000/svg" xmlns:xlink="http://www.w3.org/1999/xlink">
<g id="graph0" class="graph" transform="scale(1 1) rotate(0) translate(4 244)">
<title>/jenkins/jenlib_workspaces_f9/bld_nightly&#45;haldls.YmxkX25pZ2h0bHktaGFsZGxzIzcxMQ.x/haldls/include/stadls/vx/v1/decode.h</title>
<polygon fill="white" stroke="transparent" points="-4,4 -4,-244 1101.77,-244 1101.77,4 -4,4"/>
<!-- Node0 -->
<g id="node1" class="node">
<title>Node0</title>
<g id="a_node1"><a xlink:title=" ">
<polygon fill="#bfbfbf" stroke="black" points="415.26,-183.5 415.26,-239.5 593.5,-239.5 593.5,-183.5 415.26,-183.5"/>
<text text-anchor="start" x="423.26" y="-226.5" font-family="Helvetica,sans-Serif" font-size="10.00">/jenkins/jenlib_workspaces</text>
<text text-anchor="start" x="423.26" y="-214.5" font-family="Helvetica,sans-Serif" font-size="10.00">_f9/bld_nightly&#45;haldls.YmxkX25p</text>
<text text-anchor="start" x="423.26" y="-202.5" font-family="Helvetica,sans-Serif" font-size="10.00">Z2h0bHktaGFsZGxzIzcxMQ.x/haldls</text>
<text text-anchor="middle" x="504.38" y="-190.5" font-family="Helvetica,sans-Serif" font-size="10.00">/include/stadls/vx/v1/decode.h</text>
</a>
</g>
</g>
<!-- Node1 -->
<g id="node2" class="node">
<title>Node1</title>
<g id="a_node2"><a xlink:href="decode_8h.html" target="_top" xlink:title=" ">
<polygon fill="white" stroke="black" points="391.98,-126.5 391.98,-146.5 490.79,-146.5 490.79,-126.5 391.98,-126.5"/>
<text text-anchor="middle" x="441.38" y="-133.5" font-family="Helvetica,sans-Serif" font-size="10.00">stadls/vx/decode.h</text>
</a>
</g>
</g>
<!-- Node0&#45;&gt;Node1 -->
<g id="edge1" class="edge">
<title>Node0&#45;&gt;Node1</title>
<path fill="none" stroke="midnightblue" d="M480.92,-183.32C472.53,-173.59 463.31,-162.91 455.9,-154.32"/>
<polygon fill="midnightblue" stroke="midnightblue" points="458.35,-151.81 449.17,-146.52 453.05,-156.38 458.35,-151.81"/>
</g>
<!-- Node17 -->
<g id="node18" class="node">
<title>Node17</title>
<g id="a_node18"><a xlink:title=" ">
<polygon fill="white" stroke="#bfbfbf" points="508.54,-126.5 508.54,-146.5 626.22,-146.5 626.22,-126.5 508.54,-126.5"/>
<text text-anchor="middle" x="567.38" y="-133.5" font-family="Helvetica,sans-Serif" font-size="10.00">haldls/vx/v1/capmem.h</text>
</a>
</g>
</g>
<!-- Node0&#45;&gt;Node17 -->
<g id="edge17" class="edge">
<title>Node0&#45;&gt;Node17</title>
<path fill="none" stroke="midnightblue" d="M527.84,-183.32C536.24,-173.59 545.45,-162.91 552.87,-154.32"/>
<polygon fill="midnightblue" stroke="midnightblue" points="555.71,-156.38 559.59,-146.52 550.41,-151.81 555.71,-156.38"/>
</g>
<!-- Node2 -->
<g id="node3" class="node">
<title>Node2</title>
<g id="a_node3"><a xlink:title=" ">
<polygon fill="white" stroke="#bfbfbf" points="0,-63.5 0,-83.5 38.77,-83.5 38.77,-63.5 0,-63.5"/>
<text text-anchor="middle" x="19.38" y="-70.5" font-family="Helvetica,sans-Serif" font-size="10.00">limits</text>
</a>
</g>
</g>
<!-- Node1&#45;&gt;Node2 -->
<g id="edge2" class="edge">
<title>Node1&#45;&gt;Node2</title>
<path fill="none" stroke="midnightblue" d="M391.88,-135.89C315.92,-135.14 166.88,-128.32 47.38,-90 45.71,-89.46 44.02,-88.82 42.35,-88.11"/>
<polygon fill="midnightblue" stroke="midnightblue" points="43.65,-84.85 33.14,-83.51 40.52,-91.11 43.65,-84.85"/>
</g>
<!-- Node3 -->
<g id="node4" class="node">
<title>Node3</title>
<g id="a_node4"><a xlink:title=" ">
<polygon fill="white" stroke="#bfbfbf" points="56.44,-63.5 56.44,-83.5 106.33,-83.5 106.33,-63.5 56.44,-63.5"/>
<text text-anchor="middle" x="81.38" y="-70.5" font-family="Helvetica,sans-Serif" font-size="10.00">random</text>
</a>
</g>
</g>
<!-- Node1&#45;&gt;Node3 -->
<g id="edge3" class="edge">
<title>Node1&#45;&gt;Node3</title>
<path fill="none" stroke="midnightblue" d="M391.85,-133.04C327.15,-128.82 210.86,-117.79 115.38,-90 112.93,-89.29 110.43,-88.43 107.95,-87.48"/>
<polygon fill="midnightblue" stroke="midnightblue" points="109.23,-84.22 98.66,-83.54 106.5,-90.67 109.23,-84.22"/>
</g>
<!-- Node4 -->
<g id="node5" class="node">
<title>Node4</title>
<g id="a_node5"><a xlink:title=" ">
<polygon fill="white" stroke="#bfbfbf" points="124.6,-63.5 124.6,-83.5 226.17,-83.5 226.17,-63.5 124.6,-63.5"/>
<text text-anchor="middle" x="175.38" y="-70.5" font-family="Helvetica,sans-Serif" font-size="10.00">fisch/vx/container.h</text>
</a>
</g>
</g>
<!-- Node1&#45;&gt;Node4 -->
<g id="edge4" class="edge">
<title>Node1&#45;&gt;Node4</title>
<path fill="none" stroke="midnightblue" d="M398.27,-126.44C356.53,-117.56 291.48,-103.44 235.38,-90 230.28,-88.78 224.95,-87.46 219.65,-86.13"/>
<polygon fill="midnightblue" stroke="midnightblue" points="220.15,-82.64 209.6,-83.56 218.42,-89.42 220.15,-82.64"/>
</g>
<!-- Node5 -->
<g id="node6" class="node">
<title>Node5</title>
<g id="a_node6"><a xlink:title=" ">
<polygon fill="white" stroke="#bfbfbf" points="244.44,-63.5 244.44,-83.5 314.33,-83.5 314.33,-63.5 244.44,-63.5"/>
<text text-anchor="middle" x="279.38" y="-70.5" font-family="Helvetica,sans-Serif" font-size="10.00">fisch/vx/fill.h</text>
</a>
</g>
</g>
<!-- Node1&#45;&gt;Node5 -->
<g id="edge5" class="edge">
<title>Node1&#45;&gt;Node5</title>
<path fill="none" stroke="midnightblue" d="M417.48,-126.5C389.84,-116.09 344.16,-98.89 312.96,-87.14"/>
<polygon fill="midnightblue" stroke="midnightblue" points="313.98,-83.79 303.38,-83.54 311.51,-90.34 313.98,-83.79"/>
</g>
<!-- Node6 -->
<g id="node7" class="node">
<title>Node6</title>
<g id="a_node7"><a xlink:title=" ">
<polygon fill="white" stroke="#bfbfbf" points="331.87,-57.5 331.87,-89.5 432.89,-89.5 432.89,-57.5 331.87,-57.5"/>
<text text-anchor="start" x="339.87" y="-76.5" font-family="Helvetica,sans-Serif" font-size="10.00">halco/hicann&#45;dls/vx</text>
<text text-anchor="middle" x="382.38" y="-64.5" font-family="Helvetica,sans-Serif" font-size="10.00">/capmem.h</text>
</a>
</g>
</g>
<!-- Node1&#45;&gt;Node6 -->
<g id="edge6" class="edge">
<title>Node1&#45;&gt;Node6</title>
<path fill="none" stroke="midnightblue" d="M432.68,-126.5C425.22,-118.79 414.15,-107.35 404.3,-97.16"/>
<polygon fill="midnightblue" stroke="midnightblue" points="406.54,-94.45 397.08,-89.69 401.51,-99.31 406.54,-94.45"/>
</g>
<!-- Node7 -->
<g id="node8" class="node">
<title>Node7</title>
<g id="a_node8"><a xlink:title=" ">
<polygon fill="white" stroke="#bfbfbf" points="450.87,-57.5 450.87,-89.5 551.89,-89.5 551.89,-57.5 450.87,-57.5"/>
<text text-anchor="start" x="458.87" y="-76.5" font-family="Helvetica,sans-Serif" font-size="10.00">halco/hicann&#45;dls/vx</text>
<text text-anchor="middle" x="501.38" y="-64.5" font-family="Helvetica,sans-Serif" font-size="10.00">/ppu.h</text>
</a>
</g>
</g>
<!-- Node1&#45;&gt;Node7 -->
<g id="edge7" class="edge">
<title>Node1&#45;&gt;Node7</title>
<path fill="none" stroke="midnightblue" d="M450.24,-126.5C457.9,-118.71 469.3,-107.12 479.39,-96.86"/>
<polygon fill="midnightblue" stroke="midnightblue" points="481.92,-99.27 486.44,-89.69 476.93,-94.37 481.92,-99.27"/>
</g>
<!-- Node8 -->
<g id="node9" class="node">
<title>Node8</title>
<g id="a_node9"><a xlink:title=" ">
<polygon fill="white" stroke="#bfbfbf" points="570.21,-63.5 570.21,-83.5 674.56,-83.5 674.56,-63.5 570.21,-63.5"/>
<text text-anchor="middle" x="622.38" y="-70.5" font-family="Helvetica,sans-Serif" font-size="10.00">haldls/vx/common.h</text>
</a>
</g>
</g>
<!-- Node1&#45;&gt;Node8 -->
<g id="edge8" class="edge">
<title>Node1&#45;&gt;Node8</title>
<path fill="none" stroke="midnightblue" d="M468.09,-126.5C499.24,-116 550.89,-98.59 585.77,-86.84"/>
<polygon fill="midnightblue" stroke="midnightblue" points="587.21,-90.05 595.57,-83.54 584.97,-83.41 587.21,-90.05"/>
</g>
<!-- Node9 -->
<g id="node10" class="node">
<title>Node9</title>
<g id="a_node10"><a xlink:title=" ">
<polygon fill="white" stroke="#bfbfbf" points="692.32,-63.5 692.32,-83.5 774.45,-83.5 774.45,-63.5 692.32,-63.5"/>
<text text-anchor="middle" x="733.38" y="-70.5" font-family="Helvetica,sans-Serif" font-size="10.00">haldls/vx/jtag.h</text>
</a>
</g>
</g>
<!-- Node1&#45;&gt;Node9 -->
<g id="edge9" class="edge">
<title>Node1&#45;&gt;Node9</title>
<path fill="none" stroke="midnightblue" d="M490.92,-126.88C550.72,-116.35 647.7,-98.85 683.38,-90 687.72,-88.92 692.23,-87.69 696.69,-86.4"/>
<polygon fill="midnightblue" stroke="midnightblue" points="697.72,-89.74 706.29,-83.52 695.71,-83.04 697.72,-89.74"/>
</g>
<!-- Node10 -->
<g id="node11" class="node">
<title>Node10</title>
<g id="a_node11"><a xlink:title=" ">
<polygon fill="white" stroke="#bfbfbf" points="792.54,-63.5 792.54,-83.5 880.22,-83.5 880.22,-63.5 792.54,-63.5"/>
<text text-anchor="middle" x="836.38" y="-70.5" font-family="Helvetica,sans-Serif" font-size="10.00">haldls/vx/traits.h</text>
</a>
</g>
</g>
<!-- Node1&#45;&gt;Node10 -->
<g id="edge10" class="edge">
<title>Node1&#45;&gt;Node10</title>
<path fill="none" stroke="midnightblue" d="M491.04,-127.25C493.86,-126.81 496.66,-126.4 499.38,-126 625.29,-107.71 658.82,-115.94 783.38,-90 788.42,-88.95 793.67,-87.66 798.82,-86.28"/>
<polygon fill="midnightblue" stroke="midnightblue" points="799.86,-89.62 808.54,-83.54 797.96,-82.89 799.86,-89.62"/>
</g>
<!-- Node11 -->
<g id="node12" class="node">
<title>Node11</title>
<g id="a_node12"><a xlink:href="visitors_8h.html" target="_top" xlink:title=" ">
<polygon fill="white" stroke="black" points="898.21,-63.5 898.21,-83.5 982.55,-83.5 982.55,-63.5 898.21,-63.5"/>
<text text-anchor="middle" x="940.38" y="-70.5" font-family="Helvetica,sans-Serif" font-size="10.00">stadls/visitors.h</text>
</a>
</g>
</g>
<!-- Node1&#45;&gt;Node11 -->
<g id="edge11" class="edge">
<title>Node1&#45;&gt;Node11</title>
<path fill="none" stroke="midnightblue" d="M491.02,-127.13C493.85,-126.73 496.65,-126.35 499.38,-126 672.05,-103.92 718.56,-123.48 889.38,-90 894.24,-89.05 899.28,-87.82 904.24,-86.47"/>
<polygon fill="midnightblue" stroke="midnightblue" points="905.55,-89.73 914.17,-83.58 903.59,-83.01 905.55,-89.73"/>
</g>
<!-- Node12 -->
<g id="node13" class="node">
<title>Node12</title>
<g id="a_node13"><a xlink:title=" ">
<polygon fill="white" stroke="#bfbfbf" points="784.83,-0.5 784.83,-20.5 841.94,-20.5 841.94,-0.5 784.83,-0.5"/>
<text text-anchor="middle" x="813.38" y="-7.5" font-family="Helvetica,sans-Serif" font-size="10.00">algorithm</text>
</a>
</g>
</g>
<!-- Node11&#45;&gt;Node12 -->
<g id="edge12" class="edge">
<title>Node11&#45;&gt;Node12</title>
<path fill="none" stroke="midnightblue" d="M921.64,-63.5C900.45,-53.32 865.71,-36.63 841.31,-24.91"/>
<polygon fill="midnightblue" stroke="midnightblue" points="842.73,-21.71 832.2,-20.54 839.7,-28.02 842.73,-21.71"/>
</g>
<!-- Node13 -->
<g id="node14" class="node">
<title>Node13</title>
<g id="a_node14"><a xlink:title=" ">
<polygon fill="white" stroke="#bfbfbf" points="859.99,-0.5 859.99,-20.5 898.77,-20.5 898.77,-0.5 859.99,-0.5"/>
<text text-anchor="middle" x="879.38" y="-7.5" font-family="Helvetica,sans-Serif" font-size="10.00">array</text>
</a>
</g>
</g>
<!-- Node11&#45;&gt;Node13 -->
<g id="edge13" class="edge">
<title>Node11&#45;&gt;Node13</title>
<path fill="none" stroke="midnightblue" d="M931.38,-63.5C922.01,-54.13 907.13,-39.25 895.69,-27.8"/>
<polygon fill="midnightblue" stroke="midnightblue" points="897.97,-25.13 888.42,-20.54 893.02,-30.08 897.97,-25.13"/>
</g>
<!-- Node14 -->
<g id="node15" class="node">
<title>Node14</title>
<g id="a_node15"><a xlink:title=" ">
<polygon fill="white" stroke="#bfbfbf" points="916.83,-0.5 916.83,-20.5 963.94,-20.5 963.94,-0.5 916.83,-0.5"/>
<text text-anchor="middle" x="940.38" y="-7.5" font-family="Helvetica,sans-Serif" font-size="10.00">iterator</text>
</a>
</g>
</g>
<!-- Node11&#45;&gt;Node14 -->
<g id="edge14" class="edge">
<title>Node11&#45;&gt;Node14</title>
<path fill="none" stroke="midnightblue" d="M940.38,-63.5C940.38,-54.94 940.38,-41.78 940.38,-30.85"/>
<polygon fill="midnightblue" stroke="midnightblue" points="943.88,-30.54 940.38,-20.54 936.88,-30.54 943.88,-30.54"/>
</g>
<!-- Node15 -->
<g id="node16" class="node">
<title>Node15</title>
<g id="a_node16"><a xlink:title=" ">
<polygon fill="white" stroke="#bfbfbf" points="981.99,-0.5 981.99,-20.5 1040.78,-20.5 1040.78,-0.5 981.99,-0.5"/>
<text text-anchor="middle" x="1011.38" y="-7.5" font-family="Helvetica,sans-Serif" font-size="10.00">stdexcept</text>
</a>
</g>
</g>
<!-- Node11&#45;&gt;Node15 -->
<g id="edge15" class="edge">
<title>Node11&#45;&gt;Node15</title>
<path fill="none" stroke="midnightblue" d="M950.86,-63.5C961.98,-53.95 979.75,-38.67 993.17,-27.15"/>
<polygon fill="midnightblue" stroke="midnightblue" points="995.56,-29.71 1000.86,-20.54 991,-24.4 995.56,-29.71"/>
</g>
<!-- Node16 -->
<g id="node17" class="node">
<title>Node16</title>
<g id="a_node17"><a xlink:title=" ">
<polygon fill="white" stroke="#bfbfbf" points="1059,-0.5 1059,-20.5 1097.77,-20.5 1097.77,-0.5 1059,-0.5"/>
<text text-anchor="middle" x="1078.38" y="-7.5" font-family="Helvetica,sans-Serif" font-size="10.00">utility</text>
</a>
</g>
</g>
<!-- Node11&#45;&gt;Node16 -->
<g id="edge16" class="edge">
<title>Node11&#45;&gt;Node16</title>
<path fill="none" stroke="midnightblue" d="M960.74,-63.5C984.25,-53.11 1023.07,-35.95 1049.65,-24.2"/>
<polygon fill="midnightblue" stroke="midnightblue" points="1051.1,-27.39 1058.83,-20.14 1048.27,-20.98 1051.1,-27.39"/>
</g>
</g>
</svg>
