<?xml version="1.0" encoding="UTF-8" standalone="no"?>
<!DOCTYPE svg PUBLIC "-//W3C//DTD SVG 1.1//EN"
 "http://www.w3.org/Graphics/SVG/1.1/DTD/svg11.dtd">
<!-- Generated by graphviz version 2.43.0 (0)
 -->
<!-- Title: /jenkins/jenlib_workspaces_f9/bld_nightly&#45;haldls.YmxkX25pZ2h0bHktaGFsZGxzIzcxMQ.x/haldls/include/stadls/vx/v1/dumperdone.h Pages: 1 -->
<svg width="322pt" height="647pt"
 viewBox="0.00 0.00 322.24 647.00" xmlns="http://www.w3.org/2000/svg" xmlns:xlink="http://www.w3.org/1999/xlink">
<g id="graph0" class="graph" transform="scale(1 1) rotate(0) translate(4 643)">
<title>/jenkins/jenlib_workspaces_f9/bld_nightly&#45;haldls.YmxkX25pZ2h0bHktaGFsZGxzIzcxMQ.x/haldls/include/stadls/vx/v1/dumperdone.h</title>
<polygon fill="white" stroke="transparent" points="-4,4 -4,-643 318.24,-643 318.24,4 -4,4"/>
<!-- Node14 -->
<g id="node1" class="node">
<title>Node14</title>
<g id="a_node1"><a xlink:title=" ">
<polygon fill="#bfbfbf" stroke="black" points="115,-582.5 115,-638.5 293.24,-638.5 293.24,-582.5 115,-582.5"/>
<text text-anchor="start" x="123" y="-625.5" font-family="Helvetica,sans-Serif" font-size="10.00">/jenkins/jenlib_workspaces</text>
<text text-anchor="start" x="123" y="-613.5" font-family="Helvetica,sans-Serif" font-size="10.00">_f9/bld_nightly&#45;haldls.YmxkX25p</text>
<text text-anchor="start" x="123" y="-601.5" font-family="Helvetica,sans-Serif" font-size="10.00">Z2h0bHktaGFsZGxzIzcxMQ.x/haldls</text>
<text text-anchor="middle" x="204.12" y="-589.5" font-family="Helvetica,sans-Serif" font-size="10.00">/include/stadls/vx/v1/dumperdone.h</text>
</a>
</g>
</g>
<!-- Node15 -->
<g id="node2" class="node">
<title>Node15</title>
<g id="a_node2"><a xlink:href="v1_2dumper_8h.html" target="_top" xlink:title=" ">
<polygon fill="white" stroke="black" points="115,-489.5 115,-545.5 293.24,-545.5 293.24,-489.5 115,-489.5"/>
<text text-anchor="start" x="123" y="-532.5" font-family="Helvetica,sans-Serif" font-size="10.00">/jenkins/jenlib_workspaces</text>
<text text-anchor="start" x="123" y="-520.5" font-family="Helvetica,sans-Serif" font-size="10.00">_f9/bld_nightly&#45;haldls.YmxkX25p</text>
<text text-anchor="start" x="123" y="-508.5" font-family="Helvetica,sans-Serif" font-size="10.00">Z2h0bHktaGFsZGxzIzcxMQ.x/haldls</text>
<text text-anchor="middle" x="204.12" y="-496.5" font-family="Helvetica,sans-Serif" font-size="10.00">/include/stadls/vx/v1/dumper.h</text>
</a>
</g>
</g>
<!-- Node14&#45;&gt;Node15 -->
<g id="edge1" class="edge">
<title>Node14&#45;&gt;Node15</title>
<path fill="none" stroke="midnightblue" d="M204.12,-572.12C204.12,-563.3 204.12,-554.06 204.12,-545.78"/>
<polygon fill="midnightblue" stroke="midnightblue" points="200.62,-572.2 204.12,-582.2 207.62,-572.2 200.62,-572.2"/>
</g>
<!-- Node16 -->
<g id="node3" class="node">
<title>Node16</title>
<g id="a_node3"><a xlink:href="v1_2playback__program__builder_8h.html" target="_top" xlink:title=" ">
<polygon fill="white" stroke="black" points="57,-384.5 57,-452.5 235.24,-452.5 235.24,-384.5 57,-384.5"/>
<text text-anchor="start" x="65" y="-439.5" font-family="Helvetica,sans-Serif" font-size="10.00">/jenkins/jenlib_workspaces</text>
<text text-anchor="start" x="65" y="-427.5" font-family="Helvetica,sans-Serif" font-size="10.00">_f9/bld_nightly&#45;haldls.YmxkX25p</text>
<text text-anchor="start" x="65" y="-415.5" font-family="Helvetica,sans-Serif" font-size="10.00">Z2h0bHktaGFsZGxzIzcxMQ.x/haldls</text>
<text text-anchor="start" x="65" y="-403.5" font-family="Helvetica,sans-Serif" font-size="10.00">/include/stadls/vx/v1/playback</text>
<text text-anchor="middle" x="146.12" y="-391.5" font-family="Helvetica,sans-Serif" font-size="10.00">_program_builder.h</text>
</a>
</g>
</g>
<!-- Node15&#45;&gt;Node16 -->
<g id="edge2" class="edge">
<title>Node15&#45;&gt;Node16</title>
<path fill="none" stroke="midnightblue" d="M182.81,-480.87C177.28,-471.62 171.35,-461.7 165.9,-452.59"/>
<polygon fill="midnightblue" stroke="midnightblue" points="179.83,-482.69 187.96,-489.48 185.83,-479.1 179.83,-482.69"/>
</g>
<!-- Node19 -->
<g id="node6" class="node">
<title>Node19</title>
<g id="a_node6"><a xlink:href="v1_2stadls_8h.html" target="_top" xlink:title=" ">
<polygon fill="white" stroke="black" points="136,-93.5 136,-149.5 314.24,-149.5 314.24,-93.5 136,-93.5"/>
<text text-anchor="start" x="144" y="-136.5" font-family="Helvetica,sans-Serif" font-size="10.00">/jenkins/jenlib_workspaces</text>
<text text-anchor="start" x="144" y="-124.5" font-family="Helvetica,sans-Serif" font-size="10.00">_f9/bld_nightly&#45;haldls.YmxkX25p</text>
<text text-anchor="start" x="144" y="-112.5" font-family="Helvetica,sans-Serif" font-size="10.00">Z2h0bHktaGFsZGxzIzcxMQ.x/haldls</text>
<text text-anchor="middle" x="225.12" y="-100.5" font-family="Helvetica,sans-Serif" font-size="10.00">/include/stadls/vx/v1/stadls.h</text>
</a>
</g>
</g>
<!-- Node15&#45;&gt;Node19 -->
<g id="edge10" class="edge">
<title>Node15&#45;&gt;Node19</title>
<path fill="none" stroke="midnightblue" d="M231.14,-480.63C236.36,-471.99 241.13,-462.5 244.12,-453 279.76,-339.73 279.36,-302.04 254.12,-186 251.41,-173.57 246.05,-160.65 240.66,-149.74"/>
<polygon fill="midnightblue" stroke="midnightblue" points="228.04,-478.98 225.59,-489.28 233.93,-482.75 228.04,-478.98"/>
</g>
<!-- Node17 -->
<g id="node4" class="node">
<title>Node17</title>
<g id="a_node4"><a xlink:href="v1_2playback__generator_8h.html" target="_top" xlink:title=" ">
<polygon fill="white" stroke="black" points="38,-279.5 38,-347.5 216.24,-347.5 216.24,-279.5 38,-279.5"/>
<text text-anchor="start" x="46" y="-334.5" font-family="Helvetica,sans-Serif" font-size="10.00">/jenkins/jenlib_workspaces</text>
<text text-anchor="start" x="46" y="-322.5" font-family="Helvetica,sans-Serif" font-size="10.00">_f9/bld_nightly&#45;haldls.YmxkX25p</text>
<text text-anchor="start" x="46" y="-310.5" font-family="Helvetica,sans-Serif" font-size="10.00">Z2h0bHktaGFsZGxzIzcxMQ.x/haldls</text>
<text text-anchor="start" x="46" y="-298.5" font-family="Helvetica,sans-Serif" font-size="10.00">/include/stadls/vx/v1/playback</text>
<text text-anchor="middle" x="127.12" y="-286.5" font-family="Helvetica,sans-Serif" font-size="10.00">_generator.h</text>
</a>
</g>
</g>
<!-- Node16&#45;&gt;Node17 -->
<g id="edge3" class="edge">
<title>Node16&#45;&gt;Node17</title>
<path fill="none" stroke="midnightblue" d="M138.17,-374.43C136.52,-365.46 134.8,-356.14 133.22,-347.59"/>
<polygon fill="midnightblue" stroke="midnightblue" points="134.75,-375.14 140,-384.34 141.63,-373.87 134.75,-375.14"/>
</g>
<!-- Node18 -->
<g id="node5" class="node">
<title>Node18</title>
<g id="a_node5"><a xlink:href="v1_2init__generator_8h.html" target="_top" xlink:title=" ">
<polygon fill="white" stroke="black" points="0,-186.5 0,-242.5 178.24,-242.5 178.24,-186.5 0,-186.5"/>
<text text-anchor="start" x="8" y="-229.5" font-family="Helvetica,sans-Serif" font-size="10.00">/jenkins/jenlib_workspaces</text>
<text text-anchor="start" x="8" y="-217.5" font-family="Helvetica,sans-Serif" font-size="10.00">_f9/bld_nightly&#45;haldls.YmxkX25p</text>
<text text-anchor="start" x="8" y="-205.5" font-family="Helvetica,sans-Serif" font-size="10.00">Z2h0bHktaGFsZGxzIzcxMQ.x/haldls</text>
<text text-anchor="middle" x="89.12" y="-193.5" font-family="Helvetica,sans-Serif" font-size="10.00">/include/stadls/vx/v1/init_generator.h</text>
</a>
</g>
</g>
<!-- Node16&#45;&gt;Node18 -->
<g id="edge8" class="edge">
<title>Node16&#45;&gt;Node18</title>
<path fill="none" stroke="midnightblue" d="M56.54,-378.43C45.59,-369.97 35.89,-359.9 29.12,-348 13.95,-321.35 17.79,-307.5 29.12,-279 34.56,-265.33 44.49,-252.9 54.73,-242.74"/>
<polygon fill="midnightblue" stroke="midnightblue" points="54.56,-381.31 64.72,-384.31 58.64,-375.63 54.56,-381.31"/>
</g>
<!-- Node16&#45;&gt;Node19 -->
<g id="edge9" class="edge">
<title>Node16&#45;&gt;Node19</title>
<path fill="none" stroke="midnightblue" d="M204.01,-377.48C212.58,-368.81 220.18,-358.92 225.12,-348 254.96,-282.01 241.67,-193.63 232,-149.69"/>
<polygon fill="midnightblue" stroke="midnightblue" points="201.48,-375.06 196.62,-384.47 206.29,-380.14 201.48,-375.06"/>
</g>
<!-- Node17&#45;&gt;Node18 -->
<g id="edge4" class="edge">
<title>Node17&#45;&gt;Node18</title>
<path fill="none" stroke="midnightblue" d="M110.44,-269.92C106.81,-260.67 103.08,-251.13 99.76,-242.67"/>
<polygon fill="midnightblue" stroke="midnightblue" points="107.24,-271.36 114.15,-279.39 113.76,-268.8 107.24,-271.36"/>
</g>
<!-- Node17&#45;&gt;Node19 -->
<g id="edge7" class="edge">
<title>Node17&#45;&gt;Node19</title>
<path fill="none" stroke="midnightblue" d="M167.15,-271.62C174.5,-262.67 181.59,-252.91 187.12,-243 203.79,-213.12 214.25,-174.91 219.88,-149.62"/>
<polygon fill="midnightblue" stroke="midnightblue" points="164.47,-269.36 160.65,-279.24 169.8,-273.9 164.47,-269.36"/>
</g>
<!-- Node18&#45;&gt;Node19 -->
<g id="edge5" class="edge">
<title>Node18&#45;&gt;Node19</title>
<path fill="none" stroke="midnightblue" d="M137.89,-180.86C153.2,-170.62 169.93,-159.43 184.6,-149.61"/>
<polygon fill="midnightblue" stroke="midnightblue" points="135.92,-177.97 129.56,-186.44 139.81,-183.79 135.92,-177.97"/>
</g>
<!-- Node20 -->
<g id="node7" class="node">
<title>Node20</title>
<g id="a_node7"><a xlink:href="v1_2pystadls_8h.html" target="_top" xlink:title=" ">
<polygon fill="white" stroke="black" points="136,-0.5 136,-56.5 314.24,-56.5 314.24,-0.5 136,-0.5"/>
<text text-anchor="start" x="144" y="-43.5" font-family="Helvetica,sans-Serif" font-size="10.00">/jenkins/jenlib_workspaces</text>
<text text-anchor="start" x="144" y="-31.5" font-family="Helvetica,sans-Serif" font-size="10.00">_f9/bld_nightly&#45;haldls.YmxkX25p</text>
<text text-anchor="start" x="144" y="-19.5" font-family="Helvetica,sans-Serif" font-size="10.00">Z2h0bHktaGFsZGxzIzcxMQ.x/haldls</text>
<text text-anchor="middle" x="225.12" y="-7.5" font-family="Helvetica,sans-Serif" font-size="10.00">/include/stadls/vx/v1/pystadls.h</text>
</a>
</g>
</g>
<!-- Node19&#45;&gt;Node20 -->
<g id="edge6" class="edge">
<title>Node19&#45;&gt;Node20</title>
<path fill="none" stroke="midnightblue" d="M225.12,-83.12C225.12,-74.3 225.12,-65.06 225.12,-56.78"/>
<polygon fill="midnightblue" stroke="midnightblue" points="221.62,-83.2 225.12,-93.2 228.62,-83.2 221.62,-83.2"/>
</g>
</g>
</svg>
