<?xml version="1.0" encoding="UTF-8" standalone="no"?>
<!DOCTYPE svg PUBLIC "-//W3C//DTD SVG 1.1//EN"
 "http://www.w3.org/Graphics/SVG/1.1/DTD/svg11.dtd">
<!-- Generated by graphviz version 2.43.0 (0)
 -->
<!-- Title: /jenkins/jenlib_workspaces_f9/bld_nightly&#45;haldls.YmxkX25pZ2h0bHktaGFsZGxzIzQ5Nw.x/haldls/include/stadls/v2/genpybind.h Pages: 1 -->
<svg width="660pt" height="263pt"
 viewBox="0.00 0.00 659.91 263.00" xmlns="http://www.w3.org/2000/svg" xmlns:xlink="http://www.w3.org/1999/xlink">
<g id="graph0" class="graph" transform="scale(1 1) rotate(0) translate(4 259)">
<title>/jenkins/jenlib_workspaces_f9/bld_nightly&#45;haldls.YmxkX25pZ2h0bHktaGFsZGxzIzQ5Nw.x/haldls/include/stadls/v2/genpybind.h</title>
<polygon fill="white" stroke="transparent" points="-4,4 -4,-259 655.91,-259 655.91,4 -4,4"/>
<!-- Node1 -->
<g id="node1" class="node">
<title>Node1</title>
<g id="a_node1"><a xlink:title=" ">
<polygon fill="#bfbfbf" stroke="black" points="236,-198.5 236,-254.5 415.91,-254.5 415.91,-198.5 236,-198.5"/>
<text text-anchor="start" x="244" y="-241.5" font-family="Helvetica,sans-Serif" font-size="10.00">/jenkins/jenlib_workspaces</text>
<text text-anchor="start" x="244" y="-229.5" font-family="Helvetica,sans-Serif" font-size="10.00">_f9/bld_nightly&#45;haldls.YmxkX25p</text>
<text text-anchor="start" x="244" y="-217.5" font-family="Helvetica,sans-Serif" font-size="10.00">Z2h0bHktaGFsZGxzIzQ5Nw.x/haldls</text>
<text text-anchor="middle" x="325.95" y="-205.5" font-family="Helvetica,sans-Serif" font-size="10.00">/include/stadls/v2/genpybind.h</text>
</a>
</g>
</g>
<!-- Node1&#45;&gt;Node1 -->
<g id="edge3" class="edge">
<title>Node1&#45;&gt;Node1</title>
<path fill="none" stroke="midnightblue" d="M425.76,-238.48C430.88,-235.52 433.91,-231.52 433.91,-226.5 433.91,-218.84 426.88,-213.58 416.12,-210.71"/>
<polygon fill="midnightblue" stroke="midnightblue" points="424.13,-235.36 416.12,-242.29 426.7,-241.87 424.13,-235.36"/>
</g>
<!-- Node2 -->
<g id="node2" class="node">
<title>Node2</title>
<g id="a_node2"><a xlink:href="experiment_8h.html" target="_top" xlink:title=" ">
<polygon fill="white" stroke="black" points="0,-99.5 0,-155.5 179.91,-155.5 179.91,-99.5 0,-99.5"/>
<text text-anchor="start" x="8" y="-142.5" font-family="Helvetica,sans-Serif" font-size="10.00">/jenkins/jenlib_workspaces</text>
<text text-anchor="start" x="8" y="-130.5" font-family="Helvetica,sans-Serif" font-size="10.00">_f9/bld_nightly&#45;haldls.YmxkX25p</text>
<text text-anchor="start" x="8" y="-118.5" font-family="Helvetica,sans-Serif" font-size="10.00">Z2h0bHktaGFsZGxzIzQ5Nw.x/haldls</text>
<text text-anchor="middle" x="89.95" y="-106.5" font-family="Helvetica,sans-Serif" font-size="10.00">/include/stadls/v2/experiment.h</text>
</a>
</g>
</g>
<!-- Node1&#45;&gt;Node2 -->
<g id="edge1" class="edge">
<title>Node1&#45;&gt;Node2</title>
<path fill="none" stroke="midnightblue" d="M250.88,-194.64C220.31,-182.08 185.3,-167.69 155.75,-155.54"/>
<polygon fill="midnightblue" stroke="midnightblue" points="249.63,-197.92 260.21,-198.48 252.3,-191.44 249.63,-197.92"/>
</g>
<!-- Node3 -->
<g id="node3" class="node">
<title>Node3</title>
<g id="a_node3"><a xlink:href="io_8h.html" target="_top" xlink:title=" ">
<polygon fill="white" stroke="black" points="118,-0.5 118,-56.5 297.91,-56.5 297.91,-0.5 118,-0.5"/>
<text text-anchor="start" x="126" y="-43.5" font-family="Helvetica,sans-Serif" font-size="10.00">/jenkins/jenlib_workspaces</text>
<text text-anchor="start" x="126" y="-31.5" font-family="Helvetica,sans-Serif" font-size="10.00">_f9/bld_nightly&#45;haldls.YmxkX25p</text>
<text text-anchor="start" x="126" y="-19.5" font-family="Helvetica,sans-Serif" font-size="10.00">Z2h0bHktaGFsZGxzIzQ5Nw.x/haldls</text>
<text text-anchor="middle" x="207.95" y="-7.5" font-family="Helvetica,sans-Serif" font-size="10.00">/include/stadls/v2/io.h</text>
</a>
</g>
</g>
<!-- Node1&#45;&gt;Node3 -->
<g id="edge4" class="edge">
<title>Node1&#45;&gt;Node3</title>
<path fill="none" stroke="midnightblue" d="M257.5,-192.79C245.68,-184.3 234.71,-174.07 226.95,-162 206.47,-130.14 204.37,-85.13 205.54,-56.64"/>
<polygon fill="midnightblue" stroke="midnightblue" points="255.54,-195.69 265.79,-198.39 259.46,-189.89 255.54,-195.69"/>
</g>
<!-- Node4 -->
<g id="node4" class="node">
<title>Node4</title>
<g id="a_node4"><a xlink:href="local__board__control_8h.html" target="_top" xlink:title=" ">
<polygon fill="white" stroke="black" points="236,-93.5 236,-161.5 415.91,-161.5 415.91,-93.5 236,-93.5"/>
<text text-anchor="start" x="244" y="-148.5" font-family="Helvetica,sans-Serif" font-size="10.00">/jenkins/jenlib_workspaces</text>
<text text-anchor="start" x="244" y="-136.5" font-family="Helvetica,sans-Serif" font-size="10.00">_f9/bld_nightly&#45;haldls.YmxkX25p</text>
<text text-anchor="start" x="244" y="-124.5" font-family="Helvetica,sans-Serif" font-size="10.00">Z2h0bHktaGFsZGxzIzQ5Nw.x/haldls</text>
<text text-anchor="start" x="244" y="-112.5" font-family="Helvetica,sans-Serif" font-size="10.00">/include/stadls/v2/local_board</text>
<text text-anchor="middle" x="325.95" y="-100.5" font-family="Helvetica,sans-Serif" font-size="10.00">_control.h</text>
</a>
</g>
</g>
<!-- Node1&#45;&gt;Node4 -->
<g id="edge5" class="edge">
<title>Node1&#45;&gt;Node4</title>
<path fill="none" stroke="midnightblue" d="M325.95,-188.43C325.95,-179.6 325.95,-170.23 325.95,-161.59"/>
<polygon fill="midnightblue" stroke="midnightblue" points="322.45,-188.48 325.95,-198.48 329.45,-188.48 322.45,-188.48"/>
</g>
<!-- Node5 -->
<g id="node5" class="node">
<title>Node5</title>
<g id="a_node5"><a xlink:href="quick__queue_8h.html" target="_top" xlink:title=" ">
<polygon fill="white" stroke="black" points="335,-0.5 335,-56.5 514.91,-56.5 514.91,-0.5 335,-0.5"/>
<text text-anchor="start" x="343" y="-43.5" font-family="Helvetica,sans-Serif" font-size="10.00">/jenkins/jenlib_workspaces</text>
<text text-anchor="start" x="343" y="-31.5" font-family="Helvetica,sans-Serif" font-size="10.00">_f9/bld_nightly&#45;haldls.YmxkX25p</text>
<text text-anchor="start" x="343" y="-19.5" font-family="Helvetica,sans-Serif" font-size="10.00">Z2h0bHktaGFsZGxzIzQ5Nw.x/haldls</text>
<text text-anchor="middle" x="424.95" y="-7.5" font-family="Helvetica,sans-Serif" font-size="10.00">/include/stadls/v2/quick_queue.h</text>
</a>
</g>
</g>
<!-- Node1&#45;&gt;Node5 -->
<g id="edge9" class="edge">
<title>Node1&#45;&gt;Node5</title>
<path fill="none" stroke="midnightblue" d="M397.14,-192.62C408.31,-184.25 418.33,-174.11 424.95,-162 442.83,-129.3 438.08,-84.93 432.18,-56.75"/>
<polygon fill="midnightblue" stroke="midnightblue" points="395.04,-189.82 388.83,-198.41 399.04,-195.56 395.04,-189.82"/>
</g>
<!-- Node6 -->
<g id="node6" class="node">
<title>Node6</title>
<g id="a_node6"><a xlink:href="ocp_8h.html" target="_top" xlink:title=" ">
<polygon fill="white" stroke="black" points="472,-99.5 472,-155.5 651.91,-155.5 651.91,-99.5 472,-99.5"/>
<text text-anchor="start" x="480" y="-142.5" font-family="Helvetica,sans-Serif" font-size="10.00">/jenkins/jenlib_workspaces</text>
<text text-anchor="start" x="480" y="-130.5" font-family="Helvetica,sans-Serif" font-size="10.00">_f9/bld_nightly&#45;haldls.YmxkX25p</text>
<text text-anchor="start" x="480" y="-118.5" font-family="Helvetica,sans-Serif" font-size="10.00">Z2h0bHktaGFsZGxzIzQ5Nw.x/haldls</text>
<text text-anchor="middle" x="561.95" y="-106.5" font-family="Helvetica,sans-Serif" font-size="10.00">/include/stadls/v2/ocp.h</text>
</a>
</g>
</g>
<!-- Node1&#45;&gt;Node6 -->
<g id="edge8" class="edge">
<title>Node1&#45;&gt;Node6</title>
<path fill="none" stroke="midnightblue" d="M401.02,-194.64C431.59,-182.08 466.61,-167.69 496.16,-155.54"/>
<polygon fill="midnightblue" stroke="midnightblue" points="399.61,-191.44 391.69,-198.48 402.27,-197.92 399.61,-191.44"/>
</g>
<!-- Node2&#45;&gt;Node3 -->
<g id="edge2" class="edge">
<title>Node2&#45;&gt;Node3</title>
<path fill="none" stroke="midnightblue" d="M130.65,-93.05C145.08,-81.19 161.13,-67.99 174.85,-56.71"/>
<polygon fill="midnightblue" stroke="midnightblue" points="128.32,-90.43 122.82,-99.48 132.77,-95.83 128.32,-90.43"/>
</g>
<!-- Node4&#45;&gt;Node3 -->
<g id="edge6" class="edge">
<title>Node4&#45;&gt;Node3</title>
<path fill="none" stroke="midnightblue" d="M277.69,-86.82C265.36,-76.69 252.38,-66.02 241.01,-56.67"/>
<polygon fill="midnightblue" stroke="midnightblue" points="275.73,-89.74 285.67,-93.39 280.17,-84.34 275.73,-89.74"/>
</g>
<!-- Node4&#45;&gt;Node5 -->
<g id="edge7" class="edge">
<title>Node4&#45;&gt;Node5</title>
<path fill="none" stroke="midnightblue" d="M367.04,-86.24C377.21,-76.28 387.86,-65.84 397.22,-56.67"/>
<polygon fill="midnightblue" stroke="midnightblue" points="364.44,-83.89 359.75,-93.39 369.34,-88.89 364.44,-83.89"/>
</g>
</g>
</svg>
