<?xml version="1.0" encoding="UTF-8" standalone="no"?>
<!DOCTYPE svg PUBLIC "-//W3C//DTD SVG 1.1//EN"
 "http://www.w3.org/Graphics/SVG/1.1/DTD/svg11.dtd">
<!-- Generated by graphviz version 2.43.0 (0)
 -->
<!-- Title: /jenkins/jenlib_workspaces_f9/bld_nightly&#45;haldls.YmxkX25pZ2h0bHktaGFsZGxzIzcxMQ.x/haldls/include/stadls/vx/v2/playback_program.h Pages: 1 -->
<!--zoomable 274 -->
<svg id="main" version="1.1" xmlns="http://www.w3.org/2000/svg" xmlns:xlink="http://www.w3.org/1999/xlink" xml:space="preserve" onload="init(evt)">
<style type="text/css"><![CDATA[
.edge:hover path { stroke: red; }
.edge:hover polygon { stroke: red; fill: red; }
]]></style>
<script type="text/javascript"><![CDATA[
var edges = document.getElementsByTagName('g');
if (edges && edges.length) {
  for (var i=0;i<edges.length;i++) {
    if (edges[i].id.substr(0,4)=='edge') {
      edges[i].setAttribute('class','edge');
    }
  }
}
]]></script>
        <defs>
                <circle id="rim" cx="0" cy="0" r="7"/>
                <circle id="rim2" cx="0" cy="0" r="3.5"/>
                <g id="zoomPlus">
                        <use xlink:href="#rim" fill="#404040">
                                <set attributeName="fill" to="#808080" begin="zoomplus.mouseover" end="zoomplus.mouseout"/>
                        </use>
                        <path d="M-4,0h8M0,-4v8" fill="none" stroke="white" stroke-width="1.5" pointer-events="none"/>
                </g>
                <g id="zoomMin">
                        <use xlink:href="#rim" fill="#404040">
                                <set attributeName="fill" to="#808080" begin="zoomminus.mouseover" end="zoomminus.mouseout"/>
                        </use>
                        <path d="M-4,0h8" fill="none" stroke="white" stroke-width="1.5" pointer-events="none"/>
                </g>
                <g id="dirArrow">
                        <path fill="none" stroke="white" stroke-width="1.5" d="M0,-3.0v7 M-2.5,-0.5L0,-3.0L2.5,-0.5"/>
                </g>
               <g id="resetDef">
                       <use xlink:href="#rim2" fill="#404040">
                               <set attributeName="fill" to="#808080" begin="reset.mouseover" end="reset.mouseout"/>
                       </use>
               </g>
        </defs>

<script type="text/javascript">
var viewWidth = 1939;
var viewHeight = 274;
var sectionId = 'dynsection-0';
</script>
<script xlink:href="svgpan.js"/>
<svg id="graph" class="graph">
<g id="viewport">
<title>/jenkins/jenlib_workspaces_f9/bld_nightly&#45;haldls.YmxkX25pZ2h0bHktaGFsZGxzIzcxMQ.x/haldls/include/stadls/vx/v2/playback_program.h</title>
<polygon fill="white" stroke="transparent" points="-4,4 -4,-269.55 1935.31,-269.55 1935.31,4 -4,4"/>
<!-- Node0 -->
<g id="node1" class="node">
<title>Node0</title>
<g id="a_node1"><a xlink:title=" ">
<polygon fill="#bfbfbf" stroke="black" points="404.12,-197.05 404.12,-265.05 582.35,-265.05 582.35,-197.05 404.12,-197.05"/>
<text text-anchor="start" x="412.12" y="-252.05" font-family="Helvetica,sans-Serif" font-size="10.00">/jenkins/jenlib_workspaces</text>
<text text-anchor="start" x="412.12" y="-240.05" font-family="Helvetica,sans-Serif" font-size="10.00">_f9/bld_nightly&#45;haldls.YmxkX25p</text>
<text text-anchor="start" x="412.12" y="-228.05" font-family="Helvetica,sans-Serif" font-size="10.00">Z2h0bHktaGFsZGxzIzcxMQ.x/haldls</text>
<text text-anchor="start" x="412.12" y="-216.05" font-family="Helvetica,sans-Serif" font-size="10.00">/include/stadls/vx/v2/playback</text>
<text text-anchor="middle" x="493.24" y="-204.05" font-family="Helvetica,sans-Serif" font-size="10.00">_program.h</text>
</a>
</g>
</g>
<!-- Node1 -->
<g id="node2" class="node">
<title>Node1</title>
<g id="a_node2"><a xlink:title=" ">
<polygon fill="white" stroke="#bfbfbf" points="0,-134.05 0,-154.05 120.47,-154.05 120.47,-134.05 0,-134.05"/>
<text text-anchor="middle" x="60.24" y="-141.05" font-family="Helvetica,sans-Serif" font-size="10.00">haldls/vx/v2/container.h</text>
</a>
</g>
</g>
<!-- Node0&#45;&gt;Node1 -->
<g id="edge1" class="edge">
<title>Node0&#45;&gt;Node1</title>
<path fill="none" stroke="midnightblue" d="M404.07,-213.86C330.28,-200.26 222.78,-179.98 129.24,-160.55 122.92,-159.24 116.3,-157.82 109.76,-156.38"/>
<polygon fill="midnightblue" stroke="midnightblue" points="110.12,-152.87 99.6,-154.12 108.6,-159.71 110.12,-152.87"/>
</g>
<!-- Node2 -->
<g id="node3" class="node">
<title>Node2</title>
<g id="a_node3"><a xlink:title=" ">
<polygon fill="white" stroke="#bfbfbf" points="138.28,-134.05 138.28,-154.05 248.19,-154.05 248.19,-134.05 138.28,-134.05"/>
<text text-anchor="middle" x="193.24" y="-141.05" font-family="Helvetica,sans-Serif" font-size="10.00">lola/vx/v2/container.h</text>
</a>
</g>
</g>
<!-- Node0&#45;&gt;Node2 -->
<g id="edge2" class="edge">
<title>Node0&#45;&gt;Node2</title>
<path fill="none" stroke="midnightblue" d="M404.04,-204.78C347.95,-188.89 278.22,-169.13 234.71,-156.8"/>
<polygon fill="midnightblue" stroke="midnightblue" points="235.61,-153.42 225.04,-154.06 233.7,-160.16 235.61,-153.42"/>
</g>
<!-- Node3 -->
<g id="node4" class="node">
<title>Node3</title>
<g id="a_node4"><a xlink:href="genpybind_8h.html" target="_top" xlink:title=" ">
<polygon fill="white" stroke="black" points="258.16,-2.05 258.16,-22.05 370.31,-22.05 370.31,-2.05 258.16,-2.05"/>
<text text-anchor="middle" x="314.24" y="-9.05" font-family="Helvetica,sans-Serif" font-size="10.00">stadls/vx/genpybind.h</text>
</a>
</g>
</g>
<!-- Node0&#45;&gt;Node3 -->
<g id="edge3" class="edge">
<title>Node0&#45;&gt;Node3</title>
<path fill="none" stroke="midnightblue" d="M423.26,-197.01C382.77,-173.74 335.37,-138.38 312.24,-91.55 303.11,-73.08 305.46,-49.06 308.91,-32.48"/>
<polygon fill="midnightblue" stroke="midnightblue" points="312.41,-32.89 311.35,-22.35 305.6,-31.25 312.41,-32.89"/>
</g>
<!-- Node4 -->
<g id="node5" class="node">
<title>Node4</title>
<g id="a_node5"><a xlink:href="playback__program_8h.html" target="_top" xlink:title=" ">
<polygon fill="white" stroke="black" points="716.67,-128.05 716.67,-160.05 813.8,-160.05 813.8,-128.05 716.67,-128.05"/>
<text text-anchor="start" x="724.67" y="-147.05" font-family="Helvetica,sans-Serif" font-size="10.00">stadls/vx/playback</text>
<text text-anchor="middle" x="765.24" y="-135.05" font-family="Helvetica,sans-Serif" font-size="10.00">_program.h</text>
</a>
</g>
</g>
<!-- Node0&#45;&gt;Node4 -->
<g id="edge5" class="edge">
<title>Node0&#45;&gt;Node4</title>
<path fill="none" stroke="midnightblue" d="M582.68,-202.1C623.58,-189.32 670.87,-174.54 707.07,-163.23"/>
<polygon fill="midnightblue" stroke="midnightblue" points="708.47,-166.46 716.97,-160.13 706.39,-159.78 708.47,-166.46"/>
</g>
<!-- Node22 -->
<g id="node23" class="node">
<title>Node22</title>
<g id="a_node23"><a xlink:title=" ">
<polygon fill="white" stroke="#bfbfbf" points="831.83,-134.05 831.83,-154.05 960.64,-154.05 960.64,-134.05 831.83,-134.05"/>
<text text-anchor="middle" x="896.24" y="-141.05" font-family="Helvetica,sans-Serif" font-size="10.00">haldls/vx/v2/container.def</text>
</a>
</g>
</g>
<!-- Node0&#45;&gt;Node22 -->
<g id="edge25" class="edge">
<title>Node0&#45;&gt;Node22</title>
<path fill="none" stroke="midnightblue" d="M582.53,-211.29C648.93,-197.32 741.75,-177.78 823.24,-160.55 829.88,-159.15 836.86,-157.67 843.77,-156.2"/>
<polygon fill="midnightblue" stroke="midnightblue" points="844.72,-159.58 853.78,-154.08 843.27,-152.73 844.72,-159.58"/>
</g>
<!-- Node23 -->
<g id="node24" class="node">
<title>Node23</title>
<g id="a_node24"><a xlink:title=" ">
<polygon fill="white" stroke="#bfbfbf" points="979.11,-134.05 979.11,-154.05 1097.36,-154.05 1097.36,-134.05 979.11,-134.05"/>
<text text-anchor="middle" x="1038.24" y="-141.05" font-family="Helvetica,sans-Serif" font-size="10.00">lola/vx/v2/container.def</text>
</a>
</g>
</g>
<!-- Node0&#45;&gt;Node23 -->
<g id="edge26" class="edge">
<title>Node0&#45;&gt;Node23</title>
<path fill="none" stroke="midnightblue" d="M582.61,-219.06C678.52,-206.79 835.17,-185.36 969.24,-160.55 976.05,-159.29 983.21,-157.83 990.24,-156.33"/>
<polygon fill="midnightblue" stroke="midnightblue" points="991.36,-159.66 1000.38,-154.1 989.86,-152.83 991.36,-159.66"/>
</g>
<!-- Node3&#45;&gt;Node3 -->
<g id="edge4" class="edge">
<title>Node3&#45;&gt;Node3</title>
<path fill="none" stroke="midnightblue" d="M342.74,-22.11C365.23,-26 388.31,-22.65 388.31,-12.05 388.31,-3.03 371.57,0.74 352.72,-0.74"/>
<polygon fill="midnightblue" stroke="midnightblue" points="352.23,2.72 342.74,-1.99 353.1,-4.22 352.23,2.72"/>
</g>
<!-- Node4&#45;&gt;Node3 -->
<g id="edge19" class="edge">
<title>Node4&#45;&gt;Node3</title>
<path fill="none" stroke="midnightblue" d="M716.32,-140.34C609.26,-133.95 361.48,-116.62 333.24,-91.55 316.65,-76.83 313.31,-50.33 313.17,-32.23"/>
<polygon fill="midnightblue" stroke="midnightblue" points="316.67,-32.31 313.41,-22.23 309.67,-32.14 316.67,-32.31"/>
</g>
<!-- Node5 -->
<g id="node6" class="node">
<title>Node5</title>
<g id="a_node6"><a xlink:title=" ">
<polygon fill="white" stroke="#bfbfbf" points="341.79,-65.05 341.79,-85.05 386.68,-85.05 386.68,-65.05 341.79,-65.05"/>
<text text-anchor="middle" x="364.24" y="-72.05" font-family="Helvetica,sans-Serif" font-size="10.00">cstdint</text>
</a>
</g>
</g>
<!-- Node4&#45;&gt;Node5 -->
<g id="edge6" class="edge">
<title>Node4&#45;&gt;Node5</title>
<path fill="none" stroke="midnightblue" d="M716.55,-141.3C644.74,-137.59 506.88,-126.21 395.24,-91.55 393.3,-90.95 391.33,-90.24 389.38,-89.45"/>
<polygon fill="midnightblue" stroke="midnightblue" points="390.46,-86.1 379.91,-85.13 387.55,-92.47 390.46,-86.1"/>
</g>
<!-- Node6 -->
<g id="node7" class="node">
<title>Node6</title>
<g id="a_node7"><a xlink:title=" ">
<polygon fill="white" stroke="#bfbfbf" points="404.18,-65.05 404.18,-85.05 456.29,-85.05 456.29,-65.05 404.18,-65.05"/>
<text text-anchor="middle" x="430.24" y="-72.05" font-family="Helvetica,sans-Serif" font-size="10.00">memory</text>
</a>
</g>
</g>
<!-- Node4&#45;&gt;Node6 -->
<g id="edge7" class="edge">
<title>Node4&#45;&gt;Node6</title>
<path fill="none" stroke="midnightblue" d="M716.59,-138.43C656.53,-131.89 551.74,-117.69 465.24,-91.55 462.79,-90.81 460.28,-89.94 457.8,-89"/>
<polygon fill="midnightblue" stroke="midnightblue" points="459.02,-85.72 448.44,-85.13 456.34,-92.19 459.02,-85.72"/>
</g>
<!-- Node7 -->
<g id="node8" class="node">
<title>Node7</title>
<g id="a_node8"><a xlink:title=" ">
<polygon fill="white" stroke="#bfbfbf" points="474.73,-65.05 474.73,-85.05 525.74,-85.05 525.74,-65.05 474.73,-65.05"/>
<text text-anchor="middle" x="500.24" y="-72.05" font-family="Helvetica,sans-Serif" font-size="10.00">optional</text>
</a>
</g>
</g>
<!-- Node4&#45;&gt;Node7 -->
<g id="edge8" class="edge">
<title>Node4&#45;&gt;Node7</title>
<path fill="none" stroke="midnightblue" d="M716.47,-135.01C669.39,-126.58 596.44,-111.74 535.24,-91.55 532.95,-90.8 530.6,-89.94 528.27,-89.04"/>
<polygon fill="midnightblue" stroke="midnightblue" points="529.44,-85.73 518.86,-85.11 526.74,-92.19 529.44,-85.73"/>
</g>
<!-- Node8 -->
<g id="node9" class="node">
<title>Node8</title>
<g id="a_node9"><a xlink:title=" ">
<polygon fill="white" stroke="#bfbfbf" points="544.01,-65.05 544.01,-85.05 584.46,-85.05 584.46,-65.05 544.01,-65.05"/>
<text text-anchor="middle" x="564.24" y="-72.05" font-family="Helvetica,sans-Serif" font-size="10.00">string</text>
</a>
</g>
</g>
<!-- Node4&#45;&gt;Node8 -->
<g id="edge9" class="edge">
<title>Node4&#45;&gt;Node8</title>
<path fill="none" stroke="midnightblue" d="M716.52,-131.25C681.58,-122.12 633.73,-108.24 593.24,-91.55 591.85,-90.98 590.44,-90.36 589.04,-89.72"/>
<polygon fill="midnightblue" stroke="midnightblue" points="590.42,-86.5 579.91,-85.17 587.3,-92.76 590.42,-86.5"/>
</g>
<!-- Node9 -->
<g id="node10" class="node">
<title>Node9</title>
<g id="a_node10"><a xlink:title=" ">
<polygon fill="white" stroke="#bfbfbf" points="602.62,-65.05 602.62,-85.05 645.85,-85.05 645.85,-65.05 602.62,-65.05"/>
<text text-anchor="middle" x="624.24" y="-72.05" font-family="Helvetica,sans-Serif" font-size="10.00">vector</text>
</a>
</g>
</g>
<!-- Node4&#45;&gt;Node9 -->
<g id="edge10" class="edge">
<title>Node4&#45;&gt;Node9</title>
<path fill="none" stroke="midnightblue" d="M732.4,-127.95C710.48,-117.8 681.05,-104.05 655.24,-91.55 653.92,-90.91 652.57,-90.26 651.2,-89.59"/>
<polygon fill="midnightblue" stroke="midnightblue" points="652.74,-86.45 642.23,-85.15 649.64,-92.72 652.74,-86.45"/>
</g>
<!-- Node10 -->
<g id="node11" class="node">
<title>Node10</title>
<g id="a_node11"><a xlink:title=" ">
<polygon fill="white" stroke="#bfbfbf" points="663.89,-65.05 663.89,-85.05 756.58,-85.05 756.58,-65.05 663.89,-65.05"/>
<text text-anchor="middle" x="710.24" y="-72.05" font-family="Helvetica,sans-Serif" font-size="10.00">boost/variant.hpp</text>
</a>
</g>
</g>
<!-- Node4&#45;&gt;Node10 -->
<g id="edge11" class="edge">
<title>Node4&#45;&gt;Node10</title>
<path fill="none" stroke="midnightblue" d="M752.76,-127.85C744.25,-117.49 732.99,-103.77 724.19,-93.05"/>
<polygon fill="midnightblue" stroke="midnightblue" points="726.81,-90.73 717.76,-85.22 721.4,-95.17 726.81,-90.73"/>
</g>
<!-- Node11 -->
<g id="node12" class="node">
<title>Node11</title>
<g id="a_node12"><a xlink:title=" ">
<polygon fill="white" stroke="#bfbfbf" points="774.62,-59.05 774.62,-91.05 867.85,-91.05 867.85,-59.05 774.62,-59.05"/>
<text text-anchor="start" x="782.62" y="-78.05" font-family="Helvetica,sans-Serif" font-size="10.00">fisch/vx/container</text>
<text text-anchor="middle" x="821.24" y="-66.05" font-family="Helvetica,sans-Serif" font-size="10.00">_ticket.h</text>
</a>
</g>
</g>
<!-- Node4&#45;&gt;Node11 -->
<g id="edge12" class="edge">
<title>Node4&#45;&gt;Node11</title>
<path fill="none" stroke="midnightblue" d="M777.94,-127.85C785.03,-119.37 794.01,-108.63 801.94,-99.13"/>
<polygon fill="midnightblue" stroke="midnightblue" points="804.85,-101.11 808.58,-91.2 799.48,-96.62 804.85,-101.11"/>
</g>
<!-- Node12 -->
<g id="node13" class="node">
<title>Node12</title>
<g id="a_node13"><a xlink:title=" ">
<polygon fill="white" stroke="#bfbfbf" points="885.89,-65.05 885.89,-85.05 1028.58,-85.05 1028.58,-65.05 885.89,-65.05"/>
<text text-anchor="middle" x="957.24" y="-72.05" font-family="Helvetica,sans-Serif" font-size="10.00">fisch/vx/playback_program.h</text>
</a>
</g>
</g>
<!-- Node4&#45;&gt;Node12 -->
<g id="edge13" class="edge">
<title>Node4&#45;&gt;Node12</title>
<path fill="none" stroke="midnightblue" d="M808.32,-128.02C842.44,-116.11 889.53,-99.68 921.56,-88.5"/>
<polygon fill="midnightblue" stroke="midnightblue" points="923.1,-91.67 931.39,-85.07 920.8,-85.06 923.1,-91.67"/>
</g>
<!-- Node13 -->
<g id="node14" class="node">
<title>Node13</title>
<g id="a_node14"><a xlink:title=" ">
<polygon fill="white" stroke="#bfbfbf" points="1047.06,-65.05 1047.06,-85.05 1151.41,-85.05 1151.41,-65.05 1047.06,-65.05"/>
<text text-anchor="middle" x="1099.24" y="-72.05" font-family="Helvetica,sans-Serif" font-size="10.00">haldls/vx/common.h</text>
</a>
</g>
</g>
<!-- Node4&#45;&gt;Node13 -->
<g id="edge14" class="edge">
<title>Node4&#45;&gt;Node13</title>
<path fill="none" stroke="midnightblue" d="M813.89,-129.69C817.04,-128.94 820.18,-128.22 823.24,-127.55 917.48,-107.08 942.82,-111.26 1037.24,-91.55 1043.08,-90.33 1049.21,-88.94 1055.24,-87.5"/>
<polygon fill="midnightblue" stroke="midnightblue" points="1056.35,-90.83 1065.24,-85.06 1054.69,-84.03 1056.35,-90.83"/>
</g>
<!-- Node14 -->
<g id="node15" class="node">
<title>Node14</title>
<g id="a_node15"><a xlink:title=" ">
<polygon fill="white" stroke="#bfbfbf" points="1169,-65.05 1169,-85.05 1259.47,-85.05 1259.47,-65.05 1169,-65.05"/>
<text text-anchor="middle" x="1214.24" y="-72.05" font-family="Helvetica,sans-Serif" font-size="10.00">haldls/vx/event.h</text>
</a>
</g>
</g>
<!-- Node4&#45;&gt;Node14 -->
<g id="edge15" class="edge">
<title>Node4&#45;&gt;Node14</title>
<path fill="none" stroke="midnightblue" d="M813.84,-129.48C817.01,-128.77 820.16,-128.12 823.24,-127.55 971.33,-100.03 1012.4,-120.44 1160.24,-91.55 1165.43,-90.54 1170.84,-89.26 1176.15,-87.87"/>
<polygon fill="midnightblue" stroke="midnightblue" points="1177.45,-91.14 1186.15,-85.11 1175.58,-84.4 1177.45,-91.14"/>
</g>
<!-- Node15 -->
<g id="node16" class="node">
<title>Node15</title>
<g id="a_node16"><a xlink:title=" ">
<polygon fill="white" stroke="#bfbfbf" points="1277.61,-65.05 1277.61,-85.05 1360.86,-85.05 1360.86,-65.05 1277.61,-65.05"/>
<text text-anchor="middle" x="1319.24" y="-72.05" font-family="Helvetica,sans-Serif" font-size="10.00">hate/type_list.h</text>
</a>
</g>
</g>
<!-- Node4&#45;&gt;Node15 -->
<g id="edge16" class="edge">
<title>Node4&#45;&gt;Node15</title>
<path fill="none" stroke="midnightblue" d="M813.83,-129.38C817,-128.7 820.15,-128.08 823.24,-127.55 1018.77,-93.8 1073.3,-128.61 1268.24,-91.55 1273.28,-90.59 1278.53,-89.32 1283.66,-87.92"/>
<polygon fill="midnightblue" stroke="midnightblue" points="1284.68,-91.27 1293.3,-85.11 1282.72,-84.55 1284.68,-91.27"/>
</g>
<!-- Node16 -->
<g id="node17" class="node">
<title>Node16</title>
<g id="a_node17"><a xlink:title=" ">
<polygon fill="white" stroke="#bfbfbf" points="1378.73,-65.05 1378.73,-85.05 1459.74,-85.05 1459.74,-65.05 1378.73,-65.05"/>
<text text-anchor="middle" x="1419.24" y="-72.05" font-family="Helvetica,sans-Serif" font-size="10.00">hate/visibility.h</text>
</a>
</g>
</g>
<!-- Node4&#45;&gt;Node16 -->
<g id="edge17" class="edge">
<title>Node4&#45;&gt;Node16</title>
<path fill="none" stroke="midnightblue" d="M813.82,-129.33C816.99,-128.66 820.15,-128.06 823.24,-127.55 1063.63,-87.91 1130.8,-136.62 1370.24,-91.55 1375.03,-90.65 1380,-89.43 1384.87,-88.06"/>
<polygon fill="midnightblue" stroke="midnightblue" points="1386.05,-91.36 1394.6,-85.12 1384.02,-84.66 1386.05,-91.36"/>
</g>
<!-- Node17 -->
<g id="node18" class="node">
<title>Node17</title>
<g id="a_node18"><a xlink:title=" ">
<polygon fill="white" stroke="#bfbfbf" points="1477.62,-65.05 1477.62,-85.05 1580.85,-85.05 1580.85,-65.05 1477.62,-65.05"/>
<text text-anchor="middle" x="1529.24" y="-72.05" font-family="Helvetica,sans-Serif" font-size="10.00">hxcomm/vx/target.h</text>
</a>
</g>
</g>
<!-- Node4&#45;&gt;Node17 -->
<g id="edge18" class="edge">
<title>Node4&#45;&gt;Node17</title>
<path fill="none" stroke="midnightblue" d="M813.81,-129.29C816.99,-128.64 820.15,-128.05 823.24,-127.55 1107.19,-82.19 1185.09,-135.73 1469.24,-91.55 1475.65,-90.55 1482.38,-89.17 1488.92,-87.62"/>
<polygon fill="midnightblue" stroke="midnightblue" points="1490.1,-90.94 1498.95,-85.11 1488.4,-84.15 1490.1,-90.94"/>
</g>
<!-- Node18 -->
<g id="node19" class="node">
<title>Node18</title>
<g id="a_node19"><a xlink:href="run__time__info_8h.html" target="_top" xlink:title=" ">
<polygon fill="white" stroke="black" points="1598.95,-59.05 1598.95,-91.05 1695.52,-91.05 1695.52,-59.05 1598.95,-59.05"/>
<text text-anchor="start" x="1606.95" y="-78.05" font-family="Helvetica,sans-Serif" font-size="10.00">stadls/vx/run_time</text>
<text text-anchor="middle" x="1647.24" y="-66.05" font-family="Helvetica,sans-Serif" font-size="10.00">_info.h</text>
</a>
</g>
</g>
<!-- Node4&#45;&gt;Node18 -->
<g id="edge20" class="edge">
<title>Node4&#45;&gt;Node18</title>
<path fill="none" stroke="midnightblue" d="M813.81,-129.26C816.98,-128.61 820.15,-128.03 823.24,-127.55 1157.17,-75.71 1251.29,-143.3 1588.82,-91.54"/>
<polygon fill="midnightblue" stroke="midnightblue" points="1589.54,-94.97 1598.88,-89.97 1588.46,-88.05 1589.54,-94.97"/>
</g>
<!-- Node20 -->
<g id="node21" class="node">
<title>Node20</title>
<g id="a_node21"><a xlink:title=" ">
<polygon fill="white" stroke="#bfbfbf" points="1713.39,-65.05 1713.39,-85.05 1811.08,-85.05 1811.08,-65.05 1713.39,-65.05"/>
<text text-anchor="middle" x="1762.24" y="-72.05" font-family="Helvetica,sans-Serif" font-size="10.00">pybind11/numpy.h</text>
</a>
</g>
</g>
<!-- Node4&#45;&gt;Node20 -->
<g id="edge23" class="edge">
<title>Node4&#45;&gt;Node20</title>
<path fill="none" stroke="midnightblue" d="M813.81,-129.24C816.98,-128.6 820.14,-128.02 823.24,-127.55 1210.66,-68.61 1316.81,-150.5 1704.24,-91.55 1710.52,-90.6 1717.11,-89.21 1723.5,-87.66"/>
<polygon fill="midnightblue" stroke="midnightblue" points="1724.49,-91.02 1733.29,-85.13 1722.73,-84.25 1724.49,-91.02"/>
</g>
<!-- Node21 -->
<g id="node22" class="node">
<title>Node21</title>
<g id="a_node22"><a xlink:title=" ">
<polygon fill="white" stroke="#bfbfbf" points="1829.16,-65.05 1829.16,-85.05 1931.31,-85.05 1931.31,-65.05 1829.16,-65.05"/>
<text text-anchor="middle" x="1880.24" y="-72.05" font-family="Helvetica,sans-Serif" font-size="10.00">pybind11/stl_bind.h</text>
</a>
</g>
</g>
<!-- Node4&#45;&gt;Node21 -->
<g id="edge24" class="edge">
<title>Node4&#45;&gt;Node21</title>
<path fill="none" stroke="midnightblue" d="M813.8,-129.22C816.98,-128.58 820.14,-128.02 823.24,-127.55 1261.75,-61.9 1381.45,-155.38 1820.24,-91.55 1826.96,-90.57 1834.02,-89.14 1840.84,-87.52"/>
<polygon fill="midnightblue" stroke="midnightblue" points="1841.74,-90.9 1850.59,-85.07 1840.03,-84.12 1841.74,-90.9"/>
</g>
<!-- Node18&#45;&gt;Node3 -->
<g id="edge22" class="edge">
<title>Node18&#45;&gt;Node3</title>
<path fill="none" stroke="midnightblue" d="M1598.89,-60.09C1595.97,-59.51 1593.07,-58.98 1590.24,-58.55 1353.48,-22.63 607.49,-14.93 380.45,-13.41"/>
<polygon fill="midnightblue" stroke="midnightblue" points="380.38,-9.91 370.35,-13.34 380.33,-16.91 380.38,-9.91"/>
</g>
<!-- Node19 -->
<g id="node20" class="node">
<title>Node19</title>
<g id="a_node20"><a xlink:title=" ">
<polygon fill="white" stroke="#bfbfbf" points="1586.73,-2.05 1586.73,-22.05 1707.75,-22.05 1707.75,-2.05 1586.73,-2.05"/>
<text text-anchor="middle" x="1647.24" y="-9.05" font-family="Helvetica,sans-Serif" font-size="10.00">fisch/vx/run_time_info.h</text>
</a>
</g>
</g>
<!-- Node18&#45;&gt;Node19 -->
<g id="edge21" class="edge">
<title>Node18&#45;&gt;Node19</title>
<path fill="none" stroke="midnightblue" d="M1647.24,-58.97C1647.24,-50.93 1647.24,-40.94 1647.24,-32.33"/>
<polygon fill="midnightblue" stroke="midnightblue" points="1650.74,-32.1 1647.24,-22.1 1643.74,-32.1 1650.74,-32.1"/>
</g>
</g>
</svg>
        <g id="navigator" transform="translate(0 0)" fill="#404254">
                <rect fill="#f2f5e9" fill-opacity="0.5" stroke="#606060" stroke-width=".5" x="0" y="0" width="60" height="60"/>
                <use id="zoomplus" xlink:href="#zoomPlus" x="17" y="9" onmousedown="handleZoom(evt,'in')"/>
                <use id="zoomminus" xlink:href="#zoomMin" x="42" y="9" onmousedown="handleZoom(evt,'out')"/>
                <use id="reset" xlink:href="#resetDef" x="30" y="36" onmousedown="handleReset()"/>
                <g id="arrowUp" xlink:href="#dirArrow" transform="translate(30 24)" onmousedown="handlePan(0,-1)">
                  <use xlink:href="#rim" fill="#404040">
                        <set attributeName="fill" to="#808080" begin="arrowUp.mouseover" end="arrowUp.mouseout"/>
                  </use>
                  <path fill="none" stroke="white" stroke-width="1.5" d="M0,-3.0v7 M-2.5,-0.5L0,-3.0L2.5,-0.5"/>
                </g>
                <g id="arrowRight" xlink:href="#dirArrow" transform="rotate(90) translate(36 -43)" onmousedown="handlePan(1,0)">
                  <use xlink:href="#rim" fill="#404040">
                        <set attributeName="fill" to="#808080" begin="arrowRight.mouseover" end="arrowRight.mouseout"/>
                  </use>
                  <path fill="none" stroke="white" stroke-width="1.5" d="M0,-3.0v7 M-2.5,-0.5L0,-3.0L2.5,-0.5"/>
                </g>
                <g id="arrowDown" xlink:href="#dirArrow" transform="rotate(180) translate(-30 -48)" onmousedown="handlePan(0,1)">
                  <use xlink:href="#rim" fill="#404040">
                        <set attributeName="fill" to="#808080" begin="arrowDown.mouseover" end="arrowDown.mouseout"/>
                  </use>
                  <path fill="none" stroke="white" stroke-width="1.5" d="M0,-3.0v7 M-2.5,-0.5L0,-3.0L2.5,-0.5"/>
                </g>
                <g id="arrowLeft" xlink:href="#dirArrow" transform="rotate(270) translate(-36 17)" onmousedown="handlePan(-1,0)">
                  <use xlink:href="#rim" fill="#404040">
                        <set attributeName="fill" to="#808080" begin="arrowLeft.mouseover" end="arrowLeft.mouseout"/>
                  </use>
                  <path fill="none" stroke="white" stroke-width="1.5" d="M0,-3.0v7 M-2.5,-0.5L0,-3.0L2.5,-0.5"/>
                </g>
        </g>
        <svg viewBox="0 0 15 15" width="100%" height="30px" preserveAspectRatio="xMaxYMin meet">
         <g id="arrow_out" transform="scale(0.3 0.3)">
          <a xlink:href="v2_2playback__program_8h__incl_org.svg" target="_base">
           <rect id="button" ry="5" rx="5" y="6" x="6" height="38" width="38"
                fill="#f2f5e9" fill-opacity="0.5" stroke="#606060" stroke-width="1.0"/>
           <path id="arrow"
             d="M 11.500037,31.436501 C 11.940474,20.09759 22.043105,11.32322 32.158766,21.979434 L 37.068811,17.246167 C 37.068811,17.246167 37.088388,32 37.088388,32 L 22.160133,31.978069 C 22.160133,31.978069 26.997745,27.140456 26.997745,27.140456 C 18.528582,18.264221 13.291696,25.230495 11.500037,31.436501 z"
             style="fill:#404040;"/>
          </a>
         </g>
        </svg>
</svg>
