<?xml version="1.0" encoding="UTF-8" standalone="no"?>
<!DOCTYPE svg PUBLIC "-//W3C//DTD SVG 1.1//EN"
 "http://www.w3.org/Graphics/SVG/1.1/DTD/svg11.dtd">
<!-- Generated by graphviz version 2.43.0 (0)
 -->
<!-- Title: /jenkins/jenlib_workspaces_f9/bld_nightly&#45;haldls.YmxkX25pZ2h0bHktaGFsZGxzIzQ5Nw.x/haldls/include/stadls/vx/genpybind.h Pages: 1 -->
<!--zoomable 647 -->
<svg id="main" version="1.1" xmlns="http://www.w3.org/2000/svg" xmlns:xlink="http://www.w3.org/1999/xlink" xml:space="preserve" onload="init(evt)">
<style type="text/css"><![CDATA[
.edge:hover path { stroke: red; }
.edge:hover polygon { stroke: red; fill: red; }
]]></style>
<script type="text/javascript"><![CDATA[
var edges = document.getElementsByTagName('g');
if (edges && edges.length) {
  for (var i=0;i<edges.length;i++) {
    if (edges[i].id.substr(0,4)=='edge') {
      edges[i].setAttribute('class','edge');
    }
  }
}
]]></script>
        <defs>
                <circle id="rim" cx="0" cy="0" r="7"/>
                <circle id="rim2" cx="0" cy="0" r="3.5"/>
                <g id="zoomPlus">
                        <use xlink:href="#rim" fill="#404040">
                                <set attributeName="fill" to="#808080" begin="zoomplus.mouseover" end="zoomplus.mouseout"/>
                        </use>
                        <path d="M-4,0h8M0,-4v8" fill="none" stroke="white" stroke-width="1.5" pointer-events="none"/>
                </g>
                <g id="zoomMin">
                        <use xlink:href="#rim" fill="#404040">
                                <set attributeName="fill" to="#808080" begin="zoomminus.mouseover" end="zoomminus.mouseout"/>
                        </use>
                        <path d="M-4,0h8" fill="none" stroke="white" stroke-width="1.5" pointer-events="none"/>
                </g>
                <g id="dirArrow">
                        <path fill="none" stroke="white" stroke-width="1.5" d="M0,-3.0v7 M-2.5,-0.5L0,-3.0L2.5,-0.5"/>
                </g>
               <g id="resetDef">
                       <use xlink:href="#rim2" fill="#404040">
                               <set attributeName="fill" to="#808080" begin="reset.mouseover" end="reset.mouseout"/>
                       </use>
               </g>
        </defs>

<script type="text/javascript">
var viewWidth = 661;
var viewHeight = 647;
var sectionId = 'dynsection-1';
</script>
<script xlink:href="svgpan.js"/>
<svg id="graph" class="graph">
<g id="viewport">
<title>/jenkins/jenlib_workspaces_f9/bld_nightly&#45;haldls.YmxkX25pZ2h0bHktaGFsZGxzIzQ5Nw.x/haldls/include/stadls/vx/genpybind.h</title>
<polygon fill="white" stroke="transparent" points="-4,4 -4,-643 656.95,-643 656.95,4 -4,4"/>
<!-- Node1 -->
<g id="node1" class="node">
<title>Node1</title>
<g id="a_node1"><a xlink:title=" ">
<polygon fill="#bfbfbf" stroke="black" points="250.05,-582.5 250.05,-638.5 429.95,-638.5 429.95,-582.5 250.05,-582.5"/>
<text text-anchor="start" x="258.05" y="-625.5" font-family="Helvetica,sans-Serif" font-size="10.00">/jenkins/jenlib_workspaces</text>
<text text-anchor="start" x="258.05" y="-613.5" font-family="Helvetica,sans-Serif" font-size="10.00">_f9/bld_nightly&#45;haldls.YmxkX25p</text>
<text text-anchor="start" x="258.05" y="-601.5" font-family="Helvetica,sans-Serif" font-size="10.00">Z2h0bHktaGFsZGxzIzQ5Nw.x/haldls</text>
<text text-anchor="middle" x="340" y="-589.5" font-family="Helvetica,sans-Serif" font-size="10.00">/include/stadls/vx/genpybind.h</text>
</a>
</g>
</g>
<!-- Node1&#45;&gt;Node1 -->
<g id="edge13" class="edge">
<title>Node1&#45;&gt;Node1</title>
<path fill="none" stroke="midnightblue" d="M439.8,-621.75C444.93,-618.97 447.95,-615.22 447.95,-610.5 447.95,-603.31 440.92,-598.37 430.16,-595.68"/>
<polygon fill="midnightblue" stroke="midnightblue" points="438.32,-618.57 430.16,-625.32 440.76,-625.13 438.32,-618.57"/>
</g>
<!-- Node2 -->
<g id="node2" class="node">
<title>Node2</title>
<g id="a_node2"><a xlink:href="executor__backend_8h.html" target="_top" xlink:title=" ">
<polygon fill="white" stroke="black" points="127.53,-489.5 127.53,-545.5 312.47,-545.5 312.47,-489.5 127.53,-489.5"/>
<text text-anchor="start" x="135.53" y="-532.5" font-family="Helvetica,sans-Serif" font-size="10.00">/jenkins/jenlib_workspaces</text>
<text text-anchor="start" x="135.53" y="-520.5" font-family="Helvetica,sans-Serif" font-size="10.00">_f9/bld_nightly&#45;haldls.YmxkX25p</text>
<text text-anchor="start" x="135.53" y="-508.5" font-family="Helvetica,sans-Serif" font-size="10.00">Z2h0bHktaGFsZGxzIzQ5Nw.x/haldls</text>
<text text-anchor="middle" x="220" y="-496.5" font-family="Helvetica,sans-Serif" font-size="10.00">/include/stadls/vx/executor_backend.h</text>
</a>
</g>
</g>
<!-- Node1&#45;&gt;Node2 -->
<g id="edge1" class="edge">
<title>Node1&#45;&gt;Node2</title>
<path fill="none" stroke="midnightblue" d="M296.21,-576.29C282.91,-566.21 268.46,-555.25 255.75,-545.61"/>
<polygon fill="midnightblue" stroke="midnightblue" points="294.24,-579.19 304.32,-582.44 298.47,-573.61 294.24,-579.19"/>
</g>
<!-- Node3 -->
<g id="node3" class="node">
<title>Node3</title>
<g id="a_node3"><a xlink:href="playback__program__builder_8h.html" target="_top" xlink:title=" ">
<polygon fill="white" stroke="black" points="150.05,-279.5 150.05,-347.5 329.95,-347.5 329.95,-279.5 150.05,-279.5"/>
<text text-anchor="start" x="158.05" y="-334.5" font-family="Helvetica,sans-Serif" font-size="10.00">/jenkins/jenlib_workspaces</text>
<text text-anchor="start" x="158.05" y="-322.5" font-family="Helvetica,sans-Serif" font-size="10.00">_f9/bld_nightly&#45;haldls.YmxkX25p</text>
<text text-anchor="start" x="158.05" y="-310.5" font-family="Helvetica,sans-Serif" font-size="10.00">Z2h0bHktaGFsZGxzIzQ5Nw.x/haldls</text>
<text text-anchor="start" x="158.05" y="-298.5" font-family="Helvetica,sans-Serif" font-size="10.00">/include/stadls/vx/playback_program</text>
<text text-anchor="middle" x="240" y="-286.5" font-family="Helvetica,sans-Serif" font-size="10.00">_builder.h</text>
</a>
</g>
</g>
<!-- Node1&#45;&gt;Node3 -->
<g id="edge16" class="edge">
<title>Node1&#45;&gt;Node3</title>
<path fill="none" stroke="midnightblue" d="M336.81,-572.06C334.09,-547.96 329.27,-516.18 321,-489 305.34,-437.56 277.34,-381.8 258.72,-347.5"/>
<polygon fill="midnightblue" stroke="midnightblue" points="333.35,-572.64 337.88,-582.21 340.31,-571.9 333.35,-572.64"/>
</g>
<!-- Node4 -->
<g id="node4" class="node">
<title>Node4</title>
<g id="a_node4"><a xlink:href="playback__generator_8h.html" target="_top" xlink:title=" ">
<polygon fill="white" stroke="black" points="225.48,-186.5 225.48,-242.5 416.52,-242.5 416.52,-186.5 225.48,-186.5"/>
<text text-anchor="start" x="233.48" y="-229.5" font-family="Helvetica,sans-Serif" font-size="10.00">/jenkins/jenlib_workspaces</text>
<text text-anchor="start" x="233.48" y="-217.5" font-family="Helvetica,sans-Serif" font-size="10.00">_f9/bld_nightly&#45;haldls.YmxkX25p</text>
<text text-anchor="start" x="233.48" y="-205.5" font-family="Helvetica,sans-Serif" font-size="10.00">Z2h0bHktaGFsZGxzIzQ5Nw.x/haldls</text>
<text text-anchor="middle" x="321" y="-193.5" font-family="Helvetica,sans-Serif" font-size="10.00">/include/stadls/vx/playback_generator.h</text>
</a>
</g>
</g>
<!-- Node1&#45;&gt;Node4 -->
<g id="edge15" class="edge">
<title>Node1&#45;&gt;Node4</title>
<path fill="none" stroke="midnightblue" d="M343.24,-572.33C347.85,-510.9 354.18,-384.5 339,-279 337.25,-266.86 333.82,-253.78 330.42,-242.66"/>
<polygon fill="midnightblue" stroke="midnightblue" points="339.75,-572.08 342.46,-582.32 346.73,-572.63 339.75,-572.08"/>
</g>
<!-- Node5 -->
<g id="node5" class="node">
<title>Node5</title>
<g id="a_node5"><a xlink:href="init__generator_8h.html" target="_top" xlink:title=" ">
<polygon fill="white" stroke="black" points="68.05,-93.5 68.05,-149.5 247.95,-149.5 247.95,-93.5 68.05,-93.5"/>
<text text-anchor="start" x="76.05" y="-136.5" font-family="Helvetica,sans-Serif" font-size="10.00">/jenkins/jenlib_workspaces</text>
<text text-anchor="start" x="76.05" y="-124.5" font-family="Helvetica,sans-Serif" font-size="10.00">_f9/bld_nightly&#45;haldls.YmxkX25p</text>
<text text-anchor="start" x="76.05" y="-112.5" font-family="Helvetica,sans-Serif" font-size="10.00">Z2h0bHktaGFsZGxzIzQ5Nw.x/haldls</text>
<text text-anchor="middle" x="158" y="-100.5" font-family="Helvetica,sans-Serif" font-size="10.00">/include/stadls/vx/init_generator.h</text>
</a>
</g>
</g>
<!-- Node1&#45;&gt;Node5 -->
<g id="edge14" class="edge">
<title>Node1&#45;&gt;Node5</title>
<path fill="none" stroke="midnightblue" d="M239.9,-596.5C139.6,-577.2 0,-530.42 0,-419.5 0,-419.5 0,-419.5 0,-312.5 0,-241.07 66.84,-182.18 113.57,-149.74"/>
<polygon fill="midnightblue" stroke="midnightblue" points="239.31,-599.95 249.78,-598.34 240.59,-593.07 239.31,-599.95"/>
</g>
<!-- Node6 -->
<g id="node6" class="node">
<title>Node6</title>
<g id="a_node6"><a xlink:href="stadls_8h.html" target="_top" xlink:title=" ">
<polygon fill="white" stroke="black" points="208.05,-0.5 208.05,-56.5 387.95,-56.5 387.95,-0.5 208.05,-0.5"/>
<text text-anchor="start" x="216.05" y="-43.5" font-family="Helvetica,sans-Serif" font-size="10.00">/jenkins/jenlib_workspaces</text>
<text text-anchor="start" x="216.05" y="-31.5" font-family="Helvetica,sans-Serif" font-size="10.00">_f9/bld_nightly&#45;haldls.YmxkX25p</text>
<text text-anchor="start" x="216.05" y="-19.5" font-family="Helvetica,sans-Serif" font-size="10.00">Z2h0bHktaGFsZGxzIzQ5Nw.x/haldls</text>
<text text-anchor="middle" x="298" y="-7.5" font-family="Helvetica,sans-Serif" font-size="10.00">/include/stadls/vx/stadls.h</text>
</a>
</g>
</g>
<!-- Node1&#45;&gt;Node6 -->
<g id="edge20" class="edge">
<title>Node1&#45;&gt;Node6</title>
<path fill="none" stroke="midnightblue" d="M373.28,-574.76C404.03,-538.88 445,-479.77 445,-419.5 445,-419.5 445,-419.5 445,-213.5 445,-145.63 383.19,-88.41 339.73,-56.57"/>
<polygon fill="midnightblue" stroke="midnightblue" points="370.46,-572.67 366.5,-582.49 375.72,-577.28 370.46,-572.67"/>
</g>
<!-- Node7 -->
<g id="node7" class="node">
<title>Node7</title>
<g id="a_node7"><a xlink:href="playback__program_8h.html" target="_top" xlink:title=" ">
<polygon fill="white" stroke="black" points="28.26,-390.5 28.26,-446.5 213.74,-446.5 213.74,-390.5 28.26,-390.5"/>
<text text-anchor="start" x="36.26" y="-433.5" font-family="Helvetica,sans-Serif" font-size="10.00">/jenkins/jenlib_workspaces</text>
<text text-anchor="start" x="36.26" y="-421.5" font-family="Helvetica,sans-Serif" font-size="10.00">_f9/bld_nightly&#45;haldls.YmxkX25p</text>
<text text-anchor="start" x="36.26" y="-409.5" font-family="Helvetica,sans-Serif" font-size="10.00">Z2h0bHktaGFsZGxzIzQ5Nw.x/haldls</text>
<text text-anchor="middle" x="121" y="-397.5" font-family="Helvetica,sans-Serif" font-size="10.00">/include/stadls/vx/playback_program.h</text>
</a>
</g>
</g>
<!-- Node1&#45;&gt;Node7 -->
<g id="edge17" class="edge">
<title>Node1&#45;&gt;Node7</title>
<path fill="none" stroke="midnightblue" d="M240.18,-592.88C189.01,-582.11 134.29,-566.3 119,-546 97.59,-517.58 104.08,-474.47 111.73,-446.64"/>
<polygon fill="midnightblue" stroke="midnightblue" points="239.52,-596.32 250.02,-594.9 240.92,-589.46 239.52,-596.32"/>
</g>
<!-- Node8 -->
<g id="node8" class="node">
<title>Node8</title>
<g id="a_node8"><a xlink:href="playback__program__executor_8h.html" target="_top" xlink:title=" ">
<polygon fill="white" stroke="black" points="473.05,-384.5 473.05,-452.5 652.95,-452.5 652.95,-384.5 473.05,-384.5"/>
<text text-anchor="start" x="481.05" y="-439.5" font-family="Helvetica,sans-Serif" font-size="10.00">/jenkins/jenlib_workspaces</text>
<text text-anchor="start" x="481.05" y="-427.5" font-family="Helvetica,sans-Serif" font-size="10.00">_f9/bld_nightly&#45;haldls.YmxkX25p</text>
<text text-anchor="start" x="481.05" y="-415.5" font-family="Helvetica,sans-Serif" font-size="10.00">Z2h0bHktaGFsZGxzIzQ5Nw.x/haldls</text>
<text text-anchor="start" x="481.05" y="-403.5" font-family="Helvetica,sans-Serif" font-size="10.00">/include/stadls/vx/playback_program</text>
<text text-anchor="middle" x="563" y="-391.5" font-family="Helvetica,sans-Serif" font-size="10.00">_executor.h</text>
</a>
</g>
</g>
<!-- Node1&#45;&gt;Node8 -->
<g id="edge18" class="edge">
<title>Node1&#45;&gt;Node8</title>
<path fill="none" stroke="midnightblue" d="M410.76,-577.62C427.39,-568.57 444.48,-557.9 459,-546 491.99,-518.97 522.02,-480.19 541.24,-452.7"/>
<polygon fill="midnightblue" stroke="midnightblue" points="408.78,-574.7 401.58,-582.47 412.06,-580.89 408.78,-574.7"/>
</g>
<!-- Node2&#45;&gt;Node3 -->
<g id="edge2" class="edge">
<title>Node2&#45;&gt;Node3</title>
<path fill="none" stroke="midnightblue" d="M223.69,-479.19C227.43,-441.5 233.14,-383.81 236.72,-347.67"/>
<polygon fill="midnightblue" stroke="midnightblue" points="220.2,-478.96 222.7,-489.26 227.17,-479.65 220.2,-478.96"/>
</g>
<!-- Node2&#45;&gt;Node7 -->
<g id="edge9" class="edge">
<title>Node2&#45;&gt;Node7</title>
<path fill="none" stroke="midnightblue" d="M185.18,-482.39C173.25,-470.7 160.07,-457.78 148.77,-446.71"/>
<polygon fill="midnightblue" stroke="midnightblue" points="182.83,-484.98 192.42,-489.48 187.73,-479.98 182.83,-484.98"/>
</g>
<!-- Node3&#45;&gt;Node4 -->
<g id="edge3" class="edge">
<title>Node3&#45;&gt;Node4</title>
<path fill="none" stroke="midnightblue" d="M274.1,-271.66C282.27,-261.88 290.8,-251.66 298.31,-242.67"/>
<polygon fill="midnightblue" stroke="midnightblue" points="271.37,-269.47 267.65,-279.39 276.75,-273.96 271.37,-269.47"/>
</g>
<!-- Node3&#45;&gt;Node5 -->
<g id="edge7" class="edge">
<title>Node3&#45;&gt;Node5</title>
<path fill="none" stroke="midnightblue" d="M201.04,-271.52C194.19,-262.64 187.74,-252.92 183,-243 168.63,-212.93 162.49,-174.76 159.89,-149.53"/>
<polygon fill="midnightblue" stroke="midnightblue" points="198.41,-273.84 207.41,-279.43 203.86,-269.44 198.41,-273.84"/>
</g>
<!-- Node3&#45;&gt;Node6 -->
<g id="edge8" class="edge">
<title>Node3&#45;&gt;Node6</title>
<path fill="none" stroke="midnightblue" d="M219.55,-269.92C210.38,-244.63 204.02,-212.45 216,-186 226,-163.91 243.53,-170.16 257,-150 276.28,-121.15 287.33,-82.37 293,-56.68"/>
<polygon fill="midnightblue" stroke="midnightblue" points="216.29,-271.19 223.17,-279.24 222.81,-268.65 216.29,-271.19"/>
</g>
<!-- Node4&#45;&gt;Node5 -->
<g id="edge4" class="edge">
<title>Node4&#45;&gt;Node5</title>
<path fill="none" stroke="midnightblue" d="M263.56,-181.43C244.94,-171.04 224.47,-159.61 206.56,-149.61"/>
<polygon fill="midnightblue" stroke="midnightblue" points="262.1,-184.62 272.54,-186.44 265.51,-178.51 262.1,-184.62"/>
</g>
<!-- Node4&#45;&gt;Node6 -->
<g id="edge6" class="edge">
<title>Node4&#45;&gt;Node6</title>
<path fill="none" stroke="midnightblue" d="M316.36,-176.4C311.94,-140.99 305.37,-88.47 301.41,-56.76"/>
<polygon fill="midnightblue" stroke="midnightblue" points="312.89,-176.86 317.61,-186.35 319.84,-175.99 312.89,-176.86"/>
</g>
<!-- Node5&#45;&gt;Node6 -->
<g id="edge5" class="edge">
<title>Node5&#45;&gt;Node6</title>
<path fill="none" stroke="midnightblue" d="M208.21,-87.86C223.97,-77.62 241.19,-66.43 256.29,-56.61"/>
<polygon fill="midnightblue" stroke="midnightblue" points="206.1,-85.06 199.63,-93.44 209.92,-90.93 206.1,-85.06"/>
</g>
<!-- Node7&#45;&gt;Node3 -->
<g id="edge10" class="edge">
<title>Node7&#45;&gt;Node3</title>
<path fill="none" stroke="midnightblue" d="M159.95,-383.78C173.37,-372.17 188.37,-359.19 201.72,-347.63"/>
<polygon fill="midnightblue" stroke="midnightblue" points="157.54,-381.25 152.27,-390.44 162.12,-386.54 157.54,-381.25"/>
</g>
<!-- Node7&#45;&gt;Node5 -->
<g id="edge11" class="edge">
<title>Node7&#45;&gt;Node5</title>
<path fill="none" stroke="midnightblue" d="M125.7,-380.06C133.26,-319.78 147.95,-202.62 154.59,-149.66"/>
<polygon fill="midnightblue" stroke="midnightblue" points="122.19,-379.92 124.41,-390.28 129.13,-380.79 122.19,-379.92"/>
</g>
<!-- Node7&#45;&gt;Node6 -->
<g id="edge12" class="edge">
<title>Node7&#45;&gt;Node6</title>
<path fill="none" stroke="midnightblue" d="M97.84,-381.69C59.28,-317.07 -7.62,-179.63 59,-93 77.45,-69.01 148.08,-52.18 207.81,-41.9"/>
<polygon fill="midnightblue" stroke="midnightblue" points="94.9,-383.58 103.08,-390.31 100.88,-379.95 94.9,-383.58"/>
</g>
<!-- Node8&#45;&gt;Node6 -->
<g id="edge19" class="edge">
<title>Node8&#45;&gt;Node6</title>
<path fill="none" stroke="midnightblue" d="M560.66,-374.37C554.7,-306.09 533.62,-172.68 459,-93 440.1,-72.82 414,-58.95 388.3,-49.45"/>
<polygon fill="midnightblue" stroke="midnightblue" points="557.17,-374.67 561.46,-384.36 564.15,-374.11 557.17,-374.67"/>
</g>
</g>
</svg>
        <g id="navigator" transform="translate(0 0)" fill="#404254">
                <rect fill="#f2f5e9" fill-opacity="0.5" stroke="#606060" stroke-width=".5" x="0" y="0" width="60" height="60"/>
                <use id="zoomplus" xlink:href="#zoomPlus" x="17" y="9" onmousedown="handleZoom(evt,'in')"/>
                <use id="zoomminus" xlink:href="#zoomMin" x="42" y="9" onmousedown="handleZoom(evt,'out')"/>
                <use id="reset" xlink:href="#resetDef" x="30" y="36" onmousedown="handleReset()"/>
                <g id="arrowUp" xlink:href="#dirArrow" transform="translate(30 24)" onmousedown="handlePan(0,-1)">
                  <use xlink:href="#rim" fill="#404040">
                        <set attributeName="fill" to="#808080" begin="arrowUp.mouseover" end="arrowUp.mouseout"/>
                  </use>
                  <path fill="none" stroke="white" stroke-width="1.5" d="M0,-3.0v7 M-2.5,-0.5L0,-3.0L2.5,-0.5"/>
                </g>
                <g id="arrowRight" xlink:href="#dirArrow" transform="rotate(90) translate(36 -43)" onmousedown="handlePan(1,0)">
                  <use xlink:href="#rim" fill="#404040">
                        <set attributeName="fill" to="#808080" begin="arrowRight.mouseover" end="arrowRight.mouseout"/>
                  </use>
                  <path fill="none" stroke="white" stroke-width="1.5" d="M0,-3.0v7 M-2.5,-0.5L0,-3.0L2.5,-0.5"/>
                </g>
                <g id="arrowDown" xlink:href="#dirArrow" transform="rotate(180) translate(-30 -48)" onmousedown="handlePan(0,1)">
                  <use xlink:href="#rim" fill="#404040">
                        <set attributeName="fill" to="#808080" begin="arrowDown.mouseover" end="arrowDown.mouseout"/>
                  </use>
                  <path fill="none" stroke="white" stroke-width="1.5" d="M0,-3.0v7 M-2.5,-0.5L0,-3.0L2.5,-0.5"/>
                </g>
                <g id="arrowLeft" xlink:href="#dirArrow" transform="rotate(270) translate(-36 17)" onmousedown="handlePan(-1,0)">
                  <use xlink:href="#rim" fill="#404040">
                        <set attributeName="fill" to="#808080" begin="arrowLeft.mouseover" end="arrowLeft.mouseout"/>
                  </use>
                  <path fill="none" stroke="white" stroke-width="1.5" d="M0,-3.0v7 M-2.5,-0.5L0,-3.0L2.5,-0.5"/>
                </g>
        </g>
        <svg viewBox="0 0 15 15" width="100%" height="30px" preserveAspectRatio="xMaxYMin meet">
         <g id="arrow_out" transform="scale(0.3 0.3)">
          <a xlink:href="vx_2genpybind_8h__dep__incl_org.svg" target="_base">
           <rect id="button" ry="5" rx="5" y="6" x="6" height="38" width="38"
                fill="#f2f5e9" fill-opacity="0.5" stroke="#606060" stroke-width="1.0"/>
           <path id="arrow"
             d="M 11.500037,31.436501 C 11.940474,20.09759 22.043105,11.32322 32.158766,21.979434 L 37.068811,17.246167 C 37.068811,17.246167 37.088388,32 37.088388,32 L 22.160133,31.978069 C 22.160133,31.978069 26.997745,27.140456 26.997745,27.140456 C 18.528582,18.264221 13.291696,25.230495 11.500037,31.436501 z"
             style="fill:#404040;"/>
          </a>
         </g>
        </svg>
</svg>
