<?xml version="1.0" encoding="UTF-8" standalone="no"?>
<!DOCTYPE svg PUBLIC "-//W3C//DTD SVG 1.1//EN"
 "http://www.w3.org/Graphics/SVG/1.1/DTD/svg11.dtd">
<!-- Generated by graphviz version 2.43.0 (0)
 -->
<!-- Title: /jenkins/jenlib_workspaces_f9/bld_nightly&#45;haldls.YmxkX25pZ2h0bHktaGFsZGxzIzY1NQ.x/haldls/include/lola/vx/genpybind.h Pages: 1 -->
<!--zoomable 437 -->
<svg id="main" version="1.1" xmlns="http://www.w3.org/2000/svg" xmlns:xlink="http://www.w3.org/1999/xlink" xml:space="preserve" onload="init(evt)">
<style type="text/css"><![CDATA[
.edge:hover path { stroke: red; }
.edge:hover polygon { stroke: red; fill: red; }
]]></style>
<script type="text/javascript"><![CDATA[
var edges = document.getElementsByTagName('g');
if (edges && edges.length) {
  for (var i=0;i<edges.length;i++) {
    if (edges[i].id.substr(0,4)=='edge') {
      edges[i].setAttribute('class','edge');
    }
  }
}
]]></script>
        <defs>
                <circle id="rim" cx="0" cy="0" r="7"/>
                <circle id="rim2" cx="0" cy="0" r="3.5"/>
                <g id="zoomPlus">
                        <use xlink:href="#rim" fill="#404040">
                                <set attributeName="fill" to="#808080" begin="zoomplus.mouseover" end="zoomplus.mouseout"/>
                        </use>
                        <path d="M-4,0h8M0,-4v8" fill="none" stroke="white" stroke-width="1.5" pointer-events="none"/>
                </g>
                <g id="zoomMin">
                        <use xlink:href="#rim" fill="#404040">
                                <set attributeName="fill" to="#808080" begin="zoomminus.mouseover" end="zoomminus.mouseout"/>
                        </use>
                        <path d="M-4,0h8" fill="none" stroke="white" stroke-width="1.5" pointer-events="none"/>
                </g>
                <g id="dirArrow">
                        <path fill="none" stroke="white" stroke-width="1.5" d="M0,-3.0v7 M-2.5,-0.5L0,-3.0L2.5,-0.5"/>
                </g>
               <g id="resetDef">
                       <use xlink:href="#rim2" fill="#404040">
                               <set attributeName="fill" to="#808080" begin="reset.mouseover" end="reset.mouseout"/>
                       </use>
               </g>
        </defs>

<script type="text/javascript">
var viewWidth = 1007;
var viewHeight = 437;
var sectionId = 'dynsection-1';
</script>
<script xlink:href="svgpan.js"/>
<svg id="graph" class="graph">
<g id="viewport">
<title>/jenkins/jenlib_workspaces_f9/bld_nightly&#45;haldls.YmxkX25pZ2h0bHktaGFsZGxzIzY1NQ.x/haldls/include/lola/vx/genpybind.h</title>
<polygon fill="white" stroke="transparent" points="-4,4 -4,-433 1002.87,-433 1002.87,4 -4,4"/>
<!-- Node1 -->
<g id="node1" class="node">
<title>Node1</title>
<g id="a_node1"><a xlink:title=" ">
<polygon fill="#bfbfbf" stroke="black" points="492,-372.5 492,-428.5 671.36,-428.5 671.36,-372.5 492,-372.5"/>
<text text-anchor="start" x="500" y="-415.5" font-family="Helvetica,sans-Serif" font-size="10.00">/jenkins/jenlib_workspaces</text>
<text text-anchor="start" x="500" y="-403.5" font-family="Helvetica,sans-Serif" font-size="10.00">_f9/bld_nightly&#45;haldls.YmxkX25p</text>
<text text-anchor="start" x="500" y="-391.5" font-family="Helvetica,sans-Serif" font-size="10.00">Z2h0bHktaGFsZGxzIzY1NQ.x/haldls</text>
<text text-anchor="middle" x="581.68" y="-379.5" font-family="Helvetica,sans-Serif" font-size="10.00">/include/lola/vx/genpybind.h</text>
</a>
</g>
</g>
<!-- Node1&#45;&gt;Node1 -->
<g id="edge5" class="edge">
<title>Node1&#45;&gt;Node1</title>
<path fill="none" stroke="midnightblue" d="M681.23,-411.75C686.34,-408.97 689.36,-405.22 689.36,-400.5 689.36,-393.31 682.35,-388.37 671.61,-385.68"/>
<polygon fill="midnightblue" stroke="midnightblue" points="679.76,-408.56 671.61,-415.32 682.2,-415.12 679.76,-408.56"/>
</g>
<!-- Node2 -->
<g id="node2" class="node">
<title>Node2</title>
<g id="a_node2"><a xlink:href="cadc_8h.html" target="_top" xlink:title=" ">
<polygon fill="white" stroke="black" points="0,-279.5 0,-335.5 179.36,-335.5 179.36,-279.5 0,-279.5"/>
<text text-anchor="start" x="8" y="-322.5" font-family="Helvetica,sans-Serif" font-size="10.00">/jenkins/jenlib_workspaces</text>
<text text-anchor="start" x="8" y="-310.5" font-family="Helvetica,sans-Serif" font-size="10.00">_f9/bld_nightly&#45;haldls.YmxkX25p</text>
<text text-anchor="start" x="8" y="-298.5" font-family="Helvetica,sans-Serif" font-size="10.00">Z2h0bHktaGFsZGxzIzY1NQ.x/haldls</text>
<text text-anchor="middle" x="89.68" y="-286.5" font-family="Helvetica,sans-Serif" font-size="10.00">/include/lola/vx/cadc.h</text>
</a>
</g>
</g>
<!-- Node1&#45;&gt;Node2 -->
<g id="edge1" class="edge">
<title>Node1&#45;&gt;Node2</title>
<path fill="none" stroke="midnightblue" d="M481.87,-386.61C401.86,-375.52 286.96,-357.86 187.68,-336 185,-335.41 182.29,-334.79 179.56,-334.15"/>
<polygon fill="midnightblue" stroke="midnightblue" points="481.55,-390.1 491.94,-388 482.51,-383.17 481.55,-390.1"/>
</g>
<!-- Node5 -->
<g id="node5" class="node">
<title>Node5</title>
<g id="a_node5"><a xlink:href="pylola_8h.html" target="_top" xlink:title=" ">
<polygon fill="white" stroke="black" points="650,-0.5 650,-56.5 829.36,-56.5 829.36,-0.5 650,-0.5"/>
<text text-anchor="start" x="658" y="-43.5" font-family="Helvetica,sans-Serif" font-size="10.00">/jenkins/jenlib_workspaces</text>
<text text-anchor="start" x="658" y="-31.5" font-family="Helvetica,sans-Serif" font-size="10.00">_f9/bld_nightly&#45;haldls.YmxkX25p</text>
<text text-anchor="start" x="658" y="-19.5" font-family="Helvetica,sans-Serif" font-size="10.00">Z2h0bHktaGFsZGxzIzY1NQ.x/haldls</text>
<text text-anchor="middle" x="739.68" y="-7.5" font-family="Helvetica,sans-Serif" font-size="10.00">/include/lola/vx/pylola.h</text>
</a>
</g>
</g>
<!-- Node1&#45;&gt;Node5 -->
<g id="edge14" class="edge">
<title>Node1&#45;&gt;Node5</title>
<path fill="none" stroke="midnightblue" d="M681.83,-397.67C786.16,-393.39 939.51,-379.62 976.68,-336 1061.64,-236.29 880.17,-110.91 788.48,-56.62"/>
<polygon fill="midnightblue" stroke="midnightblue" points="681.43,-394.18 671.58,-398.06 681.71,-401.17 681.43,-394.18"/>
</g>
<!-- Node6 -->
<g id="node6" class="node">
<title>Node6</title>
<g id="a_node6"><a xlink:href="dac_8h.html" target="_top" xlink:title=" ">
<polygon fill="white" stroke="black" points="197,-279.5 197,-335.5 376.36,-335.5 376.36,-279.5 197,-279.5"/>
<text text-anchor="start" x="205" y="-322.5" font-family="Helvetica,sans-Serif" font-size="10.00">/jenkins/jenlib_workspaces</text>
<text text-anchor="start" x="205" y="-310.5" font-family="Helvetica,sans-Serif" font-size="10.00">_f9/bld_nightly&#45;haldls.YmxkX25p</text>
<text text-anchor="start" x="205" y="-298.5" font-family="Helvetica,sans-Serif" font-size="10.00">Z2h0bHktaGFsZGxzIzY1NQ.x/haldls</text>
<text text-anchor="middle" x="286.68" y="-286.5" font-family="Helvetica,sans-Serif" font-size="10.00">/include/lola/vx/dac.h</text>
</a>
</g>
</g>
<!-- Node1&#45;&gt;Node6 -->
<g id="edge6" class="edge">
<title>Node1&#45;&gt;Node6</title>
<path fill="none" stroke="midnightblue" d="M484.09,-369.4C448.65,-358.46 408.84,-346.18 374.31,-335.53"/>
<polygon fill="midnightblue" stroke="midnightblue" points="483.38,-372.84 493.97,-372.44 485.44,-366.15 483.38,-372.84"/>
</g>
<!-- Node7 -->
<g id="node7" class="node">
<title>Node7</title>
<g id="a_node7"><a xlink:href="neuron_8h.html" target="_top" xlink:title=" ">
<polygon fill="white" stroke="black" points="394,-279.5 394,-335.5 573.36,-335.5 573.36,-279.5 394,-279.5"/>
<text text-anchor="start" x="402" y="-322.5" font-family="Helvetica,sans-Serif" font-size="10.00">/jenkins/jenlib_workspaces</text>
<text text-anchor="start" x="402" y="-310.5" font-family="Helvetica,sans-Serif" font-size="10.00">_f9/bld_nightly&#45;haldls.YmxkX25p</text>
<text text-anchor="start" x="402" y="-298.5" font-family="Helvetica,sans-Serif" font-size="10.00">Z2h0bHktaGFsZGxzIzY1NQ.x/haldls</text>
<text text-anchor="middle" x="483.68" y="-286.5" font-family="Helvetica,sans-Serif" font-size="10.00">/include/lola/vx/neuron.h</text>
</a>
</g>
</g>
<!-- Node1&#45;&gt;Node7 -->
<g id="edge8" class="edge">
<title>Node1&#45;&gt;Node7</title>
<path fill="none" stroke="midnightblue" d="M544.99,-365.44C534.39,-355.59 522.96,-344.97 512.87,-335.61"/>
<polygon fill="midnightblue" stroke="midnightblue" points="542.83,-368.2 552.54,-372.44 547.59,-363.07 542.83,-368.2"/>
</g>
<!-- Node8 -->
<g id="node8" class="node">
<title>Node8</title>
<g id="a_node8"><a xlink:href="ppu_8h.html" target="_top" xlink:title=" ">
<polygon fill="white" stroke="black" points="591,-279.5 591,-335.5 770.36,-335.5 770.36,-279.5 591,-279.5"/>
<text text-anchor="start" x="599" y="-322.5" font-family="Helvetica,sans-Serif" font-size="10.00">/jenkins/jenlib_workspaces</text>
<text text-anchor="start" x="599" y="-310.5" font-family="Helvetica,sans-Serif" font-size="10.00">_f9/bld_nightly&#45;haldls.YmxkX25p</text>
<text text-anchor="start" x="599" y="-298.5" font-family="Helvetica,sans-Serif" font-size="10.00">Z2h0bHktaGFsZGxzIzY1NQ.x/haldls</text>
<text text-anchor="middle" x="680.68" y="-286.5" font-family="Helvetica,sans-Serif" font-size="10.00">/include/lola/vx/ppu.h</text>
</a>
</g>
</g>
<!-- Node1&#45;&gt;Node8 -->
<g id="edge10" class="edge">
<title>Node1&#45;&gt;Node8</title>
<path fill="none" stroke="midnightblue" d="M618.74,-365.44C629.45,-355.59 641,-344.97 651.19,-335.61"/>
<polygon fill="midnightblue" stroke="midnightblue" points="616.11,-363.1 611.11,-372.44 620.84,-368.25 616.11,-363.1"/>
</g>
<!-- Node9 -->
<g id="node9" class="node">
<title>Node9</title>
<g id="a_node9"><a xlink:href="synapse_8h.html" target="_top" xlink:title=" ">
<polygon fill="white" stroke="black" points="788,-279.5 788,-335.5 967.36,-335.5 967.36,-279.5 788,-279.5"/>
<text text-anchor="start" x="796" y="-322.5" font-family="Helvetica,sans-Serif" font-size="10.00">/jenkins/jenlib_workspaces</text>
<text text-anchor="start" x="796" y="-310.5" font-family="Helvetica,sans-Serif" font-size="10.00">_f9/bld_nightly&#45;haldls.YmxkX25p</text>
<text text-anchor="start" x="796" y="-298.5" font-family="Helvetica,sans-Serif" font-size="10.00">Z2h0bHktaGFsZGxzIzY1NQ.x/haldls</text>
<text text-anchor="middle" x="877.68" y="-286.5" font-family="Helvetica,sans-Serif" font-size="10.00">/include/lola/vx/synapse.h</text>
</a>
</g>
</g>
<!-- Node1&#45;&gt;Node9 -->
<g id="edge12" class="edge">
<title>Node1&#45;&gt;Node9</title>
<path fill="none" stroke="midnightblue" d="M679.59,-369.4C715.16,-358.46 755.1,-346.18 789.75,-335.53"/>
<polygon fill="midnightblue" stroke="midnightblue" points="678.22,-366.16 669.69,-372.44 680.27,-372.85 678.22,-366.16"/>
</g>
<!-- Node3 -->
<g id="node3" class="node">
<title>Node3</title>
<g id="a_node3"><a xlink:href="container_8h.html" target="_top" xlink:title=" ">
<polygon fill="white" stroke="black" points="492,-186.5 492,-242.5 671.36,-242.5 671.36,-186.5 492,-186.5"/>
<text text-anchor="start" x="500" y="-229.5" font-family="Helvetica,sans-Serif" font-size="10.00">/jenkins/jenlib_workspaces</text>
<text text-anchor="start" x="500" y="-217.5" font-family="Helvetica,sans-Serif" font-size="10.00">_f9/bld_nightly&#45;haldls.YmxkX25p</text>
<text text-anchor="start" x="500" y="-205.5" font-family="Helvetica,sans-Serif" font-size="10.00">Z2h0bHktaGFsZGxzIzY1NQ.x/haldls</text>
<text text-anchor="middle" x="581.68" y="-193.5" font-family="Helvetica,sans-Serif" font-size="10.00">/include/lola/vx/container.h</text>
</a>
</g>
</g>
<!-- Node2&#45;&gt;Node3 -->
<g id="edge2" class="edge">
<title>Node2&#45;&gt;Node3</title>
<path fill="none" stroke="midnightblue" d="M189.4,-278.7C298.23,-255.15 414.07,-237.66 491.94,-227"/>
<polygon fill="midnightblue" stroke="midnightblue" points="188.58,-275.3 179.56,-280.85 190.08,-282.13 188.58,-275.3"/>
</g>
<!-- Node4 -->
<g id="node4" class="node">
<title>Node4</title>
<g id="a_node4"><a xlink:href="lola_8h.html" target="_top" xlink:title=" ">
<polygon fill="white" stroke="black" points="591,-93.5 591,-149.5 770.36,-149.5 770.36,-93.5 591,-93.5"/>
<text text-anchor="start" x="599" y="-136.5" font-family="Helvetica,sans-Serif" font-size="10.00">/jenkins/jenlib_workspaces</text>
<text text-anchor="start" x="599" y="-124.5" font-family="Helvetica,sans-Serif" font-size="10.00">_f9/bld_nightly&#45;haldls.YmxkX25p</text>
<text text-anchor="start" x="599" y="-112.5" font-family="Helvetica,sans-Serif" font-size="10.00">Z2h0bHktaGFsZGxzIzY1NQ.x/haldls</text>
<text text-anchor="middle" x="680.68" y="-100.5" font-family="Helvetica,sans-Serif" font-size="10.00">/include/lola/vx/lola.h</text>
</a>
</g>
</g>
<!-- Node3&#45;&gt;Node4 -->
<g id="edge3" class="edge">
<title>Node3&#45;&gt;Node4</title>
<path fill="none" stroke="midnightblue" d="M618.74,-179.44C629.45,-169.59 641,-158.97 651.19,-149.61"/>
<polygon fill="midnightblue" stroke="midnightblue" points="616.11,-177.1 611.11,-186.44 620.84,-182.25 616.11,-177.1"/>
</g>
<!-- Node4&#45;&gt;Node5 -->
<g id="edge4" class="edge">
<title>Node4&#45;&gt;Node5</title>
<path fill="none" stroke="midnightblue" d="M703.98,-84.55C709.98,-75.31 716.33,-65.51 721.99,-56.78"/>
<polygon fill="midnightblue" stroke="midnightblue" points="700.88,-82.9 698.38,-93.2 706.76,-86.71 700.88,-82.9"/>
</g>
<!-- Node6&#45;&gt;Node3 -->
<g id="edge7" class="edge">
<title>Node6&#45;&gt;Node3</title>
<path fill="none" stroke="midnightblue" d="M384.26,-276.4C419.71,-265.46 459.52,-253.18 494.05,-242.53"/>
<polygon fill="midnightblue" stroke="midnightblue" points="382.91,-273.15 374.39,-279.44 384.98,-279.84 382.91,-273.15"/>
</g>
<!-- Node7&#45;&gt;Node3 -->
<g id="edge9" class="edge">
<title>Node7&#45;&gt;Node3</title>
<path fill="none" stroke="midnightblue" d="M520.36,-272.44C530.97,-262.59 542.4,-251.97 552.48,-242.61"/>
<polygon fill="midnightblue" stroke="midnightblue" points="517.76,-270.07 512.82,-279.44 522.53,-275.2 517.76,-270.07"/>
</g>
<!-- Node8&#45;&gt;Node3 -->
<g id="edge11" class="edge">
<title>Node8&#45;&gt;Node3</title>
<path fill="none" stroke="midnightblue" d="M643.62,-272.44C632.9,-262.59 621.36,-251.97 611.17,-242.61"/>
<polygon fill="midnightblue" stroke="midnightblue" points="641.51,-275.25 651.24,-279.44 646.25,-270.1 641.51,-275.25"/>
</g>
<!-- Node9&#45;&gt;Node3 -->
<g id="edge13" class="edge">
<title>Node9&#45;&gt;Node3</title>
<path fill="none" stroke="midnightblue" d="M779.76,-276.4C744.19,-265.46 704.25,-253.18 669.6,-242.53"/>
<polygon fill="midnightblue" stroke="midnightblue" points="779.08,-279.85 789.67,-279.44 781.14,-273.16 779.08,-279.85"/>
</g>
</g>
</svg>
        <g id="navigator" transform="translate(0 0)" fill="#404254">
                <rect fill="#f2f5e9" fill-opacity="0.5" stroke="#606060" stroke-width=".5" x="0" y="0" width="60" height="60"/>
                <use id="zoomplus" xlink:href="#zoomPlus" x="17" y="9" onmousedown="handleZoom(evt,'in')"/>
                <use id="zoomminus" xlink:href="#zoomMin" x="42" y="9" onmousedown="handleZoom(evt,'out')"/>
                <use id="reset" xlink:href="#resetDef" x="30" y="36" onmousedown="handleReset()"/>
                <g id="arrowUp" xlink:href="#dirArrow" transform="translate(30 24)" onmousedown="handlePan(0,-1)">
                  <use xlink:href="#rim" fill="#404040">
                        <set attributeName="fill" to="#808080" begin="arrowUp.mouseover" end="arrowUp.mouseout"/>
                  </use>
                  <path fill="none" stroke="white" stroke-width="1.5" d="M0,-3.0v7 M-2.5,-0.5L0,-3.0L2.5,-0.5"/>
                </g>
                <g id="arrowRight" xlink:href="#dirArrow" transform="rotate(90) translate(36 -43)" onmousedown="handlePan(1,0)">
                  <use xlink:href="#rim" fill="#404040">
                        <set attributeName="fill" to="#808080" begin="arrowRight.mouseover" end="arrowRight.mouseout"/>
                  </use>
                  <path fill="none" stroke="white" stroke-width="1.5" d="M0,-3.0v7 M-2.5,-0.5L0,-3.0L2.5,-0.5"/>
                </g>
                <g id="arrowDown" xlink:href="#dirArrow" transform="rotate(180) translate(-30 -48)" onmousedown="handlePan(0,1)">
                  <use xlink:href="#rim" fill="#404040">
                        <set attributeName="fill" to="#808080" begin="arrowDown.mouseover" end="arrowDown.mouseout"/>
                  </use>
                  <path fill="none" stroke="white" stroke-width="1.5" d="M0,-3.0v7 M-2.5,-0.5L0,-3.0L2.5,-0.5"/>
                </g>
                <g id="arrowLeft" xlink:href="#dirArrow" transform="rotate(270) translate(-36 17)" onmousedown="handlePan(-1,0)">
                  <use xlink:href="#rim" fill="#404040">
                        <set attributeName="fill" to="#808080" begin="arrowLeft.mouseover" end="arrowLeft.mouseout"/>
                  </use>
                  <path fill="none" stroke="white" stroke-width="1.5" d="M0,-3.0v7 M-2.5,-0.5L0,-3.0L2.5,-0.5"/>
                </g>
        </g>
        <svg viewBox="0 0 15 15" width="100%" height="30px" preserveAspectRatio="xMaxYMin meet">
         <g id="arrow_out" transform="scale(0.3 0.3)">
          <a xlink:href="genpybind_8h__dep__incl_org.svg" target="_base">
           <rect id="button" ry="5" rx="5" y="6" x="6" height="38" width="38"
                fill="#f2f5e9" fill-opacity="0.5" stroke="#606060" stroke-width="1.0"/>
           <path id="arrow"
             d="M 11.500037,31.436501 C 11.940474,20.09759 22.043105,11.32322 32.158766,21.979434 L 37.068811,17.246167 C 37.068811,17.246167 37.088388,32 37.088388,32 L 22.160133,31.978069 C 22.160133,31.978069 26.997745,27.140456 26.997745,27.140456 C 18.528582,18.264221 13.291696,25.230495 11.500037,31.436501 z"
             style="fill:#404040;"/>
          </a>
         </g>
        </svg>
</svg>
