<?xml version="1.0" encoding="UTF-8" standalone="no"?>
<!DOCTYPE svg PUBLIC "-//W3C//DTD SVG 1.1//EN"
 "http://www.w3.org/Graphics/SVG/1.1/DTD/svg11.dtd">
<!-- Generated by graphviz version 2.43.0 (0)
 -->
<!-- Title: Graphical Class Hierarchy Pages: 1 -->
<svg width="332pt" height="833pt"
 viewBox="0.00 0.00 332.18 833.00" xmlns="http://www.w3.org/2000/svg" xmlns:xlink="http://www.w3.org/1999/xlink">
<g id="graph0" class="graph" transform="scale(1 1) rotate(0) translate(4 829)">
<title>Graphical Class Hierarchy</title>
<polygon fill="white" stroke="transparent" points="-4,4 -4,-829 328.18,-829 328.18,4 -4,4"/>
<!-- Node44 -->
<g id="node1" class="node">
<title>Node44</title>
<g id="a_node1"><a xlink:title=" ">
<polygon fill="white" stroke="#bfbfbf" points="0,-396.5 0,-416.5 121.03,-416.5 121.03,-396.5 0,-396.5"/>
<text text-anchor="middle" x="60.52" y="-403.5" font-family="Helvetica,sans-Serif" font-size="10.00">BackendContainerBase</text>
</a>
</g>
</g>
<!-- Node0 -->
<g id="node2" class="node">
<title>Node0</title>
<g id="a_node2"><a xlink:href="structhaldls_1_1vx_1_1detail_1_1_backend_container_trait_3_01lola_1_1vx_1_1_c_a_d_c_sample_row_01_4.html" target="_top" xlink:title=" ">
<polygon fill="white" stroke="black" points="164.54,-780.5 164.54,-824.5 316.67,-824.5 316.67,-780.5 164.54,-780.5"/>
<text text-anchor="start" x="172.54" y="-811.5" font-family="Helvetica,sans-Serif" font-size="10.00">haldls::vx::detail</text>
<text text-anchor="start" x="172.54" y="-799.5" font-family="Helvetica,sans-Serif" font-size="10.00">::BackendContainerTrait</text>
<text text-anchor="middle" x="240.6" y="-787.5" font-family="Helvetica,sans-Serif" font-size="10.00">&lt; lola::vx::CADCSampleRow &gt;</text>
</a>
</g>
</g>
<!-- Node44&#45;&gt;Node0 -->
<g id="edge1" class="edge">
<title>Node44&#45;&gt;Node0</title>
<path fill="none" stroke="midnightblue" d="M60.75,-426.94C59.61,-487.62 64.52,-668.91 157.03,-771.5 160.01,-774.8 163.37,-777.75 166.99,-780.38"/>
<polygon fill="midnightblue" stroke="midnightblue" points="64.26,-426.85 61.03,-416.76 57.26,-426.66 64.26,-426.85"/>
</g>
<!-- Node46 -->
<g id="node3" class="node">
<title>Node46</title>
<g id="a_node3"><a xlink:href="structhaldls_1_1vx_1_1detail_1_1_backend_container_trait_3_01lola_1_1vx_1_1_c_a_d_c_samples_01_4.html" target="_top" xlink:title=" ">
<polygon fill="white" stroke="black" points="172.04,-717.5 172.04,-761.5 309.17,-761.5 309.17,-717.5 172.04,-717.5"/>
<text text-anchor="start" x="180.04" y="-748.5" font-family="Helvetica,sans-Serif" font-size="10.00">haldls::vx::detail</text>
<text text-anchor="start" x="180.04" y="-736.5" font-family="Helvetica,sans-Serif" font-size="10.00">::BackendContainerTrait</text>
<text text-anchor="middle" x="240.6" y="-724.5" font-family="Helvetica,sans-Serif" font-size="10.00">&lt; lola::vx::CADCSamples &gt;</text>
</a>
</g>
</g>
<!-- Node44&#45;&gt;Node46 -->
<g id="edge2" class="edge">
<title>Node44&#45;&gt;Node46</title>
<path fill="none" stroke="midnightblue" d="M62.09,-426.88C64.68,-480.34 78.94,-626.17 157.03,-708.5 161.35,-713.05 166.41,-716.95 171.85,-720.27"/>
<polygon fill="midnightblue" stroke="midnightblue" points="65.58,-426.52 61.69,-416.66 58.58,-426.79 65.58,-426.52"/>
</g>
<!-- Node47 -->
<g id="node4" class="node">
<title>Node47</title>
<g id="a_node4"><a xlink:href="structhaldls_1_1vx_1_1detail_1_1_backend_container_trait_3_01lola_1_1vx_1_1_correlation_reset_row_01_4.html" target="_top" xlink:title=" ">
<polygon fill="white" stroke="black" points="158.15,-654.5 158.15,-698.5 323.06,-698.5 323.06,-654.5 158.15,-654.5"/>
<text text-anchor="start" x="166.15" y="-685.5" font-family="Helvetica,sans-Serif" font-size="10.00">haldls::vx::detail</text>
<text text-anchor="start" x="166.15" y="-673.5" font-family="Helvetica,sans-Serif" font-size="10.00">::BackendContainerTrait</text>
<text text-anchor="middle" x="240.6" y="-661.5" font-family="Helvetica,sans-Serif" font-size="10.00">&lt; lola::vx::CorrelationResetRow &gt;</text>
</a>
</g>
</g>
<!-- Node44&#45;&gt;Node47 -->
<g id="edge3" class="edge">
<title>Node44&#45;&gt;Node47</title>
<path fill="none" stroke="midnightblue" d="M64.06,-426.8C70.79,-472.22 93.16,-582.96 157.03,-645.5 160.42,-648.82 164.21,-651.79 168.23,-654.45"/>
<polygon fill="midnightblue" stroke="midnightblue" points="67.5,-426.15 62.67,-416.73 60.57,-427.11 67.5,-426.15"/>
</g>
<!-- Node48 -->
<g id="node5" class="node">
<title>Node48</title>
<g id="a_node5"><a xlink:href="structhaldls_1_1vx_1_1detail_1_1_backend_container_trait_3_01lola_1_1vx_1_1_d_a_c_channel_block_01_4.html" target="_top" xlink:title=" ">
<polygon fill="white" stroke="black" points="164.26,-591.5 164.26,-635.5 316.95,-635.5 316.95,-591.5 164.26,-591.5"/>
<text text-anchor="start" x="172.26" y="-622.5" font-family="Helvetica,sans-Serif" font-size="10.00">haldls::vx::detail</text>
<text text-anchor="start" x="172.26" y="-610.5" font-family="Helvetica,sans-Serif" font-size="10.00">::BackendContainerTrait</text>
<text text-anchor="middle" x="240.6" y="-598.5" font-family="Helvetica,sans-Serif" font-size="10.00">&lt; lola::vx::DACChannelBlock &gt;</text>
</a>
</g>
</g>
<!-- Node44&#45;&gt;Node48 -->
<g id="edge4" class="edge">
<title>Node44&#45;&gt;Node48</title>
<path fill="none" stroke="midnightblue" d="M67.3,-426.74C78.64,-462.94 107.13,-539.05 157.03,-582.5 160.84,-585.82 165.04,-588.8 169.47,-591.47"/>
<polygon fill="midnightblue" stroke="midnightblue" points="70.56,-425.43 64.33,-416.86 63.86,-427.45 70.56,-425.43"/>
</g>
<!-- Node49 -->
<g id="node6" class="node">
<title>Node49</title>
<g id="a_node6"><a xlink:href="structhaldls_1_1vx_1_1detail_1_1_backend_container_trait_3_01lola_1_1vx_1_1_d_a_c_control_block_01_4.html" target="_top" xlink:title=" ">
<polygon fill="white" stroke="black" points="166.76,-528.5 166.76,-572.5 314.45,-572.5 314.45,-528.5 166.76,-528.5"/>
<text text-anchor="start" x="174.76" y="-559.5" font-family="Helvetica,sans-Serif" font-size="10.00">haldls::vx::detail</text>
<text text-anchor="start" x="174.76" y="-547.5" font-family="Helvetica,sans-Serif" font-size="10.00">::BackendContainerTrait</text>
<text text-anchor="middle" x="240.6" y="-535.5" font-family="Helvetica,sans-Serif" font-size="10.00">&lt; lola::vx::DACControlBlock &gt;</text>
</a>
</g>
</g>
<!-- Node44&#45;&gt;Node49 -->
<g id="edge5" class="edge">
<title>Node44&#45;&gt;Node49</title>
<path fill="none" stroke="midnightblue" d="M72.96,-425.26C88.95,-450.02 120.17,-493.51 157.03,-519.5 161.66,-522.76 166.68,-525.73 171.87,-528.42"/>
<polygon fill="midnightblue" stroke="midnightblue" points="75.9,-423.35 67.6,-416.76 69.98,-427.09 75.9,-423.35"/>
</g>
<!-- Node50 -->
<g id="node7" class="node">
<title>Node50</title>
<g id="a_node7"><a xlink:href="structhaldls_1_1vx_1_1detail_1_1_backend_container_trait_3_01lola_1_1vx_1_1_synapse_correlation_calib_matrix_01_4.html" target="_top" xlink:title=" ">
<polygon fill="white" stroke="black" points="166.06,-453.5 166.06,-509.5 315.15,-509.5 315.15,-453.5 166.06,-453.5"/>
<text text-anchor="start" x="174.06" y="-496.5" font-family="Helvetica,sans-Serif" font-size="10.00">haldls::vx::detail</text>
<text text-anchor="start" x="174.06" y="-484.5" font-family="Helvetica,sans-Serif" font-size="10.00">::BackendContainerTrait</text>
<text text-anchor="start" x="174.06" y="-472.5" font-family="Helvetica,sans-Serif" font-size="10.00">&lt; lola::vx::SynapseCorrelation</text>
<text text-anchor="middle" x="240.6" y="-460.5" font-family="Helvetica,sans-Serif" font-size="10.00">CalibMatrix &gt;</text>
</a>
</g>
</g>
<!-- Node44&#45;&gt;Node50 -->
<g id="edge6" class="edge">
<title>Node44&#45;&gt;Node50</title>
<path fill="none" stroke="midnightblue" d="M94.77,-420.5C116.77,-429.77 146.38,-442.24 173.09,-453.49"/>
<polygon fill="midnightblue" stroke="midnightblue" points="96.11,-417.27 85.53,-416.61 93.39,-423.72 96.11,-417.27"/>
</g>
<!-- Node51 -->
<g id="node8" class="node">
<title>Node51</title>
<g id="a_node8"><a xlink:href="structhaldls_1_1vx_1_1detail_1_1_backend_container_trait_3_01lola_1_1vx_1_1_synapse_correlation_calib_row_01_4.html" target="_top" xlink:title=" ">
<polygon fill="white" stroke="black" points="166.06,-378.5 166.06,-434.5 315.15,-434.5 315.15,-378.5 166.06,-378.5"/>
<text text-anchor="start" x="174.06" y="-421.5" font-family="Helvetica,sans-Serif" font-size="10.00">haldls::vx::detail</text>
<text text-anchor="start" x="174.06" y="-409.5" font-family="Helvetica,sans-Serif" font-size="10.00">::BackendContainerTrait</text>
<text text-anchor="start" x="174.06" y="-397.5" font-family="Helvetica,sans-Serif" font-size="10.00">&lt; lola::vx::SynapseCorrelation</text>
<text text-anchor="middle" x="240.6" y="-385.5" font-family="Helvetica,sans-Serif" font-size="10.00">CalibRow &gt;</text>
</a>
</g>
</g>
<!-- Node44&#45;&gt;Node51 -->
<g id="edge7" class="edge">
<title>Node44&#45;&gt;Node51</title>
<path fill="none" stroke="midnightblue" d="M131.57,-406.5C142.89,-406.5 154.64,-406.5 166.04,-406.5"/>
<polygon fill="midnightblue" stroke="midnightblue" points="131.31,-403 121.31,-406.5 131.31,-410 131.31,-403"/>
</g>
<!-- Node52 -->
<g id="node9" class="node">
<title>Node52</title>
<g id="a_node9"><a xlink:href="structhaldls_1_1vx_1_1detail_1_1_backend_container_trait_3_01lola_1_1vx_1_1_synapse_label_matrix_01_4.html" target="_top" xlink:title=" ">
<polygon fill="white" stroke="black" points="160.36,-315.5 160.36,-359.5 320.85,-359.5 320.85,-315.5 160.36,-315.5"/>
<text text-anchor="start" x="168.36" y="-346.5" font-family="Helvetica,sans-Serif" font-size="10.00">haldls::vx::detail</text>
<text text-anchor="start" x="168.36" y="-334.5" font-family="Helvetica,sans-Serif" font-size="10.00">::BackendContainerTrait</text>
<text text-anchor="middle" x="240.6" y="-322.5" font-family="Helvetica,sans-Serif" font-size="10.00">&lt; lola::vx::SynapseLabelMatrix &gt;</text>
</a>
</g>
</g>
<!-- Node44&#45;&gt;Node52 -->
<g id="edge8" class="edge">
<title>Node44&#45;&gt;Node52</title>
<path fill="none" stroke="midnightblue" d="M97.01,-392.75C121.52,-383.25 154.63,-370.42 182.78,-359.52"/>
<polygon fill="midnightblue" stroke="midnightblue" points="95.47,-389.59 87.41,-396.47 98,-396.12 95.47,-389.59"/>
</g>
<!-- Node53 -->
<g id="node10" class="node">
<title>Node53</title>
<g id="a_node10"><a xlink:href="structhaldls_1_1vx_1_1detail_1_1_backend_container_trait_3_01lola_1_1vx_1_1_synapse_label_row_01_4.html" target="_top" xlink:title=" ">
<polygon fill="white" stroke="black" points="163.97,-252.5 163.97,-296.5 317.24,-296.5 317.24,-252.5 163.97,-252.5"/>
<text text-anchor="start" x="171.97" y="-283.5" font-family="Helvetica,sans-Serif" font-size="10.00">haldls::vx::detail</text>
<text text-anchor="start" x="171.97" y="-271.5" font-family="Helvetica,sans-Serif" font-size="10.00">::BackendContainerTrait</text>
<text text-anchor="middle" x="240.6" y="-259.5" font-family="Helvetica,sans-Serif" font-size="10.00">&lt; lola::vx::SynapseLabelRow &gt;</text>
</a>
</g>
</g>
<!-- Node44&#45;&gt;Node53 -->
<g id="edge9" class="edge">
<title>Node44&#45;&gt;Node53</title>
<path fill="none" stroke="midnightblue" d="M74.97,-388.1C91.93,-366.05 123,-329.24 157.03,-306.5 162.4,-302.91 168.23,-299.64 174.23,-296.68"/>
<polygon fill="midnightblue" stroke="midnightblue" points="72.02,-386.2 68.8,-396.3 77.61,-390.42 72.02,-386.2"/>
</g>
<!-- Node54 -->
<g id="node11" class="node">
<title>Node54</title>
<g id="a_node11"><a xlink:href="structhaldls_1_1vx_1_1detail_1_1_backend_container_trait_3_01lola_1_1vx_1_1_synapse_matrix_01_4.html" target="_top" xlink:title=" ">
<polygon fill="white" stroke="black" points="172.59,-189.5 172.59,-233.5 308.62,-233.5 308.62,-189.5 172.59,-189.5"/>
<text text-anchor="start" x="180.59" y="-220.5" font-family="Helvetica,sans-Serif" font-size="10.00">haldls::vx::detail</text>
<text text-anchor="start" x="180.59" y="-208.5" font-family="Helvetica,sans-Serif" font-size="10.00">::BackendContainerTrait</text>
<text text-anchor="middle" x="240.6" y="-196.5" font-family="Helvetica,sans-Serif" font-size="10.00">&lt; lola::vx::SynapseMatrix &gt;</text>
</a>
</g>
</g>
<!-- Node44&#45;&gt;Node54 -->
<g id="edge10" class="edge">
<title>Node44&#45;&gt;Node54</title>
<path fill="none" stroke="midnightblue" d="M68.28,-386.4C80.67,-352.41 110.16,-283.4 157.03,-243.5 161.72,-239.51 166.95,-235.99 172.45,-232.89"/>
<polygon fill="midnightblue" stroke="midnightblue" points="64.87,-385.53 64.85,-396.12 71.48,-387.85 64.87,-385.53"/>
</g>
<!-- Node55 -->
<g id="node12" class="node">
<title>Node55</title>
<g id="a_node12"><a xlink:href="structhaldls_1_1vx_1_1detail_1_1_backend_container_trait_3_01lola_1_1vx_1_1_synapse_row_01_4.html" target="_top" xlink:title=" ">
<polygon fill="white" stroke="black" points="176.2,-126.5 176.2,-170.5 305.01,-170.5 305.01,-126.5 176.2,-126.5"/>
<text text-anchor="start" x="184.2" y="-157.5" font-family="Helvetica,sans-Serif" font-size="10.00">haldls::vx::detail</text>
<text text-anchor="start" x="184.2" y="-145.5" font-family="Helvetica,sans-Serif" font-size="10.00">::BackendContainerTrait</text>
<text text-anchor="middle" x="240.6" y="-133.5" font-family="Helvetica,sans-Serif" font-size="10.00">&lt; lola::vx::SynapseRow &gt;</text>
</a>
</g>
</g>
<!-- Node44&#45;&gt;Node55 -->
<g id="edge11" class="edge">
<title>Node44&#45;&gt;Node55</title>
<path fill="none" stroke="midnightblue" d="M64.6,-386.46C72.3,-343.04 96.29,-239.44 157.03,-180.5 162.55,-175.15 169.06,-170.66 175.97,-166.92"/>
<polygon fill="midnightblue" stroke="midnightblue" points="61.14,-385.92 62.95,-396.36 68.05,-387.08 61.14,-385.92"/>
</g>
<!-- Node56 -->
<g id="node13" class="node">
<title>Node56</title>
<g id="a_node13"><a xlink:href="structhaldls_1_1vx_1_1detail_1_1_backend_container_trait_3_01lola_1_1vx_1_1_synapse_weight_matrix_01_4.html" target="_top" xlink:title=" ">
<polygon fill="white" stroke="black" points="157.03,-63.5 157.03,-107.5 324.18,-107.5 324.18,-63.5 157.03,-63.5"/>
<text text-anchor="start" x="165.03" y="-94.5" font-family="Helvetica,sans-Serif" font-size="10.00">haldls::vx::detail</text>
<text text-anchor="start" x="165.03" y="-82.5" font-family="Helvetica,sans-Serif" font-size="10.00">::BackendContainerTrait</text>
<text text-anchor="middle" x="240.6" y="-70.5" font-family="Helvetica,sans-Serif" font-size="10.00">&lt; lola::vx::SynapseWeightMatrix &gt;</text>
</a>
</g>
</g>
<!-- Node44&#45;&gt;Node56 -->
<g id="edge12" class="edge">
<title>Node44&#45;&gt;Node56</title>
<path fill="none" stroke="midnightblue" d="M62.49,-386.01C66.04,-334.1 82.39,-196.01 157.03,-117.5 160.53,-113.82 164.5,-110.56 168.75,-107.67"/>
<polygon fill="midnightblue" stroke="midnightblue" points="58.98,-386.05 61.89,-396.24 65.97,-386.47 58.98,-386.05"/>
</g>
<!-- Node57 -->
<g id="node14" class="node">
<title>Node57</title>
<g id="a_node14"><a xlink:href="structhaldls_1_1vx_1_1detail_1_1_backend_container_trait_3_01lola_1_1vx_1_1_synapse_weight_row_01_4.html" target="_top" xlink:title=" ">
<polygon fill="white" stroke="black" points="160.64,-0.5 160.64,-44.5 320.57,-44.5 320.57,-0.5 160.64,-0.5"/>
<text text-anchor="start" x="168.64" y="-31.5" font-family="Helvetica,sans-Serif" font-size="10.00">haldls::vx::detail</text>
<text text-anchor="start" x="168.64" y="-19.5" font-family="Helvetica,sans-Serif" font-size="10.00">::BackendContainerTrait</text>
<text text-anchor="middle" x="240.6" y="-7.5" font-family="Helvetica,sans-Serif" font-size="10.00">&lt; lola::vx::SynapseWeightRow &gt;</text>
</a>
</g>
</g>
<!-- Node44&#45;&gt;Node57 -->
<g id="edge13" class="edge">
<title>Node44&#45;&gt;Node57</title>
<path fill="none" stroke="midnightblue" d="M61.04,-386.06C60.78,-326.88 68.06,-153.32 157.03,-54.5 160.32,-50.84 164.08,-47.6 168.14,-44.73"/>
<polygon fill="midnightblue" stroke="midnightblue" points="57.55,-386.36 61.17,-396.32 64.54,-386.27 57.55,-386.36"/>
</g>
</g>
</svg>
