<?xml version="1.0" encoding="UTF-8" standalone="no"?>
<!DOCTYPE svg PUBLIC "-//W3C//DTD SVG 1.1//EN"
 "http://www.w3.org/Graphics/SVG/1.1/DTD/svg11.dtd">
<!-- Generated by graphviz version 2.43.0 (0)
 -->
<!-- Title: haldls::vx::detail::BackendContainerTrait&lt; lola::vx::DACControlBlock &gt; Pages: 1 -->
<svg width="367pt" height="53pt"
 viewBox="0.00 0.00 367.42 53.00" xmlns="http://www.w3.org/2000/svg" xmlns:xlink="http://www.w3.org/1999/xlink">
<g id="graph0" class="graph" transform="scale(1 1) rotate(0) translate(4 49)">
<title>haldls::vx::detail::BackendContainerTrait&lt; lola::vx::DACControlBlock &gt;</title>
<polygon fill="white" stroke="transparent" points="-4,4 -4,-49 363.42,-49 363.42,4 -4,4"/>
<!-- Node0 -->
<g id="node1" class="node">
<title>Node0</title>
<g id="a_node1"><a xlink:title=" ">
<polygon fill="#bfbfbf" stroke="black" points="211.74,-0.5 211.74,-44.5 359.42,-44.5 359.42,-0.5 211.74,-0.5"/>
<text text-anchor="start" x="219.74" y="-31.5" font-family="Helvetica,sans-Serif" font-size="10.00">haldls::vx::detail</text>
<text text-anchor="start" x="219.74" y="-19.5" font-family="Helvetica,sans-Serif" font-size="10.00">::BackendContainerTrait</text>
<text text-anchor="middle" x="285.58" y="-7.5" font-family="Helvetica,sans-Serif" font-size="10.00">&lt; lola::vx::DACControlBlock &gt;</text>
</a>
</g>
</g>
<!-- Node1 -->
<g id="node2" class="node">
<title>Node1</title>
<g id="a_node2"><a xlink:title=" ">
<polygon fill="white" stroke="#bfbfbf" points="0,-0.5 0,-44.5 175.74,-44.5 175.74,-0.5 0,-0.5"/>
<text text-anchor="start" x="8" y="-31.5" font-family="Helvetica,sans-Serif" font-size="10.00">BackendContainerBase</text>
<text text-anchor="start" x="8" y="-19.5" font-family="Helvetica,sans-Serif" font-size="10.00">&lt; lola::vx::DACControlBlock,</text>
<text text-anchor="middle" x="87.87" y="-7.5" font-family="Helvetica,sans-Serif" font-size="10.00"> fisch::vx::SPIDACControlRegister &gt;</text>
</a>
</g>
</g>
<!-- Node1&#45;&gt;Node0 -->
<g id="edge1" class="edge">
<title>Node1&#45;&gt;Node0</title>
<path fill="none" stroke="midnightblue" d="M185.97,-22.5C194.6,-22.5 203.24,-22.5 211.62,-22.5"/>
<polygon fill="midnightblue" stroke="midnightblue" points="185.85,-19 175.85,-22.5 185.85,-26 185.85,-19"/>
</g>
</g>
</svg>
