<?xml version="1.0" encoding="UTF-8" standalone="no"?>
<!DOCTYPE svg PUBLIC "-//W3C//DTD SVG 1.1//EN"
 "http://www.w3.org/Graphics/SVG/1.1/DTD/svg11.dtd">
<!-- Generated by graphviz version 2.43.0 (0)
 -->
<!-- Title: lola::vx::AtomicNeuron::EventRouting Pages: 1 -->
<svg width="195pt" height="56pt"
 viewBox="0.00 0.00 195.36 56.00" xmlns="http://www.w3.org/2000/svg" xmlns:xlink="http://www.w3.org/1999/xlink">
<g id="graph0" class="graph" transform="scale(1 1) rotate(0) translate(4 52)">
<title>lola::vx::AtomicNeuron::EventRouting</title>
<polygon fill="white" stroke="transparent" points="-4,4 -4,-52 191.36,-52 191.36,4 -4,4"/>
<!-- Node1 -->
<g id="node1" class="node">
<title>Node1</title>
<g id="a_node1"><a xlink:title=" ">
<polygon fill="#bfbfbf" stroke="black" points="0,-8 0,-40 116.01,-40 116.01,-8 0,-8"/>
<text text-anchor="start" x="8" y="-27" font-family="Helvetica,sans-Serif" font-size="10.00">lola::vx::AtomicNeuron</text>
<text text-anchor="middle" x="58.01" y="-15" font-family="Helvetica,sans-Serif" font-size="10.00">::EventRouting</text>
</a>
</g>
</g>
<!-- Node1&#45;&gt;Node1 -->
<g id="edge1" class="edge">
<title>Node1&#45;&gt;Node1</title>
<path fill="none" stroke="#9a32cd" stroke-dasharray="5,2" d="M126.5,-28.34C131.17,-27.34 134.01,-25.89 134.01,-24 134.01,-20.97 126.74,-19.09 116.32,-18.35"/>
<polygon fill="#9a32cd" stroke="#9a32cd" points="125.79,-24.9 116.32,-29.65 126.69,-31.84 125.79,-24.9"/>
<text text-anchor="middle" x="160.69" y="-39" font-family="Helvetica,sans-Serif" font-size="10.00"> bypass_inh</text>
<text text-anchor="middle" x="160.69" y="-27" font-family="Helvetica,sans-Serif" font-size="10.00">bypass_exc</text>
<text text-anchor="middle" x="160.69" y="-15" font-family="Helvetica,sans-Serif" font-size="10.00">disabled</text>
<text text-anchor="middle" x="160.69" y="-3" font-family="Helvetica,sans-Serif" font-size="10.00">enabled</text>
</g>
</g>
</svg>
