<?xml version="1.0" encoding="UTF-8" standalone="no"?>
<!DOCTYPE svg PUBLIC "-//W3C//DTD SVG 1.1//EN"
 "http://www.w3.org/Graphics/SVG/1.1/DTD/svg11.dtd">
<!-- Generated by graphviz version 2.43.0 (0)
 -->
<!-- Title: /jenkins/jenlib_workspaces_f9/bld_nightly&#45;haldls.YmxkX25pZ2h0bHktaGFsZGxzIzQ5OA.x/haldls/include/lola/v2/lola.h Pages: 1 -->
<svg width="448pt" height="191pt"
 viewBox="0.00 0.00 447.70 191.00" xmlns="http://www.w3.org/2000/svg" xmlns:xlink="http://www.w3.org/1999/xlink">
<g id="graph0" class="graph" transform="scale(1 1) rotate(0) translate(4 187)">
<title>/jenkins/jenlib_workspaces_f9/bld_nightly&#45;haldls.YmxkX25pZ2h0bHktaGFsZGxzIzQ5OA.x/haldls/include/lola/v2/lola.h</title>
<polygon fill="white" stroke="transparent" points="-4,4 -4,-187 443.7,-187 443.7,4 -4,4"/>
<!-- Node0 -->
<g id="node1" class="node">
<title>Node0</title>
<g id="a_node1"><a xlink:title=" ">
<polygon fill="#bfbfbf" stroke="black" points="30.11,-126.5 30.11,-182.5 210.03,-182.5 210.03,-126.5 30.11,-126.5"/>
<text text-anchor="start" x="38.11" y="-169.5" font-family="Helvetica,sans-Serif" font-size="10.00">/jenkins/jenlib_workspaces</text>
<text text-anchor="start" x="38.11" y="-157.5" font-family="Helvetica,sans-Serif" font-size="10.00">_f9/bld_nightly&#45;haldls.YmxkX25p</text>
<text text-anchor="start" x="38.11" y="-145.5" font-family="Helvetica,sans-Serif" font-size="10.00">Z2h0bHktaGFsZGxzIzQ5OA.x/haldls</text>
<text text-anchor="middle" x="120.07" y="-133.5" font-family="Helvetica,sans-Serif" font-size="10.00">/include/lola/v2/lola.h</text>
</a>
</g>
</g>
<!-- Node1 -->
<g id="node2" class="node">
<title>Node1</title>
<g id="a_node2"><a xlink:href="v2_2genpybind_8h.html" target="_top" xlink:title=" ">
<polygon fill="white" stroke="black" points="0,-6.5 0,-26.5 102.14,-26.5 102.14,-6.5 0,-6.5"/>
<text text-anchor="middle" x="51.07" y="-13.5" font-family="Helvetica,sans-Serif" font-size="10.00">lola/v2/genpybind.h</text>
</a>
</g>
</g>
<!-- Node0&#45;&gt;Node1 -->
<g id="edge1" class="edge">
<title>Node0&#45;&gt;Node1</title>
<path fill="none" stroke="midnightblue" d="M106.27,-126.31C92.64,-99.43 72.16,-59.06 60.35,-35.8"/>
<polygon fill="midnightblue" stroke="midnightblue" points="63.38,-34.03 55.73,-26.69 57.14,-37.19 63.38,-34.03"/>
</g>
<!-- Node2 -->
<g id="node3" class="node">
<title>Node2</title>
<g id="a_node3"><a xlink:href="v2_2ppu_8h.html" target="_top" xlink:title=" ">
<polygon fill="white" stroke="black" points="152.73,-69.5 152.73,-89.5 225.42,-89.5 225.42,-69.5 152.73,-69.5"/>
<text text-anchor="middle" x="189.07" y="-76.5" font-family="Helvetica,sans-Serif" font-size="10.00">lola/v2/ppu.h</text>
</a>
</g>
</g>
<!-- Node0&#45;&gt;Node2 -->
<g id="edge3" class="edge">
<title>Node0&#45;&gt;Node2</title>
<path fill="none" stroke="midnightblue" d="M145.76,-126.32C155.06,-116.49 165.26,-105.69 173.43,-97.05"/>
<polygon fill="midnightblue" stroke="midnightblue" points="176.22,-99.2 180.54,-89.52 171.13,-94.39 176.22,-99.2"/>
</g>
<!-- Node1&#45;&gt;Node1 -->
<g id="edge2" class="edge">
<title>Node1&#45;&gt;Node1</title>
<path fill="none" stroke="midnightblue" d="M77.65,-26.56C98.62,-30.45 120.14,-27.1 120.14,-16.5 120.14,-7.64 105.11,-3.85 87.92,-5.11"/>
<polygon fill="midnightblue" stroke="midnightblue" points="87.12,-1.69 77.65,-6.44 88.02,-8.63 87.12,-1.69"/>
</g>
<!-- Node2&#45;&gt;Node1 -->
<g id="edge6" class="edge">
<title>Node2&#45;&gt;Node1</title>
<path fill="none" stroke="midnightblue" d="M168.71,-69.5C145.47,-59.23 107.26,-42.34 80.72,-30.6"/>
<polygon fill="midnightblue" stroke="midnightblue" points="82.08,-27.38 71.52,-26.54 79.25,-33.78 82.08,-27.38"/>
</g>
<!-- Node3 -->
<g id="node4" class="node">
<title>Node3</title>
<g id="a_node4"><a xlink:title=" ">
<polygon fill="white" stroke="#bfbfbf" points="138.28,-0.5 138.28,-32.5 239.86,-32.5 239.86,-0.5 138.28,-0.5"/>
<text text-anchor="start" x="146.28" y="-19.5" font-family="Helvetica,sans-Serif" font-size="10.00">halco/hicann&#45;dls/v2</text>
<text text-anchor="middle" x="189.07" y="-7.5" font-family="Helvetica,sans-Serif" font-size="10.00">/coordinates.h</text>
</a>
</g>
</g>
<!-- Node2&#45;&gt;Node3 -->
<g id="edge4" class="edge">
<title>Node2&#45;&gt;Node3</title>
<path fill="none" stroke="midnightblue" d="M189.07,-69.5C189.07,-62.47 189.07,-52.34 189.07,-42.88"/>
<polygon fill="midnightblue" stroke="midnightblue" points="192.57,-42.69 189.07,-32.69 185.57,-42.69 192.57,-42.69"/>
</g>
<!-- Node4 -->
<g id="node5" class="node">
<title>Node4</title>
<g id="a_node5"><a xlink:title=" ">
<polygon fill="white" stroke="#bfbfbf" points="257.57,-6.5 257.57,-26.5 338.57,-26.5 338.57,-6.5 257.57,-6.5"/>
<text text-anchor="middle" x="298.07" y="-13.5" font-family="Helvetica,sans-Serif" font-size="10.00">hate/visibility.h</text>
</a>
</g>
</g>
<!-- Node2&#45;&gt;Node4 -->
<g id="edge5" class="edge">
<title>Node2&#45;&gt;Node4</title>
<path fill="none" stroke="midnightblue" d="M205.15,-69.5C223.03,-59.5 252.11,-43.22 272.98,-31.54"/>
<polygon fill="midnightblue" stroke="midnightblue" points="274.91,-34.48 281.92,-26.54 271.49,-28.37 274.91,-34.48"/>
</g>
<!-- Node5 -->
<g id="node6" class="node">
<title>Node5</title>
<g id="a_node6"><a xlink:title=" ">
<polygon fill="white" stroke="#bfbfbf" points="356.45,-6.5 356.45,-26.5 439.69,-26.5 439.69,-6.5 356.45,-6.5"/>
<text text-anchor="middle" x="398.07" y="-13.5" font-family="Helvetica,sans-Serif" font-size="10.00">haldls/v2/ppu.h</text>
</a>
</g>
</g>
<!-- Node2&#45;&gt;Node5 -->
<g id="edge7" class="edge">
<title>Node2&#45;&gt;Node5</title>
<path fill="none" stroke="midnightblue" d="M221.41,-69.47C253.58,-60.43 304.32,-46.04 348.07,-33 351.83,-31.88 355.75,-30.69 359.66,-29.5"/>
<polygon fill="midnightblue" stroke="midnightblue" points="360.75,-32.83 369.28,-26.54 358.7,-26.14 360.75,-32.83"/>
</g>
</g>
</svg>
