<?xml version="1.0" encoding="UTF-8" standalone="no"?>
<!DOCTYPE svg PUBLIC "-//W3C//DTD SVG 1.1//EN"
 "http://www.w3.org/Graphics/SVG/1.1/DTD/svg11.dtd">
<!-- Generated by graphviz version 2.43.0 (0)
 -->
<!-- Title: /jenkins/jenlib_workspaces_f9/bld_nightly&#45;haldls.YmxkX25pZ2h0bHktaGFsZGxzIzY1NQ.x/haldls/include/haldls/vx/address_transformation.h Pages: 1 -->
<svg width="216pt" height="122pt"
 viewBox="0.00 0.00 216.26 122.00" xmlns="http://www.w3.org/2000/svg" xmlns:xlink="http://www.w3.org/1999/xlink">
<g id="graph0" class="graph" transform="scale(1 1) rotate(0) translate(4 118)">
<title>/jenkins/jenlib_workspaces_f9/bld_nightly&#45;haldls.YmxkX25pZ2h0bHktaGFsZGxzIzY1NQ.x/haldls/include/haldls/vx/address_transformation.h</title>
<polygon fill="white" stroke="transparent" points="-4,4 -4,-118 212.26,-118 212.26,4 -4,4"/>
<!-- Node0 -->
<g id="node1" class="node">
<title>Node0</title>
<g id="a_node1"><a xlink:title=" ">
<polygon fill="#bfbfbf" stroke="black" points="0,-57.5 0,-113.5 208.26,-113.5 208.26,-57.5 0,-57.5"/>
<text text-anchor="start" x="8" y="-100.5" font-family="Helvetica,sans-Serif" font-size="10.00">/jenkins/jenlib_workspaces</text>
<text text-anchor="start" x="8" y="-88.5" font-family="Helvetica,sans-Serif" font-size="10.00">_f9/bld_nightly&#45;haldls.YmxkX25p</text>
<text text-anchor="start" x="8" y="-76.5" font-family="Helvetica,sans-Serif" font-size="10.00">Z2h0bHktaGFsZGxzIzY1NQ.x/haldls</text>
<text text-anchor="middle" x="104.13" y="-64.5" font-family="Helvetica,sans-Serif" font-size="10.00">/include/haldls/vx/address_transformation.h</text>
</a>
</g>
</g>
<!-- Node1 -->
<g id="node2" class="node">
<title>Node1</title>
<g id="a_node2"><a xlink:title=" ">
<polygon fill="white" stroke="#bfbfbf" points="39.02,-0.5 39.02,-20.5 87.25,-20.5 87.25,-0.5 39.02,-0.5"/>
<text text-anchor="middle" x="63.13" y="-7.5" font-family="Helvetica,sans-Serif" font-size="10.00">stdint.h</text>
</a>
</g>
</g>
<!-- Node0&#45;&gt;Node1 -->
<g id="edge1" class="edge">
<title>Node0&#45;&gt;Node1</title>
<path fill="none" stroke="midnightblue" d="M88.87,-57.32C83.63,-47.99 77.9,-37.8 73.19,-29.4"/>
<polygon fill="midnightblue" stroke="midnightblue" points="76.15,-27.53 68.2,-20.52 70.05,-30.96 76.15,-27.53"/>
</g>
<!-- Node2 -->
<g id="node3" class="node">
<title>Node2</title>
<g id="a_node3"><a xlink:title=" ">
<polygon fill="white" stroke="#bfbfbf" points="105.63,-0.5 105.63,-20.5 186.63,-20.5 186.63,-0.5 105.63,-0.5"/>
<text text-anchor="middle" x="146.13" y="-7.5" font-family="Helvetica,sans-Serif" font-size="10.00">hate/visibility.h</text>
</a>
</g>
</g>
<!-- Node0&#45;&gt;Node2 -->
<g id="edge2" class="edge">
<title>Node0&#45;&gt;Node2</title>
<path fill="none" stroke="midnightblue" d="M119.77,-57.32C125.14,-47.99 131,-37.8 135.83,-29.4"/>
<polygon fill="midnightblue" stroke="midnightblue" points="138.99,-30.94 140.94,-20.52 132.92,-27.45 138.99,-30.94"/>
</g>
</g>
</svg>
