<?xml version="1.0" encoding="UTF-8" standalone="no"?>
<!DOCTYPE svg PUBLIC "-//W3C//DTD SVG 1.1//EN"
 "http://www.w3.org/Graphics/SVG/1.1/DTD/svg11.dtd">
<!-- Generated by graphviz version 2.43.0 (0)
 -->
<!-- Title: /jenkins/jenlib_workspaces_f9/bld_nightly&#45;haldls.YmxkX25pZ2h0bHktaGFsZGxzIzY1NQ.x/haldls/include/haldls/vx/background.h Pages: 1 -->
<svg width="1036pt" height="203pt"
 viewBox="0.00 0.00 1035.89 203.00" xmlns="http://www.w3.org/2000/svg" xmlns:xlink="http://www.w3.org/1999/xlink">
<g id="graph0" class="graph" transform="scale(1 1) rotate(0) translate(4 199)">
<title>/jenkins/jenlib_workspaces_f9/bld_nightly&#45;haldls.YmxkX25pZ2h0bHktaGFsZGxzIzY1NQ.x/haldls/include/haldls/vx/background.h</title>
<polygon fill="white" stroke="transparent" points="-4,4 -4,-199 1031.89,-199 1031.89,4 -4,4"/>
<!-- Node0 -->
<g id="node1" class="node">
<title>Node0</title>
<g id="a_node1"><a xlink:title=" ">
<polygon fill="#bfbfbf" stroke="black" points="396.71,-138.5 396.71,-194.5 576.07,-194.5 576.07,-138.5 396.71,-138.5"/>
<text text-anchor="start" x="404.71" y="-181.5" font-family="Helvetica,sans-Serif" font-size="10.00">/jenkins/jenlib_workspaces</text>
<text text-anchor="start" x="404.71" y="-169.5" font-family="Helvetica,sans-Serif" font-size="10.00">_f9/bld_nightly&#45;haldls.YmxkX25p</text>
<text text-anchor="start" x="404.71" y="-157.5" font-family="Helvetica,sans-Serif" font-size="10.00">Z2h0bHktaGFsZGxzIzY1NQ.x/haldls</text>
<text text-anchor="middle" x="486.39" y="-145.5" font-family="Helvetica,sans-Serif" font-size="10.00">/include/haldls/vx/background.h</text>
</a>
</g>
</g>
<!-- Node1 -->
<g id="node2" class="node">
<title>Node1</title>
<g id="a_node2"><a xlink:title=" ">
<polygon fill="white" stroke="#bfbfbf" points="0,-75.5 0,-95.5 38.78,-95.5 38.78,-75.5 0,-75.5"/>
<text text-anchor="middle" x="19.39" y="-82.5" font-family="Helvetica,sans-Serif" font-size="10.00">array</text>
</a>
</g>
</g>
<!-- Node0&#45;&gt;Node1 -->
<g id="edge1" class="edge">
<title>Node0&#45;&gt;Node1</title>
<path fill="none" stroke="midnightblue" d="M396.33,-161.96C306.01,-156.23 163.98,-141.24 47.39,-102 45.76,-101.45 44.11,-100.81 42.48,-100.1"/>
<polygon fill="midnightblue" stroke="midnightblue" points="43.97,-96.93 33.46,-95.59 40.84,-103.19 43.97,-96.93"/>
</g>
<!-- Node2 -->
<g id="node3" class="node">
<title>Node2</title>
<g id="a_node3"><a xlink:title=" ">
<polygon fill="white" stroke="#bfbfbf" points="56.33,-75.5 56.33,-95.5 108.45,-95.5 108.45,-75.5 56.33,-75.5"/>
<text text-anchor="middle" x="82.39" y="-82.5" font-family="Helvetica,sans-Serif" font-size="10.00">ostream</text>
</a>
</g>
</g>
<!-- Node0&#45;&gt;Node2 -->
<g id="edge2" class="edge">
<title>Node0&#45;&gt;Node2</title>
<path fill="none" stroke="midnightblue" d="M396.61,-156.33C321,-147.12 210.56,-130.18 117.39,-102 114.94,-101.26 112.43,-100.39 109.95,-99.45"/>
<polygon fill="midnightblue" stroke="midnightblue" points="111.17,-96.17 100.59,-95.58 108.49,-102.64 111.17,-96.17"/>
</g>
<!-- Node3 -->
<g id="node4" class="node">
<title>Node3</title>
<g id="a_node4"><a xlink:title=" ">
<polygon fill="white" stroke="#bfbfbf" points="126.49,-75.5 126.49,-95.5 260.29,-95.5 260.29,-75.5 126.49,-75.5"/>
<text text-anchor="middle" x="193.39" y="-82.5" font-family="Helvetica,sans-Serif" font-size="10.00">halco/common/geometry.h</text>
</a>
</g>
</g>
<!-- Node0&#45;&gt;Node3 -->
<g id="edge3" class="edge">
<title>Node0&#45;&gt;Node3</title>
<path fill="none" stroke="midnightblue" d="M396.49,-141.26C343.49,-126.97 278.82,-109.54 236.91,-98.23"/>
<polygon fill="midnightblue" stroke="midnightblue" points="237.59,-94.79 227.02,-95.57 235.77,-101.55 237.59,-94.79"/>
</g>
<!-- Node4 -->
<g id="node5" class="node">
<title>Node4</title>
<g id="a_node5"><a xlink:title=" ">
<polygon fill="white" stroke="#bfbfbf" points="277.88,-69.5 277.88,-101.5 378.9,-101.5 378.9,-69.5 277.88,-69.5"/>
<text text-anchor="start" x="285.88" y="-88.5" font-family="Helvetica,sans-Serif" font-size="10.00">halco/hicann&#45;dls/vx</text>
<text text-anchor="middle" x="328.39" y="-76.5" font-family="Helvetica,sans-Serif" font-size="10.00">/background.h</text>
</a>
</g>
</g>
<!-- Node0&#45;&gt;Node4 -->
<g id="edge4" class="edge">
<title>Node0&#45;&gt;Node4</title>
<path fill="none" stroke="midnightblue" d="M432.01,-138.31C410.84,-127.73 387.05,-115.83 367.6,-106.11"/>
<polygon fill="midnightblue" stroke="midnightblue" points="368.95,-102.87 358.44,-101.52 365.82,-109.13 368.95,-102.87"/>
</g>
<!-- Node5 -->
<g id="node6" class="node">
<title>Node5</title>
<g id="a_node6"><a xlink:title=" ">
<polygon fill="white" stroke="#bfbfbf" points="396.88,-69.5 396.88,-101.5 497.9,-101.5 497.9,-69.5 396.88,-69.5"/>
<text text-anchor="start" x="404.88" y="-88.5" font-family="Helvetica,sans-Serif" font-size="10.00">halco/hicann&#45;dls/vx</text>
<text text-anchor="middle" x="447.39" y="-76.5" font-family="Helvetica,sans-Serif" font-size="10.00">/event.h</text>
</a>
</g>
</g>
<!-- Node0&#45;&gt;Node5 -->
<g id="edge5" class="edge">
<title>Node0&#45;&gt;Node5</title>
<path fill="none" stroke="midnightblue" d="M472.97,-138.31C468.55,-129.36 463.67,-119.48 459.36,-110.76"/>
<polygon fill="midnightblue" stroke="midnightblue" points="462.37,-108.94 454.81,-101.52 456.09,-112.04 462.37,-108.94"/>
</g>
<!-- Node6 -->
<g id="node7" class="node">
<title>Node6</title>
<g id="a_node7"><a xlink:href="genpybind_8h.html" target="_top" xlink:title=" ">
<polygon fill="white" stroke="black" points="157.32,-6.5 157.32,-26.5 269.46,-26.5 269.46,-6.5 157.32,-6.5"/>
<text text-anchor="middle" x="213.39" y="-13.5" font-family="Helvetica,sans-Serif" font-size="10.00">haldls/vx/genpybind.h</text>
</a>
</g>
</g>
<!-- Node0&#45;&gt;Node6 -->
<g id="edge6" class="edge">
<title>Node0&#45;&gt;Node6</title>
<path fill="none" stroke="midnightblue" d="M503.41,-138.39C514.31,-117.22 523.64,-88.26 507.39,-69 476.71,-32.65 343.21,-41.37 296.39,-33 288.19,-31.54 279.55,-29.96 271.06,-28.39"/>
<polygon fill="midnightblue" stroke="midnightblue" points="271.68,-24.94 261.21,-26.56 270.4,-31.83 271.68,-24.94"/>
</g>
<!-- Node7 -->
<g id="node8" class="node">
<title>Node7</title>
<g id="a_node8"><a xlink:href="traits_8h.html" target="_top" xlink:title=" ">
<polygon fill="white" stroke="black" points="554.55,-75.5 554.55,-95.5 642.23,-95.5 642.23,-75.5 554.55,-75.5"/>
<text text-anchor="middle" x="598.39" y="-82.5" font-family="Helvetica,sans-Serif" font-size="10.00">haldls/vx/traits.h</text>
</a>
</g>
</g>
<!-- Node0&#45;&gt;Node7 -->
<g id="edge8" class="edge">
<title>Node0&#45;&gt;Node7</title>
<path fill="none" stroke="midnightblue" d="M524.93,-138.31C542.43,-125.97 562.46,-111.84 577.18,-101.46"/>
<polygon fill="midnightblue" stroke="midnightblue" points="579.44,-104.15 585.59,-95.53 575.4,-98.43 579.44,-104.15"/>
</g>
<!-- Node13 -->
<g id="node14" class="node">
<title>Node13</title>
<g id="a_node14"><a xlink:title=" ">
<polygon fill="white" stroke="#bfbfbf" points="946.88,-6.5 946.88,-26.5 1027.89,-26.5 1027.89,-6.5 946.88,-6.5"/>
<text text-anchor="middle" x="987.39" y="-13.5" font-family="Helvetica,sans-Serif" font-size="10.00">hate/visibility.h</text>
</a>
</g>
</g>
<!-- Node0&#45;&gt;Node13 -->
<g id="edge18" class="edge">
<title>Node0&#45;&gt;Node13</title>
<path fill="none" stroke="midnightblue" d="M573.4,-138.46C599.37,-128.71 627.32,-116.47 651.39,-102 670.56,-90.48 669.05,-78.31 689.39,-69 791.06,-22.45 829.39,-57.94 938.39,-33 942.81,-31.99 947.41,-30.77 951.95,-29.46"/>
<polygon fill="midnightblue" stroke="midnightblue" points="953.12,-32.76 961.67,-26.5 951.08,-26.06 953.12,-32.76"/>
</g>
<!-- Node15 -->
<g id="node16" class="node">
<title>Node15</title>
<g id="a_node16"><a xlink:title=" ">
<polygon fill="white" stroke="#bfbfbf" points="697.99,-75.5 697.99,-95.5 766.79,-95.5 766.79,-75.5 697.99,-75.5"/>
<text text-anchor="middle" x="732.39" y="-82.5" font-family="Helvetica,sans-Serif" font-size="10.00">hate/math.h</text>
</a>
</g>
</g>
<!-- Node0&#45;&gt;Node15 -->
<g id="edge17" class="edge">
<title>Node0&#45;&gt;Node15</title>
<path fill="none" stroke="midnightblue" d="M571.19,-138.34C606.24,-127.11 647.27,-113.94 684.39,-102 687.74,-100.92 691.22,-99.8 694.72,-98.67"/>
<polygon fill="midnightblue" stroke="midnightblue" points="696.03,-101.93 704.47,-95.53 693.88,-95.27 696.03,-101.93"/>
</g>
<!-- Node16 -->
<g id="node17" class="node">
<title>Node16</title>
<g id="a_node17"><a xlink:title=" ">
<polygon fill="white" stroke="#bfbfbf" points="784.77,-75.5 784.77,-95.5 888.01,-95.5 888.01,-75.5 784.77,-75.5"/>
<text text-anchor="middle" x="836.39" y="-82.5" font-family="Helvetica,sans-Serif" font-size="10.00">hxcomm/vx/target.h</text>
</a>
</g>
</g>
<!-- Node0&#45;&gt;Node16 -->
<g id="edge19" class="edge">
<title>Node0&#45;&gt;Node16</title>
<path fill="none" stroke="midnightblue" d="M576.38,-146.51C633.5,-134.27 708.9,-117.75 775.39,-102 780.7,-100.74 786.27,-99.38 791.79,-98.01"/>
<polygon fill="midnightblue" stroke="midnightblue" points="792.75,-101.38 801.6,-95.55 791.05,-94.59 792.75,-101.38"/>
</g>
<!-- Node6&#45;&gt;Node6 -->
<g id="edge7" class="edge">
<title>Node6&#45;&gt;Node6</title>
<path fill="none" stroke="midnightblue" d="M237.28,-26.54C261.11,-32.26 287.46,-28.92 287.46,-16.5 287.46,-5.78 267.82,-1.82 247.12,-4.62"/>
<polygon fill="midnightblue" stroke="midnightblue" points="246.47,-1.18 237.28,-6.46 247.76,-8.06 246.47,-1.18"/>
</g>
<!-- Node7&#45;&gt;Node6 -->
<g id="edge13" class="edge">
<title>Node7&#45;&gt;Node6</title>
<path fill="none" stroke="midnightblue" d="M567.24,-75.47C558.59,-73.16 549.17,-70.81 540.39,-69 433.04,-46.81 404.51,-51.06 296.39,-33 287.77,-31.56 278.67,-29.95 269.78,-28.33"/>
<polygon fill="midnightblue" stroke="midnightblue" points="270.33,-24.87 259.86,-26.5 269.06,-31.76 270.33,-24.87"/>
</g>
<!-- Node8 -->
<g id="node9" class="node">
<title>Node8</title>
<g id="a_node9"><a xlink:title=" ">
<polygon fill="white" stroke="#bfbfbf" points="305.33,-6.5 305.33,-26.5 367.45,-26.5 367.45,-6.5 305.33,-6.5"/>
<text text-anchor="middle" x="336.39" y="-13.5" font-family="Helvetica,sans-Serif" font-size="10.00">type_traits</text>
</a>
</g>
</g>
<!-- Node7&#45;&gt;Node8 -->
<g id="edge9" class="edge">
<title>Node7&#45;&gt;Node8</title>
<path fill="none" stroke="midnightblue" d="M565.63,-75.47C557.41,-73.28 548.59,-71 540.39,-69 467.88,-51.36 447.83,-54.55 376.39,-33 373.58,-32.15 370.69,-31.2 367.81,-30.19"/>
<polygon fill="midnightblue" stroke="midnightblue" points="368.78,-26.82 358.18,-26.64 366.35,-33.39 368.78,-26.82"/>
</g>
<!-- Node9 -->
<g id="node10" class="node">
<title>Node9</title>
<g id="a_node10"><a xlink:title=" ">
<polygon fill="white" stroke="#bfbfbf" points="385.04,-6.5 385.04,-26.5 477.74,-26.5 477.74,-6.5 385.04,-6.5"/>
<text text-anchor="middle" x="431.39" y="-13.5" font-family="Helvetica,sans-Serif" font-size="10.00">boost/variant.hpp</text>
</a>
</g>
</g>
<!-- Node7&#45;&gt;Node9 -->
<g id="edge10" class="edge">
<title>Node7&#45;&gt;Node9</title>
<path fill="none" stroke="midnightblue" d="M575.87,-75.46C546.98,-63.88 496.69,-43.7 463.72,-30.47"/>
<polygon fill="midnightblue" stroke="midnightblue" points="464.67,-27.08 454.09,-26.61 462.06,-33.58 464.67,-27.08"/>
</g>
<!-- Node10 -->
<g id="node11" class="node">
<title>Node10</title>
<g id="a_node11"><a xlink:title=" ">
<polygon fill="white" stroke="#bfbfbf" points="495.77,-0.5 495.77,-32.5 589.01,-32.5 589.01,-0.5 495.77,-0.5"/>
<text text-anchor="start" x="503.77" y="-19.5" font-family="Helvetica,sans-Serif" font-size="10.00">fisch/vx/container</text>
<text text-anchor="middle" x="542.39" y="-7.5" font-family="Helvetica,sans-Serif" font-size="10.00">_fwd.h</text>
</a>
</g>
</g>
<!-- Node7&#45;&gt;Node10 -->
<g id="edge11" class="edge">
<title>Node7&#45;&gt;Node10</title>
<path fill="none" stroke="midnightblue" d="M590.84,-75.46C583.36,-66.53 571.62,-52.48 561.57,-40.45"/>
<polygon fill="midnightblue" stroke="midnightblue" points="564.05,-37.96 554.95,-32.53 558.68,-42.45 564.05,-37.96"/>
</g>
<!-- Node11 -->
<g id="node12" class="node">
<title>Node11</title>
<g id="a_node12"><a xlink:title=" ">
<polygon fill="white" stroke="#bfbfbf" points="606.77,-0.5 606.77,-32.5 700.01,-32.5 700.01,-0.5 606.77,-0.5"/>
<text text-anchor="start" x="614.77" y="-19.5" font-family="Helvetica,sans-Serif" font-size="10.00">fisch/vx/container</text>
<text text-anchor="middle" x="653.39" y="-7.5" font-family="Helvetica,sans-Serif" font-size="10.00">_ticket.h</text>
</a>
</g>
</g>
<!-- Node7&#45;&gt;Node11 -->
<g id="edge12" class="edge">
<title>Node7&#45;&gt;Node11</title>
<path fill="none" stroke="midnightblue" d="M605.81,-75.46C613.14,-66.53 624.68,-52.48 634.55,-40.45"/>
<polygon fill="midnightblue" stroke="midnightblue" points="637.41,-42.48 641.05,-32.53 632,-38.04 637.41,-42.48"/>
</g>
<!-- Node12 -->
<g id="node13" class="node">
<title>Node12</title>
<g id="a_node13"><a xlink:title=" ">
<polygon fill="white" stroke="#bfbfbf" points="717.77,-6.5 717.77,-26.5 801.01,-26.5 801.01,-6.5 717.77,-6.5"/>
<text text-anchor="middle" x="759.39" y="-13.5" font-family="Helvetica,sans-Serif" font-size="10.00">hate/type_list.h</text>
</a>
</g>
</g>
<!-- Node7&#45;&gt;Node12 -->
<g id="edge14" class="edge">
<title>Node7&#45;&gt;Node12</title>
<path fill="none" stroke="midnightblue" d="M620.1,-75.46C647.95,-63.88 696.43,-43.7 728.22,-30.47"/>
<polygon fill="midnightblue" stroke="midnightblue" points="729.62,-33.68 737.5,-26.61 726.93,-27.22 729.62,-33.68"/>
</g>
<!-- Node7&#45;&gt;Node13 -->
<g id="edge15" class="edge">
<title>Node7&#45;&gt;Node13</title>
<path fill="none" stroke="midnightblue" d="M629.21,-75.44C637.94,-73.1 647.49,-70.75 656.39,-69 780.37,-44.63 814.99,-60.16 938.39,-33 942.87,-32.01 947.53,-30.8 952.12,-29.48"/>
<polygon fill="midnightblue" stroke="midnightblue" points="953.39,-32.76 961.94,-26.5 951.35,-26.06 953.39,-32.76"/>
</g>
<!-- Node14 -->
<g id="node15" class="node">
<title>Node14</title>
<g id="a_node15"><a xlink:title=" ">
<polygon fill="white" stroke="#bfbfbf" points="819.43,-6.5 819.43,-26.5 929.34,-26.5 929.34,-6.5 819.43,-6.5"/>
<text text-anchor="middle" x="874.39" y="-13.5" font-family="Helvetica,sans-Serif" font-size="10.00">fisch/vx/container.def</text>
</a>
</g>
</g>
<!-- Node7&#45;&gt;Node14 -->
<g id="edge16" class="edge">
<title>Node7&#45;&gt;Node14</title>
<path fill="none" stroke="midnightblue" d="M631.47,-75.47C639.6,-73.3 648.3,-71.03 656.39,-69 724.57,-51.92 742.01,-49.27 810.39,-33 815.81,-31.71 821.49,-30.35 827.13,-28.99"/>
<polygon fill="midnightblue" stroke="midnightblue" points="828.27,-32.31 837.17,-26.57 826.63,-25.51 828.27,-32.31"/>
</g>
</g>
</svg>
