<?xml version="1.0" encoding="UTF-8" standalone="no"?>
<!DOCTYPE svg PUBLIC "-//W3C//DTD SVG 1.1//EN"
 "http://www.w3.org/Graphics/SVG/1.1/DTD/svg11.dtd">
<!-- Generated by graphviz version 2.43.0 (0)
 -->
<!-- Title: /jenkins/jenlib_workspaces_f9/bld_nightly&#45;haldls.YmxkX25pZ2h0bHktaGFsZGxzIzY1NQ.x/haldls/include/haldls/vx/barrier.h Pages: 1 -->
<svg width="246pt" height="251pt"
 viewBox="0.00 0.00 246.36 251.00" xmlns="http://www.w3.org/2000/svg" xmlns:xlink="http://www.w3.org/1999/xlink">
<g id="graph0" class="graph" transform="scale(1 1) rotate(0) translate(4 247)">
<title>/jenkins/jenlib_workspaces_f9/bld_nightly&#45;haldls.YmxkX25pZ2h0bHktaGFsZGxzIzY1NQ.x/haldls/include/haldls/vx/barrier.h</title>
<polygon fill="white" stroke="transparent" points="-4,4 -4,-247 242.36,-247 242.36,4 -4,4"/>
<!-- Node11 -->
<g id="node1" class="node">
<title>Node11</title>
<g id="a_node1"><a xlink:title=" ">
<polygon fill="#bfbfbf" stroke="black" points="59,-186.5 59,-242.5 238.36,-242.5 238.36,-186.5 59,-186.5"/>
<text text-anchor="start" x="67" y="-229.5" font-family="Helvetica,sans-Serif" font-size="10.00">/jenkins/jenlib_workspaces</text>
<text text-anchor="start" x="67" y="-217.5" font-family="Helvetica,sans-Serif" font-size="10.00">_f9/bld_nightly&#45;haldls.YmxkX25p</text>
<text text-anchor="start" x="67" y="-205.5" font-family="Helvetica,sans-Serif" font-size="10.00">Z2h0bHktaGFsZGxzIzY1NQ.x/haldls</text>
<text text-anchor="middle" x="148.68" y="-193.5" font-family="Helvetica,sans-Serif" font-size="10.00">/include/haldls/vx/barrier.h</text>
</a>
</g>
</g>
<!-- Node12 -->
<g id="node2" class="node">
<title>Node12</title>
<g id="a_node2"><a xlink:href="haldls_8h.html" target="_top" xlink:title=" ">
<polygon fill="white" stroke="black" points="0,-93.5 0,-149.5 179.36,-149.5 179.36,-93.5 0,-93.5"/>
<text text-anchor="start" x="8" y="-136.5" font-family="Helvetica,sans-Serif" font-size="10.00">/jenkins/jenlib_workspaces</text>
<text text-anchor="start" x="8" y="-124.5" font-family="Helvetica,sans-Serif" font-size="10.00">_f9/bld_nightly&#45;haldls.YmxkX25p</text>
<text text-anchor="start" x="8" y="-112.5" font-family="Helvetica,sans-Serif" font-size="10.00">Z2h0bHktaGFsZGxzIzY1NQ.x/haldls</text>
<text text-anchor="middle" x="89.68" y="-100.5" font-family="Helvetica,sans-Serif" font-size="10.00">/include/haldls/vx/haldls.h</text>
</a>
</g>
</g>
<!-- Node11&#45;&gt;Node12 -->
<g id="edge1" class="edge">
<title>Node11&#45;&gt;Node12</title>
<path fill="none" stroke="midnightblue" d="M125.37,-177.55C119.38,-168.31 113.03,-158.51 107.37,-149.78"/>
<polygon fill="midnightblue" stroke="midnightblue" points="122.6,-179.71 130.98,-186.2 128.47,-175.9 122.6,-179.71"/>
</g>
<!-- Node13 -->
<g id="node3" class="node">
<title>Node13</title>
<g id="a_node3"><a xlink:href="pyhaldls_8h.html" target="_top" xlink:title=" ">
<polygon fill="white" stroke="black" points="59,-0.5 59,-56.5 238.36,-56.5 238.36,-0.5 59,-0.5"/>
<text text-anchor="start" x="67" y="-43.5" font-family="Helvetica,sans-Serif" font-size="10.00">/jenkins/jenlib_workspaces</text>
<text text-anchor="start" x="67" y="-31.5" font-family="Helvetica,sans-Serif" font-size="10.00">_f9/bld_nightly&#45;haldls.YmxkX25p</text>
<text text-anchor="start" x="67" y="-19.5" font-family="Helvetica,sans-Serif" font-size="10.00">Z2h0bHktaGFsZGxzIzY1NQ.x/haldls</text>
<text text-anchor="middle" x="148.68" y="-7.5" font-family="Helvetica,sans-Serif" font-size="10.00">/include/haldls/vx/pyhaldls.h</text>
</a>
</g>
</g>
<!-- Node11&#45;&gt;Node13 -->
<g id="edge3" class="edge">
<title>Node11&#45;&gt;Node13</title>
<path fill="none" stroke="midnightblue" d="M176.03,-177.73C181.24,-169.09 185.92,-159.57 188.68,-150 195.7,-125.66 195.7,-117.34 188.68,-93 184.96,-80.11 177.75,-67.31 170.47,-56.62"/>
<polygon fill="midnightblue" stroke="midnightblue" points="172.93,-176.08 170.47,-186.38 178.82,-179.86 172.93,-176.08"/>
</g>
<!-- Node12&#45;&gt;Node13 -->
<g id="edge2" class="edge">
<title>Node12&#45;&gt;Node13</title>
<path fill="none" stroke="midnightblue" d="M112.98,-84.55C118.98,-75.31 125.33,-65.51 130.99,-56.78"/>
<polygon fill="midnightblue" stroke="midnightblue" points="109.88,-82.9 107.38,-93.2 115.76,-86.71 109.88,-82.9"/>
</g>
</g>
</svg>
