<?xml version="1.0" encoding="UTF-8" standalone="no"?>
<!DOCTYPE svg PUBLIC "-//W3C//DTD SVG 1.1//EN"
 "http://www.w3.org/Graphics/SVG/1.1/DTD/svg11.dtd">
<!-- Generated by graphviz version 2.43.0 (0)
 -->
<!-- Title: /jenkins/jenlib_workspaces_f9/bld_nightly&#45;haldls.YmxkX25pZ2h0bHktaGFsZGxzIzY1NQ.x/haldls/include/haldls/vx/cadc.h Pages: 1 -->
<svg width="1078pt" height="260pt"
 viewBox="0.00 0.00 1077.70 260.00" xmlns="http://www.w3.org/2000/svg" xmlns:xlink="http://www.w3.org/1999/xlink">
<g id="graph0" class="graph" transform="scale(1 1) rotate(0) translate(4 256)">
<title>/jenkins/jenlib_workspaces_f9/bld_nightly&#45;haldls.YmxkX25pZ2h0bHktaGFsZGxzIzY1NQ.x/haldls/include/haldls/vx/cadc.h</title>
<polygon fill="white" stroke="transparent" points="-4,4 -4,-256 1073.7,-256 1073.7,4 -4,4"/>
<!-- Node0 -->
<g id="node1" class="node">
<title>Node0</title>
<g id="a_node1"><a xlink:title=" ">
<polygon fill="#bfbfbf" stroke="black" points="365.39,-195.5 365.39,-251.5 544.75,-251.5 544.75,-195.5 365.39,-195.5"/>
<text text-anchor="start" x="373.39" y="-238.5" font-family="Helvetica,sans-Serif" font-size="10.00">/jenkins/jenlib_workspaces</text>
<text text-anchor="start" x="373.39" y="-226.5" font-family="Helvetica,sans-Serif" font-size="10.00">_f9/bld_nightly&#45;haldls.YmxkX25p</text>
<text text-anchor="start" x="373.39" y="-214.5" font-family="Helvetica,sans-Serif" font-size="10.00">Z2h0bHktaGFsZGxzIzY1NQ.x/haldls</text>
<text text-anchor="middle" x="455.07" y="-202.5" font-family="Helvetica,sans-Serif" font-size="10.00">/include/haldls/vx/cadc.h</text>
</a>
</g>
</g>
<!-- Node1 -->
<g id="node2" class="node">
<title>Node1</title>
<g id="a_node2"><a xlink:title=" ">
<polygon fill="white" stroke="#bfbfbf" points="16.17,-132.5 16.17,-152.5 149.97,-152.5 149.97,-132.5 16.17,-132.5"/>
<text text-anchor="middle" x="83.07" y="-139.5" font-family="Helvetica,sans-Serif" font-size="10.00">halco/common/geometry.h</text>
</a>
</g>
</g>
<!-- Node0&#45;&gt;Node1 -->
<g id="edge1" class="edge">
<title>Node0&#45;&gt;Node1</title>
<path fill="none" stroke="midnightblue" d="M365.02,-203.38C293.27,-188.14 195.28,-167.33 135.73,-154.68"/>
<polygon fill="midnightblue" stroke="midnightblue" points="136.3,-151.23 125.8,-152.57 134.85,-158.07 136.3,-151.23"/>
</g>
<!-- Node2 -->
<g id="node3" class="node">
<title>Node2</title>
<g id="a_node3"><a xlink:title=" ">
<polygon fill="white" stroke="#bfbfbf" points="167.95,-126.5 167.95,-158.5 276.19,-158.5 276.19,-126.5 167.95,-126.5"/>
<text text-anchor="start" x="175.95" y="-145.5" font-family="Helvetica,sans-Serif" font-size="10.00">halco/common/typed</text>
<text text-anchor="middle" x="222.07" y="-133.5" font-family="Helvetica,sans-Serif" font-size="10.00">_array.h</text>
</a>
</g>
</g>
<!-- Node0&#45;&gt;Node2 -->
<g id="edge2" class="edge">
<title>Node0&#45;&gt;Node2</title>
<path fill="none" stroke="midnightblue" d="M375.21,-195.42C342.55,-184.35 305.6,-171.82 276.18,-161.85"/>
<polygon fill="midnightblue" stroke="midnightblue" points="277.11,-158.46 266.51,-158.57 274.86,-165.09 277.11,-158.46"/>
</g>
<!-- Node3 -->
<g id="node4" class="node">
<title>Node3</title>
<g id="a_node4"><a xlink:title=" ">
<polygon fill="white" stroke="#bfbfbf" points="294.56,-126.5 294.56,-158.5 395.58,-158.5 395.58,-126.5 294.56,-126.5"/>
<text text-anchor="start" x="302.56" y="-145.5" font-family="Helvetica,sans-Serif" font-size="10.00">halco/hicann&#45;dls/vx</text>
<text text-anchor="middle" x="345.07" y="-133.5" font-family="Helvetica,sans-Serif" font-size="10.00">/cadc.h</text>
</a>
</g>
</g>
<!-- Node0&#45;&gt;Node3 -->
<g id="edge3" class="edge">
<title>Node0&#45;&gt;Node3</title>
<path fill="none" stroke="midnightblue" d="M417.22,-195.31C403.15,-185.21 387.41,-173.91 374.24,-164.45"/>
<polygon fill="midnightblue" stroke="midnightblue" points="376.16,-161.52 365.99,-158.52 372.07,-167.2 376.16,-161.52"/>
</g>
<!-- Node4 -->
<g id="node5" class="node">
<title>Node4</title>
<g id="a_node5"><a xlink:href="genpybind_8h.html" target="_top" xlink:title=" ">
<polygon fill="white" stroke="black" points="0,-6.5 0,-26.5 112.14,-26.5 112.14,-6.5 0,-6.5"/>
<text text-anchor="middle" x="56.07" y="-13.5" font-family="Helvetica,sans-Serif" font-size="10.00">haldls/vx/genpybind.h</text>
</a>
</g>
</g>
<!-- Node0&#45;&gt;Node4 -->
<g id="edge4" class="edge">
<title>Node0&#45;&gt;Node4</title>
<path fill="none" stroke="midnightblue" d="M447.47,-195.48C440.03,-173.78 426.63,-144.05 405.07,-126 359.68,-87.99 195.02,-47.74 109.09,-28.72"/>
<polygon fill="midnightblue" stroke="midnightblue" points="109.78,-25.28 99.26,-26.56 108.28,-32.12 109.78,-25.28"/>
</g>
<!-- Node5 -->
<g id="node6" class="node">
<title>Node5</title>
<g id="a_node6"><a xlink:href="sram__controller_8h.html" target="_top" xlink:title=" ">
<polygon fill="white" stroke="black" points="525.62,-132.5 525.62,-152.5 660.52,-152.5 660.52,-132.5 525.62,-132.5"/>
<text text-anchor="middle" x="593.07" y="-139.5" font-family="Helvetica,sans-Serif" font-size="10.00">haldls/vx/sram_controller.h</text>
</a>
</g>
</g>
<!-- Node0&#45;&gt;Node5 -->
<g id="edge6" class="edge">
<title>Node0&#45;&gt;Node5</title>
<path fill="none" stroke="midnightblue" d="M502.56,-195.31C524.74,-182.62 550.21,-168.04 568.47,-157.59"/>
<polygon fill="midnightblue" stroke="midnightblue" points="570.36,-160.53 577.3,-152.53 566.88,-154.46 570.36,-160.53"/>
</g>
<!-- Node10 -->
<g id="node11" class="node">
<title>Node10</title>
<g id="a_node11"><a xlink:href="traits_8h.html" target="_top" xlink:title=" ">
<polygon fill="white" stroke="black" points="483.23,-69.5 483.23,-89.5 570.91,-89.5 570.91,-69.5 483.23,-69.5"/>
<text text-anchor="middle" x="527.07" y="-76.5" font-family="Helvetica,sans-Serif" font-size="10.00">haldls/vx/traits.h</text>
</a>
</g>
</g>
<!-- Node0&#45;&gt;Node10 -->
<g id="edge23" class="edge">
<title>Node0&#45;&gt;Node10</title>
<path fill="none" stroke="midnightblue" d="M468.78,-195.46C483.2,-167.03 505.48,-123.09 517.9,-98.59"/>
<polygon fill="midnightblue" stroke="midnightblue" points="521.03,-100.16 522.43,-89.66 514.78,-97 521.03,-100.16"/>
</g>
<!-- Node15 -->
<g id="node16" class="node">
<title>Node15</title>
<g id="a_node16"><a xlink:title=" ">
<polygon fill="white" stroke="#bfbfbf" points="710.57,-6.5 710.57,-26.5 791.57,-26.5 791.57,-6.5 710.57,-6.5"/>
<text text-anchor="middle" x="751.07" y="-13.5" font-family="Helvetica,sans-Serif" font-size="10.00">hate/visibility.h</text>
</a>
</g>
</g>
<!-- Node0&#45;&gt;Node15 -->
<g id="edge24" class="edge">
<title>Node0&#45;&gt;Node15</title>
<path fill="none" stroke="midnightblue" d="M544.85,-211.36C586.09,-202.59 633.6,-186.93 669.07,-159 710.4,-126.46 734.85,-66.92 745.21,-36.49"/>
<polygon fill="midnightblue" stroke="midnightblue" points="748.63,-37.3 748.4,-26.71 741.98,-35.13 748.63,-37.3"/>
</g>
<!-- Node18 -->
<g id="node19" class="node">
<title>Node18</title>
<g id="a_node19"><a xlink:title=" ">
<polygon fill="white" stroke="#bfbfbf" points="751.45,-132.5 751.45,-152.5 854.69,-152.5 854.69,-132.5 751.45,-132.5"/>
<text text-anchor="middle" x="803.07" y="-139.5" font-family="Helvetica,sans-Serif" font-size="10.00">hxcomm/vx/target.h</text>
</a>
</g>
</g>
<!-- Node0&#45;&gt;Node18 -->
<g id="edge25" class="edge">
<title>Node0&#45;&gt;Node18</title>
<path fill="none" stroke="midnightblue" d="M544.97,-202.48C600.39,-190.08 672.88,-173.76 737.07,-159 742.8,-157.68 748.81,-156.29 754.77,-154.9"/>
<polygon fill="midnightblue" stroke="midnightblue" points="755.76,-158.26 764.7,-152.58 754.16,-151.45 755.76,-158.26"/>
</g>
<!-- Node4&#45;&gt;Node4 -->
<g id="edge5" class="edge">
<title>Node4&#45;&gt;Node4</title>
<path fill="none" stroke="midnightblue" d="M84.58,-26.56C107.07,-30.45 130.14,-27.1 130.14,-16.5 130.14,-7.48 113.41,-3.71 94.55,-5.19"/>
<polygon fill="midnightblue" stroke="midnightblue" points="94.06,-1.72 84.58,-6.44 94.94,-8.67 94.06,-1.72"/>
</g>
<!-- Node5&#45;&gt;Node4 -->
<g id="edge11" class="edge">
<title>Node5&#45;&gt;Node4</title>
<path fill="none" stroke="midnightblue" d="M571.44,-132.49C547.49,-122.44 507.81,-105.53 474.07,-90 454.75,-81.11 451.46,-75.05 431.07,-69 305.71,-31.8 268.29,-53.01 139.07,-33 130.14,-31.62 120.69,-30 111.49,-28.34"/>
<polygon fill="midnightblue" stroke="midnightblue" points="112.12,-24.9 101.65,-26.54 110.85,-31.78 112.12,-24.9"/>
</g>
<!-- Node6 -->
<g id="node7" class="node">
<title>Node6</title>
<g id="a_node7"><a xlink:href="common_8h.html" target="_top" xlink:title=" ">
<polygon fill="white" stroke="black" points="822.9,-69.5 822.9,-89.5 927.24,-89.5 927.24,-69.5 822.9,-69.5"/>
<text text-anchor="middle" x="875.07" y="-76.5" font-family="Helvetica,sans-Serif" font-size="10.00">haldls/vx/common.h</text>
</a>
</g>
</g>
<!-- Node5&#45;&gt;Node6 -->
<g id="edge7" class="edge">
<title>Node5&#45;&gt;Node6</title>
<path fill="none" stroke="midnightblue" d="M634.68,-132.5C684.77,-121.66 768.91,-103.46 823.19,-91.72"/>
<polygon fill="midnightblue" stroke="midnightblue" points="824.26,-95.07 833.29,-89.54 822.78,-88.23 824.26,-95.07"/>
</g>
<!-- Node5&#45;&gt;Node10 -->
<g id="edge12" class="edge">
<title>Node5&#45;&gt;Node10</title>
<path fill="none" stroke="midnightblue" d="M583.33,-132.5C573.1,-123.04 556.79,-107.96 544.36,-96.47"/>
<polygon fill="midnightblue" stroke="midnightblue" points="546.57,-93.75 536.85,-89.54 541.82,-98.9 546.57,-93.75"/>
</g>
<!-- Node5&#45;&gt;Node15 -->
<g id="edge22" class="edge">
<title>Node5&#45;&gt;Node15</title>
<path fill="none" stroke="midnightblue" d="M593.8,-132.2C595.48,-117.03 600.89,-86.84 618.07,-69 625.13,-61.67 677.92,-42.54 714.83,-29.77"/>
<polygon fill="midnightblue" stroke="midnightblue" points="715.98,-33.07 724.3,-26.51 713.7,-26.45 715.98,-33.07"/>
</g>
<!-- Node17 -->
<g id="node18" class="node">
<title>Node17</title>
<g id="a_node18"><a xlink:title=" ">
<polygon fill="white" stroke="#bfbfbf" points="626.67,-69.5 626.67,-89.5 695.47,-89.5 695.47,-69.5 626.67,-69.5"/>
<text text-anchor="middle" x="661.07" y="-76.5" font-family="Helvetica,sans-Serif" font-size="10.00">hate/math.h</text>
</a>
</g>
</g>
<!-- Node5&#45;&gt;Node17 -->
<g id="edge21" class="edge">
<title>Node5&#45;&gt;Node17</title>
<path fill="none" stroke="midnightblue" d="M603.11,-132.5C613.65,-123.04 630.46,-107.96 643.26,-96.47"/>
<polygon fill="midnightblue" stroke="midnightblue" points="645.89,-98.82 651,-89.54 641.22,-93.61 645.89,-98.82"/>
</g>
<!-- Node7 -->
<g id="node8" class="node">
<title>Node7</title>
<g id="a_node8"><a xlink:title=" ">
<polygon fill="white" stroke="#bfbfbf" points="810.01,-6.5 810.01,-26.5 872.13,-26.5 872.13,-6.5 810.01,-6.5"/>
<text text-anchor="middle" x="841.07" y="-13.5" font-family="Helvetica,sans-Serif" font-size="10.00">type_traits</text>
</a>
</g>
</g>
<!-- Node6&#45;&gt;Node7 -->
<g id="edge8" class="edge">
<title>Node6&#45;&gt;Node7</title>
<path fill="none" stroke="midnightblue" d="M870.05,-69.5C865.08,-60.58 857.33,-46.67 851.09,-35.48"/>
<polygon fill="midnightblue" stroke="midnightblue" points="854.03,-33.57 846.11,-26.54 847.92,-36.98 854.03,-33.57"/>
</g>
<!-- Node8 -->
<g id="node9" class="node">
<title>Node8</title>
<g id="a_node9"><a xlink:title=" ">
<polygon fill="white" stroke="#bfbfbf" points="889.68,-6.5 889.68,-26.5 928.46,-26.5 928.46,-6.5 889.68,-6.5"/>
<text text-anchor="middle" x="909.07" y="-13.5" font-family="Helvetica,sans-Serif" font-size="10.00">utility</text>
</a>
</g>
</g>
<!-- Node6&#45;&gt;Node8 -->
<g id="edge9" class="edge">
<title>Node6&#45;&gt;Node8</title>
<path fill="none" stroke="midnightblue" d="M880.09,-69.5C885.06,-60.58 892.81,-46.67 899.05,-35.48"/>
<polygon fill="midnightblue" stroke="midnightblue" points="902.22,-36.98 904.03,-26.54 896.11,-33.57 902.22,-36.98"/>
</g>
<!-- Node9 -->
<g id="node10" class="node">
<title>Node9</title>
<g id="a_node10"><a xlink:title=" ">
<polygon fill="white" stroke="#bfbfbf" points="946.45,-6.5 946.45,-26.5 1069.7,-26.5 1069.7,-6.5 946.45,-6.5"/>
<text text-anchor="middle" x="1008.07" y="-13.5" font-family="Helvetica,sans-Serif" font-size="10.00">fisch/vx/omnibus_data.h</text>
</a>
</g>
</g>
<!-- Node6&#45;&gt;Node9 -->
<g id="edge10" class="edge">
<title>Node6&#45;&gt;Node9</title>
<path fill="none" stroke="midnightblue" d="M894.7,-69.5C916.99,-59.27 953.6,-42.48 979.16,-30.76"/>
<polygon fill="midnightblue" stroke="midnightblue" points="980.74,-33.89 988.37,-26.54 977.82,-27.53 980.74,-33.89"/>
</g>
<!-- Node10&#45;&gt;Node4 -->
<g id="edge17" class="edge">
<title>Node10&#45;&gt;Node4</title>
<path fill="none" stroke="midnightblue" d="M483.09,-71.04C478.36,-70.32 473.62,-69.62 469.07,-69 322.89,-49.07 285.02,-54.56 139.07,-33 130.02,-31.66 120.45,-30.06 111.15,-28.39"/>
<polygon fill="midnightblue" stroke="midnightblue" points="111.66,-24.93 101.2,-26.57 110.4,-31.81 111.66,-24.93"/>
</g>
<!-- Node10&#45;&gt;Node7 -->
<g id="edge13" class="edge">
<title>Node10&#45;&gt;Node7</title>
<path fill="none" stroke="midnightblue" d="M571.33,-73.98C626,-67.75 721.54,-54.77 801.07,-33 804.23,-32.14 807.49,-31.11 810.71,-30"/>
<polygon fill="midnightblue" stroke="midnightblue" points="811.99,-33.26 820.17,-26.53 809.58,-26.69 811.99,-33.26"/>
</g>
<!-- Node11 -->
<g id="node12" class="node">
<title>Node11</title>
<g id="a_node12"><a xlink:title=" ">
<polygon fill="white" stroke="#bfbfbf" points="599.72,-6.5 599.72,-26.5 692.42,-26.5 692.42,-6.5 599.72,-6.5"/>
<text text-anchor="middle" x="646.07" y="-13.5" font-family="Helvetica,sans-Serif" font-size="10.00">boost/variant.hpp</text>
</a>
</g>
</g>
<!-- Node10&#45;&gt;Node11 -->
<g id="edge14" class="edge">
<title>Node10&#45;&gt;Node11</title>
<path fill="none" stroke="midnightblue" d="M544.63,-69.5C564.32,-59.41 596.47,-42.93 619.29,-31.23"/>
<polygon fill="midnightblue" stroke="midnightblue" points="621.14,-34.21 628.44,-26.54 617.95,-27.98 621.14,-34.21"/>
</g>
<!-- Node12 -->
<g id="node13" class="node">
<title>Node12</title>
<g id="a_node13"><a xlink:title=" ">
<polygon fill="white" stroke="#bfbfbf" points="148.45,-0.5 148.45,-32.5 241.69,-32.5 241.69,-0.5 148.45,-0.5"/>
<text text-anchor="start" x="156.45" y="-19.5" font-family="Helvetica,sans-Serif" font-size="10.00">fisch/vx/container</text>
<text text-anchor="middle" x="195.07" y="-7.5" font-family="Helvetica,sans-Serif" font-size="10.00">_fwd.h</text>
</a>
</g>
</g>
<!-- Node10&#45;&gt;Node12 -->
<g id="edge15" class="edge">
<title>Node10&#45;&gt;Node12</title>
<path fill="none" stroke="midnightblue" d="M483.15,-71.3C415.11,-60.15 288.78,-39.43 251.76,-32.91"/>
<polygon fill="midnightblue" stroke="midnightblue" points="252.26,-29.44 241.79,-31.05 250.98,-36.32 252.26,-29.44"/>
</g>
<!-- Node13 -->
<g id="node14" class="node">
<title>Node13</title>
<g id="a_node14"><a xlink:title=" ">
<polygon fill="white" stroke="#bfbfbf" points="259.45,-0.5 259.45,-32.5 352.69,-32.5 352.69,-0.5 259.45,-0.5"/>
<text text-anchor="start" x="267.45" y="-19.5" font-family="Helvetica,sans-Serif" font-size="10.00">fisch/vx/container</text>
<text text-anchor="middle" x="306.07" y="-7.5" font-family="Helvetica,sans-Serif" font-size="10.00">_ticket.h</text>
</a>
</g>
</g>
<!-- Node10&#45;&gt;Node13 -->
<g id="edge16" class="edge">
<title>Node10&#45;&gt;Node13</title>
<path fill="none" stroke="midnightblue" d="M493.67,-69.42C462.16,-60.84 413.36,-47.5 362.69,-33.44"/>
<polygon fill="midnightblue" stroke="midnightblue" points="363.44,-30.02 352.87,-30.71 361.57,-36.76 363.44,-30.02"/>
</g>
<!-- Node14 -->
<g id="node15" class="node">
<title>Node14</title>
<g id="a_node15"><a xlink:title=" ">
<polygon fill="white" stroke="#bfbfbf" points="370.45,-6.5 370.45,-26.5 453.69,-26.5 453.69,-6.5 370.45,-6.5"/>
<text text-anchor="middle" x="412.07" y="-13.5" font-family="Helvetica,sans-Serif" font-size="10.00">hate/type_list.h</text>
</a>
</g>
</g>
<!-- Node10&#45;&gt;Node14 -->
<g id="edge18" class="edge">
<title>Node10&#45;&gt;Node14</title>
<path fill="none" stroke="midnightblue" d="M510.1,-69.5C491.08,-59.41 460.01,-42.93 437.95,-31.23"/>
<polygon fill="midnightblue" stroke="midnightblue" points="439.58,-28.13 429.11,-26.54 436.3,-34.32 439.58,-28.13"/>
</g>
<!-- Node10&#45;&gt;Node15 -->
<g id="edge19" class="edge">
<title>Node10&#45;&gt;Node15</title>
<path fill="none" stroke="midnightblue" d="M563.53,-69.47C598.82,-60.61 653.78,-46.5 701.07,-33 704.89,-31.91 708.87,-30.74 712.84,-29.54"/>
<polygon fill="midnightblue" stroke="midnightblue" points="714.04,-32.84 722.58,-26.57 712,-26.14 714.04,-32.84"/>
</g>
<!-- Node16 -->
<g id="node17" class="node">
<title>Node16</title>
<g id="a_node17"><a xlink:title=" ">
<polygon fill="white" stroke="#bfbfbf" points="472.12,-6.5 472.12,-26.5 582.03,-26.5 582.03,-6.5 472.12,-6.5"/>
<text text-anchor="middle" x="527.07" y="-13.5" font-family="Helvetica,sans-Serif" font-size="10.00">fisch/vx/container.def</text>
</a>
</g>
</g>
<!-- Node10&#45;&gt;Node16 -->
<g id="edge20" class="edge">
<title>Node10&#45;&gt;Node16</title>
<path fill="none" stroke="midnightblue" d="M527.07,-69.5C527.07,-60.94 527.07,-47.78 527.07,-36.85"/>
<polygon fill="midnightblue" stroke="midnightblue" points="530.57,-36.54 527.07,-26.54 523.57,-36.54 530.57,-36.54"/>
</g>
</g>
</svg>
