<?xml version="1.0" encoding="UTF-8" standalone="no"?>
<!DOCTYPE svg PUBLIC "-//W3C//DTD SVG 1.1//EN"
 "http://www.w3.org/Graphics/SVG/1.1/DTD/svg11.dtd">
<!-- Generated by graphviz version 2.43.0 (0)
 -->
<!-- Title: /jenkins/jenlib_workspaces_f9/bld_nightly&#45;haldls.YmxkX25pZ2h0bHktaGFsZGxzIzY1NQ.x/haldls/include/haldls/vx/capmem.h Pages: 1 -->
<svg width="1371pt" height="203pt"
 viewBox="0.00 0.00 1371.01 203.00" xmlns="http://www.w3.org/2000/svg" xmlns:xlink="http://www.w3.org/1999/xlink">
<g id="graph0" class="graph" transform="scale(1 1) rotate(0) translate(4 199)">
<title>/jenkins/jenlib_workspaces_f9/bld_nightly&#45;haldls.YmxkX25pZ2h0bHktaGFsZGxzIzY1NQ.x/haldls/include/haldls/vx/capmem.h</title>
<polygon fill="white" stroke="transparent" points="-4,4 -4,-199 1367.01,-199 1367.01,4 -4,4"/>
<!-- Node0 -->
<g id="node1" class="node">
<title>Node0</title>
<g id="a_node1"><a xlink:title=" ">
<polygon fill="#bfbfbf" stroke="black" points="510.71,-138.5 510.71,-194.5 690.07,-194.5 690.07,-138.5 510.71,-138.5"/>
<text text-anchor="start" x="518.71" y="-181.5" font-family="Helvetica,sans-Serif" font-size="10.00">/jenkins/jenlib_workspaces</text>
<text text-anchor="start" x="518.71" y="-169.5" font-family="Helvetica,sans-Serif" font-size="10.00">_f9/bld_nightly&#45;haldls.YmxkX25p</text>
<text text-anchor="start" x="518.71" y="-157.5" font-family="Helvetica,sans-Serif" font-size="10.00">Z2h0bHktaGFsZGxzIzY1NQ.x/haldls</text>
<text text-anchor="middle" x="600.39" y="-145.5" font-family="Helvetica,sans-Serif" font-size="10.00">/include/haldls/vx/capmem.h</text>
</a>
</g>
</g>
<!-- Node1 -->
<g id="node2" class="node">
<title>Node1</title>
<g id="a_node2"><a xlink:title=" ">
<polygon fill="white" stroke="#bfbfbf" points="0,-75.5 0,-95.5 38.78,-95.5 38.78,-75.5 0,-75.5"/>
<text text-anchor="middle" x="19.39" y="-82.5" font-family="Helvetica,sans-Serif" font-size="10.00">array</text>
</a>
</g>
</g>
<!-- Node0&#45;&gt;Node1 -->
<g id="edge1" class="edge">
<title>Node0&#45;&gt;Node1</title>
<path fill="none" stroke="midnightblue" d="M510.31,-165.41C399.24,-162.99 205.84,-151.17 48.39,-102 46.51,-101.41 44.61,-100.7 42.73,-99.91"/>
<polygon fill="midnightblue" stroke="midnightblue" points="44.19,-96.73 33.67,-95.51 41.13,-103.03 44.19,-96.73"/>
</g>
<!-- Node2 -->
<g id="node3" class="node">
<title>Node2</title>
<g id="a_node3"><a xlink:title=" ">
<polygon fill="white" stroke="#bfbfbf" points="56.94,-75.5 56.94,-95.5 101.84,-95.5 101.84,-75.5 56.94,-75.5"/>
<text text-anchor="middle" x="79.39" y="-82.5" font-family="Helvetica,sans-Serif" font-size="10.00">cstdint</text>
</a>
</g>
</g>
<!-- Node0&#45;&gt;Node2 -->
<g id="edge2" class="edge">
<title>Node0&#45;&gt;Node2</title>
<path fill="none" stroke="midnightblue" d="M510.71,-162.47C411.25,-157.15 246.94,-142.47 111.39,-102 109.23,-101.35 107.03,-100.58 104.85,-99.72"/>
<polygon fill="midnightblue" stroke="midnightblue" points="106.15,-96.47 95.59,-95.6 103.3,-102.86 106.15,-96.47"/>
</g>
<!-- Node3 -->
<g id="node4" class="node">
<title>Node3</title>
<g id="a_node4"><a xlink:title=" ">
<polygon fill="white" stroke="#bfbfbf" points="120.33,-75.5 120.33,-95.5 172.44,-95.5 172.44,-75.5 120.33,-75.5"/>
<text text-anchor="middle" x="146.39" y="-82.5" font-family="Helvetica,sans-Serif" font-size="10.00">ostream</text>
</a>
</g>
</g>
<!-- Node0&#45;&gt;Node3 -->
<g id="edge3" class="edge">
<title>Node0&#45;&gt;Node3</title>
<path fill="none" stroke="midnightblue" d="M510.62,-158.86C424.75,-150.89 292.28,-134.33 181.39,-102 178.93,-101.28 176.42,-100.43 173.93,-99.5"/>
<polygon fill="midnightblue" stroke="midnightblue" points="175.15,-96.22 164.57,-95.65 172.49,-102.69 175.15,-96.22"/>
</g>
<!-- Node4 -->
<g id="node5" class="node">
<title>Node4</title>
<g id="a_node5"><a xlink:title=" ">
<polygon fill="white" stroke="#bfbfbf" points="190.39,-75.5 190.39,-95.5 236.39,-95.5 236.39,-75.5 190.39,-75.5"/>
<text text-anchor="middle" x="213.39" y="-82.5" font-family="Helvetica,sans-Serif" font-size="10.00">variant</text>
</a>
</g>
</g>
<!-- Node0&#45;&gt;Node4 -->
<g id="edge4" class="edge">
<title>Node0&#45;&gt;Node4</title>
<path fill="none" stroke="midnightblue" d="M510.47,-156.32C437.69,-147.26 333.22,-130.53 245.39,-102 243.45,-101.37 241.48,-100.65 239.52,-99.86"/>
<polygon fill="midnightblue" stroke="midnightblue" points="240.53,-96.48 229.97,-95.6 237.67,-102.87 240.53,-96.48"/>
</g>
<!-- Node5 -->
<g id="node6" class="node">
<title>Node5</title>
<g id="a_node6"><a xlink:title=" ">
<polygon fill="white" stroke="#bfbfbf" points="254.49,-75.5 254.49,-95.5 388.29,-95.5 388.29,-75.5 254.49,-75.5"/>
<text text-anchor="middle" x="321.39" y="-82.5" font-family="Helvetica,sans-Serif" font-size="10.00">halco/common/geometry.h</text>
</a>
</g>
</g>
<!-- Node0&#45;&gt;Node5 -->
<g id="edge5" class="edge">
<title>Node0&#45;&gt;Node5</title>
<path fill="none" stroke="midnightblue" d="M510.57,-140.07C461.15,-126.07 402.15,-109.37 363.33,-98.38"/>
<polygon fill="midnightblue" stroke="midnightblue" points="364.01,-94.93 353.43,-95.57 362.1,-101.67 364.01,-94.93"/>
</g>
<!-- Node6 -->
<g id="node7" class="node">
<title>Node6</title>
<g id="a_node7"><a xlink:title=" ">
<polygon fill="white" stroke="#bfbfbf" points="406.6,-75.5 406.6,-95.5 528.17,-95.5 528.17,-75.5 406.6,-75.5"/>
<text text-anchor="middle" x="467.39" y="-82.5" font-family="Helvetica,sans-Serif" font-size="10.00">halco/common/iter_all.h</text>
</a>
</g>
</g>
<!-- Node0&#45;&gt;Node6 -->
<g id="edge6" class="edge">
<title>Node0&#45;&gt;Node6</title>
<path fill="none" stroke="midnightblue" d="M554.62,-138.31C533.44,-125.73 509.15,-111.31 491.59,-100.87"/>
<polygon fill="midnightblue" stroke="midnightblue" points="492.97,-97.63 482.59,-95.53 489.4,-103.64 492.97,-97.63"/>
</g>
<!-- Node7 -->
<g id="node8" class="node">
<title>Node7</title>
<g id="a_node8"><a xlink:title=" ">
<polygon fill="white" stroke="#bfbfbf" points="546.27,-69.5 546.27,-101.5 654.51,-101.5 654.51,-69.5 546.27,-69.5"/>
<text text-anchor="start" x="554.27" y="-88.5" font-family="Helvetica,sans-Serif" font-size="10.00">halco/common/typed</text>
<text text-anchor="middle" x="600.39" y="-76.5" font-family="Helvetica,sans-Serif" font-size="10.00">_heap_array.h</text>
</a>
</g>
</g>
<!-- Node0&#45;&gt;Node7 -->
<g id="edge7" class="edge">
<title>Node0&#45;&gt;Node7</title>
<path fill="none" stroke="midnightblue" d="M600.39,-138.31C600.39,-129.65 600.39,-120.11 600.39,-111.6"/>
<polygon fill="midnightblue" stroke="midnightblue" points="603.89,-111.52 600.39,-101.52 596.89,-111.52 603.89,-111.52"/>
</g>
<!-- Node8 -->
<g id="node9" class="node">
<title>Node8</title>
<g id="a_node9"><a xlink:title=" ">
<polygon fill="white" stroke="#bfbfbf" points="672.88,-69.5 672.88,-101.5 773.9,-101.5 773.9,-69.5 672.88,-69.5"/>
<text text-anchor="start" x="680.88" y="-88.5" font-family="Helvetica,sans-Serif" font-size="10.00">halco/hicann&#45;dls/vx</text>
<text text-anchor="middle" x="723.39" y="-76.5" font-family="Helvetica,sans-Serif" font-size="10.00">/capmem.h</text>
</a>
</g>
</g>
<!-- Node0&#45;&gt;Node8 -->
<g id="edge8" class="edge">
<title>Node0&#45;&gt;Node8</title>
<path fill="none" stroke="midnightblue" d="M642.72,-138.31C658.6,-128.11 676.38,-116.69 691.2,-107.18"/>
<polygon fill="midnightblue" stroke="midnightblue" points="693.47,-109.87 699.99,-101.52 689.69,-103.98 693.47,-109.87"/>
</g>
<!-- Node9 -->
<g id="node10" class="node">
<title>Node9</title>
<g id="a_node10"><a xlink:href="common_8h.html" target="_top" xlink:title=" ">
<polygon fill="white" stroke="black" points="1082.21,-75.5 1082.21,-95.5 1186.56,-95.5 1186.56,-75.5 1082.21,-75.5"/>
<text text-anchor="middle" x="1134.39" y="-82.5" font-family="Helvetica,sans-Serif" font-size="10.00">haldls/vx/common.h</text>
</a>
</g>
</g>
<!-- Node0&#45;&gt;Node9 -->
<g id="edge9" class="edge">
<title>Node0&#45;&gt;Node9</title>
<path fill="none" stroke="midnightblue" d="M690.21,-152.91C778.79,-140.39 918.01,-120.44 1038.39,-102 1049.25,-100.34 1060.79,-98.52 1071.97,-96.73"/>
<polygon fill="midnightblue" stroke="midnightblue" points="1072.78,-100.14 1082.1,-95.1 1071.67,-93.23 1072.78,-100.14"/>
</g>
<!-- Node13 -->
<g id="node14" class="node">
<title>Node13</title>
<g id="a_node14"><a xlink:href="genpybind_8h.html" target="_top" xlink:title=" ">
<polygon fill="white" stroke="black" points="294.32,-6.5 294.32,-26.5 406.46,-26.5 406.46,-6.5 294.32,-6.5"/>
<text text-anchor="middle" x="350.39" y="-13.5" font-family="Helvetica,sans-Serif" font-size="10.00">haldls/vx/genpybind.h</text>
</a>
</g>
</g>
<!-- Node0&#45;&gt;Node13 -->
<g id="edge13" class="edge">
<title>Node0&#45;&gt;Node13</title>
<path fill="none" stroke="midnightblue" d="M690.27,-149.39C752.72,-134.37 818.88,-108.33 783.39,-69 731.01,-10.95 510.77,-44.19 433.39,-33 424.23,-31.68 414.53,-30.06 405.13,-28.38"/>
<polygon fill="midnightblue" stroke="midnightblue" points="405.54,-24.9 395.07,-26.54 404.28,-31.78 405.54,-24.9"/>
</g>
<!-- Node14 -->
<g id="node15" class="node">
<title>Node14</title>
<g id="a_node15"><a xlink:href="traits_8h.html" target="_top" xlink:title=" ">
<polygon fill="white" stroke="black" points="830.55,-75.5 830.55,-95.5 918.23,-95.5 918.23,-75.5 830.55,-75.5"/>
<text text-anchor="middle" x="874.39" y="-82.5" font-family="Helvetica,sans-Serif" font-size="10.00">haldls/vx/traits.h</text>
</a>
</g>
</g>
<!-- Node0&#45;&gt;Node14 -->
<g id="edge15" class="edge">
<title>Node0&#45;&gt;Node14</title>
<path fill="none" stroke="midnightblue" d="M690.11,-139.63C738.39,-125.71 795.6,-109.22 833.33,-98.34"/>
<polygon fill="midnightblue" stroke="midnightblue" points="834.31,-101.7 842.95,-95.56 832.37,-94.97 834.31,-101.7"/>
</g>
<!-- Node19 -->
<g id="node20" class="node">
<title>Node19</title>
<g id="a_node20"><a xlink:title=" ">
<polygon fill="white" stroke="#bfbfbf" points="1003.88,-6.5 1003.88,-26.5 1084.89,-26.5 1084.89,-6.5 1003.88,-6.5"/>
<text text-anchor="middle" x="1044.39" y="-13.5" font-family="Helvetica,sans-Serif" font-size="10.00">hate/visibility.h</text>
</a>
</g>
</g>
<!-- Node0&#45;&gt;Node19 -->
<g id="edge24" class="edge">
<title>Node0&#45;&gt;Node19</title>
<path fill="none" stroke="midnightblue" d="M690.21,-158.59C757.71,-150.94 851.23,-134.98 927.39,-102 966.77,-84.95 1005.82,-52.89 1027.36,-33.54"/>
<polygon fill="midnightblue" stroke="midnightblue" points="1029.96,-35.9 1034.97,-26.57 1025.23,-30.74 1029.96,-35.9"/>
</g>
<!-- Node21 -->
<g id="node22" class="node">
<title>Node21</title>
<g id="a_node22"><a xlink:title=" ">
<polygon fill="white" stroke="#bfbfbf" points="1204.77,-75.5 1204.77,-95.5 1308.01,-95.5 1308.01,-75.5 1204.77,-75.5"/>
<text text-anchor="middle" x="1256.39" y="-82.5" font-family="Helvetica,sans-Serif" font-size="10.00">hxcomm/vx/target.h</text>
</a>
</g>
</g>
<!-- Node0&#45;&gt;Node21 -->
<g id="edge25" class="edge">
<title>Node0&#45;&gt;Node21</title>
<path fill="none" stroke="midnightblue" d="M690.16,-159.92C807.14,-151.74 1017.73,-133.88 1195.39,-102 1201.6,-100.89 1208.11,-99.48 1214.47,-97.98"/>
<polygon fill="midnightblue" stroke="midnightblue" points="1215.41,-101.36 1224.28,-95.57 1213.74,-94.56 1215.41,-101.36"/>
</g>
<!-- Node10 -->
<g id="node11" class="node">
<title>Node10</title>
<g id="a_node11"><a xlink:title=" ">
<polygon fill="white" stroke="#bfbfbf" points="1103.33,-6.5 1103.33,-26.5 1165.45,-26.5 1165.45,-6.5 1103.33,-6.5"/>
<text text-anchor="middle" x="1134.39" y="-13.5" font-family="Helvetica,sans-Serif" font-size="10.00">type_traits</text>
</a>
</g>
</g>
<!-- Node9&#45;&gt;Node10 -->
<g id="edge10" class="edge">
<title>Node9&#45;&gt;Node10</title>
<path fill="none" stroke="midnightblue" d="M1134.39,-75.46C1134.39,-65.63 1134.39,-49.61 1134.39,-36.9"/>
<polygon fill="midnightblue" stroke="midnightblue" points="1137.89,-36.82 1134.39,-26.82 1130.89,-36.82 1137.89,-36.82"/>
</g>
<!-- Node11 -->
<g id="node12" class="node">
<title>Node11</title>
<g id="a_node12"><a xlink:title=" ">
<polygon fill="white" stroke="#bfbfbf" points="1183,-6.5 1183,-26.5 1221.77,-26.5 1221.77,-6.5 1183,-6.5"/>
<text text-anchor="middle" x="1202.39" y="-13.5" font-family="Helvetica,sans-Serif" font-size="10.00">utility</text>
</a>
</g>
</g>
<!-- Node9&#45;&gt;Node11 -->
<g id="edge11" class="edge">
<title>Node9&#45;&gt;Node11</title>
<path fill="none" stroke="midnightblue" d="M1143.56,-75.46C1154.35,-64.83 1172.47,-46.98 1185.75,-33.89"/>
<polygon fill="midnightblue" stroke="midnightblue" points="1188.26,-36.33 1192.93,-26.82 1183.35,-31.35 1188.26,-36.33"/>
</g>
<!-- Node12 -->
<g id="node13" class="node">
<title>Node12</title>
<g id="a_node13"><a xlink:title=" ">
<polygon fill="white" stroke="#bfbfbf" points="1239.76,-6.5 1239.76,-26.5 1363.01,-26.5 1363.01,-6.5 1239.76,-6.5"/>
<text text-anchor="middle" x="1301.39" y="-13.5" font-family="Helvetica,sans-Serif" font-size="10.00">fisch/vx/omnibus_data.h</text>
</a>
</g>
</g>
<!-- Node9&#45;&gt;Node12 -->
<g id="edge12" class="edge">
<title>Node9&#45;&gt;Node12</title>
<path fill="none" stroke="midnightblue" d="M1156.91,-75.46C1185.8,-63.88 1236.09,-43.7 1269.06,-30.47"/>
<polygon fill="midnightblue" stroke="midnightblue" points="1270.71,-33.58 1278.69,-26.61 1268.1,-27.08 1270.71,-33.58"/>
</g>
<!-- Node13&#45;&gt;Node13 -->
<g id="edge14" class="edge">
<title>Node13&#45;&gt;Node13</title>
<path fill="none" stroke="midnightblue" d="M374.28,-26.54C398.11,-32.26 424.46,-28.92 424.46,-16.5 424.46,-5.78 404.82,-1.82 384.12,-4.62"/>
<polygon fill="midnightblue" stroke="midnightblue" points="383.47,-1.18 374.28,-6.46 384.76,-8.06 383.47,-1.18"/>
</g>
<!-- Node14&#45;&gt;Node10 -->
<g id="edge16" class="edge">
<title>Node14&#45;&gt;Node10</title>
<path fill="none" stroke="midnightblue" d="M918.28,-76.11C963.03,-67.12 1034.24,-51.59 1094.39,-33 1097.19,-32.13 1100.08,-31.17 1102.95,-30.15"/>
<polygon fill="midnightblue" stroke="midnightblue" points="1104.42,-33.34 1112.58,-26.59 1101.98,-26.78 1104.42,-33.34"/>
</g>
<!-- Node14&#45;&gt;Node13 -->
<g id="edge20" class="edge">
<title>Node14&#45;&gt;Node13</title>
<path fill="none" stroke="midnightblue" d="M844.5,-75.49C835.53,-73.06 825.62,-70.66 816.39,-69 648.1,-38.82 602.71,-56.72 433.39,-33 424.01,-31.69 414.09,-30.05 404.49,-28.34"/>
<polygon fill="midnightblue" stroke="midnightblue" points="405.1,-24.89 394.63,-26.53 403.84,-31.78 405.1,-24.89"/>
</g>
<!-- Node15 -->
<g id="node16" class="node">
<title>Node15</title>
<g id="a_node16"><a xlink:title=" ">
<polygon fill="white" stroke="#bfbfbf" points="442.04,-6.5 442.04,-26.5 534.74,-26.5 534.74,-6.5 442.04,-6.5"/>
<text text-anchor="middle" x="488.39" y="-13.5" font-family="Helvetica,sans-Serif" font-size="10.00">boost/variant.hpp</text>
</a>
</g>
</g>
<!-- Node14&#45;&gt;Node15 -->
<g id="edge17" class="edge">
<title>Node14&#45;&gt;Node15</title>
<path fill="none" stroke="midnightblue" d="M843.56,-75.46C834.83,-73.12 825.28,-70.77 816.39,-69 696.35,-45.15 663.26,-57.66 543.39,-33 538.24,-31.94 532.86,-30.65 527.57,-29.28"/>
<polygon fill="midnightblue" stroke="midnightblue" points="528.16,-25.82 517.6,-26.57 526.33,-32.57 528.16,-25.82"/>
</g>
<!-- Node16 -->
<g id="node17" class="node">
<title>Node16</title>
<g id="a_node17"><a xlink:title=" ">
<polygon fill="white" stroke="#bfbfbf" points="552.77,-0.5 552.77,-32.5 646.01,-32.5 646.01,-0.5 552.77,-0.5"/>
<text text-anchor="start" x="560.77" y="-19.5" font-family="Helvetica,sans-Serif" font-size="10.00">fisch/vx/container</text>
<text text-anchor="middle" x="599.39" y="-7.5" font-family="Helvetica,sans-Serif" font-size="10.00">_fwd.h</text>
</a>
</g>
</g>
<!-- Node14&#45;&gt;Node16 -->
<g id="edge18" class="edge">
<title>Node14&#45;&gt;Node16</title>
<path fill="none" stroke="midnightblue" d="M841.63,-75.49C833.41,-73.29 824.59,-71.01 816.39,-69 747.82,-52.23 727.63,-51.08 656.1,-33.36"/>
<polygon fill="midnightblue" stroke="midnightblue" points="656.7,-29.9 646.15,-30.87 655,-36.69 656.7,-29.9"/>
</g>
<!-- Node17 -->
<g id="node18" class="node">
<title>Node17</title>
<g id="a_node18"><a xlink:title=" ">
<polygon fill="white" stroke="#bfbfbf" points="663.77,-0.5 663.77,-32.5 757.01,-32.5 757.01,-0.5 663.77,-0.5"/>
<text text-anchor="start" x="671.77" y="-19.5" font-family="Helvetica,sans-Serif" font-size="10.00">fisch/vx/container</text>
<text text-anchor="middle" x="710.39" y="-7.5" font-family="Helvetica,sans-Serif" font-size="10.00">_ticket.h</text>
</a>
</g>
</g>
<!-- Node14&#45;&gt;Node17 -->
<g id="edge19" class="edge">
<title>Node14&#45;&gt;Node17</title>
<path fill="none" stroke="midnightblue" d="M852.27,-75.46C827.87,-65.49 787.9,-49.17 756.6,-36.38"/>
<polygon fill="midnightblue" stroke="midnightblue" points="757.77,-33.08 747.19,-32.53 755.12,-39.56 757.77,-33.08"/>
</g>
<!-- Node18 -->
<g id="node19" class="node">
<title>Node18</title>
<g id="a_node19"><a xlink:title=" ">
<polygon fill="white" stroke="#bfbfbf" points="774.76,-6.5 774.76,-26.5 858.01,-26.5 858.01,-6.5 774.76,-6.5"/>
<text text-anchor="middle" x="816.39" y="-13.5" font-family="Helvetica,sans-Serif" font-size="10.00">hate/type_list.h</text>
</a>
</g>
</g>
<!-- Node14&#45;&gt;Node18 -->
<g id="edge21" class="edge">
<title>Node14&#45;&gt;Node18</title>
<path fill="none" stroke="midnightblue" d="M866.57,-75.46C857.54,-65.03 842.48,-47.64 831.21,-34.63"/>
<polygon fill="midnightblue" stroke="midnightblue" points="833.65,-32.09 824.46,-26.82 828.36,-36.67 833.65,-32.09"/>
</g>
<!-- Node14&#45;&gt;Node19 -->
<g id="edge22" class="edge">
<title>Node14&#45;&gt;Node19</title>
<path fill="none" stroke="midnightblue" d="M897.31,-75.46C926.85,-63.83 978.35,-43.52 1011.91,-30.3"/>
<polygon fill="midnightblue" stroke="midnightblue" points="1013.26,-33.53 1021.28,-26.61 1010.69,-27.02 1013.26,-33.53"/>
</g>
<!-- Node20 -->
<g id="node21" class="node">
<title>Node20</title>
<g id="a_node21"><a xlink:title=" ">
<polygon fill="white" stroke="#bfbfbf" points="876.43,-6.5 876.43,-26.5 986.34,-26.5 986.34,-6.5 876.43,-6.5"/>
<text text-anchor="middle" x="931.39" y="-13.5" font-family="Helvetica,sans-Serif" font-size="10.00">fisch/vx/container.def</text>
</a>
</g>
</g>
<!-- Node14&#45;&gt;Node20 -->
<g id="edge23" class="edge">
<title>Node14&#45;&gt;Node20</title>
<path fill="none" stroke="midnightblue" d="M882.08,-75.46C890.95,-65.03 905.74,-47.64 916.82,-34.63"/>
<polygon fill="midnightblue" stroke="midnightblue" points="919.64,-36.71 923.46,-26.82 914.31,-32.17 919.64,-36.71"/>
</g>
</g>
</svg>
