<?xml version="1.0" encoding="UTF-8" standalone="no"?>
<!DOCTYPE svg PUBLIC "-//W3C//DTD SVG 1.1//EN"
 "http://www.w3.org/Graphics/SVG/1.1/DTD/svg11.dtd">
<!-- Generated by graphviz version 2.43.0 (0)
 -->
<!-- Title: /jenkins/jenlib_workspaces_f9/bld_nightly&#45;haldls.YmxkX25pZ2h0bHktaGFsZGxzIzY1NQ.x/haldls/include/haldls/cerealization.h Pages: 1 -->
<svg width="942pt" height="134pt"
 viewBox="0.00 0.00 942.28 134.00" xmlns="http://www.w3.org/2000/svg" xmlns:xlink="http://www.w3.org/1999/xlink">
<g id="graph0" class="graph" transform="scale(1 1) rotate(0) translate(4 130)">
<title>/jenkins/jenlib_workspaces_f9/bld_nightly&#45;haldls.YmxkX25pZ2h0bHktaGFsZGxzIzY1NQ.x/haldls/include/haldls/cerealization.h</title>
<polygon fill="white" stroke="transparent" points="-4,4 -4,-130 938.28,-130 938.28,4 -4,4"/>
<!-- Node0 -->
<g id="node1" class="node">
<title>Node0</title>
<g id="a_node1"><a xlink:title=" ">
<polygon fill="#bfbfbf" stroke="black" points="403.1,-69.5 403.1,-125.5 582.46,-125.5 582.46,-69.5 403.1,-69.5"/>
<text text-anchor="start" x="411.1" y="-112.5" font-family="Helvetica,sans-Serif" font-size="10.00">/jenkins/jenlib_workspaces</text>
<text text-anchor="start" x="411.1" y="-100.5" font-family="Helvetica,sans-Serif" font-size="10.00">_f9/bld_nightly&#45;haldls.YmxkX25p</text>
<text text-anchor="start" x="411.1" y="-88.5" font-family="Helvetica,sans-Serif" font-size="10.00">Z2h0bHktaGFsZGxzIzY1NQ.x/haldls</text>
<text text-anchor="middle" x="492.78" y="-76.5" font-family="Helvetica,sans-Serif" font-size="10.00">/include/haldls/cerealization.h</text>
</a>
</g>
</g>
<!-- Node1 -->
<g id="node2" class="node">
<title>Node1</title>
<g id="a_node2"><a xlink:title=" ">
<polygon fill="white" stroke="#bfbfbf" points="0,-6.5 0,-26.5 51.55,-26.5 51.55,-6.5 0,-6.5"/>
<text text-anchor="middle" x="25.78" y="-13.5" font-family="Helvetica,sans-Serif" font-size="10.00">sstream</text>
</a>
</g>
</g>
<!-- Node0&#45;&gt;Node1 -->
<g id="edge1" class="edge">
<title>Node0&#45;&gt;Node1</title>
<path fill="none" stroke="midnightblue" d="M402.75,-90.4C314.3,-82.76 176.2,-66.37 60.78,-33 58.17,-32.25 55.51,-31.34 52.88,-30.35"/>
<polygon fill="midnightblue" stroke="midnightblue" points="54.17,-27.1 43.59,-26.5 51.49,-33.57 54.17,-27.1"/>
</g>
<!-- Node2 -->
<g id="node3" class="node">
<title>Node2</title>
<g id="a_node3"><a xlink:title=" ">
<polygon fill="white" stroke="#bfbfbf" points="69.43,-6.5 69.43,-26.5 202.12,-26.5 202.12,-6.5 69.43,-6.5"/>
<text text-anchor="middle" x="135.78" y="-13.5" font-family="Helvetica,sans-Serif" font-size="10.00">cereal/archives/binary.hpp</text>
</a>
</g>
</g>
<!-- Node0&#45;&gt;Node2 -->
<g id="edge2" class="edge">
<title>Node0&#45;&gt;Node2</title>
<path fill="none" stroke="midnightblue" d="M402.69,-76.56C334.44,-61.46 243.11,-41.25 186.92,-28.82"/>
<polygon fill="midnightblue" stroke="midnightblue" points="187.37,-25.33 176.85,-26.59 185.86,-32.17 187.37,-25.33"/>
</g>
<!-- Node3 -->
<g id="node4" class="node">
<title>Node3</title>
<g id="a_node4"><a xlink:title=" ">
<polygon fill="white" stroke="#bfbfbf" points="219.88,-6.5 219.88,-26.5 343.68,-26.5 343.68,-6.5 219.88,-6.5"/>
<text text-anchor="middle" x="281.78" y="-13.5" font-family="Helvetica,sans-Serif" font-size="10.00">cereal/archives/json.hpp</text>
</a>
</g>
</g>
<!-- Node0&#45;&gt;Node3 -->
<g id="edge3" class="edge">
<title>Node0&#45;&gt;Node3</title>
<path fill="none" stroke="midnightblue" d="M420.46,-69.42C384.82,-56.08 343.55,-40.63 315.36,-30.07"/>
<polygon fill="midnightblue" stroke="midnightblue" points="316.55,-26.78 305.96,-26.55 314.1,-33.34 316.55,-26.78"/>
</g>
<!-- Node4 -->
<g id="node5" class="node">
<title>Node4</title>
<g id="a_node5"><a xlink:title=" ">
<polygon fill="white" stroke="#bfbfbf" points="361.71,-0.5 361.71,-32.5 483.84,-32.5 483.84,-0.5 361.71,-0.5"/>
<text text-anchor="start" x="369.71" y="-19.5" font-family="Helvetica,sans-Serif" font-size="10.00">cereal/archives/portable</text>
<text text-anchor="middle" x="422.78" y="-7.5" font-family="Helvetica,sans-Serif" font-size="10.00">_binary.hpp</text>
</a>
</g>
</g>
<!-- Node0&#45;&gt;Node4 -->
<g id="edge4" class="edge">
<title>Node0&#45;&gt;Node4</title>
<path fill="none" stroke="midnightblue" d="M468.69,-69.31C460.25,-59.79 450.86,-49.2 442.79,-40.09"/>
<polygon fill="midnightblue" stroke="midnightblue" points="445.34,-37.69 436.09,-32.52 440.1,-42.33 445.34,-37.69"/>
</g>
<!-- Node5 -->
<g id="node6" class="node">
<title>Node5</title>
<g id="a_node6"><a xlink:title=" ">
<polygon fill="white" stroke="#bfbfbf" points="502.27,-6.5 502.27,-26.5 623.28,-26.5 623.28,-6.5 502.27,-6.5"/>
<text text-anchor="middle" x="562.78" y="-13.5" font-family="Helvetica,sans-Serif" font-size="10.00">cereal/archives/xml.hpp</text>
</a>
</g>
</g>
<!-- Node0&#45;&gt;Node5 -->
<g id="edge5" class="edge">
<title>Node0&#45;&gt;Node5</title>
<path fill="none" stroke="midnightblue" d="M516.87,-69.31C527.13,-57.74 538.77,-44.59 547.77,-34.44"/>
<polygon fill="midnightblue" stroke="midnightblue" points="550.6,-36.52 554.61,-26.71 545.36,-31.88 550.6,-36.52"/>
</g>
<!-- Node6 -->
<g id="node7" class="node">
<title>Node6</title>
<g id="a_node7"><a xlink:title=" ">
<polygon fill="white" stroke="#bfbfbf" points="641.43,-6.5 641.43,-26.5 734.12,-26.5 734.12,-6.5 641.43,-6.5"/>
<text text-anchor="middle" x="687.78" y="-13.5" font-family="Helvetica,sans-Serif" font-size="10.00">cereal/cereal.hpp</text>
</a>
</g>
</g>
<!-- Node0&#45;&gt;Node6 -->
<g id="edge6" class="edge">
<title>Node0&#45;&gt;Node6</title>
<path fill="none" stroke="midnightblue" d="M559.61,-69.42C592.27,-56.19 630.03,-40.9 656.06,-30.35"/>
<polygon fill="midnightblue" stroke="midnightblue" points="657.47,-33.55 665.43,-26.55 654.85,-27.07 657.47,-33.55"/>
</g>
<!-- Node7 -->
<g id="node8" class="node">
<title>Node7</title>
<g id="a_node8"><a xlink:title=" ">
<polygon fill="white" stroke="#bfbfbf" points="752.15,-6.5 752.15,-26.5 835.4,-26.5 835.4,-6.5 752.15,-6.5"/>
<text text-anchor="middle" x="793.78" y="-13.5" font-family="Helvetica,sans-Serif" font-size="10.00">hate/type_list.h</text>
</a>
</g>
</g>
<!-- Node0&#45;&gt;Node7 -->
<g id="edge7" class="edge">
<title>Node0&#45;&gt;Node7</title>
<path fill="none" stroke="midnightblue" d="M582.72,-74.72C630.42,-62.91 689.94,-47.73 742.78,-33 746.84,-31.87 751.07,-30.65 755.28,-29.41"/>
<polygon fill="midnightblue" stroke="midnightblue" points="756.41,-32.72 764.99,-26.5 754.4,-26.02 756.41,-32.72"/>
</g>
<!-- Node8 -->
<g id="node9" class="node">
<title>Node8</title>
<g id="a_node9"><a xlink:title=" ">
<polygon fill="white" stroke="#bfbfbf" points="853.27,-6.5 853.27,-26.5 934.28,-26.5 934.28,-6.5 853.27,-6.5"/>
<text text-anchor="middle" x="893.78" y="-13.5" font-family="Helvetica,sans-Serif" font-size="10.00">hate/visibility.h</text>
</a>
</g>
</g>
<!-- Node0&#45;&gt;Node8 -->
<g id="edge8" class="edge">
<title>Node0&#45;&gt;Node8</title>
<path fill="none" stroke="midnightblue" d="M582.78,-83.52C654.3,-72.42 756.62,-54.8 844.78,-33 848.92,-31.98 853.22,-30.79 857.48,-29.55"/>
<polygon fill="midnightblue" stroke="midnightblue" points="858.71,-32.83 867.25,-26.57 856.66,-26.14 858.71,-32.83"/>
</g>
</g>
</svg>
