<?xml version="1.0" encoding="UTF-8" standalone="no"?>
<!DOCTYPE svg PUBLIC "-//W3C//DTD SVG 1.1//EN"
 "http://www.w3.org/Graphics/SVG/1.1/DTD/svg11.dtd">
<!-- Generated by graphviz version 2.43.0 (0)
 -->
<!-- Title: /jenkins/jenlib_workspaces_f9/bld_nightly&#45;haldls.YmxkX25pZ2h0bHktaGFsZGxzIzQ5OA.x/haldls/include/haldls/v2/chip.h Pages: 1 -->
<svg width="247pt" height="251pt"
 viewBox="0.00 0.00 246.92 251.00" xmlns="http://www.w3.org/2000/svg" xmlns:xlink="http://www.w3.org/1999/xlink">
<g id="graph0" class="graph" transform="scale(1 1) rotate(0) translate(4 247)">
<title>/jenkins/jenlib_workspaces_f9/bld_nightly&#45;haldls.YmxkX25pZ2h0bHktaGFsZGxzIzQ5OA.x/haldls/include/haldls/v2/chip.h</title>
<polygon fill="white" stroke="transparent" points="-4,4 -4,-247 242.92,-247 242.92,4 -4,4"/>
<!-- Node20 -->
<g id="node1" class="node">
<title>Node20</title>
<g id="a_node1"><a xlink:title=" ">
<polygon fill="#bfbfbf" stroke="black" points="0,-186.5 0,-242.5 179.92,-242.5 179.92,-186.5 0,-186.5"/>
<text text-anchor="start" x="8" y="-229.5" font-family="Helvetica,sans-Serif" font-size="10.00">/jenkins/jenlib_workspaces</text>
<text text-anchor="start" x="8" y="-217.5" font-family="Helvetica,sans-Serif" font-size="10.00">_f9/bld_nightly&#45;haldls.YmxkX25p</text>
<text text-anchor="start" x="8" y="-205.5" font-family="Helvetica,sans-Serif" font-size="10.00">Z2h0bHktaGFsZGxzIzQ5OA.x/haldls</text>
<text text-anchor="middle" x="89.96" y="-193.5" font-family="Helvetica,sans-Serif" font-size="10.00">/include/haldls/v2/chip.h</text>
</a>
</g>
</g>
<!-- Node21 -->
<g id="node2" class="node">
<title>Node21</title>
<g id="a_node2"><a xlink:href="v2_2container_8h.html" target="_top" xlink:title=" ">
<polygon fill="white" stroke="black" points="0,-0.5 0,-56.5 179.92,-56.5 179.92,-0.5 0,-0.5"/>
<text text-anchor="start" x="8" y="-43.5" font-family="Helvetica,sans-Serif" font-size="10.00">/jenkins/jenlib_workspaces</text>
<text text-anchor="start" x="8" y="-31.5" font-family="Helvetica,sans-Serif" font-size="10.00">_f9/bld_nightly&#45;haldls.YmxkX25p</text>
<text text-anchor="start" x="8" y="-19.5" font-family="Helvetica,sans-Serif" font-size="10.00">Z2h0bHktaGFsZGxzIzQ5OA.x/haldls</text>
<text text-anchor="middle" x="89.96" y="-7.5" font-family="Helvetica,sans-Serif" font-size="10.00">/include/haldls/v2/container.h</text>
</a>
</g>
</g>
<!-- Node20&#45;&gt;Node21 -->
<g id="edge1" class="edge">
<title>Node20&#45;&gt;Node21</title>
<path fill="none" stroke="midnightblue" d="M62.61,-177.73C57.4,-169.09 52.72,-159.57 49.96,-150 42.93,-125.66 42.93,-117.34 49.96,-93 53.68,-80.11 60.88,-67.31 68.16,-56.62"/>
<polygon fill="midnightblue" stroke="midnightblue" points="59.81,-179.86 68.16,-186.38 65.7,-176.08 59.81,-179.86"/>
</g>
<!-- Node22 -->
<g id="node3" class="node">
<title>Node22</title>
<g id="a_node3"><a xlink:href="playback_8h.html" target="_top" xlink:title=" ">
<polygon fill="white" stroke="black" points="59,-93.5 59,-149.5 238.92,-149.5 238.92,-93.5 59,-93.5"/>
<text text-anchor="start" x="67" y="-136.5" font-family="Helvetica,sans-Serif" font-size="10.00">/jenkins/jenlib_workspaces</text>
<text text-anchor="start" x="67" y="-124.5" font-family="Helvetica,sans-Serif" font-size="10.00">_f9/bld_nightly&#45;haldls.YmxkX25p</text>
<text text-anchor="start" x="67" y="-112.5" font-family="Helvetica,sans-Serif" font-size="10.00">Z2h0bHktaGFsZGxzIzQ5OA.x/haldls</text>
<text text-anchor="middle" x="148.96" y="-100.5" font-family="Helvetica,sans-Serif" font-size="10.00">/include/haldls/v2/playback.h</text>
</a>
</g>
</g>
<!-- Node20&#45;&gt;Node22 -->
<g id="edge2" class="edge">
<title>Node20&#45;&gt;Node22</title>
<path fill="none" stroke="midnightblue" d="M113.26,-177.55C119.26,-168.31 125.61,-158.51 131.27,-149.78"/>
<polygon fill="midnightblue" stroke="midnightblue" points="110.16,-175.9 107.66,-186.2 116.04,-179.71 110.16,-175.9"/>
</g>
<!-- Node22&#45;&gt;Node21 -->
<g id="edge3" class="edge">
<title>Node22&#45;&gt;Node21</title>
<path fill="none" stroke="midnightblue" d="M125.65,-84.55C119.66,-75.31 113.31,-65.51 107.65,-56.78"/>
<polygon fill="midnightblue" stroke="midnightblue" points="122.88,-86.71 131.26,-93.2 128.75,-82.9 122.88,-86.71"/>
</g>
</g>
</svg>
