<?xml version="1.0" encoding="UTF-8" standalone="no"?>
<!DOCTYPE svg PUBLIC "-//W3C//DTD SVG 1.1//EN"
 "http://www.w3.org/Graphics/SVG/1.1/DTD/svg11.dtd">
<!-- Generated by graphviz version 2.43.0 (0)
 -->
<!-- Title: /jenkins/jenlib_workspaces_f9/bld_nightly&#45;haldls.YmxkX25pZ2h0bHktaGFsZGxzIzQ5OA.x/haldls/include/haldls/v2/chip.h Pages: 1 -->
<!--zoomable 248 -->
<svg id="main" version="1.1" xmlns="http://www.w3.org/2000/svg" xmlns:xlink="http://www.w3.org/1999/xlink" xml:space="preserve" onload="init(evt)">
<style type="text/css"><![CDATA[
.edge:hover path { stroke: red; }
.edge:hover polygon { stroke: red; fill: red; }
]]></style>
<script type="text/javascript"><![CDATA[
var edges = document.getElementsByTagName('g');
if (edges && edges.length) {
  for (var i=0;i<edges.length;i++) {
    if (edges[i].id.substr(0,4)=='edge') {
      edges[i].setAttribute('class','edge');
    }
  }
}
]]></script>
        <defs>
                <circle id="rim" cx="0" cy="0" r="7"/>
                <circle id="rim2" cx="0" cy="0" r="3.5"/>
                <g id="zoomPlus">
                        <use xlink:href="#rim" fill="#404040">
                                <set attributeName="fill" to="#808080" begin="zoomplus.mouseover" end="zoomplus.mouseout"/>
                        </use>
                        <path d="M-4,0h8M0,-4v8" fill="none" stroke="white" stroke-width="1.5" pointer-events="none"/>
                </g>
                <g id="zoomMin">
                        <use xlink:href="#rim" fill="#404040">
                                <set attributeName="fill" to="#808080" begin="zoomminus.mouseover" end="zoomminus.mouseout"/>
                        </use>
                        <path d="M-4,0h8" fill="none" stroke="white" stroke-width="1.5" pointer-events="none"/>
                </g>
                <g id="dirArrow">
                        <path fill="none" stroke="white" stroke-width="1.5" d="M0,-3.0v7 M-2.5,-0.5L0,-3.0L2.5,-0.5"/>
                </g>
               <g id="resetDef">
                       <use xlink:href="#rim2" fill="#404040">
                               <set attributeName="fill" to="#808080" begin="reset.mouseover" end="reset.mouseout"/>
                       </use>
               </g>
        </defs>

<script type="text/javascript">
var viewWidth = 1109;
var viewHeight = 248;
var sectionId = 'dynsection-0';
</script>
<script xlink:href="svgpan.js"/>
<svg id="graph" class="graph">
<g id="viewport">
<title>/jenkins/jenlib_workspaces_f9/bld_nightly&#45;haldls.YmxkX25pZ2h0bHktaGFsZGxzIzQ5OA.x/haldls/include/haldls/v2/chip.h</title>
<polygon fill="white" stroke="transparent" points="-4,4 -4,-244 1104.67,-244 1104.67,4 -4,4"/>
<!-- Node0 -->
<g id="node1" class="node">
<title>Node0</title>
<g id="a_node1"><a xlink:title=" ">
<polygon fill="#bfbfbf" stroke="black" points="414.92,-183.5 414.92,-239.5 594.84,-239.5 594.84,-183.5 414.92,-183.5"/>
<text text-anchor="start" x="422.92" y="-226.5" font-family="Helvetica,sans-Serif" font-size="10.00">/jenkins/jenlib_workspaces</text>
<text text-anchor="start" x="422.92" y="-214.5" font-family="Helvetica,sans-Serif" font-size="10.00">_f9/bld_nightly&#45;haldls.YmxkX25p</text>
<text text-anchor="start" x="422.92" y="-202.5" font-family="Helvetica,sans-Serif" font-size="10.00">Z2h0bHktaGFsZGxzIzQ5OA.x/haldls</text>
<text text-anchor="middle" x="504.88" y="-190.5" font-family="Helvetica,sans-Serif" font-size="10.00">/include/haldls/v2/chip.h</text>
</a>
</g>
</g>
<!-- Node1 -->
<g id="node2" class="node">
<title>Node1</title>
<g id="a_node2"><a xlink:title=" ">
<polygon fill="white" stroke="#bfbfbf" points="122.76,-57.5 122.76,-89.5 231,-89.5 231,-57.5 122.76,-57.5"/>
<text text-anchor="start" x="130.76" y="-76.5" font-family="Helvetica,sans-Serif" font-size="10.00">halco/common/typed</text>
<text text-anchor="middle" x="176.88" y="-64.5" font-family="Helvetica,sans-Serif" font-size="10.00">_array.h</text>
</a>
</g>
</g>
<!-- Node0&#45;&gt;Node1 -->
<g id="edge1" class="edge">
<title>Node0&#45;&gt;Node1</title>
<path fill="none" stroke="midnightblue" d="M414.68,-205.32C278.96,-196.59 35.21,-176.92 8.88,-147 -25.27,-108.2 51.84,-89.44 112.59,-80.91"/>
<polygon fill="midnightblue" stroke="midnightblue" points="113.11,-84.37 122.56,-79.58 112.18,-77.43 113.11,-84.37"/>
</g>
<!-- Node2 -->
<g id="node3" class="node">
<title>Node2</title>
<g id="a_node3"><a xlink:title=" ">
<polygon fill="white" stroke="#bfbfbf" points="348.09,-57.5 348.09,-89.5 449.67,-89.5 449.67,-57.5 348.09,-57.5"/>
<text text-anchor="start" x="356.09" y="-76.5" font-family="Helvetica,sans-Serif" font-size="10.00">halco/hicann&#45;dls/v2</text>
<text text-anchor="middle" x="398.88" y="-64.5" font-family="Helvetica,sans-Serif" font-size="10.00">/coordinates.h</text>
</a>
</g>
</g>
<!-- Node0&#45;&gt;Node2 -->
<g id="edge2" class="edge">
<title>Node0&#45;&gt;Node2</title>
<path fill="none" stroke="midnightblue" d="M414.77,-205.6C328.28,-198.8 206.55,-182.96 176.88,-147 106.87,-62.14 6.34,-168.97 338.12,-90.37"/>
<polygon fill="midnightblue" stroke="midnightblue" points="339.15,-93.72 348.06,-87.99 337.52,-86.91 339.15,-93.72"/>
</g>
<!-- Node3 -->
<g id="node4" class="node">
<title>Node3</title>
<g id="a_node4"><a xlink:title=" ">
<polygon fill="white" stroke="#bfbfbf" points="1019.09,-126.5 1019.09,-146.5 1100.67,-146.5 1100.67,-126.5 1019.09,-126.5"/>
<text text-anchor="middle" x="1059.88" y="-133.5" font-family="Helvetica,sans-Serif" font-size="10.00">hate/optional.h</text>
</a>
</g>
</g>
<!-- Node0&#45;&gt;Node3 -->
<g id="edge3" class="edge">
<title>Node0&#45;&gt;Node3</title>
<path fill="none" stroke="midnightblue" d="M594.92,-200.29C695.15,-188.65 861.88,-168.42 1004.88,-147 1006.17,-146.81 1007.48,-146.61 1008.81,-146.4"/>
<polygon fill="midnightblue" stroke="midnightblue" points="1009.74,-149.8 1019.07,-144.76 1008.64,-142.88 1009.74,-149.8"/>
</g>
<!-- Node4 -->
<g id="node5" class="node">
<title>Node4</title>
<g id="a_node5"><a xlink:title=" ">
<polygon fill="white" stroke="#bfbfbf" points="249.38,-63.5 249.38,-83.5 330.38,-83.5 330.38,-63.5 249.38,-63.5"/>
<text text-anchor="middle" x="289.88" y="-70.5" font-family="Helvetica,sans-Serif" font-size="10.00">hate/visibility.h</text>
</a>
</g>
</g>
<!-- Node0&#45;&gt;Node4 -->
<g id="edge4" class="edge">
<title>Node0&#45;&gt;Node4</title>
<path fill="none" stroke="midnightblue" d="M414.76,-205.12C280.96,-196.2 42.67,-176.37 16.88,-147 10.72,-139.99 10.83,-133.11 16.88,-126 49.42,-87.78 191.01,-101.46 239.88,-90 244.28,-88.97 248.86,-87.75 253.37,-86.46"/>
<polygon fill="midnightblue" stroke="midnightblue" points="254.5,-89.78 263.08,-83.57 252.5,-83.07 254.5,-89.78"/>
</g>
<!-- Node5 -->
<g id="node6" class="node">
<title>Node5</title>
<g id="a_node6"><a xlink:href="v2_2capmem_8h.html" target="_top" xlink:title=" ">
<polygon fill="white" stroke="black" points="25.43,-126.5 25.43,-146.5 130.33,-146.5 130.33,-126.5 25.43,-126.5"/>
<text text-anchor="middle" x="77.88" y="-133.5" font-family="Helvetica,sans-Serif" font-size="10.00">haldls/v2/capmem.h</text>
</a>
</g>
</g>
<!-- Node0&#45;&gt;Node5 -->
<g id="edge5" class="edge">
<title>Node0&#45;&gt;Node5</title>
<path fill="none" stroke="midnightblue" d="M414.85,-195.11C332.47,-181.02 212.73,-160.55 140.38,-148.19"/>
<polygon fill="midnightblue" stroke="midnightblue" points="140.95,-144.73 130.5,-146.5 139.77,-151.63 140.95,-144.73"/>
</g>
<!-- Node7 -->
<g id="node8" class="node">
<title>Node7</title>
<g id="a_node8"><a xlink:href="v2_2common_8h.html" target="_top" xlink:title=" ">
<polygon fill="white" stroke="black" points="616.43,-63.5 616.43,-83.5 721.33,-83.5 721.33,-63.5 616.43,-63.5"/>
<text text-anchor="middle" x="668.88" y="-70.5" font-family="Helvetica,sans-Serif" font-size="10.00">haldls/v2/common.h</text>
</a>
</g>
</g>
<!-- Node0&#45;&gt;Node7 -->
<g id="edge16" class="edge">
<title>Node0&#45;&gt;Node7</title>
<path fill="none" stroke="midnightblue" d="M594.84,-204.56C723.54,-195.14 947.49,-174.93 971.88,-147 978.02,-139.97 977.97,-133.07 971.88,-126 936.53,-84.98 783.99,-100.58 730.88,-90 724.95,-88.82 718.74,-87.44 712.64,-86"/>
<polygon fill="midnightblue" stroke="midnightblue" points="713.08,-82.5 702.53,-83.54 711.42,-89.31 713.08,-82.5"/>
</g>
<!-- Node10 -->
<g id="node11" class="node">
<title>Node10</title>
<g id="a_node11"><a xlink:href="v2_2genpybind_8h.html" target="_top" xlink:title=" ">
<polygon fill="white" stroke="black" points="467.53,-63.5 467.53,-83.5 580.23,-83.5 580.23,-63.5 467.53,-63.5"/>
<text text-anchor="middle" x="523.88" y="-70.5" font-family="Helvetica,sans-Serif" font-size="10.00">haldls/v2/genpybind.h</text>
</a>
</g>
</g>
<!-- Node0&#45;&gt;Node10 -->
<g id="edge24" class="edge">
<title>Node0&#45;&gt;Node10</title>
<path fill="none" stroke="midnightblue" d="M543.34,-183.24C554.35,-173.23 564.96,-160.9 570.88,-147 579.83,-125.96 561.46,-104.27 545.13,-90.17"/>
<polygon fill="midnightblue" stroke="midnightblue" points="546.91,-87.1 536.93,-83.53 542.5,-92.54 546.91,-87.1"/>
</g>
<!-- Node11 -->
<g id="node12" class="node">
<title>Node11</title>
<g id="a_node12"><a xlink:href="v2_2correlation_8h.html" target="_top" xlink:title=" ">
<polygon fill="white" stroke="black" points="448.26,-126.5 448.26,-146.5 561.5,-146.5 561.5,-126.5 448.26,-126.5"/>
<text text-anchor="middle" x="504.88" y="-133.5" font-family="Helvetica,sans-Serif" font-size="10.00">haldls/v2/correlation.h</text>
</a>
</g>
</g>
<!-- Node0&#45;&gt;Node11 -->
<g id="edge17" class="edge">
<title>Node0&#45;&gt;Node11</title>
<path fill="none" stroke="midnightblue" d="M504.88,-183.32C504.88,-174.5 504.88,-164.91 504.88,-156.79"/>
<polygon fill="midnightblue" stroke="midnightblue" points="508.38,-156.52 504.88,-146.52 501.38,-156.52 508.38,-156.52"/>
</g>
<!-- Node13 -->
<g id="node14" class="node">
<title>Node13</title>
<g id="a_node14"><a xlink:href="v2_2neuron_8h.html" target="_top" xlink:title=" ">
<polygon fill="white" stroke="black" points="865.03,-126.5 865.03,-146.5 962.73,-146.5 962.73,-126.5 865.03,-126.5"/>
<text text-anchor="middle" x="913.88" y="-133.5" font-family="Helvetica,sans-Serif" font-size="10.00">haldls/v2/neuron.h</text>
</a>
</g>
</g>
<!-- Node0&#45;&gt;Node13 -->
<g id="edge25" class="edge">
<title>Node0&#45;&gt;Node13</title>
<path fill="none" stroke="midnightblue" d="M594.89,-194.43C673.97,-180.32 786.76,-160.19 854.87,-148.03"/>
<polygon fill="midnightblue" stroke="midnightblue" points="855.77,-151.43 865,-146.22 854.54,-144.54 855.77,-151.43"/>
</g>
<!-- Node15 -->
<g id="node16" class="node">
<title>Node15</title>
<g id="a_node16"><a xlink:href="v2_2ppu_8h.html" target="_top" xlink:title=" ">
<polygon fill="white" stroke="black" points="764.26,-126.5 764.26,-146.5 847.5,-146.5 847.5,-126.5 764.26,-126.5"/>
<text text-anchor="middle" x="805.88" y="-133.5" font-family="Helvetica,sans-Serif" font-size="10.00">haldls/v2/ppu.h</text>
</a>
</g>
</g>
<!-- Node0&#45;&gt;Node15 -->
<g id="edge32" class="edge">
<title>Node0&#45;&gt;Node15</title>
<path fill="none" stroke="midnightblue" d="M595.19,-188.6C649.01,-175.55 715.12,-159.51 758.77,-148.92"/>
<polygon fill="midnightblue" stroke="midnightblue" points="759.66,-152.31 768.55,-146.55 758.01,-145.51 759.66,-152.31"/>
</g>
<!-- Node17 -->
<g id="node18" class="node">
<title>Node17</title>
<g id="a_node18"><a xlink:href="rate__counter_8h.html" target="_top" xlink:title=" ">
<polygon fill="white" stroke="black" points="185.53,-126.5 185.53,-146.5 308.23,-146.5 308.23,-126.5 185.53,-126.5"/>
<text text-anchor="middle" x="246.88" y="-133.5" font-family="Helvetica,sans-Serif" font-size="10.00">haldls/v2/rate_counter.h</text>
</a>
</g>
</g>
<!-- Node0&#45;&gt;Node17 -->
<g id="edge39" class="edge">
<title>Node0&#45;&gt;Node17</title>
<path fill="none" stroke="midnightblue" d="M414.64,-184.97C371.84,-172.86 322.77,-158.97 288.8,-149.36"/>
<polygon fill="midnightblue" stroke="midnightblue" points="289.35,-145.88 278.77,-146.52 287.44,-152.61 289.35,-145.88"/>
</g>
<!-- Node18 -->
<g id="node19" class="node">
<title>Node18</title>
<g id="a_node19"><a xlink:href="v2_2synapse_8h.html" target="_top" xlink:title=" ">
<polygon fill="white" stroke="black" points="325.98,-126.5 325.98,-146.5 429.78,-146.5 429.78,-126.5 325.98,-126.5"/>
<text text-anchor="middle" x="377.88" y="-133.5" font-family="Helvetica,sans-Serif" font-size="10.00">haldls/v2/synapse.h</text>
</a>
</g>
</g>
<!-- Node0&#45;&gt;Node18 -->
<g id="edge45" class="edge">
<title>Node0&#45;&gt;Node18</title>
<path fill="none" stroke="midnightblue" d="M457.59,-183.32C438.9,-172.58 418.2,-160.68 402.59,-151.7"/>
<polygon fill="midnightblue" stroke="midnightblue" points="403.99,-148.47 393.58,-146.52 400.51,-154.54 403.99,-148.47"/>
</g>
<!-- Node19 -->
<g id="node20" class="node">
<title>Node19</title>
<g id="a_node20"><a xlink:href="synapsedriver_8h.html" target="_top" xlink:title=" ">
<polygon fill="white" stroke="black" points="617.48,-126.5 617.48,-146.5 746.28,-146.5 746.28,-126.5 617.48,-126.5"/>
<text text-anchor="middle" x="681.88" y="-133.5" font-family="Helvetica,sans-Serif" font-size="10.00">haldls/v2/synapsedriver.h</text>
</a>
</g>
</g>
<!-- Node0&#45;&gt;Node19 -->
<g id="edge52" class="edge">
<title>Node0&#45;&gt;Node19</title>
<path fill="none" stroke="midnightblue" d="M570.54,-183.42C597.96,-172.11 628.53,-159.5 650.68,-150.37"/>
<polygon fill="midnightblue" stroke="midnightblue" points="652.02,-153.6 659.93,-146.55 649.35,-147.13 652.02,-153.6"/>
</g>
<!-- Node5&#45;&gt;Node1 -->
<g id="edge7" class="edge">
<title>Node5&#45;&gt;Node1</title>
<path fill="none" stroke="midnightblue" d="M92.49,-126.5C105.86,-118.26 126.15,-105.76 143.48,-95.08"/>
<polygon fill="midnightblue" stroke="midnightblue" points="145.55,-97.92 152.22,-89.69 141.88,-91.96 145.55,-97.92"/>
</g>
<!-- Node5&#45;&gt;Node2 -->
<g id="edge8" class="edge">
<title>Node5&#45;&gt;Node2</title>
<path fill="none" stroke="midnightblue" d="M130.58,-127.7C181.49,-119.85 260.97,-106.82 337.92,-90.34"/>
<polygon fill="midnightblue" stroke="midnightblue" points="338.74,-93.74 347.78,-88.21 337.26,-86.9 338.74,-93.74"/>
</g>
<!-- Node5&#45;&gt;Node4 -->
<g id="edge9" class="edge">
<title>Node5&#45;&gt;Node4</title>
<path fill="none" stroke="midnightblue" d="M111.15,-126.44C143.95,-117.43 195.47,-103.12 239.88,-90 243.65,-88.89 247.56,-87.71 251.48,-86.52"/>
<polygon fill="midnightblue" stroke="midnightblue" points="252.57,-89.85 261.1,-83.57 250.51,-83.15 252.57,-89.85"/>
</g>
<!-- Node6 -->
<g id="node7" class="node">
<title>Node6</title>
<g id="a_node7"><a xlink:title=" ">
<polygon fill="white" stroke="#bfbfbf" points="324.43,-0.5 324.43,-20.5 369.33,-20.5 369.33,-0.5 324.43,-0.5"/>
<text text-anchor="middle" x="346.88" y="-7.5" font-family="Helvetica,sans-Serif" font-size="10.00">cstdint</text>
</a>
</g>
</g>
<!-- Node5&#45;&gt;Node6 -->
<g id="edge6" class="edge">
<title>Node5&#45;&gt;Node6</title>
<path fill="none" stroke="midnightblue" d="M79.31,-126.31C82.41,-109.69 91.38,-74.71 113.88,-57 144.53,-32.87 257.26,-19.55 313.91,-14.24"/>
<polygon fill="midnightblue" stroke="midnightblue" points="314.49,-17.71 324.13,-13.32 313.86,-10.73 314.49,-17.71"/>
</g>
<!-- Node5&#45;&gt;Node7 -->
<g id="edge10" class="edge">
<title>Node5&#45;&gt;Node7</title>
<path fill="none" stroke="midnightblue" d="M130.53,-130.33C145.51,-128.89 161.83,-127.35 176.88,-126 367.89,-108.84 417.68,-121.36 606.88,-90 613.34,-88.93 620.13,-87.53 626.74,-86"/>
<polygon fill="midnightblue" stroke="midnightblue" points="628.01,-89.3 636.91,-83.54 626.36,-82.49 628.01,-89.3"/>
</g>
<!-- Node5&#45;&gt;Node10 -->
<g id="edge14" class="edge">
<title>Node5&#45;&gt;Node10</title>
<path fill="none" stroke="midnightblue" d="M130.48,-129.98C219.71,-120.48 397.07,-101.02 458.88,-90 465.56,-88.81 472.57,-87.35 479.42,-85.82"/>
<polygon fill="midnightblue" stroke="midnightblue" points="480.34,-89.2 489.29,-83.53 478.76,-82.38 480.34,-89.2"/>
</g>
<!-- Node7&#45;&gt;Node6 -->
<g id="edge11" class="edge">
<title>Node7&#45;&gt;Node6</title>
<path fill="none" stroke="midnightblue" d="M634.55,-63.45C625.57,-61.21 615.89,-58.91 606.88,-57 525.65,-39.76 429.15,-24.13 379.69,-16.47"/>
<polygon fill="midnightblue" stroke="midnightblue" points="380.01,-12.98 369.59,-14.91 378.94,-19.89 380.01,-12.98"/>
</g>
<!-- Node8 -->
<g id="node9" class="node">
<title>Node8</title>
<g id="a_node9"><a xlink:title=" ">
<polygon fill="white" stroke="#bfbfbf" points="671.82,-0.5 671.82,-20.5 733.94,-20.5 733.94,-0.5 671.82,-0.5"/>
<text text-anchor="middle" x="702.88" y="-7.5" font-family="Helvetica,sans-Serif" font-size="10.00">type_traits</text>
</a>
</g>
</g>
<!-- Node7&#45;&gt;Node8 -->
<g id="edge12" class="edge">
<title>Node7&#45;&gt;Node8</title>
<path fill="none" stroke="midnightblue" d="M673.9,-63.5C678.87,-54.58 686.62,-40.67 692.86,-29.48"/>
<polygon fill="midnightblue" stroke="midnightblue" points="696.03,-30.98 697.84,-20.54 689.92,-27.57 696.03,-30.98"/>
</g>
<!-- Node9 -->
<g id="node10" class="node">
<title>Node9</title>
<g id="a_node10"><a xlink:title=" ">
<polygon fill="white" stroke="#bfbfbf" points="615.49,-0.5 615.49,-20.5 654.27,-20.5 654.27,-0.5 615.49,-0.5"/>
<text text-anchor="middle" x="634.88" y="-7.5" font-family="Helvetica,sans-Serif" font-size="10.00">utility</text>
</a>
</g>
</g>
<!-- Node7&#45;&gt;Node9 -->
<g id="edge13" class="edge">
<title>Node7&#45;&gt;Node9</title>
<path fill="none" stroke="midnightblue" d="M663.86,-63.5C658.89,-54.58 651.14,-40.67 644.9,-29.48"/>
<polygon fill="midnightblue" stroke="midnightblue" points="647.84,-27.57 639.92,-20.54 641.73,-30.98 647.84,-27.57"/>
</g>
<!-- Node10&#45;&gt;Node10 -->
<g id="edge15" class="edge">
<title>Node10&#45;&gt;Node10</title>
<path fill="none" stroke="midnightblue" d="M552.49,-83.56C575.07,-87.45 598.23,-84.1 598.23,-73.5 598.23,-64.48 581.43,-60.71 562.51,-62.19"/>
<polygon fill="midnightblue" stroke="midnightblue" points="561.98,-58.73 552.49,-63.44 562.85,-65.67 561.98,-58.73"/>
</g>
<!-- Node11&#45;&gt;Node1 -->
<g id="edge19" class="edge">
<title>Node11&#45;&gt;Node1</title>
<path fill="none" stroke="midnightblue" d="M448.05,-126.94C396.45,-118.9 318.04,-106.01 241,-90.15"/>
<polygon fill="midnightblue" stroke="midnightblue" points="241.62,-86.71 231.12,-88.1 240.2,-93.56 241.62,-86.71"/>
</g>
<!-- Node11&#45;&gt;Node2 -->
<g id="edge20" class="edge">
<title>Node11&#45;&gt;Node2</title>
<path fill="none" stroke="midnightblue" d="M489.24,-126.5C474.79,-118.18 452.8,-105.53 434.13,-94.78"/>
<polygon fill="midnightblue" stroke="midnightblue" points="435.69,-91.65 425.28,-89.69 432.2,-97.71 435.69,-91.65"/>
</g>
<!-- Node11&#45;&gt;Node4 -->
<g id="edge21" class="edge">
<title>Node11&#45;&gt;Node4</title>
<path fill="none" stroke="midnightblue" d="M470.43,-126.48C436.78,-117.56 384.16,-103.36 338.88,-90 335.14,-88.9 331.24,-87.72 327.35,-86.52"/>
<polygon fill="midnightblue" stroke="midnightblue" points="328.4,-83.18 317.81,-83.54 326.31,-89.86 328.4,-83.18"/>
</g>
<!-- Node11&#45;&gt;Node7 -->
<g id="edge22" class="edge">
<title>Node11&#45;&gt;Node7</title>
<path fill="none" stroke="midnightblue" d="M529.08,-126.5C557.06,-116.09 603.3,-98.89 634.88,-87.14"/>
<polygon fill="midnightblue" stroke="midnightblue" points="636.43,-90.3 644.58,-83.54 633.99,-83.74 636.43,-90.3"/>
</g>
<!-- Node11&#45;&gt;Node10 -->
<g id="edge23" class="edge">
<title>Node11&#45;&gt;Node10</title>
<path fill="none" stroke="midnightblue" d="M507.68,-126.5C510.41,-117.76 514.62,-104.23 518.07,-93.16"/>
<polygon fill="midnightblue" stroke="midnightblue" points="521.43,-94.13 521.06,-83.54 514.75,-92.04 521.43,-94.13"/>
</g>
<!-- Node12 -->
<g id="node13" class="node">
<title>Node12</title>
<g id="a_node13"><a xlink:title=" ">
<polygon fill="white" stroke="#bfbfbf" points="739.82,-63.5 739.82,-83.5 791.94,-83.5 791.94,-63.5 739.82,-63.5"/>
<text text-anchor="middle" x="765.88" y="-70.5" font-family="Helvetica,sans-Serif" font-size="10.00">ostream</text>
</a>
</g>
</g>
<!-- Node11&#45;&gt;Node12 -->
<g id="edge18" class="edge">
<title>Node11&#45;&gt;Node12</title>
<path fill="none" stroke="midnightblue" d="M561.64,-127.36C607.63,-119.98 673.77,-107.54 729.88,-90 732.32,-89.24 734.83,-88.36 737.32,-87.43"/>
<polygon fill="midnightblue" stroke="midnightblue" points="738.77,-90.61 746.73,-83.62 736.14,-84.13 738.77,-90.61"/>
</g>
<!-- Node13&#45;&gt;Node2 -->
<g id="edge27" class="edge">
<title>Node13&#45;&gt;Node2</title>
<path fill="none" stroke="midnightblue" d="M864.79,-127.08C862.12,-126.69 859.47,-126.33 856.88,-126 683.98,-103.8 635.67,-119.7 459.93,-89.99"/>
<polygon fill="midnightblue" stroke="midnightblue" points="460.27,-86.5 449.82,-88.26 459.08,-93.4 460.27,-86.5"/>
</g>
<!-- Node13&#45;&gt;Node4 -->
<g id="edge29" class="edge">
<title>Node13&#45;&gt;Node4</title>
<path fill="none" stroke="midnightblue" d="M864.8,-127.01C862.12,-126.65 859.47,-126.31 856.88,-126 627.69,-99 565.6,-133.1 338.88,-90 334.09,-89.09 329.12,-87.86 324.25,-86.49"/>
<polygon fill="midnightblue" stroke="midnightblue" points="325.1,-83.09 314.51,-83.55 323.07,-89.79 325.1,-83.09"/>
</g>
<!-- Node13&#45;&gt;Node7 -->
<g id="edge30" class="edge">
<title>Node13&#45;&gt;Node7</title>
<path fill="none" stroke="midnightblue" d="M877.42,-126.45C840.48,-117.28 781.7,-102.67 730.88,-90 725.63,-88.69 720.13,-87.32 714.67,-85.96"/>
<polygon fill="midnightblue" stroke="midnightblue" points="715.49,-82.55 704.94,-83.52 713.79,-89.34 715.49,-82.55"/>
</g>
<!-- Node13&#45;&gt;Node10 -->
<g id="edge31" class="edge">
<title>Node13&#45;&gt;Node10</title>
<path fill="none" stroke="midnightblue" d="M864.77,-127.25C862.1,-126.82 859.46,-126.4 856.88,-126 746.39,-108.81 718.21,-108.15 607.88,-90 599.16,-88.57 589.95,-86.96 580.95,-85.34"/>
<polygon fill="midnightblue" stroke="midnightblue" points="581.38,-81.86 570.92,-83.51 580.13,-88.75 581.38,-81.86"/>
</g>
<!-- Node13&#45;&gt;Node12 -->
<g id="edge26" class="edge">
<title>Node13&#45;&gt;Node12</title>
<path fill="none" stroke="midnightblue" d="M890.84,-126.49C867.94,-117.47 831.85,-103.09 800.88,-90 799.09,-89.24 797.25,-88.46 795.4,-87.66"/>
<polygon fill="midnightblue" stroke="midnightblue" points="796.75,-84.43 786.19,-83.63 793.95,-90.84 796.75,-84.43"/>
</g>
<!-- Node14 -->
<g id="node15" class="node">
<title>Node14</title>
<g id="a_node15"><a xlink:title=" ">
<polygon fill="white" stroke="#bfbfbf" points="872.25,-63.5 872.25,-83.5 955.5,-83.5 955.5,-63.5 872.25,-63.5"/>
<text text-anchor="middle" x="913.88" y="-70.5" font-family="Helvetica,sans-Serif" font-size="10.00">hate/passkey.h</text>
</a>
</g>
</g>
<!-- Node13&#45;&gt;Node14 -->
<g id="edge28" class="edge">
<title>Node13&#45;&gt;Node14</title>
<path fill="none" stroke="midnightblue" d="M913.88,-126.5C913.88,-117.94 913.88,-104.78 913.88,-93.85"/>
<polygon fill="midnightblue" stroke="midnightblue" points="917.38,-93.54 913.88,-83.54 910.38,-93.54 917.38,-93.54"/>
</g>
<!-- Node15&#45;&gt;Node2 -->
<g id="edge35" class="edge">
<title>Node15&#45;&gt;Node2</title>
<path fill="none" stroke="midnightblue" d="M764.17,-127.51C761.03,-126.97 757.91,-126.47 754.88,-126 627.09,-106.35 590.85,-114.22 459.86,-90.03"/>
<polygon fill="midnightblue" stroke="midnightblue" points="460.31,-86.55 449.84,-88.15 459.02,-93.43 460.31,-86.55"/>
</g>
<!-- Node15&#45;&gt;Node4 -->
<g id="edge36" class="edge">
<title>Node15&#45;&gt;Node4</title>
<path fill="none" stroke="midnightblue" d="M764.18,-127.39C761.04,-126.88 757.91,-126.41 754.88,-126 570.99,-100.98 520.89,-126.2 338.88,-90 334.15,-89.06 329.24,-87.83 324.42,-86.46"/>
<polygon fill="midnightblue" stroke="midnightblue" points="325.37,-83.09 314.78,-83.54 323.34,-89.79 325.37,-83.09"/>
</g>
<!-- Node15&#45;&gt;Node7 -->
<g id="edge37" class="edge">
<title>Node15&#45;&gt;Node7</title>
<path fill="none" stroke="midnightblue" d="M785.66,-126.5C762.7,-116.27 724.99,-99.48 698.66,-87.76"/>
<polygon fill="midnightblue" stroke="midnightblue" points="699.74,-84.41 689.18,-83.54 696.89,-90.8 699.74,-84.41"/>
</g>
<!-- Node15&#45;&gt;Node10 -->
<g id="edge38" class="edge">
<title>Node15&#45;&gt;Node10</title>
<path fill="none" stroke="midnightblue" d="M764.27,-126.5C714.18,-115.66 630.05,-97.46 575.77,-85.72"/>
<polygon fill="midnightblue" stroke="midnightblue" points="576.17,-82.23 565.66,-83.54 574.69,-89.07 576.17,-82.23"/>
</g>
<!-- Node15&#45;&gt;Node12 -->
<g id="edge34" class="edge">
<title>Node15&#45;&gt;Node12</title>
<path fill="none" stroke="midnightblue" d="M799.98,-126.5C794.07,-117.49 784.82,-103.39 777.45,-92.14"/>
<polygon fill="midnightblue" stroke="midnightblue" points="780.22,-89.98 771.81,-83.54 774.36,-93.82 780.22,-89.98"/>
</g>
<!-- Node16 -->
<g id="node17" class="node">
<title>Node16</title>
<g id="a_node17"><a xlink:title=" ">
<polygon fill="white" stroke="#bfbfbf" points="809.49,-63.5 809.49,-83.5 848.27,-83.5 848.27,-63.5 809.49,-63.5"/>
<text text-anchor="middle" x="828.88" y="-70.5" font-family="Helvetica,sans-Serif" font-size="10.00">array</text>
</a>
</g>
</g>
<!-- Node15&#45;&gt;Node16 -->
<g id="edge33" class="edge">
<title>Node15&#45;&gt;Node16</title>
<path fill="none" stroke="midnightblue" d="M809.27,-126.5C812.57,-117.76 817.67,-104.23 821.84,-93.16"/>
<polygon fill="midnightblue" stroke="midnightblue" points="825.22,-94.13 825.47,-83.54 818.67,-91.66 825.22,-94.13"/>
</g>
<!-- Node17&#45;&gt;Node1 -->
<g id="edge40" class="edge">
<title>Node17&#45;&gt;Node1</title>
<path fill="none" stroke="midnightblue" d="M236.55,-126.5C227.53,-118.64 214.05,-106.9 202.19,-96.56"/>
<polygon fill="midnightblue" stroke="midnightblue" points="204.15,-93.62 194.31,-89.69 199.55,-98.9 204.15,-93.62"/>
</g>
<!-- Node17&#45;&gt;Node2 -->
<g id="edge41" class="edge">
<title>Node17&#45;&gt;Node2</title>
<path fill="none" stroke="midnightblue" d="M269.31,-126.5C290.95,-117.81 324.39,-104.39 351.88,-93.36"/>
<polygon fill="midnightblue" stroke="midnightblue" points="353.34,-96.55 361.32,-89.57 350.74,-90.05 353.34,-96.55"/>
</g>
<!-- Node17&#45;&gt;Node4 -->
<g id="edge42" class="edge">
<title>Node17&#45;&gt;Node4</title>
<path fill="none" stroke="midnightblue" d="M253.22,-126.5C259.64,-117.4 269.72,-103.1 277.68,-91.8"/>
<polygon fill="midnightblue" stroke="midnightblue" points="280.61,-93.73 283.51,-83.54 274.89,-89.69 280.61,-93.73"/>
</g>
<!-- Node17&#45;&gt;Node7 -->
<g id="edge43" class="edge">
<title>Node17&#45;&gt;Node7</title>
<path fill="none" stroke="midnightblue" d="M308.33,-127.12C311.22,-126.74 314.08,-126.36 316.88,-126 445.68,-109.27 479.2,-113.79 606.88,-90 613.11,-88.84 619.64,-87.43 626.03,-85.93"/>
<polygon fill="midnightblue" stroke="midnightblue" points="627.01,-89.29 635.9,-83.53 625.36,-82.49 627.01,-89.29"/>
</g>
<!-- Node17&#45;&gt;Node10 -->
<g id="edge44" class="edge">
<title>Node17&#45;&gt;Node10</title>
<path fill="none" stroke="midnightblue" d="M290.39,-126.46C333.29,-117.48 400.69,-103.18 458.88,-90 464.61,-88.7 470.61,-87.31 476.55,-85.92"/>
<polygon fill="midnightblue" stroke="midnightblue" points="477.52,-89.29 486.45,-83.58 475.91,-82.47 477.52,-89.29"/>
</g>
<!-- Node18&#45;&gt;Node1 -->
<g id="edge47" class="edge">
<title>Node18&#45;&gt;Node1</title>
<path fill="none" stroke="midnightblue" d="M348.22,-126.5C318.85,-117.59 273.05,-103.69 236.19,-92.5"/>
<polygon fill="midnightblue" stroke="midnightblue" points="237.13,-89.13 226.54,-89.57 235.1,-95.83 237.13,-89.13"/>
</g>
<!-- Node18&#45;&gt;Node2 -->
<g id="edge48" class="edge">
<title>Node18&#45;&gt;Node2</title>
<path fill="none" stroke="midnightblue" d="M380.98,-126.5C383.45,-119.32 387.04,-108.9 390.35,-99.27"/>
<polygon fill="midnightblue" stroke="midnightblue" points="393.7,-100.29 393.65,-89.69 387.09,-98.01 393.7,-100.29"/>
</g>
<!-- Node18&#45;&gt;Node4 -->
<g id="edge49" class="edge">
<title>Node18&#45;&gt;Node4</title>
<path fill="none" stroke="midnightblue" d="M364.89,-126.5C350.86,-116.77 328.25,-101.1 311.52,-89.5"/>
<polygon fill="midnightblue" stroke="midnightblue" points="313.13,-86.36 302.92,-83.54 309.14,-92.11 313.13,-86.36"/>
</g>
<!-- Node18&#45;&gt;Node7 -->
<g id="edge50" class="edge">
<title>Node18&#45;&gt;Node7</title>
<path fill="none" stroke="midnightblue" d="M427.16,-126.43C473.64,-117.7 545.18,-103.83 606.88,-90 612.36,-88.77 618.1,-87.42 623.78,-86.05"/>
<polygon fill="midnightblue" stroke="midnightblue" points="624.99,-89.35 633.87,-83.57 623.32,-82.56 624.99,-89.35"/>
</g>
<!-- Node18&#45;&gt;Node10 -->
<g id="edge51" class="edge">
<title>Node18&#45;&gt;Node10</title>
<path fill="none" stroke="midnightblue" d="M399.42,-126.5C424.11,-116.18 464.79,-99.19 492.88,-87.45"/>
<polygon fill="midnightblue" stroke="midnightblue" points="494.37,-90.62 502.25,-83.54 491.67,-84.16 494.37,-90.62"/>
</g>
<!-- Node18&#45;&gt;Node12 -->
<g id="edge46" class="edge">
<title>Node18&#45;&gt;Node12</title>
<path fill="none" stroke="midnightblue" d="M430.11,-127.26C433.07,-126.82 436.01,-126.4 438.88,-126 567.95,-107.97 604.1,-124.11 729.88,-90 732.56,-89.27 735.3,-88.39 738.01,-87.41"/>
<polygon fill="midnightblue" stroke="midnightblue" points="739.58,-90.55 747.56,-83.58 736.97,-84.05 739.58,-90.55"/>
</g>
<!-- Node19&#45;&gt;Node2 -->
<g id="edge54" class="edge">
<title>Node19&#45;&gt;Node2</title>
<path fill="none" stroke="midnightblue" d="M633.87,-126.45C590.82,-118.16 525.68,-105.22 460.01,-90.2"/>
<polygon fill="midnightblue" stroke="midnightblue" points="460.43,-86.7 449.9,-87.87 458.86,-93.53 460.43,-86.7"/>
</g>
<!-- Node19&#45;&gt;Node4 -->
<g id="edge55" class="edge">
<title>Node19&#45;&gt;Node4</title>
<path fill="none" stroke="midnightblue" d="M617.45,-130.33C548.07,-123.99 434.75,-111.35 338.88,-90 334.45,-89.01 329.84,-87.81 325.31,-86.51"/>
<polygon fill="midnightblue" stroke="midnightblue" points="326.17,-83.11 315.59,-83.56 324.14,-89.81 326.17,-83.11"/>
</g>
<!-- Node19&#45;&gt;Node7 -->
<g id="edge56" class="edge">
<title>Node19&#45;&gt;Node7</title>
<path fill="none" stroke="midnightblue" d="M679.96,-126.5C678.12,-117.85 675.27,-104.51 672.93,-93.5"/>
<polygon fill="midnightblue" stroke="midnightblue" points="676.31,-92.59 670.81,-83.54 669.47,-94.05 676.31,-92.59"/>
</g>
<!-- Node19&#45;&gt;Node10 -->
<g id="edge57" class="edge">
<title>Node19&#45;&gt;Node10</title>
<path fill="none" stroke="midnightblue" d="M658.57,-126.5C631.61,-116.09 587.06,-98.89 556.63,-87.14"/>
<polygon fill="midnightblue" stroke="midnightblue" points="557.88,-83.87 547.29,-83.54 555.36,-90.4 557.88,-83.87"/>
</g>
<!-- Node19&#45;&gt;Node12 -->
<g id="edge53" class="edge">
<title>Node19&#45;&gt;Node12</title>
<path fill="none" stroke="midnightblue" d="M694.27,-126.5C707.67,-116.77 729.25,-101.1 745.23,-89.5"/>
<polygon fill="midnightblue" stroke="midnightblue" points="747.4,-92.25 753.43,-83.54 743.29,-86.58 747.4,-92.25"/>
</g>
</g>
</svg>
        <g id="navigator" transform="translate(0 0)" fill="#404254">
                <rect fill="#f2f5e9" fill-opacity="0.5" stroke="#606060" stroke-width=".5" x="0" y="0" width="60" height="60"/>
                <use id="zoomplus" xlink:href="#zoomPlus" x="17" y="9" onmousedown="handleZoom(evt,'in')"/>
                <use id="zoomminus" xlink:href="#zoomMin" x="42" y="9" onmousedown="handleZoom(evt,'out')"/>
                <use id="reset" xlink:href="#resetDef" x="30" y="36" onmousedown="handleReset()"/>
                <g id="arrowUp" xlink:href="#dirArrow" transform="translate(30 24)" onmousedown="handlePan(0,-1)">
                  <use xlink:href="#rim" fill="#404040">
                        <set attributeName="fill" to="#808080" begin="arrowUp.mouseover" end="arrowUp.mouseout"/>
                  </use>
                  <path fill="none" stroke="white" stroke-width="1.5" d="M0,-3.0v7 M-2.5,-0.5L0,-3.0L2.5,-0.5"/>
                </g>
                <g id="arrowRight" xlink:href="#dirArrow" transform="rotate(90) translate(36 -43)" onmousedown="handlePan(1,0)">
                  <use xlink:href="#rim" fill="#404040">
                        <set attributeName="fill" to="#808080" begin="arrowRight.mouseover" end="arrowRight.mouseout"/>
                  </use>
                  <path fill="none" stroke="white" stroke-width="1.5" d="M0,-3.0v7 M-2.5,-0.5L0,-3.0L2.5,-0.5"/>
                </g>
                <g id="arrowDown" xlink:href="#dirArrow" transform="rotate(180) translate(-30 -48)" onmousedown="handlePan(0,1)">
                  <use xlink:href="#rim" fill="#404040">
                        <set attributeName="fill" to="#808080" begin="arrowDown.mouseover" end="arrowDown.mouseout"/>
                  </use>
                  <path fill="none" stroke="white" stroke-width="1.5" d="M0,-3.0v7 M-2.5,-0.5L0,-3.0L2.5,-0.5"/>
                </g>
                <g id="arrowLeft" xlink:href="#dirArrow" transform="rotate(270) translate(-36 17)" onmousedown="handlePan(-1,0)">
                  <use xlink:href="#rim" fill="#404040">
                        <set attributeName="fill" to="#808080" begin="arrowLeft.mouseover" end="arrowLeft.mouseout"/>
                  </use>
                  <path fill="none" stroke="white" stroke-width="1.5" d="M0,-3.0v7 M-2.5,-0.5L0,-3.0L2.5,-0.5"/>
                </g>
        </g>
        <svg viewBox="0 0 15 15" width="100%" height="30px" preserveAspectRatio="xMaxYMin meet">
         <g id="arrow_out" transform="scale(0.3 0.3)">
          <a xlink:href="chip_8h__incl_org.svg" target="_base">
           <rect id="button" ry="5" rx="5" y="6" x="6" height="38" width="38"
                fill="#f2f5e9" fill-opacity="0.5" stroke="#606060" stroke-width="1.0"/>
           <path id="arrow"
             d="M 11.500037,31.436501 C 11.940474,20.09759 22.043105,11.32322 32.158766,21.979434 L 37.068811,17.246167 C 37.068811,17.246167 37.088388,32 37.088388,32 L 22.160133,31.978069 C 22.160133,31.978069 26.997745,27.140456 26.997745,27.140456 C 18.528582,18.264221 13.291696,25.230495 11.500037,31.436501 z"
             style="fill:#404040;"/>
          </a>
         </g>
        </svg>
</svg>
