<?xml version="1.0" encoding="UTF-8" standalone="no"?>
<!DOCTYPE svg PUBLIC "-//W3C//DTD SVG 1.1//EN"
 "http://www.w3.org/Graphics/SVG/1.1/DTD/svg11.dtd">
<!-- Generated by graphviz version 2.43.0 (0)
 -->
<!-- Title: haldls::vx::DifferentialWriteTrait Pages: 1 -->
<!--zoomable 764 -->
<svg id="main" version="1.1" xmlns="http://www.w3.org/2000/svg" xmlns:xlink="http://www.w3.org/1999/xlink" xml:space="preserve" onload="init(evt)">
<style type="text/css"><![CDATA[
.edge:hover path { stroke: red; }
.edge:hover polygon { stroke: red; fill: red; }
]]></style>
<script type="text/javascript"><![CDATA[
var edges = document.getElementsByTagName('g');
if (edges && edges.length) {
  for (var i=0;i<edges.length;i++) {
    if (edges[i].id.substr(0,4)=='edge') {
      edges[i].setAttribute('class','edge');
    }
  }
}
]]></script>
        <defs>
                <circle id="rim" cx="0" cy="0" r="7"/>
                <circle id="rim2" cx="0" cy="0" r="3.5"/>
                <g id="zoomPlus">
                        <use xlink:href="#rim" fill="#404040">
                                <set attributeName="fill" to="#808080" begin="zoomplus.mouseover" end="zoomplus.mouseout"/>
                        </use>
                        <path d="M-4,0h8M0,-4v8" fill="none" stroke="white" stroke-width="1.5" pointer-events="none"/>
                </g>
                <g id="zoomMin">
                        <use xlink:href="#rim" fill="#404040">
                                <set attributeName="fill" to="#808080" begin="zoomminus.mouseover" end="zoomminus.mouseout"/>
                        </use>
                        <path d="M-4,0h8" fill="none" stroke="white" stroke-width="1.5" pointer-events="none"/>
                </g>
                <g id="dirArrow">
                        <path fill="none" stroke="white" stroke-width="1.5" d="M0,-3.0v7 M-2.5,-0.5L0,-3.0L2.5,-0.5"/>
                </g>
               <g id="resetDef">
                       <use xlink:href="#rim2" fill="#404040">
                               <set attributeName="fill" to="#808080" begin="reset.mouseover" end="reset.mouseout"/>
                       </use>
               </g>
        </defs>

<script type="text/javascript">
var viewWidth = 326;
var viewHeight = 764;
var sectionId = 'dynsection-0';
</script>
<script xlink:href="svgpan.js"/>
<svg id="graph" class="graph">
<g id="viewport">
<title>haldls::vx::DifferentialWriteTrait</title>
<polygon fill="white" stroke="transparent" points="-4,4 -4,-760 322.03,-760 322.03,4 -4,4"/>
<!-- Node0 -->
<g id="node1" class="node">
<title>Node0</title>
<g id="a_node1"><a xlink:title="Trait signalling derived&#45;from container type support differential write operation.">
<polygon fill="#bfbfbf" stroke="black" points="0,-358.5 0,-390.5 111.01,-390.5 111.01,-358.5 0,-358.5"/>
<text text-anchor="start" x="8" y="-377.5" font-family="Helvetica,sans-Serif" font-size="10.00">haldls::vx::Differential</text>
<text text-anchor="middle" x="55.5" y="-365.5" font-family="Helvetica,sans-Serif" font-size="10.00">WriteTrait</text>
</a>
</g>
</g>
<!-- Node1 -->
<g id="node2" class="node">
<title>Node1</title>
<g id="a_node2"><a xlink:href="classhaldls_1_1vx_1_1_cap_mem_cell.html" target="_top" xlink:title=" ">
<polygon fill="white" stroke="black" points="172.02,-735.5 172.02,-755.5 293.02,-755.5 293.02,-735.5 172.02,-735.5"/>
<text text-anchor="middle" x="232.52" y="-742.5" font-family="Helvetica,sans-Serif" font-size="10.00">haldls::vx::CapMemCell</text>
</a>
</g>
</g>
<!-- Node0&#45;&gt;Node1 -->
<g id="edge1" class="edge">
<title>Node0&#45;&gt;Node1</title>
<path fill="none" stroke="midnightblue" d="M59.71,-400.82C69.23,-474.52 99.62,-680.53 147.01,-726.5 153.92,-733.2 162.65,-737.74 171.87,-740.78"/>
<polygon fill="midnightblue" stroke="midnightblue" points="63.14,-400.04 58.41,-390.56 56.2,-400.92 63.14,-400.04"/>
</g>
<!-- Node2 -->
<g id="node3" class="node">
<title>Node2</title>
<g id="a_node3"><a xlink:href="classhaldls_1_1vx_1_1_column_correlation_quad.html" target="_top" xlink:title=" ">
<polygon fill="white" stroke="black" points="147.01,-696.5 147.01,-716.5 318.03,-716.5 318.03,-696.5 147.01,-696.5"/>
<text text-anchor="middle" x="232.52" y="-703.5" font-family="Helvetica,sans-Serif" font-size="10.00">haldls::vx::ColumnCorrelationQuad</text>
</a>
</g>
</g>
<!-- Node0&#45;&gt;Node2 -->
<g id="edge2" class="edge">
<title>Node0&#45;&gt;Node2</title>
<path fill="none" stroke="midnightblue" d="M55.78,-400.85C55.64,-461.07 64.23,-609.57 147.01,-687.5 150.73,-691 154.96,-693.91 159.48,-696.32"/>
<polygon fill="midnightblue" stroke="midnightblue" points="59.28,-400.71 55.89,-390.67 52.28,-400.63 59.28,-400.71"/>
</g>
<!-- Node3 -->
<g id="node4" class="node">
<title>Node3</title>
<g id="a_node4"><a xlink:href="classhaldls_1_1vx_1_1_column_current_quad.html" target="_top" xlink:title=" ">
<polygon fill="white" stroke="black" points="154.79,-657.5 154.79,-677.5 310.25,-677.5 310.25,-657.5 154.79,-657.5"/>
<text text-anchor="middle" x="232.52" y="-664.5" font-family="Helvetica,sans-Serif" font-size="10.00">haldls::vx::ColumnCurrentQuad</text>
</a>
</g>
</g>
<!-- Node0&#45;&gt;Node3 -->
<g id="edge3" class="edge">
<title>Node0&#45;&gt;Node3</title>
<path fill="none" stroke="midnightblue" d="M57.06,-400.95C59.72,-455.77 73.92,-582.23 147.01,-648.5 150.91,-652.04 155.32,-654.96 160.03,-657.37"/>
<polygon fill="midnightblue" stroke="midnightblue" points="60.55,-400.53 56.66,-390.68 53.55,-400.81 60.55,-400.53"/>
</g>
<!-- Node4 -->
<g id="node5" class="node">
<title>Node4</title>
<g id="a_node5"><a xlink:href="classhaldls_1_1vx_1_1_common_neuron_backend_config.html" target="_top" xlink:title="Read/write access to common neuron parameters.">
<polygon fill="white" stroke="black" points="164.23,-606.5 164.23,-638.5 300.8,-638.5 300.8,-606.5 164.23,-606.5"/>
<text text-anchor="start" x="172.23" y="-625.5" font-family="Helvetica,sans-Serif" font-size="10.00">haldls::vx::CommonNeuron</text>
<text text-anchor="middle" x="232.52" y="-613.5" font-family="Helvetica,sans-Serif" font-size="10.00">BackendConfig</text>
</a>
</g>
</g>
<!-- Node0&#45;&gt;Node4 -->
<g id="edge4" class="edge">
<title>Node0&#45;&gt;Node4</title>
<path fill="none" stroke="midnightblue" d="M59.75,-400.85C66.88,-447.39 88.26,-544.24 147.01,-597.5 152,-602.02 157.77,-605.73 163.9,-608.76"/>
<polygon fill="midnightblue" stroke="midnightblue" points="63.17,-400.08 58.29,-390.68 56.24,-401.07 63.17,-400.08"/>
</g>
<!-- Node5 -->
<g id="node6" class="node">
<title>Node5</title>
<g id="a_node6"><a xlink:href="classhaldls_1_1vx_1_1_common_p_a_d_i_bus_config.html" target="_top" xlink:title="Configuration for a PADI bus block.">
<polygon fill="white" stroke="black" points="160.34,-555.5 160.34,-587.5 304.69,-587.5 304.69,-555.5 160.34,-555.5"/>
<text text-anchor="start" x="168.34" y="-574.5" font-family="Helvetica,sans-Serif" font-size="10.00">haldls::vx::CommonPADIBus</text>
<text text-anchor="middle" x="232.52" y="-562.5" font-family="Helvetica,sans-Serif" font-size="10.00">Config</text>
</a>
</g>
</g>
<!-- Node0&#45;&gt;Node5 -->
<g id="edge5" class="edge">
<title>Node0&#45;&gt;Node5</title>
<path fill="none" stroke="midnightblue" d="M63.19,-400.46C74.23,-438.19 99.91,-507.87 147.01,-546.5 151.15,-549.9 155.74,-552.83 160.57,-555.37"/>
<polygon fill="midnightblue" stroke="midnightblue" points="66.52,-399.4 60.45,-390.72 59.78,-401.29 66.52,-399.4"/>
</g>
<!-- Node6 -->
<g id="node7" class="node">
<title>Node6</title>
<g id="a_node7"><a xlink:href="classhaldls_1_1vx_1_1_common_s_t_p_config.html" target="_top" xlink:title="Common STP configuration shared by synapse drivers per vertical half.">
<polygon fill="white" stroke="black" points="156.46,-516.5 156.46,-536.5 308.58,-536.5 308.58,-516.5 156.46,-516.5"/>
<text text-anchor="middle" x="232.52" y="-523.5" font-family="Helvetica,sans-Serif" font-size="10.00">haldls::vx::CommonSTPConfig</text>
</a>
</g>
</g>
<!-- Node0&#45;&gt;Node6 -->
<g id="edge6" class="edge">
<title>Node0&#45;&gt;Node6</title>
<path fill="none" stroke="midnightblue" d="M66.82,-400.03C80.5,-430.5 107.59,-480.69 147.01,-507.5 152.36,-511.14 158.29,-514.09 164.47,-516.48"/>
<polygon fill="midnightblue" stroke="midnightblue" points="69.89,-398.3 62.7,-390.51 63.46,-401.08 69.89,-398.3"/>
</g>
<!-- Node7 -->
<g id="node8" class="node">
<title>Node7</title>
<g id="a_node8"><a xlink:href="classhaldls_1_1vx_1_1_common_synram_config.html" target="_top" xlink:title=" ">
<polygon fill="white" stroke="black" points="163.4,-465.5 163.4,-497.5 301.63,-497.5 301.63,-465.5 163.4,-465.5"/>
<text text-anchor="start" x="171.4" y="-484.5" font-family="Helvetica,sans-Serif" font-size="10.00">haldls::vx::CommonSynram</text>
<text text-anchor="middle" x="232.52" y="-472.5" font-family="Helvetica,sans-Serif" font-size="10.00">Config</text>
</a>
</g>
</g>
<!-- Node0&#45;&gt;Node7 -->
<g id="edge7" class="edge">
<title>Node0&#45;&gt;Node7</title>
<path fill="none" stroke="midnightblue" d="M76.98,-398.14C94.03,-416.46 119.84,-441.23 147.01,-456.5 153.01,-459.87 159.52,-462.83 166.16,-465.42"/>
<polygon fill="midnightblue" stroke="midnightblue" points="79.55,-395.76 70.23,-390.72 74.37,-400.47 79.55,-395.76"/>
</g>
<!-- Node8 -->
<g id="node9" class="node">
<title>Node8</title>
<g id="a_node9"><a xlink:href="classhaldls_1_1vx_1_1_d_a_c_channel.html" target="_top" xlink:title="Container for individual configuration of the value of a DAC channel of the xBoard DACs.">
<polygon fill="white" stroke="black" points="171.73,-426.5 171.73,-446.5 293.3,-446.5 293.3,-426.5 171.73,-426.5"/>
<text text-anchor="middle" x="232.52" y="-433.5" font-family="Helvetica,sans-Serif" font-size="10.00">haldls::vx::DACChannel</text>
</a>
</g>
</g>
<!-- Node0&#45;&gt;Node8 -->
<g id="edge8" class="edge">
<title>Node0&#45;&gt;Node8</title>
<path fill="none" stroke="midnightblue" d="M94.91,-395.07C110.72,-402.92 129.41,-411.43 147.01,-417.5 156.96,-420.93 167.79,-423.91 178.27,-426.42"/>
<polygon fill="midnightblue" stroke="midnightblue" points="96.47,-391.94 85.97,-390.55 93.32,-398.19 96.47,-391.94"/>
</g>
<!-- Node9 -->
<g id="node10" class="node">
<title>Node9</title>
<g id="a_node10"><a xlink:href="classhaldls_1_1vx_1_1_d_a_c_control.html" target="_top" xlink:title="Container for enabling DAC channels of a xBoard DAC.">
<polygon fill="white" stroke="black" points="174.24,-387.5 174.24,-407.5 290.8,-407.5 290.8,-387.5 174.24,-387.5"/>
<text text-anchor="middle" x="232.52" y="-394.5" font-family="Helvetica,sans-Serif" font-size="10.00">haldls::vx::DACControl</text>
</a>
</g>
</g>
<!-- Node0&#45;&gt;Node9 -->
<g id="edge9" class="edge">
<title>Node0&#45;&gt;Node9</title>
<path fill="none" stroke="midnightblue" d="M121.41,-383.03C138.7,-385.3 157.24,-387.74 174.1,-389.95"/>
<polygon fill="midnightblue" stroke="midnightblue" points="121.77,-379.55 111.4,-381.71 120.86,-386.49 121.77,-379.55"/>
</g>
<!-- Node10 -->
<g id="node11" class="node">
<title>Node10</title>
<g id="a_node11"><a xlink:href="classhaldls_1_1vx_1_1_neuron_backend_config.html" target="_top" xlink:title="Read/write access to the NeuronBackend container.">
<polygon fill="white" stroke="black" points="165.06,-336.5 165.06,-368.5 299.98,-368.5 299.98,-336.5 165.06,-336.5"/>
<text text-anchor="start" x="173.06" y="-355.5" font-family="Helvetica,sans-Serif" font-size="10.00">haldls::vx::NeuronBackend</text>
<text text-anchor="middle" x="232.52" y="-343.5" font-family="Helvetica,sans-Serif" font-size="10.00">Config</text>
</a>
</g>
</g>
<!-- Node0&#45;&gt;Node10 -->
<g id="edge10" class="edge">
<title>Node0&#45;&gt;Node10</title>
<path fill="none" stroke="midnightblue" d="M121.52,-366.33C135.66,-364.55 150.63,-362.67 164.83,-360.88"/>
<polygon fill="midnightblue" stroke="midnightblue" points="120.89,-362.88 111.4,-367.6 121.76,-369.82 120.89,-362.88"/>
</g>
<!-- Node11 -->
<g id="node12" class="node">
<title>Node11</title>
<g id="a_node12"><a xlink:href="classhaldls_1_1vx_1_1_neuron_config.html" target="_top" xlink:title=" ">
<polygon fill="white" stroke="black" points="170.06,-297.5 170.06,-317.5 294.97,-317.5 294.97,-297.5 170.06,-297.5"/>
<text text-anchor="middle" x="232.52" y="-304.5" font-family="Helvetica,sans-Serif" font-size="10.00">haldls::vx::NeuronConfig</text>
</a>
</g>
</g>
<!-- Node0&#45;&gt;Node11 -->
<g id="edge11" class="edge">
<title>Node0&#45;&gt;Node11</title>
<path fill="none" stroke="midnightblue" d="M92.55,-353.17C108.77,-344.27 128.42,-334.41 147.01,-327.5 157.47,-323.61 168.94,-320.3 179.97,-317.56"/>
<polygon fill="midnightblue" stroke="midnightblue" points="90.44,-350.34 83.42,-358.28 93.86,-356.45 90.44,-350.34"/>
</g>
<!-- Node12 -->
<g id="node13" class="node">
<title>Node12</title>
<g id="a_node13"><a xlink:href="classhaldls_1_1vx_1_1_p_p_u_control_register.html" target="_top" xlink:title=" ">
<polygon fill="white" stroke="black" points="155.9,-258.5 155.9,-278.5 309.14,-278.5 309.14,-258.5 155.9,-258.5"/>
<text text-anchor="middle" x="232.52" y="-265.5" font-family="Helvetica,sans-Serif" font-size="10.00">haldls::vx::PPUControlRegister</text>
</a>
</g>
</g>
<!-- Node0&#45;&gt;Node12 -->
<g id="edge12" class="edge">
<title>Node0&#45;&gt;Node12</title>
<path fill="none" stroke="midnightblue" d="M75.62,-350.29C92.39,-330.71 118.49,-303.94 147.01,-288.5 154.57,-284.41 162.95,-281.15 171.41,-278.55"/>
<polygon fill="midnightblue" stroke="midnightblue" points="72.75,-348.27 69.03,-358.19 78.13,-352.75 72.75,-348.27"/>
</g>
<!-- Node13 -->
<g id="node14" class="node">
<title>Node13</title>
<g id="a_node14"><a xlink:href="classhaldls_1_1vx_1_1_shift_register.html" target="_top" xlink:title="Container for configuration of the 24&#45;bit wide shift register controlling six VDD switches,...">
<polygon fill="white" stroke="black" points="172.29,-219.5 172.29,-239.5 292.75,-239.5 292.75,-219.5 172.29,-219.5"/>
<text text-anchor="middle" x="232.52" y="-226.5" font-family="Helvetica,sans-Serif" font-size="10.00">haldls::vx::ShiftRegister</text>
</a>
</g>
</g>
<!-- Node0&#45;&gt;Node13 -->
<g id="edge13" class="edge">
<title>Node0&#45;&gt;Node13</title>
<path fill="none" stroke="midnightblue" d="M67.96,-349.2C82.29,-320.51 109.56,-274.48 147.01,-249.5 154.53,-244.48 163.18,-240.71 171.99,-237.89"/>
<polygon fill="midnightblue" stroke="midnightblue" points="64.8,-347.69 63.6,-358.21 71.11,-350.73 64.8,-347.69"/>
</g>
<!-- Node14 -->
<g id="node15" class="node">
<title>Node14</title>
<g id="a_node15"><a xlink:href="classhaldls_1_1vx_1_1_synapse_correlation_calib_quad.html" target="_top" xlink:title=" ">
<polygon fill="white" stroke="black" points="157.01,-168.5 157.01,-200.5 308.03,-200.5 308.03,-168.5 157.01,-168.5"/>
<text text-anchor="start" x="165.01" y="-187.5" font-family="Helvetica,sans-Serif" font-size="10.00">haldls::vx::SynapseCorrelation</text>
<text text-anchor="middle" x="232.52" y="-175.5" font-family="Helvetica,sans-Serif" font-size="10.00">CalibQuad</text>
</a>
</g>
</g>
<!-- Node0&#45;&gt;Node14 -->
<g id="edge14" class="edge">
<title>Node0&#45;&gt;Node14</title>
<path fill="none" stroke="midnightblue" d="M64,-348.51C75.77,-312.32 101.99,-247.09 147.01,-210.5 151.77,-206.63 157.11,-203.33 162.73,-200.52"/>
<polygon fill="midnightblue" stroke="midnightblue" points="60.58,-347.73 60.94,-358.32 67.26,-349.82 60.58,-347.73"/>
</g>
<!-- Node15 -->
<g id="node16" class="node">
<title>Node15</title>
<g id="a_node16"><a xlink:href="classhaldls_1_1vx_1_1_synapse_driver_config.html" target="_top" xlink:title=" ">
<polygon fill="white" stroke="black" points="168.12,-117.5 168.12,-149.5 296.91,-149.5 296.91,-117.5 168.12,-117.5"/>
<text text-anchor="start" x="176.12" y="-136.5" font-family="Helvetica,sans-Serif" font-size="10.00">haldls::vx::SynapseDriver</text>
<text text-anchor="middle" x="232.52" y="-124.5" font-family="Helvetica,sans-Serif" font-size="10.00">Config</text>
</a>
</g>
</g>
<!-- Node0&#45;&gt;Node15 -->
<g id="edge15" class="edge">
<title>Node0&#45;&gt;Node15</title>
<path fill="none" stroke="midnightblue" d="M60.21,-348.48C68,-303.43 90.29,-210.81 147.01,-159.5 153.04,-154.04 160.2,-149.73 167.76,-146.32"/>
<polygon fill="midnightblue" stroke="midnightblue" points="56.76,-347.92 58.61,-358.35 63.67,-349.04 56.76,-347.92"/>
</g>
<!-- Node16 -->
<g id="node17" class="node">
<title>Node16</title>
<g id="a_node17"><a xlink:href="classhaldls_1_1vx_1_1_synapse_label_quad.html" target="_top" xlink:title=" ">
<polygon fill="white" stroke="black" points="157,-78.5 157,-98.5 308.04,-98.5 308.04,-78.5 157,-78.5"/>
<text text-anchor="middle" x="232.52" y="-85.5" font-family="Helvetica,sans-Serif" font-size="10.00">haldls::vx::SynapseLabelQuad</text>
</a>
</g>
</g>
<!-- Node0&#45;&gt;Node16 -->
<g id="edge16" class="edge">
<title>Node0&#45;&gt;Node16</title>
<path fill="none" stroke="midnightblue" d="M57.4,-348.49C60.72,-295.14 76.08,-172.95 147.01,-108.5 151.47,-104.44 156.6,-101.17 162.09,-98.53"/>
<polygon fill="midnightblue" stroke="midnightblue" points="53.91,-348.32 56.88,-358.49 60.9,-348.69 53.91,-348.32"/>
</g>
<!-- Node17 -->
<g id="node18" class="node">
<title>Node17</title>
<g id="a_node18"><a xlink:href="classhaldls_1_1vx_1_1_synapse_quad.html" target="_top" xlink:title=" ">
<polygon fill="white" stroke="black" points="169.22,-39.5 169.22,-59.5 295.81,-59.5 295.81,-39.5 169.22,-39.5"/>
<text text-anchor="middle" x="232.52" y="-46.5" font-family="Helvetica,sans-Serif" font-size="10.00">haldls::vx::SynapseQuad</text>
</a>
</g>
</g>
<!-- Node0&#45;&gt;Node17 -->
<g id="edge17" class="edge">
<title>Node0&#45;&gt;Node17</title>
<path fill="none" stroke="midnightblue" d="M56.08,-348.09C56.64,-289.01 66.7,-145.43 147.01,-69.5 153.25,-63.6 160.91,-59.33 169.03,-56.26"/>
<polygon fill="midnightblue" stroke="midnightblue" points="52.58,-348.41 56.07,-358.42 59.58,-348.42 52.58,-348.41"/>
</g>
<!-- Node18 -->
<g id="node19" class="node">
<title>Node18</title>
<g id="a_node19"><a xlink:href="classhaldls_1_1vx_1_1_synapse_weight_quad.html" target="_top" xlink:title=" ">
<polygon fill="white" stroke="black" points="153.67,-0.5 153.67,-20.5 311.37,-20.5 311.37,-0.5 153.67,-0.5"/>
<text text-anchor="middle" x="232.52" y="-7.5" font-family="Helvetica,sans-Serif" font-size="10.00">haldls::vx::SynapseWeightQuad</text>
</a>
</g>
</g>
<!-- Node0&#45;&gt;Node18 -->
<g id="edge18" class="edge">
<title>Node0&#45;&gt;Node18</title>
<path fill="none" stroke="midnightblue" d="M59.9,-348.3C69.79,-275.91 100.86,-75.51 147.01,-30.5 151.11,-26.5 155.86,-23.25 160.96,-20.61"/>
<polygon fill="midnightblue" stroke="midnightblue" points="56.4,-348.02 58.54,-358.4 63.34,-348.96 56.4,-348.02"/>
</g>
</g>
</svg>
        <g id="navigator" transform="translate(0 0)" fill="#404254">
                <rect fill="#f2f5e9" fill-opacity="0.5" stroke="#606060" stroke-width=".5" x="0" y="0" width="60" height="60"/>
                <use id="zoomplus" xlink:href="#zoomPlus" x="17" y="9" onmousedown="handleZoom(evt,'in')"/>
                <use id="zoomminus" xlink:href="#zoomMin" x="42" y="9" onmousedown="handleZoom(evt,'out')"/>
                <use id="reset" xlink:href="#resetDef" x="30" y="36" onmousedown="handleReset()"/>
                <g id="arrowUp" xlink:href="#dirArrow" transform="translate(30 24)" onmousedown="handlePan(0,-1)">
                  <use xlink:href="#rim" fill="#404040">
                        <set attributeName="fill" to="#808080" begin="arrowUp.mouseover" end="arrowUp.mouseout"/>
                  </use>
                  <path fill="none" stroke="white" stroke-width="1.5" d="M0,-3.0v7 M-2.5,-0.5L0,-3.0L2.5,-0.5"/>
                </g>
                <g id="arrowRight" xlink:href="#dirArrow" transform="rotate(90) translate(36 -43)" onmousedown="handlePan(1,0)">
                  <use xlink:href="#rim" fill="#404040">
                        <set attributeName="fill" to="#808080" begin="arrowRight.mouseover" end="arrowRight.mouseout"/>
                  </use>
                  <path fill="none" stroke="white" stroke-width="1.5" d="M0,-3.0v7 M-2.5,-0.5L0,-3.0L2.5,-0.5"/>
                </g>
                <g id="arrowDown" xlink:href="#dirArrow" transform="rotate(180) translate(-30 -48)" onmousedown="handlePan(0,1)">
                  <use xlink:href="#rim" fill="#404040">
                        <set attributeName="fill" to="#808080" begin="arrowDown.mouseover" end="arrowDown.mouseout"/>
                  </use>
                  <path fill="none" stroke="white" stroke-width="1.5" d="M0,-3.0v7 M-2.5,-0.5L0,-3.0L2.5,-0.5"/>
                </g>
                <g id="arrowLeft" xlink:href="#dirArrow" transform="rotate(270) translate(-36 17)" onmousedown="handlePan(-1,0)">
                  <use xlink:href="#rim" fill="#404040">
                        <set attributeName="fill" to="#808080" begin="arrowLeft.mouseover" end="arrowLeft.mouseout"/>
                  </use>
                  <path fill="none" stroke="white" stroke-width="1.5" d="M0,-3.0v7 M-2.5,-0.5L0,-3.0L2.5,-0.5"/>
                </g>
        </g>
        <svg viewBox="0 0 15 15" width="100%" height="30px" preserveAspectRatio="xMaxYMin meet">
         <g id="arrow_out" transform="scale(0.3 0.3)">
          <a xlink:href="classhaldls_1_1vx_1_1_differential_write_trait__inherit__graph_org.svg" target="_base">
           <rect id="button" ry="5" rx="5" y="6" x="6" height="38" width="38"
                fill="#f2f5e9" fill-opacity="0.5" stroke="#606060" stroke-width="1.0"/>
           <path id="arrow"
             d="M 11.500037,31.436501 C 11.940474,20.09759 22.043105,11.32322 32.158766,21.979434 L 37.068811,17.246167 C 37.068811,17.246167 37.088388,32 37.088388,32 L 22.160133,31.978069 C 22.160133,31.978069 26.997745,27.140456 26.997745,27.140456 C 18.528582,18.264221 13.291696,25.230495 11.500037,31.436501 z"
             style="fill:#404040;"/>
          </a>
         </g>
        </svg>
</svg>
