<?xml version="1.0" encoding="UTF-8" standalone="no"?>
<!DOCTYPE svg PUBLIC "-//W3C//DTD SVG 1.1//EN"
 "http://www.w3.org/Graphics/SVG/1.1/DTD/svg11.dtd">
<!-- Generated by graphviz version 2.43.0 (0)
 -->
<!-- Title: haldls::vx::DifferentialWriteTrait Pages: 1 -->
<!--zoomable 635 -->
<svg id="main" version="1.1" xmlns="http://www.w3.org/2000/svg" xmlns:xlink="http://www.w3.org/1999/xlink" xml:space="preserve" onload="init(evt)">
<style type="text/css"><![CDATA[
.edge:hover path { stroke: red; }
.edge:hover polygon { stroke: red; fill: red; }
]]></style>
<script type="text/javascript"><![CDATA[
var edges = document.getElementsByTagName('g');
if (edges && edges.length) {
  for (var i=0;i<edges.length;i++) {
    if (edges[i].id.substr(0,4)=='edge') {
      edges[i].setAttribute('class','edge');
    }
  }
}
]]></script>
        <defs>
                <circle id="rim" cx="0" cy="0" r="7"/>
                <circle id="rim2" cx="0" cy="0" r="3.5"/>
                <g id="zoomPlus">
                        <use xlink:href="#rim" fill="#404040">
                                <set attributeName="fill" to="#808080" begin="zoomplus.mouseover" end="zoomplus.mouseout"/>
                        </use>
                        <path d="M-4,0h8M0,-4v8" fill="none" stroke="white" stroke-width="1.5" pointer-events="none"/>
                </g>
                <g id="zoomMin">
                        <use xlink:href="#rim" fill="#404040">
                                <set attributeName="fill" to="#808080" begin="zoomminus.mouseover" end="zoomminus.mouseout"/>
                        </use>
                        <path d="M-4,0h8" fill="none" stroke="white" stroke-width="1.5" pointer-events="none"/>
                </g>
                <g id="dirArrow">
                        <path fill="none" stroke="white" stroke-width="1.5" d="M0,-3.0v7 M-2.5,-0.5L0,-3.0L2.5,-0.5"/>
                </g>
               <g id="resetDef">
                       <use xlink:href="#rim2" fill="#404040">
                               <set attributeName="fill" to="#808080" begin="reset.mouseover" end="reset.mouseout"/>
                       </use>
               </g>
        </defs>

<script type="text/javascript">
var viewWidth = 326;
var viewHeight = 635;
var sectionId = 'dynsection-0';
</script>
<script xlink:href="svgpan.js"/>
<svg id="graph" class="graph">
<g id="viewport">
<title>haldls::vx::DifferentialWriteTrait</title>
<polygon fill="white" stroke="transparent" points="-4,4 -4,-631 322.03,-631 322.03,4 -4,4"/>
<!-- Node0 -->
<g id="node1" class="node">
<title>Node0</title>
<g id="a_node1"><a xlink:title="Trait signalling derived&#45;from container type support differential write operation.">
<polygon fill="#bfbfbf" stroke="black" points="0,-291.5 0,-323.5 111.01,-323.5 111.01,-291.5 0,-291.5"/>
<text text-anchor="start" x="8" y="-310.5" font-family="Helvetica,sans-Serif" font-size="10.00">haldls::vx::Differential</text>
<text text-anchor="middle" x="55.5" y="-298.5" font-family="Helvetica,sans-Serif" font-size="10.00">WriteTrait</text>
</a>
</g>
</g>
<!-- Node1 -->
<g id="node2" class="node">
<title>Node1</title>
<g id="a_node2"><a xlink:href="classhaldls_1_1vx_1_1CapMemCell.html" target="_top" xlink:title=" ">
<polygon fill="white" stroke="black" points="172.02,-606.5 172.02,-626.5 293.02,-626.5 293.02,-606.5 172.02,-606.5"/>
<text text-anchor="middle" x="232.52" y="-613.5" font-family="Helvetica,sans-Serif" font-size="10.00">haldls::vx::CapMemCell</text>
</a>
</g>
</g>
<!-- Node0&#45;&gt;Node1 -->
<g id="edge1" class="edge">
<title>Node0&#45;&gt;Node1</title>
<path fill="none" stroke="midnightblue" d="M56.49,-333.86C57.98,-390.93 69.93,-526.45 147.01,-597.5 153.98,-603.92 162.63,-608.33 171.72,-611.33"/>
<polygon fill="midnightblue" stroke="midnightblue" points="59.99,-333.48 56.32,-323.54 52.99,-333.6 59.99,-333.48"/>
</g>
<!-- Node2 -->
<g id="node3" class="node">
<title>Node2</title>
<g id="a_node3"><a xlink:href="classhaldls_1_1vx_1_1ColumnCorrelationQuad.html" target="_top" xlink:title=" ">
<polygon fill="white" stroke="black" points="147.01,-567.5 147.01,-587.5 318.03,-587.5 318.03,-567.5 147.01,-567.5"/>
<text text-anchor="middle" x="232.52" y="-574.5" font-family="Helvetica,sans-Serif" font-size="10.00">haldls::vx::ColumnCorrelationQuad</text>
</a>
</g>
</g>
<!-- Node0&#45;&gt;Node2 -->
<g id="edge2" class="edge">
<title>Node0&#45;&gt;Node2</title>
<path fill="none" stroke="midnightblue" d="M57.98,-333.88C62.35,-385.27 79.54,-498.97 147.01,-558.5 151.07,-562.08 155.66,-565.03 160.55,-567.46"/>
<polygon fill="midnightblue" stroke="midnightblue" points="61.45,-333.33 57.22,-323.62 54.47,-333.85 61.45,-333.33"/>
</g>
<!-- Node3 -->
<g id="node4" class="node">
<title>Node3</title>
<g id="a_node4"><a xlink:href="classhaldls_1_1vx_1_1ColumnCurrentQuad.html" target="_top" xlink:title=" ">
<polygon fill="white" stroke="black" points="154.79,-528.5 154.79,-548.5 310.25,-548.5 310.25,-528.5 154.79,-528.5"/>
<text text-anchor="middle" x="232.52" y="-535.5" font-family="Helvetica,sans-Serif" font-size="10.00">haldls::vx::ColumnCurrentQuad</text>
</a>
</g>
</g>
<!-- Node0&#45;&gt;Node3 -->
<g id="edge3" class="edge">
<title>Node0&#45;&gt;Node3</title>
<path fill="none" stroke="midnightblue" d="M59.93,-333.62C67.28,-378.76 88.92,-471.14 147.01,-519.5 151.29,-523.06 156.09,-525.99 161.18,-528.39"/>
<polygon fill="midnightblue" stroke="midnightblue" points="63.39,-333.08 58.42,-323.72 56.47,-334.13 63.39,-333.08"/>
</g>
<!-- Node4 -->
<g id="node5" class="node">
<title>Node4</title>
<g id="a_node5"><a xlink:href="classhaldls_1_1vx_1_1CommonNeuronBackendConfig.html" target="_top" xlink:title="Read/write access to common neuron parameters.">
<polygon fill="white" stroke="black" points="164.23,-477.5 164.23,-509.5 300.8,-509.5 300.8,-477.5 164.23,-477.5"/>
<text text-anchor="start" x="172.23" y="-496.5" font-family="Helvetica,sans-Serif" font-size="10.00">haldls::vx::CommonNeuron</text>
<text text-anchor="middle" x="232.52" y="-484.5" font-family="Helvetica,sans-Serif" font-size="10.00">BackendConfig</text>
</a>
</g>
</g>
<!-- Node0&#45;&gt;Node4 -->
<g id="edge4" class="edge">
<title>Node0&#45;&gt;Node4</title>
<path fill="none" stroke="midnightblue" d="M64.18,-333.36C76.08,-369.03 102.4,-432.93 147.01,-468.5 152.15,-472.6 157.95,-476.03 164.04,-478.9"/>
<polygon fill="midnightblue" stroke="midnightblue" points="67.46,-332.13 61.07,-323.68 60.79,-334.27 67.46,-332.13"/>
</g>
<!-- Node5 -->
<g id="node6" class="node">
<title>Node5</title>
<g id="a_node6"><a xlink:href="classhaldls_1_1vx_1_1CommonPADIBusConfig.html" target="_top" xlink:title="Configuration for a PADI bus block.">
<polygon fill="white" stroke="black" points="160.34,-426.5 160.34,-458.5 304.69,-458.5 304.69,-426.5 160.34,-426.5"/>
<text text-anchor="start" x="168.34" y="-445.5" font-family="Helvetica,sans-Serif" font-size="10.00">haldls::vx::CommonPADIBus</text>
<text text-anchor="middle" x="232.52" y="-433.5" font-family="Helvetica,sans-Serif" font-size="10.00">Config</text>
</a>
</g>
</g>
<!-- Node0&#45;&gt;Node5 -->
<g id="edge5" class="edge">
<title>Node0&#45;&gt;Node5</title>
<path fill="none" stroke="midnightblue" d="M70.61,-332.11C86.21,-357.16 113.59,-395.37 147.01,-417.5 152.11,-420.88 157.68,-423.81 163.45,-426.36"/>
<polygon fill="midnightblue" stroke="midnightblue" points="73.59,-330.27 65.41,-323.53 67.6,-333.9 73.59,-330.27"/>
</g>
<!-- Node6 -->
<g id="node7" class="node">
<title>Node6</title>
<g id="a_node7"><a xlink:href="classhaldls_1_1vx_1_1CommonSTPConfig.html" target="_top" xlink:title="Common STP configuration shared by synapse drivers per vertical half.">
<polygon fill="white" stroke="black" points="156.46,-387.5 156.46,-407.5 308.58,-407.5 308.58,-387.5 156.46,-387.5"/>
<text text-anchor="middle" x="232.52" y="-394.5" font-family="Helvetica,sans-Serif" font-size="10.00">haldls::vx::CommonSTPConfig</text>
</a>
</g>
</g>
<!-- Node0&#45;&gt;Node6 -->
<g id="edge6" class="edge">
<title>Node0&#45;&gt;Node6</title>
<path fill="none" stroke="midnightblue" d="M79.68,-330.47C96.88,-346.26 121.66,-366.47 147.01,-378.5 154.62,-382.11 162.94,-385.05 171.3,-387.44"/>
<polygon fill="midnightblue" stroke="midnightblue" points="82.02,-327.87 72.33,-323.58 77.22,-332.97 82.02,-327.87"/>
</g>
<!-- Node7 -->
<g id="node8" class="node">
<title>Node7</title>
<g id="a_node8"><a xlink:href="classhaldls_1_1vx_1_1CommonSynramConfig.html" target="_top" xlink:title=" ">
<polygon fill="white" stroke="black" points="163.4,-336.5 163.4,-368.5 301.63,-368.5 301.63,-336.5 163.4,-336.5"/>
<text text-anchor="start" x="171.4" y="-355.5" font-family="Helvetica,sans-Serif" font-size="10.00">haldls::vx::CommonSynram</text>
<text text-anchor="middle" x="232.52" y="-343.5" font-family="Helvetica,sans-Serif" font-size="10.00">Config</text>
</a>
</g>
</g>
<!-- Node0&#45;&gt;Node7 -->
<g id="edge7" class="edge">
<title>Node0&#45;&gt;Node7</title>
<path fill="none" stroke="midnightblue" d="M121.48,-324.21C137.08,-328.22 153.71,-332.49 169.19,-336.47"/>
<polygon fill="midnightblue" stroke="midnightblue" points="121.96,-320.72 111.4,-321.61 120.21,-327.49 121.96,-320.72"/>
</g>
<!-- Node8 -->
<g id="node9" class="node">
<title>Node8</title>
<g id="a_node9"><a xlink:href="classhaldls_1_1vx_1_1DACChannel.html" target="_top" xlink:title="Container for individual configuration of the value of a DAC channel of the xBoard DACs.">
<polygon fill="white" stroke="black" points="171.73,-297.5 171.73,-317.5 293.3,-317.5 293.3,-297.5 171.73,-297.5"/>
<text text-anchor="middle" x="232.52" y="-304.5" font-family="Helvetica,sans-Serif" font-size="10.00">haldls::vx::DACChannel</text>
</a>
</g>
</g>
<!-- Node0&#45;&gt;Node8 -->
<g id="edge8" class="edge">
<title>Node0&#45;&gt;Node8</title>
<path fill="none" stroke="midnightblue" d="M121.47,-307.5C137.9,-307.5 155.48,-307.5 171.66,-307.5"/>
<polygon fill="midnightblue" stroke="midnightblue" points="121.4,-304 111.4,-307.5 121.4,-311 121.4,-304"/>
</g>
<!-- Node9 -->
<g id="node10" class="node">
<title>Node9</title>
<g id="a_node10"><a xlink:href="classhaldls_1_1vx_1_1DACControl.html" target="_top" xlink:title="Container for enabling DAC channels of a xBoard DAC.">
<polygon fill="white" stroke="black" points="174.24,-258.5 174.24,-278.5 290.8,-278.5 290.8,-258.5 174.24,-258.5"/>
<text text-anchor="middle" x="232.52" y="-265.5" font-family="Helvetica,sans-Serif" font-size="10.00">haldls::vx::DACControl</text>
</a>
</g>
</g>
<!-- Node0&#45;&gt;Node9 -->
<g id="edge9" class="edge">
<title>Node0&#45;&gt;Node9</title>
<path fill="none" stroke="midnightblue" d="M121.21,-293.08C142.91,-288.24 166.63,-282.96 186.49,-278.53"/>
<polygon fill="midnightblue" stroke="midnightblue" points="120.4,-289.68 111.4,-295.27 121.92,-296.51 120.4,-289.68"/>
</g>
<!-- Node10 -->
<g id="node11" class="node">
<title>Node10</title>
<g id="a_node11"><a xlink:href="classhaldls_1_1vx_1_1NeuronBackendConfig.html" target="_top" xlink:title="Read/write access to the NeuronBackend container.">
<polygon fill="white" stroke="black" points="165.06,-207.5 165.06,-239.5 299.98,-239.5 299.98,-207.5 165.06,-207.5"/>
<text text-anchor="start" x="173.06" y="-226.5" font-family="Helvetica,sans-Serif" font-size="10.00">haldls::vx::NeuronBackend</text>
<text text-anchor="middle" x="232.52" y="-214.5" font-family="Helvetica,sans-Serif" font-size="10.00">Config</text>
</a>
</g>
</g>
<!-- Node0&#45;&gt;Node10 -->
<g id="edge10" class="edge">
<title>Node0&#45;&gt;Node10</title>
<path fill="none" stroke="midnightblue" d="M86.3,-285.48C103.41,-273.6 125.67,-259.39 147.01,-249.5 154.95,-245.82 163.54,-242.49 172.1,-239.53"/>
<polygon fill="midnightblue" stroke="midnightblue" points="84.01,-282.82 77.86,-291.45 88.05,-288.53 84.01,-282.82"/>
</g>
<!-- Node11 -->
<g id="node12" class="node">
<title>Node11</title>
<g id="a_node12"><a xlink:href="classhaldls_1_1vx_1_1NeuronConfig.html" target="_top" xlink:title=" ">
<polygon fill="white" stroke="black" points="170.06,-168.5 170.06,-188.5 294.97,-188.5 294.97,-168.5 170.06,-168.5"/>
<text text-anchor="middle" x="232.52" y="-175.5" font-family="Helvetica,sans-Serif" font-size="10.00">haldls::vx::NeuronConfig</text>
</a>
</g>
</g>
<!-- Node0&#45;&gt;Node11 -->
<g id="edge11" class="edge">
<title>Node0&#45;&gt;Node11</title>
<path fill="none" stroke="midnightblue" d="M70.43,-282.74C85.87,-257.62 113.13,-219.51 147.01,-198.5 153.93,-194.21 161.69,-190.84 169.63,-188.19"/>
<polygon fill="midnightblue" stroke="midnightblue" points="67.4,-280.98 65.28,-291.36 73.41,-284.57 67.4,-280.98"/>
</g>
<!-- Node12 -->
<g id="node13" class="node">
<title>Node12</title>
<g id="a_node13"><a xlink:href="classhaldls_1_1vx_1_1PPUControlRegister.html" target="_top" xlink:title=" ">
<polygon fill="white" stroke="black" points="155.9,-129.5 155.9,-149.5 309.14,-149.5 309.14,-129.5 155.9,-129.5"/>
<text text-anchor="middle" x="232.52" y="-136.5" font-family="Helvetica,sans-Serif" font-size="10.00">haldls::vx::PPUControlRegister</text>
</a>
</g>
</g>
<!-- Node0&#45;&gt;Node12 -->
<g id="edge12" class="edge">
<title>Node0&#45;&gt;Node12</title>
<path fill="none" stroke="midnightblue" d="M65.16,-281.66C77.74,-248.17 104.36,-190.41 147.01,-159.5 152.62,-155.43 158.95,-152.18 165.55,-149.58"/>
<polygon fill="midnightblue" stroke="midnightblue" points="61.81,-280.63 61.7,-291.22 68.39,-283.01 61.81,-280.63"/>
</g>
<!-- Node13 -->
<g id="node14" class="node">
<title>Node13</title>
<g id="a_node14"><a xlink:href="classhaldls_1_1vx_1_1ShiftRegister.html" target="_top" xlink:title="Container for configuration of the 24&#45;bit wide shift register controlling six VDD switches,...">
<polygon fill="white" stroke="black" points="172.29,-90.5 172.29,-110.5 292.75,-110.5 292.75,-90.5 172.29,-90.5"/>
<text text-anchor="middle" x="232.52" y="-97.5" font-family="Helvetica,sans-Serif" font-size="10.00">haldls::vx::ShiftRegister</text>
</a>
</g>
</g>
<!-- Node0&#45;&gt;Node13 -->
<g id="edge13" class="edge">
<title>Node0&#45;&gt;Node13</title>
<path fill="none" stroke="midnightblue" d="M61.66,-281.34C71.12,-240.51 95.23,-162.05 147.01,-120.5 154.3,-114.65 163.02,-110.46 172.04,-107.47"/>
<polygon fill="midnightblue" stroke="midnightblue" points="58.2,-280.81 59.47,-291.32 65.03,-282.31 58.2,-280.81"/>
</g>
<!-- Node14 -->
<g id="node15" class="node">
<title>Node14</title>
<g id="a_node15"><a xlink:href="classhaldls_1_1vx_1_1SynapseDriverConfig.html" target="_top" xlink:title=" ">
<polygon fill="white" stroke="black" points="168.12,-39.5 168.12,-71.5 296.91,-71.5 296.91,-39.5 168.12,-39.5"/>
<text text-anchor="start" x="176.12" y="-58.5" font-family="Helvetica,sans-Serif" font-size="10.00">haldls::vx::SynapseDriver</text>
<text text-anchor="middle" x="232.52" y="-46.5" font-family="Helvetica,sans-Serif" font-size="10.00">Config</text>
</a>
</g>
</g>
<!-- Node0&#45;&gt;Node14 -->
<g id="edge14" class="edge">
<title>Node0&#45;&gt;Node14</title>
<path fill="none" stroke="midnightblue" d="M59.6,-281.51C66.55,-234.71 87.73,-136.08 147.01,-81.5 153.11,-75.89 160.39,-71.48 168.09,-68.03"/>
<polygon fill="midnightblue" stroke="midnightblue" points="56.13,-281.07 58.22,-291.45 63.06,-282.03 56.13,-281.07"/>
</g>
<!-- Node15 -->
<g id="node16" class="node">
<title>Node15</title>
<g id="a_node16"><a xlink:href="classhaldls_1_1vx_1_1SynapseQuad.html" target="_top" xlink:title=" ">
<polygon fill="white" stroke="black" points="169.22,-0.5 169.22,-20.5 295.81,-20.5 295.81,-0.5 169.22,-0.5"/>
<text text-anchor="middle" x="232.52" y="-7.5" font-family="Helvetica,sans-Serif" font-size="10.00">haldls::vx::SynapseQuad</text>
</a>
</g>
</g>
<!-- Node0&#45;&gt;Node15 -->
<g id="edge15" class="edge">
<title>Node0&#45;&gt;Node15</title>
<path fill="none" stroke="midnightblue" d="M57.01,-281.18C59.55,-226.08 73.53,-98.09 147.01,-30.5 153.33,-24.68 161.03,-20.46 169.18,-17.42"/>
<polygon fill="midnightblue" stroke="midnightblue" points="53.51,-281.07 56.64,-291.19 60.51,-281.33 53.51,-281.07"/>
</g>
</g>
</svg>
        <g id="navigator" transform="translate(0 0)" fill="#404254">
                <rect fill="#f2f5e9" fill-opacity="0.5" stroke="#606060" stroke-width=".5" x="0" y="0" width="60" height="60"/>
                <use id="zoomplus" xlink:href="#zoomPlus" x="17" y="9" onmousedown="handleZoom(evt,'in')"/>
                <use id="zoomminus" xlink:href="#zoomMin" x="42" y="9" onmousedown="handleZoom(evt,'out')"/>
                <use id="reset" xlink:href="#resetDef" x="30" y="36" onmousedown="handleReset()"/>
                <g id="arrowUp" xlink:href="#dirArrow" transform="translate(30 24)" onmousedown="handlePan(0,-1)">
                  <use xlink:href="#rim" fill="#404040">
                        <set attributeName="fill" to="#808080" begin="arrowUp.mouseover" end="arrowUp.mouseout"/>
                  </use>
                  <path fill="none" stroke="white" stroke-width="1.5" d="M0,-3.0v7 M-2.5,-0.5L0,-3.0L2.5,-0.5"/>
                </g>
                <g id="arrowRight" xlink:href="#dirArrow" transform="rotate(90) translate(36 -43)" onmousedown="handlePan(1,0)">
                  <use xlink:href="#rim" fill="#404040">
                        <set attributeName="fill" to="#808080" begin="arrowRight.mouseover" end="arrowRight.mouseout"/>
                  </use>
                  <path fill="none" stroke="white" stroke-width="1.5" d="M0,-3.0v7 M-2.5,-0.5L0,-3.0L2.5,-0.5"/>
                </g>
                <g id="arrowDown" xlink:href="#dirArrow" transform="rotate(180) translate(-30 -48)" onmousedown="handlePan(0,1)">
                  <use xlink:href="#rim" fill="#404040">
                        <set attributeName="fill" to="#808080" begin="arrowDown.mouseover" end="arrowDown.mouseout"/>
                  </use>
                  <path fill="none" stroke="white" stroke-width="1.5" d="M0,-3.0v7 M-2.5,-0.5L0,-3.0L2.5,-0.5"/>
                </g>
                <g id="arrowLeft" xlink:href="#dirArrow" transform="rotate(270) translate(-36 17)" onmousedown="handlePan(-1,0)">
                  <use xlink:href="#rim" fill="#404040">
                        <set attributeName="fill" to="#808080" begin="arrowLeft.mouseover" end="arrowLeft.mouseout"/>
                  </use>
                  <path fill="none" stroke="white" stroke-width="1.5" d="M0,-3.0v7 M-2.5,-0.5L0,-3.0L2.5,-0.5"/>
                </g>
        </g>
        <svg viewBox="0 0 15 15" width="100%" height="30px" preserveAspectRatio="xMaxYMin meet">
         <g id="arrow_out" transform="scale(0.3 0.3)">
          <a xlink:href="classhaldls_1_1vx_1_1DifferentialWriteTrait__inherit__graph_org.svg" target="_base">
           <rect id="button" ry="5" rx="5" y="6" x="6" height="38" width="38"
                fill="#f2f5e9" fill-opacity="0.5" stroke="#606060" stroke-width="1.0"/>
           <path id="arrow"
             d="M 11.500037,31.436501 C 11.940474,20.09759 22.043105,11.32322 32.158766,21.979434 L 37.068811,17.246167 C 37.068811,17.246167 37.088388,32 37.088388,32 L 22.160133,31.978069 C 22.160133,31.978069 26.997745,27.140456 26.997745,27.140456 C 18.528582,18.264221 13.291696,25.230495 11.500037,31.436501 z"
             style="fill:#404040;"/>
          </a>
         </g>
        </svg>
</svg>
