<?xml version="1.0" encoding="UTF-8" standalone="no"?>
<!DOCTYPE svg PUBLIC "-//W3C//DTD SVG 1.1//EN"
 "http://www.w3.org/Graphics/SVG/1.1/DTD/svg11.dtd">
<!-- Generated by graphviz version 2.43.0 (0)
 -->
<!-- Title: haldls::v2::detail::CorrelationBlockBase&lt; T &gt; Pages: 1 -->
<svg width="661pt" height="167pt"
 viewBox="0.00 0.00 661.32 167.00" xmlns="http://www.w3.org/2000/svg" xmlns:xlink="http://www.w3.org/1999/xlink">
<g id="graph0" class="graph" transform="scale(1 1) rotate(0) translate(4 163)">
<title>haldls::v2::detail::CorrelationBlockBase&lt; T &gt;</title>
<polygon fill="white" stroke="transparent" points="-4,4 -4,-163 657.32,-163 657.32,4 -4,4"/>
<!-- Node0 -->
<g id="node1" class="node">
<title>Node0</title>
<g id="a_node1"><a xlink:title="Base class for a&#45;/causal correlation block Causal and acausal correlation identical besides address s...">
<polygon fill="#bfbfbf" stroke="black" points="0,-69.5 0,-101.5 141.03,-101.5 141.03,-69.5 0,-69.5"/>
<text text-anchor="start" x="8" y="-88.5" font-family="Helvetica,sans-Serif" font-size="10.00">haldls::v2::detail</text>
<text text-anchor="middle" x="70.51" y="-76.5" font-family="Helvetica,sans-Serif" font-size="10.00">::CorrelationBlockBase&lt; T &gt;</text>
</a>
</g>
</g>
<!-- Node1 -->
<g id="node2" class="node">
<title>Node1</title>
<g id="a_node2"><a xlink:href="classhaldls_1_1v2_1_1AcausalCorrelationBlock.html" target="_top" xlink:title="Container representing a block of acausal correlation values (read only).">
<polygon fill="white" stroke="black" points="305.94,-126.5 305.94,-158.5 472.53,-158.5 472.53,-126.5 305.94,-126.5"/>
<text text-anchor="start" x="313.94" y="-145.5" font-family="Helvetica,sans-Serif" font-size="10.00">haldls::v2::AcausalCorrelation</text>
<text text-anchor="middle" x="389.23" y="-133.5" font-family="Helvetica,sans-Serif" font-size="10.00">Block&lt; AcausalCorrelationBlock &gt;</text>
</a>
</g>
</g>
<!-- Node0&#45;&gt;Node1 -->
<g id="edge1" class="edge">
<title>Node0&#45;&gt;Node1</title>
<path fill="none" stroke="midnightblue" d="M151.34,-100.11C153.93,-100.58 156.5,-101.04 159.03,-101.5 207.66,-110.29 262.11,-120.04 305.74,-127.82"/>
<polygon fill="midnightblue" stroke="midnightblue" points="151.71,-96.62 141.25,-98.27 150.46,-103.51 151.71,-96.62"/>
</g>
<!-- Node2 -->
<g id="node3" class="node">
<title>Node2</title>
<g id="a_node3"><a xlink:href="classhaldls_1_1v2_1_1detail_1_1CorrelationBlockBase.html" target="_top" xlink:title=" ">
<polygon fill="white" stroke="black" points="320.39,-63.5 320.39,-107.5 458.08,-107.5 458.08,-63.5 320.39,-63.5"/>
<text text-anchor="start" x="328.39" y="-94.5" font-family="Helvetica,sans-Serif" font-size="10.00">haldls::v2::detail</text>
<text text-anchor="start" x="328.39" y="-82.5" font-family="Helvetica,sans-Serif" font-size="10.00">::CorrelationBlockBase</text>
<text text-anchor="middle" x="389.23" y="-70.5" font-family="Helvetica,sans-Serif" font-size="10.00">&lt; CausalCorrelationBlock &gt;</text>
</a>
</g>
</g>
<!-- Node0&#45;&gt;Node2 -->
<g id="edge2" class="edge">
<title>Node0&#45;&gt;Node2</title>
<path fill="none" stroke="orange" stroke-dasharray="5,2" d="M151.6,-85.5C203.63,-85.5 270.7,-85.5 320.15,-85.5"/>
<polygon fill="orange" stroke="orange" points="151.41,-82 141.41,-85.5 151.41,-89 151.41,-82"/>
<text text-anchor="middle" x="223.48" y="-88.5" font-family="Helvetica,sans-Serif" font-size="10.00"> &lt; CausalCorrelationBlock &gt;</text>
</g>
<!-- Node4 -->
<g id="node5" class="node">
<title>Node4</title>
<g id="a_node5"><a xlink:href="classhaldls_1_1v2_1_1detail_1_1CorrelationBlockBase.html" target="_top" xlink:title=" ">
<polygon fill="white" stroke="black" points="318.17,-0.5 318.17,-44.5 460.3,-44.5 460.3,-0.5 318.17,-0.5"/>
<text text-anchor="start" x="326.17" y="-31.5" font-family="Helvetica,sans-Serif" font-size="10.00">haldls::v2::detail</text>
<text text-anchor="start" x="326.17" y="-19.5" font-family="Helvetica,sans-Serif" font-size="10.00">::CorrelationBlockBase</text>
<text text-anchor="middle" x="389.23" y="-7.5" font-family="Helvetica,sans-Serif" font-size="10.00">&lt; AcausalCorrelationBlock &gt;</text>
</a>
</g>
</g>
<!-- Node0&#45;&gt;Node4 -->
<g id="edge4" class="edge">
<title>Node0&#45;&gt;Node4</title>
<path fill="none" stroke="orange" stroke-dasharray="5,2" d="M151.46,-69.6C202.74,-59.4 268.7,-46.28 317.97,-36.48"/>
<polygon fill="orange" stroke="orange" points="150.54,-66.21 141.41,-71.6 151.9,-73.08 150.54,-66.21"/>
<text text-anchor="middle" x="223.48" y="-70.5" font-family="Helvetica,sans-Serif" font-size="10.00"> &lt; AcausalCorrelationBlock &gt;</text>
</g>
<!-- Node3 -->
<g id="node4" class="node">
<title>Node3</title>
<g id="a_node4"><a xlink:href="classhaldls_1_1v2_1_1CausalCorrelationBlock.html" target="_top" xlink:title="Container representing a block of causal correlation values (read only).">
<polygon fill="white" stroke="black" points="509.53,-69.5 509.53,-101.5 653.32,-101.5 653.32,-69.5 509.53,-69.5"/>
<text text-anchor="start" x="517.53" y="-88.5" font-family="Helvetica,sans-Serif" font-size="10.00">haldls::v2::CausalCorrelation</text>
<text text-anchor="middle" x="581.42" y="-76.5" font-family="Helvetica,sans-Serif" font-size="10.00">Block</text>
</a>
</g>
</g>
<!-- Node2&#45;&gt;Node3 -->
<g id="edge3" class="edge">
<title>Node2&#45;&gt;Node3</title>
<path fill="none" stroke="midnightblue" d="M468.36,-85.5C481.94,-85.5 496,-85.5 509.38,-85.5"/>
<polygon fill="midnightblue" stroke="midnightblue" points="468.09,-82 458.09,-85.5 468.09,-89 468.09,-82"/>
</g>
</g>
</svg>
