<?xml version="1.0" encoding="UTF-8" standalone="no"?>
<!DOCTYPE svg PUBLIC "-//W3C//DTD SVG 1.1//EN"
 "http://www.w3.org/Graphics/SVG/1.1/DTD/svg11.dtd">
<!-- Generated by graphviz version 2.43.0 (0)
 -->
<!-- Title: /jenkins/jenlib_workspaces_f9/bld_nightly&#45;haldls.YmxkX25pZ2h0bHktaGFsZGxzIzY1NQ.x/haldls/include/haldls/vx/constants.h Pages: 1 -->
<svg width="954pt" height="260pt"
 viewBox="0.00 0.00 953.57 260.00" xmlns="http://www.w3.org/2000/svg" xmlns:xlink="http://www.w3.org/1999/xlink">
<g id="graph0" class="graph" transform="scale(1 1) rotate(0) translate(4 256)">
<title>/jenkins/jenlib_workspaces_f9/bld_nightly&#45;haldls.YmxkX25pZ2h0bHktaGFsZGxzIzY1NQ.x/haldls/include/haldls/vx/constants.h</title>
<polygon fill="white" stroke="transparent" points="-4,4 -4,-256 949.57,-256 949.57,4 -4,4"/>
<!-- Node0 -->
<g id="node1" class="node">
<title>Node0</title>
<g id="a_node1"><a xlink:title=" ">
<polygon fill="#bfbfbf" stroke="black" points="44.39,-195.5 44.39,-251.5 223.75,-251.5 223.75,-195.5 44.39,-195.5"/>
<text text-anchor="start" x="52.39" y="-238.5" font-family="Helvetica,sans-Serif" font-size="10.00">/jenkins/jenlib_workspaces</text>
<text text-anchor="start" x="52.39" y="-226.5" font-family="Helvetica,sans-Serif" font-size="10.00">_f9/bld_nightly&#45;haldls.YmxkX25p</text>
<text text-anchor="start" x="52.39" y="-214.5" font-family="Helvetica,sans-Serif" font-size="10.00">Z2h0bHktaGFsZGxzIzY1NQ.x/haldls</text>
<text text-anchor="middle" x="134.07" y="-202.5" font-family="Helvetica,sans-Serif" font-size="10.00">/include/haldls/vx/constants.h</text>
</a>
</g>
</g>
<!-- Node1 -->
<g id="node2" class="node">
<title>Node1</title>
<g id="a_node2"><a xlink:href="genpybind_8h.html" target="_top" xlink:title=" ">
<polygon fill="white" stroke="black" points="0,-6.5 0,-26.5 112.14,-26.5 112.14,-6.5 0,-6.5"/>
<text text-anchor="middle" x="56.07" y="-13.5" font-family="Helvetica,sans-Serif" font-size="10.00">haldls/vx/genpybind.h</text>
</a>
</g>
</g>
<!-- Node0&#45;&gt;Node1 -->
<g id="edge1" class="edge">
<title>Node0&#45;&gt;Node1</title>
<path fill="none" stroke="midnightblue" d="M109.41,-195.2C90.41,-172.21 65.66,-137.47 55.07,-102 48.6,-80.32 50.29,-54.1 52.65,-36.67"/>
<polygon fill="midnightblue" stroke="midnightblue" points="56.14,-37.05 54.23,-26.62 49.22,-35.96 56.14,-37.05"/>
</g>
<!-- Node2 -->
<g id="node3" class="node">
<title>Node2</title>
<g id="a_node3"><a xlink:href="timer_8h.html" target="_top" xlink:title=" ">
<polygon fill="white" stroke="black" points="206.96,-138.5 206.96,-158.5 295.18,-158.5 295.18,-138.5 206.96,-138.5"/>
<text text-anchor="middle" x="251.07" y="-145.5" font-family="Helvetica,sans-Serif" font-size="10.00">haldls/vx/timer.h</text>
</a>
</g>
</g>
<!-- Node0&#45;&gt;Node2 -->
<g id="edge3" class="edge">
<title>Node0&#45;&gt;Node2</title>
<path fill="none" stroke="midnightblue" d="M177.64,-195.32C194.69,-184.68 213.56,-172.9 227.9,-163.96"/>
<polygon fill="midnightblue" stroke="midnightblue" points="229.98,-166.79 236.61,-158.52 226.27,-160.85 229.98,-166.79"/>
</g>
<!-- Node1&#45;&gt;Node1 -->
<g id="edge2" class="edge">
<title>Node1&#45;&gt;Node1</title>
<path fill="none" stroke="midnightblue" d="M79.97,-26.54C103.79,-32.26 130.14,-28.92 130.14,-16.5 130.14,-5.78 110.51,-1.82 89.81,-4.62"/>
<polygon fill="midnightblue" stroke="midnightblue" points="89.15,-1.18 79.97,-6.46 90.44,-8.06 89.15,-1.18"/>
</g>
<!-- Node2&#45;&gt;Node1 -->
<g id="edge9" class="edge">
<title>Node2&#45;&gt;Node1</title>
<path fill="none" stroke="midnightblue" d="M206.61,-141.36C160.65,-134.12 93.13,-120.64 75.07,-102 58.27,-84.66 55.07,-55.82 55.02,-36.74"/>
<polygon fill="midnightblue" stroke="midnightblue" points="58.52,-36.64 55.29,-26.55 51.53,-36.45 58.52,-36.64"/>
</g>
<!-- Node3 -->
<g id="node4" class="node">
<title>Node3</title>
<g id="a_node4"><a xlink:title=" ">
<polygon fill="white" stroke="#bfbfbf" points="83.68,-75.5 83.68,-95.5 122.46,-95.5 122.46,-75.5 83.68,-75.5"/>
<text text-anchor="middle" x="103.07" y="-82.5" font-family="Helvetica,sans-Serif" font-size="10.00">array</text>
</a>
</g>
</g>
<!-- Node2&#45;&gt;Node3 -->
<g id="edge4" class="edge">
<title>Node2&#45;&gt;Node3</title>
<path fill="none" stroke="midnightblue" d="M223.93,-138.46C199.3,-129.96 162.2,-116.43 131.07,-102 129.91,-101.46 128.73,-100.89 127.54,-100.31"/>
<polygon fill="midnightblue" stroke="midnightblue" points="129.05,-97.14 118.56,-95.59 125.79,-103.34 129.05,-97.14"/>
</g>
<!-- Node4 -->
<g id="node5" class="node">
<title>Node4</title>
<g id="a_node5"><a xlink:title=" ">
<polygon fill="white" stroke="#bfbfbf" points="140.01,-75.5 140.01,-95.5 192.13,-95.5 192.13,-75.5 140.01,-75.5"/>
<text text-anchor="middle" x="166.07" y="-82.5" font-family="Helvetica,sans-Serif" font-size="10.00">ostream</text>
</a>
</g>
</g>
<!-- Node2&#45;&gt;Node4 -->
<g id="edge5" class="edge">
<title>Node2&#45;&gt;Node4</title>
<path fill="none" stroke="midnightblue" d="M238.53,-138.5C224.97,-128.77 203.13,-113.1 186.97,-101.5"/>
<polygon fill="midnightblue" stroke="midnightblue" points="188.83,-98.52 178.66,-95.54 184.75,-104.21 188.83,-98.52"/>
</g>
<!-- Node5 -->
<g id="node6" class="node">
<title>Node5</title>
<g id="a_node6"><a xlink:title=" ">
<polygon fill="white" stroke="#bfbfbf" points="209.74,-75.5 209.74,-95.5 292.41,-95.5 292.41,-75.5 209.74,-75.5"/>
<text text-anchor="middle" x="251.07" y="-82.5" font-family="Helvetica,sans-Serif" font-size="10.00">fisch/vx/timer.h</text>
</a>
</g>
</g>
<!-- Node2&#45;&gt;Node5 -->
<g id="edge6" class="edge">
<title>Node2&#45;&gt;Node5</title>
<path fill="none" stroke="midnightblue" d="M251.07,-138.5C251.07,-129.94 251.07,-116.78 251.07,-105.85"/>
<polygon fill="midnightblue" stroke="midnightblue" points="254.57,-105.54 251.07,-95.54 247.57,-105.54 254.57,-105.54"/>
</g>
<!-- Node6 -->
<g id="node7" class="node">
<title>Node6</title>
<g id="a_node7"><a xlink:title=" ">
<polygon fill="white" stroke="#bfbfbf" points="310.17,-75.5 310.17,-95.5 443.97,-95.5 443.97,-75.5 310.17,-75.5"/>
<text text-anchor="middle" x="377.07" y="-82.5" font-family="Helvetica,sans-Serif" font-size="10.00">halco/common/geometry.h</text>
</a>
</g>
</g>
<!-- Node2&#45;&gt;Node6 -->
<g id="edge7" class="edge">
<title>Node2&#45;&gt;Node6</title>
<path fill="none" stroke="midnightblue" d="M269.66,-138.5C290.69,-128.32 325.16,-111.63 349.36,-99.91"/>
<polygon fill="midnightblue" stroke="midnightblue" points="350.93,-103.05 358.4,-95.54 347.88,-96.74 350.93,-103.05"/>
</g>
<!-- Node7 -->
<g id="node8" class="node">
<title>Node7</title>
<g id="a_node8"><a xlink:title=" ">
<polygon fill="white" stroke="#bfbfbf" points="461.56,-69.5 461.56,-101.5 562.58,-101.5 562.58,-69.5 461.56,-69.5"/>
<text text-anchor="start" x="469.56" y="-88.5" font-family="Helvetica,sans-Serif" font-size="10.00">halco/hicann&#45;dls/vx</text>
<text text-anchor="middle" x="512.07" y="-76.5" font-family="Helvetica,sans-Serif" font-size="10.00">/timing.h</text>
</a>
</g>
</g>
<!-- Node2&#45;&gt;Node7 -->
<g id="edge8" class="edge">
<title>Node2&#45;&gt;Node7</title>
<path fill="none" stroke="midnightblue" d="M293.34,-138.43C332.12,-130.01 391.4,-116.89 451.25,-102.4"/>
<polygon fill="midnightblue" stroke="midnightblue" points="452.36,-105.74 461.25,-99.97 450.71,-98.94 452.36,-105.74"/>
</g>
<!-- Node8 -->
<g id="node9" class="node">
<title>Node8</title>
<g id="a_node9"><a xlink:href="traits_8h.html" target="_top" xlink:title=" ">
<polygon fill="white" stroke="black" points="580.23,-75.5 580.23,-95.5 667.91,-95.5 667.91,-75.5 580.23,-75.5"/>
<text text-anchor="middle" x="624.07" y="-82.5" font-family="Helvetica,sans-Serif" font-size="10.00">haldls/vx/traits.h</text>
</a>
</g>
</g>
<!-- Node2&#45;&gt;Node8 -->
<g id="edge10" class="edge">
<title>Node2&#45;&gt;Node8</title>
<path fill="none" stroke="midnightblue" d="M295.31,-143.34C357.57,-137 474.33,-123.37 572.07,-102 576.83,-100.96 581.78,-99.71 586.66,-98.37"/>
<polygon fill="midnightblue" stroke="midnightblue" points="587.83,-101.68 596.47,-95.56 585.9,-94.95 587.83,-101.68"/>
</g>
<!-- Node14 -->
<g id="node15" class="node">
<title>Node14</title>
<g id="a_node15"><a xlink:title=" ">
<polygon fill="white" stroke="#bfbfbf" points="864.57,-6.5 864.57,-26.5 945.57,-26.5 945.57,-6.5 864.57,-6.5"/>
<text text-anchor="middle" x="905.07" y="-13.5" font-family="Helvetica,sans-Serif" font-size="10.00">hate/visibility.h</text>
</a>
</g>
</g>
<!-- Node2&#45;&gt;Node14 -->
<g id="edge19" class="edge">
<title>Node2&#45;&gt;Node14</title>
<path fill="none" stroke="midnightblue" d="M295.21,-146.39C373.24,-143.62 540.22,-134.14 677.07,-102 751.23,-84.59 834.12,-49.74 876.59,-30.69"/>
<polygon fill="midnightblue" stroke="midnightblue" points="878.09,-33.85 885.76,-26.54 875.2,-27.47 878.09,-33.85"/>
</g>
<!-- Node8&#45;&gt;Node1 -->
<g id="edge15" class="edge">
<title>Node8&#45;&gt;Node1</title>
<path fill="none" stroke="midnightblue" d="M597.33,-75.47C589.29,-73.04 580.39,-70.64 572.07,-69 566.6,-67.92 260.79,-37.69 122.6,-24.06"/>
<polygon fill="midnightblue" stroke="midnightblue" points="122.84,-20.56 112.54,-23.07 122.15,-27.53 122.84,-20.56"/>
</g>
<!-- Node9 -->
<g id="node10" class="node">
<title>Node9</title>
<g id="a_node10"><a xlink:title=" ">
<polygon fill="white" stroke="#bfbfbf" points="223.01,-6.5 223.01,-26.5 285.13,-26.5 285.13,-6.5 223.01,-6.5"/>
<text text-anchor="middle" x="254.07" y="-13.5" font-family="Helvetica,sans-Serif" font-size="10.00">type_traits</text>
</a>
</g>
</g>
<!-- Node8&#45;&gt;Node9 -->
<g id="edge11" class="edge">
<title>Node8&#45;&gt;Node9</title>
<path fill="none" stroke="midnightblue" d="M596.76,-75.46C588.86,-73.09 580.18,-70.72 572.07,-69 450.2,-43.12 414.81,-63.73 294.07,-33 290.82,-32.17 287.48,-31.16 284.18,-30.05"/>
<polygon fill="midnightblue" stroke="midnightblue" points="285.12,-26.66 274.52,-26.51 282.71,-33.24 285.12,-26.66"/>
</g>
<!-- Node10 -->
<g id="node11" class="node">
<title>Node10</title>
<g id="a_node11"><a xlink:title=" ">
<polygon fill="white" stroke="#bfbfbf" points="302.72,-6.5 302.72,-26.5 395.42,-26.5 395.42,-6.5 302.72,-6.5"/>
<text text-anchor="middle" x="349.07" y="-13.5" font-family="Helvetica,sans-Serif" font-size="10.00">boost/variant.hpp</text>
</a>
</g>
</g>
<!-- Node8&#45;&gt;Node10 -->
<g id="edge12" class="edge">
<title>Node8&#45;&gt;Node10</title>
<path fill="none" stroke="midnightblue" d="M595.3,-75.49C587.78,-73.25 579.65,-70.94 572.07,-69 498.09,-50.08 478.19,-51.37 404.07,-33 399.38,-31.84 394.49,-30.56 389.64,-29.25"/>
<polygon fill="midnightblue" stroke="midnightblue" points="390.38,-25.82 379.81,-26.54 388.52,-32.57 390.38,-25.82"/>
</g>
<!-- Node11 -->
<g id="node12" class="node">
<title>Node11</title>
<g id="a_node12"><a xlink:title=" ">
<polygon fill="white" stroke="#bfbfbf" points="413.45,-0.5 413.45,-32.5 506.69,-32.5 506.69,-0.5 413.45,-0.5"/>
<text text-anchor="start" x="421.45" y="-19.5" font-family="Helvetica,sans-Serif" font-size="10.00">fisch/vx/container</text>
<text text-anchor="middle" x="460.07" y="-7.5" font-family="Helvetica,sans-Serif" font-size="10.00">_fwd.h</text>
</a>
</g>
</g>
<!-- Node8&#45;&gt;Node11 -->
<g id="edge13" class="edge">
<title>Node8&#45;&gt;Node11</title>
<path fill="none" stroke="midnightblue" d="M601.95,-75.46C577.55,-65.49 537.59,-49.17 506.28,-36.38"/>
<polygon fill="midnightblue" stroke="midnightblue" points="507.45,-33.08 496.87,-32.53 504.8,-39.56 507.45,-33.08"/>
</g>
<!-- Node12 -->
<g id="node13" class="node">
<title>Node12</title>
<g id="a_node13"><a xlink:title=" ">
<polygon fill="white" stroke="#bfbfbf" points="524.45,-0.5 524.45,-32.5 617.69,-32.5 617.69,-0.5 524.45,-0.5"/>
<text text-anchor="start" x="532.45" y="-19.5" font-family="Helvetica,sans-Serif" font-size="10.00">fisch/vx/container</text>
<text text-anchor="middle" x="571.07" y="-7.5" font-family="Helvetica,sans-Serif" font-size="10.00">_ticket.h</text>
</a>
</g>
</g>
<!-- Node8&#45;&gt;Node12 -->
<g id="edge14" class="edge">
<title>Node8&#45;&gt;Node12</title>
<path fill="none" stroke="midnightblue" d="M616.92,-75.46C609.85,-66.53 598.74,-52.48 589.23,-40.45"/>
<polygon fill="midnightblue" stroke="midnightblue" points="591.91,-38.2 582.96,-32.53 586.42,-42.55 591.91,-38.2"/>
</g>
<!-- Node13 -->
<g id="node14" class="node">
<title>Node13</title>
<g id="a_node14"><a xlink:title=" ">
<polygon fill="white" stroke="#bfbfbf" points="635.45,-6.5 635.45,-26.5 718.69,-26.5 718.69,-6.5 635.45,-6.5"/>
<text text-anchor="middle" x="677.07" y="-13.5" font-family="Helvetica,sans-Serif" font-size="10.00">hate/type_list.h</text>
</a>
</g>
</g>
<!-- Node8&#45;&gt;Node13 -->
<g id="edge16" class="edge">
<title>Node8&#45;&gt;Node13</title>
<path fill="none" stroke="midnightblue" d="M631.22,-75.46C639.39,-65.13 652.96,-47.97 663.23,-35"/>
<polygon fill="midnightblue" stroke="midnightblue" points="666.24,-36.84 669.7,-26.82 660.75,-32.49 666.24,-36.84"/>
</g>
<!-- Node8&#45;&gt;Node14 -->
<g id="edge17" class="edge">
<title>Node8&#45;&gt;Node14</title>
<path fill="none" stroke="midnightblue" d="M667.96,-75.96C714.83,-66.55 791.12,-50.45 856.07,-33 859.98,-31.95 864.05,-30.78 868.09,-29.58"/>
<polygon fill="midnightblue" stroke="midnightblue" points="869.45,-32.82 877.98,-26.54 867.4,-26.13 869.45,-32.82"/>
</g>
<!-- Node15 -->
<g id="node16" class="node">
<title>Node15</title>
<g id="a_node16"><a xlink:title=" ">
<polygon fill="white" stroke="#bfbfbf" points="737.12,-6.5 737.12,-26.5 847.03,-26.5 847.03,-6.5 737.12,-6.5"/>
<text text-anchor="middle" x="792.07" y="-13.5" font-family="Helvetica,sans-Serif" font-size="10.00">fisch/vx/container.def</text>
</a>
</g>
</g>
<!-- Node8&#45;&gt;Node15 -->
<g id="edge18" class="edge">
<title>Node8&#45;&gt;Node15</title>
<path fill="none" stroke="midnightblue" d="M646.73,-75.46C675.79,-63.88 726.38,-43.7 759.55,-30.47"/>
<polygon fill="midnightblue" stroke="midnightblue" points="761.24,-33.56 769.24,-26.61 758.65,-27.06 761.24,-33.56"/>
</g>
</g>
</svg>
