<?xml version="1.0" encoding="UTF-8" standalone="no"?>
<!DOCTYPE svg PUBLIC "-//W3C//DTD SVG 1.1//EN"
 "http://www.w3.org/Graphics/SVG/1.1/DTD/svg11.dtd">
<!-- Generated by graphviz version 2.43.0 (0)
 -->
<!-- Title: /jenkins/jenlib_workspaces_f9/bld_nightly&#45;haldls.YmxkX25pZ2h0bHktaGFsZGxzIzY1NQ.x/haldls/include/haldls/vx/event.h Pages: 1 -->
<svg width="1565pt" height="341pt"
 viewBox="0.00 0.00 1564.87 341.00" xmlns="http://www.w3.org/2000/svg" xmlns:xlink="http://www.w3.org/1999/xlink">
<g id="graph0" class="graph" transform="scale(1 1) rotate(0) translate(4 337)">
<title>/jenkins/jenlib_workspaces_f9/bld_nightly&#45;haldls.YmxkX25pZ2h0bHktaGFsZGxzIzY1NQ.x/haldls/include/haldls/vx/event.h</title>
<polygon fill="white" stroke="transparent" points="-4,4 -4,-337 1560.87,-337 1560.87,4 -4,4"/>
<!-- Node0 -->
<g id="node1" class="node">
<title>Node0</title>
<g id="a_node1"><a xlink:title=" ">
<polygon fill="#bfbfbf" stroke="black" points="391.78,-276.5 391.78,-332.5 571.13,-332.5 571.13,-276.5 391.78,-276.5"/>
<text text-anchor="start" x="399.78" y="-319.5" font-family="Helvetica,sans-Serif" font-size="10.00">/jenkins/jenlib_workspaces</text>
<text text-anchor="start" x="399.78" y="-307.5" font-family="Helvetica,sans-Serif" font-size="10.00">_f9/bld_nightly&#45;haldls.YmxkX25p</text>
<text text-anchor="start" x="399.78" y="-295.5" font-family="Helvetica,sans-Serif" font-size="10.00">Z2h0bHktaGFsZGxzIzY1NQ.x/haldls</text>
<text text-anchor="middle" x="481.45" y="-283.5" font-family="Helvetica,sans-Serif" font-size="10.00">/include/haldls/vx/event.h</text>
</a>
</g>
</g>
<!-- Node1 -->
<g id="node2" class="node">
<title>Node1</title>
<g id="a_node2"><a xlink:title=" ">
<polygon fill="white" stroke="#bfbfbf" points="0,-213.5 0,-233.5 84.91,-233.5 84.91,-213.5 0,-213.5"/>
<text text-anchor="middle" x="42.45" y="-220.5" font-family="Helvetica,sans-Serif" font-size="10.00">fisch/vx/event.h</text>
</a>
</g>
</g>
<!-- Node0&#45;&gt;Node1 -->
<g id="edge1" class="edge">
<title>Node0&#45;&gt;Node1</title>
<path fill="none" stroke="midnightblue" d="M391.56,-291.34C313.61,-280.14 198,-261.96 98.45,-240 93.35,-238.87 88.02,-237.57 82.76,-236.2"/>
<polygon fill="midnightblue" stroke="midnightblue" points="83.39,-232.75 72.83,-233.54 81.58,-239.51 83.39,-232.75"/>
</g>
<!-- Node2 -->
<g id="node3" class="node">
<title>Node2</title>
<g id="a_node3"><a xlink:title=" ">
<polygon fill="white" stroke="#bfbfbf" points="1390.55,-75.5 1390.55,-95.5 1524.35,-95.5 1524.35,-75.5 1390.55,-75.5"/>
<text text-anchor="middle" x="1457.45" y="-82.5" font-family="Helvetica,sans-Serif" font-size="10.00">halco/common/geometry.h</text>
</a>
</g>
</g>
<!-- Node0&#45;&gt;Node2 -->
<g id="edge2" class="edge">
<title>Node0&#45;&gt;Node2</title>
<path fill="none" stroke="midnightblue" d="M571.41,-300.57C723.41,-293.04 1038.65,-266.24 1285.45,-171 1339.41,-150.18 1399.4,-118.67 1432.35,-100.59"/>
<polygon fill="midnightblue" stroke="midnightblue" points="1434.23,-103.55 1441.29,-95.65 1430.84,-97.43 1434.23,-103.55"/>
</g>
<!-- Node3 -->
<g id="node4" class="node">
<title>Node3</title>
<g id="a_node4"><a xlink:title=" ">
<polygon fill="white" stroke="#bfbfbf" points="140.95,-207.5 140.95,-239.5 241.96,-239.5 241.96,-207.5 140.95,-207.5"/>
<text text-anchor="start" x="148.95" y="-226.5" font-family="Helvetica,sans-Serif" font-size="10.00">halco/hicann&#45;dls/vx</text>
<text text-anchor="middle" x="191.45" y="-214.5" font-family="Helvetica,sans-Serif" font-size="10.00">/event.h</text>
</a>
</g>
</g>
<!-- Node0&#45;&gt;Node3 -->
<g id="edge3" class="edge">
<title>Node0&#45;&gt;Node3</title>
<path fill="none" stroke="midnightblue" d="M391.68,-279.04C346.19,-266.65 292.18,-251.94 251.72,-240.92"/>
<polygon fill="midnightblue" stroke="midnightblue" points="252.57,-237.52 242,-238.27 250.73,-244.28 252.57,-237.52"/>
</g>
<!-- Node4 -->
<g id="node5" class="node">
<title>Node4</title>
<g id="a_node5"><a xlink:title=" ">
<polygon fill="white" stroke="#bfbfbf" points="259.95,-207.5 259.95,-239.5 360.96,-239.5 360.96,-207.5 259.95,-207.5"/>
<text text-anchor="start" x="267.95" y="-226.5" font-family="Helvetica,sans-Serif" font-size="10.00">halco/hicann&#45;dls/vx</text>
<text text-anchor="middle" x="310.45" y="-214.5" font-family="Helvetica,sans-Serif" font-size="10.00">/highspeed_link.h</text>
</a>
</g>
</g>
<!-- Node0&#45;&gt;Node4 -->
<g id="edge4" class="edge">
<title>Node0&#45;&gt;Node4</title>
<path fill="none" stroke="midnightblue" d="M422.61,-276.31C399.48,-265.63 373.47,-253.61 352.32,-243.84"/>
<polygon fill="midnightblue" stroke="midnightblue" points="353.52,-240.54 342.98,-239.52 350.59,-246.9 353.52,-240.54"/>
</g>
<!-- Node5 -->
<g id="node6" class="node">
<title>Node5</title>
<g id="a_node6"><a xlink:href="genpybind_8h.html" target="_top" xlink:title=" ">
<polygon fill="white" stroke="black" points="56.38,-6.5 56.38,-26.5 168.53,-26.5 168.53,-6.5 56.38,-6.5"/>
<text text-anchor="middle" x="112.45" y="-13.5" font-family="Helvetica,sans-Serif" font-size="10.00">haldls/vx/genpybind.h</text>
</a>
</g>
</g>
<!-- Node0&#45;&gt;Node5 -->
<g id="edge5" class="edge">
<title>Node0&#45;&gt;Node5</title>
<path fill="none" stroke="midnightblue" d="M391.54,-299.3C299.59,-292.98 165.53,-277.46 131.45,-240 79.24,-182.62 97.05,-78.98 107.31,-36.48"/>
<polygon fill="midnightblue" stroke="midnightblue" points="110.74,-37.17 109.83,-26.62 103.96,-35.44 110.74,-37.17"/>
</g>
<!-- Node6 -->
<g id="node7" class="node">
<title>Node6</title>
<g id="a_node7"><a xlink:href="neuron_8h.html" target="_top" xlink:title=" ">
<polygon fill="white" stroke="black" points="525.89,-213.5 525.89,-233.5 623.02,-233.5 623.02,-213.5 525.89,-213.5"/>
<text text-anchor="middle" x="574.45" y="-220.5" font-family="Helvetica,sans-Serif" font-size="10.00">haldls/vx/neuron.h</text>
</a>
</g>
</g>
<!-- Node0&#45;&gt;Node6 -->
<g id="edge7" class="edge">
<title>Node0&#45;&gt;Node6</title>
<path fill="none" stroke="midnightblue" d="M513.46,-276.31C527.63,-264.27 543.8,-250.54 555.93,-240.24"/>
<polygon fill="midnightblue" stroke="midnightblue" points="558.25,-242.86 563.61,-233.71 553.72,-237.52 558.25,-242.86"/>
</g>
<!-- Node16 -->
<g id="node17" class="node">
<title>Node16</title>
<g id="a_node17"><a xlink:href="traits_8h.html" target="_top" xlink:title=" ">
<polygon fill="white" stroke="black" points="438.62,-75.5 438.62,-95.5 526.29,-95.5 526.29,-75.5 438.62,-75.5"/>
<text text-anchor="middle" x="482.45" y="-82.5" font-family="Helvetica,sans-Serif" font-size="10.00">haldls/vx/traits.h</text>
</a>
</g>
</g>
<!-- Node0&#45;&gt;Node16 -->
<g id="edge56" class="edge">
<title>Node0&#45;&gt;Node16</title>
<path fill="none" stroke="midnightblue" d="M457.72,-276.43C436.89,-254.4 404.66,-224.23 370.45,-207 300.19,-171.62 157.21,-198.53 207.45,-138 221.44,-121.16 352.09,-102.5 428.17,-92.93"/>
<polygon fill="midnightblue" stroke="midnightblue" points="429.03,-96.35 438.52,-91.64 428.17,-89.41 429.03,-96.35"/>
</g>
<!-- Node21 -->
<g id="node22" class="node">
<title>Node21</title>
<g id="a_node22"><a xlink:title=" ">
<polygon fill="white" stroke="#bfbfbf" points="1044.95,-6.5 1044.95,-26.5 1125.96,-26.5 1125.96,-6.5 1044.95,-6.5"/>
<text text-anchor="middle" x="1085.45" y="-13.5" font-family="Helvetica,sans-Serif" font-size="10.00">hate/visibility.h</text>
</a>
</g>
</g>
<!-- Node0&#45;&gt;Node21 -->
<g id="edge57" class="edge">
<title>Node0&#45;&gt;Node21</title>
<path fill="none" stroke="midnightblue" d="M571.35,-303.24C812.07,-300.18 1459.27,-275.7 1550.45,-102 1557.27,-89.01 1560.24,-79.93 1550.45,-69 1523.2,-38.56 1251.51,-24.15 1136.48,-19.38"/>
<polygon fill="midnightblue" stroke="midnightblue" points="1136.31,-15.87 1126.17,-18.96 1136.02,-22.87 1136.31,-15.87"/>
</g>
<!-- Node25 -->
<g id="node26" class="node">
<title>Node25</title>
<g id="a_node26"><a xlink:href="padi_8h.html" target="_top" xlink:title=" ">
<polygon fill="white" stroke="black" points="901,-213.5 901,-233.5 985.91,-233.5 985.91,-213.5 901,-213.5"/>
<text text-anchor="middle" x="943.45" y="-220.5" font-family="Helvetica,sans-Serif" font-size="10.00">haldls/vx/padi.h</text>
</a>
</g>
</g>
<!-- Node0&#45;&gt;Node25 -->
<g id="edge34" class="edge">
<title>Node0&#45;&gt;Node25</title>
<path fill="none" stroke="midnightblue" d="M571.35,-288.13C666.32,-271.89 812.85,-246.83 890.67,-233.53"/>
<polygon fill="midnightblue" stroke="midnightblue" points="891.46,-236.94 900.72,-231.81 890.28,-230.04 891.46,-236.94"/>
</g>
<!-- Node27 -->
<g id="node28" class="node">
<title>Node27</title>
<g id="a_node28"><a xlink:href="synapse_8h.html" target="_top" xlink:title=" ">
<polygon fill="white" stroke="black" points="1109.83,-144.5 1109.83,-164.5 1213.08,-164.5 1213.08,-144.5 1109.83,-144.5"/>
<text text-anchor="middle" x="1161.45" y="-151.5" font-family="Helvetica,sans-Serif" font-size="10.00">haldls/vx/synapse.h</text>
</a>
</g>
</g>
<!-- Node0&#45;&gt;Node27 -->
<g id="edge55" class="edge">
<title>Node0&#45;&gt;Node27</title>
<path fill="none" stroke="midnightblue" d="M571.44,-301.69C675.42,-297.48 850.66,-283.82 994.45,-240 1049.1,-223.35 1107.45,-189.71 1138.65,-170.28"/>
<polygon fill="midnightblue" stroke="midnightblue" points="1140.84,-173.03 1147.42,-164.73 1137.1,-167.12 1140.84,-173.03"/>
</g>
<!-- Node5&#45;&gt;Node5 -->
<g id="edge6" class="edge">
<title>Node5&#45;&gt;Node5</title>
<path fill="none" stroke="midnightblue" d="M136.35,-26.54C160.18,-32.26 186.53,-28.92 186.53,-16.5 186.53,-5.78 166.89,-1.82 146.19,-4.62"/>
<polygon fill="midnightblue" stroke="midnightblue" points="145.54,-1.18 136.35,-6.46 146.82,-8.06 145.54,-1.18"/>
</g>
<!-- Node6&#45;&gt;Node2 -->
<g id="edge10" class="edge">
<title>Node6&#45;&gt;Node2</title>
<path fill="none" stroke="midnightblue" d="M604.54,-213.45C631.67,-204.63 672.15,-189.82 704.45,-171 724.67,-159.23 723.62,-146.4 745.45,-138 877.79,-87.12 1241.87,-120.4 1382.45,-102 1391.17,-100.86 1400.39,-99.27 1409.27,-97.55"/>
<polygon fill="midnightblue" stroke="midnightblue" points="1409.99,-100.97 1419.1,-95.56 1408.6,-94.11 1409.99,-100.97"/>
</g>
<!-- Node6&#45;&gt;Node5 -->
<g id="edge13" class="edge">
<title>Node6&#45;&gt;Node5</title>
<path fill="none" stroke="midnightblue" d="M525.63,-217.97C431.89,-208.94 233.66,-188.09 207.45,-171 157.69,-138.54 129.54,-69.98 118.27,-36.59"/>
<polygon fill="midnightblue" stroke="midnightblue" points="121.49,-35.16 115.09,-26.71 114.83,-37.3 121.49,-35.16"/>
</g>
<!-- Node7 -->
<g id="node8" class="node">
<title>Node7</title>
<g id="a_node8"><a xlink:title=" ">
<polygon fill="white" stroke="#bfbfbf" points="869.07,-75.5 869.07,-95.5 907.84,-95.5 907.84,-75.5 869.07,-75.5"/>
<text text-anchor="middle" x="888.45" y="-82.5" font-family="Helvetica,sans-Serif" font-size="10.00">array</text>
</a>
</g>
</g>
<!-- Node6&#45;&gt;Node7 -->
<g id="edge8" class="edge">
<title>Node6&#45;&gt;Node7</title>
<path fill="none" stroke="midnightblue" d="M585.2,-213.29C610.5,-191.65 671.85,-139.25 674.45,-138 749.99,-101.8 780.53,-130.05 859.45,-102 861.08,-101.42 862.73,-100.76 864.37,-100.05"/>
<polygon fill="midnightblue" stroke="midnightblue" points="866.05,-103.13 873.49,-95.59 862.97,-96.84 866.05,-103.13"/>
</g>
<!-- Node8 -->
<g id="node9" class="node">
<title>Node8</title>
<g id="a_node9"><a xlink:title=" ">
<polygon fill="white" stroke="#bfbfbf" points="925.4,-75.5 925.4,-95.5 977.51,-95.5 977.51,-75.5 925.4,-75.5"/>
<text text-anchor="middle" x="951.45" y="-82.5" font-family="Helvetica,sans-Serif" font-size="10.00">ostream</text>
</a>
</g>
</g>
<!-- Node6&#45;&gt;Node8 -->
<g id="edge9" class="edge">
<title>Node6&#45;&gt;Node8</title>
<path fill="none" stroke="midnightblue" d="M592.92,-213.37C612.2,-203.61 643.11,-187.33 668.45,-171 689,-157.76 690.03,-147.72 712.45,-138 796.93,-101.38 828.39,-128.84 916.45,-102 918.9,-101.25 921.4,-100.38 923.89,-99.44"/>
<polygon fill="midnightblue" stroke="midnightblue" points="925.35,-102.62 933.25,-95.56 922.67,-96.16 925.35,-102.62"/>
</g>
<!-- Node9 -->
<g id="node10" class="node">
<title>Node9</title>
<g id="a_node10"><a xlink:title=" ">
<polygon fill="white" stroke="#bfbfbf" points="742.33,-69.5 742.33,-101.5 850.58,-101.5 850.58,-69.5 742.33,-69.5"/>
<text text-anchor="start" x="750.33" y="-88.5" font-family="Helvetica,sans-Serif" font-size="10.00">halco/common/typed</text>
<text text-anchor="middle" x="796.45" y="-76.5" font-family="Helvetica,sans-Serif" font-size="10.00">_array.h</text>
</a>
</g>
</g>
<!-- Node6&#45;&gt;Node9 -->
<g id="edge11" class="edge">
<title>Node6&#45;&gt;Node9</title>
<path fill="none" stroke="midnightblue" d="M578.7,-213.4C587.19,-196.13 607.97,-158.54 636.45,-138 652.21,-126.64 694.83,-113.17 732.13,-102.86"/>
<polygon fill="midnightblue" stroke="midnightblue" points="733.25,-106.18 741.98,-100.17 731.41,-99.43 733.25,-106.18"/>
</g>
<!-- Node10 -->
<g id="node11" class="node">
<title>Node10</title>
<g id="a_node11"><a xlink:title=" ">
<polygon fill="white" stroke="#bfbfbf" points="216.95,-138.5 216.95,-170.5 317.96,-170.5 317.96,-138.5 216.95,-138.5"/>
<text text-anchor="start" x="224.95" y="-157.5" font-family="Helvetica,sans-Serif" font-size="10.00">halco/hicann&#45;dls/vx</text>
<text text-anchor="middle" x="267.45" y="-145.5" font-family="Helvetica,sans-Serif" font-size="10.00">/neuron.h</text>
</a>
</g>
</g>
<!-- Node6&#45;&gt;Node10 -->
<g id="edge12" class="edge">
<title>Node6&#45;&gt;Node10</title>
<path fill="none" stroke="midnightblue" d="M530.22,-213.43C481.65,-203.38 401.38,-186.55 332.45,-171 331,-170.67 329.54,-170.34 328.06,-170"/>
<polygon fill="midnightblue" stroke="midnightblue" points="328.7,-166.56 318.17,-167.72 327.13,-173.38 328.7,-166.56"/>
</g>
<!-- Node11 -->
<g id="node12" class="node">
<title>Node11</title>
<g id="a_node12"><a xlink:href="sram__controller_8h.html" target="_top" xlink:title=" ">
<polygon fill="white" stroke="black" points="374.01,-144.5 374.01,-164.5 508.9,-164.5 508.9,-144.5 374.01,-144.5"/>
<text text-anchor="middle" x="441.45" y="-151.5" font-family="Helvetica,sans-Serif" font-size="10.00">haldls/vx/sram_controller.h</text>
</a>
</g>
</g>
<!-- Node6&#45;&gt;Node11 -->
<g id="edge14" class="edge">
<title>Node6&#45;&gt;Node11</title>
<path fill="none" stroke="midnightblue" d="M556.52,-213.46C533.91,-202.08 494.84,-182.39 468.57,-169.16"/>
<polygon fill="midnightblue" stroke="midnightblue" points="470.04,-165.98 459.53,-164.61 466.89,-172.23 470.04,-165.98"/>
</g>
<!-- Node6&#45;&gt;Node16 -->
<g id="edge31" class="edge">
<title>Node6&#45;&gt;Node16</title>
<path fill="none" stroke="midnightblue" d="M568.14,-213.11C557.64,-197.51 535.91,-165.25 517.45,-138 509.83,-126.74 501.25,-114.11 494.49,-104.18"/>
<polygon fill="midnightblue" stroke="midnightblue" points="497.18,-101.91 488.66,-95.61 491.39,-105.85 497.18,-101.91"/>
</g>
<!-- Node6&#45;&gt;Node21 -->
<g id="edge32" class="edge">
<title>Node6&#45;&gt;Node21</title>
<path fill="none" stroke="midnightblue" d="M574.76,-213.35C575.81,-196.33 580.41,-159.6 600.45,-138 630.32,-105.82 654.47,-124.02 692.45,-102 712.69,-90.27 711.89,-78.07 733.45,-69 858.47,-16.44 903.89,-61.58 1036.45,-33 1040.94,-32.03 1045.61,-30.83 1050.19,-29.52"/>
<polygon fill="midnightblue" stroke="midnightblue" points="1051.46,-32.79 1060.01,-26.55 1049.43,-26.09 1051.46,-32.79"/>
</g>
<!-- Node24 -->
<g id="node25" class="node">
<title>Node24</title>
<g id="a_node25"><a xlink:title=" ">
<polygon fill="white" stroke="#bfbfbf" points="754.84,-144.5 754.84,-164.5 858.07,-164.5 858.07,-144.5 754.84,-144.5"/>
<text text-anchor="middle" x="806.45" y="-151.5" font-family="Helvetica,sans-Serif" font-size="10.00">hxcomm/vx/target.h</text>
</a>
</g>
</g>
<!-- Node6&#45;&gt;Node24 -->
<g id="edge33" class="edge">
<title>Node6&#45;&gt;Node24</title>
<path fill="none" stroke="midnightblue" d="M605.74,-213.46C646.91,-201.58 719.37,-180.65 765.04,-167.46"/>
<polygon fill="midnightblue" stroke="midnightblue" points="766.28,-170.74 774.92,-164.61 764.34,-164.02 766.28,-170.74"/>
</g>
<!-- Node11&#45;&gt;Node5 -->
<g id="edge19" class="edge">
<title>Node11&#45;&gt;Node5</title>
<path fill="none" stroke="midnightblue" d="M433.08,-144.27C414.92,-124.46 372.07,-78.88 353.45,-69 345.22,-64.63 236.48,-42.34 167.91,-28.55"/>
<polygon fill="midnightblue" stroke="midnightblue" points="168.18,-25.04 157.68,-26.5 166.8,-31.9 168.18,-25.04"/>
</g>
<!-- Node12 -->
<g id="node13" class="node">
<title>Node12</title>
<g id="a_node13"><a xlink:href="common_8h.html" target="_top" xlink:title=" ">
<polygon fill="white" stroke="black" points="544.28,-75.5 544.28,-95.5 648.63,-95.5 648.63,-75.5 544.28,-75.5"/>
<text text-anchor="middle" x="596.45" y="-82.5" font-family="Helvetica,sans-Serif" font-size="10.00">haldls/vx/common.h</text>
</a>
</g>
</g>
<!-- Node11&#45;&gt;Node12 -->
<g id="edge15" class="edge">
<title>Node11&#45;&gt;Node12</title>
<path fill="none" stroke="midnightblue" d="M462.36,-144.46C489.05,-132.93 535.44,-112.87 566.05,-99.64"/>
<polygon fill="midnightblue" stroke="midnightblue" points="567.6,-102.79 575.39,-95.61 564.82,-96.36 567.6,-102.79"/>
</g>
<!-- Node11&#45;&gt;Node16 -->
<g id="edge20" class="edge">
<title>Node11&#45;&gt;Node16</title>
<path fill="none" stroke="midnightblue" d="M446.98,-144.46C453.25,-134.23 463.6,-117.3 471.52,-104.38"/>
<polygon fill="midnightblue" stroke="midnightblue" points="474.52,-106.18 476.75,-95.82 468.54,-102.53 474.52,-106.18"/>
</g>
<!-- Node11&#45;&gt;Node21 -->
<g id="edge30" class="edge">
<title>Node11&#45;&gt;Node21</title>
<path fill="none" stroke="midnightblue" d="M509.11,-144.85C552.97,-137.47 610.46,-124.37 657.45,-102 679.21,-91.65 678.09,-77.95 700.45,-69 839.89,-13.2 889.46,-63.8 1036.45,-33 1041,-32.05 1045.72,-30.84 1050.36,-29.53"/>
<polygon fill="midnightblue" stroke="midnightblue" points="1051.72,-32.77 1060.28,-26.52 1049.69,-26.07 1051.72,-32.77"/>
</g>
<!-- Node23 -->
<g id="node24" class="node">
<title>Node23</title>
<g id="a_node24"><a xlink:title=" ">
<polygon fill="white" stroke="#bfbfbf" points="276.06,-75.5 276.06,-95.5 344.85,-95.5 344.85,-75.5 276.06,-75.5"/>
<text text-anchor="middle" x="310.45" y="-82.5" font-family="Helvetica,sans-Serif" font-size="10.00">hate/math.h</text>
</a>
</g>
</g>
<!-- Node11&#45;&gt;Node23 -->
<g id="edge29" class="edge">
<title>Node11&#45;&gt;Node23</title>
<path fill="none" stroke="midnightblue" d="M423.79,-144.46C401.52,-133.08 363.03,-113.39 337.17,-100.16"/>
<polygon fill="midnightblue" stroke="midnightblue" points="338.76,-97.04 328.26,-95.61 335.57,-103.28 338.76,-97.04"/>
</g>
<!-- Node13 -->
<g id="node14" class="node">
<title>Node13</title>
<g id="a_node14"><a xlink:title=" ">
<polygon fill="white" stroke="#bfbfbf" points="767.39,-6.5 767.39,-26.5 829.52,-26.5 829.52,-6.5 767.39,-6.5"/>
<text text-anchor="middle" x="798.45" y="-13.5" font-family="Helvetica,sans-Serif" font-size="10.00">type_traits</text>
</a>
</g>
</g>
<!-- Node12&#45;&gt;Node13 -->
<g id="edge16" class="edge">
<title>Node12&#45;&gt;Node13</title>
<path fill="none" stroke="midnightblue" d="M626.8,-75.47C659.49,-65.59 712.94,-49.03 758.45,-33 761,-32.1 763.63,-31.15 766.26,-30.17"/>
<polygon fill="midnightblue" stroke="midnightblue" points="767.59,-33.41 775.7,-26.6 765.11,-26.87 767.59,-33.41"/>
</g>
<!-- Node14 -->
<g id="node15" class="node">
<title>Node14</title>
<g id="a_node15"><a xlink:title=" ">
<polygon fill="white" stroke="#bfbfbf" points="847.07,-6.5 847.07,-26.5 885.84,-26.5 885.84,-6.5 847.07,-6.5"/>
<text text-anchor="middle" x="866.45" y="-13.5" font-family="Helvetica,sans-Serif" font-size="10.00">utility</text>
</a>
</g>
</g>
<!-- Node12&#45;&gt;Node14 -->
<g id="edge17" class="edge">
<title>Node12&#45;&gt;Node14</title>
<path fill="none" stroke="midnightblue" d="M634.11,-75.46C643.36,-73.29 653.26,-71.02 662.45,-69 740.44,-51.87 763.55,-60.65 838.45,-33 839.89,-32.47 841.34,-31.88 842.78,-31.24"/>
<polygon fill="midnightblue" stroke="midnightblue" points="844.68,-34.2 852.03,-26.58 841.53,-27.95 844.68,-34.2"/>
</g>
<!-- Node15 -->
<g id="node16" class="node">
<title>Node15</title>
<g id="a_node16"><a xlink:title=" ">
<polygon fill="white" stroke="#bfbfbf" points="903.83,-6.5 903.83,-26.5 1027.08,-26.5 1027.08,-6.5 903.83,-6.5"/>
<text text-anchor="middle" x="965.45" y="-13.5" font-family="Helvetica,sans-Serif" font-size="10.00">fisch/vx/omnibus_data.h</text>
</a>
</g>
</g>
<!-- Node12&#45;&gt;Node15 -->
<g id="edge18" class="edge">
<title>Node12&#45;&gt;Node15</title>
<path fill="none" stroke="midnightblue" d="M632.66,-75.47C642.31,-73.21 652.75,-70.89 662.45,-69 764.88,-49.06 791.88,-52.14 894.45,-33 901.53,-31.68 908.98,-30.18 916.29,-28.64"/>
<polygon fill="midnightblue" stroke="midnightblue" points="917.06,-32.05 926.11,-26.54 915.6,-25.21 917.06,-32.05"/>
</g>
<!-- Node16&#45;&gt;Node5 -->
<g id="edge25" class="edge">
<title>Node16&#45;&gt;Node5</title>
<path fill="none" stroke="midnightblue" d="M450.99,-75.45C442.43,-73.16 433.12,-70.83 424.45,-69 323.66,-47.67 296.99,-50.46 195.45,-33 187.04,-31.55 178.17,-29.96 169.47,-28.37"/>
<polygon fill="midnightblue" stroke="midnightblue" points="169.85,-24.88 159.38,-26.51 168.58,-31.76 169.85,-24.88"/>
</g>
<!-- Node16&#45;&gt;Node13 -->
<g id="edge21" class="edge">
<title>Node16&#45;&gt;Node13</title>
<path fill="none" stroke="midnightblue" d="M510.89,-75.48C518.79,-73.16 527.41,-70.82 535.45,-69 633.38,-46.87 661.56,-59.28 758.45,-33 761.62,-32.14 764.87,-31.12 768.1,-30.02"/>
<polygon fill="midnightblue" stroke="midnightblue" points="769.38,-33.28 777.56,-26.55 766.96,-26.71 769.38,-33.28"/>
</g>
<!-- Node17 -->
<g id="node18" class="node">
<title>Node17</title>
<g id="a_node18"><a xlink:title=" ">
<polygon fill="white" stroke="#bfbfbf" points="545.11,-6.5 545.11,-26.5 637.8,-26.5 637.8,-6.5 545.11,-6.5"/>
<text text-anchor="middle" x="591.45" y="-13.5" font-family="Helvetica,sans-Serif" font-size="10.00">boost/variant.hpp</text>
</a>
</g>
</g>
<!-- Node16&#45;&gt;Node17 -->
<g id="edge22" class="edge">
<title>Node16&#45;&gt;Node17</title>
<path fill="none" stroke="midnightblue" d="M497.15,-75.46C515.36,-64.28 546.59,-45.08 568.09,-31.86"/>
<polygon fill="midnightblue" stroke="midnightblue" points="569.95,-34.83 576.64,-26.61 566.29,-28.86 569.95,-34.83"/>
</g>
<!-- Node18 -->
<g id="node19" class="node">
<title>Node18</title>
<g id="a_node19"><a xlink:title=" ">
<polygon fill="white" stroke="#bfbfbf" points="655.84,-0.5 655.84,-32.5 749.07,-32.5 749.07,-0.5 655.84,-0.5"/>
<text text-anchor="start" x="663.84" y="-19.5" font-family="Helvetica,sans-Serif" font-size="10.00">fisch/vx/container</text>
<text text-anchor="middle" x="702.45" y="-7.5" font-family="Helvetica,sans-Serif" font-size="10.00">_fwd.h</text>
</a>
</g>
</g>
<!-- Node16&#45;&gt;Node18 -->
<g id="edge23" class="edge">
<title>Node16&#45;&gt;Node18</title>
<path fill="none" stroke="midnightblue" d="M512.12,-75.46C546.29,-65.06 603.19,-47.73 645.9,-34.72"/>
<polygon fill="midnightblue" stroke="midnightblue" points="647.05,-38.03 655.6,-31.77 645.01,-31.33 647.05,-38.03"/>
</g>
<!-- Node19 -->
<g id="node20" class="node">
<title>Node19</title>
<g id="a_node20"><a xlink:title=" ">
<polygon fill="white" stroke="#bfbfbf" points="204.84,-0.5 204.84,-32.5 298.07,-32.5 298.07,-0.5 204.84,-0.5"/>
<text text-anchor="start" x="212.84" y="-19.5" font-family="Helvetica,sans-Serif" font-size="10.00">fisch/vx/container</text>
<text text-anchor="middle" x="251.45" y="-7.5" font-family="Helvetica,sans-Serif" font-size="10.00">_ticket.h</text>
</a>
</g>
</g>
<!-- Node16&#45;&gt;Node19 -->
<g id="edge24" class="edge">
<title>Node16&#45;&gt;Node19</title>
<path fill="none" stroke="midnightblue" d="M451.3,-75.46C414.7,-64.85 353.26,-47.03 308.14,-33.94"/>
<polygon fill="midnightblue" stroke="midnightblue" points="309.07,-30.57 298.49,-31.14 307.12,-37.29 309.07,-30.57"/>
</g>
<!-- Node20 -->
<g id="node21" class="node">
<title>Node20</title>
<g id="a_node21"><a xlink:title=" ">
<polygon fill="white" stroke="#bfbfbf" points="315.83,-6.5 315.83,-26.5 399.08,-26.5 399.08,-6.5 315.83,-6.5"/>
<text text-anchor="middle" x="357.45" y="-13.5" font-family="Helvetica,sans-Serif" font-size="10.00">hate/type_list.h</text>
</a>
</g>
</g>
<!-- Node16&#45;&gt;Node20 -->
<g id="edge26" class="edge">
<title>Node16&#45;&gt;Node20</title>
<path fill="none" stroke="midnightblue" d="M465.6,-75.46C444.44,-64.13 407.95,-44.56 383.27,-31.34"/>
<polygon fill="midnightblue" stroke="midnightblue" points="384.91,-28.25 374.44,-26.61 381.6,-34.42 384.91,-28.25"/>
</g>
<!-- Node16&#45;&gt;Node21 -->
<g id="edge27" class="edge">
<title>Node16&#45;&gt;Node21</title>
<path fill="none" stroke="midnightblue" d="M509.15,-75.49C517.49,-73 526.77,-70.56 535.45,-69 755.16,-29.45 817.19,-74.95 1036.45,-33 1041.24,-32.08 1046.22,-30.85 1051.08,-29.48"/>
<polygon fill="midnightblue" stroke="midnightblue" points="1052.26,-32.78 1060.82,-26.53 1050.23,-26.08 1052.26,-32.78"/>
</g>
<!-- Node22 -->
<g id="node23" class="node">
<title>Node22</title>
<g id="a_node23"><a xlink:title=" ">
<polygon fill="white" stroke="#bfbfbf" points="417.5,-6.5 417.5,-26.5 527.41,-26.5 527.41,-6.5 417.5,-6.5"/>
<text text-anchor="middle" x="472.45" y="-13.5" font-family="Helvetica,sans-Serif" font-size="10.00">fisch/vx/container.def</text>
</a>
</g>
</g>
<!-- Node16&#45;&gt;Node22 -->
<g id="edge28" class="edge">
<title>Node16&#45;&gt;Node22</title>
<path fill="none" stroke="midnightblue" d="M481.11,-75.46C479.64,-65.63 477.25,-49.61 475.35,-36.9"/>
<polygon fill="midnightblue" stroke="midnightblue" points="478.78,-36.2 473.85,-26.82 471.86,-37.23 478.78,-36.2"/>
</g>
<!-- Node25&#45;&gt;Node2 -->
<g id="edge37" class="edge">
<title>Node25&#45;&gt;Node2</title>
<path fill="none" stroke="midnightblue" d="M986,-216.85C1041.13,-209.02 1139.95,-193.29 1222.45,-171 1297.36,-150.76 1382.38,-117.52 1426.77,-99.35"/>
<polygon fill="midnightblue" stroke="midnightblue" points="1428.21,-102.55 1436.12,-95.5 1425.54,-96.07 1428.21,-102.55"/>
</g>
<!-- Node25&#45;&gt;Node5 -->
<g id="edge39" class="edge">
<title>Node25&#45;&gt;Node5</title>
<path fill="none" stroke="midnightblue" d="M900.69,-220.21C775.3,-213.3 414.36,-191.79 365.45,-171 344.87,-162.25 345.75,-150.87 327.45,-138 310.12,-125.81 190.86,-60.33 137.81,-31.33"/>
<polygon fill="midnightblue" stroke="midnightblue" points="139.46,-28.24 129.01,-26.52 136.1,-34.39 139.46,-28.24"/>
</g>
<!-- Node25&#45;&gt;Node7 -->
<g id="edge35" class="edge">
<title>Node25&#45;&gt;Node7</title>
<path fill="none" stroke="midnightblue" d="M939.67,-213.15C930.68,-190.92 907.88,-134.54 895.97,-105.08"/>
<polygon fill="midnightblue" stroke="midnightblue" points="899.11,-103.51 892.12,-95.56 892.62,-106.14 899.11,-103.51"/>
</g>
<!-- Node25&#45;&gt;Node8 -->
<g id="edge36" class="edge">
<title>Node25&#45;&gt;Node8</title>
<path fill="none" stroke="midnightblue" d="M944,-213.15C945.3,-191.11 948.57,-135.53 950.32,-105.86"/>
<polygon fill="midnightblue" stroke="midnightblue" points="953.83,-105.74 950.92,-95.56 946.84,-105.33 953.83,-105.74"/>
</g>
<!-- Node25&#45;&gt;Node16 -->
<g id="edge52" class="edge">
<title>Node25&#45;&gt;Node16</title>
<path fill="none" stroke="midnightblue" d="M936.66,-213.43C921.53,-193.51 885.02,-146.99 867.45,-138 735.34,-70.36 681.03,-130.94 535.45,-102 530.35,-100.99 525.04,-99.71 519.82,-98.32"/>
<polygon fill="midnightblue" stroke="midnightblue" points="520.58,-94.9 510.01,-95.56 518.69,-101.63 520.58,-94.9"/>
</g>
<!-- Node25&#45;&gt;Node21 -->
<g id="edge53" class="edge">
<title>Node25&#45;&gt;Node21</title>
<path fill="none" stroke="midnightblue" d="M985.99,-220.76C1110.04,-214.68 1466.81,-189.72 1533.45,-102 1542.33,-90.32 1543.22,-79.95 1533.45,-69 1507.37,-39.75 1247.98,-24.75 1136.23,-19.6"/>
<polygon fill="midnightblue" stroke="midnightblue" points="1136.36,-16.1 1126.21,-19.15 1136.04,-23.1 1136.36,-16.1"/>
</g>
<!-- Node25&#45;&gt;Node24 -->
<g id="edge54" class="edge">
<title>Node25&#45;&gt;Node24</title>
<path fill="none" stroke="midnightblue" d="M924.98,-213.46C901.69,-202.08 861.44,-182.39 834.39,-169.16"/>
<polygon fill="midnightblue" stroke="midnightblue" points="835.6,-165.86 825.08,-164.61 832.52,-172.14 835.6,-165.86"/>
</g>
<!-- Node26 -->
<g id="node27" class="node">
<title>Node26</title>
<g id="a_node27"><a xlink:title=" ">
<polygon fill="white" stroke="#bfbfbf" points="990.95,-138.5 990.95,-170.5 1091.96,-170.5 1091.96,-138.5 990.95,-138.5"/>
<text text-anchor="start" x="998.95" y="-157.5" font-family="Helvetica,sans-Serif" font-size="10.00">halco/hicann&#45;dls/vx</text>
<text text-anchor="middle" x="1041.45" y="-145.5" font-family="Helvetica,sans-Serif" font-size="10.00">/padi.h</text>
</a>
</g>
</g>
<!-- Node25&#45;&gt;Node26 -->
<g id="edge38" class="edge">
<title>Node25&#45;&gt;Node26</title>
<path fill="none" stroke="midnightblue" d="M956.67,-213.46C970.5,-204.01 992.69,-188.84 1010.9,-176.39"/>
<polygon fill="midnightblue" stroke="midnightblue" points="1013.19,-179.07 1019.47,-170.53 1009.23,-173.29 1013.19,-179.07"/>
</g>
<!-- Node25&#45;&gt;Node27 -->
<g id="edge40" class="edge">
<title>Node25&#45;&gt;Node27</title>
<path fill="none" stroke="midnightblue" d="M972.85,-213.46C1011.37,-201.63 1079.05,-180.83 1122,-167.63"/>
<polygon fill="midnightblue" stroke="midnightblue" points="1123.29,-170.89 1131.82,-164.61 1121.24,-164.2 1123.29,-170.89"/>
</g>
<!-- Node27&#45;&gt;Node2 -->
<g id="edge43" class="edge">
<title>Node27&#45;&gt;Node2</title>
<path fill="none" stroke="midnightblue" d="M1201.37,-144.46C1254.67,-132.4 1349.07,-111.03 1407.17,-97.88"/>
<polygon fill="midnightblue" stroke="midnightblue" points="1408.24,-101.23 1417.22,-95.61 1406.7,-94.4 1408.24,-101.23"/>
</g>
<!-- Node27&#45;&gt;Node5 -->
<g id="edge49" class="edge">
<title>Node27&#45;&gt;Node5</title>
<path fill="none" stroke="midnightblue" d="M1131.18,-144.43C1121.74,-141.94 1111.24,-139.51 1101.45,-138 953.66,-115.18 569.73,-153.85 429.45,-102 406.86,-93.65 408.45,-78.83 386.45,-69 385.83,-68.72 250.91,-43.43 170.65,-28.4"/>
<polygon fill="midnightblue" stroke="midnightblue" points="171.14,-24.93 160.67,-26.53 169.86,-31.81 171.14,-24.93"/>
</g>
<!-- Node27&#45;&gt;Node7 -->
<g id="edge41" class="edge">
<title>Node27&#45;&gt;Node7</title>
<path fill="none" stroke="midnightblue" d="M1127.9,-144.45C1119.31,-142.24 1110.06,-139.95 1101.45,-138 1019.75,-119.52 995.17,-130.64 916.45,-102 915.02,-101.48 913.57,-100.89 912.12,-100.25"/>
<polygon fill="midnightblue" stroke="midnightblue" points="913.37,-96.97 902.87,-95.61 910.23,-103.22 913.37,-96.97"/>
</g>
<!-- Node27&#45;&gt;Node8 -->
<g id="edge42" class="edge">
<title>Node27&#45;&gt;Node8</title>
<path fill="none" stroke="midnightblue" d="M1128.95,-144.44C1094.56,-134.68 1038.83,-118.33 991.45,-102 988.9,-101.12 986.27,-100.18 983.63,-99.21"/>
<polygon fill="midnightblue" stroke="midnightblue" points="984.78,-95.9 974.19,-95.65 982.31,-102.45 984.78,-95.9"/>
</g>
<!-- Node27&#45;&gt;Node9 -->
<g id="edge44" class="edge">
<title>Node27&#45;&gt;Node9</title>
<path fill="none" stroke="midnightblue" d="M1128.9,-144.43C1120.04,-142.14 1110.42,-139.82 1101.45,-138 998.43,-117.06 968.49,-122.42 860.81,-101.95"/>
<polygon fill="midnightblue" stroke="midnightblue" points="861.33,-98.48 850.85,-100.02 860,-105.36 861.33,-98.48"/>
</g>
<!-- Node27&#45;&gt;Node12 -->
<g id="edge48" class="edge">
<title>Node27&#45;&gt;Node12</title>
<path fill="none" stroke="midnightblue" d="M1130.21,-144.45C1121.01,-142.05 1110.88,-139.67 1101.45,-138 939.63,-109.36 896.88,-119.24 733.45,-102 709.09,-99.43 682.31,-96.44 658.94,-93.77"/>
<polygon fill="midnightblue" stroke="midnightblue" points="659.14,-90.27 648.8,-92.61 658.34,-97.23 659.14,-90.27"/>
</g>
<!-- Node27&#45;&gt;Node16 -->
<g id="edge50" class="edge">
<title>Node27&#45;&gt;Node16</title>
<path fill="none" stroke="midnightblue" d="M1131.17,-144.49C1121.73,-142 1111.23,-139.56 1101.45,-138 852.54,-98.3 783.71,-145.64 535.45,-102 530.03,-101.05 524.36,-99.74 518.84,-98.28"/>
<polygon fill="midnightblue" stroke="midnightblue" points="519.72,-94.89 509.14,-95.55 517.82,-101.63 519.72,-94.89"/>
</g>
<!-- Node27&#45;&gt;Node21 -->
<g id="edge51" class="edge">
<title>Node27&#45;&gt;Node21</title>
<path fill="none" stroke="midnightblue" d="M1132.2,-144.45C1093.9,-132.32 1030.86,-111.24 1024.45,-102 1016.11,-89.94 1018.28,-82.3 1024.45,-69 1031.66,-53.48 1046.12,-40.94 1059.14,-32.13"/>
<polygon fill="midnightblue" stroke="midnightblue" points="1061.25,-34.94 1067.83,-26.63 1057.5,-29.03 1061.25,-34.94"/>
</g>
<!-- Node28 -->
<g id="node29" class="node">
<title>Node28</title>
<g id="a_node29"><a xlink:title=" ">
<polygon fill="white" stroke="#bfbfbf" points="1033.95,-69.5 1033.95,-101.5 1134.96,-101.5 1134.96,-69.5 1033.95,-69.5"/>
<text text-anchor="start" x="1041.95" y="-88.5" font-family="Helvetica,sans-Serif" font-size="10.00">halco/hicann&#45;dls/vx</text>
<text text-anchor="middle" x="1084.45" y="-76.5" font-family="Helvetica,sans-Serif" font-size="10.00">/capmem.h</text>
</a>
</g>
</g>
<!-- Node27&#45;&gt;Node28 -->
<g id="edge45" class="edge">
<title>Node27&#45;&gt;Node28</title>
<path fill="none" stroke="midnightblue" d="M1151.07,-144.46C1140.5,-135.27 1123.72,-120.66 1109.64,-108.41"/>
<polygon fill="midnightblue" stroke="midnightblue" points="1111.57,-105.46 1101.73,-101.53 1106.98,-110.74 1111.57,-105.46"/>
</g>
<!-- Node29 -->
<g id="node30" class="node">
<title>Node29</title>
<g id="a_node30"><a xlink:title=" ">
<polygon fill="white" stroke="#bfbfbf" points="1152.95,-69.5 1152.95,-101.5 1253.96,-101.5 1253.96,-69.5 1152.95,-69.5"/>
<text text-anchor="start" x="1160.95" y="-88.5" font-family="Helvetica,sans-Serif" font-size="10.00">halco/hicann&#45;dls/vx</text>
<text text-anchor="middle" x="1203.45" y="-76.5" font-family="Helvetica,sans-Serif" font-size="10.00">/switch_rows.h</text>
</a>
</g>
</g>
<!-- Node27&#45;&gt;Node29 -->
<g id="edge46" class="edge">
<title>Node27&#45;&gt;Node29</title>
<path fill="none" stroke="midnightblue" d="M1167.12,-144.46C1172.61,-135.7 1181.19,-122.02 1188.63,-110.15"/>
<polygon fill="midnightblue" stroke="midnightblue" points="1191.68,-111.87 1194.03,-101.53 1185.75,-108.15 1191.68,-111.87"/>
</g>
<!-- Node30 -->
<g id="node31" class="node">
<title>Node30</title>
<g id="a_node31"><a xlink:title=" ">
<polygon fill="white" stroke="#bfbfbf" points="1271.95,-69.5 1271.95,-101.5 1372.96,-101.5 1372.96,-69.5 1271.95,-69.5"/>
<text text-anchor="start" x="1279.95" y="-88.5" font-family="Helvetica,sans-Serif" font-size="10.00">halco/hicann&#45;dls/vx</text>
<text text-anchor="middle" x="1322.45" y="-76.5" font-family="Helvetica,sans-Serif" font-size="10.00">/synapse.h</text>
</a>
</g>
</g>
<!-- Node27&#45;&gt;Node30 -->
<g id="edge47" class="edge">
<title>Node27&#45;&gt;Node30</title>
<path fill="none" stroke="midnightblue" d="M1183.17,-144.46C1207.13,-134.49 1246.36,-118.17 1277.09,-105.38"/>
<polygon fill="midnightblue" stroke="midnightblue" points="1278.44,-108.61 1286.33,-101.53 1275.75,-102.14 1278.44,-108.61"/>
</g>
</g>
</svg>
