<?xml version="1.0" encoding="UTF-8" standalone="no"?>
<!DOCTYPE svg PUBLIC "-//W3C//DTD SVG 1.1//EN"
 "http://www.w3.org/Graphics/SVG/1.1/DTD/svg11.dtd">
<!-- Generated by graphviz version 2.43.0 (0)
 -->
<!-- Title: /jenkins/jenlib_workspaces_f9/bld_nightly&#45;haldls.YmxkX25pZ2h0bHktaGFsZGxzIzY1NQ.x/haldls/include/haldls/vx/event.h Pages: 1 -->
<svg width="384pt" height="344pt"
 viewBox="0.00 0.00 384.36 344.00" xmlns="http://www.w3.org/2000/svg" xmlns:xlink="http://www.w3.org/1999/xlink">
<g id="graph0" class="graph" transform="scale(1 1) rotate(0) translate(4 340)">
<title>/jenkins/jenlib_workspaces_f9/bld_nightly&#45;haldls.YmxkX25pZ2h0bHktaGFsZGxzIzY1NQ.x/haldls/include/haldls/vx/event.h</title>
<polygon fill="white" stroke="transparent" points="-4,4 -4,-340 380.36,-340 380.36,4 -4,4"/>
<!-- Node31 -->
<g id="node1" class="node">
<title>Node31</title>
<g id="a_node1"><a xlink:title=" ">
<polygon fill="#bfbfbf" stroke="black" points="98,-279.5 98,-335.5 277.36,-335.5 277.36,-279.5 98,-279.5"/>
<text text-anchor="start" x="106" y="-322.5" font-family="Helvetica,sans-Serif" font-size="10.00">/jenkins/jenlib_workspaces</text>
<text text-anchor="start" x="106" y="-310.5" font-family="Helvetica,sans-Serif" font-size="10.00">_f9/bld_nightly&#45;haldls.YmxkX25p</text>
<text text-anchor="start" x="106" y="-298.5" font-family="Helvetica,sans-Serif" font-size="10.00">Z2h0bHktaGFsZGxzIzY1NQ.x/haldls</text>
<text text-anchor="middle" x="187.68" y="-286.5" font-family="Helvetica,sans-Serif" font-size="10.00">/include/haldls/vx/event.h</text>
</a>
</g>
</g>
<!-- Node32 -->
<g id="node2" class="node">
<title>Node32</title>
<g id="a_node2"><a xlink:href="container_8h.html" target="_top" xlink:title=" ">
<polygon fill="white" stroke="black" points="98,-186.5 98,-242.5 277.36,-242.5 277.36,-186.5 98,-186.5"/>
<text text-anchor="start" x="106" y="-229.5" font-family="Helvetica,sans-Serif" font-size="10.00">/jenkins/jenlib_workspaces</text>
<text text-anchor="start" x="106" y="-217.5" font-family="Helvetica,sans-Serif" font-size="10.00">_f9/bld_nightly&#45;haldls.YmxkX25p</text>
<text text-anchor="start" x="106" y="-205.5" font-family="Helvetica,sans-Serif" font-size="10.00">Z2h0bHktaGFsZGxzIzY1NQ.x/haldls</text>
<text text-anchor="middle" x="187.68" y="-193.5" font-family="Helvetica,sans-Serif" font-size="10.00">/include/haldls/vx/container.h</text>
</a>
</g>
</g>
<!-- Node31&#45;&gt;Node32 -->
<g id="edge1" class="edge">
<title>Node31&#45;&gt;Node32</title>
<path fill="none" stroke="midnightblue" d="M187.68,-269.12C187.68,-260.3 187.68,-251.06 187.68,-242.78"/>
<polygon fill="midnightblue" stroke="midnightblue" points="184.18,-269.2 187.68,-279.2 191.18,-269.2 184.18,-269.2"/>
</g>
<!-- Node33 -->
<g id="node3" class="node">
<title>Node33</title>
<g id="a_node3"><a xlink:href="haldls_8h.html" target="_top" xlink:title=" ">
<polygon fill="white" stroke="black" points="0,-93.5 0,-149.5 179.36,-149.5 179.36,-93.5 0,-93.5"/>
<text text-anchor="start" x="8" y="-136.5" font-family="Helvetica,sans-Serif" font-size="10.00">/jenkins/jenlib_workspaces</text>
<text text-anchor="start" x="8" y="-124.5" font-family="Helvetica,sans-Serif" font-size="10.00">_f9/bld_nightly&#45;haldls.YmxkX25p</text>
<text text-anchor="start" x="8" y="-112.5" font-family="Helvetica,sans-Serif" font-size="10.00">Z2h0bHktaGFsZGxzIzY1NQ.x/haldls</text>
<text text-anchor="middle" x="89.68" y="-100.5" font-family="Helvetica,sans-Serif" font-size="10.00">/include/haldls/vx/haldls.h</text>
</a>
</g>
</g>
<!-- Node32&#45;&gt;Node33 -->
<g id="edge2" class="edge">
<title>Node32&#45;&gt;Node33</title>
<path fill="none" stroke="midnightblue" d="M150.99,-179.44C140.39,-169.59 128.96,-158.97 118.87,-149.61"/>
<polygon fill="midnightblue" stroke="midnightblue" points="148.83,-182.2 158.54,-186.44 153.59,-177.07 148.83,-182.2"/>
</g>
<!-- Node35 -->
<g id="node5" class="node">
<title>Node35</title>
<g id="a_node5"><a xlink:href="is__readable_8h.html" target="_top" xlink:title=" ">
<polygon fill="white" stroke="black" points="197,-93.5 197,-149.5 376.36,-149.5 376.36,-93.5 197,-93.5"/>
<text text-anchor="start" x="205" y="-136.5" font-family="Helvetica,sans-Serif" font-size="10.00">/jenkins/jenlib_workspaces</text>
<text text-anchor="start" x="205" y="-124.5" font-family="Helvetica,sans-Serif" font-size="10.00">_f9/bld_nightly&#45;haldls.YmxkX25p</text>
<text text-anchor="start" x="205" y="-112.5" font-family="Helvetica,sans-Serif" font-size="10.00">Z2h0bHktaGFsZGxzIzY1NQ.x/haldls</text>
<text text-anchor="middle" x="286.68" y="-100.5" font-family="Helvetica,sans-Serif" font-size="10.00">/include/haldls/vx/is_readable.h</text>
</a>
</g>
</g>
<!-- Node32&#45;&gt;Node35 -->
<g id="edge4" class="edge">
<title>Node32&#45;&gt;Node35</title>
<path fill="none" stroke="midnightblue" d="M224.74,-179.44C235.45,-169.59 247,-158.97 257.19,-149.61"/>
<polygon fill="midnightblue" stroke="midnightblue" points="222.11,-177.1 217.11,-186.44 226.84,-182.25 222.11,-177.1"/>
</g>
<!-- Node34 -->
<g id="node4" class="node">
<title>Node34</title>
<g id="a_node4"><a xlink:href="pyhaldls_8h.html" target="_top" xlink:title=" ">
<polygon fill="white" stroke="black" points="0,-0.5 0,-56.5 179.36,-56.5 179.36,-0.5 0,-0.5"/>
<text text-anchor="start" x="8" y="-43.5" font-family="Helvetica,sans-Serif" font-size="10.00">/jenkins/jenlib_workspaces</text>
<text text-anchor="start" x="8" y="-31.5" font-family="Helvetica,sans-Serif" font-size="10.00">_f9/bld_nightly&#45;haldls.YmxkX25p</text>
<text text-anchor="start" x="8" y="-19.5" font-family="Helvetica,sans-Serif" font-size="10.00">Z2h0bHktaGFsZGxzIzY1NQ.x/haldls</text>
<text text-anchor="middle" x="89.68" y="-7.5" font-family="Helvetica,sans-Serif" font-size="10.00">/include/haldls/vx/pyhaldls.h</text>
</a>
</g>
</g>
<!-- Node33&#45;&gt;Node34 -->
<g id="edge3" class="edge">
<title>Node33&#45;&gt;Node34</title>
<path fill="none" stroke="midnightblue" d="M89.68,-83.12C89.68,-74.3 89.68,-65.06 89.68,-56.78"/>
<polygon fill="midnightblue" stroke="midnightblue" points="86.18,-83.2 89.68,-93.2 93.18,-83.2 86.18,-83.2"/>
</g>
<!-- Node36 -->
<g id="node6" class="node">
<title>Node36</title>
<g id="a_node6"><a xlink:href="is__writereadable_8h.html" target="_top" xlink:title=" ">
<polygon fill="white" stroke="black" points="197,-0.5 197,-56.5 376.36,-56.5 376.36,-0.5 197,-0.5"/>
<text text-anchor="start" x="205" y="-43.5" font-family="Helvetica,sans-Serif" font-size="10.00">/jenkins/jenlib_workspaces</text>
<text text-anchor="start" x="205" y="-31.5" font-family="Helvetica,sans-Serif" font-size="10.00">_f9/bld_nightly&#45;haldls.YmxkX25p</text>
<text text-anchor="start" x="205" y="-19.5" font-family="Helvetica,sans-Serif" font-size="10.00">Z2h0bHktaGFsZGxzIzY1NQ.x/haldls</text>
<text text-anchor="middle" x="286.68" y="-7.5" font-family="Helvetica,sans-Serif" font-size="10.00">/include/haldls/vx/is_writereadable.h</text>
</a>
</g>
</g>
<!-- Node35&#45;&gt;Node36 -->
<g id="edge5" class="edge">
<title>Node35&#45;&gt;Node36</title>
<path fill="none" stroke="midnightblue" d="M286.68,-83.12C286.68,-74.3 286.68,-65.06 286.68,-56.78"/>
<polygon fill="midnightblue" stroke="midnightblue" points="283.18,-83.2 286.68,-93.2 290.18,-83.2 283.18,-83.2"/>
</g>
</g>
</svg>
