<?xml version="1.0" encoding="UTF-8" standalone="no"?>
<!DOCTYPE svg PUBLIC "-//W3C//DTD SVG 1.1//EN"
 "http://www.w3.org/Graphics/SVG/1.1/DTD/svg11.dtd">
<!-- Generated by graphviz version 2.43.0 (0)
 -->
<!-- Title: /jenkins/jenlib_workspaces_f9/bld_nightly&#45;haldls.YmxkX25pZ2h0bHktaGFsZGxzIzY1NQ.x/haldls/include/haldls/vx/fpga.h Pages: 1 -->
<svg width="917pt" height="203pt"
 viewBox="0.00 0.00 916.89 203.00" xmlns="http://www.w3.org/2000/svg" xmlns:xlink="http://www.w3.org/1999/xlink">
<g id="graph0" class="graph" transform="scale(1 1) rotate(0) translate(4 199)">
<title>/jenkins/jenlib_workspaces_f9/bld_nightly&#45;haldls.YmxkX25pZ2h0bHktaGFsZGxzIzY1NQ.x/haldls/include/haldls/vx/fpga.h</title>
<polygon fill="white" stroke="transparent" points="-4,4 -4,-199 912.89,-199 912.89,4 -4,4"/>
<!-- Node0 -->
<g id="node1" class="node">
<title>Node0</title>
<g id="a_node1"><a xlink:title=" ">
<polygon fill="#bfbfbf" stroke="black" points="238.71,-138.5 238.71,-194.5 418.07,-194.5 418.07,-138.5 238.71,-138.5"/>
<text text-anchor="start" x="246.71" y="-181.5" font-family="Helvetica,sans-Serif" font-size="10.00">/jenkins/jenlib_workspaces</text>
<text text-anchor="start" x="246.71" y="-169.5" font-family="Helvetica,sans-Serif" font-size="10.00">_f9/bld_nightly&#45;haldls.YmxkX25p</text>
<text text-anchor="start" x="246.71" y="-157.5" font-family="Helvetica,sans-Serif" font-size="10.00">Z2h0bHktaGFsZGxzIzY1NQ.x/haldls</text>
<text text-anchor="middle" x="328.39" y="-145.5" font-family="Helvetica,sans-Serif" font-size="10.00">/include/haldls/vx/fpga.h</text>
</a>
</g>
</g>
<!-- Node1 -->
<g id="node2" class="node">
<title>Node1</title>
<g id="a_node2"><a xlink:title=" ">
<polygon fill="white" stroke="#bfbfbf" points="0,-75.5 0,-95.5 38.78,-95.5 38.78,-75.5 0,-75.5"/>
<text text-anchor="middle" x="19.39" y="-82.5" font-family="Helvetica,sans-Serif" font-size="10.00">array</text>
</a>
</g>
</g>
<!-- Node0&#45;&gt;Node1 -->
<g id="edge1" class="edge">
<title>Node0&#45;&gt;Node1</title>
<path fill="none" stroke="midnightblue" d="M238.53,-151.89C182.42,-141.77 109.32,-125.59 47.39,-102 45.96,-101.46 44.52,-100.85 43.08,-100.2"/>
<polygon fill="midnightblue" stroke="midnightblue" points="44.34,-96.92 33.83,-95.52 41.17,-103.16 44.34,-96.92"/>
</g>
<!-- Node2 -->
<g id="node3" class="node">
<title>Node2</title>
<g id="a_node3"><a xlink:title=" ">
<polygon fill="white" stroke="#bfbfbf" points="56.33,-75.5 56.33,-95.5 108.45,-95.5 108.45,-75.5 56.33,-75.5"/>
<text text-anchor="middle" x="82.39" y="-82.5" font-family="Helvetica,sans-Serif" font-size="10.00">ostream</text>
</a>
</g>
</g>
<!-- Node0&#45;&gt;Node2 -->
<g id="edge2" class="edge">
<title>Node0&#45;&gt;Node2</title>
<path fill="none" stroke="midnightblue" d="M238.51,-141.13C200.75,-130.2 156.58,-116.51 117.39,-102 115.31,-101.23 113.18,-100.4 111.05,-99.54"/>
<polygon fill="midnightblue" stroke="midnightblue" points="112.41,-96.31 101.83,-95.63 109.67,-102.75 112.41,-96.31"/>
</g>
<!-- Node3 -->
<g id="node4" class="node">
<title>Node3</title>
<g id="a_node4"><a xlink:title=" ">
<polygon fill="white" stroke="#bfbfbf" points="126.49,-75.5 126.49,-95.5 260.29,-95.5 260.29,-75.5 126.49,-75.5"/>
<text text-anchor="middle" x="193.39" y="-82.5" font-family="Helvetica,sans-Serif" font-size="10.00">halco/common/geometry.h</text>
</a>
</g>
</g>
<!-- Node0&#45;&gt;Node3 -->
<g id="edge3" class="edge">
<title>Node0&#45;&gt;Node3</title>
<path fill="none" stroke="midnightblue" d="M281.93,-138.31C260.24,-125.62 235.32,-111.04 217.46,-100.59"/>
<polygon fill="midnightblue" stroke="midnightblue" points="219.21,-97.56 208.81,-95.53 215.68,-103.6 219.21,-97.56"/>
</g>
<!-- Node4 -->
<g id="node5" class="node">
<title>Node4</title>
<g id="a_node5"><a xlink:title=" ">
<polygon fill="white" stroke="#bfbfbf" points="277.88,-69.5 277.88,-101.5 378.9,-101.5 378.9,-69.5 277.88,-69.5"/>
<text text-anchor="start" x="285.88" y="-88.5" font-family="Helvetica,sans-Serif" font-size="10.00">halco/hicann&#45;dls/vx</text>
<text text-anchor="middle" x="328.39" y="-76.5" font-family="Helvetica,sans-Serif" font-size="10.00">/fpga.h</text>
</a>
</g>
</g>
<!-- Node0&#45;&gt;Node4 -->
<g id="edge4" class="edge">
<title>Node0&#45;&gt;Node4</title>
<path fill="none" stroke="midnightblue" d="M328.39,-138.31C328.39,-129.65 328.39,-120.11 328.39,-111.6"/>
<polygon fill="midnightblue" stroke="midnightblue" points="331.89,-111.52 328.39,-101.52 324.89,-111.52 331.89,-111.52"/>
</g>
<!-- Node5 -->
<g id="node6" class="node">
<title>Node5</title>
<g id="a_node6"><a xlink:href="genpybind_8h.html" target="_top" xlink:title=" ">
<polygon fill="white" stroke="black" points="38.32,-6.5 38.32,-26.5 150.46,-26.5 150.46,-6.5 38.32,-6.5"/>
<text text-anchor="middle" x="94.39" y="-13.5" font-family="Helvetica,sans-Serif" font-size="10.00">haldls/vx/genpybind.h</text>
</a>
</g>
</g>
<!-- Node0&#45;&gt;Node5 -->
<g id="edge5" class="edge">
<title>Node0&#45;&gt;Node5</title>
<path fill="none" stroke="midnightblue" d="M363.77,-138.3C385.73,-118.14 406.58,-90.56 388.39,-69 357.71,-32.65 224.21,-41.37 177.39,-33 169.19,-31.54 160.55,-29.96 152.06,-28.39"/>
<polygon fill="midnightblue" stroke="midnightblue" points="152.68,-24.94 142.21,-26.56 151.4,-31.83 152.68,-24.94"/>
</g>
<!-- Node6 -->
<g id="node7" class="node">
<title>Node6</title>
<g id="a_node7"><a xlink:href="traits_8h.html" target="_top" xlink:title=" ">
<polygon fill="white" stroke="black" points="435.55,-75.5 435.55,-95.5 523.23,-95.5 523.23,-75.5 435.55,-75.5"/>
<text text-anchor="middle" x="479.39" y="-82.5" font-family="Helvetica,sans-Serif" font-size="10.00">haldls/vx/traits.h</text>
</a>
</g>
</g>
<!-- Node0&#45;&gt;Node6 -->
<g id="edge7" class="edge">
<title>Node0&#45;&gt;Node6</title>
<path fill="none" stroke="midnightblue" d="M380.35,-138.31C404.84,-125.5 433,-110.77 453.01,-100.3"/>
<polygon fill="midnightblue" stroke="midnightblue" points="454.89,-103.26 462.13,-95.53 451.65,-97.06 454.89,-103.26"/>
</g>
<!-- Node12 -->
<g id="node13" class="node">
<title>Node12</title>
<g id="a_node13"><a xlink:title=" ">
<polygon fill="white" stroke="#bfbfbf" points="827.88,-6.5 827.88,-26.5 908.89,-26.5 908.89,-6.5 827.88,-6.5"/>
<text text-anchor="middle" x="868.39" y="-13.5" font-family="Helvetica,sans-Serif" font-size="10.00">hate/visibility.h</text>
</a>
</g>
</g>
<!-- Node0&#45;&gt;Node12 -->
<g id="edge16" class="edge">
<title>Node0&#45;&gt;Node12</title>
<path fill="none" stroke="midnightblue" d="M418.31,-142.47C517.01,-116.9 680,-73.83 819.39,-33 823.13,-31.9 827.03,-30.73 830.92,-29.53"/>
<polygon fill="midnightblue" stroke="midnightblue" points="831.96,-32.88 840.47,-26.56 829.88,-26.19 831.96,-32.88"/>
</g>
<!-- Node5&#45;&gt;Node5 -->
<g id="edge6" class="edge">
<title>Node5&#45;&gt;Node5</title>
<path fill="none" stroke="midnightblue" d="M118.28,-26.54C142.11,-32.26 168.46,-28.92 168.46,-16.5 168.46,-5.78 148.82,-1.82 128.12,-4.62"/>
<polygon fill="midnightblue" stroke="midnightblue" points="127.47,-1.18 118.28,-6.46 128.76,-8.06 127.47,-1.18"/>
</g>
<!-- Node6&#45;&gt;Node5 -->
<g id="edge12" class="edge">
<title>Node6&#45;&gt;Node5</title>
<path fill="none" stroke="midnightblue" d="M448.24,-75.47C439.59,-73.16 430.17,-70.81 421.39,-69 314.04,-46.81 285.51,-51.06 177.39,-33 168.77,-31.56 159.67,-29.95 150.78,-28.33"/>
<polygon fill="midnightblue" stroke="midnightblue" points="151.33,-24.87 140.86,-26.5 150.06,-31.76 151.33,-24.87"/>
</g>
<!-- Node7 -->
<g id="node8" class="node">
<title>Node7</title>
<g id="a_node8"><a xlink:title=" ">
<polygon fill="white" stroke="#bfbfbf" points="186.33,-6.5 186.33,-26.5 248.45,-26.5 248.45,-6.5 186.33,-6.5"/>
<text text-anchor="middle" x="217.39" y="-13.5" font-family="Helvetica,sans-Serif" font-size="10.00">type_traits</text>
</a>
</g>
</g>
<!-- Node6&#45;&gt;Node7 -->
<g id="edge8" class="edge">
<title>Node6&#45;&gt;Node7</title>
<path fill="none" stroke="midnightblue" d="M446.63,-75.47C438.41,-73.28 429.59,-71 421.39,-69 348.88,-51.36 328.83,-54.55 257.39,-33 254.58,-32.15 251.69,-31.2 248.81,-30.19"/>
<polygon fill="midnightblue" stroke="midnightblue" points="249.78,-26.82 239.18,-26.64 247.35,-33.39 249.78,-26.82"/>
</g>
<!-- Node8 -->
<g id="node9" class="node">
<title>Node8</title>
<g id="a_node9"><a xlink:title=" ">
<polygon fill="white" stroke="#bfbfbf" points="266.04,-6.5 266.04,-26.5 358.74,-26.5 358.74,-6.5 266.04,-6.5"/>
<text text-anchor="middle" x="312.39" y="-13.5" font-family="Helvetica,sans-Serif" font-size="10.00">boost/variant.hpp</text>
</a>
</g>
</g>
<!-- Node6&#45;&gt;Node8 -->
<g id="edge9" class="edge">
<title>Node6&#45;&gt;Node8</title>
<path fill="none" stroke="midnightblue" d="M456.87,-75.46C427.98,-63.88 377.69,-43.7 344.72,-30.47"/>
<polygon fill="midnightblue" stroke="midnightblue" points="345.67,-27.08 335.09,-26.61 343.06,-33.58 345.67,-27.08"/>
</g>
<!-- Node9 -->
<g id="node10" class="node">
<title>Node9</title>
<g id="a_node10"><a xlink:title=" ">
<polygon fill="white" stroke="#bfbfbf" points="376.77,-0.5 376.77,-32.5 470.01,-32.5 470.01,-0.5 376.77,-0.5"/>
<text text-anchor="start" x="384.77" y="-19.5" font-family="Helvetica,sans-Serif" font-size="10.00">fisch/vx/container</text>
<text text-anchor="middle" x="423.39" y="-7.5" font-family="Helvetica,sans-Serif" font-size="10.00">_fwd.h</text>
</a>
</g>
</g>
<!-- Node6&#45;&gt;Node9 -->
<g id="edge10" class="edge">
<title>Node6&#45;&gt;Node9</title>
<path fill="none" stroke="midnightblue" d="M471.84,-75.46C464.36,-66.53 452.62,-52.48 442.57,-40.45"/>
<polygon fill="midnightblue" stroke="midnightblue" points="445.05,-37.96 435.95,-32.53 439.68,-42.45 445.05,-37.96"/>
</g>
<!-- Node10 -->
<g id="node11" class="node">
<title>Node10</title>
<g id="a_node11"><a xlink:title=" ">
<polygon fill="white" stroke="#bfbfbf" points="487.77,-0.5 487.77,-32.5 581.01,-32.5 581.01,-0.5 487.77,-0.5"/>
<text text-anchor="start" x="495.77" y="-19.5" font-family="Helvetica,sans-Serif" font-size="10.00">fisch/vx/container</text>
<text text-anchor="middle" x="534.39" y="-7.5" font-family="Helvetica,sans-Serif" font-size="10.00">_ticket.h</text>
</a>
</g>
</g>
<!-- Node6&#45;&gt;Node10 -->
<g id="edge11" class="edge">
<title>Node6&#45;&gt;Node10</title>
<path fill="none" stroke="midnightblue" d="M486.81,-75.46C494.14,-66.53 505.68,-52.48 515.55,-40.45"/>
<polygon fill="midnightblue" stroke="midnightblue" points="518.41,-42.48 522.05,-32.53 513,-38.04 518.41,-42.48"/>
</g>
<!-- Node11 -->
<g id="node12" class="node">
<title>Node11</title>
<g id="a_node12"><a xlink:title=" ">
<polygon fill="white" stroke="#bfbfbf" points="598.77,-6.5 598.77,-26.5 682.01,-26.5 682.01,-6.5 598.77,-6.5"/>
<text text-anchor="middle" x="640.39" y="-13.5" font-family="Helvetica,sans-Serif" font-size="10.00">hate/type_list.h</text>
</a>
</g>
</g>
<!-- Node6&#45;&gt;Node11 -->
<g id="edge13" class="edge">
<title>Node6&#45;&gt;Node11</title>
<path fill="none" stroke="midnightblue" d="M501.1,-75.46C528.95,-63.88 577.43,-43.7 609.22,-30.47"/>
<polygon fill="midnightblue" stroke="midnightblue" points="610.62,-33.68 618.5,-26.61 607.93,-27.22 610.62,-33.68"/>
</g>
<!-- Node6&#45;&gt;Node12 -->
<g id="edge14" class="edge">
<title>Node6&#45;&gt;Node12</title>
<path fill="none" stroke="midnightblue" d="M523.27,-80.07C588.45,-72.99 714.42,-57.39 819.39,-33 823.76,-31.98 828.3,-30.77 832.79,-29.47"/>
<polygon fill="midnightblue" stroke="midnightblue" points="833.85,-32.81 842.4,-26.55 831.82,-26.11 833.85,-32.81"/>
</g>
<!-- Node13 -->
<g id="node14" class="node">
<title>Node13</title>
<g id="a_node14"><a xlink:title=" ">
<polygon fill="white" stroke="#bfbfbf" points="700.43,-6.5 700.43,-26.5 810.34,-26.5 810.34,-6.5 700.43,-6.5"/>
<text text-anchor="middle" x="755.39" y="-13.5" font-family="Helvetica,sans-Serif" font-size="10.00">fisch/vx/container.def</text>
</a>
</g>
</g>
<!-- Node6&#45;&gt;Node13 -->
<g id="edge15" class="edge">
<title>Node6&#45;&gt;Node13</title>
<path fill="none" stroke="midnightblue" d="M516.61,-75.46C566.1,-63.45 653.6,-42.21 707.82,-29.05"/>
<polygon fill="midnightblue" stroke="midnightblue" points="708.98,-32.37 717.87,-26.61 707.33,-25.56 708.98,-32.37"/>
</g>
</g>
</svg>
