<?xml version="1.0" encoding="UTF-8" standalone="no"?>
<!DOCTYPE svg PUBLIC "-//W3C//DTD SVG 1.1//EN"
 "http://www.w3.org/Graphics/SVG/1.1/DTD/svg11.dtd">
<!-- Generated by graphviz version 2.43.0 (0)
 -->
<!-- Title: Graphical Class Hierarchy Pages: 1 -->
<svg width="338pt" height="194pt"
 viewBox="0.00 0.00 338.29 194.00" xmlns="http://www.w3.org/2000/svg" xmlns:xlink="http://www.w3.org/1999/xlink">
<g id="graph0" class="graph" transform="scale(1 1) rotate(0) translate(4 190)">
<title>Graphical Class Hierarchy</title>
<polygon fill="white" stroke="transparent" points="-4,4 -4,-190 334.29,-190 334.29,4 -4,4"/>
<!-- Node379 -->
<g id="node1" class="node">
<title>Node379</title>
<g id="a_node1"><a xlink:title=" ">
<polygon fill="white" stroke="#bfbfbf" points="0,-82.5 0,-102.5 121.03,-102.5 121.03,-82.5 0,-82.5"/>
<text text-anchor="middle" x="60.52" y="-89.5" font-family="Helvetica,sans-Serif" font-size="10.00">BackendContainerBase</text>
</a>
</g>
</g>
<!-- Node0 -->
<g id="node2" class="node">
<title>Node0</title>
<g id="a_node2"><a xlink:href="structhaldls_1_1detail_1_1_backend_container_trait_3_01_cap_mem_block_01_4.html" target="_top" xlink:title=" ">
<polygon fill="white" stroke="black" points="163.98,-153.5 163.98,-185.5 323.35,-185.5 323.35,-153.5 163.98,-153.5"/>
<text text-anchor="start" x="171.98" y="-172.5" font-family="Helvetica,sans-Serif" font-size="10.00">haldls::detail::BackendContainer</text>
<text text-anchor="middle" x="243.66" y="-160.5" font-family="Helvetica,sans-Serif" font-size="10.00">Trait&lt; CapMemBlock &gt;</text>
</a>
</g>
</g>
<!-- Node379&#45;&gt;Node0 -->
<g id="edge1" class="edge">
<title>Node379&#45;&gt;Node0</title>
<path fill="none" stroke="midnightblue" d="M86.13,-107.81C105,-119.08 131.98,-134.17 157.03,-144.5 164.91,-147.75 173.35,-150.76 181.75,-153.47"/>
<polygon fill="midnightblue" stroke="midnightblue" points="87.92,-104.81 77.55,-102.62 84.3,-110.8 87.92,-104.81"/>
</g>
<!-- Node381 -->
<g id="node3" class="node">
<title>Node381</title>
<g id="a_node3"><a xlink:href="structhaldls_1_1detail_1_1_backend_container_trait_3_01_cap_mem_block_config_01_4.html" target="_top" xlink:title=" ">
<polygon fill="white" stroke="black" points="163.98,-102.5 163.98,-134.5 323.35,-134.5 323.35,-102.5 163.98,-102.5"/>
<text text-anchor="start" x="171.98" y="-121.5" font-family="Helvetica,sans-Serif" font-size="10.00">haldls::detail::BackendContainer</text>
<text text-anchor="middle" x="243.66" y="-109.5" font-family="Helvetica,sans-Serif" font-size="10.00">Trait&lt; CapMemBlockConfig &gt;</text>
</a>
</g>
</g>
<!-- Node379&#45;&gt;Node381 -->
<g id="edge2" class="edge">
<title>Node379&#45;&gt;Node381</title>
<path fill="none" stroke="midnightblue" d="M131.21,-102.5C141.94,-104.04 153.07,-105.64 163.98,-107.21"/>
<polygon fill="midnightblue" stroke="midnightblue" points="131.48,-99.01 121.08,-101.05 130.48,-105.93 131.48,-99.01"/>
</g>
<!-- Node382 -->
<g id="node4" class="node">
<title>Node382</title>
<g id="a_node4"><a xlink:href="structhaldls_1_1detail_1_1_backend_container_trait_3_01_cap_mem_cell_01_4.html" target="_top" xlink:title=" ">
<polygon fill="white" stroke="black" points="163.98,-51.5 163.98,-83.5 323.35,-83.5 323.35,-51.5 163.98,-51.5"/>
<text text-anchor="start" x="171.98" y="-70.5" font-family="Helvetica,sans-Serif" font-size="10.00">haldls::detail::BackendContainer</text>
<text text-anchor="middle" x="243.66" y="-58.5" font-family="Helvetica,sans-Serif" font-size="10.00">Trait&lt; CapMemCell &gt;</text>
</a>
</g>
</g>
<!-- Node379&#45;&gt;Node382 -->
<g id="edge3" class="edge">
<title>Node379&#45;&gt;Node382</title>
<path fill="none" stroke="midnightblue" d="M131.21,-82.88C141.94,-81.4 153.07,-79.86 163.98,-78.36"/>
<polygon fill="midnightblue" stroke="midnightblue" points="130.51,-79.45 121.08,-84.28 131.47,-86.38 130.51,-79.45"/>
</g>
<!-- Node383 -->
<g id="node5" class="node">
<title>Node383</title>
<g id="a_node5"><a xlink:href="structhaldls_1_1detail_1_1_backend_container_trait_3_01_reference_generator_config_01_4.html" target="_top" xlink:title=" ">
<polygon fill="white" stroke="black" points="157.03,-0.5 157.03,-32.5 330.29,-32.5 330.29,-0.5 157.03,-0.5"/>
<text text-anchor="start" x="165.03" y="-19.5" font-family="Helvetica,sans-Serif" font-size="10.00">haldls::detail::BackendContainer</text>
<text text-anchor="middle" x="243.66" y="-7.5" font-family="Helvetica,sans-Serif" font-size="10.00">Trait&lt; ReferenceGeneratorConfig &gt;</text>
</a>
</g>
</g>
<!-- Node379&#45;&gt;Node383 -->
<g id="edge4" class="edge">
<title>Node379&#45;&gt;Node383</title>
<path fill="none" stroke="midnightblue" d="M87.18,-77.38C106.06,-66.68 132.58,-52.51 157.03,-42.5 165.8,-38.91 175.26,-35.55 184.57,-32.53"/>
<polygon fill="midnightblue" stroke="midnightblue" points="85.24,-74.46 78.31,-82.47 88.72,-80.53 85.24,-74.46"/>
</g>
</g>
</svg>
