<?xml version="1.0" encoding="UTF-8" standalone="no"?>
<!DOCTYPE svg PUBLIC "-//W3C//DTD SVG 1.1//EN"
 "http://www.w3.org/Graphics/SVG/1.1/DTD/svg11.dtd">
<!-- Generated by graphviz version 2.43.0 (0)
 -->
<!-- Title: Graphical Class Hierarchy Pages: 1 -->
<svg width="299pt" height="53pt"
 viewBox="0.00 0.00 298.53 53.00" xmlns="http://www.w3.org/2000/svg" xmlns:xlink="http://www.w3.org/1999/xlink">
<g id="graph0" class="graph" transform="scale(1 1) rotate(0) translate(4 49)">
<title>Graphical Class Hierarchy</title>
<polygon fill="white" stroke="transparent" points="-4,4 -4,-49 294.53,-49 294.53,4 -4,4"/>
<!-- Node34 -->
<g id="node1" class="node">
<title>Node34</title>
<g id="a_node1"><a xlink:title=" ">
<polygon fill="white" stroke="#bfbfbf" points="0,-0.5 0,-44.5 112.41,-44.5 112.41,-0.5 0,-0.5"/>
<text text-anchor="start" x="8" y="-31.5" font-family="Helvetica,sans-Serif" font-size="10.00">RantWrapper&lt; Value,</text>
<text text-anchor="start" x="8" y="-19.5" font-family="Helvetica,sans-Serif" font-size="10.00"> uint64_t, 0x1ff &#39;ffff</text>
<text text-anchor="middle" x="56.21" y="-7.5" font-family="Helvetica,sans-Serif" font-size="10.00"> &#39;ffff &#39;ffffull, 0 &gt;</text>
</a>
</g>
</g>
<!-- Node0 -->
<g id="node2" class="node">
<title>Node0</title>
<g id="a_node2"><a xlink:href="structhaldls_1_1vx_1_1_f_p_g_a_device_d_n_a_1_1_value.html" target="_top" xlink:title="Identifier value type.">
<polygon fill="white" stroke="black" points="148.41,-6.5 148.41,-38.5 290.53,-38.5 290.53,-6.5 148.41,-6.5"/>
<text text-anchor="start" x="156.41" y="-25.5" font-family="Helvetica,sans-Serif" font-size="10.00">haldls::vx::FPGADeviceDNA</text>
<text text-anchor="middle" x="219.47" y="-13.5" font-family="Helvetica,sans-Serif" font-size="10.00">::Value</text>
</a>
</g>
</g>
<!-- Node34&#45;&gt;Node0 -->
<g id="edge1" class="edge">
<title>Node34&#45;&gt;Node0</title>
<path fill="none" stroke="midnightblue" d="M122.82,-22.5C131.23,-22.5 139.87,-22.5 148.34,-22.5"/>
<polygon fill="midnightblue" stroke="midnightblue" points="122.7,-19 112.7,-22.5 122.7,-26 122.7,-19"/>
</g>
</g>
</svg>
