<?xml version="1.0" encoding="UTF-8" standalone="no"?>
<!DOCTYPE svg PUBLIC "-//W3C//DTD SVG 1.1//EN"
 "http://www.w3.org/Graphics/SVG/1.1/DTD/svg11.dtd">
<!-- Generated by graphviz version 2.43.0 (0)
 -->
<!-- Title: Graphical Class Hierarchy Pages: 1 -->
<svg width="297pt" height="338pt"
 viewBox="0.00 0.00 297.45 338.00" xmlns="http://www.w3.org/2000/svg" xmlns:xlink="http://www.w3.org/1999/xlink">
<g id="graph0" class="graph" transform="scale(1 1) rotate(0) translate(4 334)">
<title>Graphical Class Hierarchy</title>
<polygon fill="white" stroke="transparent" points="-4,4 -4,-334 293.45,-334 293.45,4 -4,4"/>
<!-- Node6 -->
<g id="node1" class="node">
<title>Node6</title>
<g id="a_node1"><a xlink:title=" ">
<polygon fill="white" stroke="#bfbfbf" points="0,-154.5 0,-174.5 57.68,-174.5 57.68,-154.5 0,-154.5"/>
<text text-anchor="middle" x="28.84" y="-161.5" font-family="Helvetica,sans-Serif" font-size="10.00">true_type</text>
</a>
</g>
</g>
<!-- Node0 -->
<g id="node2" class="node">
<title>Node0</title>
<g id="a_node2"><a xlink:href="structhaldls_1_1vx_1_1detail_1_1_is_readable_3_01_t_00_01std_1_1enable__if__t_3_01hate_1_1is__in52349e4c8b62557f32257c4d96054dd8.html" target="_top" xlink:title=" ">
<polygon fill="white" stroke="black" points="105.06,-261.5 105.06,-329.5 278.06,-329.5 278.06,-261.5 105.06,-261.5"/>
<text text-anchor="start" x="113.06" y="-316.5" font-family="Helvetica,sans-Serif" font-size="10.00">haldls::vx::detail</text>
<text text-anchor="start" x="113.06" y="-304.5" font-family="Helvetica,sans-Serif" font-size="10.00">::IsReadable&lt; T, std</text>
<text text-anchor="start" x="113.06" y="-292.5" font-family="Helvetica,sans-Serif" font-size="10.00">::enable_if_t&lt; hate::</text>
<text text-anchor="start" x="113.06" y="-280.5" font-family="Helvetica,sans-Serif" font-size="10.00">is_in_type_list&lt; T, NonLeafNode</text>
<text text-anchor="middle" x="191.56" y="-268.5" font-family="Helvetica,sans-Serif" font-size="10.00">ReadableContainerList &gt;::value &gt; &gt;</text>
</a>
</g>
</g>
<!-- Node6&#45;&gt;Node0 -->
<g id="edge1" class="edge">
<title>Node6&#45;&gt;Node0</title>
<path fill="none" stroke="midnightblue" d="M39.62,-183.41C50.53,-202.93 69.84,-233.2 93.68,-252.5 97.54,-255.63 101.67,-258.57 105.96,-261.34"/>
<polygon fill="midnightblue" stroke="midnightblue" points="42.66,-181.67 34.82,-174.53 36.5,-184.99 42.66,-181.67"/>
</g>
<!-- Node8 -->
<g id="node3" class="node">
<title>Node8</title>
<g id="a_node3"><a xlink:href="structhaldls_1_1vx_1_1detail_1_1_is_readable_3_01_t_00_01typename_01boost_1_1enable__if__has__tydc1ee37345a0bb947e0685c0247ea7c7.html" target="_top" xlink:title=" ">
<polygon fill="white" stroke="black" points="123.41,-174.5 123.41,-242.5 259.72,-242.5 259.72,-174.5 123.41,-174.5"/>
<text text-anchor="start" x="131.41" y="-229.5" font-family="Helvetica,sans-Serif" font-size="10.00">haldls::vx::detail</text>
<text text-anchor="start" x="131.41" y="-217.5" font-family="Helvetica,sans-Serif" font-size="10.00">::IsReadable&lt; T, typename</text>
<text text-anchor="start" x="131.41" y="-205.5" font-family="Helvetica,sans-Serif" font-size="10.00"> boost::enable_if_has_type</text>
<text text-anchor="start" x="131.41" y="-193.5" font-family="Helvetica,sans-Serif" font-size="10.00">&lt; decltype(T::config_size</text>
<text text-anchor="middle" x="191.56" y="-181.5" font-family="Helvetica,sans-Serif" font-size="10.00">_in_words)&gt;::type &gt;</text>
</a>
</g>
</g>
<!-- Node6&#45;&gt;Node8 -->
<g id="edge2" class="edge">
<title>Node6&#45;&gt;Node8</title>
<path fill="none" stroke="midnightblue" d="M67.67,-174.86C84.24,-179.39 104.19,-184.85 123.15,-190.05"/>
<polygon fill="midnightblue" stroke="midnightblue" points="68.41,-171.43 57.84,-172.16 66.56,-178.18 68.41,-171.43"/>
</g>
<!-- Node9 -->
<g id="node4" class="node">
<title>Node9</title>
<g id="a_node4"><a xlink:href="structhaldls_1_1vx_1_1detail_1_1_is_writeable_3_01_t_00_01std_1_1enable__if__t_3_01hate_1_1is__i68516161106baf4b82148726e0ffb84e.html" target="_top" xlink:title=" ">
<polygon fill="white" stroke="black" points="93.68,-87.5 93.68,-155.5 289.45,-155.5 289.45,-87.5 93.68,-87.5"/>
<text text-anchor="start" x="101.68" y="-142.5" font-family="Helvetica,sans-Serif" font-size="10.00">haldls::vx::detail</text>
<text text-anchor="start" x="101.68" y="-130.5" font-family="Helvetica,sans-Serif" font-size="10.00">::IsWriteable&lt; T, std</text>
<text text-anchor="start" x="101.68" y="-118.5" font-family="Helvetica,sans-Serif" font-size="10.00">::enable_if_t&lt; hate::is</text>
<text text-anchor="start" x="101.68" y="-106.5" font-family="Helvetica,sans-Serif" font-size="10.00">_in_type_list&lt; T, NonLeafNodeWriteable</text>
<text text-anchor="middle" x="191.56" y="-94.5" font-family="Helvetica,sans-Serif" font-size="10.00">ContainerList &gt;::value &gt; &gt;</text>
</a>
</g>
</g>
<!-- Node6&#45;&gt;Node9 -->
<g id="edge3" class="edge">
<title>Node6&#45;&gt;Node9</title>
<path fill="none" stroke="midnightblue" d="M67.55,-154.41C75.59,-152.26 84.43,-149.89 93.57,-147.45"/>
<polygon fill="midnightblue" stroke="midnightblue" points="66.59,-151.04 57.84,-157.01 68.4,-157.81 66.59,-151.04"/>
</g>
<!-- Node10 -->
<g id="node5" class="node">
<title>Node10</title>
<g id="a_node5"><a xlink:href="structhaldls_1_1vx_1_1detail_1_1_is_writeable_3_01_t_00_01typename_01boost_1_1enable__if__has__t81ef6e02b3711acc13d47f20d193b265.html" target="_top" xlink:title=" ">
<polygon fill="white" stroke="black" points="123.69,-0.5 123.69,-68.5 259.44,-68.5 259.44,-0.5 123.69,-0.5"/>
<text text-anchor="start" x="131.69" y="-55.5" font-family="Helvetica,sans-Serif" font-size="10.00">haldls::vx::detail</text>
<text text-anchor="start" x="131.69" y="-43.5" font-family="Helvetica,sans-Serif" font-size="10.00">::IsWriteable&lt; T, typename</text>
<text text-anchor="start" x="131.69" y="-31.5" font-family="Helvetica,sans-Serif" font-size="10.00"> boost::enable_if_has_type</text>
<text text-anchor="start" x="131.69" y="-19.5" font-family="Helvetica,sans-Serif" font-size="10.00">&lt; decltype(T::config_size</text>
<text text-anchor="middle" x="191.56" y="-7.5" font-family="Helvetica,sans-Serif" font-size="10.00">_in_words)&gt;::type &gt;</text>
</a>
</g>
</g>
<!-- Node6&#45;&gt;Node10 -->
<g id="edge4" class="edge">
<title>Node6&#45;&gt;Node10</title>
<path fill="none" stroke="midnightblue" d="M40.08,-145.51C51.16,-126.45 70.4,-97.3 93.68,-78.5 102.66,-71.25 113.04,-64.91 123.58,-59.48"/>
<polygon fill="midnightblue" stroke="midnightblue" points="36.9,-144.02 35.05,-154.45 43.01,-147.45 36.9,-144.02"/>
</g>
</g>
</svg>
