<?xml version="1.0" encoding="UTF-8" standalone="no"?>
<!DOCTYPE svg PUBLIC "-//W3C//DTD SVG 1.1//EN"
 "http://www.w3.org/Graphics/SVG/1.1/DTD/svg11.dtd">
<!-- Generated by graphviz version 2.43.0 (0)
 -->
<!-- Title: /jenkins/jenlib_workspaces_f9/bld_nightly&#45;haldls.YmxkX25pZ2h0bHktaGFsZGxzIzY1NQ.x/haldls/include/haldls/vx/madc.h Pages: 1 -->
<svg width="1249pt" height="203pt"
 viewBox="0.00 0.00 1248.89 203.00" xmlns="http://www.w3.org/2000/svg" xmlns:xlink="http://www.w3.org/1999/xlink">
<g id="graph0" class="graph" transform="scale(1 1) rotate(0) translate(4 199)">
<title>/jenkins/jenlib_workspaces_f9/bld_nightly&#45;haldls.YmxkX25pZ2h0bHktaGFsZGxzIzY1NQ.x/haldls/include/haldls/vx/madc.h</title>
<polygon fill="white" stroke="transparent" points="-4,4 -4,-199 1244.89,-199 1244.89,4 -4,4"/>
<!-- Node0 -->
<g id="node1" class="node">
<title>Node0</title>
<g id="a_node1"><a xlink:title=" ">
<polygon fill="#bfbfbf" stroke="black" points="391.71,-138.5 391.71,-194.5 571.07,-194.5 571.07,-138.5 391.71,-138.5"/>
<text text-anchor="start" x="399.71" y="-181.5" font-family="Helvetica,sans-Serif" font-size="10.00">/jenkins/jenlib_workspaces</text>
<text text-anchor="start" x="399.71" y="-169.5" font-family="Helvetica,sans-Serif" font-size="10.00">_f9/bld_nightly&#45;haldls.YmxkX25p</text>
<text text-anchor="start" x="399.71" y="-157.5" font-family="Helvetica,sans-Serif" font-size="10.00">Z2h0bHktaGFsZGxzIzY1NQ.x/haldls</text>
<text text-anchor="middle" x="481.39" y="-145.5" font-family="Helvetica,sans-Serif" font-size="10.00">/include/haldls/vx/madc.h</text>
</a>
</g>
</g>
<!-- Node1 -->
<g id="node2" class="node">
<title>Node1</title>
<g id="a_node2"><a xlink:title=" ">
<polygon fill="white" stroke="#bfbfbf" points="0,-75.5 0,-95.5 38.78,-95.5 38.78,-75.5 0,-75.5"/>
<text text-anchor="middle" x="19.39" y="-82.5" font-family="Helvetica,sans-Serif" font-size="10.00">array</text>
</a>
</g>
</g>
<!-- Node0&#45;&gt;Node1 -->
<g id="edge1" class="edge">
<title>Node0&#45;&gt;Node1</title>
<path fill="none" stroke="midnightblue" d="M391.51,-161.76C302.18,-155.88 162.29,-140.77 47.39,-102 45.76,-101.45 44.12,-100.81 42.48,-100.1"/>
<polygon fill="midnightblue" stroke="midnightblue" points="43.97,-96.93 33.46,-95.58 40.84,-103.19 43.97,-96.93"/>
</g>
<!-- Node2 -->
<g id="node3" class="node">
<title>Node2</title>
<g id="a_node3"><a xlink:title=" ">
<polygon fill="white" stroke="#bfbfbf" points="56.33,-75.5 56.33,-95.5 108.45,-95.5 108.45,-75.5 56.33,-75.5"/>
<text text-anchor="middle" x="82.39" y="-82.5" font-family="Helvetica,sans-Serif" font-size="10.00">ostream</text>
</a>
</g>
</g>
<!-- Node0&#45;&gt;Node2 -->
<g id="edge2" class="edge">
<title>Node0&#45;&gt;Node2</title>
<path fill="none" stroke="midnightblue" d="M391.71,-156.05C317.15,-146.73 208.85,-129.77 117.39,-102 114.94,-101.26 112.44,-100.39 109.95,-99.44"/>
<polygon fill="midnightblue" stroke="midnightblue" points="111.17,-96.16 100.59,-95.57 108.49,-102.63 111.17,-96.16"/>
</g>
<!-- Node3 -->
<g id="node4" class="node">
<title>Node3</title>
<g id="a_node4"><a xlink:title=" ">
<polygon fill="white" stroke="#bfbfbf" points="126.27,-69.5 126.27,-101.5 234.51,-101.5 234.51,-69.5 126.27,-69.5"/>
<text text-anchor="start" x="134.27" y="-88.5" font-family="Helvetica,sans-Serif" font-size="10.00">halco/common/typed</text>
<text text-anchor="middle" x="180.39" y="-76.5" font-family="Helvetica,sans-Serif" font-size="10.00">_array.h</text>
</a>
</g>
</g>
<!-- Node0&#45;&gt;Node3 -->
<g id="edge3" class="edge">
<title>Node0&#45;&gt;Node3</title>
<path fill="none" stroke="midnightblue" d="M391.49,-141.9C344.24,-129.5 287.42,-114.59 244.64,-103.36"/>
<polygon fill="midnightblue" stroke="midnightblue" points="245.47,-99.96 234.91,-100.81 243.69,-106.73 245.47,-99.96"/>
</g>
<!-- Node4 -->
<g id="node5" class="node">
<title>Node4</title>
<g id="a_node5"><a xlink:title=" ">
<polygon fill="white" stroke="#bfbfbf" points="252.88,-69.5 252.88,-101.5 353.9,-101.5 353.9,-69.5 252.88,-69.5"/>
<text text-anchor="start" x="260.88" y="-88.5" font-family="Helvetica,sans-Serif" font-size="10.00">halco/hicann&#45;dls/vx</text>
<text text-anchor="middle" x="303.39" y="-76.5" font-family="Helvetica,sans-Serif" font-size="10.00">/chip.h</text>
</a>
</g>
</g>
<!-- Node0&#45;&gt;Node4 -->
<g id="edge4" class="edge">
<title>Node0&#45;&gt;Node4</title>
<path fill="none" stroke="midnightblue" d="M420.13,-138.31C395.95,-127.58 368.74,-115.5 346.67,-105.71"/>
<polygon fill="midnightblue" stroke="midnightblue" points="347.8,-102.38 337.24,-101.52 344.96,-108.78 347.8,-102.38"/>
</g>
<!-- Node5 -->
<g id="node6" class="node">
<title>Node5</title>
<g id="a_node6"><a xlink:title=" ">
<polygon fill="white" stroke="#bfbfbf" points="371.88,-69.5 371.88,-101.5 472.9,-101.5 472.9,-69.5 371.88,-69.5"/>
<text text-anchor="start" x="379.88" y="-88.5" font-family="Helvetica,sans-Serif" font-size="10.00">halco/hicann&#45;dls/vx</text>
<text text-anchor="middle" x="422.39" y="-76.5" font-family="Helvetica,sans-Serif" font-size="10.00">/madc.h</text>
</a>
</g>
</g>
<!-- Node0&#45;&gt;Node5 -->
<g id="edge5" class="edge">
<title>Node0&#45;&gt;Node5</title>
<path fill="none" stroke="midnightblue" d="M461.08,-138.31C454.11,-128.98 446.38,-118.62 439.67,-109.64"/>
<polygon fill="midnightblue" stroke="midnightblue" points="442.4,-107.44 433.61,-101.52 436.79,-111.63 442.4,-107.44"/>
</g>
<!-- Node6 -->
<g id="node7" class="node">
<title>Node6</title>
<g id="a_node7"><a xlink:title=" ">
<polygon fill="white" stroke="#bfbfbf" points="490.88,-69.5 490.88,-101.5 591.9,-101.5 591.9,-69.5 490.88,-69.5"/>
<text text-anchor="start" x="498.88" y="-88.5" font-family="Helvetica,sans-Serif" font-size="10.00">halco/hicann&#45;dls/vx</text>
<text text-anchor="middle" x="541.39" y="-76.5" font-family="Helvetica,sans-Serif" font-size="10.00">/readout.h</text>
</a>
</g>
</g>
<!-- Node0&#45;&gt;Node6 -->
<g id="edge6" class="edge">
<title>Node0&#45;&gt;Node6</title>
<path fill="none" stroke="midnightblue" d="M502.04,-138.31C509.13,-128.98 516.99,-118.62 523.81,-109.64"/>
<polygon fill="midnightblue" stroke="midnightblue" points="526.72,-111.61 529.98,-101.52 521.14,-107.37 526.72,-111.61"/>
</g>
<!-- Node7 -->
<g id="node8" class="node">
<title>Node7</title>
<g id="a_node8"><a xlink:title=" ">
<polygon fill="white" stroke="#bfbfbf" points="609.88,-69.5 609.88,-101.5 710.9,-101.5 710.9,-69.5 609.88,-69.5"/>
<text text-anchor="start" x="617.88" y="-88.5" font-family="Helvetica,sans-Serif" font-size="10.00">halco/hicann&#45;dls/vx</text>
<text text-anchor="middle" x="660.39" y="-76.5" font-family="Helvetica,sans-Serif" font-size="10.00">/synapse.h</text>
</a>
</g>
</g>
<!-- Node0&#45;&gt;Node7 -->
<g id="edge7" class="edge">
<title>Node0&#45;&gt;Node7</title>
<path fill="none" stroke="midnightblue" d="M542.74,-138.42C567.18,-127.64 594.74,-115.47 617.04,-105.63"/>
<polygon fill="midnightblue" stroke="midnightblue" points="618.51,-108.81 626.25,-101.57 615.69,-102.4 618.51,-108.81"/>
</g>
<!-- Node8 -->
<g id="node9" class="node">
<title>Node8</title>
<g id="a_node9"><a xlink:href="genpybind_8h.html" target="_top" xlink:title=" ">
<polygon fill="white" stroke="black" points="370.32,-6.5 370.32,-26.5 482.46,-26.5 482.46,-6.5 370.32,-6.5"/>
<text text-anchor="middle" x="426.39" y="-13.5" font-family="Helvetica,sans-Serif" font-size="10.00">haldls/vx/genpybind.h</text>
</a>
</g>
</g>
<!-- Node0&#45;&gt;Node8 -->
<g id="edge8" class="edge">
<title>Node0&#45;&gt;Node8</title>
<path fill="none" stroke="midnightblue" d="M571.32,-158.66C657.33,-148.7 767.5,-124.83 720.39,-69 689.71,-32.65 556.21,-41.37 509.39,-33 501.19,-31.54 492.55,-29.96 484.06,-28.39"/>
<polygon fill="midnightblue" stroke="midnightblue" points="484.68,-24.94 474.21,-26.56 483.4,-31.83 484.68,-24.94"/>
</g>
<!-- Node9 -->
<g id="node10" class="node">
<title>Node9</title>
<g id="a_node10"><a xlink:href="traits_8h.html" target="_top" xlink:title=" ">
<polygon fill="white" stroke="black" points="767.55,-75.5 767.55,-95.5 855.23,-95.5 855.23,-75.5 767.55,-75.5"/>
<text text-anchor="middle" x="811.39" y="-82.5" font-family="Helvetica,sans-Serif" font-size="10.00">haldls/vx/traits.h</text>
</a>
</g>
</g>
<!-- Node0&#45;&gt;Node9 -->
<g id="edge10" class="edge">
<title>Node0&#45;&gt;Node9</title>
<path fill="none" stroke="midnightblue" d="M571.3,-145.26C624.38,-133.13 692.82,-117.16 753.39,-102 758.32,-100.77 763.47,-99.44 768.59,-98.1"/>
<polygon fill="midnightblue" stroke="midnightblue" points="769.54,-101.47 778.31,-95.53 767.75,-94.7 769.54,-101.47"/>
</g>
<!-- Node15 -->
<g id="node16" class="node">
<title>Node15</title>
<g id="a_node16"><a xlink:title=" ">
<polygon fill="white" stroke="#bfbfbf" points="1159.88,-6.5 1159.88,-26.5 1240.89,-26.5 1240.89,-6.5 1159.88,-6.5"/>
<text text-anchor="middle" x="1200.39" y="-13.5" font-family="Helvetica,sans-Serif" font-size="10.00">hate/visibility.h</text>
</a>
</g>
</g>
<!-- Node0&#45;&gt;Node15 -->
<g id="edge19" class="edge">
<title>Node0&#45;&gt;Node15</title>
<path fill="none" stroke="midnightblue" d="M571.1,-152.48C648.93,-140.75 764.48,-122.27 864.39,-102 992.96,-75.92 1024.99,-68.14 1151.39,-33 1155.24,-31.93 1159.25,-30.76 1163.24,-29.55"/>
<polygon fill="midnightblue" stroke="midnightblue" points="1164.5,-32.83 1173.02,-26.53 1162.43,-26.14 1164.5,-32.83"/>
</g>
<!-- Node8&#45;&gt;Node8 -->
<g id="edge9" class="edge">
<title>Node8&#45;&gt;Node8</title>
<path fill="none" stroke="midnightblue" d="M450.28,-26.54C474.11,-32.26 500.46,-28.92 500.46,-16.5 500.46,-5.78 480.82,-1.82 460.12,-4.62"/>
<polygon fill="midnightblue" stroke="midnightblue" points="459.47,-1.18 450.28,-6.46 460.76,-8.06 459.47,-1.18"/>
</g>
<!-- Node9&#45;&gt;Node8 -->
<g id="edge15" class="edge">
<title>Node9&#45;&gt;Node8</title>
<path fill="none" stroke="midnightblue" d="M780.24,-75.47C771.59,-73.16 762.17,-70.81 753.39,-69 646.04,-46.81 617.51,-51.06 509.39,-33 500.77,-31.56 491.67,-29.95 482.78,-28.33"/>
<polygon fill="midnightblue" stroke="midnightblue" points="483.33,-24.87 472.86,-26.5 482.06,-31.76 483.33,-24.87"/>
</g>
<!-- Node10 -->
<g id="node11" class="node">
<title>Node10</title>
<g id="a_node11"><a xlink:title=" ">
<polygon fill="white" stroke="#bfbfbf" points="518.33,-6.5 518.33,-26.5 580.45,-26.5 580.45,-6.5 518.33,-6.5"/>
<text text-anchor="middle" x="549.39" y="-13.5" font-family="Helvetica,sans-Serif" font-size="10.00">type_traits</text>
</a>
</g>
</g>
<!-- Node9&#45;&gt;Node10 -->
<g id="edge11" class="edge">
<title>Node9&#45;&gt;Node10</title>
<path fill="none" stroke="midnightblue" d="M778.63,-75.47C770.41,-73.28 761.59,-71 753.39,-69 680.88,-51.36 660.83,-54.55 589.39,-33 586.58,-32.15 583.69,-31.2 580.81,-30.19"/>
<polygon fill="midnightblue" stroke="midnightblue" points="581.78,-26.82 571.18,-26.64 579.35,-33.39 581.78,-26.82"/>
</g>
<!-- Node11 -->
<g id="node12" class="node">
<title>Node11</title>
<g id="a_node12"><a xlink:title=" ">
<polygon fill="white" stroke="#bfbfbf" points="598.04,-6.5 598.04,-26.5 690.74,-26.5 690.74,-6.5 598.04,-6.5"/>
<text text-anchor="middle" x="644.39" y="-13.5" font-family="Helvetica,sans-Serif" font-size="10.00">boost/variant.hpp</text>
</a>
</g>
</g>
<!-- Node9&#45;&gt;Node11 -->
<g id="edge12" class="edge">
<title>Node9&#45;&gt;Node11</title>
<path fill="none" stroke="midnightblue" d="M788.87,-75.46C759.98,-63.88 709.69,-43.7 676.72,-30.47"/>
<polygon fill="midnightblue" stroke="midnightblue" points="677.67,-27.08 667.09,-26.61 675.06,-33.58 677.67,-27.08"/>
</g>
<!-- Node12 -->
<g id="node13" class="node">
<title>Node12</title>
<g id="a_node13"><a xlink:title=" ">
<polygon fill="white" stroke="#bfbfbf" points="708.77,-0.5 708.77,-32.5 802.01,-32.5 802.01,-0.5 708.77,-0.5"/>
<text text-anchor="start" x="716.77" y="-19.5" font-family="Helvetica,sans-Serif" font-size="10.00">fisch/vx/container</text>
<text text-anchor="middle" x="755.39" y="-7.5" font-family="Helvetica,sans-Serif" font-size="10.00">_fwd.h</text>
</a>
</g>
</g>
<!-- Node9&#45;&gt;Node12 -->
<g id="edge13" class="edge">
<title>Node9&#45;&gt;Node12</title>
<path fill="none" stroke="midnightblue" d="M803.84,-75.46C796.36,-66.53 784.62,-52.48 774.57,-40.45"/>
<polygon fill="midnightblue" stroke="midnightblue" points="777.05,-37.96 767.95,-32.53 771.68,-42.45 777.05,-37.96"/>
</g>
<!-- Node13 -->
<g id="node14" class="node">
<title>Node13</title>
<g id="a_node14"><a xlink:title=" ">
<polygon fill="white" stroke="#bfbfbf" points="819.77,-0.5 819.77,-32.5 913.01,-32.5 913.01,-0.5 819.77,-0.5"/>
<text text-anchor="start" x="827.77" y="-19.5" font-family="Helvetica,sans-Serif" font-size="10.00">fisch/vx/container</text>
<text text-anchor="middle" x="866.39" y="-7.5" font-family="Helvetica,sans-Serif" font-size="10.00">_ticket.h</text>
</a>
</g>
</g>
<!-- Node9&#45;&gt;Node13 -->
<g id="edge14" class="edge">
<title>Node9&#45;&gt;Node13</title>
<path fill="none" stroke="midnightblue" d="M818.81,-75.46C826.14,-66.53 837.68,-52.48 847.55,-40.45"/>
<polygon fill="midnightblue" stroke="midnightblue" points="850.41,-42.48 854.05,-32.53 845,-38.04 850.41,-42.48"/>
</g>
<!-- Node14 -->
<g id="node15" class="node">
<title>Node14</title>
<g id="a_node15"><a xlink:title=" ">
<polygon fill="white" stroke="#bfbfbf" points="930.77,-6.5 930.77,-26.5 1014.01,-26.5 1014.01,-6.5 930.77,-6.5"/>
<text text-anchor="middle" x="972.39" y="-13.5" font-family="Helvetica,sans-Serif" font-size="10.00">hate/type_list.h</text>
</a>
</g>
</g>
<!-- Node9&#45;&gt;Node14 -->
<g id="edge16" class="edge">
<title>Node9&#45;&gt;Node14</title>
<path fill="none" stroke="midnightblue" d="M833.1,-75.46C860.95,-63.88 909.43,-43.7 941.22,-30.47"/>
<polygon fill="midnightblue" stroke="midnightblue" points="942.62,-33.68 950.5,-26.61 939.93,-27.22 942.62,-33.68"/>
</g>
<!-- Node9&#45;&gt;Node15 -->
<g id="edge17" class="edge">
<title>Node9&#45;&gt;Node15</title>
<path fill="none" stroke="midnightblue" d="M855.27,-80.07C920.45,-72.99 1046.42,-57.39 1151.39,-33 1155.76,-31.98 1160.3,-30.77 1164.79,-29.47"/>
<polygon fill="midnightblue" stroke="midnightblue" points="1165.85,-32.81 1174.4,-26.55 1163.82,-26.11 1165.85,-32.81"/>
</g>
<!-- Node16 -->
<g id="node17" class="node">
<title>Node16</title>
<g id="a_node17"><a xlink:title=" ">
<polygon fill="white" stroke="#bfbfbf" points="1032.43,-6.5 1032.43,-26.5 1142.34,-26.5 1142.34,-6.5 1032.43,-6.5"/>
<text text-anchor="middle" x="1087.39" y="-13.5" font-family="Helvetica,sans-Serif" font-size="10.00">fisch/vx/container.def</text>
</a>
</g>
</g>
<!-- Node9&#45;&gt;Node16 -->
<g id="edge18" class="edge">
<title>Node9&#45;&gt;Node16</title>
<path fill="none" stroke="midnightblue" d="M848.61,-75.46C898.1,-63.45 985.6,-42.21 1039.82,-29.05"/>
<polygon fill="midnightblue" stroke="midnightblue" points="1040.98,-32.37 1049.87,-26.61 1039.33,-25.56 1040.98,-32.37"/>
</g>
</g>
</svg>
