<?xml version="1.0" encoding="UTF-8" standalone="no"?>
<!DOCTYPE svg PUBLIC "-//W3C//DTD SVG 1.1//EN"
 "http://www.w3.org/Graphics/SVG/1.1/DTD/svg11.dtd">
<!-- Generated by graphviz version 2.43.0 (0)
 -->
<!-- Title: /jenkins/jenlib_workspaces_f9/bld_nightly&#45;haldls.YmxkX25pZ2h0bHktaGFsZGxzIzY1NQ.x/haldls/include/haldls/vx/neuron.h Pages: 1 -->
<!--zoomable 260 -->
<svg id="main" version="1.1" xmlns="http://www.w3.org/2000/svg" xmlns:xlink="http://www.w3.org/1999/xlink" xml:space="preserve" onload="init(evt)">
<style type="text/css"><![CDATA[
.edge:hover path { stroke: red; }
.edge:hover polygon { stroke: red; fill: red; }
]]></style>
<script type="text/javascript"><![CDATA[
var edges = document.getElementsByTagName('g');
if (edges && edges.length) {
  for (var i=0;i<edges.length;i++) {
    if (edges[i].id.substr(0,4)=='edge') {
      edges[i].setAttribute('class','edge');
    }
  }
}
]]></script>
        <defs>
                <circle id="rim" cx="0" cy="0" r="7"/>
                <circle id="rim2" cx="0" cy="0" r="3.5"/>
                <g id="zoomPlus">
                        <use xlink:href="#rim" fill="#404040">
                                <set attributeName="fill" to="#808080" begin="zoomplus.mouseover" end="zoomplus.mouseout"/>
                        </use>
                        <path d="M-4,0h8M0,-4v8" fill="none" stroke="white" stroke-width="1.5" pointer-events="none"/>
                </g>
                <g id="zoomMin">
                        <use xlink:href="#rim" fill="#404040">
                                <set attributeName="fill" to="#808080" begin="zoomminus.mouseover" end="zoomminus.mouseout"/>
                        </use>
                        <path d="M-4,0h8" fill="none" stroke="white" stroke-width="1.5" pointer-events="none"/>
                </g>
                <g id="dirArrow">
                        <path fill="none" stroke="white" stroke-width="1.5" d="M0,-3.0v7 M-2.5,-0.5L0,-3.0L2.5,-0.5"/>
                </g>
               <g id="resetDef">
                       <use xlink:href="#rim2" fill="#404040">
                               <set attributeName="fill" to="#808080" begin="reset.mouseover" end="reset.mouseout"/>
                       </use>
               </g>
        </defs>

<script type="text/javascript">
var viewWidth = 1188;
var viewHeight = 260;
var sectionId = 'dynsection-0';
</script>
<script xlink:href="svgpan.js"/>
<svg id="graph" class="graph">
<g id="viewport">
<title>/jenkins/jenlib_workspaces_f9/bld_nightly&#45;haldls.YmxkX25pZ2h0bHktaGFsZGxzIzY1NQ.x/haldls/include/haldls/vx/neuron.h</title>
<polygon fill="white" stroke="transparent" points="-4,4 -4,-256 1184.01,-256 1184.01,4 -4,4"/>
<!-- Node0 -->
<g id="node1" class="node">
<title>Node0</title>
<g id="a_node1"><a xlink:title=" ">
<polygon fill="#bfbfbf" stroke="black" points="404.71,-195.5 404.71,-251.5 584.07,-251.5 584.07,-195.5 404.71,-195.5"/>
<text text-anchor="start" x="412.71" y="-238.5" font-family="Helvetica,sans-Serif" font-size="10.00">/jenkins/jenlib_workspaces</text>
<text text-anchor="start" x="412.71" y="-226.5" font-family="Helvetica,sans-Serif" font-size="10.00">_f9/bld_nightly&#45;haldls.YmxkX25p</text>
<text text-anchor="start" x="412.71" y="-214.5" font-family="Helvetica,sans-Serif" font-size="10.00">Z2h0bHktaGFsZGxzIzY1NQ.x/haldls</text>
<text text-anchor="middle" x="494.39" y="-202.5" font-family="Helvetica,sans-Serif" font-size="10.00">/include/haldls/vx/neuron.h</text>
</a>
</g>
</g>
<!-- Node1 -->
<g id="node2" class="node">
<title>Node1</title>
<g id="a_node2"><a xlink:title=" ">
<polygon fill="white" stroke="#bfbfbf" points="0,-132.5 0,-152.5 38.78,-152.5 38.78,-132.5 0,-132.5"/>
<text text-anchor="middle" x="19.39" y="-139.5" font-family="Helvetica,sans-Serif" font-size="10.00">array</text>
</a>
</g>
</g>
<!-- Node0&#45;&gt;Node1 -->
<g id="edge1" class="edge">
<title>Node0&#45;&gt;Node1</title>
<path fill="none" stroke="midnightblue" d="M404.41,-219.3C312.54,-213.83 166.86,-199.04 47.39,-159 45.76,-158.45 44.11,-157.81 42.48,-157.11"/>
<polygon fill="midnightblue" stroke="midnightblue" points="43.97,-153.94 33.46,-152.6 40.84,-160.2 43.97,-153.94"/>
</g>
<!-- Node2 -->
<g id="node3" class="node">
<title>Node2</title>
<g id="a_node3"><a xlink:title=" ">
<polygon fill="white" stroke="#bfbfbf" points="56.33,-132.5 56.33,-152.5 108.45,-152.5 108.45,-132.5 56.33,-132.5"/>
<text text-anchor="middle" x="82.39" y="-139.5" font-family="Helvetica,sans-Serif" font-size="10.00">ostream</text>
</a>
</g>
</g>
<!-- Node0&#45;&gt;Node2 -->
<g id="edge2" class="edge">
<title>Node0&#45;&gt;Node2</title>
<path fill="none" stroke="midnightblue" d="M404.59,-213.77C327.29,-204.75 213.37,-187.84 117.39,-159 114.94,-158.26 112.43,-157.4 109.95,-156.46"/>
<polygon fill="midnightblue" stroke="midnightblue" points="111.17,-153.18 100.59,-152.59 108.49,-159.65 111.17,-153.18"/>
</g>
<!-- Node3 -->
<g id="node4" class="node">
<title>Node3</title>
<g id="a_node4"><a xlink:title=" ">
<polygon fill="white" stroke="#bfbfbf" points="126.49,-132.5 126.49,-152.5 260.29,-152.5 260.29,-132.5 126.49,-132.5"/>
<text text-anchor="middle" x="193.39" y="-139.5" font-family="Helvetica,sans-Serif" font-size="10.00">halco/common/geometry.h</text>
</a>
</g>
</g>
<!-- Node0&#45;&gt;Node3 -->
<g id="edge3" class="edge">
<title>Node0&#45;&gt;Node3</title>
<path fill="none" stroke="midnightblue" d="M404.49,-198.9C349.36,-184.44 281.22,-166.55 237.53,-155.08"/>
<polygon fill="midnightblue" stroke="midnightblue" points="238.34,-151.68 227.78,-152.53 236.57,-158.45 238.34,-151.68"/>
</g>
<!-- Node4 -->
<g id="node5" class="node">
<title>Node4</title>
<g id="a_node5"><a xlink:title=" ">
<polygon fill="white" stroke="#bfbfbf" points="278.27,-126.5 278.27,-158.5 386.51,-158.5 386.51,-126.5 278.27,-126.5"/>
<text text-anchor="start" x="286.27" y="-145.5" font-family="Helvetica,sans-Serif" font-size="10.00">halco/common/typed</text>
<text text-anchor="middle" x="332.39" y="-133.5" font-family="Helvetica,sans-Serif" font-size="10.00">_array.h</text>
</a>
</g>
</g>
<!-- Node0&#45;&gt;Node4 -->
<g id="edge4" class="edge">
<title>Node0&#45;&gt;Node4</title>
<path fill="none" stroke="midnightblue" d="M438.64,-195.31C416.83,-184.68 392.31,-172.72 372.32,-162.97"/>
<polygon fill="midnightblue" stroke="midnightblue" points="373.72,-159.76 363.2,-158.52 370.65,-166.05 373.72,-159.76"/>
</g>
<!-- Node5 -->
<g id="node6" class="node">
<title>Node5</title>
<g id="a_node6"><a xlink:title=" ">
<polygon fill="white" stroke="#bfbfbf" points="404.88,-126.5 404.88,-158.5 505.9,-158.5 505.9,-126.5 404.88,-126.5"/>
<text text-anchor="start" x="412.88" y="-145.5" font-family="Helvetica,sans-Serif" font-size="10.00">halco/hicann&#45;dls/vx</text>
<text text-anchor="middle" x="455.39" y="-133.5" font-family="Helvetica,sans-Serif" font-size="10.00">/neuron.h</text>
</a>
</g>
</g>
<!-- Node0&#45;&gt;Node5 -->
<g id="edge5" class="edge">
<title>Node0&#45;&gt;Node5</title>
<path fill="none" stroke="midnightblue" d="M480.97,-195.31C476.55,-186.36 471.67,-176.48 467.36,-167.76"/>
<polygon fill="midnightblue" stroke="midnightblue" points="470.37,-165.94 462.81,-158.52 464.09,-169.04 470.37,-165.94"/>
</g>
<!-- Node6 -->
<g id="node7" class="node">
<title>Node6</title>
<g id="a_node7"><a xlink:href="genpybind_8h.html" target="_top" xlink:title=" ">
<polygon fill="white" stroke="black" points="110.32,-6.5 110.32,-26.5 222.46,-26.5 222.46,-6.5 110.32,-6.5"/>
<text text-anchor="middle" x="166.39" y="-13.5" font-family="Helvetica,sans-Serif" font-size="10.00">haldls/vx/genpybind.h</text>
</a>
</g>
</g>
<!-- Node0&#45;&gt;Node6 -->
<g id="edge6" class="edge">
<title>Node0&#45;&gt;Node6</title>
<path fill="none" stroke="midnightblue" d="M511.12,-195.1C521.43,-174.32 530.13,-146.02 515.39,-126 497.08,-101.13 304.74,-51.33 213.69,-28.91"/>
<polygon fill="midnightblue" stroke="midnightblue" points="214.43,-25.49 203.89,-26.5 212.76,-32.28 214.43,-25.49"/>
</g>
<!-- Node7 -->
<g id="node8" class="node">
<title>Node7</title>
<g id="a_node8"><a xlink:href="sram__controller_8h.html" target="_top" xlink:title=" ">
<polygon fill="white" stroke="black" points="635.94,-132.5 635.94,-152.5 770.84,-152.5 770.84,-132.5 635.94,-132.5"/>
<text text-anchor="middle" x="703.39" y="-139.5" font-family="Helvetica,sans-Serif" font-size="10.00">haldls/vx/sram_controller.h</text>
</a>
</g>
</g>
<!-- Node0&#45;&gt;Node7 -->
<g id="edge8" class="edge">
<title>Node0&#45;&gt;Node7</title>
<path fill="none" stroke="midnightblue" d="M566.02,-195.42C601.17,-182.14 641.85,-166.76 669.76,-156.21"/>
<polygon fill="midnightblue" stroke="midnightblue" points="671.32,-159.36 679.43,-152.55 668.84,-152.82 671.32,-159.36"/>
</g>
<!-- Node12 -->
<g id="node13" class="node">
<title>Node12</title>
<g id="a_node13"><a xlink:href="traits_8h.html" target="_top" xlink:title=" ">
<polygon fill="white" stroke="black" points="593.55,-69.5 593.55,-89.5 681.23,-89.5 681.23,-69.5 593.55,-69.5"/>
<text text-anchor="middle" x="637.39" y="-76.5" font-family="Helvetica,sans-Serif" font-size="10.00">haldls/vx/traits.h</text>
</a>
</g>
</g>
<!-- Node0&#45;&gt;Node12 -->
<g id="edge25" class="edge">
<title>Node0&#45;&gt;Node12</title>
<path fill="none" stroke="midnightblue" d="M521.62,-195.46C550.89,-166.39 596.47,-121.13 620.79,-96.98"/>
<polygon fill="midnightblue" stroke="midnightblue" points="623.53,-99.19 628.16,-89.66 618.6,-94.22 623.53,-99.19"/>
</g>
<!-- Node17 -->
<g id="node18" class="node">
<title>Node17</title>
<g id="a_node18"><a xlink:title=" ">
<polygon fill="white" stroke="#bfbfbf" points="820.88,-6.5 820.88,-26.5 901.89,-26.5 901.89,-6.5 820.88,-6.5"/>
<text text-anchor="middle" x="861.39" y="-13.5" font-family="Helvetica,sans-Serif" font-size="10.00">hate/visibility.h</text>
</a>
</g>
</g>
<!-- Node0&#45;&gt;Node17 -->
<g id="edge26" class="edge">
<title>Node0&#45;&gt;Node17</title>
<path fill="none" stroke="midnightblue" d="M584.26,-220.82C644.55,-215.57 722.96,-200.35 779.39,-159 822.02,-127.76 846.01,-67.14 855.93,-36.38"/>
<polygon fill="midnightblue" stroke="midnightblue" points="859.37,-37.1 858.95,-26.51 852.67,-35.05 859.37,-37.1"/>
</g>
<!-- Node20 -->
<g id="node21" class="node">
<title>Node20</title>
<g id="a_node21"><a xlink:title=" ">
<polygon fill="white" stroke="#bfbfbf" points="861.77,-132.5 861.77,-152.5 965.01,-152.5 965.01,-132.5 861.77,-132.5"/>
<text text-anchor="middle" x="913.39" y="-139.5" font-family="Helvetica,sans-Serif" font-size="10.00">hxcomm/vx/target.h</text>
</a>
</g>
</g>
<!-- Node0&#45;&gt;Node20 -->
<g id="edge27" class="edge">
<title>Node0&#45;&gt;Node20</title>
<path fill="none" stroke="midnightblue" d="M584.23,-207.68C655.72,-195.57 758.21,-177.48 847.39,-159 853.59,-157.71 860.1,-156.29 866.52,-154.83"/>
<polygon fill="midnightblue" stroke="midnightblue" points="867.51,-158.19 876.46,-152.53 865.93,-151.37 867.51,-158.19"/>
</g>
<!-- Node6&#45;&gt;Node6 -->
<g id="edge7" class="edge">
<title>Node6&#45;&gt;Node6</title>
<path fill="none" stroke="midnightblue" d="M194.89,-26.56C217.38,-30.45 240.46,-27.1 240.46,-16.5 240.46,-7.48 223.73,-3.71 204.87,-5.19"/>
<polygon fill="midnightblue" stroke="midnightblue" points="204.38,-1.72 194.89,-6.44 205.25,-8.67 204.38,-1.72"/>
</g>
<!-- Node7&#45;&gt;Node6 -->
<g id="edge13" class="edge">
<title>Node7&#45;&gt;Node6</title>
<path fill="none" stroke="midnightblue" d="M681.76,-132.49C657.81,-122.44 618.13,-105.53 584.39,-90 565.07,-81.11 561.78,-75.05 541.39,-69 416.03,-31.8 378.61,-53.01 249.39,-33 240.45,-31.62 231,-30 221.81,-28.34"/>
<polygon fill="midnightblue" stroke="midnightblue" points="222.43,-24.9 211.96,-26.54 221.17,-31.78 222.43,-24.9"/>
</g>
<!-- Node8 -->
<g id="node9" class="node">
<title>Node8</title>
<g id="a_node9"><a xlink:href="common_8h.html" target="_top" xlink:title=" ">
<polygon fill="white" stroke="black" points="933.22,-69.5 933.22,-89.5 1037.56,-89.5 1037.56,-69.5 933.22,-69.5"/>
<text text-anchor="middle" x="985.39" y="-76.5" font-family="Helvetica,sans-Serif" font-size="10.00">haldls/vx/common.h</text>
</a>
</g>
</g>
<!-- Node7&#45;&gt;Node8 -->
<g id="edge9" class="edge">
<title>Node7&#45;&gt;Node8</title>
<path fill="none" stroke="midnightblue" d="M745,-132.5C795.09,-121.66 879.22,-103.46 933.5,-91.72"/>
<polygon fill="midnightblue" stroke="midnightblue" points="934.57,-95.07 943.61,-89.54 933.09,-88.23 934.57,-95.07"/>
</g>
<!-- Node7&#45;&gt;Node12 -->
<g id="edge14" class="edge">
<title>Node7&#45;&gt;Node12</title>
<path fill="none" stroke="midnightblue" d="M693.65,-132.5C683.41,-123.04 667.1,-107.96 654.67,-96.47"/>
<polygon fill="midnightblue" stroke="midnightblue" points="656.89,-93.75 647.17,-89.54 652.13,-98.9 656.89,-93.75"/>
</g>
<!-- Node7&#45;&gt;Node17 -->
<g id="edge24" class="edge">
<title>Node7&#45;&gt;Node17</title>
<path fill="none" stroke="midnightblue" d="M704.12,-132.2C705.8,-117.03 711.21,-86.84 728.39,-69 735.44,-61.67 788.24,-42.54 825.15,-29.77"/>
<polygon fill="midnightblue" stroke="midnightblue" points="826.3,-33.07 834.62,-26.51 824.02,-26.45 826.3,-33.07"/>
</g>
<!-- Node19 -->
<g id="node20" class="node">
<title>Node19</title>
<g id="a_node20"><a xlink:title=" ">
<polygon fill="white" stroke="#bfbfbf" points="736.99,-69.5 736.99,-89.5 805.79,-89.5 805.79,-69.5 736.99,-69.5"/>
<text text-anchor="middle" x="771.39" y="-76.5" font-family="Helvetica,sans-Serif" font-size="10.00">hate/math.h</text>
</a>
</g>
</g>
<!-- Node7&#45;&gt;Node19 -->
<g id="edge23" class="edge">
<title>Node7&#45;&gt;Node19</title>
<path fill="none" stroke="midnightblue" d="M713.42,-132.5C723.97,-123.04 740.77,-107.96 753.58,-96.47"/>
<polygon fill="midnightblue" stroke="midnightblue" points="756.21,-98.82 761.31,-89.54 751.53,-93.61 756.21,-98.82"/>
</g>
<!-- Node9 -->
<g id="node10" class="node">
<title>Node9</title>
<g id="a_node10"><a xlink:title=" ">
<polygon fill="white" stroke="#bfbfbf" points="920.33,-6.5 920.33,-26.5 982.45,-26.5 982.45,-6.5 920.33,-6.5"/>
<text text-anchor="middle" x="951.39" y="-13.5" font-family="Helvetica,sans-Serif" font-size="10.00">type_traits</text>
</a>
</g>
</g>
<!-- Node8&#45;&gt;Node9 -->
<g id="edge10" class="edge">
<title>Node8&#45;&gt;Node9</title>
<path fill="none" stroke="midnightblue" d="M980.37,-69.5C975.4,-60.58 967.65,-46.67 961.41,-35.48"/>
<polygon fill="midnightblue" stroke="midnightblue" points="964.35,-33.57 956.43,-26.54 958.24,-36.98 964.35,-33.57"/>
</g>
<!-- Node10 -->
<g id="node11" class="node">
<title>Node10</title>
<g id="a_node11"><a xlink:title=" ">
<polygon fill="white" stroke="#bfbfbf" points="1000,-6.5 1000,-26.5 1038.78,-26.5 1038.78,-6.5 1000,-6.5"/>
<text text-anchor="middle" x="1019.39" y="-13.5" font-family="Helvetica,sans-Serif" font-size="10.00">utility</text>
</a>
</g>
</g>
<!-- Node8&#45;&gt;Node10 -->
<g id="edge11" class="edge">
<title>Node8&#45;&gt;Node10</title>
<path fill="none" stroke="midnightblue" d="M990.4,-69.5C995.38,-60.58 1003.13,-46.67 1009.37,-35.48"/>
<polygon fill="midnightblue" stroke="midnightblue" points="1012.54,-36.98 1014.35,-26.54 1006.42,-33.57 1012.54,-36.98"/>
</g>
<!-- Node11 -->
<g id="node12" class="node">
<title>Node11</title>
<g id="a_node12"><a xlink:title=" ">
<polygon fill="white" stroke="#bfbfbf" points="1056.76,-6.5 1056.76,-26.5 1180.01,-26.5 1180.01,-6.5 1056.76,-6.5"/>
<text text-anchor="middle" x="1118.39" y="-13.5" font-family="Helvetica,sans-Serif" font-size="10.00">fisch/vx/omnibus_data.h</text>
</a>
</g>
</g>
<!-- Node8&#45;&gt;Node11 -->
<g id="edge12" class="edge">
<title>Node8&#45;&gt;Node11</title>
<path fill="none" stroke="midnightblue" d="M1005.01,-69.5C1027.31,-59.27 1063.91,-42.48 1089.48,-30.76"/>
<polygon fill="midnightblue" stroke="midnightblue" points="1091.05,-33.89 1098.68,-26.54 1088.13,-27.53 1091.05,-33.89"/>
</g>
<!-- Node12&#45;&gt;Node6 -->
<g id="edge19" class="edge">
<title>Node12&#45;&gt;Node6</title>
<path fill="none" stroke="midnightblue" d="M593.41,-71.04C588.68,-70.32 583.94,-69.62 579.39,-69 433.2,-49.07 395.34,-54.56 249.39,-33 240.34,-31.66 230.76,-30.06 221.46,-28.39"/>
<polygon fill="midnightblue" stroke="midnightblue" points="221.98,-24.93 211.51,-26.57 220.72,-31.81 221.98,-24.93"/>
</g>
<!-- Node12&#45;&gt;Node9 -->
<g id="edge15" class="edge">
<title>Node12&#45;&gt;Node9</title>
<path fill="none" stroke="midnightblue" d="M681.65,-73.98C736.32,-67.75 831.85,-54.77 911.39,-33 914.55,-32.14 917.8,-31.11 921.03,-30"/>
<polygon fill="midnightblue" stroke="midnightblue" points="922.31,-33.26 930.49,-26.53 919.89,-26.69 922.31,-33.26"/>
</g>
<!-- Node13 -->
<g id="node14" class="node">
<title>Node13</title>
<g id="a_node14"><a xlink:title=" ">
<polygon fill="white" stroke="#bfbfbf" points="710.04,-6.5 710.04,-26.5 802.74,-26.5 802.74,-6.5 710.04,-6.5"/>
<text text-anchor="middle" x="756.39" y="-13.5" font-family="Helvetica,sans-Serif" font-size="10.00">boost/variant.hpp</text>
</a>
</g>
</g>
<!-- Node12&#45;&gt;Node13 -->
<g id="edge16" class="edge">
<title>Node12&#45;&gt;Node13</title>
<path fill="none" stroke="midnightblue" d="M654.95,-69.5C674.63,-59.41 706.78,-42.93 729.61,-31.23"/>
<polygon fill="midnightblue" stroke="midnightblue" points="731.45,-34.21 738.76,-26.54 728.26,-27.98 731.45,-34.21"/>
</g>
<!-- Node14 -->
<g id="node15" class="node">
<title>Node14</title>
<g id="a_node15"><a xlink:title=" ">
<polygon fill="white" stroke="#bfbfbf" points="258.77,-0.5 258.77,-32.5 352.01,-32.5 352.01,-0.5 258.77,-0.5"/>
<text text-anchor="start" x="266.77" y="-19.5" font-family="Helvetica,sans-Serif" font-size="10.00">fisch/vx/container</text>
<text text-anchor="middle" x="305.39" y="-7.5" font-family="Helvetica,sans-Serif" font-size="10.00">_fwd.h</text>
</a>
</g>
</g>
<!-- Node12&#45;&gt;Node14 -->
<g id="edge17" class="edge">
<title>Node12&#45;&gt;Node14</title>
<path fill="none" stroke="midnightblue" d="M593.46,-71.3C525.42,-60.15 399.09,-39.43 362.07,-32.91"/>
<polygon fill="midnightblue" stroke="midnightblue" points="362.58,-29.44 352.11,-31.05 361.3,-36.32 362.58,-29.44"/>
</g>
<!-- Node15 -->
<g id="node16" class="node">
<title>Node15</title>
<g id="a_node16"><a xlink:title=" ">
<polygon fill="white" stroke="#bfbfbf" points="369.77,-0.5 369.77,-32.5 463.01,-32.5 463.01,-0.5 369.77,-0.5"/>
<text text-anchor="start" x="377.77" y="-19.5" font-family="Helvetica,sans-Serif" font-size="10.00">fisch/vx/container</text>
<text text-anchor="middle" x="416.39" y="-7.5" font-family="Helvetica,sans-Serif" font-size="10.00">_ticket.h</text>
</a>
</g>
</g>
<!-- Node12&#45;&gt;Node15 -->
<g id="edge18" class="edge">
<title>Node12&#45;&gt;Node15</title>
<path fill="none" stroke="midnightblue" d="M603.98,-69.42C572.48,-60.84 523.67,-47.5 473,-33.44"/>
<polygon fill="midnightblue" stroke="midnightblue" points="473.76,-30.02 463.19,-30.71 471.89,-36.76 473.76,-30.02"/>
</g>
<!-- Node16 -->
<g id="node17" class="node">
<title>Node16</title>
<g id="a_node17"><a xlink:title=" ">
<polygon fill="white" stroke="#bfbfbf" points="480.77,-6.5 480.77,-26.5 564.01,-26.5 564.01,-6.5 480.77,-6.5"/>
<text text-anchor="middle" x="522.39" y="-13.5" font-family="Helvetica,sans-Serif" font-size="10.00">hate/type_list.h</text>
</a>
</g>
</g>
<!-- Node12&#45;&gt;Node16 -->
<g id="edge20" class="edge">
<title>Node12&#45;&gt;Node16</title>
<path fill="none" stroke="midnightblue" d="M620.42,-69.5C601.39,-59.41 570.33,-42.93 548.27,-31.23"/>
<polygon fill="midnightblue" stroke="midnightblue" points="549.9,-28.13 539.43,-26.54 546.62,-34.32 549.9,-28.13"/>
</g>
<!-- Node12&#45;&gt;Node17 -->
<g id="edge21" class="edge">
<title>Node12&#45;&gt;Node17</title>
<path fill="none" stroke="midnightblue" d="M673.84,-69.47C709.14,-60.61 764.1,-46.5 811.39,-33 815.21,-31.91 819.19,-30.74 823.15,-29.54"/>
<polygon fill="midnightblue" stroke="midnightblue" points="824.35,-32.84 832.9,-26.57 822.31,-26.14 824.35,-32.84"/>
</g>
<!-- Node18 -->
<g id="node19" class="node">
<title>Node18</title>
<g id="a_node19"><a xlink:title=" ">
<polygon fill="white" stroke="#bfbfbf" points="582.43,-6.5 582.43,-26.5 692.34,-26.5 692.34,-6.5 582.43,-6.5"/>
<text text-anchor="middle" x="637.39" y="-13.5" font-family="Helvetica,sans-Serif" font-size="10.00">fisch/vx/container.def</text>
</a>
</g>
</g>
<!-- Node12&#45;&gt;Node18 -->
<g id="edge22" class="edge">
<title>Node12&#45;&gt;Node18</title>
<path fill="none" stroke="midnightblue" d="M637.39,-69.5C637.39,-60.94 637.39,-47.78 637.39,-36.85"/>
<polygon fill="midnightblue" stroke="midnightblue" points="640.89,-36.54 637.39,-26.54 633.89,-36.54 640.89,-36.54"/>
</g>
</g>
</svg>
        <g id="navigator" transform="translate(0 0)" fill="#404254">
                <rect fill="#f2f5e9" fill-opacity="0.5" stroke="#606060" stroke-width=".5" x="0" y="0" width="60" height="60"/>
                <use id="zoomplus" xlink:href="#zoomPlus" x="17" y="9" onmousedown="handleZoom(evt,'in')"/>
                <use id="zoomminus" xlink:href="#zoomMin" x="42" y="9" onmousedown="handleZoom(evt,'out')"/>
                <use id="reset" xlink:href="#resetDef" x="30" y="36" onmousedown="handleReset()"/>
                <g id="arrowUp" xlink:href="#dirArrow" transform="translate(30 24)" onmousedown="handlePan(0,-1)">
                  <use xlink:href="#rim" fill="#404040">
                        <set attributeName="fill" to="#808080" begin="arrowUp.mouseover" end="arrowUp.mouseout"/>
                  </use>
                  <path fill="none" stroke="white" stroke-width="1.5" d="M0,-3.0v7 M-2.5,-0.5L0,-3.0L2.5,-0.5"/>
                </g>
                <g id="arrowRight" xlink:href="#dirArrow" transform="rotate(90) translate(36 -43)" onmousedown="handlePan(1,0)">
                  <use xlink:href="#rim" fill="#404040">
                        <set attributeName="fill" to="#808080" begin="arrowRight.mouseover" end="arrowRight.mouseout"/>
                  </use>
                  <path fill="none" stroke="white" stroke-width="1.5" d="M0,-3.0v7 M-2.5,-0.5L0,-3.0L2.5,-0.5"/>
                </g>
                <g id="arrowDown" xlink:href="#dirArrow" transform="rotate(180) translate(-30 -48)" onmousedown="handlePan(0,1)">
                  <use xlink:href="#rim" fill="#404040">
                        <set attributeName="fill" to="#808080" begin="arrowDown.mouseover" end="arrowDown.mouseout"/>
                  </use>
                  <path fill="none" stroke="white" stroke-width="1.5" d="M0,-3.0v7 M-2.5,-0.5L0,-3.0L2.5,-0.5"/>
                </g>
                <g id="arrowLeft" xlink:href="#dirArrow" transform="rotate(270) translate(-36 17)" onmousedown="handlePan(-1,0)">
                  <use xlink:href="#rim" fill="#404040">
                        <set attributeName="fill" to="#808080" begin="arrowLeft.mouseover" end="arrowLeft.mouseout"/>
                  </use>
                  <path fill="none" stroke="white" stroke-width="1.5" d="M0,-3.0v7 M-2.5,-0.5L0,-3.0L2.5,-0.5"/>
                </g>
        </g>
        <svg viewBox="0 0 15 15" width="100%" height="30px" preserveAspectRatio="xMaxYMin meet">
         <g id="arrow_out" transform="scale(0.3 0.3)">
          <a xlink:href="neuron_8h__incl_org.svg" target="_base">
           <rect id="button" ry="5" rx="5" y="6" x="6" height="38" width="38"
                fill="#f2f5e9" fill-opacity="0.5" stroke="#606060" stroke-width="1.0"/>
           <path id="arrow"
             d="M 11.500037,31.436501 C 11.940474,20.09759 22.043105,11.32322 32.158766,21.979434 L 37.068811,17.246167 C 37.068811,17.246167 37.088388,32 37.088388,32 L 22.160133,31.978069 C 22.160133,31.978069 26.997745,27.140456 26.997745,27.140456 C 18.528582,18.264221 13.291696,25.230495 11.500037,31.436501 z"
             style="fill:#404040;"/>
          </a>
         </g>
        </svg>
</svg>
