<?xml version="1.0" encoding="UTF-8" standalone="no"?>
<!DOCTYPE svg PUBLIC "-//W3C//DTD SVG 1.1//EN"
 "http://www.w3.org/Graphics/SVG/1.1/DTD/svg11.dtd">
<!-- Generated by graphviz version 2.43.0 (0)
 -->
<!-- Title: /jenkins/jenlib_workspaces_f9/bld_nightly&#45;haldls.YmxkX25pZ2h0bHktaGFsZGxzIzY1NQ.x/haldls/include/haldls/vx/omnibus_constants.h Pages: 1 -->
<svg width="308pt" height="179pt"
 viewBox="0.00 0.00 308.32 179.00" xmlns="http://www.w3.org/2000/svg" xmlns:xlink="http://www.w3.org/1999/xlink">
<g id="graph0" class="graph" transform="scale(1 1) rotate(0) translate(4 175)">
<title>/jenkins/jenlib_workspaces_f9/bld_nightly&#45;haldls.YmxkX25pZ2h0bHktaGFsZGxzIzY1NQ.x/haldls/include/haldls/vx/omnibus_constants.h</title>
<polygon fill="white" stroke="transparent" points="-4,4 -4,-175 304.32,-175 304.32,4 -4,4"/>
<!-- Node0 -->
<g id="node1" class="node">
<title>Node0</title>
<g id="a_node1"><a xlink:title=" ">
<polygon fill="#bfbfbf" stroke="black" points="0,-114.5 0,-170.5 189.38,-170.5 189.38,-114.5 0,-114.5"/>
<text text-anchor="start" x="8" y="-157.5" font-family="Helvetica,sans-Serif" font-size="10.00">/jenkins/jenlib_workspaces</text>
<text text-anchor="start" x="8" y="-145.5" font-family="Helvetica,sans-Serif" font-size="10.00">_f9/bld_nightly&#45;haldls.YmxkX25p</text>
<text text-anchor="start" x="8" y="-133.5" font-family="Helvetica,sans-Serif" font-size="10.00">Z2h0bHktaGFsZGxzIzY1NQ.x/haldls</text>
<text text-anchor="middle" x="94.69" y="-121.5" font-family="Helvetica,sans-Serif" font-size="10.00">/include/haldls/vx/omnibus_constants.h</text>
</a>
</g>
</g>
<!-- Node1 -->
<g id="node2" class="node">
<title>Node1</title>
<g id="a_node2"><a xlink:title=" ">
<polygon fill="white" stroke="#bfbfbf" points="30.3,-57.5 30.3,-77.5 69.08,-77.5 69.08,-57.5 30.3,-57.5"/>
<text text-anchor="middle" x="49.69" y="-64.5" font-family="Helvetica,sans-Serif" font-size="10.00">array</text>
</a>
</g>
</g>
<!-- Node0&#45;&gt;Node1 -->
<g id="edge1" class="edge">
<title>Node0&#45;&gt;Node1</title>
<path fill="none" stroke="midnightblue" d="M77.93,-114.32C72.12,-104.89 65.77,-94.58 60.56,-86.13"/>
<polygon fill="midnightblue" stroke="midnightblue" points="63.48,-84.2 55.25,-77.52 57.52,-87.87 63.48,-84.2"/>
</g>
<!-- Node2 -->
<g id="node3" class="node">
<title>Node2</title>
<g id="a_node3"><a xlink:href="common_8h.html" target="_top" xlink:title=" ">
<polygon fill="white" stroke="black" points="87.52,-57.5 87.52,-77.5 191.86,-77.5 191.86,-57.5 87.52,-57.5"/>
<text text-anchor="middle" x="139.69" y="-64.5" font-family="Helvetica,sans-Serif" font-size="10.00">haldls/vx/common.h</text>
</a>
</g>
</g>
<!-- Node0&#45;&gt;Node2 -->
<g id="edge2" class="edge">
<title>Node0&#45;&gt;Node2</title>
<path fill="none" stroke="midnightblue" d="M111.45,-114.32C117.26,-104.89 123.61,-94.58 128.82,-86.13"/>
<polygon fill="midnightblue" stroke="midnightblue" points="131.86,-87.87 134.13,-77.52 125.9,-84.2 131.86,-87.87"/>
</g>
<!-- Node3 -->
<g id="node4" class="node">
<title>Node3</title>
<g id="a_node4"><a xlink:title=" ">
<polygon fill="white" stroke="#bfbfbf" points="40.63,-0.5 40.63,-20.5 102.75,-20.5 102.75,-0.5 40.63,-0.5"/>
<text text-anchor="middle" x="71.69" y="-7.5" font-family="Helvetica,sans-Serif" font-size="10.00">type_traits</text>
</a>
</g>
</g>
<!-- Node2&#45;&gt;Node3 -->
<g id="edge3" class="edge">
<title>Node2&#45;&gt;Node3</title>
<path fill="none" stroke="midnightblue" d="M128.46,-57.42C118.29,-49.19 103.07,-36.88 90.96,-27.08"/>
<polygon fill="midnightblue" stroke="midnightblue" points="93.14,-24.35 83.16,-20.78 88.74,-29.79 93.14,-24.35"/>
</g>
<!-- Node4 -->
<g id="node5" class="node">
<title>Node4</title>
<g id="a_node5"><a xlink:title=" ">
<polygon fill="white" stroke="#bfbfbf" points="120.3,-0.5 120.3,-20.5 159.08,-20.5 159.08,-0.5 120.3,-0.5"/>
<text text-anchor="middle" x="139.69" y="-7.5" font-family="Helvetica,sans-Serif" font-size="10.00">utility</text>
</a>
</g>
</g>
<!-- Node2&#45;&gt;Node4 -->
<g id="edge4" class="edge">
<title>Node2&#45;&gt;Node4</title>
<path fill="none" stroke="midnightblue" d="M139.69,-57.42C139.69,-50.22 139.69,-39.9 139.69,-30.86"/>
<polygon fill="midnightblue" stroke="midnightblue" points="143.19,-30.78 139.69,-20.78 136.19,-30.78 143.19,-30.78"/>
</g>
<!-- Node5 -->
<g id="node6" class="node">
<title>Node5</title>
<g id="a_node6"><a xlink:title=" ">
<polygon fill="white" stroke="#bfbfbf" points="177.06,-0.5 177.06,-20.5 300.32,-20.5 300.32,-0.5 177.06,-0.5"/>
<text text-anchor="middle" x="238.69" y="-7.5" font-family="Helvetica,sans-Serif" font-size="10.00">fisch/vx/omnibus_data.h</text>
</a>
</g>
</g>
<!-- Node2&#45;&gt;Node5 -->
<g id="edge5" class="edge">
<title>Node2&#45;&gt;Node5</title>
<path fill="none" stroke="midnightblue" d="M156.04,-57.42C171.66,-48.74 195.43,-35.53 213.48,-25.51"/>
<polygon fill="midnightblue" stroke="midnightblue" points="215.28,-28.51 222.32,-20.6 211.88,-22.39 215.28,-28.51"/>
</g>
</g>
</svg>
