<?xml version="1.0" encoding="UTF-8" standalone="no"?>
<!DOCTYPE svg PUBLIC "-//W3C//DTD SVG 1.1//EN"
 "http://www.w3.org/Graphics/SVG/1.1/DTD/svg11.dtd">
<!-- Generated by graphviz version 2.43.0 (0)
 -->
<!-- Title: /jenkins/jenlib_workspaces_f9/bld_nightly&#45;haldls.YmxkX25pZ2h0bHktaGFsZGxzIzY1NQ.x/haldls/include/haldls/vx/padi.h Pages: 1 -->
<!--zoomable 272 -->
<svg id="main" version="1.1" xmlns="http://www.w3.org/2000/svg" xmlns:xlink="http://www.w3.org/1999/xlink" xml:space="preserve" onload="init(evt)">
<style type="text/css"><![CDATA[
.edge:hover path { stroke: red; }
.edge:hover polygon { stroke: red; fill: red; }
]]></style>
<script type="text/javascript"><![CDATA[
var edges = document.getElementsByTagName('g');
if (edges && edges.length) {
  for (var i=0;i<edges.length;i++) {
    if (edges[i].id.substr(0,4)=='edge') {
      edges[i].setAttribute('class','edge');
    }
  }
}
]]></script>
        <defs>
                <circle id="rim" cx="0" cy="0" r="7"/>
                <circle id="rim2" cx="0" cy="0" r="3.5"/>
                <g id="zoomPlus">
                        <use xlink:href="#rim" fill="#404040">
                                <set attributeName="fill" to="#808080" begin="zoomplus.mouseover" end="zoomplus.mouseout"/>
                        </use>
                        <path d="M-4,0h8M0,-4v8" fill="none" stroke="white" stroke-width="1.5" pointer-events="none"/>
                </g>
                <g id="zoomMin">
                        <use xlink:href="#rim" fill="#404040">
                                <set attributeName="fill" to="#808080" begin="zoomminus.mouseover" end="zoomminus.mouseout"/>
                        </use>
                        <path d="M-4,0h8" fill="none" stroke="white" stroke-width="1.5" pointer-events="none"/>
                </g>
                <g id="dirArrow">
                        <path fill="none" stroke="white" stroke-width="1.5" d="M0,-3.0v7 M-2.5,-0.5L0,-3.0L2.5,-0.5"/>
                </g>
               <g id="resetDef">
                       <use xlink:href="#rim2" fill="#404040">
                               <set attributeName="fill" to="#808080" begin="reset.mouseover" end="reset.mouseout"/>
                       </use>
               </g>
        </defs>

<script type="text/javascript">
var viewWidth = 1442;
var viewHeight = 272;
var sectionId = 'dynsection-0';
</script>
<script xlink:href="svgpan.js"/>
<svg id="graph" class="graph">
<g id="viewport">
<title>/jenkins/jenlib_workspaces_f9/bld_nightly&#45;haldls.YmxkX25pZ2h0bHktaGFsZGxzIzY1NQ.x/haldls/include/haldls/vx/padi.h</title>
<polygon fill="white" stroke="transparent" points="-4,4 -4,-268 1437.89,-268 1437.89,4 -4,4"/>
<!-- Node0 -->
<g id="node1" class="node">
<title>Node0</title>
<g id="a_node1"><a xlink:title=" ">
<polygon fill="#bfbfbf" stroke="black" points="198.71,-207.5 198.71,-263.5 378.07,-263.5 378.07,-207.5 198.71,-207.5"/>
<text text-anchor="start" x="206.71" y="-250.5" font-family="Helvetica,sans-Serif" font-size="10.00">/jenkins/jenlib_workspaces</text>
<text text-anchor="start" x="206.71" y="-238.5" font-family="Helvetica,sans-Serif" font-size="10.00">_f9/bld_nightly&#45;haldls.YmxkX25p</text>
<text text-anchor="start" x="206.71" y="-226.5" font-family="Helvetica,sans-Serif" font-size="10.00">Z2h0bHktaGFsZGxzIzY1NQ.x/haldls</text>
<text text-anchor="middle" x="288.39" y="-214.5" font-family="Helvetica,sans-Serif" font-size="10.00">/include/haldls/vx/padi.h</text>
</a>
</g>
</g>
<!-- Node1 -->
<g id="node2" class="node">
<title>Node1</title>
<g id="a_node2"><a xlink:title=" ">
<polygon fill="white" stroke="#bfbfbf" points="0,-75.5 0,-95.5 38.78,-95.5 38.78,-75.5 0,-75.5"/>
<text text-anchor="middle" x="19.39" y="-82.5" font-family="Helvetica,sans-Serif" font-size="10.00">array</text>
</a>
</g>
</g>
<!-- Node0&#45;&gt;Node1 -->
<g id="edge1" class="edge">
<title>Node0&#45;&gt;Node1</title>
<path fill="none" stroke="midnightblue" d="M198.62,-210.71C169.01,-200.8 136.7,-187.65 109.39,-171 78.92,-152.43 50.01,-122.27 33.52,-103.45"/>
<polygon fill="midnightblue" stroke="midnightblue" points="36.03,-101 26.86,-95.69 30.72,-105.56 36.03,-101"/>
</g>
<!-- Node2 -->
<g id="node3" class="node">
<title>Node2</title>
<g id="a_node3"><a xlink:title=" ">
<polygon fill="white" stroke="#bfbfbf" points="56.33,-75.5 56.33,-95.5 108.44,-95.5 108.44,-75.5 56.33,-75.5"/>
<text text-anchor="middle" x="82.39" y="-82.5" font-family="Helvetica,sans-Serif" font-size="10.00">ostream</text>
</a>
</g>
</g>
<!-- Node0&#45;&gt;Node2 -->
<g id="edge2" class="edge">
<title>Node0&#45;&gt;Node2</title>
<path fill="none" stroke="midnightblue" d="M203.75,-207.35C182.05,-197.96 159.69,-185.94 141.39,-171 118.83,-152.59 101.11,-123.43 91.19,-104.64"/>
<polygon fill="midnightblue" stroke="midnightblue" points="94.26,-102.96 86.62,-95.63 88.02,-106.13 94.26,-102.96"/>
</g>
<!-- Node3 -->
<g id="node4" class="node">
<title>Node3</title>
<g id="a_node4"><a xlink:title=" ">
<polygon fill="white" stroke="#bfbfbf" points="126.49,-75.5 126.49,-95.5 260.29,-95.5 260.29,-75.5 126.49,-75.5"/>
<text text-anchor="middle" x="193.39" y="-82.5" font-family="Helvetica,sans-Serif" font-size="10.00">halco/common/geometry.h</text>
</a>
</g>
</g>
<!-- Node0&#45;&gt;Node3 -->
<g id="edge3" class="edge">
<title>Node0&#45;&gt;Node3</title>
<path fill="none" stroke="midnightblue" d="M198.62,-211.39C179.19,-202.07 161.01,-189.08 149.39,-171 134.81,-148.31 156.65,-120.25 174.43,-102.86"/>
<polygon fill="midnightblue" stroke="midnightblue" points="177.22,-105.05 182.17,-95.68 172.45,-99.92 177.22,-105.05"/>
</g>
<!-- Node4 -->
<g id="node5" class="node">
<title>Node4</title>
<g id="a_node5"><a xlink:title=" ">
<polygon fill="white" stroke="#bfbfbf" points="158.88,-138.5 158.88,-170.5 259.9,-170.5 259.9,-138.5 158.88,-138.5"/>
<text text-anchor="start" x="166.88" y="-157.5" font-family="Helvetica,sans-Serif" font-size="10.00">halco/hicann&#45;dls/vx</text>
<text text-anchor="middle" x="209.39" y="-145.5" font-family="Helvetica,sans-Serif" font-size="10.00">/padi.h</text>
</a>
</g>
</g>
<!-- Node0&#45;&gt;Node4 -->
<g id="edge4" class="edge">
<title>Node0&#45;&gt;Node4</title>
<path fill="none" stroke="midnightblue" d="M261.2,-207.31C251.58,-197.69 240.87,-186.98 231.7,-177.81"/>
<polygon fill="midnightblue" stroke="midnightblue" points="233.96,-175.12 224.41,-170.52 229.01,-180.07 233.96,-175.12"/>
</g>
<!-- Node5 -->
<g id="node6" class="node">
<title>Node5</title>
<g id="a_node6"><a xlink:href="genpybind_8h.html" target="_top" xlink:title=" ">
<polygon fill="white" stroke="black" points="270.32,-6.5 270.32,-26.5 382.46,-26.5 382.46,-6.5 270.32,-6.5"/>
<text text-anchor="middle" x="326.39" y="-13.5" font-family="Helvetica,sans-Serif" font-size="10.00">haldls/vx/genpybind.h</text>
</a>
</g>
</g>
<!-- Node0&#45;&gt;Node5 -->
<g id="edge5" class="edge">
<title>Node0&#45;&gt;Node5</title>
<path fill="none" stroke="midnightblue" d="M293.12,-207.46C300.91,-162.99 316.23,-75.51 323.02,-36.76"/>
<polygon fill="midnightblue" stroke="midnightblue" points="326.48,-37.25 324.76,-26.8 319.59,-36.04 326.48,-37.25"/>
</g>
<!-- Node6 -->
<g id="node7" class="node">
<title>Node6</title>
<g id="a_node7"><a xlink:href="synapse_8h.html" target="_top" xlink:title=" ">
<polygon fill="white" stroke="black" points="417.76,-144.5 417.76,-164.5 521.01,-164.5 521.01,-144.5 417.76,-144.5"/>
<text text-anchor="middle" x="469.39" y="-151.5" font-family="Helvetica,sans-Serif" font-size="10.00">haldls/vx/synapse.h</text>
</a>
</g>
</g>
<!-- Node0&#45;&gt;Node6 -->
<g id="edge7" class="edge">
<title>Node0&#45;&gt;Node6</title>
<path fill="none" stroke="midnightblue" d="M350.42,-207.42C380.47,-194.31 415.17,-179.17 439.31,-168.63"/>
<polygon fill="midnightblue" stroke="midnightblue" points="440.88,-171.76 448.64,-164.55 438.08,-165.35 440.88,-171.76"/>
</g>
<!-- Node15 -->
<g id="node16" class="node">
<title>Node15</title>
<g id="a_node16"><a xlink:href="traits_8h.html" target="_top" xlink:title=" ">
<polygon fill="white" stroke="black" points="960.55,-75.5 960.55,-95.5 1048.23,-95.5 1048.23,-75.5 960.55,-75.5"/>
<text text-anchor="middle" x="1004.39" y="-82.5" font-family="Helvetica,sans-Serif" font-size="10.00">haldls/vx/traits.h</text>
</a>
</g>
</g>
<!-- Node0&#45;&gt;Node15 -->
<g id="edge30" class="edge">
<title>Node0&#45;&gt;Node15</title>
<path fill="none" stroke="midnightblue" d="M378.21,-219.12C506.19,-196.62 748.06,-151.95 951.39,-102 955.86,-100.9 960.51,-99.67 965.12,-98.4"/>
<polygon fill="midnightblue" stroke="midnightblue" points="966.41,-101.67 975.08,-95.57 964.5,-94.94 966.41,-101.67"/>
</g>
<!-- Node20 -->
<g id="node21" class="node">
<title>Node20</title>
<g id="a_node21"><a xlink:title=" ">
<polygon fill="white" stroke="#bfbfbf" points="1352.88,-6.5 1352.88,-26.5 1433.89,-26.5 1433.89,-6.5 1352.88,-6.5"/>
<text text-anchor="middle" x="1393.39" y="-13.5" font-family="Helvetica,sans-Serif" font-size="10.00">hate/visibility.h</text>
</a>
</g>
</g>
<!-- Node0&#45;&gt;Node20 -->
<g id="edge31" class="edge">
<title>Node0&#45;&gt;Node20</title>
<path fill="none" stroke="midnightblue" d="M378.17,-223.6C527.68,-204.58 836.59,-161.6 1093.39,-102 1206.09,-75.84 1233.44,-65.79 1344.39,-33 1348.13,-31.89 1352.03,-30.71 1355.91,-29.52"/>
<polygon fill="midnightblue" stroke="midnightblue" points="1356.96,-32.86 1365.46,-26.54 1354.87,-26.17 1356.96,-32.86"/>
</g>
<!-- Node22 -->
<g id="node23" class="node">
<title>Node22</title>
<g id="a_node23"><a xlink:title=" ">
<polygon fill="white" stroke="#bfbfbf" points="1142.77,-144.5 1142.77,-164.5 1246.01,-164.5 1246.01,-144.5 1142.77,-144.5"/>
<text text-anchor="middle" x="1194.39" y="-151.5" font-family="Helvetica,sans-Serif" font-size="10.00">hxcomm/vx/target.h</text>
</a>
</g>
</g>
<!-- Node0&#45;&gt;Node22 -->
<g id="edge32" class="edge">
<title>Node0&#45;&gt;Node22</title>
<path fill="none" stroke="midnightblue" d="M378.11,-232.28C532.31,-227.46 857.2,-212.84 1128.39,-171 1135.59,-169.89 1143.16,-168.41 1150.51,-166.81"/>
<polygon fill="midnightblue" stroke="midnightblue" points="1151.36,-170.2 1160.33,-164.56 1149.8,-163.38 1151.36,-170.2"/>
</g>
<!-- Node5&#45;&gt;Node5 -->
<g id="edge6" class="edge">
<title>Node5&#45;&gt;Node5</title>
<path fill="none" stroke="midnightblue" d="M350.28,-26.54C374.11,-32.26 400.46,-28.92 400.46,-16.5 400.46,-5.78 380.82,-1.82 360.12,-4.62"/>
<polygon fill="midnightblue" stroke="midnightblue" points="359.47,-1.18 350.28,-6.46 360.76,-8.06 359.47,-1.18"/>
</g>
<!-- Node6&#45;&gt;Node1 -->
<g id="edge8" class="edge">
<title>Node6&#45;&gt;Node1</title>
<path fill="none" stroke="midnightblue" d="M417.6,-149.67C320.59,-142.08 115.14,-123.97 47.39,-102 45.75,-101.47 44.1,-100.84 42.47,-100.15"/>
<polygon fill="midnightblue" stroke="midnightblue" points="43.95,-96.97 33.44,-95.65 40.83,-103.24 43.95,-96.97"/>
</g>
<!-- Node6&#45;&gt;Node2 -->
<g id="edge9" class="edge">
<title>Node6&#45;&gt;Node2</title>
<path fill="none" stroke="midnightblue" d="M417.75,-150.34C348.31,-145.11 221.53,-132.07 117.39,-102 114.78,-101.25 112.12,-100.34 109.49,-99.35"/>
<polygon fill="midnightblue" stroke="midnightblue" points="110.78,-96.1 100.2,-95.51 108.1,-102.57 110.78,-96.1"/>
</g>
<!-- Node6&#45;&gt;Node3 -->
<g id="edge10" class="edge">
<title>Node6&#45;&gt;Node3</title>
<path fill="none" stroke="midnightblue" d="M432.17,-144.46C382.68,-132.45 295.17,-111.21 240.95,-98.05"/>
<polygon fill="midnightblue" stroke="midnightblue" points="241.45,-94.56 230.9,-95.61 239.79,-101.37 241.45,-94.56"/>
</g>
<!-- Node6&#45;&gt;Node5 -->
<g id="edge19" class="edge">
<title>Node6&#45;&gt;Node5</title>
<path fill="none" stroke="midnightblue" d="M420.25,-144.45C394.38,-137.21 364.22,-124.39 345.39,-102 330,-83.7 326.4,-55.54 325.88,-36.82"/>
<polygon fill="midnightblue" stroke="midnightblue" points="329.38,-36.56 325.87,-26.56 322.38,-36.56 329.38,-36.56"/>
</g>
<!-- Node7 -->
<g id="node8" class="node">
<title>Node7</title>
<g id="a_node8"><a xlink:title=" ">
<polygon fill="white" stroke="#bfbfbf" points="354.27,-69.5 354.27,-101.5 462.51,-101.5 462.51,-69.5 354.27,-69.5"/>
<text text-anchor="start" x="362.27" y="-88.5" font-family="Helvetica,sans-Serif" font-size="10.00">halco/common/typed</text>
<text text-anchor="middle" x="408.39" y="-76.5" font-family="Helvetica,sans-Serif" font-size="10.00">_array.h</text>
</a>
</g>
</g>
<!-- Node6&#45;&gt;Node7 -->
<g id="edge11" class="edge">
<title>Node6&#45;&gt;Node7</title>
<path fill="none" stroke="midnightblue" d="M461.16,-144.46C452.94,-135.44 439.99,-121.21 428.97,-109.1"/>
<polygon fill="midnightblue" stroke="midnightblue" points="431.4,-106.57 422.08,-101.53 426.22,-111.28 431.4,-106.57"/>
</g>
<!-- Node8 -->
<g id="node9" class="node">
<title>Node8</title>
<g id="a_node9"><a xlink:title=" ">
<polygon fill="white" stroke="#bfbfbf" points="480.88,-69.5 480.88,-101.5 581.9,-101.5 581.9,-69.5 480.88,-69.5"/>
<text text-anchor="start" x="488.88" y="-88.5" font-family="Helvetica,sans-Serif" font-size="10.00">halco/hicann&#45;dls/vx</text>
<text text-anchor="middle" x="531.39" y="-76.5" font-family="Helvetica,sans-Serif" font-size="10.00">/capmem.h</text>
</a>
</g>
</g>
<!-- Node6&#45;&gt;Node8 -->
<g id="edge12" class="edge">
<title>Node6&#45;&gt;Node8</title>
<path fill="none" stroke="midnightblue" d="M477.75,-144.46C486.1,-135.44 499.27,-121.21 510.47,-109.1"/>
<polygon fill="midnightblue" stroke="midnightblue" points="513.25,-111.25 517.48,-101.53 508.12,-106.5 513.25,-111.25"/>
</g>
<!-- Node9 -->
<g id="node10" class="node">
<title>Node9</title>
<g id="a_node10"><a xlink:title=" ">
<polygon fill="white" stroke="#bfbfbf" points="599.88,-69.5 599.88,-101.5 700.9,-101.5 700.9,-69.5 599.88,-69.5"/>
<text text-anchor="start" x="607.88" y="-88.5" font-family="Helvetica,sans-Serif" font-size="10.00">halco/hicann&#45;dls/vx</text>
<text text-anchor="middle" x="650.39" y="-76.5" font-family="Helvetica,sans-Serif" font-size="10.00">/switch_rows.h</text>
</a>
</g>
</g>
<!-- Node6&#45;&gt;Node9 -->
<g id="edge13" class="edge">
<title>Node6&#45;&gt;Node9</title>
<path fill="none" stroke="midnightblue" d="M493.8,-144.46C520.96,-134.41 565.6,-117.89 600.28,-105.05"/>
<polygon fill="midnightblue" stroke="midnightblue" points="601.61,-108.29 609.78,-101.53 599.18,-101.72 601.61,-108.29"/>
</g>
<!-- Node10 -->
<g id="node11" class="node">
<title>Node10</title>
<g id="a_node11"><a xlink:title=" ">
<polygon fill="white" stroke="#bfbfbf" points="718.88,-69.5 718.88,-101.5 819.9,-101.5 819.9,-69.5 718.88,-69.5"/>
<text text-anchor="start" x="726.88" y="-88.5" font-family="Helvetica,sans-Serif" font-size="10.00">halco/hicann&#45;dls/vx</text>
<text text-anchor="middle" x="769.39" y="-76.5" font-family="Helvetica,sans-Serif" font-size="10.00">/synapse.h</text>
</a>
</g>
</g>
<!-- Node6&#45;&gt;Node10 -->
<g id="edge14" class="edge">
<title>Node6&#45;&gt;Node10</title>
<path fill="none" stroke="midnightblue" d="M514.84,-144.44C561.31,-135.04 635.8,-119.55 708.76,-102.34"/>
<polygon fill="midnightblue" stroke="midnightblue" points="709.65,-105.72 718.58,-100.01 708.04,-98.91 709.65,-105.72"/>
</g>
<!-- Node11 -->
<g id="node12" class="node">
<title>Node11</title>
<g id="a_node12"><a xlink:href="common_8h.html" target="_top" xlink:title=" ">
<polygon fill="white" stroke="black" points="838.21,-75.5 838.21,-95.5 942.56,-95.5 942.56,-75.5 838.21,-75.5"/>
<text text-anchor="middle" x="890.39" y="-82.5" font-family="Helvetica,sans-Serif" font-size="10.00">haldls/vx/common.h</text>
</a>
</g>
</g>
<!-- Node6&#45;&gt;Node11 -->
<g id="edge15" class="edge">
<title>Node6&#45;&gt;Node11</title>
<path fill="none" stroke="midnightblue" d="M521.25,-147.84C591.47,-139.78 720.54,-123.55 829.39,-102 835.29,-100.83 841.48,-99.45 847.56,-98"/>
<polygon fill="midnightblue" stroke="midnightblue" points="848.74,-101.31 857.61,-95.51 847.06,-94.51 848.74,-101.31"/>
</g>
<!-- Node6&#45;&gt;Node15 -->
<g id="edge20" class="edge">
<title>Node6&#45;&gt;Node15</title>
<path fill="none" stroke="midnightblue" d="M521.2,-150.99C609.99,-146.03 796.6,-132.65 951.39,-102 956.49,-100.99 961.81,-99.71 967.02,-98.33"/>
<polygon fill="midnightblue" stroke="midnightblue" points="968.16,-101.64 976.84,-95.57 966.26,-94.9 968.16,-101.64"/>
</g>
<!-- Node6&#45;&gt;Node20 -->
<g id="edge29" class="edge">
<title>Node6&#45;&gt;Node20</title>
<path fill="none" stroke="midnightblue" d="M521.17,-152.66C645.97,-150.05 960.21,-139.8 1057.39,-102 1079.84,-93.27 1078.2,-78.39 1100.39,-69 1201.33,-26.26 1237.57,-57.61 1344.39,-33 1348.76,-31.99 1353.31,-30.78 1357.79,-29.49"/>
<polygon fill="midnightblue" stroke="midnightblue" points="1358.86,-32.82 1367.41,-26.57 1356.82,-26.12 1358.86,-32.82"/>
</g>
<!-- Node12 -->
<g id="node13" class="node">
<title>Node12</title>
<g id="a_node13"><a xlink:title=" ">
<polygon fill="white" stroke="#bfbfbf" points="711.33,-6.5 711.33,-26.5 773.45,-26.5 773.45,-6.5 711.33,-6.5"/>
<text text-anchor="middle" x="742.39" y="-13.5" font-family="Helvetica,sans-Serif" font-size="10.00">type_traits</text>
</a>
</g>
</g>
<!-- Node11&#45;&gt;Node12 -->
<g id="edge16" class="edge">
<title>Node11&#45;&gt;Node12</title>
<path fill="none" stroke="midnightblue" d="M870.43,-75.46C845.05,-63.98 801.03,-44.05 771.8,-30.82"/>
<polygon fill="midnightblue" stroke="midnightblue" points="773.06,-27.54 762.5,-26.61 770.17,-33.92 773.06,-27.54"/>
</g>
<!-- Node13 -->
<g id="node14" class="node">
<title>Node13</title>
<g id="a_node14"><a xlink:title=" ">
<polygon fill="white" stroke="#bfbfbf" points="513,-6.5 513,-26.5 551.77,-26.5 551.77,-6.5 513,-6.5"/>
<text text-anchor="middle" x="532.39" y="-13.5" font-family="Helvetica,sans-Serif" font-size="10.00">utility</text>
</a>
</g>
</g>
<!-- Node11&#45;&gt;Node13 -->
<g id="edge17" class="edge">
<title>Node11&#45;&gt;Node13</title>
<path fill="none" stroke="midnightblue" d="M857.62,-75.43C848.53,-73.12 838.61,-70.78 829.39,-69 710.96,-46.11 674.91,-70.86 560.39,-33 558.76,-32.46 557.11,-31.82 555.48,-31.12"/>
<polygon fill="midnightblue" stroke="midnightblue" points="556.96,-27.95 546.45,-26.62 553.83,-34.22 556.96,-27.95"/>
</g>
<!-- Node14 -->
<g id="node15" class="node">
<title>Node14</title>
<g id="a_node15"><a xlink:title=" ">
<polygon fill="white" stroke="#bfbfbf" points="569.76,-6.5 569.76,-26.5 693.01,-26.5 693.01,-6.5 569.76,-6.5"/>
<text text-anchor="middle" x="631.39" y="-13.5" font-family="Helvetica,sans-Serif" font-size="10.00">fisch/vx/omnibus_data.h</text>
</a>
</g>
</g>
<!-- Node11&#45;&gt;Node14 -->
<g id="edge18" class="edge">
<title>Node11&#45;&gt;Node14</title>
<path fill="none" stroke="midnightblue" d="M855.46,-75.46C809.12,-63.48 727.25,-42.3 676.34,-29.13"/>
<polygon fill="midnightblue" stroke="midnightblue" points="677.15,-25.72 666.59,-26.61 675.4,-32.5 677.15,-25.72"/>
</g>
<!-- Node15&#45;&gt;Node5 -->
<g id="edge25" class="edge">
<title>Node15&#45;&gt;Node5</title>
<path fill="none" stroke="midnightblue" d="M977.41,-75.46C969.14,-73 959.97,-70.58 951.39,-69 755.39,-32.84 703,-49.65 504.39,-33 467.41,-29.9 426.12,-26.31 392.63,-23.37"/>
<polygon fill="midnightblue" stroke="midnightblue" points="392.77,-19.87 382.5,-22.48 392.15,-26.84 392.77,-19.87"/>
</g>
<!-- Node15&#45;&gt;Node12 -->
<g id="edge21" class="edge">
<title>Node15&#45;&gt;Node12</title>
<path fill="none" stroke="midnightblue" d="M975.06,-75.5C967.39,-73.26 959.1,-70.95 951.39,-69 876.93,-50.21 855.98,-54.94 782.39,-33 779.41,-32.11 776.35,-31.11 773.3,-30.04"/>
<polygon fill="midnightblue" stroke="midnightblue" points="774.35,-26.69 763.76,-26.51 771.92,-33.26 774.35,-26.69"/>
</g>
<!-- Node16 -->
<g id="node17" class="node">
<title>Node16</title>
<g id="a_node17"><a xlink:title=" ">
<polygon fill="white" stroke="#bfbfbf" points="791.04,-6.5 791.04,-26.5 883.74,-26.5 883.74,-6.5 791.04,-6.5"/>
<text text-anchor="middle" x="837.39" y="-13.5" font-family="Helvetica,sans-Serif" font-size="10.00">boost/variant.hpp</text>
</a>
</g>
</g>
<!-- Node15&#45;&gt;Node16 -->
<g id="edge22" class="edge">
<title>Node15&#45;&gt;Node16</title>
<path fill="none" stroke="midnightblue" d="M981.87,-75.46C952.98,-63.88 902.69,-43.7 869.72,-30.47"/>
<polygon fill="midnightblue" stroke="midnightblue" points="870.67,-27.08 860.09,-26.61 868.06,-33.58 870.67,-27.08"/>
</g>
<!-- Node17 -->
<g id="node18" class="node">
<title>Node17</title>
<g id="a_node18"><a xlink:title=" ">
<polygon fill="white" stroke="#bfbfbf" points="901.77,-0.5 901.77,-32.5 995.01,-32.5 995.01,-0.5 901.77,-0.5"/>
<text text-anchor="start" x="909.77" y="-19.5" font-family="Helvetica,sans-Serif" font-size="10.00">fisch/vx/container</text>
<text text-anchor="middle" x="948.39" y="-7.5" font-family="Helvetica,sans-Serif" font-size="10.00">_fwd.h</text>
</a>
</g>
</g>
<!-- Node15&#45;&gt;Node17 -->
<g id="edge23" class="edge">
<title>Node15&#45;&gt;Node17</title>
<path fill="none" stroke="midnightblue" d="M996.84,-75.46C989.36,-66.53 977.62,-52.48 967.57,-40.45"/>
<polygon fill="midnightblue" stroke="midnightblue" points="970.05,-37.96 960.95,-32.53 964.68,-42.45 970.05,-37.96"/>
</g>
<!-- Node18 -->
<g id="node19" class="node">
<title>Node18</title>
<g id="a_node19"><a xlink:title=" ">
<polygon fill="white" stroke="#bfbfbf" points="1012.77,-0.5 1012.77,-32.5 1106.01,-32.5 1106.01,-0.5 1012.77,-0.5"/>
<text text-anchor="start" x="1020.77" y="-19.5" font-family="Helvetica,sans-Serif" font-size="10.00">fisch/vx/container</text>
<text text-anchor="middle" x="1059.39" y="-7.5" font-family="Helvetica,sans-Serif" font-size="10.00">_ticket.h</text>
</a>
</g>
</g>
<!-- Node15&#45;&gt;Node18 -->
<g id="edge24" class="edge">
<title>Node15&#45;&gt;Node18</title>
<path fill="none" stroke="midnightblue" d="M1011.81,-75.46C1019.14,-66.53 1030.68,-52.48 1040.55,-40.45"/>
<polygon fill="midnightblue" stroke="midnightblue" points="1043.41,-42.48 1047.05,-32.53 1038,-38.04 1043.41,-42.48"/>
</g>
<!-- Node19 -->
<g id="node20" class="node">
<title>Node19</title>
<g id="a_node20"><a xlink:title=" ">
<polygon fill="white" stroke="#bfbfbf" points="1123.76,-6.5 1123.76,-26.5 1207.01,-26.5 1207.01,-6.5 1123.76,-6.5"/>
<text text-anchor="middle" x="1165.39" y="-13.5" font-family="Helvetica,sans-Serif" font-size="10.00">hate/type_list.h</text>
</a>
</g>
</g>
<!-- Node15&#45;&gt;Node19 -->
<g id="edge26" class="edge">
<title>Node15&#45;&gt;Node19</title>
<path fill="none" stroke="midnightblue" d="M1026.1,-75.46C1053.95,-63.88 1102.43,-43.7 1134.22,-30.47"/>
<polygon fill="midnightblue" stroke="midnightblue" points="1135.62,-33.68 1143.5,-26.61 1132.93,-27.22 1135.62,-33.68"/>
</g>
<!-- Node15&#45;&gt;Node20 -->
<g id="edge27" class="edge">
<title>Node15&#45;&gt;Node20</title>
<path fill="none" stroke="midnightblue" d="M1035.21,-75.44C1043.94,-73.1 1053.49,-70.75 1062.39,-69 1186.37,-44.63 1220.99,-60.16 1344.39,-33 1348.87,-32.01 1353.53,-30.8 1358.12,-29.48"/>
<polygon fill="midnightblue" stroke="midnightblue" points="1359.39,-32.76 1367.94,-26.5 1357.35,-26.06 1359.39,-32.76"/>
</g>
<!-- Node21 -->
<g id="node22" class="node">
<title>Node21</title>
<g id="a_node22"><a xlink:title=" ">
<polygon fill="white" stroke="#bfbfbf" points="1225.43,-6.5 1225.43,-26.5 1335.34,-26.5 1335.34,-6.5 1225.43,-6.5"/>
<text text-anchor="middle" x="1280.39" y="-13.5" font-family="Helvetica,sans-Serif" font-size="10.00">fisch/vx/container.def</text>
</a>
</g>
</g>
<!-- Node15&#45;&gt;Node21 -->
<g id="edge28" class="edge">
<title>Node15&#45;&gt;Node21</title>
<path fill="none" stroke="midnightblue" d="M1037.47,-75.47C1045.6,-73.3 1054.3,-71.03 1062.39,-69 1130.57,-51.92 1148.01,-49.27 1216.39,-33 1221.81,-31.71 1227.49,-30.35 1233.13,-28.99"/>
<polygon fill="midnightblue" stroke="midnightblue" points="1234.27,-32.31 1243.17,-26.57 1232.63,-25.51 1234.27,-32.31"/>
</g>
</g>
</svg>
        <g id="navigator" transform="translate(0 0)" fill="#404254">
                <rect fill="#f2f5e9" fill-opacity="0.5" stroke="#606060" stroke-width=".5" x="0" y="0" width="60" height="60"/>
                <use id="zoomplus" xlink:href="#zoomPlus" x="17" y="9" onmousedown="handleZoom(evt,'in')"/>
                <use id="zoomminus" xlink:href="#zoomMin" x="42" y="9" onmousedown="handleZoom(evt,'out')"/>
                <use id="reset" xlink:href="#resetDef" x="30" y="36" onmousedown="handleReset()"/>
                <g id="arrowUp" xlink:href="#dirArrow" transform="translate(30 24)" onmousedown="handlePan(0,-1)">
                  <use xlink:href="#rim" fill="#404040">
                        <set attributeName="fill" to="#808080" begin="arrowUp.mouseover" end="arrowUp.mouseout"/>
                  </use>
                  <path fill="none" stroke="white" stroke-width="1.5" d="M0,-3.0v7 M-2.5,-0.5L0,-3.0L2.5,-0.5"/>
                </g>
                <g id="arrowRight" xlink:href="#dirArrow" transform="rotate(90) translate(36 -43)" onmousedown="handlePan(1,0)">
                  <use xlink:href="#rim" fill="#404040">
                        <set attributeName="fill" to="#808080" begin="arrowRight.mouseover" end="arrowRight.mouseout"/>
                  </use>
                  <path fill="none" stroke="white" stroke-width="1.5" d="M0,-3.0v7 M-2.5,-0.5L0,-3.0L2.5,-0.5"/>
                </g>
                <g id="arrowDown" xlink:href="#dirArrow" transform="rotate(180) translate(-30 -48)" onmousedown="handlePan(0,1)">
                  <use xlink:href="#rim" fill="#404040">
                        <set attributeName="fill" to="#808080" begin="arrowDown.mouseover" end="arrowDown.mouseout"/>
                  </use>
                  <path fill="none" stroke="white" stroke-width="1.5" d="M0,-3.0v7 M-2.5,-0.5L0,-3.0L2.5,-0.5"/>
                </g>
                <g id="arrowLeft" xlink:href="#dirArrow" transform="rotate(270) translate(-36 17)" onmousedown="handlePan(-1,0)">
                  <use xlink:href="#rim" fill="#404040">
                        <set attributeName="fill" to="#808080" begin="arrowLeft.mouseover" end="arrowLeft.mouseout"/>
                  </use>
                  <path fill="none" stroke="white" stroke-width="1.5" d="M0,-3.0v7 M-2.5,-0.5L0,-3.0L2.5,-0.5"/>
                </g>
        </g>
        <svg viewBox="0 0 15 15" width="100%" height="30px" preserveAspectRatio="xMaxYMin meet">
         <g id="arrow_out" transform="scale(0.3 0.3)">
          <a xlink:href="padi_8h__incl_org.svg" target="_base">
           <rect id="button" ry="5" rx="5" y="6" x="6" height="38" width="38"
                fill="#f2f5e9" fill-opacity="0.5" stroke="#606060" stroke-width="1.0"/>
           <path id="arrow"
             d="M 11.500037,31.436501 C 11.940474,20.09759 22.043105,11.32322 32.158766,21.979434 L 37.068811,17.246167 C 37.068811,17.246167 37.088388,32 37.088388,32 L 22.160133,31.978069 C 22.160133,31.978069 26.997745,27.140456 26.997745,27.140456 C 18.528582,18.264221 13.291696,25.230495 11.500037,31.436501 z"
             style="fill:#404040;"/>
          </a>
         </g>
        </svg>
</svg>
