<?xml version="1.0" encoding="UTF-8" standalone="no"?>
<!DOCTYPE svg PUBLIC "-//W3C//DTD SVG 1.1//EN"
 "http://www.w3.org/Graphics/SVG/1.1/DTD/svg11.dtd">
<!-- Generated by graphviz version 2.43.0 (0)
 -->
<!-- Title: /jenkins/jenlib_workspaces_f9/bld_nightly&#45;haldls.YmxkX25pZ2h0bHktaGFsZGxzIzY1NQ.x/haldls/include/haldls/vx/phy.h Pages: 1 -->
<svg width="1044pt" height="203pt"
 viewBox="0.00 0.00 1043.89 203.00" xmlns="http://www.w3.org/2000/svg" xmlns:xlink="http://www.w3.org/1999/xlink">
<g id="graph0" class="graph" transform="scale(1 1) rotate(0) translate(4 199)">
<title>/jenkins/jenlib_workspaces_f9/bld_nightly&#45;haldls.YmxkX25pZ2h0bHktaGFsZGxzIzY1NQ.x/haldls/include/haldls/vx/phy.h</title>
<polygon fill="white" stroke="transparent" points="-4,4 -4,-199 1039.89,-199 1039.89,4 -4,4"/>
<!-- Node0 -->
<g id="node1" class="node">
<title>Node0</title>
<g id="a_node1"><a xlink:title=" ">
<polygon fill="#bfbfbf" stroke="black" points="303.71,-138.5 303.71,-194.5 483.07,-194.5 483.07,-138.5 303.71,-138.5"/>
<text text-anchor="start" x="311.71" y="-181.5" font-family="Helvetica,sans-Serif" font-size="10.00">/jenkins/jenlib_workspaces</text>
<text text-anchor="start" x="311.71" y="-169.5" font-family="Helvetica,sans-Serif" font-size="10.00">_f9/bld_nightly&#45;haldls.YmxkX25p</text>
<text text-anchor="start" x="311.71" y="-157.5" font-family="Helvetica,sans-Serif" font-size="10.00">Z2h0bHktaGFsZGxzIzY1NQ.x/haldls</text>
<text text-anchor="middle" x="393.39" y="-145.5" font-family="Helvetica,sans-Serif" font-size="10.00">/include/haldls/vx/phy.h</text>
</a>
</g>
</g>
<!-- Node1 -->
<g id="node2" class="node">
<title>Node1</title>
<g id="a_node2"><a xlink:title=" ">
<polygon fill="white" stroke="#bfbfbf" points="0,-75.5 0,-95.5 38.78,-95.5 38.78,-75.5 0,-75.5"/>
<text text-anchor="middle" x="19.39" y="-82.5" font-family="Helvetica,sans-Serif" font-size="10.00">array</text>
</a>
</g>
</g>
<!-- Node0&#45;&gt;Node1 -->
<g id="edge1" class="edge">
<title>Node0&#45;&gt;Node1</title>
<path fill="none" stroke="midnightblue" d="M303.51,-157.08C232.42,-148.52 131.49,-132.08 47.39,-102 45.95,-101.49 44.5,-100.9 43.05,-100.27"/>
<polygon fill="midnightblue" stroke="midnightblue" points="44.3,-96.98 33.79,-95.64 41.16,-103.24 44.3,-96.98"/>
</g>
<!-- Node2 -->
<g id="node3" class="node">
<title>Node2</title>
<g id="a_node3"><a xlink:title=" ">
<polygon fill="white" stroke="#bfbfbf" points="56.33,-75.5 56.33,-95.5 108.45,-95.5 108.45,-75.5 56.33,-75.5"/>
<text text-anchor="middle" x="82.39" y="-82.5" font-family="Helvetica,sans-Serif" font-size="10.00">ostream</text>
</a>
</g>
</g>
<!-- Node0&#45;&gt;Node2 -->
<g id="edge2" class="edge">
<title>Node0&#45;&gt;Node2</title>
<path fill="none" stroke="midnightblue" d="M303.64,-149.36C249.07,-138.44 178.38,-122.32 117.39,-102 115.1,-101.24 112.76,-100.38 110.42,-99.47"/>
<polygon fill="midnightblue" stroke="midnightblue" points="111.59,-96.17 101.02,-95.54 108.89,-102.63 111.59,-96.17"/>
</g>
<!-- Node3 -->
<g id="node4" class="node">
<title>Node3</title>
<g id="a_node4"><a xlink:title=" ">
<polygon fill="white" stroke="#bfbfbf" points="126.49,-75.5 126.49,-95.5 260.29,-95.5 260.29,-75.5 126.49,-75.5"/>
<text text-anchor="middle" x="193.39" y="-82.5" font-family="Helvetica,sans-Serif" font-size="10.00">halco/common/geometry.h</text>
</a>
</g>
</g>
<!-- Node0&#45;&gt;Node3 -->
<g id="edge3" class="edge">
<title>Node0&#45;&gt;Node3</title>
<path fill="none" stroke="midnightblue" d="M324.84,-138.42C291.35,-125.19 252.62,-109.9 225.92,-99.35"/>
<polygon fill="midnightblue" stroke="midnightblue" points="226.9,-95.97 216.31,-95.55 224.32,-102.48 226.9,-95.97"/>
</g>
<!-- Node4 -->
<g id="node5" class="node">
<title>Node4</title>
<g id="a_node5"><a xlink:title=" ">
<polygon fill="white" stroke="#bfbfbf" points="278.27,-69.5 278.27,-101.5 386.51,-101.5 386.51,-69.5 278.27,-69.5"/>
<text text-anchor="start" x="286.27" y="-88.5" font-family="Helvetica,sans-Serif" font-size="10.00">halco/common/typed</text>
<text text-anchor="middle" x="332.39" y="-76.5" font-family="Helvetica,sans-Serif" font-size="10.00">_array.h</text>
</a>
</g>
</g>
<!-- Node0&#45;&gt;Node4 -->
<g id="edge4" class="edge">
<title>Node0&#45;&gt;Node4</title>
<path fill="none" stroke="midnightblue" d="M372.4,-138.31C365.19,-128.98 357.19,-118.62 350.26,-109.64"/>
<polygon fill="midnightblue" stroke="midnightblue" points="352.87,-107.3 343.99,-101.52 347.33,-111.58 352.87,-107.3"/>
</g>
<!-- Node5 -->
<g id="node6" class="node">
<title>Node5</title>
<g id="a_node6"><a xlink:title=" ">
<polygon fill="white" stroke="#bfbfbf" points="404.88,-69.5 404.88,-101.5 505.9,-101.5 505.9,-69.5 404.88,-69.5"/>
<text text-anchor="start" x="412.88" y="-88.5" font-family="Helvetica,sans-Serif" font-size="10.00">halco/hicann&#45;dls/vx</text>
<text text-anchor="middle" x="455.39" y="-76.5" font-family="Helvetica,sans-Serif" font-size="10.00">/highspeed_link.h</text>
</a>
</g>
</g>
<!-- Node0&#45;&gt;Node5 -->
<g id="edge5" class="edge">
<title>Node0&#45;&gt;Node5</title>
<path fill="none" stroke="midnightblue" d="M414.72,-138.31C422.05,-128.98 430.18,-118.62 437.23,-109.64"/>
<polygon fill="midnightblue" stroke="midnightblue" points="440.18,-111.55 443.6,-101.52 434.67,-107.23 440.18,-111.55"/>
</g>
<!-- Node6 -->
<g id="node7" class="node">
<title>Node6</title>
<g id="a_node7"><a xlink:href="genpybind_8h.html" target="_top" xlink:title=" ">
<polygon fill="white" stroke="black" points="165.32,-6.5 165.32,-26.5 277.46,-26.5 277.46,-6.5 165.32,-6.5"/>
<text text-anchor="middle" x="221.39" y="-13.5" font-family="Helvetica,sans-Serif" font-size="10.00">haldls/vx/genpybind.h</text>
</a>
</g>
</g>
<!-- Node0&#45;&gt;Node6 -->
<g id="edge6" class="edge">
<title>Node0&#45;&gt;Node6</title>
<path fill="none" stroke="midnightblue" d="M468.14,-138.49C505.47,-120.86 538.29,-96.14 515.39,-69 484.71,-32.65 351.21,-41.37 304.39,-33 296.19,-31.54 287.55,-29.96 279.06,-28.39"/>
<polygon fill="midnightblue" stroke="midnightblue" points="279.68,-24.94 269.21,-26.56 278.4,-31.83 279.68,-24.94"/>
</g>
<!-- Node7 -->
<g id="node8" class="node">
<title>Node7</title>
<g id="a_node8"><a xlink:href="traits_8h.html" target="_top" xlink:title=" ">
<polygon fill="white" stroke="black" points="562.55,-75.5 562.55,-95.5 650.23,-95.5 650.23,-75.5 562.55,-75.5"/>
<text text-anchor="middle" x="606.39" y="-82.5" font-family="Helvetica,sans-Serif" font-size="10.00">haldls/vx/traits.h</text>
</a>
</g>
</g>
<!-- Node0&#45;&gt;Node7 -->
<g id="edge8" class="edge">
<title>Node0&#45;&gt;Node7</title>
<path fill="none" stroke="midnightblue" d="M466.39,-138.42C502.37,-125.08 544.03,-109.63 572.49,-99.07"/>
<polygon fill="midnightblue" stroke="midnightblue" points="573.82,-102.31 581.98,-95.55 571.38,-95.75 573.82,-102.31"/>
</g>
<!-- Node13 -->
<g id="node14" class="node">
<title>Node13</title>
<g id="a_node14"><a xlink:title=" ">
<polygon fill="white" stroke="#bfbfbf" points="954.88,-6.5 954.88,-26.5 1035.89,-26.5 1035.89,-6.5 954.88,-6.5"/>
<text text-anchor="middle" x="995.39" y="-13.5" font-family="Helvetica,sans-Serif" font-size="10.00">hate/visibility.h</text>
</a>
</g>
</g>
<!-- Node0&#45;&gt;Node13 -->
<g id="edge17" class="edge">
<title>Node0&#45;&gt;Node13</title>
<path fill="none" stroke="midnightblue" d="M483.45,-146.01C593.32,-121.76 784.45,-78.02 946.39,-33 950.24,-31.93 954.25,-30.76 958.24,-29.55"/>
<polygon fill="midnightblue" stroke="midnightblue" points="959.5,-32.83 968.02,-26.53 957.43,-26.14 959.5,-32.83"/>
</g>
<!-- Node6&#45;&gt;Node6 -->
<g id="edge7" class="edge">
<title>Node6&#45;&gt;Node6</title>
<path fill="none" stroke="midnightblue" d="M245.28,-26.54C269.11,-32.26 295.46,-28.92 295.46,-16.5 295.46,-5.78 275.82,-1.82 255.12,-4.62"/>
<polygon fill="midnightblue" stroke="midnightblue" points="254.47,-1.18 245.28,-6.46 255.76,-8.06 254.47,-1.18"/>
</g>
<!-- Node7&#45;&gt;Node6 -->
<g id="edge13" class="edge">
<title>Node7&#45;&gt;Node6</title>
<path fill="none" stroke="midnightblue" d="M575.24,-75.47C566.59,-73.16 557.17,-70.81 548.39,-69 441.04,-46.81 412.51,-51.06 304.39,-33 295.77,-31.56 286.67,-29.95 277.78,-28.33"/>
<polygon fill="midnightblue" stroke="midnightblue" points="278.33,-24.87 267.86,-26.5 277.06,-31.76 278.33,-24.87"/>
</g>
<!-- Node8 -->
<g id="node9" class="node">
<title>Node8</title>
<g id="a_node9"><a xlink:title=" ">
<polygon fill="white" stroke="#bfbfbf" points="313.33,-6.5 313.33,-26.5 375.45,-26.5 375.45,-6.5 313.33,-6.5"/>
<text text-anchor="middle" x="344.39" y="-13.5" font-family="Helvetica,sans-Serif" font-size="10.00">type_traits</text>
</a>
</g>
</g>
<!-- Node7&#45;&gt;Node8 -->
<g id="edge9" class="edge">
<title>Node7&#45;&gt;Node8</title>
<path fill="none" stroke="midnightblue" d="M573.63,-75.47C565.41,-73.28 556.59,-71 548.39,-69 475.88,-51.36 455.83,-54.55 384.39,-33 381.58,-32.15 378.69,-31.2 375.81,-30.19"/>
<polygon fill="midnightblue" stroke="midnightblue" points="376.78,-26.82 366.18,-26.64 374.35,-33.39 376.78,-26.82"/>
</g>
<!-- Node9 -->
<g id="node10" class="node">
<title>Node9</title>
<g id="a_node10"><a xlink:title=" ">
<polygon fill="white" stroke="#bfbfbf" points="393.04,-6.5 393.04,-26.5 485.74,-26.5 485.74,-6.5 393.04,-6.5"/>
<text text-anchor="middle" x="439.39" y="-13.5" font-family="Helvetica,sans-Serif" font-size="10.00">boost/variant.hpp</text>
</a>
</g>
</g>
<!-- Node7&#45;&gt;Node9 -->
<g id="edge10" class="edge">
<title>Node7&#45;&gt;Node9</title>
<path fill="none" stroke="midnightblue" d="M583.87,-75.46C554.98,-63.88 504.69,-43.7 471.72,-30.47"/>
<polygon fill="midnightblue" stroke="midnightblue" points="472.67,-27.08 462.09,-26.61 470.06,-33.58 472.67,-27.08"/>
</g>
<!-- Node10 -->
<g id="node11" class="node">
<title>Node10</title>
<g id="a_node11"><a xlink:title=" ">
<polygon fill="white" stroke="#bfbfbf" points="503.77,-0.5 503.77,-32.5 597.01,-32.5 597.01,-0.5 503.77,-0.5"/>
<text text-anchor="start" x="511.77" y="-19.5" font-family="Helvetica,sans-Serif" font-size="10.00">fisch/vx/container</text>
<text text-anchor="middle" x="550.39" y="-7.5" font-family="Helvetica,sans-Serif" font-size="10.00">_fwd.h</text>
</a>
</g>
</g>
<!-- Node7&#45;&gt;Node10 -->
<g id="edge11" class="edge">
<title>Node7&#45;&gt;Node10</title>
<path fill="none" stroke="midnightblue" d="M598.84,-75.46C591.36,-66.53 579.62,-52.48 569.57,-40.45"/>
<polygon fill="midnightblue" stroke="midnightblue" points="572.05,-37.96 562.95,-32.53 566.68,-42.45 572.05,-37.96"/>
</g>
<!-- Node11 -->
<g id="node12" class="node">
<title>Node11</title>
<g id="a_node12"><a xlink:title=" ">
<polygon fill="white" stroke="#bfbfbf" points="614.77,-0.5 614.77,-32.5 708.01,-32.5 708.01,-0.5 614.77,-0.5"/>
<text text-anchor="start" x="622.77" y="-19.5" font-family="Helvetica,sans-Serif" font-size="10.00">fisch/vx/container</text>
<text text-anchor="middle" x="661.39" y="-7.5" font-family="Helvetica,sans-Serif" font-size="10.00">_ticket.h</text>
</a>
</g>
</g>
<!-- Node7&#45;&gt;Node11 -->
<g id="edge12" class="edge">
<title>Node7&#45;&gt;Node11</title>
<path fill="none" stroke="midnightblue" d="M613.81,-75.46C621.14,-66.53 632.68,-52.48 642.55,-40.45"/>
<polygon fill="midnightblue" stroke="midnightblue" points="645.41,-42.48 649.05,-32.53 640,-38.04 645.41,-42.48"/>
</g>
<!-- Node12 -->
<g id="node13" class="node">
<title>Node12</title>
<g id="a_node13"><a xlink:title=" ">
<polygon fill="white" stroke="#bfbfbf" points="725.77,-6.5 725.77,-26.5 809.01,-26.5 809.01,-6.5 725.77,-6.5"/>
<text text-anchor="middle" x="767.39" y="-13.5" font-family="Helvetica,sans-Serif" font-size="10.00">hate/type_list.h</text>
</a>
</g>
</g>
<!-- Node7&#45;&gt;Node12 -->
<g id="edge14" class="edge">
<title>Node7&#45;&gt;Node12</title>
<path fill="none" stroke="midnightblue" d="M628.1,-75.46C655.95,-63.88 704.43,-43.7 736.22,-30.47"/>
<polygon fill="midnightblue" stroke="midnightblue" points="737.62,-33.68 745.5,-26.61 734.93,-27.22 737.62,-33.68"/>
</g>
<!-- Node7&#45;&gt;Node13 -->
<g id="edge15" class="edge">
<title>Node7&#45;&gt;Node13</title>
<path fill="none" stroke="midnightblue" d="M650.27,-80.07C715.45,-72.99 841.42,-57.39 946.39,-33 950.76,-31.98 955.3,-30.77 959.79,-29.47"/>
<polygon fill="midnightblue" stroke="midnightblue" points="960.85,-32.81 969.4,-26.55 958.82,-26.11 960.85,-32.81"/>
</g>
<!-- Node14 -->
<g id="node15" class="node">
<title>Node14</title>
<g id="a_node15"><a xlink:title=" ">
<polygon fill="white" stroke="#bfbfbf" points="827.43,-6.5 827.43,-26.5 937.34,-26.5 937.34,-6.5 827.43,-6.5"/>
<text text-anchor="middle" x="882.39" y="-13.5" font-family="Helvetica,sans-Serif" font-size="10.00">fisch/vx/container.def</text>
</a>
</g>
</g>
<!-- Node7&#45;&gt;Node14 -->
<g id="edge16" class="edge">
<title>Node7&#45;&gt;Node14</title>
<path fill="none" stroke="midnightblue" d="M643.61,-75.46C693.1,-63.45 780.6,-42.21 834.82,-29.05"/>
<polygon fill="midnightblue" stroke="midnightblue" points="835.98,-32.37 844.87,-26.61 834.33,-25.56 835.98,-32.37"/>
</g>
</g>
</svg>
