<?xml version="1.0" encoding="UTF-8" standalone="no"?>
<!DOCTYPE svg PUBLIC "-//W3C//DTD SVG 1.1//EN"
 "http://www.w3.org/Graphics/SVG/1.1/DTD/svg11.dtd">
<!-- Generated by graphviz version 2.43.0 (0)
 -->
<!-- Title: /jenkins/jenlib_workspaces_f9/bld_nightly&#45;haldls.YmxkX25pZ2h0bHktaGFsZGxzIzY1NQ.x/haldls/include/haldls/vx/pickle.h Pages: 1 -->
<svg width="498pt" height="122pt"
 viewBox="0.00 0.00 498.40 122.00" xmlns="http://www.w3.org/2000/svg" xmlns:xlink="http://www.w3.org/1999/xlink">
<g id="graph0" class="graph" transform="scale(1 1) rotate(0) translate(4 118)">
<title>/jenkins/jenlib_workspaces_f9/bld_nightly&#45;haldls.YmxkX25pZ2h0bHktaGFsZGxzIzY1NQ.x/haldls/include/haldls/vx/pickle.h</title>
<polygon fill="white" stroke="transparent" points="-4,4 -4,-118 494.4,-118 494.4,4 -4,4"/>
<!-- Node0 -->
<g id="node1" class="node">
<title>Node0</title>
<g id="a_node1"><a xlink:title=" ">
<polygon fill="#bfbfbf" stroke="black" points="107.1,-57.5 107.1,-113.5 286.46,-113.5 286.46,-57.5 107.1,-57.5"/>
<text text-anchor="start" x="115.1" y="-100.5" font-family="Helvetica,sans-Serif" font-size="10.00">/jenkins/jenlib_workspaces</text>
<text text-anchor="start" x="115.1" y="-88.5" font-family="Helvetica,sans-Serif" font-size="10.00">_f9/bld_nightly&#45;haldls.YmxkX25p</text>
<text text-anchor="start" x="115.1" y="-76.5" font-family="Helvetica,sans-Serif" font-size="10.00">Z2h0bHktaGFsZGxzIzY1NQ.x/haldls</text>
<text text-anchor="middle" x="196.78" y="-64.5" font-family="Helvetica,sans-Serif" font-size="10.00">/include/haldls/vx/pickle.h</text>
</a>
</g>
</g>
<!-- Node1 -->
<g id="node2" class="node">
<title>Node1</title>
<g id="a_node2"><a xlink:title=" ">
<polygon fill="white" stroke="#bfbfbf" points="0,-0.5 0,-20.5 51.56,-20.5 51.56,-0.5 0,-0.5"/>
<text text-anchor="middle" x="25.78" y="-7.5" font-family="Helvetica,sans-Serif" font-size="10.00">sstream</text>
</a>
</g>
</g>
<!-- Node0&#45;&gt;Node1 -->
<g id="edge1" class="edge">
<title>Node0&#45;&gt;Node1</title>
<path fill="none" stroke="midnightblue" d="M133.1,-57.32C106.87,-46.12 77.7,-33.67 56.4,-24.57"/>
<polygon fill="midnightblue" stroke="midnightblue" points="57.49,-21.23 46.92,-20.52 54.74,-27.67 57.49,-21.23"/>
</g>
<!-- Node2 -->
<g id="node3" class="node">
<title>Node2</title>
<g id="a_node3"><a xlink:title=" ">
<polygon fill="white" stroke="#bfbfbf" points="69.16,-0.5 69.16,-20.5 112.39,-20.5 112.39,-0.5 69.16,-0.5"/>
<text text-anchor="middle" x="90.78" y="-7.5" font-family="Helvetica,sans-Serif" font-size="10.00">vector</text>
</a>
</g>
</g>
<!-- Node0&#45;&gt;Node2 -->
<g id="edge2" class="edge">
<title>Node0&#45;&gt;Node2</title>
<path fill="none" stroke="midnightblue" d="M157.31,-57.32C142,-46.78 125.09,-35.13 112.14,-26.21"/>
<polygon fill="midnightblue" stroke="midnightblue" points="114.1,-23.31 103.88,-20.52 110.13,-29.08 114.1,-23.31"/>
</g>
<!-- Node3 -->
<g id="node4" class="node">
<title>Node3</title>
<g id="a_node4"><a xlink:title=" ">
<polygon fill="white" stroke="#bfbfbf" points="130.43,-0.5 130.43,-20.5 263.12,-20.5 263.12,-0.5 130.43,-0.5"/>
<text text-anchor="middle" x="196.78" y="-7.5" font-family="Helvetica,sans-Serif" font-size="10.00">cereal/archives/binary.hpp</text>
</a>
</g>
</g>
<!-- Node0&#45;&gt;Node3 -->
<g id="edge3" class="edge">
<title>Node0&#45;&gt;Node3</title>
<path fill="none" stroke="midnightblue" d="M196.78,-57.32C196.78,-48.5 196.78,-38.91 196.78,-30.79"/>
<polygon fill="midnightblue" stroke="midnightblue" points="200.28,-30.52 196.78,-20.52 193.28,-30.52 200.28,-30.52"/>
</g>
<!-- Node4 -->
<g id="node5" class="node">
<title>Node4</title>
<g id="a_node5"><a xlink:title=" ">
<polygon fill="white" stroke="#bfbfbf" points="280.65,-0.5 280.65,-20.5 388.91,-20.5 388.91,-0.5 280.65,-0.5"/>
<text text-anchor="middle" x="334.78" y="-7.5" font-family="Helvetica,sans-Serif" font-size="10.00">pybind11/pybind11.h</text>
</a>
</g>
</g>
<!-- Node0&#45;&gt;Node4 -->
<g id="edge4" class="edge">
<title>Node0&#45;&gt;Node4</title>
<path fill="none" stroke="midnightblue" d="M248.16,-57.32C268.66,-46.47 291.38,-34.45 308.41,-25.45"/>
<polygon fill="midnightblue" stroke="midnightblue" points="310.51,-28.29 317.72,-20.52 307.24,-22.11 310.51,-28.29"/>
</g>
<!-- Node5 -->
<g id="node6" class="node">
<title>Node5</title>
<g id="a_node6"><a xlink:title=" ">
<polygon fill="white" stroke="#bfbfbf" points="407.15,-0.5 407.15,-20.5 490.4,-20.5 490.4,-0.5 407.15,-0.5"/>
<text text-anchor="middle" x="448.78" y="-7.5" font-family="Helvetica,sans-Serif" font-size="10.00">hate/type_list.h</text>
</a>
</g>
</g>
<!-- Node0&#45;&gt;Node5 -->
<g id="edge5" class="edge">
<title>Node0&#45;&gt;Node5</title>
<path fill="none" stroke="midnightblue" d="M286.69,-58.45C328.06,-46.47 375.11,-32.84 407.82,-23.37"/>
<polygon fill="midnightblue" stroke="midnightblue" points="408.86,-26.71 417.49,-20.56 406.91,-19.99 408.86,-26.71"/>
</g>
</g>
</svg>
