<?xml version="1.0" encoding="UTF-8" standalone="no"?>
<!DOCTYPE svg PUBLIC "-//W3C//DTD SVG 1.1//EN"
 "http://www.w3.org/Graphics/SVG/1.1/DTD/svg11.dtd">
<!-- Generated by graphviz version 2.43.0 (0)
 -->
<!-- Title: /jenkins/jenlib_workspaces_f9/bld_nightly&#45;haldls.YmxkX25pZ2h0bHktaGFsZGxzIzQ5OA.x/haldls/include/haldls/v2/playback.h Pages: 1 -->
<!--zoomable 305 -->
<svg id="main" version="1.1" xmlns="http://www.w3.org/2000/svg" xmlns:xlink="http://www.w3.org/1999/xlink" xml:space="preserve" onload="init(evt)">
<style type="text/css"><![CDATA[
.edge:hover path { stroke: red; }
.edge:hover polygon { stroke: red; fill: red; }
]]></style>
<script type="text/javascript"><![CDATA[
var edges = document.getElementsByTagName('g');
if (edges && edges.length) {
  for (var i=0;i<edges.length;i++) {
    if (edges[i].id.substr(0,4)=='edge') {
      edges[i].setAttribute('class','edge');
    }
  }
}
]]></script>
        <defs>
                <circle id="rim" cx="0" cy="0" r="7"/>
                <circle id="rim2" cx="0" cy="0" r="3.5"/>
                <g id="zoomPlus">
                        <use xlink:href="#rim" fill="#404040">
                                <set attributeName="fill" to="#808080" begin="zoomplus.mouseover" end="zoomplus.mouseout"/>
                        </use>
                        <path d="M-4,0h8M0,-4v8" fill="none" stroke="white" stroke-width="1.5" pointer-events="none"/>
                </g>
                <g id="zoomMin">
                        <use xlink:href="#rim" fill="#404040">
                                <set attributeName="fill" to="#808080" begin="zoomminus.mouseover" end="zoomminus.mouseout"/>
                        </use>
                        <path d="M-4,0h8" fill="none" stroke="white" stroke-width="1.5" pointer-events="none"/>
                </g>
                <g id="dirArrow">
                        <path fill="none" stroke="white" stroke-width="1.5" d="M0,-3.0v7 M-2.5,-0.5L0,-3.0L2.5,-0.5"/>
                </g>
               <g id="resetDef">
                       <use xlink:href="#rim2" fill="#404040">
                               <set attributeName="fill" to="#808080" begin="reset.mouseover" end="reset.mouseout"/>
                       </use>
               </g>
        </defs>

<script type="text/javascript">
var viewWidth = 1791;
var viewHeight = 305;
var sectionId = 'dynsection-0';
</script>
<script xlink:href="svgpan.js"/>
<svg id="graph" class="graph">
<g id="viewport">
<title>/jenkins/jenlib_workspaces_f9/bld_nightly&#45;haldls.YmxkX25pZ2h0bHktaGFsZGxzIzQ5OA.x/haldls/include/haldls/v2/playback.h</title>
<polygon fill="white" stroke="transparent" points="-4,4 -4,-301 1786.74,-301 1786.74,4 -4,4"/>
<!-- Node0 -->
<g id="node1" class="node">
<title>Node0</title>
<g id="a_node1"><a xlink:title=" ">
<polygon fill="#bfbfbf" stroke="black" points="1238.76,-240.5 1238.76,-296.5 1418.68,-296.5 1418.68,-240.5 1238.76,-240.5"/>
<text text-anchor="start" x="1246.76" y="-283.5" font-family="Helvetica,sans-Serif" font-size="10.00">/jenkins/jenlib_workspaces</text>
<text text-anchor="start" x="1246.76" y="-271.5" font-family="Helvetica,sans-Serif" font-size="10.00">_f9/bld_nightly&#45;haldls.YmxkX25p</text>
<text text-anchor="start" x="1246.76" y="-259.5" font-family="Helvetica,sans-Serif" font-size="10.00">Z2h0bHktaGFsZGxzIzQ5OA.x/haldls</text>
<text text-anchor="middle" x="1328.72" y="-247.5" font-family="Helvetica,sans-Serif" font-size="10.00">/include/haldls/v2/playback.h</text>
</a>
</g>
</g>
<!-- Node1 -->
<g id="node2" class="node">
<title>Node1</title>
<g id="a_node2"><a xlink:title=" ">
<polygon fill="white" stroke="#bfbfbf" points="0,-183.5 0,-203.5 45.44,-203.5 45.44,-183.5 0,-183.5"/>
<text text-anchor="middle" x="22.72" y="-190.5" font-family="Helvetica,sans-Serif" font-size="10.00">atomic</text>
</a>
</g>
</g>
<!-- Node0&#45;&gt;Node1 -->
<g id="edge1" class="edge">
<title>Node0&#45;&gt;Node1</title>
<path fill="none" stroke="midnightblue" d="M1238.7,-265.35C988.38,-259 287.49,-238.58 59.72,-204 58.43,-203.8 57.12,-203.58 55.8,-203.34"/>
<polygon fill="midnightblue" stroke="midnightblue" points="56.18,-199.84 45.67,-201.15 54.7,-206.68 56.18,-199.84"/>
</g>
<!-- Node2 -->
<g id="node3" class="node">
<title>Node2</title>
<g id="a_node3"><a xlink:title=" ">
<polygon fill="white" stroke="#bfbfbf" points="856.27,-0.5 856.27,-20.5 901.17,-20.5 901.17,-0.5 856.27,-0.5"/>
<text text-anchor="middle" x="878.72" y="-7.5" font-family="Helvetica,sans-Serif" font-size="10.00">cstdint</text>
</a>
</g>
</g>
<!-- Node0&#45;&gt;Node2 -->
<g id="edge2" class="edge">
<title>Node0&#45;&gt;Node2</title>
<path fill="none" stroke="midnightblue" d="M1238.48,-266.7C1030.32,-264.04 521.87,-252.61 358.72,-204 309.32,-189.28 283.71,-191.51 257.72,-147 239.84,-116.37 271.54,-69.45 289.72,-57 338.89,-23.32 751.52,-31.19 846.22,-20.31"/>
<polygon fill="midnightblue" stroke="midnightblue" points="846.75,-23.77 856.15,-18.88 845.75,-16.84 846.75,-23.77"/>
</g>
<!-- Node3 -->
<g id="node4" class="node">
<title>Node3</title>
<g id="a_node4"><a xlink:title=" ">
<polygon fill="white" stroke="#bfbfbf" points="1375.67,-183.5 1375.67,-203.5 1427.77,-203.5 1427.77,-183.5 1375.67,-183.5"/>
<text text-anchor="middle" x="1401.72" y="-190.5" font-family="Helvetica,sans-Serif" font-size="10.00">memory</text>
</a>
</g>
</g>
<!-- Node0&#45;&gt;Node3 -->
<g id="edge3" class="edge">
<title>Node0&#45;&gt;Node3</title>
<path fill="none" stroke="midnightblue" d="M1355.91,-240.32C1365.84,-230.39 1376.75,-219.47 1385.44,-210.78"/>
<polygon fill="midnightblue" stroke="midnightblue" points="1388.1,-213.07 1392.7,-203.52 1383.15,-208.12 1388.1,-213.07"/>
</g>
<!-- Node4 -->
<g id="node5" class="node">
<title>Node4</title>
<g id="a_node5"><a xlink:title=" ">
<polygon fill="white" stroke="#bfbfbf" points="1445.5,-183.5 1445.5,-203.5 1485.94,-203.5 1485.94,-183.5 1445.5,-183.5"/>
<text text-anchor="middle" x="1465.72" y="-190.5" font-family="Helvetica,sans-Serif" font-size="10.00">string</text>
</a>
</g>
</g>
<!-- Node0&#45;&gt;Node4 -->
<g id="edge4" class="edge">
<title>Node0&#45;&gt;Node4</title>
<path fill="none" stroke="midnightblue" d="M1379.74,-240.32C1400.09,-229.47 1422.64,-217.45 1439.55,-208.45"/>
<polygon fill="midnightblue" stroke="midnightblue" points="1441.61,-211.32 1448.79,-203.52 1438.31,-205.14 1441.61,-211.32"/>
</g>
<!-- Node5 -->
<g id="node6" class="node">
<title>Node5</title>
<g id="a_node6"><a xlink:title=" ">
<polygon fill="white" stroke="#bfbfbf" points="1504.11,-183.5 1504.11,-203.5 1547.34,-203.5 1547.34,-183.5 1504.11,-183.5"/>
<text text-anchor="middle" x="1525.72" y="-190.5" font-family="Helvetica,sans-Serif" font-size="10.00">vector</text>
</a>
</g>
</g>
<!-- Node0&#45;&gt;Node5 -->
<g id="edge5" class="edge">
<title>Node0&#45;&gt;Node5</title>
<path fill="none" stroke="midnightblue" d="M1401.8,-240.42C1433.75,-228.58 1469.53,-215.32 1494.4,-206.11"/>
<polygon fill="midnightblue" stroke="midnightblue" points="1495.86,-209.3 1504.02,-202.54 1493.43,-202.73 1495.86,-209.3"/>
</g>
<!-- Node6 -->
<g id="node7" class="node">
<title>Node6</title>
<g id="a_node7"><a xlink:href="chip_8h.html" target="_top" xlink:title=" ">
<polygon fill="white" stroke="black" points="909.27,-183.5 909.27,-203.5 994.18,-203.5 994.18,-183.5 909.27,-183.5"/>
<text text-anchor="middle" x="951.72" y="-190.5" font-family="Helvetica,sans-Serif" font-size="10.00">haldls/v2/chip.h</text>
</a>
</g>
</g>
<!-- Node0&#45;&gt;Node6 -->
<g id="edge6" class="edge">
<title>Node0&#45;&gt;Node6</title>
<path fill="none" stroke="midnightblue" d="M1238.42,-250.01C1165.32,-235.86 1064.88,-216.41 1004.34,-204.69"/>
<polygon fill="midnightblue" stroke="midnightblue" points="1004.73,-201.2 994.25,-202.73 1003.4,-208.07 1004.73,-201.2"/>
</g>
<!-- Node10 -->
<g id="node11" class="node">
<title>Node10</title>
<g id="a_node11"><a xlink:title=" ">
<polygon fill="white" stroke="#bfbfbf" points="979.22,-63.5 979.22,-83.5 1060.23,-83.5 1060.23,-63.5 979.22,-63.5"/>
<text text-anchor="middle" x="1019.72" y="-70.5" font-family="Helvetica,sans-Serif" font-size="10.00">hate/visibility.h</text>
</a>
</g>
</g>
<!-- Node0&#45;&gt;Node10 -->
<g id="edge74" class="edge">
<title>Node0&#45;&gt;Node10</title>
<path fill="none" stroke="midnightblue" d="M1334.98,-240.18C1340.5,-221.77 1350.29,-198.16 1366.72,-183 1404.6,-148.04 1502.44,-164.1 1467.72,-126 1438.71,-94.16 1124.18,-97.24 1081.72,-90 1075.33,-88.91 1068.63,-87.51 1062.1,-86"/>
<polygon fill="midnightblue" stroke="midnightblue" points="1062.57,-82.51 1052.03,-83.56 1060.92,-89.32 1062.57,-82.51"/>
</g>
<!-- Node12 -->
<g id="node13" class="node">
<title>Node12</title>
<g id="a_node13"><a xlink:href="v2_2common_8h.html" target="_top" xlink:title=" ">
<polygon fill="white" stroke="black" points="826.27,-63.5 826.27,-83.5 931.17,-83.5 931.17,-63.5 826.27,-63.5"/>
<text text-anchor="middle" x="878.72" y="-70.5" font-family="Helvetica,sans-Serif" font-size="10.00">haldls/v2/common.h</text>
</a>
</g>
</g>
<!-- Node0&#45;&gt;Node12 -->
<g id="edge64" class="edge">
<title>Node0&#45;&gt;Node12</title>
<path fill="none" stroke="midnightblue" d="M1318.14,-240.49C1303.7,-207.54 1274.51,-152.91 1230.72,-126 1130.96,-64.69 1085.45,-107.83 969.72,-90 960.2,-88.53 950.13,-86.9 940.3,-85.26"/>
<polygon fill="midnightblue" stroke="midnightblue" points="940.61,-81.76 930.17,-83.56 939.45,-88.67 940.61,-81.76"/>
</g>
<!-- Node15 -->
<g id="node16" class="node">
<title>Node15</title>
<g id="a_node16"><a xlink:href="v2_2genpybind_8h.html" target="_top" xlink:title=" ">
<polygon fill="white" stroke="black" points="540.37,-63.5 540.37,-83.5 653.07,-83.5 653.07,-63.5 540.37,-63.5"/>
<text text-anchor="middle" x="596.72" y="-70.5" font-family="Helvetica,sans-Serif" font-size="10.00">haldls/v2/genpybind.h</text>
</a>
</g>
</g>
<!-- Node0&#45;&gt;Node15 -->
<g id="edge65" class="edge">
<title>Node0&#45;&gt;Node15</title>
<path fill="none" stroke="midnightblue" d="M1238.6,-264.15C993.51,-254.1 328.9,-220.28 265.72,-147 259.63,-139.93 259.58,-133.03 265.72,-126 304.97,-81.08 473.08,-100.93 531.72,-90 538.31,-88.77 545.24,-87.31 552.01,-85.78"/>
<polygon fill="midnightblue" stroke="midnightblue" points="552.83,-89.18 561.78,-83.51 551.24,-82.36 552.83,-89.18"/>
</g>
<!-- Node25 -->
<g id="node26" class="node">
<title>Node25</title>
<g id="a_node26"><a xlink:href="spike_8h.html" target="_top" xlink:title=" ">
<polygon fill="white" stroke="black" points="657.77,-183.5 657.77,-203.5 747.68,-203.5 747.68,-183.5 657.77,-183.5"/>
<text text-anchor="middle" x="702.72" y="-190.5" font-family="Helvetica,sans-Serif" font-size="10.00">haldls/v2/spike.h</text>
</a>
</g>
</g>
<!-- Node0&#45;&gt;Node25 -->
<g id="edge66" class="edge">
<title>Node0&#45;&gt;Node25</title>
<path fill="none" stroke="midnightblue" d="M1238.7,-257C1107.1,-241.66 866.13,-213.56 757.91,-200.94"/>
<polygon fill="midnightblue" stroke="midnightblue" points="758.2,-197.45 747.86,-199.76 757.39,-204.4 758.2,-197.45"/>
</g>
<!-- Node26 -->
<g id="node27" class="node">
<title>Node26</title>
<g id="a_node27"><a xlink:title=" ">
<polygon fill="white" stroke="#bfbfbf" points="1565.1,-183.5 1565.1,-203.5 1648.35,-203.5 1648.35,-183.5 1565.1,-183.5"/>
<text text-anchor="middle" x="1606.72" y="-190.5" font-family="Helvetica,sans-Serif" font-size="10.00">hate/type_list.h</text>
</a>
</g>
</g>
<!-- Node0&#45;&gt;Node26 -->
<g id="edge73" class="edge">
<title>Node0&#45;&gt;Node26</title>
<path fill="none" stroke="midnightblue" d="M1418.98,-243.8C1467.01,-231.19 1523.93,-216.24 1562.4,-206.14"/>
<polygon fill="midnightblue" stroke="midnightblue" points="1563.47,-209.48 1572.25,-203.55 1561.69,-202.71 1563.47,-209.48"/>
</g>
<!-- Node27 -->
<g id="node28" class="node">
<title>Node27</title>
<g id="a_node28"><a xlink:title=" ">
<polygon fill="white" stroke="#bfbfbf" points="1666.71,-183.5 1666.71,-203.5 1782.74,-203.5 1782.74,-183.5 1666.71,-183.5"/>
<text text-anchor="middle" x="1724.72" y="-190.5" font-family="Helvetica,sans-Serif" font-size="10.00">haldls/v2/container.def</text>
</a>
</g>
</g>
<!-- Node0&#45;&gt;Node27 -->
<g id="edge75" class="edge">
<title>Node0&#45;&gt;Node27</title>
<path fill="none" stroke="midnightblue" d="M1419.08,-250.84C1494.7,-236.9 1600.42,-217.41 1665.63,-205.39"/>
<polygon fill="midnightblue" stroke="midnightblue" points="1666.54,-208.79 1675.74,-203.53 1665.27,-201.9 1666.54,-208.79"/>
</g>
<!-- Node7 -->
<g id="node8" class="node">
<title>Node7</title>
<g id="a_node8"><a xlink:title=" ">
<polygon fill="white" stroke="#bfbfbf" points="1090.6,-57.5 1090.6,-89.5 1198.84,-89.5 1198.84,-57.5 1090.6,-57.5"/>
<text text-anchor="start" x="1098.6" y="-76.5" font-family="Helvetica,sans-Serif" font-size="10.00">halco/common/typed</text>
<text text-anchor="middle" x="1144.72" y="-64.5" font-family="Helvetica,sans-Serif" font-size="10.00">_array.h</text>
</a>
</g>
</g>
<!-- Node6&#45;&gt;Node7 -->
<g id="edge7" class="edge">
<title>Node6&#45;&gt;Node7</title>
<path fill="none" stroke="midnightblue" d="M994.31,-191.97C1112.15,-190.05 1435.99,-181.65 1467.72,-147 1474.03,-140.12 1473.78,-133.1 1467.72,-126 1435.14,-87.81 1293.48,-77.81 1208.97,-75.27"/>
<polygon fill="midnightblue" stroke="midnightblue" points="1209.05,-71.77 1198.95,-75 1208.85,-78.77 1209.05,-71.77"/>
</g>
<!-- Node8 -->
<g id="node9" class="node">
<title>Node8</title>
<g id="a_node9"><a xlink:title=" ">
<polygon fill="white" stroke="#bfbfbf" points="688.93,-57.5 688.93,-89.5 790.51,-89.5 790.51,-57.5 688.93,-57.5"/>
<text text-anchor="start" x="696.93" y="-76.5" font-family="Helvetica,sans-Serif" font-size="10.00">halco/hicann&#45;dls/v2</text>
<text text-anchor="middle" x="739.72" y="-64.5" font-family="Helvetica,sans-Serif" font-size="10.00">/coordinates.h</text>
</a>
</g>
</g>
<!-- Node6&#45;&gt;Node8 -->
<g id="edge8" class="edge">
<title>Node6&#45;&gt;Node8</title>
<path fill="none" stroke="midnightblue" d="M908.98,-190.97C808.19,-186.93 562.21,-174.33 537.72,-147 470.6,-72.09 405.84,-158.42 678.81,-90.2"/>
<polygon fill="midnightblue" stroke="midnightblue" points="679.83,-93.55 688.66,-87.71 678.11,-86.77 679.83,-93.55"/>
</g>
<!-- Node9 -->
<g id="node10" class="node">
<title>Node9</title>
<g id="a_node10"><a xlink:title=" ">
<polygon fill="white" stroke="#bfbfbf" points="852.93,-126.5 852.93,-146.5 934.51,-146.5 934.51,-126.5 852.93,-126.5"/>
<text text-anchor="middle" x="893.72" y="-133.5" font-family="Helvetica,sans-Serif" font-size="10.00">hate/optional.h</text>
</a>
</g>
</g>
<!-- Node6&#45;&gt;Node9 -->
<g id="edge9" class="edge">
<title>Node6&#45;&gt;Node9</title>
<path fill="none" stroke="midnightblue" d="M942.14,-183.42C933.72,-175.42 921.24,-163.59 911.06,-153.94"/>
<polygon fill="midnightblue" stroke="midnightblue" points="913.17,-151.12 903.51,-146.78 908.36,-156.2 913.17,-151.12"/>
</g>
<!-- Node6&#45;&gt;Node10 -->
<g id="edge10" class="edge">
<title>Node6&#45;&gt;Node10</title>
<path fill="none" stroke="midnightblue" d="M994.56,-191.82C1109.87,-189.56 1420.22,-180.41 1450.72,-147 1506.67,-85.72 1163.48,-104.13 1081.72,-90 1075.34,-88.9 1068.64,-87.49 1062.1,-85.98"/>
<polygon fill="midnightblue" stroke="midnightblue" points="1062.57,-82.49 1052.03,-83.54 1060.92,-89.29 1062.57,-82.49"/>
</g>
<!-- Node11 -->
<g id="node12" class="node">
<title>Node11</title>
<g id="a_node12"><a xlink:href="v2_2capmem_8h.html" target="_top" xlink:title=" ">
<polygon fill="white" stroke="black" points="1337.27,-126.5 1337.27,-146.5 1442.17,-146.5 1442.17,-126.5 1337.27,-126.5"/>
<text text-anchor="middle" x="1389.72" y="-133.5" font-family="Helvetica,sans-Serif" font-size="10.00">haldls/v2/capmem.h</text>
</a>
</g>
</g>
<!-- Node6&#45;&gt;Node11 -->
<g id="edge11" class="edge">
<title>Node6&#45;&gt;Node11</title>
<path fill="none" stroke="midnightblue" d="M994.52,-187.13C1072.14,-177.38 1236.46,-156.75 1326.85,-145.39"/>
<polygon fill="midnightblue" stroke="midnightblue" points="1327.48,-148.84 1336.97,-144.12 1326.61,-141.9 1327.48,-148.84"/>
</g>
<!-- Node6&#45;&gt;Node12 -->
<g id="edge22" class="edge">
<title>Node6&#45;&gt;Node12</title>
<path fill="none" stroke="midnightblue" d="M994.28,-191.53C1061.39,-189 1187.04,-179.88 1214.72,-147 1220.73,-139.86 1220.82,-133.06 1214.72,-126 1178.75,-84.36 1024.07,-98.62 969.72,-90 960.32,-88.51 950.39,-86.88 940.68,-85.25"/>
<polygon fill="midnightblue" stroke="midnightblue" points="941.1,-81.77 930.66,-83.56 939.94,-88.67 941.1,-81.77"/>
</g>
<!-- Node6&#45;&gt;Node15 -->
<g id="edge30" class="edge">
<title>Node6&#45;&gt;Node15</title>
<path fill="none" stroke="midnightblue" d="M909.12,-190.38C763.43,-183.04 293.46,-158.5 282.72,-147 276.35,-140.18 276.61,-133.06 282.72,-126 319.32,-83.73 476.81,-100.49 531.72,-90 538.08,-88.79 544.75,-87.36 551.3,-85.88"/>
<polygon fill="midnightblue" stroke="midnightblue" points="552.48,-89.2 561.43,-83.53 550.89,-82.39 552.48,-89.2"/>
</g>
<!-- Node16 -->
<g id="node17" class="node">
<title>Node16</title>
<g id="a_node17"><a xlink:href="v2_2correlation_8h.html" target="_top" xlink:title=" ">
<polygon fill="white" stroke="black" points="952.1,-126.5 952.1,-146.5 1065.34,-146.5 1065.34,-126.5 952.1,-126.5"/>
<text text-anchor="middle" x="1008.72" y="-133.5" font-family="Helvetica,sans-Serif" font-size="10.00">haldls/v2/correlation.h</text>
</a>
</g>
</g>
<!-- Node6&#45;&gt;Node16 -->
<g id="edge23" class="edge">
<title>Node6&#45;&gt;Node16</title>
<path fill="none" stroke="midnightblue" d="M961.13,-183.42C969.42,-175.42 981.68,-163.59 991.69,-153.94"/>
<polygon fill="midnightblue" stroke="midnightblue" points="994.34,-156.24 999.11,-146.78 989.48,-151.2 994.34,-156.24"/>
</g>
<!-- Node18 -->
<g id="node19" class="node">
<title>Node18</title>
<g id="a_node19"><a xlink:href="v2_2neuron_8h.html" target="_top" xlink:title=" ">
<polygon fill="white" stroke="black" points="291.88,-126.5 291.88,-146.5 389.57,-146.5 389.57,-126.5 291.88,-126.5"/>
<text text-anchor="middle" x="340.72" y="-133.5" font-family="Helvetica,sans-Serif" font-size="10.00">haldls/v2/neuron.h</text>
</a>
</g>
</g>
<!-- Node6&#45;&gt;Node18 -->
<g id="edge31" class="edge">
<title>Node6&#45;&gt;Node18</title>
<path fill="none" stroke="midnightblue" d="M909.2,-190.22C817.79,-185.05 595.59,-171.09 399.99,-147.2"/>
<polygon fill="midnightblue" stroke="midnightblue" points="400.16,-143.7 389.81,-145.95 399.31,-150.65 400.16,-143.7"/>
</g>
<!-- Node20 -->
<g id="node21" class="node">
<title>Node20</title>
<g id="a_node21"><a xlink:href="v2_2ppu_8h.html" target="_top" xlink:title=" ">
<polygon fill="white" stroke="black" points="407.1,-126.5 407.1,-146.5 490.35,-146.5 490.35,-126.5 407.1,-126.5"/>
<text text-anchor="middle" x="448.72" y="-133.5" font-family="Helvetica,sans-Serif" font-size="10.00">haldls/v2/ppu.h</text>
</a>
</g>
</g>
<!-- Node6&#45;&gt;Node20 -->
<g id="edge38" class="edge">
<title>Node6&#45;&gt;Node20</title>
<path fill="none" stroke="midnightblue" d="M909.08,-189.11C829.44,-182.57 652.75,-167.07 504.72,-147 503.43,-146.82 502.12,-146.64 500.8,-146.45"/>
<polygon fill="midnightblue" stroke="midnightblue" points="500.98,-142.94 490.57,-144.91 499.94,-149.86 500.98,-142.94"/>
</g>
<!-- Node22 -->
<g id="node23" class="node">
<title>Node22</title>
<g id="a_node23"><a xlink:href="rate__counter_8h.html" target="_top" xlink:title=" ">
<polygon fill="white" stroke="black" points="1083.37,-126.5 1083.37,-146.5 1206.07,-146.5 1206.07,-126.5 1083.37,-126.5"/>
<text text-anchor="middle" x="1144.72" y="-133.5" font-family="Helvetica,sans-Serif" font-size="10.00">haldls/v2/rate_counter.h</text>
</a>
</g>
</g>
<!-- Node6&#45;&gt;Node22 -->
<g id="edge45" class="edge">
<title>Node6&#45;&gt;Node22</title>
<path fill="none" stroke="midnightblue" d="M983.59,-183.42C1016.38,-174.08 1067.58,-159.48 1103.45,-149.26"/>
<polygon fill="midnightblue" stroke="midnightblue" points="1104.47,-152.61 1113.13,-146.5 1102.55,-145.88 1104.47,-152.61"/>
</g>
<!-- Node23 -->
<g id="node24" class="node">
<title>Node23</title>
<g id="a_node24"><a xlink:href="v2_2synapse_8h.html" target="_top" xlink:title=" ">
<polygon fill="white" stroke="black" points="730.82,-126.5 730.82,-146.5 834.63,-146.5 834.63,-126.5 730.82,-126.5"/>
<text text-anchor="middle" x="782.72" y="-133.5" font-family="Helvetica,sans-Serif" font-size="10.00">haldls/v2/synapse.h</text>
</a>
</g>
</g>
<!-- Node6&#45;&gt;Node23 -->
<g id="edge51" class="edge">
<title>Node6&#45;&gt;Node23</title>
<path fill="none" stroke="midnightblue" d="M923.82,-183.42C895.48,-174.19 851.42,-159.86 820.08,-149.66"/>
<polygon fill="midnightblue" stroke="midnightblue" points="820.98,-146.27 810.39,-146.5 818.82,-152.93 820.98,-146.27"/>
</g>
<!-- Node24 -->
<g id="node25" class="node">
<title>Node24</title>
<g id="a_node25"><a xlink:href="synapsedriver_8h.html" target="_top" xlink:title=" ">
<polygon fill="white" stroke="black" points="546.32,-126.5 546.32,-146.5 675.12,-146.5 675.12,-126.5 546.32,-126.5"/>
<text text-anchor="middle" x="610.72" y="-133.5" font-family="Helvetica,sans-Serif" font-size="10.00">haldls/v2/synapsedriver.h</text>
</a>
</g>
</g>
<!-- Node6&#45;&gt;Node24 -->
<g id="edge58" class="edge">
<title>Node6&#45;&gt;Node24</title>
<path fill="none" stroke="midnightblue" d="M909.22,-185.65C850.98,-176.25 745.76,-159.28 677.08,-148.2"/>
<polygon fill="midnightblue" stroke="midnightblue" points="677.23,-144.68 666.8,-146.55 676.12,-151.59 677.23,-144.68"/>
</g>
<!-- Node11&#45;&gt;Node2 -->
<g id="edge12" class="edge">
<title>Node11&#45;&gt;Node2</title>
<path fill="none" stroke="midnightblue" d="M1373.24,-126.47C1341.99,-109.77 1271.5,-74.24 1207.72,-57 1082.49,-23.16 1042.85,-46.8 911.37,-20.77"/>
<polygon fill="midnightblue" stroke="midnightblue" points="911.83,-17.29 901.33,-18.72 910.43,-24.15 911.83,-17.29"/>
</g>
<!-- Node11&#45;&gt;Node7 -->
<g id="edge13" class="edge">
<title>Node11&#45;&gt;Node7</title>
<path fill="none" stroke="midnightblue" d="M1353.57,-126.5C1315.63,-117.05 1255.19,-102 1209.07,-90.52"/>
<polygon fill="midnightblue" stroke="midnightblue" points="1209.71,-87.07 1199.16,-88.05 1208.02,-93.87 1209.71,-87.07"/>
</g>
<!-- Node11&#45;&gt;Node8 -->
<g id="edge14" class="edge">
<title>Node11&#45;&gt;Node8</title>
<path fill="none" stroke="midnightblue" d="M1336.96,-132.1C1215.17,-124.11 917.26,-103.8 817.72,-90 812.25,-89.24 806.59,-88.34 800.92,-87.36"/>
<polygon fill="midnightblue" stroke="midnightblue" points="801.23,-83.86 790.77,-85.53 799.98,-90.75 801.23,-83.86"/>
</g>
<!-- Node11&#45;&gt;Node10 -->
<g id="edge15" class="edge">
<title>Node11&#45;&gt;Node10</title>
<path fill="none" stroke="midnightblue" d="M1337.02,-127.85C1252.32,-115.54 1094.1,-92.46 1081.72,-90 1075.8,-88.82 1069.59,-87.45 1063.48,-86.01"/>
<polygon fill="midnightblue" stroke="midnightblue" points="1063.92,-82.51 1053.37,-83.55 1062.26,-89.31 1063.92,-82.51"/>
</g>
<!-- Node11&#45;&gt;Node12 -->
<g id="edge16" class="edge">
<title>Node11&#45;&gt;Node12</title>
<path fill="none" stroke="midnightblue" d="M1337.15,-127.73C1332.61,-127.12 1328.09,-126.54 1323.72,-126 1166.76,-106.73 1126.43,-111.29 969.72,-90 959.49,-88.61 948.65,-86.94 938.15,-85.21"/>
<polygon fill="midnightblue" stroke="midnightblue" points="938.66,-81.75 928.22,-83.55 937.51,-88.66 938.66,-81.75"/>
</g>
<!-- Node11&#45;&gt;Node15 -->
<g id="edge20" class="edge">
<title>Node11&#45;&gt;Node15</title>
<path fill="none" stroke="midnightblue" d="M1337.07,-132.49C1183.74,-123.69 744.3,-98.07 679.72,-90 669.9,-88.77 659.49,-87.12 649.48,-85.34"/>
<polygon fill="midnightblue" stroke="midnightblue" points="650.11,-81.9 639.65,-83.54 648.85,-88.78 650.11,-81.9"/>
</g>
<!-- Node12&#45;&gt;Node2 -->
<g id="edge17" class="edge">
<title>Node12&#45;&gt;Node2</title>
<path fill="none" stroke="midnightblue" d="M878.72,-63.5C878.72,-54.94 878.72,-41.78 878.72,-30.85"/>
<polygon fill="midnightblue" stroke="midnightblue" points="882.22,-30.54 878.72,-20.54 875.22,-30.54 882.22,-30.54"/>
</g>
<!-- Node13 -->
<g id="node14" class="node">
<title>Node13</title>
<g id="a_node14"><a xlink:title=" ">
<polygon fill="white" stroke="#bfbfbf" points="775.66,-0.5 775.66,-20.5 837.78,-20.5 837.78,-0.5 775.66,-0.5"/>
<text text-anchor="middle" x="806.72" y="-7.5" font-family="Helvetica,sans-Serif" font-size="10.00">type_traits</text>
</a>
</g>
</g>
<!-- Node12&#45;&gt;Node13 -->
<g id="edge18" class="edge">
<title>Node12&#45;&gt;Node13</title>
<path fill="none" stroke="midnightblue" d="M868.1,-63.5C856.83,-53.95 838.8,-38.67 825.19,-27.15"/>
<polygon fill="midnightblue" stroke="midnightblue" points="827.28,-24.33 817.39,-20.54 822.76,-29.67 827.28,-24.33"/>
</g>
<!-- Node14 -->
<g id="node15" class="node">
<title>Node14</title>
<g id="a_node15"><a xlink:title=" ">
<polygon fill="white" stroke="#bfbfbf" points="919.34,-0.5 919.34,-20.5 958.11,-20.5 958.11,-0.5 919.34,-0.5"/>
<text text-anchor="middle" x="938.72" y="-7.5" font-family="Helvetica,sans-Serif" font-size="10.00">utility</text>
</a>
</g>
</g>
<!-- Node12&#45;&gt;Node14 -->
<g id="edge19" class="edge">
<title>Node12&#45;&gt;Node14</title>
<path fill="none" stroke="midnightblue" d="M887.58,-63.5C896.79,-54.13 911.43,-39.25 922.69,-27.8"/>
<polygon fill="midnightblue" stroke="midnightblue" points="925.32,-30.12 929.83,-20.54 920.33,-25.21 925.32,-30.12"/>
</g>
<!-- Node15&#45;&gt;Node15 -->
<g id="edge21" class="edge">
<title>Node15&#45;&gt;Node15</title>
<path fill="none" stroke="midnightblue" d="M625.34,-83.56C647.91,-87.45 671.07,-84.1 671.07,-73.5 671.07,-64.48 654.28,-60.71 635.35,-62.19"/>
<polygon fill="midnightblue" stroke="midnightblue" points="634.82,-58.73 625.34,-63.44 635.69,-65.67 634.82,-58.73"/>
</g>
<!-- Node16&#45;&gt;Node7 -->
<g id="edge25" class="edge">
<title>Node16&#45;&gt;Node7</title>
<path fill="none" stroke="midnightblue" d="M1028.79,-126.5C1047.9,-117.93 1077.29,-104.74 1101.7,-93.8"/>
<polygon fill="midnightblue" stroke="midnightblue" points="1103.43,-96.86 1111.12,-89.57 1100.56,-90.47 1103.43,-96.86"/>
</g>
<!-- Node16&#45;&gt;Node8 -->
<g id="edge26" class="edge">
<title>Node16&#45;&gt;Node8</title>
<path fill="none" stroke="midnightblue" d="M969.03,-126.5C924.64,-116.43 852.21,-100.01 800.64,-88.31"/>
<polygon fill="midnightblue" stroke="midnightblue" points="801.14,-84.84 790.62,-86.04 799.59,-91.67 801.14,-84.84"/>
</g>
<!-- Node16&#45;&gt;Node10 -->
<g id="edge27" class="edge">
<title>Node16&#45;&gt;Node10</title>
<path fill="none" stroke="midnightblue" d="M1010.35,-126.5C1011.91,-117.85 1014.31,-104.51 1016.3,-93.5"/>
<polygon fill="midnightblue" stroke="midnightblue" points="1019.76,-94 1018.09,-83.54 1012.87,-92.76 1019.76,-94"/>
</g>
<!-- Node16&#45;&gt;Node12 -->
<g id="edge28" class="edge">
<title>Node16&#45;&gt;Node12</title>
<path fill="none" stroke="midnightblue" d="M989.54,-126.5C967.84,-116.32 932.28,-99.63 907.31,-87.91"/>
<polygon fill="midnightblue" stroke="midnightblue" points="908.52,-84.62 897.98,-83.54 905.55,-90.95 908.52,-84.62"/>
</g>
<!-- Node16&#45;&gt;Node15 -->
<g id="edge29" class="edge">
<title>Node16&#45;&gt;Node15</title>
<path fill="none" stroke="midnightblue" d="M952.01,-127.18C949.21,-126.78 946.43,-126.38 943.72,-126 826.47,-109.44 796.63,-108.87 679.72,-90 671,-88.59 661.77,-86.99 652.78,-85.35"/>
<polygon fill="midnightblue" stroke="midnightblue" points="653.22,-81.88 642.75,-83.51 651.95,-88.76 653.22,-81.88"/>
</g>
<!-- Node17 -->
<g id="node18" class="node">
<title>Node17</title>
<g id="a_node18"><a xlink:title=" ">
<polygon fill="white" stroke="#bfbfbf" points="470.67,-63.5 470.67,-83.5 522.78,-83.5 522.78,-63.5 470.67,-63.5"/>
<text text-anchor="middle" x="496.72" y="-70.5" font-family="Helvetica,sans-Serif" font-size="10.00">ostream</text>
</a>
</g>
</g>
<!-- Node16&#45;&gt;Node17 -->
<g id="edge24" class="edge">
<title>Node16&#45;&gt;Node17</title>
<path fill="none" stroke="midnightblue" d="M952.03,-127.02C949.22,-126.66 946.44,-126.32 943.72,-126 761.15,-104.7 709.72,-135.84 531.72,-90 529.04,-89.31 526.3,-88.43 523.6,-87.45"/>
<polygon fill="midnightblue" stroke="midnightblue" points="524.7,-84.12 514.12,-83.56 522.04,-90.59 524.7,-84.12"/>
</g>
<!-- Node18&#45;&gt;Node8 -->
<g id="edge33" class="edge">
<title>Node18&#45;&gt;Node8</title>
<path fill="none" stroke="midnightblue" d="M389.83,-127.19C392.5,-126.78 395.14,-126.38 397.72,-126 519.55,-108.08 553.91,-113.55 678.81,-90.03"/>
<polygon fill="midnightblue" stroke="midnightblue" points="679.59,-93.44 688.76,-88.13 678.28,-86.57 679.59,-93.44"/>
</g>
<!-- Node18&#45;&gt;Node10 -->
<g id="edge35" class="edge">
<title>Node18&#45;&gt;Node10</title>
<path fill="none" stroke="midnightblue" d="M389.8,-127C392.48,-126.64 395.13,-126.3 397.72,-126 637.53,-98.12 700.3,-121.02 939.72,-90 949.3,-88.76 959.46,-87.08 969.21,-85.28"/>
<polygon fill="midnightblue" stroke="midnightblue" points="970.02,-88.69 979.18,-83.37 968.71,-81.81 970.02,-88.69"/>
</g>
<!-- Node18&#45;&gt;Node12 -->
<g id="edge36" class="edge">
<title>Node18&#45;&gt;Node12</title>
<path fill="none" stroke="midnightblue" d="M389.81,-127.08C392.49,-126.69 395.14,-126.33 397.72,-126 575.65,-103.24 622.13,-115.3 799.72,-90 808.57,-88.74 817.93,-87.14 826.98,-85.45"/>
<polygon fill="midnightblue" stroke="midnightblue" points="827.88,-88.85 837.04,-83.52 826.56,-81.97 827.88,-88.85"/>
</g>
<!-- Node18&#45;&gt;Node15 -->
<g id="edge37" class="edge">
<title>Node18&#45;&gt;Node15</title>
<path fill="none" stroke="midnightblue" d="M378.77,-126.44C417.32,-117.26 478.67,-102.64 531.72,-90 537.36,-88.66 543.28,-87.25 549.14,-85.85"/>
<polygon fill="midnightblue" stroke="midnightblue" points="550,-89.24 558.91,-83.52 548.38,-82.43 550,-89.24"/>
</g>
<!-- Node18&#45;&gt;Node17 -->
<g id="edge32" class="edge">
<title>Node18&#45;&gt;Node17</title>
<path fill="none" stroke="midnightblue" d="M366.38,-126.33C390.99,-117.43 429.11,-103.34 461.72,-90 463.57,-89.25 465.46,-88.45 467.37,-87.65"/>
<polygon fill="midnightblue" stroke="midnightblue" points="469.03,-90.74 476.82,-83.55 466.25,-84.32 469.03,-90.74"/>
</g>
<!-- Node19 -->
<g id="node20" class="node">
<title>Node19</title>
<g id="a_node20"><a xlink:title=" ">
<polygon fill="white" stroke="#bfbfbf" points="299.1,-63.5 299.1,-83.5 382.35,-83.5 382.35,-63.5 299.1,-63.5"/>
<text text-anchor="middle" x="340.72" y="-70.5" font-family="Helvetica,sans-Serif" font-size="10.00">hate/passkey.h</text>
</a>
</g>
</g>
<!-- Node18&#45;&gt;Node19 -->
<g id="edge34" class="edge">
<title>Node18&#45;&gt;Node19</title>
<path fill="none" stroke="midnightblue" d="M340.72,-126.5C340.72,-117.94 340.72,-104.78 340.72,-93.85"/>
<polygon fill="midnightblue" stroke="midnightblue" points="344.22,-93.54 340.72,-83.54 337.22,-93.54 344.22,-93.54"/>
</g>
<!-- Node20&#45;&gt;Node8 -->
<g id="edge41" class="edge">
<title>Node20&#45;&gt;Node8</title>
<path fill="none" stroke="midnightblue" d="M490.61,-128.01C534.92,-119.92 607.11,-106.26 678.62,-90.18"/>
<polygon fill="midnightblue" stroke="midnightblue" points="679.73,-93.52 688.71,-87.89 678.18,-86.69 679.73,-93.52"/>
</g>
<!-- Node20&#45;&gt;Node10 -->
<g id="edge42" class="edge">
<title>Node20&#45;&gt;Node10</title>
<path fill="none" stroke="midnightblue" d="M490.36,-130.91C505.29,-129.3 522.26,-127.52 537.72,-126 716.25,-108.48 762.1,-115.09 939.72,-90 949.29,-88.65 959.44,-86.92 969.19,-85.1"/>
<polygon fill="midnightblue" stroke="midnightblue" points="970,-88.51 979.16,-83.19 968.68,-81.63 970,-88.51"/>
</g>
<!-- Node20&#45;&gt;Node12 -->
<g id="edge43" class="edge">
<title>Node20&#45;&gt;Node12</title>
<path fill="none" stroke="midnightblue" d="M490.45,-130.98C556.34,-123.64 688.43,-108.11 799.72,-90 808.05,-88.64 816.85,-87.07 825.42,-85.45"/>
<polygon fill="midnightblue" stroke="midnightblue" points="826.19,-88.86 835.35,-83.53 824.87,-81.99 826.19,-88.86"/>
</g>
<!-- Node20&#45;&gt;Node15 -->
<g id="edge44" class="edge">
<title>Node20&#45;&gt;Node15</title>
<path fill="none" stroke="midnightblue" d="M470.56,-126.5C495.59,-116.18 536.82,-99.19 565.3,-87.45"/>
<polygon fill="midnightblue" stroke="midnightblue" points="566.88,-90.58 574.79,-83.54 564.22,-84.11 566.88,-90.58"/>
</g>
<!-- Node20&#45;&gt;Node17 -->
<g id="edge40" class="edge">
<title>Node20&#45;&gt;Node17</title>
<path fill="none" stroke="midnightblue" d="M455.81,-126.5C463.04,-117.31 474.44,-102.82 483.37,-91.47"/>
<polygon fill="midnightblue" stroke="midnightblue" points="486.18,-93.56 489.61,-83.54 480.68,-89.23 486.18,-93.56"/>
</g>
<!-- Node21 -->
<g id="node22" class="node">
<title>Node21</title>
<g id="a_node22"><a xlink:title=" ">
<polygon fill="white" stroke="#bfbfbf" points="414.33,-63.5 414.33,-83.5 453.11,-83.5 453.11,-63.5 414.33,-63.5"/>
<text text-anchor="middle" x="433.72" y="-70.5" font-family="Helvetica,sans-Serif" font-size="10.00">array</text>
</a>
</g>
</g>
<!-- Node20&#45;&gt;Node21 -->
<g id="edge39" class="edge">
<title>Node20&#45;&gt;Node21</title>
<path fill="none" stroke="midnightblue" d="M446.51,-126.5C444.38,-117.85 441.1,-104.51 438.4,-93.5"/>
<polygon fill="midnightblue" stroke="midnightblue" points="441.73,-92.41 435.94,-83.54 434.93,-94.08 441.73,-92.41"/>
</g>
<!-- Node22&#45;&gt;Node7 -->
<g id="edge46" class="edge">
<title>Node22&#45;&gt;Node7</title>
<path fill="none" stroke="midnightblue" d="M1144.72,-126.5C1144.72,-119.47 1144.72,-109.34 1144.72,-99.88"/>
<polygon fill="midnightblue" stroke="midnightblue" points="1148.22,-99.69 1144.72,-89.69 1141.22,-99.69 1148.22,-99.69"/>
</g>
<!-- Node22&#45;&gt;Node8 -->
<g id="edge47" class="edge">
<title>Node22&#45;&gt;Node8</title>
<path fill="none" stroke="midnightblue" d="M1083.19,-127.13C995.75,-115.22 843.26,-94.31 817.72,-90 812.28,-89.08 806.63,-88.07 800.97,-87.02"/>
<polygon fill="midnightblue" stroke="midnightblue" points="801.31,-83.52 790.83,-85.1 800,-90.4 801.31,-83.52"/>
</g>
<!-- Node22&#45;&gt;Node10 -->
<g id="edge48" class="edge">
<title>Node22&#45;&gt;Node10</title>
<path fill="none" stroke="midnightblue" d="M1126.28,-126.5C1105.51,-116.36 1071.53,-99.78 1047.53,-88.07"/>
<polygon fill="midnightblue" stroke="midnightblue" points="1048.76,-84.78 1038.24,-83.54 1045.69,-91.07 1048.76,-84.78"/>
</g>
<!-- Node22&#45;&gt;Node12 -->
<g id="edge49" class="edge">
<title>Node22&#45;&gt;Node12</title>
<path fill="none" stroke="midnightblue" d="M1105.47,-126.5C1058.32,-115.69 979.19,-97.54 927.98,-85.8"/>
<polygon fill="midnightblue" stroke="midnightblue" points="928.66,-82.36 918.13,-83.54 927.1,-89.18 928.66,-82.36"/>
</g>
<!-- Node22&#45;&gt;Node15 -->
<g id="edge50" class="edge">
<title>Node22&#45;&gt;Node15</title>
<path fill="none" stroke="midnightblue" d="M1083.28,-127.01C1080.39,-126.66 1077.53,-126.32 1074.72,-126 899.56,-106.14 854.34,-114.21 679.72,-90 670.35,-88.7 660.42,-87.07 650.82,-85.36"/>
<polygon fill="midnightblue" stroke="midnightblue" points="651.43,-81.91 640.96,-83.56 650.17,-88.8 651.43,-81.91"/>
</g>
<!-- Node23&#45;&gt;Node7 -->
<g id="edge53" class="edge">
<title>Node23&#45;&gt;Node7</title>
<path fill="none" stroke="midnightblue" d="M834.83,-127.37C911.24,-115.44 1047.11,-94.13 1069.72,-90 1073.16,-89.37 1076.69,-88.71 1080.24,-88.03"/>
<polygon fill="midnightblue" stroke="midnightblue" points="1081.16,-91.41 1090.3,-86.06 1079.81,-84.54 1081.16,-91.41"/>
</g>
<!-- Node23&#45;&gt;Node8 -->
<g id="edge54" class="edge">
<title>Node23&#45;&gt;Node8</title>
<path fill="none" stroke="midnightblue" d="M776.38,-126.5C771.1,-119.01 763.35,-108.02 756.33,-98.06"/>
<polygon fill="midnightblue" stroke="midnightblue" points="759.05,-95.85 750.43,-89.69 753.33,-99.88 759.05,-95.85"/>
</g>
<!-- Node23&#45;&gt;Node10 -->
<g id="edge55" class="edge">
<title>Node23&#45;&gt;Node10</title>
<path fill="none" stroke="midnightblue" d="M817.69,-126.5C859.35,-115.78 929.03,-97.84 974.69,-86.09"/>
<polygon fill="midnightblue" stroke="midnightblue" points="975.8,-89.42 984.61,-83.54 974.05,-82.64 975.8,-89.42"/>
</g>
<!-- Node23&#45;&gt;Node12 -->
<g id="edge56" class="edge">
<title>Node23&#45;&gt;Node12</title>
<path fill="none" stroke="midnightblue" d="M796.89,-126.5C812.41,-116.63 837.55,-100.66 855.88,-89.02"/>
<polygon fill="midnightblue" stroke="midnightblue" points="857.94,-91.85 864.5,-83.54 854.18,-85.95 857.94,-91.85"/>
</g>
<!-- Node23&#45;&gt;Node15 -->
<g id="edge57" class="edge">
<title>Node23&#45;&gt;Node15</title>
<path fill="none" stroke="midnightblue" d="M755.28,-126.5C723.13,-115.96 669.73,-98.44 633.89,-86.69"/>
<polygon fill="midnightblue" stroke="midnightblue" points="634.87,-83.33 624.28,-83.54 632.69,-89.98 634.87,-83.33"/>
</g>
<!-- Node23&#45;&gt;Node17 -->
<g id="edge52" class="edge">
<title>Node23&#45;&gt;Node17</title>
<path fill="none" stroke="midnightblue" d="M730.43,-129.7C679.05,-123.15 598.82,-110.62 531.72,-90 529.28,-89.25 526.78,-88.37 524.29,-87.43"/>
<polygon fill="midnightblue" stroke="midnightblue" points="525.51,-84.15 514.94,-83.55 522.83,-90.61 525.51,-84.15"/>
</g>
<!-- Node24&#45;&gt;Node8 -->
<g id="edge60" class="edge">
<title>Node24&#45;&gt;Node8</title>
<path fill="none" stroke="midnightblue" d="M629.76,-126.5C647.81,-117.96 675.52,-104.86 698.61,-93.94"/>
<polygon fill="midnightblue" stroke="midnightblue" points="700.3,-97.01 707.85,-89.57 697.31,-90.68 700.3,-97.01"/>
</g>
<!-- Node24&#45;&gt;Node10 -->
<g id="edge61" class="edge">
<title>Node24&#45;&gt;Node10</title>
<path fill="none" stroke="midnightblue" d="M675.18,-127.63C741.62,-119.27 848.14,-105.19 939.72,-90 949.25,-88.42 959.39,-86.58 969.13,-84.73"/>
<polygon fill="midnightblue" stroke="midnightblue" points="969.94,-88.14 979.1,-82.81 968.62,-81.26 969.94,-88.14"/>
</g>
<!-- Node24&#45;&gt;Node12 -->
<g id="edge62" class="edge">
<title>Node24&#45;&gt;Node12</title>
<path fill="none" stroke="midnightblue" d="M650.27,-126.5C697.77,-115.69 777.49,-97.54 829.09,-85.8"/>
<polygon fill="midnightblue" stroke="midnightblue" points="830.04,-89.17 839.02,-83.54 828.49,-82.34 830.04,-89.17"/>
</g>
<!-- Node24&#45;&gt;Node15 -->
<g id="edge63" class="edge">
<title>Node24&#45;&gt;Node15</title>
<path fill="none" stroke="midnightblue" d="M608.66,-126.5C606.67,-117.85 603.61,-104.51 601.08,-93.5"/>
<polygon fill="midnightblue" stroke="midnightblue" points="604.45,-92.5 598.8,-83.54 597.62,-94.07 604.45,-92.5"/>
</g>
<!-- Node24&#45;&gt;Node17 -->
<g id="edge59" class="edge">
<title>Node24&#45;&gt;Node17</title>
<path fill="none" stroke="midnightblue" d="M593.9,-126.5C575.13,-116.45 544.52,-100.07 522.67,-88.38"/>
<polygon fill="midnightblue" stroke="midnightblue" points="524.08,-85.17 513.61,-83.54 520.78,-91.34 524.08,-85.17"/>
</g>
<!-- Node25&#45;&gt;Node8 -->
<g id="edge68" class="edge">
<title>Node25&#45;&gt;Node8</title>
<path fill="none" stroke="midnightblue" d="M657.65,-192.33C539.08,-191.12 231.07,-182.55 282.72,-126 311.08,-94.96 603.98,-97.23 678.73,-89.58"/>
<polygon fill="midnightblue" stroke="midnightblue" points="679.32,-93.03 688.78,-88.26 678.41,-86.09 679.32,-93.03"/>
</g>
<!-- Node25&#45;&gt;Node10 -->
<g id="edge69" class="edge">
<title>Node25&#45;&gt;Node10</title>
<path fill="none" stroke="midnightblue" d="M747.88,-190.13C870.06,-183.5 1199.04,-164.14 1214.72,-147 1221.02,-140.11 1220.42,-133.39 1214.72,-126 1213.55,-124.48 1122.38,-100.85 1065.13,-86.13"/>
<polygon fill="midnightblue" stroke="midnightblue" points="1065.77,-82.68 1055.21,-83.58 1064.02,-89.46 1065.77,-82.68"/>
</g>
<!-- Node25&#45;&gt;Node12 -->
<g id="edge70" class="edge">
<title>Node25&#45;&gt;Node12</title>
<path fill="none" stroke="midnightblue" d="M702.75,-183.46C703.29,-169.31 706.41,-141.92 721.72,-126 736.53,-110.61 787.21,-95.7 827.04,-85.92"/>
<polygon fill="midnightblue" stroke="midnightblue" points="828,-89.29 836.9,-83.55 826.36,-82.49 828,-89.29"/>
</g>
<!-- Node25&#45;&gt;Node15 -->
<g id="edge72" class="edge">
<title>Node25&#45;&gt;Node15</title>
<path fill="none" stroke="midnightblue" d="M657.67,-191.06C552.75,-187.25 299.08,-175.19 273.72,-147 267.48,-140.06 267.6,-133.04 273.72,-126 311.72,-82.33 474.84,-100.73 531.72,-90 538.08,-88.8 544.76,-87.39 551.31,-85.91"/>
<polygon fill="midnightblue" stroke="midnightblue" points="552.48,-89.23 561.43,-83.56 550.9,-82.41 552.48,-89.23"/>
</g>
<!-- Node25&#45;&gt;Node17 -->
<g id="edge67" class="edge">
<title>Node25&#45;&gt;Node17</title>
<path fill="none" stroke="midnightblue" d="M657.62,-191.15C551.24,-187.52 291.64,-175.76 265.72,-147 259.47,-140.07 259.75,-133.17 265.72,-126 322.41,-57.95 377.09,-116.11 461.72,-90 464.17,-89.25 466.67,-88.37 469.15,-87.42"/>
<polygon fill="midnightblue" stroke="midnightblue" points="470.61,-90.6 478.51,-83.54 467.93,-84.14 470.61,-90.6"/>
</g>
<!-- Node25&#45;&gt;Node23 -->
<g id="edge71" class="edge">
<title>Node25&#45;&gt;Node23</title>
<path fill="none" stroke="midnightblue" d="M715.93,-183.42C728.21,-174.98 746.71,-162.26 761.13,-152.34"/>
<polygon fill="midnightblue" stroke="midnightblue" points="763.23,-155.15 769.49,-146.6 759.27,-149.38 763.23,-155.15"/>
</g>
</g>
</svg>
        <g id="navigator" transform="translate(0 0)" fill="#404254">
                <rect fill="#f2f5e9" fill-opacity="0.5" stroke="#606060" stroke-width=".5" x="0" y="0" width="60" height="60"/>
                <use id="zoomplus" xlink:href="#zoomPlus" x="17" y="9" onmousedown="handleZoom(evt,'in')"/>
                <use id="zoomminus" xlink:href="#zoomMin" x="42" y="9" onmousedown="handleZoom(evt,'out')"/>
                <use id="reset" xlink:href="#resetDef" x="30" y="36" onmousedown="handleReset()"/>
                <g id="arrowUp" xlink:href="#dirArrow" transform="translate(30 24)" onmousedown="handlePan(0,-1)">
                  <use xlink:href="#rim" fill="#404040">
                        <set attributeName="fill" to="#808080" begin="arrowUp.mouseover" end="arrowUp.mouseout"/>
                  </use>
                  <path fill="none" stroke="white" stroke-width="1.5" d="M0,-3.0v7 M-2.5,-0.5L0,-3.0L2.5,-0.5"/>
                </g>
                <g id="arrowRight" xlink:href="#dirArrow" transform="rotate(90) translate(36 -43)" onmousedown="handlePan(1,0)">
                  <use xlink:href="#rim" fill="#404040">
                        <set attributeName="fill" to="#808080" begin="arrowRight.mouseover" end="arrowRight.mouseout"/>
                  </use>
                  <path fill="none" stroke="white" stroke-width="1.5" d="M0,-3.0v7 M-2.5,-0.5L0,-3.0L2.5,-0.5"/>
                </g>
                <g id="arrowDown" xlink:href="#dirArrow" transform="rotate(180) translate(-30 -48)" onmousedown="handlePan(0,1)">
                  <use xlink:href="#rim" fill="#404040">
                        <set attributeName="fill" to="#808080" begin="arrowDown.mouseover" end="arrowDown.mouseout"/>
                  </use>
                  <path fill="none" stroke="white" stroke-width="1.5" d="M0,-3.0v7 M-2.5,-0.5L0,-3.0L2.5,-0.5"/>
                </g>
                <g id="arrowLeft" xlink:href="#dirArrow" transform="rotate(270) translate(-36 17)" onmousedown="handlePan(-1,0)">
                  <use xlink:href="#rim" fill="#404040">
                        <set attributeName="fill" to="#808080" begin="arrowLeft.mouseover" end="arrowLeft.mouseout"/>
                  </use>
                  <path fill="none" stroke="white" stroke-width="1.5" d="M0,-3.0v7 M-2.5,-0.5L0,-3.0L2.5,-0.5"/>
                </g>
        </g>
        <svg viewBox="0 0 15 15" width="100%" height="30px" preserveAspectRatio="xMaxYMin meet">
         <g id="arrow_out" transform="scale(0.3 0.3)">
          <a xlink:href="playback_8h__incl_org.svg" target="_base">
           <rect id="button" ry="5" rx="5" y="6" x="6" height="38" width="38"
                fill="#f2f5e9" fill-opacity="0.5" stroke="#606060" stroke-width="1.0"/>
           <path id="arrow"
             d="M 11.500037,31.436501 C 11.940474,20.09759 22.043105,11.32322 32.158766,21.979434 L 37.068811,17.246167 C 37.068811,17.246167 37.088388,32 37.088388,32 L 22.160133,31.978069 C 22.160133,31.978069 26.997745,27.140456 26.997745,27.140456 C 18.528582,18.264221 13.291696,25.230495 11.500037,31.436501 z"
             style="fill:#404040;"/>
          </a>
         </g>
        </svg>
</svg>
