<?xml version="1.0" encoding="UTF-8" standalone="no"?>
<!DOCTYPE svg PUBLIC "-//W3C//DTD SVG 1.1//EN"
 "http://www.w3.org/Graphics/SVG/1.1/DTD/svg11.dtd">
<!-- Generated by graphviz version 2.43.0 (0)
 -->
<!-- Title: /jenkins/jenlib_workspaces_f9/bld_nightly&#45;haldls.YmxkX25pZ2h0bHktaGFsZGxzIzY1NQ.x/haldls/include/haldls/vx/ppu.h Pages: 1 -->
<svg width="1661pt" height="203pt"
 viewBox="0.00 0.00 1660.89 203.00" xmlns="http://www.w3.org/2000/svg" xmlns:xlink="http://www.w3.org/1999/xlink">
<g id="graph0" class="graph" transform="scale(1 1) rotate(0) translate(4 199)">
<title>/jenkins/jenlib_workspaces_f9/bld_nightly&#45;haldls.YmxkX25pZ2h0bHktaGFsZGxzIzY1NQ.x/haldls/include/haldls/vx/ppu.h</title>
<polygon fill="white" stroke="transparent" points="-4,4 -4,-199 1656.89,-199 1656.89,4 -4,4"/>
<!-- Node0 -->
<g id="node1" class="node">
<title>Node0</title>
<g id="a_node1"><a xlink:title=" ">
<polygon fill="#bfbfbf" stroke="black" points="505.71,-138.5 505.71,-194.5 685.07,-194.5 685.07,-138.5 505.71,-138.5"/>
<text text-anchor="start" x="513.71" y="-181.5" font-family="Helvetica,sans-Serif" font-size="10.00">/jenkins/jenlib_workspaces</text>
<text text-anchor="start" x="513.71" y="-169.5" font-family="Helvetica,sans-Serif" font-size="10.00">_f9/bld_nightly&#45;haldls.YmxkX25p</text>
<text text-anchor="start" x="513.71" y="-157.5" font-family="Helvetica,sans-Serif" font-size="10.00">Z2h0bHktaGFsZGxzIzY1NQ.x/haldls</text>
<text text-anchor="middle" x="595.39" y="-145.5" font-family="Helvetica,sans-Serif" font-size="10.00">/include/haldls/vx/ppu.h</text>
</a>
</g>
</g>
<!-- Node1 -->
<g id="node2" class="node">
<title>Node1</title>
<g id="a_node2"><a xlink:title=" ">
<polygon fill="white" stroke="#bfbfbf" points="0,-75.5 0,-95.5 38.78,-95.5 38.78,-75.5 0,-75.5"/>
<text text-anchor="middle" x="19.39" y="-82.5" font-family="Helvetica,sans-Serif" font-size="10.00">array</text>
</a>
</g>
</g>
<!-- Node0&#45;&gt;Node1 -->
<g id="edge1" class="edge">
<title>Node0&#45;&gt;Node1</title>
<path fill="none" stroke="midnightblue" d="M505.36,-165.69C394.89,-163.53 203.11,-151.96 47.39,-102 45.71,-101.46 44.03,-100.82 42.36,-100.11"/>
<polygon fill="midnightblue" stroke="midnightblue" points="43.66,-96.85 33.15,-95.51 40.53,-103.11 43.66,-96.85"/>
</g>
<!-- Node2 -->
<g id="node3" class="node">
<title>Node2</title>
<g id="a_node3"><a xlink:title=" ">
<polygon fill="white" stroke="#bfbfbf" points="56.33,-75.5 56.33,-95.5 108.45,-95.5 108.45,-75.5 56.33,-75.5"/>
<text text-anchor="middle" x="82.39" y="-82.5" font-family="Helvetica,sans-Serif" font-size="10.00">ostream</text>
</a>
</g>
</g>
<!-- Node0&#45;&gt;Node2 -->
<g id="edge2" class="edge">
<title>Node0&#45;&gt;Node2</title>
<path fill="none" stroke="midnightblue" d="M505.32,-161.18C408.06,-154.76 249.34,-139.16 117.39,-102 114.78,-101.27 112.11,-100.37 109.48,-99.39"/>
<polygon fill="midnightblue" stroke="midnightblue" points="110.77,-96.14 100.19,-95.55 108.1,-102.61 110.77,-96.14"/>
</g>
<!-- Node3 -->
<g id="node4" class="node">
<title>Node3</title>
<g id="a_node4"><a xlink:title=" ">
<polygon fill="white" stroke="#bfbfbf" points="126.49,-75.5 126.49,-95.5 260.29,-95.5 260.29,-75.5 126.49,-75.5"/>
<text text-anchor="middle" x="193.39" y="-82.5" font-family="Helvetica,sans-Serif" font-size="10.00">halco/common/geometry.h</text>
</a>
</g>
</g>
<!-- Node0&#45;&gt;Node3 -->
<g id="edge3" class="edge">
<title>Node0&#45;&gt;Node3</title>
<path fill="none" stroke="midnightblue" d="M505.4,-148.19C439.92,-135.54 349.12,-117.9 269.39,-102 262.31,-100.59 254.86,-99.09 247.5,-97.6"/>
<polygon fill="midnightblue" stroke="midnightblue" points="248.08,-94.14 237.58,-95.58 246.68,-101 248.08,-94.14"/>
</g>
<!-- Node4 -->
<g id="node5" class="node">
<title>Node4</title>
<g id="a_node5"><a xlink:title=" ">
<polygon fill="white" stroke="#bfbfbf" points="278.6,-75.5 278.6,-95.5 400.17,-95.5 400.17,-75.5 278.6,-75.5"/>
<text text-anchor="middle" x="339.39" y="-82.5" font-family="Helvetica,sans-Serif" font-size="10.00">halco/common/iter_all.h</text>
</a>
</g>
</g>
<!-- Node0&#45;&gt;Node4 -->
<g id="edge4" class="edge">
<title>Node0&#45;&gt;Node4</title>
<path fill="none" stroke="midnightblue" d="M507.65,-138.42C463.65,-124.85 412.58,-109.09 378.35,-98.52"/>
<polygon fill="midnightblue" stroke="midnightblue" points="379.32,-95.16 368.73,-95.55 377.25,-101.85 379.32,-95.16"/>
</g>
<!-- Node5 -->
<g id="node6" class="node">
<title>Node5</title>
<g id="a_node6"><a xlink:title=" ">
<polygon fill="white" stroke="#bfbfbf" points="418.27,-69.5 418.27,-101.5 526.51,-101.5 526.51,-69.5 418.27,-69.5"/>
<text text-anchor="start" x="426.27" y="-88.5" font-family="Helvetica,sans-Serif" font-size="10.00">halco/common/typed</text>
<text text-anchor="middle" x="472.39" y="-76.5" font-family="Helvetica,sans-Serif" font-size="10.00">_heap_array.h</text>
</a>
</g>
</g>
<!-- Node0&#45;&gt;Node5 -->
<g id="edge5" class="edge">
<title>Node0&#45;&gt;Node5</title>
<path fill="none" stroke="midnightblue" d="M553.06,-138.31C537.18,-128.11 519.4,-116.69 504.58,-107.18"/>
<polygon fill="midnightblue" stroke="midnightblue" points="506.09,-103.98 495.78,-101.52 502.3,-109.87 506.09,-103.98"/>
</g>
<!-- Node6 -->
<g id="node7" class="node">
<title>Node6</title>
<g id="a_node7"><a xlink:title=" ">
<polygon fill="white" stroke="#bfbfbf" points="544.88,-69.5 544.88,-101.5 645.9,-101.5 645.9,-69.5 544.88,-69.5"/>
<text text-anchor="start" x="552.88" y="-88.5" font-family="Helvetica,sans-Serif" font-size="10.00">halco/hicann&#45;dls/vx</text>
<text text-anchor="middle" x="595.39" y="-76.5" font-family="Helvetica,sans-Serif" font-size="10.00">/ppu.h</text>
</a>
</g>
</g>
<!-- Node0&#45;&gt;Node6 -->
<g id="edge6" class="edge">
<title>Node0&#45;&gt;Node6</title>
<path fill="none" stroke="midnightblue" d="M595.39,-138.31C595.39,-129.65 595.39,-120.11 595.39,-111.6"/>
<polygon fill="midnightblue" stroke="midnightblue" points="598.89,-111.52 595.39,-101.52 591.89,-111.52 598.89,-111.52"/>
</g>
<!-- Node7 -->
<g id="node8" class="node">
<title>Node7</title>
<g id="a_node8"><a xlink:href="common_8h.html" target="_top" xlink:title=" ">
<polygon fill="white" stroke="black" points="664.22,-75.5 664.22,-95.5 768.56,-95.5 768.56,-75.5 664.22,-75.5"/>
<text text-anchor="middle" x="716.39" y="-82.5" font-family="Helvetica,sans-Serif" font-size="10.00">haldls/vx/common.h</text>
</a>
</g>
</g>
<!-- Node0&#45;&gt;Node7 -->
<g id="edge7" class="edge">
<title>Node0&#45;&gt;Node7</title>
<path fill="none" stroke="midnightblue" d="M637.03,-138.31C656.12,-125.85 677.99,-111.57 693.93,-101.17"/>
<polygon fill="midnightblue" stroke="midnightblue" points="696.1,-103.93 702.56,-95.53 692.27,-98.06 696.1,-103.93"/>
</g>
<!-- Node11 -->
<g id="node12" class="node">
<title>Node11</title>
<g id="a_node12"><a xlink:href="coordinate__to__container_8h.html" target="_top" xlink:title=" ">
<polygon fill="white" stroke="black" points="786.21,-69.5 786.21,-101.5 890.57,-101.5 890.57,-69.5 786.21,-69.5"/>
<text text-anchor="start" x="794.21" y="-88.5" font-family="Helvetica,sans-Serif" font-size="10.00">haldls/vx/coordinate</text>
<text text-anchor="middle" x="838.39" y="-76.5" font-family="Helvetica,sans-Serif" font-size="10.00">_to_container.h</text>
</a>
</g>
</g>
<!-- Node0&#45;&gt;Node11 -->
<g id="edge11" class="edge">
<title>Node0&#45;&gt;Node11</title>
<path fill="none" stroke="midnightblue" d="M678.67,-138.42C712.89,-127.3 751.61,-114.71 782.35,-104.72"/>
<polygon fill="midnightblue" stroke="midnightblue" points="783.61,-107.99 792.04,-101.57 781.45,-101.33 783.61,-107.99"/>
</g>
<!-- Node12 -->
<g id="node13" class="node">
<title>Node12</title>
<g id="a_node13"><a xlink:href="genpybind_8h.html" target="_top" xlink:title=" ">
<polygon fill="white" stroke="black" points="862.32,-6.5 862.32,-26.5 974.46,-26.5 974.46,-6.5 862.32,-6.5"/>
<text text-anchor="middle" x="918.39" y="-13.5" font-family="Helvetica,sans-Serif" font-size="10.00">haldls/vx/genpybind.h</text>
</a>
</g>
</g>
<!-- Node0&#45;&gt;Node12 -->
<g id="edge13" class="edge">
<title>Node0&#45;&gt;Node12</title>
<path fill="none" stroke="midnightblue" d="M685.35,-157.42C763.77,-148.52 869.52,-131.42 899.39,-102 916.67,-84.98 919.72,-55.85 919.61,-36.64"/>
<polygon fill="midnightblue" stroke="midnightblue" points="923.1,-36.51 919.26,-26.63 916.11,-36.75 923.1,-36.51"/>
</g>
<!-- Node13 -->
<g id="node14" class="node">
<title>Node13</title>
<g id="a_node14"><a xlink:href="traits_8h.html" target="_top" xlink:title=" ">
<polygon fill="white" stroke="black" points="1123.55,-75.5 1123.55,-95.5 1211.23,-95.5 1211.23,-75.5 1123.55,-75.5"/>
<text text-anchor="middle" x="1167.39" y="-82.5" font-family="Helvetica,sans-Serif" font-size="10.00">haldls/vx/traits.h</text>
</a>
</g>
</g>
<!-- Node0&#45;&gt;Node13 -->
<g id="edge15" class="edge">
<title>Node0&#45;&gt;Node13</title>
<path fill="none" stroke="midnightblue" d="M685.08,-153.11C805.33,-136.5 1015.06,-107.54 1113.48,-93.94"/>
<polygon fill="midnightblue" stroke="midnightblue" points="1114.08,-97.4 1123.51,-92.56 1113.12,-90.46 1114.08,-97.4"/>
</g>
<!-- Node18 -->
<g id="node19" class="node">
<title>Node18</title>
<g id="a_node19"><a xlink:title=" ">
<polygon fill="white" stroke="#bfbfbf" points="1571.88,-6.5 1571.88,-26.5 1652.89,-26.5 1652.89,-6.5 1571.88,-6.5"/>
<text text-anchor="middle" x="1612.39" y="-13.5" font-family="Helvetica,sans-Serif" font-size="10.00">hate/visibility.h</text>
</a>
</g>
</g>
<!-- Node0&#45;&gt;Node18 -->
<g id="edge24" class="edge">
<title>Node0&#45;&gt;Node18</title>
<path fill="none" stroke="midnightblue" d="M685.26,-159.13C806.99,-149.87 1030.85,-130.62 1220.39,-102 1374.14,-78.78 1412.82,-71.84 1563.39,-33 1567.47,-31.95 1571.71,-30.75 1575.92,-29.51"/>
<polygon fill="midnightblue" stroke="midnightblue" points="1577.04,-32.83 1585.58,-26.55 1574.99,-26.13 1577.04,-32.83"/>
</g>
<!-- Node8 -->
<g id="node9" class="node">
<title>Node8</title>
<g id="a_node9"><a xlink:title=" ">
<polygon fill="white" stroke="#bfbfbf" points="782.33,-6.5 782.33,-26.5 844.45,-26.5 844.45,-6.5 782.33,-6.5"/>
<text text-anchor="middle" x="813.39" y="-13.5" font-family="Helvetica,sans-Serif" font-size="10.00">type_traits</text>
</a>
</g>
</g>
<!-- Node7&#45;&gt;Node8 -->
<g id="edge8" class="edge">
<title>Node7&#45;&gt;Node8</title>
<path fill="none" stroke="midnightblue" d="M729.47,-75.46C745.45,-64.42 772.72,-45.59 791.82,-32.4"/>
<polygon fill="midnightblue" stroke="midnightblue" points="793.96,-35.17 800.2,-26.61 789.99,-29.41 793.96,-35.17"/>
</g>
<!-- Node9 -->
<g id="node10" class="node">
<title>Node9</title>
<g id="a_node10"><a xlink:title=" ">
<polygon fill="white" stroke="#bfbfbf" points="584,-6.5 584,-26.5 622.78,-26.5 622.78,-6.5 584,-6.5"/>
<text text-anchor="middle" x="603.39" y="-13.5" font-family="Helvetica,sans-Serif" font-size="10.00">utility</text>
</a>
</g>
</g>
<!-- Node7&#45;&gt;Node9 -->
<g id="edge9" class="edge">
<title>Node7&#45;&gt;Node9</title>
<path fill="none" stroke="midnightblue" d="M701.15,-75.46C682.28,-64.28 649.9,-45.08 627.61,-31.86"/>
<polygon fill="midnightblue" stroke="midnightblue" points="629.13,-28.7 618.75,-26.61 625.56,-34.72 629.13,-28.7"/>
</g>
<!-- Node10 -->
<g id="node11" class="node">
<title>Node10</title>
<g id="a_node11"><a xlink:title=" ">
<polygon fill="white" stroke="#bfbfbf" points="640.76,-6.5 640.76,-26.5 764.01,-26.5 764.01,-6.5 640.76,-6.5"/>
<text text-anchor="middle" x="702.39" y="-13.5" font-family="Helvetica,sans-Serif" font-size="10.00">fisch/vx/omnibus_data.h</text>
</a>
</g>
</g>
<!-- Node7&#45;&gt;Node10 -->
<g id="edge10" class="edge">
<title>Node7&#45;&gt;Node10</title>
<path fill="none" stroke="midnightblue" d="M714.5,-75.46C712.44,-65.63 709.1,-49.61 706.44,-36.9"/>
<polygon fill="midnightblue" stroke="midnightblue" points="709.81,-35.9 704.34,-26.82 702.96,-37.33 709.81,-35.9"/>
</g>
<!-- Node11&#45;&gt;Node8 -->
<g id="edge12" class="edge">
<title>Node11&#45;&gt;Node8</title>
<path fill="none" stroke="midnightblue" d="M832.72,-69.3C829.04,-59.45 824.23,-46.56 820.33,-36.11"/>
<polygon fill="midnightblue" stroke="midnightblue" points="823.58,-34.81 816.81,-26.66 817.02,-37.26 823.58,-34.81"/>
</g>
<!-- Node12&#45;&gt;Node12 -->
<g id="edge14" class="edge">
<title>Node12&#45;&gt;Node12</title>
<path fill="none" stroke="midnightblue" d="M942.28,-26.54C966.11,-32.26 992.46,-28.92 992.46,-16.5 992.46,-5.78 972.82,-1.82 952.12,-4.62"/>
<polygon fill="midnightblue" stroke="midnightblue" points="951.47,-1.18 942.28,-6.46 952.76,-8.06 951.47,-1.18"/>
</g>
<!-- Node13&#45;&gt;Node8 -->
<g id="edge16" class="edge">
<title>Node13&#45;&gt;Node8</title>
<path fill="none" stroke="midnightblue" d="M1123.35,-80.19C1062.04,-73.53 947.86,-58.75 853.39,-33 850.23,-32.14 846.97,-31.11 843.74,-30.01"/>
<polygon fill="midnightblue" stroke="midnightblue" points="844.88,-26.7 834.29,-26.54 842.47,-33.27 844.88,-26.7"/>
</g>
<!-- Node13&#45;&gt;Node12 -->
<g id="edge20" class="edge">
<title>Node13&#45;&gt;Node12</title>
<path fill="none" stroke="midnightblue" d="M1133.81,-75.46C1089.35,-63.5 1010.87,-42.39 961.91,-29.21"/>
<polygon fill="midnightblue" stroke="midnightblue" points="962.8,-25.83 952.23,-26.61 960.98,-32.58 962.8,-25.83"/>
</g>
<!-- Node14 -->
<g id="node15" class="node">
<title>Node14</title>
<g id="a_node15"><a xlink:title=" ">
<polygon fill="white" stroke="#bfbfbf" points="1010.04,-6.5 1010.04,-26.5 1102.74,-26.5 1102.74,-6.5 1010.04,-6.5"/>
<text text-anchor="middle" x="1056.39" y="-13.5" font-family="Helvetica,sans-Serif" font-size="10.00">boost/variant.hpp</text>
</a>
</g>
</g>
<!-- Node13&#45;&gt;Node14 -->
<g id="edge17" class="edge">
<title>Node13&#45;&gt;Node14</title>
<path fill="none" stroke="midnightblue" d="M1152.42,-75.46C1133.88,-64.28 1102.08,-45.08 1080.19,-31.86"/>
<polygon fill="midnightblue" stroke="midnightblue" points="1081.85,-28.78 1071.48,-26.61 1078.23,-34.77 1081.85,-28.78"/>
</g>
<!-- Node15 -->
<g id="node16" class="node">
<title>Node15</title>
<g id="a_node16"><a xlink:title=" ">
<polygon fill="white" stroke="#bfbfbf" points="1120.77,-0.5 1120.77,-32.5 1214.01,-32.5 1214.01,-0.5 1120.77,-0.5"/>
<text text-anchor="start" x="1128.77" y="-19.5" font-family="Helvetica,sans-Serif" font-size="10.00">fisch/vx/container</text>
<text text-anchor="middle" x="1167.39" y="-7.5" font-family="Helvetica,sans-Serif" font-size="10.00">_fwd.h</text>
</a>
</g>
</g>
<!-- Node13&#45;&gt;Node15 -->
<g id="edge18" class="edge">
<title>Node13&#45;&gt;Node15</title>
<path fill="none" stroke="midnightblue" d="M1167.39,-75.46C1167.39,-67.04 1167.39,-54.08 1167.39,-42.55"/>
<polygon fill="midnightblue" stroke="midnightblue" points="1170.89,-42.53 1167.39,-32.53 1163.89,-42.53 1170.89,-42.53"/>
</g>
<!-- Node16 -->
<g id="node17" class="node">
<title>Node16</title>
<g id="a_node17"><a xlink:title=" ">
<polygon fill="white" stroke="#bfbfbf" points="1231.77,-0.5 1231.77,-32.5 1325.01,-32.5 1325.01,-0.5 1231.77,-0.5"/>
<text text-anchor="start" x="1239.77" y="-19.5" font-family="Helvetica,sans-Serif" font-size="10.00">fisch/vx/container</text>
<text text-anchor="middle" x="1278.39" y="-7.5" font-family="Helvetica,sans-Serif" font-size="10.00">_ticket.h</text>
</a>
</g>
</g>
<!-- Node13&#45;&gt;Node16 -->
<g id="edge19" class="edge">
<title>Node13&#45;&gt;Node16</title>
<path fill="none" stroke="midnightblue" d="M1182.36,-75.46C1198.31,-65.84 1224.07,-50.29 1244.9,-37.71"/>
<polygon fill="midnightblue" stroke="midnightblue" points="1246.73,-40.7 1253.48,-32.53 1243.11,-34.7 1246.73,-40.7"/>
</g>
<!-- Node17 -->
<g id="node18" class="node">
<title>Node17</title>
<g id="a_node18"><a xlink:title=" ">
<polygon fill="white" stroke="#bfbfbf" points="1342.76,-6.5 1342.76,-26.5 1426.01,-26.5 1426.01,-6.5 1342.76,-6.5"/>
<text text-anchor="middle" x="1384.39" y="-13.5" font-family="Helvetica,sans-Serif" font-size="10.00">hate/type_list.h</text>
</a>
</g>
</g>
<!-- Node13&#45;&gt;Node17 -->
<g id="edge21" class="edge">
<title>Node13&#45;&gt;Node17</title>
<path fill="none" stroke="midnightblue" d="M1196.65,-75.49C1230,-65.22 1286.13,-47.92 1334.39,-33 1337.99,-31.89 1341.73,-30.73 1345.48,-29.57"/>
<polygon fill="midnightblue" stroke="midnightblue" points="1346.79,-32.83 1355.31,-26.52 1344.72,-26.14 1346.79,-32.83"/>
</g>
<!-- Node13&#45;&gt;Node18 -->
<g id="edge22" class="edge">
<title>Node13&#45;&gt;Node18</title>
<path fill="none" stroke="midnightblue" d="M1211.48,-81.33C1285.08,-75.47 1437.31,-60.91 1563.39,-33 1567.82,-32.02 1572.43,-30.82 1576.96,-29.52"/>
<polygon fill="midnightblue" stroke="midnightblue" points="1578.13,-32.82 1586.68,-26.57 1576.1,-26.12 1578.13,-32.82"/>
</g>
<!-- Node19 -->
<g id="node20" class="node">
<title>Node19</title>
<g id="a_node20"><a xlink:title=" ">
<polygon fill="white" stroke="#bfbfbf" points="1444.43,-6.5 1444.43,-26.5 1554.34,-26.5 1554.34,-6.5 1444.43,-6.5"/>
<text text-anchor="middle" x="1499.39" y="-13.5" font-family="Helvetica,sans-Serif" font-size="10.00">fisch/vx/container.def</text>
</a>
</g>
</g>
<!-- Node13&#45;&gt;Node19 -->
<g id="edge23" class="edge">
<title>Node13&#45;&gt;Node19</title>
<path fill="none" stroke="midnightblue" d="M1211.62,-76.67C1264.86,-67.09 1356.91,-50.03 1435.39,-33 1441.19,-31.74 1447.26,-30.36 1453.27,-28.95"/>
<polygon fill="midnightblue" stroke="midnightblue" points="1454.32,-32.29 1463.24,-26.57 1452.7,-25.48 1454.32,-32.29"/>
</g>
</g>
</svg>
