<?xml version="1.0" encoding="UTF-8" standalone="no"?>
<!DOCTYPE svg PUBLIC "-//W3C//DTD SVG 1.1//EN"
 "http://www.w3.org/Graphics/SVG/1.1/DTD/svg11.dtd">
<!-- Generated by graphviz version 2.43.0 (0)
 -->
<!-- Title: /jenkins/jenlib_workspaces_f9/bld_nightly&#45;haldls.YmxkX25pZ2h0bHktaGFsZGxzIzY1NQ.x/haldls/include/haldls/vx/reset.h Pages: 1 -->
<svg width="879pt" height="203pt"
 viewBox="0.00 0.00 878.57 203.00" xmlns="http://www.w3.org/2000/svg" xmlns:xlink="http://www.w3.org/1999/xlink">
<g id="graph0" class="graph" transform="scale(1 1) rotate(0) translate(4 199)">
<title>/jenkins/jenlib_workspaces_f9/bld_nightly&#45;haldls.YmxkX25pZ2h0bHktaGFsZGxzIzY1NQ.x/haldls/include/haldls/vx/reset.h</title>
<polygon fill="white" stroke="transparent" points="-4,4 -4,-199 874.57,-199 874.57,4 -4,4"/>
<!-- Node0 -->
<g id="node1" class="node">
<title>Node0</title>
<g id="a_node1"><a xlink:title=" ">
<polygon fill="#bfbfbf" stroke="black" points="238.39,-138.5 238.39,-194.5 417.75,-194.5 417.75,-138.5 238.39,-138.5"/>
<text text-anchor="start" x="246.39" y="-181.5" font-family="Helvetica,sans-Serif" font-size="10.00">/jenkins/jenlib_workspaces</text>
<text text-anchor="start" x="246.39" y="-169.5" font-family="Helvetica,sans-Serif" font-size="10.00">_f9/bld_nightly&#45;haldls.YmxkX25p</text>
<text text-anchor="start" x="246.39" y="-157.5" font-family="Helvetica,sans-Serif" font-size="10.00">Z2h0bHktaGFsZGxzIzY1NQ.x/haldls</text>
<text text-anchor="middle" x="328.07" y="-145.5" font-family="Helvetica,sans-Serif" font-size="10.00">/include/haldls/vx/reset.h</text>
</a>
</g>
</g>
<!-- Node1 -->
<g id="node2" class="node">
<title>Node1</title>
<g id="a_node2"><a xlink:title=" ">
<polygon fill="white" stroke="#bfbfbf" points="111.68,-75.5 111.68,-95.5 150.46,-95.5 150.46,-75.5 111.68,-75.5"/>
<text text-anchor="middle" x="131.07" y="-82.5" font-family="Helvetica,sans-Serif" font-size="10.00">array</text>
</a>
</g>
</g>
<!-- Node0&#45;&gt;Node1 -->
<g id="edge1" class="edge">
<title>Node0&#45;&gt;Node1</title>
<path fill="none" stroke="midnightblue" d="M248.84,-138.45C220.18,-127.95 187.81,-115.27 159.07,-102 157.91,-101.46 156.73,-100.9 155.54,-100.31"/>
<polygon fill="midnightblue" stroke="midnightblue" points="157.04,-97.15 146.56,-95.6 153.79,-103.35 157.04,-97.15"/>
</g>
<!-- Node2 -->
<g id="node3" class="node">
<title>Node2</title>
<g id="a_node3"><a xlink:title=" ">
<polygon fill="white" stroke="#bfbfbf" points="168.01,-75.5 168.01,-95.5 220.13,-95.5 220.13,-75.5 168.01,-75.5"/>
<text text-anchor="middle" x="194.07" y="-82.5" font-family="Helvetica,sans-Serif" font-size="10.00">ostream</text>
</a>
</g>
</g>
<!-- Node0&#45;&gt;Node2 -->
<g id="edge2" class="edge">
<title>Node0&#45;&gt;Node2</title>
<path fill="none" stroke="midnightblue" d="M281.96,-138.31C260.62,-125.73 236.15,-111.31 218.45,-100.87"/>
<polygon fill="midnightblue" stroke="midnightblue" points="219.78,-97.59 209.38,-95.53 216.22,-103.62 219.78,-97.59"/>
</g>
<!-- Node3 -->
<g id="node4" class="node">
<title>Node3</title>
<g id="a_node4"><a xlink:title=" ">
<polygon fill="white" stroke="#bfbfbf" points="238.56,-69.5 238.56,-101.5 339.58,-101.5 339.58,-69.5 238.56,-69.5"/>
<text text-anchor="start" x="246.56" y="-88.5" font-family="Helvetica,sans-Serif" font-size="10.00">halco/hicann&#45;dls/vx</text>
<text text-anchor="middle" x="289.07" y="-76.5" font-family="Helvetica,sans-Serif" font-size="10.00">/reset.h</text>
</a>
</g>
</g>
<!-- Node0&#45;&gt;Node3 -->
<g id="edge3" class="edge">
<title>Node0&#45;&gt;Node3</title>
<path fill="none" stroke="midnightblue" d="M314.65,-138.31C310.23,-129.36 305.35,-119.48 301.05,-110.76"/>
<polygon fill="midnightblue" stroke="midnightblue" points="304.05,-108.94 296.49,-101.52 297.78,-112.04 304.05,-108.94"/>
</g>
<!-- Node4 -->
<g id="node5" class="node">
<title>Node4</title>
<g id="a_node5"><a xlink:href="genpybind_8h.html" target="_top" xlink:title=" ">
<polygon fill="white" stroke="black" points="0,-6.5 0,-26.5 112.14,-26.5 112.14,-6.5 0,-6.5"/>
<text text-anchor="middle" x="56.07" y="-13.5" font-family="Helvetica,sans-Serif" font-size="10.00">haldls/vx/genpybind.h</text>
</a>
</g>
</g>
<!-- Node0&#45;&gt;Node4 -->
<g id="edge4" class="edge">
<title>Node0&#45;&gt;Node4</title>
<path fill="none" stroke="midnightblue" d="M345.09,-138.39C355.98,-117.23 365.32,-88.27 349.07,-69 318.55,-32.8 185.68,-41.35 139.07,-33 130.88,-31.53 122.24,-29.95 113.75,-28.39"/>
<polygon fill="midnightblue" stroke="midnightblue" points="114.36,-24.94 103.89,-26.56 113.08,-31.82 114.36,-24.94"/>
</g>
<!-- Node5 -->
<g id="node6" class="node">
<title>Node5</title>
<g id="a_node6"><a xlink:href="traits_8h.html" target="_top" xlink:title=" ">
<polygon fill="white" stroke="black" points="396.23,-75.5 396.23,-95.5 483.91,-95.5 483.91,-75.5 396.23,-75.5"/>
<text text-anchor="middle" x="440.07" y="-82.5" font-family="Helvetica,sans-Serif" font-size="10.00">haldls/vx/traits.h</text>
</a>
</g>
</g>
<!-- Node0&#45;&gt;Node5 -->
<g id="edge6" class="edge">
<title>Node0&#45;&gt;Node5</title>
<path fill="none" stroke="midnightblue" d="M366.62,-138.31C384.12,-125.97 404.15,-111.84 418.87,-101.46"/>
<polygon fill="midnightblue" stroke="midnightblue" points="421.12,-104.15 427.27,-95.53 417.08,-98.43 421.12,-104.15"/>
</g>
<!-- Node11 -->
<g id="node12" class="node">
<title>Node11</title>
<g id="a_node12"><a xlink:title=" ">
<polygon fill="white" stroke="#bfbfbf" points="789.57,-6.5 789.57,-26.5 870.57,-26.5 870.57,-6.5 789.57,-6.5"/>
<text text-anchor="middle" x="830.07" y="-13.5" font-family="Helvetica,sans-Serif" font-size="10.00">hate/visibility.h</text>
</a>
</g>
</g>
<!-- Node0&#45;&gt;Node11 -->
<g id="edge15" class="edge">
<title>Node0&#45;&gt;Node11</title>
<path fill="none" stroke="midnightblue" d="M418.06,-139.8C509.59,-113.52 655.45,-71.24 781.07,-33 784.65,-31.91 788.38,-30.76 792.1,-29.6"/>
<polygon fill="midnightblue" stroke="midnightblue" points="793.37,-32.87 801.86,-26.54 791.27,-26.19 793.37,-32.87"/>
</g>
<!-- Node4&#45;&gt;Node4 -->
<g id="edge5" class="edge">
<title>Node4&#45;&gt;Node4</title>
<path fill="none" stroke="midnightblue" d="M79.97,-26.54C103.79,-32.26 130.14,-28.92 130.14,-16.5 130.14,-5.78 110.51,-1.82 89.81,-4.62"/>
<polygon fill="midnightblue" stroke="midnightblue" points="89.15,-1.18 79.97,-6.46 90.44,-8.06 89.15,-1.18"/>
</g>
<!-- Node5&#45;&gt;Node4 -->
<g id="edge11" class="edge">
<title>Node5&#45;&gt;Node4</title>
<path fill="none" stroke="midnightblue" d="M408.92,-75.48C400.27,-73.16 390.85,-70.82 382.07,-69 275.16,-46.87 246.75,-51.02 139.07,-33 130.65,-31.59 121.77,-30.02 113.07,-28.44"/>
<polygon fill="midnightblue" stroke="midnightblue" points="113.45,-24.95 102.98,-26.58 112.19,-31.83 113.45,-24.95"/>
</g>
<!-- Node6 -->
<g id="node7" class="node">
<title>Node6</title>
<g id="a_node7"><a xlink:title=" ">
<polygon fill="white" stroke="#bfbfbf" points="148.01,-6.5 148.01,-26.5 210.13,-26.5 210.13,-6.5 148.01,-6.5"/>
<text text-anchor="middle" x="179.07" y="-13.5" font-family="Helvetica,sans-Serif" font-size="10.00">type_traits</text>
</a>
</g>
</g>
<!-- Node5&#45;&gt;Node6 -->
<g id="edge7" class="edge">
<title>Node5&#45;&gt;Node6</title>
<path fill="none" stroke="midnightblue" d="M407.32,-75.48C399.09,-73.29 390.27,-71 382.07,-69 309.99,-51.42 290.09,-54.47 219.07,-33 216.26,-32.15 213.37,-31.2 210.49,-30.19"/>
<polygon fill="midnightblue" stroke="midnightblue" points="211.46,-26.82 200.87,-26.64 209.04,-33.38 211.46,-26.82"/>
</g>
<!-- Node7 -->
<g id="node8" class="node">
<title>Node7</title>
<g id="a_node8"><a xlink:title=" ">
<polygon fill="white" stroke="#bfbfbf" points="227.72,-6.5 227.72,-26.5 320.42,-26.5 320.42,-6.5 227.72,-6.5"/>
<text text-anchor="middle" x="274.07" y="-13.5" font-family="Helvetica,sans-Serif" font-size="10.00">boost/variant.hpp</text>
</a>
</g>
</g>
<!-- Node5&#45;&gt;Node7 -->
<g id="edge8" class="edge">
<title>Node5&#45;&gt;Node7</title>
<path fill="none" stroke="midnightblue" d="M417.68,-75.46C388.97,-63.88 338.98,-43.7 306.21,-30.47"/>
<polygon fill="midnightblue" stroke="midnightblue" points="307.22,-27.1 296.63,-26.61 304.6,-33.6 307.22,-27.1"/>
</g>
<!-- Node8 -->
<g id="node9" class="node">
<title>Node8</title>
<g id="a_node9"><a xlink:title=" ">
<polygon fill="white" stroke="#bfbfbf" points="338.45,-0.5 338.45,-32.5 431.69,-32.5 431.69,-0.5 338.45,-0.5"/>
<text text-anchor="start" x="346.45" y="-19.5" font-family="Helvetica,sans-Serif" font-size="10.00">fisch/vx/container</text>
<text text-anchor="middle" x="385.07" y="-7.5" font-family="Helvetica,sans-Serif" font-size="10.00">_fwd.h</text>
</a>
</g>
</g>
<!-- Node5&#45;&gt;Node8 -->
<g id="edge9" class="edge">
<title>Node5&#45;&gt;Node8</title>
<path fill="none" stroke="midnightblue" d="M432.65,-75.46C425.32,-66.53 413.78,-52.48 403.91,-40.45"/>
<polygon fill="midnightblue" stroke="midnightblue" points="406.46,-38.04 397.41,-32.53 401.05,-42.48 406.46,-38.04"/>
</g>
<!-- Node9 -->
<g id="node10" class="node">
<title>Node9</title>
<g id="a_node10"><a xlink:title=" ">
<polygon fill="white" stroke="#bfbfbf" points="449.45,-0.5 449.45,-32.5 542.69,-32.5 542.69,-0.5 449.45,-0.5"/>
<text text-anchor="start" x="457.45" y="-19.5" font-family="Helvetica,sans-Serif" font-size="10.00">fisch/vx/container</text>
<text text-anchor="middle" x="496.07" y="-7.5" font-family="Helvetica,sans-Serif" font-size="10.00">_ticket.h</text>
</a>
</g>
</g>
<!-- Node5&#45;&gt;Node9 -->
<g id="edge10" class="edge">
<title>Node5&#45;&gt;Node9</title>
<path fill="none" stroke="midnightblue" d="M447.62,-75.46C455.1,-66.53 466.84,-52.48 476.89,-40.45"/>
<polygon fill="midnightblue" stroke="midnightblue" points="479.78,-42.45 483.51,-32.53 474.41,-37.96 479.78,-42.45"/>
</g>
<!-- Node10 -->
<g id="node11" class="node">
<title>Node10</title>
<g id="a_node11"><a xlink:title=" ">
<polygon fill="white" stroke="#bfbfbf" points="560.45,-6.5 560.45,-26.5 643.69,-26.5 643.69,-6.5 560.45,-6.5"/>
<text text-anchor="middle" x="602.07" y="-13.5" font-family="Helvetica,sans-Serif" font-size="10.00">hate/type_list.h</text>
</a>
</g>
</g>
<!-- Node5&#45;&gt;Node10 -->
<g id="edge12" class="edge">
<title>Node5&#45;&gt;Node10</title>
<path fill="none" stroke="midnightblue" d="M461.92,-75.46C489.94,-63.88 538.72,-43.7 570.71,-30.47"/>
<polygon fill="midnightblue" stroke="midnightblue" points="572.15,-33.66 580.05,-26.61 569.47,-27.19 572.15,-33.66"/>
</g>
<!-- Node5&#45;&gt;Node11 -->
<g id="edge13" class="edge">
<title>Node5&#45;&gt;Node11</title>
<path fill="none" stroke="midnightblue" d="M484.09,-80.08C549.46,-73.02 675.8,-57.44 781.07,-33 785.44,-31.99 789.99,-30.77 794.47,-29.47"/>
<polygon fill="midnightblue" stroke="midnightblue" points="795.54,-32.81 804.09,-26.55 793.5,-26.11 795.54,-32.81"/>
</g>
<!-- Node12 -->
<g id="node13" class="node">
<title>Node12</title>
<g id="a_node13"><a xlink:title=" ">
<polygon fill="white" stroke="#bfbfbf" points="662.12,-6.5 662.12,-26.5 772.03,-26.5 772.03,-6.5 662.12,-6.5"/>
<text text-anchor="middle" x="717.07" y="-13.5" font-family="Helvetica,sans-Serif" font-size="10.00">fisch/vx/container.def</text>
</a>
</g>
</g>
<!-- Node5&#45;&gt;Node12 -->
<g id="edge14" class="edge">
<title>Node5&#45;&gt;Node12</title>
<path fill="none" stroke="midnightblue" d="M477.4,-75.48C519.92,-65.2 591.5,-47.9 653.07,-33 658.49,-31.69 664.16,-30.32 669.8,-28.95"/>
<polygon fill="midnightblue" stroke="midnightblue" points="670.95,-32.27 679.85,-26.52 669.3,-25.47 670.95,-32.27"/>
</g>
</g>
</svg>
