<?xml version="1.0" encoding="UTF-8" standalone="no"?>
<!DOCTYPE svg PUBLIC "-//W3C//DTD SVG 1.1//EN"
 "http://www.w3.org/Graphics/SVG/1.1/DTD/svg11.dtd">
<!-- Generated by graphviz version 2.43.0 (0)
 -->
<!-- Title: /jenkins/jenlib_workspaces_f9/bld_nightly&#45;haldls.YmxkX25pZ2h0bHktaGFsZGxzIzY1NQ.x/haldls/include/haldls/vx/routing_crossbar.h Pages: 1 -->
<!--zoomable 203 -->
<svg id="main" version="1.1" xmlns="http://www.w3.org/2000/svg" xmlns:xlink="http://www.w3.org/1999/xlink" xml:space="preserve" onload="init(evt)">
<style type="text/css"><![CDATA[
.edge:hover path { stroke: red; }
.edge:hover polygon { stroke: red; fill: red; }
]]></style>
<script type="text/javascript"><![CDATA[
var edges = document.getElementsByTagName('g');
if (edges && edges.length) {
  for (var i=0;i<edges.length;i++) {
    if (edges[i].id.substr(0,4)=='edge') {
      edges[i].setAttribute('class','edge');
    }
  }
}
]]></script>
        <defs>
                <circle id="rim" cx="0" cy="0" r="7"/>
                <circle id="rim2" cx="0" cy="0" r="3.5"/>
                <g id="zoomPlus">
                        <use xlink:href="#rim" fill="#404040">
                                <set attributeName="fill" to="#808080" begin="zoomplus.mouseover" end="zoomplus.mouseout"/>
                        </use>
                        <path d="M-4,0h8M0,-4v8" fill="none" stroke="white" stroke-width="1.5" pointer-events="none"/>
                </g>
                <g id="zoomMin">
                        <use xlink:href="#rim" fill="#404040">
                                <set attributeName="fill" to="#808080" begin="zoomminus.mouseover" end="zoomminus.mouseout"/>
                        </use>
                        <path d="M-4,0h8" fill="none" stroke="white" stroke-width="1.5" pointer-events="none"/>
                </g>
                <g id="dirArrow">
                        <path fill="none" stroke="white" stroke-width="1.5" d="M0,-3.0v7 M-2.5,-0.5L0,-3.0L2.5,-0.5"/>
                </g>
               <g id="resetDef">
                       <use xlink:href="#rim2" fill="#404040">
                               <set attributeName="fill" to="#808080" begin="reset.mouseover" end="reset.mouseout"/>
                       </use>
               </g>
        </defs>

<script type="text/javascript">
var viewWidth = 1163;
var viewHeight = 203;
var sectionId = 'dynsection-0';
</script>
<script xlink:href="svgpan.js"/>
<svg id="graph" class="graph">
<g id="viewport">
<title>/jenkins/jenlib_workspaces_f9/bld_nightly&#45;haldls.YmxkX25pZ2h0bHktaGFsZGxzIzY1NQ.x/haldls/include/haldls/vx/routing_crossbar.h</title>
<polygon fill="white" stroke="transparent" points="-4,4 -4,-199 1158.89,-199 1158.89,4 -4,4"/>
<!-- Node0 -->
<g id="node1" class="node">
<title>Node0</title>
<g id="a_node1"><a xlink:title=" ">
<polygon fill="#bfbfbf" stroke="black" points="484.71,-138.5 484.71,-194.5 664.07,-194.5 664.07,-138.5 484.71,-138.5"/>
<text text-anchor="start" x="492.71" y="-181.5" font-family="Helvetica,sans-Serif" font-size="10.00">/jenkins/jenlib_workspaces</text>
<text text-anchor="start" x="492.71" y="-169.5" font-family="Helvetica,sans-Serif" font-size="10.00">_f9/bld_nightly&#45;haldls.YmxkX25p</text>
<text text-anchor="start" x="492.71" y="-157.5" font-family="Helvetica,sans-Serif" font-size="10.00">Z2h0bHktaGFsZGxzIzY1NQ.x/haldls</text>
<text text-anchor="middle" x="574.39" y="-145.5" font-family="Helvetica,sans-Serif" font-size="10.00">/include/haldls/vx/routing_crossbar.h</text>
</a>
</g>
</g>
<!-- Node1 -->
<g id="node2" class="node">
<title>Node1</title>
<g id="a_node2"><a xlink:title=" ">
<polygon fill="white" stroke="#bfbfbf" points="0,-75.5 0,-95.5 38.78,-95.5 38.78,-75.5 0,-75.5"/>
<text text-anchor="middle" x="19.39" y="-82.5" font-family="Helvetica,sans-Serif" font-size="10.00">array</text>
</a>
</g>
</g>
<!-- Node0&#45;&gt;Node1 -->
<g id="edge1" class="edge">
<title>Node0&#45;&gt;Node1</title>
<path fill="none" stroke="midnightblue" d="M484.51,-165.09C377.78,-162.24 195.57,-149.92 47.39,-102 45.75,-101.47 44.1,-100.84 42.47,-100.15"/>
<polygon fill="midnightblue" stroke="midnightblue" points="43.95,-96.98 33.44,-95.66 40.83,-103.25 43.95,-96.98"/>
</g>
<!-- Node2 -->
<g id="node3" class="node">
<title>Node2</title>
<g id="a_node3"><a xlink:title=" ">
<polygon fill="white" stroke="#bfbfbf" points="56.33,-75.5 56.33,-95.5 108.45,-95.5 108.45,-75.5 56.33,-75.5"/>
<text text-anchor="middle" x="82.39" y="-82.5" font-family="Helvetica,sans-Serif" font-size="10.00">ostream</text>
</a>
</g>
</g>
<!-- Node0&#45;&gt;Node2 -->
<g id="edge2" class="edge">
<title>Node0&#45;&gt;Node2</title>
<path fill="none" stroke="midnightblue" d="M484.4,-160.42C391.12,-153.43 241.81,-137.44 117.39,-102 114.78,-101.26 112.12,-100.36 109.48,-99.37"/>
<polygon fill="midnightblue" stroke="midnightblue" points="110.77,-96.12 100.2,-95.53 108.1,-102.59 110.77,-96.12"/>
</g>
<!-- Node3 -->
<g id="node4" class="node">
<title>Node3</title>
<g id="a_node4"><a xlink:title=" ">
<polygon fill="white" stroke="#bfbfbf" points="126.49,-75.5 126.49,-95.5 260.29,-95.5 260.29,-75.5 126.49,-75.5"/>
<text text-anchor="middle" x="193.39" y="-82.5" font-family="Helvetica,sans-Serif" font-size="10.00">halco/common/geometry.h</text>
</a>
</g>
</g>
<!-- Node0&#45;&gt;Node3 -->
<g id="edge3" class="edge">
<title>Node0&#45;&gt;Node3</title>
<path fill="none" stroke="midnightblue" d="M484.58,-146.88C410.7,-131.56 308.47,-110.36 246.86,-97.59"/>
<polygon fill="midnightblue" stroke="midnightblue" points="247.46,-94.14 236.96,-95.53 246.04,-100.99 247.46,-94.14"/>
</g>
<!-- Node4 -->
<g id="node5" class="node">
<title>Node4</title>
<g id="a_node5"><a xlink:title=" ">
<polygon fill="white" stroke="#bfbfbf" points="278.27,-69.5 278.27,-101.5 386.51,-101.5 386.51,-69.5 278.27,-69.5"/>
<text text-anchor="start" x="286.27" y="-88.5" font-family="Helvetica,sans-Serif" font-size="10.00">halco/common/typed</text>
<text text-anchor="middle" x="332.39" y="-76.5" font-family="Helvetica,sans-Serif" font-size="10.00">_array.h</text>
</a>
</g>
</g>
<!-- Node0&#45;&gt;Node4 -->
<g id="edge4" class="edge">
<title>Node0&#45;&gt;Node4</title>
<path fill="none" stroke="midnightblue" d="M491.44,-138.42C457.37,-127.3 418.81,-114.71 388.19,-104.72"/>
<polygon fill="midnightblue" stroke="midnightblue" points="389.14,-101.34 378.55,-101.57 386.97,-108 389.14,-101.34"/>
</g>
<!-- Node5 -->
<g id="node6" class="node">
<title>Node5</title>
<g id="a_node6"><a xlink:title=" ">
<polygon fill="white" stroke="#bfbfbf" points="404.88,-69.5 404.88,-101.5 505.9,-101.5 505.9,-69.5 404.88,-69.5"/>
<text text-anchor="start" x="412.88" y="-88.5" font-family="Helvetica,sans-Serif" font-size="10.00">halco/hicann&#45;dls/vx</text>
<text text-anchor="middle" x="455.39" y="-76.5" font-family="Helvetica,sans-Serif" font-size="10.00">/event.h</text>
</a>
</g>
</g>
<!-- Node0&#45;&gt;Node5 -->
<g id="edge5" class="edge">
<title>Node0&#45;&gt;Node5</title>
<path fill="none" stroke="midnightblue" d="M533.43,-138.31C518.07,-128.11 500.87,-116.69 486.53,-107.18"/>
<polygon fill="midnightblue" stroke="midnightblue" points="488.29,-104.14 478.02,-101.52 484.42,-109.97 488.29,-104.14"/>
</g>
<!-- Node6 -->
<g id="node7" class="node">
<title>Node6</title>
<g id="a_node7"><a xlink:title=" ">
<polygon fill="white" stroke="#bfbfbf" points="523.6,-69.5 523.6,-101.5 625.18,-101.5 625.18,-69.5 523.6,-69.5"/>
<text text-anchor="start" x="531.6" y="-88.5" font-family="Helvetica,sans-Serif" font-size="10.00">halco/hicann&#45;dls/vx</text>
<text text-anchor="middle" x="574.39" y="-76.5" font-family="Helvetica,sans-Serif" font-size="10.00">/routing_crossbar.h</text>
</a>
</g>
</g>
<!-- Node0&#45;&gt;Node6 -->
<g id="edge6" class="edge">
<title>Node0&#45;&gt;Node6</title>
<path fill="none" stroke="midnightblue" d="M574.39,-138.31C574.39,-129.65 574.39,-120.11 574.39,-111.6"/>
<polygon fill="midnightblue" stroke="midnightblue" points="577.89,-111.52 574.39,-101.52 570.89,-111.52 577.89,-111.52"/>
</g>
<!-- Node7 -->
<g id="node8" class="node">
<title>Node7</title>
<g id="a_node8"><a xlink:href="genpybind_8h.html" target="_top" xlink:title=" ">
<polygon fill="white" stroke="black" points="284.32,-6.5 284.32,-26.5 396.46,-26.5 396.46,-6.5 284.32,-6.5"/>
<text text-anchor="middle" x="340.39" y="-13.5" font-family="Helvetica,sans-Serif" font-size="10.00">haldls/vx/genpybind.h</text>
</a>
</g>
</g>
<!-- Node0&#45;&gt;Node7 -->
<g id="edge7" class="edge">
<title>Node0&#45;&gt;Node7</title>
<path fill="none" stroke="midnightblue" d="M609.77,-138.3C631.73,-118.14 652.58,-90.56 634.39,-69 603.71,-32.65 470.21,-41.37 423.39,-33 415.19,-31.54 406.55,-29.96 398.06,-28.39"/>
<polygon fill="midnightblue" stroke="midnightblue" points="398.68,-24.94 388.21,-26.56 397.4,-31.83 398.68,-24.94"/>
</g>
<!-- Node8 -->
<g id="node9" class="node">
<title>Node8</title>
<g id="a_node9"><a xlink:href="traits_8h.html" target="_top" xlink:title=" ">
<polygon fill="white" stroke="black" points="681.55,-75.5 681.55,-95.5 769.23,-95.5 769.23,-75.5 681.55,-75.5"/>
<text text-anchor="middle" x="725.39" y="-82.5" font-family="Helvetica,sans-Serif" font-size="10.00">haldls/vx/traits.h</text>
</a>
</g>
</g>
<!-- Node0&#45;&gt;Node8 -->
<g id="edge9" class="edge">
<title>Node0&#45;&gt;Node8</title>
<path fill="none" stroke="midnightblue" d="M626.35,-138.31C650.84,-125.5 679,-110.77 699.01,-100.3"/>
<polygon fill="midnightblue" stroke="midnightblue" points="700.89,-103.26 708.13,-95.53 697.65,-97.06 700.89,-103.26"/>
</g>
<!-- Node14 -->
<g id="node15" class="node">
<title>Node14</title>
<g id="a_node15"><a xlink:title=" ">
<polygon fill="white" stroke="#bfbfbf" points="1073.88,-6.5 1073.88,-26.5 1154.89,-26.5 1154.89,-6.5 1073.88,-6.5"/>
<text text-anchor="middle" x="1114.39" y="-13.5" font-family="Helvetica,sans-Serif" font-size="10.00">hate/visibility.h</text>
</a>
</g>
</g>
<!-- Node0&#45;&gt;Node14 -->
<g id="edge19" class="edge">
<title>Node0&#45;&gt;Node14</title>
<path fill="none" stroke="midnightblue" d="M664.25,-146.13C701.04,-136.05 743.15,-121.64 778.39,-102 797.93,-91.11 796.05,-78.31 816.39,-69 918.06,-22.45 956.39,-57.94 1065.39,-33 1069.81,-31.99 1074.41,-30.77 1078.95,-29.46"/>
<polygon fill="midnightblue" stroke="midnightblue" points="1080.12,-32.76 1088.67,-26.5 1078.08,-26.06 1080.12,-32.76"/>
</g>
<!-- Node16 -->
<g id="node17" class="node">
<title>Node16</title>
<g id="a_node17"><a xlink:title=" ">
<polygon fill="white" stroke="#bfbfbf" points="824.99,-75.5 824.99,-95.5 893.79,-95.5 893.79,-75.5 824.99,-75.5"/>
<text text-anchor="middle" x="859.39" y="-82.5" font-family="Helvetica,sans-Serif" font-size="10.00">hate/math.h</text>
</a>
</g>
</g>
<!-- Node0&#45;&gt;Node16 -->
<g id="edge18" class="edge">
<title>Node0&#45;&gt;Node16</title>
<path fill="none" stroke="midnightblue" d="M664.16,-142.59C708.6,-130.96 762.98,-116.29 811.39,-102 815,-100.93 818.76,-99.79 822.5,-98.62"/>
<polygon fill="midnightblue" stroke="midnightblue" points="823.83,-101.87 832.3,-95.51 821.71,-95.2 823.83,-101.87"/>
</g>
<!-- Node17 -->
<g id="node18" class="node">
<title>Node17</title>
<g id="a_node18"><a xlink:title=" ">
<polygon fill="white" stroke="#bfbfbf" points="911.77,-75.5 911.77,-95.5 1015.01,-95.5 1015.01,-75.5 911.77,-75.5"/>
<text text-anchor="middle" x="963.39" y="-82.5" font-family="Helvetica,sans-Serif" font-size="10.00">hxcomm/vx/target.h</text>
</a>
</g>
</g>
<!-- Node0&#45;&gt;Node17 -->
<g id="edge20" class="edge">
<title>Node0&#45;&gt;Node17</title>
<path fill="none" stroke="midnightblue" d="M664.12,-149.57C730.21,-137.49 822.15,-119.94 902.39,-102 907.85,-100.78 913.57,-99.42 919.23,-98.04"/>
<polygon fill="midnightblue" stroke="midnightblue" points="920.42,-101.35 929.27,-95.54 918.72,-94.56 920.42,-101.35"/>
</g>
<!-- Node7&#45;&gt;Node7 -->
<g id="edge8" class="edge">
<title>Node7&#45;&gt;Node7</title>
<path fill="none" stroke="midnightblue" d="M364.28,-26.54C388.11,-32.26 414.46,-28.92 414.46,-16.5 414.46,-5.78 394.82,-1.82 374.12,-4.62"/>
<polygon fill="midnightblue" stroke="midnightblue" points="373.47,-1.18 364.28,-6.46 374.76,-8.06 373.47,-1.18"/>
</g>
<!-- Node8&#45;&gt;Node7 -->
<g id="edge14" class="edge">
<title>Node8&#45;&gt;Node7</title>
<path fill="none" stroke="midnightblue" d="M694.24,-75.47C685.59,-73.16 676.17,-70.81 667.39,-69 560.04,-46.81 531.51,-51.06 423.39,-33 414.77,-31.56 405.67,-29.95 396.78,-28.33"/>
<polygon fill="midnightblue" stroke="midnightblue" points="397.33,-24.87 386.86,-26.5 396.06,-31.76 397.33,-24.87"/>
</g>
<!-- Node9 -->
<g id="node10" class="node">
<title>Node9</title>
<g id="a_node10"><a xlink:title=" ">
<polygon fill="white" stroke="#bfbfbf" points="432.33,-6.5 432.33,-26.5 494.45,-26.5 494.45,-6.5 432.33,-6.5"/>
<text text-anchor="middle" x="463.39" y="-13.5" font-family="Helvetica,sans-Serif" font-size="10.00">type_traits</text>
</a>
</g>
</g>
<!-- Node8&#45;&gt;Node9 -->
<g id="edge10" class="edge">
<title>Node8&#45;&gt;Node9</title>
<path fill="none" stroke="midnightblue" d="M692.63,-75.47C684.41,-73.28 675.59,-71 667.39,-69 594.88,-51.36 574.83,-54.55 503.39,-33 500.58,-32.15 497.69,-31.2 494.81,-30.19"/>
<polygon fill="midnightblue" stroke="midnightblue" points="495.78,-26.82 485.18,-26.64 493.35,-33.39 495.78,-26.82"/>
</g>
<!-- Node10 -->
<g id="node11" class="node">
<title>Node10</title>
<g id="a_node11"><a xlink:title=" ">
<polygon fill="white" stroke="#bfbfbf" points="512.04,-6.5 512.04,-26.5 604.74,-26.5 604.74,-6.5 512.04,-6.5"/>
<text text-anchor="middle" x="558.39" y="-13.5" font-family="Helvetica,sans-Serif" font-size="10.00">boost/variant.hpp</text>
</a>
</g>
</g>
<!-- Node8&#45;&gt;Node10 -->
<g id="edge11" class="edge">
<title>Node8&#45;&gt;Node10</title>
<path fill="none" stroke="midnightblue" d="M702.87,-75.46C673.98,-63.88 623.69,-43.7 590.72,-30.47"/>
<polygon fill="midnightblue" stroke="midnightblue" points="591.67,-27.08 581.09,-26.61 589.06,-33.58 591.67,-27.08"/>
</g>
<!-- Node11 -->
<g id="node12" class="node">
<title>Node11</title>
<g id="a_node12"><a xlink:title=" ">
<polygon fill="white" stroke="#bfbfbf" points="622.77,-0.5 622.77,-32.5 716.01,-32.5 716.01,-0.5 622.77,-0.5"/>
<text text-anchor="start" x="630.77" y="-19.5" font-family="Helvetica,sans-Serif" font-size="10.00">fisch/vx/container</text>
<text text-anchor="middle" x="669.39" y="-7.5" font-family="Helvetica,sans-Serif" font-size="10.00">_fwd.h</text>
</a>
</g>
</g>
<!-- Node8&#45;&gt;Node11 -->
<g id="edge12" class="edge">
<title>Node8&#45;&gt;Node11</title>
<path fill="none" stroke="midnightblue" d="M717.84,-75.46C710.36,-66.53 698.62,-52.48 688.57,-40.45"/>
<polygon fill="midnightblue" stroke="midnightblue" points="691.05,-37.96 681.95,-32.53 685.68,-42.45 691.05,-37.96"/>
</g>
<!-- Node12 -->
<g id="node13" class="node">
<title>Node12</title>
<g id="a_node13"><a xlink:title=" ">
<polygon fill="white" stroke="#bfbfbf" points="733.77,-0.5 733.77,-32.5 827.01,-32.5 827.01,-0.5 733.77,-0.5"/>
<text text-anchor="start" x="741.77" y="-19.5" font-family="Helvetica,sans-Serif" font-size="10.00">fisch/vx/container</text>
<text text-anchor="middle" x="780.39" y="-7.5" font-family="Helvetica,sans-Serif" font-size="10.00">_ticket.h</text>
</a>
</g>
</g>
<!-- Node8&#45;&gt;Node12 -->
<g id="edge13" class="edge">
<title>Node8&#45;&gt;Node12</title>
<path fill="none" stroke="midnightblue" d="M732.81,-75.46C740.14,-66.53 751.68,-52.48 761.55,-40.45"/>
<polygon fill="midnightblue" stroke="midnightblue" points="764.41,-42.48 768.05,-32.53 759,-38.04 764.41,-42.48"/>
</g>
<!-- Node13 -->
<g id="node14" class="node">
<title>Node13</title>
<g id="a_node14"><a xlink:title=" ">
<polygon fill="white" stroke="#bfbfbf" points="844.77,-6.5 844.77,-26.5 928.01,-26.5 928.01,-6.5 844.77,-6.5"/>
<text text-anchor="middle" x="886.39" y="-13.5" font-family="Helvetica,sans-Serif" font-size="10.00">hate/type_list.h</text>
</a>
</g>
</g>
<!-- Node8&#45;&gt;Node13 -->
<g id="edge15" class="edge">
<title>Node8&#45;&gt;Node13</title>
<path fill="none" stroke="midnightblue" d="M747.1,-75.46C774.95,-63.88 823.43,-43.7 855.22,-30.47"/>
<polygon fill="midnightblue" stroke="midnightblue" points="856.62,-33.68 864.5,-26.61 853.93,-27.22 856.62,-33.68"/>
</g>
<!-- Node8&#45;&gt;Node14 -->
<g id="edge16" class="edge">
<title>Node8&#45;&gt;Node14</title>
<path fill="none" stroke="midnightblue" d="M756.21,-75.44C764.94,-73.1 774.49,-70.75 783.39,-69 907.37,-44.63 941.99,-60.16 1065.39,-33 1069.87,-32.01 1074.53,-30.8 1079.12,-29.48"/>
<polygon fill="midnightblue" stroke="midnightblue" points="1080.39,-32.76 1088.94,-26.5 1078.35,-26.06 1080.39,-32.76"/>
</g>
<!-- Node15 -->
<g id="node16" class="node">
<title>Node15</title>
<g id="a_node16"><a xlink:title=" ">
<polygon fill="white" stroke="#bfbfbf" points="946.43,-6.5 946.43,-26.5 1056.34,-26.5 1056.34,-6.5 946.43,-6.5"/>
<text text-anchor="middle" x="1001.39" y="-13.5" font-family="Helvetica,sans-Serif" font-size="10.00">fisch/vx/container.def</text>
</a>
</g>
</g>
<!-- Node8&#45;&gt;Node15 -->
<g id="edge17" class="edge">
<title>Node8&#45;&gt;Node15</title>
<path fill="none" stroke="midnightblue" d="M758.47,-75.47C766.6,-73.3 775.3,-71.03 783.39,-69 851.57,-51.92 869.01,-49.27 937.39,-33 942.81,-31.71 948.49,-30.35 954.13,-28.99"/>
<polygon fill="midnightblue" stroke="midnightblue" points="955.27,-32.31 964.17,-26.57 953.63,-25.51 955.27,-32.31"/>
</g>
</g>
</svg>
        <g id="navigator" transform="translate(0 0)" fill="#404254">
                <rect fill="#f2f5e9" fill-opacity="0.5" stroke="#606060" stroke-width=".5" x="0" y="0" width="60" height="60"/>
                <use id="zoomplus" xlink:href="#zoomPlus" x="17" y="9" onmousedown="handleZoom(evt,'in')"/>
                <use id="zoomminus" xlink:href="#zoomMin" x="42" y="9" onmousedown="handleZoom(evt,'out')"/>
                <use id="reset" xlink:href="#resetDef" x="30" y="36" onmousedown="handleReset()"/>
                <g id="arrowUp" xlink:href="#dirArrow" transform="translate(30 24)" onmousedown="handlePan(0,-1)">
                  <use xlink:href="#rim" fill="#404040">
                        <set attributeName="fill" to="#808080" begin="arrowUp.mouseover" end="arrowUp.mouseout"/>
                  </use>
                  <path fill="none" stroke="white" stroke-width="1.5" d="M0,-3.0v7 M-2.5,-0.5L0,-3.0L2.5,-0.5"/>
                </g>
                <g id="arrowRight" xlink:href="#dirArrow" transform="rotate(90) translate(36 -43)" onmousedown="handlePan(1,0)">
                  <use xlink:href="#rim" fill="#404040">
                        <set attributeName="fill" to="#808080" begin="arrowRight.mouseover" end="arrowRight.mouseout"/>
                  </use>
                  <path fill="none" stroke="white" stroke-width="1.5" d="M0,-3.0v7 M-2.5,-0.5L0,-3.0L2.5,-0.5"/>
                </g>
                <g id="arrowDown" xlink:href="#dirArrow" transform="rotate(180) translate(-30 -48)" onmousedown="handlePan(0,1)">
                  <use xlink:href="#rim" fill="#404040">
                        <set attributeName="fill" to="#808080" begin="arrowDown.mouseover" end="arrowDown.mouseout"/>
                  </use>
                  <path fill="none" stroke="white" stroke-width="1.5" d="M0,-3.0v7 M-2.5,-0.5L0,-3.0L2.5,-0.5"/>
                </g>
                <g id="arrowLeft" xlink:href="#dirArrow" transform="rotate(270) translate(-36 17)" onmousedown="handlePan(-1,0)">
                  <use xlink:href="#rim" fill="#404040">
                        <set attributeName="fill" to="#808080" begin="arrowLeft.mouseover" end="arrowLeft.mouseout"/>
                  </use>
                  <path fill="none" stroke="white" stroke-width="1.5" d="M0,-3.0v7 M-2.5,-0.5L0,-3.0L2.5,-0.5"/>
                </g>
        </g>
        <svg viewBox="0 0 15 15" width="100%" height="30px" preserveAspectRatio="xMaxYMin meet">
         <g id="arrow_out" transform="scale(0.3 0.3)">
          <a xlink:href="routing__crossbar_8h__incl_org.svg" target="_base">
           <rect id="button" ry="5" rx="5" y="6" x="6" height="38" width="38"
                fill="#f2f5e9" fill-opacity="0.5" stroke="#606060" stroke-width="1.0"/>
           <path id="arrow"
             d="M 11.500037,31.436501 C 11.940474,20.09759 22.043105,11.32322 32.158766,21.979434 L 37.068811,17.246167 C 37.068811,17.246167 37.088388,32 37.088388,32 L 22.160133,31.978069 C 22.160133,31.978069 26.997745,27.140456 26.997745,27.140456 C 18.528582,18.264221 13.291696,25.230495 11.500037,31.436501 z"
             style="fill:#404040;"/>
          </a>
         </g>
        </svg>
</svg>
