<?xml version="1.0" encoding="UTF-8" standalone="no"?>
<!DOCTYPE svg PUBLIC "-//W3C//DTD SVG 1.1//EN"
 "http://www.w3.org/Graphics/SVG/1.1/DTD/svg11.dtd">
<!-- Generated by graphviz version 2.43.0 (0)
 -->
<!-- Title: /jenkins/jenlib_workspaces_f9/bld_nightly&#45;haldls.YmxkX25pZ2h0bHktaGFsZGxzIzY1NQ.x/haldls/include/haldls/vx/spi.h Pages: 1 -->
<!--zoomable 203 -->
<svg id="main" version="1.1" xmlns="http://www.w3.org/2000/svg" xmlns:xlink="http://www.w3.org/1999/xlink" xml:space="preserve" onload="init(evt)">
<style type="text/css"><![CDATA[
.edge:hover path { stroke: red; }
.edge:hover polygon { stroke: red; fill: red; }
]]></style>
<script type="text/javascript"><![CDATA[
var edges = document.getElementsByTagName('g');
if (edges && edges.length) {
  for (var i=0;i<edges.length;i++) {
    if (edges[i].id.substr(0,4)=='edge') {
      edges[i].setAttribute('class','edge');
    }
  }
}
]]></script>
        <defs>
                <circle id="rim" cx="0" cy="0" r="7"/>
                <circle id="rim2" cx="0" cy="0" r="3.5"/>
                <g id="zoomPlus">
                        <use xlink:href="#rim" fill="#404040">
                                <set attributeName="fill" to="#808080" begin="zoomplus.mouseover" end="zoomplus.mouseout"/>
                        </use>
                        <path d="M-4,0h8M0,-4v8" fill="none" stroke="white" stroke-width="1.5" pointer-events="none"/>
                </g>
                <g id="zoomMin">
                        <use xlink:href="#rim" fill="#404040">
                                <set attributeName="fill" to="#808080" begin="zoomminus.mouseover" end="zoomminus.mouseout"/>
                        </use>
                        <path d="M-4,0h8" fill="none" stroke="white" stroke-width="1.5" pointer-events="none"/>
                </g>
                <g id="dirArrow">
                        <path fill="none" stroke="white" stroke-width="1.5" d="M0,-3.0v7 M-2.5,-0.5L0,-3.0L2.5,-0.5"/>
                </g>
               <g id="resetDef">
                       <use xlink:href="#rim2" fill="#404040">
                               <set attributeName="fill" to="#808080" begin="reset.mouseover" end="reset.mouseout"/>
                       </use>
               </g>
        </defs>

<script type="text/javascript">
var viewWidth = 1285;
var viewHeight = 203;
var sectionId = 'dynsection-0';
</script>
<script xlink:href="svgpan.js"/>
<svg id="graph" class="graph">
<g id="viewport">
<title>/jenkins/jenlib_workspaces_f9/bld_nightly&#45;haldls.YmxkX25pZ2h0bHktaGFsZGxzIzY1NQ.x/haldls/include/haldls/vx/spi.h</title>
<polygon fill="white" stroke="transparent" points="-4,4 -4,-199 1280.89,-199 1280.89,4 -4,4"/>
<!-- Node0 -->
<g id="node1" class="node">
<title>Node0</title>
<g id="a_node1"><a xlink:title=" ">
<polygon fill="#bfbfbf" stroke="black" points="425.71,-138.5 425.71,-194.5 605.07,-194.5 605.07,-138.5 425.71,-138.5"/>
<text text-anchor="start" x="433.71" y="-181.5" font-family="Helvetica,sans-Serif" font-size="10.00">/jenkins/jenlib_workspaces</text>
<text text-anchor="start" x="433.71" y="-169.5" font-family="Helvetica,sans-Serif" font-size="10.00">_f9/bld_nightly&#45;haldls.YmxkX25p</text>
<text text-anchor="start" x="433.71" y="-157.5" font-family="Helvetica,sans-Serif" font-size="10.00">Z2h0bHktaGFsZGxzIzY1NQ.x/haldls</text>
<text text-anchor="middle" x="515.39" y="-145.5" font-family="Helvetica,sans-Serif" font-size="10.00">/include/haldls/vx/spi.h</text>
</a>
</g>
</g>
<!-- Node1 -->
<g id="node2" class="node">
<title>Node1</title>
<g id="a_node2"><a xlink:title=" ">
<polygon fill="white" stroke="#bfbfbf" points="0,-75.5 0,-95.5 38.78,-95.5 38.78,-75.5 0,-75.5"/>
<text text-anchor="middle" x="19.39" y="-82.5" font-family="Helvetica,sans-Serif" font-size="10.00">array</text>
</a>
</g>
</g>
<!-- Node0&#45;&gt;Node1 -->
<g id="edge1" class="edge">
<title>Node0&#45;&gt;Node1</title>
<path fill="none" stroke="midnightblue" d="M425.64,-163.13C329.77,-158.35 174.44,-144.13 47.39,-102 45.76,-101.46 44.11,-100.82 42.48,-100.12"/>
<polygon fill="midnightblue" stroke="midnightblue" points="43.96,-96.95 33.45,-95.61 40.83,-103.21 43.96,-96.95"/>
</g>
<!-- Node2 -->
<g id="node3" class="node">
<title>Node2</title>
<g id="a_node3"><a xlink:title=" ">
<polygon fill="white" stroke="#bfbfbf" points="56.33,-75.5 56.33,-95.5 108.45,-95.5 108.45,-75.5 56.33,-75.5"/>
<text text-anchor="middle" x="82.39" y="-82.5" font-family="Helvetica,sans-Serif" font-size="10.00">ostream</text>
</a>
</g>
</g>
<!-- Node0&#45;&gt;Node2 -->
<g id="edge2" class="edge">
<title>Node0&#45;&gt;Node2</title>
<path fill="none" stroke="midnightblue" d="M425.4,-157.85C343.76,-149.33 220.72,-132.56 117.39,-102 114.93,-101.27 112.43,-100.42 109.94,-99.48"/>
<polygon fill="midnightblue" stroke="midnightblue" points="111.16,-96.2 100.58,-95.62 108.49,-102.67 111.16,-96.2"/>
</g>
<!-- Node3 -->
<g id="node4" class="node">
<title>Node3</title>
<g id="a_node4"><a xlink:title=" ">
<polygon fill="white" stroke="#bfbfbf" points="126.76,-75.5 126.76,-95.5 230.01,-95.5 230.01,-75.5 126.76,-75.5"/>
<text text-anchor="middle" x="178.39" y="-82.5" font-family="Helvetica,sans-Serif" font-size="10.00">fisch/vx/constants.h</text>
</a>
</g>
</g>
<!-- Node0&#45;&gt;Node3 -->
<g id="edge3" class="edge">
<title>Node0&#45;&gt;Node3</title>
<path fill="none" stroke="midnightblue" d="M425.46,-145.35C371.45,-133.12 301.39,-117.01 239.39,-102 234.28,-100.76 228.93,-99.44 223.62,-98.11"/>
<polygon fill="midnightblue" stroke="midnightblue" points="224.07,-94.62 213.51,-95.57 222.36,-101.41 224.07,-94.62"/>
</g>
<!-- Node4 -->
<g id="node5" class="node">
<title>Node4</title>
<g id="a_node5"><a xlink:title=" ">
<polygon fill="white" stroke="#bfbfbf" points="248.49,-75.5 248.49,-95.5 382.29,-95.5 382.29,-75.5 248.49,-75.5"/>
<text text-anchor="middle" x="315.39" y="-82.5" font-family="Helvetica,sans-Serif" font-size="10.00">halco/common/geometry.h</text>
</a>
</g>
</g>
<!-- Node0&#45;&gt;Node4 -->
<g id="edge4" class="edge">
<title>Node0&#45;&gt;Node4</title>
<path fill="none" stroke="midnightblue" d="M446.84,-138.42C413.35,-125.19 374.62,-109.9 347.92,-99.35"/>
<polygon fill="midnightblue" stroke="midnightblue" points="348.9,-95.97 338.31,-95.55 346.32,-102.48 348.9,-95.97"/>
</g>
<!-- Node5 -->
<g id="node6" class="node">
<title>Node5</title>
<g id="a_node6"><a xlink:title=" ">
<polygon fill="white" stroke="#bfbfbf" points="400.27,-69.5 400.27,-101.5 508.51,-101.5 508.51,-69.5 400.27,-69.5"/>
<text text-anchor="start" x="408.27" y="-88.5" font-family="Helvetica,sans-Serif" font-size="10.00">halco/common/typed</text>
<text text-anchor="middle" x="454.39" y="-76.5" font-family="Helvetica,sans-Serif" font-size="10.00">_array.h</text>
</a>
</g>
</g>
<!-- Node0&#45;&gt;Node5 -->
<g id="edge5" class="edge">
<title>Node0&#45;&gt;Node5</title>
<path fill="none" stroke="midnightblue" d="M494.4,-138.31C487.19,-128.98 479.19,-118.62 472.26,-109.64"/>
<polygon fill="midnightblue" stroke="midnightblue" points="474.87,-107.3 465.99,-101.52 469.33,-111.58 474.87,-107.3"/>
</g>
<!-- Node6 -->
<g id="node7" class="node">
<title>Node6</title>
<g id="a_node7"><a xlink:title=" ">
<polygon fill="white" stroke="#bfbfbf" points="526.88,-69.5 526.88,-101.5 627.9,-101.5 627.9,-69.5 526.88,-69.5"/>
<text text-anchor="start" x="534.88" y="-88.5" font-family="Helvetica,sans-Serif" font-size="10.00">halco/hicann&#45;dls/vx</text>
<text text-anchor="middle" x="577.39" y="-76.5" font-family="Helvetica,sans-Serif" font-size="10.00">/dac.h</text>
</a>
</g>
</g>
<!-- Node0&#45;&gt;Node6 -->
<g id="edge6" class="edge">
<title>Node0&#45;&gt;Node6</title>
<path fill="none" stroke="midnightblue" d="M536.72,-138.31C544.05,-128.98 552.18,-118.62 559.23,-109.64"/>
<polygon fill="midnightblue" stroke="midnightblue" points="562.18,-111.55 565.6,-101.52 556.67,-107.23 562.18,-111.55"/>
</g>
<!-- Node7 -->
<g id="node8" class="node">
<title>Node7</title>
<g id="a_node8"><a xlink:title=" ">
<polygon fill="white" stroke="#bfbfbf" points="645.88,-69.5 645.88,-101.5 746.9,-101.5 746.9,-69.5 645.88,-69.5"/>
<text text-anchor="start" x="653.88" y="-88.5" font-family="Helvetica,sans-Serif" font-size="10.00">halco/hicann&#45;dls/vx</text>
<text text-anchor="middle" x="696.39" y="-76.5" font-family="Helvetica,sans-Serif" font-size="10.00">/xboard.h</text>
</a>
</g>
</g>
<!-- Node0&#45;&gt;Node7 -->
<g id="edge7" class="edge">
<title>Node0&#45;&gt;Node7</title>
<path fill="none" stroke="midnightblue" d="M577.42,-138.42C602.14,-127.64 630.01,-115.47 652.55,-105.63"/>
<polygon fill="midnightblue" stroke="midnightblue" points="654.1,-108.78 661.87,-101.57 651.3,-102.36 654.1,-108.78"/>
</g>
<!-- Node8 -->
<g id="node9" class="node">
<title>Node8</title>
<g id="a_node9"><a xlink:href="genpybind_8h.html" target="_top" xlink:title=" ">
<polygon fill="white" stroke="black" points="406.32,-6.5 406.32,-26.5 518.46,-26.5 518.46,-6.5 406.32,-6.5"/>
<text text-anchor="middle" x="462.39" y="-13.5" font-family="Helvetica,sans-Serif" font-size="10.00">haldls/vx/genpybind.h</text>
</a>
</g>
</g>
<!-- Node0&#45;&gt;Node8 -->
<g id="edge8" class="edge">
<title>Node0&#45;&gt;Node8</title>
<path fill="none" stroke="midnightblue" d="M605.26,-158.91C692.08,-149.13 803.98,-125.4 756.39,-69 725.71,-32.65 592.21,-41.37 545.39,-33 537.19,-31.54 528.55,-29.96 520.06,-28.39"/>
<polygon fill="midnightblue" stroke="midnightblue" points="520.68,-24.94 510.21,-26.56 519.4,-31.83 520.68,-24.94"/>
</g>
<!-- Node9 -->
<g id="node10" class="node">
<title>Node9</title>
<g id="a_node10"><a xlink:href="traits_8h.html" target="_top" xlink:title=" ">
<polygon fill="white" stroke="black" points="803.55,-75.5 803.55,-95.5 891.23,-95.5 891.23,-75.5 803.55,-75.5"/>
<text text-anchor="middle" x="847.39" y="-82.5" font-family="Helvetica,sans-Serif" font-size="10.00">haldls/vx/traits.h</text>
</a>
</g>
</g>
<!-- Node0&#45;&gt;Node9 -->
<g id="edge10" class="edge">
<title>Node0&#45;&gt;Node9</title>
<path fill="none" stroke="midnightblue" d="M605.35,-145.45C658.9,-133.31 728.15,-117.27 789.39,-102 794.32,-100.77 799.47,-99.45 804.59,-98.11"/>
<polygon fill="midnightblue" stroke="midnightblue" points="805.54,-101.48 814.31,-95.54 803.75,-94.71 805.54,-101.48"/>
</g>
<!-- Node15 -->
<g id="node16" class="node">
<title>Node15</title>
<g id="a_node16"><a xlink:title=" ">
<polygon fill="white" stroke="#bfbfbf" points="1195.88,-6.5 1195.88,-26.5 1276.89,-26.5 1276.89,-6.5 1195.88,-6.5"/>
<text text-anchor="middle" x="1236.39" y="-13.5" font-family="Helvetica,sans-Serif" font-size="10.00">hate/visibility.h</text>
</a>
</g>
</g>
<!-- Node0&#45;&gt;Node15 -->
<g id="edge19" class="edge">
<title>Node0&#45;&gt;Node15</title>
<path fill="none" stroke="midnightblue" d="M605.19,-152.57C683.43,-140.86 799.8,-122.36 900.39,-102 1028.97,-75.97 1060.99,-68.14 1187.39,-33 1191.24,-31.93 1195.25,-30.76 1199.24,-29.55"/>
<polygon fill="midnightblue" stroke="midnightblue" points="1200.5,-32.83 1209.02,-26.53 1198.43,-26.14 1200.5,-32.83"/>
</g>
<!-- Node8&#45;&gt;Node8 -->
<g id="edge9" class="edge">
<title>Node8&#45;&gt;Node8</title>
<path fill="none" stroke="midnightblue" d="M486.28,-26.54C510.11,-32.26 536.46,-28.92 536.46,-16.5 536.46,-5.78 516.82,-1.82 496.12,-4.62"/>
<polygon fill="midnightblue" stroke="midnightblue" points="495.47,-1.18 486.28,-6.46 496.76,-8.06 495.47,-1.18"/>
</g>
<!-- Node9&#45;&gt;Node8 -->
<g id="edge15" class="edge">
<title>Node9&#45;&gt;Node8</title>
<path fill="none" stroke="midnightblue" d="M816.24,-75.47C807.59,-73.16 798.17,-70.81 789.39,-69 682.04,-46.81 653.51,-51.06 545.39,-33 536.77,-31.56 527.67,-29.95 518.78,-28.33"/>
<polygon fill="midnightblue" stroke="midnightblue" points="519.33,-24.87 508.86,-26.5 518.06,-31.76 519.33,-24.87"/>
</g>
<!-- Node10 -->
<g id="node11" class="node">
<title>Node10</title>
<g id="a_node11"><a xlink:title=" ">
<polygon fill="white" stroke="#bfbfbf" points="554.33,-6.5 554.33,-26.5 616.45,-26.5 616.45,-6.5 554.33,-6.5"/>
<text text-anchor="middle" x="585.39" y="-13.5" font-family="Helvetica,sans-Serif" font-size="10.00">type_traits</text>
</a>
</g>
</g>
<!-- Node9&#45;&gt;Node10 -->
<g id="edge11" class="edge">
<title>Node9&#45;&gt;Node10</title>
<path fill="none" stroke="midnightblue" d="M814.63,-75.47C806.41,-73.28 797.59,-71 789.39,-69 716.88,-51.36 696.83,-54.55 625.39,-33 622.58,-32.15 619.69,-31.2 616.81,-30.19"/>
<polygon fill="midnightblue" stroke="midnightblue" points="617.78,-26.82 607.18,-26.64 615.35,-33.39 617.78,-26.82"/>
</g>
<!-- Node11 -->
<g id="node12" class="node">
<title>Node11</title>
<g id="a_node12"><a xlink:title=" ">
<polygon fill="white" stroke="#bfbfbf" points="634.04,-6.5 634.04,-26.5 726.74,-26.5 726.74,-6.5 634.04,-6.5"/>
<text text-anchor="middle" x="680.39" y="-13.5" font-family="Helvetica,sans-Serif" font-size="10.00">boost/variant.hpp</text>
</a>
</g>
</g>
<!-- Node9&#45;&gt;Node11 -->
<g id="edge12" class="edge">
<title>Node9&#45;&gt;Node11</title>
<path fill="none" stroke="midnightblue" d="M824.87,-75.46C795.98,-63.88 745.69,-43.7 712.72,-30.47"/>
<polygon fill="midnightblue" stroke="midnightblue" points="713.67,-27.08 703.09,-26.61 711.06,-33.58 713.67,-27.08"/>
</g>
<!-- Node12 -->
<g id="node13" class="node">
<title>Node12</title>
<g id="a_node13"><a xlink:title=" ">
<polygon fill="white" stroke="#bfbfbf" points="744.77,-0.5 744.77,-32.5 838.01,-32.5 838.01,-0.5 744.77,-0.5"/>
<text text-anchor="start" x="752.77" y="-19.5" font-family="Helvetica,sans-Serif" font-size="10.00">fisch/vx/container</text>
<text text-anchor="middle" x="791.39" y="-7.5" font-family="Helvetica,sans-Serif" font-size="10.00">_fwd.h</text>
</a>
</g>
</g>
<!-- Node9&#45;&gt;Node12 -->
<g id="edge13" class="edge">
<title>Node9&#45;&gt;Node12</title>
<path fill="none" stroke="midnightblue" d="M839.84,-75.46C832.36,-66.53 820.62,-52.48 810.57,-40.45"/>
<polygon fill="midnightblue" stroke="midnightblue" points="813.05,-37.96 803.95,-32.53 807.68,-42.45 813.05,-37.96"/>
</g>
<!-- Node13 -->
<g id="node14" class="node">
<title>Node13</title>
<g id="a_node14"><a xlink:title=" ">
<polygon fill="white" stroke="#bfbfbf" points="855.77,-0.5 855.77,-32.5 949.01,-32.5 949.01,-0.5 855.77,-0.5"/>
<text text-anchor="start" x="863.77" y="-19.5" font-family="Helvetica,sans-Serif" font-size="10.00">fisch/vx/container</text>
<text text-anchor="middle" x="902.39" y="-7.5" font-family="Helvetica,sans-Serif" font-size="10.00">_ticket.h</text>
</a>
</g>
</g>
<!-- Node9&#45;&gt;Node13 -->
<g id="edge14" class="edge">
<title>Node9&#45;&gt;Node13</title>
<path fill="none" stroke="midnightblue" d="M854.81,-75.46C862.14,-66.53 873.68,-52.48 883.55,-40.45"/>
<polygon fill="midnightblue" stroke="midnightblue" points="886.41,-42.48 890.05,-32.53 881,-38.04 886.41,-42.48"/>
</g>
<!-- Node14 -->
<g id="node15" class="node">
<title>Node14</title>
<g id="a_node15"><a xlink:title=" ">
<polygon fill="white" stroke="#bfbfbf" points="966.77,-6.5 966.77,-26.5 1050.01,-26.5 1050.01,-6.5 966.77,-6.5"/>
<text text-anchor="middle" x="1008.39" y="-13.5" font-family="Helvetica,sans-Serif" font-size="10.00">hate/type_list.h</text>
</a>
</g>
</g>
<!-- Node9&#45;&gt;Node14 -->
<g id="edge16" class="edge">
<title>Node9&#45;&gt;Node14</title>
<path fill="none" stroke="midnightblue" d="M869.1,-75.46C896.95,-63.88 945.43,-43.7 977.22,-30.47"/>
<polygon fill="midnightblue" stroke="midnightblue" points="978.62,-33.68 986.5,-26.61 975.93,-27.22 978.62,-33.68"/>
</g>
<!-- Node9&#45;&gt;Node15 -->
<g id="edge17" class="edge">
<title>Node9&#45;&gt;Node15</title>
<path fill="none" stroke="midnightblue" d="M891.27,-80.07C956.45,-72.99 1082.42,-57.39 1187.39,-33 1191.76,-31.98 1196.3,-30.77 1200.79,-29.47"/>
<polygon fill="midnightblue" stroke="midnightblue" points="1201.85,-32.81 1210.4,-26.55 1199.82,-26.11 1201.85,-32.81"/>
</g>
<!-- Node16 -->
<g id="node17" class="node">
<title>Node16</title>
<g id="a_node17"><a xlink:title=" ">
<polygon fill="white" stroke="#bfbfbf" points="1068.43,-6.5 1068.43,-26.5 1178.34,-26.5 1178.34,-6.5 1068.43,-6.5"/>
<text text-anchor="middle" x="1123.39" y="-13.5" font-family="Helvetica,sans-Serif" font-size="10.00">fisch/vx/container.def</text>
</a>
</g>
</g>
<!-- Node9&#45;&gt;Node16 -->
<g id="edge18" class="edge">
<title>Node9&#45;&gt;Node16</title>
<path fill="none" stroke="midnightblue" d="M884.61,-75.46C934.1,-63.45 1021.6,-42.21 1075.82,-29.05"/>
<polygon fill="midnightblue" stroke="midnightblue" points="1076.98,-32.37 1085.87,-26.61 1075.33,-25.56 1076.98,-32.37"/>
</g>
</g>
</svg>
        <g id="navigator" transform="translate(0 0)" fill="#404254">
                <rect fill="#f2f5e9" fill-opacity="0.5" stroke="#606060" stroke-width=".5" x="0" y="0" width="60" height="60"/>
                <use id="zoomplus" xlink:href="#zoomPlus" x="17" y="9" onmousedown="handleZoom(evt,'in')"/>
                <use id="zoomminus" xlink:href="#zoomMin" x="42" y="9" onmousedown="handleZoom(evt,'out')"/>
                <use id="reset" xlink:href="#resetDef" x="30" y="36" onmousedown="handleReset()"/>
                <g id="arrowUp" xlink:href="#dirArrow" transform="translate(30 24)" onmousedown="handlePan(0,-1)">
                  <use xlink:href="#rim" fill="#404040">
                        <set attributeName="fill" to="#808080" begin="arrowUp.mouseover" end="arrowUp.mouseout"/>
                  </use>
                  <path fill="none" stroke="white" stroke-width="1.5" d="M0,-3.0v7 M-2.5,-0.5L0,-3.0L2.5,-0.5"/>
                </g>
                <g id="arrowRight" xlink:href="#dirArrow" transform="rotate(90) translate(36 -43)" onmousedown="handlePan(1,0)">
                  <use xlink:href="#rim" fill="#404040">
                        <set attributeName="fill" to="#808080" begin="arrowRight.mouseover" end="arrowRight.mouseout"/>
                  </use>
                  <path fill="none" stroke="white" stroke-width="1.5" d="M0,-3.0v7 M-2.5,-0.5L0,-3.0L2.5,-0.5"/>
                </g>
                <g id="arrowDown" xlink:href="#dirArrow" transform="rotate(180) translate(-30 -48)" onmousedown="handlePan(0,1)">
                  <use xlink:href="#rim" fill="#404040">
                        <set attributeName="fill" to="#808080" begin="arrowDown.mouseover" end="arrowDown.mouseout"/>
                  </use>
                  <path fill="none" stroke="white" stroke-width="1.5" d="M0,-3.0v7 M-2.5,-0.5L0,-3.0L2.5,-0.5"/>
                </g>
                <g id="arrowLeft" xlink:href="#dirArrow" transform="rotate(270) translate(-36 17)" onmousedown="handlePan(-1,0)">
                  <use xlink:href="#rim" fill="#404040">
                        <set attributeName="fill" to="#808080" begin="arrowLeft.mouseover" end="arrowLeft.mouseout"/>
                  </use>
                  <path fill="none" stroke="white" stroke-width="1.5" d="M0,-3.0v7 M-2.5,-0.5L0,-3.0L2.5,-0.5"/>
                </g>
        </g>
        <svg viewBox="0 0 15 15" width="100%" height="30px" preserveAspectRatio="xMaxYMin meet">
         <g id="arrow_out" transform="scale(0.3 0.3)">
          <a xlink:href="spi_8h__incl_org.svg" target="_base">
           <rect id="button" ry="5" rx="5" y="6" x="6" height="38" width="38"
                fill="#f2f5e9" fill-opacity="0.5" stroke="#606060" stroke-width="1.0"/>
           <path id="arrow"
             d="M 11.500037,31.436501 C 11.940474,20.09759 22.043105,11.32322 32.158766,21.979434 L 37.068811,17.246167 C 37.068811,17.246167 37.088388,32 37.088388,32 L 22.160133,31.978069 C 22.160133,31.978069 26.997745,27.140456 26.997745,27.140456 C 18.528582,18.264221 13.291696,25.230495 11.500037,31.436501 z"
             style="fill:#404040;"/>
          </a>
         </g>
        </svg>
</svg>
