<?xml version="1.0" encoding="UTF-8" standalone="no"?>
<!DOCTYPE svg PUBLIC "-//W3C//DTD SVG 1.1//EN"
 "http://www.w3.org/Graphics/SVG/1.1/DTD/svg11.dtd">
<!-- Generated by graphviz version 2.43.0 (0)
 -->
<!-- Title: /jenkins/jenlib_workspaces_f9/bld_nightly&#45;haldls.YmxkX25pZ2h0bHktaGFsZGxzIzY1NQ.x/haldls/include/haldls/vx/sram_controller.h Pages: 1 -->
<svg width="1077pt" height="191pt"
 viewBox="0.00 0.00 1076.70 191.00" xmlns="http://www.w3.org/2000/svg" xmlns:xlink="http://www.w3.org/1999/xlink">
<g id="graph0" class="graph" transform="scale(1 1) rotate(0) translate(4 187)">
<title>/jenkins/jenlib_workspaces_f9/bld_nightly&#45;haldls.YmxkX25pZ2h0bHktaGFsZGxzIzY1NQ.x/haldls/include/haldls/vx/sram_controller.h</title>
<polygon fill="white" stroke="transparent" points="-4,4 -4,-187 1072.7,-187 1072.7,4 -4,4"/>
<!-- Node0 -->
<g id="node1" class="node">
<title>Node0</title>
<g id="a_node1"><a xlink:title=" ">
<polygon fill="#bfbfbf" stroke="black" points="660.39,-126.5 660.39,-182.5 839.75,-182.5 839.75,-126.5 660.39,-126.5"/>
<text text-anchor="start" x="668.39" y="-169.5" font-family="Helvetica,sans-Serif" font-size="10.00">/jenkins/jenlib_workspaces</text>
<text text-anchor="start" x="668.39" y="-157.5" font-family="Helvetica,sans-Serif" font-size="10.00">_f9/bld_nightly&#45;haldls.YmxkX25p</text>
<text text-anchor="start" x="668.39" y="-145.5" font-family="Helvetica,sans-Serif" font-size="10.00">Z2h0bHktaGFsZGxzIzY1NQ.x/haldls</text>
<text text-anchor="middle" x="750.07" y="-133.5" font-family="Helvetica,sans-Serif" font-size="10.00">/include/haldls/vx/sram_controller.h</text>
</a>
</g>
</g>
<!-- Node1 -->
<g id="node2" class="node">
<title>Node1</title>
<g id="a_node2"><a xlink:href="common_8h.html" target="_top" xlink:title=" ">
<polygon fill="white" stroke="black" points="787.9,-69.5 787.9,-89.5 892.24,-89.5 892.24,-69.5 787.9,-69.5"/>
<text text-anchor="middle" x="840.07" y="-76.5" font-family="Helvetica,sans-Serif" font-size="10.00">haldls/vx/common.h</text>
</a>
</g>
</g>
<!-- Node0&#45;&gt;Node1 -->
<g id="edge1" class="edge">
<title>Node0&#45;&gt;Node1</title>
<path fill="none" stroke="midnightblue" d="M783.58,-126.32C796.2,-116.08 810.11,-104.8 820.97,-95.99"/>
<polygon fill="midnightblue" stroke="midnightblue" points="823.38,-98.54 828.95,-89.52 818.97,-93.11 823.38,-98.54"/>
</g>
<!-- Node5 -->
<g id="node6" class="node">
<title>Node5</title>
<g id="a_node6"><a xlink:href="genpybind_8h.html" target="_top" xlink:title=" ">
<polygon fill="white" stroke="black" points="0,-6.5 0,-26.5 112.14,-26.5 112.14,-6.5 0,-6.5"/>
<text text-anchor="middle" x="56.07" y="-13.5" font-family="Helvetica,sans-Serif" font-size="10.00">haldls/vx/genpybind.h</text>
</a>
</g>
</g>
<!-- Node0&#45;&gt;Node5 -->
<g id="edge5" class="edge">
<title>Node0&#45;&gt;Node5</title>
<path fill="none" stroke="midnightblue" d="M660.05,-135.86C514.66,-107.37 232.3,-52.04 112.26,-28.51"/>
<polygon fill="midnightblue" stroke="midnightblue" points="112.67,-25.03 102.19,-26.54 111.33,-31.89 112.67,-25.03"/>
</g>
<!-- Node6 -->
<g id="node7" class="node">
<title>Node6</title>
<g id="a_node7"><a xlink:href="traits_8h.html" target="_top" xlink:title=" ">
<polygon fill="white" stroke="black" points="478.23,-69.5 478.23,-89.5 565.91,-89.5 565.91,-69.5 478.23,-69.5"/>
<text text-anchor="middle" x="522.07" y="-76.5" font-family="Helvetica,sans-Serif" font-size="10.00">haldls/vx/traits.h</text>
</a>
</g>
</g>
<!-- Node0&#45;&gt;Node6 -->
<g id="edge7" class="edge">
<title>Node0&#45;&gt;Node6</title>
<path fill="none" stroke="midnightblue" d="M665.5,-126.42C629.22,-114.81 588.68,-101.83 559.97,-92.64"/>
<polygon fill="midnightblue" stroke="midnightblue" points="560.93,-89.27 550.34,-89.55 558.8,-95.93 560.93,-89.27"/>
</g>
<!-- Node11 -->
<g id="node12" class="node">
<title>Node11</title>
<g id="a_node12"><a xlink:title=" ">
<polygon fill="white" stroke="#bfbfbf" points="709.57,-6.5 709.57,-26.5 790.57,-26.5 790.57,-6.5 709.57,-6.5"/>
<text text-anchor="middle" x="750.07" y="-13.5" font-family="Helvetica,sans-Serif" font-size="10.00">hate/visibility.h</text>
</a>
</g>
</g>
<!-- Node0&#45;&gt;Node11 -->
<g id="edge17" class="edge">
<title>Node0&#45;&gt;Node11</title>
<path fill="none" stroke="midnightblue" d="M750.07,-126.31C750.07,-99.79 750.07,-60.15 750.07,-36.75"/>
<polygon fill="midnightblue" stroke="midnightblue" points="753.57,-36.69 750.07,-26.69 746.57,-36.69 753.57,-36.69"/>
</g>
<!-- Node13 -->
<g id="node14" class="node">
<title>Node13</title>
<g id="a_node14"><a xlink:title=" ">
<polygon fill="white" stroke="#bfbfbf" points="910.67,-69.5 910.67,-89.5 979.47,-89.5 979.47,-69.5 910.67,-69.5"/>
<text text-anchor="middle" x="945.07" y="-76.5" font-family="Helvetica,sans-Serif" font-size="10.00">hate/math.h</text>
</a>
</g>
</g>
<!-- Node0&#45;&gt;Node13 -->
<g id="edge16" class="edge">
<title>Node0&#45;&gt;Node13</title>
<path fill="none" stroke="midnightblue" d="M822.41,-126.42C852.89,-115.01 886.9,-102.28 911.36,-93.12"/>
<polygon fill="midnightblue" stroke="midnightblue" points="912.75,-96.34 920.89,-89.55 910.3,-89.78 912.75,-96.34"/>
</g>
<!-- Node2 -->
<g id="node3" class="node">
<title>Node2</title>
<g id="a_node3"><a xlink:title=" ">
<polygon fill="white" stroke="#bfbfbf" points="809.01,-6.5 809.01,-26.5 871.13,-26.5 871.13,-6.5 809.01,-6.5"/>
<text text-anchor="middle" x="840.07" y="-13.5" font-family="Helvetica,sans-Serif" font-size="10.00">type_traits</text>
</a>
</g>
</g>
<!-- Node1&#45;&gt;Node2 -->
<g id="edge2" class="edge">
<title>Node1&#45;&gt;Node2</title>
<path fill="none" stroke="midnightblue" d="M840.07,-69.5C840.07,-60.94 840.07,-47.78 840.07,-36.85"/>
<polygon fill="midnightblue" stroke="midnightblue" points="843.57,-36.54 840.07,-26.54 836.57,-36.54 843.57,-36.54"/>
</g>
<!-- Node3 -->
<g id="node4" class="node">
<title>Node3</title>
<g id="a_node4"><a xlink:title=" ">
<polygon fill="white" stroke="#bfbfbf" points="888.68,-6.5 888.68,-26.5 927.46,-26.5 927.46,-6.5 888.68,-6.5"/>
<text text-anchor="middle" x="908.07" y="-13.5" font-family="Helvetica,sans-Serif" font-size="10.00">utility</text>
</a>
</g>
</g>
<!-- Node1&#45;&gt;Node3 -->
<g id="edge3" class="edge">
<title>Node1&#45;&gt;Node3</title>
<path fill="none" stroke="midnightblue" d="M850.11,-69.5C860.65,-60.04 877.46,-44.96 890.26,-33.47"/>
<polygon fill="midnightblue" stroke="midnightblue" points="892.89,-35.82 898,-26.54 888.22,-30.61 892.89,-35.82"/>
</g>
<!-- Node4 -->
<g id="node5" class="node">
<title>Node4</title>
<g id="a_node5"><a xlink:title=" ">
<polygon fill="white" stroke="#bfbfbf" points="945.45,-6.5 945.45,-26.5 1068.7,-26.5 1068.7,-6.5 945.45,-6.5"/>
<text text-anchor="middle" x="1007.07" y="-13.5" font-family="Helvetica,sans-Serif" font-size="10.00">fisch/vx/omnibus_data.h</text>
</a>
</g>
</g>
<!-- Node1&#45;&gt;Node4 -->
<g id="edge4" class="edge">
<title>Node1&#45;&gt;Node4</title>
<path fill="none" stroke="midnightblue" d="M864.71,-69.5C893.33,-59.05 940.7,-41.74 972.87,-29.99"/>
<polygon fill="midnightblue" stroke="midnightblue" points="974.14,-33.26 982.33,-26.54 971.74,-26.68 974.14,-33.26"/>
</g>
<!-- Node5&#45;&gt;Node5 -->
<g id="edge6" class="edge">
<title>Node5&#45;&gt;Node5</title>
<path fill="none" stroke="midnightblue" d="M84.58,-26.56C107.07,-30.45 130.14,-27.1 130.14,-16.5 130.14,-7.48 113.41,-3.71 94.55,-5.19"/>
<polygon fill="midnightblue" stroke="midnightblue" points="94.06,-1.72 84.58,-6.44 94.94,-8.67 94.06,-1.72"/>
</g>
<!-- Node6&#45;&gt;Node2 -->
<g id="edge8" class="edge">
<title>Node6&#45;&gt;Node2</title>
<path fill="none" stroke="midnightblue" d="M566.01,-74.16C621.32,-68.05 718.91,-55.11 800.07,-33 803.23,-32.14 806.49,-31.12 809.72,-30.01"/>
<polygon fill="midnightblue" stroke="midnightblue" points="810.99,-33.27 819.17,-26.54 808.58,-26.7 810.99,-33.27"/>
</g>
<!-- Node6&#45;&gt;Node5 -->
<g id="edge12" class="edge">
<title>Node6&#45;&gt;Node5</title>
<path fill="none" stroke="midnightblue" d="M478,-74.23C406.62,-67.09 261.37,-51.66 139.07,-33 130.13,-31.64 120.68,-30.03 111.49,-28.38"/>
<polygon fill="midnightblue" stroke="midnightblue" points="112.11,-24.93 101.64,-26.57 110.85,-31.82 112.11,-24.93"/>
</g>
<!-- Node7 -->
<g id="node8" class="node">
<title>Node7</title>
<g id="a_node8"><a xlink:title=" ">
<polygon fill="white" stroke="#bfbfbf" points="147.72,-6.5 147.72,-26.5 240.42,-26.5 240.42,-6.5 147.72,-6.5"/>
<text text-anchor="middle" x="194.07" y="-13.5" font-family="Helvetica,sans-Serif" font-size="10.00">boost/variant.hpp</text>
</a>
</g>
</g>
<!-- Node6&#45;&gt;Node7 -->
<g id="edge9" class="edge">
<title>Node6&#45;&gt;Node7</title>
<path fill="none" stroke="midnightblue" d="M477.81,-72.64C423.57,-65.12 329.02,-50.87 249.07,-33 244.06,-31.88 238.82,-30.58 233.66,-29.21"/>
<polygon fill="midnightblue" stroke="midnightblue" points="234.46,-25.81 223.89,-26.55 232.62,-32.56 234.46,-25.81"/>
</g>
<!-- Node8 -->
<g id="node9" class="node">
<title>Node8</title>
<g id="a_node9"><a xlink:title=" ">
<polygon fill="white" stroke="#bfbfbf" points="258.45,-0.5 258.45,-32.5 351.69,-32.5 351.69,-0.5 258.45,-0.5"/>
<text text-anchor="start" x="266.45" y="-19.5" font-family="Helvetica,sans-Serif" font-size="10.00">fisch/vx/container</text>
<text text-anchor="middle" x="305.07" y="-7.5" font-family="Helvetica,sans-Serif" font-size="10.00">_fwd.h</text>
</a>
</g>
</g>
<!-- Node6&#45;&gt;Node8 -->
<g id="edge10" class="edge">
<title>Node6&#45;&gt;Node8</title>
<path fill="none" stroke="midnightblue" d="M489.8,-69.44C459.08,-60.82 411.3,-47.41 361.52,-33.41"/>
<polygon fill="midnightblue" stroke="midnightblue" points="362.45,-30.03 351.88,-30.69 360.56,-36.77 362.45,-30.03"/>
</g>
<!-- Node9 -->
<g id="node10" class="node">
<title>Node9</title>
<g id="a_node10"><a xlink:title=" ">
<polygon fill="white" stroke="#bfbfbf" points="369.45,-0.5 369.45,-32.5 462.69,-32.5 462.69,-0.5 369.45,-0.5"/>
<text text-anchor="start" x="377.45" y="-19.5" font-family="Helvetica,sans-Serif" font-size="10.00">fisch/vx/container</text>
<text text-anchor="middle" x="416.07" y="-7.5" font-family="Helvetica,sans-Serif" font-size="10.00">_ticket.h</text>
</a>
</g>
</g>
<!-- Node6&#45;&gt;Node9 -->
<g id="edge11" class="edge">
<title>Node6&#45;&gt;Node9</title>
<path fill="none" stroke="midnightblue" d="M506.43,-69.5C491.98,-61.18 469.99,-48.53 451.32,-37.78"/>
<polygon fill="midnightblue" stroke="midnightblue" points="452.88,-34.65 442.47,-32.69 449.39,-40.71 452.88,-34.65"/>
</g>
<!-- Node10 -->
<g id="node11" class="node">
<title>Node10</title>
<g id="a_node11"><a xlink:title=" ">
<polygon fill="white" stroke="#bfbfbf" points="480.45,-6.5 480.45,-26.5 563.69,-26.5 563.69,-6.5 480.45,-6.5"/>
<text text-anchor="middle" x="522.07" y="-13.5" font-family="Helvetica,sans-Serif" font-size="10.00">hate/type_list.h</text>
</a>
</g>
</g>
<!-- Node6&#45;&gt;Node10 -->
<g id="edge13" class="edge">
<title>Node6&#45;&gt;Node10</title>
<path fill="none" stroke="midnightblue" d="M522.07,-69.5C522.07,-60.94 522.07,-47.78 522.07,-36.85"/>
<polygon fill="midnightblue" stroke="midnightblue" points="525.57,-36.54 522.07,-26.54 518.57,-36.54 525.57,-36.54"/>
</g>
<!-- Node6&#45;&gt;Node11 -->
<g id="edge14" class="edge">
<title>Node6&#45;&gt;Node11</title>
<path fill="none" stroke="midnightblue" d="M560.3,-69.46C596.66,-60.7 652.81,-46.75 701.07,-33 704.87,-31.92 708.83,-30.74 712.76,-29.55"/>
<polygon fill="midnightblue" stroke="midnightblue" points="713.91,-32.85 722.43,-26.55 711.84,-26.17 713.91,-32.85"/>
</g>
<!-- Node12 -->
<g id="node13" class="node">
<title>Node12</title>
<g id="a_node13"><a xlink:title=" ">
<polygon fill="white" stroke="#bfbfbf" points="582.12,-6.5 582.12,-26.5 692.03,-26.5 692.03,-6.5 582.12,-6.5"/>
<text text-anchor="middle" x="637.07" y="-13.5" font-family="Helvetica,sans-Serif" font-size="10.00">fisch/vx/container.def</text>
</a>
</g>
</g>
<!-- Node6&#45;&gt;Node12 -->
<g id="edge15" class="edge">
<title>Node6&#45;&gt;Node12</title>
<path fill="none" stroke="midnightblue" d="M539.04,-69.5C558.06,-59.41 589.13,-42.93 611.19,-31.23"/>
<polygon fill="midnightblue" stroke="midnightblue" points="612.84,-34.32 620.03,-26.54 609.56,-28.13 612.84,-34.32"/>
</g>
</g>
</svg>
