<?xml version="1.0" encoding="UTF-8" standalone="no"?>
<!DOCTYPE svg PUBLIC "-//W3C//DTD SVG 1.1//EN"
 "http://www.w3.org/Graphics/SVG/1.1/DTD/svg11.dtd">
<!-- Generated by graphviz version 2.43.0 (0)
 -->
<!-- Title: haldls::vx::NeuronBackendConfig::ResetHoldoff Pages: 1 -->
<svg width="158pt" height="122pt"
 viewBox="0.00 0.00 158.19 122.00" xmlns="http://www.w3.org/2000/svg" xmlns:xlink="http://www.w3.org/1999/xlink">
<g id="graph0" class="graph" transform="scale(1 1) rotate(0) translate(4 118)">
<title>haldls::vx::NeuronBackendConfig::ResetHoldoff</title>
<polygon fill="white" stroke="transparent" points="-4,4 -4,-118 154.19,-118 154.19,4 -4,4"/>
<!-- Node0 -->
<g id="node1" class="node">
<title>Node0</title>
<g id="a_node1"><a xlink:title="ResetHoldoff period: The time delta between the reset and the refractory period.">
<polygon fill="#bfbfbf" stroke="black" points="7.64,-0.5 7.64,-32.5 142.56,-32.5 142.56,-0.5 7.64,-0.5"/>
<text text-anchor="start" x="15.64" y="-19.5" font-family="Helvetica,sans-Serif" font-size="10.00">haldls::vx::NeuronBackend</text>
<text text-anchor="middle" x="75.1" y="-7.5" font-family="Helvetica,sans-Serif" font-size="10.00">Config::ResetHoldoff</text>
</a>
</g>
</g>
<!-- Node1 -->
<g id="node2" class="node">
<title>Node1</title>
<g id="a_node2"><a xlink:title=" ">
<polygon fill="white" stroke="#bfbfbf" points="0,-69.5 0,-113.5 150.19,-113.5 150.19,-69.5 0,-69.5"/>
<text text-anchor="start" x="8" y="-100.5" font-family="Helvetica,sans-Serif" font-size="10.00">halco::common::detail</text>
<text text-anchor="start" x="8" y="-88.5" font-family="Helvetica,sans-Serif" font-size="10.00">::RantWrapper&lt; ResetHoldoff,</text>
<text text-anchor="middle" x="75.1" y="-76.5" font-family="Helvetica,sans-Serif" font-size="10.00"> uint_fast8_t, 15, 0 &gt;</text>
</a>
</g>
</g>
<!-- Node1&#45;&gt;Node0 -->
<g id="edge1" class="edge">
<title>Node1&#45;&gt;Node0</title>
<path fill="none" stroke="midnightblue" d="M75.1,-59.26C75.1,-50 75.1,-40.27 75.1,-32.54"/>
<polygon fill="midnightblue" stroke="midnightblue" points="71.6,-59.39 75.1,-69.39 78.6,-59.39 71.6,-59.39"/>
</g>
</g>
</svg>
