<?xml version="1.0" encoding="UTF-8" standalone="no"?>
<!DOCTYPE svg PUBLIC "-//W3C//DTD SVG 1.1//EN"
 "http://www.w3.org/Graphics/SVG/1.1/DTD/svg11.dtd">
<!-- Generated by graphviz version 2.43.0 (0)
 -->
<!-- Title: haldls::v2::SpikeRouter::Delay Pages: 1 -->
<svg width="127pt" height="134pt"
 viewBox="0.00 0.00 126.80 134.00" xmlns="http://www.w3.org/2000/svg" xmlns:xlink="http://www.w3.org/1999/xlink">
<g id="graph0" class="graph" transform="scale(1 1) rotate(0) translate(4 130)">
<title>haldls::v2::SpikeRouter::Delay</title>
<polygon fill="white" stroke="transparent" points="-4,4 -4,-130 122.8,-130 122.8,4 -4,4"/>
<!-- Node2 -->
<g id="node1" class="node">
<title>Node2</title>
<g id="a_node1"><a xlink:title=" ">
<polygon fill="#bfbfbf" stroke="black" points="0,-0.5 0,-32.5 118.8,-32.5 118.8,-0.5 0,-0.5"/>
<text text-anchor="start" x="8" y="-19.5" font-family="Helvetica,sans-Serif" font-size="10.00">haldls::v2::SpikeRouter</text>
<text text-anchor="middle" x="59.4" y="-7.5" font-family="Helvetica,sans-Serif" font-size="10.00">::Delay</text>
</a>
</g>
</g>
<!-- Node3 -->
<g id="node2" class="node">
<title>Node3</title>
<g id="a_node2"><a xlink:title=" ">
<polygon fill="white" stroke="#bfbfbf" points="0.42,-69.5 0.42,-125.5 118.38,-125.5 118.38,-69.5 0.42,-69.5"/>
<text text-anchor="start" x="8.42" y="-112.5" font-family="Helvetica,sans-Serif" font-size="10.00">halco::common::detail</text>
<text text-anchor="start" x="8.42" y="-100.5" font-family="Helvetica,sans-Serif" font-size="10.00">::RantWrapper&lt; Delay,</text>
<text text-anchor="start" x="8.42" y="-88.5" font-family="Helvetica,sans-Serif" font-size="10.00"> uint_fast16_t, 0x4000</text>
<text text-anchor="middle" x="59.4" y="-76.5" font-family="Helvetica,sans-Serif" font-size="10.00"> &#45; 1, 0 &gt;</text>
</a>
</g>
</g>
<!-- Node3&#45;&gt;Node2 -->
<g id="edge1" class="edge">
<title>Node3&#45;&gt;Node2</title>
<path fill="none" stroke="midnightblue" d="M59.4,-59.22C59.4,-49.77 59.4,-40.14 59.4,-32.52"/>
<polygon fill="midnightblue" stroke="midnightblue" points="55.9,-59.31 59.4,-69.31 62.9,-59.31 55.9,-59.31"/>
</g>
</g>
</svg>
