<?xml version="1.0" encoding="UTF-8" standalone="no"?>
<!DOCTYPE svg PUBLIC "-//W3C//DTD SVG 1.1//EN"
 "http://www.w3.org/Graphics/SVG/1.1/DTD/svg11.dtd">
<!-- Generated by graphviz version 2.43.0 (0)
 -->
<!-- Title: pybind11::detail::type_caster&lt; boost::variant&lt; Ts... &gt; &gt; Pages: 1 -->
<svg width="125pt" height="122pt"
 viewBox="0.00 0.00 125.42 122.00" xmlns="http://www.w3.org/2000/svg" xmlns:xlink="http://www.w3.org/1999/xlink">
<g id="graph0" class="graph" transform="scale(1 1) rotate(0) translate(4 118)">
<title>pybind11::detail::type_caster&lt; boost::variant&lt; Ts... &gt; &gt;</title>
<polygon fill="white" stroke="transparent" points="-4,4 -4,-118 121.42,-118 121.42,4 -4,4"/>
<!-- Node0 -->
<g id="node1" class="node">
<title>Node0</title>
<g id="a_node1"><a xlink:title=" ">
<polygon fill="#bfbfbf" stroke="black" points="0,-0.5 0,-44.5 117.42,-44.5 117.42,-0.5 0,-0.5"/>
<text text-anchor="start" x="8" y="-31.5" font-family="Helvetica,sans-Serif" font-size="10.00">pybind11::detail::type</text>
<text text-anchor="start" x="8" y="-19.5" font-family="Helvetica,sans-Serif" font-size="10.00">_caster&lt; boost::variant</text>
<text text-anchor="middle" x="58.71" y="-7.5" font-family="Helvetica,sans-Serif" font-size="10.00">&lt; Ts... &gt; &gt;</text>
</a>
</g>
</g>
<!-- Node1 -->
<g id="node2" class="node">
<title>Node1</title>
<g id="a_node2"><a xlink:title=" ">
<polygon fill="white" stroke="#bfbfbf" points="2.78,-81.5 2.78,-113.5 114.64,-113.5 114.64,-81.5 2.78,-81.5"/>
<text text-anchor="start" x="10.78" y="-100.5" font-family="Helvetica,sans-Serif" font-size="10.00">variant_caster&lt; boost</text>
<text text-anchor="middle" x="58.71" y="-88.5" font-family="Helvetica,sans-Serif" font-size="10.00">::variant&lt; Ts... &gt; &gt;</text>
</a>
</g>
</g>
<!-- Node1&#45;&gt;Node0 -->
<g id="edge1" class="edge">
<title>Node1&#45;&gt;Node0</title>
<path fill="none" stroke="midnightblue" d="M58.71,-71.11C58.71,-62.49 58.71,-52.95 58.71,-44.7"/>
<polygon fill="midnightblue" stroke="midnightblue" points="55.21,-71.37 58.71,-81.37 62.21,-71.37 55.21,-71.37"/>
</g>
</g>
</svg>
