<?xml version="1.0" encoding="UTF-8" standalone="no"?>
<!DOCTYPE svg PUBLIC "-//W3C//DTD SVG 1.1//EN"
 "http://www.w3.org/Graphics/SVG/1.1/DTD/svg11.dtd">
<!-- Generated by graphviz version 2.43.0 (0)
 -->
<!-- Title: haldls::vx::detail::SRAMTimingConfig::AddressSetupTime Pages: 1 -->
<svg width="293pt" height="89pt"
 viewBox="0.00 0.00 292.72 89.00" xmlns="http://www.w3.org/2000/svg" xmlns:xlink="http://www.w3.org/1999/xlink">
<g id="graph0" class="graph" transform="scale(1 1) rotate(0) translate(4 85)">
<title>haldls::vx::detail::SRAMTimingConfig::AddressSetupTime</title>
<polygon fill="white" stroke="transparent" points="-4,4 -4,-85 288.72,-85 288.72,4 -4,4"/>
<!-- Node0 -->
<g id="node1" class="node">
<title>Node0</title>
<g id="a_node1"><a xlink:title="Wait time for address value propagation after enable signal pull.">
<polygon fill="#bfbfbf" stroke="black" points="169.83,-18.5 169.83,-62.5 284.72,-62.5 284.72,-18.5 169.83,-18.5"/>
<text text-anchor="start" x="177.83" y="-49.5" font-family="Helvetica,sans-Serif" font-size="10.00">haldls::vx::detail</text>
<text text-anchor="start" x="177.83" y="-37.5" font-family="Helvetica,sans-Serif" font-size="10.00">::SRAMTimingConfig::</text>
<text text-anchor="middle" x="227.27" y="-25.5" font-family="Helvetica,sans-Serif" font-size="10.00">AddressSetupTime</text>
</a>
</g>
</g>
<!-- Node1 -->
<g id="node2" class="node">
<title>Node1</title>
<g id="a_node2"><a xlink:title=" ">
<polygon fill="white" stroke="#bfbfbf" points="0,-0.5 0,-80.5 133.83,-80.5 133.83,-0.5 0,-0.5"/>
<text text-anchor="start" x="8" y="-67.5" font-family="Helvetica,sans-Serif" font-size="10.00">halco::common::detail</text>
<text text-anchor="middle" x="66.91" y="-55.5" font-family="Helvetica,sans-Serif" font-size="10.00">::</text>
<text text-anchor="start" x="8" y="-43.5" font-family="Helvetica,sans-Serif" font-size="10.00"> RantWrapper</text>
<text text-anchor="start" x="8" y="-31.5" font-family="Helvetica,sans-Serif" font-size="10.00">&lt; AddressSetupTime, uint</text>
<text text-anchor="start" x="8" y="-19.5" font-family="Helvetica,sans-Serif" font-size="10.00">_fast16_t, hate::math::pow</text>
<text text-anchor="middle" x="66.91" y="-7.5" font-family="Helvetica,sans-Serif" font-size="10.00">(2, 4) &#45; 1, 0 &gt;</text>
</a>
</g>
</g>
<!-- Node1&#45;&gt;Node0 -->
<g id="edge1" class="edge">
<title>Node1&#45;&gt;Node0</title>
<path fill="none" stroke="midnightblue" d="M144.37,-40.5C152.78,-40.5 161.23,-40.5 169.34,-40.5"/>
<polygon fill="midnightblue" stroke="midnightblue" points="144.15,-37 134.15,-40.5 144.15,-44 144.15,-37"/>
</g>
</g>
</svg>
