<?xml version="1.0" encoding="UTF-8" standalone="no"?>
<!DOCTYPE svg PUBLIC "-//W3C//DTD SVG 1.1//EN"
 "http://www.w3.org/Graphics/SVG/1.1/DTD/svg11.dtd">
<!-- Generated by graphviz version 2.43.0 (0)
 -->
<!-- Title: haldls::vx::CapMemCell::DisableRefresh Pages: 1 -->
<svg width="169pt" height="122pt"
 viewBox="0.00 0.00 168.74 122.00" xmlns="http://www.w3.org/2000/svg" xmlns:xlink="http://www.w3.org/1999/xlink">
<g id="graph0" class="graph" transform="scale(1 1) rotate(0) translate(4 118)">
<title>haldls::vx::CapMemCell::DisableRefresh</title>
<polygon fill="white" stroke="transparent" points="-4,4 -4,-118 164.74,-118 164.74,4 -4,4"/>
<!-- Node2 -->
<g id="node1" class="node">
<title>Node2</title>
<g id="a_node1"><a xlink:title=" ">
<polygon fill="#bfbfbf" stroke="black" points="19.87,-0.5 19.87,-32.5 140.87,-32.5 140.87,-0.5 19.87,-0.5"/>
<text text-anchor="start" x="27.87" y="-19.5" font-family="Helvetica,sans-Serif" font-size="10.00">haldls::vx::CapMemCell</text>
<text text-anchor="middle" x="80.37" y="-7.5" font-family="Helvetica,sans-Serif" font-size="10.00">::DisableRefresh</text>
</a>
</g>
</g>
<!-- Node3 -->
<g id="node2" class="node">
<title>Node3</title>
<g id="a_node2"><a xlink:title=" ">
<polygon fill="white" stroke="#bfbfbf" points="0,-69.5 0,-113.5 160.74,-113.5 160.74,-69.5 0,-69.5"/>
<text text-anchor="start" x="8" y="-100.5" font-family="Helvetica,sans-Serif" font-size="10.00">halco::common::detail</text>
<text text-anchor="start" x="8" y="-88.5" font-family="Helvetica,sans-Serif" font-size="10.00">::RantWrapper&lt; DisableRefresh,</text>
<text text-anchor="middle" x="80.37" y="-76.5" font-family="Helvetica,sans-Serif" font-size="10.00"> uint_fast16_t, 1023, 1023 &gt;</text>
</a>
</g>
</g>
<!-- Node3&#45;&gt;Node2 -->
<g id="edge1" class="edge">
<title>Node3&#45;&gt;Node2</title>
<path fill="none" stroke="midnightblue" d="M80.37,-59.26C80.37,-50 80.37,-40.27 80.37,-32.54"/>
<polygon fill="midnightblue" stroke="midnightblue" points="76.87,-59.39 80.37,-69.39 83.87,-59.39 76.87,-59.39"/>
</g>
</g>
</svg>
