<?xml version="1.0" encoding="UTF-8" standalone="no"?>
<!DOCTYPE svg PUBLIC "-//W3C//DTD SVG 1.1//EN"
 "http://www.w3.org/Graphics/SVG/1.1/DTD/svg11.dtd">
<!-- Generated by graphviz version 2.43.0 (0)
 -->
<!-- Title: haldls::vx::CommonCorrelationConfig::ResetFallTime Pages: 1 -->
<svg width="310pt" height="89pt"
 viewBox="0.00 0.00 309.91 89.00" xmlns="http://www.w3.org/2000/svg" xmlns:xlink="http://www.w3.org/1999/xlink">
<g id="graph0" class="graph" transform="scale(1 1) rotate(0) translate(4 85)">
<title>haldls::vx::CommonCorrelationConfig::ResetFallTime</title>
<polygon fill="white" stroke="transparent" points="-4,4 -4,-85 305.91,-85 305.91,4 -4,4"/>
<!-- Node2 -->
<g id="node1" class="node">
<title>Node2</title>
<g id="a_node1"><a xlink:title="Wait time in PPU clock cycles after disabling the correlation column reset enable.">
<polygon fill="#bfbfbf" stroke="black" points="149.24,-24.5 149.24,-56.5 301.91,-56.5 301.91,-24.5 149.24,-24.5"/>
<text text-anchor="start" x="157.24" y="-43.5" font-family="Helvetica,sans-Serif" font-size="10.00">haldls::vx::CommonCorrelation</text>
<text text-anchor="middle" x="225.58" y="-31.5" font-family="Helvetica,sans-Serif" font-size="10.00">Config::ResetFallTime</text>
</a>
</g>
</g>
<!-- Node3 -->
<g id="node2" class="node">
<title>Node3</title>
<g id="a_node2"><a xlink:title=" ">
<polygon fill="white" stroke="#bfbfbf" points="0,-0.5 0,-80.5 113.24,-80.5 113.24,-0.5 0,-0.5"/>
<text text-anchor="start" x="8" y="-67.5" font-family="Helvetica,sans-Serif" font-size="10.00">halco::common::detail</text>
<text text-anchor="middle" x="56.62" y="-55.5" font-family="Helvetica,sans-Serif" font-size="10.00">::</text>
<text text-anchor="start" x="8" y="-43.5" font-family="Helvetica,sans-Serif" font-size="10.00"> RantWrapper</text>
<text text-anchor="start" x="8" y="-31.5" font-family="Helvetica,sans-Serif" font-size="10.00">&lt; ResetFallTime, uint</text>
<text text-anchor="start" x="8" y="-19.5" font-family="Helvetica,sans-Serif" font-size="10.00">_fast16_t, hate::math</text>
<text text-anchor="middle" x="56.62" y="-7.5" font-family="Helvetica,sans-Serif" font-size="10.00">::pow(2, 12) &#45; 1, 0 &gt;</text>
</a>
</g>
</g>
<!-- Node3&#45;&gt;Node2 -->
<g id="edge1" class="edge">
<title>Node3&#45;&gt;Node2</title>
<path fill="none" stroke="midnightblue" d="M123.71,-40.5C132.04,-40.5 140.62,-40.5 149.09,-40.5"/>
<polygon fill="midnightblue" stroke="midnightblue" points="123.68,-37 113.68,-40.5 123.68,-44 123.68,-37"/>
</g>
</g>
</svg>
