<?xml version="1.0" encoding="UTF-8" standalone="no"?>
<!DOCTYPE svg PUBLIC "-//W3C//DTD SVG 1.1//EN"
 "http://www.w3.org/Graphics/SVG/1.1/DTD/svg11.dtd">
<!-- Generated by graphviz version 2.43.0 (0)
 -->
<!-- Title: haldls::vx::detail::BackendContainerTrait&lt; ColumnCurrentQuad &gt; Pages: 1 -->
<svg width="676pt" height="91pt"
 viewBox="0.00 0.00 675.78 90.50" xmlns="http://www.w3.org/2000/svg" xmlns:xlink="http://www.w3.org/1999/xlink">
<g id="graph0" class="graph" transform="scale(1 1) rotate(0) translate(4 86.5)">
<title>haldls::vx::detail::BackendContainerTrait&lt; ColumnCurrentQuad &gt;</title>
<polygon fill="white" stroke="transparent" points="-4,4 -4,-86.5 671.78,-86.5 671.78,4 -4,4"/>
<!-- Node0 -->
<g id="node1" class="node">
<title>Node0</title>
<g id="a_node1"><a xlink:title=" ">
<polygon fill="#bfbfbf" stroke="black" points="542.31,-12.5 542.31,-56.5 667.78,-56.5 667.78,-12.5 542.31,-12.5"/>
<text text-anchor="start" x="550.31" y="-43.5" font-family="Helvetica,sans-Serif" font-size="10.00">haldls::vx::detail</text>
<text text-anchor="start" x="550.31" y="-31.5" font-family="Helvetica,sans-Serif" font-size="10.00">::BackendContainerTrait</text>
<text text-anchor="middle" x="605.04" y="-19.5" font-family="Helvetica,sans-Serif" font-size="10.00">&lt; ColumnCurrentQuad &gt;</text>
</a>
</g>
</g>
<!-- Node1 -->
<g id="node2" class="node">
<title>Node1</title>
<g id="a_node2"><a xlink:href="structhaldls_1_1vx_1_1detail_1_1_backend_container_base.html" target="_top" xlink:title=" ">
<polygon fill="white" stroke="black" points="362.34,-0.5 362.34,-68.5 505.31,-68.5 505.31,-0.5 362.34,-0.5"/>
<text text-anchor="start" x="370.34" y="-55.5" font-family="Helvetica,sans-Serif" font-size="10.00">haldls::vx::detail</text>
<text text-anchor="start" x="370.34" y="-43.5" font-family="Helvetica,sans-Serif" font-size="10.00">::BackendContainerBase</text>
<text text-anchor="start" x="370.34" y="-31.5" font-family="Helvetica,sans-Serif" font-size="10.00">&lt; ColumnCurrentQuad, fisch</text>
<text text-anchor="start" x="370.34" y="-19.5" font-family="Helvetica,sans-Serif" font-size="10.00">::vx::Omnibus, fisch::vx</text>
<text text-anchor="middle" x="433.82" y="-7.5" font-family="Helvetica,sans-Serif" font-size="10.00">::OmnibusChipOverJTAG &gt;</text>
</a>
</g>
</g>
<!-- Node1&#45;&gt;Node0 -->
<g id="edge1" class="edge">
<title>Node1&#45;&gt;Node0</title>
<path fill="none" stroke="midnightblue" d="M515.63,-34.5C524.55,-34.5 533.52,-34.5 542.15,-34.5"/>
<polygon fill="midnightblue" stroke="midnightblue" points="515.61,-31 505.61,-34.5 515.61,-38 515.61,-31"/>
</g>
<!-- Node2 -->
<g id="node3" class="node">
<title>Node2</title>
<g id="a_node3"><a xlink:href="structhaldls_1_1vx_1_1detail_1_1_backend_container_base.html" target="_top" xlink:title="Backend container trait base.">
<polygon fill="white" stroke="black" points="0,-6.5 0,-62.5 199.66,-62.5 199.66,-6.5 0,-6.5"/>
<text text-anchor="start" x="8" y="-49.5" font-family="Helvetica,sans-Serif" font-size="10.00">haldls::vx::detail</text>
<text text-anchor="start" x="8" y="-37.5" font-family="Helvetica,sans-Serif" font-size="10.00">::BackendContainerBase</text>
<text text-anchor="start" x="8" y="-25.5" font-family="Helvetica,sans-Serif" font-size="10.00">&lt; ContainerT, DefaultBackend</text>
<text text-anchor="middle" x="99.83" y="-13.5" font-family="Helvetica,sans-Serif" font-size="10.00">Container, AdditionalBackendContainer &gt;</text>
</a>
</g>
</g>
<!-- Node2&#45;&gt;Node1 -->
<g id="edge2" class="edge">
<title>Node2&#45;&gt;Node1</title>
<path fill="none" stroke="orange" stroke-dasharray="5,2" d="M210.2,-34.5C260.17,-34.5 317.93,-34.5 362.09,-34.5"/>
<polygon fill="orange" stroke="orange" points="209.99,-31 199.99,-34.5 209.99,-38 209.99,-31"/>
<text text-anchor="start" x="217.66" y="-73.5" font-family="Helvetica,sans-Serif" font-size="10.00"> &lt; ColumnCurrentQuad,</text>
<text text-anchor="start" x="217.66" y="-61.5" font-family="Helvetica,sans-Serif" font-size="10.00"> fisch::vx::Omnibus,</text>
<text text-anchor="start" x="217.66" y="-49.5" font-family="Helvetica,sans-Serif" font-size="10.00"> fisch::vx::OmnibusChipOver</text>
<text text-anchor="middle" x="281" y="-37.5" font-family="Helvetica,sans-Serif" font-size="10.00">JTAG &gt;</text>
</g>
</g>
</svg>
