<?xml version="1.0" encoding="UTF-8" standalone="no"?>
<!DOCTYPE svg PUBLIC "-//W3C//DTD SVG 1.1//EN"
 "http://www.w3.org/Graphics/SVG/1.1/DTD/svg11.dtd">
<!-- Generated by graphviz version 2.43.0 (0)
 -->
<!-- Title: DisableRefresh Pages: 1 -->
<svg width="169pt" height="110pt"
 viewBox="0.00 0.00 168.74 110.00" xmlns="http://www.w3.org/2000/svg" xmlns:xlink="http://www.w3.org/1999/xlink">
<g id="graph0" class="graph" transform="scale(1 1) rotate(0) translate(4 106)">
<title>DisableRefresh</title>
<polygon fill="white" stroke="transparent" points="-4,4 -4,-106 164.74,-106 164.74,4 -4,4"/>
<!-- Node0 -->
<g id="node1" class="node">
<title>Node0</title>
<g id="a_node1"><a xlink:title=" ">
<polygon fill="#bfbfbf" stroke="black" points="38.2,-0.5 38.2,-20.5 122.54,-20.5 122.54,-0.5 38.2,-0.5"/>
<text text-anchor="middle" x="80.37" y="-7.5" font-family="Helvetica,sans-Serif" font-size="10.00">DisableRefresh</text>
</a>
</g>
</g>
<!-- Node1 -->
<g id="node2" class="node">
<title>Node1</title>
<g id="a_node2"><a xlink:title=" ">
<polygon fill="white" stroke="#bfbfbf" points="0,-57.5 0,-101.5 160.74,-101.5 160.74,-57.5 0,-57.5"/>
<text text-anchor="start" x="8" y="-88.5" font-family="Helvetica,sans-Serif" font-size="10.00">halco::common::detail</text>
<text text-anchor="start" x="8" y="-76.5" font-family="Helvetica,sans-Serif" font-size="10.00">::RantWrapper&lt; DisableRefresh,</text>
<text text-anchor="middle" x="80.37" y="-64.5" font-family="Helvetica,sans-Serif" font-size="10.00"> uint_fast16_t, 1023, 1023 &gt;</text>
</a>
</g>
</g>
<!-- Node1&#45;&gt;Node0 -->
<g id="edge1" class="edge">
<title>Node1&#45;&gt;Node0</title>
<path fill="none" stroke="midnightblue" d="M80.37,-47.13C80.37,-37.54 80.37,-27.71 80.37,-20.82"/>
<polygon fill="midnightblue" stroke="midnightblue" points="76.87,-47.3 80.37,-57.3 83.87,-47.3 76.87,-47.3"/>
</g>
</g>
</svg>
