<?xml version="1.0" encoding="UTF-8" standalone="no"?>
<!DOCTYPE svg PUBLIC "-//W3C//DTD SVG 1.1//EN"
 "http://www.w3.org/Graphics/SVG/1.1/DTD/svg11.dtd">
<!-- Generated by graphviz version 2.43.0 (0)
 -->
<!-- Title: haldls::v2::detail::CorrelationBlockBase&lt; T &gt;::Correlation Pages: 1 -->
<svg width="149pt" height="134pt"
 viewBox="0.00 0.00 149.29 134.00" xmlns="http://www.w3.org/2000/svg" xmlns:xlink="http://www.w3.org/1999/xlink">
<g id="graph0" class="graph" transform="scale(1 1) rotate(0) translate(4 130)">
<title>haldls::v2::detail::CorrelationBlockBase&lt; T &gt;::Correlation</title>
<polygon fill="white" stroke="transparent" points="-4,4 -4,-130 145.29,-130 145.29,4 -4,4"/>
<!-- Node2 -->
<g id="node1" class="node">
<title>Node2</title>
<g id="a_node1"><a xlink:title="Ranged type for correlation values (0&#45;255)">
<polygon fill="#bfbfbf" stroke="black" points="11.81,-0.5 11.81,-44.5 129.49,-44.5 129.49,-0.5 11.81,-0.5"/>
<text text-anchor="start" x="19.81" y="-31.5" font-family="Helvetica,sans-Serif" font-size="10.00">haldls::v2::detail</text>
<text text-anchor="start" x="19.81" y="-19.5" font-family="Helvetica,sans-Serif" font-size="10.00">::CorrelationBlockBase</text>
<text text-anchor="middle" x="70.65" y="-7.5" font-family="Helvetica,sans-Serif" font-size="10.00">&lt; T &gt;::Correlation</text>
</a>
</g>
</g>
<!-- Node3 -->
<g id="node2" class="node">
<title>Node3</title>
<g id="a_node2"><a xlink:title=" ">
<polygon fill="white" stroke="#bfbfbf" points="0,-81.5 0,-125.5 141.29,-125.5 141.29,-81.5 0,-81.5"/>
<text text-anchor="start" x="8" y="-112.5" font-family="Helvetica,sans-Serif" font-size="10.00">halco::common::detail</text>
<text text-anchor="start" x="8" y="-100.5" font-family="Helvetica,sans-Serif" font-size="10.00">::RantWrapper&lt; Correlation,</text>
<text text-anchor="middle" x="70.65" y="-88.5" font-family="Helvetica,sans-Serif" font-size="10.00"> uint_fast16_t, 255, 0 &gt;</text>
</a>
</g>
</g>
<!-- Node3&#45;&gt;Node2 -->
<g id="edge1" class="edge">
<title>Node3&#45;&gt;Node2</title>
<path fill="none" stroke="midnightblue" d="M70.65,-71.27C70.65,-62.37 70.65,-52.88 70.65,-44.73"/>
<polygon fill="midnightblue" stroke="midnightblue" points="67.15,-71.33 70.65,-81.33 74.15,-71.33 67.15,-71.33"/>
</g>
</g>
</svg>
