<?xml version="1.0" encoding="UTF-8" standalone="no"?>
<!DOCTYPE svg PUBLIC "-//W3C//DTD SVG 1.1//EN"
 "http://www.w3.org/Graphics/SVG/1.1/DTD/svg11.dtd">
<!-- Generated by graphviz version 2.43.0 (0)
 -->
<!-- Title: haldls::CapMemBlockConfig::BoostFactor Pages: 1 -->
<svg width="154pt" height="122pt"
 viewBox="0.00 0.00 154.30 122.00" xmlns="http://www.w3.org/2000/svg" xmlns:xlink="http://www.w3.org/1999/xlink">
<g id="graph0" class="graph" transform="scale(1 1) rotate(0) translate(4 118)">
<title>haldls::CapMemBlockConfig::BoostFactor</title>
<polygon fill="white" stroke="transparent" points="-4,4 -4,-118 150.3,-118 150.3,4 -4,4"/>
<!-- Node2 -->
<g id="node1" class="node">
<title>Node2</title>
<g id="a_node1"><a xlink:title=" ">
<polygon fill="#bfbfbf" stroke="black" points="2.37,-0.5 2.37,-32.5 143.94,-32.5 143.94,-0.5 2.37,-0.5"/>
<text text-anchor="start" x="10.37" y="-19.5" font-family="Helvetica,sans-Serif" font-size="10.00">haldls::CapMemBlockConfig</text>
<text text-anchor="middle" x="73.15" y="-7.5" font-family="Helvetica,sans-Serif" font-size="10.00">::BoostFactor</text>
</a>
</g>
</g>
<!-- Node3 -->
<g id="node2" class="node">
<title>Node3</title>
<g id="a_node2"><a xlink:title=" ">
<polygon fill="white" stroke="#bfbfbf" points="0,-69.5 0,-113.5 146.3,-113.5 146.3,-69.5 0,-69.5"/>
<text text-anchor="start" x="8" y="-100.5" font-family="Helvetica,sans-Serif" font-size="10.00">halco::common::detail</text>
<text text-anchor="start" x="8" y="-88.5" font-family="Helvetica,sans-Serif" font-size="10.00">::RantWrapper&lt; BoostFactor,</text>
<text text-anchor="middle" x="73.15" y="-76.5" font-family="Helvetica,sans-Serif" font-size="10.00"> uint_fast16_t, 15, 0 &gt;</text>
</a>
</g>
</g>
<!-- Node3&#45;&gt;Node2 -->
<g id="edge1" class="edge">
<title>Node3&#45;&gt;Node2</title>
<path fill="none" stroke="midnightblue" d="M73.15,-59.26C73.15,-50 73.15,-40.27 73.15,-32.54"/>
<polygon fill="midnightblue" stroke="midnightblue" points="69.65,-59.39 73.15,-69.39 76.65,-59.39 69.65,-59.39"/>
</g>
</g>
</svg>
