<?xml version="1.0" encoding="UTF-8" standalone="no"?>
<!DOCTYPE svg PUBLIC "-//W3C//DTD SVG 1.1//EN"
 "http://www.w3.org/Graphics/SVG/1.1/DTD/svg11.dtd">
<!-- Generated by graphviz version 2.43.0 (0)
 -->
<!-- Title: haldls::vx::NeuronBackendConfig::AddressOut Pages: 1 -->
<svg width="153pt" height="122pt"
 viewBox="0.00 0.00 153.20 122.00" xmlns="http://www.w3.org/2000/svg" xmlns:xlink="http://www.w3.org/1999/xlink">
<g id="graph0" class="graph" transform="scale(1 1) rotate(0) translate(4 118)">
<title>haldls::vx::NeuronBackendConfig::AddressOut</title>
<polygon fill="white" stroke="transparent" points="-4,4 -4,-118 149.2,-118 149.2,4 -4,4"/>
<!-- Node0 -->
<g id="node1" class="node">
<title>Node0</title>
<g id="a_node1"><a xlink:title="Address of the spikes sent out by a neuron.">
<polygon fill="#bfbfbf" stroke="black" points="5.14,-0.5 5.14,-32.5 140.06,-32.5 140.06,-0.5 5.14,-0.5"/>
<text text-anchor="start" x="13.14" y="-19.5" font-family="Helvetica,sans-Serif" font-size="10.00">haldls::vx::NeuronBackend</text>
<text text-anchor="middle" x="72.6" y="-7.5" font-family="Helvetica,sans-Serif" font-size="10.00">Config::AddressOut</text>
</a>
</g>
</g>
<!-- Node1 -->
<g id="node2" class="node">
<title>Node1</title>
<g id="a_node2"><a xlink:title=" ">
<polygon fill="white" stroke="#bfbfbf" points="0,-69.5 0,-113.5 145.2,-113.5 145.2,-69.5 0,-69.5"/>
<text text-anchor="start" x="8" y="-100.5" font-family="Helvetica,sans-Serif" font-size="10.00">halco::common::detail</text>
<text text-anchor="start" x="8" y="-88.5" font-family="Helvetica,sans-Serif" font-size="10.00">::RantWrapper&lt; AddressOut,</text>
<text text-anchor="middle" x="72.6" y="-76.5" font-family="Helvetica,sans-Serif" font-size="10.00"> uint_fast16_t, 255, 0 &gt;</text>
</a>
</g>
</g>
<!-- Node1&#45;&gt;Node0 -->
<g id="edge1" class="edge">
<title>Node1&#45;&gt;Node0</title>
<path fill="none" stroke="midnightblue" d="M72.6,-59.26C72.6,-50 72.6,-40.27 72.6,-32.54"/>
<polygon fill="midnightblue" stroke="midnightblue" points="69.1,-59.39 72.6,-69.39 76.1,-59.39 69.1,-59.39"/>
</g>
</g>
</svg>
