<?xml version="1.0" encoding="UTF-8" standalone="no"?>
<!DOCTYPE svg PUBLIC "-//W3C//DTD SVG 1.1//EN"
 "http://www.w3.org/Graphics/SVG/1.1/DTD/svg11.dtd">
<!-- Generated by graphviz version 2.43.0 (0)
 -->
<!-- Title: haldls::detail::BackendContainerTrait&lt; ReferenceGeneratorConfig &gt; Pages: 1 -->
<svg width="371pt" height="65pt"
 viewBox="0.00 0.00 370.78 65.00" xmlns="http://www.w3.org/2000/svg" xmlns:xlink="http://www.w3.org/1999/xlink">
<g id="graph0" class="graph" transform="scale(1 1) rotate(0) translate(4 61)">
<title>haldls::detail::BackendContainerTrait&lt; ReferenceGeneratorConfig &gt;</title>
<polygon fill="white" stroke="transparent" points="-4,4 -4,-61 366.78,-61 366.78,4 -4,4"/>
<!-- Node2 -->
<g id="node1" class="node">
<title>Node2</title>
<g id="a_node1"><a xlink:title=" ">
<polygon fill="#bfbfbf" stroke="black" points="189.52,-12.5 189.52,-44.5 362.78,-44.5 362.78,-12.5 189.52,-12.5"/>
<text text-anchor="start" x="197.52" y="-31.5" font-family="Helvetica,sans-Serif" font-size="10.00">haldls::detail::BackendContainer</text>
<text text-anchor="middle" x="276.15" y="-19.5" font-family="Helvetica,sans-Serif" font-size="10.00">Trait&lt; ReferenceGeneratorConfig &gt;</text>
</a>
</g>
</g>
<!-- Node3 -->
<g id="node2" class="node">
<title>Node3</title>
<g id="a_node2"><a xlink:title=" ">
<polygon fill="white" stroke="#bfbfbf" points="0,-0.5 0,-56.5 153.52,-56.5 153.52,-0.5 0,-0.5"/>
<text text-anchor="start" x="8" y="-43.5" font-family="Helvetica,sans-Serif" font-size="10.00">BackendContainerBase</text>
<text text-anchor="start" x="8" y="-31.5" font-family="Helvetica,sans-Serif" font-size="10.00">&lt; ReferenceGeneratorConfig,</text>
<text text-anchor="start" x="8" y="-19.5" font-family="Helvetica,sans-Serif" font-size="10.00"> fisch::vx::Omnibus, fisch</text>
<text text-anchor="middle" x="76.76" y="-7.5" font-family="Helvetica,sans-Serif" font-size="10.00">::vx::OmnibusChipOverJTAG &gt;</text>
</a>
</g>
</g>
<!-- Node3&#45;&gt;Node2 -->
<g id="edge1" class="edge">
<title>Node3&#45;&gt;Node2</title>
<path fill="none" stroke="midnightblue" d="M163.96,-28.5C172.37,-28.5 180.89,-28.5 189.29,-28.5"/>
<polygon fill="midnightblue" stroke="midnightblue" points="163.79,-25 153.79,-28.5 163.79,-32 163.79,-25"/>
</g>
</g>
</svg>
