<?xml version="1.0" encoding="UTF-8" standalone="no"?>
<!DOCTYPE svg PUBLIC "-//W3C//DTD SVG 1.1//EN"
 "http://www.w3.org/Graphics/SVG/1.1/DTD/svg11.dtd">
<!-- Generated by graphviz version 2.43.0 (0)
 -->
<!-- Title: haldls::vx::detail::BackendContainerTrait&lt; CADCOffsetSRAMTimingConfig &gt; Pages: 1 -->
<svg width="784pt" height="79pt"
 viewBox="0.00 0.00 783.80 78.50" xmlns="http://www.w3.org/2000/svg" xmlns:xlink="http://www.w3.org/1999/xlink">
<g id="graph0" class="graph" transform="scale(1 1) rotate(0) translate(4 74.5)">
<title>haldls::vx::detail::BackendContainerTrait&lt; CADCOffsetSRAMTimingConfig &gt;</title>
<polygon fill="white" stroke="transparent" points="-4,4 -4,-74.5 779.8,-74.5 779.8,4 -4,4"/>
<!-- Node0 -->
<g id="node1" class="node">
<title>Node0</title>
<g id="a_node1"><a xlink:title=" ">
<polygon fill="#bfbfbf" stroke="black" points="599.79,-12.5 599.79,-56.5 775.8,-56.5 775.8,-12.5 599.79,-12.5"/>
<text text-anchor="start" x="607.79" y="-43.5" font-family="Helvetica,sans-Serif" font-size="10.00">haldls::vx::detail</text>
<text text-anchor="start" x="607.79" y="-31.5" font-family="Helvetica,sans-Serif" font-size="10.00">::BackendContainerTrait</text>
<text text-anchor="middle" x="687.79" y="-19.5" font-family="Helvetica,sans-Serif" font-size="10.00">&lt; CADCOffsetSRAMTimingConfig &gt;</text>
</a>
</g>
</g>
<!-- Node1 -->
<g id="node2" class="node">
<title>Node1</title>
<g id="a_node2"><a xlink:href="structhaldls_1_1vx_1_1detail_1_1_backend_container_base.html" target="_top" xlink:title=" ">
<polygon fill="white" stroke="black" points="392.61,-0.5 392.61,-68.5 562.79,-68.5 562.79,-0.5 392.61,-0.5"/>
<text text-anchor="start" x="400.61" y="-55.5" font-family="Helvetica,sans-Serif" font-size="10.00">haldls::vx::detail</text>
<text text-anchor="start" x="400.61" y="-43.5" font-family="Helvetica,sans-Serif" font-size="10.00">::BackendContainerBase</text>
<text text-anchor="start" x="400.61" y="-31.5" font-family="Helvetica,sans-Serif" font-size="10.00">&lt; CADCOffsetSRAMTimingConfig,</text>
<text text-anchor="start" x="400.61" y="-19.5" font-family="Helvetica,sans-Serif" font-size="10.00"> fisch::vx::Omnibus, fisch</text>
<text text-anchor="middle" x="477.7" y="-7.5" font-family="Helvetica,sans-Serif" font-size="10.00">::vx::OmnibusChipOverJTAG &gt;</text>
</a>
</g>
</g>
<!-- Node1&#45;&gt;Node0 -->
<g id="edge1" class="edge">
<title>Node1&#45;&gt;Node0</title>
<path fill="none" stroke="midnightblue" d="M573.28,-34.5C582.06,-34.5 590.92,-34.5 599.62,-34.5"/>
<polygon fill="midnightblue" stroke="midnightblue" points="573.04,-31 563.04,-34.5 573.04,-38 573.04,-31"/>
</g>
<!-- Node2 -->
<g id="node3" class="node">
<title>Node2</title>
<g id="a_node3"><a xlink:href="structhaldls_1_1vx_1_1detail_1_1_backend_container_base.html" target="_top" xlink:title="Backend container trait base.">
<polygon fill="white" stroke="black" points="0,-6.5 0,-62.5 199.66,-62.5 199.66,-6.5 0,-6.5"/>
<text text-anchor="start" x="8" y="-49.5" font-family="Helvetica,sans-Serif" font-size="10.00">haldls::vx::detail</text>
<text text-anchor="start" x="8" y="-37.5" font-family="Helvetica,sans-Serif" font-size="10.00">::BackendContainerBase</text>
<text text-anchor="start" x="8" y="-25.5" font-family="Helvetica,sans-Serif" font-size="10.00">&lt; ContainerT, DefaultBackend</text>
<text text-anchor="middle" x="99.83" y="-13.5" font-family="Helvetica,sans-Serif" font-size="10.00">Container, AdditionalBackendContainer &gt;</text>
</a>
</g>
</g>
<!-- Node2&#45;&gt;Node1 -->
<g id="edge2" class="edge">
<title>Node2&#45;&gt;Node1</title>
<path fill="none" stroke="orange" stroke-dasharray="5,2" d="M210.4,-34.5C268.5,-34.5 338.75,-34.5 392.52,-34.5"/>
<polygon fill="orange" stroke="orange" points="210.08,-31 200.08,-34.5 210.08,-38 210.08,-31"/>
<text text-anchor="start" x="217.66" y="-61.5" font-family="Helvetica,sans-Serif" font-size="10.00"> &lt; CADCOffsetSRAMTimingConfig,</text>
<text text-anchor="start" x="217.66" y="-49.5" font-family="Helvetica,sans-Serif" font-size="10.00"> fisch::vx::Omnibus, fisch</text>
<text text-anchor="middle" x="296.14" y="-37.5" font-family="Helvetica,sans-Serif" font-size="10.00">::vx::OmnibusChipOverJTAG &gt;</text>
</g>
</g>
</svg>
