<?xml version="1.0" encoding="UTF-8" standalone="no"?>
<!DOCTYPE svg PUBLIC "-//W3C//DTD SVG 1.1//EN"
 "http://www.w3.org/Graphics/SVG/1.1/DTD/svg11.dtd">
<!-- Generated by graphviz version 2.43.0 (0)
 -->
<!-- Title: haldls::CapMemBlockConfig::SubCounter Pages: 1 -->
<svg width="157pt" height="122pt"
 viewBox="0.00 0.00 156.53 122.00" xmlns="http://www.w3.org/2000/svg" xmlns:xlink="http://www.w3.org/1999/xlink">
<g id="graph0" class="graph" transform="scale(1 1) rotate(0) translate(4 118)">
<title>haldls::CapMemBlockConfig::SubCounter</title>
<polygon fill="white" stroke="transparent" points="-4,4 -4,-118 152.53,-118 152.53,4 -4,4"/>
<!-- Node2 -->
<g id="node1" class="node">
<title>Node2</title>
<g id="a_node1"><a xlink:title=" ">
<polygon fill="#bfbfbf" stroke="black" points="3.48,-0.5 3.48,-32.5 145.05,-32.5 145.05,-0.5 3.48,-0.5"/>
<text text-anchor="start" x="11.48" y="-19.5" font-family="Helvetica,sans-Serif" font-size="10.00">haldls::CapMemBlockConfig</text>
<text text-anchor="middle" x="74.27" y="-7.5" font-family="Helvetica,sans-Serif" font-size="10.00">::SubCounter</text>
</a>
</g>
</g>
<!-- Node3 -->
<g id="node2" class="node">
<title>Node3</title>
<g id="a_node2"><a xlink:title=" ">
<polygon fill="white" stroke="#bfbfbf" points="0,-69.5 0,-113.5 148.53,-113.5 148.53,-69.5 0,-69.5"/>
<text text-anchor="start" x="8" y="-100.5" font-family="Helvetica,sans-Serif" font-size="10.00">halco::common::detail</text>
<text text-anchor="start" x="8" y="-88.5" font-family="Helvetica,sans-Serif" font-size="10.00">:: RantWrapper&lt; SubCounter,</text>
<text text-anchor="middle" x="74.27" y="-76.5" font-family="Helvetica,sans-Serif" font-size="10.00"> uint_fast16_t, 65535, 0 &gt;</text>
</a>
</g>
</g>
<!-- Node3&#45;&gt;Node2 -->
<g id="edge1" class="edge">
<title>Node3&#45;&gt;Node2</title>
<path fill="none" stroke="midnightblue" d="M74.27,-59.26C74.27,-50 74.27,-40.27 74.27,-32.54"/>
<polygon fill="midnightblue" stroke="midnightblue" points="70.77,-59.39 74.27,-69.39 77.77,-59.39 70.77,-59.39"/>
</g>
</g>
</svg>
