<?xml version="1.0" encoding="UTF-8" standalone="no"?>
<!DOCTYPE svg PUBLIC "-//W3C//DTD SVG 1.1//EN"
 "http://www.w3.org/Graphics/SVG/1.1/DTD/svg11.dtd">
<!-- Generated by graphviz version 2.43.0 (0)
 -->
<!-- Title: haldls::detail::BackendContainerTrait&lt; CapMemBlock &gt; Pages: 1 -->
<svg width="351pt" height="65pt"
 viewBox="0.00 0.00 351.33 65.00" xmlns="http://www.w3.org/2000/svg" xmlns:xlink="http://www.w3.org/1999/xlink">
<g id="graph0" class="graph" transform="scale(1 1) rotate(0) translate(4 61)">
<title>haldls::detail::BackendContainerTrait&lt; CapMemBlock &gt;</title>
<polygon fill="white" stroke="transparent" points="-4,4 -4,-61 347.33,-61 347.33,4 -4,4"/>
<!-- Node0 -->
<g id="node1" class="node">
<title>Node0</title>
<g id="a_node1"><a xlink:title=" ">
<polygon fill="#bfbfbf" stroke="black" points="183.96,-12.5 183.96,-44.5 343.33,-44.5 343.33,-12.5 183.96,-12.5"/>
<text text-anchor="start" x="191.96" y="-31.5" font-family="Helvetica,sans-Serif" font-size="10.00">haldls::detail::BackendContainer</text>
<text text-anchor="middle" x="263.65" y="-19.5" font-family="Helvetica,sans-Serif" font-size="10.00">Trait&lt; CapMemBlock &gt;</text>
</a>
</g>
</g>
<!-- Node1 -->
<g id="node2" class="node">
<title>Node1</title>
<g id="a_node2"><a xlink:title=" ">
<polygon fill="white" stroke="#bfbfbf" points="0,-0.5 0,-56.5 147.96,-56.5 147.96,-0.5 0,-0.5"/>
<text text-anchor="start" x="8" y="-43.5" font-family="Helvetica,sans-Serif" font-size="10.00">BackendContainerBase</text>
<text text-anchor="start" x="8" y="-31.5" font-family="Helvetica,sans-Serif" font-size="10.00">&lt; CapMemBlock, fisch</text>
<text text-anchor="start" x="8" y="-19.5" font-family="Helvetica,sans-Serif" font-size="10.00">::vx::Omnibus, fisch::</text>
<text text-anchor="middle" x="73.98" y="-7.5" font-family="Helvetica,sans-Serif" font-size="10.00">vx::OmnibusChipOverJTAG &gt;</text>
</a>
</g>
</g>
<!-- Node1&#45;&gt;Node0 -->
<g id="edge1" class="edge">
<title>Node1&#45;&gt;Node0</title>
<path fill="none" stroke="midnightblue" d="M158.34,-28.5C166.82,-28.5 175.42,-28.5 183.85,-28.5"/>
<polygon fill="midnightblue" stroke="midnightblue" points="158.07,-25 148.07,-28.5 158.07,-32 158.07,-25"/>
</g>
</g>
</svg>
