<?xml version="1.0" encoding="UTF-8" standalone="no"?>
<!DOCTYPE svg PUBLIC "-//W3C//DTD SVG 1.1//EN"
 "http://www.w3.org/Graphics/SVG/1.1/DTD/svg11.dtd">
<!-- Generated by graphviz version 2.43.0 (0)
 -->
<!-- Title: haldls::vx::SynapseQuad::Synapse::TimeCalib Pages: 1 -->
<svg width="145pt" height="122pt"
 viewBox="0.00 0.00 145.39 122.00" xmlns="http://www.w3.org/2000/svg" xmlns:xlink="http://www.w3.org/1999/xlink">
<g id="graph0" class="graph" transform="scale(1 1) rotate(0) translate(4 118)">
<title>haldls::vx::SynapseQuad::Synapse::TimeCalib</title>
<polygon fill="white" stroke="transparent" points="-4,4 -4,-118 141.39,-118 141.39,4 -4,4"/>
<!-- Node0 -->
<g id="node1" class="node">
<title>Node0</title>
<g id="a_node1"><a xlink:title=" ">
<polygon fill="#bfbfbf" stroke="black" points="5.4,-0.5 5.4,-32.5 131.99,-32.5 131.99,-0.5 5.4,-0.5"/>
<text text-anchor="start" x="13.4" y="-19.5" font-family="Helvetica,sans-Serif" font-size="10.00">haldls::vx::SynapseQuad</text>
<text text-anchor="middle" x="68.7" y="-7.5" font-family="Helvetica,sans-Serif" font-size="10.00">::Synapse::TimeCalib</text>
</a>
</g>
</g>
<!-- Node1 -->
<g id="node2" class="node">
<title>Node1</title>
<g id="a_node2"><a xlink:title=" ">
<polygon fill="white" stroke="#bfbfbf" points="0,-69.5 0,-113.5 137.39,-113.5 137.39,-69.5 0,-69.5"/>
<text text-anchor="start" x="8" y="-100.5" font-family="Helvetica,sans-Serif" font-size="10.00">halco::common::detail</text>
<text text-anchor="start" x="8" y="-88.5" font-family="Helvetica,sans-Serif" font-size="10.00">::RantWrapper&lt; TimeCalib,</text>
<text text-anchor="middle" x="68.7" y="-76.5" font-family="Helvetica,sans-Serif" font-size="10.00"> uint_fast16_t, 3, 0 &gt;</text>
</a>
</g>
</g>
<!-- Node1&#45;&gt;Node0 -->
<g id="edge1" class="edge">
<title>Node1&#45;&gt;Node0</title>
<path fill="none" stroke="midnightblue" d="M68.7,-59.26C68.7,-50 68.7,-40.27 68.7,-32.54"/>
<polygon fill="midnightblue" stroke="midnightblue" points="65.2,-59.39 68.7,-69.39 72.2,-59.39 65.2,-59.39"/>
</g>
</g>
</svg>
