<?xml version="1.0" encoding="UTF-8" standalone="no"?>
<!DOCTYPE svg PUBLIC "-//W3C//DTD SVG 1.1//EN"
 "http://www.w3.org/Graphics/SVG/1.1/DTD/svg11.dtd">
<!-- Generated by graphviz version 2.43.0 (0)
 -->
<!-- Title: haldls::vx::SynapseQuad::Synapse::Address Pages: 1 -->
<svg width="137pt" height="122pt"
 viewBox="0.00 0.00 137.08 122.00" xmlns="http://www.w3.org/2000/svg" xmlns:xlink="http://www.w3.org/1999/xlink">
<g id="graph0" class="graph" transform="scale(1 1) rotate(0) translate(4 118)">
<title>haldls::vx::SynapseQuad::Synapse::Address</title>
<polygon fill="white" stroke="transparent" points="-4,4 -4,-118 133.08,-118 133.08,4 -4,4"/>
<!-- Node2 -->
<g id="node1" class="node">
<title>Node2</title>
<g id="a_node1"><a xlink:title=" ">
<polygon fill="#bfbfbf" stroke="black" points="1.24,-0.5 1.24,-32.5 127.84,-32.5 127.84,-0.5 1.24,-0.5"/>
<text text-anchor="start" x="9.24" y="-19.5" font-family="Helvetica,sans-Serif" font-size="10.00">haldls::vx::SynapseQuad</text>
<text text-anchor="middle" x="64.54" y="-7.5" font-family="Helvetica,sans-Serif" font-size="10.00">::Synapse::Address</text>
</a>
</g>
</g>
<!-- Node3 -->
<g id="node2" class="node">
<title>Node3</title>
<g id="a_node2"><a xlink:title=" ">
<polygon fill="white" stroke="#bfbfbf" points="0,-69.5 0,-113.5 129.08,-113.5 129.08,-69.5 0,-69.5"/>
<text text-anchor="start" x="8" y="-100.5" font-family="Helvetica,sans-Serif" font-size="10.00">halco::common::detail</text>
<text text-anchor="start" x="8" y="-88.5" font-family="Helvetica,sans-Serif" font-size="10.00">::RantWrapper&lt; Address,</text>
<text text-anchor="middle" x="64.54" y="-76.5" font-family="Helvetica,sans-Serif" font-size="10.00"> uint_fast16_t, 63, 0 &gt;</text>
</a>
</g>
</g>
<!-- Node3&#45;&gt;Node2 -->
<g id="edge1" class="edge">
<title>Node3&#45;&gt;Node2</title>
<path fill="none" stroke="midnightblue" d="M64.54,-59.26C64.54,-50 64.54,-40.27 64.54,-32.54"/>
<polygon fill="midnightblue" stroke="midnightblue" points="61.04,-59.39 64.54,-69.39 68.04,-59.39 61.04,-59.39"/>
</g>
</g>
</svg>
