<?xml version="1.0" encoding="UTF-8" standalone="no"?>
<!DOCTYPE svg PUBLIC "-//W3C//DTD SVG 1.1//EN"
 "http://www.w3.org/Graphics/SVG/1.1/DTD/svg11.dtd">
<!-- Generated by graphviz version 2.43.0 (0)
 -->
<!-- Title: haldls::vx::detail::BackendContainerTrait&lt; PerfTestStatus &gt; Pages: 1 -->
<svg width="635pt" height="65pt"
 viewBox="0.00 0.00 634.69 65.00" xmlns="http://www.w3.org/2000/svg" xmlns:xlink="http://www.w3.org/1999/xlink">
<g id="graph0" class="graph" transform="scale(1 1) rotate(0) translate(4 61)">
<title>haldls::vx::detail::BackendContainerTrait&lt; PerfTestStatus &gt;</title>
<polygon fill="white" stroke="transparent" points="-4,4 -4,-61 630.69,-61 630.69,4 -4,4"/>
<!-- Node0 -->
<g id="node1" class="node">
<title>Node0</title>
<g id="a_node1"><a xlink:title=" ">
<polygon fill="#bfbfbf" stroke="black" points="502.89,-6.5 502.89,-50.5 626.69,-50.5 626.69,-6.5 502.89,-6.5"/>
<text text-anchor="start" x="510.89" y="-37.5" font-family="Helvetica,sans-Serif" font-size="10.00">haldls::vx::detail</text>
<text text-anchor="start" x="510.89" y="-25.5" font-family="Helvetica,sans-Serif" font-size="10.00">::BackendContainerTrait</text>
<text text-anchor="middle" x="564.79" y="-13.5" font-family="Helvetica,sans-Serif" font-size="10.00">&lt; PerfTestStatus &gt;</text>
</a>
</g>
</g>
<!-- Node1 -->
<g id="node2" class="node">
<title>Node1</title>
<g id="a_node2"><a xlink:href="structhaldls_1_1vx_1_1detail_1_1BackendContainerBase.html" target="_top" xlink:title=" ">
<polygon fill="white" stroke="black" points="339.3,-0.5 339.3,-56.5 465.89,-56.5 465.89,-0.5 339.3,-0.5"/>
<text text-anchor="start" x="347.3" y="-43.5" font-family="Helvetica,sans-Serif" font-size="10.00">haldls::vx::detail</text>
<text text-anchor="start" x="347.3" y="-31.5" font-family="Helvetica,sans-Serif" font-size="10.00">::BackendContainerBase</text>
<text text-anchor="start" x="347.3" y="-19.5" font-family="Helvetica,sans-Serif" font-size="10.00">&lt; PerfTestStatus, fisch</text>
<text text-anchor="middle" x="402.6" y="-7.5" font-family="Helvetica,sans-Serif" font-size="10.00">::vx::OmnibusFPGA &gt;</text>
</a>
</g>
</g>
<!-- Node1&#45;&gt;Node0 -->
<g id="edge1" class="edge">
<title>Node1&#45;&gt;Node0</title>
<path fill="none" stroke="midnightblue" d="M476.04,-28.5C485.01,-28.5 494.11,-28.5 502.88,-28.5"/>
<polygon fill="midnightblue" stroke="midnightblue" points="475.99,-25 465.99,-28.5 475.99,-32 475.99,-25"/>
</g>
<!-- Node2 -->
<g id="node3" class="node">
<title>Node2</title>
<g id="a_node3"><a xlink:href="structhaldls_1_1vx_1_1detail_1_1BackendContainerBase.html" target="_top" xlink:title="Backend container trait base.">
<polygon fill="white" stroke="black" points="0,-0.5 0,-56.5 199.66,-56.5 199.66,-0.5 0,-0.5"/>
<text text-anchor="start" x="8" y="-43.5" font-family="Helvetica,sans-Serif" font-size="10.00">haldls::vx::detail</text>
<text text-anchor="start" x="8" y="-31.5" font-family="Helvetica,sans-Serif" font-size="10.00">::BackendContainerBase</text>
<text text-anchor="start" x="8" y="-19.5" font-family="Helvetica,sans-Serif" font-size="10.00">&lt; ContainerT, DefaultBackend</text>
<text text-anchor="middle" x="99.83" y="-7.5" font-family="Helvetica,sans-Serif" font-size="10.00">Container, AdditionalBackendContainer &gt;</text>
</a>
</g>
</g>
<!-- Node2&#45;&gt;Node1 -->
<g id="edge2" class="edge">
<title>Node2&#45;&gt;Node1</title>
<path fill="none" stroke="orange" stroke-dasharray="5,2" d="M209.78,-28.5C253.23,-28.5 301.68,-28.5 339.02,-28.5"/>
<polygon fill="orange" stroke="orange" points="209.73,-25 199.73,-28.5 209.73,-32 209.73,-25"/>
<text text-anchor="start" x="217.66" y="-43.5" font-family="Helvetica,sans-Serif" font-size="10.00"> &lt; PerfTestStatus, fisch</text>
<text text-anchor="middle" x="269.48" y="-31.5" font-family="Helvetica,sans-Serif" font-size="10.00">::vx::OmnibusFPGA &gt;</text>
</g>
</g>
</svg>
