<?xml version="1.0" encoding="UTF-8" standalone="no"?>
<!DOCTYPE svg PUBLIC "-//W3C//DTD SVG 1.1//EN"
 "http://www.w3.org/Graphics/SVG/1.1/DTD/svg11.dtd">
<!-- Generated by graphviz version 2.43.0 (0)
 -->
<!-- Title: haldls::vx::SynapseQuad::Synapse::AmpCalib Pages: 1 -->
<svg width="144pt" height="122pt"
 viewBox="0.00 0.00 143.74 122.00" xmlns="http://www.w3.org/2000/svg" xmlns:xlink="http://www.w3.org/1999/xlink">
<g id="graph0" class="graph" transform="scale(1 1) rotate(0) translate(4 118)">
<title>haldls::vx::SynapseQuad::Synapse::AmpCalib</title>
<polygon fill="white" stroke="transparent" points="-4,4 -4,-118 139.74,-118 139.74,4 -4,4"/>
<!-- Node2 -->
<g id="node1" class="node">
<title>Node2</title>
<g id="a_node1"><a xlink:title=" ">
<polygon fill="#bfbfbf" stroke="black" points="4.57,-0.5 4.57,-32.5 131.16,-32.5 131.16,-0.5 4.57,-0.5"/>
<text text-anchor="start" x="12.57" y="-19.5" font-family="Helvetica,sans-Serif" font-size="10.00">haldls::vx::SynapseQuad</text>
<text text-anchor="middle" x="67.87" y="-7.5" font-family="Helvetica,sans-Serif" font-size="10.00">::Synapse::AmpCalib</text>
</a>
</g>
</g>
<!-- Node3 -->
<g id="node2" class="node">
<title>Node3</title>
<g id="a_node2"><a xlink:title=" ">
<polygon fill="white" stroke="#bfbfbf" points="0,-69.5 0,-113.5 135.74,-113.5 135.74,-69.5 0,-69.5"/>
<text text-anchor="start" x="8" y="-100.5" font-family="Helvetica,sans-Serif" font-size="10.00">halco::common::detail</text>
<text text-anchor="start" x="8" y="-88.5" font-family="Helvetica,sans-Serif" font-size="10.00">::RantWrapper&lt; AmpCalib,</text>
<text text-anchor="middle" x="67.87" y="-76.5" font-family="Helvetica,sans-Serif" font-size="10.00"> uint_fast16_t, 3, 0 &gt;</text>
</a>
</g>
</g>
<!-- Node3&#45;&gt;Node2 -->
<g id="edge1" class="edge">
<title>Node3&#45;&gt;Node2</title>
<path fill="none" stroke="midnightblue" d="M67.87,-59.26C67.87,-50 67.87,-40.27 67.87,-32.54"/>
<polygon fill="midnightblue" stroke="midnightblue" points="64.37,-59.39 67.87,-69.39 71.37,-59.39 64.37,-59.39"/>
</g>
</g>
</svg>
