<?xml version="1.0" encoding="UTF-8" standalone="no"?>
<!DOCTYPE svg PUBLIC "-//W3C//DTD SVG 1.1//EN"
 "http://www.w3.org/Graphics/SVG/1.1/DTD/svg11.dtd">
<!-- Generated by graphviz version 2.43.0 (0)
 -->
<!-- Title: haldls::ReferenceGeneratorConfig::CapMemSlope Pages: 1 -->
<svg width="167pt" height="122pt"
 viewBox="0.00 0.00 166.52 122.00" xmlns="http://www.w3.org/2000/svg" xmlns:xlink="http://www.w3.org/1999/xlink">
<g id="graph0" class="graph" transform="scale(1 1) rotate(0) translate(4 118)">
<title>haldls::ReferenceGeneratorConfig::CapMemSlope</title>
<polygon fill="white" stroke="transparent" points="-4,4 -4,-118 162.52,-118 162.52,4 -4,4"/>
<!-- Node2 -->
<g id="node1" class="node">
<title>Node2</title>
<g id="a_node1"><a xlink:title=" ">
<polygon fill="#bfbfbf" stroke="black" points="9.86,-0.5 9.86,-32.5 148.66,-32.5 148.66,-0.5 9.86,-0.5"/>
<text text-anchor="start" x="17.86" y="-19.5" font-family="Helvetica,sans-Serif" font-size="10.00">haldls::ReferenceGenerator</text>
<text text-anchor="middle" x="79.26" y="-7.5" font-family="Helvetica,sans-Serif" font-size="10.00">Config::CapMemSlope</text>
</a>
</g>
</g>
<!-- Node3 -->
<g id="node2" class="node">
<title>Node3</title>
<g id="a_node2"><a xlink:title=" ">
<polygon fill="white" stroke="#bfbfbf" points="0,-69.5 0,-113.5 158.52,-113.5 158.52,-69.5 0,-69.5"/>
<text text-anchor="start" x="8" y="-100.5" font-family="Helvetica,sans-Serif" font-size="10.00">halco::common::detail</text>
<text text-anchor="start" x="8" y="-88.5" font-family="Helvetica,sans-Serif" font-size="10.00">::RantWrapper&lt; CapMemSlope,</text>
<text text-anchor="middle" x="79.26" y="-76.5" font-family="Helvetica,sans-Serif" font-size="10.00"> uint_fast8_t, 63, 0 &gt;</text>
</a>
</g>
</g>
<!-- Node3&#45;&gt;Node2 -->
<g id="edge1" class="edge">
<title>Node3&#45;&gt;Node2</title>
<path fill="none" stroke="midnightblue" d="M79.26,-59.26C79.26,-50 79.26,-40.27 79.26,-32.54"/>
<polygon fill="midnightblue" stroke="midnightblue" points="75.76,-59.39 79.26,-69.39 82.76,-59.39 75.76,-59.39"/>
</g>
</g>
</svg>
