<?xml version="1.0" encoding="UTF-8" standalone="no"?>
<!DOCTYPE svg PUBLIC "-//W3C//DTD SVG 1.1//EN"
 "http://www.w3.org/Graphics/SVG/1.1/DTD/svg11.dtd">
<!-- Generated by graphviz version 2.43.0 (0)
 -->
<!-- Title: haldls::vx::NeuronBackendConfig::InputClock Pages: 1 -->
<svg width="148pt" height="122pt"
 viewBox="0.00 0.00 147.64 122.00" xmlns="http://www.w3.org/2000/svg" xmlns:xlink="http://www.w3.org/1999/xlink">
<g id="graph0" class="graph" transform="scale(1 1) rotate(0) translate(4 118)">
<title>haldls::vx::NeuronBackendConfig::InputClock</title>
<polygon fill="white" stroke="transparent" points="-4,4 -4,-118 143.64,-118 143.64,4 -4,4"/>
<!-- Node0 -->
<g id="node1" class="node">
<title>Node0</title>
<g id="a_node1"><a xlink:title="There are two independent but equivalent clocks available.">
<polygon fill="#bfbfbf" stroke="black" points="2.36,-0.5 2.36,-32.5 137.28,-32.5 137.28,-0.5 2.36,-0.5"/>
<text text-anchor="start" x="10.36" y="-19.5" font-family="Helvetica,sans-Serif" font-size="10.00">haldls::vx::NeuronBackend</text>
<text text-anchor="middle" x="69.82" y="-7.5" font-family="Helvetica,sans-Serif" font-size="10.00">Config::InputClock</text>
</a>
</g>
</g>
<!-- Node1 -->
<g id="node2" class="node">
<title>Node1</title>
<g id="a_node2"><a xlink:title=" ">
<polygon fill="white" stroke="#bfbfbf" points="0,-69.5 0,-113.5 139.64,-113.5 139.64,-69.5 0,-69.5"/>
<text text-anchor="start" x="8" y="-100.5" font-family="Helvetica,sans-Serif" font-size="10.00">halco::common::detail</text>
<text text-anchor="start" x="8" y="-88.5" font-family="Helvetica,sans-Serif" font-size="10.00">::RantWrapper&lt; InputClock,</text>
<text text-anchor="middle" x="69.82" y="-76.5" font-family="Helvetica,sans-Serif" font-size="10.00"> uint_fast8_t, 1, 0 &gt;</text>
</a>
</g>
</g>
<!-- Node1&#45;&gt;Node0 -->
<g id="edge1" class="edge">
<title>Node1&#45;&gt;Node0</title>
<path fill="none" stroke="midnightblue" d="M69.82,-59.26C69.82,-50 69.82,-40.27 69.82,-32.54"/>
<polygon fill="midnightblue" stroke="midnightblue" points="66.32,-59.39 69.82,-69.39 73.32,-59.39 66.32,-59.39"/>
</g>
</g>
</svg>
