<?xml version="1.0" encoding="UTF-8" standalone="no"?>
<!DOCTYPE svg PUBLIC "-//W3C//DTD SVG 1.1//EN"
 "http://www.w3.org/Graphics/SVG/1.1/DTD/svg11.dtd">
<!-- Generated by graphviz version 2.43.0 (0)
 -->
<!-- Title: /jenkins/jenlib_workspaces_f9/bld_nightly&#45;haldls.YmxkX25pZ2h0bHktaGFsZGxzIzQ5OA.x/haldls/include/haldls/v2/synapsedriver.h Pages: 1 -->
<svg width="265pt" height="344pt"
 viewBox="0.00 0.00 265.07 344.00" xmlns="http://www.w3.org/2000/svg" xmlns:xlink="http://www.w3.org/1999/xlink">
<g id="graph0" class="graph" transform="scale(1 1) rotate(0) translate(4 340)">
<title>/jenkins/jenlib_workspaces_f9/bld_nightly&#45;haldls.YmxkX25pZ2h0bHktaGFsZGxzIzQ5OA.x/haldls/include/haldls/v2/synapsedriver.h</title>
<polygon fill="white" stroke="transparent" points="-4,4 -4,-340 261.07,-340 261.07,4 -4,4"/>
<!-- Node9 -->
<g id="node1" class="node">
<title>Node9</title>
<g id="a_node1"><a xlink:title=" ">
<polygon fill="#bfbfbf" stroke="black" points="77.16,-279.5 77.16,-335.5 257.07,-335.5 257.07,-279.5 77.16,-279.5"/>
<text text-anchor="start" x="85.16" y="-322.5" font-family="Helvetica,sans-Serif" font-size="10.00">/jenkins/jenlib_workspaces</text>
<text text-anchor="start" x="85.16" y="-310.5" font-family="Helvetica,sans-Serif" font-size="10.00">_f9/bld_nightly&#45;haldls.YmxkX25p</text>
<text text-anchor="start" x="85.16" y="-298.5" font-family="Helvetica,sans-Serif" font-size="10.00">Z2h0bHktaGFsZGxzIzQ5OA.x/haldls</text>
<text text-anchor="middle" x="167.11" y="-286.5" font-family="Helvetica,sans-Serif" font-size="10.00">/include/haldls/v2/synapsedriver.h</text>
</a>
</g>
</g>
<!-- Node10 -->
<g id="node2" class="node">
<title>Node10</title>
<g id="a_node2"><a xlink:href="chip_8h.html" target="_top" xlink:title=" ">
<polygon fill="white" stroke="black" points="18.16,-186.5 18.16,-242.5 198.07,-242.5 198.07,-186.5 18.16,-186.5"/>
<text text-anchor="start" x="26.16" y="-229.5" font-family="Helvetica,sans-Serif" font-size="10.00">/jenkins/jenlib_workspaces</text>
<text text-anchor="start" x="26.16" y="-217.5" font-family="Helvetica,sans-Serif" font-size="10.00">_f9/bld_nightly&#45;haldls.YmxkX25p</text>
<text text-anchor="start" x="26.16" y="-205.5" font-family="Helvetica,sans-Serif" font-size="10.00">Z2h0bHktaGFsZGxzIzQ5OA.x/haldls</text>
<text text-anchor="middle" x="108.11" y="-193.5" font-family="Helvetica,sans-Serif" font-size="10.00">/include/haldls/v2/chip.h</text>
</a>
</g>
</g>
<!-- Node9&#45;&gt;Node10 -->
<g id="edge1" class="edge">
<title>Node9&#45;&gt;Node10</title>
<path fill="none" stroke="midnightblue" d="M143.81,-270.55C137.81,-261.31 131.46,-251.51 125.8,-242.78"/>
<polygon fill="midnightblue" stroke="midnightblue" points="141.03,-272.71 149.41,-279.2 146.91,-268.9 141.03,-272.71"/>
</g>
<!-- Node11 -->
<g id="node3" class="node">
<title>Node11</title>
<g id="a_node3"><a xlink:href="v2_2container_8h.html" target="_top" xlink:title=" ">
<polygon fill="white" stroke="black" points="18.16,-0.5 18.16,-56.5 198.07,-56.5 198.07,-0.5 18.16,-0.5"/>
<text text-anchor="start" x="26.16" y="-43.5" font-family="Helvetica,sans-Serif" font-size="10.00">/jenkins/jenlib_workspaces</text>
<text text-anchor="start" x="26.16" y="-31.5" font-family="Helvetica,sans-Serif" font-size="10.00">_f9/bld_nightly&#45;haldls.YmxkX25p</text>
<text text-anchor="start" x="26.16" y="-19.5" font-family="Helvetica,sans-Serif" font-size="10.00">Z2h0bHktaGFsZGxzIzQ5OA.x/haldls</text>
<text text-anchor="middle" x="108.11" y="-7.5" font-family="Helvetica,sans-Serif" font-size="10.00">/include/haldls/v2/container.h</text>
</a>
</g>
</g>
<!-- Node9&#45;&gt;Node11 -->
<g id="edge5" class="edge">
<title>Node9&#45;&gt;Node11</title>
<path fill="none" stroke="midnightblue" d="M194.47,-270.73C199.67,-262.09 204.35,-252.57 207.11,-243 225.61,-178.95 239.09,-151.5 207.11,-93 198.89,-77.95 185.4,-65.94 170.99,-56.59"/>
<polygon fill="midnightblue" stroke="midnightblue" points="191.37,-269.08 188.91,-279.38 197.26,-272.86 191.37,-269.08"/>
</g>
<!-- Node10&#45;&gt;Node11 -->
<g id="edge2" class="edge">
<title>Node10&#45;&gt;Node11</title>
<path fill="none" stroke="midnightblue" d="M36.93,-180.62C25.76,-172.25 15.73,-162.11 9.11,-150 -3.04,-127.77 -3.04,-115.23 9.11,-93 17.34,-77.95 30.83,-65.94 45.24,-56.59"/>
<polygon fill="midnightblue" stroke="midnightblue" points="35.03,-183.56 45.24,-186.41 39.03,-177.82 35.03,-183.56"/>
</g>
<!-- Node12 -->
<g id="node4" class="node">
<title>Node12</title>
<g id="a_node4"><a xlink:href="playback_8h.html" target="_top" xlink:title=" ">
<polygon fill="white" stroke="black" points="18.16,-93.5 18.16,-149.5 198.07,-149.5 198.07,-93.5 18.16,-93.5"/>
<text text-anchor="start" x="26.16" y="-136.5" font-family="Helvetica,sans-Serif" font-size="10.00">/jenkins/jenlib_workspaces</text>
<text text-anchor="start" x="26.16" y="-124.5" font-family="Helvetica,sans-Serif" font-size="10.00">_f9/bld_nightly&#45;haldls.YmxkX25p</text>
<text text-anchor="start" x="26.16" y="-112.5" font-family="Helvetica,sans-Serif" font-size="10.00">Z2h0bHktaGFsZGxzIzQ5OA.x/haldls</text>
<text text-anchor="middle" x="108.11" y="-100.5" font-family="Helvetica,sans-Serif" font-size="10.00">/include/haldls/v2/playback.h</text>
</a>
</g>
</g>
<!-- Node10&#45;&gt;Node12 -->
<g id="edge3" class="edge">
<title>Node10&#45;&gt;Node12</title>
<path fill="none" stroke="midnightblue" d="M108.11,-176.12C108.11,-167.3 108.11,-158.06 108.11,-149.78"/>
<polygon fill="midnightblue" stroke="midnightblue" points="104.61,-176.2 108.11,-186.2 111.61,-176.2 104.61,-176.2"/>
</g>
<!-- Node12&#45;&gt;Node11 -->
<g id="edge4" class="edge">
<title>Node12&#45;&gt;Node11</title>
<path fill="none" stroke="midnightblue" d="M108.11,-83.12C108.11,-74.3 108.11,-65.06 108.11,-56.78"/>
<polygon fill="midnightblue" stroke="midnightblue" points="104.61,-83.2 108.11,-93.2 111.61,-83.2 104.61,-83.2"/>
</g>
</g>
</svg>
