<?xml version="1.0" encoding="UTF-8" standalone="no"?>
<!DOCTYPE svg PUBLIC "-//W3C//DTD SVG 1.1//EN"
 "http://www.w3.org/Graphics/SVG/1.1/DTD/svg11.dtd">
<!-- Generated by graphviz version 2.43.0 (0)
 -->
<!-- Title: /jenkins/jenlib_workspaces_f9/bld_nightly&#45;haldls.YmxkX25pZ2h0bHktaGFsZGxzIzQ5OA.x/haldls/include/haldls/v2/synapsedriver.h Pages: 1 -->
<svg width="550pt" height="191pt"
 viewBox="0.00 0.00 550.41 191.00" xmlns="http://www.w3.org/2000/svg" xmlns:xlink="http://www.w3.org/1999/xlink">
<g id="graph0" class="graph" transform="scale(1 1) rotate(0) translate(4 187)">
<title>/jenkins/jenlib_workspaces_f9/bld_nightly&#45;haldls.YmxkX25pZ2h0bHktaGFsZGxzIzQ5OA.x/haldls/include/haldls/v2/synapsedriver.h</title>
<polygon fill="white" stroke="transparent" points="-4,4 -4,-187 546.41,-187 546.41,4 -4,4"/>
<!-- Node0 -->
<g id="node1" class="node">
<title>Node0</title>
<g id="a_node1"><a xlink:title=" ">
<polygon fill="#bfbfbf" stroke="black" points="140.1,-126.5 140.1,-182.5 320.01,-182.5 320.01,-126.5 140.1,-126.5"/>
<text text-anchor="start" x="148.1" y="-169.5" font-family="Helvetica,sans-Serif" font-size="10.00">/jenkins/jenlib_workspaces</text>
<text text-anchor="start" x="148.1" y="-157.5" font-family="Helvetica,sans-Serif" font-size="10.00">_f9/bld_nightly&#45;haldls.YmxkX25p</text>
<text text-anchor="start" x="148.1" y="-145.5" font-family="Helvetica,sans-Serif" font-size="10.00">Z2h0bHktaGFsZGxzIzQ5OA.x/haldls</text>
<text text-anchor="middle" x="230.06" y="-133.5" font-family="Helvetica,sans-Serif" font-size="10.00">/include/haldls/v2/synapsedriver.h</text>
</a>
</g>
</g>
<!-- Node1 -->
<g id="node2" class="node">
<title>Node1</title>
<g id="a_node2"><a xlink:title=" ">
<polygon fill="white" stroke="#bfbfbf" points="0,-63.5 0,-83.5 52.11,-83.5 52.11,-63.5 0,-63.5"/>
<text text-anchor="middle" x="26.06" y="-70.5" font-family="Helvetica,sans-Serif" font-size="10.00">ostream</text>
</a>
</g>
</g>
<!-- Node0&#45;&gt;Node1 -->
<g id="edge1" class="edge">
<title>Node0&#45;&gt;Node1</title>
<path fill="none" stroke="midnightblue" d="M155.24,-126.44C125.75,-115.5 91.66,-102.52 61.06,-90 59.21,-89.25 57.32,-88.45 55.41,-87.65"/>
<polygon fill="midnightblue" stroke="midnightblue" points="56.53,-84.32 45.96,-83.55 53.75,-90.74 56.53,-84.32"/>
</g>
<!-- Node2 -->
<g id="node3" class="node">
<title>Node2</title>
<g id="a_node3"><a xlink:title=" ">
<polygon fill="white" stroke="#bfbfbf" points="70.27,-57.5 70.27,-89.5 171.84,-89.5 171.84,-57.5 70.27,-57.5"/>
<text text-anchor="start" x="78.27" y="-76.5" font-family="Helvetica,sans-Serif" font-size="10.00">halco/hicann&#45;dls/v2</text>
<text text-anchor="middle" x="121.06" y="-64.5" font-family="Helvetica,sans-Serif" font-size="10.00">/coordinates.h</text>
</a>
</g>
</g>
<!-- Node0&#45;&gt;Node2 -->
<g id="edge2" class="edge">
<title>Node0&#45;&gt;Node2</title>
<path fill="none" stroke="midnightblue" d="M192.55,-126.31C178.6,-116.21 163.01,-104.91 149.96,-95.45"/>
<polygon fill="midnightblue" stroke="midnightblue" points="151.94,-92.56 141.79,-89.52 147.83,-98.23 151.94,-92.56"/>
</g>
<!-- Node3 -->
<g id="node4" class="node">
<title>Node3</title>
<g id="a_node4"><a xlink:title=" ">
<polygon fill="white" stroke="#bfbfbf" points="189.55,-63.5 189.55,-83.5 270.56,-83.5 270.56,-63.5 189.55,-63.5"/>
<text text-anchor="middle" x="230.06" y="-70.5" font-family="Helvetica,sans-Serif" font-size="10.00">hate/visibility.h</text>
</a>
</g>
</g>
<!-- Node0&#45;&gt;Node3 -->
<g id="edge3" class="edge">
<title>Node0&#45;&gt;Node3</title>
<path fill="none" stroke="midnightblue" d="M230.06,-126.31C230.06,-115.66 230.06,-103.68 230.06,-93.93"/>
<polygon fill="midnightblue" stroke="midnightblue" points="233.56,-93.71 230.06,-83.71 226.56,-93.71 233.56,-93.71"/>
</g>
<!-- Node4 -->
<g id="node5" class="node">
<title>Node4</title>
<g id="a_node5"><a xlink:href="v2_2common_8h.html" target="_top" xlink:title=" ">
<polygon fill="white" stroke="black" points="288.6,-63.5 288.6,-83.5 393.51,-83.5 393.51,-63.5 288.6,-63.5"/>
<text text-anchor="middle" x="341.06" y="-70.5" font-family="Helvetica,sans-Serif" font-size="10.00">haldls/v2/common.h</text>
</a>
</g>
</g>
<!-- Node0&#45;&gt;Node4 -->
<g id="edge4" class="edge">
<title>Node0&#45;&gt;Node4</title>
<path fill="none" stroke="midnightblue" d="M268.26,-126.31C285.6,-113.97 305.45,-99.84 320.04,-89.46"/>
<polygon fill="midnightblue" stroke="midnightblue" points="322.26,-92.18 328.37,-83.53 318.2,-86.47 322.26,-92.18"/>
</g>
<!-- Node8 -->
<g id="node9" class="node">
<title>Node8</title>
<g id="a_node9"><a xlink:href="v2_2genpybind_8h.html" target="_top" xlink:title=" ">
<polygon fill="white" stroke="black" points="411.71,-63.5 411.71,-83.5 524.41,-83.5 524.41,-63.5 411.71,-63.5"/>
<text text-anchor="middle" x="468.06" y="-70.5" font-family="Helvetica,sans-Serif" font-size="10.00">haldls/v2/genpybind.h</text>
</a>
</g>
</g>
<!-- Node0&#45;&gt;Node8 -->
<g id="edge8" class="edge">
<title>Node0&#45;&gt;Node8</title>
<path fill="none" stroke="midnightblue" d="M311.63,-126.42C352.19,-112.96 399.2,-97.36 431.01,-86.8"/>
<polygon fill="midnightblue" stroke="midnightblue" points="432.39,-90.03 440.78,-83.55 430.19,-83.38 432.39,-90.03"/>
</g>
<!-- Node5 -->
<g id="node6" class="node">
<title>Node5</title>
<g id="a_node6"><a xlink:title=" ">
<polygon fill="white" stroke="#bfbfbf" points="246.61,-0.5 246.61,-20.5 291.5,-20.5 291.5,-0.5 246.61,-0.5"/>
<text text-anchor="middle" x="269.06" y="-7.5" font-family="Helvetica,sans-Serif" font-size="10.00">cstdint</text>
</a>
</g>
</g>
<!-- Node4&#45;&gt;Node5 -->
<g id="edge5" class="edge">
<title>Node4&#45;&gt;Node5</title>
<path fill="none" stroke="midnightblue" d="M330.43,-63.5C319.16,-53.95 301.13,-38.67 287.53,-27.15"/>
<polygon fill="midnightblue" stroke="midnightblue" points="289.62,-24.33 279.72,-20.54 285.09,-29.67 289.62,-24.33"/>
</g>
<!-- Node6 -->
<g id="node7" class="node">
<title>Node6</title>
<g id="a_node7"><a xlink:title=" ">
<polygon fill="white" stroke="#bfbfbf" points="310,-0.5 310,-20.5 372.12,-20.5 372.12,-0.5 310,-0.5"/>
<text text-anchor="middle" x="341.06" y="-7.5" font-family="Helvetica,sans-Serif" font-size="10.00">type_traits</text>
</a>
</g>
</g>
<!-- Node4&#45;&gt;Node6 -->
<g id="edge6" class="edge">
<title>Node4&#45;&gt;Node6</title>
<path fill="none" stroke="midnightblue" d="M341.06,-63.5C341.06,-54.94 341.06,-41.78 341.06,-30.85"/>
<polygon fill="midnightblue" stroke="midnightblue" points="344.56,-30.54 341.06,-20.54 337.56,-30.54 344.56,-30.54"/>
</g>
<!-- Node7 -->
<g id="node8" class="node">
<title>Node7</title>
<g id="a_node8"><a xlink:title=" ">
<polygon fill="white" stroke="#bfbfbf" points="389.67,-0.5 389.67,-20.5 428.44,-20.5 428.44,-0.5 389.67,-0.5"/>
<text text-anchor="middle" x="409.06" y="-7.5" font-family="Helvetica,sans-Serif" font-size="10.00">utility</text>
</a>
</g>
</g>
<!-- Node4&#45;&gt;Node7 -->
<g id="edge7" class="edge">
<title>Node4&#45;&gt;Node7</title>
<path fill="none" stroke="midnightblue" d="M351.09,-63.5C361.64,-54.04 378.44,-38.96 391.25,-27.47"/>
<polygon fill="midnightblue" stroke="midnightblue" points="393.88,-29.82 398.98,-20.54 389.2,-24.61 393.88,-29.82"/>
</g>
<!-- Node8&#45;&gt;Node8 -->
<g id="edge9" class="edge">
<title>Node8&#45;&gt;Node8</title>
<path fill="none" stroke="midnightblue" d="M496.67,-83.56C519.25,-87.45 542.41,-84.1 542.41,-73.5 542.41,-64.48 525.61,-60.71 506.68,-62.19"/>
<polygon fill="midnightblue" stroke="midnightblue" points="506.16,-58.73 496.67,-63.44 507.03,-65.67 506.16,-58.73"/>
</g>
</g>
</svg>
