<?xml version="1.0" encoding="UTF-8" standalone="no"?>
<!DOCTYPE svg PUBLIC "-//W3C//DTD SVG 1.1//EN"
 "http://www.w3.org/Graphics/SVG/1.1/DTD/svg11.dtd">
<!-- Generated by graphviz version 2.43.0 (0)
 -->
<!-- Title: /jenkins/jenlib_workspaces_f9/bld_nightly&#45;haldls.YmxkX25pZ2h0bHktaGFsZGxzIzY1NQ.x/haldls/include/haldls/vx/synapse_driver.h Pages: 1 -->
<!--zoomable 260 -->
<svg id="main" version="1.1" xmlns="http://www.w3.org/2000/svg" xmlns:xlink="http://www.w3.org/1999/xlink" xml:space="preserve" onload="init(evt)">
<style type="text/css"><![CDATA[
.edge:hover path { stroke: red; }
.edge:hover polygon { stroke: red; fill: red; }
]]></style>
<script type="text/javascript"><![CDATA[
var edges = document.getElementsByTagName('g');
if (edges && edges.length) {
  for (var i=0;i<edges.length;i++) {
    if (edges[i].id.substr(0,4)=='edge') {
      edges[i].setAttribute('class','edge');
    }
  }
}
]]></script>
        <defs>
                <circle id="rim" cx="0" cy="0" r="7"/>
                <circle id="rim2" cx="0" cy="0" r="3.5"/>
                <g id="zoomPlus">
                        <use xlink:href="#rim" fill="#404040">
                                <set attributeName="fill" to="#808080" begin="zoomplus.mouseover" end="zoomplus.mouseout"/>
                        </use>
                        <path d="M-4,0h8M0,-4v8" fill="none" stroke="white" stroke-width="1.5" pointer-events="none"/>
                </g>
                <g id="zoomMin">
                        <use xlink:href="#rim" fill="#404040">
                                <set attributeName="fill" to="#808080" begin="zoomminus.mouseover" end="zoomminus.mouseout"/>
                        </use>
                        <path d="M-4,0h8" fill="none" stroke="white" stroke-width="1.5" pointer-events="none"/>
                </g>
                <g id="dirArrow">
                        <path fill="none" stroke="white" stroke-width="1.5" d="M0,-3.0v7 M-2.5,-0.5L0,-3.0L2.5,-0.5"/>
                </g>
               <g id="resetDef">
                       <use xlink:href="#rim2" fill="#404040">
                               <set attributeName="fill" to="#808080" begin="reset.mouseover" end="reset.mouseout"/>
                       </use>
               </g>
        </defs>

<script type="text/javascript">
var viewWidth = 1086;
var viewHeight = 260;
var sectionId = 'dynsection-0';
</script>
<script xlink:href="svgpan.js"/>
<svg id="graph" class="graph">
<g id="viewport">
<title>/jenkins/jenlib_workspaces_f9/bld_nightly&#45;haldls.YmxkX25pZ2h0bHktaGFsZGxzIzY1NQ.x/haldls/include/haldls/vx/synapse_driver.h</title>
<polygon fill="white" stroke="transparent" points="-4,4 -4,-256 1081.69,-256 1081.69,4 -4,4"/>
<!-- Node0 -->
<g id="node1" class="node">
<title>Node0</title>
<g id="a_node1"><a xlink:title=" ">
<polygon fill="#bfbfbf" stroke="black" points="445.39,-195.5 445.39,-251.5 624.75,-251.5 624.75,-195.5 445.39,-195.5"/>
<text text-anchor="start" x="453.39" y="-238.5" font-family="Helvetica,sans-Serif" font-size="10.00">/jenkins/jenlib_workspaces</text>
<text text-anchor="start" x="453.39" y="-226.5" font-family="Helvetica,sans-Serif" font-size="10.00">_f9/bld_nightly&#45;haldls.YmxkX25p</text>
<text text-anchor="start" x="453.39" y="-214.5" font-family="Helvetica,sans-Serif" font-size="10.00">Z2h0bHktaGFsZGxzIzY1NQ.x/haldls</text>
<text text-anchor="middle" x="535.07" y="-202.5" font-family="Helvetica,sans-Serif" font-size="10.00">/include/haldls/vx/synapse_driver.h</text>
</a>
</g>
</g>
<!-- Node1 -->
<g id="node2" class="node">
<title>Node1</title>
<g id="a_node2"><a xlink:title=" ">
<polygon fill="white" stroke="#bfbfbf" points="127.68,-132.5 127.68,-152.5 166.46,-152.5 166.46,-132.5 127.68,-132.5"/>
<text text-anchor="middle" x="147.07" y="-139.5" font-family="Helvetica,sans-Serif" font-size="10.00">array</text>
</a>
</g>
</g>
<!-- Node0&#45;&gt;Node1 -->
<g id="edge1" class="edge">
<title>Node0&#45;&gt;Node1</title>
<path fill="none" stroke="midnightblue" d="M445.32,-214.98C371.19,-206.82 264.07,-190.49 175.07,-159 173.63,-158.49 172.18,-157.91 170.73,-157.28"/>
<polygon fill="midnightblue" stroke="midnightblue" points="171.98,-153.99 161.47,-152.66 168.85,-160.26 171.98,-153.99"/>
</g>
<!-- Node2 -->
<g id="node3" class="node">
<title>Node2</title>
<g id="a_node3"><a xlink:title=" ">
<polygon fill="white" stroke="#bfbfbf" points="184.01,-132.5 184.01,-152.5 236.13,-152.5 236.13,-132.5 184.01,-132.5"/>
<text text-anchor="middle" x="210.07" y="-139.5" font-family="Helvetica,sans-Serif" font-size="10.00">ostream</text>
</a>
</g>
</g>
<!-- Node0&#45;&gt;Node2 -->
<g id="edge2" class="edge">
<title>Node0&#45;&gt;Node2</title>
<path fill="none" stroke="midnightblue" d="M445.31,-207.67C387.37,-196.93 310.83,-180.52 245.07,-159 242.78,-158.25 240.43,-157.4 238.1,-156.5"/>
<polygon fill="midnightblue" stroke="midnightblue" points="239.27,-153.19 228.69,-152.58 236.57,-159.65 239.27,-153.19"/>
</g>
<!-- Node3 -->
<g id="node4" class="node">
<title>Node3</title>
<g id="a_node4"><a xlink:title=" ">
<polygon fill="white" stroke="#bfbfbf" points="254.17,-132.5 254.17,-152.5 387.97,-152.5 387.97,-132.5 254.17,-132.5"/>
<text text-anchor="middle" x="321.07" y="-139.5" font-family="Helvetica,sans-Serif" font-size="10.00">halco/common/geometry.h</text>
</a>
</g>
</g>
<!-- Node0&#45;&gt;Node3 -->
<g id="edge3" class="edge">
<title>Node0&#45;&gt;Node3</title>
<path fill="none" stroke="midnightblue" d="M461.72,-195.42C425.57,-182.08 383.72,-166.63 355.13,-156.07"/>
<polygon fill="midnightblue" stroke="midnightblue" points="356.19,-152.73 345.6,-152.55 353.77,-159.3 356.19,-152.73"/>
</g>
<!-- Node4 -->
<g id="node5" class="node">
<title>Node4</title>
<g id="a_node5"><a xlink:title=" ">
<polygon fill="white" stroke="#bfbfbf" points="405.56,-126.5 405.56,-158.5 506.58,-158.5 506.58,-126.5 405.56,-126.5"/>
<text text-anchor="start" x="413.56" y="-145.5" font-family="Helvetica,sans-Serif" font-size="10.00">halco/hicann&#45;dls/vx</text>
<text text-anchor="middle" x="456.07" y="-133.5" font-family="Helvetica,sans-Serif" font-size="10.00">/synapse_driver.h</text>
</a>
</g>
</g>
<!-- Node0&#45;&gt;Node4 -->
<g id="edge4" class="edge">
<title>Node0&#45;&gt;Node4</title>
<path fill="none" stroke="midnightblue" d="M507.88,-195.31C498.26,-185.69 487.55,-174.98 478.38,-165.81"/>
<polygon fill="midnightblue" stroke="midnightblue" points="480.64,-163.12 471.1,-158.52 475.69,-168.07 480.64,-163.12"/>
</g>
<!-- Node5 -->
<g id="node6" class="node">
<title>Node5</title>
<g id="a_node6"><a xlink:href="genpybind_8h.html" target="_top" xlink:title=" ">
<polygon fill="white" stroke="black" points="0,-6.5 0,-26.5 112.14,-26.5 112.14,-6.5 0,-6.5"/>
<text text-anchor="middle" x="56.07" y="-13.5" font-family="Helvetica,sans-Serif" font-size="10.00">haldls/vx/genpybind.h</text>
</a>
</g>
</g>
<!-- Node0&#45;&gt;Node5 -->
<g id="edge5" class="edge">
<title>Node0&#45;&gt;Node5</title>
<path fill="none" stroke="midnightblue" d="M537.14,-195.18C537.22,-173.61 533.61,-144.2 516.07,-126 501.83,-111.22 228.63,-53.22 110.14,-28.62"/>
<polygon fill="midnightblue" stroke="midnightblue" points="110.68,-25.16 100.18,-26.56 109.26,-32.02 110.68,-25.16"/>
</g>
<!-- Node6 -->
<g id="node7" class="node">
<title>Node6</title>
<g id="a_node7"><a xlink:href="sram__controller_8h.html" target="_top" xlink:title=" ">
<polygon fill="white" stroke="black" points="664.62,-132.5 664.62,-152.5 799.52,-152.5 799.52,-132.5 664.62,-132.5"/>
<text text-anchor="middle" x="732.07" y="-139.5" font-family="Helvetica,sans-Serif" font-size="10.00">haldls/vx/sram_controller.h</text>
</a>
</g>
</g>
<!-- Node0&#45;&gt;Node6 -->
<g id="edge7" class="edge">
<title>Node0&#45;&gt;Node6</title>
<path fill="none" stroke="midnightblue" d="M602.59,-195.42C635.58,-182.19 673.73,-166.9 700.03,-156.35"/>
<polygon fill="midnightblue" stroke="midnightblue" points="701.51,-159.52 709.49,-152.55 698.91,-153.03 701.51,-159.52"/>
</g>
<!-- Node11 -->
<g id="node12" class="node">
<title>Node11</title>
<g id="a_node12"><a xlink:href="traits_8h.html" target="_top" xlink:title=" ">
<polygon fill="white" stroke="black" points="583.23,-69.5 583.23,-89.5 670.91,-89.5 670.91,-69.5 583.23,-69.5"/>
<text text-anchor="middle" x="627.07" y="-76.5" font-family="Helvetica,sans-Serif" font-size="10.00">haldls/vx/traits.h</text>
</a>
</g>
</g>
<!-- Node0&#45;&gt;Node11 -->
<g id="edge24" class="edge">
<title>Node0&#45;&gt;Node11</title>
<path fill="none" stroke="midnightblue" d="M552.59,-195.46C571.09,-166.9 599.73,-122.7 615.56,-98.26"/>
<polygon fill="midnightblue" stroke="midnightblue" points="618.64,-99.95 621.14,-89.66 612.76,-96.15 618.64,-99.95"/>
</g>
<!-- Node16 -->
<g id="node17" class="node">
<title>Node16</title>
<g id="a_node17"><a xlink:title=" ">
<polygon fill="white" stroke="#bfbfbf" points="987.57,-6.5 987.57,-26.5 1068.57,-26.5 1068.57,-6.5 987.57,-6.5"/>
<text text-anchor="middle" x="1028.07" y="-13.5" font-family="Helvetica,sans-Serif" font-size="10.00">hate/visibility.h</text>
</a>
</g>
</g>
<!-- Node0&#45;&gt;Node16 -->
<g id="edge25" class="edge">
<title>Node0&#45;&gt;Node16</title>
<path fill="none" stroke="midnightblue" d="M624.82,-208.91C679.15,-198.92 749.09,-182.86 808.07,-159 863.33,-136.64 872.97,-122.28 923.07,-90 952.73,-70.89 986.12,-47.5 1007.12,-32.55"/>
<polygon fill="midnightblue" stroke="midnightblue" points="1009.22,-35.36 1015.32,-26.7 1005.15,-29.66 1009.22,-35.36"/>
</g>
<!-- Node19 -->
<g id="node20" class="node">
<title>Node19</title>
<g id="a_node20"><a xlink:title=" ">
<polygon fill="white" stroke="#bfbfbf" points="974.45,-132.5 974.45,-152.5 1077.69,-152.5 1077.69,-132.5 974.45,-132.5"/>
<text text-anchor="middle" x="1026.07" y="-139.5" font-family="Helvetica,sans-Serif" font-size="10.00">hxcomm/vx/target.h</text>
</a>
</g>
</g>
<!-- Node0&#45;&gt;Node19 -->
<g id="edge26" class="edge">
<title>Node0&#45;&gt;Node19</title>
<path fill="none" stroke="midnightblue" d="M624.98,-211.25C711.25,-199.95 845.04,-181.06 960.07,-159 966.44,-157.78 973.13,-156.36 979.7,-154.9"/>
<polygon fill="midnightblue" stroke="midnightblue" points="980.91,-158.21 989.88,-152.57 979.35,-151.39 980.91,-158.21"/>
</g>
<!-- Node5&#45;&gt;Node5 -->
<g id="edge6" class="edge">
<title>Node5&#45;&gt;Node5</title>
<path fill="none" stroke="midnightblue" d="M84.58,-26.56C107.07,-30.45 130.14,-27.1 130.14,-16.5 130.14,-7.48 113.41,-3.71 94.55,-5.19"/>
<polygon fill="midnightblue" stroke="midnightblue" points="94.06,-1.72 84.58,-6.44 94.94,-8.67 94.06,-1.72"/>
</g>
<!-- Node6&#45;&gt;Node5 -->
<g id="edge12" class="edge">
<title>Node6&#45;&gt;Node5</title>
<path fill="none" stroke="midnightblue" d="M699.83,-132.43C667.56,-123.01 616.73,-107.27 574.07,-90 554.36,-82.02 551.55,-74.73 531.07,-69 362.59,-21.84 312.36,-57.08 139.07,-33 129.7,-31.7 119.77,-30.07 110.17,-28.35"/>
<polygon fill="midnightblue" stroke="midnightblue" points="110.78,-24.91 100.31,-26.55 109.52,-31.79 110.78,-24.91"/>
</g>
<!-- Node7 -->
<g id="node8" class="node">
<title>Node7</title>
<g id="a_node8"><a xlink:href="common_8h.html" target="_top" xlink:title=" ">
<polygon fill="white" stroke="black" points="688.9,-69.5 688.9,-89.5 793.24,-89.5 793.24,-69.5 688.9,-69.5"/>
<text text-anchor="middle" x="741.07" y="-76.5" font-family="Helvetica,sans-Serif" font-size="10.00">haldls/vx/common.h</text>
</a>
</g>
</g>
<!-- Node6&#45;&gt;Node7 -->
<g id="edge8" class="edge">
<title>Node6&#45;&gt;Node7</title>
<path fill="none" stroke="midnightblue" d="M733.4,-132.5C734.68,-123.85 736.64,-110.51 738.27,-99.5"/>
<polygon fill="midnightblue" stroke="midnightblue" points="741.74,-99.94 739.74,-89.54 734.82,-98.92 741.74,-99.94"/>
</g>
<!-- Node6&#45;&gt;Node11 -->
<g id="edge13" class="edge">
<title>Node6&#45;&gt;Node11</title>
<path fill="none" stroke="midnightblue" d="M716.58,-132.5C699.44,-122.54 671.6,-106.37 651.51,-94.7"/>
<polygon fill="midnightblue" stroke="midnightblue" points="653.03,-91.53 642.63,-89.54 649.52,-97.59 653.03,-91.53"/>
</g>
<!-- Node6&#45;&gt;Node16 -->
<g id="edge23" class="edge">
<title>Node6&#45;&gt;Node16</title>
<path fill="none" stroke="midnightblue" d="M764.81,-132.46C796.97,-123.19 847.17,-107.66 889.07,-90 911.19,-80.68 968.84,-49.77 1002.54,-31.46"/>
<polygon fill="midnightblue" stroke="midnightblue" points="1004.25,-34.51 1011.36,-26.66 1000.9,-28.37 1004.25,-34.51"/>
</g>
<!-- Node18 -->
<g id="node19" class="node">
<title>Node18</title>
<g id="a_node19"><a xlink:title=" ">
<polygon fill="white" stroke="#bfbfbf" points="811.67,-69.5 811.67,-89.5 880.47,-89.5 880.47,-69.5 811.67,-69.5"/>
<text text-anchor="middle" x="846.07" y="-76.5" font-family="Helvetica,sans-Serif" font-size="10.00">hate/math.h</text>
</a>
</g>
</g>
<!-- Node6&#45;&gt;Node18 -->
<g id="edge22" class="edge">
<title>Node6&#45;&gt;Node18</title>
<path fill="none" stroke="midnightblue" d="M748.89,-132.5C767.67,-122.45 798.28,-106.07 820.12,-94.38"/>
<polygon fill="midnightblue" stroke="midnightblue" points="822.02,-97.34 829.18,-89.54 818.71,-91.17 822.02,-97.34"/>
</g>
<!-- Node8 -->
<g id="node9" class="node">
<title>Node8</title>
<g id="a_node9"><a xlink:title=" ">
<polygon fill="white" stroke="#bfbfbf" points="710.01,-6.5 710.01,-26.5 772.13,-26.5 772.13,-6.5 710.01,-6.5"/>
<text text-anchor="middle" x="741.07" y="-13.5" font-family="Helvetica,sans-Serif" font-size="10.00">type_traits</text>
</a>
</g>
</g>
<!-- Node7&#45;&gt;Node8 -->
<g id="edge9" class="edge">
<title>Node7&#45;&gt;Node8</title>
<path fill="none" stroke="midnightblue" d="M741.07,-69.5C741.07,-60.94 741.07,-47.78 741.07,-36.85"/>
<polygon fill="midnightblue" stroke="midnightblue" points="744.57,-36.54 741.07,-26.54 737.57,-36.54 744.57,-36.54"/>
</g>
<!-- Node9 -->
<g id="node10" class="node">
<title>Node9</title>
<g id="a_node10"><a xlink:title=" ">
<polygon fill="white" stroke="#bfbfbf" points="789.68,-6.5 789.68,-26.5 828.46,-26.5 828.46,-6.5 789.68,-6.5"/>
<text text-anchor="middle" x="809.07" y="-13.5" font-family="Helvetica,sans-Serif" font-size="10.00">utility</text>
</a>
</g>
</g>
<!-- Node7&#45;&gt;Node9 -->
<g id="edge10" class="edge">
<title>Node7&#45;&gt;Node9</title>
<path fill="none" stroke="midnightblue" d="M751.11,-69.5C761.65,-60.04 778.46,-44.96 791.26,-33.47"/>
<polygon fill="midnightblue" stroke="midnightblue" points="793.89,-35.82 799,-26.54 789.22,-30.61 793.89,-35.82"/>
</g>
<!-- Node10 -->
<g id="node11" class="node">
<title>Node10</title>
<g id="a_node11"><a xlink:title=" ">
<polygon fill="white" stroke="#bfbfbf" points="846.45,-6.5 846.45,-26.5 969.7,-26.5 969.7,-6.5 846.45,-6.5"/>
<text text-anchor="middle" x="908.07" y="-13.5" font-family="Helvetica,sans-Serif" font-size="10.00">fisch/vx/omnibus_data.h</text>
</a>
</g>
</g>
<!-- Node7&#45;&gt;Node10 -->
<g id="edge11" class="edge">
<title>Node7&#45;&gt;Node10</title>
<path fill="none" stroke="midnightblue" d="M765.71,-69.5C794.33,-59.05 841.7,-41.74 873.87,-29.99"/>
<polygon fill="midnightblue" stroke="midnightblue" points="875.14,-33.26 883.33,-26.54 872.74,-26.68 875.14,-33.26"/>
</g>
<!-- Node11&#45;&gt;Node5 -->
<g id="edge18" class="edge">
<title>Node11&#45;&gt;Node5</title>
<path fill="none" stroke="midnightblue" d="M583.11,-70.92C578.38,-70.22 573.63,-69.56 569.07,-69 378.74,-45.48 329.13,-58.64 139.07,-33 129.58,-31.72 119.53,-30.08 109.83,-28.36"/>
<polygon fill="midnightblue" stroke="midnightblue" points="110.34,-24.89 99.87,-26.54 109.08,-31.78 110.34,-24.89"/>
</g>
<!-- Node11&#45;&gt;Node8 -->
<g id="edge14" class="edge">
<title>Node11&#45;&gt;Node8</title>
<path fill="none" stroke="midnightblue" d="M643.89,-69.5C662.67,-59.45 693.28,-43.07 715.12,-31.38"/>
<polygon fill="midnightblue" stroke="midnightblue" points="717.02,-34.34 724.18,-26.54 713.71,-28.17 717.02,-34.34"/>
</g>
<!-- Node12 -->
<g id="node13" class="node">
<title>Node12</title>
<g id="a_node13"><a xlink:title=" ">
<polygon fill="white" stroke="#bfbfbf" points="147.72,-6.5 147.72,-26.5 240.42,-26.5 240.42,-6.5 147.72,-6.5"/>
<text text-anchor="middle" x="194.07" y="-13.5" font-family="Helvetica,sans-Serif" font-size="10.00">boost/variant.hpp</text>
</a>
</g>
</g>
<!-- Node11&#45;&gt;Node12 -->
<g id="edge15" class="edge">
<title>Node11&#45;&gt;Node12</title>
<path fill="none" stroke="midnightblue" d="M583.09,-71.06C578.36,-70.33 573.62,-69.63 569.07,-69 427.3,-49.43 389.52,-60.5 249.07,-33 243.66,-31.94 238,-30.61 232.46,-29.17"/>
<polygon fill="midnightblue" stroke="midnightblue" points="233.26,-25.76 222.69,-26.52 231.42,-32.52 233.26,-25.76"/>
</g>
<!-- Node13 -->
<g id="node14" class="node">
<title>Node13</title>
<g id="a_node14"><a xlink:title=" ">
<polygon fill="white" stroke="#bfbfbf" points="258.45,-0.5 258.45,-32.5 351.69,-32.5 351.69,-0.5 258.45,-0.5"/>
<text text-anchor="start" x="266.45" y="-19.5" font-family="Helvetica,sans-Serif" font-size="10.00">fisch/vx/container</text>
<text text-anchor="middle" x="305.07" y="-7.5" font-family="Helvetica,sans-Serif" font-size="10.00">_fwd.h</text>
</a>
</g>
</g>
<!-- Node11&#45;&gt;Node13 -->
<g id="edge16" class="edge">
<title>Node11&#45;&gt;Node13</title>
<path fill="none" stroke="midnightblue" d="M583.17,-71.28C519.06,-60.7 403.6,-41.5 361.59,-33.1"/>
<polygon fill="midnightblue" stroke="midnightblue" points="362.3,-29.67 351.79,-31.03 360.85,-36.52 362.3,-29.67"/>
</g>
<!-- Node14 -->
<g id="node15" class="node">
<title>Node14</title>
<g id="a_node15"><a xlink:title=" ">
<polygon fill="white" stroke="#bfbfbf" points="369.45,-0.5 369.45,-32.5 462.69,-32.5 462.69,-0.5 369.45,-0.5"/>
<text text-anchor="start" x="377.45" y="-19.5" font-family="Helvetica,sans-Serif" font-size="10.00">fisch/vx/container</text>
<text text-anchor="middle" x="416.07" y="-7.5" font-family="Helvetica,sans-Serif" font-size="10.00">_ticket.h</text>
</a>
</g>
</g>
<!-- Node11&#45;&gt;Node14 -->
<g id="edge17" class="edge">
<title>Node11&#45;&gt;Node14</title>
<path fill="none" stroke="midnightblue" d="M595.94,-69.5C563.6,-60.15 512.3,-45.32 472.74,-33.88"/>
<polygon fill="midnightblue" stroke="midnightblue" points="473.54,-30.47 462.96,-31.05 471.59,-37.19 473.54,-30.47"/>
</g>
<!-- Node15 -->
<g id="node16" class="node">
<title>Node15</title>
<g id="a_node16"><a xlink:title=" ">
<polygon fill="white" stroke="#bfbfbf" points="480.45,-6.5 480.45,-26.5 563.69,-26.5 563.69,-6.5 480.45,-6.5"/>
<text text-anchor="middle" x="522.07" y="-13.5" font-family="Helvetica,sans-Serif" font-size="10.00">hate/type_list.h</text>
</a>
</g>
</g>
<!-- Node11&#45;&gt;Node15 -->
<g id="edge19" class="edge">
<title>Node11&#45;&gt;Node15</title>
<path fill="none" stroke="midnightblue" d="M611.58,-69.5C594.44,-59.54 566.6,-43.37 546.51,-31.7"/>
<polygon fill="midnightblue" stroke="midnightblue" points="548.03,-28.53 537.63,-26.54 544.52,-34.59 548.03,-28.53"/>
</g>
<!-- Node11&#45;&gt;Node16 -->
<g id="edge20" class="edge">
<title>Node11&#45;&gt;Node16</title>
<path fill="none" stroke="midnightblue" d="M671,-70.43C674.07,-69.92 677.11,-69.44 680.07,-69 812.45,-49.18 848.25,-61.31 979.07,-33 983.56,-32.03 988.22,-30.82 992.81,-29.51"/>
<polygon fill="midnightblue" stroke="midnightblue" points="994.07,-32.79 1002.63,-26.54 992.04,-26.09 994.07,-32.79"/>
</g>
<!-- Node17 -->
<g id="node18" class="node">
<title>Node17</title>
<g id="a_node18"><a xlink:title=" ">
<polygon fill="white" stroke="#bfbfbf" points="582.12,-6.5 582.12,-26.5 692.03,-26.5 692.03,-6.5 582.12,-6.5"/>
<text text-anchor="middle" x="637.07" y="-13.5" font-family="Helvetica,sans-Serif" font-size="10.00">fisch/vx/container.def</text>
</a>
</g>
</g>
<!-- Node11&#45;&gt;Node17 -->
<g id="edge21" class="edge">
<title>Node11&#45;&gt;Node17</title>
<path fill="none" stroke="midnightblue" d="M628.55,-69.5C629.97,-60.85 632.15,-47.51 633.96,-36.5"/>
<polygon fill="midnightblue" stroke="midnightblue" points="637.43,-36.97 635.59,-26.54 630.52,-35.84 637.43,-36.97"/>
</g>
</g>
</svg>
        <g id="navigator" transform="translate(0 0)" fill="#404254">
                <rect fill="#f2f5e9" fill-opacity="0.5" stroke="#606060" stroke-width=".5" x="0" y="0" width="60" height="60"/>
                <use id="zoomplus" xlink:href="#zoomPlus" x="17" y="9" onmousedown="handleZoom(evt,'in')"/>
                <use id="zoomminus" xlink:href="#zoomMin" x="42" y="9" onmousedown="handleZoom(evt,'out')"/>
                <use id="reset" xlink:href="#resetDef" x="30" y="36" onmousedown="handleReset()"/>
                <g id="arrowUp" xlink:href="#dirArrow" transform="translate(30 24)" onmousedown="handlePan(0,-1)">
                  <use xlink:href="#rim" fill="#404040">
                        <set attributeName="fill" to="#808080" begin="arrowUp.mouseover" end="arrowUp.mouseout"/>
                  </use>
                  <path fill="none" stroke="white" stroke-width="1.5" d="M0,-3.0v7 M-2.5,-0.5L0,-3.0L2.5,-0.5"/>
                </g>
                <g id="arrowRight" xlink:href="#dirArrow" transform="rotate(90) translate(36 -43)" onmousedown="handlePan(1,0)">
                  <use xlink:href="#rim" fill="#404040">
                        <set attributeName="fill" to="#808080" begin="arrowRight.mouseover" end="arrowRight.mouseout"/>
                  </use>
                  <path fill="none" stroke="white" stroke-width="1.5" d="M0,-3.0v7 M-2.5,-0.5L0,-3.0L2.5,-0.5"/>
                </g>
                <g id="arrowDown" xlink:href="#dirArrow" transform="rotate(180) translate(-30 -48)" onmousedown="handlePan(0,1)">
                  <use xlink:href="#rim" fill="#404040">
                        <set attributeName="fill" to="#808080" begin="arrowDown.mouseover" end="arrowDown.mouseout"/>
                  </use>
                  <path fill="none" stroke="white" stroke-width="1.5" d="M0,-3.0v7 M-2.5,-0.5L0,-3.0L2.5,-0.5"/>
                </g>
                <g id="arrowLeft" xlink:href="#dirArrow" transform="rotate(270) translate(-36 17)" onmousedown="handlePan(-1,0)">
                  <use xlink:href="#rim" fill="#404040">
                        <set attributeName="fill" to="#808080" begin="arrowLeft.mouseover" end="arrowLeft.mouseout"/>
                  </use>
                  <path fill="none" stroke="white" stroke-width="1.5" d="M0,-3.0v7 M-2.5,-0.5L0,-3.0L2.5,-0.5"/>
                </g>
        </g>
        <svg viewBox="0 0 15 15" width="100%" height="30px" preserveAspectRatio="xMaxYMin meet">
         <g id="arrow_out" transform="scale(0.3 0.3)">
          <a xlink:href="synapse__driver_8h__incl_org.svg" target="_base">
           <rect id="button" ry="5" rx="5" y="6" x="6" height="38" width="38"
                fill="#f2f5e9" fill-opacity="0.5" stroke="#606060" stroke-width="1.0"/>
           <path id="arrow"
             d="M 11.500037,31.436501 C 11.940474,20.09759 22.043105,11.32322 32.158766,21.979434 L 37.068811,17.246167 C 37.068811,17.246167 37.088388,32 37.088388,32 L 22.160133,31.978069 C 22.160133,31.978069 26.997745,27.140456 26.997745,27.140456 C 18.528582,18.264221 13.291696,25.230495 11.500037,31.436501 z"
             style="fill:#404040;"/>
          </a>
         </g>
        </svg>
</svg>
