<?xml version="1.0" encoding="UTF-8" standalone="no"?>
<!DOCTYPE svg PUBLIC "-//W3C//DTD SVG 1.1//EN"
 "http://www.w3.org/Graphics/SVG/1.1/DTD/svg11.dtd">
<!-- Generated by graphviz version 2.43.0 (0)
 -->
<!-- Title: /jenkins/jenlib_workspaces_f9/bld_nightly&#45;haldls.YmxkX25pZ2h0bHktaGFsZGxzIzQ5OA.x/haldls/include/haldls/v2/correlation.h Pages: 1 -->
<!--zoomable 191 -->
<svg id="main" version="1.1" xmlns="http://www.w3.org/2000/svg" xmlns:xlink="http://www.w3.org/1999/xlink" xml:space="preserve" onload="init(evt)">
<style type="text/css"><![CDATA[
.edge:hover path { stroke: red; }
.edge:hover polygon { stroke: red; fill: red; }
]]></style>
<script type="text/javascript"><![CDATA[
var edges = document.getElementsByTagName('g');
if (edges && edges.length) {
  for (var i=0;i<edges.length;i++) {
    if (edges[i].id.substr(0,4)=='edge') {
      edges[i].setAttribute('class','edge');
    }
  }
}
]]></script>
        <defs>
                <circle id="rim" cx="0" cy="0" r="7"/>
                <circle id="rim2" cx="0" cy="0" r="3.5"/>
                <g id="zoomPlus">
                        <use xlink:href="#rim" fill="#404040">
                                <set attributeName="fill" to="#808080" begin="zoomplus.mouseover" end="zoomplus.mouseout"/>
                        </use>
                        <path d="M-4,0h8M0,-4v8" fill="none" stroke="white" stroke-width="1.5" pointer-events="none"/>
                </g>
                <g id="zoomMin">
                        <use xlink:href="#rim" fill="#404040">
                                <set attributeName="fill" to="#808080" begin="zoomminus.mouseover" end="zoomminus.mouseout"/>
                        </use>
                        <path d="M-4,0h8" fill="none" stroke="white" stroke-width="1.5" pointer-events="none"/>
                </g>
                <g id="dirArrow">
                        <path fill="none" stroke="white" stroke-width="1.5" d="M0,-3.0v7 M-2.5,-0.5L0,-3.0L2.5,-0.5"/>
                </g>
               <g id="resetDef">
                       <use xlink:href="#rim2" fill="#404040">
                               <set attributeName="fill" to="#808080" begin="reset.mouseover" end="reset.mouseout"/>
                       </use>
               </g>
        </defs>

<script type="text/javascript">
var viewWidth = 676;
var viewHeight = 191;
var sectionId = 'dynsection-0';
</script>
<script xlink:href="svgpan.js"/>
<svg id="graph" class="graph">
<g id="viewport">
<title>/jenkins/jenlib_workspaces_f9/bld_nightly&#45;haldls.YmxkX25pZ2h0bHktaGFsZGxzIzQ5OA.x/haldls/include/haldls/v2/correlation.h</title>
<polygon fill="white" stroke="transparent" points="-4,4 -4,-187 672.41,-187 672.41,4 -4,4"/>
<!-- Node0 -->
<g id="node1" class="node">
<title>Node0</title>
<g id="a_node1"><a xlink:title=" ">
<polygon fill="#bfbfbf" stroke="black" points="211.1,-126.5 211.1,-182.5 391.01,-182.5 391.01,-126.5 211.1,-126.5"/>
<text text-anchor="start" x="219.1" y="-169.5" font-family="Helvetica,sans-Serif" font-size="10.00">/jenkins/jenlib_workspaces</text>
<text text-anchor="start" x="219.1" y="-157.5" font-family="Helvetica,sans-Serif" font-size="10.00">_f9/bld_nightly&#45;haldls.YmxkX25p</text>
<text text-anchor="start" x="219.1" y="-145.5" font-family="Helvetica,sans-Serif" font-size="10.00">Z2h0bHktaGFsZGxzIzQ5OA.x/haldls</text>
<text text-anchor="middle" x="301.06" y="-133.5" font-family="Helvetica,sans-Serif" font-size="10.00">/include/haldls/v2/correlation.h</text>
</a>
</g>
</g>
<!-- Node1 -->
<g id="node2" class="node">
<title>Node1</title>
<g id="a_node2"><a xlink:title=" ">
<polygon fill="white" stroke="#bfbfbf" points="0,-63.5 0,-83.5 52.11,-83.5 52.11,-63.5 0,-63.5"/>
<text text-anchor="middle" x="26.06" y="-70.5" font-family="Helvetica,sans-Serif" font-size="10.00">ostream</text>
</a>
</g>
</g>
<!-- Node0&#45;&gt;Node1 -->
<g id="edge1" class="edge">
<title>Node0&#45;&gt;Node1</title>
<path fill="none" stroke="midnightblue" d="M210.85,-133.22C165.41,-122.1 109.75,-107.1 61.06,-90 58.92,-89.25 56.73,-88.42 54.54,-87.55"/>
<polygon fill="midnightblue" stroke="midnightblue" points="55.67,-84.23 45.09,-83.58 52.95,-90.69 55.67,-84.23"/>
</g>
<!-- Node2 -->
<g id="node3" class="node">
<title>Node2</title>
<g id="a_node3"><a xlink:title=" ">
<polygon fill="white" stroke="#bfbfbf" points="69.93,-57.5 69.93,-89.5 178.18,-89.5 178.18,-57.5 69.93,-57.5"/>
<text text-anchor="start" x="77.93" y="-76.5" font-family="Helvetica,sans-Serif" font-size="10.00">halco/common/typed</text>
<text text-anchor="middle" x="124.06" y="-64.5" font-family="Helvetica,sans-Serif" font-size="10.00">_array.h</text>
</a>
</g>
</g>
<!-- Node0&#45;&gt;Node2 -->
<g id="edge2" class="edge">
<title>Node0&#45;&gt;Node2</title>
<path fill="none" stroke="midnightblue" d="M240.14,-126.31C216.1,-115.58 189.04,-103.5 167.1,-93.71"/>
<polygon fill="midnightblue" stroke="midnightblue" points="168.28,-90.4 157.72,-89.52 165.43,-96.8 168.28,-90.4"/>
</g>
<!-- Node3 -->
<g id="node4" class="node">
<title>Node3</title>
<g id="a_node4"><a xlink:title=" ">
<polygon fill="white" stroke="#bfbfbf" points="196.27,-57.5 196.27,-89.5 297.84,-89.5 297.84,-57.5 196.27,-57.5"/>
<text text-anchor="start" x="204.27" y="-76.5" font-family="Helvetica,sans-Serif" font-size="10.00">halco/hicann&#45;dls/v2</text>
<text text-anchor="middle" x="247.06" y="-64.5" font-family="Helvetica,sans-Serif" font-size="10.00">/coordinates.h</text>
</a>
</g>
</g>
<!-- Node0&#45;&gt;Node3 -->
<g id="edge3" class="edge">
<title>Node0&#45;&gt;Node3</title>
<path fill="none" stroke="midnightblue" d="M282.47,-126.31C276.16,-117.07 269.16,-106.84 263.06,-97.92"/>
<polygon fill="midnightblue" stroke="midnightblue" points="265.86,-95.81 257.33,-89.52 260.08,-99.76 265.86,-95.81"/>
</g>
<!-- Node4 -->
<g id="node5" class="node">
<title>Node4</title>
<g id="a_node5"><a xlink:title=" ">
<polygon fill="white" stroke="#bfbfbf" points="315.55,-63.5 315.55,-83.5 396.56,-83.5 396.56,-63.5 315.55,-63.5"/>
<text text-anchor="middle" x="356.06" y="-70.5" font-family="Helvetica,sans-Serif" font-size="10.00">hate/visibility.h</text>
</a>
</g>
</g>
<!-- Node0&#45;&gt;Node4 -->
<g id="edge4" class="edge">
<title>Node0&#45;&gt;Node4</title>
<path fill="none" stroke="midnightblue" d="M319.98,-126.31C327.88,-114.97 336.83,-102.12 343.84,-92.05"/>
<polygon fill="midnightblue" stroke="midnightblue" points="346.8,-93.92 349.64,-83.71 341.06,-89.92 346.8,-93.92"/>
</g>
<!-- Node5 -->
<g id="node6" class="node">
<title>Node5</title>
<g id="a_node6"><a xlink:href="v2_2common_8h.html" target="_top" xlink:title=" ">
<polygon fill="white" stroke="black" points="414.6,-63.5 414.6,-83.5 519.51,-83.5 519.51,-63.5 414.6,-63.5"/>
<text text-anchor="middle" x="467.06" y="-70.5" font-family="Helvetica,sans-Serif" font-size="10.00">haldls/v2/common.h</text>
</a>
</g>
</g>
<!-- Node0&#45;&gt;Node5 -->
<g id="edge5" class="edge">
<title>Node0&#45;&gt;Node5</title>
<path fill="none" stroke="midnightblue" d="M358.18,-126.31C385.47,-113.33 416.9,-98.37 438.96,-87.87"/>
<polygon fill="midnightblue" stroke="midnightblue" points="440.56,-90.99 448.09,-83.53 437.55,-84.66 440.56,-90.99"/>
</g>
<!-- Node9 -->
<g id="node10" class="node">
<title>Node9</title>
<g id="a_node10"><a xlink:href="v2_2genpybind_8h.html" target="_top" xlink:title=" ">
<polygon fill="white" stroke="black" points="537.71,-63.5 537.71,-83.5 650.41,-83.5 650.41,-63.5 537.71,-63.5"/>
<text text-anchor="middle" x="594.06" y="-70.5" font-family="Helvetica,sans-Serif" font-size="10.00">haldls/v2/genpybind.h</text>
</a>
</g>
</g>
<!-- Node0&#45;&gt;Node9 -->
<g id="edge9" class="edge">
<title>Node0&#45;&gt;Node9</title>
<path fill="none" stroke="midnightblue" d="M391.36,-129.15C444.33,-114.87 508.85,-97.47 550.66,-86.2"/>
<polygon fill="midnightblue" stroke="midnightblue" points="551.77,-89.53 560.52,-83.54 549.95,-82.77 551.77,-89.53"/>
</g>
<!-- Node6 -->
<g id="node7" class="node">
<title>Node6</title>
<g id="a_node7"><a xlink:title=" ">
<polygon fill="white" stroke="#bfbfbf" points="372.61,-0.5 372.61,-20.5 417.5,-20.5 417.5,-0.5 372.61,-0.5"/>
<text text-anchor="middle" x="395.06" y="-7.5" font-family="Helvetica,sans-Serif" font-size="10.00">cstdint</text>
</a>
</g>
</g>
<!-- Node5&#45;&gt;Node6 -->
<g id="edge6" class="edge">
<title>Node5&#45;&gt;Node6</title>
<path fill="none" stroke="midnightblue" d="M456.43,-63.5C445.16,-53.95 427.13,-38.67 413.53,-27.15"/>
<polygon fill="midnightblue" stroke="midnightblue" points="415.62,-24.33 405.72,-20.54 411.09,-29.67 415.62,-24.33"/>
</g>
<!-- Node7 -->
<g id="node8" class="node">
<title>Node7</title>
<g id="a_node8"><a xlink:title=" ">
<polygon fill="white" stroke="#bfbfbf" points="436,-0.5 436,-20.5 498.12,-20.5 498.12,-0.5 436,-0.5"/>
<text text-anchor="middle" x="467.06" y="-7.5" font-family="Helvetica,sans-Serif" font-size="10.00">type_traits</text>
</a>
</g>
</g>
<!-- Node5&#45;&gt;Node7 -->
<g id="edge7" class="edge">
<title>Node5&#45;&gt;Node7</title>
<path fill="none" stroke="midnightblue" d="M467.06,-63.5C467.06,-54.94 467.06,-41.78 467.06,-30.85"/>
<polygon fill="midnightblue" stroke="midnightblue" points="470.56,-30.54 467.06,-20.54 463.56,-30.54 470.56,-30.54"/>
</g>
<!-- Node8 -->
<g id="node9" class="node">
<title>Node8</title>
<g id="a_node9"><a xlink:title=" ">
<polygon fill="white" stroke="#bfbfbf" points="515.67,-0.5 515.67,-20.5 554.44,-20.5 554.44,-0.5 515.67,-0.5"/>
<text text-anchor="middle" x="535.06" y="-7.5" font-family="Helvetica,sans-Serif" font-size="10.00">utility</text>
</a>
</g>
</g>
<!-- Node5&#45;&gt;Node8 -->
<g id="edge8" class="edge">
<title>Node5&#45;&gt;Node8</title>
<path fill="none" stroke="midnightblue" d="M477.09,-63.5C487.64,-54.04 504.44,-38.96 517.25,-27.47"/>
<polygon fill="midnightblue" stroke="midnightblue" points="519.88,-29.82 524.98,-20.54 515.2,-24.61 519.88,-29.82"/>
</g>
<!-- Node9&#45;&gt;Node9 -->
<g id="edge10" class="edge">
<title>Node9&#45;&gt;Node9</title>
<path fill="none" stroke="midnightblue" d="M622.67,-83.56C645.25,-87.45 668.41,-84.1 668.41,-73.5 668.41,-64.48 651.61,-60.71 632.68,-62.19"/>
<polygon fill="midnightblue" stroke="midnightblue" points="632.16,-58.73 622.67,-63.44 633.03,-65.67 632.16,-58.73"/>
</g>
</g>
</svg>
        <g id="navigator" transform="translate(0 0)" fill="#404254">
                <rect fill="#f2f5e9" fill-opacity="0.5" stroke="#606060" stroke-width=".5" x="0" y="0" width="60" height="60"/>
                <use id="zoomplus" xlink:href="#zoomPlus" x="17" y="9" onmousedown="handleZoom(evt,'in')"/>
                <use id="zoomminus" xlink:href="#zoomMin" x="42" y="9" onmousedown="handleZoom(evt,'out')"/>
                <use id="reset" xlink:href="#resetDef" x="30" y="36" onmousedown="handleReset()"/>
                <g id="arrowUp" xlink:href="#dirArrow" transform="translate(30 24)" onmousedown="handlePan(0,-1)">
                  <use xlink:href="#rim" fill="#404040">
                        <set attributeName="fill" to="#808080" begin="arrowUp.mouseover" end="arrowUp.mouseout"/>
                  </use>
                  <path fill="none" stroke="white" stroke-width="1.5" d="M0,-3.0v7 M-2.5,-0.5L0,-3.0L2.5,-0.5"/>
                </g>
                <g id="arrowRight" xlink:href="#dirArrow" transform="rotate(90) translate(36 -43)" onmousedown="handlePan(1,0)">
                  <use xlink:href="#rim" fill="#404040">
                        <set attributeName="fill" to="#808080" begin="arrowRight.mouseover" end="arrowRight.mouseout"/>
                  </use>
                  <path fill="none" stroke="white" stroke-width="1.5" d="M0,-3.0v7 M-2.5,-0.5L0,-3.0L2.5,-0.5"/>
                </g>
                <g id="arrowDown" xlink:href="#dirArrow" transform="rotate(180) translate(-30 -48)" onmousedown="handlePan(0,1)">
                  <use xlink:href="#rim" fill="#404040">
                        <set attributeName="fill" to="#808080" begin="arrowDown.mouseover" end="arrowDown.mouseout"/>
                  </use>
                  <path fill="none" stroke="white" stroke-width="1.5" d="M0,-3.0v7 M-2.5,-0.5L0,-3.0L2.5,-0.5"/>
                </g>
                <g id="arrowLeft" xlink:href="#dirArrow" transform="rotate(270) translate(-36 17)" onmousedown="handlePan(-1,0)">
                  <use xlink:href="#rim" fill="#404040">
                        <set attributeName="fill" to="#808080" begin="arrowLeft.mouseover" end="arrowLeft.mouseout"/>
                  </use>
                  <path fill="none" stroke="white" stroke-width="1.5" d="M0,-3.0v7 M-2.5,-0.5L0,-3.0L2.5,-0.5"/>
                </g>
        </g>
        <svg viewBox="0 0 15 15" width="100%" height="30px" preserveAspectRatio="xMaxYMin meet">
         <g id="arrow_out" transform="scale(0.3 0.3)">
          <a xlink:href="v2_2correlation_8h__incl_org.svg" target="_base">
           <rect id="button" ry="5" rx="5" y="6" x="6" height="38" width="38"
                fill="#f2f5e9" fill-opacity="0.5" stroke="#606060" stroke-width="1.0"/>
           <path id="arrow"
             d="M 11.500037,31.436501 C 11.940474,20.09759 22.043105,11.32322 32.158766,21.979434 L 37.068811,17.246167 C 37.068811,17.246167 37.088388,32 37.088388,32 L 22.160133,31.978069 C 22.160133,31.978069 26.997745,27.140456 26.997745,27.140456 C 18.528582,18.264221 13.291696,25.230495 11.500037,31.436501 z"
             style="fill:#404040;"/>
          </a>
         </g>
        </svg>
</svg>
