<?xml version="1.0" encoding="UTF-8" standalone="no"?>
<!DOCTYPE svg PUBLIC "-//W3C//DTD SVG 1.1//EN"
 "http://www.w3.org/Graphics/SVG/1.1/DTD/svg11.dtd">
<!-- Generated by graphviz version 2.43.0 (0)
 -->
<!-- Title: /jenkins/jenlib_workspaces_f9/bld_nightly&#45;haldls.YmxkX25pZ2h0bHktaGFsZGxzIzQ5OA.x/haldls/include/haldls/v2/synapse.h Pages: 1 -->
<svg width="660pt" height="344pt"
 viewBox="0.00 0.00 659.92 344.00" xmlns="http://www.w3.org/2000/svg" xmlns:xlink="http://www.w3.org/1999/xlink">
<g id="graph0" class="graph" transform="scale(1 1) rotate(0) translate(4 340)">
<title>/jenkins/jenlib_workspaces_f9/bld_nightly&#45;haldls.YmxkX25pZ2h0bHktaGFsZGxzIzQ5OA.x/haldls/include/haldls/v2/synapse.h</title>
<polygon fill="white" stroke="transparent" points="-4,4 -4,-340 655.92,-340 655.92,4 -4,4"/>
<!-- Node10 -->
<g id="node1" class="node">
<title>Node10</title>
<g id="a_node1"><a xlink:title=" ">
<polygon fill="#bfbfbf" stroke="black" points="156,-279.5 156,-335.5 335.92,-335.5 335.92,-279.5 156,-279.5"/>
<text text-anchor="start" x="164" y="-322.5" font-family="Helvetica,sans-Serif" font-size="10.00">/jenkins/jenlib_workspaces</text>
<text text-anchor="start" x="164" y="-310.5" font-family="Helvetica,sans-Serif" font-size="10.00">_f9/bld_nightly&#45;haldls.YmxkX25p</text>
<text text-anchor="start" x="164" y="-298.5" font-family="Helvetica,sans-Serif" font-size="10.00">Z2h0bHktaGFsZGxzIzQ5OA.x/haldls</text>
<text text-anchor="middle" x="245.96" y="-286.5" font-family="Helvetica,sans-Serif" font-size="10.00">/include/haldls/v2/synapse.h</text>
</a>
</g>
</g>
<!-- Node11 -->
<g id="node2" class="node">
<title>Node11</title>
<g id="a_node2"><a xlink:href="v2_2fpga_8h.html" target="_top" xlink:title=" ">
<polygon fill="white" stroke="black" points="0,-186.5 0,-242.5 179.92,-242.5 179.92,-186.5 0,-186.5"/>
<text text-anchor="start" x="8" y="-229.5" font-family="Helvetica,sans-Serif" font-size="10.00">/jenkins/jenlib_workspaces</text>
<text text-anchor="start" x="8" y="-217.5" font-family="Helvetica,sans-Serif" font-size="10.00">_f9/bld_nightly&#45;haldls.YmxkX25p</text>
<text text-anchor="start" x="8" y="-205.5" font-family="Helvetica,sans-Serif" font-size="10.00">Z2h0bHktaGFsZGxzIzQ5OA.x/haldls</text>
<text text-anchor="middle" x="89.96" y="-193.5" font-family="Helvetica,sans-Serif" font-size="10.00">/include/haldls/v2/fpga.h</text>
</a>
</g>
</g>
<!-- Node10&#45;&gt;Node11 -->
<g id="edge1" class="edge">
<title>Node10&#45;&gt;Node11</title>
<path fill="none" stroke="midnightblue" d="M190.5,-274.15C172.81,-263.83 153.42,-252.52 136.43,-242.61"/>
<polygon fill="midnightblue" stroke="midnightblue" points="189.17,-277.43 199.58,-279.44 192.7,-271.38 189.17,-277.43"/>
</g>
<!-- Node12 -->
<g id="node3" class="node">
<title>Node12</title>
<g id="a_node3"><a xlink:href="board_8h.html" target="_top" xlink:title=" ">
<polygon fill="white" stroke="black" points="38,-93.5 38,-149.5 217.92,-149.5 217.92,-93.5 38,-93.5"/>
<text text-anchor="start" x="46" y="-136.5" font-family="Helvetica,sans-Serif" font-size="10.00">/jenkins/jenlib_workspaces</text>
<text text-anchor="start" x="46" y="-124.5" font-family="Helvetica,sans-Serif" font-size="10.00">_f9/bld_nightly&#45;haldls.YmxkX25p</text>
<text text-anchor="start" x="46" y="-112.5" font-family="Helvetica,sans-Serif" font-size="10.00">Z2h0bHktaGFsZGxzIzQ5OA.x/haldls</text>
<text text-anchor="middle" x="127.96" y="-100.5" font-family="Helvetica,sans-Serif" font-size="10.00">/include/haldls/v2/board.h</text>
</a>
</g>
</g>
<!-- Node10&#45;&gt;Node12 -->
<g id="edge4" class="edge">
<title>Node10&#45;&gt;Node12</title>
<path fill="none" stroke="midnightblue" d="M232.28,-269.9C222.17,-245.12 207.05,-212.24 188.96,-186 180.02,-173.04 168.4,-160.23 157.7,-149.54"/>
<polygon fill="midnightblue" stroke="midnightblue" points="229.08,-271.32 236.04,-279.31 235.58,-268.73 229.08,-271.32"/>
</g>
<!-- Node13 -->
<g id="node4" class="node">
<title>Node13</title>
<g id="a_node4"><a xlink:href="v2_2container_8h.html" target="_top" xlink:title=" ">
<polygon fill="white" stroke="black" points="215,-0.5 215,-56.5 394.92,-56.5 394.92,-0.5 215,-0.5"/>
<text text-anchor="start" x="223" y="-43.5" font-family="Helvetica,sans-Serif" font-size="10.00">/jenkins/jenlib_workspaces</text>
<text text-anchor="start" x="223" y="-31.5" font-family="Helvetica,sans-Serif" font-size="10.00">_f9/bld_nightly&#45;haldls.YmxkX25p</text>
<text text-anchor="start" x="223" y="-19.5" font-family="Helvetica,sans-Serif" font-size="10.00">Z2h0bHktaGFsZGxzIzQ5OA.x/haldls</text>
<text text-anchor="middle" x="304.96" y="-7.5" font-family="Helvetica,sans-Serif" font-size="10.00">/include/haldls/v2/container.h</text>
</a>
</g>
</g>
<!-- Node10&#45;&gt;Node13 -->
<g id="edge12" class="edge">
<title>Node10&#45;&gt;Node13</title>
<path fill="none" stroke="midnightblue" d="M250.94,-269.03C254.34,-245.17 259.26,-213.64 264.96,-186 274.39,-140.27 288.47,-87.82 297.17,-56.74"/>
<polygon fill="midnightblue" stroke="midnightblue" points="247.45,-268.7 249.53,-279.09 254.39,-269.67 247.45,-268.7"/>
</g>
<!-- Node14 -->
<g id="node5" class="node">
<title>Node14</title>
<g id="a_node5"><a xlink:href="chip_8h.html" target="_top" xlink:title=" ">
<polygon fill="white" stroke="black" points="274,-186.5 274,-242.5 453.92,-242.5 453.92,-186.5 274,-186.5"/>
<text text-anchor="start" x="282" y="-229.5" font-family="Helvetica,sans-Serif" font-size="10.00">/jenkins/jenlib_workspaces</text>
<text text-anchor="start" x="282" y="-217.5" font-family="Helvetica,sans-Serif" font-size="10.00">_f9/bld_nightly&#45;haldls.YmxkX25p</text>
<text text-anchor="start" x="282" y="-205.5" font-family="Helvetica,sans-Serif" font-size="10.00">Z2h0bHktaGFsZGxzIzQ5OA.x/haldls</text>
<text text-anchor="middle" x="363.96" y="-193.5" font-family="Helvetica,sans-Serif" font-size="10.00">/include/haldls/v2/chip.h</text>
</a>
</g>
</g>
<!-- Node10&#45;&gt;Node14 -->
<g id="edge5" class="edge">
<title>Node10&#45;&gt;Node14</title>
<path fill="none" stroke="midnightblue" d="M289.02,-273.29C302.1,-263.21 316.31,-252.25 328.81,-242.61"/>
<polygon fill="midnightblue" stroke="midnightblue" points="286.82,-270.56 281.04,-279.44 291.1,-276.11 286.82,-270.56"/>
</g>
<!-- Node16 -->
<g id="node7" class="node">
<title>Node16</title>
<g id="a_node7"><a xlink:href="spike_8h.html" target="_top" xlink:title=" ">
<polygon fill="white" stroke="black" points="472,-186.5 472,-242.5 651.92,-242.5 651.92,-186.5 472,-186.5"/>
<text text-anchor="start" x="480" y="-229.5" font-family="Helvetica,sans-Serif" font-size="10.00">/jenkins/jenlib_workspaces</text>
<text text-anchor="start" x="480" y="-217.5" font-family="Helvetica,sans-Serif" font-size="10.00">_f9/bld_nightly&#45;haldls.YmxkX25p</text>
<text text-anchor="start" x="480" y="-205.5" font-family="Helvetica,sans-Serif" font-size="10.00">Z2h0bHktaGFsZGxzIzQ5OA.x/haldls</text>
<text text-anchor="middle" x="561.96" y="-193.5" font-family="Helvetica,sans-Serif" font-size="10.00">/include/haldls/v2/spike.h</text>
</a>
</g>
</g>
<!-- Node10&#45;&gt;Node16 -->
<g id="edge9" class="edge">
<title>Node10&#45;&gt;Node16</title>
<path fill="none" stroke="midnightblue" d="M345.7,-277.78C386.17,-266.12 432.57,-252.76 471.98,-241.41"/>
<polygon fill="midnightblue" stroke="midnightblue" points="344.73,-274.41 336.09,-280.54 346.67,-281.14 344.73,-274.41"/>
</g>
<!-- Node11&#45;&gt;Node12 -->
<g id="edge2" class="edge">
<title>Node11&#45;&gt;Node12</title>
<path fill="none" stroke="midnightblue" d="M105.33,-176.69C109.08,-167.7 113.03,-158.24 116.56,-149.78"/>
<polygon fill="midnightblue" stroke="midnightblue" points="101.98,-175.62 101.36,-186.2 108.44,-178.32 101.98,-175.62"/>
</g>
<!-- Node12&#45;&gt;Node13 -->
<g id="edge3" class="edge">
<title>Node12&#45;&gt;Node13</title>
<path fill="none" stroke="midnightblue" d="M189.5,-88.86C209.95,-78.35 232.51,-66.75 252.23,-56.61"/>
<polygon fill="midnightblue" stroke="midnightblue" points="187.88,-85.76 180.58,-93.44 191.08,-91.98 187.88,-85.76"/>
</g>
<!-- Node14&#45;&gt;Node13 -->
<g id="edge6" class="edge">
<title>Node14&#45;&gt;Node13</title>
<path fill="none" stroke="midnightblue" d="M338.02,-177.89C332.64,-169.13 327.53,-159.51 323.96,-150 312.42,-119.27 307.89,-81.58 306.11,-56.62"/>
<polygon fill="midnightblue" stroke="midnightblue" points="335.09,-179.81 343.44,-186.34 340.98,-176.03 335.09,-179.81"/>
</g>
<!-- Node15 -->
<g id="node6" class="node">
<title>Node15</title>
<g id="a_node6"><a xlink:href="playback_8h.html" target="_top" xlink:title=" ">
<polygon fill="white" stroke="black" points="333,-93.5 333,-149.5 512.92,-149.5 512.92,-93.5 333,-93.5"/>
<text text-anchor="start" x="341" y="-136.5" font-family="Helvetica,sans-Serif" font-size="10.00">/jenkins/jenlib_workspaces</text>
<text text-anchor="start" x="341" y="-124.5" font-family="Helvetica,sans-Serif" font-size="10.00">_f9/bld_nightly&#45;haldls.YmxkX25p</text>
<text text-anchor="start" x="341" y="-112.5" font-family="Helvetica,sans-Serif" font-size="10.00">Z2h0bHktaGFsZGxzIzQ5OA.x/haldls</text>
<text text-anchor="middle" x="422.96" y="-100.5" font-family="Helvetica,sans-Serif" font-size="10.00">/include/haldls/v2/playback.h</text>
</a>
</g>
</g>
<!-- Node14&#45;&gt;Node15 -->
<g id="edge7" class="edge">
<title>Node14&#45;&gt;Node15</title>
<path fill="none" stroke="midnightblue" d="M387.26,-177.55C393.26,-168.31 399.61,-158.51 405.27,-149.78"/>
<polygon fill="midnightblue" stroke="midnightblue" points="384.16,-175.9 381.66,-186.2 390.04,-179.71 384.16,-175.9"/>
</g>
<!-- Node15&#45;&gt;Node13 -->
<g id="edge8" class="edge">
<title>Node15&#45;&gt;Node13</title>
<path fill="none" stroke="midnightblue" d="M379.9,-87.29C366.82,-77.21 352.61,-66.25 340.11,-56.61"/>
<polygon fill="midnightblue" stroke="midnightblue" points="377.82,-90.11 387.87,-93.44 382.09,-84.56 377.82,-90.11"/>
</g>
<!-- Node16&#45;&gt;Node13 -->
<g id="edge11" class="edge">
<title>Node16&#45;&gt;Node13</title>
<path fill="none" stroke="midnightblue" d="M558.68,-176.35C554.41,-149.71 544.57,-114.82 521.96,-93 488.13,-60.36 438.47,-44.36 395.19,-36.58"/>
<polygon fill="midnightblue" stroke="midnightblue" points="555.24,-177.05 560.1,-186.47 562.18,-176.08 555.24,-177.05"/>
</g>
<!-- Node16&#45;&gt;Node15 -->
<g id="edge10" class="edge">
<title>Node16&#45;&gt;Node15</title>
<path fill="none" stroke="midnightblue" d="M512.11,-180.86C496.46,-170.62 479.36,-159.43 464.37,-149.61"/>
<polygon fill="midnightblue" stroke="midnightblue" points="510.35,-183.89 520.63,-186.44 514.18,-178.04 510.35,-183.89"/>
</g>
</g>
</svg>
