<?xml version="1.0" encoding="UTF-8" standalone="no"?>
<!DOCTYPE svg PUBLIC "-//W3C//DTD SVG 1.1//EN"
 "http://www.w3.org/Graphics/SVG/1.1/DTD/svg11.dtd">
<!-- Generated by graphviz version 2.43.0 (0)
 -->
<!-- Title: /jenkins/jenlib_workspaces_f9/bld_nightly&#45;haldls.YmxkX25pZ2h0bHktaGFsZGxzIzQ5OA.x/haldls/include/haldls/v2/genpybind.h Pages: 1 -->
<svg width="1910pt" height="437pt"
 viewBox="0.00 0.00 1909.92 437.00" xmlns="http://www.w3.org/2000/svg" xmlns:xlink="http://www.w3.org/1999/xlink">
<g id="graph0" class="graph" transform="scale(1 1) rotate(0) translate(4 433)">
<title>/jenkins/jenlib_workspaces_f9/bld_nightly&#45;haldls.YmxkX25pZ2h0bHktaGFsZGxzIzQ5OA.x/haldls/include/haldls/v2/genpybind.h</title>
<polygon fill="white" stroke="transparent" points="-4,4 -4,-433 1905.92,-433 1905.92,4 -4,4"/>
<!-- Node1 -->
<g id="node1" class="node">
<title>Node1</title>
<g id="a_node1"><a xlink:title=" ">
<polygon fill="#bfbfbf" stroke="black" points="635,-372.5 635,-428.5 814.92,-428.5 814.92,-372.5 635,-372.5"/>
<text text-anchor="start" x="643" y="-415.5" font-family="Helvetica,sans-Serif" font-size="10.00">/jenkins/jenlib_workspaces</text>
<text text-anchor="start" x="643" y="-403.5" font-family="Helvetica,sans-Serif" font-size="10.00">_f9/bld_nightly&#45;haldls.YmxkX25p</text>
<text text-anchor="start" x="643" y="-391.5" font-family="Helvetica,sans-Serif" font-size="10.00">Z2h0bHktaGFsZGxzIzQ5OA.x/haldls</text>
<text text-anchor="middle" x="724.96" y="-379.5" font-family="Helvetica,sans-Serif" font-size="10.00">/include/haldls/v2/genpybind.h</text>
</a>
</g>
</g>
<!-- Node1&#45;&gt;Node1 -->
<g id="edge5" class="edge">
<title>Node1&#45;&gt;Node1</title>
<path fill="none" stroke="midnightblue" d="M824.77,-411.75C829.89,-408.97 832.92,-405.22 832.92,-400.5 832.92,-393.31 825.89,-388.37 815.13,-385.68"/>
<polygon fill="midnightblue" stroke="midnightblue" points="823.28,-408.57 815.13,-415.32 825.72,-415.13 823.28,-408.57"/>
</g>
<!-- Node2 -->
<g id="node2" class="node">
<title>Node2</title>
<g id="a_node2"><a xlink:href="dac_8h.html" target="_top" xlink:title=" ">
<polygon fill="white" stroke="black" points="0,-186.5 0,-242.5 179.92,-242.5 179.92,-186.5 0,-186.5"/>
<text text-anchor="start" x="8" y="-229.5" font-family="Helvetica,sans-Serif" font-size="10.00">/jenkins/jenlib_workspaces</text>
<text text-anchor="start" x="8" y="-217.5" font-family="Helvetica,sans-Serif" font-size="10.00">_f9/bld_nightly&#45;haldls.YmxkX25p</text>
<text text-anchor="start" x="8" y="-205.5" font-family="Helvetica,sans-Serif" font-size="10.00">Z2h0bHktaGFsZGxzIzQ5OA.x/haldls</text>
<text text-anchor="middle" x="89.96" y="-193.5" font-family="Helvetica,sans-Serif" font-size="10.00">/include/haldls/v2/dac.h</text>
</a>
</g>
</g>
<!-- Node1&#45;&gt;Node2 -->
<g id="edge1" class="edge">
<title>Node1&#45;&gt;Node2</title>
<path fill="none" stroke="midnightblue" d="M624.67,-396.09C491.98,-390.13 266.41,-374.54 193.96,-336 153.95,-314.72 122.52,-271.25 105.1,-242.76"/>
<polygon fill="midnightblue" stroke="midnightblue" points="624.71,-399.6 634.85,-396.54 625.01,-392.6 624.71,-399.6"/>
</g>
<!-- Node3 -->
<g id="node3" class="node">
<title>Node3</title>
<g id="a_node3"><a xlink:href="board_8h.html" target="_top" xlink:title=" ">
<polygon fill="white" stroke="black" points="236,-93.5 236,-149.5 415.92,-149.5 415.92,-93.5 236,-93.5"/>
<text text-anchor="start" x="244" y="-136.5" font-family="Helvetica,sans-Serif" font-size="10.00">/jenkins/jenlib_workspaces</text>
<text text-anchor="start" x="244" y="-124.5" font-family="Helvetica,sans-Serif" font-size="10.00">_f9/bld_nightly&#45;haldls.YmxkX25p</text>
<text text-anchor="start" x="244" y="-112.5" font-family="Helvetica,sans-Serif" font-size="10.00">Z2h0bHktaGFsZGxzIzQ5OA.x/haldls</text>
<text text-anchor="middle" x="325.96" y="-100.5" font-family="Helvetica,sans-Serif" font-size="10.00">/include/haldls/v2/board.h</text>
</a>
</g>
</g>
<!-- Node1&#45;&gt;Node3 -->
<g id="edge19" class="edge">
<title>Node1&#45;&gt;Node3</title>
<path fill="none" stroke="midnightblue" d="M624.52,-397.69C543.55,-392.85 428.5,-378.21 336.96,-336 261.88,-301.38 187.31,-258.54 226.96,-186 235.18,-170.95 248.67,-158.94 263.08,-149.59"/>
<polygon fill="midnightblue" stroke="midnightblue" points="624.54,-401.19 634.72,-398.25 624.93,-394.2 624.54,-401.19"/>
</g>
<!-- Node4 -->
<g id="node4" class="node">
<title>Node4</title>
<g id="a_node4"><a xlink:href="v2_2container_8h.html" target="_top" xlink:title=" ">
<polygon fill="white" stroke="black" points="784,-0.5 784,-56.5 963.92,-56.5 963.92,-0.5 784,-0.5"/>
<text text-anchor="start" x="792" y="-43.5" font-family="Helvetica,sans-Serif" font-size="10.00">/jenkins/jenlib_workspaces</text>
<text text-anchor="start" x="792" y="-31.5" font-family="Helvetica,sans-Serif" font-size="10.00">_f9/bld_nightly&#45;haldls.YmxkX25p</text>
<text text-anchor="start" x="792" y="-19.5" font-family="Helvetica,sans-Serif" font-size="10.00">Z2h0bHktaGFsZGxzIzQ5OA.x/haldls</text>
<text text-anchor="middle" x="873.96" y="-7.5" font-family="Helvetica,sans-Serif" font-size="10.00">/include/haldls/v2/container.h</text>
</a>
</g>
</g>
<!-- Node1&#45;&gt;Node4 -->
<g id="edge39" class="edge">
<title>Node1&#45;&gt;Node4</title>
<path fill="none" stroke="midnightblue" d="M624.46,-392.74C543.07,-384.92 437.68,-368.67 410.96,-336 394.92,-316.39 402.68,-302.94 410.96,-279 428.12,-229.34 512.2,-120.53 556.96,-93 625.56,-50.8 716.86,-35.96 783.85,-31.06"/>
<polygon fill="midnightblue" stroke="midnightblue" points="624.48,-396.25 634.76,-393.69 625.13,-389.28 624.48,-396.25"/>
</g>
<!-- Node5 -->
<g id="node5" class="node">
<title>Node5</title>
<g id="a_node5"><a xlink:href="v2_2fpga_8h.html" target="_top" xlink:title=" ">
<polygon fill="white" stroke="black" points="236,-186.5 236,-242.5 415.92,-242.5 415.92,-186.5 236,-186.5"/>
<text text-anchor="start" x="244" y="-229.5" font-family="Helvetica,sans-Serif" font-size="10.00">/jenkins/jenlib_workspaces</text>
<text text-anchor="start" x="244" y="-217.5" font-family="Helvetica,sans-Serif" font-size="10.00">_f9/bld_nightly&#45;haldls.YmxkX25p</text>
<text text-anchor="start" x="244" y="-205.5" font-family="Helvetica,sans-Serif" font-size="10.00">Z2h0bHktaGFsZGxzIzQ5OA.x/haldls</text>
<text text-anchor="middle" x="325.96" y="-193.5" font-family="Helvetica,sans-Serif" font-size="10.00">/include/haldls/v2/fpga.h</text>
</a>
</g>
</g>
<!-- Node1&#45;&gt;Node5 -->
<g id="edge6" class="edge">
<title>Node1&#45;&gt;Node5</title>
<path fill="none" stroke="midnightblue" d="M624.57,-391.62C536,-382.82 415.33,-365.74 377.96,-336 348.99,-312.94 335.84,-270.61 330.11,-242.75"/>
<polygon fill="midnightblue" stroke="midnightblue" points="624.37,-395.11 634.66,-392.6 625.05,-388.15 624.37,-395.11"/>
</g>
<!-- Node6 -->
<g id="node6" class="node">
<title>Node6</title>
<g id="a_node6"><a xlink:href="v2_2synapse_8h.html" target="_top" xlink:title=" ">
<polygon fill="white" stroke="black" points="420,-279.5 420,-335.5 599.92,-335.5 599.92,-279.5 420,-279.5"/>
<text text-anchor="start" x="428" y="-322.5" font-family="Helvetica,sans-Serif" font-size="10.00">/jenkins/jenlib_workspaces</text>
<text text-anchor="start" x="428" y="-310.5" font-family="Helvetica,sans-Serif" font-size="10.00">_f9/bld_nightly&#45;haldls.YmxkX25p</text>
<text text-anchor="start" x="428" y="-298.5" font-family="Helvetica,sans-Serif" font-size="10.00">Z2h0bHktaGFsZGxzIzQ5OA.x/haldls</text>
<text text-anchor="middle" x="509.96" y="-286.5" font-family="Helvetica,sans-Serif" font-size="10.00">/include/haldls/v2/synapse.h</text>
</a>
</g>
</g>
<!-- Node1&#45;&gt;Node6 -->
<g id="edge8" class="edge">
<title>Node1&#45;&gt;Node6</title>
<path fill="none" stroke="midnightblue" d="M651.53,-368.42C626.35,-357.76 598.39,-345.93 574.01,-335.61"/>
<polygon fill="midnightblue" stroke="midnightblue" points="650.46,-371.77 661.03,-372.44 653.19,-365.32 650.46,-371.77"/>
</g>
<!-- Node7 -->
<g id="node7" class="node">
<title>Node7</title>
<g id="a_node7"><a xlink:href="chip_8h.html" target="_top" xlink:title=" ">
<polygon fill="white" stroke="black" points="968,-186.5 968,-242.5 1147.92,-242.5 1147.92,-186.5 968,-186.5"/>
<text text-anchor="start" x="976" y="-229.5" font-family="Helvetica,sans-Serif" font-size="10.00">/jenkins/jenlib_workspaces</text>
<text text-anchor="start" x="976" y="-217.5" font-family="Helvetica,sans-Serif" font-size="10.00">_f9/bld_nightly&#45;haldls.YmxkX25p</text>
<text text-anchor="start" x="976" y="-205.5" font-family="Helvetica,sans-Serif" font-size="10.00">Z2h0bHktaGFsZGxzIzQ5OA.x/haldls</text>
<text text-anchor="middle" x="1057.96" y="-193.5" font-family="Helvetica,sans-Serif" font-size="10.00">/include/haldls/v2/chip.h</text>
</a>
</g>
</g>
<!-- Node1&#45;&gt;Node7 -->
<g id="edge26" class="edge">
<title>Node1&#45;&gt;Node7</title>
<path fill="none" stroke="midnightblue" d="M825.4,-395.56C919.02,-389.53 1048.87,-374.31 1080.96,-336 1102.84,-309.87 1088.38,-269.34 1074.47,-242.61"/>
<polygon fill="midnightblue" stroke="midnightblue" points="825.09,-392.08 815.32,-396.19 825.52,-399.06 825.09,-392.08"/>
</g>
<!-- Node8 -->
<g id="node8" class="node">
<title>Node8</title>
<g id="a_node8"><a xlink:href="playback_8h.html" target="_top" xlink:title=" ">
<polygon fill="white" stroke="black" points="666,-93.5 666,-149.5 845.92,-149.5 845.92,-93.5 666,-93.5"/>
<text text-anchor="start" x="674" y="-136.5" font-family="Helvetica,sans-Serif" font-size="10.00">/jenkins/jenlib_workspaces</text>
<text text-anchor="start" x="674" y="-124.5" font-family="Helvetica,sans-Serif" font-size="10.00">_f9/bld_nightly&#45;haldls.YmxkX25p</text>
<text text-anchor="start" x="674" y="-112.5" font-family="Helvetica,sans-Serif" font-size="10.00">Z2h0bHktaGFsZGxzIzQ5OA.x/haldls</text>
<text text-anchor="middle" x="755.96" y="-100.5" font-family="Helvetica,sans-Serif" font-size="10.00">/include/haldls/v2/playback.h</text>
</a>
</g>
</g>
<!-- Node1&#45;&gt;Node8 -->
<g id="edge40" class="edge">
<title>Node1&#45;&gt;Node8</title>
<path fill="none" stroke="midnightblue" d="M698.31,-363.5C683.58,-338.88 670.84,-305.95 684.96,-279 698,-254.1 722.01,-266.8 736.96,-243 754.64,-214.84 757.78,-175.9 757.57,-149.99"/>
<polygon fill="midnightblue" stroke="midnightblue" points="695.49,-365.58 703.79,-372.16 701.41,-361.84 695.49,-365.58"/>
</g>
<!-- Node9 -->
<g id="node9" class="node">
<title>Node9</title>
<g id="a_node9"><a xlink:href="spike_8h.html" target="_top" xlink:title=" ">
<polygon fill="white" stroke="black" points="548,-186.5 548,-242.5 727.92,-242.5 727.92,-186.5 548,-186.5"/>
<text text-anchor="start" x="556" y="-229.5" font-family="Helvetica,sans-Serif" font-size="10.00">/jenkins/jenlib_workspaces</text>
<text text-anchor="start" x="556" y="-217.5" font-family="Helvetica,sans-Serif" font-size="10.00">_f9/bld_nightly&#45;haldls.YmxkX25p</text>
<text text-anchor="start" x="556" y="-205.5" font-family="Helvetica,sans-Serif" font-size="10.00">Z2h0bHktaGFsZGxzIzQ5OA.x/haldls</text>
<text text-anchor="middle" x="637.96" y="-193.5" font-family="Helvetica,sans-Serif" font-size="10.00">/include/haldls/v2/spike.h</text>
</a>
</g>
</g>
<!-- Node1&#45;&gt;Node9 -->
<g id="edge41" class="edge">
<title>Node1&#45;&gt;Node9</title>
<path fill="none" stroke="midnightblue" d="M675.88,-365.86C666.52,-357.2 657.83,-347.14 651.96,-336 636.53,-306.75 634.76,-268.06 635.7,-242.5"/>
<polygon fill="midnightblue" stroke="midnightblue" points="673.65,-368.55 683.49,-372.49 678.25,-363.28 673.65,-368.55"/>
</g>
<!-- Node10 -->
<g id="node10" class="node">
<title>Node10</title>
<g id="a_node10"><a xlink:href="v2_2capmem_8h.html" target="_top" xlink:title=" ">
<polygon fill="white" stroke="black" points="694,-279.5 694,-335.5 873.92,-335.5 873.92,-279.5 694,-279.5"/>
<text text-anchor="start" x="702" y="-322.5" font-family="Helvetica,sans-Serif" font-size="10.00">/jenkins/jenlib_workspaces</text>
<text text-anchor="start" x="702" y="-310.5" font-family="Helvetica,sans-Serif" font-size="10.00">_f9/bld_nightly&#45;haldls.YmxkX25p</text>
<text text-anchor="start" x="702" y="-298.5" font-family="Helvetica,sans-Serif" font-size="10.00">Z2h0bHktaGFsZGxzIzQ5OA.x/haldls</text>
<text text-anchor="middle" x="783.96" y="-286.5" font-family="Helvetica,sans-Serif" font-size="10.00">/include/haldls/v2/capmem.h</text>
</a>
</g>
</g>
<!-- Node1&#45;&gt;Node10 -->
<g id="edge20" class="edge">
<title>Node1&#45;&gt;Node10</title>
<path fill="none" stroke="midnightblue" d="M748.26,-363.55C754.26,-354.31 760.61,-344.51 766.27,-335.78"/>
<polygon fill="midnightblue" stroke="midnightblue" points="745.16,-361.9 742.66,-372.2 751.04,-365.71 745.16,-361.9"/>
</g>
<!-- Node11 -->
<g id="node11" class="node">
<title>Node11</title>
<g id="a_node11"><a xlink:href="v2_2correlation_8h.html" target="_top" xlink:title=" ">
<polygon fill="white" stroke="black" points="892,-279.5 892,-335.5 1071.92,-335.5 1071.92,-279.5 892,-279.5"/>
<text text-anchor="start" x="900" y="-322.5" font-family="Helvetica,sans-Serif" font-size="10.00">/jenkins/jenlib_workspaces</text>
<text text-anchor="start" x="900" y="-310.5" font-family="Helvetica,sans-Serif" font-size="10.00">_f9/bld_nightly&#45;haldls.YmxkX25p</text>
<text text-anchor="start" x="900" y="-298.5" font-family="Helvetica,sans-Serif" font-size="10.00">Z2h0bHktaGFsZGxzIzQ5OA.x/haldls</text>
<text text-anchor="middle" x="981.96" y="-286.5" font-family="Helvetica,sans-Serif" font-size="10.00">/include/haldls/v2/correlation.h</text>
</a>
</g>
</g>
<!-- Node1&#45;&gt;Node11 -->
<g id="edge23" class="edge">
<title>Node1&#45;&gt;Node11</title>
<path fill="none" stroke="midnightblue" d="M811.14,-368.98C841.65,-358.18 875.74,-346.11 905.4,-335.61"/>
<polygon fill="midnightblue" stroke="midnightblue" points="809.63,-365.81 801.37,-372.44 811.97,-372.4 809.63,-365.81"/>
</g>
<!-- Node12 -->
<g id="node12" class="node">
<title>Node12</title>
<g id="a_node12"><a xlink:href="v2_2neuron_8h.html" target="_top" xlink:title=" ">
<polygon fill="white" stroke="black" points="1128,-279.5 1128,-335.5 1307.92,-335.5 1307.92,-279.5 1128,-279.5"/>
<text text-anchor="start" x="1136" y="-322.5" font-family="Helvetica,sans-Serif" font-size="10.00">/jenkins/jenlib_workspaces</text>
<text text-anchor="start" x="1136" y="-310.5" font-family="Helvetica,sans-Serif" font-size="10.00">_f9/bld_nightly&#45;haldls.YmxkX25p</text>
<text text-anchor="start" x="1136" y="-298.5" font-family="Helvetica,sans-Serif" font-size="10.00">Z2h0bHktaGFsZGxzIzQ5OA.x/haldls</text>
<text text-anchor="middle" x="1217.96" y="-286.5" font-family="Helvetica,sans-Serif" font-size="10.00">/include/haldls/v2/neuron.h</text>
</a>
</g>
</g>
<!-- Node1&#45;&gt;Node12 -->
<g id="edge27" class="edge">
<title>Node1&#45;&gt;Node12</title>
<path fill="none" stroke="midnightblue" d="M824.96,-385.89C903.83,-374.51 1016.41,-356.81 1113.96,-336 1118.52,-335.03 1123.19,-333.98 1127.89,-332.89"/>
<polygon fill="midnightblue" stroke="midnightblue" points="824.43,-382.43 815.03,-387.32 825.43,-389.36 824.43,-382.43"/>
</g>
<!-- Node13 -->
<g id="node13" class="node">
<title>Node13</title>
<g id="a_node13"><a xlink:href="v2_2ppu_8h.html" target="_top" xlink:title=" ">
<polygon fill="white" stroke="black" points="1326,-279.5 1326,-335.5 1505.92,-335.5 1505.92,-279.5 1326,-279.5"/>
<text text-anchor="start" x="1334" y="-322.5" font-family="Helvetica,sans-Serif" font-size="10.00">/jenkins/jenlib_workspaces</text>
<text text-anchor="start" x="1334" y="-310.5" font-family="Helvetica,sans-Serif" font-size="10.00">_f9/bld_nightly&#45;haldls.YmxkX25p</text>
<text text-anchor="start" x="1334" y="-298.5" font-family="Helvetica,sans-Serif" font-size="10.00">Z2h0bHktaGFsZGxzIzQ5OA.x/haldls</text>
<text text-anchor="middle" x="1415.96" y="-286.5" font-family="Helvetica,sans-Serif" font-size="10.00">/include/haldls/v2/ppu.h</text>
</a>
</g>
</g>
<!-- Node1&#45;&gt;Node13 -->
<g id="edge30" class="edge">
<title>Node1&#45;&gt;Node13</title>
<path fill="none" stroke="midnightblue" d="M825.28,-393.77C943.62,-385.86 1145.92,-368.7 1316.96,-336 1319.94,-335.43 1322.96,-334.82 1326,-334.16"/>
<polygon fill="midnightblue" stroke="midnightblue" points="824.89,-390.29 815.15,-394.44 825.36,-397.28 824.89,-390.29"/>
</g>
<!-- Node14 -->
<g id="node14" class="node">
<title>Node14</title>
<g id="a_node14"><a xlink:href="rate__counter_8h.html" target="_top" xlink:title=" ">
<polygon fill="white" stroke="black" points="1524,-279.5 1524,-335.5 1703.92,-335.5 1703.92,-279.5 1524,-279.5"/>
<text text-anchor="start" x="1532" y="-322.5" font-family="Helvetica,sans-Serif" font-size="10.00">/jenkins/jenlib_workspaces</text>
<text text-anchor="start" x="1532" y="-310.5" font-family="Helvetica,sans-Serif" font-size="10.00">_f9/bld_nightly&#45;haldls.YmxkX25p</text>
<text text-anchor="start" x="1532" y="-298.5" font-family="Helvetica,sans-Serif" font-size="10.00">Z2h0bHktaGFsZGxzIzQ5OA.x/haldls</text>
<text text-anchor="middle" x="1613.96" y="-286.5" font-family="Helvetica,sans-Serif" font-size="10.00">/include/haldls/v2/rate_counter.h</text>
</a>
</g>
</g>
<!-- Node1&#45;&gt;Node14 -->
<g id="edge33" class="edge">
<title>Node1&#45;&gt;Node14</title>
<path fill="none" stroke="midnightblue" d="M825.28,-397.55C976.07,-393.25 1269.62,-379.52 1514.96,-336 1517.86,-335.49 1520.79,-334.92 1523.75,-334.32"/>
<polygon fill="midnightblue" stroke="midnightblue" points="825.02,-394.06 815.12,-397.83 825.21,-401.05 825.02,-394.06"/>
</g>
<!-- Node15 -->
<g id="node15" class="node">
<title>Node15</title>
<g id="a_node15"><a xlink:href="synapsedriver_8h.html" target="_top" xlink:title=" ">
<polygon fill="white" stroke="black" points="1722,-279.5 1722,-335.5 1901.92,-335.5 1901.92,-279.5 1722,-279.5"/>
<text text-anchor="start" x="1730" y="-322.5" font-family="Helvetica,sans-Serif" font-size="10.00">/jenkins/jenlib_workspaces</text>
<text text-anchor="start" x="1730" y="-310.5" font-family="Helvetica,sans-Serif" font-size="10.00">_f9/bld_nightly&#45;haldls.YmxkX25p</text>
<text text-anchor="start" x="1730" y="-298.5" font-family="Helvetica,sans-Serif" font-size="10.00">Z2h0bHktaGFsZGxzIzQ5OA.x/haldls</text>
<text text-anchor="middle" x="1811.96" y="-286.5" font-family="Helvetica,sans-Serif" font-size="10.00">/include/haldls/v2/synapsedriver.h</text>
</a>
</g>
</g>
<!-- Node1&#45;&gt;Node15 -->
<g id="edge36" class="edge">
<title>Node1&#45;&gt;Node15</title>
<path fill="none" stroke="midnightblue" d="M825.46,-399.87C1004.95,-399.01 1391.89,-390.31 1712.96,-336 1715.86,-335.51 1718.8,-334.97 1721.76,-334.38"/>
<polygon fill="midnightblue" stroke="midnightblue" points="825.23,-396.37 815.25,-399.91 825.26,-403.37 825.23,-396.37"/>
</g>
<!-- Node2&#45;&gt;Node3 -->
<g id="edge2" class="edge">
<title>Node2&#45;&gt;Node3</title>
<path fill="none" stroke="midnightblue" d="M169.46,-182.84C197.39,-172.08 228.54,-160.06 255.65,-149.61"/>
<polygon fill="midnightblue" stroke="midnightblue" points="168.2,-179.58 160.13,-186.44 170.72,-186.11 168.2,-179.58"/>
</g>
<!-- Node2&#45;&gt;Node4 -->
<g id="edge4" class="edge">
<title>Node2&#45;&gt;Node4</title>
<path fill="none" stroke="midnightblue" d="M118.37,-178.57C143.64,-150.23 183.27,-111.97 226.96,-93 324.66,-50.58 630.01,-36.19 783.7,-31.56"/>
<polygon fill="midnightblue" stroke="midnightblue" points="115.58,-176.44 111.63,-186.28 120.85,-181.05 115.58,-176.44"/>
</g>
<!-- Node3&#45;&gt;Node4 -->
<g id="edge3" class="edge">
<title>Node3&#45;&gt;Node4</title>
<path fill="none" stroke="midnightblue" d="M426.08,-93.8C427.38,-93.53 428.67,-93.26 429.96,-93 551.48,-68.33 693.63,-49.78 783.71,-39.28"/>
<polygon fill="midnightblue" stroke="midnightblue" points="425.02,-90.45 416,-96 426.52,-97.29 425.02,-90.45"/>
</g>
<!-- Node5&#45;&gt;Node3 -->
<g id="edge7" class="edge">
<title>Node5&#45;&gt;Node3</title>
<path fill="none" stroke="midnightblue" d="M325.96,-176.12C325.96,-167.3 325.96,-158.06 325.96,-149.78"/>
<polygon fill="midnightblue" stroke="midnightblue" points="322.46,-176.2 325.96,-186.2 329.46,-176.2 322.46,-176.2"/>
</g>
<!-- Node6&#45;&gt;Node3 -->
<g id="edge10" class="edge">
<title>Node6&#45;&gt;Node3</title>
<path fill="none" stroke="midnightblue" d="M489.81,-270.69C474.29,-245.14 451.1,-211.02 424.96,-186 410.57,-172.24 392.79,-159.74 376.27,-149.55"/>
<polygon fill="midnightblue" stroke="midnightblue" points="486.84,-272.55 494.97,-279.34 492.85,-268.96 486.84,-272.55"/>
</g>
<!-- Node6&#45;&gt;Node4 -->
<g id="edge18" class="edge">
<title>Node6&#45;&gt;Node4</title>
<path fill="none" stroke="midnightblue" d="M513.67,-269.02C517.37,-244.22 524.67,-211.66 538.96,-186 567.24,-135.2 580.6,-122.05 630.96,-93 677.7,-66.04 736.03,-50.3 783.83,-41.24"/>
<polygon fill="midnightblue" stroke="midnightblue" points="510.18,-268.75 512.3,-279.13 517.12,-269.69 510.18,-268.75"/>
</g>
<!-- Node6&#45;&gt;Node5 -->
<g id="edge9" class="edge">
<title>Node6&#45;&gt;Node5</title>
<path fill="none" stroke="midnightblue" d="M446.26,-275C424.94,-264.45 401.36,-252.79 380.77,-242.61"/>
<polygon fill="midnightblue" stroke="midnightblue" points="444.73,-278.15 455.25,-279.44 447.84,-271.87 444.73,-278.15"/>
</g>
<!-- Node6&#45;&gt;Node7 -->
<g id="edge11" class="edge">
<title>Node6&#45;&gt;Node7</title>
<path fill="none" stroke="midnightblue" d="M610.16,-289.86C712.29,-272.9 869.29,-246.83 967.68,-230.49"/>
<polygon fill="midnightblue" stroke="midnightblue" points="609.43,-286.43 600.14,-291.52 610.58,-293.34 609.43,-286.43"/>
</g>
<!-- Node6&#45;&gt;Node9 -->
<g id="edge15" class="edge">
<title>Node6&#45;&gt;Node9</title>
<path fill="none" stroke="midnightblue" d="M556.26,-273.58C570.56,-263.41 586.14,-252.34 599.83,-242.61"/>
<polygon fill="midnightblue" stroke="midnightblue" points="554.14,-270.8 548.02,-279.44 558.19,-276.5 554.14,-270.8"/>
</g>
<!-- Node7&#45;&gt;Node4 -->
<g id="edge12" class="edge">
<title>Node7&#45;&gt;Node4</title>
<path fill="none" stroke="midnightblue" d="M1025.33,-179.14C1002.07,-154.83 969.91,-121.6 940.96,-93 928.76,-80.95 915.05,-67.88 903.23,-56.75"/>
<polygon fill="midnightblue" stroke="midnightblue" points="1022.81,-181.57 1032.25,-186.39 1027.87,-176.74 1022.81,-181.57"/>
</g>
<!-- Node7&#45;&gt;Node8 -->
<g id="edge13" class="edge">
<title>Node7&#45;&gt;Node8</title>
<path fill="none" stroke="midnightblue" d="M958.52,-183.54C922.12,-172.57 881.17,-160.23 845.66,-149.53"/>
<polygon fill="midnightblue" stroke="midnightblue" points="957.58,-186.91 968.17,-186.44 959.6,-180.21 957.58,-186.91"/>
</g>
<!-- Node8&#45;&gt;Node4 -->
<g id="edge14" class="edge">
<title>Node8&#45;&gt;Node4</title>
<path fill="none" stroke="midnightblue" d="M799.02,-87.29C812.1,-77.21 826.31,-66.25 838.81,-56.61"/>
<polygon fill="midnightblue" stroke="midnightblue" points="796.82,-84.56 791.04,-93.44 801.1,-90.11 796.82,-84.56"/>
</g>
<!-- Node9&#45;&gt;Node4 -->
<g id="edge17" class="edge">
<title>Node9&#45;&gt;Node4</title>
<path fill="none" stroke="midnightblue" d="M634.09,-176.36C633.44,-150.04 637.14,-115.54 656.96,-93 688.58,-57.04 739.35,-40.93 783.83,-33.92"/>
<polygon fill="midnightblue" stroke="midnightblue" points="630.59,-176.53 634.55,-186.36 637.58,-176.21 630.59,-176.53"/>
</g>
<!-- Node9&#45;&gt;Node8 -->
<g id="edge16" class="edge">
<title>Node9&#45;&gt;Node8</title>
<path fill="none" stroke="midnightblue" d="M681.02,-180.29C694.1,-170.21 708.31,-159.25 720.81,-149.61"/>
<polygon fill="midnightblue" stroke="midnightblue" points="678.82,-177.56 673.04,-186.44 683.1,-183.11 678.82,-177.56"/>
</g>
<!-- Node10&#45;&gt;Node4 -->
<g id="edge22" class="edge">
<title>Node10&#45;&gt;Node4</title>
<path fill="none" stroke="midnightblue" d="M803.79,-270.27C819.95,-239.22 842.11,-192.87 854.96,-150 864.32,-118.76 869.29,-81.5 871.77,-56.77"/>
<polygon fill="midnightblue" stroke="midnightblue" points="800.55,-268.91 798.99,-279.39 806.75,-272.17 800.55,-268.91"/>
</g>
<!-- Node10&#45;&gt;Node7 -->
<g id="edge21" class="edge">
<title>Node10&#45;&gt;Node7</title>
<path fill="none" stroke="midnightblue" d="M875,-276.26C907.74,-265.39 944.44,-253.2 976.33,-242.61"/>
<polygon fill="midnightblue" stroke="midnightblue" points="873.81,-272.97 865.43,-279.44 876.02,-279.61 873.81,-272.97"/>
</g>
<!-- Node11&#45;&gt;Node4 -->
<g id="edge25" class="edge">
<title>Node11&#45;&gt;Node4</title>
<path fill="none" stroke="midnightblue" d="M967.67,-269.85C945.68,-213.46 904.06,-106.71 884.55,-56.67"/>
<polygon fill="midnightblue" stroke="midnightblue" points="964.51,-271.39 971.41,-279.44 971.03,-268.85 964.51,-271.39"/>
</g>
<!-- Node11&#45;&gt;Node7 -->
<g id="edge24" class="edge">
<title>Node11&#45;&gt;Node7</title>
<path fill="none" stroke="midnightblue" d="M1011.26,-271.41C1019.19,-261.91 1027.66,-251.78 1035.17,-242.78"/>
<polygon fill="midnightblue" stroke="midnightblue" points="1008.48,-269.28 1004.76,-279.2 1013.86,-273.77 1008.48,-269.28"/>
</g>
<!-- Node12&#45;&gt;Node4 -->
<g id="edge29" class="edge">
<title>Node12&#45;&gt;Node4</title>
<path fill="none" stroke="midnightblue" d="M1205.98,-269.8C1196.08,-243.93 1179.9,-209.8 1156.96,-186 1098.51,-125.37 1011.39,-82.06 949.27,-56.59"/>
<polygon fill="midnightblue" stroke="midnightblue" points="1202.73,-271.1 1209.47,-279.27 1209.29,-268.68 1202.73,-271.1"/>
</g>
<!-- Node12&#45;&gt;Node7 -->
<g id="edge28" class="edge">
<title>Node12&#45;&gt;Node7</title>
<path fill="none" stroke="midnightblue" d="M1161.58,-274.43C1143.29,-264.04 1123.21,-252.61 1105.62,-242.61"/>
<polygon fill="midnightblue" stroke="midnightblue" points="1159.96,-277.54 1170.39,-279.44 1163.42,-271.46 1159.96,-277.54"/>
</g>
<!-- Node13&#45;&gt;Node4 -->
<g id="edge32" class="edge">
<title>Node13&#45;&gt;Node4</title>
<path fill="none" stroke="midnightblue" d="M1373.07,-273.02C1312.23,-226.92 1196.01,-143.82 1085.96,-93 1047.33,-75.16 1002.44,-60.87 963.95,-50.4"/>
<polygon fill="midnightblue" stroke="midnightblue" points="1371.2,-276 1381.28,-279.28 1375.44,-270.43 1371.2,-276"/>
</g>
<!-- Node13&#45;&gt;Node7 -->
<g id="edge31" class="edge">
<title>Node13&#45;&gt;Node7</title>
<path fill="none" stroke="midnightblue" d="M1316.01,-278.78C1254.6,-262.8 1195.37,-248.27 1148.03,-236.87"/>
<polygon fill="midnightblue" stroke="midnightblue" points="1315.32,-282.21 1325.88,-281.35 1317.09,-275.44 1315.32,-282.21"/>
</g>
<!-- Node14&#45;&gt;Node4 -->
<g id="edge35" class="edge">
<title>Node14&#45;&gt;Node4</title>
<path fill="none" stroke="midnightblue" d="M1555.33,-274.76C1468.83,-229.03 1300.93,-144.49 1149.96,-93 1089.23,-72.29 1018.69,-56.19 964.13,-45.39"/>
<polygon fill="midnightblue" stroke="midnightblue" points="1553.73,-277.87 1564.2,-279.46 1557.01,-271.69 1553.73,-277.87"/>
</g>
<!-- Node14&#45;&gt;Node7 -->
<g id="edge34" class="edge">
<title>Node14&#45;&gt;Node7</title>
<path fill="none" stroke="midnightblue" d="M1514.06,-278.92C1381.69,-251.96 1238.68,-234.26 1148.31,-224.47"/>
<polygon fill="midnightblue" stroke="midnightblue" points="1513.47,-282.37 1523.97,-280.96 1514.88,-275.51 1513.47,-282.37"/>
</g>
<!-- Node15&#45;&gt;Node4 -->
<g id="edge38" class="edge">
<title>Node15&#45;&gt;Node4</title>
<path fill="none" stroke="midnightblue" d="M1740.39,-275.31C1632.49,-229.39 1420.9,-143.57 1233.96,-93 1143.44,-68.51 1037.49,-51.14 964.08,-40.82"/>
<polygon fill="midnightblue" stroke="midnightblue" points="1739.3,-278.65 1749.87,-279.36 1742.05,-272.21 1739.3,-278.65"/>
</g>
<!-- Node15&#45;&gt;Node7 -->
<g id="edge37" class="edge">
<title>Node15&#45;&gt;Node7</title>
<path fill="none" stroke="midnightblue" d="M1711.64,-278.88C1505.66,-241.37 1273.08,-225.59 1148.18,-219.27"/>
<polygon fill="midnightblue" stroke="midnightblue" points="1711.27,-282.37 1721.74,-280.74 1712.54,-275.49 1711.27,-282.37"/>
</g>
</g>
</svg>
