<?xml version="1.0" encoding="UTF-8" standalone="no"?>
<!DOCTYPE svg PUBLIC "-//W3C//DTD SVG 1.1//EN"
 "http://www.w3.org/Graphics/SVG/1.1/DTD/svg11.dtd">
<!-- Generated by graphviz version 2.43.0 (0)
 -->
<!-- Title: /jenkins/jenlib_workspaces_f9/bld_nightly&#45;haldls.YmxkX25pZ2h0bHktaGFsZGxzIzQ5OA.x/haldls/include/haldls/v2/common.h Pages: 1 -->
<!--zoomable 437 -->
<svg id="main" version="1.1" xmlns="http://www.w3.org/2000/svg" xmlns:xlink="http://www.w3.org/1999/xlink" xml:space="preserve" onload="init(evt)">
<style type="text/css"><![CDATA[
.edge:hover path { stroke: red; }
.edge:hover polygon { stroke: red; fill: red; }
]]></style>
<script type="text/javascript"><![CDATA[
var edges = document.getElementsByTagName('g');
if (edges && edges.length) {
  for (var i=0;i<edges.length;i++) {
    if (edges[i].id.substr(0,4)=='edge') {
      edges[i].setAttribute('class','edge');
    }
  }
}
]]></script>
        <defs>
                <circle id="rim" cx="0" cy="0" r="7"/>
                <circle id="rim2" cx="0" cy="0" r="3.5"/>
                <g id="zoomPlus">
                        <use xlink:href="#rim" fill="#404040">
                                <set attributeName="fill" to="#808080" begin="zoomplus.mouseover" end="zoomplus.mouseout"/>
                        </use>
                        <path d="M-4,0h8M0,-4v8" fill="none" stroke="white" stroke-width="1.5" pointer-events="none"/>
                </g>
                <g id="zoomMin">
                        <use xlink:href="#rim" fill="#404040">
                                <set attributeName="fill" to="#808080" begin="zoomminus.mouseover" end="zoomminus.mouseout"/>
                        </use>
                        <path d="M-4,0h8" fill="none" stroke="white" stroke-width="1.5" pointer-events="none"/>
                </g>
                <g id="dirArrow">
                        <path fill="none" stroke="white" stroke-width="1.5" d="M0,-3.0v7 M-2.5,-0.5L0,-3.0L2.5,-0.5"/>
                </g>
               <g id="resetDef">
                       <use xlink:href="#rim2" fill="#404040">
                               <set attributeName="fill" to="#808080" begin="reset.mouseover" end="reset.mouseout"/>
                       </use>
               </g>
        </defs>

<script type="text/javascript">
var viewWidth = 1823;
var viewHeight = 437;
var sectionId = 'dynsection-1';
</script>
<script xlink:href="svgpan.js"/>
<svg id="graph" class="graph">
<g id="viewport">
<title>/jenkins/jenlib_workspaces_f9/bld_nightly&#45;haldls.YmxkX25pZ2h0bHktaGFsZGxzIzQ5OA.x/haldls/include/haldls/v2/common.h</title>
<polygon fill="white" stroke="transparent" points="-4,4 -4,-433 1818.63,-433 1818.63,4 -4,4"/>
<!-- Node4 -->
<g id="node1" class="node">
<title>Node4</title>
<g id="a_node1"><a xlink:title=" ">
<polygon fill="#bfbfbf" stroke="black" points="547.71,-372.5 547.71,-428.5 727.63,-428.5 727.63,-372.5 547.71,-372.5"/>
<text text-anchor="start" x="555.71" y="-415.5" font-family="Helvetica,sans-Serif" font-size="10.00">/jenkins/jenlib_workspaces</text>
<text text-anchor="start" x="555.71" y="-403.5" font-family="Helvetica,sans-Serif" font-size="10.00">_f9/bld_nightly&#45;haldls.YmxkX25p</text>
<text text-anchor="start" x="555.71" y="-391.5" font-family="Helvetica,sans-Serif" font-size="10.00">Z2h0bHktaGFsZGxzIzQ5OA.x/haldls</text>
<text text-anchor="middle" x="637.67" y="-379.5" font-family="Helvetica,sans-Serif" font-size="10.00">/include/haldls/v2/common.h</text>
</a>
</g>
</g>
<!-- Node5 -->
<g id="node2" class="node">
<title>Node5</title>
<g id="a_node2"><a xlink:href="board_8h.html" target="_top" xlink:title=" ">
<polygon fill="white" stroke="black" points="256.71,-93.5 256.71,-149.5 436.63,-149.5 436.63,-93.5 256.71,-93.5"/>
<text text-anchor="start" x="264.71" y="-136.5" font-family="Helvetica,sans-Serif" font-size="10.00">/jenkins/jenlib_workspaces</text>
<text text-anchor="start" x="264.71" y="-124.5" font-family="Helvetica,sans-Serif" font-size="10.00">_f9/bld_nightly&#45;haldls.YmxkX25p</text>
<text text-anchor="start" x="264.71" y="-112.5" font-family="Helvetica,sans-Serif" font-size="10.00">Z2h0bHktaGFsZGxzIzQ5OA.x/haldls</text>
<text text-anchor="middle" x="346.67" y="-100.5" font-family="Helvetica,sans-Serif" font-size="10.00">/include/haldls/v2/board.h</text>
</a>
</g>
</g>
<!-- Node4&#45;&gt;Node5 -->
<g id="edge1" class="edge">
<title>Node4&#45;&gt;Node5</title>
<path fill="none" stroke="midnightblue" d="M537.58,-388.83C454.94,-378.46 345.47,-360.66 308.67,-336 248.89,-295.93 213.15,-249.15 247.67,-186 255.9,-170.95 269.39,-158.94 283.8,-149.59"/>
<polygon fill="midnightblue" stroke="midnightblue" points="537.17,-392.3 547.52,-390.05 538.02,-385.35 537.17,-392.3"/>
</g>
<!-- Node6 -->
<g id="node3" class="node">
<title>Node6</title>
<g id="a_node3"><a xlink:href="v2_2container_8h.html" target="_top" xlink:title=" ">
<polygon fill="white" stroke="black" points="766.71,-0.5 766.71,-56.5 946.63,-56.5 946.63,-0.5 766.71,-0.5"/>
<text text-anchor="start" x="774.71" y="-43.5" font-family="Helvetica,sans-Serif" font-size="10.00">/jenkins/jenlib_workspaces</text>
<text text-anchor="start" x="774.71" y="-31.5" font-family="Helvetica,sans-Serif" font-size="10.00">_f9/bld_nightly&#45;haldls.YmxkX25p</text>
<text text-anchor="start" x="774.71" y="-19.5" font-family="Helvetica,sans-Serif" font-size="10.00">Z2h0bHktaGFsZGxzIzQ5OA.x/haldls</text>
<text text-anchor="middle" x="856.67" y="-7.5" font-family="Helvetica,sans-Serif" font-size="10.00">/include/haldls/v2/container.h</text>
</a>
</g>
</g>
<!-- Node4&#45;&gt;Node6 -->
<g id="edge38" class="edge">
<title>Node4&#45;&gt;Node6</title>
<path fill="none" stroke="midnightblue" d="M537.46,-399.66C436.69,-396.82 278.37,-384.02 150.67,-336 65.6,-304.01 -32.77,-265.29 11.67,-186 50.39,-116.91 88.5,-117.93 163.67,-93 273.19,-56.68 605.05,-39.21 766.51,-32.68"/>
<polygon fill="midnightblue" stroke="midnightblue" points="537.55,-403.17 547.64,-399.92 537.73,-396.17 537.55,-403.17"/>
</g>
<!-- Node7 -->
<g id="node4" class="node">
<title>Node7</title>
<g id="a_node4"><a xlink:href="dac_8h.html" target="_top" xlink:title=" ">
<polygon fill="white" stroke="black" points="20.71,-186.5 20.71,-242.5 200.63,-242.5 200.63,-186.5 20.71,-186.5"/>
<text text-anchor="start" x="28.71" y="-229.5" font-family="Helvetica,sans-Serif" font-size="10.00">/jenkins/jenlib_workspaces</text>
<text text-anchor="start" x="28.71" y="-217.5" font-family="Helvetica,sans-Serif" font-size="10.00">_f9/bld_nightly&#45;haldls.YmxkX25p</text>
<text text-anchor="start" x="28.71" y="-205.5" font-family="Helvetica,sans-Serif" font-size="10.00">Z2h0bHktaGFsZGxzIzQ5OA.x/haldls</text>
<text text-anchor="middle" x="110.67" y="-193.5" font-family="Helvetica,sans-Serif" font-size="10.00">/include/haldls/v2/dac.h</text>
</a>
</g>
</g>
<!-- Node4&#45;&gt;Node7 -->
<g id="edge3" class="edge">
<title>Node4&#45;&gt;Node7</title>
<path fill="none" stroke="midnightblue" d="M537.41,-392.49C430.29,-383.6 268.62,-365.74 214.67,-336 174.98,-314.12 143.47,-270.82 125.94,-242.52"/>
<polygon fill="midnightblue" stroke="midnightblue" points="537.34,-396 547.6,-393.32 537.91,-389.02 537.34,-396"/>
</g>
<!-- Node8 -->
<g id="node5" class="node">
<title>Node8</title>
<g id="a_node5"><a xlink:href="v2_2fpga_8h.html" target="_top" xlink:title=" ">
<polygon fill="white" stroke="black" points="256.71,-186.5 256.71,-242.5 436.63,-242.5 436.63,-186.5 256.71,-186.5"/>
<text text-anchor="start" x="264.71" y="-229.5" font-family="Helvetica,sans-Serif" font-size="10.00">/jenkins/jenlib_workspaces</text>
<text text-anchor="start" x="264.71" y="-217.5" font-family="Helvetica,sans-Serif" font-size="10.00">_f9/bld_nightly&#45;haldls.YmxkX25p</text>
<text text-anchor="start" x="264.71" y="-205.5" font-family="Helvetica,sans-Serif" font-size="10.00">Z2h0bHktaGFsZGxzIzQ5OA.x/haldls</text>
<text text-anchor="middle" x="346.67" y="-193.5" font-family="Helvetica,sans-Serif" font-size="10.00">/include/haldls/v2/fpga.h</text>
</a>
</g>
</g>
<!-- Node4&#45;&gt;Node8 -->
<g id="edge6" class="edge">
<title>Node4&#45;&gt;Node8</title>
<path fill="none" stroke="midnightblue" d="M537.18,-392.74C455.78,-384.92 350.39,-368.67 323.67,-336 302.16,-309.71 316.39,-269.4 330.16,-242.75"/>
<polygon fill="midnightblue" stroke="midnightblue" points="537.2,-396.25 547.48,-393.69 537.85,-389.28 537.2,-396.25"/>
</g>
<!-- Node9 -->
<g id="node6" class="node">
<title>Node9</title>
<g id="a_node6"><a xlink:href="v2_2synapse_8h.html" target="_top" xlink:title=" ">
<polygon fill="white" stroke="black" points="332.71,-279.5 332.71,-335.5 512.63,-335.5 512.63,-279.5 332.71,-279.5"/>
<text text-anchor="start" x="340.71" y="-322.5" font-family="Helvetica,sans-Serif" font-size="10.00">/jenkins/jenlib_workspaces</text>
<text text-anchor="start" x="340.71" y="-310.5" font-family="Helvetica,sans-Serif" font-size="10.00">_f9/bld_nightly&#45;haldls.YmxkX25p</text>
<text text-anchor="start" x="340.71" y="-298.5" font-family="Helvetica,sans-Serif" font-size="10.00">Z2h0bHktaGFsZGxzIzQ5OA.x/haldls</text>
<text text-anchor="middle" x="422.67" y="-286.5" font-family="Helvetica,sans-Serif" font-size="10.00">/include/haldls/v2/synapse.h</text>
</a>
</g>
</g>
<!-- Node4&#45;&gt;Node9 -->
<g id="edge8" class="edge">
<title>Node4&#45;&gt;Node9</title>
<path fill="none" stroke="midnightblue" d="M564.25,-368.42C539.06,-357.76 511.1,-345.93 486.72,-335.61"/>
<polygon fill="midnightblue" stroke="midnightblue" points="563.17,-371.77 573.75,-372.44 565.9,-365.32 563.17,-371.77"/>
</g>
<!-- Node10 -->
<g id="node7" class="node">
<title>Node10</title>
<g id="a_node7"><a xlink:href="chip_8h.html" target="_top" xlink:title=" ">
<polygon fill="white" stroke="black" points="922.71,-186.5 922.71,-242.5 1102.63,-242.5 1102.63,-186.5 922.71,-186.5"/>
<text text-anchor="start" x="930.71" y="-229.5" font-family="Helvetica,sans-Serif" font-size="10.00">/jenkins/jenlib_workspaces</text>
<text text-anchor="start" x="930.71" y="-217.5" font-family="Helvetica,sans-Serif" font-size="10.00">_f9/bld_nightly&#45;haldls.YmxkX25p</text>
<text text-anchor="start" x="930.71" y="-205.5" font-family="Helvetica,sans-Serif" font-size="10.00">Z2h0bHktaGFsZGxzIzQ5OA.x/haldls</text>
<text text-anchor="middle" x="1012.67" y="-193.5" font-family="Helvetica,sans-Serif" font-size="10.00">/include/haldls/v2/chip.h</text>
</a>
</g>
</g>
<!-- Node4&#45;&gt;Node10 -->
<g id="edge22" class="edge">
<title>Node4&#45;&gt;Node10</title>
<path fill="none" stroke="midnightblue" d="M738,-394.35C830.59,-387.42 958.83,-371.55 993.67,-336 1017.61,-311.57 1018.91,-270.01 1016.6,-242.65"/>
<polygon fill="midnightblue" stroke="midnightblue" points="737.47,-390.88 727.75,-395.1 737.97,-397.86 737.47,-390.88"/>
</g>
<!-- Node11 -->
<g id="node8" class="node">
<title>Node11</title>
<g id="a_node8"><a xlink:href="playback_8h.html" target="_top" xlink:title=" ">
<polygon fill="white" stroke="black" points="648.71,-93.5 648.71,-149.5 828.63,-149.5 828.63,-93.5 648.71,-93.5"/>
<text text-anchor="start" x="656.71" y="-136.5" font-family="Helvetica,sans-Serif" font-size="10.00">/jenkins/jenlib_workspaces</text>
<text text-anchor="start" x="656.71" y="-124.5" font-family="Helvetica,sans-Serif" font-size="10.00">_f9/bld_nightly&#45;haldls.YmxkX25p</text>
<text text-anchor="start" x="656.71" y="-112.5" font-family="Helvetica,sans-Serif" font-size="10.00">Z2h0bHktaGFsZGxzIzQ5OA.x/haldls</text>
<text text-anchor="middle" x="738.67" y="-100.5" font-family="Helvetica,sans-Serif" font-size="10.00">/include/haldls/v2/playback.h</text>
</a>
</g>
</g>
<!-- Node4&#45;&gt;Node11 -->
<g id="edge39" class="edge">
<title>Node4&#45;&gt;Node11</title>
<path fill="none" stroke="midnightblue" d="M609.78,-363.98C593.28,-338.38 578.94,-304.06 597.67,-279 631.52,-233.72 682.39,-285.5 719.67,-243 742.09,-217.45 743.87,-176.57 742.07,-149.63"/>
<polygon fill="midnightblue" stroke="midnightblue" points="606.9,-365.99 615.41,-372.31 612.7,-362.06 606.9,-365.99"/>
</g>
<!-- Node12 -->
<g id="node9" class="node">
<title>Node12</title>
<g id="a_node9"><a xlink:href="spike_8h.html" target="_top" xlink:title=" ">
<polygon fill="white" stroke="black" points="530.71,-186.5 530.71,-242.5 710.63,-242.5 710.63,-186.5 530.71,-186.5"/>
<text text-anchor="start" x="538.71" y="-229.5" font-family="Helvetica,sans-Serif" font-size="10.00">/jenkins/jenlib_workspaces</text>
<text text-anchor="start" x="538.71" y="-217.5" font-family="Helvetica,sans-Serif" font-size="10.00">_f9/bld_nightly&#45;haldls.YmxkX25p</text>
<text text-anchor="start" x="538.71" y="-205.5" font-family="Helvetica,sans-Serif" font-size="10.00">Z2h0bHktaGFsZGxzIzQ5OA.x/haldls</text>
<text text-anchor="middle" x="620.67" y="-193.5" font-family="Helvetica,sans-Serif" font-size="10.00">/include/haldls/v2/spike.h</text>
</a>
</g>
</g>
<!-- Node4&#45;&gt;Node12 -->
<g id="edge40" class="edge">
<title>Node4&#45;&gt;Node12</title>
<path fill="none" stroke="midnightblue" d="M586.76,-365.53C577.8,-357.02 569.73,-347.11 564.67,-336 554.17,-312.95 555.72,-302.7 564.67,-279 569.77,-265.53 579.17,-253.06 588.83,-242.81"/>
<polygon fill="midnightblue" stroke="midnightblue" points="584.64,-368.33 594.45,-372.34 589.28,-363.09 584.64,-368.33"/>
</g>
<!-- Node13 -->
<g id="node10" class="node">
<title>Node13</title>
<g id="a_node10"><a xlink:href="v2_2capmem_8h.html" target="_top" xlink:title=" ">
<polygon fill="white" stroke="black" points="606.71,-279.5 606.71,-335.5 786.63,-335.5 786.63,-279.5 606.71,-279.5"/>
<text text-anchor="start" x="614.71" y="-322.5" font-family="Helvetica,sans-Serif" font-size="10.00">/jenkins/jenlib_workspaces</text>
<text text-anchor="start" x="614.71" y="-310.5" font-family="Helvetica,sans-Serif" font-size="10.00">_f9/bld_nightly&#45;haldls.YmxkX25p</text>
<text text-anchor="start" x="614.71" y="-298.5" font-family="Helvetica,sans-Serif" font-size="10.00">Z2h0bHktaGFsZGxzIzQ5OA.x/haldls</text>
<text text-anchor="middle" x="696.67" y="-286.5" font-family="Helvetica,sans-Serif" font-size="10.00">/include/haldls/v2/capmem.h</text>
</a>
</g>
</g>
<!-- Node4&#45;&gt;Node13 -->
<g id="edge19" class="edge">
<title>Node4&#45;&gt;Node13</title>
<path fill="none" stroke="midnightblue" d="M660.98,-363.55C666.97,-354.31 673.33,-344.51 678.98,-335.78"/>
<polygon fill="midnightblue" stroke="midnightblue" points="657.88,-361.9 655.37,-372.2 663.75,-365.71 657.88,-361.9"/>
</g>
<!-- Node14 -->
<g id="node11" class="node">
<title>Node14</title>
<g id="a_node11"><a xlink:href="v2_2correlation_8h.html" target="_top" xlink:title=" ">
<polygon fill="white" stroke="black" points="804.71,-279.5 804.71,-335.5 984.63,-335.5 984.63,-279.5 804.71,-279.5"/>
<text text-anchor="start" x="812.71" y="-322.5" font-family="Helvetica,sans-Serif" font-size="10.00">/jenkins/jenlib_workspaces</text>
<text text-anchor="start" x="812.71" y="-310.5" font-family="Helvetica,sans-Serif" font-size="10.00">_f9/bld_nightly&#45;haldls.YmxkX25p</text>
<text text-anchor="start" x="812.71" y="-298.5" font-family="Helvetica,sans-Serif" font-size="10.00">Z2h0bHktaGFsZGxzIzQ5OA.x/haldls</text>
<text text-anchor="middle" x="894.67" y="-286.5" font-family="Helvetica,sans-Serif" font-size="10.00">/include/haldls/v2/correlation.h</text>
</a>
</g>
</g>
<!-- Node4&#45;&gt;Node14 -->
<g id="edge23" class="edge">
<title>Node4&#45;&gt;Node14</title>
<path fill="none" stroke="midnightblue" d="M723.85,-368.98C754.36,-358.18 788.46,-346.11 818.11,-335.61"/>
<polygon fill="midnightblue" stroke="midnightblue" points="722.34,-365.81 714.09,-372.44 724.68,-372.4 722.34,-365.81"/>
</g>
<!-- Node15 -->
<g id="node12" class="node">
<title>Node15</title>
<g id="a_node12"><a xlink:href="v2_2neuron_8h.html" target="_top" xlink:title=" ">
<polygon fill="white" stroke="black" points="1040.71,-279.5 1040.71,-335.5 1220.63,-335.5 1220.63,-279.5 1040.71,-279.5"/>
<text text-anchor="start" x="1048.71" y="-322.5" font-family="Helvetica,sans-Serif" font-size="10.00">/jenkins/jenlib_workspaces</text>
<text text-anchor="start" x="1048.71" y="-310.5" font-family="Helvetica,sans-Serif" font-size="10.00">_f9/bld_nightly&#45;haldls.YmxkX25p</text>
<text text-anchor="start" x="1048.71" y="-298.5" font-family="Helvetica,sans-Serif" font-size="10.00">Z2h0bHktaGFsZGxzIzQ5OA.x/haldls</text>
<text text-anchor="middle" x="1130.67" y="-286.5" font-family="Helvetica,sans-Serif" font-size="10.00">/include/haldls/v2/neuron.h</text>
</a>
</g>
</g>
<!-- Node4&#45;&gt;Node15 -->
<g id="edge26" class="edge">
<title>Node4&#45;&gt;Node15</title>
<path fill="none" stroke="midnightblue" d="M737.68,-385.89C816.54,-374.51 929.12,-356.81 1026.67,-336 1031.24,-335.03 1035.91,-333.98 1040.61,-332.89"/>
<polygon fill="midnightblue" stroke="midnightblue" points="737.15,-382.43 727.75,-387.32 738.14,-389.36 737.15,-382.43"/>
</g>
<!-- Node16 -->
<g id="node13" class="node">
<title>Node16</title>
<g id="a_node13"><a xlink:href="v2_2ppu_8h.html" target="_top" xlink:title=" ">
<polygon fill="white" stroke="black" points="1238.71,-279.5 1238.71,-335.5 1418.63,-335.5 1418.63,-279.5 1238.71,-279.5"/>
<text text-anchor="start" x="1246.71" y="-322.5" font-family="Helvetica,sans-Serif" font-size="10.00">/jenkins/jenlib_workspaces</text>
<text text-anchor="start" x="1246.71" y="-310.5" font-family="Helvetica,sans-Serif" font-size="10.00">_f9/bld_nightly&#45;haldls.YmxkX25p</text>
<text text-anchor="start" x="1246.71" y="-298.5" font-family="Helvetica,sans-Serif" font-size="10.00">Z2h0bHktaGFsZGxzIzQ5OA.x/haldls</text>
<text text-anchor="middle" x="1328.67" y="-286.5" font-family="Helvetica,sans-Serif" font-size="10.00">/include/haldls/v2/ppu.h</text>
</a>
</g>
</g>
<!-- Node4&#45;&gt;Node16 -->
<g id="edge29" class="edge">
<title>Node4&#45;&gt;Node16</title>
<path fill="none" stroke="midnightblue" d="M737.99,-393.77C856.34,-385.86 1058.63,-368.7 1229.67,-336 1232.65,-335.43 1235.67,-334.82 1238.71,-334.16"/>
<polygon fill="midnightblue" stroke="midnightblue" points="737.61,-390.29 727.86,-394.44 738.07,-397.28 737.61,-390.29"/>
</g>
<!-- Node17 -->
<g id="node14" class="node">
<title>Node17</title>
<g id="a_node14"><a xlink:href="rate__counter_8h.html" target="_top" xlink:title=" ">
<polygon fill="white" stroke="black" points="1436.71,-279.5 1436.71,-335.5 1616.63,-335.5 1616.63,-279.5 1436.71,-279.5"/>
<text text-anchor="start" x="1444.71" y="-322.5" font-family="Helvetica,sans-Serif" font-size="10.00">/jenkins/jenlib_workspaces</text>
<text text-anchor="start" x="1444.71" y="-310.5" font-family="Helvetica,sans-Serif" font-size="10.00">_f9/bld_nightly&#45;haldls.YmxkX25p</text>
<text text-anchor="start" x="1444.71" y="-298.5" font-family="Helvetica,sans-Serif" font-size="10.00">Z2h0bHktaGFsZGxzIzQ5OA.x/haldls</text>
<text text-anchor="middle" x="1526.67" y="-286.5" font-family="Helvetica,sans-Serif" font-size="10.00">/include/haldls/v2/rate_counter.h</text>
</a>
</g>
</g>
<!-- Node4&#45;&gt;Node17 -->
<g id="edge32" class="edge">
<title>Node4&#45;&gt;Node17</title>
<path fill="none" stroke="midnightblue" d="M738,-397.55C888.79,-393.25 1182.33,-379.52 1427.67,-336 1430.57,-335.49 1433.51,-334.92 1436.46,-334.32"/>
<polygon fill="midnightblue" stroke="midnightblue" points="737.73,-394.06 727.83,-397.83 737.92,-401.05 737.73,-394.06"/>
</g>
<!-- Node18 -->
<g id="node15" class="node">
<title>Node18</title>
<g id="a_node15"><a xlink:href="synapsedriver_8h.html" target="_top" xlink:title=" ">
<polygon fill="white" stroke="black" points="1634.71,-279.5 1634.71,-335.5 1814.63,-335.5 1814.63,-279.5 1634.71,-279.5"/>
<text text-anchor="start" x="1642.71" y="-322.5" font-family="Helvetica,sans-Serif" font-size="10.00">/jenkins/jenlib_workspaces</text>
<text text-anchor="start" x="1642.71" y="-310.5" font-family="Helvetica,sans-Serif" font-size="10.00">_f9/bld_nightly&#45;haldls.YmxkX25p</text>
<text text-anchor="start" x="1642.71" y="-298.5" font-family="Helvetica,sans-Serif" font-size="10.00">Z2h0bHktaGFsZGxzIzQ5OA.x/haldls</text>
<text text-anchor="middle" x="1724.67" y="-286.5" font-family="Helvetica,sans-Serif" font-size="10.00">/include/haldls/v2/synapsedriver.h</text>
</a>
</g>
</g>
<!-- Node4&#45;&gt;Node18 -->
<g id="edge35" class="edge">
<title>Node4&#45;&gt;Node18</title>
<path fill="none" stroke="midnightblue" d="M738.18,-399.87C917.67,-399.01 1304.61,-390.31 1625.67,-336 1628.57,-335.51 1631.51,-334.97 1634.47,-334.38"/>
<polygon fill="midnightblue" stroke="midnightblue" points="737.95,-396.37 727.96,-399.91 737.98,-403.37 737.95,-396.37"/>
</g>
<!-- Node5&#45;&gt;Node6 -->
<g id="edge2" class="edge">
<title>Node5&#45;&gt;Node6</title>
<path fill="none" stroke="midnightblue" d="M446.92,-100.82C460.93,-98.15 475.16,-95.47 488.67,-93 583.38,-75.66 692.04,-57.07 766.6,-44.52"/>
<polygon fill="midnightblue" stroke="midnightblue" points="445.93,-97.45 436.76,-102.77 447.24,-104.32 445.93,-97.45"/>
</g>
<!-- Node7&#45;&gt;Node5 -->
<g id="edge4" class="edge">
<title>Node7&#45;&gt;Node5</title>
<path fill="none" stroke="midnightblue" d="M190.18,-182.84C218.1,-172.08 249.25,-160.06 276.37,-149.61"/>
<polygon fill="midnightblue" stroke="midnightblue" points="188.91,-179.58 180.84,-186.44 191.43,-186.11 188.91,-179.58"/>
</g>
<!-- Node7&#45;&gt;Node6 -->
<g id="edge5" class="edge">
<title>Node7&#45;&gt;Node6</title>
<path fill="none" stroke="midnightblue" d="M139.12,-178.64C164.4,-150.33 204.04,-112.1 247.67,-93 338.48,-53.25 620.2,-37.71 766.47,-32.21"/>
<polygon fill="midnightblue" stroke="midnightblue" points="136.33,-176.5 132.37,-186.33 141.6,-181.12 136.33,-176.5"/>
</g>
<!-- Node8&#45;&gt;Node5 -->
<g id="edge7" class="edge">
<title>Node8&#45;&gt;Node5</title>
<path fill="none" stroke="midnightblue" d="M346.67,-176.12C346.67,-167.3 346.67,-158.06 346.67,-149.78"/>
<polygon fill="midnightblue" stroke="midnightblue" points="343.17,-176.2 346.67,-186.2 350.17,-176.2 343.17,-176.2"/>
</g>
<!-- Node9&#45;&gt;Node5 -->
<g id="edge10" class="edge">
<title>Node9&#45;&gt;Node5</title>
<path fill="none" stroke="midnightblue" d="M441.87,-269.58C452.02,-244.66 459.74,-211.74 445.67,-186 437.45,-170.95 423.96,-158.94 409.55,-149.59"/>
<polygon fill="midnightblue" stroke="midnightblue" points="438.54,-268.48 437.75,-279.05 444.95,-271.28 438.54,-268.48"/>
</g>
<!-- Node9&#45;&gt;Node6 -->
<g id="edge18" class="edge">
<title>Node9&#45;&gt;Node6</title>
<path fill="none" stroke="midnightblue" d="M449.89,-271.22C492.64,-216.71 574.78,-115.89 614.67,-93 661.2,-66.3 719.16,-50.58 766.69,-41.46"/>
<polygon fill="midnightblue" stroke="midnightblue" points="447.02,-269.2 443.62,-279.23 452.54,-273.51 447.02,-269.2"/>
</g>
<!-- Node9&#45;&gt;Node8 -->
<g id="edge9" class="edge">
<title>Node9&#45;&gt;Node8</title>
<path fill="none" stroke="midnightblue" d="M393.37,-271.41C385.44,-261.91 376.97,-251.78 369.46,-242.78"/>
<polygon fill="midnightblue" stroke="midnightblue" points="390.77,-273.77 399.87,-279.2 396.15,-269.28 390.77,-273.77"/>
</g>
<!-- Node9&#45;&gt;Node10 -->
<g id="edge11" class="edge">
<title>Node9&#45;&gt;Node10</title>
<path fill="none" stroke="midnightblue" d="M523.03,-290.66C547.45,-286.82 573.5,-282.75 597.67,-279 709.49,-261.66 838.31,-242 922.39,-229.21"/>
<polygon fill="midnightblue" stroke="midnightblue" points="522.37,-287.22 513.04,-292.23 523.46,-294.13 522.37,-287.22"/>
</g>
<!-- Node9&#45;&gt;Node12 -->
<g id="edge15" class="edge">
<title>Node9&#45;&gt;Node12</title>
<path fill="none" stroke="midnightblue" d="M490.91,-275.14C513.94,-264.56 539.43,-252.84 561.69,-242.61"/>
<polygon fill="midnightblue" stroke="midnightblue" points="489.17,-272.09 481.54,-279.44 492.09,-278.45 489.17,-272.09"/>
</g>
<!-- Node10&#45;&gt;Node6 -->
<g id="edge12" class="edge">
<title>Node10&#45;&gt;Node6</title>
<path fill="none" stroke="midnightblue" d="M983.13,-178.66C953.12,-143.25 907.25,-89.15 879.79,-56.76"/>
<polygon fill="midnightblue" stroke="midnightblue" points="980.52,-180.99 989.65,-186.35 985.86,-176.46 980.52,-180.99"/>
</g>
<!-- Node10&#45;&gt;Node11 -->
<g id="edge13" class="edge">
<title>Node10&#45;&gt;Node11</title>
<path fill="none" stroke="midnightblue" d="M921.63,-183.26C888.89,-172.39 852.19,-160.2 820.3,-149.61"/>
<polygon fill="midnightblue" stroke="midnightblue" points="920.61,-186.61 931.21,-186.44 922.82,-179.97 920.61,-186.61"/>
</g>
<!-- Node11&#45;&gt;Node6 -->
<g id="edge14" class="edge">
<title>Node11&#45;&gt;Node6</title>
<path fill="none" stroke="midnightblue" d="M781.73,-87.29C794.81,-77.21 809.02,-66.25 821.52,-56.61"/>
<polygon fill="midnightblue" stroke="midnightblue" points="779.54,-84.56 773.76,-93.44 783.81,-90.11 779.54,-84.56"/>
</g>
<!-- Node12&#45;&gt;Node6 -->
<g id="edge17" class="edge">
<title>Node12&#45;&gt;Node6</title>
<path fill="none" stroke="midnightblue" d="M616.8,-176.36C616.16,-150.04 619.86,-115.54 639.67,-93 671.29,-57.04 722.06,-40.93 766.54,-33.92"/>
<polygon fill="midnightblue" stroke="midnightblue" points="613.31,-176.53 617.26,-186.36 620.3,-176.21 613.31,-176.53"/>
</g>
<!-- Node12&#45;&gt;Node11 -->
<g id="edge16" class="edge">
<title>Node12&#45;&gt;Node11</title>
<path fill="none" stroke="midnightblue" d="M663.73,-180.29C676.81,-170.21 691.02,-159.25 703.52,-149.61"/>
<polygon fill="midnightblue" stroke="midnightblue" points="661.54,-177.56 655.76,-186.44 665.81,-183.11 661.54,-177.56"/>
</g>
<!-- Node13&#45;&gt;Node6 -->
<g id="edge21" class="edge">
<title>Node13&#45;&gt;Node6</title>
<path fill="none" stroke="midnightblue" d="M738.26,-272.6C770.82,-243.61 814.36,-198.9 837.67,-150 851.89,-120.18 855.84,-81.95 856.75,-56.64"/>
<polygon fill="midnightblue" stroke="midnightblue" points="735.87,-270.04 730.66,-279.27 740.49,-275.3 735.87,-270.04"/>
</g>
<!-- Node13&#45;&gt;Node10 -->
<g id="edge20" class="edge">
<title>Node13&#45;&gt;Node10</title>
<path fill="none" stroke="midnightblue" d="M796.41,-277.78C836.88,-266.12 883.28,-252.76 922.7,-241.41"/>
<polygon fill="midnightblue" stroke="midnightblue" points="795.44,-274.41 786.8,-280.54 797.38,-281.14 795.44,-274.41"/>
</g>
<!-- Node14&#45;&gt;Node6 -->
<g id="edge25" class="edge">
<title>Node14&#45;&gt;Node6</title>
<path fill="none" stroke="midnightblue" d="M891.68,-269.2C887.97,-226.46 880.86,-154.4 870.67,-93 868.68,-80.97 865.87,-67.79 863.3,-56.57"/>
<polygon fill="midnightblue" stroke="midnightblue" points="888.21,-269.75 892.55,-279.41 895.18,-269.15 888.21,-269.75"/>
</g>
<!-- Node14&#45;&gt;Node10 -->
<g id="edge24" class="edge">
<title>Node14&#45;&gt;Node10</title>
<path fill="none" stroke="midnightblue" d="M937.73,-273.29C950.81,-263.21 965.02,-252.25 977.52,-242.61"/>
<polygon fill="midnightblue" stroke="midnightblue" points="935.54,-270.56 929.76,-279.44 939.81,-276.11 935.54,-270.56"/>
</g>
<!-- Node15&#45;&gt;Node6 -->
<g id="edge28" class="edge">
<title>Node15&#45;&gt;Node6</title>
<path fill="none" stroke="midnightblue" d="M1132.63,-269.27C1132.2,-243.85 1128,-210.46 1111.67,-186 1069.65,-123.02 992.82,-81.03 934.44,-56.54"/>
<polygon fill="midnightblue" stroke="midnightblue" points="1129.13,-269.28 1132.62,-279.28 1136.13,-269.29 1129.13,-269.28"/>
</g>
<!-- Node15&#45;&gt;Node10 -->
<g id="edge27" class="edge">
<title>Node15&#45;&gt;Node10</title>
<path fill="none" stroke="midnightblue" d="M1087.61,-273.29C1074.53,-263.21 1060.32,-252.25 1047.83,-242.61"/>
<polygon fill="midnightblue" stroke="midnightblue" points="1085.53,-276.11 1095.59,-279.44 1089.81,-270.56 1085.53,-276.11"/>
</g>
<!-- Node16&#45;&gt;Node6 -->
<g id="edge31" class="edge">
<title>Node16&#45;&gt;Node6</title>
<path fill="none" stroke="midnightblue" d="M1294.14,-272.21C1245.47,-225.63 1152.17,-142.49 1058.67,-93 1023.83,-74.56 982.72,-60.42 946.72,-50.22"/>
<polygon fill="midnightblue" stroke="midnightblue" points="1291.93,-274.95 1301.56,-279.37 1296.79,-269.91 1291.93,-274.95"/>
</g>
<!-- Node16&#45;&gt;Node10 -->
<g id="edge30" class="edge">
<title>Node16&#45;&gt;Node10</title>
<path fill="none" stroke="midnightblue" d="M1228.93,-277.78C1188.46,-266.12 1142.06,-252.76 1102.65,-241.41"/>
<polygon fill="midnightblue" stroke="midnightblue" points="1227.96,-281.14 1238.54,-280.54 1229.9,-274.41 1227.96,-281.14"/>
</g>
<!-- Node17&#45;&gt;Node6 -->
<g id="edge34" class="edge">
<title>Node17&#45;&gt;Node6</title>
<path fill="none" stroke="midnightblue" d="M1474.02,-273.91C1397.61,-227.84 1250.37,-143.66 1115.67,-93 1060.96,-72.42 997.22,-56.7 946.67,-46.04"/>
<polygon fill="midnightblue" stroke="midnightblue" points="1472.62,-277.15 1482.98,-279.33 1476.24,-271.16 1472.62,-277.15"/>
</g>
<!-- Node17&#45;&gt;Node10 -->
<g id="edge33" class="edge">
<title>Node17&#45;&gt;Node10</title>
<path fill="none" stroke="midnightblue" d="M1426.81,-278.91C1309.63,-254.18 1184.82,-236.55 1102.69,-226.13"/>
<polygon fill="midnightblue" stroke="midnightblue" points="1426.17,-282.35 1436.68,-281.01 1427.63,-275.5 1426.17,-282.35"/>
</g>
<!-- Node18&#45;&gt;Node6 -->
<g id="edge37" class="edge">
<title>Node18&#45;&gt;Node6</title>
<path fill="none" stroke="midnightblue" d="M1658.42,-275.02C1559.22,-229.01 1365.27,-143.42 1192.67,-93 1110.9,-69.11 1015.23,-52.05 946.93,-41.67"/>
<polygon fill="midnightblue" stroke="midnightblue" points="1657.18,-278.3 1667.72,-279.34 1660.13,-271.95 1657.18,-278.3"/>
</g>
<!-- Node18&#45;&gt;Node10 -->
<g id="edge36" class="edge">
<title>Node18&#45;&gt;Node10</title>
<path fill="none" stroke="midnightblue" d="M1624.54,-278.91C1434.25,-243.6 1220.75,-227.17 1102.69,-220.09"/>
<polygon fill="midnightblue" stroke="midnightblue" points="1623.97,-282.36 1634.45,-280.77 1625.26,-275.48 1623.97,-282.36"/>
</g>
</g>
</svg>
        <g id="navigator" transform="translate(0 0)" fill="#404254">
                <rect fill="#f2f5e9" fill-opacity="0.5" stroke="#606060" stroke-width=".5" x="0" y="0" width="60" height="60"/>
                <use id="zoomplus" xlink:href="#zoomPlus" x="17" y="9" onmousedown="handleZoom(evt,'in')"/>
                <use id="zoomminus" xlink:href="#zoomMin" x="42" y="9" onmousedown="handleZoom(evt,'out')"/>
                <use id="reset" xlink:href="#resetDef" x="30" y="36" onmousedown="handleReset()"/>
                <g id="arrowUp" xlink:href="#dirArrow" transform="translate(30 24)" onmousedown="handlePan(0,-1)">
                  <use xlink:href="#rim" fill="#404040">
                        <set attributeName="fill" to="#808080" begin="arrowUp.mouseover" end="arrowUp.mouseout"/>
                  </use>
                  <path fill="none" stroke="white" stroke-width="1.5" d="M0,-3.0v7 M-2.5,-0.5L0,-3.0L2.5,-0.5"/>
                </g>
                <g id="arrowRight" xlink:href="#dirArrow" transform="rotate(90) translate(36 -43)" onmousedown="handlePan(1,0)">
                  <use xlink:href="#rim" fill="#404040">
                        <set attributeName="fill" to="#808080" begin="arrowRight.mouseover" end="arrowRight.mouseout"/>
                  </use>
                  <path fill="none" stroke="white" stroke-width="1.5" d="M0,-3.0v7 M-2.5,-0.5L0,-3.0L2.5,-0.5"/>
                </g>
                <g id="arrowDown" xlink:href="#dirArrow" transform="rotate(180) translate(-30 -48)" onmousedown="handlePan(0,1)">
                  <use xlink:href="#rim" fill="#404040">
                        <set attributeName="fill" to="#808080" begin="arrowDown.mouseover" end="arrowDown.mouseout"/>
                  </use>
                  <path fill="none" stroke="white" stroke-width="1.5" d="M0,-3.0v7 M-2.5,-0.5L0,-3.0L2.5,-0.5"/>
                </g>
                <g id="arrowLeft" xlink:href="#dirArrow" transform="rotate(270) translate(-36 17)" onmousedown="handlePan(-1,0)">
                  <use xlink:href="#rim" fill="#404040">
                        <set attributeName="fill" to="#808080" begin="arrowLeft.mouseover" end="arrowLeft.mouseout"/>
                  </use>
                  <path fill="none" stroke="white" stroke-width="1.5" d="M0,-3.0v7 M-2.5,-0.5L0,-3.0L2.5,-0.5"/>
                </g>
        </g>
        <svg viewBox="0 0 15 15" width="100%" height="30px" preserveAspectRatio="xMaxYMin meet">
         <g id="arrow_out" transform="scale(0.3 0.3)">
          <a xlink:href="v2_2common_8h__dep__incl_org.svg" target="_base">
           <rect id="button" ry="5" rx="5" y="6" x="6" height="38" width="38"
                fill="#f2f5e9" fill-opacity="0.5" stroke="#606060" stroke-width="1.0"/>
           <path id="arrow"
             d="M 11.500037,31.436501 C 11.940474,20.09759 22.043105,11.32322 32.158766,21.979434 L 37.068811,17.246167 C 37.068811,17.246167 37.088388,32 37.088388,32 L 22.160133,31.978069 C 22.160133,31.978069 26.997745,27.140456 26.997745,27.140456 C 18.528582,18.264221 13.291696,25.230495 11.500037,31.436501 z"
             style="fill:#404040;"/>
          </a>
         </g>
        </svg>
</svg>
