<?xml version="1.0" encoding="UTF-8" standalone="no"?>
<!DOCTYPE svg PUBLIC "-//W3C//DTD SVG 1.1//EN"
 "http://www.w3.org/Graphics/SVG/1.1/DTD/svg11.dtd">
<!-- Generated by graphviz version 2.43.0 (0)
 -->
<!-- Title: /jenkins/jenlib_workspaces_f9/bld_nightly&#45;haldls.YmxkX25pZ2h0bHktaGFsZGxzIzQ5OA.x/haldls/include/haldls/v2/common.h Pages: 1 -->
<svg width="192pt" height="122pt"
 viewBox="0.00 0.00 192.41 122.00" xmlns="http://www.w3.org/2000/svg" xmlns:xlink="http://www.w3.org/1999/xlink">
<g id="graph0" class="graph" transform="scale(1 1) rotate(0) translate(4 118)">
<title>/jenkins/jenlib_workspaces_f9/bld_nightly&#45;haldls.YmxkX25pZ2h0bHktaGFsZGxzIzQ5OA.x/haldls/include/haldls/v2/common.h</title>
<polygon fill="white" stroke="transparent" points="-4,4 -4,-118 188.41,-118 188.41,4 -4,4"/>
<!-- Node0 -->
<g id="node1" class="node">
<title>Node0</title>
<g id="a_node1"><a xlink:title=" ">
<polygon fill="#bfbfbf" stroke="black" points="4.49,-57.5 4.49,-113.5 184.41,-113.5 184.41,-57.5 4.49,-57.5"/>
<text text-anchor="start" x="12.49" y="-100.5" font-family="Helvetica,sans-Serif" font-size="10.00">/jenkins/jenlib_workspaces</text>
<text text-anchor="start" x="12.49" y="-88.5" font-family="Helvetica,sans-Serif" font-size="10.00">_f9/bld_nightly&#45;haldls.YmxkX25p</text>
<text text-anchor="start" x="12.49" y="-76.5" font-family="Helvetica,sans-Serif" font-size="10.00">Z2h0bHktaGFsZGxzIzQ5OA.x/haldls</text>
<text text-anchor="middle" x="94.45" y="-64.5" font-family="Helvetica,sans-Serif" font-size="10.00">/include/haldls/v2/common.h</text>
</a>
</g>
</g>
<!-- Node1 -->
<g id="node2" class="node">
<title>Node1</title>
<g id="a_node2"><a xlink:title=" ">
<polygon fill="white" stroke="#bfbfbf" points="0,-0.5 0,-20.5 44.89,-20.5 44.89,-0.5 0,-0.5"/>
<text text-anchor="middle" x="22.45" y="-7.5" font-family="Helvetica,sans-Serif" font-size="10.00">cstdint</text>
</a>
</g>
</g>
<!-- Node0&#45;&gt;Node1 -->
<g id="edge1" class="edge">
<title>Node0&#45;&gt;Node1</title>
<path fill="none" stroke="midnightblue" d="M67.64,-57.32C57.84,-47.39 47.07,-36.47 38.51,-27.78"/>
<polygon fill="midnightblue" stroke="midnightblue" points="40.86,-25.19 31.35,-20.52 35.88,-30.1 40.86,-25.19"/>
</g>
<!-- Node2 -->
<g id="node3" class="node">
<title>Node2</title>
<g id="a_node3"><a xlink:title=" ">
<polygon fill="white" stroke="#bfbfbf" points="63.39,-0.5 63.39,-20.5 125.51,-20.5 125.51,-0.5 63.39,-0.5"/>
<text text-anchor="middle" x="94.45" y="-7.5" font-family="Helvetica,sans-Serif" font-size="10.00">type_traits</text>
</a>
</g>
</g>
<!-- Node0&#45;&gt;Node2 -->
<g id="edge2" class="edge">
<title>Node0&#45;&gt;Node2</title>
<path fill="none" stroke="midnightblue" d="M94.45,-57.32C94.45,-48.5 94.45,-38.91 94.45,-30.79"/>
<polygon fill="midnightblue" stroke="midnightblue" points="97.95,-30.52 94.45,-20.52 90.95,-30.52 97.95,-30.52"/>
</g>
<!-- Node3 -->
<g id="node4" class="node">
<title>Node3</title>
<g id="a_node4"><a xlink:title=" ">
<polygon fill="white" stroke="#bfbfbf" points="143.06,-0.5 143.06,-20.5 181.83,-20.5 181.83,-0.5 143.06,-0.5"/>
<text text-anchor="middle" x="162.45" y="-7.5" font-family="Helvetica,sans-Serif" font-size="10.00">utility</text>
</a>
</g>
</g>
<!-- Node0&#45;&gt;Node3 -->
<g id="edge3" class="edge">
<title>Node0&#45;&gt;Node3</title>
<path fill="none" stroke="midnightblue" d="M119.77,-57.32C128.93,-47.49 138.98,-36.69 147.03,-28.05"/>
<polygon fill="midnightblue" stroke="midnightblue" points="149.79,-30.23 154.04,-20.52 144.66,-25.46 149.79,-30.23"/>
</g>
</g>
</svg>
