<?xml version="1.0" encoding="UTF-8" standalone="no"?>
<!DOCTYPE svg PUBLIC "-//W3C//DTD SVG 1.1//EN"
 "http://www.w3.org/Graphics/SVG/1.1/DTD/svg11.dtd">
<!-- Generated by graphviz version 2.43.0 (0)
 -->
<!-- Title: /jenkins/jenlib_workspaces_f9/bld_nightly&#45;haldls.YmxkX25pZ2h0bHktaGFsZGxzIzQ5OA.x/haldls/include/haldls/vx/capmem.h Pages: 1 -->
<!--zoomable 203 -->
<svg id="main" version="1.1" xmlns="http://www.w3.org/2000/svg" xmlns:xlink="http://www.w3.org/1999/xlink" xml:space="preserve" onload="init(evt)">
<style type="text/css"><![CDATA[
.edge:hover path { stroke: red; }
.edge:hover polygon { stroke: red; fill: red; }
]]></style>
<script type="text/javascript"><![CDATA[
var edges = document.getElementsByTagName('g');
if (edges && edges.length) {
  for (var i=0;i<edges.length;i++) {
    if (edges[i].id.substr(0,4)=='edge') {
      edges[i].setAttribute('class','edge');
    }
  }
}
]]></script>
        <defs>
                <circle id="rim" cx="0" cy="0" r="7"/>
                <circle id="rim2" cx="0" cy="0" r="3.5"/>
                <g id="zoomPlus">
                        <use xlink:href="#rim" fill="#404040">
                                <set attributeName="fill" to="#808080" begin="zoomplus.mouseover" end="zoomplus.mouseout"/>
                        </use>
                        <path d="M-4,0h8M0,-4v8" fill="none" stroke="white" stroke-width="1.5" pointer-events="none"/>
                </g>
                <g id="zoomMin">
                        <use xlink:href="#rim" fill="#404040">
                                <set attributeName="fill" to="#808080" begin="zoomminus.mouseover" end="zoomminus.mouseout"/>
                        </use>
                        <path d="M-4,0h8" fill="none" stroke="white" stroke-width="1.5" pointer-events="none"/>
                </g>
                <g id="dirArrow">
                        <path fill="none" stroke="white" stroke-width="1.5" d="M0,-3.0v7 M-2.5,-0.5L0,-3.0L2.5,-0.5"/>
                </g>
               <g id="resetDef">
                       <use xlink:href="#rim2" fill="#404040">
                               <set attributeName="fill" to="#808080" begin="reset.mouseover" end="reset.mouseout"/>
                       </use>
               </g>
        </defs>

<script type="text/javascript">
var viewWidth = 1203;
var viewHeight = 203;
var sectionId = 'dynsection-0';
</script>
<script xlink:href="svgpan.js"/>
<svg id="graph" class="graph">
<g id="viewport">
<title>/jenkins/jenlib_workspaces_f9/bld_nightly&#45;haldls.YmxkX25pZ2h0bHktaGFsZGxzIzQ5OA.x/haldls/include/haldls/vx/capmem.h</title>
<polygon fill="white" stroke="transparent" points="-4,4 -4,-199 1199.13,-199 1199.13,4 -4,4"/>
<!-- Node0 -->
<g id="node1" class="node">
<title>Node0</title>
<g id="a_node1"><a xlink:title=" ">
<polygon fill="#bfbfbf" stroke="black" points="389.67,-138.5 389.67,-194.5 569.58,-194.5 569.58,-138.5 389.67,-138.5"/>
<text text-anchor="start" x="397.67" y="-181.5" font-family="Helvetica,sans-Serif" font-size="10.00">/jenkins/jenlib_workspaces</text>
<text text-anchor="start" x="397.67" y="-169.5" font-family="Helvetica,sans-Serif" font-size="10.00">_f9/bld_nightly&#45;haldls.YmxkX25p</text>
<text text-anchor="start" x="397.67" y="-157.5" font-family="Helvetica,sans-Serif" font-size="10.00">Z2h0bHktaGFsZGxzIzQ5OA.x/haldls</text>
<text text-anchor="middle" x="479.63" y="-145.5" font-family="Helvetica,sans-Serif" font-size="10.00">/include/haldls/vx/capmem.h</text>
</a>
</g>
</g>
<!-- Node1 -->
<g id="node2" class="node">
<title>Node1</title>
<g id="a_node2"><a xlink:title=" ">
<polygon fill="white" stroke="#bfbfbf" points="47.24,-75.5 47.24,-95.5 86.01,-95.5 86.01,-75.5 47.24,-75.5"/>
<text text-anchor="middle" x="66.63" y="-82.5" font-family="Helvetica,sans-Serif" font-size="10.00">array</text>
</a>
</g>
</g>
<!-- Node0&#45;&gt;Node1 -->
<g id="edge1" class="edge">
<title>Node0&#45;&gt;Node1</title>
<path fill="none" stroke="midnightblue" d="M389.54,-158.96C310.41,-151.27 193.04,-135.08 95.63,-102 93.95,-101.43 92.26,-100.78 90.58,-100.06"/>
<polygon fill="midnightblue" stroke="midnightblue" points="91.78,-96.75 81.26,-95.52 88.71,-103.04 91.78,-96.75"/>
</g>
<!-- Node2 -->
<g id="node3" class="node">
<title>Node2</title>
<g id="a_node3"><a xlink:title=" ">
<polygon fill="white" stroke="#bfbfbf" points="104.18,-75.5 104.18,-95.5 149.07,-95.5 149.07,-75.5 104.18,-75.5"/>
<text text-anchor="middle" x="126.63" y="-82.5" font-family="Helvetica,sans-Serif" font-size="10.00">cstdint</text>
</a>
</g>
</g>
<!-- Node0&#45;&gt;Node2 -->
<g id="edge2" class="edge">
<title>Node0&#45;&gt;Node2</title>
<path fill="none" stroke="midnightblue" d="M389.48,-153.97C324.24,-144.12 234.58,-127.44 158.63,-102 156.69,-101.35 154.73,-100.62 152.77,-99.82"/>
<polygon fill="midnightblue" stroke="midnightblue" points="153.78,-96.44 143.23,-95.54 150.92,-102.82 153.78,-96.44"/>
</g>
<!-- Node3 -->
<g id="node4" class="node">
<title>Node3</title>
<g id="a_node4"><a xlink:title=" ">
<polygon fill="white" stroke="#bfbfbf" points="167.57,-75.5 167.57,-95.5 219.68,-95.5 219.68,-75.5 167.57,-75.5"/>
<text text-anchor="middle" x="193.63" y="-82.5" font-family="Helvetica,sans-Serif" font-size="10.00">ostream</text>
</a>
</g>
</g>
<!-- Node0&#45;&gt;Node3 -->
<g id="edge3" class="edge">
<title>Node0&#45;&gt;Node3</title>
<path fill="none" stroke="midnightblue" d="M389.39,-146.56C341.12,-135.46 280.99,-120.07 228.63,-102 226.48,-101.26 224.29,-100.44 222.1,-99.58"/>
<polygon fill="midnightblue" stroke="midnightblue" points="223.22,-96.26 212.65,-95.62 220.52,-102.71 223.22,-96.26"/>
</g>
<!-- Node4 -->
<g id="node5" class="node">
<title>Node4</title>
<g id="a_node5"><a xlink:title=" ">
<polygon fill="white" stroke="#bfbfbf" points="277.28,-6.5 277.28,-26.5 369.97,-26.5 369.97,-6.5 277.28,-6.5"/>
<text text-anchor="middle" x="323.63" y="-13.5" font-family="Helvetica,sans-Serif" font-size="10.00">boost/variant.hpp</text>
</a>
</g>
</g>
<!-- Node0&#45;&gt;Node4 -->
<g id="edge4" class="edge">
<title>Node0&#45;&gt;Node4</title>
<path fill="none" stroke="midnightblue" d="M451.01,-138.35C418.65,-107.65 367.01,-58.66 340.52,-33.53"/>
<polygon fill="midnightblue" stroke="midnightblue" points="342.82,-30.88 333.15,-26.54 338,-35.96 342.82,-30.88"/>
</g>
<!-- Node5 -->
<g id="node6" class="node">
<title>Node5</title>
<g id="a_node6"><a xlink:title=" ">
<polygon fill="white" stroke="#bfbfbf" points="579.78,-75.5 579.78,-95.5 657.47,-95.5 657.47,-75.5 579.78,-75.5"/>
<text text-anchor="middle" x="618.63" y="-82.5" font-family="Helvetica,sans-Serif" font-size="10.00">pybind11/stl.h</text>
</a>
</g>
</g>
<!-- Node0&#45;&gt;Node5 -->
<g id="edge5" class="edge">
<title>Node0&#45;&gt;Node5</title>
<path fill="none" stroke="midnightblue" d="M527.46,-138.31C549.8,-125.62 575.45,-111.04 593.84,-100.59"/>
<polygon fill="midnightblue" stroke="midnightblue" points="595.78,-103.51 602.74,-95.53 592.32,-97.43 595.78,-103.51"/>
</g>
<!-- Node6 -->
<g id="node7" class="node">
<title>Node6</title>
<g id="a_node7"><a xlink:title=" ">
<polygon fill="white" stroke="#bfbfbf" points="675.73,-75.5 675.73,-95.5 809.53,-95.5 809.53,-75.5 675.73,-75.5"/>
<text text-anchor="middle" x="742.63" y="-82.5" font-family="Helvetica,sans-Serif" font-size="10.00">halco/common/geometry.h</text>
</a>
</g>
</g>
<!-- Node0&#45;&gt;Node6 -->
<g id="edge6" class="edge">
<title>Node0&#45;&gt;Node6</title>
<path fill="none" stroke="midnightblue" d="M569.77,-138.42C614.97,-124.85 667.43,-109.09 702.6,-98.52"/>
<polygon fill="midnightblue" stroke="midnightblue" points="703.91,-101.78 712.48,-95.55 701.9,-95.08 703.91,-101.78"/>
</g>
<!-- Node7 -->
<g id="node8" class="node">
<title>Node7</title>
<g id="a_node8"><a xlink:title=" ">
<polygon fill="white" stroke="#bfbfbf" points="827.84,-75.5 827.84,-95.5 949.41,-95.5 949.41,-75.5 827.84,-75.5"/>
<text text-anchor="middle" x="888.63" y="-82.5" font-family="Helvetica,sans-Serif" font-size="10.00">halco/common/iter_all.h</text>
</a>
</g>
</g>
<!-- Node0&#45;&gt;Node7 -->
<g id="edge7" class="edge">
<title>Node0&#45;&gt;Node7</title>
<path fill="none" stroke="midnightblue" d="M569.71,-149.45C638.12,-137.07 734.44,-119.2 818.63,-102 825.18,-100.66 832.07,-99.2 838.86,-97.73"/>
<polygon fill="midnightblue" stroke="midnightblue" points="839.67,-101.13 848.7,-95.58 838.18,-94.3 839.67,-101.13"/>
</g>
<!-- Node8 -->
<g id="node9" class="node">
<title>Node8</title>
<g id="a_node9"><a xlink:title=" ">
<polygon fill="white" stroke="#bfbfbf" points="967.5,-69.5 967.5,-101.5 1075.75,-101.5 1075.75,-69.5 967.5,-69.5"/>
<text text-anchor="start" x="975.5" y="-88.5" font-family="Helvetica,sans-Serif" font-size="10.00">halco/common/typed</text>
<text text-anchor="middle" x="1021.63" y="-76.5" font-family="Helvetica,sans-Serif" font-size="10.00">_array.h</text>
</a>
</g>
</g>
<!-- Node0&#45;&gt;Node8 -->
<g id="edge8" class="edge">
<title>Node0&#45;&gt;Node8</title>
<path fill="none" stroke="midnightblue" d="M569.7,-156.53C664.06,-146.47 816.7,-128.27 957.31,-102.13"/>
<polygon fill="midnightblue" stroke="midnightblue" points="958.23,-105.52 967.41,-100.24 956.94,-98.64 958.23,-105.52"/>
</g>
<!-- Node9 -->
<g id="node10" class="node">
<title>Node9</title>
<g id="a_node10"><a xlink:title=" ">
<polygon fill="white" stroke="#bfbfbf" points="1094.12,-69.5 1094.12,-101.5 1195.13,-101.5 1195.13,-69.5 1094.12,-69.5"/>
<text text-anchor="start" x="1102.12" y="-88.5" font-family="Helvetica,sans-Serif" font-size="10.00">halco/hicann&#45;dls/vx</text>
<text text-anchor="middle" x="1144.63" y="-76.5" font-family="Helvetica,sans-Serif" font-size="10.00">/capmem.h</text>
</a>
</g>
</g>
<!-- Node0&#45;&gt;Node9 -->
<g id="edge9" class="edge">
<title>Node0&#45;&gt;Node9</title>
<path fill="none" stroke="midnightblue" d="M569.65,-160.23C686.27,-152.47 895.87,-135.35 1083.93,-101.95"/>
<polygon fill="midnightblue" stroke="midnightblue" points="1084.78,-105.35 1094,-100.14 1083.54,-98.46 1084.78,-105.35"/>
</g>
<!-- Node10 -->
<g id="node11" class="node">
<title>Node10</title>
<g id="a_node11"><a xlink:href="vx_2common_8h.html" target="_top" xlink:title=" ">
<polygon fill="white" stroke="black" points="237.45,-75.5 237.45,-95.5 341.8,-95.5 341.8,-75.5 237.45,-75.5"/>
<text text-anchor="middle" x="289.63" y="-82.5" font-family="Helvetica,sans-Serif" font-size="10.00">haldls/vx/common.h</text>
</a>
</g>
</g>
<!-- Node0&#45;&gt;Node10 -->
<g id="edge10" class="edge">
<title>Node0&#45;&gt;Node10</title>
<path fill="none" stroke="midnightblue" d="M414.5,-138.42C382.83,-125.25 346.22,-110.03 320.87,-99.49"/>
<polygon fill="midnightblue" stroke="midnightblue" points="321.98,-96.16 311.4,-95.55 319.29,-102.63 321.98,-96.16"/>
</g>
<!-- Node14 -->
<g id="node15" class="node">
<title>Node14</title>
<g id="a_node15"><a xlink:href="vx_2genpybind_8h.html" target="_top" xlink:title=" ">
<polygon fill="white" stroke="black" points="387.55,-6.5 387.55,-26.5 499.7,-26.5 499.7,-6.5 387.55,-6.5"/>
<text text-anchor="middle" x="443.63" y="-13.5" font-family="Helvetica,sans-Serif" font-size="10.00">haldls/vx/genpybind.h</text>
</a>
</g>
</g>
<!-- Node0&#45;&gt;Node14 -->
<g id="edge14" class="edge">
<title>Node0&#45;&gt;Node14</title>
<path fill="none" stroke="midnightblue" d="M449.74,-138.23C440.49,-127.89 431.47,-115.37 426.63,-102 418.69,-80.1 426.69,-53.58 434.18,-36.17"/>
<polygon fill="midnightblue" stroke="midnightblue" points="437.58,-37.16 438.64,-26.62 431.24,-34.2 437.58,-37.16"/>
</g>
<!-- Node15 -->
<g id="node16" class="node">
<title>Node15</title>
<g id="a_node16"><a xlink:href="traits_8h.html" target="_top" xlink:title=" ">
<polygon fill="white" stroke="black" points="435.79,-75.5 435.79,-95.5 523.46,-95.5 523.46,-75.5 435.79,-75.5"/>
<text text-anchor="middle" x="479.63" y="-82.5" font-family="Helvetica,sans-Serif" font-size="10.00">haldls/vx/traits.h</text>
</a>
</g>
</g>
<!-- Node0&#45;&gt;Node15 -->
<g id="edge16" class="edge">
<title>Node0&#45;&gt;Node15</title>
<path fill="none" stroke="midnightblue" d="M479.63,-138.31C479.63,-127.66 479.63,-115.68 479.63,-105.93"/>
<polygon fill="midnightblue" stroke="midnightblue" points="483.13,-105.71 479.63,-95.71 476.13,-105.71 483.13,-105.71"/>
</g>
<!-- Node19 -->
<g id="node20" class="node">
<title>Node19</title>
<g id="a_node20"><a xlink:title=" ">
<polygon fill="white" stroke="#bfbfbf" points="988.12,-6.5 988.12,-26.5 1069.13,-26.5 1069.13,-6.5 988.12,-6.5"/>
<text text-anchor="middle" x="1028.63" y="-13.5" font-family="Helvetica,sans-Serif" font-size="10.00">hate/visibility.h</text>
</a>
</g>
</g>
<!-- Node0&#45;&gt;Node19 -->
<g id="edge25" class="edge">
<title>Node0&#45;&gt;Node19</title>
<path fill="none" stroke="midnightblue" d="M501.43,-138.36C522.65,-112.72 554.05,-77.03 570.63,-69 652.73,-29.21 890.15,-50.87 979.63,-33 984.35,-32.06 989.27,-30.82 994.08,-29.46"/>
<polygon fill="midnightblue" stroke="midnightblue" points="995.17,-32.79 1003.72,-26.54 993.14,-26.09 995.17,-32.79"/>
</g>
<!-- Node11 -->
<g id="node12" class="node">
<title>Node11</title>
<g id="a_node12"><a xlink:title=" ">
<polygon fill="white" stroke="#bfbfbf" points="197.57,-6.5 197.57,-26.5 259.69,-26.5 259.69,-6.5 197.57,-6.5"/>
<text text-anchor="middle" x="228.63" y="-13.5" font-family="Helvetica,sans-Serif" font-size="10.00">type_traits</text>
</a>
</g>
</g>
<!-- Node10&#45;&gt;Node11 -->
<g id="edge11" class="edge">
<title>Node10&#45;&gt;Node11</title>
<path fill="none" stroke="midnightblue" d="M281.4,-75.46C271.81,-64.93 255.77,-47.31 243.88,-34.26"/>
<polygon fill="midnightblue" stroke="midnightblue" points="246.43,-31.86 237.11,-26.82 241.26,-36.57 246.43,-31.86"/>
</g>
<!-- Node12 -->
<g id="node13" class="node">
<title>Node12</title>
<g id="a_node13"><a xlink:title=" ">
<polygon fill="white" stroke="#bfbfbf" points="141.24,-6.5 141.24,-26.5 180.01,-26.5 180.01,-6.5 141.24,-6.5"/>
<text text-anchor="middle" x="160.63" y="-13.5" font-family="Helvetica,sans-Serif" font-size="10.00">utility</text>
</a>
</g>
</g>
<!-- Node10&#45;&gt;Node12 -->
<g id="edge12" class="edge">
<title>Node10&#45;&gt;Node12</title>
<path fill="none" stroke="midnightblue" d="M271.28,-75.38C250.97,-65.23 217.3,-48.24 188.63,-33 187.67,-32.49 186.7,-31.97 185.71,-31.44"/>
<polygon fill="midnightblue" stroke="midnightblue" points="187.32,-28.33 176.86,-26.61 183.96,-34.47 187.32,-28.33"/>
</g>
<!-- Node13 -->
<g id="node14" class="node">
<title>Node13</title>
<g id="a_node14"><a xlink:title=" ">
<polygon fill="white" stroke="#bfbfbf" points="0,-6.5 0,-26.5 123.25,-26.5 123.25,-6.5 0,-6.5"/>
<text text-anchor="middle" x="61.63" y="-13.5" font-family="Helvetica,sans-Serif" font-size="10.00">fisch/vx/omnibus_data.h</text>
</a>
</g>
</g>
<!-- Node10&#45;&gt;Node13 -->
<g id="edge13" class="edge">
<title>Node10&#45;&gt;Node13</title>
<path fill="none" stroke="midnightblue" d="M258.88,-75.46C218.42,-63.58 147.21,-42.65 102.32,-29.46"/>
<polygon fill="midnightblue" stroke="midnightblue" points="103.2,-26.07 92.62,-26.61 101.22,-32.78 103.2,-26.07"/>
</g>
<!-- Node14&#45;&gt;Node14 -->
<g id="edge15" class="edge">
<title>Node14&#45;&gt;Node14</title>
<path fill="none" stroke="midnightblue" d="M467.52,-26.54C491.35,-32.26 517.7,-28.92 517.7,-16.5 517.7,-5.78 498.06,-1.82 477.36,-4.62"/>
<polygon fill="midnightblue" stroke="midnightblue" points="476.71,-1.18 467.52,-6.46 477.99,-8.06 476.71,-1.18"/>
</g>
<!-- Node15&#45;&gt;Node4 -->
<g id="edge18" class="edge">
<title>Node15&#45;&gt;Node4</title>
<path fill="none" stroke="midnightblue" d="M458.59,-75.46C431.72,-63.93 385.03,-43.87 354.23,-30.64"/>
<polygon fill="midnightblue" stroke="midnightblue" points="355.4,-27.34 344.83,-26.61 352.64,-33.77 355.4,-27.34"/>
</g>
<!-- Node15&#45;&gt;Node11 -->
<g id="edge17" class="edge">
<title>Node15&#45;&gt;Node11</title>
<path fill="none" stroke="midnightblue" d="M435.52,-75.49C392.52,-66.29 325.46,-50.86 268.63,-33 265.83,-32.12 262.95,-31.15 260.07,-30.12"/>
<polygon fill="midnightblue" stroke="midnightblue" points="261.04,-26.75 250.45,-26.55 258.6,-33.31 261.04,-26.75"/>
</g>
<!-- Node15&#45;&gt;Node14 -->
<g id="edge21" class="edge">
<title>Node15&#45;&gt;Node14</title>
<path fill="none" stroke="midnightblue" d="M474.77,-75.46C469.33,-65.33 460.35,-48.63 453.43,-35.75"/>
<polygon fill="midnightblue" stroke="midnightblue" points="456.45,-33.97 448.64,-26.82 450.29,-37.29 456.45,-33.97"/>
</g>
<!-- Node16 -->
<g id="node17" class="node">
<title>Node16</title>
<g id="a_node17"><a xlink:title=" ">
<polygon fill="white" stroke="#bfbfbf" points="766.01,-0.5 766.01,-32.5 859.24,-32.5 859.24,-0.5 766.01,-0.5"/>
<text text-anchor="start" x="774.01" y="-19.5" font-family="Helvetica,sans-Serif" font-size="10.00">fisch/vx/container</text>
<text text-anchor="middle" x="812.63" y="-7.5" font-family="Helvetica,sans-Serif" font-size="10.00">_fwd.h</text>
</a>
</g>
</g>
<!-- Node15&#45;&gt;Node16 -->
<g id="edge19" class="edge">
<title>Node15&#45;&gt;Node16</title>
<path fill="none" stroke="midnightblue" d="M511.1,-75.49C519.66,-73.2 528.97,-70.86 537.63,-69 630.95,-48.91 658.52,-53.83 755.99,-32.99"/>
<polygon fill="midnightblue" stroke="midnightblue" points="756.94,-36.36 765.97,-30.82 755.45,-29.52 756.94,-36.36"/>
</g>
<!-- Node17 -->
<g id="node18" class="node">
<title>Node17</title>
<g id="a_node18"><a xlink:title=" ">
<polygon fill="white" stroke="#bfbfbf" points="877.01,-0.5 877.01,-32.5 970.24,-32.5 970.24,-0.5 877.01,-0.5"/>
<text text-anchor="start" x="885.01" y="-19.5" font-family="Helvetica,sans-Serif" font-size="10.00">fisch/vx/container</text>
<text text-anchor="middle" x="923.63" y="-7.5" font-family="Helvetica,sans-Serif" font-size="10.00">_ticket.h</text>
</a>
</g>
</g>
<!-- Node15&#45;&gt;Node17 -->
<g id="edge20" class="edge">
<title>Node15&#45;&gt;Node17</title>
<path fill="none" stroke="midnightblue" d="M509.83,-75.49C518.72,-73.1 528.51,-70.7 537.63,-69 679.82,-42.43 721.49,-60.32 866.76,-33.17"/>
<polygon fill="midnightblue" stroke="midnightblue" points="867.78,-36.54 876.95,-31.23 866.47,-29.66 867.78,-36.54"/>
</g>
<!-- Node18 -->
<g id="node19" class="node">
<title>Node18</title>
<g id="a_node19"><a xlink:title=" ">
<polygon fill="white" stroke="#bfbfbf" points="536,-6.5 536,-26.5 619.25,-26.5 619.25,-6.5 536,-6.5"/>
<text text-anchor="middle" x="577.63" y="-13.5" font-family="Helvetica,sans-Serif" font-size="10.00">hate/type_list.h</text>
</a>
</g>
</g>
<!-- Node15&#45;&gt;Node18 -->
<g id="edge22" class="edge">
<title>Node15&#45;&gt;Node18</title>
<path fill="none" stroke="midnightblue" d="M492.84,-75.46C508.99,-64.42 536.53,-45.59 555.83,-32.4"/>
<polygon fill="midnightblue" stroke="midnightblue" points="558.03,-35.14 564.31,-26.61 554.08,-29.36 558.03,-35.14"/>
</g>
<!-- Node15&#45;&gt;Node19 -->
<g id="edge23" class="edge">
<title>Node15&#45;&gt;Node19</title>
<path fill="none" stroke="midnightblue" d="M509.2,-75.5C518.25,-73.04 528.28,-70.62 537.63,-69 731.84,-35.42 786.22,-70.96 979.63,-33 984.36,-32.07 989.27,-30.84 994.09,-29.49"/>
<polygon fill="midnightblue" stroke="midnightblue" points="995.17,-32.81 1003.73,-26.57 993.14,-26.11 995.17,-32.81"/>
</g>
<!-- Node20 -->
<g id="node21" class="node">
<title>Node20</title>
<g id="a_node21"><a xlink:title=" ">
<polygon fill="white" stroke="#bfbfbf" points="637.67,-6.5 637.67,-26.5 747.58,-26.5 747.58,-6.5 637.67,-6.5"/>
<text text-anchor="middle" x="692.63" y="-13.5" font-family="Helvetica,sans-Serif" font-size="10.00">fisch/vx/container.def</text>
</a>
</g>
</g>
<!-- Node15&#45;&gt;Node20 -->
<g id="edge24" class="edge">
<title>Node15&#45;&gt;Node20</title>
<path fill="none" stroke="midnightblue" d="M508.35,-75.46C545.99,-63.63 612.11,-42.83 654.08,-29.63"/>
<polygon fill="midnightblue" stroke="midnightblue" points="655.19,-32.95 663.67,-26.61 653.09,-26.27 655.19,-32.95"/>
</g>
</g>
</svg>
        <g id="navigator" transform="translate(0 0)" fill="#404254">
                <rect fill="#f2f5e9" fill-opacity="0.5" stroke="#606060" stroke-width=".5" x="0" y="0" width="60" height="60"/>
                <use id="zoomplus" xlink:href="#zoomPlus" x="17" y="9" onmousedown="handleZoom(evt,'in')"/>
                <use id="zoomminus" xlink:href="#zoomMin" x="42" y="9" onmousedown="handleZoom(evt,'out')"/>
                <use id="reset" xlink:href="#resetDef" x="30" y="36" onmousedown="handleReset()"/>
                <g id="arrowUp" xlink:href="#dirArrow" transform="translate(30 24)" onmousedown="handlePan(0,-1)">
                  <use xlink:href="#rim" fill="#404040">
                        <set attributeName="fill" to="#808080" begin="arrowUp.mouseover" end="arrowUp.mouseout"/>
                  </use>
                  <path fill="none" stroke="white" stroke-width="1.5" d="M0,-3.0v7 M-2.5,-0.5L0,-3.0L2.5,-0.5"/>
                </g>
                <g id="arrowRight" xlink:href="#dirArrow" transform="rotate(90) translate(36 -43)" onmousedown="handlePan(1,0)">
                  <use xlink:href="#rim" fill="#404040">
                        <set attributeName="fill" to="#808080" begin="arrowRight.mouseover" end="arrowRight.mouseout"/>
                  </use>
                  <path fill="none" stroke="white" stroke-width="1.5" d="M0,-3.0v7 M-2.5,-0.5L0,-3.0L2.5,-0.5"/>
                </g>
                <g id="arrowDown" xlink:href="#dirArrow" transform="rotate(180) translate(-30 -48)" onmousedown="handlePan(0,1)">
                  <use xlink:href="#rim" fill="#404040">
                        <set attributeName="fill" to="#808080" begin="arrowDown.mouseover" end="arrowDown.mouseout"/>
                  </use>
                  <path fill="none" stroke="white" stroke-width="1.5" d="M0,-3.0v7 M-2.5,-0.5L0,-3.0L2.5,-0.5"/>
                </g>
                <g id="arrowLeft" xlink:href="#dirArrow" transform="rotate(270) translate(-36 17)" onmousedown="handlePan(-1,0)">
                  <use xlink:href="#rim" fill="#404040">
                        <set attributeName="fill" to="#808080" begin="arrowLeft.mouseover" end="arrowLeft.mouseout"/>
                  </use>
                  <path fill="none" stroke="white" stroke-width="1.5" d="M0,-3.0v7 M-2.5,-0.5L0,-3.0L2.5,-0.5"/>
                </g>
        </g>
        <svg viewBox="0 0 15 15" width="100%" height="30px" preserveAspectRatio="xMaxYMin meet">
         <g id="arrow_out" transform="scale(0.3 0.3)">
          <a xlink:href="vx_2capmem_8h__incl_org.svg" target="_base">
           <rect id="button" ry="5" rx="5" y="6" x="6" height="38" width="38"
                fill="#f2f5e9" fill-opacity="0.5" stroke="#606060" stroke-width="1.0"/>
           <path id="arrow"
             d="M 11.500037,31.436501 C 11.940474,20.09759 22.043105,11.32322 32.158766,21.979434 L 37.068811,17.246167 C 37.068811,17.246167 37.088388,32 37.088388,32 L 22.160133,31.978069 C 22.160133,31.978069 26.997745,27.140456 26.997745,27.140456 C 18.528582,18.264221 13.291696,25.230495 11.500037,31.436501 z"
             style="fill:#404040;"/>
          </a>
         </g>
        </svg>
</svg>
