<?xml version="1.0" encoding="UTF-8" standalone="no"?>
<!DOCTYPE svg PUBLIC "-//W3C//DTD SVG 1.1//EN"
 "http://www.w3.org/Graphics/SVG/1.1/DTD/svg11.dtd">
<!-- Generated by graphviz version 2.43.0 (0)
 -->
<!-- Title: stadls::vx::detail::PlaybackProgramBuilderAdapter&lt; BuilderStorage, DoneType &gt; Pages: 1 -->
<svg width="522pt" height="65pt"
 viewBox="0.00 0.00 521.63 65.00" xmlns="http://www.w3.org/2000/svg" xmlns:xlink="http://www.w3.org/1999/xlink">
<g id="graph0" class="graph" transform="scale(1 1) rotate(0) translate(4 61)">
<title>stadls::vx::detail::PlaybackProgramBuilderAdapter&lt; BuilderStorage, DoneType &gt;</title>
<polygon fill="white" stroke="transparent" points="-4,4 -4,-61 517.63,-61 517.63,4 -4,4"/>
<!-- Node0 -->
<g id="node1" class="node">
<title>Node0</title>
<g id="a_node1"><a xlink:title="Sequential PlaybackProgram builder.">
<polygon fill="#bfbfbf" stroke="black" points="0,-6.5 0,-50.5 166.58,-50.5 166.58,-6.5 0,-6.5"/>
<text text-anchor="start" x="8" y="-37.5" font-family="Helvetica,sans-Serif" font-size="10.00">stadls::vx::detail</text>
<text text-anchor="start" x="8" y="-25.5" font-family="Helvetica,sans-Serif" font-size="10.00">::PlaybackProgramBuilderAdapter</text>
<text text-anchor="middle" x="83.29" y="-13.5" font-family="Helvetica,sans-Serif" font-size="10.00">&lt; BuilderStorage, DoneType &gt;</text>
</a>
</g>
</g>
<!-- Node1 -->
<g id="node2" class="node">
<title>Node1</title>
<g id="a_node2"><a xlink:href="classstadls_1_1vx_1_1detail_1_1_playback_program_builder_adapter.html" target="_top" xlink:title=" ">
<polygon fill="white" stroke="black" points="334.55,-0.5 334.55,-56.5 513.63,-56.5 513.63,-0.5 334.55,-0.5"/>
<text text-anchor="start" x="342.55" y="-43.5" font-family="Helvetica,sans-Serif" font-size="10.00">stadls::vx::detail</text>
<text text-anchor="start" x="342.55" y="-31.5" font-family="Helvetica,sans-Serif" font-size="10.00">::PlaybackProgramBuilderAdapter</text>
<text text-anchor="start" x="342.55" y="-19.5" font-family="Helvetica,sans-Serif" font-size="10.00">&lt; fisch::vx::PlaybackProgramBuilder,</text>
<text text-anchor="middle" x="424.09" y="-7.5" font-family="Helvetica,sans-Serif" font-size="10.00"> PlaybackProgram &gt;</text>
</a>
</g>
</g>
<!-- Node0&#45;&gt;Node1 -->
<g id="edge1" class="edge">
<title>Node0&#45;&gt;Node1</title>
<path fill="none" stroke="orange" stroke-dasharray="5,2" d="M177.02,-28.5C226.04,-28.5 285.92,-28.5 334.33,-28.5"/>
<polygon fill="orange" stroke="orange" points="176.74,-25 166.74,-28.5 176.74,-32 176.74,-25"/>
<text text-anchor="start" x="184.58" y="-43.5" font-family="Helvetica,sans-Serif" font-size="10.00"> &lt; fisch::vx::PlaybackProgram</text>
<text text-anchor="middle" x="250.57" y="-31.5" font-family="Helvetica,sans-Serif" font-size="10.00">Builder, PlaybackProgram &gt;</text>
</g>
</g>
</svg>
