<?xml version="1.0" encoding="UTF-8" standalone="no"?>
<!DOCTYPE svg PUBLIC "-//W3C//DTD SVG 1.1//EN"
 "http://www.w3.org/Graphics/SVG/1.1/DTD/svg11.dtd">
<!-- Generated by graphviz version 2.43.0 (0)
 -->
<!-- Title: stadls::vx::PlaybackProgram Pages: 1 -->
<svg width="328pt" height="257pt"
 viewBox="0.00 0.00 328.45 257.00" xmlns="http://www.w3.org/2000/svg" xmlns:xlink="http://www.w3.org/1999/xlink">
<g id="graph0" class="graph" transform="scale(1 1) rotate(0) translate(4 253)">
<title>stadls::vx::PlaybackProgram</title>
<polygon fill="white" stroke="transparent" points="-4,4 -4,-253 324.45,-253 324.45,4 -4,4"/>
<!-- Node1 -->
<g id="node1" class="node">
<title>Node1</title>
<g id="a_node1"><a xlink:title="Sequential stream of executable instructions for the executor and result&#45;container for event response...">
<polygon fill="#bfbfbf" stroke="black" points="51.25,-0.5 51.25,-20.5 193.38,-20.5 193.38,-0.5 51.25,-0.5"/>
<text text-anchor="middle" x="122.32" y="-7.5" font-family="Helvetica,sans-Serif" font-size="10.00">stadls::vx::PlaybackProgram</text>
</a>
</g>
</g>
<!-- Node2 -->
<g id="node2" class="node">
<title>Node2</title>
<g id="a_node2"><a xlink:title=" ">
<polygon fill="white" stroke="#bfbfbf" points="0,-69.5 0,-101.5 124.63,-101.5 124.63,-69.5 0,-69.5"/>
<text text-anchor="start" x="8" y="-88.5" font-family="Helvetica,sans-Serif" font-size="10.00">std::shared_ptr&lt; fisch</text>
<text text-anchor="middle" x="62.32" y="-76.5" font-family="Helvetica,sans-Serif" font-size="10.00">::vx::PlaybackProgram &gt;</text>
</a>
</g>
</g>
<!-- Node2&#45;&gt;Node1 -->
<g id="edge1" class="edge">
<title>Node2&#45;&gt;Node1</title>
<path fill="none" stroke="#9a32cd" stroke-dasharray="5,2" d="M75.28,-60.61C79.69,-53.35 84.94,-45.56 90.54,-39 96.32,-32.23 103.81,-25.67 110.06,-20.65"/>
<polygon fill="#9a32cd" stroke="#9a32cd" points="72.17,-58.98 70.16,-69.39 78.22,-62.51 72.17,-58.98"/>
<text text-anchor="middle" x="130.2" y="-42" font-family="Helvetica,sans-Serif" font-size="10.00"> m_program_impl</text>
</g>
<!-- Node3 -->
<g id="node3" class="node">
<title>Node3</title>
<g id="a_node3"><a xlink:title="STL class.">
<polygon fill="white" stroke="#bfbfbf" points="17.3,-159.5 17.3,-179.5 123.33,-179.5 123.33,-159.5 17.3,-159.5"/>
<text text-anchor="middle" x="70.32" y="-166.5" font-family="Helvetica,sans-Serif" font-size="10.00">std::shared_ptr&lt; T &gt;</text>
</a>
</g>
</g>
<!-- Node3&#45;&gt;Node2 -->
<g id="edge2" class="edge">
<title>Node3&#45;&gt;Node2</title>
<path fill="none" stroke="orange" stroke-dasharray="5,2" d="M26.71,-154.54C21.17,-150.98 16.22,-146.53 12.73,-141 7.75,-133.11 8.35,-128.24 12.73,-120 16.68,-112.57 23.09,-106.49 30.02,-101.64"/>
<polygon fill="orange" stroke="orange" points="25.32,-157.77 35.79,-159.45 28.65,-151.61 25.32,-157.77"/>
<text text-anchor="middle" x="83.61" y="-127.5" font-family="Helvetica,sans-Serif" font-size="10.00"> &lt; fisch::vx::PlaybackProgram &gt;</text>
</g>
<!-- Node4 -->
<g id="node4" class="node">
<title>Node4</title>
<g id="a_node4"><a xlink:title=" ">
<polygon fill="white" stroke="#bfbfbf" points="122.82,-228.5 122.82,-248.5 151.82,-248.5 151.82,-228.5 122.82,-228.5"/>
<text text-anchor="middle" x="136.87" y="-235.5" font-family="Helvetica,sans-Serif" font-size="10.00">T</text>
</a>
</g>
</g>
<!-- Node4&#45;&gt;Node3 -->
<g id="edge3" class="edge">
<title>Node4&#45;&gt;Node3</title>
<path fill="none" stroke="#9a32cd" stroke-dasharray="5,2" d="M120.91,-221.1C107.94,-208.12 90.3,-190.48 79.64,-179.82"/>
<polygon fill="#9a32cd" stroke="#9a32cd" points="118.73,-223.87 128.28,-228.46 123.68,-218.92 118.73,-223.87"/>
<text text-anchor="middle" x="115.54" y="-201" font-family="Helvetica,sans-Serif" font-size="10.00"> ptr</text>
</g>
<!-- Node5 -->
<g id="node5" class="node">
<title>Node5</title>
<g id="a_node5"><a xlink:title="STL class.">
<polygon fill="white" stroke="#bfbfbf" points="162.58,-120.5 162.58,-140.5 248.05,-140.5 248.05,-120.5 162.58,-120.5"/>
<text text-anchor="middle" x="205.32" y="-127.5" font-family="Helvetica,sans-Serif" font-size="10.00">std::vector&lt; T &gt;</text>
</a>
</g>
</g>
<!-- Node4&#45;&gt;Node5 -->
<g id="edge5" class="edge">
<title>Node4&#45;&gt;Node5</title>
<path fill="none" stroke="#9a32cd" stroke-dasharray="5,2" d="M148.7,-219.75C163.37,-196.89 188.3,-158.02 199.53,-140.51"/>
<polygon fill="#9a32cd" stroke="#9a32cd" points="145.57,-218.16 143.11,-228.46 151.46,-221.94 145.57,-218.16"/>
<text text-anchor="middle" x="182.99" y="-201" font-family="Helvetica,sans-Serif" font-size="10.00"> elements</text>
</g>
<!-- Node5&#45;&gt;Node1 -->
<g id="edge4" class="edge">
<title>Node5&#45;&gt;Node1</title>
<path fill="none" stroke="#9a32cd" stroke-dasharray="5,2" d="M201.27,-110.32C196.31,-90.59 186.25,-59.86 168.32,-39 161.64,-31.24 152.21,-25.07 143.63,-20.56"/>
<polygon fill="#9a32cd" stroke="#9a32cd" points="197.91,-111.32 203.58,-120.27 204.73,-109.74 197.91,-111.32"/>
<text text-anchor="middle" x="259.88" y="-82.5" font-family="Helvetica,sans-Serif" font-size="10.00"> PlaybackProgramExecutor</text>
</g>
</g>
</svg>
