<?xml version="1.0" encoding="UTF-8" standalone="no"?>
<!DOCTYPE svg PUBLIC "-//W3C//DTD SVG 1.1//EN"
 "http://www.w3.org/Graphics/SVG/1.1/DTD/svg11.dtd">
<!-- Generated by graphviz version 2.43.0 (0)
 -->
<!-- Title: /jenkins/jenlib_workspaces_f9/bld_nightly&#45;haldls.YmxkX25pZ2h0bHktaGFsZGxzIzY1NQ.x/haldls/include/stadls/vx/decode.h Pages: 1 -->
<svg width="1228pt" height="191pt"
 viewBox="0.00 0.00 1227.77 191.00" xmlns="http://www.w3.org/2000/svg" xmlns:xlink="http://www.w3.org/1999/xlink">
<g id="graph0" class="graph" transform="scale(1 1) rotate(0) translate(4 187)">
<title>/jenkins/jenlib_workspaces_f9/bld_nightly&#45;haldls.YmxkX25pZ2h0bHktaGFsZGxzIzY1NQ.x/haldls/include/stadls/vx/decode.h</title>
<polygon fill="white" stroke="transparent" points="-4,4 -4,-187 1223.77,-187 1223.77,4 -4,4"/>
<!-- Node0 -->
<g id="node1" class="node">
<title>Node0</title>
<g id="a_node1"><a xlink:title=" ">
<polygon fill="#bfbfbf" stroke="black" points="411.7,-126.5 411.7,-182.5 591.06,-182.5 591.06,-126.5 411.7,-126.5"/>
<text text-anchor="start" x="419.7" y="-169.5" font-family="Helvetica,sans-Serif" font-size="10.00">/jenkins/jenlib_workspaces</text>
<text text-anchor="start" x="419.7" y="-157.5" font-family="Helvetica,sans-Serif" font-size="10.00">_f9/bld_nightly&#45;haldls.YmxkX25p</text>
<text text-anchor="start" x="419.7" y="-145.5" font-family="Helvetica,sans-Serif" font-size="10.00">Z2h0bHktaGFsZGxzIzY1NQ.x/haldls</text>
<text text-anchor="middle" x="501.38" y="-133.5" font-family="Helvetica,sans-Serif" font-size="10.00">/include/stadls/vx/decode.h</text>
</a>
</g>
</g>
<!-- Node1 -->
<g id="node2" class="node">
<title>Node1</title>
<g id="a_node2"><a xlink:title=" ">
<polygon fill="white" stroke="#bfbfbf" points="0,-63.5 0,-83.5 38.77,-83.5 38.77,-63.5 0,-63.5"/>
<text text-anchor="middle" x="19.38" y="-70.5" font-family="Helvetica,sans-Serif" font-size="10.00">limits</text>
</a>
</g>
</g>
<!-- Node0&#45;&gt;Node1 -->
<g id="edge1" class="edge">
<title>Node0&#45;&gt;Node1</title>
<path fill="none" stroke="midnightblue" d="M411.3,-150.57C318.07,-145.33 169.3,-130.71 47.38,-90 45.75,-89.46 44.11,-88.82 42.47,-88.11"/>
<polygon fill="midnightblue" stroke="midnightblue" points="43.96,-84.94 33.45,-83.6 40.83,-91.2 43.96,-84.94"/>
</g>
<!-- Node2 -->
<g id="node3" class="node">
<title>Node2</title>
<g id="a_node3"><a xlink:title=" ">
<polygon fill="white" stroke="#bfbfbf" points="56.44,-63.5 56.44,-83.5 106.33,-83.5 106.33,-63.5 56.44,-63.5"/>
<text text-anchor="middle" x="81.38" y="-70.5" font-family="Helvetica,sans-Serif" font-size="10.00">random</text>
</a>
</g>
</g>
<!-- Node0&#45;&gt;Node2 -->
<g id="edge2" class="edge">
<title>Node0&#45;&gt;Node2</title>
<path fill="none" stroke="midnightblue" d="M411.32,-145.5C332.09,-136.86 214.3,-120.1 115.38,-90 113.08,-89.3 110.73,-88.48 108.39,-87.58"/>
<polygon fill="midnightblue" stroke="midnightblue" points="109.61,-84.29 99.04,-83.62 106.88,-90.74 109.61,-84.29"/>
</g>
<!-- Node3 -->
<g id="node4" class="node">
<title>Node3</title>
<g id="a_node4"><a xlink:title=" ">
<polygon fill="white" stroke="#bfbfbf" points="124.6,-63.5 124.6,-83.5 226.17,-83.5 226.17,-63.5 124.6,-63.5"/>
<text text-anchor="middle" x="175.38" y="-70.5" font-family="Helvetica,sans-Serif" font-size="10.00">fisch/vx/container.h</text>
</a>
</g>
</g>
<!-- Node0&#45;&gt;Node3 -->
<g id="edge3" class="edge">
<title>Node0&#45;&gt;Node3</title>
<path fill="none" stroke="midnightblue" d="M411.4,-132.46C359.82,-120.28 293.9,-104.54 235.38,-90 230.36,-88.75 225.1,-87.42 219.87,-86.09"/>
<polygon fill="midnightblue" stroke="midnightblue" points="220.49,-82.64 209.94,-83.54 218.76,-89.42 220.49,-82.64"/>
</g>
<!-- Node4 -->
<g id="node5" class="node">
<title>Node4</title>
<g id="a_node5"><a xlink:title=" ">
<polygon fill="white" stroke="#bfbfbf" points="244.44,-63.5 244.44,-83.5 314.33,-83.5 314.33,-63.5 244.44,-63.5"/>
<text text-anchor="middle" x="279.38" y="-70.5" font-family="Helvetica,sans-Serif" font-size="10.00">fisch/vx/fill.h</text>
</a>
</g>
</g>
<!-- Node0&#45;&gt;Node4 -->
<g id="edge4" class="edge">
<title>Node0&#45;&gt;Node4</title>
<path fill="none" stroke="midnightblue" d="M424.7,-126.39C393.01,-115.17 355.91,-101.99 322.38,-90 319.65,-89.02 316.82,-88.01 313.98,-86.99"/>
<polygon fill="midnightblue" stroke="midnightblue" points="314.98,-83.63 304.39,-83.54 312.61,-90.22 314.98,-83.63"/>
</g>
<!-- Node5 -->
<g id="node6" class="node">
<title>Node5</title>
<g id="a_node6"><a xlink:title=" ">
<polygon fill="white" stroke="#bfbfbf" points="331.87,-57.5 331.87,-89.5 432.89,-89.5 432.89,-57.5 331.87,-57.5"/>
<text text-anchor="start" x="339.87" y="-76.5" font-family="Helvetica,sans-Serif" font-size="10.00">halco/hicann&#45;dls/vx</text>
<text text-anchor="middle" x="382.38" y="-64.5" font-family="Helvetica,sans-Serif" font-size="10.00">/capmem.h</text>
</a>
</g>
</g>
<!-- Node0&#45;&gt;Node5 -->
<g id="edge5" class="edge">
<title>Node0&#45;&gt;Node5</title>
<path fill="none" stroke="midnightblue" d="M460.43,-126.31C445.06,-116.11 427.86,-104.69 413.53,-95.18"/>
<polygon fill="midnightblue" stroke="midnightblue" points="415.28,-92.14 405.01,-89.52 411.41,-97.97 415.28,-92.14"/>
</g>
<!-- Node6 -->
<g id="node7" class="node">
<title>Node6</title>
<g id="a_node7"><a xlink:title=" ">
<polygon fill="white" stroke="#bfbfbf" points="450.87,-57.5 450.87,-89.5 551.89,-89.5 551.89,-57.5 450.87,-57.5"/>
<text text-anchor="start" x="458.87" y="-76.5" font-family="Helvetica,sans-Serif" font-size="10.00">halco/hicann&#45;dls/vx</text>
<text text-anchor="middle" x="501.38" y="-64.5" font-family="Helvetica,sans-Serif" font-size="10.00">/ppu.h</text>
</a>
</g>
</g>
<!-- Node0&#45;&gt;Node6 -->
<g id="edge6" class="edge">
<title>Node0&#45;&gt;Node6</title>
<path fill="none" stroke="midnightblue" d="M501.38,-126.31C501.38,-117.65 501.38,-108.11 501.38,-99.6"/>
<polygon fill="midnightblue" stroke="midnightblue" points="504.88,-99.52 501.38,-89.52 497.88,-99.52 504.88,-99.52"/>
</g>
<!-- Node7 -->
<g id="node8" class="node">
<title>Node7</title>
<g id="a_node8"><a xlink:title=" ">
<polygon fill="white" stroke="#bfbfbf" points="570.21,-63.5 570.21,-83.5 674.56,-83.5 674.56,-63.5 570.21,-63.5"/>
<text text-anchor="middle" x="622.38" y="-70.5" font-family="Helvetica,sans-Serif" font-size="10.00">haldls/vx/capmem.h</text>
</a>
</g>
</g>
<!-- Node0&#45;&gt;Node7 -->
<g id="edge7" class="edge">
<title>Node0&#45;&gt;Node7</title>
<path fill="none" stroke="midnightblue" d="M543.02,-126.31C562.11,-113.85 583.98,-99.57 599.92,-89.17"/>
<polygon fill="midnightblue" stroke="midnightblue" points="602.1,-91.93 608.56,-83.53 598.27,-86.06 602.1,-91.93"/>
</g>
<!-- Node8 -->
<g id="node9" class="node">
<title>Node8</title>
<g id="a_node9"><a xlink:title=" ">
<polygon fill="white" stroke="#bfbfbf" points="692.21,-63.5 692.21,-83.5 796.56,-83.5 796.56,-63.5 692.21,-63.5"/>
<text text-anchor="middle" x="744.38" y="-70.5" font-family="Helvetica,sans-Serif" font-size="10.00">haldls/vx/common.h</text>
</a>
</g>
</g>
<!-- Node0&#45;&gt;Node8 -->
<g id="edge8" class="edge">
<title>Node0&#45;&gt;Node8</title>
<path fill="none" stroke="midnightblue" d="M584.67,-126.42C626.26,-112.9 674.49,-97.22 706.98,-86.66"/>
<polygon fill="midnightblue" stroke="midnightblue" points="708.1,-89.97 716.53,-83.55 705.94,-83.32 708.1,-89.97"/>
</g>
<!-- Node9 -->
<g id="node10" class="node">
<title>Node9</title>
<g id="a_node10"><a xlink:title=" ">
<polygon fill="white" stroke="#bfbfbf" points="814.32,-63.5 814.32,-83.5 896.45,-83.5 896.45,-63.5 814.32,-63.5"/>
<text text-anchor="middle" x="855.38" y="-70.5" font-family="Helvetica,sans-Serif" font-size="10.00">haldls/vx/jtag.h</text>
</a>
</g>
</g>
<!-- Node0&#45;&gt;Node9 -->
<g id="edge9" class="edge">
<title>Node0&#45;&gt;Node9</title>
<path fill="none" stroke="midnightblue" d="M591.36,-137.03C652.14,-125.33 734,-108.47 805.38,-90 809.49,-88.94 813.76,-87.75 818,-86.51"/>
<polygon fill="midnightblue" stroke="midnightblue" points="819.18,-89.81 827.75,-83.58 817.16,-83.11 819.18,-89.81"/>
</g>
<!-- Node10 -->
<g id="node11" class="node">
<title>Node10</title>
<g id="a_node11"><a xlink:title=" ">
<polygon fill="white" stroke="#bfbfbf" points="914.54,-63.5 914.54,-83.5 1002.22,-83.5 1002.22,-63.5 914.54,-63.5"/>
<text text-anchor="middle" x="958.38" y="-70.5" font-family="Helvetica,sans-Serif" font-size="10.00">haldls/vx/traits.h</text>
</a>
</g>
</g>
<!-- Node0&#45;&gt;Node10 -->
<g id="edge10" class="edge">
<title>Node0&#45;&gt;Node10</title>
<path fill="none" stroke="midnightblue" d="M591.07,-142.77C673.35,-132.13 798.34,-113.96 905.38,-90 910.16,-88.93 915.14,-87.67 920.05,-86.34"/>
<polygon fill="midnightblue" stroke="midnightblue" points="921.28,-89.63 929.95,-83.55 919.38,-82.89 921.28,-89.63"/>
</g>
<!-- Node11 -->
<g id="node12" class="node">
<title>Node11</title>
<g id="a_node12"><a xlink:href="visitors_8h.html" target="_top" xlink:title=" ">
<polygon fill="white" stroke="black" points="1020.21,-63.5 1020.21,-83.5 1104.55,-83.5 1104.55,-63.5 1020.21,-63.5"/>
<text text-anchor="middle" x="1062.38" y="-70.5" font-family="Helvetica,sans-Serif" font-size="10.00">stadls/visitors.h</text>
</a>
</g>
</g>
<!-- Node0&#45;&gt;Node11 -->
<g id="edge11" class="edge">
<title>Node0&#45;&gt;Node11</title>
<path fill="none" stroke="midnightblue" d="M591.52,-146.97C694.04,-138.46 866.07,-120.89 1011.38,-90 1016.11,-88.99 1021.04,-87.75 1025.88,-86.42"/>
<polygon fill="midnightblue" stroke="midnightblue" points="1026.99,-89.74 1035.61,-83.58 1025.03,-83.02 1026.99,-89.74"/>
</g>
<!-- Node12 -->
<g id="node13" class="node">
<title>Node12</title>
<g id="a_node13"><a xlink:title=" ">
<polygon fill="white" stroke="#bfbfbf" points="906.83,-0.5 906.83,-20.5 963.94,-20.5 963.94,-0.5 906.83,-0.5"/>
<text text-anchor="middle" x="935.38" y="-7.5" font-family="Helvetica,sans-Serif" font-size="10.00">algorithm</text>
</a>
</g>
</g>
<!-- Node11&#45;&gt;Node12 -->
<g id="edge12" class="edge">
<title>Node11&#45;&gt;Node12</title>
<path fill="none" stroke="midnightblue" d="M1043.64,-63.5C1022.45,-53.32 987.71,-36.63 963.31,-24.91"/>
<polygon fill="midnightblue" stroke="midnightblue" points="964.73,-21.71 954.2,-20.54 961.7,-28.02 964.73,-21.71"/>
</g>
<!-- Node13 -->
<g id="node14" class="node">
<title>Node13</title>
<g id="a_node14"><a xlink:title=" ">
<polygon fill="white" stroke="#bfbfbf" points="981.99,-0.5 981.99,-20.5 1020.77,-20.5 1020.77,-0.5 981.99,-0.5"/>
<text text-anchor="middle" x="1001.38" y="-7.5" font-family="Helvetica,sans-Serif" font-size="10.00">array</text>
</a>
</g>
</g>
<!-- Node11&#45;&gt;Node13 -->
<g id="edge13" class="edge">
<title>Node11&#45;&gt;Node13</title>
<path fill="none" stroke="midnightblue" d="M1053.38,-63.5C1044.01,-54.13 1029.13,-39.25 1017.69,-27.8"/>
<polygon fill="midnightblue" stroke="midnightblue" points="1019.97,-25.13 1010.42,-20.54 1015.02,-30.08 1019.97,-25.13"/>
</g>
<!-- Node14 -->
<g id="node15" class="node">
<title>Node14</title>
<g id="a_node15"><a xlink:title=" ">
<polygon fill="white" stroke="#bfbfbf" points="1038.83,-0.5 1038.83,-20.5 1085.94,-20.5 1085.94,-0.5 1038.83,-0.5"/>
<text text-anchor="middle" x="1062.38" y="-7.5" font-family="Helvetica,sans-Serif" font-size="10.00">iterator</text>
</a>
</g>
</g>
<!-- Node11&#45;&gt;Node14 -->
<g id="edge14" class="edge">
<title>Node11&#45;&gt;Node14</title>
<path fill="none" stroke="midnightblue" d="M1062.38,-63.5C1062.38,-54.94 1062.38,-41.78 1062.38,-30.85"/>
<polygon fill="midnightblue" stroke="midnightblue" points="1065.88,-30.54 1062.38,-20.54 1058.88,-30.54 1065.88,-30.54"/>
</g>
<!-- Node15 -->
<g id="node16" class="node">
<title>Node15</title>
<g id="a_node16"><a xlink:title=" ">
<polygon fill="white" stroke="#bfbfbf" points="1103.99,-0.5 1103.99,-20.5 1162.78,-20.5 1162.78,-0.5 1103.99,-0.5"/>
<text text-anchor="middle" x="1133.38" y="-7.5" font-family="Helvetica,sans-Serif" font-size="10.00">stdexcept</text>
</a>
</g>
</g>
<!-- Node11&#45;&gt;Node15 -->
<g id="edge15" class="edge">
<title>Node11&#45;&gt;Node15</title>
<path fill="none" stroke="midnightblue" d="M1072.86,-63.5C1083.98,-53.95 1101.75,-38.67 1115.17,-27.15"/>
<polygon fill="midnightblue" stroke="midnightblue" points="1117.56,-29.71 1122.86,-20.54 1113,-24.4 1117.56,-29.71"/>
</g>
<!-- Node16 -->
<g id="node17" class="node">
<title>Node16</title>
<g id="a_node17"><a xlink:title=" ">
<polygon fill="white" stroke="#bfbfbf" points="1181,-0.5 1181,-20.5 1219.77,-20.5 1219.77,-0.5 1181,-0.5"/>
<text text-anchor="middle" x="1200.38" y="-7.5" font-family="Helvetica,sans-Serif" font-size="10.00">utility</text>
</a>
</g>
</g>
<!-- Node11&#45;&gt;Node16 -->
<g id="edge16" class="edge">
<title>Node11&#45;&gt;Node16</title>
<path fill="none" stroke="midnightblue" d="M1082.74,-63.5C1106.25,-53.11 1145.07,-35.95 1171.65,-24.2"/>
<polygon fill="midnightblue" stroke="midnightblue" points="1173.1,-27.39 1180.83,-20.14 1170.27,-20.98 1173.1,-27.39"/>
</g>
</g>
</svg>
