<?xml version="1.0" encoding="UTF-8" standalone="no"?>
<!DOCTYPE svg PUBLIC "-//W3C//DTD SVG 1.1//EN"
 "http://www.w3.org/Graphics/SVG/1.1/DTD/svg11.dtd">
<!-- Generated by graphviz version 2.43.0 (0)
 -->
<!-- Title: /jenkins/jenlib_workspaces_f9/bld_nightly&#45;haldls.YmxkX25pZ2h0bHktaGFsZGxzIzY1NQ.x/haldls/include/stadls/vx/dumper.h Pages: 1 -->
<svg width="2431pt" height="286pt"
 viewBox="0.00 0.00 2430.51 285.55" xmlns="http://www.w3.org/2000/svg" xmlns:xlink="http://www.w3.org/1999/xlink">
<g id="graph0" class="graph" transform="scale(1 1) rotate(0) translate(4 281.55)">
<title>/jenkins/jenlib_workspaces_f9/bld_nightly&#45;haldls.YmxkX25pZ2h0bHktaGFsZGxzIzY1NQ.x/haldls/include/stadls/vx/dumper.h</title>
<polygon fill="white" stroke="transparent" points="-4,4 -4,-281.55 2426.51,-281.55 2426.51,4 -4,4"/>
<!-- Node0 -->
<g id="node1" class="node">
<title>Node0</title>
<g id="a_node1"><a xlink:title=" ">
<polygon fill="#bfbfbf" stroke="black" points="1176.37,-221.05 1176.37,-277.05 1355.73,-277.05 1355.73,-221.05 1176.37,-221.05"/>
<text text-anchor="start" x="1184.37" y="-264.05" font-family="Helvetica,sans-Serif" font-size="10.00">/jenkins/jenlib_workspaces</text>
<text text-anchor="start" x="1184.37" y="-252.05" font-family="Helvetica,sans-Serif" font-size="10.00">_f9/bld_nightly&#45;haldls.YmxkX25p</text>
<text text-anchor="start" x="1184.37" y="-240.05" font-family="Helvetica,sans-Serif" font-size="10.00">Z2h0bHktaGFsZGxzIzY1NQ.x/haldls</text>
<text text-anchor="middle" x="1266.05" y="-228.05" font-family="Helvetica,sans-Serif" font-size="10.00">/include/stadls/vx/dumper.h</text>
</a>
</g>
</g>
<!-- Node1 -->
<g id="node2" class="node">
<title>Node1</title>
<g id="a_node2"><a xlink:title=" ">
<polygon fill="white" stroke="#bfbfbf" points="0,-65.05 0,-85.05 52.11,-85.05 52.11,-65.05 0,-65.05"/>
<text text-anchor="middle" x="26.05" y="-72.05" font-family="Helvetica,sans-Serif" font-size="10.00">memory</text>
</a>
</g>
</g>
<!-- Node0&#45;&gt;Node1 -->
<g id="edge1" class="edge">
<title>Node0&#45;&gt;Node1</title>
<path fill="none" stroke="midnightblue" d="M1176.22,-245.59C933.19,-238.52 274.75,-216.63 182.05,-184.55 124.7,-164.71 69.21,-117.35 42.53,-92.27"/>
<polygon fill="midnightblue" stroke="midnightblue" points="44.85,-89.65 35.21,-85.26 40.01,-94.71 44.85,-89.65"/>
</g>
<!-- Node2 -->
<g id="node3" class="node">
<title>Node2</title>
<g id="a_node3"><a xlink:title=" ">
<polygon fill="white" stroke="#bfbfbf" points="1036.67,-146.05 1036.67,-166.05 1075.44,-166.05 1075.44,-146.05 1036.67,-146.05"/>
<text text-anchor="middle" x="1056.05" y="-153.05" font-family="Helvetica,sans-Serif" font-size="10.00">utility</text>
</a>
</g>
</g>
<!-- Node0&#45;&gt;Node2 -->
<g id="edge2" class="edge">
<title>Node0&#45;&gt;Node2</title>
<path fill="none" stroke="midnightblue" d="M1175.94,-225.28C1145.45,-215.36 1112.05,-201.95 1084.05,-184.55 1079.26,-181.57 1074.63,-177.64 1070.57,-173.68"/>
<polygon fill="midnightblue" stroke="midnightblue" points="1072.98,-171.14 1063.55,-166.29 1067.9,-175.95 1072.98,-171.14"/>
</g>
<!-- Node3 -->
<g id="node4" class="node">
<title>Node3</title>
<g id="a_node4"><a xlink:title=" ">
<polygon fill="white" stroke="#bfbfbf" points="1093.05,-146.05 1093.05,-166.05 1139.05,-166.05 1139.05,-146.05 1093.05,-146.05"/>
<text text-anchor="middle" x="1116.05" y="-153.05" font-family="Helvetica,sans-Serif" font-size="10.00">variant</text>
</a>
</g>
</g>
<!-- Node0&#45;&gt;Node3 -->
<g id="edge3" class="edge">
<title>Node0&#45;&gt;Node3</title>
<path fill="none" stroke="midnightblue" d="M1209.96,-221.03C1189.87,-210.54 1167.42,-197.85 1148.05,-184.55 1143.07,-181.13 1137.98,-177.06 1133.36,-173.11"/>
<polygon fill="midnightblue" stroke="midnightblue" points="1135.49,-170.33 1125.69,-166.31 1130.85,-175.56 1135.49,-170.33"/>
</g>
<!-- Node4 -->
<g id="node5" class="node">
<title>Node4</title>
<g id="a_node5"><a xlink:title=" ">
<polygon fill="white" stroke="#bfbfbf" points="70.44,-65.05 70.44,-85.05 113.67,-85.05 113.67,-65.05 70.44,-65.05"/>
<text text-anchor="middle" x="92.05" y="-72.05" font-family="Helvetica,sans-Serif" font-size="10.00">vector</text>
</a>
</g>
</g>
<!-- Node0&#45;&gt;Node4 -->
<g id="edge4" class="edge">
<title>Node0&#45;&gt;Node4</title>
<path fill="none" stroke="midnightblue" d="M1176.25,-245.98C974.11,-240.66 488.69,-224.06 330.05,-184.55 246.86,-163.83 156.93,-114.66 115.45,-90.28"/>
<polygon fill="midnightblue" stroke="midnightblue" points="117.05,-87.15 106.66,-85.05 113.47,-93.17 117.05,-87.15"/>
</g>
<!-- Node5 -->
<g id="node6" class="node">
<title>Node5</title>
<g id="a_node6"><a xlink:title=" ">
<polygon fill="white" stroke="#bfbfbf" points="1157.54,-140.05 1157.54,-172.05 1258.56,-172.05 1258.56,-140.05 1157.54,-140.05"/>
<text text-anchor="start" x="1165.54" y="-159.05" font-family="Helvetica,sans-Serif" font-size="10.00">halco/hicann&#45;dls/vx</text>
<text text-anchor="middle" x="1208.05" y="-147.05" font-family="Helvetica,sans-Serif" font-size="10.00">/barrier.h</text>
</a>
</g>
</g>
<!-- Node0&#45;&gt;Node5 -->
<g id="edge5" class="edge">
<title>Node0&#45;&gt;Node5</title>
<path fill="none" stroke="midnightblue" d="M1248.65,-220.75C1240.57,-208.07 1231.04,-193.13 1223.25,-180.9"/>
<polygon fill="midnightblue" stroke="midnightblue" points="1226.01,-178.72 1217.69,-172.17 1220.11,-182.48 1226.01,-178.72"/>
</g>
<!-- Node6 -->
<g id="node7" class="node">
<title>Node6</title>
<g id="a_node7"><a xlink:title=" ">
<polygon fill="white" stroke="#bfbfbf" points="1276.61,-146.05 1276.61,-166.05 1371.5,-166.05 1371.5,-146.05 1276.61,-146.05"/>
<text text-anchor="middle" x="1324.05" y="-153.05" font-family="Helvetica,sans-Serif" font-size="10.00">haldls/vx/barrier.h</text>
</a>
</g>
</g>
<!-- Node0&#45;&gt;Node6 -->
<g id="edge6" class="edge">
<title>Node0&#45;&gt;Node6</title>
<path fill="none" stroke="midnightblue" d="M1283.45,-220.75C1292.91,-205.92 1304.33,-188 1312.64,-174.95"/>
<polygon fill="midnightblue" stroke="midnightblue" points="1315.65,-176.74 1318.08,-166.43 1309.75,-172.98 1315.65,-176.74"/>
</g>
<!-- Node7 -->
<g id="node8" class="node">
<title>Node7</title>
<g id="a_node8"><a xlink:title=" ">
<polygon fill="white" stroke="#bfbfbf" points="1389.49,-146.05 1389.49,-166.05 1496.62,-166.05 1496.62,-146.05 1389.49,-146.05"/>
<text text-anchor="middle" x="1443.05" y="-153.05" font-family="Helvetica,sans-Serif" font-size="10.00">haldls/vx/container.h</text>
</a>
</g>
</g>
<!-- Node0&#45;&gt;Node7 -->
<g id="edge7" class="edge">
<title>Node0&#45;&gt;Node7</title>
<path fill="none" stroke="midnightblue" d="M1318.68,-221C1350.67,-204.55 1390.18,-184.24 1415.97,-170.98"/>
<polygon fill="midnightblue" stroke="midnightblue" points="1417.84,-173.95 1425.14,-166.26 1414.64,-167.72 1417.84,-173.95"/>
</g>
<!-- Node8 -->
<g id="node9" class="node">
<title>Node8</title>
<g id="a_node9"><a xlink:title=" ">
<polygon fill="white" stroke="#bfbfbf" points="131.55,-65.05 131.55,-85.05 212.56,-85.05 212.56,-65.05 131.55,-65.05"/>
<text text-anchor="middle" x="172.05" y="-72.05" font-family="Helvetica,sans-Serif" font-size="10.00">hate/visibility.h</text>
</a>
</g>
</g>
<!-- Node0&#45;&gt;Node8 -->
<g id="edge8" class="edge">
<title>Node0&#45;&gt;Node8</title>
<path fill="none" stroke="midnightblue" d="M1176.31,-245.5C1039.97,-240.4 772.95,-225.66 550.05,-184.55 421.05,-160.76 272.76,-111.56 206.8,-88.5"/>
<polygon fill="midnightblue" stroke="midnightblue" points="207.9,-85.18 197.31,-85.16 205.58,-91.78 207.9,-85.18"/>
</g>
<!-- Node9 -->
<g id="node10" class="node">
<title>Node9</title>
<g id="a_node10"><a xlink:title=" ">
<polygon fill="white" stroke="#bfbfbf" points="1514.77,-146.05 1514.77,-166.05 1611.34,-166.05 1611.34,-146.05 1514.77,-146.05"/>
<text text-anchor="middle" x="1563.05" y="-153.05" font-family="Helvetica,sans-Serif" font-size="10.00">lola/vx/container.h</text>
</a>
</g>
</g>
<!-- Node0&#45;&gt;Node9 -->
<g id="edge9" class="edge">
<title>Node0&#45;&gt;Node9</title>
<path fill="none" stroke="midnightblue" d="M1355.93,-228.58C1401.54,-217.62 1457.44,-202.52 1506.05,-184.55 1516.56,-180.67 1527.75,-175.51 1537.4,-170.72"/>
<polygon fill="midnightblue" stroke="midnightblue" points="1539.14,-173.76 1546.46,-166.1 1535.96,-167.52 1539.14,-173.76"/>
</g>
<!-- Node10 -->
<g id="node11" class="node">
<title>Node10</title>
<g id="a_node11"><a xlink:title=" ">
<polygon fill="white" stroke="#bfbfbf" points="1629.69,-146.05 1629.69,-166.05 1772.42,-166.05 1772.42,-146.05 1629.69,-146.05"/>
<text text-anchor="middle" x="1701.05" y="-153.05" font-family="Helvetica,sans-Serif" font-size="10.00">boost/hana/adapt_struct.hpp</text>
</a>
</g>
</g>
<!-- Node0&#45;&gt;Node10 -->
<g id="edge10" class="edge">
<title>Node0&#45;&gt;Node10</title>
<path fill="none" stroke="midnightblue" d="M1355.96,-235.73C1428,-224.95 1531.33,-207.43 1620.05,-184.55 1636.06,-180.42 1653.46,-174.69 1668.02,-169.52"/>
<polygon fill="midnightblue" stroke="midnightblue" points="1669.37,-172.75 1677.59,-166.06 1666.99,-166.17 1669.37,-172.75"/>
</g>
<!-- Node11 -->
<g id="node12" class="node">
<title>Node11</title>
<g id="a_node12"><a xlink:title=" ">
<polygon fill="white" stroke="#bfbfbf" points="1790.37,-128.05 1790.37,-184.05 1969.73,-184.05 1969.73,-128.05 1790.37,-128.05"/>
<text text-anchor="start" x="1798.37" y="-171.05" font-family="Helvetica,sans-Serif" font-size="10.00">/jenkins/jenlib_workspaces</text>
<text text-anchor="start" x="1798.37" y="-159.05" font-family="Helvetica,sans-Serif" font-size="10.00">_f9/bld_nightly&#45;haldls.YmxkX25p</text>
<text text-anchor="start" x="1798.37" y="-147.05" font-family="Helvetica,sans-Serif" font-size="10.00">Z2h0bHktaGFsZGxzIzY1NQ.x/haldls</text>
<text text-anchor="middle" x="1880.05" y="-135.05" font-family="Helvetica,sans-Serif" font-size="10.00">/include/haldls/vx/common.h</text>
</a>
</g>
</g>
<!-- Node0&#45;&gt;Node11 -->
<g id="edge11" class="edge">
<title>Node0&#45;&gt;Node11</title>
<path fill="none" stroke="midnightblue" d="M1356.01,-241.03C1457.09,-232.22 1626.06,-214.74 1780.22,-184.6"/>
<polygon fill="midnightblue" stroke="midnightblue" points="1781.22,-187.97 1790.35,-182.59 1779.86,-181.1 1781.22,-187.97"/>
</g>
<!-- Node12 -->
<g id="node13" class="node">
<title>Node12</title>
<g id="a_node13"><a xlink:title=" ">
<polygon fill="white" stroke="#bfbfbf" points="1987.37,-128.05 1987.37,-184.05 2166.73,-184.05 2166.73,-128.05 1987.37,-128.05"/>
<text text-anchor="start" x="1995.37" y="-171.05" font-family="Helvetica,sans-Serif" font-size="10.00">/jenkins/jenlib_workspaces</text>
<text text-anchor="start" x="1995.37" y="-159.05" font-family="Helvetica,sans-Serif" font-size="10.00">_f9/bld_nightly&#45;haldls.YmxkX25p</text>
<text text-anchor="start" x="1995.37" y="-147.05" font-family="Helvetica,sans-Serif" font-size="10.00">Z2h0bHktaGFsZGxzIzY1NQ.x/haldls</text>
<text text-anchor="middle" x="2077.05" y="-135.05" font-family="Helvetica,sans-Serif" font-size="10.00">/include/haldls/vx/neuron.h</text>
</a>
</g>
</g>
<!-- Node0&#45;&gt;Node12 -->
<g id="edge12" class="edge">
<title>Node0&#45;&gt;Node12</title>
<path fill="none" stroke="midnightblue" d="M1355.97,-245.37C1489.9,-240.19 1749.59,-225.61 1977.1,-184.79"/>
<polygon fill="midnightblue" stroke="midnightblue" points="1978.01,-188.19 1987.22,-182.96 1976.76,-181.3 1978.01,-188.19"/>
</g>
<!-- Node13 -->
<g id="node14" class="node">
<title>Node13</title>
<g id="a_node14"><a xlink:href="genpybind_8h.html" target="_top" xlink:title=" ">
<polygon fill="white" stroke="black" points="1238.98,-2.05 1238.98,-22.05 1351.12,-22.05 1351.12,-2.05 1238.98,-2.05"/>
<text text-anchor="middle" x="1295.05" y="-9.05" font-family="Helvetica,sans-Serif" font-size="10.00">stadls/vx/genpybind.h</text>
</a>
</g>
</g>
<!-- Node0&#45;&gt;Node13 -->
<g id="edge13" class="edge">
<title>Node0&#45;&gt;Node13</title>
<path fill="none" stroke="midnightblue" d="M1176.24,-235.6C1116.75,-225.3 1046.42,-208.46 1028.05,-184.55 1012.62,-164.46 1011.36,-146.61 1028.05,-127.55 1107.8,-36.47 1218.31,-182.64 1298.05,-91.55 1312.19,-75.41 1307.81,-49.45 1302.34,-31.85"/>
<polygon fill="midnightblue" stroke="midnightblue" points="1305.55,-30.42 1298.95,-22.13 1298.94,-32.72 1305.55,-30.42"/>
</g>
<!-- Node14 -->
<g id="node15" class="node">
<title>Node14</title>
<g id="a_node15"><a xlink:href="playback__program_8h.html" target="_top" xlink:title=" ">
<polygon fill="white" stroke="black" points="559.49,-140.05 559.49,-172.05 656.62,-172.05 656.62,-140.05 559.49,-140.05"/>
<text text-anchor="start" x="567.49" y="-159.05" font-family="Helvetica,sans-Serif" font-size="10.00">stadls/vx/playback</text>
<text text-anchor="middle" x="608.05" y="-147.05" font-family="Helvetica,sans-Serif" font-size="10.00">_program.h</text>
</a>
</g>
</g>
<!-- Node0&#45;&gt;Node14 -->
<g id="edge15" class="edge">
<title>Node0&#45;&gt;Node14</title>
<path fill="none" stroke="midnightblue" d="M1176.28,-235.64C1039.39,-216.71 782.21,-181.14 666.77,-165.17"/>
<polygon fill="midnightblue" stroke="midnightblue" points="667.1,-161.68 656.71,-163.78 666.14,-168.62 667.1,-161.68"/>
</g>
<!-- Node26 -->
<g id="node27" class="node">
<title>Node26</title>
<g id="a_node27"><a xlink:title=" ">
<polygon fill="white" stroke="#bfbfbf" points="2184.32,-146.05 2184.32,-166.05 2299.79,-166.05 2299.79,-146.05 2184.32,-146.05"/>
<text text-anchor="middle" x="2242.05" y="-153.05" font-family="Helvetica,sans-Serif" font-size="10.00">haldls/vx/container.def</text>
</a>
</g>
</g>
<!-- Node0&#45;&gt;Node26 -->
<g id="edge32" class="edge">
<title>Node0&#45;&gt;Node26</title>
<path fill="none" stroke="midnightblue" d="M1355.88,-245.49C1553.79,-239.23 2022.03,-220.98 2176.05,-184.55 2189.45,-181.38 2203.63,-175.8 2215.4,-170.48"/>
<polygon fill="midnightblue" stroke="midnightblue" points="2217.08,-173.56 2224.65,-166.14 2214.11,-167.22 2217.08,-173.56"/>
</g>
<!-- Node27 -->
<g id="node28" class="node">
<title>Node27</title>
<g id="a_node28"><a xlink:title=" ">
<polygon fill="white" stroke="#bfbfbf" points="2317.6,-146.05 2317.6,-166.05 2422.51,-166.05 2422.51,-146.05 2317.6,-146.05"/>
<text text-anchor="middle" x="2370.05" y="-153.05" font-family="Helvetica,sans-Serif" font-size="10.00">lola/vx/container.def</text>
</a>
</g>
</g>
<!-- Node0&#45;&gt;Node27 -->
<g id="edge33" class="edge">
<title>Node0&#45;&gt;Node27</title>
<path fill="none" stroke="midnightblue" d="M1355.84,-246.74C1574.44,-242.89 2129.52,-228.9 2309.05,-184.55 2321.4,-181.5 2334.34,-176.03 2345.11,-170.77"/>
<polygon fill="midnightblue" stroke="midnightblue" points="2347,-173.73 2354.32,-166.07 2343.82,-167.5 2347,-173.73"/>
</g>
<!-- Node13&#45;&gt;Node13 -->
<g id="edge14" class="edge">
<title>Node13&#45;&gt;Node13</title>
<path fill="none" stroke="midnightblue" d="M1323.56,-22.11C1346.05,-26 1369.12,-22.65 1369.12,-12.05 1369.12,-3.03 1352.39,0.74 1333.53,-0.74"/>
<polygon fill="midnightblue" stroke="midnightblue" points="1333.04,2.72 1323.56,-1.99 1333.92,-4.22 1333.04,2.72"/>
</g>
<!-- Node14&#45;&gt;Node1 -->
<g id="edge17" class="edge">
<title>Node14&#45;&gt;Node1</title>
<path fill="none" stroke="midnightblue" d="M559.2,-154.28C462.43,-151.68 240.22,-140.41 61.05,-91.55 58.44,-90.84 55.77,-89.96 53.13,-88.99"/>
<polygon fill="midnightblue" stroke="midnightblue" points="54.42,-85.73 43.84,-85.17 51.76,-92.21 54.42,-85.73"/>
</g>
<!-- Node14&#45;&gt;Node4 -->
<g id="edge20" class="edge">
<title>Node14&#45;&gt;Node4</title>
<path fill="none" stroke="midnightblue" d="M559.27,-154.22C470.33,-151.5 276.75,-139.98 122.05,-91.55 120.16,-90.96 118.25,-90.26 116.36,-89.48"/>
<polygon fill="midnightblue" stroke="midnightblue" points="117.72,-86.25 107.18,-85.16 114.74,-92.59 117.72,-86.25"/>
</g>
<!-- Node14&#45;&gt;Node8 -->
<g id="edge24" class="edge">
<title>Node14&#45;&gt;Node8</title>
<path fill="none" stroke="midnightblue" d="M559.18,-149.21C485.51,-139.9 341.85,-119.83 222.05,-91.55 217.65,-90.51 213.08,-89.29 208.56,-88"/>
<polygon fill="midnightblue" stroke="midnightblue" points="209.44,-84.61 198.85,-85.1 207.43,-91.32 209.44,-84.61"/>
</g>
<!-- Node14&#45;&gt;Node13 -->
<g id="edge26" class="edge">
<title>Node14&#45;&gt;Node13</title>
<path fill="none" stroke="midnightblue" d="M656.8,-151.96C806.79,-142.26 1252.64,-111.84 1276.05,-91.55 1292.81,-77.03 1296.12,-50.48 1296.19,-32.32"/>
<polygon fill="midnightblue" stroke="midnightblue" points="1299.69,-32.17 1295.91,-22.27 1292.69,-32.37 1299.69,-32.17"/>
</g>
<!-- Node15 -->
<g id="node16" class="node">
<title>Node15</title>
<g id="a_node16"><a xlink:title=" ">
<polygon fill="white" stroke="#bfbfbf" points="345.61,-65.05 345.61,-85.05 390.5,-85.05 390.5,-65.05 345.61,-65.05"/>
<text text-anchor="middle" x="368.05" y="-72.05" font-family="Helvetica,sans-Serif" font-size="10.00">cstdint</text>
</a>
</g>
</g>
<!-- Node14&#45;&gt;Node15 -->
<g id="edge16" class="edge">
<title>Node14&#45;&gt;Node15</title>
<path fill="none" stroke="midnightblue" d="M559.11,-142.69C516.24,-131.28 452.6,-112.9 399.05,-91.55 397.44,-90.91 395.79,-90.21 394.15,-89.49"/>
<polygon fill="midnightblue" stroke="midnightblue" points="395.41,-86.21 384.87,-85.11 392.42,-92.54 395.41,-86.21"/>
</g>
<!-- Node16 -->
<g id="node17" class="node">
<title>Node16</title>
<g id="a_node17"><a xlink:title=" ">
<polygon fill="white" stroke="#bfbfbf" points="408.55,-65.05 408.55,-85.05 459.56,-85.05 459.56,-65.05 408.55,-65.05"/>
<text text-anchor="middle" x="434.05" y="-72.05" font-family="Helvetica,sans-Serif" font-size="10.00">optional</text>
</a>
</g>
</g>
<!-- Node14&#45;&gt;Node16 -->
<g id="edge18" class="edge">
<title>Node14&#45;&gt;Node16</title>
<path fill="none" stroke="midnightblue" d="M574.91,-140.01C542.71,-125.38 494.26,-103.39 463.41,-89.38"/>
<polygon fill="midnightblue" stroke="midnightblue" points="464.6,-86.08 454.05,-85.13 461.71,-92.45 464.6,-86.08"/>
</g>
<!-- Node17 -->
<g id="node18" class="node">
<title>Node17</title>
<g id="a_node18"><a xlink:title=" ">
<polygon fill="white" stroke="#bfbfbf" points="477.83,-65.05 477.83,-85.05 518.27,-85.05 518.27,-65.05 477.83,-65.05"/>
<text text-anchor="middle" x="498.05" y="-72.05" font-family="Helvetica,sans-Serif" font-size="10.00">string</text>
</a>
</g>
</g>
<!-- Node14&#45;&gt;Node17 -->
<g id="edge19" class="edge">
<title>Node14&#45;&gt;Node17</title>
<path fill="none" stroke="midnightblue" d="M587.1,-140.01C567.54,-125.95 538.49,-105.09 518.94,-91.05"/>
<polygon fill="midnightblue" stroke="midnightblue" points="520.86,-88.12 510.69,-85.13 516.77,-93.81 520.86,-88.12"/>
</g>
<!-- Node18 -->
<g id="node19" class="node">
<title>Node18</title>
<g id="a_node19"><a xlink:title=" ">
<polygon fill="white" stroke="#bfbfbf" points="536.71,-65.05 536.71,-85.05 679.4,-85.05 679.4,-65.05 536.71,-65.05"/>
<text text-anchor="middle" x="608.05" y="-72.05" font-family="Helvetica,sans-Serif" font-size="10.00">fisch/vx/playback_program.h</text>
</a>
</g>
</g>
<!-- Node14&#45;&gt;Node18 -->
<g id="edge21" class="edge">
<title>Node14&#45;&gt;Node18</title>
<path fill="none" stroke="midnightblue" d="M608.05,-139.82C608.05,-127.21 608.05,-109.21 608.05,-95.55"/>
<polygon fill="midnightblue" stroke="midnightblue" points="611.55,-95.31 608.05,-85.31 604.55,-95.31 611.55,-95.31"/>
</g>
<!-- Node19 -->
<g id="node20" class="node">
<title>Node19</title>
<g id="a_node20"><a xlink:title=" ">
<polygon fill="white" stroke="#bfbfbf" points="697.88,-65.05 697.88,-85.05 802.23,-85.05 802.23,-65.05 697.88,-65.05"/>
<text text-anchor="middle" x="750.05" y="-72.05" font-family="Helvetica,sans-Serif" font-size="10.00">haldls/vx/common.h</text>
</a>
</g>
</g>
<!-- Node14&#45;&gt;Node19 -->
<g id="edge22" class="edge">
<title>Node14&#45;&gt;Node19</title>
<path fill="none" stroke="midnightblue" d="M635.1,-140.01C660.93,-125.64 699.55,-104.15 724.78,-90.11"/>
<polygon fill="midnightblue" stroke="midnightblue" points="726.7,-93.05 733.73,-85.13 723.29,-86.93 726.7,-93.05"/>
</g>
<!-- Node20 -->
<g id="node21" class="node">
<title>Node20</title>
<g id="a_node21"><a xlink:title=" ">
<polygon fill="white" stroke="#bfbfbf" points="819.82,-65.05 819.82,-85.05 910.29,-85.05 910.29,-65.05 819.82,-65.05"/>
<text text-anchor="middle" x="865.05" y="-72.05" font-family="Helvetica,sans-Serif" font-size="10.00">haldls/vx/event.h</text>
</a>
</g>
</g>
<!-- Node14&#45;&gt;Node20 -->
<g id="edge23" class="edge">
<title>Node14&#45;&gt;Node20</title>
<path fill="none" stroke="midnightblue" d="M656.69,-140.1C705.67,-125.05 780.28,-102.11 825.67,-88.16"/>
<polygon fill="midnightblue" stroke="midnightblue" points="826.91,-91.44 835.44,-85.15 824.86,-84.75 826.91,-91.44"/>
</g>
<!-- Node21 -->
<g id="node22" class="node">
<title>Node21</title>
<g id="a_node22"><a xlink:title=" ">
<polygon fill="white" stroke="#bfbfbf" points="928.43,-65.05 928.43,-85.05 1031.67,-85.05 1031.67,-65.05 928.43,-65.05"/>
<text text-anchor="middle" x="980.05" y="-72.05" font-family="Helvetica,sans-Serif" font-size="10.00">hxcomm/vx/target.h</text>
</a>
</g>
</g>
<!-- Node14&#45;&gt;Node21 -->
<g id="edge25" class="edge">
<title>Node14&#45;&gt;Node21</title>
<path fill="none" stroke="midnightblue" d="M656.69,-145.86C718.03,-134.1 826.66,-112.71 919.05,-91.55 924.44,-90.32 930.09,-88.96 935.68,-87.59"/>
<polygon fill="midnightblue" stroke="midnightblue" points="936.75,-90.93 945.6,-85.11 935.05,-84.14 936.75,-90.93"/>
</g>
<!-- Node22 -->
<g id="node23" class="node">
<title>Node22</title>
<g id="a_node23"><a xlink:href="run__time__info_8h.html" target="_top" xlink:title=" ">
<polygon fill="white" stroke="black" points="230.77,-59.05 230.77,-91.05 327.34,-91.05 327.34,-59.05 230.77,-59.05"/>
<text text-anchor="start" x="238.77" y="-78.05" font-family="Helvetica,sans-Serif" font-size="10.00">stadls/vx/run_time</text>
<text text-anchor="middle" x="279.05" y="-66.05" font-family="Helvetica,sans-Serif" font-size="10.00">_info.h</text>
</a>
</g>
</g>
<!-- Node14&#45;&gt;Node22 -->
<g id="edge27" class="edge">
<title>Node14&#45;&gt;Node22</title>
<path fill="none" stroke="midnightblue" d="M559.48,-144.15C507.18,-132.3 421.3,-112.54 337.16,-91.54"/>
<polygon fill="midnightblue" stroke="midnightblue" points="337.99,-88.14 327.44,-89.1 336.29,-94.93 337.99,-88.14"/>
</g>
<!-- Node24 -->
<g id="node25" class="node">
<title>Node24</title>
<g id="a_node25"><a xlink:title=" ">
<polygon fill="white" stroke="#bfbfbf" points="1049.2,-65.05 1049.2,-85.05 1146.9,-85.05 1146.9,-65.05 1049.2,-65.05"/>
<text text-anchor="middle" x="1098.05" y="-72.05" font-family="Helvetica,sans-Serif" font-size="10.00">pybind11/numpy.h</text>
</a>
</g>
</g>
<!-- Node14&#45;&gt;Node24 -->
<g id="edge30" class="edge">
<title>Node14&#45;&gt;Node24</title>
<path fill="none" stroke="midnightblue" d="M656.76,-149.84C737.26,-140.79 902.9,-120.36 1041.05,-91.55 1046.45,-90.43 1052.09,-89.09 1057.64,-87.68"/>
<polygon fill="midnightblue" stroke="midnightblue" points="1058.67,-91.03 1067.45,-85.1 1056.89,-84.26 1058.67,-91.03"/>
</g>
<!-- Node25 -->
<g id="node26" class="node">
<title>Node25</title>
<g id="a_node26"><a xlink:title=" ">
<polygon fill="white" stroke="#bfbfbf" points="1164.98,-65.05 1164.98,-85.05 1267.12,-85.05 1267.12,-65.05 1164.98,-65.05"/>
<text text-anchor="middle" x="1216.05" y="-72.05" font-family="Helvetica,sans-Serif" font-size="10.00">pybind11/stl_bind.h</text>
</a>
</g>
</g>
<!-- Node14&#45;&gt;Node25 -->
<g id="edge31" class="edge">
<title>Node14&#45;&gt;Node25</title>
<path fill="none" stroke="midnightblue" d="M656.77,-151.67C752.87,-144.49 973.39,-125.56 1156.05,-91.55 1162.02,-90.44 1168.26,-89.07 1174.38,-87.6"/>
<polygon fill="midnightblue" stroke="midnightblue" points="1175.62,-90.9 1184.47,-85.08 1173.92,-84.11 1175.62,-90.9"/>
</g>
<!-- Node22&#45;&gt;Node13 -->
<g id="edge29" class="edge">
<title>Node22&#45;&gt;Node13</title>
<path fill="none" stroke="midnightblue" d="M327.63,-60.26C330.8,-59.61 333.96,-59.03 337.05,-58.55 509.33,-31.76 1040.82,-18.35 1228.54,-14.36"/>
<polygon fill="midnightblue" stroke="midnightblue" points="1228.89,-17.86 1238.82,-14.15 1228.75,-10.86 1228.89,-17.86"/>
</g>
<!-- Node23 -->
<g id="node24" class="node">
<title>Node23</title>
<g id="a_node24"><a xlink:title=" ">
<polygon fill="white" stroke="#bfbfbf" points="218.54,-2.05 218.54,-22.05 339.56,-22.05 339.56,-2.05 218.54,-2.05"/>
<text text-anchor="middle" x="279.05" y="-9.05" font-family="Helvetica,sans-Serif" font-size="10.00">fisch/vx/run_time_info.h</text>
</a>
</g>
</g>
<!-- Node22&#45;&gt;Node23 -->
<g id="edge28" class="edge">
<title>Node22&#45;&gt;Node23</title>
<path fill="none" stroke="midnightblue" d="M279.05,-58.97C279.05,-50.93 279.05,-40.94 279.05,-32.33"/>
<polygon fill="midnightblue" stroke="midnightblue" points="282.55,-32.1 279.05,-22.1 275.55,-32.1 282.55,-32.1"/>
</g>
</g>
</svg>
