<?xml version="1.0" encoding="UTF-8" standalone="no"?>
<!DOCTYPE svg PUBLIC "-//W3C//DTD SVG 1.1//EN"
 "http://www.w3.org/Graphics/SVG/1.1/DTD/svg11.dtd">
<!-- Generated by graphviz version 2.43.0 (0)
 -->
<!-- Title: /jenkins/jenlib_workspaces_f9/bld_nightly&#45;haldls.YmxkX25pZ2h0bHktaGFsZGxzIzQ5OA.x/haldls/include/stadls/v2/experiment.h Pages: 1 -->
<svg width="888pt" height="125pt"
 viewBox="0.00 0.00 888.40 125.40" xmlns="http://www.w3.org/2000/svg" xmlns:xlink="http://www.w3.org/1999/xlink">
<g id="graph0" class="graph" transform="scale(1 1) rotate(0) translate(4 121.4)">
<title>/jenkins/jenlib_workspaces_f9/bld_nightly&#45;haldls.YmxkX25pZ2h0bHktaGFsZGxzIzQ5OA.x/haldls/include/stadls/v2/experiment.h</title>
<polygon fill="white" stroke="transparent" points="-4,4 -4,-121.4 884.4,-121.4 884.4,4 -4,4"/>
<!-- Node0 -->
<g id="node1" class="node">
<title>Node0</title>
<g id="a_node1"><a xlink:title=" ">
<polygon fill="#bfbfbf" stroke="black" points="253.09,-60.9 253.09,-116.9 433.01,-116.9 433.01,-60.9 253.09,-60.9"/>
<text text-anchor="start" x="261.09" y="-103.9" font-family="Helvetica,sans-Serif" font-size="10.00">/jenkins/jenlib_workspaces</text>
<text text-anchor="start" x="261.09" y="-91.9" font-family="Helvetica,sans-Serif" font-size="10.00">_f9/bld_nightly&#45;haldls.YmxkX25p</text>
<text text-anchor="start" x="261.09" y="-79.9" font-family="Helvetica,sans-Serif" font-size="10.00">Z2h0bHktaGFsZGxzIzQ5OA.x/haldls</text>
<text text-anchor="middle" x="343.05" y="-67.9" font-family="Helvetica,sans-Serif" font-size="10.00">/include/stadls/v2/experiment.h</text>
</a>
</g>
</g>
<!-- Node1 -->
<g id="node2" class="node">
<title>Node1</title>
<g id="a_node2"><a xlink:title=" ">
<polygon fill="white" stroke="#bfbfbf" points="0,-3.9 0,-23.9 52.11,-23.9 52.11,-3.9 0,-3.9"/>
<text text-anchor="middle" x="26.05" y="-10.9" font-family="Helvetica,sans-Serif" font-size="10.00">memory</text>
</a>
</g>
</g>
<!-- Node0&#45;&gt;Node1 -->
<g id="edge1" class="edge">
<title>Node0&#45;&gt;Node1</title>
<path fill="none" stroke="midnightblue" d="M252.96,-68.66C199.97,-57.1 131.46,-41.72 62.17,-24.61"/>
<polygon fill="midnightblue" stroke="midnightblue" points="62.94,-21.19 52.39,-22.18 61.26,-27.99 62.94,-21.19"/>
</g>
<!-- Node2 -->
<g id="node3" class="node">
<title>Node2</title>
<g id="a_node3"><a xlink:title=" ">
<polygon fill="white" stroke="#bfbfbf" points="69.83,-3.9 69.83,-23.9 110.28,-23.9 110.28,-3.9 69.83,-3.9"/>
<text text-anchor="middle" x="90.05" y="-10.9" font-family="Helvetica,sans-Serif" font-size="10.00">string</text>
</a>
</g>
</g>
<!-- Node0&#45;&gt;Node2 -->
<g id="edge2" class="edge">
<title>Node0&#45;&gt;Node2</title>
<path fill="none" stroke="midnightblue" d="M252.89,-63.24C214.49,-52.52 169.02,-39.54 120.13,-24.65"/>
<polygon fill="midnightblue" stroke="midnightblue" points="120.89,-21.23 110.3,-21.65 118.84,-27.92 120.89,-21.23"/>
</g>
<!-- Node3 -->
<g id="node4" class="node">
<title>Node3</title>
<g id="a_node4"><a xlink:title=" ">
<polygon fill="white" stroke="#bfbfbf" points="128.44,-3.9 128.44,-23.9 171.67,-23.9 171.67,-3.9 128.44,-3.9"/>
<text text-anchor="middle" x="150.05" y="-10.9" font-family="Helvetica,sans-Serif" font-size="10.00">vector</text>
</a>
</g>
</g>
<!-- Node0&#45;&gt;Node3 -->
<g id="edge3" class="edge">
<title>Node0&#45;&gt;Node3</title>
<path fill="none" stroke="midnightblue" d="M271.46,-60.82C240.35,-49.05 205.52,-35.88 181.18,-26.67"/>
<polygon fill="midnightblue" stroke="midnightblue" points="182.34,-23.37 171.75,-23.11 179.86,-29.92 182.34,-23.37"/>
</g>
<!-- Node4 -->
<g id="node5" class="node">
<title>Node4</title>
<g id="a_node5"><a xlink:title=" ">
<polygon fill="white" stroke="#bfbfbf" points="189.99,-3.9 189.99,-23.9 282.12,-23.9 282.12,-3.9 189.99,-3.9"/>
<text text-anchor="middle" x="236.05" y="-10.9" font-family="Helvetica,sans-Serif" font-size="10.00">haldls/v2/board.h</text>
</a>
</g>
</g>
<!-- Node0&#45;&gt;Node4 -->
<g id="edge4" class="edge">
<title>Node0&#45;&gt;Node4</title>
<path fill="none" stroke="midnightblue" d="M303.21,-60.72C287.76,-50.18 270.68,-38.53 257.62,-29.61"/>
<polygon fill="midnightblue" stroke="midnightblue" points="259.51,-26.67 249.28,-23.93 255.57,-32.45 259.51,-26.67"/>
</g>
<!-- Node5 -->
<g id="node6" class="node">
<title>Node5</title>
<g id="a_node6"><a xlink:title=" ">
<polygon fill="white" stroke="#bfbfbf" points="300.6,-3.9 300.6,-23.9 385.51,-23.9 385.51,-3.9 300.6,-3.9"/>
<text text-anchor="middle" x="343.05" y="-10.9" font-family="Helvetica,sans-Serif" font-size="10.00">haldls/v2/chip.h</text>
</a>
</g>
</g>
<!-- Node0&#45;&gt;Node5 -->
<g id="edge5" class="edge">
<title>Node0&#45;&gt;Node5</title>
<path fill="none" stroke="midnightblue" d="M343.05,-60.72C343.05,-51.9 343.05,-42.31 343.05,-34.19"/>
<polygon fill="midnightblue" stroke="midnightblue" points="346.55,-33.93 343.05,-23.93 339.55,-33.93 346.55,-33.93"/>
</g>
<!-- Node6 -->
<g id="node7" class="node">
<title>Node6</title>
<g id="a_node7"><a xlink:title=" ">
<polygon fill="white" stroke="#bfbfbf" points="403.6,-3.9 403.6,-23.9 508.5,-23.9 508.5,-3.9 403.6,-3.9"/>
<text text-anchor="middle" x="456.05" y="-10.9" font-family="Helvetica,sans-Serif" font-size="10.00">haldls/v2/common.h</text>
</a>
</g>
</g>
<!-- Node0&#45;&gt;Node6 -->
<g id="edge6" class="edge">
<title>Node0&#45;&gt;Node6</title>
<path fill="none" stroke="midnightblue" d="M385.13,-60.72C401.6,-50.08 419.83,-38.31 433.68,-29.36"/>
<polygon fill="midnightblue" stroke="midnightblue" points="435.58,-32.29 442.08,-23.93 431.78,-26.41 435.58,-32.29"/>
</g>
<!-- Node7 -->
<g id="node8" class="node">
<title>Node7</title>
<g id="a_node8"><a xlink:title=" ">
<polygon fill="white" stroke="#bfbfbf" points="526.04,-3.9 526.04,-23.9 632.07,-23.9 632.07,-3.9 526.04,-3.9"/>
<text text-anchor="middle" x="579.05" y="-10.9" font-family="Helvetica,sans-Serif" font-size="10.00">haldls/v2/playback.h</text>
</a>
</g>
</g>
<!-- Node0&#45;&gt;Node7 -->
<g id="edge7" class="edge">
<title>Node0&#45;&gt;Node7</title>
<path fill="none" stroke="midnightblue" d="M430.59,-60.82C468.31,-49.16 510.48,-36.11 540.21,-26.92"/>
<polygon fill="midnightblue" stroke="midnightblue" points="541.27,-30.25 549.79,-23.95 539.2,-23.57 541.27,-30.25"/>
</g>
<!-- Node8 -->
<g id="node9" class="node">
<title>Node8</title>
<g id="a_node9"><a xlink:title=" ">
<polygon fill="white" stroke="#bfbfbf" points="650.55,-3.9 650.55,-23.9 731.56,-23.9 731.56,-3.9 650.55,-3.9"/>
<text text-anchor="middle" x="691.05" y="-10.9" font-family="Helvetica,sans-Serif" font-size="10.00">hate/visibility.h</text>
</a>
</g>
</g>
<!-- Node0&#45;&gt;Node8 -->
<g id="edge8" class="edge">
<title>Node0&#45;&gt;Node8</title>
<path fill="none" stroke="midnightblue" d="M433.12,-69.01C498.96,-55.2 585.89,-36.96 640.12,-25.59"/>
<polygon fill="midnightblue" stroke="midnightblue" points="641.12,-28.95 650.19,-23.47 639.68,-22.1 641.12,-28.95"/>
</g>
<!-- Node9 -->
<g id="node10" class="node">
<title>Node9</title>
<g id="a_node10"><a xlink:href="v2_2genpybind_8h.html" target="_top" xlink:title=" ">
<polygon fill="white" stroke="black" points="749.7,-3.9 749.7,-23.9 862.4,-23.9 862.4,-3.9 749.7,-3.9"/>
<text text-anchor="middle" x="806.05" y="-10.9" font-family="Helvetica,sans-Serif" font-size="10.00">stadls/v2/genpybind.h</text>
</a>
</g>
</g>
<!-- Node0&#45;&gt;Node9 -->
<g id="edge9" class="edge">
<title>Node0&#45;&gt;Node9</title>
<path fill="none" stroke="midnightblue" d="M433.15,-73.7C522.96,-59.54 658.8,-38.12 739.35,-25.42"/>
<polygon fill="midnightblue" stroke="midnightblue" points="740.04,-28.85 749.38,-23.84 738.95,-21.94 740.04,-28.85"/>
</g>
<!-- Node9&#45;&gt;Node9 -->
<g id="edge10" class="edge">
<title>Node9&#45;&gt;Node9</title>
<path fill="none" stroke="midnightblue" d="M826.98,-23.98C851.64,-31.35 880.4,-27.99 880.4,-13.9 880.4,-1.68 858.78,2.47 836.95,-1.46"/>
<polygon fill="midnightblue" stroke="midnightblue" points="835.9,1.89 826.98,-3.83 837.52,-4.92 835.9,1.89"/>
</g>
</g>
</svg>
