<?xml version="1.0" encoding="UTF-8" standalone="no"?>
<!DOCTYPE svg PUBLIC "-//W3C//DTD SVG 1.1//EN"
 "http://www.w3.org/Graphics/SVG/1.1/DTD/svg11.dtd">
<!-- Generated by graphviz version 2.43.0 (0)
 -->
<!-- Title: Graphical Class Hierarchy Pages: 1 -->
<svg width="258pt" height="68pt"
 viewBox="0.00 0.00 258.25 68.00" xmlns="http://www.w3.org/2000/svg" xmlns:xlink="http://www.w3.org/1999/xlink">
<g id="graph0" class="graph" transform="scale(1 1) rotate(0) translate(4 64)">
<title>Graphical Class Hierarchy</title>
<polygon fill="white" stroke="transparent" points="-4,4 -4,-64 254.25,-64 254.25,4 -4,4"/>
<!-- Node0 -->
<g id="node1" class="node">
<title>Node0</title>
<g id="a_node1"><a xlink:href="classstadls_1_1vx_1_1detail_1_1_init_generator.html" target="_top" xlink:title="Generator for an initialization of the xBoard and the chip up to allowing access to all digital setti...">
<polygon fill="white" stroke="black" points="0,-13.5 0,-45.5 87.13,-45.5 87.13,-13.5 0,-13.5"/>
<text text-anchor="start" x="8" y="-32.5" font-family="Helvetica,sans-Serif" font-size="10.00">stadls::vx::detail</text>
<text text-anchor="middle" x="43.56" y="-20.5" font-family="Helvetica,sans-Serif" font-size="10.00">::InitGenerator</text>
</a>
</g>
</g>
<!-- Node1 -->
<g id="node2" class="node">
<title>Node1</title>
<g id="a_node2"><a xlink:href="classstadls_1_1vx_1_1_digital_init.html" target="_top" xlink:title="Generator for initialization of the chip up to digital communication.">
<polygon fill="white" stroke="black" points="134.52,-39.5 134.52,-59.5 238.86,-59.5 238.86,-39.5 134.52,-39.5"/>
<text text-anchor="middle" x="186.69" y="-46.5" font-family="Helvetica,sans-Serif" font-size="10.00">stadls::vx::DigitalInit</text>
</a>
</g>
</g>
<!-- Node0&#45;&gt;Node1 -->
<g id="edge1" class="edge">
<title>Node0&#45;&gt;Node1</title>
<path fill="none" stroke="midnightblue" d="M97.28,-36.97C109.42,-38.69 122.32,-40.52 134.41,-42.23"/>
<polygon fill="midnightblue" stroke="midnightblue" points="97.68,-33.49 87.29,-35.55 96.7,-40.42 97.68,-33.49"/>
</g>
<!-- Node2 -->
<g id="node3" class="node">
<title>Node2</title>
<g id="a_node3"><a xlink:href="classstadls_1_1vx_1_1_experiment_init.html" target="_top" xlink:title="Generator for initialization required for typical experiments.">
<polygon fill="white" stroke="black" points="123.13,-0.5 123.13,-20.5 250.25,-20.5 250.25,-0.5 123.13,-0.5"/>
<text text-anchor="middle" x="186.69" y="-7.5" font-family="Helvetica,sans-Serif" font-size="10.00">stadls::vx::ExperimentInit</text>
</a>
</g>
</g>
<!-- Node0&#45;&gt;Node2 -->
<g id="edge2" class="edge">
<title>Node0&#45;&gt;Node2</title>
<path fill="none" stroke="midnightblue" d="M97.32,-22.4C105.71,-21.27 114.47,-20.09 123.06,-18.93"/>
<polygon fill="midnightblue" stroke="midnightblue" points="96.73,-18.94 87.29,-23.75 97.67,-25.88 96.73,-18.94"/>
</g>
</g>
</svg>
