<?xml version="1.0" encoding="UTF-8" standalone="no"?>
<!DOCTYPE svg PUBLIC "-//W3C//DTD SVG 1.1//EN"
 "http://www.w3.org/Graphics/SVG/1.1/DTD/svg11.dtd">
<!-- Generated by graphviz version 2.43.0 (0)
 -->
<!-- Title: /jenkins/jenlib_workspaces_f9/bld_nightly&#45;haldls.YmxkX25pZ2h0bHktaGFsZGxzIzY1NQ.x/haldls/include/stadls/vx/init_generator.h Pages: 1 -->
<!--zoomable 481 -->
<svg id="main" version="1.1" xmlns="http://www.w3.org/2000/svg" xmlns:xlink="http://www.w3.org/1999/xlink" xml:space="preserve" onload="init(evt)">
<style type="text/css"><![CDATA[
.edge:hover path { stroke: red; }
.edge:hover polygon { stroke: red; fill: red; }
]]></style>
<script type="text/javascript"><![CDATA[
var edges = document.getElementsByTagName('g');
if (edges && edges.length) {
  for (var i=0;i<edges.length;i++) {
    if (edges[i].id.substr(0,4)=='edge') {
      edges[i].setAttribute('class','edge');
    }
  }
}
]]></script>
        <defs>
                <circle id="rim" cx="0" cy="0" r="7"/>
                <circle id="rim2" cx="0" cy="0" r="3.5"/>
                <g id="zoomPlus">
                        <use xlink:href="#rim" fill="#404040">
                                <set attributeName="fill" to="#808080" begin="zoomplus.mouseover" end="zoomplus.mouseout"/>
                        </use>
                        <path d="M-4,0h8M0,-4v8" fill="none" stroke="white" stroke-width="1.5" pointer-events="none"/>
                </g>
                <g id="zoomMin">
                        <use xlink:href="#rim" fill="#404040">
                                <set attributeName="fill" to="#808080" begin="zoomminus.mouseover" end="zoomminus.mouseout"/>
                        </use>
                        <path d="M-4,0h8" fill="none" stroke="white" stroke-width="1.5" pointer-events="none"/>
                </g>
                <g id="dirArrow">
                        <path fill="none" stroke="white" stroke-width="1.5" d="M0,-3.0v7 M-2.5,-0.5L0,-3.0L2.5,-0.5"/>
                </g>
               <g id="resetDef">
                       <use xlink:href="#rim2" fill="#404040">
                               <set attributeName="fill" to="#808080" begin="reset.mouseover" end="reset.mouseout"/>
                       </use>
               </g>
        </defs>

<script type="text/javascript">
var viewWidth = 3426;
var viewHeight = 481;
var sectionId = 'dynsection-0';
</script>
<script xlink:href="svgpan.js"/>
<svg id="graph" class="graph">
<g id="viewport">
<title>/jenkins/jenlib_workspaces_f9/bld_nightly&#45;haldls.YmxkX25pZ2h0bHktaGFsZGxzIzY1NQ.x/haldls/include/stadls/vx/init_generator.h</title>
<polygon fill="white" stroke="transparent" points="-4,4 -4,-476.55 3422.36,-476.55 3422.36,4 -4,4"/>
<!-- Node0 -->
<g id="node1" class="node">
<title>Node0</title>
<g id="a_node1"><a xlink:title=" ">
<polygon fill="#bfbfbf" stroke="black" points="665.44,-416.05 665.44,-472.05 844.8,-472.05 844.8,-416.05 665.44,-416.05"/>
<text text-anchor="start" x="673.44" y="-459.05" font-family="Helvetica,sans-Serif" font-size="10.00">/jenkins/jenlib_workspaces</text>
<text text-anchor="start" x="673.44" y="-447.05" font-family="Helvetica,sans-Serif" font-size="10.00">_f9/bld_nightly&#45;haldls.YmxkX25p</text>
<text text-anchor="start" x="673.44" y="-435.05" font-family="Helvetica,sans-Serif" font-size="10.00">Z2h0bHktaGFsZGxzIzY1NQ.x/haldls</text>
<text text-anchor="middle" x="755.12" y="-423.05" font-family="Helvetica,sans-Serif" font-size="10.00">/include/stadls/vx/init_generator.h</text>
</a>
</g>
</g>
<!-- Node1 -->
<g id="node2" class="node">
<title>Node1</title>
<g id="a_node2"><a xlink:title=" ">
<polygon fill="white" stroke="#bfbfbf" points="0,-347.05 0,-379.05 108.24,-379.05 108.24,-347.05 0,-347.05"/>
<text text-anchor="start" x="8" y="-366.05" font-family="Helvetica,sans-Serif" font-size="10.00">halco/common/typed</text>
<text text-anchor="middle" x="54.12" y="-354.05" font-family="Helvetica,sans-Serif" font-size="10.00">_array.h</text>
</a>
</g>
</g>
<!-- Node0&#45;&gt;Node1 -->
<g id="edge1" class="edge">
<title>Node0&#45;&gt;Node1</title>
<path fill="none" stroke="midnightblue" d="M665.3,-438.15C543.36,-430.58 318.64,-413.46 118.43,-379.63"/>
<polygon fill="midnightblue" stroke="midnightblue" points="118.76,-376.14 108.32,-377.9 117.58,-383.04 118.76,-376.14"/>
</g>
<!-- Node2 -->
<g id="node3" class="node">
<title>Node2</title>
<g id="a_node3"><a xlink:title=" ">
<polygon fill="white" stroke="#bfbfbf" points="126.61,-347.05 126.61,-379.05 227.63,-379.05 227.63,-347.05 126.61,-347.05"/>
<text text-anchor="start" x="134.61" y="-366.05" font-family="Helvetica,sans-Serif" font-size="10.00">halco/hicann&#45;dls/vx</text>
<text text-anchor="middle" x="177.12" y="-354.05" font-family="Helvetica,sans-Serif" font-size="10.00">/coordinates.h</text>
</a>
</g>
</g>
<!-- Node0&#45;&gt;Node2 -->
<g id="edge2" class="edge">
<title>Node0&#45;&gt;Node2</title>
<path fill="none" stroke="midnightblue" d="M665.2,-435.63C563.68,-426.43 393.51,-408.57 237.98,-379.56"/>
<polygon fill="midnightblue" stroke="midnightblue" points="238.23,-376.04 227.76,-377.63 236.93,-382.92 238.23,-376.04"/>
</g>
<!-- Node3 -->
<g id="node4" class="node">
<title>Node3</title>
<g id="a_node4"><a xlink:title=" ">
<polygon fill="white" stroke="#bfbfbf" points="245.95,-353.05 245.95,-373.05 350.3,-373.05 350.3,-353.05 245.95,-353.05"/>
<text text-anchor="middle" x="298.12" y="-360.05" font-family="Helvetica,sans-Serif" font-size="10.00">haldls/vx/capmem.h</text>
</a>
</g>
</g>
<!-- Node0&#45;&gt;Node3 -->
<g id="edge3" class="edge">
<title>Node0&#45;&gt;Node3</title>
<path fill="none" stroke="midnightblue" d="M665.06,-430.96C584.52,-419.59 463.45,-401.13 359.12,-379.55 353.36,-378.36 347.33,-376.99 341.39,-375.56"/>
<polygon fill="midnightblue" stroke="midnightblue" points="342.11,-372.13 331.56,-373.12 340.42,-378.92 342.11,-372.13"/>
</g>
<!-- Node4 -->
<g id="node5" class="node">
<title>Node4</title>
<g id="a_node5"><a xlink:title=" ">
<polygon fill="white" stroke="#bfbfbf" points="368.06,-353.05 368.06,-373.05 450.19,-373.05 450.19,-353.05 368.06,-353.05"/>
<text text-anchor="middle" x="409.12" y="-360.05" font-family="Helvetica,sans-Serif" font-size="10.00">haldls/vx/jtag.h</text>
</a>
</g>
</g>
<!-- Node0&#45;&gt;Node4 -->
<g id="edge4" class="edge">
<title>Node0&#45;&gt;Node4</title>
<path fill="none" stroke="midnightblue" d="M665.26,-425.94C606.33,-414.19 527.76,-397.52 459.12,-379.55 455.02,-378.48 450.75,-377.28 446.51,-376.04"/>
<polygon fill="midnightblue" stroke="midnightblue" points="447.35,-372.64 436.77,-373.1 445.33,-379.34 447.35,-372.64"/>
</g>
<!-- Node5 -->
<g id="node6" class="node">
<title>Node5</title>
<g id="a_node6"><a xlink:title=" ">
<polygon fill="white" stroke="#bfbfbf" points="468.06,-353.05 468.06,-373.05 550.19,-373.05 550.19,-353.05 468.06,-353.05"/>
<text text-anchor="middle" x="509.12" y="-360.05" font-family="Helvetica,sans-Serif" font-size="10.00">haldls/vx/phy.h</text>
</a>
</g>
</g>
<!-- Node0&#45;&gt;Node5 -->
<g id="edge5" class="edge">
<title>Node0&#45;&gt;Node5</title>
<path fill="none" stroke="midnightblue" d="M670.81,-415.98C628.71,-402.46 579.88,-386.77 546.99,-376.21"/>
<polygon fill="midnightblue" stroke="midnightblue" points="547.91,-372.83 537.32,-373.11 545.77,-379.5 547.91,-372.83"/>
</g>
<!-- Node6 -->
<g id="node7" class="node">
<title>Node6</title>
<g id="a_node7"><a xlink:title=" ">
<polygon fill="white" stroke="#bfbfbf" points="568.12,-353.05 568.12,-373.05 644.13,-373.05 644.13,-353.05 568.12,-353.05"/>
<text text-anchor="middle" x="606.12" y="-360.05" font-family="Helvetica,sans-Serif" font-size="10.00">haldls/vx/pll.h</text>
</a>
</g>
</g>
<!-- Node0&#45;&gt;Node6 -->
<g id="edge6" class="edge">
<title>Node0&#45;&gt;Node6</title>
<path fill="none" stroke="midnightblue" d="M703.85,-415.87C679.68,-403.05 651.9,-388.32 632.15,-377.85"/>
<polygon fill="midnightblue" stroke="midnightblue" points="633.62,-374.67 623.15,-373.08 630.34,-380.86 633.62,-374.67"/>
</g>
<!-- Node7 -->
<g id="node8" class="node">
<title>Node7</title>
<g id="a_node8"><a xlink:title=" ">
<polygon fill="white" stroke="#bfbfbf" points="661.73,-353.05 661.73,-373.05 740.52,-373.05 740.52,-353.05 661.73,-353.05"/>
<text text-anchor="middle" x="701.12" y="-360.05" font-family="Helvetica,sans-Serif" font-size="10.00">haldls/vx/spi.h</text>
</a>
</g>
</g>
<!-- Node0&#45;&gt;Node7 -->
<g id="edge7" class="edge">
<title>Node0&#45;&gt;Node7</title>
<path fill="none" stroke="midnightblue" d="M736.54,-415.87C728.78,-404.52 720,-391.67 713.12,-381.6"/>
<polygon fill="midnightblue" stroke="midnightblue" points="715.95,-379.55 707.42,-373.27 710.17,-383.5 715.95,-379.55"/>
</g>
<!-- Node8 -->
<g id="node9" class="node">
<title>Node8</title>
<g id="a_node9"><a xlink:title=" ">
<polygon fill="white" stroke="#bfbfbf" points="758.5,-353.05 758.5,-373.05 861.75,-373.05 861.75,-353.05 758.5,-353.05"/>
<text text-anchor="middle" x="810.12" y="-360.05" font-family="Helvetica,sans-Serif" font-size="10.00">haldls/vx/synapse.h</text>
</a>
</g>
</g>
<!-- Node0&#45;&gt;Node8 -->
<g id="edge8" class="edge">
<title>Node0&#45;&gt;Node8</title>
<path fill="none" stroke="midnightblue" d="M774.05,-415.87C781.95,-404.52 790.9,-391.67 797.9,-381.6"/>
<polygon fill="midnightblue" stroke="midnightblue" points="800.87,-383.47 803.71,-373.27 795.12,-379.47 800.87,-383.47"/>
</g>
<!-- Node9 -->
<g id="node10" class="node">
<title>Node9</title>
<g id="a_node10"><a xlink:title=" ">
<polygon fill="white" stroke="#bfbfbf" points="955.84,-284.05 955.84,-304.05 1012.41,-304.05 1012.41,-284.05 955.84,-284.05"/>
<text text-anchor="middle" x="984.12" y="-291.05" font-family="Helvetica,sans-Serif" font-size="10.00">hate/nil.h</text>
</a>
</g>
</g>
<!-- Node0&#45;&gt;Node9 -->
<g id="edge9" class="edge">
<title>Node0&#45;&gt;Node9</title>
<path fill="none" stroke="midnightblue" d="M845.26,-427.57C878.69,-418.19 915.02,-403.25 942.12,-379.55 962.11,-362.07 973.63,-332.85 979.38,-313.77"/>
<polygon fill="midnightblue" stroke="midnightblue" points="982.76,-314.68 982.07,-304.11 976.02,-312.8 982.76,-314.68"/>
</g>
<!-- Node10 -->
<g id="node11" class="node">
<title>Node10</title>
<g id="a_node11"><a xlink:title=" ">
<polygon fill="white" stroke="#bfbfbf" points="1132.62,-65.05 1132.62,-85.05 1213.63,-85.05 1213.63,-65.05 1132.62,-65.05"/>
<text text-anchor="middle" x="1173.12" y="-72.05" font-family="Helvetica,sans-Serif" font-size="10.00">hate/visibility.h</text>
</a>
</g>
</g>
<!-- Node0&#45;&gt;Node10 -->
<g id="edge10" class="edge">
<title>Node0&#45;&gt;Node10</title>
<path fill="none" stroke="midnightblue" d="M845.11,-417.73C866.46,-408.43 887.75,-395.99 904.12,-379.55 938.84,-344.7 918.51,-317.57 947.12,-277.55 1006.77,-194.15 1106.73,-120.86 1150.94,-90.69"/>
<polygon fill="midnightblue" stroke="midnightblue" points="1152.92,-93.58 1159.25,-85.08 1149.01,-87.77 1152.92,-93.58"/>
</g>
<!-- Node11 -->
<g id="node12" class="node">
<title>Node11</title>
<g id="a_node12"><a xlink:href="genpybind_8h.html" target="_top" xlink:title=" ">
<polygon fill="white" stroke="black" points="1290.05,-2.05 1290.05,-22.05 1402.19,-22.05 1402.19,-2.05 1290.05,-2.05"/>
<text text-anchor="middle" x="1346.12" y="-9.05" font-family="Helvetica,sans-Serif" font-size="10.00">stadls/vx/genpybind.h</text>
</a>
</g>
</g>
<!-- Node0&#45;&gt;Node11 -->
<g id="edge11" class="edge">
<title>Node0&#45;&gt;Node11</title>
<path fill="none" stroke="midnightblue" d="M827.04,-415.93C843.63,-406.65 859.73,-394.68 871.12,-379.55 894.28,-348.81 890.12,-333.55 890.12,-295.05 890.12,-295.05 890.12,-295.05 890.12,-155.05 890.12,-74.42 1153.3,-34.35 1279.78,-19.74"/>
<polygon fill="midnightblue" stroke="midnightblue" points="1280.21,-23.22 1289.75,-18.61 1279.42,-16.26 1280.21,-23.22"/>
</g>
<!-- Node12 -->
<g id="node13" class="node">
<title>Node12</title>
<g id="a_node13"><a xlink:href="playback__generator_8h.html" target="_top" xlink:title=" ">
<polygon fill="white" stroke="black" points="1034.56,-347.05 1034.56,-379.05 1131.69,-379.05 1131.69,-347.05 1034.56,-347.05"/>
<text text-anchor="start" x="1042.56" y="-366.05" font-family="Helvetica,sans-Serif" font-size="10.00">stadls/vx/playback</text>
<text text-anchor="middle" x="1083.12" y="-354.05" font-family="Helvetica,sans-Serif" font-size="10.00">_generator.h</text>
</a>
</g>
</g>
<!-- Node0&#45;&gt;Node12 -->
<g id="edge13" class="edge">
<title>Node0&#45;&gt;Node12</title>
<path fill="none" stroke="midnightblue" d="M845.18,-421.36C902.32,-407.6 974.59,-390.19 1024.41,-378.19"/>
<polygon fill="midnightblue" stroke="midnightblue" points="1025.47,-381.54 1034.37,-375.79 1023.83,-374.73 1025.47,-381.54"/>
</g>
<!-- Node14 -->
<g id="node15" class="node">
<title>Node14</title>
<g id="a_node15"><a xlink:href="playback__program__builder_8h.html" target="_top" xlink:title=" ">
<polygon fill="white" stroke="black" points="2022.78,-278.05 2022.78,-310.05 2125.46,-310.05 2125.46,-278.05 2022.78,-278.05"/>
<text text-anchor="start" x="2030.78" y="-297.05" font-family="Helvetica,sans-Serif" font-size="10.00">stadls/vx/playback</text>
<text text-anchor="middle" x="2074.12" y="-285.05" font-family="Helvetica,sans-Serif" font-size="10.00">_program_builder.h</text>
</a>
</g>
</g>
<!-- Node0&#45;&gt;Node14 -->
<g id="edge67" class="edge">
<title>Node0&#45;&gt;Node14</title>
<path fill="none" stroke="midnightblue" d="M845,-432.97C1095.97,-404.81 1799.74,-325.84 2012.46,-301.97"/>
<polygon fill="midnightblue" stroke="midnightblue" points="2012.96,-305.44 2022.51,-300.84 2012.18,-298.48 2012.96,-305.44"/>
</g>
<!-- Node31 -->
<g id="node32" class="node">
<title>Node31</title>
<g id="a_node32"><a xlink:href="playback__program_8h.html" target="_top" xlink:title=" ">
<polygon fill="white" stroke="black" points="2870.56,-140.05 2870.56,-172.05 2967.69,-172.05 2967.69,-140.05 2870.56,-140.05"/>
<text text-anchor="start" x="2878.56" y="-159.05" font-family="Helvetica,sans-Serif" font-size="10.00">stadls/vx/playback</text>
<text text-anchor="middle" x="2919.12" y="-147.05" font-family="Helvetica,sans-Serif" font-size="10.00">_program.h</text>
</a>
</g>
</g>
<!-- Node0&#45;&gt;Node31 -->
<g id="edge66" class="edge">
<title>Node0&#45;&gt;Node31</title>
<path fill="none" stroke="midnightblue" d="M845,-435.31C983.07,-423.39 1255.69,-399.83 1487.12,-379.55 1833.82,-349.18 2812.13,-498.25 3047.12,-241.55 3074.74,-211.39 3023.15,-187.01 2977.46,-172.32"/>
<polygon fill="midnightblue" stroke="midnightblue" points="2978.41,-168.95 2967.82,-169.34 2976.34,-175.64 2978.41,-168.95"/>
</g>
<!-- Node11&#45;&gt;Node11 -->
<g id="edge12" class="edge">
<title>Node11&#45;&gt;Node11</title>
<path fill="none" stroke="midnightblue" d="M1374.63,-22.11C1397.12,-26 1420.19,-22.65 1420.19,-12.05 1420.19,-3.03 1403.46,0.74 1384.6,-0.74"/>
<polygon fill="midnightblue" stroke="midnightblue" points="1384.11,2.72 1374.63,-1.99 1384.99,-4.22 1384.11,2.72"/>
</g>
<!-- Node12&#45;&gt;Node9 -->
<g id="edge14" class="edge">
<title>Node12&#45;&gt;Node9</title>
<path fill="none" stroke="midnightblue" d="M1060.66,-346.85C1044.29,-335.77 1022.24,-320.85 1006.01,-309.86"/>
<polygon fill="midnightblue" stroke="midnightblue" points="1007.91,-306.92 997.66,-304.22 1003.98,-312.72 1007.91,-306.92"/>
</g>
<!-- Node12&#45;&gt;Node10 -->
<g id="edge16" class="edge">
<title>Node12&#45;&gt;Node10</title>
<path fill="none" stroke="midnightblue" d="M1126.24,-346.86C1142.63,-338.75 1159.63,-326.98 1169.12,-310.55 1179.75,-292.16 1175.71,-147.92 1173.85,-95.24"/>
<polygon fill="midnightblue" stroke="midnightblue" points="1177.35,-95.07 1173.49,-85.2 1170.35,-95.32 1177.35,-95.07"/>
</g>
<!-- Node12&#45;&gt;Node11 -->
<g id="edge17" class="edge">
<title>Node12&#45;&gt;Node11</title>
<path fill="none" stroke="midnightblue" d="M1073.91,-346.9C1068.42,-336.96 1061.98,-323.46 1059.12,-310.55 1055.95,-296.23 1057.67,-292.15 1059.12,-277.55 1068.95,-178.76 1032.46,-128.29 1103.12,-58.55 1127.57,-34.42 1216.47,-22.68 1279.65,-17.26"/>
<polygon fill="midnightblue" stroke="midnightblue" points="1280.27,-20.73 1289.95,-16.42 1279.69,-13.75 1280.27,-20.73"/>
</g>
<!-- Node13 -->
<g id="node14" class="node">
<title>Node13</title>
<g id="a_node14"><a xlink:title=" ">
<polygon fill="white" stroke="#bfbfbf" points="1067.78,-284.05 1067.78,-304.05 1160.47,-304.05 1160.47,-284.05 1067.78,-284.05"/>
<text text-anchor="middle" x="1114.12" y="-291.05" font-family="Helvetica,sans-Serif" font-size="10.00">hate/type_traits.h</text>
</a>
</g>
</g>
<!-- Node12&#45;&gt;Node13 -->
<g id="edge15" class="edge">
<title>Node12&#45;&gt;Node13</title>
<path fill="none" stroke="midnightblue" d="M1090.16,-346.85C1094.76,-336.9 1100.8,-323.85 1105.66,-313.33"/>
<polygon fill="midnightblue" stroke="midnightblue" points="1108.86,-314.76 1109.88,-304.22 1102.51,-311.82 1108.86,-314.76"/>
</g>
<!-- Node12&#45;&gt;Node14 -->
<g id="edge18" class="edge">
<title>Node12&#45;&gt;Node14</title>
<path fill="none" stroke="midnightblue" d="M1131.93,-358.75C1296.35,-347.64 1829.94,-311.56 2012.33,-299.23"/>
<polygon fill="midnightblue" stroke="midnightblue" points="2012.81,-302.71 2022.55,-298.54 2012.34,-295.72 2012.81,-302.71"/>
</g>
<!-- Node14&#45;&gt;Node10 -->
<g id="edge27" class="edge">
<title>Node14&#45;&gt;Node10</title>
<path fill="none" stroke="midnightblue" d="M2022.77,-292.24C1875.99,-289.47 1456.82,-278.48 1325.12,-241.55 1272.1,-226.69 1251.88,-225.55 1215.12,-184.55 1192.06,-158.84 1181.07,-119.06 1176.31,-95.48"/>
<polygon fill="midnightblue" stroke="midnightblue" points="1179.7,-94.55 1174.45,-85.34 1172.81,-95.81 1179.7,-94.55"/>
</g>
<!-- Node14&#45;&gt;Node11 -->
<g id="edge62" class="edge">
<title>Node14&#45;&gt;Node11</title>
<path fill="none" stroke="midnightblue" d="M2022.74,-293.67C1866.24,-294.96 1397.56,-294.21 1256.12,-241.55 1161.9,-206.47 1059.53,-136.43 1123.12,-58.55 1142.63,-34.66 1221.29,-22.99 1279.69,-17.52"/>
<polygon fill="midnightblue" stroke="midnightblue" points="1280.32,-20.97 1289.97,-16.6 1279.7,-14 1280.32,-20.97"/>
</g>
<!-- Node15 -->
<g id="node16" class="node">
<title>Node15</title>
<g id="a_node16"><a xlink:title=" ">
<polygon fill="white" stroke="#bfbfbf" points="2857.95,-221.05 2857.95,-241.05 2902.29,-241.05 2902.29,-221.05 2857.95,-221.05"/>
<text text-anchor="middle" x="2880.12" y="-228.05" font-family="Helvetica,sans-Serif" font-size="10.00">iosfwd</text>
</a>
</g>
</g>
<!-- Node14&#45;&gt;Node15 -->
<g id="edge19" class="edge">
<title>Node14&#45;&gt;Node15</title>
<path fill="none" stroke="midnightblue" d="M2125.87,-292.99C2250.42,-292.11 2576.38,-285.42 2844.12,-241.55 2845.38,-241.35 2846.65,-241.12 2847.94,-240.87"/>
<polygon fill="midnightblue" stroke="midnightblue" points="2848.81,-244.26 2857.8,-238.65 2847.27,-237.43 2848.81,-244.26"/>
</g>
<!-- Node16 -->
<g id="node17" class="node">
<title>Node16</title>
<g id="a_node17"><a xlink:title=" ">
<polygon fill="white" stroke="#bfbfbf" points="2333.07,-65.05 2333.07,-85.05 2385.17,-85.05 2385.17,-65.05 2333.07,-65.05"/>
<text text-anchor="middle" x="2359.12" y="-72.05" font-family="Helvetica,sans-Serif" font-size="10.00">memory</text>
</a>
</g>
</g>
<!-- Node14&#45;&gt;Node16 -->
<g id="edge20" class="edge">
<title>Node14&#45;&gt;Node16</title>
<path fill="none" stroke="midnightblue" d="M2125.59,-293.6C2274.68,-293.95 2701.5,-285.94 2785.12,-184.55 2801.24,-165.01 2802.19,-146.27 2785.12,-127.55 2726.32,-63.09 2478.57,-113.51 2394.12,-91.55 2391.44,-90.86 2388.71,-89.97 2386,-88.99"/>
<polygon fill="midnightblue" stroke="midnightblue" points="2387.11,-85.66 2376.53,-85.09 2384.44,-92.13 2387.11,-85.66"/>
</g>
<!-- Node17 -->
<g id="node18" class="node">
<title>Node17</title>
<g id="a_node18"><a xlink:title=" ">
<polygon fill="white" stroke="#bfbfbf" points="2957.89,-221.05 2957.89,-241.05 3038.36,-241.05 3038.36,-221.05 2957.89,-221.05"/>
<text text-anchor="middle" x="2998.12" y="-228.05" font-family="Helvetica,sans-Serif" font-size="10.00">unordered_set</text>
</a>
</g>
</g>
<!-- Node14&#45;&gt;Node17 -->
<g id="edge21" class="edge">
<title>Node14&#45;&gt;Node17</title>
<path fill="none" stroke="midnightblue" d="M2125.79,-292.07C2260.76,-289.04 2634.93,-277.78 2944.12,-241.55 2945.23,-241.42 2946.36,-241.28 2947.49,-241.14"/>
<polygon fill="midnightblue" stroke="midnightblue" points="2948.39,-244.54 2957.8,-239.67 2947.41,-237.61 2948.39,-244.54"/>
</g>
<!-- Node18 -->
<g id="node19" class="node">
<title>Node18</title>
<g id="a_node19"><a xlink:title=" ">
<polygon fill="white" stroke="#bfbfbf" points="2668.56,-146.05 2668.56,-166.05 2775.69,-166.05 2775.69,-146.05 2668.56,-146.05"/>
<text text-anchor="middle" x="2722.12" y="-153.05" font-family="Helvetica,sans-Serif" font-size="10.00">haldls/vx/container.h</text>
</a>
</g>
</g>
<!-- Node14&#45;&gt;Node18 -->
<g id="edge22" class="edge">
<title>Node14&#45;&gt;Node18</title>
<path fill="none" stroke="midnightblue" d="M2125.66,-287.91C2228.88,-276.66 2467.51,-245.81 2659.12,-184.55 2671.05,-180.74 2683.77,-175.44 2694.65,-170.5"/>
<polygon fill="midnightblue" stroke="midnightblue" points="2696.45,-173.52 2704.03,-166.13 2693.49,-167.18 2696.45,-173.52"/>
</g>
<!-- Node19 -->
<g id="node20" class="node">
<title>Node19</title>
<g id="a_node20"><a xlink:title=" ">
<polygon fill="white" stroke="#bfbfbf" points="1238.84,-146.05 1238.84,-166.05 1335.41,-166.05 1335.41,-146.05 1238.84,-146.05"/>
<text text-anchor="middle" x="1287.12" y="-153.05" font-family="Helvetica,sans-Serif" font-size="10.00">lola/vx/container.h</text>
</a>
</g>
</g>
<!-- Node14&#45;&gt;Node19 -->
<g id="edge23" class="edge">
<title>Node14&#45;&gt;Node19</title>
<path fill="none" stroke="midnightblue" d="M2022.73,-289.62C1934.17,-283.25 1747.26,-267.79 1591.12,-241.55 1480.02,-222.88 1450.41,-221.93 1344.12,-184.55 1333.55,-180.83 1322.35,-175.71 1312.71,-170.9"/>
<polygon fill="midnightblue" stroke="midnightblue" points="1314.16,-167.71 1303.66,-166.25 1310.96,-173.93 1314.16,-167.71"/>
</g>
<!-- Node20 -->
<g id="node21" class="node">
<title>Node20</title>
<g id="a_node21"><a xlink:title=" ">
<polygon fill="white" stroke="#bfbfbf" points="1353.61,-140.05 1353.61,-172.05 1454.63,-172.05 1454.63,-140.05 1353.61,-140.05"/>
<text text-anchor="start" x="1361.61" y="-159.05" font-family="Helvetica,sans-Serif" font-size="10.00">halco/hicann&#45;dls/vx</text>
<text text-anchor="middle" x="1404.12" y="-147.05" font-family="Helvetica,sans-Serif" font-size="10.00">/barrier.h</text>
</a>
</g>
</g>
<!-- Node14&#45;&gt;Node20 -->
<g id="edge24" class="edge">
<title>Node14&#45;&gt;Node20</title>
<path fill="none" stroke="midnightblue" d="M2022.6,-289.2C1915.88,-280.09 1663.95,-252.61 1464.12,-184.55 1457.19,-182.19 1449.97,-179.29 1443.05,-176.27"/>
<polygon fill="midnightblue" stroke="midnightblue" points="1444.41,-173.05 1433.85,-172.12 1441.53,-179.43 1444.41,-173.05"/>
</g>
<!-- Node21 -->
<g id="node22" class="node">
<title>Node21</title>
<g id="a_node22"><a xlink:title=" ">
<polygon fill="white" stroke="#bfbfbf" points="1472.68,-146.05 1472.68,-166.05 1567.57,-166.05 1567.57,-146.05 1472.68,-146.05"/>
<text text-anchor="middle" x="1520.12" y="-153.05" font-family="Helvetica,sans-Serif" font-size="10.00">haldls/vx/barrier.h</text>
</a>
</g>
</g>
<!-- Node14&#45;&gt;Node21 -->
<g id="edge25" class="edge">
<title>Node14&#45;&gt;Node21</title>
<path fill="none" stroke="midnightblue" d="M2022.44,-285.3C1931.62,-270.88 1738.14,-236.6 1581.12,-184.55 1569.56,-180.72 1557.23,-175.41 1546.7,-170.48"/>
<polygon fill="midnightblue" stroke="midnightblue" points="1548.15,-167.29 1537.62,-166.11 1545.11,-173.6 1548.15,-167.29"/>
</g>
<!-- Node22 -->
<g id="node23" class="node">
<title>Node22</title>
<g id="a_node23"><a xlink:title=" ">
<polygon fill="white" stroke="#bfbfbf" points="2464.95,-65.05 2464.95,-85.05 2569.3,-85.05 2569.3,-65.05 2464.95,-65.05"/>
<text text-anchor="middle" x="2517.12" y="-72.05" font-family="Helvetica,sans-Serif" font-size="10.00">haldls/vx/common.h</text>
</a>
</g>
</g>
<!-- Node14&#45;&gt;Node22 -->
<g id="edge26" class="edge">
<title>Node14&#45;&gt;Node22</title>
<path fill="none" stroke="midnightblue" d="M2125.51,-292.34C2258.55,-289.95 2611.49,-280.07 2721.12,-241.55 2763.69,-226.6 2784,-224.42 2805.12,-184.55 2816.98,-162.17 2821.6,-146.8 2805.12,-127.55 2771.33,-88.09 2624.93,-102.39 2574.12,-91.55 2568.79,-90.42 2563.22,-89.08 2557.74,-87.69"/>
<polygon fill="midnightblue" stroke="midnightblue" points="2558.59,-84.29 2548.03,-85.13 2556.81,-91.06 2558.59,-84.29"/>
</g>
<!-- Node23 -->
<g id="node24" class="node">
<title>Node23</title>
<g id="a_node24"><a xlink:title=" ">
<polygon fill="white" stroke="#bfbfbf" points="1366.5,-65.05 1366.5,-85.05 1469.74,-85.05 1469.74,-65.05 1366.5,-65.05"/>
<text text-anchor="middle" x="1418.12" y="-72.05" font-family="Helvetica,sans-Serif" font-size="10.00">hxcomm/vx/target.h</text>
</a>
</g>
</g>
<!-- Node14&#45;&gt;Node23 -->
<g id="edge28" class="edge">
<title>Node14&#45;&gt;Node23</title>
<path fill="none" stroke="midnightblue" d="M2022.66,-290.54C1847.05,-281.42 1279.5,-247.27 1230.12,-184.55 1214.45,-164.65 1214.76,-147.69 1230.12,-127.55 1245.55,-107.33 1307.67,-93.1 1356.34,-84.8"/>
<polygon fill="midnightblue" stroke="midnightblue" points="1357.2,-88.2 1366.5,-83.12 1356.06,-81.3 1357.2,-88.2"/>
</g>
<!-- Node24 -->
<g id="node25" class="node">
<title>Node24</title>
<g id="a_node25"><a xlink:href="dumper_8h.html" target="_top" xlink:title=" ">
<polygon fill="white" stroke="black" points="2024.17,-221.05 2024.17,-241.05 2124.08,-241.05 2124.08,-221.05 2024.17,-221.05"/>
<text text-anchor="middle" x="2074.12" y="-228.05" font-family="Helvetica,sans-Serif" font-size="10.00">stadls/vx/dumper.h</text>
</a>
</g>
</g>
<!-- Node14&#45;&gt;Node24 -->
<g id="edge29" class="edge">
<title>Node14&#45;&gt;Node24</title>
<path fill="none" stroke="midnightblue" d="M2074.12,-277.97C2074.12,-269.93 2074.12,-259.94 2074.12,-251.33"/>
<polygon fill="midnightblue" stroke="midnightblue" points="2077.62,-251.1 2074.12,-241.1 2070.62,-251.1 2077.62,-251.1"/>
</g>
<!-- Node14&#45;&gt;Node31 -->
<g id="edge63" class="edge">
<title>Node14&#45;&gt;Node31</title>
<path fill="none" stroke="midnightblue" d="M2125.73,-291.71C2303.75,-286.84 2882.81,-268.95 2911.12,-241.55 2926.51,-226.66 2927.01,-201.46 2924.56,-182.44"/>
<polygon fill="midnightblue" stroke="midnightblue" points="2927.98,-181.66 2922.92,-172.35 2921.07,-182.78 2927.98,-181.66"/>
</g>
<!-- Node41 -->
<g id="node42" class="node">
<title>Node41</title>
<g id="a_node42"><a xlink:title=" ">
<polygon fill="white" stroke="#bfbfbf" points="2412.39,-146.05 2412.39,-166.05 2527.86,-166.05 2527.86,-146.05 2412.39,-146.05"/>
<text text-anchor="middle" x="2470.12" y="-153.05" font-family="Helvetica,sans-Serif" font-size="10.00">haldls/vx/container.def</text>
</a>
</g>
</g>
<!-- Node14&#45;&gt;Node41 -->
<g id="edge64" class="edge">
<title>Node14&#45;&gt;Node41</title>
<path fill="none" stroke="midnightblue" d="M2118.01,-277.98C2196.87,-250.9 2361.07,-194.51 2433.94,-169.48"/>
<polygon fill="midnightblue" stroke="midnightblue" points="2435.28,-172.72 2443.6,-166.16 2433,-166.1 2435.28,-172.72"/>
</g>
<!-- Node42 -->
<g id="node43" class="node">
<title>Node42</title>
<g id="a_node43"><a xlink:title=" ">
<polygon fill="white" stroke="#bfbfbf" points="2545.67,-146.05 2545.67,-166.05 2650.58,-166.05 2650.58,-146.05 2545.67,-146.05"/>
<text text-anchor="middle" x="2598.12" y="-153.05" font-family="Helvetica,sans-Serif" font-size="10.00">lola/vx/container.def</text>
</a>
</g>
</g>
<!-- Node14&#45;&gt;Node42 -->
<g id="edge65" class="edge">
<title>Node14&#45;&gt;Node42</title>
<path fill="none" stroke="midnightblue" d="M2125.73,-284.33C2212.22,-268.98 2391.3,-233.99 2537.12,-184.55 2548.58,-180.67 2560.81,-175.39 2571.28,-170.5"/>
<polygon fill="midnightblue" stroke="midnightblue" points="2572.83,-173.64 2580.34,-166.17 2569.81,-167.33 2572.83,-173.64"/>
</g>
<!-- Node24&#45;&gt;Node10 -->
<g id="edge37" class="edge">
<title>Node24&#45;&gt;Node10</title>
<path fill="none" stroke="midnightblue" d="M2024.02,-230.02C1920.57,-229.17 1687.37,-222.92 1619.12,-184.55 1591.46,-169 1603.57,-143.48 1576.12,-127.55 1546.19,-110.18 1325.29,-89.18 1223.83,-80.32"/>
<polygon fill="midnightblue" stroke="midnightblue" points="1224.07,-76.83 1213.81,-79.45 1223.47,-83.8 1224.07,-76.83"/>
</g>
<!-- Node24&#45;&gt;Node11 -->
<g id="edge42" class="edge">
<title>Node24&#45;&gt;Node11</title>
<path fill="none" stroke="midnightblue" d="M2023.82,-229.75C1925.92,-228.34 1713.92,-221.02 1652.12,-184.55 1625.47,-168.82 1635.42,-147.93 1612.12,-127.55 1562,-83.71 1540.35,-84.74 1479.12,-58.55 1448.68,-45.53 1413.15,-33.54 1386.48,-25.13"/>
<polygon fill="midnightblue" stroke="midnightblue" points="1387.3,-21.72 1376.72,-22.09 1385.22,-28.41 1387.3,-21.72"/>
</g>
<!-- Node24&#45;&gt;Node16 -->
<g id="edge30" class="edge">
<title>Node24&#45;&gt;Node16</title>
<path fill="none" stroke="midnightblue" d="M2124.24,-227.18C2189.27,-222.44 2297.88,-210.77 2327.12,-184.55 2352.49,-161.8 2358.17,-120.05 2359.2,-95.5"/>
<polygon fill="midnightblue" stroke="midnightblue" points="2362.7,-95.34 2359.4,-85.28 2355.7,-95.21 2362.7,-95.34"/>
</g>
<!-- Node24&#45;&gt;Node18 -->
<g id="edge36" class="edge">
<title>Node24&#45;&gt;Node18</title>
<path fill="none" stroke="midnightblue" d="M2124.25,-228.3C2246.69,-223.67 2558.31,-209.72 2659.12,-184.55 2671.84,-181.38 2685.24,-175.87 2696.4,-170.61"/>
<polygon fill="midnightblue" stroke="midnightblue" points="2698.12,-173.66 2705.55,-166.11 2695.03,-167.38 2698.12,-173.66"/>
</g>
<!-- Node24&#45;&gt;Node19 -->
<g id="edge38" class="edge">
<title>Node24&#45;&gt;Node19</title>
<path fill="none" stroke="midnightblue" d="M2024.12,-229.44C1881.22,-227.29 1473.04,-218.28 1344.12,-184.55 1332.68,-181.56 1320.79,-176.22 1310.85,-171.04"/>
<polygon fill="midnightblue" stroke="midnightblue" points="1312.44,-167.93 1301.99,-166.21 1309.09,-174.07 1312.44,-167.93"/>
</g>
<!-- Node24&#45;&gt;Node20 -->
<g id="edge34" class="edge">
<title>Node24&#45;&gt;Node20</title>
<path fill="none" stroke="midnightblue" d="M2024.15,-228.6C1898.08,-224.58 1569.66,-211.74 1464.12,-184.55 1456.32,-182.54 1448.28,-179.56 1440.72,-176.3"/>
<polygon fill="midnightblue" stroke="midnightblue" points="1442,-173.03 1431.45,-172.06 1439.09,-179.4 1442,-173.03"/>
</g>
<!-- Node24&#45;&gt;Node21 -->
<g id="edge35" class="edge">
<title>Node24&#45;&gt;Node21</title>
<path fill="none" stroke="midnightblue" d="M2023.85,-230.84C1933.6,-231.07 1738.83,-226.13 1581.12,-184.55 1568.91,-181.33 1556.07,-175.89 1545.34,-170.69"/>
<polygon fill="midnightblue" stroke="midnightblue" points="1546.65,-167.43 1536.15,-166.05 1543.5,-173.68 1546.65,-167.43"/>
</g>
<!-- Node25 -->
<g id="node26" class="node">
<title>Node25</title>
<g id="a_node26"><a xlink:title=" ">
<polygon fill="white" stroke="#bfbfbf" points="2279.74,-146.05 2279.74,-166.05 2318.51,-166.05 2318.51,-146.05 2279.74,-146.05"/>
<text text-anchor="middle" x="2299.12" y="-153.05" font-family="Helvetica,sans-Serif" font-size="10.00">utility</text>
</a>
</g>
</g>
<!-- Node24&#45;&gt;Node25 -->
<g id="edge31" class="edge">
<title>Node24&#45;&gt;Node25</title>
<path fill="none" stroke="midnightblue" d="M2124.15,-226.08C2165.66,-221.07 2225.11,-209.79 2271.12,-184.55 2276.15,-181.8 2280.89,-177.88 2285,-173.87"/>
<polygon fill="midnightblue" stroke="midnightblue" points="2287.78,-176.02 2292.01,-166.31 2282.65,-171.26 2287.78,-176.02"/>
</g>
<!-- Node26 -->
<g id="node27" class="node">
<title>Node26</title>
<g id="a_node27"><a xlink:title=" ">
<polygon fill="white" stroke="#bfbfbf" points="1661.12,-146.05 1661.12,-166.05 1707.12,-166.05 1707.12,-146.05 1661.12,-146.05"/>
<text text-anchor="middle" x="1684.12" y="-153.05" font-family="Helvetica,sans-Serif" font-size="10.00">variant</text>
</a>
</g>
</g>
<!-- Node24&#45;&gt;Node26 -->
<g id="edge32" class="edge">
<title>Node24&#45;&gt;Node26</title>
<path fill="none" stroke="midnightblue" d="M2023.83,-227.23C1938.68,-221.87 1770.08,-208.53 1716.12,-184.55 1710.12,-181.88 1704.39,-177.71 1699.49,-173.41"/>
<polygon fill="midnightblue" stroke="midnightblue" points="1701.74,-170.72 1692.11,-166.31 1696.89,-175.76 1701.74,-170.72"/>
</g>
<!-- Node27 -->
<g id="node28" class="node">
<title>Node27</title>
<g id="a_node28"><a xlink:title=" ">
<polygon fill="white" stroke="#bfbfbf" points="2403.51,-65.05 2403.51,-85.05 2446.74,-85.05 2446.74,-65.05 2403.51,-65.05"/>
<text text-anchor="middle" x="2425.12" y="-72.05" font-family="Helvetica,sans-Serif" font-size="10.00">vector</text>
</a>
</g>
</g>
<!-- Node24&#45;&gt;Node27 -->
<g id="edge33" class="edge">
<title>Node24&#45;&gt;Node27</title>
<path fill="none" stroke="midnightblue" d="M2124.17,-226.82C2194.44,-221.47 2317.95,-208.86 2355.12,-184.55 2372.42,-173.24 2401.11,-121.95 2415.81,-94.13"/>
<polygon fill="midnightblue" stroke="midnightblue" points="2419.02,-95.54 2420.54,-85.06 2412.81,-92.3 2419.02,-95.54"/>
</g>
<!-- Node28 -->
<g id="node29" class="node">
<title>Node28</title>
<g id="a_node29"><a xlink:title=" ">
<polygon fill="white" stroke="#bfbfbf" points="1724.76,-146.05 1724.76,-166.05 1867.49,-166.05 1867.49,-146.05 1724.76,-146.05"/>
<text text-anchor="middle" x="1796.12" y="-153.05" font-family="Helvetica,sans-Serif" font-size="10.00">boost/hana/adapt_struct.hpp</text>
</a>
</g>
</g>
<!-- Node24&#45;&gt;Node28 -->
<g id="edge39" class="edge">
<title>Node24&#45;&gt;Node28</title>
<path fill="none" stroke="midnightblue" d="M2028.56,-221.01C1988.2,-212.65 1927.84,-199.34 1876.12,-184.55 1860.9,-180.2 1844.3,-174.63 1830.2,-169.65"/>
<polygon fill="midnightblue" stroke="midnightblue" points="1831.01,-166.23 1820.42,-166.15 1828.66,-172.82 1831.01,-166.23"/>
</g>
<!-- Node29 -->
<g id="node30" class="node">
<title>Node29</title>
<g id="a_node30"><a xlink:title=" ">
<polygon fill="white" stroke="#bfbfbf" points="1885.44,-128.05 1885.44,-184.05 2064.8,-184.05 2064.8,-128.05 1885.44,-128.05"/>
<text text-anchor="start" x="1893.44" y="-171.05" font-family="Helvetica,sans-Serif" font-size="10.00">/jenkins/jenlib_workspaces</text>
<text text-anchor="start" x="1893.44" y="-159.05" font-family="Helvetica,sans-Serif" font-size="10.00">_f9/bld_nightly&#45;haldls.YmxkX25p</text>
<text text-anchor="start" x="1893.44" y="-147.05" font-family="Helvetica,sans-Serif" font-size="10.00">Z2h0bHktaGFsZGxzIzY1NQ.x/haldls</text>
<text text-anchor="middle" x="1975.12" y="-135.05" font-family="Helvetica,sans-Serif" font-size="10.00">/include/haldls/vx/common.h</text>
</a>
</g>
</g>
<!-- Node24&#45;&gt;Node29 -->
<g id="edge40" class="edge">
<title>Node24&#45;&gt;Node29</title>
<path fill="none" stroke="midnightblue" d="M2061.58,-220.81C2051.05,-213.04 2035.32,-201.44 2020.16,-190.26"/>
<polygon fill="midnightblue" stroke="midnightblue" points="2021.95,-187.24 2011.83,-184.12 2017.8,-192.87 2021.95,-187.24"/>
</g>
<!-- Node30 -->
<g id="node31" class="node">
<title>Node30</title>
<g id="a_node31"><a xlink:title=" ">
<polygon fill="white" stroke="#bfbfbf" points="2082.44,-128.05 2082.44,-184.05 2261.8,-184.05 2261.8,-128.05 2082.44,-128.05"/>
<text text-anchor="start" x="2090.44" y="-171.05" font-family="Helvetica,sans-Serif" font-size="10.00">/jenkins/jenlib_workspaces</text>
<text text-anchor="start" x="2090.44" y="-159.05" font-family="Helvetica,sans-Serif" font-size="10.00">_f9/bld_nightly&#45;haldls.YmxkX25p</text>
<text text-anchor="start" x="2090.44" y="-147.05" font-family="Helvetica,sans-Serif" font-size="10.00">Z2h0bHktaGFsZGxzIzY1NQ.x/haldls</text>
<text text-anchor="middle" x="2172.12" y="-135.05" font-family="Helvetica,sans-Serif" font-size="10.00">/include/haldls/vx/neuron.h</text>
</a>
</g>
</g>
<!-- Node24&#45;&gt;Node30 -->
<g id="edge41" class="edge">
<title>Node24&#45;&gt;Node30</title>
<path fill="none" stroke="midnightblue" d="M2086.53,-220.81C2096.96,-213.04 2112.53,-201.44 2127.54,-190.26"/>
<polygon fill="midnightblue" stroke="midnightblue" points="2129.86,-192.9 2135.79,-184.12 2125.68,-187.29 2129.86,-192.9"/>
</g>
<!-- Node24&#45;&gt;Node31 -->
<g id="edge43" class="edge">
<title>Node24&#45;&gt;Node31</title>
<path fill="none" stroke="midnightblue" d="M2124.35,-229.23C2240.93,-226.78 2538.71,-217.56 2785.12,-184.55 2809.93,-181.23 2837.03,-175.98 2860.32,-170.96"/>
<polygon fill="midnightblue" stroke="midnightblue" points="2861.38,-174.31 2870.39,-168.75 2859.88,-167.47 2861.38,-174.31"/>
</g>
<!-- Node24&#45;&gt;Node41 -->
<g id="edge60" class="edge">
<title>Node24&#45;&gt;Node41</title>
<path fill="none" stroke="midnightblue" d="M2124.2,-226.54C2188.45,-221.23 2302.96,-209.07 2398.12,-184.55 2412.47,-180.85 2427.89,-175.21 2440.75,-169.99"/>
<polygon fill="midnightblue" stroke="midnightblue" points="2442.15,-173.2 2450.04,-166.13 2439.46,-166.74 2442.15,-173.2"/>
</g>
<!-- Node24&#45;&gt;Node42 -->
<g id="edge61" class="edge">
<title>Node24&#45;&gt;Node42</title>
<path fill="none" stroke="midnightblue" d="M2124.4,-230.41C2210.44,-229.85 2390.8,-223.59 2537.12,-184.55 2549.24,-181.32 2561.98,-175.92 2572.67,-170.76"/>
<polygon fill="midnightblue" stroke="midnightblue" points="2574.47,-173.78 2581.83,-166.16 2571.33,-167.52 2574.47,-173.78"/>
</g>
<!-- Node31&#45;&gt;Node10 -->
<g id="edge52" class="edge">
<title>Node31&#45;&gt;Node10</title>
<path fill="none" stroke="midnightblue" d="M2870.45,-142.9C2845.17,-137.14 2813.67,-130.82 2785.12,-127.55 2154.36,-55.45 1991.04,-126.21 1357.12,-91.55 1311.92,-89.08 1260.59,-84.62 1223.66,-81.12"/>
<polygon fill="midnightblue" stroke="midnightblue" points="1223.93,-77.63 1213.64,-80.15 1223.26,-84.59 1223.93,-77.63"/>
</g>
<!-- Node31&#45;&gt;Node11 -->
<g id="edge54" class="edge">
<title>Node31&#45;&gt;Node11</title>
<path fill="none" stroke="midnightblue" d="M2888.96,-139.97C2878.74,-135.38 2867.13,-130.72 2856.12,-127.55 2752.47,-97.72 2714.07,-136.71 2616.12,-91.55 2595.81,-82.19 2598.93,-66.77 2578.12,-58.55 2469.68,-15.74 1653.37,-12.84 1412.71,-12.93"/>
<polygon fill="midnightblue" stroke="midnightblue" points="1412.36,-9.43 1402.36,-12.94 1412.36,-16.43 1412.36,-9.43"/>
</g>
<!-- Node31&#45;&gt;Node16 -->
<g id="edge45" class="edge">
<title>Node31&#45;&gt;Node16</title>
<path fill="none" stroke="midnightblue" d="M2870.98,-140.03C2854.38,-135.37 2835.57,-130.64 2818.12,-127.55 2631.9,-94.57 2577.33,-138.49 2394.12,-91.55 2391.44,-90.86 2388.7,-89.99 2386,-89.01"/>
<polygon fill="midnightblue" stroke="midnightblue" points="2387.1,-85.68 2376.52,-85.12 2384.44,-92.15 2387.1,-85.68"/>
</g>
<!-- Node31&#45;&gt;Node22 -->
<g id="edge50" class="edge">
<title>Node31&#45;&gt;Node22</title>
<path fill="none" stroke="midnightblue" d="M2889.31,-140C2879.02,-135.35 2867.28,-130.66 2856.12,-127.55 2738.22,-94.75 2703.51,-113.57 2583.12,-91.55 2576.43,-90.33 2569.4,-88.87 2562.52,-87.34"/>
<polygon fill="midnightblue" stroke="midnightblue" points="2563.14,-83.89 2552.61,-85.07 2561.58,-90.71 2563.14,-83.89"/>
</g>
<!-- Node31&#45;&gt;Node23 -->
<g id="edge53" class="edge">
<title>Node31&#45;&gt;Node23</title>
<path fill="none" stroke="midnightblue" d="M2870.43,-143.05C2845.15,-137.33 2813.65,-130.99 2785.12,-127.55 2527.22,-96.45 1711.85,-80.9 1480.11,-77.03"/>
<polygon fill="midnightblue" stroke="midnightblue" points="1479.9,-73.53 1469.84,-76.86 1479.78,-80.52 1479.9,-73.53"/>
</g>
<!-- Node31&#45;&gt;Node27 -->
<g id="edge48" class="edge">
<title>Node31&#45;&gt;Node27</title>
<path fill="none" stroke="midnightblue" d="M2870.44,-140.04C2853.96,-135.43 2835.37,-130.73 2818.12,-127.55 2659.12,-98.21 2611.45,-136.45 2456.12,-91.55 2453.96,-90.93 2451.77,-90.16 2449.61,-89.29"/>
<polygon fill="midnightblue" stroke="midnightblue" points="2450.99,-86.08 2440.44,-85.09 2448.08,-92.44 2450.99,-86.08"/>
</g>
<!-- Node32 -->
<g id="node33" class="node">
<title>Node32</title>
<g id="a_node33"><a xlink:title=" ">
<polygon fill="white" stroke="#bfbfbf" points="2975.67,-65.05 2975.67,-85.05 3020.57,-85.05 3020.57,-65.05 2975.67,-65.05"/>
<text text-anchor="middle" x="2998.12" y="-72.05" font-family="Helvetica,sans-Serif" font-size="10.00">cstdint</text>
</a>
</g>
</g>
<!-- Node31&#45;&gt;Node32 -->
<g id="edge44" class="edge">
<title>Node31&#45;&gt;Node32</title>
<path fill="none" stroke="midnightblue" d="M2934.35,-139.82C2947.85,-126.33 2967.51,-106.67 2981.43,-92.75"/>
<polygon fill="midnightblue" stroke="midnightblue" points="2984.27,-94.85 2988.87,-85.31 2979.32,-89.9 2984.27,-94.85"/>
</g>
<!-- Node33 -->
<g id="node34" class="node">
<title>Node33</title>
<g id="a_node34"><a xlink:title=" ">
<polygon fill="white" stroke="#bfbfbf" points="3038.62,-65.05 3038.62,-85.05 3089.63,-85.05 3089.63,-65.05 3038.62,-65.05"/>
<text text-anchor="middle" x="3064.12" y="-72.05" font-family="Helvetica,sans-Serif" font-size="10.00">optional</text>
</a>
</g>
</g>
<!-- Node31&#45;&gt;Node33 -->
<g id="edge46" class="edge">
<title>Node31&#45;&gt;Node33</title>
<path fill="none" stroke="midnightblue" d="M2946.74,-140.01C2973.23,-125.57 3012.9,-103.96 3038.65,-89.93"/>
<polygon fill="midnightblue" stroke="midnightblue" points="3040.35,-92.99 3047.46,-85.13 3037,-86.84 3040.35,-92.99"/>
</g>
<!-- Node34 -->
<g id="node35" class="node">
<title>Node34</title>
<g id="a_node35"><a xlink:title=" ">
<polygon fill="white" stroke="#bfbfbf" points="3107.9,-65.05 3107.9,-85.05 3148.34,-85.05 3148.34,-65.05 3107.9,-65.05"/>
<text text-anchor="middle" x="3128.12" y="-72.05" font-family="Helvetica,sans-Serif" font-size="10.00">string</text>
</a>
</g>
</g>
<!-- Node31&#45;&gt;Node34 -->
<g id="edge47" class="edge">
<title>Node31&#45;&gt;Node34</title>
<path fill="none" stroke="midnightblue" d="M2968.03,-140.03C3004.68,-128.23 3055.76,-110.66 3099.12,-91.55 3100.33,-91.02 3101.55,-90.46 3102.78,-89.88"/>
<polygon fill="midnightblue" stroke="midnightblue" points="3104.73,-92.82 3112.08,-85.18 3101.58,-86.57 3104.73,-92.82"/>
</g>
<!-- Node35 -->
<g id="node36" class="node">
<title>Node35</title>
<g id="a_node36"><a xlink:title=" ">
<polygon fill="white" stroke="#bfbfbf" points="3166.78,-65.05 3166.78,-85.05 3309.47,-85.05 3309.47,-65.05 3166.78,-65.05"/>
<text text-anchor="middle" x="3238.12" y="-72.05" font-family="Helvetica,sans-Serif" font-size="10.00">fisch/vx/playback_program.h</text>
</a>
</g>
</g>
<!-- Node31&#45;&gt;Node35 -->
<g id="edge49" class="edge">
<title>Node31&#45;&gt;Node35</title>
<path fill="none" stroke="midnightblue" d="M2967.92,-142.97C3028.8,-127.89 3132.14,-102.3 3191.83,-87.52"/>
<polygon fill="midnightblue" stroke="midnightblue" points="3192.87,-90.87 3201.73,-85.06 3191.19,-84.07 3192.87,-90.87"/>
</g>
<!-- Node36 -->
<g id="node37" class="node">
<title>Node36</title>
<g id="a_node37"><a xlink:title=" ">
<polygon fill="white" stroke="#bfbfbf" points="3327.89,-65.05 3327.89,-85.05 3418.36,-85.05 3418.36,-65.05 3327.89,-65.05"/>
<text text-anchor="middle" x="3373.12" y="-72.05" font-family="Helvetica,sans-Serif" font-size="10.00">haldls/vx/event.h</text>
</a>
</g>
</g>
<!-- Node31&#45;&gt;Node36 -->
<g id="edge51" class="edge">
<title>Node31&#45;&gt;Node36</title>
<path fill="none" stroke="midnightblue" d="M2967.99,-149.15C3043.55,-139.6 3193.09,-119.02 3318.12,-91.55 3323.2,-90.44 3328.5,-89.13 3333.73,-87.75"/>
<polygon fill="midnightblue" stroke="midnightblue" points="3334.87,-91.07 3343.6,-85.06 3333.03,-84.32 3334.87,-91.07"/>
</g>
<!-- Node37 -->
<g id="node38" class="node">
<title>Node37</title>
<g id="a_node38"><a xlink:href="run__time__info_8h.html" target="_top" xlink:title=" ">
<polygon fill="white" stroke="black" points="2624.84,-59.05 2624.84,-91.05 2721.41,-91.05 2721.41,-59.05 2624.84,-59.05"/>
<text text-anchor="start" x="2632.84" y="-78.05" font-family="Helvetica,sans-Serif" font-size="10.00">stadls/vx/run_time</text>
<text text-anchor="middle" x="2673.12" y="-66.05" font-family="Helvetica,sans-Serif" font-size="10.00">_info.h</text>
</a>
</g>
</g>
<!-- Node31&#45;&gt;Node37 -->
<g id="edge55" class="edge">
<title>Node31&#45;&gt;Node37</title>
<path fill="none" stroke="midnightblue" d="M2886.77,-139.92C2877.03,-135.64 2866.24,-131.16 2856.12,-127.55 2844.16,-123.28 2780.45,-105.53 2731.53,-92.06"/>
<polygon fill="midnightblue" stroke="midnightblue" points="2732.22,-88.62 2721.65,-89.34 2730.36,-95.37 2732.22,-88.62"/>
</g>
<!-- Node39 -->
<g id="node40" class="node">
<title>Node39</title>
<g id="a_node40"><a xlink:title=" ">
<polygon fill="white" stroke="#bfbfbf" points="2739.27,-65.05 2739.27,-85.05 2836.97,-85.05 2836.97,-65.05 2739.27,-65.05"/>
<text text-anchor="middle" x="2788.12" y="-72.05" font-family="Helvetica,sans-Serif" font-size="10.00">pybind11/numpy.h</text>
</a>
</g>
</g>
<!-- Node31&#45;&gt;Node39 -->
<g id="edge58" class="edge">
<title>Node31&#45;&gt;Node39</title>
<path fill="none" stroke="midnightblue" d="M2894.17,-140.01C2870.45,-125.7 2835.02,-104.34 2811.75,-90.3"/>
<polygon fill="midnightblue" stroke="midnightblue" points="2813.55,-87.3 2803.18,-85.13 2809.93,-93.29 2813.55,-87.3"/>
</g>
<!-- Node40 -->
<g id="node41" class="node">
<title>Node40</title>
<g id="a_node41"><a xlink:title=" ">
<polygon fill="white" stroke="#bfbfbf" points="2855.05,-65.05 2855.05,-85.05 2957.19,-85.05 2957.19,-65.05 2855.05,-65.05"/>
<text text-anchor="middle" x="2906.12" y="-72.05" font-family="Helvetica,sans-Serif" font-size="10.00">pybind11/stl_bind.h</text>
</a>
</g>
</g>
<!-- Node31&#45;&gt;Node40 -->
<g id="edge59" class="edge">
<title>Node31&#45;&gt;Node40</title>
<path fill="none" stroke="midnightblue" d="M2916.62,-139.82C2914.54,-127.21 2911.58,-109.21 2909.33,-95.55"/>
<polygon fill="midnightblue" stroke="midnightblue" points="2912.72,-94.61 2907.65,-85.31 2905.82,-95.74 2912.72,-94.61"/>
</g>
<!-- Node37&#45;&gt;Node11 -->
<g id="edge57" class="edge">
<title>Node37&#45;&gt;Node11</title>
<path fill="none" stroke="midnightblue" d="M2624.58,-60.9C2620.05,-59.98 2615.52,-59.17 2611.12,-58.55 2376.33,-25.35 1638.42,-15.79 1412.51,-13.61"/>
<polygon fill="midnightblue" stroke="midnightblue" points="1412.49,-10.11 1402.46,-13.51 1412.43,-17.11 1412.49,-10.11"/>
</g>
<!-- Node38 -->
<g id="node39" class="node">
<title>Node38</title>
<g id="a_node39"><a xlink:title=" ">
<polygon fill="white" stroke="#bfbfbf" points="2612.61,-2.05 2612.61,-22.05 2733.63,-22.05 2733.63,-2.05 2612.61,-2.05"/>
<text text-anchor="middle" x="2673.12" y="-9.05" font-family="Helvetica,sans-Serif" font-size="10.00">fisch/vx/run_time_info.h</text>
</a>
</g>
</g>
<!-- Node37&#45;&gt;Node38 -->
<g id="edge56" class="edge">
<title>Node37&#45;&gt;Node38</title>
<path fill="none" stroke="midnightblue" d="M2673.12,-58.97C2673.12,-50.93 2673.12,-40.94 2673.12,-32.33"/>
<polygon fill="midnightblue" stroke="midnightblue" points="2676.62,-32.1 2673.12,-22.1 2669.62,-32.1 2676.62,-32.1"/>
</g>
</g>
</svg>
        <g id="navigator" transform="translate(0 0)" fill="#404254">
                <rect fill="#f2f5e9" fill-opacity="0.5" stroke="#606060" stroke-width=".5" x="0" y="0" width="60" height="60"/>
                <use id="zoomplus" xlink:href="#zoomPlus" x="17" y="9" onmousedown="handleZoom(evt,'in')"/>
                <use id="zoomminus" xlink:href="#zoomMin" x="42" y="9" onmousedown="handleZoom(evt,'out')"/>
                <use id="reset" xlink:href="#resetDef" x="30" y="36" onmousedown="handleReset()"/>
                <g id="arrowUp" xlink:href="#dirArrow" transform="translate(30 24)" onmousedown="handlePan(0,-1)">
                  <use xlink:href="#rim" fill="#404040">
                        <set attributeName="fill" to="#808080" begin="arrowUp.mouseover" end="arrowUp.mouseout"/>
                  </use>
                  <path fill="none" stroke="white" stroke-width="1.5" d="M0,-3.0v7 M-2.5,-0.5L0,-3.0L2.5,-0.5"/>
                </g>
                <g id="arrowRight" xlink:href="#dirArrow" transform="rotate(90) translate(36 -43)" onmousedown="handlePan(1,0)">
                  <use xlink:href="#rim" fill="#404040">
                        <set attributeName="fill" to="#808080" begin="arrowRight.mouseover" end="arrowRight.mouseout"/>
                  </use>
                  <path fill="none" stroke="white" stroke-width="1.5" d="M0,-3.0v7 M-2.5,-0.5L0,-3.0L2.5,-0.5"/>
                </g>
                <g id="arrowDown" xlink:href="#dirArrow" transform="rotate(180) translate(-30 -48)" onmousedown="handlePan(0,1)">
                  <use xlink:href="#rim" fill="#404040">
                        <set attributeName="fill" to="#808080" begin="arrowDown.mouseover" end="arrowDown.mouseout"/>
                  </use>
                  <path fill="none" stroke="white" stroke-width="1.5" d="M0,-3.0v7 M-2.5,-0.5L0,-3.0L2.5,-0.5"/>
                </g>
                <g id="arrowLeft" xlink:href="#dirArrow" transform="rotate(270) translate(-36 17)" onmousedown="handlePan(-1,0)">
                  <use xlink:href="#rim" fill="#404040">
                        <set attributeName="fill" to="#808080" begin="arrowLeft.mouseover" end="arrowLeft.mouseout"/>
                  </use>
                  <path fill="none" stroke="white" stroke-width="1.5" d="M0,-3.0v7 M-2.5,-0.5L0,-3.0L2.5,-0.5"/>
                </g>
        </g>
        <svg viewBox="0 0 15 15" width="100%" height="30px" preserveAspectRatio="xMaxYMin meet">
         <g id="arrow_out" transform="scale(0.3 0.3)">
          <a xlink:href="init__generator_8h__incl_org.svg" target="_base">
           <rect id="button" ry="5" rx="5" y="6" x="6" height="38" width="38"
                fill="#f2f5e9" fill-opacity="0.5" stroke="#606060" stroke-width="1.0"/>
           <path id="arrow"
             d="M 11.500037,31.436501 C 11.940474,20.09759 22.043105,11.32322 32.158766,21.979434 L 37.068811,17.246167 C 37.068811,17.246167 37.088388,32 37.088388,32 L 22.160133,31.978069 C 22.160133,31.978069 26.997745,27.140456 26.997745,27.140456 C 18.528582,18.264221 13.291696,25.230495 11.500037,31.436501 z"
             style="fill:#404040;"/>
          </a>
         </g>
        </svg>
</svg>
