<?xml version="1.0" encoding="UTF-8" standalone="no"?>
<!DOCTYPE svg PUBLIC "-//W3C//DTD SVG 1.1//EN"
 "http://www.w3.org/Graphics/SVG/1.1/DTD/svg11.dtd">
<!-- Generated by graphviz version 2.43.0 (0)
 -->
<!-- Title: /jenkins/jenlib_workspaces_f9/bld_nightly&#45;haldls.YmxkX25pZ2h0bHktaGFsZGxzIzY1NQ.x/haldls/include/stadls/vx/playback_program_builder.h Pages: 1 -->
<!--zoomable 355 -->
<svg id="main" version="1.1" xmlns="http://www.w3.org/2000/svg" xmlns:xlink="http://www.w3.org/1999/xlink" xml:space="preserve" onload="init(evt)">
<style type="text/css"><![CDATA[
.edge:hover path { stroke: red; }
.edge:hover polygon { stroke: red; fill: red; }
]]></style>
<script type="text/javascript"><![CDATA[
var edges = document.getElementsByTagName('g');
if (edges && edges.length) {
  for (var i=0;i<edges.length;i++) {
    if (edges[i].id.substr(0,4)=='edge') {
      edges[i].setAttribute('class','edge');
    }
  }
}
]]></script>
        <defs>
                <circle id="rim" cx="0" cy="0" r="7"/>
                <circle id="rim2" cx="0" cy="0" r="3.5"/>
                <g id="zoomPlus">
                        <use xlink:href="#rim" fill="#404040">
                                <set attributeName="fill" to="#808080" begin="zoomplus.mouseover" end="zoomplus.mouseout"/>
                        </use>
                        <path d="M-4,0h8M0,-4v8" fill="none" stroke="white" stroke-width="1.5" pointer-events="none"/>
                </g>
                <g id="zoomMin">
                        <use xlink:href="#rim" fill="#404040">
                                <set attributeName="fill" to="#808080" begin="zoomminus.mouseover" end="zoomminus.mouseout"/>
                        </use>
                        <path d="M-4,0h8" fill="none" stroke="white" stroke-width="1.5" pointer-events="none"/>
                </g>
                <g id="dirArrow">
                        <path fill="none" stroke="white" stroke-width="1.5" d="M0,-3.0v7 M-2.5,-0.5L0,-3.0L2.5,-0.5"/>
                </g>
               <g id="resetDef">
                       <use xlink:href="#rim2" fill="#404040">
                               <set attributeName="fill" to="#808080" begin="reset.mouseover" end="reset.mouseout"/>
                       </use>
               </g>
        </defs>

<script type="text/javascript">
var viewWidth = 1974;
var viewHeight = 355;
var sectionId = 'dynsection-0';
</script>
<script xlink:href="svgpan.js"/>
<svg id="graph" class="graph">
<g id="viewport">
<title>/jenkins/jenlib_workspaces_f9/bld_nightly&#45;haldls.YmxkX25pZ2h0bHktaGFsZGxzIzY1NQ.x/haldls/include/stadls/vx/playback_program_builder.h</title>
<polygon fill="white" stroke="transparent" points="-4,4 -4,-350.55 1970.22,-350.55 1970.22,4 -4,4"/>
<!-- Node0 -->
<g id="node1" class="node">
<title>Node0</title>
<g id="a_node1"><a xlink:title=" ">
<polygon fill="#bfbfbf" stroke="black" points="475.49,-278.05 475.49,-346.05 654.85,-346.05 654.85,-278.05 475.49,-278.05"/>
<text text-anchor="start" x="483.49" y="-333.05" font-family="Helvetica,sans-Serif" font-size="10.00">/jenkins/jenlib_workspaces</text>
<text text-anchor="start" x="483.49" y="-321.05" font-family="Helvetica,sans-Serif" font-size="10.00">_f9/bld_nightly&#45;haldls.YmxkX25p</text>
<text text-anchor="start" x="483.49" y="-309.05" font-family="Helvetica,sans-Serif" font-size="10.00">Z2h0bHktaGFsZGxzIzY1NQ.x/haldls</text>
<text text-anchor="start" x="483.49" y="-297.05" font-family="Helvetica,sans-Serif" font-size="10.00">/include/stadls/vx/playback_program</text>
<text text-anchor="middle" x="565.17" y="-285.05" font-family="Helvetica,sans-Serif" font-size="10.00">_builder.h</text>
</a>
</g>
</g>
<!-- Node1 -->
<g id="node2" class="node">
<title>Node1</title>
<g id="a_node2"><a xlink:title=" ">
<polygon fill="white" stroke="#bfbfbf" points="0,-221.05 0,-241.05 44.34,-241.05 44.34,-221.05 0,-221.05"/>
<text text-anchor="middle" x="22.17" y="-228.05" font-family="Helvetica,sans-Serif" font-size="10.00">iosfwd</text>
</a>
</g>
</g>
<!-- Node0&#45;&gt;Node1 -->
<g id="edge1" class="edge">
<title>Node0&#45;&gt;Node1</title>
<path fill="none" stroke="midnightblue" d="M475.32,-302.08C373.55,-291.15 203.01,-270.48 58.17,-241.55 56.92,-241.3 55.65,-241.04 54.37,-240.76"/>
<polygon fill="midnightblue" stroke="midnightblue" points="55.08,-237.33 44.54,-238.41 53.45,-244.13 55.08,-237.33"/>
</g>
<!-- Node2 -->
<g id="node3" class="node">
<title>Node2</title>
<g id="a_node3"><a xlink:title=" ">
<polygon fill="white" stroke="#bfbfbf" points="406.12,-65.05 406.12,-85.05 458.22,-85.05 458.22,-65.05 406.12,-65.05"/>
<text text-anchor="middle" x="432.17" y="-72.05" font-family="Helvetica,sans-Serif" font-size="10.00">memory</text>
</a>
</g>
</g>
<!-- Node0&#45;&gt;Node2 -->
<g id="edge2" class="edge">
<title>Node0&#45;&gt;Node2</title>
<path fill="none" stroke="midnightblue" d="M475.45,-299.87C405.09,-285.86 311.58,-254.49 265.17,-184.55 251.16,-163.44 250.12,-147.94 265.17,-127.55 273.12,-116.78 349.53,-96.37 396.19,-84.74"/>
<polygon fill="midnightblue" stroke="midnightblue" points="397.08,-88.13 405.94,-82.33 395.4,-81.33 397.08,-88.13"/>
</g>
<!-- Node3 -->
<g id="node4" class="node">
<title>Node3</title>
<g id="a_node4"><a xlink:title=" ">
<polygon fill="white" stroke="#bfbfbf" points="99.93,-221.05 99.93,-241.05 180.4,-241.05 180.4,-221.05 99.93,-221.05"/>
<text text-anchor="middle" x="140.17" y="-228.05" font-family="Helvetica,sans-Serif" font-size="10.00">unordered_set</text>
</a>
</g>
</g>
<!-- Node0&#45;&gt;Node3 -->
<g id="edge3" class="edge">
<title>Node0&#45;&gt;Node3</title>
<path fill="none" stroke="midnightblue" d="M475.3,-294.35C388.58,-278.23 260.43,-254.41 190.4,-241.39"/>
<polygon fill="midnightblue" stroke="midnightblue" points="190.97,-237.94 180.5,-239.55 189.69,-244.82 190.97,-237.94"/>
</g>
<!-- Node4 -->
<g id="node5" class="node">
<title>Node4</title>
<g id="a_node5"><a xlink:title=" ">
<polygon fill="white" stroke="#bfbfbf" points="274.6,-146.05 274.6,-166.05 381.73,-166.05 381.73,-146.05 274.6,-146.05"/>
<text text-anchor="middle" x="328.17" y="-153.05" font-family="Helvetica,sans-Serif" font-size="10.00">haldls/vx/container.h</text>
</a>
</g>
</g>
<!-- Node0&#45;&gt;Node4 -->
<g id="edge4" class="edge">
<title>Node0&#45;&gt;Node4</title>
<path fill="none" stroke="midnightblue" d="M514.33,-278.02C463.67,-245.1 388.21,-196.07 350.83,-171.78"/>
<polygon fill="midnightblue" stroke="midnightblue" points="352.48,-168.68 342.19,-166.16 348.67,-174.55 352.48,-168.68"/>
</g>
<!-- Node5 -->
<g id="node6" class="node">
<title>Node5</title>
<g id="a_node6"><a xlink:title=" ">
<polygon fill="white" stroke="#bfbfbf" points="399.88,-146.05 399.88,-166.05 496.45,-166.05 496.45,-146.05 399.88,-146.05"/>
<text text-anchor="middle" x="448.17" y="-153.05" font-family="Helvetica,sans-Serif" font-size="10.00">lola/vx/container.h</text>
</a>
</g>
</g>
<!-- Node0&#45;&gt;Node5 -->
<g id="edge5" class="edge">
<title>Node0&#45;&gt;Node5</title>
<path fill="none" stroke="midnightblue" d="M540.07,-278.02C515.91,-246.22 480.32,-199.37 461.3,-174.33"/>
<polygon fill="midnightblue" stroke="midnightblue" points="463.93,-172.01 455.09,-166.16 458.35,-176.24 463.93,-172.01"/>
</g>
<!-- Node6 -->
<g id="node7" class="node">
<title>Node6</title>
<g id="a_node7"><a xlink:title=" ">
<polygon fill="white" stroke="#bfbfbf" points="514.66,-140.05 514.66,-172.05 615.68,-172.05 615.68,-140.05 514.66,-140.05"/>
<text text-anchor="start" x="522.66" y="-159.05" font-family="Helvetica,sans-Serif" font-size="10.00">halco/hicann&#45;dls/vx</text>
<text text-anchor="middle" x="565.17" y="-147.05" font-family="Helvetica,sans-Serif" font-size="10.00">/barrier.h</text>
</a>
</g>
</g>
<!-- Node0&#45;&gt;Node6 -->
<g id="edge6" class="edge">
<title>Node0&#45;&gt;Node6</title>
<path fill="none" stroke="midnightblue" d="M565.17,-278.02C565.17,-249.4 565.17,-208.61 565.17,-182.48"/>
<polygon fill="midnightblue" stroke="midnightblue" points="568.67,-182.26 565.17,-172.26 561.67,-182.26 568.67,-182.26"/>
</g>
<!-- Node7 -->
<g id="node8" class="node">
<title>Node7</title>
<g id="a_node8"><a xlink:title=" ">
<polygon fill="white" stroke="#bfbfbf" points="633.72,-146.05 633.72,-166.05 728.61,-166.05 728.61,-146.05 633.72,-146.05"/>
<text text-anchor="middle" x="681.17" y="-153.05" font-family="Helvetica,sans-Serif" font-size="10.00">haldls/vx/barrier.h</text>
</a>
</g>
</g>
<!-- Node0&#45;&gt;Node7 -->
<g id="edge7" class="edge">
<title>Node0&#45;&gt;Node7</title>
<path fill="none" stroke="midnightblue" d="M590.05,-278.02C614.01,-246.22 649.29,-199.37 668.15,-174.33"/>
<polygon fill="midnightblue" stroke="midnightblue" points="671.08,-176.26 674.31,-166.16 665.49,-172.04 671.08,-176.26"/>
</g>
<!-- Node8 -->
<g id="node9" class="node">
<title>Node8</title>
<g id="a_node9"><a xlink:title=" ">
<polygon fill="white" stroke="#bfbfbf" points="55.99,-65.05 55.99,-85.05 160.34,-85.05 160.34,-65.05 55.99,-65.05"/>
<text text-anchor="middle" x="108.17" y="-72.05" font-family="Helvetica,sans-Serif" font-size="10.00">haldls/vx/common.h</text>
</a>
</g>
</g>
<!-- Node0&#45;&gt;Node8 -->
<g id="edge8" class="edge">
<title>Node0&#45;&gt;Node8</title>
<path fill="none" stroke="midnightblue" d="M475.27,-311.26C351.89,-309.4 139.8,-297.84 91.17,-241.55 55.06,-199.76 82.38,-128.06 98.52,-94.45"/>
<polygon fill="midnightblue" stroke="midnightblue" points="101.74,-95.83 103.08,-85.32 95.48,-92.7 101.74,-95.83"/>
</g>
<!-- Node9 -->
<g id="node10" class="node">
<title>Node9</title>
<g id="a_node10"><a xlink:title=" ">
<polygon fill="white" stroke="#bfbfbf" points="1619.66,-65.05 1619.66,-85.05 1700.67,-85.05 1700.67,-65.05 1619.66,-65.05"/>
<text text-anchor="middle" x="1660.17" y="-72.05" font-family="Helvetica,sans-Serif" font-size="10.00">hate/visibility.h</text>
</a>
</g>
</g>
<!-- Node0&#45;&gt;Node9 -->
<g id="edge9" class="edge">
<title>Node0&#45;&gt;Node9</title>
<path fill="none" stroke="midnightblue" d="M654.94,-309.83C946.35,-304.92 1851.92,-281.9 1935.17,-184.55 1951.63,-165.3 1951.35,-147.04 1935.17,-127.55 1907.22,-93.89 1782.44,-82.1 1710.94,-78.07"/>
<polygon fill="midnightblue" stroke="midnightblue" points="1710.96,-74.57 1700.79,-77.53 1710.59,-81.56 1710.96,-74.57"/>
</g>
<!-- Node10 -->
<g id="node11" class="node">
<title>Node10</title>
<g id="a_node11"><a xlink:title=" ">
<polygon fill="white" stroke="#bfbfbf" points="249.55,-65.05 249.55,-85.05 352.79,-85.05 352.79,-65.05 249.55,-65.05"/>
<text text-anchor="middle" x="301.17" y="-72.05" font-family="Helvetica,sans-Serif" font-size="10.00">hxcomm/vx/target.h</text>
</a>
</g>
</g>
<!-- Node0&#45;&gt;Node10 -->
<g id="edge10" class="edge">
<title>Node0&#45;&gt;Node10</title>
<path fill="none" stroke="midnightblue" d="M475.46,-303.24C419.51,-294.86 348.13,-277.51 294.17,-241.55 249.1,-211.53 230.81,-177.73 251.17,-127.55 256.99,-113.2 268.95,-100.64 279.71,-91.52"/>
<polygon fill="midnightblue" stroke="midnightblue" points="281.95,-94.21 287.58,-85.24 277.58,-88.74 281.95,-94.21"/>
</g>
<!-- Node11 -->
<g id="node12" class="node">
<title>Node11</title>
<g id="a_node12"><a xlink:href="dumper_8h.html" target="_top" xlink:title=" ">
<polygon fill="white" stroke="black" points="1136.21,-221.05 1136.21,-241.05 1236.12,-241.05 1236.12,-221.05 1136.21,-221.05"/>
<text text-anchor="middle" x="1186.17" y="-228.05" font-family="Helvetica,sans-Serif" font-size="10.00">stadls/vx/dumper.h</text>
</a>
</g>
</g>
<!-- Node0&#45;&gt;Node11 -->
<g id="edge11" class="edge">
<title>Node0&#45;&gt;Node11</title>
<path fill="none" stroke="midnightblue" d="M655.13,-299.61C783.6,-283.26 1016.15,-253.68 1125.83,-239.73"/>
<polygon fill="midnightblue" stroke="midnightblue" points="1126.57,-243.16 1136.05,-238.43 1125.69,-236.22 1126.57,-243.16"/>
</g>
<!-- Node18 -->
<g id="node19" class="node">
<title>Node18</title>
<g id="a_node19"><a xlink:href="genpybind_8h.html" target="_top" xlink:title=" ">
<polygon fill="white" stroke="black" points="1292.1,-2.05 1292.1,-22.05 1404.24,-22.05 1404.24,-2.05 1292.1,-2.05"/>
<text text-anchor="middle" x="1348.17" y="-9.05" font-family="Helvetica,sans-Serif" font-size="10.00">stadls/vx/genpybind.h</text>
</a>
</g>
</g>
<!-- Node0&#45;&gt;Node18 -->
<g id="edge45" class="edge">
<title>Node0&#45;&gt;Node18</title>
<path fill="none" stroke="midnightblue" d="M655.12,-310.14C904.36,-306.97 1600.05,-293.57 1822.17,-241.55 1884.78,-226.89 1919.76,-238.24 1955.17,-184.55 1969.11,-163.4 1970.46,-147.75 1955.17,-127.55 1890.6,-42.29 1558.15,-20.38 1414.46,-14.86"/>
<polygon fill="midnightblue" stroke="midnightblue" points="1414.57,-11.37 1404.45,-14.49 1414.31,-18.36 1414.57,-11.37"/>
</g>
<!-- Node19 -->
<g id="node20" class="node">
<title>Node19</title>
<g id="a_node20"><a xlink:href="playback__program_8h.html" target="_top" xlink:title=" ">
<polygon fill="white" stroke="black" points="784.6,-140.05 784.6,-172.05 881.73,-172.05 881.73,-140.05 784.6,-140.05"/>
<text text-anchor="start" x="792.6" y="-159.05" font-family="Helvetica,sans-Serif" font-size="10.00">stadls/vx/playback</text>
<text text-anchor="middle" x="833.17" y="-147.05" font-family="Helvetica,sans-Serif" font-size="10.00">_program.h</text>
</a>
</g>
</g>
<!-- Node0&#45;&gt;Node19 -->
<g id="edge46" class="edge">
<title>Node0&#45;&gt;Node19</title>
<path fill="none" stroke="midnightblue" d="M622.66,-278.02C676.04,-247.34 753.79,-202.67 798.33,-177.07"/>
<polygon fill="midnightblue" stroke="midnightblue" points="800.12,-180.08 807.05,-172.06 796.63,-174.01 800.12,-180.08"/>
</g>
<!-- Node29 -->
<g id="node30" class="node">
<title>Node29</title>
<g id="a_node30"><a xlink:title=" ">
<polygon fill="white" stroke="#bfbfbf" points="1688.43,-146.05 1688.43,-166.05 1803.9,-166.05 1803.9,-146.05 1688.43,-146.05"/>
<text text-anchor="middle" x="1746.17" y="-153.05" font-family="Helvetica,sans-Serif" font-size="10.00">haldls/vx/container.def</text>
</a>
</g>
</g>
<!-- Node0&#45;&gt;Node29 -->
<g id="edge47" class="edge">
<title>Node0&#45;&gt;Node29</title>
<path fill="none" stroke="midnightblue" d="M654.99,-308.05C844.51,-300.12 1298.19,-272.75 1667.17,-184.55 1683.12,-180.74 1700.37,-174.94 1714.67,-169.65"/>
<polygon fill="midnightblue" stroke="midnightblue" points="1715.94,-172.91 1724.05,-166.09 1713.46,-166.36 1715.94,-172.91"/>
</g>
<!-- Node30 -->
<g id="node31" class="node">
<title>Node30</title>
<g id="a_node31"><a xlink:title=" ">
<polygon fill="white" stroke="#bfbfbf" points="1821.71,-146.05 1821.71,-166.05 1926.62,-166.05 1926.62,-146.05 1821.71,-146.05"/>
<text text-anchor="middle" x="1874.17" y="-153.05" font-family="Helvetica,sans-Serif" font-size="10.00">lola/vx/container.def</text>
</a>
</g>
</g>
<!-- Node0&#45;&gt;Node30 -->
<g id="edge48" class="edge">
<title>Node0&#45;&gt;Node30</title>
<path fill="none" stroke="midnightblue" d="M654.86,-306.52C816.19,-297.83 1165.85,-276.51 1459.17,-241.55 1617.41,-222.69 1660.53,-230.36 1813.17,-184.55 1825.01,-181 1837.55,-175.65 1848.16,-170.61"/>
<polygon fill="midnightblue" stroke="midnightblue" points="1849.85,-173.67 1857.28,-166.13 1846.76,-167.39 1849.85,-173.67"/>
</g>
<!-- Node11&#45;&gt;Node2 -->
<g id="edge12" class="edge">
<title>Node11&#45;&gt;Node2</title>
<path fill="none" stroke="midnightblue" d="M1135.99,-229.71C1040.01,-228.21 834.66,-220.74 775.17,-184.55 749.16,-168.73 763,-143.67 737.17,-127.55 634.45,-63.48 583.69,-124.39 467.17,-91.55 464.56,-90.82 461.89,-89.92 459.25,-88.94"/>
<polygon fill="midnightblue" stroke="midnightblue" points="460.55,-85.69 449.97,-85.11 457.88,-92.16 460.55,-85.69"/>
</g>
<!-- Node11&#45;&gt;Node4 -->
<g id="edge18" class="edge">
<title>Node11&#45;&gt;Node4</title>
<path fill="none" stroke="midnightblue" d="M1136.15,-229.49C984.84,-227.44 533.62,-218.56 391.17,-184.55 378.33,-181.49 364.82,-175.94 353.63,-170.62"/>
<polygon fill="midnightblue" stroke="midnightblue" points="354.97,-167.38 344.45,-166.08 351.86,-173.65 354.97,-167.38"/>
</g>
<!-- Node11&#45;&gt;Node5 -->
<g id="edge20" class="edge">
<title>Node11&#45;&gt;Node5</title>
<path fill="none" stroke="midnightblue" d="M1135.89,-229.17C999.42,-226.39 624.32,-216.01 505.17,-184.55 493.74,-181.53 481.84,-176.19 471.9,-171.02"/>
<polygon fill="midnightblue" stroke="midnightblue" points="473.49,-167.9 463.04,-166.19 470.14,-174.05 473.49,-167.9"/>
</g>
<!-- Node11&#45;&gt;Node6 -->
<g id="edge16" class="edge">
<title>Node11&#45;&gt;Node6</title>
<path fill="none" stroke="midnightblue" d="M1135.89,-228.21C1016.93,-223.5 721.01,-209.57 625.17,-184.55 617.45,-182.54 609.49,-179.59 602,-176.35"/>
<polygon fill="midnightblue" stroke="midnightblue" points="603.35,-173.13 592.8,-172.16 600.45,-179.5 603.35,-173.13"/>
</g>
<!-- Node11&#45;&gt;Node7 -->
<g id="edge17" class="edge">
<title>Node11&#45;&gt;Node7</title>
<path fill="none" stroke="midnightblue" d="M1135.95,-230.11C1052.66,-229.05 881.34,-222 742.17,-184.55 730.06,-181.29 717.31,-175.89 706.62,-170.74"/>
<polygon fill="midnightblue" stroke="midnightblue" points="707.97,-167.5 697.46,-166.14 704.83,-173.75 707.97,-167.5"/>
</g>
<!-- Node11&#45;&gt;Node9 -->
<g id="edge19" class="edge">
<title>Node11&#45;&gt;Node9</title>
<path fill="none" stroke="midnightblue" d="M1236.52,-228.4C1348.77,-224.24 1611.98,-211.67 1641.17,-184.55 1665.48,-161.97 1665.56,-120.15 1663.09,-95.55"/>
<polygon fill="midnightblue" stroke="midnightblue" points="1666.53,-94.79 1661.81,-85.3 1659.58,-95.66 1666.53,-94.79"/>
</g>
<!-- Node12 -->
<g id="node13" class="node">
<title>Node12</title>
<g id="a_node13"><a xlink:title=" ">
<polygon fill="white" stroke="#bfbfbf" points="1293.78,-146.05 1293.78,-166.05 1332.55,-166.05 1332.55,-146.05 1293.78,-146.05"/>
<text text-anchor="middle" x="1313.17" y="-153.05" font-family="Helvetica,sans-Serif" font-size="10.00">utility</text>
</a>
</g>
</g>
<!-- Node11&#45;&gt;Node12 -->
<g id="edge13" class="edge">
<title>Node11&#45;&gt;Node12</title>
<path fill="none" stroke="midnightblue" d="M1212.28,-220.91C1233.03,-213 1262.27,-200.34 1285.17,-184.55 1289.75,-181.39 1294.26,-177.45 1298.27,-173.55"/>
<polygon fill="midnightblue" stroke="midnightblue" points="1300.84,-175.93 1305.27,-166.31 1295.81,-171.06 1300.84,-175.93"/>
</g>
<!-- Node13 -->
<g id="node14" class="node">
<title>Node13</title>
<g id="a_node14"><a xlink:title=" ">
<polygon fill="white" stroke="#bfbfbf" points="1426.17,-146.05 1426.17,-166.05 1472.17,-166.05 1472.17,-146.05 1426.17,-146.05"/>
<text text-anchor="middle" x="1449.17" y="-153.05" font-family="Helvetica,sans-Serif" font-size="10.00">variant</text>
</a>
</g>
</g>
<!-- Node11&#45;&gt;Node13 -->
<g id="edge14" class="edge">
<title>Node11&#45;&gt;Node13</title>
<path fill="none" stroke="midnightblue" d="M1236.57,-226.27C1283.68,-221.29 1355.13,-209.95 1412.17,-184.55 1419.04,-181.49 1425.86,-176.97 1431.74,-172.47"/>
<polygon fill="midnightblue" stroke="midnightblue" points="1434.04,-175.11 1439.57,-166.07 1429.61,-169.69 1434.04,-175.11"/>
</g>
<!-- Node14 -->
<g id="node15" class="node">
<title>Node14</title>
<g id="a_node15"><a xlink:title=" ">
<polygon fill="white" stroke="#bfbfbf" points="1326.55,-65.05 1326.55,-85.05 1369.78,-85.05 1369.78,-65.05 1326.55,-65.05"/>
<text text-anchor="middle" x="1348.17" y="-72.05" font-family="Helvetica,sans-Serif" font-size="10.00">vector</text>
</a>
</g>
</g>
<!-- Node11&#45;&gt;Node14 -->
<g id="edge15" class="edge">
<title>Node11&#45;&gt;Node14</title>
<path fill="none" stroke="midnightblue" d="M1236.2,-229.52C1271.32,-226.25 1316.29,-215.65 1341.17,-184.55 1361.53,-159.11 1357.61,-118.63 1352.9,-94.97"/>
<polygon fill="midnightblue" stroke="midnightblue" points="1356.29,-94.12 1350.7,-85.13 1349.46,-95.65 1356.29,-94.12"/>
</g>
<!-- Node15 -->
<g id="node16" class="node">
<title>Node15</title>
<g id="a_node16"><a xlink:title=" ">
<polygon fill="white" stroke="#bfbfbf" points="1489.8,-146.05 1489.8,-166.05 1632.53,-166.05 1632.53,-146.05 1489.8,-146.05"/>
<text text-anchor="middle" x="1561.17" y="-153.05" font-family="Helvetica,sans-Serif" font-size="10.00">boost/hana/adapt_struct.hpp</text>
</a>
</g>
</g>
<!-- Node11&#45;&gt;Node15 -->
<g id="edge21" class="edge">
<title>Node11&#45;&gt;Node15</title>
<path fill="none" stroke="midnightblue" d="M1236.29,-225.08C1295.41,-218.57 1396.4,-205.48 1481.17,-184.55 1497.15,-180.61 1514.48,-174.84 1528.91,-169.61"/>
<polygon fill="midnightblue" stroke="midnightblue" points="1530.23,-172.85 1538.39,-166.1 1527.79,-166.29 1530.23,-172.85"/>
</g>
<!-- Node16 -->
<g id="node17" class="node">
<title>Node16</title>
<g id="a_node17"><a xlink:title=" ">
<polygon fill="white" stroke="#bfbfbf" points="899.49,-128.05 899.49,-184.05 1078.85,-184.05 1078.85,-128.05 899.49,-128.05"/>
<text text-anchor="start" x="907.49" y="-171.05" font-family="Helvetica,sans-Serif" font-size="10.00">/jenkins/jenlib_workspaces</text>
<text text-anchor="start" x="907.49" y="-159.05" font-family="Helvetica,sans-Serif" font-size="10.00">_f9/bld_nightly&#45;haldls.YmxkX25p</text>
<text text-anchor="start" x="907.49" y="-147.05" font-family="Helvetica,sans-Serif" font-size="10.00">Z2h0bHktaGFsZGxzIzY1NQ.x/haldls</text>
<text text-anchor="middle" x="989.17" y="-135.05" font-family="Helvetica,sans-Serif" font-size="10.00">/include/haldls/vx/common.h</text>
</a>
</g>
</g>
<!-- Node11&#45;&gt;Node16 -->
<g id="edge22" class="edge">
<title>Node11&#45;&gt;Node16</title>
<path fill="none" stroke="midnightblue" d="M1161.62,-220.95C1138.99,-212.57 1104.1,-199.64 1071.61,-187.6"/>
<polygon fill="midnightblue" stroke="midnightblue" points="1072.66,-184.26 1062.07,-184.07 1070.23,-190.82 1072.66,-184.26"/>
</g>
<!-- Node17 -->
<g id="node18" class="node">
<title>Node17</title>
<g id="a_node18"><a xlink:title=" ">
<polygon fill="white" stroke="#bfbfbf" points="1096.49,-128.05 1096.49,-184.05 1275.85,-184.05 1275.85,-128.05 1096.49,-128.05"/>
<text text-anchor="start" x="1104.49" y="-171.05" font-family="Helvetica,sans-Serif" font-size="10.00">/jenkins/jenlib_workspaces</text>
<text text-anchor="start" x="1104.49" y="-159.05" font-family="Helvetica,sans-Serif" font-size="10.00">_f9/bld_nightly&#45;haldls.YmxkX25p</text>
<text text-anchor="start" x="1104.49" y="-147.05" font-family="Helvetica,sans-Serif" font-size="10.00">Z2h0bHktaGFsZGxzIzY1NQ.x/haldls</text>
<text text-anchor="middle" x="1186.17" y="-135.05" font-family="Helvetica,sans-Serif" font-size="10.00">/include/haldls/vx/neuron.h</text>
</a>
</g>
</g>
<!-- Node11&#45;&gt;Node17 -->
<g id="edge23" class="edge">
<title>Node11&#45;&gt;Node17</title>
<path fill="none" stroke="midnightblue" d="M1186.17,-220.81C1186.17,-213.97 1186.17,-204.18 1186.17,-194.31"/>
<polygon fill="midnightblue" stroke="midnightblue" points="1189.67,-194.12 1186.17,-184.12 1182.67,-194.12 1189.67,-194.12"/>
</g>
<!-- Node11&#45;&gt;Node18 -->
<g id="edge24" class="edge">
<title>Node11&#45;&gt;Node18</title>
<path fill="none" stroke="midnightblue" d="M1236.22,-223.32C1282.34,-216.08 1346.12,-203.04 1363.17,-184.55 1401.43,-143.05 1395.8,-112.5 1379.17,-58.55 1375.98,-48.22 1369.56,-38.14 1363.39,-30.1"/>
<polygon fill="midnightblue" stroke="midnightblue" points="1366,-27.77 1356.94,-22.27 1360.59,-32.21 1366,-27.77"/>
</g>
<!-- Node11&#45;&gt;Node19 -->
<g id="edge26" class="edge">
<title>Node11&#45;&gt;Node19</title>
<path fill="none" stroke="midnightblue" d="M1136.19,-226.91C1076.51,-222.12 974.21,-210.64 890.17,-184.55 883.4,-182.45 876.42,-179.66 869.77,-176.67"/>
<polygon fill="midnightblue" stroke="midnightblue" points="870.86,-173.31 860.33,-172.19 867.86,-179.63 870.86,-173.31"/>
</g>
<!-- Node11&#45;&gt;Node29 -->
<g id="edge43" class="edge">
<title>Node11&#45;&gt;Node29</title>
<path fill="none" stroke="midnightblue" d="M1236.41,-229.84C1325.69,-228.47 1517.34,-221.09 1674.17,-184.55 1688.81,-181.14 1704.47,-175.43 1717.43,-170.09"/>
<polygon fill="midnightblue" stroke="midnightblue" points="1718.92,-173.26 1726.76,-166.12 1716.18,-166.81 1718.92,-173.26"/>
</g>
<!-- Node11&#45;&gt;Node30 -->
<g id="edge44" class="edge">
<title>Node11&#45;&gt;Node30</title>
<path fill="none" stroke="midnightblue" d="M1236.58,-228.67C1365.43,-224.76 1704.32,-212.11 1813.17,-184.55 1825.41,-181.45 1838.26,-176.03 1848.99,-170.81"/>
<polygon fill="midnightblue" stroke="midnightblue" points="1850.83,-173.79 1858.16,-166.15 1847.66,-167.55 1850.83,-173.79"/>
</g>
<!-- Node18&#45;&gt;Node18 -->
<g id="edge25" class="edge">
<title>Node18&#45;&gt;Node18</title>
<path fill="none" stroke="midnightblue" d="M1376.67,-22.11C1399.16,-26 1422.24,-22.65 1422.24,-12.05 1422.24,-3.03 1405.51,0.74 1386.65,-0.74"/>
<polygon fill="midnightblue" stroke="midnightblue" points="1386.16,2.72 1376.67,-1.99 1387.03,-4.22 1386.16,2.72"/>
</g>
<!-- Node19&#45;&gt;Node2 -->
<g id="edge28" class="edge">
<title>Node19&#45;&gt;Node2</title>
<path fill="none" stroke="midnightblue" d="M803.38,-139.91C793.09,-135.27 781.34,-130.58 770.17,-127.55 639.28,-92.04 597.96,-127.41 467.17,-91.55 464.55,-90.84 461.88,-89.95 459.24,-88.98"/>
<polygon fill="midnightblue" stroke="midnightblue" points="460.54,-85.72 449.96,-85.16 457.87,-92.2 460.54,-85.72"/>
</g>
<!-- Node19&#45;&gt;Node8 -->
<g id="edge33" class="edge">
<title>Node19&#45;&gt;Node8</title>
<path fill="none" stroke="midnightblue" d="M787.72,-139.95C771.89,-135.25 753.9,-130.52 737.17,-127.55 519.11,-88.85 460.64,-112.47 240.17,-91.55 217.46,-89.4 192.61,-86.6 170.66,-83.97"/>
<polygon fill="midnightblue" stroke="midnightblue" points="170.81,-80.46 160.46,-82.74 169.97,-87.41 170.81,-80.46"/>
</g>
<!-- Node19&#45;&gt;Node9 -->
<g id="edge35" class="edge">
<title>Node19&#45;&gt;Node9</title>
<path fill="none" stroke="midnightblue" d="M859.04,-139.99C868.52,-135.17 879.54,-130.36 890.17,-127.55 924.93,-118.37 1442.8,-88.38 1609.14,-78.93"/>
<polygon fill="midnightblue" stroke="midnightblue" points="1609.79,-82.4 1619.58,-78.34 1609.39,-75.41 1609.79,-82.4"/>
</g>
<!-- Node19&#45;&gt;Node10 -->
<g id="edge36" class="edge">
<title>Node19&#45;&gt;Node10</title>
<path fill="none" stroke="midnightblue" d="M786.69,-139.98C771.09,-135.39 753.5,-130.73 737.17,-127.55 588.01,-98.52 547.79,-111.67 397.17,-91.55 386.04,-90.07 374.21,-88.31 362.8,-86.51"/>
<polygon fill="midnightblue" stroke="midnightblue" points="363.33,-83.05 352.91,-84.94 362.23,-89.97 363.33,-83.05"/>
</g>
<!-- Node19&#45;&gt;Node14 -->
<g id="edge31" class="edge">
<title>Node19&#45;&gt;Node14</title>
<path fill="none" stroke="midnightblue" d="M859.35,-139.95C868.78,-135.19 879.68,-130.43 890.17,-127.55 1071.72,-77.83 1129.59,-137.36 1312.17,-91.55 1315.01,-90.84 1317.92,-89.92 1320.79,-88.9"/>
<polygon fill="midnightblue" stroke="midnightblue" points="1322.27,-92.08 1330.25,-85.11 1319.67,-85.58 1322.27,-92.08"/>
</g>
<!-- Node19&#45;&gt;Node18 -->
<g id="edge37" class="edge">
<title>Node19&#45;&gt;Node18</title>
<path fill="none" stroke="midnightblue" d="M859.36,-139.99C868.79,-135.24 879.69,-130.46 890.17,-127.55 1057.46,-81.09 1124.45,-170.34 1279.17,-91.55 1293.17,-84.42 1319.82,-50.99 1335.59,-30.12"/>
<polygon fill="midnightblue" stroke="midnightblue" points="1338.43,-32.17 1341.61,-22.06 1332.82,-27.98 1338.43,-32.17"/>
</g>
<!-- Node20 -->
<g id="node21" class="node">
<title>Node20</title>
<g id="a_node21"><a xlink:title=" ">
<polygon fill="white" stroke="#bfbfbf" points="596.72,-65.05 596.72,-85.05 641.62,-85.05 641.62,-65.05 596.72,-65.05"/>
<text text-anchor="middle" x="619.17" y="-72.05" font-family="Helvetica,sans-Serif" font-size="10.00">cstdint</text>
</a>
</g>
</g>
<!-- Node19&#45;&gt;Node20 -->
<g id="edge27" class="edge">
<title>Node19&#45;&gt;Node20</title>
<path fill="none" stroke="midnightblue" d="M800.77,-140.02C791.03,-135.75 780.25,-131.25 770.17,-127.55 717.89,-108.38 701.93,-112.08 650.17,-91.55 648.55,-90.91 646.91,-90.22 645.26,-89.49"/>
<polygon fill="midnightblue" stroke="midnightblue" points="646.52,-86.22 635.98,-85.12 643.53,-92.55 646.52,-86.22"/>
</g>
<!-- Node21 -->
<g id="node22" class="node">
<title>Node21</title>
<g id="a_node22"><a xlink:title=" ">
<polygon fill="white" stroke="#bfbfbf" points="659.66,-65.05 659.66,-85.05 710.67,-85.05 710.67,-65.05 659.66,-65.05"/>
<text text-anchor="middle" x="685.17" y="-72.05" font-family="Helvetica,sans-Serif" font-size="10.00">optional</text>
</a>
</g>
</g>
<!-- Node19&#45;&gt;Node21 -->
<g id="edge29" class="edge">
<title>Node19&#45;&gt;Node21</title>
<path fill="none" stroke="midnightblue" d="M804.98,-140.01C777.94,-125.57 737.45,-103.96 711.16,-89.93"/>
<polygon fill="midnightblue" stroke="midnightblue" points="712.65,-86.75 702.18,-85.13 709.35,-92.93 712.65,-86.75"/>
</g>
<!-- Node22 -->
<g id="node23" class="node">
<title>Node22</title>
<g id="a_node23"><a xlink:title=" ">
<polygon fill="white" stroke="#bfbfbf" points="843.95,-65.05 843.95,-85.05 884.39,-85.05 884.39,-65.05 843.95,-65.05"/>
<text text-anchor="middle" x="864.17" y="-72.05" font-family="Helvetica,sans-Serif" font-size="10.00">string</text>
</a>
</g>
</g>
<!-- Node19&#45;&gt;Node22 -->
<g id="edge30" class="edge">
<title>Node19&#45;&gt;Node22</title>
<path fill="none" stroke="midnightblue" d="M839.14,-139.82C844.19,-126.96 851.44,-108.49 856.84,-94.74"/>
<polygon fill="midnightblue" stroke="midnightblue" points="860.14,-95.9 860.54,-85.31 853.62,-93.34 860.14,-95.9"/>
</g>
<!-- Node23 -->
<g id="node24" class="node">
<title>Node23</title>
<g id="a_node24"><a xlink:title=" ">
<polygon fill="white" stroke="#bfbfbf" points="902.82,-65.05 902.82,-85.05 1045.51,-85.05 1045.51,-65.05 902.82,-65.05"/>
<text text-anchor="middle" x="974.17" y="-72.05" font-family="Helvetica,sans-Serif" font-size="10.00">fisch/vx/playback_program.h</text>
</a>
</g>
</g>
<!-- Node19&#45;&gt;Node23 -->
<g id="edge32" class="edge">
<title>Node19&#45;&gt;Node23</title>
<path fill="none" stroke="midnightblue" d="M860.02,-140.01C885.67,-125.64 924.02,-104.15 949.07,-90.11"/>
<polygon fill="midnightblue" stroke="midnightblue" points="950.95,-93.07 957.96,-85.13 947.53,-86.97 950.95,-93.07"/>
</g>
<!-- Node24 -->
<g id="node25" class="node">
<title>Node24</title>
<g id="a_node25"><a xlink:title=" ">
<polygon fill="white" stroke="#bfbfbf" points="1063.93,-65.05 1063.93,-85.05 1154.4,-85.05 1154.4,-65.05 1063.93,-65.05"/>
<text text-anchor="middle" x="1109.17" y="-72.05" font-family="Helvetica,sans-Serif" font-size="10.00">haldls/vx/event.h</text>
</a>
</g>
</g>
<!-- Node19&#45;&gt;Node24 -->
<g id="edge34" class="edge">
<title>Node19&#45;&gt;Node24</title>
<path fill="none" stroke="midnightblue" d="M861.03,-140.01C870.13,-135.53 880.41,-130.93 890.17,-127.55 960.7,-103.17 981.78,-109.68 1054.17,-91.55 1058.85,-90.38 1063.75,-89.09 1068.6,-87.78"/>
<polygon fill="midnightblue" stroke="midnightblue" points="1069.71,-91.1 1078.42,-85.06 1067.85,-84.35 1069.71,-91.1"/>
</g>
<!-- Node25 -->
<g id="node26" class="node">
<title>Node25</title>
<g id="a_node26"><a xlink:href="run__time__info_8h.html" target="_top" xlink:title=" ">
<polygon fill="white" stroke="black" points="728.88,-59.05 728.88,-91.05 825.45,-91.05 825.45,-59.05 728.88,-59.05"/>
<text text-anchor="start" x="736.88" y="-78.05" font-family="Helvetica,sans-Serif" font-size="10.00">stadls/vx/run_time</text>
<text text-anchor="middle" x="777.17" y="-66.05" font-family="Helvetica,sans-Serif" font-size="10.00">_info.h</text>
</a>
</g>
</g>
<!-- Node19&#45;&gt;Node25 -->
<g id="edge38" class="edge">
<title>Node19&#45;&gt;Node25</title>
<path fill="none" stroke="midnightblue" d="M822.37,-139.82C814.31,-128.45 803.15,-112.71 793.94,-99.71"/>
<polygon fill="midnightblue" stroke="midnightblue" points="796.57,-97.37 787.93,-91.24 790.86,-101.42 796.57,-97.37"/>
</g>
<!-- Node27 -->
<g id="node28" class="node">
<title>Node27</title>
<g id="a_node28"><a xlink:title=" ">
<polygon fill="white" stroke="#bfbfbf" points="1172.32,-65.05 1172.32,-85.05 1270.02,-85.05 1270.02,-65.05 1172.32,-65.05"/>
<text text-anchor="middle" x="1221.17" y="-72.05" font-family="Helvetica,sans-Serif" font-size="10.00">pybind11/numpy.h</text>
</a>
</g>
</g>
<!-- Node19&#45;&gt;Node27 -->
<g id="edge41" class="edge">
<title>Node19&#45;&gt;Node27</title>
<path fill="none" stroke="midnightblue" d="M860,-139.94C869.3,-135.29 879.96,-130.6 890.17,-127.55 1007.43,-92.52 1043.13,-115.4 1163.17,-91.55 1168.73,-90.45 1174.54,-89.11 1180.25,-87.7"/>
<polygon fill="midnightblue" stroke="midnightblue" points="1181.53,-90.98 1190.34,-85.09 1179.78,-84.2 1181.53,-90.98"/>
</g>
<!-- Node28 -->
<g id="node29" class="node">
<title>Node28</title>
<g id="a_node29"><a xlink:title=" ">
<polygon fill="white" stroke="#bfbfbf" points="476.1,-65.05 476.1,-85.05 578.24,-85.05 578.24,-65.05 476.1,-65.05"/>
<text text-anchor="middle" x="527.17" y="-72.05" font-family="Helvetica,sans-Serif" font-size="10.00">pybind11/stl_bind.h</text>
</a>
</g>
</g>
<!-- Node19&#45;&gt;Node28 -->
<g id="edge42" class="edge">
<title>Node19&#45;&gt;Node28</title>
<path fill="none" stroke="midnightblue" d="M802.27,-139.98C792.21,-135.5 780.87,-130.9 770.17,-127.55 691.48,-102.91 668.6,-109.71 588.17,-91.55 582.71,-90.32 576.98,-88.96 571.33,-87.57"/>
<polygon fill="midnightblue" stroke="midnightblue" points="571.84,-84.09 561.29,-85.07 570.14,-90.88 571.84,-84.09"/>
</g>
<!-- Node25&#45;&gt;Node18 -->
<g id="edge40" class="edge">
<title>Node25&#45;&gt;Node18</title>
<path fill="none" stroke="midnightblue" d="M825.77,-60.41C828.93,-59.73 832.09,-59.1 835.17,-58.55 993.98,-30.51 1183.66,-19.39 1281.88,-15.28"/>
<polygon fill="midnightblue" stroke="midnightblue" points="1282.11,-18.77 1291.96,-14.86 1281.82,-11.78 1282.11,-18.77"/>
</g>
<!-- Node26 -->
<g id="node27" class="node">
<title>Node26</title>
<g id="a_node27"><a xlink:title=" ">
<polygon fill="white" stroke="#bfbfbf" points="716.66,-2.05 716.66,-22.05 837.68,-22.05 837.68,-2.05 716.66,-2.05"/>
<text text-anchor="middle" x="777.17" y="-9.05" font-family="Helvetica,sans-Serif" font-size="10.00">fisch/vx/run_time_info.h</text>
</a>
</g>
</g>
<!-- Node25&#45;&gt;Node26 -->
<g id="edge39" class="edge">
<title>Node25&#45;&gt;Node26</title>
<path fill="none" stroke="midnightblue" d="M777.17,-58.97C777.17,-50.93 777.17,-40.94 777.17,-32.33"/>
<polygon fill="midnightblue" stroke="midnightblue" points="780.67,-32.1 777.17,-22.1 773.67,-32.1 780.67,-32.1"/>
</g>
</g>
</svg>
        <g id="navigator" transform="translate(0 0)" fill="#404254">
                <rect fill="#f2f5e9" fill-opacity="0.5" stroke="#606060" stroke-width=".5" x="0" y="0" width="60" height="60"/>
                <use id="zoomplus" xlink:href="#zoomPlus" x="17" y="9" onmousedown="handleZoom(evt,'in')"/>
                <use id="zoomminus" xlink:href="#zoomMin" x="42" y="9" onmousedown="handleZoom(evt,'out')"/>
                <use id="reset" xlink:href="#resetDef" x="30" y="36" onmousedown="handleReset()"/>
                <g id="arrowUp" xlink:href="#dirArrow" transform="translate(30 24)" onmousedown="handlePan(0,-1)">
                  <use xlink:href="#rim" fill="#404040">
                        <set attributeName="fill" to="#808080" begin="arrowUp.mouseover" end="arrowUp.mouseout"/>
                  </use>
                  <path fill="none" stroke="white" stroke-width="1.5" d="M0,-3.0v7 M-2.5,-0.5L0,-3.0L2.5,-0.5"/>
                </g>
                <g id="arrowRight" xlink:href="#dirArrow" transform="rotate(90) translate(36 -43)" onmousedown="handlePan(1,0)">
                  <use xlink:href="#rim" fill="#404040">
                        <set attributeName="fill" to="#808080" begin="arrowRight.mouseover" end="arrowRight.mouseout"/>
                  </use>
                  <path fill="none" stroke="white" stroke-width="1.5" d="M0,-3.0v7 M-2.5,-0.5L0,-3.0L2.5,-0.5"/>
                </g>
                <g id="arrowDown" xlink:href="#dirArrow" transform="rotate(180) translate(-30 -48)" onmousedown="handlePan(0,1)">
                  <use xlink:href="#rim" fill="#404040">
                        <set attributeName="fill" to="#808080" begin="arrowDown.mouseover" end="arrowDown.mouseout"/>
                  </use>
                  <path fill="none" stroke="white" stroke-width="1.5" d="M0,-3.0v7 M-2.5,-0.5L0,-3.0L2.5,-0.5"/>
                </g>
                <g id="arrowLeft" xlink:href="#dirArrow" transform="rotate(270) translate(-36 17)" onmousedown="handlePan(-1,0)">
                  <use xlink:href="#rim" fill="#404040">
                        <set attributeName="fill" to="#808080" begin="arrowLeft.mouseover" end="arrowLeft.mouseout"/>
                  </use>
                  <path fill="none" stroke="white" stroke-width="1.5" d="M0,-3.0v7 M-2.5,-0.5L0,-3.0L2.5,-0.5"/>
                </g>
        </g>
        <svg viewBox="0 0 15 15" width="100%" height="30px" preserveAspectRatio="xMaxYMin meet">
         <g id="arrow_out" transform="scale(0.3 0.3)">
          <a xlink:href="playback__program__builder_8h__incl_org.svg" target="_base">
           <rect id="button" ry="5" rx="5" y="6" x="6" height="38" width="38"
                fill="#f2f5e9" fill-opacity="0.5" stroke="#606060" stroke-width="1.0"/>
           <path id="arrow"
             d="M 11.500037,31.436501 C 11.940474,20.09759 22.043105,11.32322 32.158766,21.979434 L 37.068811,17.246167 C 37.068811,17.246167 37.088388,32 37.088388,32 L 22.160133,31.978069 C 22.160133,31.978069 26.997745,27.140456 26.997745,27.140456 C 18.528582,18.264221 13.291696,25.230495 11.500037,31.436501 z"
             style="fill:#404040;"/>
          </a>
         </g>
        </svg>
</svg>
