<?xml version="1.0" encoding="UTF-8" standalone="no"?>
<!DOCTYPE svg PUBLIC "-//W3C//DTD SVG 1.1//EN"
 "http://www.w3.org/Graphics/SVG/1.1/DTD/svg11.dtd">
<!-- Generated by graphviz version 2.43.0 (0)
 -->
<!-- Title: /jenkins/jenlib_workspaces_f9/bld_nightly&#45;haldls.YmxkX25pZ2h0bHktaGFsZGxzIzY1NQ.x/haldls/include/stadls/vx/playback_generator.h Pages: 1 -->
<svg width="1990pt" height="412pt"
 viewBox="0.00 0.00 1990.37 411.55" xmlns="http://www.w3.org/2000/svg" xmlns:xlink="http://www.w3.org/1999/xlink">
<g id="graph0" class="graph" transform="scale(1 1) rotate(0) translate(4 407.55)">
<title>/jenkins/jenlib_workspaces_f9/bld_nightly&#45;haldls.YmxkX25pZ2h0bHktaGFsZGxzIzY1NQ.x/haldls/include/stadls/vx/playback_generator.h</title>
<polygon fill="white" stroke="transparent" points="-4,4 -4,-407.55 1986.37,-407.55 1986.37,4 -4,4"/>
<!-- Node0 -->
<g id="node1" class="node">
<title>Node0</title>
<g id="a_node1"><a xlink:title=" ">
<polygon fill="#bfbfbf" stroke="black" points="1440.7,-347.05 1440.7,-403.05 1631.75,-403.05 1631.75,-347.05 1440.7,-347.05"/>
<text text-anchor="start" x="1448.7" y="-390.05" font-family="Helvetica,sans-Serif" font-size="10.00">/jenkins/jenlib_workspaces</text>
<text text-anchor="start" x="1448.7" y="-378.05" font-family="Helvetica,sans-Serif" font-size="10.00">_f9/bld_nightly&#45;haldls.YmxkX25p</text>
<text text-anchor="start" x="1448.7" y="-366.05" font-family="Helvetica,sans-Serif" font-size="10.00">Z2h0bHktaGFsZGxzIzY1NQ.x/haldls</text>
<text text-anchor="middle" x="1536.23" y="-354.05" font-family="Helvetica,sans-Serif" font-size="10.00">/include/stadls/vx/playback_generator.h</text>
</a>
</g>
</g>
<!-- Node1 -->
<g id="node2" class="node">
<title>Node1</title>
<g id="a_node2"><a xlink:title=" ">
<polygon fill="white" stroke="#bfbfbf" points="1298.94,-284.05 1298.94,-304.05 1355.51,-304.05 1355.51,-284.05 1298.94,-284.05"/>
<text text-anchor="middle" x="1327.23" y="-291.05" font-family="Helvetica,sans-Serif" font-size="10.00">hate/nil.h</text>
</a>
</g>
</g>
<!-- Node0&#45;&gt;Node1 -->
<g id="edge1" class="edge">
<title>Node0&#45;&gt;Node1</title>
<path fill="none" stroke="midnightblue" d="M1461.54,-346.9C1431.53,-335.84 1396.65,-322.79 1365.23,-310.55 1363.12,-309.73 1360.96,-308.88 1358.78,-308.01"/>
<polygon fill="midnightblue" stroke="midnightblue" points="1359.87,-304.68 1349.28,-304.19 1357.25,-311.17 1359.87,-304.68"/>
</g>
<!-- Node2 -->
<g id="node3" class="node">
<title>Node2</title>
<g id="a_node3"><a xlink:title=" ">
<polygon fill="white" stroke="#bfbfbf" points="1373.88,-284.05 1373.88,-304.05 1466.57,-304.05 1466.57,-284.05 1373.88,-284.05"/>
<text text-anchor="middle" x="1420.23" y="-291.05" font-family="Helvetica,sans-Serif" font-size="10.00">hate/type_traits.h</text>
</a>
</g>
</g>
<!-- Node0&#45;&gt;Node2 -->
<g id="edge2" class="edge">
<title>Node0&#45;&gt;Node2</title>
<path fill="none" stroke="midnightblue" d="M1496.31,-346.87C1478.01,-334.4 1457.04,-320.13 1441.76,-309.72"/>
<polygon fill="midnightblue" stroke="midnightblue" points="1443.72,-306.82 1433.48,-304.08 1439.78,-312.6 1443.72,-306.82"/>
</g>
<!-- Node3 -->
<g id="node4" class="node">
<title>Node3</title>
<g id="a_node4"><a xlink:title=" ">
<polygon fill="white" stroke="#bfbfbf" points="1834.72,-65.05 1834.72,-85.05 1915.73,-85.05 1915.73,-65.05 1834.72,-65.05"/>
<text text-anchor="middle" x="1875.23" y="-72.05" font-family="Helvetica,sans-Serif" font-size="10.00">hate/visibility.h</text>
</a>
</g>
</g>
<!-- Node0&#45;&gt;Node3 -->
<g id="edge3" class="edge">
<title>Node0&#45;&gt;Node3</title>
<path fill="none" stroke="midnightblue" d="M1603.33,-347.02C1658.1,-323.35 1736.14,-285.86 1797.23,-241.55 1826.23,-220.52 1837.42,-216.19 1854.23,-184.55 1869.4,-155.98 1873.7,-117.98 1874.86,-95.36"/>
<polygon fill="midnightblue" stroke="midnightblue" points="1878.37,-95.19 1875.23,-85.07 1871.37,-94.94 1878.37,-95.19"/>
</g>
<!-- Node4 -->
<g id="node5" class="node">
<title>Node4</title>
<g id="a_node5"><a xlink:href="genpybind_8h.html" target="_top" xlink:title=" ">
<polygon fill="white" stroke="black" points="1109.16,-2.05 1109.16,-22.05 1221.3,-22.05 1221.3,-2.05 1109.16,-2.05"/>
<text text-anchor="middle" x="1165.23" y="-9.05" font-family="Helvetica,sans-Serif" font-size="10.00">stadls/vx/genpybind.h</text>
</a>
</g>
</g>
<!-- Node0&#45;&gt;Node4 -->
<g id="edge4" class="edge">
<title>Node0&#45;&gt;Node4</title>
<path fill="none" stroke="midnightblue" d="M1631.91,-363.13C1762.95,-345.45 1982.23,-304.98 1982.23,-232.05 1982.23,-232.05 1982.23,-232.05 1982.23,-155.05 1982.23,-109.58 1984.56,-85.89 1948.23,-58.55 1891.66,-15.99 1410.28,-12.55 1231.61,-12.76"/>
<polygon fill="midnightblue" stroke="midnightblue" points="1231.55,-9.26 1221.56,-12.78 1231.56,-16.26 1231.55,-9.26"/>
</g>
<!-- Node5 -->
<g id="node6" class="node">
<title>Node5</title>
<g id="a_node6"><a xlink:href="playback__program__builder_8h.html" target="_top" xlink:title=" ">
<polygon fill="white" stroke="black" points="1484.89,-278.05 1484.89,-310.05 1587.57,-310.05 1587.57,-278.05 1484.89,-278.05"/>
<text text-anchor="start" x="1492.89" y="-297.05" font-family="Helvetica,sans-Serif" font-size="10.00">stadls/vx/playback</text>
<text text-anchor="middle" x="1536.23" y="-285.05" font-family="Helvetica,sans-Serif" font-size="10.00">_program_builder.h</text>
</a>
</g>
</g>
<!-- Node0&#45;&gt;Node5 -->
<g id="edge6" class="edge">
<title>Node0&#45;&gt;Node5</title>
<path fill="none" stroke="midnightblue" d="M1536.23,-346.87C1536.23,-338.2 1536.23,-328.66 1536.23,-320.16"/>
<polygon fill="midnightblue" stroke="midnightblue" points="1539.73,-320.08 1536.23,-310.08 1532.73,-320.08 1539.73,-320.08"/>
</g>
<!-- Node4&#45;&gt;Node4 -->
<g id="edge5" class="edge">
<title>Node4&#45;&gt;Node4</title>
<path fill="none" stroke="midnightblue" d="M1193.73,-22.11C1216.22,-26 1239.3,-22.65 1239.3,-12.05 1239.3,-3.03 1222.57,0.74 1203.71,-0.74"/>
<polygon fill="midnightblue" stroke="midnightblue" points="1203.22,2.72 1193.73,-1.99 1204.09,-4.22 1203.22,2.72"/>
</g>
<!-- Node5&#45;&gt;Node3 -->
<g id="edge15" class="edge">
<title>Node5&#45;&gt;Node3</title>
<path fill="none" stroke="midnightblue" d="M1587.77,-293.08C1638.92,-290.68 1717.4,-280.24 1772.23,-241.55 1825.12,-204.23 1856.48,-130.27 1868.95,-95.27"/>
<polygon fill="midnightblue" stroke="midnightblue" points="1872.41,-95.97 1872.34,-85.37 1865.79,-93.7 1872.41,-95.97"/>
</g>
<!-- Node5&#45;&gt;Node4 -->
<g id="edge50" class="edge">
<title>Node5&#45;&gt;Node4</title>
<path fill="none" stroke="midnightblue" d="M1587.73,-291.66C1642.62,-288.25 1730.6,-277.1 1797.23,-241.55 1884.8,-194.83 1993.28,-130.8 1925.23,-58.55 1901.61,-33.48 1412.55,-19.07 1231.69,-14.58"/>
<polygon fill="midnightblue" stroke="midnightblue" points="1231.6,-11.08 1221.52,-14.33 1231.43,-18.08 1231.6,-11.08"/>
</g>
<!-- Node6 -->
<g id="node7" class="node">
<title>Node6</title>
<g id="a_node7"><a xlink:title=" ">
<polygon fill="white" stroke="#bfbfbf" points="1602.06,-221.05 1602.06,-241.05 1646.39,-241.05 1646.39,-221.05 1602.06,-221.05"/>
<text text-anchor="middle" x="1624.23" y="-228.05" font-family="Helvetica,sans-Serif" font-size="10.00">iosfwd</text>
</a>
</g>
</g>
<!-- Node5&#45;&gt;Node6 -->
<g id="edge7" class="edge">
<title>Node5&#45;&gt;Node6</title>
<path fill="none" stroke="midnightblue" d="M1557.98,-277.97C1571.67,-268.48 1589.27,-256.28 1602.89,-246.85"/>
<polygon fill="midnightblue" stroke="midnightblue" points="1604.95,-249.67 1611.18,-241.1 1600.96,-243.92 1604.95,-249.67"/>
</g>
<!-- Node7 -->
<g id="node8" class="node">
<title>Node7</title>
<g id="a_node8"><a xlink:title=" ">
<polygon fill="white" stroke="#bfbfbf" points="365.17,-65.05 365.17,-85.05 417.28,-85.05 417.28,-65.05 365.17,-65.05"/>
<text text-anchor="middle" x="391.23" y="-72.05" font-family="Helvetica,sans-Serif" font-size="10.00">memory</text>
</a>
</g>
</g>
<!-- Node5&#45;&gt;Node7 -->
<g id="edge8" class="edge">
<title>Node5&#45;&gt;Node7</title>
<path fill="none" stroke="midnightblue" d="M1484.8,-279.14C1481.58,-278.53 1478.37,-277.99 1475.23,-277.55 941.1,-202.69 797.24,-309.82 262.23,-241.55 149.18,-227.13 83.29,-273.64 12.23,-184.55 -3.57,-164.75 -4.44,-146.63 12.23,-127.55 56.57,-76.78 268.97,-74.15 354.96,-75.23"/>
<polygon fill="midnightblue" stroke="midnightblue" points="354.99,-78.73 365.04,-75.39 355.09,-71.73 354.99,-78.73"/>
</g>
<!-- Node8 -->
<g id="node9" class="node">
<title>Node8</title>
<g id="a_node9"><a xlink:title=" ">
<polygon fill="white" stroke="#bfbfbf" points="1663.99,-221.05 1663.99,-241.05 1744.46,-241.05 1744.46,-221.05 1663.99,-221.05"/>
<text text-anchor="middle" x="1704.23" y="-228.05" font-family="Helvetica,sans-Serif" font-size="10.00">unordered_set</text>
</a>
</g>
</g>
<!-- Node5&#45;&gt;Node8 -->
<g id="edge9" class="edge">
<title>Node5&#45;&gt;Node8</title>
<path fill="none" stroke="midnightblue" d="M1577.76,-277.97C1606.02,-267.71 1642.98,-254.29 1669.64,-244.61"/>
<polygon fill="midnightblue" stroke="midnightblue" points="1671.11,-247.8 1679.31,-241.1 1668.72,-241.22 1671.11,-247.8"/>
</g>
<!-- Node9 -->
<g id="node10" class="node">
<title>Node9</title>
<g id="a_node10"><a xlink:title=" ">
<polygon fill="white" stroke="#bfbfbf" points="21.66,-146.05 21.66,-166.05 128.79,-166.05 128.79,-146.05 21.66,-146.05"/>
<text text-anchor="middle" x="75.23" y="-153.05" font-family="Helvetica,sans-Serif" font-size="10.00">haldls/vx/container.h</text>
</a>
</g>
</g>
<!-- Node5&#45;&gt;Node9 -->
<g id="edge10" class="edge">
<title>Node5&#45;&gt;Node9</title>
<path fill="none" stroke="midnightblue" d="M1484.8,-279.16C1481.57,-278.54 1478.36,-278 1475.23,-277.55 1000.17,-210.08 872.28,-301.56 396.23,-241.55 279.72,-226.87 249.9,-220.88 138.23,-184.55 126.32,-180.68 113.6,-175.36 102.72,-170.44"/>
<polygon fill="midnightblue" stroke="midnightblue" points="103.88,-167.11 93.33,-166.08 100.93,-173.46 103.88,-167.11"/>
</g>
<!-- Node10 -->
<g id="node11" class="node">
<title>Node10</title>
<g id="a_node11"><a xlink:title=" ">
<polygon fill="white" stroke="#bfbfbf" points="146.94,-146.05 146.94,-166.05 243.51,-166.05 243.51,-146.05 146.94,-146.05"/>
<text text-anchor="middle" x="195.23" y="-153.05" font-family="Helvetica,sans-Serif" font-size="10.00">lola/vx/container.h</text>
</a>
</g>
</g>
<!-- Node5&#45;&gt;Node10 -->
<g id="edge11" class="edge">
<title>Node5&#45;&gt;Node10</title>
<path fill="none" stroke="midnightblue" d="M1484.79,-279.19C1481.57,-278.56 1478.36,-278.01 1475.23,-277.55 1095.82,-222.04 994.79,-279.52 613.23,-241.55 451.59,-225.47 407.26,-233.03 252.23,-184.55 241.37,-181.16 229.98,-176.01 220.26,-171.09"/>
<polygon fill="midnightblue" stroke="midnightblue" points="221.65,-167.87 211.17,-166.31 218.39,-174.06 221.65,-167.87"/>
</g>
<!-- Node11 -->
<g id="node12" class="node">
<title>Node11</title>
<g id="a_node12"><a xlink:title=" ">
<polygon fill="white" stroke="#bfbfbf" points="261.72,-140.05 261.72,-172.05 362.74,-172.05 362.74,-140.05 261.72,-140.05"/>
<text text-anchor="start" x="269.72" y="-159.05" font-family="Helvetica,sans-Serif" font-size="10.00">halco/hicann&#45;dls/vx</text>
<text text-anchor="middle" x="312.23" y="-147.05" font-family="Helvetica,sans-Serif" font-size="10.00">/barrier.h</text>
</a>
</g>
</g>
<!-- Node5&#45;&gt;Node11 -->
<g id="edge12" class="edge">
<title>Node5&#45;&gt;Node11</title>
<path fill="none" stroke="midnightblue" d="M1484.78,-279.27C1481.56,-278.63 1478.36,-278.05 1475.23,-277.55 1226.23,-238.35 1160.34,-263.48 909.23,-241.55 680.69,-221.6 620.42,-233.16 396.23,-184.55 385.09,-182.14 373.35,-178.81 362.29,-175.3"/>
<polygon fill="midnightblue" stroke="midnightblue" points="363.37,-171.97 352.78,-172.19 361.19,-178.63 363.37,-171.97"/>
</g>
<!-- Node12 -->
<g id="node13" class="node">
<title>Node12</title>
<g id="a_node13"><a xlink:title=" ">
<polygon fill="white" stroke="#bfbfbf" points="1323.78,-146.05 1323.78,-166.05 1418.67,-166.05 1418.67,-146.05 1323.78,-146.05"/>
<text text-anchor="middle" x="1371.23" y="-153.05" font-family="Helvetica,sans-Serif" font-size="10.00">haldls/vx/barrier.h</text>
</a>
</g>
</g>
<!-- Node5&#45;&gt;Node12 -->
<g id="edge13" class="edge">
<title>Node5&#45;&gt;Node12</title>
<path fill="none" stroke="midnightblue" d="M1517.94,-277.98C1486.36,-251.95 1421.93,-198.84 1390.01,-172.53"/>
<polygon fill="midnightblue" stroke="midnightblue" points="1392.22,-169.82 1382.28,-166.16 1387.77,-175.22 1392.22,-169.82"/>
</g>
<!-- Node13 -->
<g id="node14" class="node">
<title>Node13</title>
<g id="a_node14"><a xlink:title=" ">
<polygon fill="white" stroke="#bfbfbf" points="1591.05,-65.05 1591.05,-85.05 1695.4,-85.05 1695.4,-65.05 1591.05,-65.05"/>
<text text-anchor="middle" x="1643.23" y="-72.05" font-family="Helvetica,sans-Serif" font-size="10.00">haldls/vx/common.h</text>
</a>
</g>
</g>
<!-- Node5&#45;&gt;Node13 -->
<g id="edge14" class="edge">
<title>Node5&#45;&gt;Node13</title>
<path fill="none" stroke="midnightblue" d="M1544.88,-277.79C1554.72,-261.62 1572.2,-236.29 1593.23,-220.55 1627.72,-194.74 1659.07,-220.23 1683.23,-184.55 1697.43,-163.57 1691.44,-151.52 1683.23,-127.55 1678.68,-114.3 1669.19,-101.83 1660.59,-92.47"/>
<polygon fill="midnightblue" stroke="midnightblue" points="1662.9,-89.83 1653.41,-85.12 1657.89,-94.72 1662.9,-89.83"/>
</g>
<!-- Node14 -->
<g id="node15" class="node">
<title>Node14</title>
<g id="a_node15"><a xlink:title=" ">
<polygon fill="white" stroke="#bfbfbf" points="1713.61,-65.05 1713.61,-85.05 1816.85,-85.05 1816.85,-65.05 1713.61,-65.05"/>
<text text-anchor="middle" x="1765.23" y="-72.05" font-family="Helvetica,sans-Serif" font-size="10.00">hxcomm/vx/target.h</text>
</a>
</g>
</g>
<!-- Node5&#45;&gt;Node14 -->
<g id="edge16" class="edge">
<title>Node5&#45;&gt;Node14</title>
<path fill="none" stroke="midnightblue" d="M1587.8,-287.79C1645.02,-280.8 1732.12,-266.36 1753.23,-241.55 1788.62,-199.96 1778.18,-129.22 1770.37,-95.3"/>
<polygon fill="midnightblue" stroke="midnightblue" points="1773.7,-94.17 1767.9,-85.3 1766.9,-95.85 1773.7,-94.17"/>
</g>
<!-- Node15 -->
<g id="node16" class="node">
<title>Node15</title>
<g id="a_node16"><a xlink:href="dumper_8h.html" target="_top" xlink:title=" ">
<polygon fill="white" stroke="black" points="918.27,-221.05 918.27,-241.05 1018.18,-241.05 1018.18,-221.05 918.27,-221.05"/>
<text text-anchor="middle" x="968.23" y="-228.05" font-family="Helvetica,sans-Serif" font-size="10.00">stadls/vx/dumper.h</text>
</a>
</g>
</g>
<!-- Node5&#45;&gt;Node15 -->
<g id="edge17" class="edge">
<title>Node5&#45;&gt;Node15</title>
<path fill="none" stroke="midnightblue" d="M1484.77,-279.36C1481.55,-278.7 1478.35,-278.09 1475.23,-277.55 1315.11,-250.2 1123.56,-238.67 1028.25,-234.34"/>
<polygon fill="midnightblue" stroke="midnightblue" points="1028.37,-230.84 1018.22,-233.9 1028.06,-237.84 1028.37,-230.84"/>
</g>
<!-- Node22 -->
<g id="node23" class="node">
<title>Node22</title>
<g id="a_node23"><a xlink:href="playback__program_8h.html" target="_top" xlink:title=" ">
<polygon fill="white" stroke="black" points="1170.66,-140.05 1170.66,-172.05 1267.79,-172.05 1267.79,-140.05 1170.66,-140.05"/>
<text text-anchor="start" x="1178.66" y="-159.05" font-family="Helvetica,sans-Serif" font-size="10.00">stadls/vx/playback</text>
<text text-anchor="middle" x="1219.23" y="-147.05" font-family="Helvetica,sans-Serif" font-size="10.00">_program.h</text>
</a>
</g>
</g>
<!-- Node5&#45;&gt;Node22 -->
<g id="edge51" class="edge">
<title>Node5&#45;&gt;Node22</title>
<path fill="none" stroke="midnightblue" d="M1501.09,-277.98C1443.13,-253.11 1327.58,-203.54 1263.9,-176.22"/>
<polygon fill="midnightblue" stroke="midnightblue" points="1265.09,-172.92 1254.52,-172.19 1262.33,-179.35 1265.09,-172.92"/>
</g>
<!-- Node32 -->
<g id="node33" class="node">
<title>Node32</title>
<g id="a_node33"><a xlink:title=" ">
<polygon fill="white" stroke="#bfbfbf" points="1436.49,-146.05 1436.49,-166.05 1551.96,-166.05 1551.96,-146.05 1436.49,-146.05"/>
<text text-anchor="middle" x="1494.23" y="-153.05" font-family="Helvetica,sans-Serif" font-size="10.00">haldls/vx/container.def</text>
</a>
</g>
</g>
<!-- Node5&#45;&gt;Node32 -->
<g id="edge52" class="edge">
<title>Node5&#45;&gt;Node32</title>
<path fill="none" stroke="midnightblue" d="M1531.57,-277.98C1523.88,-253.06 1508.51,-203.31 1500.09,-176.03"/>
<polygon fill="midnightblue" stroke="midnightblue" points="1503.34,-174.68 1497.04,-166.16 1496.65,-176.75 1503.34,-174.68"/>
</g>
<!-- Node33 -->
<g id="node34" class="node">
<title>Node33</title>
<g id="a_node34"><a xlink:title=" ">
<polygon fill="white" stroke="#bfbfbf" points="1569.77,-146.05 1569.77,-166.05 1674.68,-166.05 1674.68,-146.05 1569.77,-146.05"/>
<text text-anchor="middle" x="1622.23" y="-153.05" font-family="Helvetica,sans-Serif" font-size="10.00">lola/vx/container.def</text>
</a>
</g>
</g>
<!-- Node5&#45;&gt;Node33 -->
<g id="edge53" class="edge">
<title>Node5&#45;&gt;Node33</title>
<path fill="none" stroke="midnightblue" d="M1539.11,-278.04C1542.5,-262.76 1549.13,-238.79 1560.23,-220.55 1571.5,-202.02 1589.13,-184.67 1602.71,-172.8"/>
<polygon fill="midnightblue" stroke="midnightblue" points="1605.18,-175.29 1610.55,-166.16 1600.65,-169.95 1605.18,-175.29"/>
</g>
<!-- Node15&#45;&gt;Node3 -->
<g id="edge25" class="edge">
<title>Node15&#45;&gt;Node3</title>
<path fill="none" stroke="midnightblue" d="M1018.43,-227.58C1094.66,-223.01 1235.19,-211.17 1277.23,-184.55 1302.95,-168.26 1288.9,-142.85 1315.23,-127.55 1413.64,-70.34 1714.4,-112.87 1826.23,-91.55 1831.01,-90.64 1835.99,-89.41 1840.86,-88.04"/>
<polygon fill="midnightblue" stroke="midnightblue" points="1842.04,-91.34 1850.59,-85.09 1840.01,-84.64 1842.04,-91.34"/>
</g>
<!-- Node15&#45;&gt;Node4 -->
<g id="edge30" class="edge">
<title>Node15&#45;&gt;Node4</title>
<path fill="none" stroke="midnightblue" d="M1013.02,-221.02C1033.21,-214.48 1055.18,-203.34 1067.23,-184.55 1080.9,-163.22 1083.63,-146.86 1067.23,-127.55 1000.88,-49.46 780.09,-135.97 847.23,-58.55 879.1,-21.79 1015.24,-14.01 1098.71,-12.77"/>
<polygon fill="midnightblue" stroke="midnightblue" points="1098.91,-16.27 1108.87,-12.65 1098.83,-9.27 1098.91,-16.27"/>
</g>
<!-- Node15&#45;&gt;Node7 -->
<g id="edge18" class="edge">
<title>Node15&#45;&gt;Node7</title>
<path fill="none" stroke="midnightblue" d="M917.99,-226.48C786.72,-217.07 442.88,-191.79 433.23,-184.55 404.91,-163.33 395.68,-120.35 392.68,-95.32"/>
<polygon fill="midnightblue" stroke="midnightblue" points="396.15,-94.84 391.69,-85.23 389.18,-95.53 396.15,-94.84"/>
</g>
<!-- Node15&#45;&gt;Node9 -->
<g id="edge24" class="edge">
<title>Node15&#45;&gt;Node9</title>
<path fill="none" stroke="midnightblue" d="M918.22,-229.64C762.49,-227.97 287.67,-220.04 138.23,-184.55 125.38,-181.5 111.88,-175.95 100.68,-170.64"/>
<polygon fill="midnightblue" stroke="midnightblue" points="102.02,-167.4 91.51,-166.09 98.92,-173.67 102.02,-167.4"/>
</g>
<!-- Node15&#45;&gt;Node10 -->
<g id="edge26" class="edge">
<title>Node15&#45;&gt;Node10</title>
<path fill="none" stroke="midnightblue" d="M918.18,-229.37C777.11,-227.04 378.36,-217.63 252.23,-184.55 240.79,-181.55 228.9,-176.22 218.95,-171.04"/>
<polygon fill="midnightblue" stroke="midnightblue" points="220.55,-167.92 210.09,-166.2 217.19,-174.06 220.55,-167.92"/>
</g>
<!-- Node15&#45;&gt;Node11 -->
<g id="edge22" class="edge">
<title>Node15&#45;&gt;Node11</title>
<path fill="none" stroke="midnightblue" d="M917.93,-226.62C779.83,-217.15 403.32,-190.9 377.23,-184.55 368.76,-182.49 359.97,-179.45 351.7,-176.14"/>
<polygon fill="midnightblue" stroke="midnightblue" points="352.86,-172.83 342.28,-172.16 350.13,-179.27 352.86,-172.83"/>
</g>
<!-- Node15&#45;&gt;Node12 -->
<g id="edge23" class="edge">
<title>Node15&#45;&gt;Node12</title>
<path fill="none" stroke="midnightblue" d="M1018.42,-227.94C1085.92,-224.07 1209.14,-213.39 1310.23,-184.55 1322.2,-181.14 1334.84,-175.76 1345.49,-170.66"/>
<polygon fill="midnightblue" stroke="midnightblue" points="1347.23,-173.71 1354.64,-166.13 1344.12,-167.44 1347.23,-173.71"/>
</g>
<!-- Node16 -->
<g id="node17" class="node">
<title>Node16</title>
<g id="a_node17"><a xlink:title=" ">
<polygon fill="white" stroke="#bfbfbf" points="1113.84,-146.05 1113.84,-166.05 1152.61,-166.05 1152.61,-146.05 1113.84,-146.05"/>
<text text-anchor="middle" x="1133.23" y="-153.05" font-family="Helvetica,sans-Serif" font-size="10.00">utility</text>
</a>
</g>
</g>
<!-- Node15&#45;&gt;Node16 -->
<g id="edge19" class="edge">
<title>Node15&#45;&gt;Node16</title>
<path fill="none" stroke="midnightblue" d="M1005.89,-221C1033.17,-213.52 1070.35,-201.4 1100.23,-184.55 1105.89,-181.36 1111.52,-177.16 1116.48,-173"/>
<polygon fill="midnightblue" stroke="midnightblue" points="1118.95,-175.49 1124.1,-166.23 1114.3,-170.26 1118.95,-175.49"/>
</g>
<!-- Node17 -->
<g id="node18" class="node">
<title>Node17</title>
<g id="a_node18"><a xlink:title=" ">
<polygon fill="white" stroke="#bfbfbf" points="457.23,-146.05 457.23,-166.05 503.23,-166.05 503.23,-146.05 457.23,-146.05"/>
<text text-anchor="middle" x="480.23" y="-153.05" font-family="Helvetica,sans-Serif" font-size="10.00">variant</text>
</a>
</g>
</g>
<!-- Node15&#45;&gt;Node17 -->
<g id="edge20" class="edge">
<title>Node15&#45;&gt;Node17</title>
<path fill="none" stroke="midnightblue" d="M917.98,-226.75C807.19,-219.22 548.84,-200.23 512.23,-184.55 506.1,-181.93 500.29,-177.7 495.34,-173.33"/>
<polygon fill="midnightblue" stroke="midnightblue" points="497.53,-170.58 487.92,-166.12 492.65,-175.6 497.53,-170.58"/>
</g>
<!-- Node18 -->
<g id="node19" class="node">
<title>Node18</title>
<g id="a_node19"><a xlink:title=" ">
<polygon fill="white" stroke="#bfbfbf" points="539.61,-65.05 539.61,-85.05 582.84,-85.05 582.84,-65.05 539.61,-65.05"/>
<text text-anchor="middle" x="561.23" y="-72.05" font-family="Helvetica,sans-Serif" font-size="10.00">vector</text>
</a>
</g>
</g>
<!-- Node15&#45;&gt;Node18 -->
<g id="edge21" class="edge">
<title>Node15&#45;&gt;Node18</title>
<path fill="none" stroke="midnightblue" d="M917.84,-226.54C788.82,-217.43 456.12,-193.17 448.23,-184.55 431.11,-165.87 434.52,-148.86 448.23,-127.55 465.94,-100.02 502.39,-87.03 529.13,-81.02"/>
<polygon fill="midnightblue" stroke="midnightblue" points="530.09,-84.39 539.19,-78.97 528.7,-77.53 530.09,-84.39"/>
</g>
<!-- Node19 -->
<g id="node20" class="node">
<title>Node19</title>
<g id="a_node20"><a xlink:title=" ">
<polygon fill="white" stroke="#bfbfbf" points="520.86,-146.05 520.86,-166.05 663.59,-166.05 663.59,-146.05 520.86,-146.05"/>
<text text-anchor="middle" x="592.23" y="-153.05" font-family="Helvetica,sans-Serif" font-size="10.00">boost/hana/adapt_struct.hpp</text>
</a>
</g>
</g>
<!-- Node15&#45;&gt;Node19 -->
<g id="edge27" class="edge">
<title>Node15&#45;&gt;Node19</title>
<path fill="none" stroke="midnightblue" d="M918.2,-225.12C858.91,-218.64 757.41,-205.56 672.23,-184.55 656.24,-180.61 638.91,-174.84 624.48,-169.61"/>
<polygon fill="midnightblue" stroke="midnightblue" points="625.6,-166.29 615.01,-166.1 623.17,-172.86 625.6,-166.29"/>
</g>
<!-- Node20 -->
<g id="node21" class="node">
<title>Node20</title>
<g id="a_node21"><a xlink:title=" ">
<polygon fill="white" stroke="#bfbfbf" points="681.55,-128.05 681.55,-184.05 860.91,-184.05 860.91,-128.05 681.55,-128.05"/>
<text text-anchor="start" x="689.55" y="-171.05" font-family="Helvetica,sans-Serif" font-size="10.00">/jenkins/jenlib_workspaces</text>
<text text-anchor="start" x="689.55" y="-159.05" font-family="Helvetica,sans-Serif" font-size="10.00">_f9/bld_nightly&#45;haldls.YmxkX25p</text>
<text text-anchor="start" x="689.55" y="-147.05" font-family="Helvetica,sans-Serif" font-size="10.00">Z2h0bHktaGFsZGxzIzY1NQ.x/haldls</text>
<text text-anchor="middle" x="771.23" y="-135.05" font-family="Helvetica,sans-Serif" font-size="10.00">/include/haldls/vx/common.h</text>
</a>
</g>
</g>
<!-- Node15&#45;&gt;Node20 -->
<g id="edge28" class="edge">
<title>Node15&#45;&gt;Node20</title>
<path fill="none" stroke="midnightblue" d="M943.68,-220.95C921.05,-212.57 886.16,-199.64 853.67,-187.6"/>
<polygon fill="midnightblue" stroke="midnightblue" points="854.72,-184.26 844.13,-184.07 852.29,-190.82 854.72,-184.26"/>
</g>
<!-- Node21 -->
<g id="node22" class="node">
<title>Node21</title>
<g id="a_node22"><a xlink:title=" ">
<polygon fill="white" stroke="#bfbfbf" points="878.55,-128.05 878.55,-184.05 1057.91,-184.05 1057.91,-128.05 878.55,-128.05"/>
<text text-anchor="start" x="886.55" y="-171.05" font-family="Helvetica,sans-Serif" font-size="10.00">/jenkins/jenlib_workspaces</text>
<text text-anchor="start" x="886.55" y="-159.05" font-family="Helvetica,sans-Serif" font-size="10.00">_f9/bld_nightly&#45;haldls.YmxkX25p</text>
<text text-anchor="start" x="886.55" y="-147.05" font-family="Helvetica,sans-Serif" font-size="10.00">Z2h0bHktaGFsZGxzIzY1NQ.x/haldls</text>
<text text-anchor="middle" x="968.23" y="-135.05" font-family="Helvetica,sans-Serif" font-size="10.00">/include/haldls/vx/neuron.h</text>
</a>
</g>
</g>
<!-- Node15&#45;&gt;Node21 -->
<g id="edge29" class="edge">
<title>Node15&#45;&gt;Node21</title>
<path fill="none" stroke="midnightblue" d="M968.23,-220.81C968.23,-213.97 968.23,-204.18 968.23,-194.31"/>
<polygon fill="midnightblue" stroke="midnightblue" points="971.73,-194.12 968.23,-184.12 964.73,-194.12 971.73,-194.12"/>
</g>
<!-- Node15&#45;&gt;Node22 -->
<g id="edge31" class="edge">
<title>Node15&#45;&gt;Node22</title>
<path fill="none" stroke="midnightblue" d="M1018.23,-221.28C1057.69,-213.64 1113.8,-201.18 1161.23,-184.55 1167.8,-182.25 1174.62,-179.43 1181.17,-176.49"/>
<polygon fill="midnightblue" stroke="midnightblue" points="1182.94,-179.53 1190.52,-172.13 1179.98,-173.18 1182.94,-179.53"/>
</g>
<!-- Node15&#45;&gt;Node32 -->
<g id="edge48" class="edge">
<title>Node15&#45;&gt;Node32</title>
<path fill="none" stroke="midnightblue" d="M1018.28,-229.81C1103.51,-228.36 1281.73,-220.8 1427.23,-184.55 1440.67,-181.2 1454.95,-175.65 1466.85,-170.4"/>
<polygon fill="midnightblue" stroke="midnightblue" points="1468.58,-173.46 1476.23,-166.12 1465.68,-167.09 1468.58,-173.46"/>
</g>
<!-- Node15&#45;&gt;Node33 -->
<g id="edge49" class="edge">
<title>Node15&#45;&gt;Node33</title>
<path fill="none" stroke="midnightblue" d="M1018.6,-228.43C1142.44,-224.07 1459.06,-210.65 1561.23,-184.55 1573.46,-181.43 1586.31,-176 1597.04,-170.78"/>
<polygon fill="midnightblue" stroke="midnightblue" points="1598.88,-173.77 1606.22,-166.13 1595.72,-167.53 1598.88,-173.77"/>
</g>
<!-- Node22&#45;&gt;Node3 -->
<g id="edge40" class="edge">
<title>Node22&#45;&gt;Node3</title>
<path fill="none" stroke="midnightblue" d="M1247.98,-140.01C1258.48,-135.19 1270.63,-130.38 1282.23,-127.55 1517.66,-70.23 1588.11,-136.42 1826.23,-91.55 1831.02,-90.65 1835.99,-89.43 1840.86,-88.06"/>
<polygon fill="midnightblue" stroke="midnightblue" points="1842.04,-91.36 1850.6,-85.11 1840.01,-84.66 1842.04,-91.36"/>
</g>
<!-- Node22&#45;&gt;Node4 -->
<g id="edge42" class="edge">
<title>Node22&#45;&gt;Node4</title>
<path fill="none" stroke="midnightblue" d="M1209.4,-139.96C1201.62,-127.43 1190.97,-108.92 1184.23,-91.55 1176.63,-72.01 1171.43,-48.52 1168.41,-32.36"/>
<polygon fill="midnightblue" stroke="midnightblue" points="1171.86,-31.72 1166.67,-22.48 1164.96,-32.94 1171.86,-31.72"/>
</g>
<!-- Node22&#45;&gt;Node7 -->
<g id="edge33" class="edge">
<title>Node22&#45;&gt;Node7</title>
<path fill="none" stroke="midnightblue" d="M1192.89,-139.93C1183.24,-135.11 1172.02,-130.31 1161.23,-127.55 889.05,-58.09 810.14,-115.13 530.23,-91.55 495.26,-88.61 455.47,-84.05 427.45,-80.63"/>
<polygon fill="midnightblue" stroke="midnightblue" points="427.67,-77.14 417.32,-79.39 426.81,-84.08 427.67,-77.14"/>
</g>
<!-- Node22&#45;&gt;Node13 -->
<g id="edge38" class="edge">
<title>Node22&#45;&gt;Node13</title>
<path fill="none" stroke="midnightblue" d="M1249.02,-139.92C1259.31,-135.27 1271.06,-130.59 1282.23,-127.55 1411.81,-92.32 1450.21,-116.14 1582.23,-91.55 1588.21,-90.44 1594.49,-89.07 1600.63,-87.62"/>
<polygon fill="midnightblue" stroke="midnightblue" points="1601.92,-90.91 1610.79,-85.12 1600.25,-84.11 1601.92,-90.91"/>
</g>
<!-- Node22&#45;&gt;Node14 -->
<g id="edge41" class="edge">
<title>Node22&#45;&gt;Node14</title>
<path fill="none" stroke="midnightblue" d="M1248.33,-139.99C1258.76,-135.23 1270.77,-130.46 1282.23,-127.55 1464.69,-81.28 1518.61,-122.84 1704.23,-91.55 1710.59,-90.48 1717.27,-89.08 1723.77,-87.55"/>
<polygon fill="midnightblue" stroke="midnightblue" points="1724.9,-90.88 1733.78,-85.09 1723.23,-84.08 1724.9,-90.88"/>
</g>
<!-- Node22&#45;&gt;Node18 -->
<g id="edge36" class="edge">
<title>Node22&#45;&gt;Node18</title>
<path fill="none" stroke="midnightblue" d="M1192.57,-139.91C1182.98,-135.14 1171.89,-130.39 1161.23,-127.55 960.48,-74.17 902,-111.49 695.23,-91.55 660.24,-88.18 620.22,-83.43 593.1,-80.08"/>
<polygon fill="midnightblue" stroke="midnightblue" points="593.37,-76.59 583.02,-78.83 592.51,-83.54 593.37,-76.59"/>
</g>
<!-- Node23 -->
<g id="node24" class="node">
<title>Node23</title>
<g id="a_node24"><a xlink:title=" ">
<polygon fill="white" stroke="#bfbfbf" points="1092.78,-65.05 1092.78,-85.05 1137.67,-85.05 1137.67,-65.05 1092.78,-65.05"/>
<text text-anchor="middle" x="1115.23" y="-72.05" font-family="Helvetica,sans-Serif" font-size="10.00">cstdint</text>
</a>
</g>
</g>
<!-- Node22&#45;&gt;Node23 -->
<g id="edge32" class="edge">
<title>Node22&#45;&gt;Node23</title>
<path fill="none" stroke="midnightblue" d="M1199.17,-139.82C1180.81,-125.87 1153.77,-105.33 1135.38,-91.36"/>
<polygon fill="midnightblue" stroke="midnightblue" points="1137.2,-88.35 1127.12,-85.09 1132.97,-93.92 1137.2,-88.35"/>
</g>
<!-- Node24 -->
<g id="node25" class="node">
<title>Node24</title>
<g id="a_node25"><a xlink:title=" ">
<polygon fill="white" stroke="#bfbfbf" points="1193.72,-65.05 1193.72,-85.05 1244.73,-85.05 1244.73,-65.05 1193.72,-65.05"/>
<text text-anchor="middle" x="1219.23" y="-72.05" font-family="Helvetica,sans-Serif" font-size="10.00">optional</text>
</a>
</g>
</g>
<!-- Node22&#45;&gt;Node24 -->
<g id="edge34" class="edge">
<title>Node22&#45;&gt;Node24</title>
<path fill="none" stroke="midnightblue" d="M1219.23,-139.82C1219.23,-127.21 1219.23,-109.21 1219.23,-95.55"/>
<polygon fill="midnightblue" stroke="midnightblue" points="1222.73,-95.31 1219.23,-85.31 1215.73,-95.31 1222.73,-95.31"/>
</g>
<!-- Node25 -->
<g id="node26" class="node">
<title>Node25</title>
<g id="a_node26"><a xlink:title=" ">
<polygon fill="white" stroke="#bfbfbf" points="1263,-65.05 1263,-85.05 1303.45,-85.05 1303.45,-65.05 1263,-65.05"/>
<text text-anchor="middle" x="1283.23" y="-72.05" font-family="Helvetica,sans-Serif" font-size="10.00">string</text>
</a>
</g>
</g>
<!-- Node22&#45;&gt;Node25 -->
<g id="edge35" class="edge">
<title>Node22&#45;&gt;Node25</title>
<path fill="none" stroke="midnightblue" d="M1231.57,-139.82C1242.4,-126.45 1258.13,-107.03 1269.38,-93.14"/>
<polygon fill="midnightblue" stroke="midnightblue" points="1272.15,-95.28 1275.73,-85.31 1266.71,-90.88 1272.15,-95.28"/>
</g>
<!-- Node26 -->
<g id="node27" class="node">
<title>Node26</title>
<g id="a_node27"><a xlink:title=" ">
<polygon fill="white" stroke="#bfbfbf" points="1321.88,-65.05 1321.88,-85.05 1464.57,-85.05 1464.57,-65.05 1321.88,-65.05"/>
<text text-anchor="middle" x="1393.23" y="-72.05" font-family="Helvetica,sans-Serif" font-size="10.00">fisch/vx/playback_program.h</text>
</a>
</g>
</g>
<!-- Node22&#45;&gt;Node26 -->
<g id="edge37" class="edge">
<title>Node22&#45;&gt;Node26</title>
<path fill="none" stroke="midnightblue" d="M1252.36,-140.01C1284.57,-125.38 1333.02,-103.39 1363.87,-89.38"/>
<polygon fill="midnightblue" stroke="midnightblue" points="1365.57,-92.45 1373.23,-85.13 1362.68,-86.08 1365.57,-92.45"/>
</g>
<!-- Node27 -->
<g id="node28" class="node">
<title>Node27</title>
<g id="a_node28"><a xlink:title=" ">
<polygon fill="white" stroke="#bfbfbf" points="1482.99,-65.05 1482.99,-85.05 1573.46,-85.05 1573.46,-65.05 1482.99,-65.05"/>
<text text-anchor="middle" x="1528.23" y="-72.05" font-family="Helvetica,sans-Serif" font-size="10.00">haldls/vx/event.h</text>
</a>
</g>
</g>
<!-- Node22&#45;&gt;Node27 -->
<g id="edge39" class="edge">
<title>Node22&#45;&gt;Node27</title>
<path fill="none" stroke="midnightblue" d="M1250.1,-139.92C1260.16,-135.44 1271.51,-130.86 1282.23,-127.55 1364.78,-102.11 1389.13,-111.29 1473.23,-91.55 1478.17,-90.39 1483.34,-89.08 1488.44,-87.71"/>
<polygon fill="midnightblue" stroke="midnightblue" points="1489.38,-91.09 1498.09,-85.06 1487.52,-84.34 1489.38,-91.09"/>
</g>
<!-- Node28 -->
<g id="node29" class="node">
<title>Node28</title>
<g id="a_node29"><a xlink:href="run__time__info_8h.html" target="_top" xlink:title=" ">
<polygon fill="white" stroke="black" points="703.94,-59.05 703.94,-91.05 800.51,-91.05 800.51,-59.05 703.94,-59.05"/>
<text text-anchor="start" x="711.94" y="-78.05" font-family="Helvetica,sans-Serif" font-size="10.00">stadls/vx/run_time</text>
<text text-anchor="middle" x="752.23" y="-66.05" font-family="Helvetica,sans-Serif" font-size="10.00">_info.h</text>
</a>
</g>
</g>
<!-- Node22&#45;&gt;Node28 -->
<g id="edge43" class="edge">
<title>Node22&#45;&gt;Node28</title>
<path fill="none" stroke="midnightblue" d="M1192.22,-139.99C1182.69,-135.29 1171.73,-130.55 1161.23,-127.55 1026.17,-88.94 986.36,-110.87 847.23,-91.55 835.46,-89.92 822.9,-88 810.9,-86.07"/>
<polygon fill="midnightblue" stroke="midnightblue" points="811.41,-82.61 800.98,-84.46 810.29,-89.52 811.41,-82.61"/>
</g>
<!-- Node30 -->
<g id="node31" class="node">
<title>Node30</title>
<g id="a_node31"><a xlink:title=" ">
<polygon fill="white" stroke="#bfbfbf" points="856.38,-65.05 856.38,-85.05 954.08,-85.05 954.08,-65.05 856.38,-65.05"/>
<text text-anchor="middle" x="905.23" y="-72.05" font-family="Helvetica,sans-Serif" font-size="10.00">pybind11/numpy.h</text>
</a>
</g>
</g>
<!-- Node22&#45;&gt;Node30 -->
<g id="edge46" class="edge">
<title>Node22&#45;&gt;Node30</title>
<path fill="none" stroke="midnightblue" d="M1191.22,-139.95C1181.89,-135.42 1171.31,-130.8 1161.23,-127.55 1076.08,-100.16 1050.5,-111.11 963.23,-91.55 958.08,-90.4 952.71,-89.1 947.39,-87.75"/>
<polygon fill="midnightblue" stroke="midnightblue" points="947.88,-84.26 937.32,-85.13 946.12,-91.03 947.88,-84.26"/>
</g>
<!-- Node31 -->
<g id="node32" class="node">
<title>Node31</title>
<g id="a_node32"><a xlink:title=" ">
<polygon fill="white" stroke="#bfbfbf" points="972.16,-65.05 972.16,-85.05 1074.3,-85.05 1074.3,-65.05 972.16,-65.05"/>
<text text-anchor="middle" x="1023.23" y="-72.05" font-family="Helvetica,sans-Serif" font-size="10.00">pybind11/stl_bind.h</text>
</a>
</g>
</g>
<!-- Node22&#45;&gt;Node31 -->
<g id="edge47" class="edge">
<title>Node22&#45;&gt;Node31</title>
<path fill="none" stroke="midnightblue" d="M1188.75,-140C1179.94,-135.81 1170.26,-131.37 1161.23,-127.55 1127.03,-113.1 1087.24,-98.48 1059.2,-88.52"/>
<polygon fill="midnightblue" stroke="midnightblue" points="1060.03,-85.1 1049.43,-85.08 1057.7,-91.71 1060.03,-85.1"/>
</g>
<!-- Node28&#45;&gt;Node4 -->
<g id="edge45" class="edge">
<title>Node28&#45;&gt;Node4</title>
<path fill="none" stroke="midnightblue" d="M800.85,-61.33C805.35,-60.32 809.87,-59.38 814.23,-58.55 912.63,-39.94 1028.01,-26.58 1098.86,-19.34"/>
<polygon fill="midnightblue" stroke="midnightblue" points="1099.39,-22.8 1108.98,-18.31 1098.68,-15.84 1099.39,-22.8"/>
</g>
<!-- Node29 -->
<g id="node30" class="node">
<title>Node29</title>
<g id="a_node30"><a xlink:title=" ">
<polygon fill="white" stroke="#bfbfbf" points="691.72,-2.05 691.72,-22.05 812.74,-22.05 812.74,-2.05 691.72,-2.05"/>
<text text-anchor="middle" x="752.23" y="-9.05" font-family="Helvetica,sans-Serif" font-size="10.00">fisch/vx/run_time_info.h</text>
</a>
</g>
</g>
<!-- Node28&#45;&gt;Node29 -->
<g id="edge44" class="edge">
<title>Node28&#45;&gt;Node29</title>
<path fill="none" stroke="midnightblue" d="M752.23,-58.97C752.23,-50.93 752.23,-40.94 752.23,-32.33"/>
<polygon fill="midnightblue" stroke="midnightblue" points="755.73,-32.1 752.23,-22.1 748.73,-32.1 755.73,-32.1"/>
</g>
</g>
</svg>
