<?xml version="1.0" encoding="UTF-8" standalone="no"?>
<!DOCTYPE svg PUBLIC "-//W3C//DTD SVG 1.1//EN"
 "http://www.w3.org/Graphics/SVG/1.1/DTD/svg11.dtd">
<!-- Generated by graphviz version 2.43.0 (0)
 -->
<!-- Title: /jenkins/jenlib_workspaces_f9/bld_nightly&#45;haldls.YmxkX25pZ2h0bHktaGFsZGxzIzY1NQ.x/haldls/include/stadls/vx/run_time_info.h Pages: 1 -->
<svg width="568pt" height="728pt"
 viewBox="0.00 0.00 568.36 728.00" xmlns="http://www.w3.org/2000/svg" xmlns:xlink="http://www.w3.org/1999/xlink">
<g id="graph0" class="graph" transform="scale(1 1) rotate(0) translate(4 724)">
<title>/jenkins/jenlib_workspaces_f9/bld_nightly&#45;haldls.YmxkX25pZ2h0bHktaGFsZGxzIzY1NQ.x/haldls/include/stadls/vx/run_time_info.h</title>
<polygon fill="white" stroke="transparent" points="-4,4 -4,-724 564.36,-724 564.36,4 -4,4"/>
<!-- Node3 -->
<g id="node1" class="node">
<title>Node3</title>
<g id="a_node1"><a xlink:title=" ">
<polygon fill="#bfbfbf" stroke="black" points="205,-663.5 205,-719.5 384.36,-719.5 384.36,-663.5 205,-663.5"/>
<text text-anchor="start" x="213" y="-706.5" font-family="Helvetica,sans-Serif" font-size="10.00">/jenkins/jenlib_workspaces</text>
<text text-anchor="start" x="213" y="-694.5" font-family="Helvetica,sans-Serif" font-size="10.00">_f9/bld_nightly&#45;haldls.YmxkX25p</text>
<text text-anchor="start" x="213" y="-682.5" font-family="Helvetica,sans-Serif" font-size="10.00">Z2h0bHktaGFsZGxzIzY1NQ.x/haldls</text>
<text text-anchor="middle" x="294.68" y="-670.5" font-family="Helvetica,sans-Serif" font-size="10.00">/include/stadls/vx/run_time_info.h</text>
</a>
</g>
</g>
<!-- Node4 -->
<g id="node2" class="node">
<title>Node4</title>
<g id="a_node2"><a xlink:href="playback__program_8h.html" target="_top" xlink:title=" ">
<polygon fill="white" stroke="black" points="141.94,-570.5 141.94,-626.5 327.42,-626.5 327.42,-570.5 141.94,-570.5"/>
<text text-anchor="start" x="149.94" y="-613.5" font-family="Helvetica,sans-Serif" font-size="10.00">/jenkins/jenlib_workspaces</text>
<text text-anchor="start" x="149.94" y="-601.5" font-family="Helvetica,sans-Serif" font-size="10.00">_f9/bld_nightly&#45;haldls.YmxkX25p</text>
<text text-anchor="start" x="149.94" y="-589.5" font-family="Helvetica,sans-Serif" font-size="10.00">Z2h0bHktaGFsZGxzIzY1NQ.x/haldls</text>
<text text-anchor="middle" x="234.68" y="-577.5" font-family="Helvetica,sans-Serif" font-size="10.00">/include/stadls/vx/playback_program.h</text>
</a>
</g>
</g>
<!-- Node3&#45;&gt;Node4 -->
<g id="edge1" class="edge">
<title>Node3&#45;&gt;Node4</title>
<path fill="none" stroke="midnightblue" d="M271.17,-654.84C265.01,-645.51 258.48,-635.6 252.67,-626.78"/>
<polygon fill="midnightblue" stroke="midnightblue" points="268.25,-656.77 276.68,-663.2 274.09,-652.92 268.25,-656.77"/>
</g>
<!-- Node11 -->
<g id="node9" class="node">
<title>Node11</title>
<g id="a_node9"><a xlink:href="run_8h.html" target="_top" xlink:title=" ">
<polygon fill="white" stroke="black" points="381,-477.5 381,-533.5 560.36,-533.5 560.36,-477.5 381,-477.5"/>
<text text-anchor="start" x="389" y="-520.5" font-family="Helvetica,sans-Serif" font-size="10.00">/jenkins/jenlib_workspaces</text>
<text text-anchor="start" x="389" y="-508.5" font-family="Helvetica,sans-Serif" font-size="10.00">_f9/bld_nightly&#45;haldls.YmxkX25p</text>
<text text-anchor="start" x="389" y="-496.5" font-family="Helvetica,sans-Serif" font-size="10.00">Z2h0bHktaGFsZGxzIzY1NQ.x/haldls</text>
<text text-anchor="middle" x="470.68" y="-484.5" font-family="Helvetica,sans-Serif" font-size="10.00">/include/stadls/vx/run.h</text>
</a>
</g>
</g>
<!-- Node3&#45;&gt;Node11 -->
<g id="edge14" class="edge">
<title>Node3&#45;&gt;Node11</title>
<path fill="none" stroke="midnightblue" d="M327.58,-656.1C361.43,-620.71 413.49,-566.29 444.6,-533.76"/>
<polygon fill="midnightblue" stroke="midnightblue" points="325.03,-653.7 320.65,-663.35 330.09,-658.54 325.03,-653.7"/>
</g>
<!-- Node5 -->
<g id="node3" class="node">
<title>Node5</title>
<g id="a_node3"><a xlink:href="dumper_8h.html" target="_top" xlink:title=" ">
<polygon fill="white" stroke="black" points="145,-477.5 145,-533.5 324.36,-533.5 324.36,-477.5 145,-477.5"/>
<text text-anchor="start" x="153" y="-520.5" font-family="Helvetica,sans-Serif" font-size="10.00">/jenkins/jenlib_workspaces</text>
<text text-anchor="start" x="153" y="-508.5" font-family="Helvetica,sans-Serif" font-size="10.00">_f9/bld_nightly&#45;haldls.YmxkX25p</text>
<text text-anchor="start" x="153" y="-496.5" font-family="Helvetica,sans-Serif" font-size="10.00">Z2h0bHktaGFsZGxzIzY1NQ.x/haldls</text>
<text text-anchor="middle" x="234.68" y="-484.5" font-family="Helvetica,sans-Serif" font-size="10.00">/include/stadls/vx/dumper.h</text>
</a>
</g>
</g>
<!-- Node4&#45;&gt;Node5 -->
<g id="edge2" class="edge">
<title>Node4&#45;&gt;Node5</title>
<path fill="none" stroke="midnightblue" d="M234.68,-560.12C234.68,-551.3 234.68,-542.06 234.68,-533.78"/>
<polygon fill="midnightblue" stroke="midnightblue" points="231.18,-560.2 234.68,-570.2 238.18,-560.2 231.18,-560.2"/>
</g>
<!-- Node6 -->
<g id="node4" class="node">
<title>Node6</title>
<g id="a_node4"><a xlink:href="playback__program__builder_8h.html" target="_top" xlink:title=" ">
<polygon fill="white" stroke="black" points="101,-372.5 101,-440.5 280.36,-440.5 280.36,-372.5 101,-372.5"/>
<text text-anchor="start" x="109" y="-427.5" font-family="Helvetica,sans-Serif" font-size="10.00">/jenkins/jenlib_workspaces</text>
<text text-anchor="start" x="109" y="-415.5" font-family="Helvetica,sans-Serif" font-size="10.00">_f9/bld_nightly&#45;haldls.YmxkX25p</text>
<text text-anchor="start" x="109" y="-403.5" font-family="Helvetica,sans-Serif" font-size="10.00">Z2h0bHktaGFsZGxzIzY1NQ.x/haldls</text>
<text text-anchor="start" x="109" y="-391.5" font-family="Helvetica,sans-Serif" font-size="10.00">/include/stadls/vx/playback_program</text>
<text text-anchor="middle" x="190.68" y="-379.5" font-family="Helvetica,sans-Serif" font-size="10.00">_builder.h</text>
</a>
</g>
</g>
<!-- Node4&#45;&gt;Node6 -->
<g id="edge11" class="edge">
<title>Node4&#45;&gt;Node6</title>
<path fill="none" stroke="midnightblue" d="M163.5,-564.62C152.32,-556.25 142.3,-546.11 135.68,-534 123.53,-511.77 127.36,-500.93 135.68,-477 140.23,-463.92 148.38,-451.45 157.03,-440.77"/>
<polygon fill="midnightblue" stroke="midnightblue" points="161.59,-567.56 171.8,-570.41 165.59,-561.82 161.59,-567.56"/>
</g>
<!-- Node8 -->
<g id="node6" class="node">
<title>Node8</title>
<g id="a_node6"><a xlink:href="init__generator_8h.html" target="_top" xlink:title=" ">
<polygon fill="white" stroke="black" points="0,-186.5 0,-242.5 179.36,-242.5 179.36,-186.5 0,-186.5"/>
<text text-anchor="start" x="8" y="-229.5" font-family="Helvetica,sans-Serif" font-size="10.00">/jenkins/jenlib_workspaces</text>
<text text-anchor="start" x="8" y="-217.5" font-family="Helvetica,sans-Serif" font-size="10.00">_f9/bld_nightly&#45;haldls.YmxkX25p</text>
<text text-anchor="start" x="8" y="-205.5" font-family="Helvetica,sans-Serif" font-size="10.00">Z2h0bHktaGFsZGxzIzY1NQ.x/haldls</text>
<text text-anchor="middle" x="89.68" y="-193.5" font-family="Helvetica,sans-Serif" font-size="10.00">/include/stadls/vx/init_generator.h</text>
</a>
</g>
</g>
<!-- Node4&#45;&gt;Node8 -->
<g id="edge12" class="edge">
<title>Node4&#45;&gt;Node8</title>
<path fill="none" stroke="midnightblue" d="M160.9,-565.35C147.12,-556.74 133.88,-546.32 123.68,-534 49.94,-444.89 55.75,-393.56 71.68,-279 73.37,-266.86 76.79,-253.77 80.2,-242.65"/>
<polygon fill="midnightblue" stroke="midnightblue" points="159.14,-568.37 169.52,-570.47 162.72,-562.35 159.14,-568.37"/>
</g>
<!-- Node9 -->
<g id="node7" class="node">
<title>Node9</title>
<g id="a_node7"><a xlink:href="stadls_8h.html" target="_top" xlink:title=" ">
<polygon fill="white" stroke="black" points="225,-93.5 225,-149.5 404.36,-149.5 404.36,-93.5 225,-93.5"/>
<text text-anchor="start" x="233" y="-136.5" font-family="Helvetica,sans-Serif" font-size="10.00">/jenkins/jenlib_workspaces</text>
<text text-anchor="start" x="233" y="-124.5" font-family="Helvetica,sans-Serif" font-size="10.00">_f9/bld_nightly&#45;haldls.YmxkX25p</text>
<text text-anchor="start" x="233" y="-112.5" font-family="Helvetica,sans-Serif" font-size="10.00">Z2h0bHktaGFsZGxzIzY1NQ.x/haldls</text>
<text text-anchor="middle" x="314.68" y="-100.5" font-family="Helvetica,sans-Serif" font-size="10.00">/include/stadls/vx/stadls.h</text>
</a>
</g>
</g>
<!-- Node4&#45;&gt;Node9 -->
<g id="edge13" class="edge">
<title>Node4&#45;&gt;Node9</title>
<path fill="none" stroke="midnightblue" d="M303.07,-564.75C314.9,-556.26 325.88,-546.04 333.68,-534 364.59,-486.28 352.68,-464.35 352.68,-407.5 352.68,-407.5 352.68,-407.5 352.68,-306.5 352.68,-252.47 349.14,-238.57 336.68,-186 333.8,-173.85 329.48,-160.77 325.43,-149.65"/>
<polygon fill="midnightblue" stroke="midnightblue" points="301.11,-561.85 294.78,-570.35 305.03,-567.65 301.11,-561.85"/>
</g>
<!-- Node5&#45;&gt;Node6 -->
<g id="edge3" class="edge">
<title>Node5&#45;&gt;Node6</title>
<path fill="none" stroke="midnightblue" d="M218.26,-468.3C214.13,-459.21 209.74,-449.51 205.69,-440.59"/>
<polygon fill="midnightblue" stroke="midnightblue" points="215.1,-469.82 222.42,-477.48 221.48,-466.93 215.1,-469.82"/>
</g>
<!-- Node7 -->
<g id="node5" class="node">
<title>Node7</title>
<g id="a_node5"><a xlink:href="playback__generator_8h.html" target="_top" xlink:title=" ">
<polygon fill="white" stroke="black" points="95.15,-279.5 95.15,-335.5 286.2,-335.5 286.2,-279.5 95.15,-279.5"/>
<text text-anchor="start" x="103.15" y="-322.5" font-family="Helvetica,sans-Serif" font-size="10.00">/jenkins/jenlib_workspaces</text>
<text text-anchor="start" x="103.15" y="-310.5" font-family="Helvetica,sans-Serif" font-size="10.00">_f9/bld_nightly&#45;haldls.YmxkX25p</text>
<text text-anchor="start" x="103.15" y="-298.5" font-family="Helvetica,sans-Serif" font-size="10.00">Z2h0bHktaGFsZGxzIzY1NQ.x/haldls</text>
<text text-anchor="middle" x="190.68" y="-286.5" font-family="Helvetica,sans-Serif" font-size="10.00">/include/stadls/vx/playback_generator.h</text>
</a>
</g>
</g>
<!-- Node6&#45;&gt;Node7 -->
<g id="edge4" class="edge">
<title>Node6&#45;&gt;Node7</title>
<path fill="none" stroke="midnightblue" d="M190.68,-362.33C190.68,-353.27 190.68,-343.95 190.68,-335.67"/>
<polygon fill="midnightblue" stroke="midnightblue" points="187.18,-362.39 190.68,-372.39 194.18,-362.39 187.18,-362.39"/>
</g>
<!-- Node6&#45;&gt;Node8 -->
<g id="edge9" class="edge">
<title>Node6&#45;&gt;Node8</title>
<path fill="none" stroke="midnightblue" d="M111.48,-366.22C101.12,-357.7 91.94,-347.66 85.68,-336 70.12,-307.05 75.15,-268.29 81.37,-242.64"/>
<polygon fill="midnightblue" stroke="midnightblue" points="109.54,-369.14 119.61,-372.45 113.8,-363.59 109.54,-369.14"/>
</g>
<!-- Node6&#45;&gt;Node9 -->
<g id="edge10" class="edge">
<title>Node6&#45;&gt;Node9</title>
<path fill="none" stroke="midnightblue" d="M268.04,-366.46C278.89,-357.84 288.7,-347.71 295.68,-336 330.73,-277.18 325.21,-192.62 319.33,-149.71"/>
<polygon fill="midnightblue" stroke="midnightblue" points="265.9,-363.69 259.99,-372.48 270.09,-369.3 265.9,-363.69"/>
</g>
<!-- Node7&#45;&gt;Node8 -->
<g id="edge5" class="edge">
<title>Node7&#45;&gt;Node8</title>
<path fill="none" stroke="midnightblue" d="M153.19,-272.72C142.17,-262.79 130.26,-252.06 119.77,-242.61"/>
<polygon fill="midnightblue" stroke="midnightblue" points="150.88,-275.35 160.65,-279.44 155.56,-270.15 150.88,-275.35"/>
</g>
<!-- Node7&#45;&gt;Node9 -->
<g id="edge8" class="edge">
<title>Node7&#45;&gt;Node9</title>
<path fill="none" stroke="midnightblue" d="M214.76,-270.76C238.63,-235.35 274.66,-181.88 296.31,-149.76"/>
<polygon fill="midnightblue" stroke="midnightblue" points="211.66,-269.1 208.97,-279.35 217.47,-273.01 211.66,-269.1"/>
</g>
<!-- Node8&#45;&gt;Node9 -->
<g id="edge6" class="edge">
<title>Node8&#45;&gt;Node9</title>
<path fill="none" stroke="midnightblue" d="M166.17,-182.56C192.61,-171.87 222.02,-159.97 247.65,-149.61"/>
<polygon fill="midnightblue" stroke="midnightblue" points="164.53,-179.45 156.58,-186.44 167.16,-185.94 164.53,-179.45"/>
</g>
<!-- Node10 -->
<g id="node8" class="node">
<title>Node10</title>
<g id="a_node8"><a xlink:href="pystadls_8h.html" target="_top" xlink:title=" ">
<polygon fill="white" stroke="black" points="225,-0.5 225,-56.5 404.36,-56.5 404.36,-0.5 225,-0.5"/>
<text text-anchor="start" x="233" y="-43.5" font-family="Helvetica,sans-Serif" font-size="10.00">/jenkins/jenlib_workspaces</text>
<text text-anchor="start" x="233" y="-31.5" font-family="Helvetica,sans-Serif" font-size="10.00">_f9/bld_nightly&#45;haldls.YmxkX25p</text>
<text text-anchor="start" x="233" y="-19.5" font-family="Helvetica,sans-Serif" font-size="10.00">Z2h0bHktaGFsZGxzIzY1NQ.x/haldls</text>
<text text-anchor="middle" x="314.68" y="-7.5" font-family="Helvetica,sans-Serif" font-size="10.00">/include/stadls/vx/pystadls.h</text>
</a>
</g>
</g>
<!-- Node9&#45;&gt;Node10 -->
<g id="edge7" class="edge">
<title>Node9&#45;&gt;Node10</title>
<path fill="none" stroke="midnightblue" d="M314.68,-83.12C314.68,-74.3 314.68,-65.06 314.68,-56.78"/>
<polygon fill="midnightblue" stroke="midnightblue" points="311.18,-83.2 314.68,-93.2 318.18,-83.2 311.18,-83.2"/>
</g>
<!-- Node11&#45;&gt;Node9 -->
<g id="edge15" class="edge">
<title>Node11&#45;&gt;Node9</title>
<path fill="none" stroke="midnightblue" d="M463.2,-467.13C449.91,-405.7 418.56,-280.78 366.68,-186 359.63,-173.13 349.84,-160.33 340.65,-149.64"/>
<polygon fill="midnightblue" stroke="midnightblue" points="459.83,-468.08 465.33,-477.13 466.67,-466.62 459.83,-468.08"/>
</g>
</g>
</svg>
