<?xml version="1.0" encoding="UTF-8" standalone="no"?>
<!DOCTYPE svg PUBLIC "-//W3C//DTD SVG 1.1//EN"
 "http://www.w3.org/Graphics/SVG/1.1/DTD/svg11.dtd">
<!-- Generated by graphviz version 2.43.0 (0)
 -->
<!-- Title: stadls::v2::QuickQueueResponse Pages: 1 -->
<svg width="195pt" height="272pt"
 viewBox="0.00 0.00 194.94 272.00" xmlns="http://www.w3.org/2000/svg" xmlns:xlink="http://www.w3.org/1999/xlink">
<g id="graph0" class="graph" transform="scale(1 1) rotate(0) translate(4 268)">
<title>stadls::v2::QuickQueueResponse</title>
<polygon fill="white" stroke="transparent" points="-4,4 -4,-268 190.94,-268 190.94,4 -4,4"/>
<!-- Node1 -->
<g id="node1" class="node">
<title>Node1</title>
<g id="a_node1"><a xlink:title=" ">
<polygon fill="#bfbfbf" stroke="black" points="0,-0.5 0,-20.5 164.38,-20.5 164.38,-0.5 0,-0.5"/>
<text text-anchor="middle" x="82.19" y="-7.5" font-family="Helvetica,sans-Serif" font-size="10.00">stadls::v2::QuickQueueResponse</text>
</a>
</g>
</g>
<!-- Node2 -->
<g id="node2" class="node">
<title>Node2</title>
<g id="a_node2"><a xlink:title=" ">
<polygon fill="white" stroke="#bfbfbf" points="26.96,-69.5 26.96,-113.5 137.42,-113.5 137.42,-69.5 26.96,-69.5"/>
<text text-anchor="start" x="34.96" y="-100.5" font-family="Helvetica,sans-Serif" font-size="10.00">std::vector&lt; haldls</text>
<text text-anchor="start" x="34.96" y="-88.5" font-family="Helvetica,sans-Serif" font-size="10.00">::v2::instruction_word</text>
<text text-anchor="middle" x="82.19" y="-76.5" font-family="Helvetica,sans-Serif" font-size="10.00">_type &gt;</text>
</a>
</g>
</g>
<!-- Node2&#45;&gt;Node1 -->
<g id="edge1" class="edge">
<title>Node2&#45;&gt;Node1</title>
<path fill="none" stroke="#9a32cd" stroke-dasharray="5,2" d="M82.19,-59.13C82.19,-45.27 82.19,-30.02 82.19,-20.6"/>
<polygon fill="#9a32cd" stroke="#9a32cd" points="78.69,-59.33 82.19,-69.33 85.69,-59.33 78.69,-59.33"/>
<text text-anchor="middle" x="110.53" y="-42" font-family="Helvetica,sans-Serif" font-size="10.00"> result_bytes</text>
</g>
<!-- Node3 -->
<g id="node3" class="node">
<title>Node3</title>
<g id="a_node3"><a xlink:title="STL class.">
<polygon fill="white" stroke="#bfbfbf" points="39.45,-174.5 39.45,-194.5 124.92,-194.5 124.92,-174.5 39.45,-174.5"/>
<text text-anchor="middle" x="82.19" y="-181.5" font-family="Helvetica,sans-Serif" font-size="10.00">std::vector&lt; T &gt;</text>
</a>
</g>
</g>
<!-- Node3&#45;&gt;Node2 -->
<g id="edge2" class="edge">
<title>Node3&#45;&gt;Node2</title>
<path fill="none" stroke="orange" stroke-dasharray="5,2" d="M82.19,-164.42C82.19,-149.64 82.19,-129.15 82.19,-113.82"/>
<polygon fill="orange" stroke="orange" points="78.69,-164.44 82.19,-174.44 85.69,-164.44 78.69,-164.44"/>
<text text-anchor="start" x="82.19" y="-147" font-family="Helvetica,sans-Serif" font-size="10.00"> &lt; haldls::v2::instruction</text>
<text text-anchor="middle" x="134.56" y="-135" font-family="Helvetica,sans-Serif" font-size="10.00">_word_type &gt;</text>
</g>
<!-- Node4 -->
<g id="node4" class="node">
<title>Node4</title>
<g id="a_node4"><a xlink:title=" ">
<polygon fill="white" stroke="#bfbfbf" points="67.69,-243.5 67.69,-263.5 96.69,-263.5 96.69,-243.5 67.69,-243.5"/>
<text text-anchor="middle" x="81.74" y="-250.5" font-family="Helvetica,sans-Serif" font-size="10.00">T</text>
</a>
</g>
</g>
<!-- Node4&#45;&gt;Node3 -->
<g id="edge3" class="edge">
<title>Node4&#45;&gt;Node3</title>
<path fill="none" stroke="#9a32cd" stroke-dasharray="5,2" d="M82.19,-233.08C82.19,-220.5 82.19,-204.68 82.19,-194.82"/>
<polygon fill="#9a32cd" stroke="#9a32cd" points="78.69,-233.46 82.19,-243.46 85.69,-233.46 78.69,-233.46"/>
<text text-anchor="middle" x="103.86" y="-216" font-family="Helvetica,sans-Serif" font-size="10.00"> elements</text>
</g>
</g>
</svg>
