<?xml version="1.0" encoding="UTF-8" standalone="no"?>
<!DOCTYPE svg PUBLIC "-//W3C//DTD SVG 1.1//EN"
 "http://www.w3.org/Graphics/SVG/1.1/DTD/svg11.dtd">
<!-- Generated by graphviz version 2.43.0 (0)
 -->
<!-- Title: stadls::vx::DumperDone Pages: 1 -->
<svg width="136pt" height="236pt"
 viewBox="0.00 0.00 136.06 236.00" xmlns="http://www.w3.org/2000/svg" xmlns:xlink="http://www.w3.org/1999/xlink">
<g id="graph0" class="graph" transform="scale(1 1) rotate(0) translate(4 232)">
<title>stadls::vx::DumperDone</title>
<polygon fill="white" stroke="transparent" points="-4,4 -4,-232 132.06,-232 132.06,4 -4,4"/>
<!-- Node1 -->
<g id="node1" class="node">
<title>Node1</title>
<g id="a_node1"><a xlink:title=" ">
<polygon fill="#bfbfbf" stroke="black" points="1.12,-0.5 1.12,-20.5 123.81,-20.5 123.81,-0.5 1.12,-0.5"/>
<text text-anchor="middle" x="62.47" y="-7.5" font-family="Helvetica,sans-Serif" font-size="10.00">stadls::vx::DumperDone</text>
</a>
</g>
</g>
<!-- Node2 -->
<g id="node2" class="node">
<title>Node2</title>
<g id="a_node2"><a xlink:title=" ">
<polygon fill="white" stroke="#bfbfbf" points="0,-69.5 0,-89.5 124.93,-89.5 124.93,-69.5 0,-69.5"/>
<text text-anchor="middle" x="62.47" y="-76.5" font-family="Helvetica,sans-Serif" font-size="10.00">std::vector&lt; coco_type &gt;</text>
</a>
</g>
</g>
<!-- Node2&#45;&gt;Node1 -->
<g id="edge1" class="edge">
<title>Node2&#45;&gt;Node1</title>
<path fill="none" stroke="#9a32cd" stroke-dasharray="5,2" d="M62.47,-59.08C62.47,-46.5 62.47,-30.68 62.47,-20.82"/>
<polygon fill="#9a32cd" stroke="#9a32cd" points="58.97,-59.46 62.47,-69.46 65.97,-59.46 58.97,-59.46"/>
<text text-anchor="middle" x="78.3" y="-42" font-family="Helvetica,sans-Serif" font-size="10.00"> values</text>
</g>
<!-- Node3 -->
<g id="node3" class="node">
<title>Node3</title>
<g id="a_node3"><a xlink:title="STL class.">
<polygon fill="white" stroke="#bfbfbf" points="19.73,-138.5 19.73,-158.5 105.2,-158.5 105.2,-138.5 19.73,-138.5"/>
<text text-anchor="middle" x="62.47" y="-145.5" font-family="Helvetica,sans-Serif" font-size="10.00">std::vector&lt; T &gt;</text>
</a>
</g>
</g>
<!-- Node3&#45;&gt;Node2 -->
<g id="edge2" class="edge">
<title>Node3&#45;&gt;Node2</title>
<path fill="none" stroke="orange" stroke-dasharray="5,2" d="M62.47,-128.08C62.47,-115.5 62.47,-99.68 62.47,-89.82"/>
<polygon fill="orange" stroke="orange" points="58.97,-128.46 62.47,-138.46 65.97,-128.46 58.97,-128.46"/>
<text text-anchor="middle" x="95.26" y="-111" font-family="Helvetica,sans-Serif" font-size="10.00"> &lt; coco_type &gt;</text>
</g>
<!-- Node4 -->
<g id="node4" class="node">
<title>Node4</title>
<g id="a_node4"><a xlink:title=" ">
<polygon fill="white" stroke="#bfbfbf" points="47.97,-207.5 47.97,-227.5 76.97,-227.5 76.97,-207.5 47.97,-207.5"/>
<text text-anchor="middle" x="62.02" y="-214.5" font-family="Helvetica,sans-Serif" font-size="10.00">T</text>
</a>
</g>
</g>
<!-- Node4&#45;&gt;Node3 -->
<g id="edge3" class="edge">
<title>Node4&#45;&gt;Node3</title>
<path fill="none" stroke="#9a32cd" stroke-dasharray="5,2" d="M62.47,-197.08C62.47,-184.5 62.47,-168.68 62.47,-158.82"/>
<polygon fill="#9a32cd" stroke="#9a32cd" points="58.97,-197.46 62.47,-207.46 65.97,-197.46 58.97,-197.46"/>
<text text-anchor="middle" x="84.14" y="-180" font-family="Helvetica,sans-Serif" font-size="10.00"> elements</text>
</g>
</g>
</svg>
