<?xml version="1.0" encoding="UTF-8" standalone="no"?>
<!DOCTYPE svg PUBLIC "-//W3C//DTD SVG 1.1//EN"
 "http://www.w3.org/Graphics/SVG/1.1/DTD/svg11.dtd">
<!-- Generated by graphviz version 2.43.0 (0)
 -->
<!-- Title: stadls::v2::QuickQueueRequest Pages: 1 -->
<!--zoomable 210 -->
<svg id="main" version="1.1" xmlns="http://www.w3.org/2000/svg" xmlns:xlink="http://www.w3.org/1999/xlink" xml:space="preserve" onload="init(evt)">
<style type="text/css"><![CDATA[
.edge:hover path { stroke: red; }
.edge:hover polygon { stroke: red; fill: red; }
]]></style>
<script type="text/javascript"><![CDATA[
var edges = document.getElementsByTagName('g');
if (edges && edges.length) {
  for (var i=0;i<edges.length;i++) {
    if (edges[i].id.substr(0,4)=='edge') {
      edges[i].setAttribute('class','edge');
    }
  }
}
]]></script>
        <defs>
                <circle id="rim" cx="0" cy="0" r="7"/>
                <circle id="rim2" cx="0" cy="0" r="3.5"/>
                <g id="zoomPlus">
                        <use xlink:href="#rim" fill="#404040">
                                <set attributeName="fill" to="#808080" begin="zoomplus.mouseover" end="zoomplus.mouseout"/>
                        </use>
                        <path d="M-4,0h8M0,-4v8" fill="none" stroke="white" stroke-width="1.5" pointer-events="none"/>
                </g>
                <g id="zoomMin">
                        <use xlink:href="#rim" fill="#404040">
                                <set attributeName="fill" to="#808080" begin="zoomminus.mouseover" end="zoomminus.mouseout"/>
                        </use>
                        <path d="M-4,0h8" fill="none" stroke="white" stroke-width="1.5" pointer-events="none"/>
                </g>
                <g id="dirArrow">
                        <path fill="none" stroke="white" stroke-width="1.5" d="M0,-3.0v7 M-2.5,-0.5L0,-3.0L2.5,-0.5"/>
                </g>
               <g id="resetDef">
                       <use xlink:href="#rim2" fill="#404040">
                               <set attributeName="fill" to="#808080" begin="reset.mouseover" end="reset.mouseout"/>
                       </use>
               </g>
        </defs>

<script type="text/javascript">
var viewWidth = 1054;
var viewHeight = 210;
var sectionId = 'dynsection-0';
</script>
<script xlink:href="svgpan.js"/>
<svg id="graph" class="graph">
<g id="viewport">
<title>stadls::v2::QuickQueueRequest</title>
<polygon fill="white" stroke="transparent" points="-4,4 -4,-205.77 1049.73,-205.77 1049.73,4 -4,4"/>
<!-- Node1 -->
<g id="node1" class="node">
<title>Node1</title>
<g id="a_node1"><a xlink:title=" ">
<polygon fill="#bfbfbf" stroke="black" points="889.13,-55.77 889.13,-75.77 1045.73,-75.77 1045.73,-55.77 889.13,-55.77"/>
<text text-anchor="middle" x="967.43" y="-62.77" font-family="Helvetica,sans-Serif" font-size="10.00">stadls::v2::QuickQueueRequest</text>
</a>
</g>
</g>
<!-- Node2 -->
<g id="node2" class="node">
<title>Node2</title>
<g id="a_node2"><a xlink:title=" ">
<polygon fill="white" stroke="#bfbfbf" points="620.69,-96.77 620.69,-140.77 738.66,-140.77 738.66,-96.77 620.69,-96.77"/>
<text text-anchor="start" x="628.69" y="-127.77" font-family="Helvetica,sans-Serif" font-size="10.00">std::vector&lt; std::vector</text>
<text text-anchor="start" x="628.69" y="-115.77" font-family="Helvetica,sans-Serif" font-size="10.00">&lt; haldls::v2::instruction</text>
<text text-anchor="middle" x="679.67" y="-103.77" font-family="Helvetica,sans-Serif" font-size="10.00">_word_type &gt; &gt;</text>
</a>
</g>
</g>
<!-- Node2&#45;&gt;Node1 -->
<g id="edge1" class="edge">
<title>Node2&#45;&gt;Node1</title>
<path fill="none" stroke="#9a32cd" stroke-dasharray="5,2" d="M748.92,-106.11C798.92,-96.84 865.86,-84.42 912.21,-75.82"/>
<polygon fill="#9a32cd" stroke="#9a32cd" points="748.04,-102.71 738.85,-107.98 749.32,-109.59 748.04,-102.71"/>
<text text-anchor="middle" x="813.9" y="-119.77" font-family="Helvetica,sans-Serif" font-size="10.00"> playback_program_bytes</text>
<text text-anchor="middle" x="813.9" y="-107.77" font-family="Helvetica,sans-Serif" font-size="10.00">chip_program_bytes</text>
</g>
<!-- Node3 -->
<g id="node3" class="node">
<title>Node3</title>
<g id="a_node3"><a xlink:title=" ">
<polygon fill="white" stroke="#bfbfbf" points="346.24,-93.77 346.24,-137.77 456.7,-137.77 456.7,-93.77 346.24,-93.77"/>
<text text-anchor="start" x="354.24" y="-124.77" font-family="Helvetica,sans-Serif" font-size="10.00">std::vector&lt; haldls</text>
<text text-anchor="start" x="354.24" y="-112.77" font-family="Helvetica,sans-Serif" font-size="10.00">::v2::instruction_word</text>
<text text-anchor="middle" x="401.47" y="-100.77" font-family="Helvetica,sans-Serif" font-size="10.00">_type &gt;</text>
</a>
</g>
</g>
<!-- Node3&#45;&gt;Node2 -->
<g id="edge2" class="edge">
<title>Node3&#45;&gt;Node2</title>
<path fill="none" stroke="#9a32cd" stroke-dasharray="5,2" d="M466.95,-116.47C513.32,-116.97 575.34,-117.64 620.26,-118.13"/>
<polygon fill="#9a32cd" stroke="#9a32cd" points="466.75,-112.96 456.71,-116.36 466.67,-119.96 466.75,-112.96"/>
<text text-anchor="middle" x="538.69" y="-120.77" font-family="Helvetica,sans-Serif" font-size="10.00"> elements</text>
</g>
<!-- Node4 -->
<g id="node4" class="node">
<title>Node4</title>
<g id="a_node4"><a xlink:title="STL class.">
<polygon fill="white" stroke="#bfbfbf" points="108.34,-79.77 108.34,-99.77 193.81,-99.77 193.81,-79.77 108.34,-79.77"/>
<text text-anchor="middle" x="151.08" y="-86.77" font-family="Helvetica,sans-Serif" font-size="10.00">std::vector&lt; T &gt;</text>
</a>
</g>
</g>
<!-- Node4&#45;&gt;Node2 -->
<g id="edge5" class="edge">
<title>Node4&#45;&gt;Node2</title>
<path fill="none" stroke="orange" stroke-dasharray="5,2" d="M168.73,-107.31C179.85,-117.81 195.4,-130.32 211.81,-136.77 350.17,-191.09 529.67,-158.42 620.51,-135.46"/>
<polygon fill="orange" stroke="orange" points="171.05,-104.68 161.47,-100.14 166.13,-109.66 171.05,-104.68"/>
<text text-anchor="start" x="354.24" y="-192.77" font-family="Helvetica,sans-Serif" font-size="10.00"> &lt; std::vector&lt; haldls</text>
<text text-anchor="start" x="354.24" y="-180.77" font-family="Helvetica,sans-Serif" font-size="10.00">::v2::instruction_word</text>
<text text-anchor="middle" x="401.47" y="-168.77" font-family="Helvetica,sans-Serif" font-size="10.00">_type &gt; &gt;</text>
</g>
<!-- Node4&#45;&gt;Node3 -->
<g id="edge3" class="edge">
<title>Node4&#45;&gt;Node3</title>
<path fill="none" stroke="orange" stroke-dasharray="5,2" d="M204.11,-95.21C245.63,-99.56 303.62,-105.63 345.81,-110.04"/>
<polygon fill="orange" stroke="orange" points="204.24,-91.71 193.93,-94.15 203.51,-98.67 204.24,-91.71"/>
<text text-anchor="start" x="217.65" y="-123.77" font-family="Helvetica,sans-Serif" font-size="10.00"> &lt; haldls::v2::instruction</text>
<text text-anchor="middle" x="270.02" y="-111.77" font-family="Helvetica,sans-Serif" font-size="10.00">_word_type &gt;</text>
</g>
<!-- Node6 -->
<g id="node6" class="node">
<title>Node6</title>
<g id="a_node6"><a xlink:title=" ">
<polygon fill="white" stroke="#bfbfbf" points="481.65,-49.77 481.65,-81.77 595.74,-81.77 595.74,-49.77 481.65,-49.77"/>
<text text-anchor="start" x="489.65" y="-68.77" font-family="Helvetica,sans-Serif" font-size="10.00">std::vector&lt; haldls</text>
<text text-anchor="middle" x="538.69" y="-56.77" font-family="Helvetica,sans-Serif" font-size="10.00">::v2::ocp_word_type &gt;</text>
</a>
</g>
</g>
<!-- Node4&#45;&gt;Node6 -->
<g id="edge7" class="edge">
<title>Node4&#45;&gt;Node6</title>
<path fill="none" stroke="orange" stroke-dasharray="5,2" d="M184.56,-76.18C193.26,-73.14 202.76,-70.35 211.81,-68.77 305.29,-52.37 416.19,-56.17 481.54,-60.74"/>
<polygon fill="orange" stroke="orange" points="183.31,-72.91 175.14,-79.66 185.74,-79.47 183.31,-72.91"/>
<text text-anchor="start" x="218.76" y="-83.77" font-family="Helvetica,sans-Serif" font-size="10.00"> &lt; haldls::v2::ocp_word</text>
<text text-anchor="middle" x="270.02" y="-71.77" font-family="Helvetica,sans-Serif" font-size="10.00">_type &gt;</text>
</g>
<!-- Node7 -->
<g id="node7" class="node">
<title>Node7</title>
<g id="a_node7"><a xlink:title=" ">
<polygon fill="white" stroke="#bfbfbf" points="474.7,-1.77 474.7,-33.77 602.69,-33.77 602.69,-1.77 474.7,-1.77"/>
<text text-anchor="start" x="482.7" y="-20.77" font-family="Helvetica,sans-Serif" font-size="10.00">std::vector&lt; haldls</text>
<text text-anchor="middle" x="538.69" y="-8.77" font-family="Helvetica,sans-Serif" font-size="10.00">::v2::ocp_address_type &gt;</text>
</a>
</g>
</g>
<!-- Node4&#45;&gt;Node7 -->
<g id="edge9" class="edge">
<title>Node4&#45;&gt;Node7</title>
<path fill="none" stroke="orange" stroke-dasharray="5,2" d="M164.49,-71.22C175.16,-57.02 191.96,-38.45 211.81,-29.77 296.88,7.43 406.7,1.9 474.64,-6.89"/>
<polygon fill="orange" stroke="orange" points="161.63,-69.2 158.66,-79.37 167.32,-73.27 161.63,-69.2"/>
<text text-anchor="start" x="211.81" y="-44.77" font-family="Helvetica,sans-Serif" font-size="10.00"> &lt; haldls::v2::ocp_address</text>
<text text-anchor="middle" x="270.02" y="-32.77" font-family="Helvetica,sans-Serif" font-size="10.00">_type &gt;</text>
</g>
<!-- Node5 -->
<g id="node5" class="node">
<title>Node5</title>
<g id="a_node5"><a xlink:title=" ">
<polygon fill="white" stroke="#bfbfbf" points="0,-79.77 0,-99.77 29,-99.77 29,-79.77 0,-79.77"/>
<text text-anchor="middle" x="14.5" y="-86.77" font-family="Helvetica,sans-Serif" font-size="10.00">T</text>
</a>
</g>
</g>
<!-- Node5&#45;&gt;Node4 -->
<g id="edge4" class="edge">
<title>Node5&#45;&gt;Node4</title>
<path fill="none" stroke="#9a32cd" stroke-dasharray="5,2" d="M39.6,-89.77C58.66,-89.77 85.74,-89.77 108.31,-89.77"/>
<polygon fill="#9a32cd" stroke="#9a32cd" points="39.4,-86.27 29.4,-89.77 39.4,-93.27 39.4,-86.27"/>
<text text-anchor="middle" x="68.67" y="-92.77" font-family="Helvetica,sans-Serif" font-size="10.00"> elements</text>
</g>
<!-- Node6&#45;&gt;Node1 -->
<g id="edge6" class="edge">
<title>Node6&#45;&gt;Node1</title>
<path fill="none" stroke="#9a32cd" stroke-dasharray="5,2" d="M605.92,-65.77C682.44,-65.77 808.18,-65.77 889.11,-65.77"/>
<polygon fill="#9a32cd" stroke="#9a32cd" points="605.92,-62.27 595.92,-65.77 605.92,-69.27 605.92,-62.27"/>
<text text-anchor="middle" x="679.67" y="-68.77" font-family="Helvetica,sans-Serif" font-size="10.00"> board_words</text>
</g>
<!-- Node7&#45;&gt;Node1 -->
<g id="edge8" class="edge">
<title>Node7&#45;&gt;Node1</title>
<path fill="none" stroke="#9a32cd" stroke-dasharray="5,2" d="M613.21,-26.04C690.16,-34.69 810.48,-48.22 888.9,-57.05"/>
<polygon fill="#9a32cd" stroke="#9a32cd" points="613.45,-22.54 603.12,-24.9 612.67,-29.5 613.45,-22.54"/>
<text text-anchor="middle" x="679.67" y="-42.77" font-family="Helvetica,sans-Serif" font-size="10.00"> board_addresses</text>
</g>
</g>
</svg>
        <g id="navigator" transform="translate(0 0)" fill="#404254">
                <rect fill="#f2f5e9" fill-opacity="0.5" stroke="#606060" stroke-width=".5" x="0" y="0" width="60" height="60"/>
                <use id="zoomplus" xlink:href="#zoomPlus" x="17" y="9" onmousedown="handleZoom(evt,'in')"/>
                <use id="zoomminus" xlink:href="#zoomMin" x="42" y="9" onmousedown="handleZoom(evt,'out')"/>
                <use id="reset" xlink:href="#resetDef" x="30" y="36" onmousedown="handleReset()"/>
                <g id="arrowUp" xlink:href="#dirArrow" transform="translate(30 24)" onmousedown="handlePan(0,-1)">
                  <use xlink:href="#rim" fill="#404040">
                        <set attributeName="fill" to="#808080" begin="arrowUp.mouseover" end="arrowUp.mouseout"/>
                  </use>
                  <path fill="none" stroke="white" stroke-width="1.5" d="M0,-3.0v7 M-2.5,-0.5L0,-3.0L2.5,-0.5"/>
                </g>
                <g id="arrowRight" xlink:href="#dirArrow" transform="rotate(90) translate(36 -43)" onmousedown="handlePan(1,0)">
                  <use xlink:href="#rim" fill="#404040">
                        <set attributeName="fill" to="#808080" begin="arrowRight.mouseover" end="arrowRight.mouseout"/>
                  </use>
                  <path fill="none" stroke="white" stroke-width="1.5" d="M0,-3.0v7 M-2.5,-0.5L0,-3.0L2.5,-0.5"/>
                </g>
                <g id="arrowDown" xlink:href="#dirArrow" transform="rotate(180) translate(-30 -48)" onmousedown="handlePan(0,1)">
                  <use xlink:href="#rim" fill="#404040">
                        <set attributeName="fill" to="#808080" begin="arrowDown.mouseover" end="arrowDown.mouseout"/>
                  </use>
                  <path fill="none" stroke="white" stroke-width="1.5" d="M0,-3.0v7 M-2.5,-0.5L0,-3.0L2.5,-0.5"/>
                </g>
                <g id="arrowLeft" xlink:href="#dirArrow" transform="rotate(270) translate(-36 17)" onmousedown="handlePan(-1,0)">
                  <use xlink:href="#rim" fill="#404040">
                        <set attributeName="fill" to="#808080" begin="arrowLeft.mouseover" end="arrowLeft.mouseout"/>
                  </use>
                  <path fill="none" stroke="white" stroke-width="1.5" d="M0,-3.0v7 M-2.5,-0.5L0,-3.0L2.5,-0.5"/>
                </g>
        </g>
        <svg viewBox="0 0 15 15" width="100%" height="30px" preserveAspectRatio="xMaxYMin meet">
         <g id="arrow_out" transform="scale(0.3 0.3)">
          <a xlink:href="structstadls_1_1v2_1_1_quick_queue_request__coll__graph_org.svg" target="_base">
           <rect id="button" ry="5" rx="5" y="6" x="6" height="38" width="38"
                fill="#f2f5e9" fill-opacity="0.5" stroke="#606060" stroke-width="1.0"/>
           <path id="arrow"
             d="M 11.500037,31.436501 C 11.940474,20.09759 22.043105,11.32322 32.158766,21.979434 L 37.068811,17.246167 C 37.068811,17.246167 37.088388,32 37.088388,32 L 22.160133,31.978069 C 22.160133,31.978069 26.997745,27.140456 26.997745,27.140456 C 18.528582,18.264221 13.291696,25.230495 11.500037,31.436501 z"
             style="fill:#404040;"/>
          </a>
         </g>
        </svg>
</svg>
